<svg xmlns="http://www.w3.org/2000/svg" xmlns:xlink="http://www.w3.org/1999/xlink" aria-hidden="true" role="img" class="iconify iconify--fa" width="0.8em" height="1em" preserveAspectRatio="xMidYMid meet" viewBox="0 0 1024 1280" data-icon="fa:angle-double-up"><path fill="currentColor" d="M1011 1056q0 13-10 23l-50 50q-10 10-23 10t-23-10L512 736l-393 393q-10 10-23 10t-23-10l-50-50q-10-10-10-23t10-23l466-466q10-10 23-10t23 10l466 466q10 10 10 23zm0-384q0 13-10 23l-50 50q-10 10-23 10t-23-10L512 352L119 745q-10 10-23 10t-23-10l-50-50q-10-10-10-23t10-23l466-466q10-10 23-10t23 10l466 466q10 10 10 23z"></path></svg>