<svg xmlns="http://www.w3.org/2000/svg" xmlns:xlink="http://www.w3.org/1999/xlink" aria-hidden="true" role="img" class="iconify iconify--fa" width="1.8em" height="1em" preserveAspectRatio="xMidYMid meet" viewBox="0 0 2304 1280" data-icon="fa:battery"><path fill="currentColor" d="M1920 256v768H256V256h1664zm128 576h128V448h-128V160q0-14-9-23t-23-9H160q-14 0-23 9t-9 23v960q0 14 9 23t23 9h1856q14 0 23-9t9-23V832zm256-384v384q0 53-37.5 90.5T2176 960v160q0 66-47 113t-113 47H160q-66 0-113-47T0 1120V160Q0 94 47 47T160 0h1856q66 0 113 47t47 113v160q53 0 90.5 37.5T2304 448z"></path></svg>