<svg xmlns="http://www.w3.org/2000/svg" xmlns:xlink="http://www.w3.org/1999/xlink" aria-hidden="true" role="img" class="iconify iconify--uit" width="1em" height="1em" preserveAspectRatio="xMidYMid meet" viewBox="0 0 24 24" data-icon="uit:align-letter-right"><path fill="currentColor" d="M9.5 4h12a.5.5 0 0 0 0-1h-12a.5.5 0 0 0 0 1zm12 17h-19a.5.5 0 0 0 0 1h19a.5.5 0 0 0 0-1zm0-4h-11a.5.5 0 0 0 0 1h11a.5.5 0 0 0 0-1zm0-6h-19a.5.5 0 0 0 0 1h19a.5.5 0 0 0 0-1zm0-4h-19a.5.5 0 0 0 0 1h19a.5.5 0 0 0 0-1z"></path></svg>