<svg xmlns="http://www.w3.org/2000/svg" xmlns:xlink="http://www.w3.org/1999/xlink" aria-hidden="true" role="img" class="iconify iconify--uit" width="1em" height="1em" preserveAspectRatio="xMidYMid meet" viewBox="0 0 24 24" data-icon="uit:angle-double-left"><path fill="currentColor" d="m8.207 12l3.146-3.146a.5.5 0 0 0-.707-.707l-3.5 3.5a.5.5 0 0 0 0 .707l3.5 3.5a.498.498 0 0 0 .707 0a.5.5 0 0 0 0-.708L8.208 12zm9.147 3.146L14.207 12l3.146-3.146a.5.5 0 0 0-.707-.707l-3.5 3.5a.5.5 0 0 0 0 .707l3.5 3.5a.498.498 0 0 0 .707 0a.5.5 0 0 0 0-.708z"></path></svg>