<svg xmlns="http://www.w3.org/2000/svg" xmlns:xlink="http://www.w3.org/1999/xlink" aria-hidden="true" role="img" class="iconify iconify--uit" width="1em" height="1em" preserveAspectRatio="xMidYMid meet" viewBox="0 0 24 24" data-icon="uit:angle-double-right"><path fill="currentColor" d="M7.353 8.147a.5.5 0 0 0-.707.707L9.793 12l-3.147 3.146a.5.5 0 1 0 .707.708l3.5-3.5a.5.5 0 0 0 0-.707l-3.5-3.5zm9.5 3.5l-3.5-3.5a.5.5 0 0 0-.707.707L15.793 12l-3.147 3.146a.5.5 0 1 0 .707.708l3.5-3.5a.5.5 0 0 0 0-.707z"></path></svg>