<svg xmlns="http://www.w3.org/2000/svg" xmlns:xlink="http://www.w3.org/1999/xlink" aria-hidden="true" role="img" class="iconify iconify--uit" width="1em" height="1em" preserveAspectRatio="xMidYMid meet" viewBox="0 0 24 24" data-icon="uit:border-alt"><path fill="currentColor" d="M7.5 10a1.5 1.5 0 1 0 0 3a1.5 1.5 0 0 0 0-3zm0 2a.5.5 0 1 1 0-1a.5.5 0 0 1 0 1zm4 6a1.5 1.5 0 1 0 0 3a1.5 1.5 0 0 0 0-3zm0 2a.5.5 0 1 1 0-1a.5.5 0 0 1 0 1zm-4-2a1.5 1.5 0 1 0 0 3a1.5 1.5 0 0 0 0-3zm0 2a.5.5 0 1 1 0-1a.5.5 0 0 1 0 1zM21 3.5a.5.5 0 0 0-.5-.5h-17a.5.5 0 0 0-.5.5v17a.5.5 0 1 0 1 0V4h16.5a.5.5 0 0 0 .5-.5zM11.5 6a1.5 1.5 0 1 0 0 3a1.5 1.5 0 0 0 0-3zm0 2a.5.5 0 1 1 0-1a.5.5 0 0 1 0 1zm8 2a1.5 1.5 0 1 0 0 3a1.5 1.5 0 0 0 0-3zm0 2a.5.5 0 1 1 0-1a.5.5 0 0 1 0 1zm-8 2a1.5 1.5 0 1 0 0 3a1.5 1.5 0 0 0 0-3zm0 2a.5.5 0 1 1 0-1a.5.5 0 0 1 0 1zm8-10a1.5 1.5 0 1 0 0 3a1.5 1.5 0 0 0 0-3zm0 2a.5.5 0 1 1 0-1a.5.5 0 0 1 0 1zm0 10a1.5 1.5 0 1 0 0 3a1.5 1.5 0 0 0 0-3zm0 2a.5.5 0 1 1 0-1a.5.5 0 0 1 0 1zm0-6a1.5 1.5 0 1 0 0 3a1.5 1.5 0 0 0 0-3zm0 2a.5.5 0 1 1 0-1a.5.5 0 0 1 0 1zm-8-6a1.5 1.5 0 1 0 0 3a1.5 1.5 0 0 0 0-3zm0 2a.5.5 0 1 1 0-1a.5.5 0 0 1 0 1zm4 6a1.5 1.5 0 1 0 0 3a1.5 1.5 0 0 0 0-3zm0 2a.5.5 0 1 1 0-1a.5.5 0 0 1 0 1zm0-10a1.5 1.5 0 1 0 0 3a1.5 1.5 0 0 0 0-3zm0 2a.5.5 0 1 1 0-1a.5.5 0 0 1 0 1z"></path></svg>