<svg xmlns="http://www.w3.org/2000/svg" xmlns:xlink="http://www.w3.org/1999/xlink" aria-hidden="true" role="img" class="iconify iconify--uit" width="1em" height="1em" preserveAspectRatio="xMidYMid meet" viewBox="0 0 24 24" data-icon="uit:check-square"><path fill="currentColor" d="M9.847 15.754a.5.5 0 0 0 .707 0l6.8-6.8a.5.5 0 0 0-.708-.708L10.2 14.693l-2.847-2.846a.5.5 0 0 0-.707.707l3.2 3.2zM21.5 2h-19a.5.5 0 0 0-.5.5v19a.5.5 0 0 0 .5.5h19a.5.5 0 0 0 .5-.5v-19a.5.5 0 0 0-.5-.5zM21 21H3V3h18v18z"></path></svg>