<svg xmlns="http://www.w3.org/2000/svg" xmlns:xlink="http://www.w3.org/1999/xlink" aria-hidden="true" role="img" class="iconify iconify--uit" width="1em" height="1em" preserveAspectRatio="xMidYMid meet" viewBox="0 0 24 24" data-icon="uit:dialpad"><path fill="currentColor" d="M7 10H3a.5.5 0 0 0-.5.5v4a.5.5 0 0 0 .5.5h4a.5.5 0 0 0 .5-.5v-4A.5.5 0 0 0 7 10zm-.5 4h-3v-3h3v3zM7 3H3a.5.5 0 0 0-.5.5v4A.5.5 0 0 0 3 8h4a.5.5 0 0 0 .5-.5v-4A.5.5 0 0 0 7 3zm-.5 4h-3V4h3v3zM14 3h-4a.5.5 0 0 0-.5.5v4a.5.5 0 0 0 .5.5h4a.5.5 0 0 0 .5-.5v-4A.5.5 0 0 0 14 3zm-.5 4h-3V4h3v3zM21 3h-4a.5.5 0 0 0-.5.5v4a.5.5 0 0 0 .5.5h4a.5.5 0 0 0 .5-.5v-4A.5.5 0 0 0 21 3zm-.5 4h-3V4h3v3zM14 17h-4a.5.5 0 0 0-.5.5v4a.5.5 0 0 0 .5.5h4a.5.5 0 0 0 .5-.5v-4a.5.5 0 0 0-.5-.5zm-.5 4h-3v-3h3v3zM21 10h-4a.5.5 0 0 0-.5.5v4a.5.5 0 0 0 .5.5h4a.5.5 0 0 0 .5-.5v-4a.5.5 0 0 0-.5-.5zm-.5 4h-3v-3h3v3zM14 10h-4a.5.5 0 0 0-.5.5v4a.5.5 0 0 0 .5.5h4a.5.5 0 0 0 .5-.5v-4a.5.5 0 0 0-.5-.5zm-.5 4h-3v-3h3v3z"></path></svg>