<svg xmlns="http://www.w3.org/2000/svg" xmlns:xlink="http://www.w3.org/1999/xlink" aria-hidden="true" role="img" class="iconify iconify--uit" width="1em" height="1em" preserveAspectRatio="xMidYMid meet" viewBox="0 0 24 24" data-icon="uit:direction"><path fill="currentColor" d="M8.854 9.854L12 6.707l3.146 3.147a.498.498 0 0 0 .707 0a.5.5 0 0 0 0-.707l-3.5-3.5a.5.5 0 0 0-.706 0l-3.5 3.5a.5.5 0 0 0 .707.707zm6.292 4.292L12 17.293l-3.147-3.146a.5.5 0 0 0-.707.707l3.5 3.5a.498.498 0 0 0 .707 0l3.5-3.5a.5.5 0 0 0-.707-.708z"></path></svg>