<svg xmlns="http://www.w3.org/2000/svg" xmlns:xlink="http://www.w3.org/1999/xlink" aria-hidden="true" role="img" class="iconify iconify--uit" width="1em" height="1em" preserveAspectRatio="xMidYMid meet" viewBox="0 0 24 24" data-icon="uit:ellipsis-v"><path fill="currentColor" d="M12 7a2 2 0 1 0 0-4a2 2 0 0 0 0 4zm0-3a1 1 0 1 1-.001 2.001A1 1 0 0 1 12 4zm0 6a2 2 0 1 0 0 4a2 2 0 0 0 0-4zm0 3a1 1 0 1 1 0-2a1 1 0 0 1 0 2zm0 4a2 2 0 1 0 0 4a2 2 0 0 0 0-4zm0 3a1 1 0 1 1 0-2a1 1 0 0 1 0 2z"></path></svg>