<svg xmlns="http://www.w3.org/2000/svg" xmlns:xlink="http://www.w3.org/1999/xlink" aria-hidden="true" role="img" class="iconify iconify--uit" width="1em" height="1em" preserveAspectRatio="xMidYMid meet" viewBox="0 0 24 24" data-icon="uit:list-ul"><path fill="currentColor" d="M3.5 12a.5.5 0 1 0 0 1a.5.5 0 0 0 0-1zm3-4h15a.5.5 0 0 0 0-1h-15a.5.5 0 0 0 0 1zm-3 9a.5.5 0 1 0 0 1a.5.5 0 0 0 0-1zm18-5h-15a.5.5 0 0 0 0 1h15a.5.5 0 0 0 0-1zm-18-5a.5.5 0 1 0 0 1a.5.5 0 0 0 0-1zm18 10h-15a.5.5 0 0 0 0 1h15a.5.5 0 0 0 0-1z"></path></svg>