<svg xmlns="http://www.w3.org/2000/svg" xmlns:xlink="http://www.w3.org/1999/xlink" aria-hidden="true" role="img" class="iconify iconify--uit" width="1em" height="1em" preserveAspectRatio="xMidYMid meet" viewBox="0 0 24 24" data-icon="uit:ruler-combined"><path fill="currentColor" d="M21.5 2h-19a.5.5 0 0 0-.5.5v19a.5.5 0 0 0 .5.5h7a.5.5 0 0 0 .5-.5V10h11.5a.5.5 0 0 0 .5-.5v-7a.5.5 0 0 0-.5-.5zM21 9h-3.5V6.5a.5.5 0 0 0-1 0V9h-3V6.5a.5.5 0 0 0-1 0V9H10V6.5a.5.5 0 0 0-1 0V9H6.5a.5.5 0 0 0 0 1H9v2.5H6.5a.5.5 0 0 0 0 1H9v3H6.5a.5.5 0 0 0 0 1H9V21H3V3h18v6z"></path></svg>