<svg xmlns="http://www.w3.org/2000/svg" xmlns:xlink="http://www.w3.org/1999/xlink" aria-hidden="true" role="img" class="iconify iconify--uit" width="1em" height="1em" preserveAspectRatio="xMidYMid meet" viewBox="0 0 24 24" data-icon="uit:signal-alt-3"><path fill="currentColor" d="M6.5 16h-4a.5.5 0 0 0-.5.5v6a.5.5 0 0 0 .5.5h4a.5.5 0 0 0 .5-.5v-6a.5.5 0 0 0-.5-.5zM6 22H3v-5h3v5zM22.5 2h-4a.5.5 0 0 0-.5.5v20a.5.5 0 0 0 .5.5h4a.5.5 0 0 0 .5-.5v-20a.5.5 0 0 0-.5-.5zM22 22h-3V3h3v19zm-7.5-12h-4a.5.5 0 0 0-.5.5v12a.5.5 0 0 0 .5.5h4a.5.5 0 0 0 .5-.5v-12a.5.5 0 0 0-.5-.5zM14 22h-3V11h3v11z"></path></svg>