<svg xmlns="http://www.w3.org/2000/svg" xmlns:xlink="http://www.w3.org/1999/xlink" aria-hidden="true" role="img" class="iconify iconify--uit" width="1em" height="1em" preserveAspectRatio="xMidYMid meet" viewBox="0 0 24 24" data-icon="uit:signal-alt"><path fill="currentColor" d="M5.5 18a.5.5 0 0 0-.5.5v3a.5.5 0 1 0 1 0v-3a.5.5 0 0 0-.5-.5zm5-4a.5.5 0 0 0-.5.5v7a.5.5 0 1 0 1 0v-7a.5.5 0 0 0-.5-.5zm10-12a.5.5 0 0 0-.5.5v19a.5.5 0 1 0 1 0v-19a.5.5 0 0 0-.5-.5zm-5 7a.5.5 0 0 0-.5.5v12a.5.5 0 1 0 1 0v-12a.5.5 0 0 0-.5-.5z"></path></svg>