<svg xmlns="http://www.w3.org/2000/svg" xmlns:xlink="http://www.w3.org/1999/xlink" aria-hidden="true" role="img" class="iconify iconify--uis" width="1em" height="1em" preserveAspectRatio="xMidYMid meet" viewBox="0 0 24 24"><path fill="currentColor" d="M7 9c-.6 0-1 .4-1 1s.4 1 1 1h10c.6 0 1-.4 1-1s-.4-1-1-1H7zM3 7h18c.6 0 1-.4 1-1s-.4-1-1-1H3c-.6 0-1 .4-1 1s.4 1 1 1zm14 10H7c-.6 0-1 .4-1 1s.4 1 1 1h10c.6 0 1-.4 1-1s-.4-1-1-1zm4-4H3c-.6 0-1 .4-1 1s.4 1 1 1h18c.6 0 1-.4 1-1s-.4-1-1-1z"></path></svg>