<svg xmlns="http://www.w3.org/2000/svg" xmlns:xlink="http://www.w3.org/1999/xlink" aria-hidden="true" role="img" class="iconify iconify--uis" width="1em" height="1em" preserveAspectRatio="xMidYMid meet" viewBox="0 0 24 24" data-icon="uis:angle-double-up"><path fill="currentColor" d="M12.7 12.5c-.4-.4-1-.4-1.4 0l-3 3c-.4.4-.4 1 0 1.4c.4.4 1 .4 1.4 0l2.3-2.3l2.3 2.3c.2.2.4.3.7.3c.3 0 .5-.1.7-.3c.4-.4.4-1 0-1.4l-3-3zm-3-1L12 9.2l2.3 2.3c.2.2.4.3.7.3c.3 0 .5-.1.7-.3c.4-.4.4-1 0-1.4l-3-3c-.4-.4-1-.4-1.4 0l-3 3c-.4.4-.4 1 0 1.4c.4.3 1 .3 1.4 0z"></path></svg>