<svg xmlns="http://www.w3.org/2000/svg" xmlns:xlink="http://www.w3.org/1999/xlink" aria-hidden="true" role="img" class="iconify iconify--uis" width="1em" height="1em" preserveAspectRatio="xMidYMid meet" viewBox="0 0 24 24" data-icon="uis:direction"><path fill="currentColor" d="M14.3 14.8L12 17.1l-2.3-2.3c-.4-.4-1-.4-1.4 0c-.4.4-.4 1 0 1.4l3 3c.2.2.4.3.7.3c.3 0 .5-.1.7-.3l3-3c.4-.4.4-1 0-1.4c-.4-.4-1-.4-1.4 0zm-4.6-4.6L12 7.9l2.3 2.3c.2.2.4.3.7.3c.3 0 .5-.1.7-.3c.4-.4.4-1 0-1.4l-3-3c-.4-.4-1-.4-1.4 0l-3 3c-.4.4-.4 1 0 1.4c.4.4 1 .4 1.4 0z"></path></svg>