<svg xmlns="http://www.w3.org/2000/svg" xmlns:xlink="http://www.w3.org/1999/xlink" aria-hidden="true" role="img" class="iconify iconify--uis" width="1em" height="1em" preserveAspectRatio="xMidYMid meet" viewBox="0 0 24 24" data-icon="uis:list-ui-alt"><path fill="currentColor" d="M7.5 8h14c.6 0 1-.4 1-1s-.4-1-1-1h-14c-.6 0-1 .4-1 1s.4 1 1 1zm14 3h-10c-.6 0-1 .4-1 1s.4 1 1 1h10c.6 0 1-.4 1-1s-.4-1-1-1zm0 5h-6c-.6 0-1 .4-1 1s.4 1 1 1h6c.6 0 1-.4 1-1s-.4-1-1-1zM3.5 6c-.6 0-1 .4-1 1s.4 1 1 1s1-.4 1-1s-.4-1-1-1zm4 5c-.6 0-1 .4-1 1s.4 1 1 1s1-.4 1-1s-.4-1-1-1zm4 5c-.6 0-1 .4-1 1s.4 1 1 1s1-.4 1-1s-.4-1-1-1z"></path></svg>