<svg xmlns="http://www.w3.org/2000/svg" xmlns:xlink="http://www.w3.org/1999/xlink" aria-hidden="true" role="img" class="iconify iconify--uis" width="1em" height="1em" preserveAspectRatio="xMidYMid meet" viewBox="0 0 24 24" data-icon="uis:signal-alt"><path fill="currentColor" d="M5 18c-.6 0-1 .4-1 1v2c0 .6.4 1 1 1s1-.4 1-1v-2c0-.6-.4-1-1-1zm5-4c-.6 0-1 .4-1 1v6c0 .6.4 1 1 1s1-.4 1-1v-6c0-.6-.4-1-1-1zM20 2c-.6 0-1 .4-1 1v18c0 .6.4 1 1 1s1-.4 1-1V3c0-.6-.4-1-1-1zm-5 7c-.6 0-1 .4-1 1v11c0 .6.4 1 1 1s1-.4 1-1V10c0-.6-.4-1-1-1z"></path></svg>