<svg xmlns="http://www.w3.org/2000/svg" xmlns:xlink="http://www.w3.org/1999/xlink" aria-hidden="true" role="img" class="iconify iconify--ph" width="1em" height="1em" preserveAspectRatio="xMidYMid meet" viewBox="0 0 256 256" data-icon="ph:address-book-fill"><path fill="currentColor" d="M160 112a24 24 0 1 1-24-24a24.1 24.1 0 0 1 24 24Zm64-72v176a16 16 0 0 1-16 16H64a16 16 0 0 1-16-16v-20H32a8 8 0 0 1 0-16h16v-24H32a8 8 0 0 1 0-16h16v-24H32a8 8 0 0 1 0-16h16V76H32a8 8 0 0 1 0-16h16V40a16 16 0 0 1 16-16h144a16 16 0 0 1 16 16Zm-33.6 123.2a67.8 67.8 0 0 0-27.4-21.7a40 40 0 1 0-54 0a67.8 67.8 0 0 0-27.4 21.7a8 8 0 0 0 1.6 11.2A7.7 7.7 0 0 0 88 176a8 8 0 0 0 6.4-3.2a52 52 0 0 1 83.2 0a8.1 8.1 0 0 0 11.2 1.6a8 8 0 0 0 1.6-11.2Z"></path></svg>