<svg xmlns="http://www.w3.org/2000/svg" xmlns:xlink="http://www.w3.org/1999/xlink" aria-hidden="true" role="img" class="iconify iconify--ph" width="1em" height="1em" preserveAspectRatio="xMidYMid meet" viewBox="0 0 256 256" data-icon="ph:address-book-light"><path fill="currentColor" d="M159.1 142.1A37.6 37.6 0 0 0 174 112a38 38 0 0 0-76 0a37.6 37.6 0 0 0 14.9 30.1a66.4 66.4 0 0 0-29.7 22.3a6 6 0 0 0 9.6 7.2a54 54 0 0 1 86.4 0a6 6 0 0 0 8.4 1.2a6 6 0 0 0 1.2-8.4a66.4 66.4 0 0 0-29.7-22.3ZM110 112a26 26 0 1 1 26 26a26.1 26.1 0 0 1-26-26Zm98-86H64a14 14 0 0 0-14 14v22H32a6 6 0 0 0 0 12h18v28H32a6 6 0 0 0 0 12h18v28H32a6 6 0 0 0 0 12h18v28H32a6 6 0 0 0 0 12h18v22a14 14 0 0 0 14 14h144a14 14 0 0 0 14-14V40a14 14 0 0 0-14-14Zm2 190a2 2 0 0 1-2 2H64a2 2 0 0 1-2-2V40a2 2 0 0 1 2-2h144a2 2 0 0 1 2 2Z"></path></svg>