<svg xmlns="http://www.w3.org/2000/svg" xmlns:xlink="http://www.w3.org/1999/xlink" aria-hidden="true" role="img" class="iconify iconify--ph" width="1em" height="1em" preserveAspectRatio="xMidYMid meet" viewBox="0 0 256 256" data-icon="ph:address-book-bold"><path fill="currentColor" d="M208 20H64a20.1 20.1 0 0 0-20 20v16H32a12 12 0 0 0 0 24h12v16H32a12 12 0 0 0 0 24h12v16H32a12 12 0 0 0 0 24h12v16H32a12 12 0 0 0 0 24h12v16a20.1 20.1 0 0 0 20 20h144a20.1 20.1 0 0 0 20-20V40a20.1 20.1 0 0 0-20-20Zm-4 192H68V44h136Zm-103.2-36.6a47.9 47.9 0 0 1 70.4 0a12 12 0 0 0 17.6-16.4a73.4 73.4 0 0 0-19.2-14.6a44 44 0 1 0-67.2 0A73.4 73.4 0 0 0 83.2 159a12 12 0 0 0 17.6 16.4ZM116 116a20 20 0 1 1 20 20a20.1 20.1 0 0 1-20-20Z"></path></svg>