<svg xmlns="http://www.w3.org/2000/svg" xmlns:xlink="http://www.w3.org/1999/xlink" aria-hidden="true" role="img" class="iconify iconify--ph" width="1em" height="1em" preserveAspectRatio="xMidYMid meet" viewBox="0 0 256 256" data-icon="ph:address-book-thin"><path fill="currentColor" d="M154.7 142.8a36 36 0 1 0-37.4 0a63 63 0 0 0-32.5 22.8a4 4 0 0 0 .8 5.6a4.3 4.3 0 0 0 2.4.8a4.2 4.2 0 0 0 3.2-1.6a56 56 0 0 1 89.6 0a4 4 0 0 0 6.4-4.8a63 63 0 0 0-32.5-22.8ZM108 112a28 28 0 1 1 28 28a28.1 28.1 0 0 1-28-28Zm100-84H64a12 12 0 0 0-12 12v24H32a4 4 0 0 0 0 8h20v32H32a4 4 0 0 0 0 8h20v32H32a4 4 0 0 0 0 8h20v32H32a4 4 0 0 0 0 8h20v24a12 12 0 0 0 12 12h144a12 12 0 0 0 12-12V40a12 12 0 0 0-12-12Zm4 188a4 4 0 0 1-4 4H64a4 4 0 0 1-4-4V40a4 4 0 0 1 4-4h144a4 4 0 0 1 4 4Z"></path></svg>