<svg xmlns="http://www.w3.org/2000/svg" xmlns:xlink="http://www.w3.org/1999/xlink" aria-hidden="true" role="img" class="iconify iconify--ph" width="1em" height="1em" preserveAspectRatio="xMidYMid meet" viewBox="0 0 256 256" data-icon="ph:address-book-duotone"><path fill="currentColor" d="M208 32H64a8 8 0 0 0-8 8v176a8 8 0 0 0 8 8h144a8 8 0 0 0 8-8V40a8 8 0 0 0-8-8Zm-72 112a32 32 0 1 1 32-32a32 32 0 0 1-32 32Z" opacity=".2"></path><path fill="currentColor" d="M83.2 174.4A7.7 7.7 0 0 0 88 176a8 8 0 0 0 6.4-3.2a52 52 0 0 1 83.2 0a8.1 8.1 0 0 0 11.2 1.6a8 8 0 0 0 1.6-11.2a67.8 67.8 0 0 0-27.4-21.7a40 40 0 1 0-54 0a67.8 67.8 0 0 0-27.4 21.7a8 8 0 0 0 1.6 11.2ZM112 112a24 24 0 1 1 24 24a24.1 24.1 0 0 1-24-24Zm96-88H64a16 16 0 0 0-16 16v20H32a8 8 0 0 0 0 16h16v24H32a8 8 0 0 0 0 16h16v24H32a8 8 0 0 0 0 16h16v24H32a8 8 0 0 0 0 16h16v20a16 16 0 0 0 16 16h144a16 16 0 0 0 16-16V40a16 16 0 0 0-16-16Zm0 192H64V40h144Z"></path></svg>