<svg xmlns="http://www.w3.org/2000/svg" xmlns:xlink="http://www.w3.org/1999/xlink" aria-hidden="true" role="img" class="iconify iconify--ph" width="1em" height="1em" preserveAspectRatio="xMidYMid meet" viewBox="0 0 256 256" data-icon="ph:airplane-tilt-fill"><path fill="currentColor" d="m215.1 86.2l-29.8 28l30.2 83.1a7.9 7.9 0 0 1-1.8 8.4l-24 24a8.5 8.5 0 0 1-6.4 2.3a8.1 8.1 0 0 1-5.9-3.5l-42.6-62.3l-18.8 17.3V204a8.1 8.1 0 0 1-2.3 5.7l-20 20A8.3 8.3 0 0 1 88 232l-1.8-.2a8 8 0 0 1-5.8-5.2l-12.9-38.1l-38.1-12.9a8 8 0 0 1-5.2-5.8a8.3 8.3 0 0 1 2.1-7.5l20-20A8.1 8.1 0 0 1 52 140h20.7l18.7-18.8l-63.8-42.5a8.4 8.4 0 0 1-3.6-5.9a8.2 8.2 0 0 1 2.3-6.5l24-24a7.9 7.9 0 0 1 8.4-1.8l83.1 30.2l26.6-28.2a5.2 5.2 0 0 1 1-1.1a32 32 0 0 1 47 43.3a6.4 6.4 0 0 1-1.3 1.5Z"></path></svg>