<svg xmlns="http://www.w3.org/2000/svg" xmlns:xlink="http://www.w3.org/1999/xlink" aria-hidden="true" role="img" class="iconify iconify--ph" width="1em" height="1em" preserveAspectRatio="xMidYMid meet" viewBox="0 0 256 256" data-icon="ph:airplane-fill"><path fill="currentColor" d="M240.2 136v32a7.8 7.8 0 0 1-2.9 6.2a7.9 7.9 0 0 1-6.6 1.6l-70.5-14v26.9l13.5 13.7a7.9 7.9 0 0 1 2.3 5.6v24a7.9 7.9 0 0 1-3.5 6.6a8.2 8.2 0 0 1-4.5 1.4a8 8 0 0 1-3-.6l-37-14.8l-37 14.8a8 8 0 0 1-7.5-.8A7.9 7.9 0 0 1 80 232v-24a8.1 8.1 0 0 1 2.3-5.7L96 188.7v-26.9l-70.4 14A7.9 7.9 0 0 1 16 168v-32a8.2 8.2 0 0 1 4.4-7.2L96 91V48a32 32 0 0 1 64 0v43l75.6 37.8a8.2 8.2 0 0 1 4.6 7.2Z"></path></svg>