<svg xmlns="http://www.w3.org/2000/svg" xmlns:xlink="http://www.w3.org/1999/xlink" aria-hidden="true" role="img" class="iconify iconify--ph" width="1em" height="1em" preserveAspectRatio="xMidYMid meet" viewBox="0 0 256 256" data-icon="ph:airplane-landing-thin"><path fill="currentColor" d="M244 216a4 4 0 0 1-4 4H96a4 4 0 0 1 0-8h144a4 4 0 0 1 4 4Zm-21.1-28.1L46.3 138.4A36.1 36.1 0 0 1 20 103.7V51.1a11.6 11.6 0 0 1 5-9.7a11.9 11.9 0 0 1 10.8-1.7l13.5 4.5a4.1 4.1 0 0 1 2.2 1.9l15.3 28.6L92 82.6V51.1a11.6 11.6 0 0 1 5-9.7a11.9 11.9 0 0 1 10.8-1.7l13.5 4.5a4.3 4.3 0 0 1 2.2 1.8l31.2 54.6l46.9 13a36.1 36.1 0 0 1 26.4 34.7V184a4 4 0 0 1-1.6 3.2a4.1 4.1 0 0 1-2.4.8Zm-2.9-39.6a28.1 28.1 0 0 0-20.5-27l-48.6-13.4a4.1 4.1 0 0 1-2.4-1.9l-31.2-54.7l-12-4a3.8 3.8 0 0 0-3.6.6a3.7 3.7 0 0 0-1.7 3.2V88a4 4 0 0 1-5.2 3.8l-32-10a3.9 3.9 0 0 1-2.3-1.9L45.2 51.3l-11.9-4l-1.3-.2a4 4 0 0 0-2.3.8a3.7 3.7 0 0 0-1.7 3.2v52.6a28.1 28.1 0 0 0 20.5 27l171.5 48Z"></path></svg>