<svg xmlns="http://www.w3.org/2000/svg" xmlns:xlink="http://www.w3.org/1999/xlink" aria-hidden="true" role="img" class="iconify iconify--ph" width="1em" height="1em" preserveAspectRatio="xMidYMid meet" viewBox="0 0 256 256" data-icon="ph:airplane-takeoff-light"><path fill="currentColor" d="M174 216a6 6 0 0 1-6 6H24a6 6 0 0 1 0-12h144a6 6 0 0 1 6 6Zm75.9-122.9a6.1 6.1 0 0 1-2.9 4.1l-151.4 88a37.8 37.8 0 0 1-45.1-5.1l-37.7-35.4a14 14 0 0 1-4.2-12.6a13.6 13.6 0 0 1 8.3-10.4l16.7-7.2a5.7 5.7 0 0 1 4.8 0l25.2 10.8l18.2-10.4l-24.5-22.1a14.1 14.1 0 0 1-4.5-12.7a13.8 13.8 0 0 1 8.3-10.5l16.5-7.1a5.8 5.8 0 0 1 4.3-.2l57.4 19.1l42-24.7a37.9 37.9 0 0 1 48.7 8.7l18.6 22.8a5.8 5.8 0 0 1 1.3 4.9Zm-15-2.7L220.7 73a25.8 25.8 0 0 0-33.3-5.9L143 93.2a6 6 0 0 1-4.9.5L80.3 74.4l-14.4 6.2a2 2 0 0 0-.6 3.3L96 111.5a6.2 6.2 0 0 1 2 5.1a6 6 0 0 1-3 4.6l-28 16a6 6 0 0 1-5.4.3l-25.6-11l-14.4 6.2a2 2 0 0 0-1.2 1.5a2.1 2.1 0 0 0 .6 1.8l37.7 35.3a25.8 25.8 0 0 0 30.9 3.5Z"></path></svg>