<svg xmlns="http://www.w3.org/2000/svg" xmlns:xlink="http://www.w3.org/1999/xlink" aria-hidden="true" role="img" class="iconify iconify--ph" width="1em" height="1em" preserveAspectRatio="xMidYMid meet" viewBox="0 0 256 256" data-icon="ph:airplane-takeoff-fill"><path fill="currentColor" d="M176 216a8 8 0 0 1-8 8H24a8 8 0 0 1 0-16h144a8 8 0 0 1 8 8Zm71.1-126.5l-18.6-22.8a35.9 35.9 0 0 0-46.2-8.2l-42.8 25.1l-58.2-19.4a4.1 4.1 0 0 0-2.9.1l-16.5 7.1a12 12 0 0 0-3.3 19.9l26.6 24l-21.5 12.2l-26.1-11.2a4.4 4.4 0 0 0-3.2 0l-16.7 7.2a12 12 0 0 0-3.5 19.8l37.7 35.3a35.8 35.8 0 0 0 42.7 4.9l151.4-88a4 4 0 0 0 1.9-2.8a4.1 4.1 0 0 0-.8-3.2Z"></path></svg>