<svg xmlns="http://www.w3.org/2000/svg" xmlns:xlink="http://www.w3.org/1999/xlink" aria-hidden="true" role="img" class="iconify iconify--ph" width="1em" height="1em" preserveAspectRatio="xMidYMid meet" viewBox="0 0 256 256" data-icon="ph:airplane-landing-light"><path fill="currentColor" d="M246 216a6 6 0 0 1-6 6H96a6 6 0 0 1 0-12h144a6 6 0 0 1 6 6Zm-23.6-26.2L45.8 140.3A38.1 38.1 0 0 1 18 103.7V51.1a14 14 0 0 1 18.4-13.3l13.5 4.5a5.8 5.8 0 0 1 3.4 2.9L68.1 73L90 79.8V51.1a14 14 0 0 1 18.4-13.3l13.5 4.5a5.9 5.9 0 0 1 3.3 2.7L156 98.9l46.2 12.8a38.1 38.1 0 0 1 27.8 36.6V184a6.1 6.1 0 0 1-2.4 4.8a5.8 5.8 0 0 1-3.6 1.2Zm-4.4-41.5a26 26 0 0 0-19-25l-48.6-13.5a5.9 5.9 0 0 1-3.6-2.8l-30.9-54l-11.3-3.8a2 2 0 0 0-1.8.3a1.9 1.9 0 0 0-.8 1.6V88a6 6 0 0 1-2.4 4.8a5.9 5.9 0 0 1-5.4.9l-32-10a5.6 5.6 0 0 1-3.5-2.9L43.8 52.9l-11.2-3.7H32a2.1 2.1 0 0 0-1.2.4a1.9 1.9 0 0 0-.8 1.6v52.6a26.2 26.2 0 0 0 19 25.1l169 47.3Z"></path></svg>