<svg xmlns="http://www.w3.org/2000/svg" xmlns:xlink="http://www.w3.org/1999/xlink" aria-hidden="true" role="img" class="iconify iconify--ph" width="1em" height="1em" preserveAspectRatio="xMidYMid meet" viewBox="0 0 256 256" data-icon="ph:airplane-tilt-light"><path fill="currentColor" d="M214.8 83.5a30 30 0 0 0-44-40.7a3.9 3.9 0 0 0-.8 1L142.3 73L58.1 42.4a5.9 5.9 0 0 0-6.3 1.4l-24 24a6 6 0 0 0-1.8 4.8a6.1 6.1 0 0 0 2.7 4.4l65.9 43.9L77.5 138H56a5.6 5.6 0 0 0-4.2 1.8l-24 24a5.7 5.7 0 0 0-1.6 5.6a5.8 5.8 0 0 0 3.9 4.3l39 13.2l13.2 39a5.8 5.8 0 0 0 4.3 3.9l1.4.2a5.6 5.6 0 0 0 4.2-1.8l24-24a5.6 5.6 0 0 0 1.8-4.2v-21.3l17.1-15.6l43.9 64.3a6.4 6.4 0 0 0 4.4 2.6a6 6 0 0 0 4.8-1.8l24-24a5.9 5.9 0 0 0 1.4-6.3L183 113.7l30.8-28.9a6.4 6.4 0 0 0 1-1.3Zm-10.1-6.8l-.4.5l-32.4 30.4a5.9 5.9 0 0 0-1.5 6.5l30.7 84.4l-16.2 16.1l-43.8-64a5.8 5.8 0 0 0-4.2-2.5h-.7a5.9 5.9 0 0 0-4 1.6l-24.2 22a5.7 5.7 0 0 0-2 4.4v21.5l-15.4 15.3l-11.1-32.7a5.8 5.8 0 0 0-3.8-3.7l-32.6-11.1L58.5 150H80a5.6 5.6 0 0 0 4.2-1.8l24-24a6 6 0 0 0 1.8-4.8a6.1 6.1 0 0 0-2.7-4.4L41.4 71.1l16.1-16.2l84.4 30.7a5.9 5.9 0 0 0 6.5-1.5l31.7-33.5l.2-.3a18 18 0 0 1 24.4 26.4Z"></path></svg>