<svg xmlns="http://www.w3.org/2000/svg" xmlns:xlink="http://www.w3.org/1999/xlink" aria-hidden="true" role="img" class="iconify iconify--ph" width="1em" height="1em" preserveAspectRatio="xMidYMid meet" viewBox="0 0 256 256" data-icon="ph:airplane"><path fill="currentColor" d="M235.8 128.8L160.2 91V48a32 32 0 0 0-64 0v43l-75.8 37.8A8.2 8.2 0 0 0 16 136v32a7.9 7.9 0 0 0 9.6 7.8l70.4-14v18.9l-13.7 13.6A8.1 8.1 0 0 0 80 200v32a7.9 7.9 0 0 0 3.5 6.6a8 8 0 0 0 7.5.8l37-14.8l37 14.8a8 8 0 0 0 3 .6a8.2 8.2 0 0 0 4.5-1.4a7.9 7.9 0 0 0 3.5-6.6v-32a7.9 7.9 0 0 0-2.3-5.6l-13.5-13.7v-18.9l70.5 14a7.9 7.9 0 0 0 6.6-1.6a7.8 7.8 0 0 0 2.9-6.2v-32a8.2 8.2 0 0 0-4.4-7.2Zm-11.6 29.4l-70.4-14a7.8 7.8 0 0 0-6.6 1.6a7.9 7.9 0 0 0-3 6.2v32a8.3 8.3 0 0 0 2.3 5.6l13.5 13.7v16.9l-29-11.6a7.8 7.8 0 0 0-6 0l-29 11.6v-16.9l13.7-13.6a8.1 8.1 0 0 0 2.3-5.7v-32a7.9 7.9 0 0 0-9.6-7.8l-70.4 14v-17.3l75.6-37.7A8.2 8.2 0 0 0 112 96V48a16 16 0 0 1 32 0v48a8.2 8.2 0 0 0 4.4 7.2l75.6 37.7Z"></path></svg>