<svg xmlns="http://www.w3.org/2000/svg" xmlns:xlink="http://www.w3.org/1999/xlink" aria-hidden="true" role="img" class="iconify iconify--ph" width="1em" height="1em" preserveAspectRatio="xMidYMid meet" viewBox="0 0 256 256" data-icon="ph:airplane-tilt"><path fill="currentColor" d="M216.4 84.7a32 32 0 0 0-47-43.3a5.2 5.2 0 0 0-1 1.1l-26.6 28.2l-83.1-30.2a7.9 7.9 0 0 0-8.4 1.8l-24 24a8.2 8.2 0 0 0-2.3 6.5a8.4 8.4 0 0 0 3.6 5.9l63.8 42.5L76.7 136H56a8.1 8.1 0 0 0-5.7 2.3l-24 24a8.3 8.3 0 0 0-2.1 7.5a8 8 0 0 0 5.2 5.8l38.1 12.9l12.9 38.1a8 8 0 0 0 5.8 5.2l1.8.2a8.3 8.3 0 0 0 5.7-2.3l24-24a8.1 8.1 0 0 0 2.3-5.7v-20.5l14.8-13.4l42.6 62.4a8.1 8.1 0 0 0 5.9 3.5a8.5 8.5 0 0 0 6.4-2.3l24-24a7.9 7.9 0 0 0 1.8-8.4l-30.2-83.1l29.8-28a6.4 6.4 0 0 0 1.3-1.5Zm-13.1-9.4l-.4.5l-32.4 30.4a7.9 7.9 0 0 0-2 8.5l30.2 83.2l-13.5 13.6l-42.4-62a7.8 7.8 0 0 0-5.7-3.4h-.9a8.3 8.3 0 0 0-5.4 2.1l-24.2 22a8.1 8.1 0 0 0-2.6 5.8v20.7l-12.6 12.5l-10-29.6a8 8 0 0 0-5-5l-29.6-10.1L59.3 152H80a8.1 8.1 0 0 0 5.7-2.3l24-24a8.2 8.2 0 0 0 2.3-6.5a8.4 8.4 0 0 0-3.6-5.9L44.6 70.8l13.5-13.5l83.2 30.2a7.9 7.9 0 0 0 8.5-2L181.5 52l.2-.3a16.1 16.1 0 0 1 21.6 1a15.9 15.9 0 0 1 0 22.6Z"></path></svg>