<svg xmlns="http://www.w3.org/2000/svg" xmlns:xlink="http://www.w3.org/1999/xlink" aria-hidden="true" role="img" class="iconify iconify--ph" width="1em" height="1em" preserveAspectRatio="xMidYMid meet" viewBox="0 0 256 256" data-icon="ph:airplane-takeoff-thin"><path fill="currentColor" d="M172 216a4 4 0 0 1-4 4H24a4 4 0 0 1 0-8h144a4 4 0 0 1 4 4Zm75.9-123.3a4 4 0 0 1-1.9 2.8l-151.4 88a35.8 35.8 0 0 1-42.7-4.9l-37.7-35.3a12 12 0 0 1 3.5-19.8l16.7-7.2a4.4 4.4 0 0 1 3.2 0l26.1 11.2l21.5-12.2l-26.6-24a12 12 0 0 1 3.3-19.9l16.5-7.1a4.1 4.1 0 0 1 2.9-.1l58.2 19.4l42.8-25.1a35.9 35.9 0 0 1 46.2 8.2l18.6 22.8a4.1 4.1 0 0 1 .8 3.2Zm-10-1.8l-15.6-19.1a27.9 27.9 0 0 0-35.9-6.5L142 91.4a3.9 3.9 0 0 1-3.3.4L80.2 72.3l-15.1 6.4a4 4 0 0 0-2.4 3.1a3.8 3.8 0 0 0 1.3 3.6L94.7 113a4.3 4.3 0 0 1 1.3 3.4a4.4 4.4 0 0 1-2 3.1l-28 16a4.1 4.1 0 0 1-3.6.2L36 124.4l-15.2 6.5a3.8 3.8 0 0 0-2.3 2.9a4 4 0 0 0 1.2 3.7l37.7 35.3a27.9 27.9 0 0 0 33.2 3.8Z"></path></svg>