<svg xmlns="http://www.w3.org/2000/svg" xmlns:xlink="http://www.w3.org/1999/xlink" aria-hidden="true" role="img" class="iconify iconify--ph" width="1em" height="1em" preserveAspectRatio="xMidYMid meet" viewBox="0 0 256 256" data-icon="ph:airplane-thin"><path fill="currentColor" d="m234 132.4l-77.8-38.9V48a28 28 0 0 0-56 0v45.5l-78 38.9A4.2 4.2 0 0 0 20 136v32a3.9 3.9 0 0 0 1.5 3.1a3.6 3.6 0 0 0 3.3.8l75.2-15v25.4l-14.8 14.9A3.6 3.6 0 0 0 84 200v32a4 4 0 0 0 1.8 3.3a3.8 3.8 0 0 0 3.7.4l38.5-15.4l38.5 15.4a4 4 0 0 0 1.5.3a3.4 3.4 0 0 0 2.2-.7a4 4 0 0 0 1.8-3.3v-32a3.6 3.6 0 0 0-1.2-2.8l-14.6-14.8v-25.5l75.2 15a3.9 3.9 0 0 0 3.4-.8a4.1 4.1 0 0 0 1.4-3.1v-32a4 4 0 0 0-2.2-3.6Zm-5.8 30.7l-75.2-15a3.6 3.6 0 0 0-3.3.8a4.2 4.2 0 0 0-1.5 3.1v32a3.6 3.6 0 0 0 1.2 2.8l14.6 14.8v24.5l-34.5-13.8a3.9 3.9 0 0 0-3 0L92 226.1v-24.4l14.8-14.9a3.6 3.6 0 0 0 1.2-2.8v-32a3.9 3.9 0 0 0-1.5-3.1a3.6 3.6 0 0 0-3.3-.8l-75.2 15v-24.6l77.8-38.9A4.2 4.2 0 0 0 108 96V48a20 20 0 0 1 40 0v48a4.2 4.2 0 0 0 2.2 3.6l77.8 38.9Z"></path></svg>