<svg xmlns="http://www.w3.org/2000/svg" xmlns:xlink="http://www.w3.org/1999/xlink" aria-hidden="true" role="img" class="iconify iconify--ph" width="1em" height="1em" preserveAspectRatio="xMidYMid meet" viewBox="0 0 256 256" data-icon="ph:airplane-in-flight-bold"><path fill="currentColor" d="M228 216a12 12 0 0 1-12 12H72a12 12 0 0 1 0-24h144a12 12 0 0 1 12 12Zm24-80v24a12 12 0 0 1-12 12H63.8a43.6 43.6 0 0 1-42.1-31.4L7.6 93.7A20 20 0 0 1 26.8 68H44a12 12 0 0 1 9.2 4.3L69.6 92h9.8l-7.3-21.7a20 20 0 0 1 19-26.3H108a11.7 11.7 0 0 1 8.8 3.9L157.3 92H208a44 44 0 0 1 44 44Zm-24 0a20.1 20.1 0 0 0-20-20h-56a11.7 11.7 0 0 1-8.8-3.9L102.7 68h-6.1l10.8 32.2A12.1 12.1 0 0 1 96 116H64a12 12 0 0 1-9.2-4.3L38.4 92h-6.3l12.6 41.7A19.7 19.7 0 0 0 63.8 148H228Z"></path></svg>