<svg xmlns="http://www.w3.org/2000/svg" xmlns:xlink="http://www.w3.org/1999/xlink" aria-hidden="true" role="img" class="iconify iconify--ph" width="1em" height="1em" preserveAspectRatio="xMidYMid meet" viewBox="0 0 256 256" data-icon="ph:airplane-tilt-thin"><path fill="currentColor" d="M211.8 44.2a28.1 28.1 0 0 0-39.6 0c-.2.3-.5.5-.6.8l-28.7 30.3l-85.5-31.1a4.1 4.1 0 0 0-4.2 1l-24 24a3.9 3.9 0 0 0 .6 6.1l67.9 45.3L78.3 140H56a3.6 3.6 0 0 0-2.8 1.2l-24 24a3.9 3.9 0 0 0-1.1 3.7a4 4 0 0 0 2.6 2.9l40 13.5l13.5 40a4 4 0 0 0 2.9 2.6h.9a3.8 3.8 0 0 0 2.8-1.2l24-24a3.6 3.6 0 0 0 1.2-2.7v-22.2l19.5-17.7l45.2 66.2a4.2 4.2 0 0 0 2.9 1.7a3.8 3.8 0 0 0 3.2-1.2l24-24a4.1 4.1 0 0 0 1-4.2l-31.1-85.5l31.7-29.8l.7-.9a28.1 28.1 0 0 0-1.3-38.2Zm-5.7 33.9l-.3.4l-32.5 30.6a4.1 4.1 0 0 0-1.1 4.3l31.2 85.6l-18.8 18.8l-45.1-66a4.3 4.3 0 0 0-2.8-1.8h-.5a3.9 3.9 0 0 0-2.7 1.1L109.3 173a4.3 4.3 0 0 0-1.3 3v22.3l-18.3 18.3l-12.1-35.7a3.9 3.9 0 0 0-2.5-2.5l-35.7-12.1L57.7 148H80a3.6 3.6 0 0 0 2.8-1.2l24-24a3.9 3.9 0 0 0-.6-6.1L38.3 71.4L57 52.6l85.6 31.2a4.1 4.1 0 0 0 4.3-1.1l31.7-33.5l.3-.3a20 20 0 0 1 27.2 29.2Z"></path></svg>