<svg xmlns="http://www.w3.org/2000/svg" xmlns:xlink="http://www.w3.org/1999/xlink" aria-hidden="true" role="img" class="iconify iconify--ph" width="1em" height="1em" preserveAspectRatio="xMidYMid meet" viewBox="0 0 256 256" data-icon="ph:airplane-light"><path fill="currentColor" d="m234.9 130.6l-76.7-38.3V48a30 30 0 0 0-60 0v44.3l-76.9 38.3A6 6 0 0 0 18 136v32a5.8 5.8 0 0 0 2.2 4.6a6 6 0 0 0 5 1.3L98 159.3v22.2l-14.2 14.3A5.6 5.6 0 0 0 82 200v32a6.1 6.1 0 0 0 2.6 5a6.2 6.2 0 0 0 5.6.6l37.8-15.1l37.8 15.1a5.4 5.4 0 0 0 2.2.4a5.9 5.9 0 0 0 3.4-1a6.1 6.1 0 0 0 2.6-5v-32a5.9 5.9 0 0 0-1.7-4.2l-14.1-14.3v-22.2l72.8 14.6a6 6 0 0 0 5-1.3a5.8 5.8 0 0 0 2.2-4.6v-32a6 6 0 0 0-3.3-5.4Zm-8.7 30.1l-72.8-14.6a6 6 0 0 0-5 1.3a5.8 5.8 0 0 0-2.2 4.6v32a5.6 5.6 0 0 0 1.8 4.2l14 14.3v20.6l-31.8-12.7a6.6 6.6 0 0 0-4.4 0L94 223.1v-20.6l14.2-14.3a5.6 5.6 0 0 0 1.8-4.2v-32a5.8 5.8 0 0 0-2.2-4.6a6 6 0 0 0-5-1.3L30 160.7v-21l76.7-38.3A6 6 0 0 0 110 96V48a18 18 0 0 1 36 0v48a6 6 0 0 0 3.3 5.4l76.7 38.3Z"></path></svg>