<svg xmlns="http://www.w3.org/2000/svg" xmlns:xlink="http://www.w3.org/1999/xlink" aria-hidden="true" role="img" class="iconify iconify--ph" width="1em" height="1em" preserveAspectRatio="xMidYMid meet" viewBox="0 0 256 256" data-icon="ph:airplay-thin"><path fill="currentColor" d="M131 157.4a3.9 3.9 0 0 0-6 0l-48 56a3.8 3.8 0 0 0-.6 4.3A3.9 3.9 0 0 0 80 220h96a3.9 3.9 0 0 0 3.6-2.3a3.8 3.8 0 0 0-.6-4.3ZM88.7 212l39.3-45.9l39.3 45.9ZM228 64v112a20.1 20.1 0 0 1-20 20h-16a4 4 0 0 1 0-8h16a12 12 0 0 0 12-12V64a12 12 0 0 0-12-12H48a12 12 0 0 0-12 12v112a12 12 0 0 0 12 12h16a4 4 0 0 1 0 8H48a20.1 20.1 0 0 1-20-20V64a20.1 20.1 0 0 1 20-20h160a20.1 20.1 0 0 1 20 20Z"></path></svg>