<svg xmlns="http://www.w3.org/2000/svg" xmlns:xlink="http://www.w3.org/1999/xlink" aria-hidden="true" role="img" class="iconify iconify--ph" width="1em" height="1em" preserveAspectRatio="xMidYMid meet" viewBox="0 0 256 256" data-icon="ph:airplane-in-flight-thin"><path fill="currentColor" d="M220 216a4 4 0 0 1-4 4H72a4 4 0 0 1 0-8h144a4 4 0 0 1 4 4Zm24-80v24a4 4 0 0 1-4 4H63.8a35.8 35.8 0 0 1-34.5-25.7l-14-46.9a11.9 11.9 0 0 1 1.8-10.6a12.1 12.1 0 0 1 9.7-4.8H44a4.1 4.1 0 0 1 3.1 1.4L65.9 100h24.6L79.7 67.8A11.9 11.9 0 0 1 81.4 57a11.6 11.6 0 0 1 9.7-5H108a3.9 3.9 0 0 1 2.9 1.3l42.9 46.7H208a36 36 0 0 1 36 36Zm-8 0a28.1 28.1 0 0 0-28-28h-56a3.9 3.9 0 0 1-2.9-1.3L106.2 60H91.1a3.7 3.7 0 0 0-3.2 1.7a3.8 3.8 0 0 0-.6 3.6l12.5 37.4a3.8 3.8 0 0 1-.6 3.6A3.7 3.7 0 0 1 96 108H64a4.1 4.1 0 0 1-3.1-1.4L42.1 84H26.8a4.2 4.2 0 0 0-3.3 1.6a4.3 4.3 0 0 0-.6 3.5L37 136a27.8 27.8 0 0 0 26.8 20H236Z"></path></svg>