<svg xmlns="http://www.w3.org/2000/svg" xmlns:xlink="http://www.w3.org/1999/xlink" aria-hidden="true" role="img" class="iconify iconify--ph" width="1em" height="1em" preserveAspectRatio="xMidYMid meet" viewBox="0 0 256 256" data-icon="ph:airplane-landing-fill"><path fill="currentColor" d="M248 216a8 8 0 0 1-8 8H96a8 8 0 0 1 0-16h144a8 8 0 0 1 8 8Zm-24-28a4.1 4.1 0 0 0 2.4-.8a4 4 0 0 0 1.6-3.2v-35.7a36.1 36.1 0 0 0-26.4-34.7l-46.9-13L123.5 46a4.3 4.3 0 0 0-2.2-1.8l-13.5-4.5A11.9 11.9 0 0 0 97 41.4a11.6 11.6 0 0 0-5 9.7v31.5l-25.2-7.9l-15.3-28.6a4.1 4.1 0 0 0-2.2-1.9l-13.5-4.5A11.9 11.9 0 0 0 25 41.4a11.6 11.6 0 0 0-5 9.7v52.6a36.1 36.1 0 0 0 26.3 34.7l176.6 49.5Z"></path></svg>