<svg xmlns="http://www.w3.org/2000/svg" xmlns:xlink="http://www.w3.org/1999/xlink" aria-hidden="true" role="img" class="iconify iconify--ph" width="1em" height="1em" preserveAspectRatio="xMidYMid meet" viewBox="0 0 256 256" data-icon="ph:airplay-light"><path fill="currentColor" d="M132.6 156.1a6.1 6.1 0 0 0-9.2 0l-48 56A6 6 0 0 0 80 222h96a6.1 6.1 0 0 0 4.6-9.9ZM93 210l35-40.8l35 40.8ZM230 64v112a22.1 22.1 0 0 1-22 22h-16a6 6 0 0 1 0-12h16a10 10 0 0 0 10-10V64a10 10 0 0 0-10-10H48a10 10 0 0 0-10 10v112a10 10 0 0 0 10 10h16a6 6 0 0 1 0 12H48a22.1 22.1 0 0 1-22-22V64a22.1 22.1 0 0 1 22-22h160a22.1 22.1 0 0 1 22 22Z"></path></svg>