<svg xmlns="http://www.w3.org/2000/svg" xmlns:xlink="http://www.w3.org/1999/xlink" aria-hidden="true" role="img" class="iconify iconify--ph" width="1em" height="1em" preserveAspectRatio="xMidYMid meet" viewBox="0 0 256 256" data-icon="ph:airplay"><path fill="currentColor" d="M134.1 154.8a8 8 0 0 0-12.2 0l-48 56A8 8 0 0 0 80 224h96a8 8 0 0 0 6.1-13.2ZM97.4 208l30.6-35.7l30.6 35.7ZM232 64v112a24.1 24.1 0 0 1-24 24h-16a8 8 0 0 1 0-16h16a8 8 0 0 0 8-8V64a8 8 0 0 0-8-8H48a8 8 0 0 0-8 8v112a8 8 0 0 0 8 8h16a8 8 0 0 1 0 16H48a24.1 24.1 0 0 1-24-24V64a24.1 24.1 0 0 1 24-24h160a24.1 24.1 0 0 1 24 24Z"></path></svg>