<svg xmlns="http://www.w3.org/2000/svg" xmlns:xlink="http://www.w3.org/1999/xlink" aria-hidden="true" role="img" class="iconify iconify--ph" width="1em" height="1em" preserveAspectRatio="xMidYMid meet" viewBox="0 0 256 256" data-icon="ph:airplay-bold"><path fill="currentColor" d="M137.1 152.2a12 12 0 0 0-18.2 0l-48 56a11.8 11.8 0 0 0-1.8 12.8a12 12 0 0 0 10.9 7h96a12 12 0 0 0 10.9-7a11.8 11.8 0 0 0-1.8-12.8Zm-31 51.8l21.9-25.6l21.9 25.6ZM236 64v112a28.1 28.1 0 0 1-28 28a12 12 0 0 1 0-24a4 4 0 0 0 4-4V64a4 4 0 0 0-4-4H48a4 4 0 0 0-4 4v112a4 4 0 0 0 4 4a12 12 0 0 1 0 24a28.1 28.1 0 0 1-28-28V64a28.1 28.1 0 0 1 28-28h160a28.1 28.1 0 0 1 28 28Z"></path></svg>