<svg xmlns="http://www.w3.org/2000/svg" xmlns:xlink="http://www.w3.org/1999/xlink" aria-hidden="true" role="img" class="iconify iconify--ph" width="1em" height="1em" preserveAspectRatio="xMidYMid meet" viewBox="0 0 256 256" data-icon="ph:airplane-takeoff"><path fill="currentColor" d="M176 216a8 8 0 0 1-8 8H24a8 8 0 0 1 0-16h144a8 8 0 0 1 8 8Zm75.9-122.6a8.2 8.2 0 0 1-3.9 5.5l-151.4 88a39.6 39.6 0 0 1-47.4-5.4l-37.7-35.3a15.9 15.9 0 0 1-4.9-14.4a16.2 16.2 0 0 1 9.5-12l16.7-7.2a8.8 8.8 0 0 1 6.4 0l24.3 10.5l14.9-8.6l-22.5-20.2a16.1 16.1 0 0 1 4.4-26.6l16.5-7.1a8.6 8.6 0 0 1 5.7-.2l56.6 18.9L180.3 55a39.8 39.8 0 0 1 51.3 9.2l18.6 22.7a8 8 0 0 1 1.7 6.5Zm-20-3.6l-12.7-15.5a24 24 0 0 0-30.8-5.5l-44.3 26.1a8 8 0 0 1-6.6.7l-57.1-19l-13.7 5.8l30.7 27.7a8.2 8.2 0 0 1 2.6 6.8a8 8 0 0 1-4 6l-28 16a8.3 8.3 0 0 1-7.2.5L36 128.7l-13.6 5.8l37.7 35.4a23.8 23.8 0 0 0 28.5 3.2Z"></path></svg>