<svg xmlns="http://www.w3.org/2000/svg" xmlns:xlink="http://www.w3.org/1999/xlink" aria-hidden="true" role="img" class="iconify iconify--ph" width="1em" height="1em" preserveAspectRatio="xMidYMid meet" viewBox="0 0 256 256" data-icon="ph:airplane-bold"><path fill="currentColor" d="m237.6 125.3l-73.4-36.7V48a36 36 0 0 0-72 0v40.6l-73.6 36.7A12.1 12.1 0 0 0 12 136v32a12 12 0 0 0 14.4 11.8L92 166.6V179l-12.5 12.5A12.3 12.3 0 0 0 76 200v32a12 12 0 0 0 16.5 11.1l35.5-14.2l35.5 14.2a12 12 0 0 0 4.5.9a11.6 11.6 0 0 0 6.7-2.1a11.9 11.9 0 0 0 5.3-9.9v-32a11.5 11.5 0 0 0-3.5-8.4l-12.3-12.5v-12.5l65.7 13.2a11.8 11.8 0 0 0 9.9-2.5a12 12 0 0 0 4.4-9.3v-32a11.9 11.9 0 0 0-6.6-10.7Zm-17.4 28.1l-65.6-13.2a12 12 0 0 0-14.4 11.8v32a11.9 11.9 0 0 0 3.5 8.4l12.3 12.5v9.4l-23.5-9.4a11.7 11.7 0 0 0-9 0l-23.5 9.4V205l12.5-12.5a12.3 12.3 0 0 0 3.5-8.5v-32a12 12 0 0 0-14.4-11.8L36 153.4v-10l73.4-36.7A11.9 11.9 0 0 0 116 96V48a12 12 0 0 1 24 0v48a11.9 11.9 0 0 0 6.7 10.7l73.3 36.7Z"></path></svg>