<svg xmlns="http://www.w3.org/2000/svg" xmlns:xlink="http://www.w3.org/1999/xlink" aria-hidden="true" role="img" class="iconify iconify--ph" width="1em" height="1em" preserveAspectRatio="xMidYMid meet" viewBox="0 0 256 256" data-icon="ph:airplay-fill"><path fill="currentColor" d="M182.1 210.8A8 8 0 0 1 176 224H80a8 8 0 0 1-6.1-13.2l48-56a8 8 0 0 1 12.2 0ZM208 40H48a23.9 23.9 0 0 0-24 24v112a23.9 23.9 0 0 0 24 24h12.3a4.1 4.1 0 0 0 3-1.4l46.5-54.2a23.9 23.9 0 0 1 36.4 0l46.5 54.2a4.1 4.1 0 0 0 3 1.4H208a23.9 23.9 0 0 0 24-24V64a23.9 23.9 0 0 0-24-24Z"></path></svg>