<svg xmlns="http://www.w3.org/2000/svg" xmlns:xlink="http://www.w3.org/1999/xlink" aria-hidden="true" role="img" class="iconify iconify--ph" width="1em" height="1em" preserveAspectRatio="xMidYMid meet" viewBox="0 0 256 256" data-icon="ph:alarm-fill"><path fill="currentColor" d="M235.5 65.8a8.3 8.3 0 0 1-5.7 2.3a8 8 0 0 1-5.6-2.3l-34-34a8 8 0 1 1 11.3-11.3l34 34a8 8 0 0 1 0 11.3ZM65.8 20.5a8 8 0 0 0-11.3 0l-34 34a8 8 0 0 0 0 11.3a8.3 8.3 0 0 0 5.7 2.3a8 8 0 0 0 5.6-2.3l34-34a8 8 0 0 0 0-11.3Zm158.2 105v5.3a14.8 14.8 0 0 0-.1 2.1a96 96 0 0 1-90.9 91h-10A96 96 0 0 1 32.1 133a14.8 14.8 0 0 0-.1-2.1v-5.6a14.8 14.8 0 0 0 .1-2.1A96 96 0 0 1 123 32.1h10a96 96 0 0 1 90.9 90.9a14.8 14.8 0 0 0 .1 2.1Zm-32 2.5a8 8 0 0 0-8-8h-48V72a8 8 0 0 0-16 0v56a8 8 0 0 0 8 8h56a8 8 0 0 0 8-8Z"></path></svg>