<svg xmlns="http://www.w3.org/2000/svg" xmlns:xlink="http://www.w3.org/1999/xlink" aria-hidden="true" role="img" class="iconify iconify--ph" width="1em" height="1em" preserveAspectRatio="xMidYMid meet" viewBox="0 0 256 256" data-icon="ph:alarm-thin"><path fill="currentColor" d="M188 128a4 4 0 0 1-4 4h-56a4 4 0 0 1-4-4V72a4 4 0 0 1 8 0v52h52a4 4 0 0 1 4 4Zm5.1-65.1A92.2 92.2 0 1 1 128 36a91.8 91.8 0 0 1 65.1 26.9ZM212 128A84 84 0 0 0 68.6 68.6A84 84 0 1 0 212 128Zm20.7-70.7l-34-34a4 4 0 0 0-5.6 0a4 4 0 0 0 0 5.7L227 62.9a3.9 3.9 0 0 0 2.8 1.2a4.2 4.2 0 0 0 2.9-1.2a4 4 0 0 0 0-5.6Zm-169.8-34a4 4 0 0 0-5.6 0l-34 34a4 4 0 0 0 0 5.6a4.2 4.2 0 0 0 2.9 1.2a3.9 3.9 0 0 0 2.8-1.2L62.9 29a4 4 0 0 0 0-5.7Z"></path></svg>