<svg xmlns="http://www.w3.org/2000/svg" xmlns:xlink="http://www.w3.org/1999/xlink" aria-hidden="true" role="img" class="iconify iconify--ph" width="1em" height="1em" preserveAspectRatio="xMidYMid meet" viewBox="0 0 256 256" data-icon="ph:alarm"><path fill="currentColor" d="M184 120a8 8 0 0 1 0 16h-56a8 8 0 0 1-8-8V72a8 8 0 0 1 16 0v48Zm11.9-59.9A96.1 96.1 0 1 1 128 32a95.7 95.7 0 0 1 67.9 28.1ZM208 128a79.9 79.9 0 1 0-23.4 56.6A79.5 79.5 0 0 0 208 128Zm27.5-73.5l-34-34a8 8 0 1 0-11.3 11.3l34 34a8 8 0 0 0 5.6 2.3a8.3 8.3 0 0 0 5.7-2.3a8 8 0 0 0 0-11.3Zm-169.7-34a8 8 0 0 0-11.3 0l-34 34a8 8 0 0 0 0 11.3a8.3 8.3 0 0 0 5.7 2.3a8 8 0 0 0 5.6-2.3l34-34a8 8 0 0 0 0-11.3Z"></path></svg>