<svg xmlns="http://www.w3.org/2000/svg" xmlns:xlink="http://www.w3.org/1999/xlink" aria-hidden="true" role="img" class="iconify iconify--ph" width="1em" height="1em" preserveAspectRatio="xMidYMid meet" viewBox="0 0 256 256" data-icon="ph:alarm-light"><path fill="currentColor" d="M184 122a6 6 0 0 1 0 12h-56a6 6 0 0 1-6-6V72a6 6 0 0 1 12 0v50Zm10.5-60.5A94.2 94.2 0 1 1 128 34a93.7 93.7 0 0 1 66.5 27.5ZM210 128a81.9 81.9 0 1 0-24 58a81.5 81.5 0 0 0 24-58Zm24.1-72.1l-34-34a6 6 0 0 0-8.5 8.5l34 34a6.2 6.2 0 0 0 8.5 0a6.1 6.1 0 0 0 0-8.5Zm-169.7-34a6.1 6.1 0 0 0-8.5 0l-34 34a6.1 6.1 0 0 0 0 8.5a6.2 6.2 0 0 0 8.5 0l34-34a6.1 6.1 0 0 0 0-8.5Z"></path></svg>