<svg xmlns="http://www.w3.org/2000/svg" xmlns:xlink="http://www.w3.org/1999/xlink" aria-hidden="true" role="img" class="iconify iconify--ph" width="1em" height="1em" preserveAspectRatio="xMidYMid meet" viewBox="0 0 256 256" data-icon="ph:alarm-bold"><path fill="currentColor" d="M176 116a12 12 0 0 1 0 24h-48a12 12 0 0 1-12-12V80a12 12 0 0 1 24 0v36Zm22.7-58.7A100 100 0 1 1 57.3 198.7A100 100 0 1 1 198.7 57.3ZM204 128A75.9 75.9 0 0 0 74.3 74.3a75.9 75.9 0 1 0 107.4 107.4A75.2 75.2 0 0 0 204 128Zm40-82l-34-34a11.9 11.9 0 0 0-16.9 0a12 12 0 0 0 0 17L227 62.9a11.7 11.7 0 0 0 8.5 3.6A12.1 12.1 0 0 0 244 46ZM62.9 29a12 12 0 0 0 0-17A11.9 11.9 0 0 0 46 12L12 46a12.1 12.1 0 0 0 8.5 20.5a11.7 11.7 0 0 0 8.5-3.6Z"></path></svg>