<svg xmlns="http://www.w3.org/2000/svg" xmlns:xlink="http://www.w3.org/1999/xlink" aria-hidden="true" role="img" class="iconify iconify--ph" width="1em" height="1em" preserveAspectRatio="xMidYMid meet" viewBox="0 0 256 256" data-icon="ph:alarm-duotone"><circle cx="128" cy="128" r="88" fill="currentColor" opacity=".2"></circle><path fill="currentColor" d="M136 120V72a8 8 0 0 0-16 0v56a8 8 0 0 0 8 8h56a8 8 0 0 0 0-16Z"></path><path fill="currentColor" d="M128 32a95.9 95.9 0 1 0 67.9 28.1A95.5 95.5 0 0 0 128 32Zm56.6 152.6A80 80 0 0 1 71.4 71.4a80 80 0 0 1 113.2 113.2Zm50.9-130.1l-34-34a8 8 0 1 0-11.3 11.3l34 34a8 8 0 0 0 5.6 2.3a8.3 8.3 0 0 0 5.7-2.3a8 8 0 0 0 0-11.3Zm-169.7-34a8 8 0 0 0-11.3 0l-34 34a8 8 0 0 0 0 11.3a8.3 8.3 0 0 0 5.7 2.3a8 8 0 0 0 5.6-2.3l34-34a8 8 0 0 0 0-11.3Z"></path></svg>