<svg xmlns="http://www.w3.org/2000/svg" xmlns:xlink="http://www.w3.org/1999/xlink" aria-hidden="true" role="img" class="iconify iconify--ph" width="1em" height="1em" preserveAspectRatio="xMidYMid meet" viewBox="0 0 256 256" data-icon="ph:alien-fill"><path fill="currentColor" d="M128 16a96.2 96.2 0 0 0-96 96c0 24 12.6 55.1 33.6 83s44.5 45 62.4 45s41.2-16.8 62.4-45s33.6-59 33.6-83a96.2 96.2 0 0 0-96-96ZM64 116v-4a12 12 0 0 1 12-12a36 36 0 0 1 36 36v4a12 12 0 0 1-12 12a36 36 0 0 1-36-36Zm80 84h-32a8 8 0 0 1 0-16h32a8 8 0 0 1 0 16Zm48-84a36 36 0 0 1-36 36a12 12 0 0 1-12-12v-4a36 36 0 0 1 36-36a12 12 0 0 1 12 12Z"></path></svg>