<svg xmlns="http://www.w3.org/2000/svg" xmlns:xlink="http://www.w3.org/1999/xlink" aria-hidden="true" role="img" class="iconify iconify--ph" width="1em" height="1em" preserveAspectRatio="xMidYMid meet" viewBox="0 0 256 256" data-icon="ph:alien-bold"><path fill="currentColor" d="M128 12A100.2 100.2 0 0 0 28 112c0 24.9 12.9 56.8 34.4 85.4c8.2 11 37.2 46.6 65.6 46.6s57.4-35.6 65.6-46.6c21.5-28.6 34.4-60.5 34.4-85.4A100.2 100.2 0 0 0 128 12Zm46.4 171c-13.8 18.4-34.2 37-46.4 37s-32.6-18.6-46.4-37C63.3 158.8 52 131.5 52 112a76 76 0 0 1 152 0c0 19.5-11.3 46.8-29.6 71ZM104 152a36 36 0 0 1-36-36v-4a12 12 0 0 1 12-12a36 36 0 0 1 36 36v4a12 12 0 0 1-12 12Zm84-40v4a36 36 0 0 1-36 36l-2-.2a11.9 11.9 0 0 1-10-11.8v-4a36 36 0 0 1 36-36a12 12 0 0 1 12 12Zm-36 72a12 12 0 0 1-12 12h-24a12 12 0 0 1 0-24h24a12 12 0 0 1 12 12Z"></path></svg>