<svg xmlns="http://www.w3.org/2000/svg" xmlns:xlink="http://www.w3.org/1999/xlink" aria-hidden="true" role="img" class="iconify iconify--ph" width="1em" height="1em" preserveAspectRatio="xMidYMid meet" viewBox="0 0 256 256" data-icon="ph:alien"><path fill="currentColor" d="M128 16a96.2 96.2 0 0 0-96 96c0 24 12.6 55.1 33.6 83s44.5 45 62.4 45s41.2-16.8 62.4-45s33.6-59 33.6-83a96.2 96.2 0 0 0-96-96Zm49.6 169.4C160.2 208.5 140.3 224 128 224s-32.2-15.5-49.6-38.6C59.6 160.5 48 132.4 48 112a80 80 0 0 1 160 0c0 20.4-11.6 48.5-30.4 73.4ZM120 140v-4a40 40 0 0 0-40-40a16 16 0 0 0-16 16v4a40 40 0 0 0 40 40a16 16 0 0 0 16-16Zm-40-24v-4a24.1 24.1 0 0 1 24 24v4a24.1 24.1 0 0 1-24-24Zm96-20a40 40 0 0 0-40 40v4a16 16 0 0 0 16 16a40 40 0 0 0 40-40v-4a16 16 0 0 0-16-16Zm0 20a24.1 24.1 0 0 1-24 24v-4a24.1 24.1 0 0 1 24-24Zm-24 68a8 8 0 0 1-8 8h-32a8 8 0 0 1 0-16h32a8 8 0 0 1 8 8Z"></path></svg>