<svg xmlns="http://www.w3.org/2000/svg" xmlns:xlink="http://www.w3.org/1999/xlink" aria-hidden="true" role="img" class="iconify iconify--ph" width="1em" height="1em" preserveAspectRatio="xMidYMid meet" viewBox="0 0 256 256" data-icon="ph:alien-light"><path fill="currentColor" d="M128 18a94.1 94.1 0 0 0-94 94c0 23.6 12.4 54.2 33.2 81.8C83.3 215.2 107.7 238 128 238s44.7-22.8 60.8-44.2c20.8-27.6 33.2-58.2 33.2-81.8a94.1 94.1 0 0 0-94-94Zm51.2 168.6C161.5 210.2 140.9 226 128 226s-33.5-15.8-51.2-39.4C57.8 161.4 46 132.8 46 112a82 82 0 0 1 164 0c0 20.8-11.8 49.4-30.8 74.6ZM118 140v-4a38 38 0 0 0-38-38a14 14 0 0 0-14 14v4a38 38 0 0 0 38 38a14 14 0 0 0 14-14Zm-12 0a2 2 0 0 1-2 2a26.1 26.1 0 0 1-26-26v-4a2 2 0 0 1 2-2a26.1 26.1 0 0 1 26 26Zm70-42a38 38 0 0 0-38 38v4a14 14 0 0 0 14 14a38 38 0 0 0 38-38v-4a14 14 0 0 0-14-14Zm2 18a26.1 26.1 0 0 1-26 26a2 2 0 0 1-2-2v-4a26.1 26.1 0 0 1 26-26a2 2 0 0 1 2 2Zm-28 68a6 6 0 0 1-6 6h-32a6 6 0 0 1 0-12h32a6 6 0 0 1 6 6Z"></path></svg>