<svg xmlns="http://www.w3.org/2000/svg" xmlns:xlink="http://www.w3.org/1999/xlink" aria-hidden="true" role="img" class="iconify iconify--ph" width="1em" height="1em" preserveAspectRatio="xMidYMid meet" viewBox="0 0 256 256" data-icon="ph:alien-thin"><path fill="currentColor" d="M128 20a92.1 92.1 0 0 0-92 92c0 23.2 12.3 53.3 32.8 80.6c15.8 21 39.6 43.4 59.2 43.4s43.4-22.4 59.2-43.4c20.5-27.3 32.8-57.4 32.8-80.6a92.1 92.1 0 0 0-92-92Zm52.8 167.8C162.4 212.2 141.7 228 128 228s-34.4-15.8-52.8-40.2S44 133.2 44 112a84 84 0 0 1 168 0c0 21.2-12 50.2-31.2 75.8ZM116 140v-4a36 36 0 0 0-36-36a12 12 0 0 0-12 12v4a36 36 0 0 0 36 36a12 12 0 0 0 12-12Zm-8 0a4 4 0 0 1-4 4a28.1 28.1 0 0 1-28-28v-4a4 4 0 0 1 4-4a28.1 28.1 0 0 1 28 28Zm68-40a36 36 0 0 0-36 36v4a12 12 0 0 0 12 12a36 36 0 0 0 36-36v-4a12 12 0 0 0-12-12Zm4 16a28.1 28.1 0 0 1-28 28a4 4 0 0 1-4-4v-4a28.1 28.1 0 0 1 28-28a4 4 0 0 1 4 4Zm-32 68a4 4 0 0 1-4 4h-32a4 4 0 0 1 0-8h32a4 4 0 0 1 4 4Z"></path></svg>