<svg xmlns="http://www.w3.org/2000/svg" xmlns:xlink="http://www.w3.org/1999/xlink" aria-hidden="true" role="img" class="iconify iconify--ph" width="1em" height="1em" preserveAspectRatio="xMidYMid meet" viewBox="0 0 256 256" data-icon="ph:align-left-fill"><path fill="currentColor" d="M48 40v176a8 8 0 0 1-16 0V40a8 8 0 0 1 16 0Zm32 80h96a16 16 0 0 0 16-16V64a16 16 0 0 0-16-16H80a16 16 0 0 0-16 16v40a16 16 0 0 0 16 16Zm136 16H80a16 16 0 0 0-16 16v40a16 16 0 0 0 16 16h136a16 16 0 0 0 16-16v-40a16 16 0 0 0-16-16Z"></path></svg>