<svg xmlns="http://www.w3.org/2000/svg" xmlns:xlink="http://www.w3.org/1999/xlink" aria-hidden="true" role="img" class="iconify iconify--ph" width="1em" height="1em" preserveAspectRatio="xMidYMid meet" viewBox="0 0 256 256" data-icon="ph:align-center-horizontal"><path fill="currentColor" d="M208 136h-72v-16h48a16 16 0 0 0 16-16V64a16 16 0 0 0-16-16h-48V32a8 8 0 0 0-16 0v16H72a16 16 0 0 0-16 16v40a16 16 0 0 0 16 16h48v16H48a16 16 0 0 0-16 16v40a16 16 0 0 0 16 16h72v16a8 8 0 0 0 16 0v-16h72a16 16 0 0 0 16-16v-40a16 16 0 0 0-16-16ZM72 64h112v40H72Zm136 128H48v-40h160v40Z"></path></svg>