<svg xmlns="http://www.w3.org/2000/svg" xmlns:xlink="http://www.w3.org/1999/xlink" aria-hidden="true" role="img" class="iconify iconify--ph" width="1em" height="1em" preserveAspectRatio="xMidYMid meet" viewBox="0 0 256 256" data-icon="ph:align-center-horizontal-simple-duotone"><path fill="currentColor" d="M216 96v64a8 8 0 0 1-8 8H48a8 8 0 0 1-8-8V96a8 8 0 0 1 8-8h160a8 8 0 0 1 8 8Z" opacity=".2"></path><path fill="currentColor" d="M208 80h-72V48a8 8 0 0 0-16 0v32H48a16 16 0 0 0-16 16v64a16 16 0 0 0 16 16h72v32a8 8 0 0 0 16 0v-32h72a16 16 0 0 0 16-16V96a16 16 0 0 0-16-16Zm0 80H48V96h160v64Z"></path></svg>