<svg xmlns="http://www.w3.org/2000/svg" xmlns:xlink="http://www.w3.org/1999/xlink" aria-hidden="true" role="img" class="iconify iconify--ph" width="1em" height="1em" preserveAspectRatio="xMidYMid meet" viewBox="0 0 256 256" data-icon="ph:align-center-horizontal-fill"><path fill="currentColor" d="M224 152v40a16 16 0 0 1-16 16h-72v16a8 8 0 0 1-16 0v-16H48a16 16 0 0 1-16-16v-40a16 16 0 0 1 16-16h72v-16H72a16 16 0 0 1-16-16V64a16 16 0 0 1 16-16h48V32a8 8 0 0 1 16 0v16h48a16 16 0 0 1 16 16v40a16 16 0 0 1-16 16h-48v16h72a16 16 0 0 1 16 16Z"></path></svg>