<svg xmlns="http://www.w3.org/2000/svg" xmlns:xlink="http://www.w3.org/1999/xlink" aria-hidden="true" role="img" class="iconify iconify--ph" width="1em" height="1em" preserveAspectRatio="xMidYMid meet" viewBox="0 0 256 256" data-icon="ph:align-bottom-bold"><path fill="currentColor" d="M228 216a12 12 0 0 1-12 12H40a12 12 0 0 1 0-24h176a12 12 0 0 1 12 12Zm-92-48V80a20.1 20.1 0 0 1 20-20h36a20.1 20.1 0 0 1 20 20v88a20.1 20.1 0 0 1-20 20h-36a20.1 20.1 0 0 1-20-20Zm24-4h28V84h-28Zm-116 4V40a20.1 20.1 0 0 1 20-20h36a20.1 20.1 0 0 1 20 20v128a20.1 20.1 0 0 1-20 20H64a20.1 20.1 0 0 1-20-20Zm24-4h28V44H68Z"></path></svg>