<svg xmlns="http://www.w3.org/2000/svg" xmlns:xlink="http://www.w3.org/1999/xlink" aria-hidden="true" role="img" class="iconify iconify--ph" width="1em" height="1em" preserveAspectRatio="xMidYMid meet" viewBox="0 0 256 256" data-icon="ph:align-top-simple-thin"><path fill="currentColor" d="M204 32a4 4 0 0 1-4 4H56a4 4 0 0 1 0-8h144a4 4 0 0 1 4 4Zm-32 40v152a12 12 0 0 1-12 12H96a12 12 0 0 1-12-12V72a12 12 0 0 1 12-12h64a12 12 0 0 1 12 12Zm-8 0a4 4 0 0 0-4-4H96a4 4 0 0 0-4 4v152a4 4 0 0 0 4 4h64a4 4 0 0 0 4-4Z"></path></svg>