<svg xmlns="http://www.w3.org/2000/svg" xmlns:xlink="http://www.w3.org/1999/xlink" aria-hidden="true" role="img" class="iconify iconify--ph" width="1em" height="1em" preserveAspectRatio="xMidYMid meet" viewBox="0 0 256 256" data-icon="ph:align-top-bold"><path fill="currentColor" d="M100 68H64a20.1 20.1 0 0 0-20 20v128a20.1 20.1 0 0 0 20 20h36a20.1 20.1 0 0 0 20-20V88a20.1 20.1 0 0 0-20-20Zm-4 144H68V92h28Zm96-144h-36a20.1 20.1 0 0 0-20 20v88a20.1 20.1 0 0 0 20 20h36a20.1 20.1 0 0 0 20-20V88a20.1 20.1 0 0 0-20-20Zm-4 104h-28V92h28Zm40-132a12 12 0 0 1-12 12H40a12 12 0 0 1 0-24h176a12 12 0 0 1 12 12Z"></path></svg>