<svg xmlns="http://www.w3.org/2000/svg" xmlns:xlink="http://www.w3.org/1999/xlink" aria-hidden="true" role="img" class="iconify iconify--ph" width="1em" height="1em" preserveAspectRatio="xMidYMid meet" viewBox="0 0 256 256" data-icon="ph:align-center-horizontal-simple-thin"><path fill="currentColor" d="M208 84h-76V48a4 4 0 0 0-8 0v36H48a12 12 0 0 0-12 12v64a12 12 0 0 0 12 12h76v36a4 4 0 0 0 8 0v-36h76a12 12 0 0 0 12-12V96a12 12 0 0 0-12-12Zm4 76a4 4 0 0 1-4 4H48a4 4 0 0 1-4-4V96a4 4 0 0 1 4-4h160a4 4 0 0 1 4 4Z"></path></svg>