<svg xmlns="http://www.w3.org/2000/svg" xmlns:xlink="http://www.w3.org/1999/xlink" aria-hidden="true" role="img" class="iconify iconify--ph" width="1em" height="1em" preserveAspectRatio="xMidYMid meet" viewBox="0 0 256 256" data-icon="ph:align-left-bold"><path fill="currentColor" d="M52 40v176a12 12 0 0 1-24 0V40a12 12 0 0 1 24 0Zm16 60V64a20.1 20.1 0 0 1 20-20h88a20.1 20.1 0 0 1 20 20v36a20.1 20.1 0 0 1-20 20H88a20.1 20.1 0 0 1-20-20Zm24-4h80V68H92Zm144 60v36a20.1 20.1 0 0 1-20 20H88a20.1 20.1 0 0 1-20-20v-36a20.1 20.1 0 0 1 20-20h128a20.1 20.1 0 0 1 20 20Zm-24 4H92v28h120Z"></path></svg>