<svg xmlns="http://www.w3.org/2000/svg" xmlns:xlink="http://www.w3.org/1999/xlink" aria-hidden="true" role="img" class="iconify iconify--ph" width="1em" height="1em" preserveAspectRatio="xMidYMid meet" viewBox="0 0 256 256" data-icon="ph:align-center-vertical-simple-thin"><path fill="currentColor" d="M208 124h-36V48a12 12 0 0 0-12-12H96a12 12 0 0 0-12 12v76H48a4 4 0 0 0 0 8h36v76a12 12 0 0 0 12 12h64a12 12 0 0 0 12-12v-76h36a4 4 0 0 0 0-8Zm-44 84a4 4 0 0 1-4 4H96a4 4 0 0 1-4-4V48a4 4 0 0 1 4-4h64a4 4 0 0 1 4 4Z"></path></svg>