<svg xmlns="http://www.w3.org/2000/svg" xmlns:xlink="http://www.w3.org/1999/xlink" aria-hidden="true" role="img" class="iconify iconify--ph" width="1em" height="1em" preserveAspectRatio="xMidYMid meet" viewBox="0 0 256 256" data-icon="ph:align-right-simple-duotone"><path fill="currentColor" d="M192 96v64a8 8 0 0 1-8 8H32a8 8 0 0 1-8-8V96a8 8 0 0 1 8-8h152a8 8 0 0 1 8 8Z" opacity=".2"></path><path fill="currentColor" d="M232 56v144a8 8 0 0 1-16 0V56a8 8 0 0 1 16 0Zm-32 40v64a16 16 0 0 1-16 16H32a16 16 0 0 1-16-16V96a16 16 0 0 1 16-16h152a16 16 0 0 1 16 16Zm-16 0H32v64h152Z"></path></svg>