<svg xmlns="http://www.w3.org/2000/svg" xmlns:xlink="http://www.w3.org/1999/xlink" aria-hidden="true" role="img" class="iconify iconify--ph" width="1em" height="1em" preserveAspectRatio="xMidYMid meet" viewBox="0 0 256 256" data-icon="ph:align-right-simple-thin"><path fill="currentColor" d="M228 56v144a4 4 0 0 1-8 0V56a4 4 0 0 1 8 0Zm-32 40v64a12 12 0 0 1-12 12H32a12 12 0 0 1-12-12V96a12 12 0 0 1 12-12h152a12 12 0 0 1 12 12Zm-8 0a4 4 0 0 0-4-4H32a4 4 0 0 0-4 4v64a4 4 0 0 0 4 4h152a4 4 0 0 0 4-4Z"></path></svg>