<svg xmlns="http://www.w3.org/2000/svg" xmlns:xlink="http://www.w3.org/1999/xlink" aria-hidden="true" role="img" class="iconify iconify--ph" width="1em" height="1em" preserveAspectRatio="xMidYMid meet" viewBox="0 0 256 256" data-icon="ph:align-center-horizontal-bold"><path fill="currentColor" d="M208 136h-68v-16h44a20.1 20.1 0 0 0 20-20V60a20.1 20.1 0 0 0-20-20h-44v-8a12 12 0 0 0-24 0v8H72a20.1 20.1 0 0 0-20 20v40a20.1 20.1 0 0 0 20 20h44v16H48a20.1 20.1 0 0 0-20 20v40a20.1 20.1 0 0 0 20 20h68v8a12 12 0 0 0 24 0v-8h68a20.1 20.1 0 0 0 20-20v-40a20.1 20.1 0 0 0-20-20ZM76 64h104v32H76Zm128 128H52v-32h152Z"></path></svg>