<svg xmlns="http://www.w3.org/2000/svg" xmlns:xlink="http://www.w3.org/1999/xlink" aria-hidden="true" role="img" class="iconify iconify--ph" width="1em" height="1em" preserveAspectRatio="xMidYMid meet" viewBox="0 0 256 256" data-icon="ph:align-center-vertical-bold"><path fill="currentColor" d="M224 116h-8V72a20.1 20.1 0 0 0-20-20h-40a20.1 20.1 0 0 0-20 20v44h-16V48a20.1 20.1 0 0 0-20-20H60a20.1 20.1 0 0 0-20 20v68h-8a12 12 0 0 0 0 24h8v68a20.1 20.1 0 0 0 20 20h40a20.1 20.1 0 0 0 20-20v-68h16v44a20.1 20.1 0 0 0 20 20h40a20.1 20.1 0 0 0 20-20v-44h8a12 12 0 0 0 0-24ZM96 204H64V52h32Zm96-24h-32V76h32Z"></path></svg>