<svg xmlns="http://www.w3.org/2000/svg" xmlns:xlink="http://www.w3.org/1999/xlink" aria-hidden="true" role="img" class="iconify iconify--ph" width="1em" height="1em" preserveAspectRatio="xMidYMid meet" viewBox="0 0 256 256" data-icon="ph:align-center-vertical-duotone"><rect width="128" height="56" x="108" y="100" fill="currentColor" opacity=".2" rx="8" transform="rotate(90 172 128)"></rect><rect width="56" height="176" x="56" y="40" fill="currentColor" opacity=".2" rx="8"></rect><path fill="currentColor" d="M224 120h-16V72a16 16 0 0 0-16-16h-40a16 16 0 0 0-16 16v48h-16V48a16 16 0 0 0-16-16H64a16 16 0 0 0-16 16v72H32a8 8 0 0 0 0 16h16v72a16 16 0 0 0 16 16h40a16 16 0 0 0 16-16v-72h16v48a16 16 0 0 0 16 16h40a16 16 0 0 0 16-16v-48h16a8 8 0 0 0 0-16Zm-120 88H64V48h40Zm88-24h-40V72h40Z"></path></svg>