<svg xmlns="http://www.w3.org/2000/svg" xmlns:xlink="http://www.w3.org/1999/xlink" aria-hidden="true" role="img" class="iconify iconify--ph" width="1em" height="1em" preserveAspectRatio="xMidYMid meet" viewBox="0 0 256 256" data-icon="ph:align-center-vertical-simple-duotone"><path fill="currentColor" d="M168 48v160a8 8 0 0 1-8 8H96a8 8 0 0 1-8-8V48a8 8 0 0 1 8-8h64a8 8 0 0 1 8 8Z" opacity=".2"></path><path fill="currentColor" d="M208 120h-32V48a16 16 0 0 0-16-16H96a16 16 0 0 0-16 16v72H48a8 8 0 0 0 0 16h32v72a16 16 0 0 0 16 16h64a16 16 0 0 0 16-16v-72h32a8 8 0 0 0 0-16Zm-48 88H96V48h64Z"></path></svg>