<svg xmlns="http://www.w3.org/2000/svg" xmlns:xlink="http://www.w3.org/1999/xlink" aria-hidden="true" role="img" class="iconify iconify--ph" width="1em" height="1em" preserveAspectRatio="xMidYMid meet" viewBox="0 0 256 256" data-icon="ph:align-top"><path fill="currentColor" d="M224 40a8 8 0 0 1-8 8H40a8 8 0 0 1 0-16h176a8 8 0 0 1 8 8Zm-16 40v96a16 16 0 0 1-16 16h-40a16 16 0 0 1-16-16V80a16 16 0 0 1 16-16h40a16 16 0 0 1 16 16Zm-16 0h-40v96h40Zm-72 0v136a16 16 0 0 1-16 16H64a16 16 0 0 1-16-16V80a16 16 0 0 1 16-16h40a16 16 0 0 1 16 16Zm-16 0H64v136h40Z"></path></svg>