<svg xmlns="http://www.w3.org/2000/svg" xmlns:xlink="http://www.w3.org/1999/xlink" aria-hidden="true" role="img" class="iconify iconify--ph" width="1em" height="1em" preserveAspectRatio="xMidYMid meet" viewBox="0 0 256 256" data-icon="ph:align-bottom-duotone"><rect width="112" height="56" x="116" y="100" fill="currentColor" opacity=".2" rx="8" transform="rotate(-90 172 128)"></rect><rect width="56" height="152" x="56" y="32" fill="currentColor" opacity=".2" rx="8"></rect><path fill="currentColor" d="M224 216a8 8 0 0 1-8 8H40a8 8 0 0 1 0-16h176a8 8 0 0 1 8 8Zm-88-40V80a16 16 0 0 1 16-16h40a16 16 0 0 1 16 16v96a16 16 0 0 1-16 16h-40a16 16 0 0 1-16-16Zm16 0h40V80h-40Zm-104 0V40a16 16 0 0 1 16-16h40a16 16 0 0 1 16 16v136a16 16 0 0 1-16 16H64a16 16 0 0 1-16-16Zm16 0h40V40H64Z"></path></svg>