<svg xmlns="http://www.w3.org/2000/svg" xmlns:xlink="http://www.w3.org/1999/xlink" aria-hidden="true" role="img" class="iconify iconify--ph" width="1em" height="1em" preserveAspectRatio="xMidYMid meet" viewBox="0 0 256 256" data-icon="ph:align-right-bold"><path fill="currentColor" d="M228 40v176a12 12 0 0 1-24 0V40a12 12 0 0 1 24 0Zm-40 24v36a20.1 20.1 0 0 1-20 20H80a20.1 20.1 0 0 1-20-20V64a20.1 20.1 0 0 1 20-20h88a20.1 20.1 0 0 1 20 20Zm-24 4H84v28h80Zm24 88v36a20.1 20.1 0 0 1-20 20H40a20.1 20.1 0 0 1-20-20v-36a20.1 20.1 0 0 1 20-20h128a20.1 20.1 0 0 1 20 20Zm-24 4H44v28h120Z"></path></svg>