<svg xmlns="http://www.w3.org/2000/svg" xmlns:xlink="http://www.w3.org/1999/xlink" aria-hidden="true" role="img" class="iconify iconify--ph" width="1em" height="1em" preserveAspectRatio="xMidYMid meet" viewBox="0 0 256 256" data-icon="ph:align-bottom-simple-bold"><path fill="currentColor" d="M212 232a12 12 0 0 1-12 12H56a12 12 0 0 1 0-24h144a12 12 0 0 1 12 12ZM76 184V40a20.1 20.1 0 0 1 20-20h64a20.1 20.1 0 0 1 20 20v144a20.1 20.1 0 0 1-20 20H96a20.1 20.1 0 0 1-20-20Zm24-4h56V44h-56Z"></path></svg>