<svg xmlns="http://www.w3.org/2000/svg" xmlns:xlink="http://www.w3.org/1999/xlink" aria-hidden="true" role="img" class="iconify iconify--ph" width="1em" height="1em" preserveAspectRatio="xMidYMid meet" viewBox="0 0 256 256" data-icon="ph:anchor-thin"><path fill="currentColor" d="M216 140a4 4 0 0 0-4 4a44 44 0 0 1-44 44a44 44 0 0 0-36 18.7V116h36a4 4 0 0 0 0-8h-36V75.7a24 24 0 1 0-8 0V108H88a4 4 0 0 0 0 8h36v90.7A44 44 0 0 0 88 188a44 44 0 0 1-44-44a4 4 0 0 0-8 0a52 52 0 0 0 52 52a36 36 0 0 1 36 36a4 4 0 0 0 8 0a36 36 0 0 1 36-36a52 52 0 0 0 52-52a4 4 0 0 0-4-4ZM112 52a16 16 0 1 1 16 16a16 16 0 0 1-16-16Z"></path></svg>