<svg xmlns="http://www.w3.org/2000/svg" xmlns:xlink="http://www.w3.org/1999/xlink" aria-hidden="true" role="img" class="iconify iconify--ph" width="1em" height="1em" preserveAspectRatio="xMidYMid meet" viewBox="0 0 256 256" data-icon="ph:anchor-simple-thin"><path fill="currentColor" d="M224 116h-24a4 4 0 0 0 0 8h19.9a92 92 0 0 1-87.9 87.9V91.7a28 28 0 1 0-8 0v120.2A92 92 0 0 1 36.1 124H56a4 4 0 0 0 0-8H32a4 4 0 0 0-4 4a100 100 0 0 0 200 0a4 4 0 0 0-4-4ZM108 64a20 20 0 1 1 20 20a20.1 20.1 0 0 1-20-20Z"></path></svg>