<svg xmlns="http://www.w3.org/2000/svg" xmlns:xlink="http://www.w3.org/1999/xlink" aria-hidden="true" role="img" class="iconify iconify--ph" width="1em" height="1em" preserveAspectRatio="xMidYMid meet" viewBox="0 0 256 256" data-icon="ph:anchor-simple-duotone"><path fill="currentColor" d="M224 112h-24a8 8 0 0 0 0 16h15.6a88 88 0 0 1-79.6 79.6V95a32 32 0 1 0-16 0v112.6A88 88 0 0 1 40.4 128H56a8 8 0 0 0 0-16H32a8 8 0 0 0-8 8a104 104 0 0 0 208 0a8 8 0 0 0-8-8ZM112 64a16 16 0 1 1 16 16a16 16 0 0 1-16-16Z"></path></svg>