<svg xmlns="http://www.w3.org/2000/svg" xmlns:xlink="http://www.w3.org/1999/xlink" aria-hidden="true" role="img" class="iconify iconify--ph" width="1em" height="1em" preserveAspectRatio="xMidYMid meet" viewBox="0 0 256 256" data-icon="ph:anchor-simple-light"><path fill="currentColor" d="M224 114h-24a6 6 0 0 0 0 12h17.8a90.1 90.1 0 0 1-83.8 83.8V93.4a30 30 0 1 0-12 0v116.4A90.1 90.1 0 0 1 38.2 126H56a6 6 0 0 0 0-12H32a6 6 0 0 0-6 6a102 102 0 0 0 204 0a6 6 0 0 0-6-6ZM110 64a18 18 0 1 1 18 18a18.1 18.1 0 0 1-18-18Z"></path></svg>