<svg xmlns="http://www.w3.org/2000/svg" xmlns:xlink="http://www.w3.org/1999/xlink" aria-hidden="true" role="img" class="iconify iconify--ph" width="1em" height="1em" preserveAspectRatio="xMidYMid meet" viewBox="0 0 256 256" data-icon="ph:anchor-light"><path fill="currentColor" d="M216 138a6 6 0 0 0-6 6a42 42 0 0 1-42 42a45.6 45.6 0 0 0-34 15.1V118h34a6 6 0 0 0 0-12h-34V77.3a26 26 0 1 0-12 0V106H88a6 6 0 0 0 0 12h34v83.1A45.6 45.6 0 0 0 88 186a42 42 0 0 1-42-42a6 6 0 0 0-12 0a54 54 0 0 0 54 54a34.1 34.1 0 0 1 34 34a6 6 0 0 0 12 0a34.1 34.1 0 0 1 34-34a54 54 0 0 0 54-54a6 6 0 0 0-6-6ZM114 52a14 14 0 1 1 14 14a14 14 0 0 1-14-14Z"></path></svg>