<svg xmlns="http://www.w3.org/2000/svg" xmlns:xlink="http://www.w3.org/1999/xlink" aria-hidden="true" role="img" class="iconify iconify--ph" width="1em" height="1em" preserveAspectRatio="xMidYMid meet" viewBox="0 0 256 256" data-icon="ph:anchor-bold"><path fill="currentColor" d="M216 132a12 12 0 0 0-12 12a36 36 0 0 1-36 36a51.6 51.6 0 0 0-28 8.2V124h28a12 12 0 0 0 0-24h-28V81.7a32 32 0 1 0-24 0V100H88a12 12 0 0 0 0 24h28v64.2a51.6 51.6 0 0 0-28-8.2a36 36 0 0 1-36-36a12 12 0 0 0-24 0a60 60 0 0 0 60 60a28.1 28.1 0 0 1 28 28a12 12 0 0 0 24 0a28.1 28.1 0 0 1 28-28a60 60 0 0 0 60-60a12 12 0 0 0-12-12Zm-88-88a8 8 0 1 1-8 8a8 8 0 0 1 8-8Z"></path></svg>