<svg xmlns="http://www.w3.org/2000/svg" xmlns:xlink="http://www.w3.org/1999/xlink" aria-hidden="true" role="img" class="iconify iconify--ph" width="1em" height="1em" preserveAspectRatio="xMidYMid meet" viewBox="0 0 256 256" data-icon="ph:anchor-duotone"><path fill="currentColor" d="M216 136a8 8 0 0 0-8 8a40 40 0 0 1-40 40a47.9 47.9 0 0 0-32 12.3V120h32a8 8 0 0 0 0-16h-32V78.8a28 28 0 1 0-16 0V104H88a8 8 0 0 0 0 16h32v76.3A47.9 47.9 0 0 0 88 184a40 40 0 0 1-40-40a8 8 0 0 0-16 0a56 56 0 0 0 56 56a32.1 32.1 0 0 1 32 32a8 8 0 0 0 16 0a32.1 32.1 0 0 1 32-32a56 56 0 0 0 56-56a8 8 0 0 0-8-8ZM116 52a12 12 0 1 1 12 12a12 12 0 0 1-12-12Z"></path></svg>