<svg xmlns="http://www.w3.org/2000/svg" xmlns:xlink="http://www.w3.org/1999/xlink" aria-hidden="true" role="img" class="iconify iconify--ph" width="1em" height="1em" preserveAspectRatio="xMidYMid meet" viewBox="0 0 256 256" data-icon="ph:anchor-simple-bold"><path fill="currentColor" d="M224 108h-24a12 12 0 0 0 0 24h11.1a84 84 0 0 1-71.1 71.1V97.9a36 36 0 1 0-24 0v105.2A84 84 0 0 1 44.9 132H56a12 12 0 0 0 0-24H32a12 12 0 0 0-12 12a108 108 0 0 0 216 0a12 12 0 0 0-12-12Zm-96-56a12 12 0 1 1-12 12a12 12 0 0 1 12-12Z"></path></svg>