<svg xmlns="http://www.w3.org/2000/svg" xmlns:xlink="http://www.w3.org/1999/xlink" aria-hidden="true" role="img" class="iconify iconify--ph" width="1em" height="1em" preserveAspectRatio="xMidYMid meet" viewBox="0 0 256 256" data-icon="ph:android-logo"><path fill="currentColor" d="M176 156a12 12 0 1 1-12-12a12 12 0 0 1 12 12Zm-84-12a12 12 0 1 0 12 12a12 12 0 0 0-12-12Zm148 24v24a16 16 0 0 1-16 16H32a16 16 0 0 1-16-16v-22.9a113.4 113.4 0 0 1 35.4-82.4l-25.1-25a8.1 8.1 0 0 1 11.4-11.4l26.1 26.2a111.5 111.5 0 0 1 128.6-.2l25.9-26a8.1 8.1 0 0 1 11.4 11.4l-24.9 24.8l2.3 2.2A111.2 111.2 0 0 1 240 168Zm-16 0a95.3 95.3 0 0 0-28.2-68a98.5 98.5 0 0 0-7.7-6.8a.1.1 0 0 0-.1-.1A95 95 0 0 0 128 72h-.3c-52.8.2-95.7 43.8-95.7 97.1V192h192Z"></path></svg>