<svg xmlns="http://www.w3.org/2000/svg" xmlns:xlink="http://www.w3.org/1999/xlink" aria-hidden="true" role="img" class="iconify iconify--ph" width="1em" height="1em" preserveAspectRatio="xMidYMid meet" viewBox="0 0 256 256" data-icon="ph:android-logo-fill"><path fill="currentColor" d="m207.1 88.7l-2.3-2.2l24.9-24.8a8.1 8.1 0 0 0-11.4-11.4l-25.9 26a111.5 111.5 0 0 0-128.6.2L37.7 50.3a8.1 8.1 0 0 0-11.4 11.4l25.1 25A113.4 113.4 0 0 0 16 169.1V192a16 16 0 0 0 16 16h192a16 16 0 0 0 16-16v-24a111.2 111.2 0 0 0-32.9-79.3ZM92 168a12 12 0 1 1 12-12a12 12 0 0 1-12 12Zm72 0a12 12 0 1 1 12-12a12 12 0 0 1-12 12Z"></path></svg>