<svg xmlns="http://www.w3.org/2000/svg" xmlns:xlink="http://www.w3.org/1999/xlink" aria-hidden="true" role="img" class="iconify iconify--ph" width="1em" height="1em" preserveAspectRatio="xMidYMid meet" viewBox="0 0 256 256" data-icon="ph:android-logo-light"><path fill="currentColor" d="M174 156a10 10 0 1 1-10-10a10 10 0 0 1 10 10Zm-82-10a10 10 0 1 0 10 10a10 10 0 0 0-10-10Zm146 22v24a14 14 0 0 1-14 14H32a14 14 0 0 1-14-14v-22.9a111 111 0 0 1 36.3-82.3L27.8 60.2a5.9 5.9 0 1 1 8.4-8.4l27.4 27.3a108.6 108.6 0 0 1 64-21.1h.4a109.3 109.3 0 0 1 64.6 20.9l27.2-27.1a5.9 5.9 0 0 1 8.4 8.4l-26.3 26.4c1.3 1.1 2.5 2.3 3.7 3.5A109.1 109.1 0 0 1 238 168Zm-12 0a98 98 0 0 0-98-98h-.3c-53.9.2-97.7 44.7-97.7 99.1V192a2 2 0 0 0 2 2h192a2 2 0 0 0 2-2Z"></path></svg>