<svg xmlns="http://www.w3.org/2000/svg" xmlns:xlink="http://www.w3.org/1999/xlink" aria-hidden="true" role="img" class="iconify iconify--ph" width="1em" height="1em" preserveAspectRatio="xMidYMid meet" viewBox="0 0 256 256" data-icon="ph:android-logo-bold"><path fill="currentColor" d="M180 156a16 16 0 1 1-16-16a16 16 0 0 1 16 16Zm-88-16a16 16 0 1 0 16 16a16 16 0 0 0-16-16Zm152 28v24a20.1 20.1 0 0 1-20 20H32a20.1 20.1 0 0 1-20-20v-22.9a117.4 117.4 0 0 1 33.7-82.4L23.5 64.5a12 12 0 0 1 17-17l23.8 23.8A114.7 114.7 0 0 1 127.6 52h.4a115.5 115.5 0 0 1 63.9 19.1l23.6-23.6a12 12 0 0 1 17 17l-22 22A115 115 0 0 1 244 168Zm-24 0a92 92 0 0 0-92.3-92c-50.6.2-91.7 42-91.7 93.1V188h184Z"></path></svg>