<svg xmlns="http://www.w3.org/2000/svg" xmlns:xlink="http://www.w3.org/1999/xlink" aria-hidden="true" role="img" class="iconify iconify--ph" width="1em" height="1em" preserveAspectRatio="xMidYMid meet" viewBox="0 0 256 256" data-icon="ph:angular-logo-duotone"><path fill="currentColor" d="m224 72l-16 120l-80 40l-80-40L32 72l96-40Z" opacity=".2"></path><path fill="currentColor" d="m227.1 64.6l-96-40a8.3 8.3 0 0 0-6.2 0l-96 40a8.1 8.1 0 0 0-4.8 8.5l16 120a8.1 8.1 0 0 0 4.3 6.1l80 40a8.5 8.5 0 0 0 7.2 0l80-40a8.1 8.1 0 0 0 4.3-6.1l16-120a8.1 8.1 0 0 0-4.8-8.5Zm-26.5 122.1L128 223.1l-72.6-36.4L40.7 77L128 40.7L215.3 77ZM120.8 84.4l-36 72a8 8 0 0 0 14.4 7.2l8.4-16.9h40.8l8.4 16.9a8.1 8.1 0 0 0 7.2 4.4a9.4 9.4 0 0 0 3.6-.8a8.2 8.2 0 0 0 3.6-10.8l-36-72a8.1 8.1 0 0 0-14.4 0Zm19.6 46.3h-24.8l12.4-24.8Z"></path></svg>