<svg xmlns="http://www.w3.org/2000/svg" xmlns:xlink="http://www.w3.org/1999/xlink" aria-hidden="true" role="img" class="iconify iconify--ph" width="1em" height="1em" preserveAspectRatio="xMidYMid meet" viewBox="0 0 256 256" data-icon="ph:angular-logo-bold"><path fill="currentColor" d="m228.6 60.9l-96-40a12.2 12.2 0 0 0-9.2 0l-96 40a12.1 12.1 0 0 0-7.3 12.7l16 120a11.9 11.9 0 0 0 6.5 9.1l80 40a11.9 11.9 0 0 0 10.8 0l80-40a11.9 11.9 0 0 0 6.5-9.1l16-120a12.1 12.1 0 0 0-7.3-12.7Zm-31.7 123.2L128 218.6l-68.9-34.5l-14-104.6L128 45l82.9 34.5ZM117.3 82.6l-36 72a12 12 0 1 0 21.4 10.8l5.4-10.7h39.8l5.4 10.7a12 12 0 1 0 21.4-10.8l-36-72a12 12 0 0 0-21.4 0Zm2.8 48.1l7.9-15.9l7.9 15.9Z"></path></svg>