<svg xmlns="http://www.w3.org/2000/svg" xmlns:xlink="http://www.w3.org/1999/xlink" aria-hidden="true" role="img" class="iconify iconify--ph" width="1em" height="1em" preserveAspectRatio="xMidYMid meet" viewBox="0 0 256 256" data-icon="ph:angular-logo-thin"><path fill="currentColor" d="m225.5 68.3l-96-40a3.9 3.9 0 0 0-3 0l-96 40a4 4 0 0 0-2.5 4.2l16 120a4.2 4.2 0 0 0 2.2 3.1l80 40a4.2 4.2 0 0 0 3.6 0l80-40a4.2 4.2 0 0 0 2.2-3.1l16-120a4 4 0 0 0-2.5-4.2Zm-21.2 121.1L128 227.5l-76.3-38.1L36.4 74.5L128 36.3l91.6 38.2ZM124.4 86.2l-36 72a4 4 0 0 0 7.2 3.6l9.5-19.1h45.8l9.5 19.1a4 4 0 0 0 3.6 2.2a3.9 3.9 0 0 0 1.8-.4a4 4 0 0 0 1.8-5.4l-36-72a4 4 0 0 0-7.2 0Zm22.5 48.5h-37.8L128 96.9Z"></path></svg>