<svg xmlns="http://www.w3.org/2000/svg" xmlns:xlink="http://www.w3.org/1999/xlink" aria-hidden="true" role="img" class="iconify iconify--ph" width="1em" height="1em" preserveAspectRatio="xMidYMid meet" viewBox="0 0 256 256" data-icon="ph:angular-logo-fill"><path fill="currentColor" d="m227.1 64.6l-96-40a8.3 8.3 0 0 0-6.2 0l-96 40a8.1 8.1 0 0 0-4.8 8.5l16 120a8.1 8.1 0 0 0 4.3 6.1l80 40a8.5 8.5 0 0 0 7.2 0l80-40a8.1 8.1 0 0 0 4.3-6.1l16-120a8.1 8.1 0 0 0-4.8-8.5Zm-59.5 102.6a9.4 9.4 0 0 1-3.6.8a8.1 8.1 0 0 1-7.2-4.4l-8.4-16.9h-40.8l-8.4 16.9a8 8 0 0 1-14.4-7.2l36-72a8.1 8.1 0 0 1 14.4 0l36 72a8.2 8.2 0 0 1-3.6 10.8ZM128 105.9l12.4 24.8h-24.8Z"></path></svg>