<svg xmlns="http://www.w3.org/2000/svg" xmlns:xlink="http://www.w3.org/1999/xlink" aria-hidden="true" role="img" class="iconify iconify--ph" width="1em" height="1em" preserveAspectRatio="xMidYMid meet" viewBox="0 0 256 256" data-icon="ph:angular-logo-light"><path fill="currentColor" d="m226.3 66.5l-96-40a5.3 5.3 0 0 0-4.6 0l-96 40a5.9 5.9 0 0 0-3.6 6.3l16 120a5.8 5.8 0 0 0 3.2 4.6l80 40a6.4 6.4 0 0 0 5.4 0l80-40a5.8 5.8 0 0 0 3.2-4.6l16-120a5.9 5.9 0 0 0-3.6-6.3Zm-23.8 121.6L128 225.3l-74.5-37.2L38.6 75.8L128 38.5l89.4 37.3ZM122.6 85.3l-36 72a6 6 0 0 0 10.8 5.4l9-18h43.2l9 18a6.1 6.1 0 0 0 5.4 3.3a6.6 6.6 0 0 0 2.7-.6a6.2 6.2 0 0 0 2.7-8.1l-36-72a6.1 6.1 0 0 0-10.8 0Zm21 47.4h-31.2l15.6-31.3Z"></path></svg>