<svg xmlns="http://www.w3.org/2000/svg" xmlns:xlink="http://www.w3.org/1999/xlink" aria-hidden="true" role="img" class="iconify iconify--ph" width="1em" height="1em" preserveAspectRatio="xMidYMid meet" viewBox="0 0 256 256" data-icon="ph:aperture-bold"><path fill="currentColor" d="M204.4 51.6A108 108 0 1 0 127.9 236h.2a108 108 0 0 0 76.3-184.4Zm-91.6 94.3l-7.8-22.1l15.1-17.9l23.1 4.2l7.8 22.1l-15.1 17.9ZM51.5 93.4l41.4 7.6l-44.8 52.7a84.3 84.3 0 0 1 3.4-60.3Zm156.4 8.9a84.3 84.3 0 0 1-3.4 60.3l-41.4-7.6ZM196.2 79L169 111.1l-23.3-65.2a83 83 0 0 1 41.7 22.7a85.1 85.1 0 0 1 8.8 10.4Zm-76.5-34.6L133.8 84L65.7 71.6l2.9-3a83.5 83.5 0 0 1 51.1-24.2ZM59.8 177L87 144.9l23.3 65.2a83 83 0 0 1-41.7-22.7a85.1 85.1 0 0 1-8.8-10.4Zm76.5 34.6L122.2 172l16.2 2.9h.1l51.8 9.5l-2.9 3a83.5 83.5 0 0 1-51.1 24.2Z"></path></svg>