<svg xmlns="http://www.w3.org/2000/svg" xmlns:xlink="http://www.w3.org/1999/xlink" aria-hidden="true" role="img" class="iconify iconify--ph" width="1em" height="1em" preserveAspectRatio="xMidYMid meet" viewBox="0 0 256 256" data-icon="ph:aperture-thin"><path fill="currentColor" d="M228 128A100 100 0 0 0 57.3 57.3A100 100 0 0 0 128 228a100 100 0 0 0 100-100Zm-18.9 43.6l-61-11.2L210.4 87a92.5 92.5 0 0 1-1.3 84.6Zm-102.2-18.7l-11-30.8L117 97.2l32.1 5.9l11 30.8l-21.1 24.9Zm99.3-73.3l-40.1 47.2l-32.4-90.6a91.7 91.7 0 0 1 59.4 26.7a95.4 95.4 0 0 1 13.1 16.7ZM62.9 62.9a91.6 91.6 0 0 1 62.3-26.8L146 94.4L51.3 77.1a104.3 104.3 0 0 1 11.6-14.2Zm-16 21.5l61 11.2L45.6 169a92.5 92.5 0 0 1 1.3-84.6Zm2.9 92l40.1-47.2l32.4 90.6a91.7 91.7 0 0 1-59.4-26.7a95.4 95.4 0 0 1-13.1-16.7Zm81 43.5L110 161.6l29.8 5.4h.1l64.8 11.8a104.3 104.3 0 0 1-11.6 14.2a91.6 91.6 0 0 1-62.3 26.9Z"></path></svg>