<svg xmlns="http://www.w3.org/2000/svg" xmlns:xlink="http://www.w3.org/1999/xlink" aria-hidden="true" role="img" class="iconify iconify--ph" width="1em" height="1em" preserveAspectRatio="xMidYMid meet" viewBox="0 0 256 256" data-icon="ph:aperture-fill"><path fill="currentColor" d="M232 128A104.1 104.1 0 0 0 128 24A104.1 104.1 0 0 0 24 128a104.1 104.1 0 0 0 104 104h.1A104.1 104.1 0 0 0 232 128ZM49.2 88.9l51.2 9.4l-53.7 63.2a88 88 0 0 1 2.5-72.6Zm160.1 5.6a88 88 0 0 1-2.5 72.6l-51.2-9.4Zm-8-15.2L167.6 119l-28-78.2a86.8 86.8 0 0 1 50.6 25a88.5 88.5 0 0 1 11.1 13.5Zm-78.9-39.1l17.5 49l-81.6-14.9a99.2 99.2 0 0 1 7.5-8.5a87.1 87.1 0 0 1 56.6-25.6ZM54.7 176.7L88.4 137l28 78.2a86.8 86.8 0 0 1-50.6-25a88.5 88.5 0 0 1-11.1-13.5Zm78.9 39.1l-17.5-49l23 4.2h.1l58.5 10.7a99.2 99.2 0 0 1-7.5 8.5a87.1 87.1 0 0 1-56.6 25.6Z"></path></svg>