<svg xmlns="http://www.w3.org/2000/svg" xmlns:xlink="http://www.w3.org/1999/xlink" aria-hidden="true" role="img" class="iconify iconify--ph" width="1em" height="1em" preserveAspectRatio="xMidYMid meet" viewBox="0 0 256 256" data-icon="ph:aperture-light"><path fill="currentColor" d="M230 128A102 102 0 0 0 55.9 55.9a101.9 101.9 0 0 0 0 144.2A100.9 100.9 0 0 0 128 230a102.1 102.1 0 0 0 102-102Zm-22 41.3l-56.2-10.2l58.1-68.4a90.1 90.1 0 0 1-1.9 78.6Zm-99.7-18.2l-10.2-28.6l19.7-23.1l29.9 5.5l10.2 28.6l-19.7 23.1Zm95.5-71.7l-37 43.5l-30.1-84.5a89.1 89.1 0 0 1 54.9 26a87.1 87.1 0 0 1 12.2 15Zm-139.4-15a89.1 89.1 0 0 1 59.4-26.3L143 91.8L54.8 75.7a78.7 78.7 0 0 1 9.6-11.3ZM48 86.7l56.2 10.2l-58.1 68.4A90.1 90.1 0 0 1 48 86.7Zm4.2 89.9l37-43.5l30.1 84.5a89.1 89.1 0 0 1-54.9-26a87.1 87.1 0 0 1-12.2-15Zm80 41.3L113 164.2l26.5 4.8l61.7 11.3a78.7 78.7 0 0 1-9.6 11.3a89.1 89.1 0 0 1-59.4 26.3Z"></path></svg>