<svg xmlns="http://www.w3.org/2000/svg" xmlns:xlink="http://www.w3.org/1999/xlink" aria-hidden="true" role="img" class="iconify iconify--ph" width="1em" height="1em" preserveAspectRatio="xMidYMid meet" viewBox="0 0 256 256" data-icon="ph:app-window-duotone"><path fill="currentColor" d="M224 56v144a8 8 0 0 1-8 8H40a8 8 0 0 1-8-8V56a8 8 0 0 1 8-8h176a8 8 0 0 1 8 8Z" opacity=".2"></path><path fill="currentColor" d="M216 40H40a16 16 0 0 0-16 16v144a16 16 0 0 0 16 16h176a16 16 0 0 0 16-16V56a16 16 0 0 0-16-16Zm0 160H40V56h176v144ZM80 84a12 12 0 1 1-12-12a12 12 0 0 1 12 12Zm40 0a12 12 0 1 1-12-12a12 12 0 0 1 12 12Z"></path></svg>