<svg xmlns="http://www.w3.org/2000/svg" xmlns:xlink="http://www.w3.org/1999/xlink" aria-hidden="true" role="img" class="iconify iconify--ph" width="1em" height="1em" preserveAspectRatio="xMidYMid meet" viewBox="0 0 256 256" data-icon="ph:app-store-logo-bold"><path fill="currentColor" d="M244 168a12 12 0 0 1-12 12h-31.3l17.6 29.9a11.9 11.9 0 0 1-4.2 16.4a11.3 11.3 0 0 1-6.1 1.7a11.9 11.9 0 0 1-10.3-5.9L140.9 126a12 12 0 0 1 20.7-12.2l24.9 42.2H232a12 12 0 0 1 12 12Zm-110.8-12H97.4l64.9-109.9a12 12 0 0 0-20.6-12.2L128 57l-13.7-23.1a12 12 0 1 0-20.6 12.2l20.4 34.5L69.5 156H24a12 12 0 0 0 0 24h109.2a12 12 0 0 0 0-24Zm-74.4 41.7a11.9 11.9 0 0 0-16.4 4.2l-4.7 8a11.9 11.9 0 0 0 4.2 16.4A11.3 11.3 0 0 0 48 228a11.9 11.9 0 0 0 10.3-5.9l4.8-8a12 12 0 0 0-4.3-16.4Z"></path></svg>