<svg xmlns="http://www.w3.org/2000/svg" xmlns:xlink="http://www.w3.org/1999/xlink" aria-hidden="true" role="img" class="iconify iconify--ph" width="1em" height="1em" preserveAspectRatio="xMidYMid meet" viewBox="0 0 256 256" data-icon="ph:app-store-logo-thin"><path fill="currentColor" d="m60.9 202l-9.5 16a3.8 3.8 0 0 1-3.4 2a3.6 3.6 0 0 1-2-.6a3.8 3.8 0 0 1-1.4-5.4l9.4-16a4 4 0 0 1 6.9 4ZM232 164h-50.1L150 110a4 4 0 1 0-6.9 4.1L204.6 218a3.8 3.8 0 0 0 3.4 2a3.6 3.6 0 0 0 2-.6a3.8 3.8 0 0 0 1.4-5.4l-24.8-42H232a4 4 0 0 0 0-8Zm-89.5 0H83.4l72-122a3.9 3.9 0 1 0-6.8-4L128 72.8L107.4 38a3.9 3.9 0 1 0-6.8 4l22.8 38.6L74.1 164H24a4 4 0 0 0 0 8h118.5a4 4 0 0 0 0-8Z"></path></svg>