<svg xmlns="http://www.w3.org/2000/svg" xmlns:xlink="http://www.w3.org/1999/xlink" aria-hidden="true" role="img" class="iconify iconify--ph" width="1em" height="1em" preserveAspectRatio="xMidYMid meet" viewBox="0 0 256 256" data-icon="ph:app-store-logo-duotone"><path fill="currentColor" d="m64.3 204.1l-9.4 16A8.1 8.1 0 0 1 48 224a8.7 8.7 0 0 1-4.1-1.1a8.1 8.1 0 0 1-2.8-11l9.5-16a8 8 0 1 1 13.7 8.2ZM232 160h-47.8l-30.7-52a8 8 0 0 0-11-2.8a7.9 7.9 0 0 0-2.8 10.9l61.4 104a8.1 8.1 0 0 0 6.9 3.9a8.7 8.7 0 0 0 4.1-1.1a8.1 8.1 0 0 0 2.8-11L193.7 176H232a8 8 0 0 0 0-16Zm-89.5 0H90.4l68.5-115.9a8 8 0 0 0-13.8-8.2l-17.1 29l-17.1-29a8 8 0 1 0-13.8 8.2l21.6 36.5L71.8 160H24a8 8 0 0 0 0 16h118.5a8 8 0 0 0 0-16Z"></path></svg>