<svg xmlns="http://www.w3.org/2000/svg" xmlns:xlink="http://www.w3.org/1999/xlink" aria-hidden="true" role="img" class="iconify iconify--ph" width="1em" height="1em" preserveAspectRatio="xMidYMid meet" viewBox="0 0 256 256" data-icon="ph:apple-podcasts-logo-thin"><path fill="currentColor" d="M146.6 140.9a28 28 0 1 0-37.2 0a20 20 0 0 0-9.3 6.4a19.6 19.6 0 0 0-4.2 16.6l9.6 48a20.1 20.1 0 0 0 19.6 16.1h5.8a20.1 20.1 0 0 0 19.6-16.1l9.6-48a19.6 19.6 0 0 0-4.2-16.6a20 20 0 0 0-9.3-6.4ZM108 120a20 20 0 1 1 20 20a20.1 20.1 0 0 1-20-20Zm44.2 42.4l-9.6 48a12 12 0 0 1-11.7 9.6h-5.8a12 12 0 0 1-11.7-9.6l-9.6-48a11.6 11.6 0 0 1 2.4-10a12 12 0 0 1 9.3-4.4h25a12 12 0 0 1 9.3 4.4a11.6 11.6 0 0 1 2.4 10ZM188 128a60 60 0 0 0-120 0a61.4 61.4 0 0 0 4 21.7a4 4 0 0 1-2.2 5.2l-1.5.3a4 4 0 0 1-3.7-2.6A66.3 66.3 0 0 1 60 128a68 68 0 0 1 136 0a66.3 66.3 0 0 1-4.6 24.6a4 4 0 1 1-7.4-2.9a61.4 61.4 0 0 0 4-21.7Zm40 0a99.7 99.7 0 0 1-46.2 84.3a4.2 4.2 0 0 1-2.1.6a3.8 3.8 0 0 1-3.4-1.8a3.9 3.9 0 0 1 1.2-5.5a92 92 0 1 0-99 0a4 4 0 1 1-4.3 6.7A100 100 0 1 1 228 128Z"></path></svg>