<svg xmlns="http://www.w3.org/2000/svg" xmlns:xlink="http://www.w3.org/1999/xlink" aria-hidden="true" role="img" class="iconify iconify--ph" width="1em" height="1em" preserveAspectRatio="xMidYMid meet" viewBox="0 0 256 256" data-icon="ph:apple-podcasts-logo-duotone"><path fill="currentColor" d="M104 120a24 24 0 1 1 24 24a23.9 23.9 0 0 1-24-24Zm36.5 24h-25a16 16 0 0 0-15.7 19.1l9.6 48a16 16 0 0 0 15.7 12.9h5.8a16 16 0 0 0 15.7-12.9l9.6-48a16 16 0 0 0-15.7-19.1Z" opacity=".2"></path><path fill="currentColor" d="M153.2 139.7a32 32 0 1 0-50.4 0a20.1 20.1 0 0 0-5.8 5.1a23.9 23.9 0 0 0-5 19.9l9.6 48a24 24 0 0 0 23.5 19.3h5.8a24 24 0 0 0 23.5-19.3l9.6-48a23.9 23.9 0 0 0-5-19.9a20.1 20.1 0 0 0-5.8-5.1ZM128 104a16 16 0 1 1-16 16a16 16 0 0 1 16-16Zm20.3 57.6l-9.6 48a7.9 7.9 0 0 1-7.8 6.4h-5.8a7.9 7.9 0 0 1-7.8-6.4l-9.6-48a8.1 8.1 0 0 1 1.6-6.7a8.3 8.3 0 0 1 6.2-2.9h25a8.3 8.3 0 0 1 6.2 2.9a8.1 8.1 0 0 1 1.6 6.7ZM184 128a56 56 0 1 0-108.2 20.3a8 8 0 0 1-4.6 10.3a7.2 7.2 0 0 1-2.9.6a8 8 0 0 1-7.4-5.1A70.3 70.3 0 0 1 56 128a72 72 0 0 1 144 0a70.7 70.7 0 0 1-4.9 26.1a8 8 0 0 1-14.9-5.8A56.2 56.2 0 0 0 184 128Zm48 0a103.9 103.9 0 0 1-48 87.7a8.8 8.8 0 0 1-4.3 1.2a8 8 0 0 1-4.4-14.7a88 88 0 1 0-94.6 0a8 8 0 0 1-8.7 13.5A104 104 0 1 1 232 128Z"></path></svg>