<svg xmlns="http://www.w3.org/2000/svg" xmlns:xlink="http://www.w3.org/1999/xlink" aria-hidden="true" role="img" class="iconify iconify--ph" width="1em" height="1em" preserveAspectRatio="xMidYMid meet" viewBox="0 0 256 256" data-icon="ph:apple-podcasts-logo-light"><path fill="currentColor" d="M150.1 140.2A29.7 29.7 0 0 0 158 120a30 30 0 0 0-60 0a29.7 29.7 0 0 0 7.9 20.2a22.2 22.2 0 0 0-7.4 5.9a21.8 21.8 0 0 0-4.6 18.2l9.6 48a22.1 22.1 0 0 0 21.6 17.7h5.8a22.1 22.1 0 0 0 21.6-17.7l9.6-48a21.8 21.8 0 0 0-4.6-18.2a22.2 22.2 0 0 0-7.4-5.9ZM128 102a18 18 0 1 1-18 18a18.1 18.1 0 0 1 18-18Zm22.3 60l-9.6 48a10.1 10.1 0 0 1-9.8 8h-5.8a10.1 10.1 0 0 1-9.8-8l-9.6-48a9.9 9.9 0 0 1 2.1-8.3a9.7 9.7 0 0 1 7.7-3.7h25a9.7 9.7 0 0 1 7.7 3.7a9.9 9.9 0 0 1 2.1 8.3Zm35.7-34a58 58 0 1 0-112.1 21a6 6 0 0 1-3.4 7.8a8.5 8.5 0 0 1-2.2.4a6 6 0 0 1-5.6-3.9a70 70 0 1 1 130.6 0a6.1 6.1 0 0 1-7.8 3.5a6.1 6.1 0 0 1-3.4-7.8a57.9 57.9 0 0 0 3.9-21Zm44 0a101.7 101.7 0 0 1-47.1 86a6.2 6.2 0 0 1-3.2.9a5.9 5.9 0 0 1-5.1-2.7a6 6 0 0 1 1.8-8.3a90 90 0 1 0-96.8 0a6 6 0 0 1-6.5 10.1A102 102 0 1 1 230 128Z"></path></svg>