<svg xmlns="http://www.w3.org/2000/svg" xmlns:xlink="http://www.w3.org/1999/xlink" aria-hidden="true" role="img" class="iconify iconify--ph" width="1em" height="1em" preserveAspectRatio="xMidYMid meet" viewBox="0 0 256 256" data-icon="ph:apple-logo-thin"><path fill="currentColor" d="M134.4 31.1A36.2 36.2 0 0 1 168 8a4 4 0 0 1 0 8a28.1 28.1 0 0 0-26.1 17.9a4.2 4.2 0 0 1-3.8 2.6a3.5 3.5 0 0 1-1.4-.3a3.9 3.9 0 0 1-2.3-5.1Zm87.8 133.3C208.8 197.2 184.9 220 164 220H92c-30 0-68-49-68-104a64 64 0 0 1 104-50a64.1 64.1 0 0 1 90.3 10.4a4.1 4.1 0 0 1 .8 3.2a3.8 3.8 0 0 1-1.9 2.7a44 44 0 0 0 3.1 77a4.1 4.1 0 0 1 1.9 5.1Zm-8.8.3a52 52 0 0 1-4.2-86.6a56 56 0 0 0-78.5-3.9a4 4 0 0 1-5.4.1A55.9 55.9 0 0 0 32 116c0 23.2 7.6 47.7 20.8 67.3C64.8 201 79.8 212 92 212h72c16.8 0 37.2-19.7 49.4-47.3Z"></path></svg>