<svg xmlns="http://www.w3.org/2000/svg" xmlns:xlink="http://www.w3.org/1999/xlink" aria-hidden="true" role="img" class="iconify iconify--ph" width="1em" height="1em" preserveAspectRatio="xMidYMid meet" viewBox="0 0 256 256" data-icon="ph:apple-podcasts-logo-bold"><path fill="currentColor" d="M161.6 129.6A38.9 38.9 0 0 0 168 108a40 40 0 0 0-80 0a38.9 38.9 0 0 0 6.4 21.6a28.5 28.5 0 0 0-4.7 4.5a27.6 27.6 0 0 0-6.1 22.9l10.2 56a28 28 0 0 0 27.6 23h13.2a28 28 0 0 0 27.6-23l10.2-56a27.6 27.6 0 0 0-6.1-22.9a28.5 28.5 0 0 0-4.7-4.5ZM128 92a16 16 0 1 1-16 16a16 16 0 0 1 16-16Zm20.8 60.7l-10.2 56a4.1 4.1 0 0 1-4 3.3h-13.2a4.1 4.1 0 0 1-4-3.3l-10.2-56a4.2 4.2 0 0 1 .9-3.3a3.9 3.9 0 0 1 3.1-1.4h33.6a3.9 3.9 0 0 1 3.1 1.4a4.2 4.2 0 0 1 .9 3.3ZM236 128a108.3 108.3 0 0 1-34.5 79.1a12 12 0 1 1-16.3-17.5a84 84 0 1 0-114.4 0a12 12 0 1 1-16.3 17.5A108 108 0 1 1 236 128Z"></path></svg>