<svg xmlns="http://www.w3.org/2000/svg" xmlns:xlink="http://www.w3.org/1999/xlink" aria-hidden="true" role="img" class="iconify iconify--ph" width="1em" height="1em" preserveAspectRatio="xMidYMid meet" viewBox="0 0 256 256" data-icon="ph:apple-logo-bold"><path fill="currentColor" d="M223.8 152.2a36 36 0 0 1-2.4-63a12 12 0 0 0 3.2-17.7A71.6 71.6 0 0 0 168 44a72.6 72.6 0 0 0-40 12.1A72 72 0 0 0 16 116c0 26.3 8.6 54.1 23.6 76.2S74 228 92 228h72c12.6 0 25.7-6.4 38.1-18.4s20.8-25.8 27.5-42.1a12 12 0 0 0-5.8-15.3ZM164 204H92c-19.6 0-52-41.1-52-88a48 48 0 0 1 80-35.8l.2.2a12.1 12.1 0 0 0 16-.3a47.9 47.9 0 0 1 61-2.2a60.2 60.2 0 0 0 6 89.6c-11.7 23-28.4 36.5-39.2 36.5ZM134.4 15.6A44 44 0 0 1 168 0a12 12 0 0 1 0 24a20 20 0 0 0-15.3 7.1a12.2 12.2 0 0 1-9.2 4.3a12.1 12.1 0 0 1-9.1-19.8Z"></path></svg>