<svg xmlns="http://www.w3.org/2000/svg" xmlns:xlink="http://www.w3.org/1999/xlink" aria-hidden="true" role="img" class="iconify iconify--ph" width="1em" height="1em" preserveAspectRatio="xMidYMid meet" viewBox="0 0 256 256" data-icon="ph:apple-logo-fill"><path fill="currentColor" d="M130.7 29.6A40.2 40.2 0 0 1 168 4a8 8 0 0 1 0 16a24.1 24.1 0 0 0-22.4 15.4a8 8 0 0 1-7.5 5.1a9.2 9.2 0 0 1-2.8-.5a8 8 0 0 1-4.6-10.4ZM222 155.8a40 40 0 0 1-2.7-70a8.2 8.2 0 0 0 2.2-11.8A68 68 0 0 0 128 61a68 68 0 0 0-108 55a135 135 0 0 0 22.9 74c14.4 21.3 32.7 34 49.1 34h72c22.5 0 47.9-23.9 61.9-58a7.9 7.9 0 0 0-3.9-10.2Z"></path></svg>