<svg xmlns="http://www.w3.org/2000/svg" xmlns:xlink="http://www.w3.org/1999/xlink" aria-hidden="true" role="img" class="iconify iconify--ph" width="1em" height="1em" preserveAspectRatio="xMidYMid meet" viewBox="0 0 256 256" data-icon="ph:apple-logo-duotone"><path fill="currentColor" d="M218.5 162.9C205.9 193.7 183.1 216 164 216H92c-28 0-64-48-64-100a60 60 0 0 1 100-44.7a60 60 0 0 1 87.2 7.6a48 48 0 0 0 3.3 84Z" opacity=".2"></path><path fill="currentColor" d="M130.7 29.6A40.2 40.2 0 0 1 168 4a8 8 0 0 1 0 16a24.1 24.1 0 0 0-22.4 15.4a8 8 0 0 1-7.5 5.1a9.2 9.2 0 0 1-2.8-.5a8 8 0 0 1-4.6-10.4ZM225.9 166c-14 34.1-39.4 58-61.9 58H92c-16.4 0-34.7-12.7-49.1-34A135 135 0 0 1 20 116a68 68 0 0 1 108-55a68 68 0 0 1 93.5 13a8.2 8.2 0 0 1-2.2 11.8a40 40 0 0 0 2.7 70a7.9 7.9 0 0 1 3.9 10.2Zm-17.6.2a56.1 56.1 0 0 1-5.1-88.5a52 52 0 0 0-69.7-.6a8.1 8.1 0 0 1-10.7.3v-.2A52.1 52.1 0 0 0 36 116c0 49.9 34.4 92 56 92h72c14.4 0 32.7-17.6 44.3-41.8Z"></path></svg>