<svg xmlns="http://www.w3.org/2000/svg" xmlns:xlink="http://www.w3.org/1999/xlink" aria-hidden="true" role="img" class="iconify iconify--ph" width="1em" height="1em" preserveAspectRatio="xMidYMid meet" viewBox="0 0 256 256" data-icon="ph:archive-tray-bold"><path fill="currentColor" d="M208 28H48a20.1 20.1 0 0 0-20 20v160a20.1 20.1 0 0 0 20 20h160a20.1 20.1 0 0 0 20-20V48a20.1 20.1 0 0 0-20-20Zm-4 24v92h-24.7a19.7 19.7 0 0 0-14.1 5.9L147 168h-38l-18.2-18.1a19.8 19.8 0 0 0-14.1-5.9H52V52ZM52 204v-36h23l18.2 18.1a19.7 19.7 0 0 0 14.1 5.9h41.4a19.8 19.8 0 0 0 14.1-5.9L181 168h23v36Zm39.2-79.8a12 12 0 0 1 17-17l7.8 7.8V76a12 12 0 0 1 24 0v39l7.8-7.8a12 12 0 0 1 17 17l-28.3 28.3h-.1l-.8.8l-.4.3l-.5.4l-.6.3l-.4.3l-.6.2l-.5.3l-.5.2l-.6.2h-.6l-.6.2h-4.6l-.6-.2h-.6l-.6-.2l-.5-.2l-.5-.3l-.6-.2l-.4-.3l-.6-.3l-.5-.4l-.4-.3a6 6 0 0 1-.8-.8h-.1Z"></path></svg>