<svg xmlns="http://www.w3.org/2000/svg" xmlns:xlink="http://www.w3.org/1999/xlink" aria-hidden="true" role="img" class="iconify iconify--ph" width="1em" height="1em" preserveAspectRatio="xMidYMid meet" viewBox="0 0 256 256" data-icon="ph:archive-duotone"><path fill="currentColor" d="M216 96v96a8 8 0 0 1-8 8H48a8 8 0 0 1-8-8V96Z" opacity=".2"></path><path fill="currentColor" d="M224 48H32a16 16 0 0 0-16 16v24a16 16 0 0 0 16 16v88a16 16 0 0 0 16 16h160a16 16 0 0 0 16-16v-88a16 16 0 0 0 16-16V64a16 16 0 0 0-16-16Zm-16 144H48v-88h160Zm16-104H32V64h192v24ZM96 136a8 8 0 0 1 8-8h48a8 8 0 0 1 0 16h-48a8 8 0 0 1-8-8Z"></path></svg>