<svg xmlns="http://www.w3.org/2000/svg" xmlns:xlink="http://www.w3.org/1999/xlink" aria-hidden="true" role="img" class="iconify iconify--ph" width="1em" height="1em" preserveAspectRatio="xMidYMid meet" viewBox="0 0 256 256" data-icon="ph:archive-box"><path fill="currentColor" d="m223.2 68.4l-16-32A8.2 8.2 0 0 0 200 32H56a8.2 8.2 0 0 0-7.2 4.4l-16 32A9 9 0 0 0 32 72v136a16 16 0 0 0 16 16h160a16 16 0 0 0 16-16V72a9 9 0 0 0-.8-3.6ZM60.9 48h134.2l8 16H52.9ZM208 208H48V80h160v128Zm-40.4-63.6a8 8 0 0 1 0 11.3l-33.9 34a8.2 8.2 0 0 1-11.4 0l-33.9-34a8 8 0 0 1 11.3-11.3l20.3 20.3V104a8 8 0 0 1 16 0v60.7l20.3-20.3a8 8 0 0 1 11.3 0Z"></path></svg>