<svg xmlns="http://www.w3.org/2000/svg" xmlns:xlink="http://www.w3.org/1999/xlink" aria-hidden="true" role="img" class="iconify iconify--ph" width="1em" height="1em" preserveAspectRatio="xMidYMid meet" viewBox="0 0 256 256" data-icon="ph:archive-box-thin"><path fill="currentColor" d="m219.6 70.2l-16-32A4.2 4.2 0 0 0 200 36H56a4.2 4.2 0 0 0-3.6 2.2l-16 32A3.9 3.9 0 0 0 36 72v136a12 12 0 0 0 12 12h160a12 12 0 0 0 12-12V72a3.9 3.9 0 0 0-.4-1.8ZM58.5 44h139l12 24h-163ZM208 212H48a4 4 0 0 1-4-4V76h168v132a4 4 0 0 1-4 4Zm-43.2-64.8a4.2 4.2 0 0 1 0 5.7l-34 33.9a3.9 3.9 0 0 1-5.6 0l-34-33.9a4 4 0 0 1 5.7-5.7l27.1 27.1V104a4 4 0 0 1 8 0v70.3l27.1-27.1a4.2 4.2 0 0 1 5.7 0Z"></path></svg>