<svg xmlns="http://www.w3.org/2000/svg" xmlns:xlink="http://www.w3.org/1999/xlink" aria-hidden="true" role="img" class="iconify iconify--ph" width="1em" height="1em" preserveAspectRatio="xMidYMid meet" viewBox="0 0 256 256" data-icon="ph:archive-tray"><path fill="currentColor" d="M208 32H48a16 16 0 0 0-16 16v160a16 16 0 0 0 16 16h160a16 16 0 0 0 16-16V48a16 16 0 0 0-16-16Zm0 16v104h-28.7a15.9 15.9 0 0 0-11.3 4.7L148.7 176h-41.4L88 156.7a15.9 15.9 0 0 0-11.3-4.7H48V48Zm0 160H48v-40h28.7L96 187.3a15.9 15.9 0 0 0 11.3 4.7h41.4a15.9 15.9 0 0 0 11.3-4.7l19.3-19.3H208v40ZM88.4 123.7a8 8 0 0 1 11.3-11.3l20.3 20.3V72a8 8 0 0 1 16 0v60.7l20.3-20.3a8 8 0 0 1 11.3 11.3l-33.9 34h-.2l-.4.4h-.2l-.5.3c0 .1-.1.1-.1.2l-.5.3h-.2l-.5.3h-.1l-.7.3h-4.6l-.7-.3h-.1l-.5-.3h-.2l-.5-.3c0-.1-.1-.1-.1-.2l-.5-.3h-.2l-.4-.4h-.2Z"></path></svg>