<svg xmlns="http://www.w3.org/2000/svg" xmlns:xlink="http://www.w3.org/1999/xlink" aria-hidden="true" role="img" class="iconify iconify--ph" width="1em" height="1em" preserveAspectRatio="xMidYMid meet" viewBox="0 0 256 256"><path fill="currentColor" d="M208 34H48a14 14 0 0 0-14 14v160a14 14 0 0 0 14 14h160a14 14 0 0 0 14-14V48a14 14 0 0 0-14-14ZM48 46h160a2 2 0 0 1 2 2v106h-30.7a14.3 14.3 0 0 0-9.9 4.1l-19.3 19.3a2 2 0 0 1-1.4.6h-41.4a2 2 0 0 1-1.4-.6l-19.3-19.3a14.3 14.3 0 0 0-9.9-4.1H46V48a2 2 0 0 1 2-2Zm160 164H48a2 2 0 0 1-2-2v-42h30.7a2 2 0 0 1 1.4.6l19.3 19.3a14.3 14.3 0 0 0 9.9 4.1h41.4a14.3 14.3 0 0 0 9.9-4.1l19.3-19.3a2 2 0 0 1 1.4-.6H210v42a2 2 0 0 1-2 2ZM89.8 122.3a6 6 0 0 1 8.5-8.5l23.7 23.7V72a6 6 0 0 1 12 0v65.5l23.7-23.7a6 6 0 0 1 8.5 8.5l-34 33.9a.8.8 0 0 1-.4.4h-.1l-.4.3h-.1l-.4.2h-.1l-.4.2h-4.6l-.4-.2h-.1l-.4-.2h-.1l-.4-.3h-.1a.8.8 0 0 1-.4-.4Z"></path></svg>