<svg xmlns="http://www.w3.org/2000/svg" xmlns:xlink="http://www.w3.org/1999/xlink" aria-hidden="true" role="img" class="iconify iconify--ph" width="1em" height="1em" preserveAspectRatio="xMidYMid meet" viewBox="0 0 256 256" data-icon="ph:archive-box-bold"><path fill="currentColor" d="m227 71.1l-16-36a12.2 12.2 0 0 0-11-7.1H56a12.2 12.2 0 0 0-11 7.1l-16 36a13.8 13.8 0 0 0-1 4.9v132a20.1 20.1 0 0 0 20 20h160a20.1 20.1 0 0 0 20-20V76a13.8 13.8 0 0 0-1-4.9ZM192.2 52l5.3 12h-139l5.3-12ZM52 204V88h152v116Zm112.8-60.8a12 12 0 0 1 0 17l-28.3 28.3a12.1 12.1 0 0 1-17 0l-28.3-28.3a12 12 0 0 1 17-17l7.8 7.8v-39a12 12 0 0 1 24 0v39l7.8-7.8a12 12 0 0 1 17 0Z"></path></svg>