<svg xmlns="http://www.w3.org/2000/svg" xmlns:xlink="http://www.w3.org/1999/xlink" aria-hidden="true" role="img" class="iconify iconify--ph" width="1em" height="1em" preserveAspectRatio="xMidYMid meet" viewBox="0 0 256 256"><path fill="currentColor" d="M212 92.2V72a36 36 0 0 0-36-36H80a36 36 0 0 0-36 36v20.2a36 36 0 0 0 0 71.6V200a12 12 0 0 0 12 12h144a12 12 0 0 0 12-12v-36.2a36 36 0 0 0 0-71.6ZM80 44h96a28.1 28.1 0 0 1 28 28v20.2a36.1 36.1 0 0 0-32 35.8v4H84v-4a36.1 36.1 0 0 0-32-35.8V72a28.1 28.1 0 0 1 28-28Zm128.3 112h-.3a4 4 0 0 0-4 4v40a4 4 0 0 1-4 4H56a4 4 0 0 1-4-4v-40a4 4 0 0 0-4-4h-.3A28 28 0 1 1 76 128v40a4 4 0 0 0 8 0v-28h88v28a4 4 0 0 0 8 0v-40a28 28 0 1 1 28.3 28Z"></path></svg>