<svg xmlns="http://www.w3.org/2000/svg" xmlns:xlink="http://www.w3.org/1999/xlink" aria-hidden="true" role="img" class="iconify iconify--ph" width="1em" height="1em" preserveAspectRatio="xMidYMid meet" viewBox="0 0 256 256"><path fill="currentColor" d="M220 78.5V72a44 44 0 0 0-44-44H80a44 44 0 0 0-44 44v6.5a52 52 0 0 0 0 99V200a20.1 20.1 0 0 0 20 20h144a20.1 20.1 0 0 0 20-20v-22.5a52 52 0 0 0 0-99ZM80 52h96a20.1 20.1 0 0 1 20 20v4.6a52.1 52.1 0 0 0-43.8 47.4h-48.4A52.1 52.1 0 0 0 60 76.6V72a20.1 20.1 0 0 1 20-20Zm126.8 103.9a11.9 11.9 0 0 0-10.8 11.9V196H60v-28.2a11.9 11.9 0 0 0-10.8-11.9A28 28 0 1 1 80 128v36a12 12 0 0 0 24 0v-16h48v16a12 12 0 0 0 24 0v-36a28 28 0 1 1 30.8 27.9Z"></path></svg>