<svg xmlns="http://www.w3.org/2000/svg" xmlns:xlink="http://www.w3.org/1999/xlink" aria-hidden="true" role="img" class="iconify iconify--ph" width="1em" height="1em" preserveAspectRatio="xMidYMid meet" viewBox="0 0 256 256"><path fill="currentColor" d="M214 90.5V72a38 38 0 0 0-38-38H80a38 38 0 0 0-38 38v18.5a38 38 0 0 0 0 75V200a14 14 0 0 0 14 14h144a14 14 0 0 0 14-14v-34.5a38 38 0 0 0 0-75ZM80 46h96a26.1 26.1 0 0 1 26 26v18.5a38.1 38.1 0 0 0-32 37.5v2H86v-2a38.1 38.1 0 0 0-32-37.5V72a26.1 26.1 0 0 1 26-26Zm128.3 108h-.3a6 6 0 0 0-6 6v40a2 2 0 0 1-2 2H56a2 2 0 0 1-2-2v-40a6 6 0 0 0-6-6h-.3A26 26 0 1 1 74 128v40a6 6 0 0 0 12 0v-26h84v26a6 6 0 0 0 12 0v-40a26 26 0 1 1 26.3 26Z"></path></svg>