<svg xmlns="http://www.w3.org/2000/svg" xmlns:xlink="http://www.w3.org/1999/xlink" aria-hidden="true" role="img" class="iconify iconify--ph" width="1em" height="1em" preserveAspectRatio="xMidYMid meet" viewBox="0 0 256 256"><path fill="currentColor" d="M216 88.8V72a40 40 0 0 0-40-40H80a40 40 0 0 0-40 40v16.8a40 40 0 0 0 0 78.4V200a16 16 0 0 0 16 16h144a16 16 0 0 0 16-16v-32.8a40 40 0 0 0 0-78.4ZM80 48h96a24.1 24.1 0 0 1 24 24v16.8a40.1 40.1 0 0 0-32 39.2H88a40.1 40.1 0 0 0-32-39.2V72a24.1 24.1 0 0 1 24-24Zm128.4 104h-.4a8 8 0 0 0-8 8v40H56v-40a7.9 7.9 0 0 0-8-7.9h-.4A24 24 0 1 1 72 128v40a8 8 0 0 0 16 0v-24h80v24a8 8 0 0 0 16 0v-40a24 24 0 1 1 24.4 24Z"></path></svg>