<svg xmlns="http://www.w3.org/2000/svg" xmlns:xlink="http://www.w3.org/1999/xlink" aria-hidden="true" role="img" class="iconify iconify--ph" width="1em" height="1em" preserveAspectRatio="xMidYMid meet" viewBox="0 0 256 256"><path fill="currentColor" d="M116 144v60a4 4 0 0 1-8 0v-50.3l-65.2 65.2A4.3 4.3 0 0 1 40 220a4.4 4.4 0 0 1-2.9-1.1a4.2 4.2 0 0 1 0-5.7l65.2-65.2H52a4 4 0 0 1 0-8h60a4 4 0 0 1 4 4Zm92-108H72a12 12 0 0 0-12 12v48a4 4 0 0 0 8 0V48a4 4 0 0 1 4-4h136a4 4 0 0 1 4 4v136a4 4 0 0 1-4 4h-48a4 4 0 0 0 0 8h48a12 12 0 0 0 12-12V48a12 12 0 0 0-12-12Z"></path></svg>