<svg xmlns="http://www.w3.org/2000/svg" xmlns:xlink="http://www.w3.org/1999/xlink" aria-hidden="true" role="img" class="iconify iconify--ph" width="1em" height="1em" preserveAspectRatio="xMidYMid meet" viewBox="0 0 256 256"><path fill="currentColor" d="M208 68h-76V32a12 12 0 0 0-7.4-11.1a12.2 12.2 0 0 0-13.1 2.6l-96 96a12 12 0 0 0 0 17l96 96a12 12 0 0 0 8.5 3.5a12.5 12.5 0 0 0 4.6-.9A12 12 0 0 0 132 224v-36h76a20.1 20.1 0 0 0 20-20V88a20.1 20.1 0 0 0-20-20Zm-4 96h-84a12 12 0 0 0-12 12v19l-67-67l67-67v19a12 12 0 0 0 12 12h84Z"></path></svg>