<svg xmlns="http://www.w3.org/2000/svg" xmlns:xlink="http://www.w3.org/1999/xlink" aria-hidden="true" role="img" class="iconify iconify--ph" width="1em" height="1em" preserveAspectRatio="xMidYMid meet" viewBox="0 0 256 256"><path fill="currentColor" d="M228.2 51.7v48a4 4 0 0 1-4 4h-48a4 4 0 0 1 0-8h38.3l-27.1-27.1a84.2 84.2 0 0 0-118.8 0a4 4 0 0 1-5.7 0a4.2 4.2 0 0 1 0-5.7a92.2 92.2 0 0 1 130.2 0l27.1 27.2V51.7a4 4 0 1 1 8 0Zm-40.8 135.7a84.2 84.2 0 0 1-118.8 0l-27.1-27.1h38.3a4 4 0 1 0 0-8h-48a4 4 0 0 0-4 4v48a4 4 0 1 0 8 0v-38.4l27.1 27.2a92.2 92.2 0 0 0 130.2 0a4.2 4.2 0 0 0 0-5.7a4 4 0 0 0-5.7 0Z"></path></svg>