<svg xmlns="http://www.w3.org/2000/svg" xmlns:xlink="http://www.w3.org/1999/xlink" aria-hidden="true" role="img" class="iconify iconify--ph" width="1em" height="1em" preserveAspectRatio="xMidYMid meet" viewBox="0 0 256 256"><path fill="currentColor" d="m226.8 106.8l-48 48a3.9 3.9 0 0 1-5.6 0a3.9 3.9 0 0 1 0-5.6l45.1-45.2l-45.1-45.2a4 4 0 0 1 5.6-5.6l48 48a3.9 3.9 0 0 1 0 5.6Zm-48-5.6l-48-48a4 4 0 1 0-5.6 5.6l41.1 41.2H128A100.2 100.2 0 0 0 28 200a4 4 0 0 0 8 0a92.1 92.1 0 0 1 92-92h38.3l-41.1 41.2a3.9 3.9 0 0 0 0 5.6a3.9 3.9 0 0 0 5.6 0l48-48a3.9 3.9 0 0 0 0-5.6Z"></path></svg>