<svg xmlns="http://www.w3.org/2000/svg" xmlns:xlink="http://www.w3.org/1999/xlink" aria-hidden="true" role="img" class="iconify iconify--ph" width="1em" height="1em" preserveAspectRatio="xMidYMid meet" viewBox="0 0 256 256"><path fill="currentColor" d="M213.7 53.7L171.3 96H200a8 8 0 0 1 0 16h-48a8 8 0 0 1-8-8V56a8 8 0 0 1 16 0v28.7l42.3-42.4a8.1 8.1 0 0 1 11.4 11.4ZM104 144H56a8 8 0 0 0 0 16h28.7l-42.4 42.3a8.1 8.1 0 0 0 0 11.4a8.2 8.2 0 0 0 11.4 0L96 171.3V200a8 8 0 0 0 16 0v-48a8 8 0 0 0-8-8Z"></path></svg>