<svg xmlns="http://www.w3.org/2000/svg" xmlns:xlink="http://www.w3.org/1999/xlink" aria-hidden="true" role="img" class="iconify iconify--ph" width="1em" height="1em" preserveAspectRatio="xMidYMid meet" viewBox="0 0 256 256"><path fill="currentColor" d="M224 128a8 8 0 0 1-8 8H40a8 8 0 0 1 0-16h176a8 8 0 0 1 8 8Zm-101.7-26.3a8.2 8.2 0 0 0 11.4 0l32-32a8.1 8.1 0 0 0-11.4-11.4L136 76.7V16a8 8 0 0 0-16 0v60.7l-18.3-18.4a8.1 8.1 0 0 0-11.4 11.4Zm11.4 52.6a8.1 8.1 0 0 0-11.4 0l-32 32a8.1 8.1 0 0 0 11.4 11.4l18.3-18.4V240a8 8 0 0 0 16 0v-60.7l18.3 18.4a8.2 8.2 0 0 0 11.4 0a8.1 8.1 0 0 0 0-11.4Z"></path></svg>