<svg xmlns="http://www.w3.org/2000/svg" xmlns:xlink="http://www.w3.org/1999/xlink" aria-hidden="true" role="img" class="iconify iconify--ph" width="1em" height="1em" preserveAspectRatio="xMidYMid meet" viewBox="0 0 256 256"><path fill="currentColor" d="M144 104V64a8 8 0 0 1 4.9-7.4a8.4 8.4 0 0 1 8.8 1.7L172 72.7l30.3-30.4a8.1 8.1 0 0 1 11.4 11.4L183.3 84l14.4 14.3a8.4 8.4 0 0 1 1.7 8.8a8 8 0 0 1-7.4 4.9h-40a8 8 0 0 1-8-8Zm-40 40H64a8 8 0 0 0-7.4 4.9a8.4 8.4 0 0 0 1.7 8.8L72.7 172l-30.4 30.3a8.1 8.1 0 0 0 0 11.4a8.2 8.2 0 0 0 11.4 0L84 183.3l14.3 14.4a8.3 8.3 0 0 0 5.7 2.3a8.5 8.5 0 0 0 3.1-.6a8 8 0 0 0 4.9-7.4v-40a8 8 0 0 0-8-8Zm79.3 28l14.4-14.3a8.4 8.4 0 0 0 1.7-8.8a8 8 0 0 0-7.4-4.9h-40a8 8 0 0 0-8 8v40a8 8 0 0 0 4.9 7.4a8.5 8.5 0 0 0 3.1.6a8.3 8.3 0 0 0 5.7-2.3l14.3-14.4l30.3 30.4a8.2 8.2 0 0 0 11.4 0a8.1 8.1 0 0 0 0-11.4ZM107.1 56.6a8.4 8.4 0 0 0-8.8 1.7L84 72.7L53.7 42.3a8.1 8.1 0 0 0-11.4 11.4L72.7 84L58.3 98.3a8.4 8.4 0 0 0-1.7 8.8A8 8 0 0 0 64 112h40a8 8 0 0 0 8-8V64a8 8 0 0 0-4.9-7.4Z"></path></svg>