<svg xmlns="http://www.w3.org/2000/svg" xmlns:xlink="http://www.w3.org/1999/xlink" aria-hidden="true" role="img" class="iconify iconify--ph" width="1em" height="1em" preserveAspectRatio="xMidYMid meet" viewBox="0 0 256 256"><path fill="currentColor" d="m120 32l-96 96l96 96v-48h32V80h-32V32z" opacity=".2"></path><path fill="currentColor" d="M152 72h-24V32a8 8 0 0 0-4.9-7.4a8.4 8.4 0 0 0-8.8 1.7l-96 96a8.1 8.1 0 0 0 0 11.4l96 96a8.3 8.3 0 0 0 5.7 2.3a8.5 8.5 0 0 0 3.1-.6a8 8 0 0 0 4.9-7.4v-40h24a8 8 0 0 0 8-8V80a8 8 0 0 0-8-8Zm-8 96h-24a8 8 0 0 0-8 8v28.7L35.3 128L112 51.3V80a8 8 0 0 0 8 8h24Zm80-88v96a8 8 0 0 1-16 0V80a8 8 0 0 1 16 0Zm-32 0v96a8 8 0 0 1-16 0V80a8 8 0 0 1 16 0Z"></path></svg>