<svg xmlns="http://www.w3.org/2000/svg" xmlns:xlink="http://www.w3.org/1999/xlink" aria-hidden="true" role="img" class="iconify iconify--ph" width="1em" height="1em" preserveAspectRatio="xMidYMid meet" viewBox="0 0 256 256"><path fill="currentColor" d="M116.2 171.8a5.8 5.8 0 0 1 0 8.4l-32 32a5.8 5.8 0 0 1-8.4 0l-32-32a5.9 5.9 0 0 1 8.4-8.4L74 193.5V48a6 6 0 0 1 12 0v145.5l21.8-21.7a5.8 5.8 0 0 1 8.4 0Zm96-96l-32-32a5.8 5.8 0 0 0-8.4 0l-32 32a5.9 5.9 0 0 0 8.4 8.4L170 62.5V208a6 6 0 0 0 12 0V62.5l21.8 21.7a5.9 5.9 0 1 0 8.4-8.4Z"></path></svg>