<svg xmlns="http://www.w3.org/2000/svg" xmlns:xlink="http://www.w3.org/1999/xlink" aria-hidden="true" role="img" class="iconify iconify--ph" width="1em" height="1em" preserveAspectRatio="xMidYMid meet" viewBox="0 0 256 256"><path fill="currentColor" d="M128 26a102 102 0 1 0 102 102A102.2 102.2 0 0 0 128 26Zm0 192a90 90 0 1 1 90-90a90.1 90.1 0 0 1-90 90Zm46-90a6 6 0 0 1-6 6h-65.5l23.7 23.7a6.1 6.1 0 0 1 0 8.5a5.9 5.9 0 0 1-4.3 1.7a5.8 5.8 0 0 1-4.2-1.7l-33.9-34a5.8 5.8 0 0 1 0-8.4l33.9-34a6 6 0 0 1 8.5 8.5L102.5 122H168a6 6 0 0 1 6 6Z"></path></svg>