<svg xmlns="http://www.w3.org/2000/svg" xmlns:xlink="http://www.w3.org/1999/xlink" aria-hidden="true" role="img" class="iconify iconify--ph" width="1em" height="1em" preserveAspectRatio="xMidYMid meet" viewBox="0 0 256 256"><path fill="currentColor" d="M208 28H48a20.1 20.1 0 0 0-20 20v160a20.1 20.1 0 0 0 20 20h160a20.1 20.1 0 0 0 20-20V48a20.1 20.1 0 0 0-20-20Zm-4 176H52V52h152ZM76 128a12 12 0 0 1 12-12h51l-13.4-13.5a12 12 0 0 1 16.9-16.9l34 33.9a12 12 0 0 1 0 17l-34 33.9a12 12 0 0 1-16.9 0a11.9 11.9 0 0 1 0-16.9L139 140H88a12 12 0 0 1-12-12Z"></path></svg>