<svg xmlns="http://www.w3.org/2000/svg" xmlns:xlink="http://www.w3.org/1999/xlink" aria-hidden="true" role="img" class="iconify iconify--ph" width="1em" height="1em" preserveAspectRatio="xMidYMid meet" viewBox="0 0 256 256"><path fill="currentColor" d="M208 36H48a12 12 0 0 0-12 12v160a12 12 0 0 0 12 12h160a12 12 0 0 0 12-12V48a12 12 0 0 0-12-12Zm4 172a4 4 0 0 1-4 4H48a4 4 0 0 1-4-4V48a4 4 0 0 1 4-4h160a4 4 0 0 1 4 4Zm-53.2-54.8a3.9 3.9 0 0 1 0 5.6a3.9 3.9 0 0 1-5.6 0L104 109.7V148a4 4 0 0 1-8 0v-48a4 4 0 0 1 4-4h48a4 4 0 0 1 0 8h-38.3Z"></path></svg>