<svg xmlns="http://www.w3.org/2000/svg" xmlns:xlink="http://www.w3.org/1999/xlink" aria-hidden="true" role="img" class="iconify iconify--ph" width="1em" height="1em" preserveAspectRatio="xMidYMid meet" viewBox="0 0 256 256"><path fill="currentColor" d="M224 100a8 8 0 0 1-4.9 7.4a8.5 8.5 0 0 1-3.1.6a8.3 8.3 0 0 1-5.7-2.3L186 81.3l-36.4 36.4a8 8 0 0 1-5.6 2.3a8.3 8.3 0 0 1-5.7-2.3a8 8 0 0 1 0-11.3L174.7 70l-24.4-24.3a8.4 8.4 0 0 1-1.7-8.8A8 8 0 0 1 156 32h60a8 8 0 0 1 8 8Zm-40 36a8 8 0 0 0-8 8v64H48V80h64a8 8 0 0 0 0-16H48a16 16 0 0 0-16 16v128a16 16 0 0 0 16 16h128a16 16 0 0 0 16-16v-64a8 8 0 0 0-8-8Z"></path></svg>