<svg xmlns="http://www.w3.org/2000/svg" xmlns:xlink="http://www.w3.org/1999/xlink" aria-hidden="true" role="img" class="iconify iconify--ph" width="1em" height="1em" preserveAspectRatio="xMidYMid meet" viewBox="0 0 256 256"><path fill="currentColor" d="M128 24a104 104 0 1 0 104 104A104.2 104.2 0 0 0 128 24Zm39.6 103.6a7.8 7.8 0 0 1-5.7 2.3a7.6 7.6 0 0 1-5.6-2.3L136 107.3V168a8 8 0 0 1-16 0v-60.7l-20.3 20.3a8 8 0 0 1-11.3-11.3l33.9-33.9a8.7 8.7 0 0 1 2.6-1.8a8.3 8.3 0 0 1 6.2 0a8.7 8.7 0 0 1 2.6 1.8l33.9 33.9a8 8 0 0 1 0 11.3Z"></path></svg>