<svg xmlns="http://www.w3.org/2000/svg" xmlns:xlink="http://www.w3.org/1999/xlink" aria-hidden="true" role="img" class="iconify iconify--ph" width="1em" height="1em" preserveAspectRatio="xMidYMid meet" viewBox="0 0 256 256"><path fill="currentColor" d="M224 208V48a16 16 0 0 0-16-16H48a16 16 0 0 0-16 16v160a16 16 0 0 0 16 16h160a16 16 0 0 0 16-16Zm-107.7-40.4l-33.9-33.9a8 8 0 0 1-1.8-2.7a7.7 7.7 0 0 1-.6-3a8.5 8.5 0 0 1 .6-3.1a8.7 8.7 0 0 1 1.8-2.6l33.9-33.9a8 8 0 0 1 11.3 11.3L107.3 120H168a8 8 0 0 1 0 16h-60.7l20.3 20.3a8 8 0 0 1-11.3 11.3Z"></path></svg>