<svg xmlns="http://www.w3.org/2000/svg" xmlns:xlink="http://www.w3.org/1999/xlink" aria-hidden="true" role="img" class="iconify iconify--ph" width="1em" height="1em" preserveAspectRatio="xMidYMid meet" viewBox="0 0 256 256"><path fill="currentColor" d="M128 28a100 100 0 1 0 100 100A100.2 100.2 0 0 0 128 28Zm0 192a92 92 0 1 1 92-92a92.1 92.1 0 0 1-92 92Zm30.8-122.8a3.9 3.9 0 0 1 0 5.6L109.7 152H148a4 4 0 0 1 0 8h-48a4 4 0 0 1-4-4v-48a4 4 0 0 1 8 0v38.3l49.2-49.1a3.9 3.9 0 0 1 5.6 0Z"></path></svg>