<svg xmlns="http://www.w3.org/2000/svg" xmlns:xlink="http://www.w3.org/1999/xlink" aria-hidden="true" role="img" class="iconify iconify--ph" width="1em" height="1em" preserveAspectRatio="xMidYMid meet" viewBox="0 0 256 256"><path fill="currentColor" d="M192 80v96a8 8 0 0 1-16 0V80a8 8 0 0 1 16 0Zm-40-8h-24V32a8 8 0 0 0-4.9-7.4a8.4 8.4 0 0 0-8.8 1.7l-96 96a8.1 8.1 0 0 0 0 11.4l96 96a8.4 8.4 0 0 0 8.8 1.7a8 8 0 0 0 4.9-7.4v-40h24a8 8 0 0 0 8-8V80a8 8 0 0 0-8-8Zm64 0a8 8 0 0 0-8 8v96a8 8 0 0 0 16 0V80a8 8 0 0 0-8-8Z"></path></svg>