<svg xmlns="http://www.w3.org/2000/svg" xmlns:xlink="http://www.w3.org/1999/xlink" aria-hidden="true" role="img" class="iconify iconify--ph" width="1em" height="1em" preserveAspectRatio="xMidYMid meet" viewBox="0 0 256 256"><path fill="currentColor" d="M220 128a4 4 0 0 1-4 4H40a4 4 0 0 1 0-8h176a4 4 0 0 1 4 4Zm-94.8-29.2a3.9 3.9 0 0 0 5.6 0l32-32a4 4 0 1 0-5.6-5.6L132 86.3V16a4 4 0 0 0-8 0v70.3L98.8 61.2a4 4 0 0 0-5.6 5.6Zm5.6 58.4a3.9 3.9 0 0 0-5.6 0l-32 32a4 4 0 0 0 5.6 5.6l25.2-25.1V240a4 4 0 0 0 8 0v-70.3l25.2 25.1a3.9 3.9 0 0 0 5.6 0a3.9 3.9 0 0 0 0-5.6Z"></path></svg>