<svg xmlns="http://www.w3.org/2000/svg" xmlns:xlink="http://www.w3.org/1999/xlink" aria-hidden="true" role="img" class="iconify iconify--ph" width="1em" height="1em" preserveAspectRatio="xMidYMid meet" viewBox="0 0 256 256"><path fill="currentColor" d="M232 128a8 8 0 0 1-8 8h-72v64a8 8 0 0 1-4.9 7.4a8.5 8.5 0 0 1-3.1.6a8.3 8.3 0 0 1-5.7-2.3l-72-72a8.1 8.1 0 0 1 0-11.4l72-72a8.4 8.4 0 0 1 8.8-1.7A8 8 0 0 1 152 56v64h72a8 8 0 0 1 8 8ZM40 32a8 8 0 0 0-8 8v176a8 8 0 0 0 16 0V40a8 8 0 0 0-8-8Z"></path></svg>