<svg xmlns="http://www.w3.org/2000/svg" xmlns:xlink="http://www.w3.org/1999/xlink" aria-hidden="true" role="img" class="iconify iconify--ph" width="1em" height="1em" preserveAspectRatio="xMidYMid meet" viewBox="0 0 256 256"><path fill="currentColor" d="m228.2 115.8l-96-96a5.8 5.8 0 0 0-8.4 0l-96 96a5.7 5.7 0 0 0-1.3 6.5A6 6 0 0 0 32 126h42v26a6 6 0 0 0 6 6h96a6 6 0 0 0 6-6v-26h42a6 6 0 0 0 5.5-3.7a5.7 5.7 0 0 0-1.3-6.5ZM176 114a6 6 0 0 0-6 6v26H86v-26a6 6 0 0 0-6-6H46.5L128 32.5l81.5 81.5Zm6 102a6 6 0 0 1-6 6H80a6 6 0 0 1 0-12h96a6 6 0 0 1 6 6Zm0-32a6 6 0 0 1-6 6H80a6 6 0 0 1 0-12h96a6 6 0 0 1 6 6Z"></path></svg>