<svg xmlns="http://www.w3.org/2000/svg" xmlns:xlink="http://www.w3.org/1999/xlink" aria-hidden="true" role="img" class="iconify iconify--ph" width="1em" height="1em" preserveAspectRatio="xMidYMid meet" viewBox="0 0 256 256"><path fill="currentColor" d="m32 136l96 96l96-96h-48v-32H80v32H32z" opacity=".2"></path><path fill="currentColor" d="M231.4 132.9a8 8 0 0 0-7.4-4.9h-40v-24a8 8 0 0 0-8-8H80a8 8 0 0 0-8 8v24H32a8 8 0 0 0-7.4 4.9a8.4 8.4 0 0 0 1.7 8.8l96 96a8.2 8.2 0 0 0 11.4 0l96-96a8.4 8.4 0 0 0 1.7-8.8ZM128 220.7L51.3 144H80a8 8 0 0 0 8-8v-24h80v24a8 8 0 0 0 8 8h28.7ZM72 40a8 8 0 0 1 8-8h96a8 8 0 0 1 0 16H80a8 8 0 0 1-8-8Zm0 32a8 8 0 0 1 8-8h96a8 8 0 0 1 0 16H80a8 8 0 0 1-8-8Z"></path></svg>