<svg xmlns="http://www.w3.org/2000/svg" xmlns:xlink="http://www.w3.org/1999/xlink" aria-hidden="true" role="img" class="iconify iconify--ph" width="1em" height="1em" preserveAspectRatio="xMidYMid meet" viewBox="0 0 256 256"><path fill="currentColor" d="m240.5 119.5l-96-96a12.2 12.2 0 0 0-13.1-2.6A12 12 0 0 0 124 32v36H48a20.1 20.1 0 0 0-20 20v80a20.1 20.1 0 0 0 20 20h76v36a12 12 0 0 0 7.4 11.1a12.5 12.5 0 0 0 4.6.9a12 12 0 0 0 8.5-3.5l96-96a12 12 0 0 0 0-17ZM148 195v-19a12 12 0 0 0-12-12H52V92h84a12 12 0 0 0 12-12V61l67 67Z"></path></svg>