<svg xmlns="http://www.w3.org/2000/svg" xmlns:xlink="http://www.w3.org/1999/xlink" aria-hidden="true" role="img" class="iconify iconify--ph" width="1em" height="1em" preserveAspectRatio="xMidYMid meet" viewBox="0 0 256 256"><path fill="currentColor" d="M208 34H48a14 14 0 0 0-14 14v160a14 14 0 0 0 14 14h160a14 14 0 0 0 14-14V48a14 14 0 0 0-14-14Zm2 174a2 2 0 0 1-2 2H48a2 2 0 0 1-2-2V48a2 2 0 0 1 2-2h160a2 2 0 0 1 2 2Zm-36-80a6 6 0 0 1-6 6h-65.5l23.7 23.7a6.1 6.1 0 0 1 0 8.5a5.9 5.9 0 0 1-4.3 1.7a5.8 5.8 0 0 1-4.2-1.7l-33.9-34a5.8 5.8 0 0 1 0-8.4l33.9-34a6 6 0 0 1 8.5 8.5L102.5 122H168a6 6 0 0 1 6 6Z"></path></svg>