<svg xmlns="http://www.w3.org/2000/svg" xmlns:xlink="http://www.w3.org/1999/xlink" aria-hidden="true" role="img" class="iconify iconify--ph" width="1em" height="1em" preserveAspectRatio="xMidYMid meet" viewBox="0 0 256 256"><path fill="currentColor" d="m232.5 112.5l-48 48a12.1 12.1 0 0 1-17 0a12 12 0 0 1 0-17L207 104l-39.5-39.5a12 12 0 0 1 17-17l48 48a12 12 0 0 1 0 17Zm-56-17l-48-48a12 12 0 0 0-17 17L139 92h-11A108.1 108.1 0 0 0 20 200a12 12 0 0 0 24 0a84.1 84.1 0 0 1 84-84h11l-27.5 27.5a12 12 0 0 0 0 17a12.1 12.1 0 0 0 17 0l48-48a12 12 0 0 0 0-17Z"></path></svg>