<svg xmlns="http://www.w3.org/2000/svg" xmlns:xlink="http://www.w3.org/1999/xlink" aria-hidden="true" role="img" class="iconify iconify--ph" width="1em" height="1em" preserveAspectRatio="xMidYMid meet" viewBox="0 0 256 256"><path fill="currentColor" d="M208 34H48a14 14 0 0 0-14 14v160a14 14 0 0 0 14 14h160a14 14 0 0 0 14-14V48a14 14 0 0 0-14-14Zm2 174a2 2 0 0 1-2 2H48a2 2 0 0 1-2-2V48a2 2 0 0 1 2-2h160a2 2 0 0 1 2 2ZM160.2 95.8a5.8 5.8 0 0 1 0 8.4L114.5 150H148a6 6 0 0 1 0 12h-48a6 6 0 0 1-6-6v-48a6 6 0 0 1 12 0v33.5l45.8-45.7a5.8 5.8 0 0 1 8.4 0Z"></path></svg>