<svg xmlns="http://www.w3.org/2000/svg" xmlns:xlink="http://www.w3.org/1999/xlink" aria-hidden="true" role="img" class="iconify iconify--ph" width="1em" height="1em" preserveAspectRatio="xMidYMid meet" viewBox="0 0 256 256"><path fill="currentColor" d="M189.7 122.3a8.1 8.1 0 0 1 0 11.4l-72 72a8.5 8.5 0 0 1-5.7 2.3a8.3 8.3 0 0 1-5.7-2.3a8.1 8.1 0 0 1 0-11.4l58.4-58.3H32a8 8 0 0 1 0-16h132.7l-58.4-58.3a8.1 8.1 0 0 1 11.4-11.4ZM216 32a8 8 0 0 0-8 8v176a8 8 0 0 0 16 0V40a8 8 0 0 0-8-8Z"></path></svg>