<svg xmlns="http://www.w3.org/2000/svg" xmlns:xlink="http://www.w3.org/1999/xlink" aria-hidden="true" role="img" class="iconify iconify--ph" width="1em" height="1em" preserveAspectRatio="xMidYMid meet" viewBox="0 0 256 256"><path fill="currentColor" d="M120 144v60a8 8 0 0 1-4.9 7.4a8.5 8.5 0 0 1-3.1.6a8.3 8.3 0 0 1-5.7-2.3L82 185.3l-36.4 36.4A8 8 0 0 1 40 224a8.3 8.3 0 0 1-5.7-2.3a8 8 0 0 1 0-11.3L70.7 174l-24.4-24.3a8.4 8.4 0 0 1-1.7-8.8A8 8 0 0 1 52 136h60a8 8 0 0 1 8 8Zm88-112H72a16 16 0 0 0-16 16v48a8 8 0 0 0 16 0V48h136v136h-48a8 8 0 0 0 0 16h48a16 16 0 0 0 16-16V48a16 16 0 0 0-16-16Z"></path></svg>