<svg xmlns="http://www.w3.org/2000/svg" xmlns:xlink="http://www.w3.org/1999/xlink" aria-hidden="true" role="img" class="iconify iconify--ph" width="1em" height="1em" preserveAspectRatio="xMidYMid meet" viewBox="0 0 256 256"><path fill="currentColor" d="M160.5 199.5a5.9 5.9 0 0 1 0 8.5l-28.3 28.2a5.8 5.8 0 0 1-8.4 0L95.5 208a6 6 0 0 1 8.5-8.5l18 18V160a6 6 0 0 1 12 0v57.5l18-18a5.9 5.9 0 0 1 8.5 0ZM104 56.5l18-18V96a6 6 0 0 0 12 0V38.5l18 18a6 6 0 0 0 4.3 1.8a5.8 5.8 0 0 0 4.2-1.8a5.9 5.9 0 0 0 0-8.5l-28.3-28.2a5.8 5.8 0 0 0-8.4 0L95.5 48a6 6 0 0 0 8.5 8.5ZM38.5 134H96a6 6 0 0 0 0-12H38.5l18-18a6 6 0 0 0-8.5-8.5l-28.2 28.3a5.8 5.8 0 0 0 0 8.4L48 160.5a6 6 0 0 0 4.3 1.8a5.8 5.8 0 0 0 4.2-1.8a5.9 5.9 0 0 0 0-8.5Zm197.7-10.2L208 95.5a6 6 0 0 0-8.5 8.5l18 18H160a6 6 0 0 0 0 12h57.5l-18 18a5.9 5.9 0 0 0 0 8.5a5.8 5.8 0 0 0 4.2 1.8a6 6 0 0 0 4.3-1.8l28.2-28.3a5.8 5.8 0 0 0 0-8.4Z"></path></svg>