<svg xmlns="http://www.w3.org/2000/svg" xmlns:xlink="http://www.w3.org/1999/xlink" aria-hidden="true" role="img" class="iconify iconify--ph" width="1em" height="1em" preserveAspectRatio="xMidYMid meet" viewBox="0 0 256 256"><path fill="currentColor" d="M119.4 172.9a8.4 8.4 0 0 1-1.7 8.8l-32 32a8.2 8.2 0 0 1-11.4 0l-32-32a8.4 8.4 0 0 1-1.7-8.8A8 8 0 0 1 48 168h24V48a8 8 0 0 1 16 0v120h24a8 8 0 0 1 7.4 4.9Zm94.3-98.6l-32-32a8.1 8.1 0 0 0-11.4 0l-32 32a8.4 8.4 0 0 0-1.7 8.8A8 8 0 0 0 144 88h24v120a8 8 0 0 0 16 0V88h24a8 8 0 0 0 7.4-4.9a8.4 8.4 0 0 0-1.7-8.8Z"></path></svg>