<svg xmlns="http://www.w3.org/2000/svg" xmlns:xlink="http://www.w3.org/1999/xlink" aria-hidden="true" role="img" class="iconify iconify--ph" width="1em" height="1em" preserveAspectRatio="xMidYMid meet" viewBox="0 0 256 256"><path fill="currentColor" d="M208 32H48a16 16 0 0 0-16 16v160a16 16 0 0 0 16 16h160a16 16 0 0 0 16-16V48a16 16 0 0 0-16-16Zm0 176H48V48h160v160Zm-40.4-79.6a8 8 0 0 1 0 11.3l-33.9 34a8.2 8.2 0 0 1-11.4 0l-33.9-34a8 8 0 0 1 11.3-11.3l20.3 20.3V88a8 8 0 0 1 16 0v60.7l20.3-20.3a8 8 0 0 1 11.3 0Z"></path></svg>