<svg xmlns="http://www.w3.org/2000/svg" xmlns:xlink="http://www.w3.org/1999/xlink" aria-hidden="true" role="img" class="iconify iconify--ph" width="1em" height="1em" preserveAspectRatio="xMidYMid meet" viewBox="0 0 256 256"><path fill="currentColor" d="m228.2 108.2l-48 48a5.9 5.9 0 0 1-8.4-8.4l43.7-43.8l-43.7-43.8a5.9 5.9 0 0 1 8.4-8.4l48 48a5.8 5.8 0 0 1 0 8.4Zm-48-8.4l-48-48a5.9 5.9 0 0 0-8.4 8.4L161.5 98H128A102.2 102.2 0 0 0 26 200a6 6 0 0 0 12 0a90.1 90.1 0 0 1 90-90h33.5l-37.7 37.8a5.9 5.9 0 1 0 8.4 8.4l48-48a5.8 5.8 0 0 0 0-8.4Z"></path></svg>