<svg xmlns="http://www.w3.org/2000/svg" xmlns:xlink="http://www.w3.org/1999/xlink" aria-hidden="true" role="img" class="iconify iconify--ph" width="1em" height="1em" preserveAspectRatio="xMidYMid meet" viewBox="0 0 256 256"><path fill="currentColor" d="M208 32H48a16 16 0 0 0-16 16v160a16 16 0 0 0 16 16h160a16 16 0 0 0 16-16V48a16 16 0 0 0-16-16Zm0 176H48V48h160ZM94.3 161.7a8.1 8.1 0 0 1 0-11.4l42.4-42.3H108a8 8 0 0 1 0-16h48a8 8 0 0 1 8 8v48a8 8 0 0 1-16 0v-28.7l-42.3 42.4a8.2 8.2 0 0 1-11.4 0Z"></path></svg>