<svg xmlns="http://www.w3.org/2000/svg" xmlns:xlink="http://www.w3.org/1999/xlink" aria-hidden="true" role="img" class="iconify iconify--ph" width="1em" height="1em" preserveAspectRatio="xMidYMid meet" viewBox="0 0 256 256"><rect width="176" height="176" x="40" y="40" fill="currentColor" opacity=".2" rx="8" transform="rotate(-90 128 128)"></rect><path fill="currentColor" d="M208 32H48a16 16 0 0 0-16 16v160a16 16 0 0 0 16 16h160a16 16 0 0 0 16-16V48a16 16 0 0 0-16-16Zm0 176H48V48h160Z"></path><path fill="currentColor" d="M100 164h48a8 8 0 0 0 0-16h-28.7l42.4-42.3a8.1 8.1 0 0 0-11.4-11.4L108 136.7V108a8 8 0 0 0-16 0v48a8 8 0 0 0 8 8Z"></path></svg>