<svg xmlns="http://www.w3.org/2000/svg" xmlns:xlink="http://www.w3.org/1999/xlink" aria-hidden="true" role="img" class="iconify iconify--ph" width="1em" height="1em" preserveAspectRatio="xMidYMid meet" viewBox="0 0 256 256"><path fill="currentColor" d="M220 100a4 4 0 0 1-8 0V49.7l-65.2 65.2a4.3 4.3 0 0 1-2.8 1.1a4.4 4.4 0 0 1-2.9-1.1a4.2 4.2 0 0 1 0-5.7L206.3 44H156a4 4 0 0 1 0-8h60a4 4 0 0 1 4 4Zm-36 40a4 4 0 0 0-4 4v64a4 4 0 0 1-4 4H48a4 4 0 0 1-4-4V80a4 4 0 0 1 4-4h64a4 4 0 0 0 0-8H48a12 12 0 0 0-12 12v128a12 12 0 0 0 12 12h128a12 12 0 0 0 12-12v-64a4 4 0 0 0-4-4Z"></path></svg>