<svg xmlns="http://www.w3.org/2000/svg" xmlns:xlink="http://www.w3.org/1999/xlink" aria-hidden="true" role="img" class="iconify iconify--ph" width="1em" height="1em" preserveAspectRatio="xMidYMid meet" viewBox="0 0 256 256"><path fill="currentColor" d="m229.7 109.7l-48 48a8.2 8.2 0 0 1-11.4 0a8.1 8.1 0 0 1 0-11.4l42.4-42.3l-42.4-42.3a8.1 8.1 0 0 1 11.4-11.4l48 48a8.1 8.1 0 0 1 0 11.4Zm-48-11.4l-48-48a8.4 8.4 0 0 0-8.8-1.7A8 8 0 0 0 120 56v40.3A104.1 104.1 0 0 0 24 200a8 8 0 0 0 16 0a88.1 88.1 0 0 1 80-87.6V152a8 8 0 0 0 4.9 7.4a8.5 8.5 0 0 0 3.1.6a8.3 8.3 0 0 0 5.7-2.3l48-48a8.1 8.1 0 0 0 0-11.4Z"></path></svg>