<svg xmlns="http://www.w3.org/2000/svg" xmlns:xlink="http://www.w3.org/1999/xlink" aria-hidden="true" role="img" class="iconify iconify--ph" width="1em" height="1em" preserveAspectRatio="xMidYMid meet" viewBox="0 0 256 256"><path fill="currentColor" d="M212 48v40a4 4 0 0 1-8 0V57.7l-49.2 49.1a3.9 3.9 0 0 1-5.6 0a3.9 3.9 0 0 1 0-5.6L198.3 52H168a4 4 0 0 1 0-8h40a4 4 0 0 1 4 4ZM101.2 149.2L52 198.3V168a4 4 0 0 0-8 0v40a4 4 0 0 0 4 4h40a4 4 0 0 0 0-8H57.7l49.1-49.2a4 4 0 0 0-5.6-5.6ZM208 164a4 4 0 0 0-4 4v30.3l-49.2-49.1a4 4 0 0 0-5.6 5.6l49.1 49.2H168a4 4 0 0 0 0 8h40a4 4 0 0 0 4-4v-40a4 4 0 0 0-4-4ZM57.7 52H88a4 4 0 0 0 0-8H48a4 4 0 0 0-4 4v40a4 4 0 0 0 8 0V57.7l49.2 49.1a3.9 3.9 0 0 0 5.6 0a3.9 3.9 0 0 0 0-5.6Z"></path></svg>