<svg xmlns="http://www.w3.org/2000/svg" xmlns:xlink="http://www.w3.org/1999/xlink" aria-hidden="true" role="img" class="iconify iconify--ph" width="1em" height="1em" preserveAspectRatio="xMidYMid meet" viewBox="0 0 256 256"><path fill="currentColor" d="M161.9 182.6a8 8 0 0 1-5.6 13.7H136V232a8 8 0 0 1-16 0v-35.7H99.7a8 8 0 0 1-5.6-13.7l28.2-28.3a8.1 8.1 0 0 1 11.4 0Zm-39.6-80.9a8.2 8.2 0 0 0 11.4 0l28.2-28.3a8 8 0 0 0-5.6-13.7H136V24a8 8 0 0 0-16 0v35.7H99.7a8 8 0 0 0-5.6 13.7Zm-20.6 20.6L73.4 94.1a8 8 0 0 0-13.7 5.6V120H24a8 8 0 0 0 0 16h35.7v20.3a8.2 8.2 0 0 0 5 7.4a7.7 7.7 0 0 0 3 .6a8 8 0 0 0 5.7-2.4l28.3-28.2a8.1 8.1 0 0 0 0-11.4ZM232 120h-35.7V99.7a8 8 0 0 0-13.7-5.6l-28.3 28.2a8.1 8.1 0 0 0 0 11.4l28.3 28.2a8 8 0 0 0 5.7 2.4a7.7 7.7 0 0 0 3-.6a8.2 8.2 0 0 0 5-7.4V136H232a8 8 0 0 0 0-16Z"></path></svg>