<svg xmlns="http://www.w3.org/2000/svg" xmlns:xlink="http://www.w3.org/1999/xlink" aria-hidden="true" role="img" class="iconify iconify--ph" width="1em" height="1em" preserveAspectRatio="xMidYMid meet" viewBox="0 0 256 256"><path fill="currentColor" d="m136 32l96 96l-96 96v-48H72V80h64V32z" opacity=".2"></path><path fill="currentColor" d="m237.7 122.3l-96-96a8.4 8.4 0 0 0-8.8-1.7A8 8 0 0 0 128 32v40H72a8 8 0 0 0-8 8v96a8 8 0 0 0 8 8h56v40a8 8 0 0 0 4.9 7.4a8.5 8.5 0 0 0 3.1.6a8.3 8.3 0 0 0 5.7-2.3l96-96a8.1 8.1 0 0 0 0-11.4ZM144 204.7V176a8 8 0 0 0-8-8H80V88h56a8 8 0 0 0 8-8V51.3l76.7 76.7ZM48 80v96a8 8 0 0 1-16 0V80a8 8 0 0 1 16 0Z"></path></svg>