<svg xmlns="http://www.w3.org/2000/svg" xmlns:xlink="http://www.w3.org/1999/xlink" aria-hidden="true" role="img" class="iconify iconify--ph" width="1em" height="1em" preserveAspectRatio="xMidYMid meet" viewBox="0 0 256 256"><path fill="currentColor" d="M140 40v176a12 12 0 0 1-24 0V40a12 12 0 0 1 24 0ZM64.5 87.5a12 12 0 0 0-17 17L59 116H12a12 12 0 0 0 0 24h47l-11.5 11.5a12 12 0 0 0 0 17a12.1 12.1 0 0 0 17 0l32-32a12 12 0 0 0 0-17ZM244 116h-47l11.5-11.5a12 12 0 0 0-17-17l-32 32a12 12 0 0 0 0 17l32 32a12.1 12.1 0 0 0 17 0a12 12 0 0 0 0-17L197 140h47a12 12 0 0 0 0-24Z"></path></svg>