<svg xmlns="http://www.w3.org/2000/svg" xmlns:xlink="http://www.w3.org/1999/xlink" aria-hidden="true" role="img" class="iconify iconify--ph" width="1em" height="1em" preserveAspectRatio="xMidYMid meet" viewBox="0 0 256 256"><path fill="currentColor" d="m237.7 101.7l-96 96a8.2 8.2 0 0 1-11.4 0L60 127.3l-30.3 30.4A8.3 8.3 0 0 1 24 160a8.5 8.5 0 0 1-3.1-.6A8 8 0 0 1 16 152V80a8 8 0 0 1 8-8h72a8 8 0 0 1 7.4 4.9a8.4 8.4 0 0 1-1.7 8.8L71.3 116l64.7 64.7l90.3-90.4a8.1 8.1 0 0 1 11.4 11.4Z"></path></svg>