<svg xmlns="http://www.w3.org/2000/svg" xmlns:xlink="http://www.w3.org/1999/xlink" aria-hidden="true" role="img" class="iconify iconify--ph" width="1em" height="1em" preserveAspectRatio="xMidYMid meet" viewBox="0 0 256 256"><path fill="currentColor" d="M216 48v48a8 8 0 0 1-4.9 7.4a8.5 8.5 0 0 1-3.1.6a8.3 8.3 0 0 1-5.7-2.3L184 83.3l-26.3 26.4a8.2 8.2 0 0 1-11.4 0a8.1 8.1 0 0 1 0-11.4L172.7 72l-18.4-18.3a8.4 8.4 0 0 1-1.7-8.8A8 8 0 0 1 160 40h48a8 8 0 0 1 8 8ZM98.3 146.3L72 172.7l-18.3-18.4a8.4 8.4 0 0 0-8.8-1.7A8 8 0 0 0 40 160v48a8 8 0 0 0 8 8h48a8 8 0 0 0 7.4-4.9a8.4 8.4 0 0 0-1.7-8.8L83.3 184l26.4-26.3a8.1 8.1 0 0 0-11.4-11.4Z"></path></svg>