<svg xmlns="http://www.w3.org/2000/svg" xmlns:xlink="http://www.w3.org/1999/xlink" aria-hidden="true" role="img" class="iconify iconify--ph" width="1em" height="1em" preserveAspectRatio="xMidYMid meet" viewBox="0 0 256 256"><path fill="currentColor" d="M224 128a8 8 0 0 1-8 8H40a8 8 0 0 1 0-16h176a8 8 0 0 1 8 8ZM101.7 53.7L120 35.3V96a8 8 0 0 0 16 0V35.3l18.3 18.4a8.2 8.2 0 0 0 11.4 0a8.1 8.1 0 0 0 0-11.4l-32-32a8.1 8.1 0 0 0-11.4 0l-32 32a8.1 8.1 0 0 0 11.4 11.4Zm52.6 148.6L136 220.7V160a8 8 0 0 0-16 0v60.7l-18.3-18.4a8.1 8.1 0 0 0-11.4 11.4l32 32a8.2 8.2 0 0 0 11.4 0l32-32a8.1 8.1 0 0 0-11.4-11.4Z"></path></svg>