<svg xmlns="http://www.w3.org/2000/svg" xmlns:xlink="http://www.w3.org/1999/xlink" aria-hidden="true" role="img" class="iconify iconify--ph" width="1em" height="1em" preserveAspectRatio="xMidYMid meet" viewBox="0 0 256 256"><path fill="currentColor" d="M128 26a102 102 0 1 0 102 102A102.2 102.2 0 0 0 128 26Zm0 192a90 90 0 1 1 90-90a90.1 90.1 0 0 1-90 90Zm38.2-88.2a6.1 6.1 0 0 1 0 8.5l-34 33.9a5.8 5.8 0 0 1-8.4 0l-34-33.9a6 6 0 0 1 8.5-8.5l23.7 23.7V88a6 6 0 0 1 12 0v65.5l23.7-23.7a6.1 6.1 0 0 1 8.5 0Z"></path></svg>