<svg xmlns="http://www.w3.org/2000/svg" xmlns:xlink="http://www.w3.org/1999/xlink" aria-hidden="true" role="img" class="iconify iconify--ph" width="1em" height="1em" preserveAspectRatio="xMidYMid meet" viewBox="0 0 256 256"><path fill="currentColor" d="M48 224h160a16 16 0 0 0 16-16V48a16 16 0 0 0-16-16H48a16 16 0 0 0-16 16v160a16 16 0 0 0 16 16Zm80.4-56.4a8 8 0 0 1 0-11.3l20.3-20.3H88a8 8 0 0 1 0-16h60.7l-20.3-20.3a8 8 0 0 1 11.3-11.3l33.9 33.9a8.7 8.7 0 0 1 1.8 2.6a8.5 8.5 0 0 1 .6 3.1a7.7 7.7 0 0 1-.6 3a8 8 0 0 1-1.8 2.7l-33.9 33.9a8 8 0 0 1-11.3 0Z"></path></svg>