<svg xmlns="http://www.w3.org/2000/svg" xmlns:xlink="http://www.w3.org/1999/xlink" aria-hidden="true" role="img" class="iconify iconify--ph" width="1em" height="1em" preserveAspectRatio="xMidYMid meet" viewBox="0 0 256 256"><path fill="currentColor" d="M159.1 185.5a3.9 3.9 0 0 1 0 5.6a3.9 3.9 0 0 1-2.8 1.2a3.8 3.8 0 0 1-2.8-1.2L132 169.7V232a4 4 0 0 1-8 0v-62.3l-21.5 21.4a4 4 0 1 1-5.6-5.6l28.3-28.3a3.9 3.9 0 0 1 5.6 0Zm-33.9-86.7a3.9 3.9 0 0 0 5.6 0l28.3-28.3a4 4 0 1 0-5.6-5.6L132 86.3V24a4 4 0 0 0-8 0v62.3l-21.5-21.4a4 4 0 0 0-5.6 5.6Zm-26.4 26.4L70.5 96.9a4 4 0 0 0-5.6 5.6L86.3 124H24a4 4 0 0 0 0 8h62.3l-21.4 21.5a3.9 3.9 0 0 0 0 5.6a3.9 3.9 0 0 0 2.8 1.2a3.8 3.8 0 0 0 2.8-1.2l28.3-28.3a3.9 3.9 0 0 0 0-5.6ZM232 124h-62.3l21.4-21.5a4 4 0 1 0-5.6-5.6l-28.3 28.3a3.9 3.9 0 0 0 0 5.6l28.3 28.3a3.8 3.8 0 0 0 2.8 1.2a3.9 3.9 0 0 0 2.8-1.2a3.9 3.9 0 0 0 0-5.6L169.7 132H232a4 4 0 0 0 0-8Z"></path></svg>