<svg xmlns="http://www.w3.org/2000/svg" xmlns:xlink="http://www.w3.org/1999/xlink" aria-hidden="true" role="img" class="iconify iconify--ph" width="1em" height="1em" preserveAspectRatio="xMidYMid meet" viewBox="0 0 256 256"><path fill="currentColor" d="M208 74h-82V32a6 6 0 0 0-3.7-5.5a5.7 5.7 0 0 0-6.5 1.3l-96 96a5.8 5.8 0 0 0 0 8.4l96 96a5.6 5.6 0 0 0 4.2 1.8a4.6 4.6 0 0 0 2.3-.5a6 6 0 0 0 3.7-5.5v-42h82a14 14 0 0 0 14-14V88a14 14 0 0 0-14-14Zm2 94a2 2 0 0 1-2 2h-88a6 6 0 0 0-6 6v33.5L32.5 128L114 46.5V80a6 6 0 0 0 6 6h88a2 2 0 0 1 2 2Z"></path></svg>