<svg xmlns="http://www.w3.org/2000/svg" xmlns:xlink="http://www.w3.org/1999/xlink" aria-hidden="true" role="img" class="iconify iconify--ph" width="1em" height="1em" preserveAspectRatio="xMidYMid meet" viewBox="0 0 256 256"><path fill="currentColor" d="M216 48v40a8 8 0 0 1-4.9 7.4a8.5 8.5 0 0 1-3.1.6a8.3 8.3 0 0 1-5.7-2.3L188 79.3l-30.3 30.4a8.2 8.2 0 0 1-11.4 0a8.1 8.1 0 0 1 0-11.4L176.7 68l-14.4-14.3a8.4 8.4 0 0 1-1.7-8.8A8 8 0 0 1 168 40h40a8 8 0 0 1 8 8ZM98.3 146.3L68 176.7l-14.3-14.4a8.4 8.4 0 0 0-8.8-1.7A8 8 0 0 0 40 168v40a8 8 0 0 0 8 8h40a8 8 0 0 0 7.4-4.9a8.4 8.4 0 0 0-1.7-8.8L79.3 188l30.4-30.3a8.1 8.1 0 0 0-11.4-11.4Zm112.8 14.3a8.4 8.4 0 0 0-8.8 1.7L188 176.7l-30.3-30.4a8.1 8.1 0 0 0-11.4 11.4l30.4 30.3l-14.4 14.3a8.4 8.4 0 0 0-1.7 8.8a8 8 0 0 0 7.4 4.9h40a8 8 0 0 0 8-8v-40a8 8 0 0 0-4.9-7.4ZM79.3 68l14.4-14.3a8.4 8.4 0 0 0 1.7-8.8A8 8 0 0 0 88 40H48a8 8 0 0 0-8 8v40a8 8 0 0 0 4.9 7.4a8.5 8.5 0 0 0 3.1.6a8.3 8.3 0 0 0 5.7-2.3L68 79.3l30.3 30.4a8.2 8.2 0 0 0 11.4 0a8.1 8.1 0 0 0 0-11.4Z"></path></svg>