<svg xmlns="http://www.w3.org/2000/svg" xmlns:xlink="http://www.w3.org/1999/xlink" aria-hidden="true" role="img" class="iconify iconify--ph" width="1em" height="1em" preserveAspectRatio="xMidYMid meet" viewBox="0 0 256 256"><path fill="currentColor" d="M152 76h-28V32a4 4 0 0 0-2.5-3.7a3.8 3.8 0 0 0-4.3.9l-96 96a3.9 3.9 0 0 0 0 5.6l96 96a3.8 3.8 0 0 0 2.8 1.2a4 4 0 0 0 4-4v-44h28a4 4 0 0 0 4-4V80a4 4 0 0 0-4-4Zm-4 96h-28a4 4 0 0 0-4 4v38.3L29.7 128L116 41.7V80a4 4 0 0 0 4 4h28Zm72-92v96a4 4 0 0 1-8 0V80a4 4 0 0 1 8 0Zm-32 0v96a4 4 0 0 1-8 0V80a4 4 0 0 1 8 0Z"></path></svg>