<svg xmlns="http://www.w3.org/2000/svg" xmlns:xlink="http://www.w3.org/1999/xlink" aria-hidden="true" role="img" class="iconify iconify--ph" width="1em" height="1em" preserveAspectRatio="xMidYMid meet" viewBox="0 0 256 256"><path fill="currentColor" d="m213.7 181.7l-32 32a8.3 8.3 0 0 1-5.7 2.3a8.5 8.5 0 0 1-3.1-.6a8 8 0 0 1-4.9-7.4v-24H48a8 8 0 0 1 0-16h120v-24a8 8 0 0 1 4.9-7.4a8.4 8.4 0 0 1 8.8 1.7l32 32a8.1 8.1 0 0 1 0 11.4Zm-139.4-64A8.3 8.3 0 0 0 80 120a8.5 8.5 0 0 0 3.1-.6A8 8 0 0 0 88 112V88h120a8 8 0 0 0 0-16H88V48a8 8 0 0 0-4.9-7.4a8.4 8.4 0 0 0-8.8 1.7l-32 32a8.1 8.1 0 0 0 0 11.4Z"></path></svg>