<svg xmlns="http://www.w3.org/2000/svg" xmlns:xlink="http://www.w3.org/1999/xlink" aria-hidden="true" role="img" class="iconify iconify--ph" width="1em" height="1em" preserveAspectRatio="xMidYMid meet" viewBox="0 0 256 256"><path fill="currentColor" d="M210.8 173.2a3.9 3.9 0 0 1 0 5.6l-32 32a3.9 3.9 0 0 1-5.6 0a3.9 3.9 0 0 1 0-5.6l25.1-25.2H48a4 4 0 0 1 0-8h150.3l-25.1-25.2a4 4 0 0 1 5.6-5.6ZM77.2 114.8a3.9 3.9 0 0 0 5.6 0a3.9 3.9 0 0 0 0-5.6L57.7 84H208a4 4 0 0 0 0-8H57.7l25.1-25.2a4 4 0 0 0-5.6-5.6l-32 32a3.9 3.9 0 0 0 0 5.6Z"></path></svg>