<svg xmlns="http://www.w3.org/2000/svg" xmlns:xlink="http://www.w3.org/1999/xlink" aria-hidden="true" role="img" class="iconify iconify--ph" width="1em" height="1em" preserveAspectRatio="xMidYMid meet" viewBox="0 0 256 256"><path fill="currentColor" d="m32 136l96 96l96-96h-48V48a8 8 0 0 0-8-8H88a8 8 0 0 0-8 8v88Z" opacity=".2"></path><path fill="currentColor" d="M231.4 132.9a8 8 0 0 0-7.4-4.9h-40V48a16 16 0 0 0-16-16H88a16 16 0 0 0-16 16v80H32a8 8 0 0 0-7.4 4.9a8.4 8.4 0 0 0 1.7 8.8l96 96a8.2 8.2 0 0 0 11.4 0l96-96a8.4 8.4 0 0 0 1.7-8.8ZM128 220.7L51.3 144H80a8 8 0 0 0 8-8V48h80v88a8 8 0 0 0 8 8h28.7Z"></path></svg>