<svg xmlns="http://www.w3.org/2000/svg" xmlns:xlink="http://www.w3.org/1999/xlink" aria-hidden="true" role="img" class="iconify iconify--ph" width="1em" height="1em" preserveAspectRatio="xMidYMid meet" viewBox="0 0 256 256"><path fill="currentColor" d="m229.7 114.3l-96-96a8.1 8.1 0 0 0-11.4 0l-96 96a8.4 8.4 0 0 0-1.7 8.8A8 8 0 0 0 32 128h40v56a8 8 0 0 0 8 8h96a8 8 0 0 0 8-8v-56h40a8 8 0 0 0 7.4-4.9a8.4 8.4 0 0 0-1.7-8.8ZM176 112a8 8 0 0 0-8 8v56H88v-56a8 8 0 0 0-8-8H51.3L128 35.3l76.7 76.7Zm8 104a8 8 0 0 1-8 8H80a8 8 0 0 1 0-16h96a8 8 0 0 1 8 8Z"></path></svg>