<svg xmlns="http://www.w3.org/2000/svg" xmlns:xlink="http://www.w3.org/1999/xlink" aria-hidden="true" role="img" class="iconify iconify--ph" width="1em" height="1em" preserveAspectRatio="xMidYMid meet" viewBox="0 0 256 256"><path fill="currentColor" d="M216 48v40a8 8 0 0 1-16 0V67.3l-42.3 42.4a8.2 8.2 0 0 1-11.4 0a8.1 8.1 0 0 1 0-11.4L188.7 56H168a8 8 0 0 1 0-16h40a8 8 0 0 1 8 8ZM98.3 146.3L56 188.7V168a8 8 0 0 0-16 0v40a8 8 0 0 0 8 8h40a8 8 0 0 0 0-16H67.3l42.4-42.3a8.1 8.1 0 0 0-11.4-11.4ZM208 160a8 8 0 0 0-8 8v20.7l-42.3-42.4a8.1 8.1 0 0 0-11.4 11.4l42.4 42.3H168a8 8 0 0 0 0 16h40a8 8 0 0 0 8-8v-40a8 8 0 0 0-8-8ZM67.3 56H88a8 8 0 0 0 0-16H48a8 8 0 0 0-8 8v40a8 8 0 0 0 16 0V67.3l42.3 42.4a8.2 8.2 0 0 0 11.4 0a8.1 8.1 0 0 0 0-11.4Z"></path></svg>