<svg xmlns="http://www.w3.org/2000/svg" xmlns:xlink="http://www.w3.org/1999/xlink" aria-hidden="true" role="img" class="iconify iconify--ph" width="1em" height="1em" preserveAspectRatio="xMidYMid meet" viewBox="0 0 256 256"><path fill="currentColor" d="M161.9 198.1a7.9 7.9 0 0 1 0 11.3l-28.2 28.3a8.2 8.2 0 0 1-11.4 0l-28.2-28.3a8 8 0 0 1 11.3-11.3l14.6 14.6V160a8 8 0 0 1 16 0v52.7l14.6-14.6a7.9 7.9 0 0 1 11.3 0ZM105.4 57.9L120 43.3V96a8 8 0 0 0 16 0V43.3l14.6 14.6a8 8 0 0 0 5.7 2.4a7.7 7.7 0 0 0 5.6-2.4a7.9 7.9 0 0 0 0-11.3l-28.2-28.3a8.2 8.2 0 0 0-11.4 0L94.1 46.6a8 8 0 0 0 11.3 11.3ZM43.3 136H96a8 8 0 0 0 0-16H43.3l14.6-14.6a8 8 0 0 0-11.3-11.3l-28.3 28.2a8.1 8.1 0 0 0 0 11.4l28.3 28.2a8 8 0 0 0 5.7 2.4a7.7 7.7 0 0 0 5.6-2.4a7.9 7.9 0 0 0 0-11.3Zm194.4-13.7l-28.3-28.2a8 8 0 0 0-11.3 11.3l14.6 14.6H160a8 8 0 0 0 0 16h52.7l-14.6 14.6a7.9 7.9 0 0 0 0 11.3a7.7 7.7 0 0 0 5.6 2.4a8 8 0 0 0 5.7-2.4l28.3-28.2a8.1 8.1 0 0 0 0-11.4Z"></path></svg>