<svg xmlns="http://www.w3.org/2000/svg" xmlns:xlink="http://www.w3.org/1999/xlink" aria-hidden="true" role="img" class="iconify iconify--ph" width="1em" height="1em" preserveAspectRatio="xMidYMid meet" viewBox="0 0 256 256"><path fill="currentColor" d="M114.8 173.2a3.9 3.9 0 0 1 0 5.6l-32 32a3.9 3.9 0 0 1-5.6 0l-32-32a4 4 0 0 1 5.6-5.6L76 198.3V48a4 4 0 0 1 8 0v150.3l25.2-25.1a3.9 3.9 0 0 1 5.6 0Zm96-96l-32-32a3.9 3.9 0 0 0-5.6 0l-32 32a4 4 0 0 0 5.6 5.6L172 57.7V208a4 4 0 0 0 8 0V57.7l25.2 25.1a3.9 3.9 0 0 0 5.6 0a3.9 3.9 0 0 0 0-5.6Z"></path></svg>