<svg xmlns="http://www.w3.org/2000/svg" xmlns:xlink="http://www.w3.org/1999/xlink" aria-hidden="true" role="img" class="iconify iconify--ph" width="1em" height="1em" preserveAspectRatio="xMidYMid meet" viewBox="0 0 256 256"><path fill="currentColor" d="M164.8 179.8a12 12 0 0 1 0 17a12.2 12.2 0 0 1-8.5 3.5a12 12 0 0 1-8.5-3.5L140 189v43a12 12 0 0 1-24 0v-43l-7.8 7.8a12 12 0 0 1-17-17l28.3-28.3a12 12 0 0 1 17 0Zm-45.3-75.3a12.1 12.1 0 0 0 17 0l28.3-28.3a12 12 0 0 0-17-17L140 67V24a12 12 0 0 0-24 0v43l-7.8-7.8a12 12 0 0 0-17 17Zm-15 15L76.2 91.2a12 12 0 0 0-17 17L67 116H24a12 12 0 0 0 0 24h43l-7.8 7.8a12 12 0 0 0 0 17a12.2 12.2 0 0 0 8.5 3.5a12 12 0 0 0 8.5-3.5l28.3-28.3a12 12 0 0 0 0-17ZM232 116h-43l7.8-7.8a12 12 0 0 0-17-17l-28.3 28.3a12 12 0 0 0 0 17l28.3 28.3a12 12 0 0 0 8.5 3.5a12.2 12.2 0 0 0 8.5-3.5a12 12 0 0 0 0-17L189 140h43a12 12 0 0 0 0-24Z"></path></svg>