<svg xmlns="http://www.w3.org/2000/svg" xmlns:xlink="http://www.w3.org/1999/xlink" aria-hidden="true" role="img" class="iconify iconify--ph" width="1em" height="1em" preserveAspectRatio="xMidYMid meet" viewBox="0 0 256 256"><rect width="176" height="176" x="40" y="40" fill="currentColor" opacity=".2" rx="8"></rect><path fill="currentColor" d="M208 32H48a16 16 0 0 0-16 16v160a16 16 0 0 0 16 16h160a16 16 0 0 0 16-16V48a16 16 0 0 0-16-16Zm0 176H48V48h160Z"></path><path fill="currentColor" d="m99.7 127.6l20.3-20.3V168a8 8 0 0 0 16 0v-60.7l20.3 20.3a7.6 7.6 0 0 0 5.6 2.3a7.8 7.8 0 0 0 5.7-2.3a8 8 0 0 0 0-11.3l-33.9-34a8.2 8.2 0 0 0-11.4 0l-33.9 34a8 8 0 0 0 11.3 11.3Z"></path></svg>