<svg xmlns="http://www.w3.org/2000/svg" xmlns:xlink="http://www.w3.org/1999/xlink" aria-hidden="true" role="img" class="iconify iconify--ph" width="1em" height="1em" preserveAspectRatio="xMidYMid meet" viewBox="0 0 256 256"><path fill="currentColor" d="M128 20a108 108 0 1 0 108 108A108.1 108.1 0 0 0 128 20Zm0 192a84 84 0 1 1 84-84a84.1 84.1 0 0 1-84 84Zm42.4-98.5a11.9 11.9 0 0 1 0 16.9a12 12 0 0 1-16.9 0L140 117v51a12 12 0 0 1-24 0v-51l-13.5 13.4a12 12 0 0 1-16.9-16.9l33.9-34a12 12 0 0 1 17 0Z"></path></svg>