<svg xmlns="http://www.w3.org/2000/svg" xmlns:xlink="http://www.w3.org/1999/xlink" aria-hidden="true" role="img" class="iconify iconify--ph" width="1em" height="1em" preserveAspectRatio="xMidYMid meet" viewBox="0 0 256 256"><path fill="currentColor" d="m232.5 111.5l-96-96a12 12 0 0 0-17 0l-96 96a12.2 12.2 0 0 0-2.6 13.1A12 12 0 0 0 32 132h36v76a20.1 20.1 0 0 0 20 20h80a20.1 20.1 0 0 0 20-20v-76h36a12 12 0 0 0 11.1-7.4a12.2 12.2 0 0 0-2.6-13.1ZM176 108a12 12 0 0 0-12 12v84H92v-84a12 12 0 0 0-12-12H61l67-67l67 67Z"></path></svg>