<svg xmlns="http://www.w3.org/2000/svg" xmlns:xlink="http://www.w3.org/1999/xlink" aria-hidden="true" role="img" class="iconify iconify--ph" width="1em" height="1em" preserveAspectRatio="xMidYMid meet" viewBox="0 0 256 256"><path fill="currentColor" d="M176 68h-44V32a12 12 0 0 0-7.4-11.1a12.2 12.2 0 0 0-13.1 2.6l-96 96a12 12 0 0 0 0 17l96 96a12 12 0 0 0 8.5 3.5a12.5 12.5 0 0 0 4.6-.9A12 12 0 0 0 132 224v-36h44a12 12 0 0 0 12-12V80a12 12 0 0 0-12-12Zm-12 96h-44a12 12 0 0 0-12 12v19l-67-67l67-67v19a12 12 0 0 0 12 12h44Zm64-84v96a12 12 0 0 1-24 0V80a12 12 0 0 1 24 0Z"></path></svg>