<svg xmlns="http://www.w3.org/2000/svg" xmlns:xlink="http://www.w3.org/1999/xlink" aria-hidden="true" role="img" class="iconify iconify--ph" width="1em" height="1em" preserveAspectRatio="xMidYMid meet" viewBox="0 0 256 256"><path fill="currentColor" d="M222 100a6 6 0 0 1-12 0V54.5l-61.8 61.8a6.2 6.2 0 0 1-8.5 0a6.1 6.1 0 0 1 0-8.5L201.5 46H156a6 6 0 0 1 0-12h60a6 6 0 0 1 6 6Zm-38 38a6 6 0 0 0-6 6v64a2 2 0 0 1-2 2H48a2 2 0 0 1-2-2V80a2 2 0 0 1 2-2h64a6 6 0 0 0 0-12H48a14 14 0 0 0-14 14v128a14 14 0 0 0 14 14h128a14 14 0 0 0 14-14v-64a6 6 0 0 0-6-6Z"></path></svg>