<svg xmlns="http://www.w3.org/2000/svg" xmlns:xlink="http://www.w3.org/1999/xlink" aria-hidden="true" role="img" class="iconify iconify--ph" width="1em" height="1em" preserveAspectRatio="xMidYMid meet" viewBox="0 0 256 256"><path fill="currentColor" d="M84.2 147.8a5.9 5.9 0 1 1-8.4 8.4l-48-48a5.8 5.8 0 0 1 0-8.4l48-48a5.9 5.9 0 0 1 8.4 8.4L40.5 104ZM128 98H94.5l37.7-37.8a5.9 5.9 0 1 0-8.4-8.4l-48 48a5.8 5.8 0 0 0 0 8.4l48 48a5.9 5.9 0 1 0 8.4-8.4L94.5 110H128a90.1 90.1 0 0 1 90 90a6 6 0 0 0 12 0A102.2 102.2 0 0 0 128 98Z"></path></svg>