<svg xmlns="http://www.w3.org/2000/svg" xmlns:xlink="http://www.w3.org/1999/xlink" aria-hidden="true" role="img" class="iconify iconify--ph" width="1em" height="1em" preserveAspectRatio="xMidYMid meet" viewBox="0 0 256 256"><path fill="currentColor" d="M235.1 131.4A12 12 0 0 0 224 124h-36v-8a12 12 0 0 0-12-12H80a12 12 0 0 0-12 12v8H32a12 12 0 0 0-11.1 7.4a12.2 12.2 0 0 0 2.6 13.1l96 96a12.1 12.1 0 0 0 17 0l96-96a12.2 12.2 0 0 0 2.6-13.1ZM128 215l-67-67h19a12 12 0 0 0 12-12v-8h72v8a12 12 0 0 0 12 12h19ZM68 44a12 12 0 0 1 12-12h96a12 12 0 0 1 0 24H80a12 12 0 0 1-12-12Zm0 36a12 12 0 0 1 12-12h96a12 12 0 0 1 0 24H80a12 12 0 0 1-12-12Z"></path></svg>