<svg xmlns="http://www.w3.org/2000/svg" xmlns:xlink="http://www.w3.org/1999/xlink" aria-hidden="true" role="img" class="iconify iconify--ph" width="1em" height="1em" preserveAspectRatio="xMidYMid meet" viewBox="0 0 256 256"><path fill="currentColor" d="M228 128a12 12 0 0 1-12 12H40a12 12 0 0 1 0-24h176a12 12 0 0 1 12 12ZM119.5 96.5a12.1 12.1 0 0 0 17 0l32-32a12 12 0 0 0-17-17L140 59V12a12 12 0 0 0-24 0v47l-11.5-11.5a12 12 0 0 0-17 17Zm17 63a12 12 0 0 0-17 0l-32 32a12 12 0 0 0 17 17L116 197v47a12 12 0 0 0 24 0v-47l11.5 11.5a12.1 12.1 0 0 0 17 0a12 12 0 0 0 0-17Z"></path></svg>