<svg xmlns="http://www.w3.org/2000/svg" xmlns:xlink="http://www.w3.org/1999/xlink" aria-hidden="true" role="img" class="iconify iconify--ph" width="1em" height="1em" preserveAspectRatio="xMidYMid meet" viewBox="0 0 256 256"><path fill="currentColor" d="M120.5 167.5a12 12 0 0 1 0 17l-32 32a12.1 12.1 0 0 1-17 0l-32-32a12 12 0 0 1 17-17L68 179V48a12 12 0 0 1 24 0v131l11.5-11.5a12 12 0 0 1 17 0Zm96-96l-32-32a12 12 0 0 0-17 0l-32 32a12 12 0 0 0 17 17L164 77v131a12 12 0 0 0 24 0V77l11.5 11.5a12.1 12.1 0 0 0 17 0a12 12 0 0 0 0-17Z"></path></svg>