<svg xmlns="http://www.w3.org/2000/svg" xmlns:xlink="http://www.w3.org/1999/xlink" aria-hidden="true" role="img" class="iconify iconify--ph" width="1em" height="1em" preserveAspectRatio="xMidYMid meet" viewBox="0 0 256 256"><path fill="currentColor" d="M128 24a104 104 0 1 0 104 104A104.2 104.2 0 0 0 128 24Zm47.4 107.1a8.7 8.7 0 0 1-1.8 2.6l-33.9 33.9a7.6 7.6 0 0 1-5.6 2.3a7.8 7.8 0 0 1-5.7-2.3a8 8 0 0 1 0-11.3l20.3-20.3H88a8 8 0 0 1 0-16h60.7l-20.3-20.3a8 8 0 0 1 11.3-11.3l33.9 33.9a8.7 8.7 0 0 1 1.8 2.6a8.3 8.3 0 0 1 0 6.2Z"></path></svg>