<svg xmlns="http://www.w3.org/2000/svg" xmlns:xlink="http://www.w3.org/1999/xlink" aria-hidden="true" role="img" class="iconify iconify--ph" width="1em" height="1em" preserveAspectRatio="xMidYMid meet" viewBox="0 0 256 256"><path fill="currentColor" d="m237.7 133.7l-32 32a8.2 8.2 0 0 1-11.4 0a8.1 8.1 0 0 1 0-11.4l18.4-18.3H43.3l18.4 18.3a8.1 8.1 0 0 1 0 11.4a8.2 8.2 0 0 1-11.4 0l-32-32a8.1 8.1 0 0 1 0-11.4l32-32a8.1 8.1 0 0 1 11.4 11.4L43.3 120h169.4l-18.4-18.3a8.1 8.1 0 0 1 11.4-11.4l32 32a8.1 8.1 0 0 1 0 11.4Z"></path></svg>