<svg xmlns="http://www.w3.org/2000/svg" xmlns:xlink="http://www.w3.org/1999/xlink" aria-hidden="true" role="img" class="iconify iconify--ph" width="1em" height="1em" preserveAspectRatio="xMidYMid meet" viewBox="0 0 256 256"><path fill="currentColor" d="M159.1 200.9a3.9 3.9 0 0 1 0 5.6l-28.3 28.3a3.9 3.9 0 0 1-5.6 0l-28.3-28.3a4 4 0 1 1 5.6-5.6l21.5 21.4V160a4 4 0 0 1 8 0v62.3l21.5-21.4a3.9 3.9 0 0 1 5.6 0ZM102.5 55.1L124 33.7V96a4 4 0 0 0 8 0V33.7l21.5 21.4a3.8 3.8 0 0 0 2.8 1.2a3.9 3.9 0 0 0 2.8-1.2a3.9 3.9 0 0 0 0-5.6l-28.3-28.3a3.9 3.9 0 0 0-5.6 0L96.9 49.5a4 4 0 0 0 5.6 5.6ZM33.7 132H96a4 4 0 0 0 0-8H33.7l21.4-21.5a4 4 0 0 0-5.6-5.6l-28.3 28.3a3.9 3.9 0 0 0 0 5.6l28.3 28.3a3.8 3.8 0 0 0 2.8 1.2a3.9 3.9 0 0 0 2.8-1.2a3.9 3.9 0 0 0 0-5.6Zm201.1-6.8l-28.3-28.3a4 4 0 1 0-5.6 5.6l21.4 21.5H160a4 4 0 0 0 0 8h62.3l-21.4 21.5a3.9 3.9 0 0 0 0 5.6a3.9 3.9 0 0 0 2.8 1.2a3.8 3.8 0 0 0 2.8-1.2l28.3-28.3a3.9 3.9 0 0 0 0-5.6Z"></path></svg>