<svg xmlns="http://www.w3.org/2000/svg" xmlns:xlink="http://www.w3.org/1999/xlink" aria-hidden="true" role="img" class="iconify iconify--ph" width="1em" height="1em" preserveAspectRatio="xMidYMid meet" viewBox="0 0 256 256"><path fill="currentColor" d="m226.8 117.2l-96-96a3.9 3.9 0 0 0-5.6 0l-96 96a3.8 3.8 0 0 0-.9 4.3A4 4 0 0 0 32 124h44v84a12 12 0 0 0 12 12h80a12 12 0 0 0 12-12v-84h44a4 4 0 0 0 3.7-2.5a3.8 3.8 0 0 0-.9-4.3ZM176 116a4 4 0 0 0-4 4v88a4 4 0 0 1-4 4H88a4 4 0 0 1-4-4v-88a4 4 0 0 0-4-4H41.7L128 29.7l86.3 86.3Z"></path></svg>