<svg xmlns="http://www.w3.org/2000/svg" xmlns:xlink="http://www.w3.org/1999/xlink" aria-hidden="true" role="img" class="iconify iconify--ph" width="1em" height="1em" preserveAspectRatio="xMidYMid meet" viewBox="0 0 256 256"><path fill="currentColor" d="M144 104V64a8 8 0 0 1 16 0v20.7l42.3-42.4a8.1 8.1 0 0 1 11.4 11.4L171.3 96H192a8 8 0 0 1 0 16h-40a8 8 0 0 1-8-8Zm-40 40H64a8 8 0 0 0 0 16h20.7l-42.4 42.3a8.1 8.1 0 0 0 0 11.4a8.2 8.2 0 0 0 11.4 0L96 171.3V192a8 8 0 0 0 16 0v-40a8 8 0 0 0-8-8Zm67.3 16H192a8 8 0 0 0 0-16h-40a8 8 0 0 0-8 8v40a8 8 0 0 0 16 0v-20.7l42.3 42.4a8.2 8.2 0 0 0 11.4 0a8.1 8.1 0 0 0 0-11.4ZM104 56a8 8 0 0 0-8 8v20.7L53.7 42.3a8.1 8.1 0 0 0-11.4 11.4L84.7 96H64a8 8 0 0 0 0 16h40a8 8 0 0 0 8-8V64a8 8 0 0 0-8-8Z"></path></svg>