<svg xmlns="http://www.w3.org/2000/svg" xmlns:xlink="http://www.w3.org/1999/xlink" aria-hidden="true" role="img" class="iconify iconify--ph" width="1em" height="1em" preserveAspectRatio="xMidYMid meet" viewBox="0 0 256 256"><path fill="currentColor" d="m234.8 125.2l-96-96a3.8 3.8 0 0 0-4.3-.9A4 4 0 0 0 132 32v44H48a12 12 0 0 0-12 12v80a12 12 0 0 0 12 12h84v44a4 4 0 0 0 4 4a3.8 3.8 0 0 0 2.8-1.2l96-96a3.9 3.9 0 0 0 0-5.6ZM140 214.3V176a4 4 0 0 0-4-4H48a4 4 0 0 1-4-4V88a4 4 0 0 1 4-4h88a4 4 0 0 0 4-4V41.7l86.3 86.3Z"></path></svg>