<svg xmlns="http://www.w3.org/2000/svg" xmlns:xlink="http://www.w3.org/1999/xlink" aria-hidden="true" role="img" class="iconify iconify--ph" width="1em" height="1em" preserveAspectRatio="xMidYMid meet" viewBox="0 0 256 256"><path fill="currentColor" d="M163.7 200.7a8.1 8.1 0 0 1-1.8 8.7l-28.2 28.3a8.2 8.2 0 0 1-11.4 0l-28.2-28.3a8 8 0 0 1 5.6-13.7H120V160a8 8 0 0 1 16 0v35.7h20.3a8.2 8.2 0 0 1 7.4 5Zm-64-140.4H120V96a8 8 0 0 0 16 0V60.3h20.3a8 8 0 0 0 5.6-13.7l-28.2-28.3a8.2 8.2 0 0 0-11.4 0L94.1 46.6a8 8 0 0 0 5.6 13.7ZM96 136a8 8 0 0 0 0-16H60.3V99.7a8 8 0 0 0-13.7-5.6l-28.3 28.2a8.1 8.1 0 0 0 0 11.4l28.3 28.2a8 8 0 0 0 5.7 2.4a7.7 7.7 0 0 0 3-.6a8.2 8.2 0 0 0 5-7.4V136Zm141.7-13.7l-28.3-28.2a8 8 0 0 0-13.7 5.6V120H160a8 8 0 0 0 0 16h35.7v20.3a8.2 8.2 0 0 0 5 7.4a7.7 7.7 0 0 0 3 .6a8 8 0 0 0 5.7-2.4l28.3-28.2a8.1 8.1 0 0 0 0-11.4Z"></path></svg>