<svg xmlns="http://www.w3.org/2000/svg" xmlns:xlink="http://www.w3.org/1999/xlink" aria-hidden="true" role="img" class="iconify iconify--ph" width="1em" height="1em" preserveAspectRatio="xMidYMid meet" viewBox="0 0 256 256"><path fill="currentColor" d="m120 32l-96 96l96 96v-48h88a8 8 0 0 0 8-8V88a8 8 0 0 0-8-8h-88Z" opacity=".2"></path><path fill="currentColor" d="M208 72h-80V32a8 8 0 0 0-4.9-7.4a8.4 8.4 0 0 0-8.8 1.7l-96 96a8.1 8.1 0 0 0 0 11.4l96 96a8.3 8.3 0 0 0 5.7 2.3a8.5 8.5 0 0 0 3.1-.6a8 8 0 0 0 4.9-7.4v-40h80a16 16 0 0 0 16-16V88a16 16 0 0 0-16-16Zm0 96h-88a8 8 0 0 0-8 8v28.7L35.3 128L112 51.3V80a8 8 0 0 0 8 8h88Z"></path></svg>