<svg xmlns="http://www.w3.org/2000/svg" xmlns:xlink="http://www.w3.org/1999/xlink" aria-hidden="true" role="img" class="iconify iconify--ph" width="1em" height="1em" preserveAspectRatio="xMidYMid meet" viewBox="0 0 256 256"><path fill="currentColor" d="M208 32H48a16 16 0 0 0-16 16v160a16 16 0 0 0 16 16h160a16 16 0 0 0 16-16V48a16 16 0 0 0-16-16Zm0 176H48V48h160ZM92 148v-48a8 8 0 0 1 8-8h48a8 8 0 0 1 0 16h-28.7l42.4 42.3a8.1 8.1 0 0 1 0 11.4a8.2 8.2 0 0 1-11.4 0L108 119.3V148a8 8 0 0 1-16 0Z"></path></svg>