<svg xmlns="http://www.w3.org/2000/svg" xmlns:xlink="http://www.w3.org/1999/xlink" aria-hidden="true" role="img" class="iconify iconify--ph" width="1em" height="1em" preserveAspectRatio="xMidYMid meet" viewBox="0 0 256 256"><path fill="currentColor" d="M208 28H48a20.1 20.1 0 0 0-20 20v160a20.1 20.1 0 0 0 20 20h160a20.1 20.1 0 0 0 20-20V48a20.1 20.1 0 0 0-20-20Zm-4 176H52V52h152ZM91.5 108.5a12 12 0 0 1 17-17L144 127v-19a12 12 0 0 1 24 0v48a12 12 0 0 1-12 12h-48a12 12 0 0 1 0-24h19Z"></path></svg>