<svg xmlns="http://www.w3.org/2000/svg" xmlns:xlink="http://www.w3.org/1999/xlink" aria-hidden="true" role="img" class="iconify iconify--ph" width="1em" height="1em" preserveAspectRatio="xMidYMid meet" viewBox="0 0 256 256"><path fill="currentColor" d="M128 28a100 100 0 1 0 100 100A100.2 100.2 0 0 0 128 28Zm0 192a92 92 0 1 1 92-92a92.1 92.1 0 0 1-92 92Zm42.8-94.8a3.9 3.9 0 0 1 0 5.6l-33.9 34a3.8 3.8 0 0 1-2.8 1.1a3.9 3.9 0 0 1-2.9-1.1a4.2 4.2 0 0 1 0-5.7l27.1-27.1H88a4 4 0 0 1 0-8h70.3l-27.1-27.1a4 4 0 0 1 5.7-5.7Z"></path></svg>