<svg xmlns="http://www.w3.org/2000/svg" xmlns:xlink="http://www.w3.org/1999/xlink" aria-hidden="true" role="img" class="iconify iconify--ph" width="1em" height="1em" preserveAspectRatio="xMidYMid meet" viewBox="0 0 256 256"><path fill="currentColor" d="M222 128a6 6 0 0 1-6 6H40a6 6 0 0 1 0-12h176a6 6 0 0 1 6 6Zm-98.2-27.8a5.8 5.8 0 0 0 8.4 0l32-32a5.9 5.9 0 0 0-8.4-8.4L134 81.5V16a6 6 0 0 0-12 0v65.5l-21.8-21.7a5.9 5.9 0 0 0-8.4 8.4Zm8.4 55.6a5.8 5.8 0 0 0-8.4 0l-32 32a5.9 5.9 0 0 0 8.4 8.4l21.8-21.7V240a6 6 0 0 0 12 0v-65.5l21.8 21.7a5.9 5.9 0 0 0 8.4-8.4Z"></path></svg>