<svg xmlns="http://www.w3.org/2000/svg" xmlns:xlink="http://www.w3.org/1999/xlink" aria-hidden="true" role="img" class="iconify iconify--ph" width="1em" height="1em" preserveAspectRatio="xMidYMid meet" viewBox="0 0 256 256"><path fill="currentColor" d="M128 28a100 100 0 1 0 100 100A100.2 100.2 0 0 0 128 28Zm0 192a92 92 0 1 1 92-92a92.1 92.1 0 0 1-92 92Zm36.8-100.9a4.2 4.2 0 0 1 0 5.7a3.9 3.9 0 0 1-2.9 1.1a3.8 3.8 0 0 1-2.8-1.1L132 97.7V168a4 4 0 0 1-8 0V97.7l-27.1 27.1a4 4 0 0 1-5.7-5.7l34-33.9a3.9 3.9 0 0 1 5.6 0Z"></path></svg>