<svg xmlns="http://www.w3.org/2000/svg" xmlns:xlink="http://www.w3.org/1999/xlink" aria-hidden="true" role="img" class="iconify iconify--ph" width="1em" height="1em" preserveAspectRatio="xMidYMid meet" viewBox="0 0 256 256"><path fill="currentColor" d="M208 32H48a16 16 0 0 0-16 16v160a16 16 0 0 0 16 16h160a16 16 0 0 0 16-16V48a16 16 0 0 0-16-16Zm0 176H48V48h160ZM82.3 133.7a8.1 8.1 0 0 1 0-11.4l34-33.9a8 8 0 0 1 11.3 11.3L107.3 120H168a8 8 0 0 1 0 16h-60.7l20.3 20.3a8 8 0 0 1 0 11.3a7.8 7.8 0 0 1-5.7 2.3a7.6 7.6 0 0 1-5.6-2.3Z"></path></svg>