<svg xmlns="http://www.w3.org/2000/svg" xmlns:xlink="http://www.w3.org/1999/xlink" aria-hidden="true" role="img" class="iconify iconify--ph" width="1em" height="1em" preserveAspectRatio="xMidYMid meet" viewBox="0 0 256 256"><path fill="currentColor" d="M208 34H48a14 14 0 0 0-14 14v160a14 14 0 0 0 14 14h160a14 14 0 0 0 14-14V48a14 14 0 0 0-14-14Zm2 174a2 2 0 0 1-2 2H48a2 2 0 0 1-2-2V48a2 2 0 0 1 2-2h160a2 2 0 0 1 2 2Zm-49.8-56.2a5.9 5.9 0 1 1-8.4 8.4L106 114.5V148a6 6 0 0 1-12 0v-48a6 6 0 0 1 6-6h48a6 6 0 0 1 0 12h-33.5Z"></path></svg>