<svg xmlns="http://www.w3.org/2000/svg" xmlns:xlink="http://www.w3.org/1999/xlink" aria-hidden="true" role="img" class="iconify iconify--ph" width="1em" height="1em" preserveAspectRatio="xMidYMid meet" viewBox="0 0 256 256"><path fill="currentColor" d="M212.2 171.8a5.8 5.8 0 0 1 0 8.4l-32 32a5.9 5.9 0 0 1-8.4-8.4l21.7-21.8H48a6 6 0 0 1 0-12h145.5l-21.7-21.8a5.9 5.9 0 0 1 8.4-8.4ZM75.8 116.2a5.9 5.9 0 0 0 8.4-8.4L62.5 86H208a6 6 0 0 0 0-12H62.5l21.7-21.8a5.9 5.9 0 0 0-8.4-8.4l-32 32a5.8 5.8 0 0 0 0 8.4Z"></path></svg>