<svg xmlns="http://www.w3.org/2000/svg" xmlns:xlink="http://www.w3.org/1999/xlink" aria-hidden="true" role="img" class="iconify iconify--ph" width="1em" height="1em" preserveAspectRatio="xMidYMid meet" viewBox="0 0 256 256"><path fill="currentColor" d="M132 40v176a4 4 0 0 1-8 0V40a4 4 0 0 1 8 0ZM66.8 93.2a4 4 0 0 0-5.6 5.6L86.3 124H16a4 4 0 0 0 0 8h70.3l-25.1 25.2a3.9 3.9 0 0 0 0 5.6a3.9 3.9 0 0 0 5.6 0l32-32a3.9 3.9 0 0 0 0-5.6ZM240 124h-70.3l25.1-25.2a4 4 0 1 0-5.6-5.6l-32 32a3.9 3.9 0 0 0 0 5.6l32 32a3.9 3.9 0 0 0 5.6 0a3.9 3.9 0 0 0 0-5.6L169.7 132H240a4 4 0 0 0 0-8Z"></path></svg>