<svg xmlns="http://www.w3.org/2000/svg" xmlns:xlink="http://www.w3.org/1999/xlink" aria-hidden="true" role="img" class="iconify iconify--ph" width="1em" height="1em" preserveAspectRatio="xMidYMid meet" viewBox="0 0 256 256"><path fill="currentColor" d="M134 40v176a6 6 0 0 1-12 0V40a6 6 0 0 1 12 0Zm-38 82H30.5l21.7-21.8a5.9 5.9 0 0 0-8.4-8.4l-32 32a5.8 5.8 0 0 0 0 8.4l32 32a5.9 5.9 0 0 0 8.4-8.4L30.5 134H96a6 6 0 0 0 0-12Zm148.2 1.8l-32-32a5.9 5.9 0 0 0-8.4 8.4l21.7 21.8H160a6 6 0 0 0 0 12h65.5l-21.7 21.8a5.9 5.9 0 1 0 8.4 8.4l32-32a5.8 5.8 0 0 0 0-8.4Z"></path></svg>