<svg xmlns="http://www.w3.org/2000/svg" xmlns:xlink="http://www.w3.org/1999/xlink" aria-hidden="true" role="img" class="iconify iconify--ph" width="1em" height="1em" preserveAspectRatio="xMidYMid meet" viewBox="0 0 256 256"><path fill="currentColor" d="M224 128a8 8 0 0 1-8 8H40a8 8 0 0 1 0-16h176a8 8 0 0 1 8 8ZM96 56h24v40a8 8 0 0 0 16 0V56h24a8 8 0 0 0 7.4-4.9a8.4 8.4 0 0 0-1.7-8.8l-32-32a8.1 8.1 0 0 0-11.4 0l-32 32a8.4 8.4 0 0 0-1.7 8.8A8 8 0 0 0 96 56Zm64 144h-24v-40a8 8 0 0 0-16 0v40H96a8 8 0 0 0-7.4 4.9a8.4 8.4 0 0 0 1.7 8.8l32 32a8.2 8.2 0 0 0 11.4 0l32-32a8.4 8.4 0 0 0 1.7-8.8a8 8 0 0 0-7.4-4.9Z"></path></svg>