<svg xmlns="http://www.w3.org/2000/svg" xmlns:xlink="http://www.w3.org/1999/xlink" aria-hidden="true" role="img" class="iconify iconify--ph" width="1em" height="1em" preserveAspectRatio="xMidYMid meet" viewBox="0 0 256 256"><path fill="currentColor" d="M74.3 173.7a8.1 8.1 0 0 1 0-11.4l56.4-56.3l-44.4-44.3a8.4 8.4 0 0 1-1.7-8.8A8 8 0 0 1 92 48h100a8 8 0 0 1 8 8v100a8 8 0 0 1-4.9 7.4a8.5 8.5 0 0 1-3.1.6a8.3 8.3 0 0 1-5.7-2.3L142 117.3l-56.3 56.4a8.2 8.2 0 0 1-11.4 0ZM216 208H40a8 8 0 0 0 0 16h176a8 8 0 0 0 0-16Z"></path></svg>