<svg xmlns="http://www.w3.org/2000/svg" xmlns:xlink="http://www.w3.org/1999/xlink" aria-hidden="true" role="img" class="iconify iconify--ph" width="1em" height="1em" preserveAspectRatio="xMidYMid meet" viewBox="0 0 256 256"><path fill="currentColor" d="M216 48v136a8 8 0 0 1-8 8H72a8 8 0 0 1-8-8V48a8 8 0 0 1 8-8h136a8 8 0 0 1 8 8Z" opacity=".2"></path><path fill="currentColor" d="M120 144v60a8 8 0 0 1-16 0v-40.7l-58.4 58.4A8 8 0 0 1 40 224a8.3 8.3 0 0 1-5.7-2.3a8 8 0 0 1 0-11.3L92.7 152H52a8 8 0 0 1 0-16h60a8 8 0 0 1 8 8Zm88-112H72a16 16 0 0 0-16 16v48a8 8 0 0 0 16 0V48h136v136h-48a8 8 0 0 0 0 16h48a16 16 0 0 0 16-16V48a16 16 0 0 0-16-16Z"></path></svg>