<svg xmlns="http://www.w3.org/2000/svg" xmlns:xlink="http://www.w3.org/1999/xlink" aria-hidden="true" role="img" class="iconify iconify--ph" width="1em" height="1em" preserveAspectRatio="xMidYMid meet" viewBox="0 0 256 256"><path fill="currentColor" d="M208 28H48a20.1 20.1 0 0 0-20 20v160a20.1 20.1 0 0 0 20 20h160a20.1 20.1 0 0 0 20-20V48a20.1 20.1 0 0 0-20-20Zm-4 176H52V52h152ZM85.6 130.4a11.9 11.9 0 0 1 0-16.9l33.9-34a12.1 12.1 0 0 1 17 0l33.9 34a11.9 11.9 0 0 1 0 16.9a12 12 0 0 1-16.9 0L140 117v51a12 12 0 0 1-24 0v-51l-13.5 13.4a11.9 11.9 0 0 1-16.9 0Z"></path></svg>