<svg xmlns="http://www.w3.org/2000/svg" xmlns:xlink="http://www.w3.org/1999/xlink" aria-hidden="true" role="img" class="iconify iconify--ph" width="1em" height="1em" preserveAspectRatio="xMidYMid meet" viewBox="0 0 256 256"><path fill="currentColor" d="M208 76h-84V32a4 4 0 0 0-2.5-3.7a3.8 3.8 0 0 0-4.3.9l-96 96a3.9 3.9 0 0 0 0 5.6l96 96a3.8 3.8 0 0 0 2.8 1.2a4 4 0 0 0 4-4v-44h84a12 12 0 0 0 12-12V88a12 12 0 0 0-12-12Zm4 92a4 4 0 0 1-4 4h-88a4 4 0 0 0-4 4v38.3L29.7 128L116 41.7V80a4 4 0 0 0 4 4h88a4 4 0 0 1 4 4Z"></path></svg>