<svg xmlns="http://www.w3.org/2000/svg" xmlns:xlink="http://www.w3.org/1999/xlink" aria-hidden="true" role="img" class="iconify iconify--ph" width="1em" height="1em" preserveAspectRatio="xMidYMid meet" viewBox="0 0 256 256"><path fill="currentColor" d="M148 104V64a4 4 0 0 1 8 0v30.3l49.2-49.1a4 4 0 1 1 5.6 5.6L161.7 100H192a4 4 0 0 1 0 8h-40a4 4 0 0 1-4-4Zm-44 44H64a4 4 0 0 0 0 8h30.3l-49.1 49.2a3.9 3.9 0 0 0 0 5.6a3.9 3.9 0 0 0 5.6 0l49.2-49.1V192a4 4 0 0 0 8 0v-40a4 4 0 0 0-4-4Zm57.7 8H192a4 4 0 0 0 0-8h-40a4 4 0 0 0-4 4v40a4 4 0 0 0 8 0v-30.3l49.2 49.1a3.9 3.9 0 0 0 5.6 0a3.9 3.9 0 0 0 0-5.6ZM104 60a4 4 0 0 0-4 4v30.3L50.8 45.2a4 4 0 0 0-5.6 5.6L94.3 100H64a4 4 0 0 0 0 8h40a4 4 0 0 0 4-4V64a4 4 0 0 0-4-4Z"></path></svg>