<svg xmlns="http://www.w3.org/2000/svg" xmlns:xlink="http://www.w3.org/1999/xlink" aria-hidden="true" role="img" class="iconify iconify--ph" width="1em" height="1em" preserveAspectRatio="xMidYMid meet" viewBox="0 0 256 256"><path fill="currentColor" d="M117.7 170.3a8.1 8.1 0 0 1 0 11.4l-32 32a8.2 8.2 0 0 1-11.4 0l-32-32a8.1 8.1 0 0 1 11.4-11.4L72 188.7V48a8 8 0 0 1 16 0v140.7l18.3-18.4a8.1 8.1 0 0 1 11.4 0Zm96-96l-32-32a8.1 8.1 0 0 0-11.4 0l-32 32a8.1 8.1 0 0 0 11.4 11.4L168 67.3V208a8 8 0 0 0 16 0V67.3l18.3 18.4a8.2 8.2 0 0 0 11.4 0a8.1 8.1 0 0 0 0-11.4Z"></path></svg>