<svg xmlns="http://www.w3.org/2000/svg" xmlns:xlink="http://www.w3.org/1999/xlink" aria-hidden="true" role="img" class="iconify iconify--ph" width="1em" height="1em" preserveAspectRatio="xMidYMid meet" viewBox="0 0 256 256"><path fill="currentColor" d="M134 40v176a6 6 0 0 1-12 0V40a6 6 0 0 1 12 0ZM68.2 91.8a5.9 5.9 0 0 0-8.4 8.4L81.5 122H16a6 6 0 0 0 0 12h65.5l-21.7 21.8a5.9 5.9 0 1 0 8.4 8.4l32-32a5.8 5.8 0 0 0 0-8.4ZM240 122h-65.5l21.7-21.8a5.9 5.9 0 0 0-8.4-8.4l-32 32a5.8 5.8 0 0 0 0 8.4l32 32a5.9 5.9 0 0 0 8.4-8.4L174.5 134H240a6 6 0 0 0 0-12Z"></path></svg>