<svg xmlns="http://www.w3.org/2000/svg" xmlns:xlink="http://www.w3.org/1999/xlink" aria-hidden="true" role="img" class="iconify iconify--ph" width="1em" height="1em" preserveAspectRatio="xMidYMid meet" viewBox="0 0 256 256"><path fill="currentColor" d="m228.2 115.8l-96-96a5.8 5.8 0 0 0-8.4 0l-96 96a5.7 5.7 0 0 0-1.3 6.5A6 6 0 0 0 32 126h42v82a14 14 0 0 0 14 14h80a14 14 0 0 0 14-14v-82h42a6 6 0 0 0 5.5-3.7a5.7 5.7 0 0 0-1.3-6.5ZM176 114a6 6 0 0 0-6 6v88a2 2 0 0 1-2 2H88a2 2 0 0 1-2-2v-88a6 6 0 0 0-6-6H46.5L128 32.5l81.5 81.5Z"></path></svg>