<svg xmlns="http://www.w3.org/2000/svg" xmlns:xlink="http://www.w3.org/1999/xlink" aria-hidden="true" role="img" class="iconify iconify--ph" width="1em" height="1em" preserveAspectRatio="xMidYMid meet" viewBox="0 0 256 256"><path fill="currentColor" d="M146 104V64a6 6 0 0 1 12 0v25.5l45.8-45.7a5.9 5.9 0 0 1 8.4 8.4L166.5 98H192a6 6 0 0 1 0 12h-40a6 6 0 0 1-6-6Zm-42 42H64a6 6 0 0 0 0 12h25.5l-45.7 45.8a5.9 5.9 0 1 0 8.4 8.4L98 166.5V192a6 6 0 0 0 12 0v-40a6 6 0 0 0-6-6Zm62.5 12H192a6 6 0 0 0 0-12h-40a6 6 0 0 0-6 6v40a6 6 0 0 0 12 0v-25.5l45.8 45.7a5.9 5.9 0 0 0 8.4-8.4ZM104 58a6 6 0 0 0-6 6v25.5L52.2 43.8a5.9 5.9 0 0 0-8.4 8.4L89.5 98H64a6 6 0 0 0 0 12h40a6 6 0 0 0 6-6V64a6 6 0 0 0-6-6Z"></path></svg>