<svg xmlns="http://www.w3.org/2000/svg" xmlns:xlink="http://www.w3.org/1999/xlink" aria-hidden="true" role="img" class="iconify iconify--ph" width="1em" height="1em" preserveAspectRatio="xMidYMid meet" viewBox="0 0 256 256"><path fill="currentColor" d="M230.2 51.7v48a6 6 0 0 1-6 6h-48a6 6 0 0 1 0-12h33.5L186 70a82.1 82.1 0 0 0-116 0a5.9 5.9 0 0 1-8.5 0a6.1 6.1 0 0 1 0-8.5a94.3 94.3 0 0 1 133 0l23.7 23.7V51.7a6 6 0 1 1 12 0ZM186 186a82.1 82.1 0 0 1-116 0l-23.7-23.7h33.5a6 6 0 1 0 0-12h-48a6 6 0 0 0-6 6v48a6 6 0 0 0 12 0v-33.5l23.7 23.7a94.2 94.2 0 0 0 133 0a6.1 6.1 0 0 0 0-8.5a5.9 5.9 0 0 0-8.5 0Z"></path></svg>