<svg xmlns="http://www.w3.org/2000/svg" xmlns:xlink="http://www.w3.org/1999/xlink" aria-hidden="true" role="img" class="iconify iconify--ph" width="1em" height="1em" preserveAspectRatio="xMidYMid meet" viewBox="0 0 256 256"><path fill="currentColor" d="M160.5 184a5.9 5.9 0 0 1 0 8.5a5.8 5.8 0 0 1-4.2 1.8a6 6 0 0 1-4.3-1.8l-18-18V232a6 6 0 0 1-12 0v-57.5l-18 18a6 6 0 0 1-8.5-8.5l28.3-28.2a5.8 5.8 0 0 1 8.4 0Zm-36.7-83.8a5.8 5.8 0 0 0 8.4 0L160.5 72a6 6 0 0 0-8.5-8.5l-18 18V24a6 6 0 0 0-12 0v57.5l-18-18a6 6 0 0 0-8.5 8.5Zm-23.6 23.6L72 95.5a6 6 0 0 0-8.5 8.5l18 18H24a6 6 0 0 0 0 12h57.5l-18 18a5.9 5.9 0 0 0 0 8.5a5.8 5.8 0 0 0 4.2 1.8a6 6 0 0 0 4.3-1.8l28.2-28.3a5.8 5.8 0 0 0 0-8.4ZM232 122h-57.5l18-18a6 6 0 0 0-8.5-8.5l-28.2 28.3a5.8 5.8 0 0 0 0 8.4l28.2 28.3a6 6 0 0 0 4.3 1.8a5.8 5.8 0 0 0 4.2-1.8a5.9 5.9 0 0 0 0-8.5l-18-18H232a6 6 0 0 0 0-12Z"></path></svg>