<svg xmlns="http://www.w3.org/2000/svg" xmlns:xlink="http://www.w3.org/1999/xlink" aria-hidden="true" role="img" class="iconify iconify--ph" width="1em" height="1em" preserveAspectRatio="xMidYMid meet" viewBox="0 0 256 256"><path fill="currentColor" d="M229.5 133.7a6 6 0 0 0-5.5-3.7h-42v-26a6 6 0 0 0-6-6H80a6 6 0 0 0-6 6v26H32a6 6 0 0 0-5.5 3.7a5.7 5.7 0 0 0 1.3 6.5l96 96a5.8 5.8 0 0 0 8.4 0l96-96a5.7 5.7 0 0 0 1.3-6.5ZM128 223.5L46.5 142H80a6 6 0 0 0 6-6v-26h84v26a6 6 0 0 0 6 6h33.5ZM74 40a6 6 0 0 1 6-6h96a6 6 0 0 1 0 12H80a6 6 0 0 1-6-6Zm0 32a6 6 0 0 1 6-6h96a6 6 0 0 1 0 12H80a6 6 0 0 1-6-6Z"></path></svg>