<svg xmlns="http://www.w3.org/2000/svg" xmlns:xlink="http://www.w3.org/1999/xlink" aria-hidden="true" role="img" class="iconify iconify--ph" width="1em" height="1em" preserveAspectRatio="xMidYMid meet" viewBox="0 0 256 256"><path fill="currentColor" d="M118 144v60a6 6 0 0 1-12 0v-45.5l-61.8 61.8a6.2 6.2 0 0 1-8.5 0a6.1 6.1 0 0 1 0-8.5L97.5 150H52a6 6 0 0 1 0-12h60a6 6 0 0 1 6 6Zm90-110H72a14 14 0 0 0-14 14v48a6 6 0 0 0 12 0V48a2 2 0 0 1 2-2h136a2 2 0 0 1 2 2v136a2 2 0 0 1-2 2h-48a6 6 0 0 0 0 12h48a14 14 0 0 0 14-14V48a14 14 0 0 0-14-14Z"></path></svg>