<svg xmlns="http://www.w3.org/2000/svg" xmlns:xlink="http://www.w3.org/1999/xlink" aria-hidden="true" role="img" class="iconify iconify--ph" width="1em" height="1em" preserveAspectRatio="xMidYMid meet" viewBox="0 0 256 256"><path fill="currentColor" d="M164.8 195.2a12 12 0 0 1 0 17l-28.3 28.3a12.1 12.1 0 0 1-17 0l-28.3-28.3a12 12 0 0 1 17-17l7.8 7.8v-43a12 12 0 0 1 24 0v43l7.8-7.8a12 12 0 0 1 17 0ZM108.2 60.8L116 53v43a12 12 0 0 0 24 0V53l7.8 7.8a12 12 0 0 0 8.5 3.5a12.2 12.2 0 0 0 8.5-3.5a12 12 0 0 0 0-17l-28.3-28.3a12.1 12.1 0 0 0-17 0L91.2 43.8a12 12 0 0 0 17 17ZM53 140h43a12 12 0 0 0 0-24H53l7.8-7.8a12 12 0 0 0-17-17l-28.3 28.3a12 12 0 0 0 0 17l28.3 28.3a12 12 0 0 0 8.5 3.5a12.2 12.2 0 0 0 8.5-3.5a12 12 0 0 0 0-17Zm187.5-20.5l-28.3-28.3a12 12 0 0 0-17 17l7.8 7.8h-43a12 12 0 0 0 0 24h43l-7.8 7.8a12 12 0 0 0 0 17a12.2 12.2 0 0 0 8.5 3.5a12 12 0 0 0 8.5-3.5l28.3-28.3a12 12 0 0 0 0-17Z"></path></svg>