<svg xmlns="http://www.w3.org/2000/svg" xmlns:xlink="http://www.w3.org/1999/xlink" aria-hidden="true" role="img" class="iconify iconify--ph" width="1em" height="1em" preserveAspectRatio="xMidYMid meet" viewBox="0 0 256 256"><path fill="currentColor" d="M220 48v40a12 12 0 0 1-24 0V77l-35.5 35.5a12.1 12.1 0 0 1-17 0a12 12 0 0 1 0-17L179 60h-11a12 12 0 0 1 0-24h40a12 12 0 0 1 12 12ZM95.5 143.5L60 179v-11a12 12 0 0 0-24 0v40a12 12 0 0 0 12 12h40a12 12 0 0 0 0-24H77l35.5-35.5a12 12 0 0 0-17-17ZM208 156a12 12 0 0 0-12 12v11l-35.5-35.5a12 12 0 0 0-17 17L179 196h-11a12 12 0 0 0 0 24h40a12 12 0 0 0 12-12v-40a12 12 0 0 0-12-12ZM77 60h11a12 12 0 0 0 0-24H48a12 12 0 0 0-12 12v40a12 12 0 0 0 24 0V77l35.5 35.5a12.1 12.1 0 0 0 17 0a12 12 0 0 0 0-17Z"></path></svg>