<svg xmlns="http://www.w3.org/2000/svg" xmlns:xlink="http://www.w3.org/1999/xlink" aria-hidden="true" role="img" class="iconify iconify--ph" width="1em" height="1em" preserveAspectRatio="xMidYMid meet" viewBox="0 0 256 256"><path fill="currentColor" d="M88.5 143.5a12 12 0 0 1 0 17a12.1 12.1 0 0 1-17 0l-48-48a12 12 0 0 1 0-17l48-48a12 12 0 0 1 17 17L49 104ZM128 92h-11l27.5-27.5a12 12 0 0 0-17-17l-48 48a12 12 0 0 0 0 17l48 48a12.1 12.1 0 0 0 17 0a12 12 0 0 0 0-17L117 116h11a84.1 84.1 0 0 1 84 84a12 12 0 0 0 24 0A108.1 108.1 0 0 0 128 92Z"></path></svg>