<svg xmlns="http://www.w3.org/2000/svg" xmlns:xlink="http://www.w3.org/1999/xlink" aria-hidden="true" role="img" class="iconify iconify--ph" width="1em" height="1em" preserveAspectRatio="xMidYMid meet" viewBox="0 0 256 256"><path fill="currentColor" d="M213.7 53.7L187.3 80l18.4 18.3a8.4 8.4 0 0 1 1.7 8.8a8 8 0 0 1-7.4 4.9h-48a8 8 0 0 1-8-8V56a8 8 0 0 1 4.9-7.4a8.4 8.4 0 0 1 8.8 1.7L176 68.7l26.3-26.4a8.1 8.1 0 0 1 11.4 11.4ZM104 144H56a8 8 0 0 0-7.4 4.9a8.4 8.4 0 0 0 1.7 8.8L68.7 176l-26.4 26.3a8.1 8.1 0 0 0 0 11.4a8.2 8.2 0 0 0 11.4 0L80 187.3l18.3 18.4a8.3 8.3 0 0 0 5.7 2.3a8.5 8.5 0 0 0 3.1-.6a8 8 0 0 0 4.9-7.4v-48a8 8 0 0 0-8-8Z"></path></svg>