<svg xmlns="http://www.w3.org/2000/svg" xmlns:xlink="http://www.w3.org/1999/xlink" aria-hidden="true" role="img" class="iconify iconify--ph" width="1em" height="1em" preserveAspectRatio="xMidYMid meet" viewBox="0 0 256 256"><path fill="currentColor" d="M128 20a108 108 0 1 0 108 108A108.1 108.1 0 0 0 128 20Zm0 192a84 84 0 1 1 84-84a84.1 84.1 0 0 1-84 84Zm48.5-92.5a12 12 0 0 1 0 17l-34 33.9a12 12 0 0 1-16.9 0a11.9 11.9 0 0 1 0-16.9L139 140H88a12 12 0 0 1 0-24h51l-13.4-13.5a12 12 0 0 1 16.9-16.9Z"></path></svg>