<svg xmlns="http://www.w3.org/2000/svg" xmlns:xlink="http://www.w3.org/1999/xlink" aria-hidden="true" role="img" class="iconify iconify--ph" width="1em" height="1em" preserveAspectRatio="xMidYMid meet" viewBox="0 0 256 256"><path fill="currentColor" d="M232 112a64.1 64.1 0 0 1-64 64H88v40a8 8 0 0 1-4.9 7.4a8.5 8.5 0 0 1-3.1.6a8.3 8.3 0 0 1-5.7-2.3l-48-48a8.1 8.1 0 0 1 0-11.4l48-48a8.4 8.4 0 0 1 8.8-1.7A8 8 0 0 1 88 120v40h80a48 48 0 0 0 0-96H80a8 8 0 0 1 0-16h88a64.1 64.1 0 0 1 64 64Z"></path></svg>