<svg xmlns="http://www.w3.org/2000/svg" xmlns:xlink="http://www.w3.org/1999/xlink" aria-hidden="true" role="img" class="iconify iconify--ph" width="1em" height="1em" preserveAspectRatio="xMidYMid meet" viewBox="0 0 256 256"><path fill="currentColor" d="M181.7 82.3a8.1 8.1 0 0 1 0 11.4L125.3 150l44.4 44.3a8.4 8.4 0 0 1 1.7 8.8a8 8 0 0 1-7.4 4.9H64a8 8 0 0 1-8-8V100a8 8 0 0 1 4.9-7.4a8.4 8.4 0 0 1 8.8 1.7l44.3 44.4l56.3-56.4a8.1 8.1 0 0 1 11.4 0ZM216 32H40a8 8 0 0 0 0 16h176a8 8 0 0 0 0-16Z"></path></svg>