<svg xmlns="http://www.w3.org/2000/svg" xmlns:xlink="http://www.w3.org/1999/xlink" aria-hidden="true" role="img" class="iconify iconify--ph" width="1em" height="1em" preserveAspectRatio="xMidYMid meet" viewBox="0 0 256 256"><path fill="currentColor" d="M228 128a4 4 0 0 1-4 4H81.7l65.1 65.2a3.9 3.9 0 0 1 0 5.6a3.8 3.8 0 0 1-2.8 1.2a3.9 3.9 0 0 1-2.8-1.2l-72-72a3.9 3.9 0 0 1 0-5.6l72-72a4 4 0 1 1 5.6 5.6L81.7 124H224a4 4 0 0 1 4 4ZM40 36a4 4 0 0 0-4 4v176a4 4 0 0 0 8 0V40a4 4 0 0 0-4-4Z"></path></svg>