<svg xmlns="http://www.w3.org/2000/svg" xmlns:xlink="http://www.w3.org/1999/xlink" aria-hidden="true" role="img" class="iconify iconify--ph" width="1em" height="1em" preserveAspectRatio="xMidYMid meet" viewBox="0 0 256 256"><path fill="currentColor" d="M79.8 107.7h-48a8 8 0 0 1-8-8v-48a8 8 0 1 1 16 0v28.7l20.3-20.3a96.2 96.2 0 0 1 135.8 0a8 8 0 0 1 0 11.3a7.9 7.9 0 0 1-11.3 0a80.2 80.2 0 0 0-113.2 0L51.1 91.7h28.7a8 8 0 0 1 0 16Zm144.4 40.6h-48a8 8 0 0 0 0 16h28.7l-20.3 20.3a80.2 80.2 0 0 1-113.2 0a7.9 7.9 0 0 0-11.3 0a8 8 0 0 0 0 11.3a96.1 96.1 0 0 0 135.8 0l20.3-20.3v28.7a8 8 0 0 0 16 0v-48a8 8 0 0 0-8-8Z"></path></svg>