<svg xmlns="http://www.w3.org/2000/svg" xmlns:xlink="http://www.w3.org/1999/xlink" aria-hidden="true" role="img" class="iconify iconify--ph" width="1em" height="1em" preserveAspectRatio="xMidYMid meet" viewBox="0 0 256 256"><path fill="currentColor" d="m232.5 111.5l-96-96a12 12 0 0 0-17 0l-96 96a12.2 12.2 0 0 0-2.6 13.1A12 12 0 0 0 32 132h36v8a12 12 0 0 0 12 12h96a12 12 0 0 0 12-12v-8h36a12 12 0 0 0 11.1-7.4a12.2 12.2 0 0 0-2.6-13.1ZM176 108a12 12 0 0 0-12 12v8H92v-8a12 12 0 0 0-12-12H61l67-67l67 67Zm12 104a12 12 0 0 1-12 12H80a12 12 0 0 1 0-24h96a12 12 0 0 1 12 12Zm0-36a12 12 0 0 1-12 12H80a12 12 0 0 1 0-24h96a12 12 0 0 1 12 12Z"></path></svg>