<svg xmlns="http://www.w3.org/2000/svg" xmlns:xlink="http://www.w3.org/1999/xlink" aria-hidden="true" role="img" class="iconify iconify--ph" width="1em" height="1em" preserveAspectRatio="xMidYMid meet" viewBox="0 0 256 256"><path fill="currentColor" d="m236.2 123.8l-96-96a5.7 5.7 0 0 0-6.5-1.3A6 6 0 0 0 130 32v42h-26a6 6 0 0 0-6 6v96a6 6 0 0 0 6 6h26v42a6 6 0 0 0 3.7 5.5a4.6 4.6 0 0 0 2.3.5a5.6 5.6 0 0 0 4.2-1.8l96-96a5.8 5.8 0 0 0 0-8.4ZM142 209.5V176a6 6 0 0 0-6-6h-26V86h26a6 6 0 0 0 6-6V46.5l81.5 81.5ZM46 80v96a6 6 0 0 1-12 0V80a6 6 0 0 1 12 0Zm32 0v96a6 6 0 0 1-12 0V80a6 6 0 0 1 12 0Z"></path></svg>