<svg xmlns="http://www.w3.org/2000/svg" xmlns:xlink="http://www.w3.org/1999/xlink" aria-hidden="true" role="img" class="iconify iconify--ph" width="1em" height="1em" preserveAspectRatio="xMidYMid meet" viewBox="0 0 256 256"><path fill="currentColor" d="M216.5 56.5L181 92h19a12 12 0 0 1 0 24h-48a12 12 0 0 1-12-12V56a12 12 0 0 1 24 0v19l35.5-35.5a12 12 0 0 1 17 17ZM104 140H56a12 12 0 0 0 0 24h19l-35.5 35.5a12 12 0 0 0 0 17a12.1 12.1 0 0 0 17 0L92 181v19a12 12 0 0 0 24 0v-48a12 12 0 0 0-12-12Z"></path></svg>