<svg xmlns="http://www.w3.org/2000/svg" xmlns:xlink="http://www.w3.org/1999/xlink" aria-hidden="true" role="img" class="iconify iconify--ph" width="1em" height="1em" preserveAspectRatio="xMidYMid meet" viewBox="0 0 256 256"><path fill="currentColor" d="M79.8 111.7h-48a12 12 0 0 1-12-12v-48a12 12 0 1 1 24 0v19l13.5-13.4a100.1 100.1 0 0 1 141.4 0a12 12 0 0 1 0 17a12.2 12.2 0 0 1-17 0a75.9 75.9 0 0 0-107.4 0L60.8 87.7h19a12 12 0 0 1 0 24Zm144.4 32.6h-48a12 12 0 0 0 0 24h19l-13.5 13.4a75.9 75.9 0 0 1-107.4 0a12.2 12.2 0 0 0-17 0a12 12 0 0 0 0 17a99.9 99.9 0 0 0 141.4 0l13.5-13.4v19a12 12 0 0 0 24 0v-48a12 12 0 0 0-12-12Z"></path></svg>