<svg xmlns="http://www.w3.org/2000/svg" xmlns:xlink="http://www.w3.org/1999/xlink" aria-hidden="true" role="img" class="iconify iconify--ph" width="1em" height="1em" preserveAspectRatio="xMidYMid meet" viewBox="0 0 256 256"><path fill="currentColor" d="M201.5 54.5a104 104 0 1 0 0 147a103.9 103.9 0 0 0 0-147ZM164 148a8 8 0 0 1-16 0v-28.7l-42.3 42.4a8.5 8.5 0 0 1-5.7 2.3a8.3 8.3 0 0 1-5.7-2.3a8.1 8.1 0 0 1 0-11.4l42.4-42.3H108a8 8 0 0 1 0-16h48a7.7 7.7 0 0 1 3 .6a8.1 8.1 0 0 1 4.4 4.3a8.5 8.5 0 0 1 .6 3.1Z"></path></svg>