<svg xmlns="http://www.w3.org/2000/svg" xmlns:xlink="http://www.w3.org/1999/xlink" aria-hidden="true" role="img" class="iconify iconify--ph" width="1em" height="1em" preserveAspectRatio="xMidYMid meet" viewBox="0 0 256 256"><path fill="currentColor" d="M210.8 50.8L161.7 100H200a4 4 0 0 1 0 8h-48a4 4 0 0 1-4-4V56a4 4 0 0 1 8 0v38.3l49.2-49.1a4 4 0 1 1 5.6 5.6ZM104 148H56a4 4 0 0 0 0 8h38.3l-49.1 49.2a3.9 3.9 0 0 0 0 5.6a3.9 3.9 0 0 0 5.6 0l49.2-49.1V200a4 4 0 0 0 8 0v-48a4 4 0 0 0-4-4Z"></path></svg>