<svg xmlns="http://www.w3.org/2000/svg" xmlns:xlink="http://www.w3.org/1999/xlink" aria-hidden="true" role="img" class="iconify iconify--ph" width="1em" height="1em" preserveAspectRatio="xMidYMid meet" viewBox="0 0 256 256"><path fill="currentColor" d="M227.7 134.5a4 4 0 0 0-3.7-2.5h-44V48a12 12 0 0 0-12-12H88a12 12 0 0 0-12 12v84H32a4 4 0 0 0-3.7 2.5a3.8 3.8 0 0 0 .9 4.3l96 96a3.9 3.9 0 0 0 5.6 0l96-96a3.8 3.8 0 0 0 .9-4.3ZM128 226.3L41.7 140H80a4 4 0 0 0 4-4V48a4 4 0 0 1 4-4h80a4 4 0 0 1 4 4v88a4 4 0 0 0 4 4h38.3Z"></path></svg>