<svg xmlns="http://www.w3.org/2000/svg" xmlns:xlink="http://www.w3.org/1999/xlink" aria-hidden="true" role="img" class="iconify iconify--ph" width="1em" height="1em" preserveAspectRatio="xMidYMid meet" viewBox="0 0 256 256"><path fill="currentColor" d="m213.7 181.7l-32 32a8.2 8.2 0 0 1-11.4 0a8.1 8.1 0 0 1 0-11.4l18.4-18.3H48a8 8 0 0 1 0-16h140.7l-18.4-18.3a8.1 8.1 0 0 1 11.4-11.4l32 32a8.1 8.1 0 0 1 0 11.4Zm-139.4-64a8.2 8.2 0 0 0 11.4 0a8.1 8.1 0 0 0 0-11.4L67.3 88H208a8 8 0 0 0 0-16H67.3l18.4-18.3a8.1 8.1 0 0 0-11.4-11.4l-32 32a8.1 8.1 0 0 0 0 11.4Z"></path></svg>