<svg xmlns="http://www.w3.org/2000/svg" xmlns:xlink="http://www.w3.org/1999/xlink" aria-hidden="true" role="img" class="iconify iconify--ph" width="1em" height="1em" preserveAspectRatio="xMidYMid meet" viewBox="0 0 256 256"><path fill="currentColor" d="M54 136a6 6 0 0 1-6 6H24a6 6 0 0 1 0-12h10V62H24a6 6 0 0 1 0-12h16a6 6 0 0 1 5.1 2.8L80 108.7l34.9-55.9A6 6 0 0 1 120 50h16a6 6 0 0 1 0 12h-10v68h10a6 6 0 0 1 0 12h-24a6 6 0 0 1 0-12h2V76.9l-28.9 46.3a6 6 0 0 1-10.2 0L46 76.9V130h2a6 6 0 0 1 6 6Zm114-26h72a6 6 0 0 0 0-12h-72a6 6 0 0 0 0 12Zm72 20h-72a6 6 0 0 0 0 12h72a6 6 0 0 0 0-12Zm0 32H72a6 6 0 0 0 0 12h168a6 6 0 0 0 0-12Zm0 32H72a6 6 0 0 0 0 12h168a6 6 0 0 0 0-12Z"></path></svg>