<svg xmlns="http://www.w3.org/2000/svg" xmlns:xlink="http://www.w3.org/1999/xlink" aria-hidden="true" role="img" class="iconify iconify--ph" width="1em" height="1em" preserveAspectRatio="xMidYMid meet" viewBox="0 0 256 256"><path fill="currentColor" d="M216 44H40a12 12 0 0 0-12 12v144a12 12 0 0 0 12 12h176a12 12 0 0 0 12-12V56a12 12 0 0 0-12-12Zm4 156a4 4 0 0 1-4 4H40a4 4 0 0 1-4-4V56a4 4 0 0 1 4-4h176a4 4 0 0 1 4 4ZM184 96a4 4 0 0 1-4 4H76a4 4 0 0 1 0-8h104a4 4 0 0 1 4 4Zm0 32a4 4 0 0 1-4 4H76a4 4 0 0 1 0-8h104a4 4 0 0 1 4 4Zm0 32a4 4 0 0 1-4 4H76a4 4 0 0 1 0-8h104a4 4 0 0 1 4 4Z"></path></svg>