<svg xmlns="http://www.w3.org/2000/svg" xmlns:xlink="http://www.w3.org/1999/xlink" aria-hidden="true" role="img" class="iconify iconify--ph" width="1em" height="1em" preserveAspectRatio="xMidYMid meet" viewBox="0 0 256 256"><path fill="currentColor" d="M52 136a4 4 0 0 1-4 4H24a4 4 0 0 1 0-8h12V60H24a4 4 0 0 1 0-8h16a4 4 0 0 1 3.4 1.9L80 112.5l36.6-58.6A4 4 0 0 1 120 52h16a4 4 0 0 1 0 8h-12v72h12a4 4 0 0 1 0 8h-24a4 4 0 0 1 0-8h4V69.9l-32.6 52.2a4 4 0 0 1-6.8 0L44 69.9V132h4a4 4 0 0 1 4 4Zm116-28h72a4 4 0 0 0 0-8h-72a4 4 0 0 0 0 8Zm72 24h-72a4 4 0 0 0 0 8h72a4 4 0 0 0 0-8Zm0 32H72a4 4 0 0 0 0 8h168a4 4 0 0 0 0-8Zm0 32H72a4 4 0 0 0 0 8h168a4 4 0 0 0 0-8Z"></path></svg>