<svg xmlns="http://www.w3.org/2000/svg" xmlns:xlink="http://www.w3.org/1999/xlink" aria-hidden="true" role="img" class="iconify iconify--ph" width="1em" height="1em" preserveAspectRatio="xMidYMid meet" viewBox="0 0 256 256"><path fill="currentColor" d="M216 36H40a20.1 20.1 0 0 0-20 20v144a20.1 20.1 0 0 0 20 20h176a20.1 20.1 0 0 0 20-20V56a20.1 20.1 0 0 0-20-20Zm-4 160H44V60h168ZM64 92a12 12 0 0 1 12-12h104a12 12 0 0 1 0 24H76a12 12 0 0 1-12-12Zm0 36a12 12 0 0 1 12-12h104a12 12 0 0 1 0 24H76a12 12 0 0 1-12-12Zm0 36a12 12 0 0 1 12-12h104a12 12 0 0 1 0 24H76a12 12 0 0 1-12-12Z"></path></svg>