<svg xmlns="http://www.w3.org/2000/svg" xmlns:xlink="http://www.w3.org/1999/xlink" aria-hidden="true" role="img" class="iconify iconify--ph" width="1em" height="1em" preserveAspectRatio="xMidYMid meet" viewBox="0 0 256 256"><path fill="currentColor" d="M56 136a8 8 0 0 1-8 8H24a8 8 0 0 1 0-16h8V64h-8a8 8 0 0 1 0-16h16a8 8 0 0 1 6.8 3.8L80 104.9l33.2-53.1A8 8 0 0 1 120 48h16a8 8 0 0 1 0 16h-8v64h8a8 8 0 0 1 0 16h-24a8 8 0 0 1 0-16V83.9l-25.2 40.3a8 8 0 0 1-13.6 0L48 83.9V128a8 8 0 0 1 8 8Zm112-24h72a8 8 0 0 0 0-16h-72a8 8 0 0 0 0 16Zm72 16h-72a8 8 0 0 0 0 16h72a8 8 0 0 0 0-16Zm0 32H72a8 8 0 0 0 0 16h168a8 8 0 0 0 0-16Zm0 32H72a8 8 0 0 0 0 16h168a8 8 0 0 0 0-16Z"></path></svg>