<svg xmlns="http://www.w3.org/2000/svg" xmlns:xlink="http://www.w3.org/1999/xlink" aria-hidden="true" role="img" class="iconify iconify--ph" width="1em" height="1em" preserveAspectRatio="xMidYMid meet" viewBox="0 0 256 256"><path fill="currentColor" d="M216 40H40a16 16 0 0 0-16 16v144a16 16 0 0 0 16 16h176a16 16 0 0 0 16-16V56a16 16 0 0 0-16-16Zm0 160H40V56h176v144ZM188 96a8 8 0 0 1-8 8H76a8 8 0 0 1 0-16h104a8 8 0 0 1 8 8Zm0 32a8 8 0 0 1-8 8H76a8 8 0 0 1 0-16h104a8 8 0 0 1 8 8Zm0 32a8 8 0 0 1-8 8H76a8 8 0 0 1 0-16h104a8 8 0 0 1 8 8Z"></path></svg>