<svg xmlns="http://www.w3.org/2000/svg" xmlns:xlink="http://www.w3.org/1999/xlink" aria-hidden="true" role="img" class="iconify iconify--ph" width="1em" height="1em" preserveAspectRatio="xMidYMid meet" viewBox="0 0 256 256"><path fill="currentColor" d="M154.1 104a6 6 0 0 1 6-6h80a6 6 0 1 1 0 12h-80a6 6 0 0 1-6-6Zm86 26h-80a6 6 0 0 0 0 12h80a6 6 0 1 0 0-12Zm0 32h-80a6 6 0 0 0 0 12h80a6 6 0 1 0 0-12Zm0 32h-168a6 6 0 0 0 0 12h168a6 6 0 1 0 0-12ZM80 174a53.9 53.9 0 0 1-46.9-80.7A26 26 0 0 1 48 46a6.2 6.2 0 0 1 3.2.9l62.4 39A14 14 0 0 0 112 58a6 6 0 0 1 0-12a26 26 0 0 1 0 52a6.2 6.2 0 0 1-3.2-.9L78.3 78a42 42 0 0 0-4.3 83.6v-47.1a6 6 0 0 1 6-6a6 6 0 0 1 6 6v47.1a42 42 0 0 0 34.8-31.4a6 6 0 1 1 11.6 2.9A53.8 53.8 0 0 1 80 174ZM40.2 83.6a54.5 54.5 0 0 1 23.1-15L46.4 58.1a14 14 0 0 0-6.2 25.5Z"></path></svg>