<svg xmlns="http://www.w3.org/2000/svg" xmlns:xlink="http://www.w3.org/1999/xlink" aria-hidden="true" role="img" class="iconify iconify--ph" width="1em" height="1em" preserveAspectRatio="xMidYMid meet" viewBox="0 0 256 256"><path fill="currentColor" d="M164.1 88a12 12 0 0 1 12-12h64a12 12 0 1 1 0 24h-64a12 12 0 0 1-12-12Zm76 28h-64a12 12 0 0 0 0 24h64a12 12 0 1 0 0-24Zm0 40h-64a12 12 0 0 0 0 24h64a12 12 0 1 0 0-24Zm0 40h-168a12 12 0 1 0 0 24h168a12 12 0 1 0 0-24ZM80 180a60 60 0 0 1-60-60a59.2 59.2 0 0 1 5.6-25.2A32 32 0 0 1 48 40a12.1 12.1 0 0 1 6.4 1.8l60.3 37.7A7.9 7.9 0 0 0 120 72a8 8 0 0 0-8-8a12 12 0 0 1 0-24a32 32 0 0 1 0 64a12.1 12.1 0 0 1-6.4-1.8L76.8 84.1a36 36 0 0 0-8.8 69.8v-39.4a12 12 0 0 1 12-12a12 12 0 0 1 12 12V154a35.8 35.8 0 0 0 22.9-25.3a12 12 0 0 1 23.3 5.8A59.8 59.8 0 0 1 80 180ZM40 72a9.3 9.3 0 0 0 .5 2.9a59.2 59.2 0 0 1 10.1-7.1l-5.3-3.3A7.9 7.9 0 0 0 40 72Z"></path></svg>