<svg xmlns="http://www.w3.org/2000/svg" xmlns:xlink="http://www.w3.org/1999/xlink" aria-hidden="true" role="img" class="iconify iconify--ph" width="1em" height="1em" preserveAspectRatio="xMidYMid meet" viewBox="0 0 256 256"><path fill="currentColor" d="M152.1 104a8 8 0 0 1 8-8h80a8 8 0 1 1 0 16h-80a8 8 0 0 1-8-8Zm88 24h-80a8 8 0 0 0 0 16h80a8 8 0 1 0 0-16Zm0 32h-80a8 8 0 0 0 0 16h80a8 8 0 1 0 0-16Zm0 32h-168a8 8 0 0 0 0 16h168a8 8 0 1 0 0-16ZM80 176a55.9 55.9 0 0 1-49.5-82.1A28 28 0 0 1 48 44a7.6 7.6 0 0 1 4.2 1.2L114 83.8a12 12 0 0 0-2-23.8a8 8 0 0 1 0-16a28 28 0 0 1 0 56a7.6 7.6 0 0 1-4.2-1.2l-30-18.7a40 40 0 0 0-5.8 79.1v-44.7a8 8 0 0 1 8-8a8 8 0 0 1 8 8v44.7a39.9 39.9 0 0 0 30.8-29.5a8 8 0 0 1 9.7-5.8a7.9 7.9 0 0 1 5.8 9.6A55.8 55.8 0 0 1 80 176ZM40 80.9a56.3 56.3 0 0 1 18.8-12.7l-12.8-8A11.9 11.9 0 0 0 36 72a11.8 11.8 0 0 0 4 8.9Z"></path></svg>