<svg xmlns="http://www.w3.org/2000/svg" xmlns:xlink="http://www.w3.org/1999/xlink" aria-hidden="true" role="img" class="iconify iconify--ph" width="1em" height="1em" preserveAspectRatio="xMidYMid meet" viewBox="0 0 256 256"><path fill="currentColor" d="M156.1 104a4 4 0 0 1 4-4h80a4 4 0 1 1 0 8h-80a4 4 0 0 1-4-4Zm84 28h-80a4 4 0 0 0 0 8h80a4 4 0 1 0 0-8Zm0 32h-80a4 4 0 0 0 0 8h80a4 4 0 1 0 0-8Zm0 32h-168a4 4 0 0 0 0 8h168a4 4 0 1 0 0-8ZM80 172a51.9 51.9 0 0 1-44.2-79.3A24 24 0 0 1 48 48a3.9 3.9 0 0 1 2.1.6l63 39.4a16 16 0 0 0-1.1-32a4 4 0 0 1 0-8a24 24 0 0 1 0 48a3.9 3.9 0 0 1-2.1-.6L78.9 76a44 44 0 0 0-3 87.8v-49.3a4 4 0 0 1 4-4a4 4 0 0 1 4 4v49.3a43.9 43.9 0 0 0 38.8-33.2a4.1 4.1 0 0 1 4.9-2.9a4.1 4.1 0 0 1 2.9 4.9A52 52 0 0 1 80 172ZM40.6 86.2a51.5 51.5 0 0 1 27.6-16.8L46.9 56a16 16 0 0 0-6.3 30.2Z"></path></svg>