<svg xmlns="http://www.w3.org/2000/svg" xmlns:xlink="http://www.w3.org/1999/xlink" aria-hidden="true" role="img" class="iconify iconify--ph" width="1em" height="1em" preserveAspectRatio="xMidYMid meet" viewBox="0 0 256 256"><path fill="currentColor" d="M207.7 174a4.1 4.1 0 0 1-3.5 2a4.6 4.6 0 0 1-2-.5L132 134.9V216a4 4 0 0 1-8 0v-81.1l-70.2 40.6a4.6 4.6 0 0 1-2 .5a4 4 0 0 1-2-7.5L120 128L49.8 87.5a4 4 0 0 1 4-7l70.2 40.6V40a4 4 0 0 1 8 0v81.1l70.2-40.6a4 4 0 1 1 4 7L136 128l70.2 40.5a4.1 4.1 0 0 1 1.5 5.5Z"></path></svg>