<svg xmlns="http://www.w3.org/2000/svg" xmlns:xlink="http://www.w3.org/1999/xlink" aria-hidden="true" role="img" class="iconify iconify--ph" width="1em" height="1em" preserveAspectRatio="xMidYMid meet" viewBox="0 0 256 256"><path fill="currentColor" d="m213.5 106.5l-75.8 24.7l46.9 64.5a6 6 0 0 1-4.9 9.5a5.9 5.9 0 0 1-4.8-2.5L128 138.2l-46.9 64.5a5.9 5.9 0 0 1-4.8 2.5a6 6 0 0 1-4.9-9.5l46.9-64.5l-75.8-24.7a6 6 0 0 1-3.9-7.5a6 6 0 0 1 7.6-3.9l75.8 24.6V40a6 6 0 0 1 12 0v79.7l75.8-24.6a6 6 0 0 1 7.6 3.9a6 6 0 0 1-3.9 7.5Z"></path></svg>