<svg xmlns="http://www.w3.org/2000/svg" xmlns:xlink="http://www.w3.org/1999/xlink" aria-hidden="true" role="img" class="iconify iconify--ph" width="1em" height="1em" preserveAspectRatio="xMidYMid meet" viewBox="0 0 256 256"><path fill="currentColor" d="m215.4 112.2l-68 22.1l42 57.8a12.1 12.1 0 0 1-2.6 16.8a12.5 12.5 0 0 1-7.1 2.3a11.9 11.9 0 0 1-9.7-5l-42-57.8l-42 57.8a11.9 11.9 0 0 1-9.7 5a12.5 12.5 0 0 1-7.1-2.3a12.1 12.1 0 0 1-2.6-16.8l42-57.8l-68-22.1A12 12 0 0 1 48 89.4l68 22.1V40a12 12 0 0 1 24 0v71.5l68-22.1a12 12 0 0 1 7.4 22.8Z"></path></svg>