<svg xmlns="http://www.w3.org/2000/svg" xmlns:xlink="http://www.w3.org/1999/xlink" aria-hidden="true" role="img" class="iconify iconify--ph" width="1em" height="1em" preserveAspectRatio="xMidYMid meet" viewBox="0 0 256 256"><path fill="currentColor" d="M211.1 176a7.7 7.7 0 0 1-6.9 4a7.3 7.3 0 0 1-4-1.1l-64.2-37V216a8 8 0 0 1-16 0v-74.1l-64.2 37a7.3 7.3 0 0 1-4 1.1a7.7 7.7 0 0 1-6.9-4a8 8 0 0 1 2.9-10.9L112 128L47.8 90.9a8 8 0 0 1 8-13.8l64.2 37V40a8 8 0 0 1 16 0v74.1l64.2-37a8 8 0 1 1 8 13.8L144 128l64.2 37.1a8 8 0 0 1 2.9 10.9Z"></path></svg>