<svg xmlns="http://www.w3.org/2000/svg" xmlns:xlink="http://www.w3.org/1999/xlink" aria-hidden="true" role="img" class="iconify iconify--ph" width="1em" height="1em" preserveAspectRatio="xMidYMid meet" viewBox="0 0 256 256"><path fill="currentColor" d="m212.9 104.6l-78.4 25.5l48.5 66.7a4 4 0 0 1-.9 5.6a4.3 4.3 0 0 1-2.4.8a4 4 0 0 1-3.2-1.7L128 134.8l-48.5 66.7a4 4 0 0 1-3.2 1.7a4.3 4.3 0 0 1-2.4-.8a4 4 0 0 1-.9-5.6l48.5-66.7l-78.4-25.5a4 4 0 0 1 2.4-7.6l78.5 25.5V40a4 4 0 0 1 8 0v82.5L210.5 97a4 4 0 1 1 2.4 7.6Z"></path></svg>