<svg xmlns="http://www.w3.org/2000/svg" xmlns:xlink="http://www.w3.org/1999/xlink" aria-hidden="true" role="img" class="iconify iconify--ph" width="1em" height="1em" preserveAspectRatio="xMidYMid meet" viewBox="0 0 256 256"><circle cx="128" cy="128" r="96" fill="currentColor" opacity=".2"></circle><path fill="currentColor" d="M128 24a104 104 0 1 0 57.5 190.7a8 8 0 0 0-8.8-13.4A88 88 0 1 1 216 128c0 26.4-10.9 32-20 32s-20-5.6-20-32V88a8 8 0 0 0-16 0v4.3A47.4 47.4 0 0 0 128 80a48 48 0 1 0 37.9 77.4c6 11.9 16.4 18.6 30.1 18.6c22.5 0 36-17.9 36-48A104.2 104.2 0 0 0 128 24Zm0 136a32 32 0 1 1 32-32a32.1 32.1 0 0 1-32 32Z"></path></svg>