<svg xmlns="http://www.w3.org/2000/svg" xmlns:xlink="http://www.w3.org/1999/xlink" aria-hidden="true" role="img" class="iconify iconify--ph" width="1em" height="1em" preserveAspectRatio="xMidYMid meet" viewBox="0 0 256 256"><path fill="currentColor" d="M232 128v1.5c-.4 14.3-5.7 30.5-28 30.5s-28-17.4-28-32V88a8 8 0 0 0-8.5-8a8.2 8.2 0 0 0-7.5 8.3v4A47.4 47.4 0 0 0 128 80a48 48 0 1 0 38.7 76.3a43.9 43.9 0 0 0 3.4 5c5.4 6.7 15.6 14.7 33.9 14.7a52.5 52.5 0 0 0 9.2-.8a4 4 0 0 1 4.1 6a104 104 0 0 1-91.4 50.8c-54.8-1.1-99.7-45.2-101.8-99.9A104 104 0 1 1 232 128Zm-136 0a32 32 0 1 0 32-32a32.1 32.1 0 0 0-32 32Z"></path></svg>