<svg xmlns="http://www.w3.org/2000/svg" xmlns:xlink="http://www.w3.org/1999/xlink" aria-hidden="true" role="img" class="iconify iconify--ph" width="1em" height="1em" preserveAspectRatio="xMidYMid meet" viewBox="0 0 256 256"><path fill="currentColor" d="M128 26a102 102 0 1 0 56.4 187a6 6 0 0 0-6.6-10a90 90 0 1 1 40.2-75c0 29.6-13.8 34-22 34s-22-4.4-22-34V88a6 6 0 0 0-12 0v9a46 46 0 1 0 4.3 56.4C171.8 166.6 182 174 196 174c21.3 0 34-17.2 34-46A102.2 102.2 0 0 0 128 26Zm0 136a34 34 0 1 1 34-34a34 34 0 0 1-34 34Z"></path></svg>