<svg xmlns="http://www.w3.org/2000/svg" xmlns:xlink="http://www.w3.org/1999/xlink" aria-hidden="true" role="img" class="iconify iconify--ph" width="1em" height="1em" preserveAspectRatio="xMidYMid meet" viewBox="0 0 256 256"><path fill="currentColor" d="M201 128a193.9 193.9 0 0 0 17.9-31.1c11.9-26.2 11.7-47.3-.4-59.4s-33.2-12.3-59.4-.4A193.9 193.9 0 0 0 128 55a193.9 193.9 0 0 0-31.1-17.9c-26.2-11.9-47.3-11.7-59.4.4s-12.3 33.2-.4 59.4A193.9 193.9 0 0 0 55 128a193.9 193.9 0 0 0-17.9 31.1c-11.9 26.2-11.7 47.3.4 59.4c6.1 6.1 14.5 9.2 24.8 9.2s21.7-2.9 34.6-8.8A193.9 193.9 0 0 0 128 201a193.9 193.9 0 0 0 31.1 17.9c12.9 5.9 24.6 8.8 34.6 8.8s18.7-3.1 24.8-9.2c12.1-12.1 12.3-33.2.4-59.4A193.9 193.9 0 0 0 201 128Zm-7.2-75.8c3.7 0 6.3.8 7.7 2.3c3.5 3.5 3.5 14.9-4.4 32.6a182.5 182.5 0 0 1-11.5 20.8q-8.4-9.9-18-19.5c-6.4-6.4-12.9-12.4-19.6-18c20-12.8 36.4-18.2 45.8-18.2ZM171 128a281.3 281.3 0 0 1-20.4 22.6a272.4 272.4 0 0 1-22.6 20.5a272.4 272.4 0 0 1-22.6-20.5A281.3 281.3 0 0 1 85 128a281.3 281.3 0 0 1 20.4-22.6A272.4 272.4 0 0 1 128 84.9a272.4 272.4 0 0 1 22.6 20.5A281.3 281.3 0 0 1 171 128ZM58.9 87.1C51 69.4 51 58 54.5 54.5c1.4-1.5 4-2.3 7.7-2.3c9.4 0 25.8 5.4 45.8 18.2c-6.7 5.6-13.2 11.6-19.6 18s-12.4 12.9-18 19.5a182.5 182.5 0 0 1-11.5-20.8Zm3.3 116.7c-3.7 0-6.3-.8-7.7-2.3c-3.5-3.5-3.5-14.9 4.4-32.6a182.5 182.5 0 0 1 11.5-20.8q8.4 9.9 18 19.5c6.4 6.4 12.9 12.4 19.6 18c-20 12.8-36.4 18.2-45.8 18.2Zm139.3-2.3c-5.2 5.3-25.8 1.8-53.5-15.9c6.7-5.6 13.2-11.6 19.6-18s12.4-12.9 18-19.5a182.5 182.5 0 0 1 11.5 20.8c7.9 17.7 7.9 29.1 4.4 32.6ZM144 128a16 16 0 1 1-16-16a16 16 0 0 1 16 16Z"></path></svg>