<svg xmlns="http://www.w3.org/2000/svg" xmlns:xlink="http://www.w3.org/1999/xlink" aria-hidden="true" role="img" class="iconify iconify--ph" width="1em" height="1em" preserveAspectRatio="xMidYMid meet" viewBox="0 0 256 256"><path fill="currentColor" d="M191.2 128c8.5-11.7 15.5-23.3 20.4-34.4c10.4-23 10.8-40.9 1.3-50.5s-27.5-9.1-50.5 1.3c-11.1 4.9-22.7 11.9-34.4 20.4c-11.7-8.5-23.3-15.5-34.4-20.4c-23-10.4-40.9-10.8-50.5-1.3S34 70.6 44.4 93.6c4.9 11.1 11.9 22.7 20.4 34.4c-8.5 11.7-15.5 23.3-20.4 34.4c-10.4 23-10.8 40.9-1.3 50.5c4.6 4.5 11.1 6.8 19.2 6.8s19.4-2.7 31.3-8.1s22.7-11.9 34.4-20.4c11.7 8.5 23.3 15.5 34.4 20.4s22.5 8.1 31.3 8.1s14.6-2.3 19.2-6.8c9.5-9.6 9.1-27.5-1.3-50.5c-4.9-11.1-11.9-22.7-20.4-34.4Zm16-79.2c6.9 7 5.9 22.1-2.8 41.6a182.1 182.1 0 0 1-18.3 30.9a287.9 287.9 0 0 0-24.2-27.2a278.1 278.1 0 0 0-27.3-24.3c33.7-24.1 62.4-31.2 72.6-21Zm-26 79.2a291.7 291.7 0 0 1-24.9 28.3a307.9 307.9 0 0 1-28.3 24.9a307.9 307.9 0 0 1-28.3-24.9A291.7 291.7 0 0 1 74.8 128a291.7 291.7 0 0 1 24.9-28.3A307.9 307.9 0 0 1 128 74.8a307.9 307.9 0 0 1 28.3 24.9a291.7 291.7 0 0 1 24.9 28.3ZM51.6 90.4c-8.7-19.5-9.7-34.6-2.8-41.6c3-3 7.7-4.5 13.6-4.5c14.1 0 35.3 8.5 59 25.5a278.1 278.1 0 0 0-27.3 24.3a287.9 287.9 0 0 0-24.2 27.2a182.1 182.1 0 0 1-18.3-30.9Zm-2.8 116.8c-6.9-7-5.9-22.1 2.8-41.6a182.1 182.1 0 0 1 18.3-30.9a287.9 287.9 0 0 0 24.2 27.2a278.1 278.1 0 0 0 27.3 24.3c-33.7 24.1-62.4 31.2-72.6 21Zm158.4 0c-10.2 10.2-38.9 3.1-72.6-21a278.1 278.1 0 0 0 27.3-24.3a287.9 287.9 0 0 0 24.2-27.2a182.1 182.1 0 0 1 18.3 30.9c8.7 19.5 9.7 34.6 2.8 41.6ZM136 128a8 8 0 1 1-8-8a8 8 0 0 1 8 8Z"></path></svg>