<svg xmlns="http://www.w3.org/2000/svg" xmlns:xlink="http://www.w3.org/1999/xlink" aria-hidden="true" role="img" class="iconify iconify--ph" width="1em" height="1em" preserveAspectRatio="xMidYMid meet" viewBox="0 0 256 256"><path fill="currentColor" d="M193.6 128a197.3 197.3 0 0 0 19.9-33.5c10.7-23.8 11-42.6.8-52.8s-29-9.9-52.8.8A197.3 197.3 0 0 0 128 62.4a197.3 197.3 0 0 0-33.5-19.9c-23.8-10.7-42.6-11-52.8-.8s-9.9 29 .8 52.8A197.3 197.3 0 0 0 62.4 128a197.3 197.3 0 0 0-19.9 33.5c-10.7 23.8-11 42.6-.8 52.8c5 4.9 12 7.4 20.6 7.4s20-2.7 32.2-8.2a197.3 197.3 0 0 0 33.5-19.9a197.3 197.3 0 0 0 33.5 19.9c12.2 5.5 23.1 8.2 32.2 8.2s15.6-2.5 20.6-7.4c10.2-10.2 9.9-29-.8-52.8a197.3 197.3 0 0 0-19.9-33.5Zm12.2-77.8c6.2 6.3 5 21-3.3 39.3A173.4 173.4 0 0 1 186 118a309.6 309.6 0 0 0-22.6-25.4A309.6 309.6 0 0 0 138 70c31.6-22.1 58.5-29 67.8-19.8ZM178.7 128a308 308 0 0 1-23.8 26.9a312.9 312.9 0 0 1-26.9 23.8a312.9 312.9 0 0 1-26.9-23.8A308 308 0 0 1 77.3 128a308 308 0 0 1 23.8-26.9A312.9 312.9 0 0 1 128 77.3a312.9 312.9 0 0 1 26.9 23.8a308 308 0 0 1 23.8 26.9ZM53.5 89.5c-8.3-18.3-9.5-33-3.3-39.3c2.7-2.7 6.8-4 12.1-4c13.1 0 33.2 8 55.7 23.7a331 331 0 0 0-25.4 22.7A309.6 309.6 0 0 0 70 118a173.4 173.4 0 0 1-16.5-28.5Zm-3.3 116.3c-6.2-6.3-5-21 3.3-39.3A173.4 173.4 0 0 1 70 138a309.6 309.6 0 0 0 22.6 25.4A309.6 309.6 0 0 0 118 186c-31.6 22.1-58.5 29-67.8 19.8Zm155.6 0c-2.7 2.7-6.8 4-12.1 4c-13.1 0-33.2-8-55.7-23.7a331 331 0 0 0 25.4-22.7A309.6 309.6 0 0 0 186 138a173.4 173.4 0 0 1 16.5 28.5c8.3 18.3 9.5 33 3.3 39.3ZM138 128a10 10 0 1 1-10-10a10 10 0 0 1 10 10Z"></path></svg>