<svg xmlns="http://www.w3.org/2000/svg" xmlns:xlink="http://www.w3.org/1999/xlink" aria-hidden="true" role="img" class="iconify iconify--ph" width="1em" height="1em" preserveAspectRatio="xMidYMid meet" viewBox="0 0 256 256"><path fill="currentColor" d="M196.1 128a195.3 195.3 0 0 0 19.2-32.7c11.1-24.6 11.2-44.2.4-55c-17.5-17.4-53.2-4.9-87.7 19.7c-34.5-24.6-70.2-37.1-87.7-19.7c-10.8 10.8-10.7 30.4.4 55A195.3 195.3 0 0 0 59.9 128a195.3 195.3 0 0 0-19.2 32.7c-11.1 24.6-11.2 44.2-.4 55c5.6 5.6 13.1 8.1 21.9 8.1c18.4 0 42.4-11.1 65.8-27.8c23.4 16.7 47.4 27.8 65.8 27.8c8.8 0 16.3-2.5 21.9-8.1c10.8-10.8 10.7-30.4-.4-55a195.3 195.3 0 0 0-19.2-32.7Zm-2.3-79.7c4.8 0 8.4 1.1 10.6 3.3c5.6 5.7 4.2 19.5-3.7 37.1a169.7 169.7 0 0 1-14.8 25.9c-6.4-7.9-13.5-15.7-21.1-23.4s-15.4-14.5-23.5-21.1c21.9-14.9 40.7-21.8 52.5-21.8ZM55.3 88.7c-7.9-17.6-9.3-31.4-3.7-37.1c2.2-2.2 5.8-3.3 10.6-3.3c11.8 0 30.6 6.9 52.5 21.8c-8.1 6.6-16 13.7-23.5 21.1s-14.7 15.5-21.1 23.4a169.7 169.7 0 0 1-14.8-25.9Zm-3.7 115.7c-5.6-5.7-4.2-19.5 3.7-37.1a169.7 169.7 0 0 1 14.8-25.9c6.4 7.9 13.5 15.7 21.1 23.4s15.4 14.5 23.5 21.1c-30.8 20.9-55.5 26.1-63.1 18.5Zm50.9-50.9A277.3 277.3 0 0 1 79.9 128a277.3 277.3 0 0 1 22.6-25.5A314.1 314.1 0 0 1 128 79.8a314.1 314.1 0 0 1 25.5 22.7a277.3 277.3 0 0 1 22.6 25.5a277.3 277.3 0 0 1-22.6 25.5a314.1 314.1 0 0 1-25.5 22.7a314.1 314.1 0 0 1-25.5-22.7Zm101.9 50.9c-2.2 2.2-5.8 3.3-10.6 3.3c-11.8 0-30.6-6.9-52.5-21.8c8.1-6.6 16-13.7 23.5-21.1s14.7-15.5 21.1-23.4a169.7 169.7 0 0 1 14.8 25.9c7.9 17.6 9.3 31.4 3.7 37.1ZM140 128a12 12 0 1 1-12-12a12 12 0 0 1 12 12Z"></path></svg>