<svg xmlns="http://www.w3.org/2000/svg" xmlns:xlink="http://www.w3.org/1999/xlink" aria-hidden="true" role="img" class="iconify iconify--ph" width="1em" height="1em" preserveAspectRatio="xMidYMid meet" viewBox="0 0 256 256"><path fill="currentColor" d="M128 26h-.1a102.1 102.1 0 1 0 .1 0Zm0 192a90 90 0 0 1-11.9-179.2C106.1 56.2 106 71.2 106 72a22 22 0 0 0 44 0a6 6 0 0 0-12 0a10 10 0 0 1-20 0c0-.1.3-16.8 12.9-33.9A90 90 0 0 1 128 218Zm-36-80a10 10 0 1 1 10-10a10 10 0 0 1-10 10Zm82-10a10 10 0 1 1-10-10a10 10 0 0 1 10 10Zm-14.5 36.7a6 6 0 0 1-1.6 8.3a54.2 54.2 0 0 1-59.8 0a6 6 0 0 1 6.7-10a41.9 41.9 0 0 0 46.4 0a6 6 0 0 1 8.3 1.7Z"></path></svg>