<svg xmlns="http://www.w3.org/2000/svg" xmlns:xlink="http://www.w3.org/1999/xlink" aria-hidden="true" role="img" class="iconify iconify--ph" width="1em" height="1em" preserveAspectRatio="xMidYMid meet" viewBox="0 0 256 256"><path fill="currentColor" d="M128 24h-.1a104.1 104.1 0 1 0 .1 0Zm0 192a88 88 0 0 1-15.5-174.6C104.1 57.7 104 71.3 104 72a24 24 0 0 0 48 0a8 8 0 0 0-16 0a8 8 0 0 1-16 0c0-.1.3-15.6 11.9-31.9A88 88 0 0 1 128 216Zm-36-76a12 12 0 1 1 12-12a12 12 0 0 1-12 12Zm84-12a12 12 0 1 1-12-12a12 12 0 0 1 12 12Zm-14.8 35.6a8.1 8.1 0 0 1-2.2 11.1a56.3 56.3 0 0 1-62 0a8.1 8.1 0 0 1-2.2-11.1a8 8 0 0 1 11.1-2.3a39.8 39.8 0 0 0 44.2 0a8 8 0 0 1 11.1 2.3Z"></path></svg>