<svg xmlns="http://www.w3.org/2000/svg" xmlns:xlink="http://www.w3.org/1999/xlink" aria-hidden="true" role="img" class="iconify iconify--ph" width="1em" height="1em" preserveAspectRatio="xMidYMid meet" viewBox="0 0 256 256"><path fill="currentColor" d="M128 28a100 100 0 1 0 100 100A100.2 100.2 0 0 0 128 28Zm0 192a92 92 0 0 1-8-183.6c-11.8 18.3-12 34.8-12 35.6a20 20 0 0 0 40 0a4 4 0 0 0-8 0a12 12 0 0 1-24 0c0-.2.3-17.9 13.9-36a92 92 0 0 1-1.9 184Zm-36-84a8 8 0 1 1 8-8a8 8 0 0 1-8 8Zm80-8a8 8 0 1 1-8-8a8 8 0 0 1 8 8Zm-14.1 37.8a4 4 0 0 1-1.1 5.5a52 52 0 0 1-57.6 0a4 4 0 0 1-1.1-5.5a3.9 3.9 0 0 1 5.6-1.1a44.1 44.1 0 0 0 48.6 0a3.9 3.9 0 0 1 5.6 1.1Z"></path></svg>