<svg xmlns="http://www.w3.org/2000/svg" xmlns:xlink="http://www.w3.org/1999/xlink" aria-hidden="true" role="img" class="iconify iconify--ph" width="1em" height="1em" preserveAspectRatio="xMidYMid meet" viewBox="0 0 256 256"><path fill="currentColor" d="M128 20h-.2a108.1 108.1 0 1 0 .2 0Zm0 192a84 84 0 0 1-22.5-164.9C100.1 60.8 100 71.3 100 72a28.1 28.1 0 0 0 28 28a27.5 27.5 0 0 0 14-3.8a12 12 0 1 0-12-20.7a4.6 4.6 0 0 1-2 .5a4 4 0 0 1-4-3.9c0-.8.6-13.8 9.9-27.9A84 84 0 0 1 128 212Zm-36-68a16 16 0 1 1 16-16a16 16 0 0 1-16 16Zm88-16a16 16 0 1 1-16-16a16 16 0 0 1 16 16Zm-15.5 33.4a11.9 11.9 0 0 1-3.3 16.6a60.1 60.1 0 0 1-66.4 0a12 12 0 0 1 13.3-20a36 36 0 0 0 39.8 0a11.9 11.9 0 0 1 16.6 3.4Z"></path></svg>