<svg xmlns="http://www.w3.org/2000/svg" xmlns:xlink="http://www.w3.org/1999/xlink" aria-hidden="true" role="img" class="iconify iconify--ph" width="1em" height="1em" preserveAspectRatio="xMidYMid meet" viewBox="0 0 256 256"><path fill="currentColor" d="M168 40.6V32a24.1 24.1 0 0 0-24-24h-32a24.1 24.1 0 0 0-24 24v8.6A56 56 0 0 0 40 96v120a16 16 0 0 0 16 16h144a16 16 0 0 0 16-16V96a56 56 0 0 0-48-55.4ZM104 32a8 8 0 0 1 8-8h32a8 8 0 0 1 8 8v8h-48Zm8 40h32a8 8 0 0 1 0 16h-32a8 8 0 0 1 0-16Zm64 144H80v-40h56v8a8 8 0 0 0 16 0v-8h24Zm0-56H80v-8a16 16 0 0 1 16-16h64a16 16 0 0 1 16 16Z"></path></svg>