<svg xmlns="http://www.w3.org/2000/svg" xmlns:xlink="http://www.w3.org/1999/xlink" aria-hidden="true" role="img" class="iconify iconify--ph" width="1em" height="1em" preserveAspectRatio="xMidYMid meet" viewBox="0 0 256 256"><path fill="currentColor" d="M216 42H68.5a14 14 0 0 0-12 6.8l-45.6 76.1a5.8 5.8 0 0 0 0 6.2l45.6 76.1a14 14 0 0 0 12 6.8H216a14 14 0 0 0 14-14V56a14 14 0 0 0-14-14Zm2 158a2 2 0 0 1-2 2H68.5a2.1 2.1 0 0 1-1.7-1L23 128l43.8-73a2.1 2.1 0 0 1 1.7-1H216a2 2 0 0 1 2 2Zm-53.8-91.8L144.5 128l19.7 19.8a5.9 5.9 0 1 1-8.4 8.4L136 136.5l-19.8 19.7a5.9 5.9 0 0 1-8.4-8.4l19.7-19.8l-19.7-19.8a5.9 5.9 0 0 1 8.4-8.4l19.8 19.7l19.8-19.7a5.9 5.9 0 0 1 8.4 8.4Z"></path></svg>