<svg xmlns="http://www.w3.org/2000/svg" xmlns:xlink="http://www.w3.org/1999/xlink" aria-hidden="true" role="img" class="iconify iconify--ph" width="1em" height="1em" preserveAspectRatio="xMidYMid meet" viewBox="0 0 256 256"><path fill="currentColor" d="M216 44H68.5a12.1 12.1 0 0 0-10.3 5.8l-45.6 76.1a4 4 0 0 0 0 4.2l45.6 76.1a12.1 12.1 0 0 0 10.3 5.8H216a12 12 0 0 0 12-12V56a12 12 0 0 0-12-12Zm4 156a4 4 0 0 1-4 4H68.5a3.9 3.9 0 0 1-3.4-1.9L20.7 128l44.4-74.1a3.9 3.9 0 0 1 3.4-1.9H216a4 4 0 0 1 4 4Zm-57.2-93.2L141.7 128l21.1 21.2a3.9 3.9 0 0 1 0 5.6a3.8 3.8 0 0 1-2.8 1.2a3.9 3.9 0 0 1-2.8-1.2L136 133.7l-21.2 21.1a3.8 3.8 0 0 1-2.8 1.2a3.9 3.9 0 0 1-2.8-1.2a3.9 3.9 0 0 1 0-5.6l21.1-21.2l-21.1-21.2a4 4 0 0 1 5.6-5.6l21.2 21.1l21.2-21.1a4 4 0 1 1 5.6 5.6Z"></path></svg>