<svg xmlns="http://www.w3.org/2000/svg" xmlns:xlink="http://www.w3.org/1999/xlink" aria-hidden="true" role="img" class="iconify iconify--ph" width="1em" height="1em" preserveAspectRatio="xMidYMid meet" viewBox="0 0 256 256"><path fill="currentColor" d="M172 48.5V36a28.1 28.1 0 0 0-28-28h-32a28.1 28.1 0 0 0-28 28v12.5A60.2 60.2 0 0 0 32 108v112a20.1 20.1 0 0 0 20 20h152a20.1 20.1 0 0 0 20-20V108a60.2 60.2 0 0 0-52-59.5ZM112 32h32a4 4 0 0 1 4 4v12h-40V36a4 4 0 0 1 4-4Zm48 128H96v-8a4 4 0 0 1 4-4h56a4 4 0 0 1 4 4Zm-64 24h32v4a12 12 0 0 0 24 0v-4h8v32H96Zm104 32h-16v-64a28.1 28.1 0 0 0-28-28h-56a28.1 28.1 0 0 0-28 28v64H56V108a36 36 0 0 1 36-36h72a36 36 0 0 1 36 36Zm-40-116a12 12 0 0 1-12 12h-40a12 12 0 0 1 0-24h40a12 12 0 0 1 12 12Z"></path></svg>