<svg xmlns="http://www.w3.org/2000/svg" xmlns:xlink="http://www.w3.org/1999/xlink" aria-hidden="true" role="img" class="iconify iconify--ph" width="1em" height="1em" preserveAspectRatio="xMidYMid meet" viewBox="0 0 256 256"><path fill="currentColor" d="M216 36H68.5a20 20 0 0 0-17.1 9.7L5.7 121.8a12 12 0 0 0 0 12.4l45.7 76.1a20 20 0 0 0 17.1 9.7H216a20.1 20.1 0 0 0 20-20V56a20.1 20.1 0 0 0-20-20Zm-4 160H70.8L30 128l40.8-68H212Zm-108.5-52.5L119 128l-15.5-15.5a12 12 0 0 1 17-17L136 111l15.5-15.5a12 12 0 0 1 17 17L153 128l15.5 15.5a12 12 0 0 1 0 17a12.1 12.1 0 0 1-17 0L136 145l-15.5 15.5a12.1 12.1 0 0 1-17 0a12 12 0 0 1 0-17Z"></path></svg>