<svg xmlns="http://www.w3.org/2000/svg" xmlns:xlink="http://www.w3.org/1999/xlink" aria-hidden="true" role="img" class="iconify iconify--ph" width="1em" height="1em" preserveAspectRatio="xMidYMid meet" viewBox="0 0 256 256"><path fill="currentColor" d="M216 40H68.5a16.2 16.2 0 0 0-13.7 7.8L9.1 123.9a8 8 0 0 0 0 8.2l45.7 76.1a16.2 16.2 0 0 0 13.7 7.8H216a16 16 0 0 0 16-16V56a16 16 0 0 0-16-16Zm-50.3 106.3a8.1 8.1 0 0 1 0 11.4a8.3 8.3 0 0 1-5.7 2.3a8.5 8.5 0 0 1-5.7-2.3L136 139.3l-18.3 18.4a8.3 8.3 0 0 1-5.7 2.3a8.5 8.5 0 0 1-5.7-2.3a8.1 8.1 0 0 1 0-11.4l18.4-18.3l-18.4-18.3a8.1 8.1 0 0 1 11.4-11.4l18.3 18.4l18.3-18.4a8.1 8.1 0 0 1 11.4 11.4L147.3 128Z"></path></svg>