<svg xmlns="http://www.w3.org/2000/svg" xmlns:xlink="http://www.w3.org/1999/xlink" aria-hidden="true" role="img" class="iconify iconify--ph" width="1em" height="1em" preserveAspectRatio="xMidYMid meet" viewBox="0 0 256 256"><path fill="currentColor" d="M61.7 204.1L16 128l45.7-76.1a7.9 7.9 0 0 1 6.8-3.9H216a8 8 0 0 1 8 8v144a8 8 0 0 1-8 8H68.5a7.9 7.9 0 0 1-6.8-3.9Z" opacity=".2"></path><path fill="currentColor" d="M216 40H68.5a16.2 16.2 0 0 0-13.7 7.8L9.2 123.9a7.6 7.6 0 0 0 0 8.2l45.6 76.1a16.2 16.2 0 0 0 13.7 7.8H216a16 16 0 0 0 16-16V56a16 16 0 0 0-16-16ZM61.7 204.1l6.8-4.1ZM216 200H68.5l-43.2-72l43.2-72H216Z"></path><path fill="currentColor" d="M106.4 157.7a8 8 0 0 0 5.6 2.3a8.3 8.3 0 0 0 5.7-2.3l18.3-18.4l18.4 18.4a8 8 0 0 0 5.6 2.3a8.3 8.3 0 0 0 5.7-2.3a8.1 8.1 0 0 0 0-11.4L147.3 128l18.4-18.3a8.1 8.1 0 0 0 0-11.4a8 8 0 0 0-11.3 0L136 116.7l-18.3-18.4a8 8 0 0 0-11.3 11.4l18.3 18.3l-18.3 18.3a8 8 0 0 0 0 11.4Z"></path></svg>