<svg xmlns="http://www.w3.org/2000/svg" xmlns:xlink="http://www.w3.org/1999/xlink" aria-hidden="true" role="img" class="iconify iconify--ph" width="1em" height="1em" preserveAspectRatio="xMidYMid meet" viewBox="0 0 256 256"><path fill="currentColor" d="M216 60h-37.4a52 52 0 0 0-101.2 0H40a20.1 20.1 0 0 0-20 20v128a20.1 20.1 0 0 0 20 20h176a20.1 20.1 0 0 0 20-20V80a20.1 20.1 0 0 0-20-20Zm-88-16a28 28 0 0 1 25.3 16h-50.6A28 28 0 0 1 128 44Zm84 160H44V84h32v20a12 12 0 0 0 24 0V84h56v20a12 12 0 0 0 24 0V84h32Z"></path></svg>