<svg xmlns="http://www.w3.org/2000/svg" xmlns:xlink="http://www.w3.org/1999/xlink" aria-hidden="true" role="img" class="iconify iconify--ph" width="1em" height="1em" preserveAspectRatio="xMidYMid meet" viewBox="0 0 256 256"><path fill="currentColor" d="M216 66h-42.4a46 46 0 0 0-91.2 0H40a14 14 0 0 0-14 14v128a14 14 0 0 0 14 14h176a14 14 0 0 0 14-14V80a14 14 0 0 0-14-14Zm-88-28a34.1 34.1 0 0 1 33.5 28h-67A34.1 34.1 0 0 1 128 38Zm90 170a2 2 0 0 1-2 2H40a2 2 0 0 1-2-2V80a2 2 0 0 1 2-2h42v26a6 6 0 0 0 12 0V78h68v26a6 6 0 0 0 12 0V78h42a2 2 0 0 1 2 2Z"></path></svg>