<svg xmlns="http://www.w3.org/2000/svg" xmlns:xlink="http://www.w3.org/1999/xlink" aria-hidden="true" role="img" class="iconify iconify--ph" width="1em" height="1em" preserveAspectRatio="xMidYMid meet" viewBox="0 0 256 256"><path fill="currentColor" d="M216 68h-44.2a44 44 0 0 0-87.6 0H40a12 12 0 0 0-12 12v128a12 12 0 0 0 12 12h176a12 12 0 0 0 12-12V80a12 12 0 0 0-12-12Zm-88-32a36.1 36.1 0 0 1 35.8 32H92.2A36.1 36.1 0 0 1 128 36Zm92 172a4 4 0 0 1-4 4H40a4 4 0 0 1-4-4V80a4 4 0 0 1 4-4h44v28a4 4 0 0 0 8 0V76h72v28a4 4 0 0 0 8 0V76h44a4 4 0 0 1 4 4Z"></path></svg>