<svg xmlns="http://www.w3.org/2000/svg" xmlns:xlink="http://www.w3.org/1999/xlink" aria-hidden="true" role="img" class="iconify iconify--ph" width="1em" height="1em" preserveAspectRatio="xMidYMid meet" viewBox="0 0 256 256"><path fill="currentColor" d="M128 12a92.1 92.1 0 0 0-92 92c0 24.5 9.5 50.1 26.2 70.2C72 186 83.4 195 95.6 200.7l-10.7 26.8A12 12 0 0 0 96 244h64a12 12 0 0 0 11.1-16.5l-10.7-26.8c12.2-5.7 23.6-14.7 33.4-26.5c16.7-20.1 26.2-45.7 26.2-70.2a92.1 92.1 0 0 0-92-92Zm14.3 208h-28.6l5.1-12.6a70.8 70.8 0 0 0 18.4 0Zm33-61.1C161.9 175.1 145.1 184 128 184s-33.9-8.9-47.3-25.1S60 122.8 60 104a68 68 0 0 1 136 0c0 18.8-7.7 39.3-20.7 54.9Zm-2-70.9a12 12 0 0 1-7.3 15.3a11.6 11.6 0 0 1-4 .7a12.1 12.1 0 0 1-11.4-8A24 24 0 0 0 136 81.4a12 12 0 0 1 8-22.7A48.3 48.3 0 0 1 173.3 88Z"></path></svg>