<svg xmlns="http://www.w3.org/2000/svg" xmlns:xlink="http://www.w3.org/1999/xlink" aria-hidden="true" role="img" class="iconify iconify--ph" width="1em" height="1em" preserveAspectRatio="xMidYMid meet" viewBox="0 0 256 256"><path fill="currentColor" d="M128 16a88.1 88.1 0 0 0-88 88c0 23.4 9.4 49.4 25.1 69.5c11.9 15.2 26.2 25.7 41.3 30.9L96.6 229a8 8 0 0 0 .8 7.5a7.9 7.9 0 0 0 6.6 3.5h48a7.9 7.9 0 0 0 6.6-3.5a8 8 0 0 0 .8-7.5l-9.8-24.6c15.1-5.2 29.4-15.7 41.3-30.9c15.7-20.1 25.1-46.1 25.1-69.5a88.1 88.1 0 0 0-88-88Zm48.7 87.9h-1.4a8.1 8.1 0 0 1-7.9-6.7a39.7 39.7 0 0 0-32.7-32.7a8.1 8.1 0 0 1-6.6-9.3a7.9 7.9 0 0 1 9.2-6.5a55.9 55.9 0 0 1 45.9 45.9a7.9 7.9 0 0 1-6.5 9.3Z"></path></svg>