<svg xmlns="http://www.w3.org/2000/svg" xmlns:xlink="http://www.w3.org/1999/xlink" aria-hidden="true" role="img" class="iconify iconify--ph" width="1em" height="1em" preserveAspectRatio="xMidYMid meet" viewBox="0 0 256 256"><path fill="currentColor" d="M128 18a86.1 86.1 0 0 0-86 86c0 23 9.2 48.5 24.7 68.3c12.2 15.5 26.8 26.1 42.4 30.8l-10.7 26.7a6.2 6.2 0 0 0 .6 5.6a6.1 6.1 0 0 0 5 2.6h48a6.1 6.1 0 0 0 5-2.6a6.2 6.2 0 0 0 .6-5.6l-10.7-26.7c15.6-4.7 30.2-15.3 42.4-30.8C204.8 152.5 214 127 214 104a86.1 86.1 0 0 0-86-86Zm15.1 208h-30.2l8.1-20.4a61.4 61.4 0 0 0 14 0ZM128 194c-33.5 0-74-40.1-74-90a74 74 0 0 1 148 0c0 49.9-40.5 90-74 90Zm48.3-92.1h-1a6.1 6.1 0 0 1-5.9-5A41.8 41.8 0 0 0 135 62.6a6 6 0 0 1 2-11.9A54 54 0 0 1 181.3 95a6 6 0 0 1-5 6.9Z"></path></svg>