<svg xmlns="http://www.w3.org/2000/svg" xmlns:xlink="http://www.w3.org/1999/xlink" aria-hidden="true" role="img" class="iconify iconify--ph" width="1em" height="1em" preserveAspectRatio="xMidYMid meet" viewBox="0 0 256 256"><path fill="currentColor" d="M128 20a84.1 84.1 0 0 0-84 84c0 22.6 9.1 47.6 24.3 67c12.5 16 27.5 26.5 43.5 30.8l-11.5 28.7a3.8 3.8 0 0 0 .4 3.7a4 4 0 0 0 3.3 1.8h48a4 4 0 0 0 3.3-1.8a3.8 3.8 0 0 0 .4-3.7l-11.5-28.7c16-4.3 31-14.8 43.5-30.8c15.2-19.4 24.3-44.4 24.3-67a84.1 84.1 0 0 0-84-84Zm18.1 208h-36.2l9.8-24.6a57.7 57.7 0 0 0 16.6 0ZM128 196c-42.1 0-76-50.3-76-92a76 76 0 0 1 152 0c0 41.7-33.9 92-76 92Zm51.3-100.7a4 4 0 0 1-3.3 4.6h-.7a4 4 0 0 1-3.9-3.3a44 44 0 0 0-36.1-36.1a4 4 0 0 1 1.4-7.9a52.1 52.1 0 0 1 42.6 42.7Z"></path></svg>