<svg xmlns="http://www.w3.org/2000/svg" xmlns:xlink="http://www.w3.org/1999/xlink" aria-hidden="true" role="img" class="iconify iconify--ph" width="1em" height="1em" preserveAspectRatio="xMidYMid meet" viewBox="0 0 256 256"><path fill="currentColor" d="M206.6 94.6a32 32 0 0 0-45.2-45.2L128 82.7l45.3 45.3ZM49.4 161.4a32 32 0 0 0 45.2 45.2l33.4-33.3L82.7 128Zm45.2-112a32 32 0 0 0-45.2 45.2L82.7 128L128 82.7Zm78.7 78.6L128 173.3l33.4 33.3a32 32 0 0 0 45.2-45.2Z" opacity=".2"></path><circle cx="128" cy="128" r="12" fill="currentColor"></circle><path fill="currentColor" d="m184.6 128l27.7-27.7a40 40 0 0 0-56.6-56.6L128 71.4l-27.7-27.7a40 40 0 0 0-56.6 56.6L71.4 128l-27.7 27.7a40 40 0 0 0 56.6 56.6l27.7-27.7l27.7 27.7a40 40 0 0 0 56.6-56.6ZM167 55a24 24 0 0 1 34 34l-27.7 27.7l-34-34Zm-5.1 73L128 161.9L94.1 128L128 94.1ZM55 89a24 24 0 0 1 34-34l27.7 27.7l-34 34Zm34 112a24 24 0 0 1-34-34l27.7-27.7l34 34Zm112 0a24.1 24.1 0 0 1-34 0l-27.7-27.7l34-34L201 167a24.1 24.1 0 0 1 0 34Z"></path></svg>