<svg xmlns="http://www.w3.org/2000/svg" xmlns:xlink="http://www.w3.org/1999/xlink" aria-hidden="true" role="img" class="iconify iconify--ph" width="1em" height="1em" preserveAspectRatio="xMidYMid meet" viewBox="0 0 256 256"><path fill="currentColor" d="m190.2 128l24.9-24.9a44 44 0 1 0-62.2-62.2L128 65.8l-24.9-24.9a44 44 0 1 0-62.2 62.2L65.8 128l-24.9 24.9a44 44 0 1 0 62.2 62.2l24.9-24.9l24.9 24.9a44 44 0 1 0 62.2-62.2Zm-20.3-70.1a19.9 19.9 0 1 1 28.2 28.2L173.3 111L145 82.7ZM156.3 128L128 156.3L99.7 128L128 99.7ZM57.9 86.1a19.9 19.9 0 1 1 28.2-28.2L111 82.7L82.7 111Zm28.2 112a19.9 19.9 0 1 1-28.2-28.2L82.7 145l28.3 28.3Zm112 0a19.8 19.8 0 0 1-28.2 0L145 173.3l28.3-28.3l24.8 24.9a19.8 19.8 0 0 1 0 28.2Z"></path></svg>