<svg xmlns="http://www.w3.org/2000/svg" xmlns:xlink="http://www.w3.org/1999/xlink" aria-hidden="true" role="img" class="iconify iconify--ph" width="1em" height="1em" preserveAspectRatio="xMidYMid meet" viewBox="0 0 256 256"><path fill="currentColor" d="M116 128a12 12 0 1 1 12 12a12 12 0 0 1-12-12Zm96.3 27.7a40 40 0 0 1-56.6 56.6L128 184.6l-27.7 27.7a40 40 0 0 1-56.6-56.6L71.4 128l-27.7-27.7a40 40 0 0 1 56.6-56.6L128 71.4l27.7-27.7a40 40 0 0 1 56.6 56.6L184.6 128ZM94.1 128l33.9 33.9l33.9-33.9L128 94.1Zm45.2-45.3l34 34L201 89a24 24 0 0 0-34-34Zm-22.6 90.6l-34-34L55 167a24 24 0 0 0 34 34Z"></path></svg>