<svg xmlns="http://www.w3.org/2000/svg" xmlns:xlink="http://www.w3.org/1999/xlink" aria-hidden="true" role="img" class="iconify iconify--ph" width="1em" height="1em" preserveAspectRatio="xMidYMid meet" viewBox="0 0 256 256"><path fill="currentColor" d="m178.9 128l30.6-30.5a36.1 36.1 0 0 0-51-51L128 77.1L97.5 46.5a36.1 36.1 0 0 0-51 51L77.1 128l-30.6 30.5a36.1 36.1 0 0 0 51 51l30.5-30.6l30.5 30.6a36.1 36.1 0 0 0 51-51Zm-14.7-75.8a28 28 0 0 1 39.6 39.6l-30.5 30.5l-39.6-39.6Zm3.4 75.8L128 167.6L88.4 128L128 88.4ZM52.2 91.8a28 28 0 0 1 39.6-39.6l30.5 30.5l-39.6 39.6Zm39.6 112a28 28 0 0 1-39.6-39.6l30.5-30.5l39.6 39.6Zm112 0a28 28 0 0 1-39.6 0l-30.5-30.5l39.6-39.6l30.5 30.5a28 28 0 0 1 0 39.6ZM120 128a8 8 0 1 1 8 8a8 8 0 0 1-8-8Z"></path></svg>