<svg xmlns="http://www.w3.org/2000/svg" xmlns:xlink="http://www.w3.org/1999/xlink" aria-hidden="true" role="img" class="iconify iconify--ph" width="1em" height="1em" preserveAspectRatio="xMidYMid meet" viewBox="0 0 256 256"><path fill="currentColor" d="m181.7 128l29.2-29.1a38 38 0 0 0-53.8-53.8L128 74.3L98.9 45.1a38 38 0 0 0-53.8 53.8L74.3 128l-29.2 29.1a38 38 0 0 0 53.8 53.8l29.1-29.2l29.1 29.2a38 38 0 0 0 53.8-53.8Zm-16.1-74.4a26 26 0 0 1 36.8 36.8l-29.1 29.1l-36.8-36.8Zm-.8 74.4L128 164.8L91.2 128L128 91.2ZM53.6 90.4a26 26 0 0 1 36.8-36.8l29.1 29.1l-36.8 36.8Zm36.8 112a26 26 0 0 1-36.8-36.8l29.1-29.1l36.8 36.8Zm112 0a26.1 26.1 0 0 1-36.8 0l-29.1-29.1l36.8-36.8l29.1 29.1a26.1 26.1 0 0 1 0 36.8ZM118 128a10 10 0 1 1 10 10a10 10 0 0 1-10-10Z"></path></svg>