<svg xmlns="http://www.w3.org/2000/svg" xmlns:xlink="http://www.w3.org/1999/xlink" aria-hidden="true" role="img" class="iconify iconify--ph" width="1em" height="1em" preserveAspectRatio="xMidYMid meet" viewBox="0 0 256 256"><path fill="currentColor" d="M24 100h28v72H32a4 4 0 0 0 0 8h192a4 4 0 0 0 0-8h-20v-72h28a3.9 3.9 0 0 0 3.8-2.9a4 4 0 0 0-1.7-4.5l-104-64a4 4 0 0 0-4.2 0l-104 64a4 4 0 0 0-1.7 4.5A3.9 3.9 0 0 0 24 100Zm36 0h40v72H60Zm88 0v72h-40v-72Zm48 72h-40v-72h40ZM128 36.7L217.9 92H38.1ZM244 208a4 4 0 0 1-4 4H16a4 4 0 0 1 0-8h224a4 4 0 0 1 4 4Z"></path></svg>