<svg xmlns="http://www.w3.org/2000/svg" xmlns:xlink="http://www.w3.org/1999/xlink" aria-hidden="true" role="img" class="iconify iconify--ph" width="1em" height="1em" preserveAspectRatio="xMidYMid meet" viewBox="0 0 256 256"><path fill="currentColor" d="M24 108h20v48H32a12 12 0 0 0 0 24h192a12 12 0 0 0 0-24h-12v-48h20a12 12 0 0 0 6.3-22.2l-104-64a11.9 11.9 0 0 0-12.6 0l-104 64A12 12 0 0 0 24 108Zm44 0h24v48H68Zm72 0v48h-24v-48Zm48 48h-24v-48h24ZM128 46.1L189.6 84H66.4ZM252 208a12 12 0 0 1-12 12H16a12 12 0 0 1 0-24h224a12 12 0 0 1 12 12Z"></path></svg>