<svg xmlns="http://www.w3.org/2000/svg" xmlns:xlink="http://www.w3.org/1999/xlink" aria-hidden="true" role="img" class="iconify iconify--ph" width="1em" height="1em" preserveAspectRatio="xMidYMid meet" viewBox="0 0 256 256"><path fill="currentColor" d="M248 208a8 8 0 0 1-8 8H16a8 8 0 0 1 0-16h224a8 8 0 0 1 8 8ZM16.3 98.2a8 8 0 0 1 3.5-9l104-64a7.9 7.9 0 0 1 8.4 0l104 64A8 8 0 0 1 232 104h-24v64h16a8 8 0 0 1 0 16H32a8 8 0 0 1 0-16h16v-64H24a8 8 0 0 1-7.7-5.8ZM144 160a8 8 0 0 0 16 0v-48a8 8 0 0 0-16 0Zm-48 0a8 8 0 0 0 16 0v-48a8 8 0 0 0-16 0Z"></path></svg>