<svg xmlns="http://www.w3.org/2000/svg" xmlns:xlink="http://www.w3.org/1999/xlink" aria-hidden="true" role="img" class="iconify iconify--ph" width="1em" height="1em" preserveAspectRatio="xMidYMid meet" viewBox="0 0 256 256"><path fill="currentColor" d="M244 116V88a20.1 20.1 0 0 0-20-20h-16v-4a20.1 20.1 0 0 0-20-20h-24a20.1 20.1 0 0 0-20 20v52h-32V64a20.1 20.1 0 0 0-20-20H68a20.1 20.1 0 0 0-20 20v4H32a20.1 20.1 0 0 0-20 20v28a12 12 0 0 0 0 24v28a20.1 20.1 0 0 0 20 20h16v4a20.1 20.1 0 0 0 20 20h24a20.1 20.1 0 0 0 20-20v-52h32v52a20.1 20.1 0 0 0 20 20h24a20.1 20.1 0 0 0 20-20v-4h16a20.1 20.1 0 0 0 20-20v-28a12 12 0 0 0 0-24ZM36 164V92h12v72Zm52 24H72V68h16Zm96 0h-16V68h16Zm36-24h-12V92h12Z"></path></svg>