<svg xmlns="http://www.w3.org/2000/svg" xmlns:xlink="http://www.w3.org/1999/xlink" aria-hidden="true" role="img" class="iconify iconify--ph" width="1em" height="1em" preserveAspectRatio="xMidYMid meet" viewBox="0 0 256 256"><path fill="currentColor" d="M224 68H32a12 12 0 0 0-12 12v72a12 12 0 0 0 12 12h28v36a4 4 0 0 0 8 0v-36h120v36a4 4 0 0 0 8 0v-36h28a12 12 0 0 0 12-12V80a12 12 0 0 0-12-12Zm4 12v58.3L165.7 76H224a4 4 0 0 1 4 4ZM32 76h50.3l80 80h-60.6L28 82.3V80a4 4 0 0 1 4-4Zm-4 76V93.7L90.3 156H32a4 4 0 0 1-4-4Zm196 4h-50.3l-80-80h60.6l73.7 73.7v2.3a4 4 0 0 1-4 4Z"></path></svg>