<svg xmlns="http://www.w3.org/2000/svg" xmlns:xlink="http://www.w3.org/1999/xlink" aria-hidden="true" role="img" class="iconify iconify--ph" width="1em" height="1em" preserveAspectRatio="xMidYMid meet" viewBox="0 0 256 256"><path fill="currentColor" d="M224 66H32a14 14 0 0 0-14 14v72a14 14 0 0 0 14 14h26v34a6 6 0 0 0 12 0v-34h116v34a6 6 0 0 0 12 0v-34h26a14 14 0 0 0 14-14V80a14 14 0 0 0-14-14Zm2 14v53.5L170.5 78H224a2 2 0 0 1 2 2ZM32 78h49.5l76 76h-55L30 81.5V80a2 2 0 0 1 2-2Zm-2 74V98.5L85.5 154H32a2 2 0 0 1-2-2Zm194 2h-49.5l-76-76h55l72.5 72.5v1.5a2 2 0 0 1-2 2Z"></path></svg>