<svg xmlns="http://www.w3.org/2000/svg" xmlns:xlink="http://www.w3.org/1999/xlink" aria-hidden="true" role="img" class="iconify iconify--ph" width="1em" height="1em" preserveAspectRatio="xMidYMid meet" viewBox="0 0 256 256"><path fill="currentColor" d="M232 80v68l-76-76h68a8 8 0 0 1 8 8ZM32 72a8 8 0 0 0-8 8v4l76 76h72L84 72Z" opacity=".2"></path><path fill="currentColor" d="M240 80a16 16 0 0 0-16-16H32a16 16 0 0 0-16 16v72a16 16 0 0 0 16 16h24v32a8 8 0 0 0 16 0v-32h112v32a8 8 0 0 0 16 0v-32h24a16 16 0 0 0 16-16Zm-16 48.7L175.3 80H224ZM80.7 80l72 72h-49.4L32 80.7V80ZM32 103.3L80.7 152H32ZM224 152h-48.7l-72-72h49.4l71.3 71.3v.7Z"></path></svg>