<svg xmlns="http://www.w3.org/2000/svg" xmlns:xlink="http://www.w3.org/1999/xlink" aria-hidden="true" role="img" class="iconify iconify--ph" width="1em" height="1em" preserveAspectRatio="xMidYMid meet" viewBox="0 0 256 256"><path fill="currentColor" d="M128 26a102 102 0 1 0 102 102A102.2 102.2 0 0 0 128 26ZM68.5 195.5c1.9-2.2 3.8-4.5 5.5-6.9a6 6 0 1 0-9.6-7.1c-1.4 1.9-2.9 3.7-4.4 5.4a89.8 89.8 0 0 1 0-117.8c1.5 1.7 3 3.5 4.4 5.4a6 6 0 0 0 4.8 2.4a5.9 5.9 0 0 0 4.8-9.5c-1.7-2.4-3.6-4.7-5.5-6.9a89.9 89.9 0 0 1 119 0c-1.9 2.2-3.8 4.5-5.5 6.9a5.9 5.9 0 0 0 4.8 9.5a6 6 0 0 0 4.8-2.4c1.4-1.9 2.9-3.7 4.4-5.4a89.8 89.8 0 0 1 0 117.8c-1.5-1.7-3-3.5-4.4-5.4a6 6 0 1 0-9.6 7.1c1.7 2.4 3.6 4.7 5.5 6.9a89.9 89.9 0 0 1-119 0Zm110.2-96.1a89 89 0 0 0-3.6 14.6a6 6 0 0 1-5.9 5h-1a6.1 6.1 0 0 1-5-6.9a102.1 102.1 0 0 1 4.1-16.5a5.9 5.9 0 0 1 7.6-3.8a6 6 0 0 1 3.8 7.6Zm0 57.2a6.1 6.1 0 0 1-3.8 7.6l-1.9.3a6 6 0 0 1-5.7-4.1a104.7 104.7 0 0 1-4.1-16.5a6 6 0 0 1 11.9-1.9a89 89 0 0 0 3.6 14.6ZM77.3 99.4a6 6 0 0 1 3.8-7.6a5.9 5.9 0 0 1 7.6 3.8a102.1 102.1 0 0 1 4.1 16.5a6.1 6.1 0 0 1-5 6.9h-1a6 6 0 0 1-5.9-5a89 89 0 0 0-3.6-14.6Zm15.5 44.5a104.7 104.7 0 0 1-4.1 16.5a6 6 0 0 1-5.7 4.1l-1.9-.3a6.1 6.1 0 0 1-3.8-7.6a89 89 0 0 0 3.6-14.6a6 6 0 0 1 11.9 1.9Z"></path></svg>