<svg xmlns="http://www.w3.org/2000/svg" xmlns:xlink="http://www.w3.org/1999/xlink" aria-hidden="true" role="img" class="iconify iconify--ph" width="1em" height="1em" preserveAspectRatio="xMidYMid meet" viewBox="0 0 256 256"><path fill="currentColor" d="M59.9 195.8Zm0-135.5a96 96 0 0 0 0 135.5a95.8 95.8 0 0 0 28-67.8a95.5 95.5 0 0 0-28-67.7Zm136 135.5Zm0-135.5a96 96 0 0 0 0 135.5a96 96 0 0 0 0-135.5Z" opacity=".2"></path><path fill="currentColor" d="M128 24a104 104 0 1 0 104 104A104.2 104.2 0 0 0 128 24ZM71.3 195.3c1.5-1.8 3-3.6 4.3-5.5a8 8 0 0 0-1.6-11.2a8.1 8.1 0 0 0-11.2 1.7c-.9 1.2-1.8 2.4-2.8 3.5a87.8 87.8 0 0 1 0-111.6c1 1.1 1.9 2.3 2.8 3.5a7.9 7.9 0 0 0 6.4 3.2a8.5 8.5 0 0 0 4.8-1.5a8 8 0 0 0 1.6-11.2c-1.3-1.9-2.8-3.7-4.3-5.5a88 88 0 0 1 113.4 0c-1.5 1.8-3 3.6-4.3 5.5a8 8 0 0 0 1.6 11.2a8.5 8.5 0 0 0 4.8 1.5a7.9 7.9 0 0 0 6.4-3.2c.9-1.2 1.8-2.4 2.8-3.5a87.8 87.8 0 0 1 0 111.6c-1-1.1-1.9-2.3-2.8-3.5a8.1 8.1 0 0 0-11.2-1.7a8 8 0 0 0-1.6 11.2c1.3 1.9 2.8 3.7 4.3 5.5a88 88 0 0 1-113.4 0Zm90-83.5a109.5 109.5 0 0 1 4.1-16.9a8 8 0 0 1 15.2 5.1a80.6 80.6 0 0 0-3.5 14.3a8.1 8.1 0 0 1-7.9 6.7h-1.3a8 8 0 0 1-6.6-9.2Zm14.2 54.3a7.3 7.3 0 0 1-2.5.4a7.9 7.9 0 0 1-7.6-5.5a105.6 105.6 0 0 1-4.1-16.8a8 8 0 0 1 15.8-2.5a80.6 80.6 0 0 0 3.5 14.3a8 8 0 0 1-5.1 10.1ZM75.4 100a8 8 0 0 1 15.2-5.1a109.5 109.5 0 0 1 4.1 16.9a8 8 0 0 1-6.6 9.1h-1.3a8.1 8.1 0 0 1-7.9-6.7a80.6 80.6 0 0 0-3.5-14.2Zm19.3 44.2a105.6 105.6 0 0 1-4.1 16.8a7.9 7.9 0 0 1-7.6 5.5a7.3 7.3 0 0 1-2.5-.4a8 8 0 0 1-5.1-10.1a80.6 80.6 0 0 0 3.5-14.3a8 8 0 0 1 15.8 2.5Z"></path></svg>