<svg xmlns="http://www.w3.org/2000/svg" xmlns:xlink="http://www.w3.org/1999/xlink" aria-hidden="true" role="img" class="iconify iconify--ph" width="1em" height="1em" preserveAspectRatio="xMidYMid meet" viewBox="0 0 256 256"><path fill="currentColor" d="M128 28a100 100 0 1 0 100 100A100.2 100.2 0 0 0 128 28ZM65.7 195.6a88.6 88.6 0 0 0 6.7-8.2a4 4 0 1 0-6.4-4.7q-2.9 3.8-6 7.2a91.8 91.8 0 0 1 0-123.8q3.2 3.5 6 7.2a3.9 3.9 0 0 0 3.2 1.6a4.2 4.2 0 0 0 2.4-.7a4 4 0 0 0 .8-5.6a88.6 88.6 0 0 0-6.7-8.2a91.7 91.7 0 0 1 124.6 0a88.6 88.6 0 0 0-6.7 8.2a4 4 0 0 0 .8 5.6a4.2 4.2 0 0 0 2.4.7a3.9 3.9 0 0 0 3.2-1.6q2.9-3.7 6-7.2a91.8 91.8 0 0 1 0 123.8q-3.1-3.5-6-7.2a4 4 0 1 0-6.4 4.7a88.6 88.6 0 0 0 6.7 8.2a91.7 91.7 0 0 1-124.6 0Zm111.1-96.8a83.2 83.2 0 0 0-3.7 14.9a4 4 0 0 1-3.9 3.3h-.7a4.1 4.1 0 0 1-3.3-4.6a100.9 100.9 0 0 1 4-16.2a4 4 0 0 1 5-2.5a4.1 4.1 0 0 1 2.6 5.1Zm0 58.4a4.1 4.1 0 0 1-2.6 5.1l-1.2.2a3.9 3.9 0 0 1-3.8-2.7a100.9 100.9 0 0 1-4-16.2a4.1 4.1 0 0 1 3.3-4.6a4.1 4.1 0 0 1 4.6 3.3a83.2 83.2 0 0 0 3.7 14.9ZM79.2 98.8a4.1 4.1 0 0 1 2.6-5.1a4 4 0 0 1 5 2.5a100.9 100.9 0 0 1 4 16.2a4.1 4.1 0 0 1-3.3 4.6h-.7a4 4 0 0 1-3.9-3.3a83.2 83.2 0 0 0-3.7-14.9Zm11.6 44.8a100.9 100.9 0 0 1-4 16.2a3.9 3.9 0 0 1-3.8 2.7l-1.2-.2a4.1 4.1 0 0 1-2.6-5.1a83.2 83.2 0 0 0 3.7-14.9a4.1 4.1 0 0 1 4.6-3.3a4.1 4.1 0 0 1 3.3 4.6Z"></path></svg>