<svg xmlns="http://www.w3.org/2000/svg" xmlns:xlink="http://www.w3.org/1999/xlink" aria-hidden="true" role="img" class="iconify iconify--ph" width="1em" height="1em" preserveAspectRatio="xMidYMid meet" viewBox="0 0 256 256"><path fill="currentColor" d="M51.9 63.9a4 4 0 0 0-6 .3a103.9 103.9 0 0 0 0 127.6a4 4 0 0 0 6 .3l7.3-7.3a8 8 0 0 1 6.2-2.8a7.9 7.9 0 0 1 5.2 2a8.2 8.2 0 0 1 .6 11.4a99.9 99.9 0 0 1-7.8 8.2a3.9 3.9 0 0 0 .2 6a103.8 103.8 0 0 0 128.8 0a3.9 3.9 0 0 0 .2-6a103.3 103.3 0 0 1-7.9-8.3a8 8 0 1 1 12.1-10.5l7.3 7.3a4 4 0 0 0 6-.3a103.9 103.9 0 0 0 0-127.6a4 4 0 0 0-6-.3l-7.3 7.3a8.1 8.1 0 0 1-6.1 2.8a7.6 7.6 0 0 1-5.3-2a8.2 8.2 0 0 1-.6-11.4a99.9 99.9 0 0 1 7.8-8.2a3.9 3.9 0 0 0-.2-6a103.8 103.8 0 0 0-128.8 0a3.9 3.9 0 0 0-.2 6a99.9 99.9 0 0 1 7.8 8.2A8 8 0 0 1 65.3 74a8.1 8.1 0 0 1-6.1-2.8Zm27.3 24.3a9.6 9.6 0 0 1 2.8-.7a8.1 8.1 0 0 1 7.9 5.3a105.7 105.7 0 0 1 4.4 16.5a8 8 0 0 1-5.9 9.4a6.3 6.3 0 0 1-1.9.3a8 8 0 0 1-7.9-6.6a83.8 83.8 0 0 0-3.7-13.9c-1.4-4 .3-8.7 4.3-10.3Zm15.1 58.5a105.7 105.7 0 0 1-4.4 16.5a8.1 8.1 0 0 1-7.6 5.3a7 7 0 0 1-3.1-.7a8.2 8.2 0 0 1-4.3-10.3a83.8 83.8 0 0 0 3.7-13.9a8.1 8.1 0 0 1 7.7-6.6l2 .2a8.2 8.2 0 0 1 6 9.5Zm82.5 21.1a7 7 0 0 1-3.1.7a8.1 8.1 0 0 1-7.6-5.3a105.7 105.7 0 0 1-4.4-16.5a8.2 8.2 0 0 1 5.4-9.3a8.1 8.1 0 0 1 10.3 6.2a83.8 83.8 0 0 0 3.7 13.9a8.2 8.2 0 0 1-4.3 10.3Zm3.6-68a23.6 23.6 0 0 0-2.9 11.4a8 8 0 0 1-8 7.8l-1.4-.2c-4.3-.7-7.2-5.3-6.4-9.6a109 109 0 0 1 4.3-16.1a8.3 8.3 0 0 1 9.8-5.3a8 8 0 0 1 4.6 12Z"></path></svg>