<svg xmlns="http://www.w3.org/2000/svg" xmlns:xlink="http://www.w3.org/1999/xlink" aria-hidden="true" role="img" class="iconify iconify--ph" width="1em" height="1em" preserveAspectRatio="xMidYMid meet" viewBox="0 0 256 256"><path fill="currentColor" d="M205.3 203.3a107.7 107.7 0 0 0 0-150.6l-.8-1l-.9-.8a107.9 107.9 0 0 0-151.2 0l-.9.8l-.8 1a107.7 107.7 0 0 0 0 150.6l.8 1l.9.8a107.9 107.9 0 0 0 151.2 0l.9-.8ZM44.9 140h30.2A82.4 82.4 0 0 1 60 177.3A84.2 84.2 0 0 1 44.9 140ZM60 78.7A82.4 82.4 0 0 1 75.1 116H44.9A84.2 84.2 0 0 1 60 78.7ZM211.1 116h-30.2A82.4 82.4 0 0 1 196 78.7a84.2 84.2 0 0 1 15.1 37.3Zm-54.4 0H140V44.9a84 84 0 0 1 39 16.4a107.9 107.9 0 0 0-22.3 54.7Zm-40.7 0H99.3A107.9 107.9 0 0 0 77 61.3a84 84 0 0 1 39-16.4Zm-16.7 24H116v71.1a84 84 0 0 1-39-16.4A107.9 107.9 0 0 0 99.3 140Zm40.7 0h16.7a107.9 107.9 0 0 0 22.3 54.7a84 84 0 0 1-39 16.4Zm40.9 0h30.2a84.2 84.2 0 0 1-15.1 37.3a82.4 82.4 0 0 1-15.1-37.3Z"></path></svg>