<svg xmlns="http://www.w3.org/2000/svg" xmlns:xlink="http://www.w3.org/1999/xlink" aria-hidden="true" role="img" class="iconify iconify--ph" width="1em" height="1em" preserveAspectRatio="xMidYMid meet" viewBox="0 0 256 256"><path fill="currentColor" d="M200.6 199.6a101.9 101.9 0 0 0 0-143.2c-.1-.1-.2-.3-.4-.4l-.4-.3a101.6 101.6 0 0 0-143.6 0l-.4.3l-.4.4a101.9 101.9 0 0 0 0 143.2l.4.4l.3.3a101.9 101.9 0 0 0 143.8 0l.3-.3c.2-.1.3-.3.4-.4ZM38.2 134h43.6A89.3 89.3 0 0 1 60 186.9A89.2 89.2 0 0 1 38.2 134ZM60 69.1A89.3 89.3 0 0 1 81.8 122H38.2A89.2 89.2 0 0 1 60 69.1ZM217.8 122h-43.6A89.3 89.3 0 0 1 196 69.1a89.2 89.2 0 0 1 21.8 52.9Zm-55.6 0H134V38.2a90.5 90.5 0 0 1 53.5 22.3a100.9 100.9 0 0 0-25.3 61.5Zm-40.2 0H93.8a100.9 100.9 0 0 0-25.3-61.5A90.5 90.5 0 0 1 122 38.2Zm-28.2 12H122v83.8a90.5 90.5 0 0 1-53.5-22.3A100.9 100.9 0 0 0 93.8 134Zm40.2 0h28.2a100.9 100.9 0 0 0 25.3 61.5a90.5 90.5 0 0 1-53.5 22.3Zm40.2 0h43.6a89.2 89.2 0 0 1-21.8 52.9a89.3 89.3 0 0 1-21.8-52.9Z"></path></svg>