<svg xmlns="http://www.w3.org/2000/svg" xmlns:xlink="http://www.w3.org/1999/xlink" aria-hidden="true" role="img" class="iconify iconify--ph" width="1em" height="1em" preserveAspectRatio="xMidYMid meet" viewBox="0 0 256 256"><path fill="currentColor" d="M63.6 46.4a104.3 104.3 0 0 1 52-21.7a4 4 0 0 1 4.4 4V120H95.7a104.1 104.1 0 0 0-32.3-67.6a3.9 3.9 0 0 1 .2-6ZM46 64.1a104.8 104.8 0 0 0-21.3 51.4a4.1 4.1 0 0 0 4 4.5h50.9a88 88 0 0 0-27.7-56.4a4 4 0 0 0-5.9.5Zm146.4-17.7a104.3 104.3 0 0 0-52-21.7a4 4 0 0 0-4.4 4V120h24.3a104.1 104.1 0 0 1 32.3-67.6a3.9 3.9 0 0 0-.2-6Zm38.9 69.1A104.8 104.8 0 0 0 210 64.1a4 4 0 0 0-5.9-.5a88 88 0 0 0-27.7 56.4h50.9a4.1 4.1 0 0 0 4-4.5Zm-206.6 25A104.8 104.8 0 0 0 46 191.9a4 4 0 0 0 5.9.5A88 88 0 0 0 79.6 136H28.7a4.1 4.1 0 0 0-4 4.5ZM210 191.9a104.8 104.8 0 0 0 21.3-51.4a4.1 4.1 0 0 0-4-4.5h-50.9a88 88 0 0 0 27.7 56.4a4 4 0 0 0 5.9-.5ZM63.6 209.6a104.3 104.3 0 0 0 52 21.7a4 4 0 0 0 4.4-4V136H95.7a104.1 104.1 0 0 1-32.3 67.6a3.9 3.9 0 0 0 .2 6Zm96.7-73.6H136v91.3a4 4 0 0 0 4.4 4a104.3 104.3 0 0 0 52-21.7a3.9 3.9 0 0 0 .2-6a104.1 104.1 0 0 1-32.3-67.6Z"></path></svg>