<svg xmlns="http://www.w3.org/2000/svg" xmlns:xlink="http://www.w3.org/1999/xlink" aria-hidden="true" role="img" class="iconify iconify--ph" width="1em" height="1em" preserveAspectRatio="xMidYMid meet" viewBox="0 0 256 256"><path fill="currentColor" d="M199.2 198.2a100 100 0 0 0 0-140.4l-.4-.4l-.4-.3a99.7 99.7 0 0 0-140.8 0l-.4.3l-.4.4a100 100 0 0 0 0 140.4c.1.1.2.3.4.4l.4.3a99.7 99.7 0 0 0 140.8 0l.4-.3c.2-.1.3-.3.4-.4ZM36.1 132h47.8A91.1 91.1 0 0 1 60 189.9A90.9 90.9 0 0 1 36.1 132ZM60 66.1A91.1 91.1 0 0 1 83.9 124H36.1A90.9 90.9 0 0 1 60 66.1ZM219.9 124h-47.8A91.1 91.1 0 0 1 196 66.1a90.9 90.9 0 0 1 23.9 57.9Zm-55.8 0H132V36.1a91.8 91.8 0 0 1 58.3 24.3a98.9 98.9 0 0 0-26.2 63.6Zm-40.1 0H91.9a98.9 98.9 0 0 0-26.2-63.6A91.8 91.8 0 0 1 124 36.1Zm-32.1 8H124v87.9a91.8 91.8 0 0 1-58.3-24.3A98.9 98.9 0 0 0 91.9 132Zm40.1 0h32.1a98.9 98.9 0 0 0 26.2 63.6a91.8 91.8 0 0 1-58.3 24.3Zm40.1 0h47.8a90.9 90.9 0 0 1-23.9 57.9a91.1 91.1 0 0 1-23.9-57.9Z"></path></svg>