<svg xmlns="http://www.w3.org/2000/svg" xmlns:xlink="http://www.w3.org/1999/xlink" aria-hidden="true" role="img" class="iconify iconify--ph" width="1em" height="1em" preserveAspectRatio="xMidYMid meet" viewBox="0 0 256 256"><path fill="currentColor" d="M232 96h-20a8 8 0 0 0-8-8h-72a8 8 0 0 0-8 8H64V52a12 12 0 0 1 24 0a8 8 0 0 0 16 0a28 28 0 0 0-56 0v44H24a16 16 0 0 0-16 16v32a56 56 0 0 0 56 56v16a8 8 0 0 0 16 0v-16h96v16a8 8 0 0 0 16 0v-16a56 56 0 0 0 56-56v-32a16 16 0 0 0-16-16Zm-36 8v36h-56v-36Z"></path></svg>