<svg xmlns="http://www.w3.org/2000/svg" xmlns:xlink="http://www.w3.org/1999/xlink" aria-hidden="true" role="img" class="iconify iconify--ph" width="1em" height="1em" preserveAspectRatio="xMidYMid meet" viewBox="0 0 256 256"><path fill="currentColor" d="M232 92h-20.7a11.9 11.9 0 0 0-11.3-8h-64a11.9 11.9 0 0 0-11.3 8H68V52a8 8 0 0 1 16 0a12 12 0 0 0 24 0a32 32 0 0 0-64 0v40H24a20.1 20.1 0 0 0-20 20v32a60.2 60.2 0 0 0 56 59.9V216a12 12 0 0 0 24 0v-12h88v12a12 12 0 0 0 24 0v-12.1a60.2 60.2 0 0 0 56-59.9v-32a20.1 20.1 0 0 0-20-20Zm-84 16h40v24h-40Zm80 36a36 36 0 0 1-36 36H64a36 36 0 0 1-36-36v-28h96v28a12 12 0 0 0 12 12h64a12 12 0 0 0 12-12v-28h16Z"></path></svg>