<svg xmlns="http://www.w3.org/2000/svg" xmlns:xlink="http://www.w3.org/1999/xlink" aria-hidden="true" role="img" class="iconify iconify--ph" width="1em" height="1em" preserveAspectRatio="xMidYMid meet" viewBox="0 0 256 256"><path fill="currentColor" d="M88 8a8 8 0 0 1 8-8h64a8 8 0 0 1 0 16H96a8 8 0 0 1-8-8Zm120 48v152a24.1 24.1 0 0 1-24 24H72a24.1 24.1 0 0 1-24-24V56a24.1 24.1 0 0 1 24-24h112a24.1 24.1 0 0 1 24 24Zm-88 76a8 8 0 0 0 16 0V92a8 8 0 0 0-16 0Zm20 36a12 12 0 1 0-12 12a12 12 0 0 0 12-12Z"></path></svg>