<svg xmlns="http://www.w3.org/2000/svg" xmlns:xlink="http://www.w3.org/1999/xlink" aria-hidden="true" role="img" class="iconify iconify--ph" width="1em" height="1em" preserveAspectRatio="xMidYMid meet" viewBox="0 0 256 256"><path fill="currentColor" d="M252 96v64a4 4 0 0 1-8 0V96a4 4 0 0 1 8 0Zm-32-24v112a20.1 20.1 0 0 1-20 20H48a20.1 20.1 0 0 1-20-20V72a20.1 20.1 0 0 1 20-20h152a20.1 20.1 0 0 1 20 20Zm-8 0a12 12 0 0 0-12-12H48a12 12 0 0 0-12 12v112a12 12 0 0 0 12 12h152a12 12 0 0 0 12-12Zm-69.6 12a4 4 0 0 0-4 4v80a4 4 0 0 0 8 0V88a4 4 0 0 0-4-4Zm-36.8 0a4 4 0 0 0-4 4v80a4 4 0 0 0 8 0V88a4 4 0 0 0-4-4Zm-36.8 0a4 4 0 0 0-4 4v80a4 4 0 0 0 8 0V88a4 4 0 0 0-4-4Zm110.4 0a4 4 0 0 0-4 4v80a4 4 0 0 0 8 0V88a4 4 0 0 0-4-4Z"></path></svg>