<svg xmlns="http://www.w3.org/2000/svg" xmlns:xlink="http://www.w3.org/1999/xlink" aria-hidden="true" role="img" class="iconify iconify--ph" width="1em" height="1em" preserveAspectRatio="xMidYMid meet" viewBox="0 0 256 256"><path fill="currentColor" d="M122 132V92a6 6 0 0 1 12 0v40a6 6 0 0 1-12 0ZM96 14h64a6 6 0 0 0 0-12H96a6 6 0 0 0 0 12Zm110 42v152a22.1 22.1 0 0 1-22 22H72a22.1 22.1 0 0 1-22-22V56a22.1 22.1 0 0 1 22-22h112a22.1 22.1 0 0 1 22 22Zm-12 0a10 10 0 0 0-10-10H72a10 10 0 0 0-10 10v152a10 10 0 0 0 10 10h112a10 10 0 0 0 10-10Zm-66 102a10 10 0 1 0 10 10a10 10 0 0 0-10-10Z"></path></svg>