<svg xmlns="http://www.w3.org/2000/svg" xmlns:xlink="http://www.w3.org/1999/xlink" aria-hidden="true" role="img" class="iconify iconify--ph" width="1em" height="1em" preserveAspectRatio="xMidYMid meet" viewBox="0 0 256 256"><path fill="currentColor" d="M192 44H44a28.1 28.1 0 0 0-28 28v112a28.1 28.1 0 0 0 28 28h148a28.1 28.1 0 0 0 28-28V72a28.1 28.1 0 0 0-28-28Zm4 140a4 4 0 0 1-4 4H44a4 4 0 0 1-4-4V72a4 4 0 0 1 4-4h148a4 4 0 0 1 4 4Zm60-88v64a12 12 0 0 1-24 0V96a12 12 0 0 1 24 0Zm-112.1 25.3a11.8 11.8 0 0 1 1.2 11.2l-16 40a12 12 0 0 1-22.2-9l9.4-23.5H102a12 12 0 0 1-11.1-16.5l16-40a12 12 0 1 1 22.2 9l-9.4 23.5H134a11.9 11.9 0 0 1 9.9 5.3Z"></path></svg>