<svg xmlns="http://www.w3.org/2000/svg" xmlns:xlink="http://www.w3.org/1999/xlink" aria-hidden="true" role="img" class="iconify iconify--ph" width="1em" height="1em" preserveAspectRatio="xMidYMid meet" viewBox="0 0 256 256"><path fill="currentColor" d="M254 96v64a6 6 0 0 1-12 0V96a6 6 0 0 1 12 0Zm-32-24v112a22.1 22.1 0 0 1-22 22H48a22.1 22.1 0 0 1-22-22V72a22.1 22.1 0 0 1 22-22h152a22.1 22.1 0 0 1 22 22Zm-12 0a10 10 0 0 0-10-10H48a10 10 0 0 0-10 10v112a10 10 0 0 0 10 10h152a10 10 0 0 0 10-10Zm-62 50h-18v-18a6 6 0 0 0-12 0v18h-18a6 6 0 0 0 0 12h18v18a6 6 0 0 0 12 0v-18h18a6 6 0 0 0 0-12Z"></path></svg>