<svg xmlns="http://www.w3.org/2000/svg" xmlns:xlink="http://www.w3.org/1999/xlink" aria-hidden="true" role="img" class="iconify iconify--ph" width="1em" height="1em" preserveAspectRatio="xMidYMid meet" viewBox="0 0 256 256"><path fill="currentColor" d="M200 48H48a24.1 24.1 0 0 0-24 24v112a24.1 24.1 0 0 0 24 24h152a24.1 24.1 0 0 0 24-24V72a24.1 24.1 0 0 0-24-24Zm-84 40a8 8 0 0 1 16 0v40a8 8 0 0 1-16 0Zm8 88a12 12 0 1 1 12-12a12 12 0 0 1-12 12Zm132-80v64a8 8 0 0 1-16 0V96a8 8 0 0 1 16 0Z"></path></svg>