<svg xmlns="http://www.w3.org/2000/svg" xmlns:xlink="http://www.w3.org/1999/xlink" aria-hidden="true" role="img" class="iconify iconify--ph" width="1em" height="1em" preserveAspectRatio="xMidYMid meet" viewBox="0 0 256 256"><path fill="currentColor" d="M256 96v64a8 8 0 0 1-16 0V96a8 8 0 0 1 16 0Zm-32-24v112a24.1 24.1 0 0 1-24 24H48a24.1 24.1 0 0 1-24-24V72a24.1 24.1 0 0 1 24-24h152a24.1 24.1 0 0 1 24 24Zm-68 56a8 8 0 0 0-8-8h-16v-16a8 8 0 0 0-16 0v16h-16a8 8 0 0 0 0 16h16v16a8 8 0 0 0 16 0v-16h16a8 8 0 0 0 8-8Z"></path></svg>