<svg xmlns="http://www.w3.org/2000/svg" xmlns:xlink="http://www.w3.org/1999/xlink" aria-hidden="true" role="img" class="iconify iconify--ph" width="1em" height="1em" preserveAspectRatio="xMidYMid meet" viewBox="0 0 256 256"><path fill="currentColor" d="M192 44H44a28.1 28.1 0 0 0-28 28v112a28.1 28.1 0 0 0 28 28h148a28.1 28.1 0 0 0 28-28V72a28.1 28.1 0 0 0-28-28Zm4 140a4 4 0 0 1-4 4H44a4 4 0 0 1-4-4V72a4 4 0 0 1 4-4h148a4 4 0 0 1 4 4ZM76 92v72a12 12 0 0 1-24 0V92a12 12 0 0 1 24 0Zm36 0v72a12 12 0 0 1-24 0V92a12 12 0 0 1 24 0Zm36 0v72a12 12 0 0 1-24 0V92a12 12 0 0 1 24 0Zm108 4v64a12 12 0 0 1-24 0V96a12 12 0 0 1 24 0Z"></path></svg>