<svg xmlns="http://www.w3.org/2000/svg" xmlns:xlink="http://www.w3.org/1999/xlink" aria-hidden="true" role="img" class="iconify iconify--ph" width="1em" height="1em" preserveAspectRatio="xMidYMid meet" viewBox="0 0 256 256"><path fill="currentColor" d="M124 132V92a4 4 0 0 1 8 0v40a4 4 0 0 1-8 0ZM96 12h64a4 4 0 0 0 0-8H96a4 4 0 0 0 0 8Zm108 44v152a20.1 20.1 0 0 1-20 20H72a20.1 20.1 0 0 1-20-20V56a20.1 20.1 0 0 1 20-20h112a20.1 20.1 0 0 1 20 20Zm-8 0a12 12 0 0 0-12-12H72a12 12 0 0 0-12 12v152a12 12 0 0 0 12 12h112a12 12 0 0 0 12-12Zm-68 104a8 8 0 1 0 8 8a8 8 0 0 0-8-8Z"></path></svg>