<svg xmlns="http://www.w3.org/2000/svg" xmlns:xlink="http://www.w3.org/1999/xlink" aria-hidden="true" role="img" class="iconify iconify--ph" width="1em" height="1em" preserveAspectRatio="xMidYMid meet" viewBox="0 0 256 256"><path fill="currentColor" d="M88 8a8 8 0 0 1 8-8h64a8 8 0 0 1 0 16H96a8 8 0 0 1-8-8Zm120 48v152a24.1 24.1 0 0 1-24 24H72a24.1 24.1 0 0 1-24-24V56a24.1 24.1 0 0 1 24-24h112a24.1 24.1 0 0 1 24 24Zm-16 0a8 8 0 0 0-8-8H72a8 8 0 0 0-8 8v152a8 8 0 0 0 8 8h112a8 8 0 0 0 8-8Zm-48 68h-20.2l11.6-29a8 8 0 1 0-14.8-6l-16 40a8 8 0 0 0 .8 7.5a7.9 7.9 0 0 0 6.6 3.5h20.2l-11.6 29a7.9 7.9 0 0 0 4.4 10.4a8 8 0 0 0 3 .6a7.9 7.9 0 0 0 7.4-5l16-40a8 8 0 0 0-.8-7.5a7.9 7.9 0 0 0-6.6-3.5Z"></path></svg>