<svg xmlns="http://www.w3.org/2000/svg" xmlns:xlink="http://www.w3.org/1999/xlink" aria-hidden="true" role="img" class="iconify iconify--ph" width="1em" height="1em" preserveAspectRatio="xMidYMid meet" viewBox="0 0 256 256"><path fill="currentColor" d="M254 96v64a6 6 0 0 1-12 0V96a6 6 0 0 1 12 0Zm-32-24v112a22.1 22.1 0 0 1-22 22H48a22.1 22.1 0 0 1-22-22V72a22.1 22.1 0 0 1 22-22h152a22.1 22.1 0 0 1 22 22Zm-12 0a10 10 0 0 0-10-10H48a10 10 0 0 0-10 10v112a10 10 0 0 0 10 10h152a10 10 0 0 0 10-10ZM105.6 82a6 6 0 0 0-6 6v80a6 6 0 0 0 12 0V88a6 6 0 0 0-6-6Zm-36.8 0a6 6 0 0 0-6 6v80a6 6 0 0 0 12 0V88a6 6 0 0 0-6-6Z"></path></svg>