<svg xmlns="http://www.w3.org/2000/svg" xmlns:xlink="http://www.w3.org/1999/xlink" aria-hidden="true" role="img" class="iconify iconify--ph" width="1em" height="1em" preserveAspectRatio="xMidYMid meet" viewBox="0 0 256 256"><path fill="currentColor" d="M92 8a4 4 0 0 1 4-4h64a4 4 0 0 1 0 8H96a4 4 0 0 1-4-4Zm112 48v152a20.1 20.1 0 0 1-20 20H72a20.1 20.1 0 0 1-20-20V56a20.1 20.1 0 0 1 20-20h112a20.1 20.1 0 0 1 20 20Zm-8 0a12 12 0 0 0-12-12H72a12 12 0 0 0-12 12v152a12 12 0 0 0 12 12h112a12 12 0 0 0 12-12Zm-52 72h-26.1l13.8-34.5a4 4 0 1 0-7.4-3l-16 40a3.8 3.8 0 0 0 .4 3.7a4 4 0 0 0 3.3 1.8h26.1l-13.8 34.5a4 4 0 1 0 7.4 3l16-40a3.8 3.8 0 0 0-.4-3.7a4 4 0 0 0-3.3-1.8Z"></path></svg>