<svg xmlns="http://www.w3.org/2000/svg" xmlns:xlink="http://www.w3.org/1999/xlink" aria-hidden="true" role="img" class="iconify iconify--ph" width="1em" height="1em" preserveAspectRatio="xMidYMid meet" viewBox="0 0 256 256"><rect width="144" height="184" x="52" y="36" fill="currentColor" opacity=".2" rx="16" transform="rotate(90 124 128)"></rect><path fill="currentColor" d="M256 96v64a8 8 0 0 1-16 0V96a8 8 0 0 1 16 0Zm-32-24v112a24.1 24.1 0 0 1-24 24H48a24.1 24.1 0 0 1-24-24V72a24.1 24.1 0 0 1 24-24h152a24.1 24.1 0 0 1 24 24Zm-16 0a8 8 0 0 0-8-8H48a8 8 0 0 0-8 8v112a8 8 0 0 0 8 8h152a8 8 0 0 0 8-8Zm-65.6 8a8 8 0 0 0-8 8v80a8 8 0 0 0 16 0V88a8 8 0 0 0-8-8Zm-36.8 0a8 8 0 0 0-8 8v80a8 8 0 0 0 16 0V88a8 8 0 0 0-8-8Zm-36.8 0a8 8 0 0 0-8 8v80a8 8 0 0 0 16 0V88a8 8 0 0 0-8-8Zm110.4 0a8 8 0 0 0-8 8v80a8 8 0 0 0 16 0V88a8 8 0 0 0-8-8Z"></path></svg>