<svg xmlns="http://www.w3.org/2000/svg" xmlns:xlink="http://www.w3.org/1999/xlink" aria-hidden="true" role="img" class="iconify iconify--ph" width="1em" height="1em" preserveAspectRatio="xMidYMid meet" viewBox="0 0 256 256"><path fill="currentColor" d="M90 8a6 6 0 0 1 6-6h64a6 6 0 0 1 0 12H96a6 6 0 0 1-6-6Zm116 48v152a22.1 22.1 0 0 1-22 22H72a22.1 22.1 0 0 1-22-22V56a22.1 22.1 0 0 1 22-22h112a22.1 22.1 0 0 1 22 22Zm-12 0a10 10 0 0 0-10-10H72a10 10 0 0 0-10 10v152a10 10 0 0 0 10 10h112a10 10 0 0 0 10-10Zm-50 70h-23.1l12.7-31.8a6 6 0 0 0-11.2-4.4l-16 40a6.2 6.2 0 0 0 .6 5.6a6.1 6.1 0 0 0 5 2.6h23.1l-12.7 31.8a6.1 6.1 0 0 0 3.4 7.8a5.7 5.7 0 0 0 2.2.4a6 6 0 0 0 5.6-3.8l16-40a6.2 6.2 0 0 0-.6-5.6a6.1 6.1 0 0 0-5-2.6Z"></path></svg>