<svg xmlns="http://www.w3.org/2000/svg" xmlns:xlink="http://www.w3.org/1999/xlink" aria-hidden="true" role="img" class="iconify iconify--ph" width="1em" height="1em" preserveAspectRatio="xMidYMid meet" viewBox="0 0 256 256"><path fill="currentColor" d="m242.8 45.2l-32-32a4 4 0 0 0-5.6 5.6l4.7 4.8l-59.6 44.7l-39.1 7.8a3.1 3.1 0 0 0-2 1.1l-84.7 84.7a19.8 19.8 0 0 0 0 28.2l41.4 41.4a19.8 19.8 0 0 0 28.2 0l68.7-68.7l16-16a3.1 3.1 0 0 0 1.1-2l7.8-39.1l44.7-59.6l4.8 4.7a3.9 3.9 0 0 0 5.6 0a3.9 3.9 0 0 0 0-5.6ZM104 210.3L45.7 152L96 101.7l58.3 58.3Zm-15.5 15.6a12.2 12.2 0 0 1-17 0l-41.4-41.4a12.1 12.1 0 0 1 0-17l9.9-9.8L98.3 216Zm92.3-124.3a3.3 3.3 0 0 0-.7 1.6l-7.8 38.8l-12.3 12.3L101.7 96L114 83.7l38.8-7.8a3.3 3.3 0 0 0 1.6-.7l61.2-45.9l11.1 11.1Z"></path></svg>