<svg xmlns="http://www.w3.org/2000/svg" xmlns:xlink="http://www.w3.org/1999/xlink" aria-hidden="true" role="img" class="iconify iconify--ph" width="1em" height="1em" preserveAspectRatio="xMidYMid meet" viewBox="0 0 256 256"><path fill="currentColor" d="m244.2 43.8l-32-32a5.8 5.8 0 0 0-8.4 0a5.8 5.8 0 0 0 0 8.4l3.1 3.2l-57.4 43l-38.7 7.7a5.4 5.4 0 0 0-3 1.7l-84.7 84.6a22 22 0 0 0 0 31.2l41.3 41.3a22 22 0 0 0 31.2 0l84.6-84.7a5.4 5.4 0 0 0 1.7-3l7.7-38.7l43-57.4l3.2 3.1a5.9 5.9 0 1 0 8.4-8.4ZM104 207.5L48.5 152L96 104.5l55.5 55.5Zm-31.1 16.9l-41.3-41.3a9.9 9.9 0 0 1 0-14.2l8.4-8.4L95.5 216l-8.4 8.4a10.1 10.1 0 0 1-14.2 0Zm106.3-124a6.6 6.6 0 0 0-1.1 2.4l-7.6 38.2l-10.5 10.5L104.5 96L115 85.5l38.2-7.6a6.6 6.6 0 0 0 2.4-1.1l59.8-44.9l8.7 8.7Z"></path></svg>