<svg xmlns="http://www.w3.org/2000/svg" xmlns:xlink="http://www.w3.org/1999/xlink" aria-hidden="true" role="img" class="iconify iconify--ph" width="1em" height="1em" preserveAspectRatio="xMidYMid meet" viewBox="0 0 256 256"><path fill="currentColor" d="M156 76a12 12 0 0 1 12-12h64a12 12 0 0 1 0 24h-64a12 12 0 0 1-12-12Zm-20 82a46 46 0 0 1-46 46H28a12 12 0 0 1-12-12V64a12 12 0 0 1 12-12h50a42 42 0 0 1 34.5 65.9A46 46 0 0 1 136 158Zm-96-46h38a18 18 0 0 0 0-36H40Zm72 46a22.1 22.1 0 0 0-22-22H40v44h50a22.1 22.1 0 0 0 22-22Zm140-6a12 12 0 0 1-12 12h-65.3a28 28 0 0 0 25.3 16a27 27 0 0 0 12.2-2.8a12 12 0 0 1 10.5 21.6A52 52 0 1 1 252 152Zm-26.7-12a28 28 0 0 0-50.6 0Z"></path></svg>