<svg xmlns="http://www.w3.org/2000/svg" xmlns:xlink="http://www.w3.org/1999/xlink" aria-hidden="true" role="img" class="iconify iconify--ph" width="1em" height="1em" preserveAspectRatio="xMidYMid meet" viewBox="0 0 256 256"><path fill="currentColor" d="M164 80a4 4 0 0 1 4-4h64a4 4 0 0 1 0 8h-64a4 4 0 0 1-4-4Zm80 72a4 4 0 0 1-4 4h-75.8a36.1 36.1 0 0 0 61.3 21.5a4 4 0 0 1 5.6 5.6A44 44 0 1 1 244 152Zm-8.2-4a36 36 0 0 0-71.6 0ZM136 158a38 38 0 0 1-38 38H32a4 4 0 0 1-4-4V64a4 4 0 0 1 4-4h54a34 34 0 0 1 20.7 61a38 38 0 0 1 29.3 37ZM36 120h50a26 26 0 0 0 0-52H36Zm92 38a30.1 30.1 0 0 0-30-30H36v60h62a30.1 30.1 0 0 0 30-30Z"></path></svg>