<svg xmlns="http://www.w3.org/2000/svg" xmlns:xlink="http://www.w3.org/1999/xlink" aria-hidden="true" role="img" class="iconify iconify--ph" width="1em" height="1em" preserveAspectRatio="xMidYMid meet" viewBox="0 0 256 256"><path fill="currentColor" d="M162 80a6 6 0 0 1 6-6h64a6 6 0 0 1 0 12h-64a6 6 0 0 1-6-6Zm84 72a6 6 0 0 1-6 6h-73.5a34.1 34.1 0 0 0 33.5 28a33.3 33.3 0 0 0 24-10a6.1 6.1 0 0 1 8.5 0a5.9 5.9 0 0 1 0 8.5A46 46 0 1 1 246 152Zm-12.5-6a34 34 0 0 0-67 0ZM138 158a40 40 0 0 1-40 40H32a6 6 0 0 1-6-6V64a6 6 0 0 1 6-6h54a36 36 0 0 1 24.8 62.1A40 40 0 0 1 138 158ZM38 118h48a24 24 0 0 0 0-48H38Zm88 40a28.1 28.1 0 0 0-28-28H38v56h60a28.1 28.1 0 0 0 28-28Z"></path></svg>