<svg xmlns="http://www.w3.org/2000/svg" xmlns:xlink="http://www.w3.org/1999/xlink" aria-hidden="true" role="img" class="iconify iconify--ph" width="1em" height="1em" preserveAspectRatio="xMidYMid meet" viewBox="0 0 256 256"><path fill="currentColor" d="M220.8 175.9c-5.9-10.2-13-29.6-13-63.9v-7.1c0-44.3-35.5-80.6-79.2-80.9h-.6a79.9 79.9 0 0 0-79.8 80v8c0 34.3-7.1 53.7-13 63.9a16.2 16.2 0 0 0-.1 16.1a15.9 15.9 0 0 0 13.9 8h39a40 40 0 0 0 80 0h39a15.9 15.9 0 0 0 13.9-8a16.2 16.2 0 0 0-.1-16.1ZM128 224a24.1 24.1 0 0 1-24-24h48a24.1 24.1 0 0 1-24 24Zm20-72h-40a7.9 7.9 0 0 1-7.2-4.6a7.8 7.8 0 0 1 1.1-8.5l29-34.9H108a8 8 0 0 1 0-16h40a7.9 7.9 0 0 1 7.2 4.6a7.8 7.8 0 0 1-1.1 8.5l-29 34.9H148a8 8 0 0 1 0 16Z"></path></svg>