<svg xmlns="http://www.w3.org/2000/svg" xmlns:xlink="http://www.w3.org/1999/xlink" aria-hidden="true" role="img" class="iconify iconify--ph" width="1em" height="1em" preserveAspectRatio="xMidYMid meet" viewBox="0 0 256 256"><path fill="currentColor" d="M164 224a4 4 0 0 1-4 4H96a4 4 0 0 1 0-8h64a4 4 0 0 1 4 4Zm53.4-34a11.9 11.9 0 0 1-10.4 6H49a11.9 11.9 0 0 1-10.4-6a12.2 12.2 0 0 1 0-12.1c6.2-10.6 13.6-30.7 13.6-65.9v-8A76 76 0 0 1 128 28h.6c41.5.3 75.2 34.8 75.2 76.9v7.1c0 35.2 7.4 55.3 13.6 65.9a12.2 12.2 0 0 1 0 12.1Zm-7-8c-6.6-11.5-14.6-33-14.6-70v-7.1c0-37.7-30.2-68.6-67.3-68.9h-.5a67.9 67.9 0 0 0-67.8 68v8c0 37-8 58.5-14.6 70a4 4 0 0 0-.1 4a4.1 4.1 0 0 0 3.5 2h158a4.1 4.1 0 0 0 3.5-2a4 4 0 0 0-.1-4ZM148 140h-31.5l34.6-41.4a4 4 0 0 0 .5-4.3A3.9 3.9 0 0 0 148 92h-40a4 4 0 0 0 0 8h31.5l-34.6 41.4a4 4 0 0 0-.5 4.3a3.9 3.9 0 0 0 3.6 2.3h40a4 4 0 0 0 0-8Z"></path></svg>