<svg xmlns="http://www.w3.org/2000/svg" xmlns:xlink="http://www.w3.org/1999/xlink" aria-hidden="true" role="img" class="iconify iconify--ph" width="1em" height="1em" preserveAspectRatio="xMidYMid meet" viewBox="0 0 256 256"><path fill="currentColor" d="M207.8 112a79.7 79.7 0 0 0-79.2-80h-.6a79.9 79.9 0 0 0-79.8 80c0 34.3-7.1 53.7-13 63.9a16.2 16.2 0 0 0-.1 16.1a15.9 15.9 0 0 0 13.9 8h39a40 40 0 0 0 80 0h39a15.9 15.9 0 0 0 13.9-8a16.2 16.2 0 0 0-.1-16.1c-5.9-10.2-13-29.6-13-63.9ZM128 224a24.1 24.1 0 0 1-24-24h48a24.1 24.1 0 0 1-24 24Zm-79-40c6.9-11.9 15.2-34.1 15.2-72A63.8 63.8 0 0 1 128 48h.5a62.9 62.9 0 0 1 44.8 18.9a63.6 63.6 0 0 1 18.5 45.1c0 37.9 8.3 60.1 15.2 72ZM224.9 73.3a9.3 9.3 0 0 1-3.5.8a7.9 7.9 0 0 1-7.2-4.5a97 97 0 0 0-35-38.8a8 8 0 0 1 8.5-13.6a111.7 111.7 0 0 1 40.8 45.4a8 8 0 0 1-3.6 10.7Zm-190.3.8a9.3 9.3 0 0 1-3.5-.8a8 8 0 0 1-3.6-10.7a111.7 111.7 0 0 1 40.8-45.4a8 8 0 0 1 8.5 13.6a97 97 0 0 0-35 38.8a7.9 7.9 0 0 1-7.2 4.5Z"></path></svg>