<svg xmlns="http://www.w3.org/2000/svg" xmlns:xlink="http://www.w3.org/1999/xlink" aria-hidden="true" role="img" class="iconify iconify--ph" width="1em" height="1em" preserveAspectRatio="xMidYMid meet" viewBox="0 0 256 256"><path fill="currentColor" d="M217.4 177.9c-6.2-10.6-13.6-30.7-13.6-65.9v-7.1c0-42.1-33.7-76.6-75.2-76.9h-.6a76 76 0 0 0-75.8 76v8c0 35.2-7.4 55.3-13.6 65.9A12.1 12.1 0 0 0 49 196h43v4a36 36 0 0 0 72 0v-4h43a12.1 12.1 0 0 0 10.4-18.1ZM156 200a28 28 0 0 1-56 0v-4h56Zm54.5-14a4.1 4.1 0 0 1-3.5 2H49a4.1 4.1 0 0 1-3.5-2a4.1 4.1 0 0 1 .1-4.1c6.6-11.4 14.6-32.9 14.6-69.9v-8A67.8 67.8 0 0 1 128 36h.5c37.1.3 67.3 31.2 67.3 68.9v7.1c0 37 8 58.5 14.6 69.9a4.1 4.1 0 0 1 .1 4.1Z"></path></svg>