<svg xmlns="http://www.w3.org/2000/svg" xmlns:xlink="http://www.w3.org/1999/xlink" aria-hidden="true" role="img" class="iconify iconify--ph" width="1em" height="1em" preserveAspectRatio="xMidYMid meet" viewBox="0 0 256 256"><path fill="currentColor" d="m216.9 207.9l-160-176a12 12 0 0 0-17.8 16.2L54 64.5a84.3 84.3 0 0 0-9.8 39.5v8c0 33.4-6.8 52.1-12.5 61.9a20.1 20.1 0 0 0 0 20.1A19.7 19.7 0 0 0 49 204h35.2a44 44 0 0 0 87.6 0h9.1l18.2 20.1a12.1 12.1 0 0 0 17 .8a12.1 12.1 0 0 0 .8-17ZM68.2 112v-8a59.4 59.4 0 0 1 3.5-20.1l87.4 96.1H55.6c10.3-21.5 12.6-48.4 12.6-68ZM128 220a20.1 20.1 0 0 1-19.6-16h39.2a20.1 20.1 0 0 1-19.6 16ZM88.9 42.4a12 12 0 0 1 6.4-15.7a82.6 82.6 0 0 1 33.3-6.7c45.9.3 83.2 38.4 83.2 84.9v7.1a181.6 181.6 0 0 0 3.5 37.2a12 12 0 0 1-9.2 14.2a10.7 10.7 0 0 1-2.5.3a12.2 12.2 0 0 1-11.8-9.5a208.6 208.6 0 0 1-4-42.2v-7.1c0-33.3-26.6-60.7-59.3-60.9h-.5a59.9 59.9 0 0 0-23.3 4.7a12 12 0 0 1-15.8-6.3Z"></path></svg>