<svg xmlns="http://www.w3.org/2000/svg" xmlns:xlink="http://www.w3.org/1999/xlink" aria-hidden="true" role="img" class="iconify iconify--ph" width="1em" height="1em" preserveAspectRatio="xMidYMid meet" viewBox="0 0 256 256"><path fill="currentColor" d="M165.9 224a6 6 0 0 1-6 6h-64a6 6 0 1 1 0-12h64a6 6 0 0 1 6 6Zm53.2-47.1a14 14 0 0 1 0 14.1a13.7 13.7 0 0 1-12.1 7H49a13.7 13.7 0 0 1-12.1-7a14 14 0 0 1 0-14.1c6.1-10.4 13.3-30.1 13.3-64.9A78 78 0 0 1 128 34h.6a77.7 77.7 0 0 1 77.2 78c0 34.8 7.2 54.5 13.3 64.9Zm-10.4 6.1c-6.8-11.7-14.9-33.5-14.9-71a66.3 66.3 0 0 0-19-46.6A65.2 65.2 0 0 0 128.5 46h-.5a65.9 65.9 0 0 0-65.8 66c0 37.5-8.1 59.3-14.9 71a2 2 0 0 0 0 2a1.8 1.8 0 0 0 1.7 1h158a1.8 1.8 0 0 0 1.7-1a2 2 0 0 0 0-2Zm18-119.5a109.9 109.9 0 0 0-40.1-44.6a5.9 5.9 0 0 0-8.2 1.9a6 6 0 0 0 1.8 8.3A97.9 97.9 0 0 1 216 68.8a5.9 5.9 0 0 0 5.4 3.3a6.5 6.5 0 0 0 2.6-.6a5.9 5.9 0 0 0 2.7-8ZM40 68.8a97.9 97.9 0 0 1 35.8-39.7a6 6 0 0 0 1.8-8.3a5.9 5.9 0 0 0-8.2-1.9a109.9 109.9 0 0 0-40.1 44.6a5.9 5.9 0 0 0 2.7 8a6.5 6.5 0 0 0 2.6.6a5.9 5.9 0 0 0 5.4-3.3Z"></path></svg>