<svg xmlns="http://www.w3.org/2000/svg" xmlns:xlink="http://www.w3.org/1999/xlink" aria-hidden="true" role="img" class="iconify iconify--ph" width="1em" height="1em" preserveAspectRatio="xMidYMid meet" viewBox="0 0 256 256"><path fill="currentColor" d="M52.4 36a5.9 5.9 0 0 0-8.8 8l17.8 19.7A77.9 77.9 0 0 0 50.2 104v8c0 34.8-7.2 54.5-13.3 64.9a14 14 0 0 0 0 14.1a13.7 13.7 0 0 0 12.1 7h41v2a38 38 0 0 0 76 0v-2h17.5l20.1 22a5.9 5.9 0 0 0 4.4 2a5.7 5.7 0 0 0 4-1.6a5.8 5.8 0 0 0 .4-8.4ZM154 200a26 26 0 0 1-52 0v-2h52ZM49 186a1.8 1.8 0 0 1-1.7-1a2 2 0 0 1 0-2c6.8-11.7 14.9-33.5 14.9-71v-8a65.3 65.3 0 0 1 7.7-31l102.7 113ZM87.3 44.4a6.1 6.1 0 0 1 2.2-8.2A77.7 77.7 0 0 1 128.6 26c42.6.3 77.2 35.7 77.2 78.9v7.1c0 22.1 2.9 40.6 8.6 55.1a6 6 0 0 1-3.4 7.8a5.7 5.7 0 0 1-2.2.4a6 6 0 0 1-5.6-3.8c-6.2-15.9-9.4-35.9-9.4-59.5v-7.1c0-36.6-29.3-66.6-65.3-66.9a65.6 65.6 0 0 0-33 8.6a6.1 6.1 0 0 1-8.2-2.2Z"></path></svg>