<svg xmlns="http://www.w3.org/2000/svg" xmlns:xlink="http://www.w3.org/1999/xlink" aria-hidden="true" role="img" class="iconify iconify--ph" width="1em" height="1em" preserveAspectRatio="xMidYMid meet" viewBox="0 0 256 256"><path fill="currentColor" d="M56 104a71.9 71.9 0 0 1 72.5-72c39.8.3 71.5 33.2 71.5 72.9v7.1c0 35.8 7.5 56.6 14.1 67.9a8 8 0 0 1-6.9 12.1H48.8a8 8 0 0 1-6.9-12.1C48.5 168.6 56 147.8 56 112Z" opacity=".2"></path><path fill="currentColor" d="M168 224a8 8 0 0 1-8 8H96a8 8 0 0 1 0-16h64a8 8 0 0 1 8 8Zm52.9-32a15.9 15.9 0 0 1-13.9 8H49a16 16 0 0 1-13.8-24.1c5.9-10.2 13-29.6 13-63.9v-8A79.9 79.9 0 0 1 128 24h.6c43.7.3 79.2 36.6 79.2 80.9v7.1c0 34.3 7.1 53.7 13 63.9a16.2 16.2 0 0 1 .1 16.1Zm-13.9-8c-6.9-12-15.2-34.1-15.2-72v-7.1c0-35.5-28.4-64.7-63.3-64.9h-.5a63.8 63.8 0 0 0-63.8 64v8c0 37.9-8.3 60-15.2 72Z"></path></svg>