<svg xmlns="http://www.w3.org/2000/svg" xmlns:xlink="http://www.w3.org/1999/xlink" aria-hidden="true" role="img" class="iconify iconify--ph" width="1em" height="1em" preserveAspectRatio="xMidYMid meet" viewBox="0 0 256 256"><path fill="currentColor" d="M86.6 46.8a8.1 8.1 0 0 1 1.9-12.4A80.2 80.2 0 0 1 128.6 24c43.7.3 79.2 36.6 79.2 80.9v7.1c0 21.9 2.8 40.1 8.4 54.4a8 8 0 0 1-13.3 8.3Zm127.3 163.8a7.9 7.9 0 0 1-.5 11.3a8.2 8.2 0 0 1-5.4 2.1a8 8 0 0 1-5.9-2.6L182.6 200H168a40 40 0 0 1-80 0H49a16 16 0 0 1-13.8-24.1c5.9-10.2 13-29.6 13-63.9v-8a80.2 80.2 0 0 1 10.7-40.1L42.1 45.4a8 8 0 0 1 11.8-10.8ZM152 200h-48a24 24 0 0 0 48 0Z"></path></svg>