<svg xmlns="http://www.w3.org/2000/svg" xmlns:xlink="http://www.w3.org/1999/xlink" aria-hidden="true" role="img" class="iconify iconify--ph" width="1em" height="1em" preserveAspectRatio="xMidYMid meet" viewBox="0 0 256 256"><path fill="currentColor" d="M211.8 112a83.6 83.6 0 0 0-83.2-84h-.6a83.8 83.8 0 0 0-83.8 84c0 33.4-6.8 52.1-12.5 61.9a20.1 20.1 0 0 0 0 20.1A19.7 19.7 0 0 0 49 204h35.2a44 44 0 0 0 87.6 0H207a19.7 19.7 0 0 0 17.3-10a20.1 20.1 0 0 0 0-20.1c-5.7-9.8-12.5-28.5-12.5-61.9ZM128 220a20.1 20.1 0 0 1-19.6-16h39.2a20.1 20.1 0 0 1-19.6 16Zm-72.4-40c10.3-21.5 12.6-48.4 12.6-68a60.1 60.1 0 0 1 17.7-42.7A59.3 59.3 0 0 1 128 52h.5a59.8 59.8 0 0 1 59.3 60c0 19.6 2.3 46.5 12.6 68ZM233.8 73.3a11.2 11.2 0 0 1-5.3 1.3a12 12 0 0 1-10.7-6.7a100.4 100.4 0 0 0-36.5-40.5a12 12 0 1 1 12.8-20.3a123.7 123.7 0 0 1 45.2 50.2a11.9 11.9 0 0 1-5.5 16ZM27.5 74.6a11.2 11.2 0 0 1-5.3-1.3a11.9 11.9 0 0 1-5.5-16A123.7 123.7 0 0 1 61.9 7.1a12 12 0 1 1 12.8 20.3a100.4 100.4 0 0 0-36.5 40.5a12 12 0 0 1-10.7 6.7Z"></path></svg>