<svg xmlns="http://www.w3.org/2000/svg" xmlns:xlink="http://www.w3.org/1999/xlink" aria-hidden="true" role="img" class="iconify iconify--ph" width="1em" height="1em" preserveAspectRatio="xMidYMid meet" viewBox="0 0 256 256"><path fill="currentColor" d="M51 37.3a4 4 0 1 0-6 5.4l18.9 20.7A75.6 75.6 0 0 0 52.2 104v8c0 35.2-7.4 55.3-13.6 65.9a12.2 12.2 0 0 0 0 12.1a11.9 11.9 0 0 0 10.4 6h43v4a36 36 0 0 0 72 0v-4h20.4l20.6 22.7a4.1 4.1 0 0 0 5.7.3a4.2 4.2 0 0 0 .3-5.7ZM156 200a28 28 0 0 1-56 0v-4h56ZM49 188a4.1 4.1 0 0 1-3.5-2a4 4 0 0 1 .1-4c6.6-11.5 14.6-33 14.6-70v-8a67.8 67.8 0 0 1 9.3-34.4L177.1 188ZM89 43.4a4.1 4.1 0 0 1 1.5-5.5A75.9 75.9 0 0 1 128 28h.6c41.5.3 75.2 34.8 75.2 76.9v7.1c0 22.4 2.9 41.1 8.7 55.9a3.9 3.9 0 0 1-2.2 5.1l-1.5.3a3.9 3.9 0 0 1-3.7-2.5c-6.2-15.7-9.3-35.4-9.3-58.8v-7.1c0-37.7-30.2-68.6-67.3-68.9h-.5a67.7 67.7 0 0 0-33.5 8.9a4.1 4.1 0 0 1-5.5-1.5Z"></path></svg>