<svg xmlns="http://www.w3.org/2000/svg" xmlns:xlink="http://www.w3.org/1999/xlink" aria-hidden="true" role="img" class="iconify iconify--ph" width="1em" height="1em" preserveAspectRatio="xMidYMid meet" viewBox="0 0 256 256"><path fill="currentColor" d="M164 224a4 4 0 0 1-4 4H96a4 4 0 0 1 0-8h64a4 4 0 0 1 4 4Zm53.4-46.1a12.2 12.2 0 0 1 0 12.1a11.9 11.9 0 0 1-10.4 6H49a11.9 11.9 0 0 1-10.4-6a12.2 12.2 0 0 1 0-12.1c6.2-10.6 13.6-30.7 13.6-65.9A76 76 0 0 1 128 36h.6a75.6 75.6 0 0 1 75.2 76c0 35.2 7.4 55.3 13.6 65.9Zm-7 4.1c-6.6-11.5-14.6-33-14.6-70a67.6 67.6 0 0 0-67.3-68h-.5a67.9 67.9 0 0 0-67.8 68c0 37-8 58.5-14.6 70a4 4 0 0 0-.1 4a4.1 4.1 0 0 0 3.5 2h158a4.1 4.1 0 0 0 3.5-2a4 4 0 0 0-.1-4Zm14.5-117.7a108.3 108.3 0 0 0-39.3-43.7a4 4 0 1 0-4.3 6.8a100.4 100.4 0 0 1 36.5 40.5a4 4 0 0 0 3.6 2.2a3.8 3.8 0 0 0 1.7-.4a4 4 0 0 0 1.8-5.4ZM38.2 67.9a100.4 100.4 0 0 1 36.5-40.5a4 4 0 1 0-4.3-6.8a108.3 108.3 0 0 0-39.3 43.7a4 4 0 0 0 1.8 5.4a3.8 3.8 0 0 0 1.7.4a4 4 0 0 0 3.6-2.2Z"></path></svg>