<svg xmlns="http://www.w3.org/2000/svg" xmlns:xlink="http://www.w3.org/1999/xlink" aria-hidden="true" role="img" class="iconify iconify--ph" width="1em" height="1em" preserveAspectRatio="xMidYMid meet" viewBox="0 0 256 256"><path fill="currentColor" d="M217.4 177.9c-6.2-10.6-13.6-30.7-13.6-65.9v-7.1c0-42.1-33.7-76.6-75.2-76.9h-.6a76 76 0 0 0-75.8 76v8c0 35.2-7.4 55.3-13.6 65.9a12.2 12.2 0 0 0 0 12.1a11.9 11.9 0 0 0 10.4 6h43v4a36 36 0 0 0 72 0v-4h43a11.9 11.9 0 0 0 10.4-6a12.2 12.2 0 0 0 0-12.1ZM156 200a28 28 0 0 1-56 0v-4h56Zm54.5-14a4.1 4.1 0 0 1-3.5 2H49a4.1 4.1 0 0 1-3.5-2a4 4 0 0 1 .1-4c6.6-11.5 14.6-33 14.6-70v-8A67.9 67.9 0 0 1 128 36h.5c37.1.3 67.3 31.2 67.3 68.9v7.1c0 37 8 58.5 14.6 70a4 4 0 0 1 .1 4ZM152 144a4 4 0 0 1-4 4h-40a3.9 3.9 0 0 1-3.6-2.3a4 4 0 0 1 .5-4.3l34.6-41.4H108a4 4 0 0 1 0-8h40a3.9 3.9 0 0 1 3.6 2.3a4 4 0 0 1-.5 4.3L116.5 140H148a4 4 0 0 1 4 4Z"></path></svg>