<svg xmlns="http://www.w3.org/2000/svg" xmlns:xlink="http://www.w3.org/1999/xlink" aria-hidden="true" role="img" class="iconify iconify--ph" width="1em" height="1em" preserveAspectRatio="xMidYMid meet" viewBox="0 0 256 256"><path fill="currentColor" d="M219.1 176.9c-6.1-10.4-13.3-30.1-13.3-64.9v-7.1c0-43.2-34.6-78.6-77.2-78.9h-.6a77.8 77.8 0 0 0-77.8 78v8c0 34.8-7.2 54.5-13.3 64.9a14 14 0 0 0 0 14.1a13.7 13.7 0 0 0 12.1 7h41v2a38 38 0 0 0 76 0v-2h41a13.7 13.7 0 0 0 12.1-7a14 14 0 0 0 0-14.1ZM154 200a26 26 0 0 1-52 0v-2h52Zm54.7-15a1.8 1.8 0 0 1-1.7 1H49a1.8 1.8 0 0 1-1.7-1a2 2 0 0 1 0-2c6.8-11.8 14.9-33.6 14.9-71v-8A65.9 65.9 0 0 1 128 38h.5c36 .2 65.3 30.3 65.3 66.9v7.1c0 37.4 8.1 59.2 14.9 71a2 2 0 0 1 0 2Z"></path></svg>