<svg xmlns="http://www.w3.org/2000/svg" xmlns:xlink="http://www.w3.org/1999/xlink" aria-hidden="true" role="img" class="iconify iconify--ph" width="1em" height="1em" preserveAspectRatio="xMidYMid meet" viewBox="0 0 256 256"><path fill="currentColor" d="M53.9 34.6a8 8 0 0 0-11.8 10.8l16.8 18.5A80.2 80.2 0 0 0 48.2 104v8c0 34.3-7.1 53.7-13 63.9A16 16 0 0 0 49 200h133.6l19.5 21.4a8 8 0 0 0 5.9 2.6a8.2 8.2 0 0 0 5.4-2.1a7.9 7.9 0 0 0 .5-11.3ZM49 184c6.9-12 15.2-34.1 15.2-72v-8a63.2 63.2 0 0 1 6.2-27.5L168.1 184Zm119 40a8 8 0 0 1-8 8H96a8 8 0 0 1 0-16h64a8 8 0 0 1 8 8ZM85.6 45.4a8.1 8.1 0 0 1 2.9-11A80.2 80.2 0 0 1 128.6 24c43.7.3 79.2 36.6 79.2 80.9v7.1c0 21.8 2.9 40.2 8.5 54.4a8 8 0 0 1-4.5 10.4a8.2 8.2 0 0 1-10.4-4.5c-6.4-16.2-9.6-36.4-9.6-60.3v-7.1c0-35.5-28.4-64.7-63.3-64.9a63.7 63.7 0 0 0-32 8.3a8 8 0 0 1-10.9-2.9Z"></path></svg>