<svg xmlns="http://www.w3.org/2000/svg" xmlns:xlink="http://www.w3.org/1999/xlink" aria-hidden="true" role="img" class="iconify iconify--ph" width="1em" height="1em" preserveAspectRatio="xMidYMid meet" viewBox="0 0 256 256"><path fill="currentColor" d="M172 228a12 12 0 0 1-12 12H96a12 12 0 0 1 0-24h64a12 12 0 0 1 12 12Zm52.3-58.1a20.1 20.1 0 0 1 0 20.1a19.7 19.7 0 0 1-17.3 10H49a19.7 19.7 0 0 1-17.3-10a20.1 20.1 0 0 1 0-20.1c4.1-6.9 12.5-21.4 12.5-57.9A83.8 83.8 0 0 1 128 28h.6a83.6 83.6 0 0 1 83.2 84c0 36.5 8.4 51 12.5 57.9Zm-24 6.1c-6.6-13-12.5-31.5-12.5-64a59.8 59.8 0 0 0-59.3-60h-.5a59.3 59.3 0 0 0-42.1 17.3A60.1 60.1 0 0 0 68.2 112c0 32.5-5.9 51-12.5 64Zm39-118.7a123.7 123.7 0 0 0-45.2-50.2a12 12 0 1 0-12.8 20.3a100.4 100.4 0 0 1 36.5 40.5a12 12 0 0 0 10.7 6.7a11.2 11.2 0 0 0 5.3-1.3a11.9 11.9 0 0 0 5.5-16ZM38.2 67.9a100.4 100.4 0 0 1 36.5-40.5A12 12 0 1 0 61.9 7.1a123.7 123.7 0 0 0-45.2 50.2a11.9 11.9 0 0 0 5.5 16a11.2 11.2 0 0 0 5.3 1.3a12 12 0 0 0 10.7-6.7Z"></path></svg>