<svg xmlns="http://www.w3.org/2000/svg" xmlns:xlink="http://www.w3.org/1999/xlink" aria-hidden="true" role="img" class="iconify iconify--ph" width="1em" height="1em" preserveAspectRatio="xMidYMid meet" viewBox="0 0 256 256"><path fill="currentColor" d="M51 37.3a4 4 0 1 0-6 5.4l18.9 20.7A75.6 75.6 0 0 0 52.2 104v8c0 35.2-7.4 55.3-13.6 65.9A12.1 12.1 0 0 0 49 196h135.4l20.6 22.7a4.1 4.1 0 0 0 5.7.3a4.2 4.2 0 0 0 .3-5.7ZM49 188a4.1 4.1 0 0 1-3.5-2a4.1 4.1 0 0 1 .1-4.1c6.6-11.4 14.6-32.9 14.6-69.9v-8a67.8 67.8 0 0 1 9.3-34.4L177.1 188Zm115 36a4 4 0 0 1-4 4H96a4 4 0 0 1 0-8h64a4 4 0 0 1 4 4ZM89 43.4a4 4 0 0 1 1.5-5.5a76 76 0 0 1 38.1-9.9c41.5.3 75.2 34.8 75.2 76.9v7.1c0 22.3 2.9 41.2 8.7 55.9a4 4 0 0 1-2.2 5.2l-1.5.2a3.9 3.9 0 0 1-3.7-2.5c-6.2-15.7-9.3-35.4-9.3-58.8v-7.1c0-37.7-30.2-68.6-67.3-68.9h-.5a66.7 66.7 0 0 0-33.5 8.9a4.1 4.1 0 0 1-5.5-1.5Z"></path></svg>