<svg xmlns="http://www.w3.org/2000/svg" xmlns:xlink="http://www.w3.org/1999/xlink" aria-hidden="true" role="img" class="iconify iconify--ph" width="1em" height="1em" preserveAspectRatio="xMidYMid meet" viewBox="0 0 256 256"><path fill="currentColor" d="M164 224a4 4 0 0 1-4 4H96a4 4 0 0 1 0-8h64a4 4 0 0 1 4 4Zm53.4-34a12.1 12.1 0 0 1-10.4 6H49a12.1 12.1 0 0 1-10.4-18.1c6.2-10.6 13.6-30.7 13.6-65.9v-8A76 76 0 0 1 128 28h.6c41.5.3 75.2 34.8 75.2 76.9v7.1c0 35.2 7.4 55.3 13.6 65.9a12.2 12.2 0 0 1 0 12.1Zm-7-8.1c-6.6-11.4-14.6-32.9-14.6-69.9v-7.1c0-37.7-30.2-68.6-67.3-68.9h-.5a67.8 67.8 0 0 0-67.8 68v8c0 37-8 58.5-14.6 69.9a4.1 4.1 0 0 0-.1 4.1a4.1 4.1 0 0 0 3.5 2h158a4.1 4.1 0 0 0 3.5-2a4.1 4.1 0 0 0-.1-4.1Z"></path></svg>