<svg xmlns="http://www.w3.org/2000/svg" xmlns:xlink="http://www.w3.org/1999/xlink" aria-hidden="true" role="img" class="iconify iconify--ph" width="1em" height="1em" preserveAspectRatio="xMidYMid meet" viewBox="0 0 256 256"><path fill="currentColor" d="M34.6 74.1a9.3 9.3 0 0 1-3.5-.8a8 8 0 0 1-3.6-10.7a111.7 111.7 0 0 1 40.8-45.4a8 8 0 0 1 8.5 13.6a97 97 0 0 0-35 38.8a7.9 7.9 0 0 1-7.2 4.5ZM160 216H96a8 8 0 0 0 0 16h64a8 8 0 0 0 0-16Zm47.8-104a79.7 79.7 0 0 0-79.2-80h-.6a79.9 79.9 0 0 0-79.8 80c0 34.3-7.1 53.7-13 63.9a16.2 16.2 0 0 0-.1 16.1a15.9 15.9 0 0 0 13.9 8h158a15.9 15.9 0 0 0 13.9-8a16.2 16.2 0 0 0-.1-16.1c-5.9-10.2-13-29.6-13-63.9Zm20.7-49.4a111.7 111.7 0 0 0-40.8-45.4a8 8 0 0 0-8.5 13.6a97 97 0 0 1 35 38.8a7.9 7.9 0 0 0 7.2 4.5a9.3 9.3 0 0 0 3.5-.8a8 8 0 0 0 3.6-10.7Z"></path></svg>