<svg xmlns="http://www.w3.org/2000/svg" xmlns:xlink="http://www.w3.org/1999/xlink" aria-hidden="true" role="img" class="iconify iconify--ph" width="1em" height="1em" preserveAspectRatio="xMidYMid meet" viewBox="0 0 256 256"><path fill="currentColor" d="M160 144a12 12 0 0 1-12 12h-40a12 12 0 0 1-10.9-6.9a12.2 12.2 0 0 1 1.7-12.8l23.6-28.3H108a12 12 0 0 1 0-24h40a12 12 0 0 1 10.9 6.9a12.2 12.2 0 0 1-1.7 12.8L133.6 132H148a12 12 0 0 1 12 12Zm0 72H96a12 12 0 0 0 0 24h64a12 12 0 0 0 0-24Zm64.3-26a19.7 19.7 0 0 1-17.3 10H49a19.7 19.7 0 0 1-17.3-10a20.1 20.1 0 0 1 0-20.1c5.7-9.8 12.5-28.5 12.5-61.9v-4A83.8 83.8 0 0 1 128 20h.6c45.9.3 83.2 38.4 83.2 84.9v3.1c0 33.4 6.8 52.1 12.5 61.9a20.1 20.1 0 0 1 0 20.1Zm-23.9-14c-10.3-21.5-12.6-48.4-12.6-68v-3.1c0-33.3-26.6-60.7-59.3-60.9h-.5a59.3 59.3 0 0 0-42.1 17.3A60.1 60.1 0 0 0 68.2 104v4c0 19.6-2.3 46.5-12.6 68Z"></path></svg>