<svg xmlns="http://www.w3.org/2000/svg" xmlns:xlink="http://www.w3.org/1999/xlink" aria-hidden="true" role="img" class="iconify iconify--ph" width="1em" height="1em" preserveAspectRatio="xMidYMid meet" viewBox="0 0 256 256"><path fill="currentColor" d="M203.8 112a75.6 75.6 0 0 0-75.2-76h-.6a76 76 0 0 0-75.8 76c0 35.2-7.4 55.3-13.6 65.9a12.2 12.2 0 0 0 0 12.1a11.9 11.9 0 0 0 10.4 6h43v4a36 36 0 0 0 72 0v-4h43a11.9 11.9 0 0 0 10.4-6a12.2 12.2 0 0 0 0-12.1c-6.2-10.6-13.6-30.7-13.6-65.9ZM156 200a28 28 0 0 1-56 0v-4h56Zm54.5-14a4.1 4.1 0 0 1-3.5 2H49a4.1 4.1 0 0 1-3.5-2a4 4 0 0 1 .1-4c6.6-11.5 14.6-33 14.6-70A67.9 67.9 0 0 1 128 44h.5a67.6 67.6 0 0 1 67.3 68c0 37 8 58.5 14.6 70a4 4 0 0 1 .1 4Zm12.6-116.3a3.8 3.8 0 0 1-1.7.4a4 4 0 0 1-3.6-2.2a100.4 100.4 0 0 0-36.5-40.5a4 4 0 1 1 4.3-6.8a108.3 108.3 0 0 1 39.3 43.7a4 4 0 0 1-1.8 5.4Zm-188.5.4a3.8 3.8 0 0 1-1.7-.4a4 4 0 0 1-1.8-5.4a108.3 108.3 0 0 1 39.3-43.7a4 4 0 1 1 4.3 6.8a100.4 100.4 0 0 0-36.5 40.5a4 4 0 0 1-3.6 2.2Z"></path></svg>