<svg xmlns="http://www.w3.org/2000/svg" xmlns:xlink="http://www.w3.org/1999/xlink" aria-hidden="true" role="img" class="iconify iconify--ph" width="1em" height="1em" preserveAspectRatio="xMidYMid meet" viewBox="0 0 256 256"><path fill="currentColor" d="M53.9 34.6a8 8 0 0 0-11.8 10.8l16.8 18.5A80.2 80.2 0 0 0 48.2 104v8c0 34.3-7.1 53.7-13 63.9A16 16 0 0 0 49 200h39a40 40 0 0 0 80 0h14.6l19.5 21.4a8 8 0 0 0 5.9 2.6a8.2 8.2 0 0 0 5.4-2.1a7.9 7.9 0 0 0 .5-11.3ZM128 224a24.1 24.1 0 0 1-24-24h48a24.1 24.1 0 0 1-24 24Zm-79-40c6.9-11.9 15.2-34.1 15.2-72v-8a63.2 63.2 0 0 1 6.2-27.5L168.1 184ZM85.6 45.4a8.1 8.1 0 0 1 2.9-11A80.5 80.5 0 0 1 128.6 24c43.7.3 79.2 36.6 79.2 80.9v7.1c0 21.9 2.8 40.1 8.4 54.4a8 8 0 0 1-4.5 10.4a9.3 9.3 0 0 1-2.9.5a7.8 7.8 0 0 1-7.4-5.1c-6.4-16.1-9.6-36.3-9.6-60.2v-7.1c0-35.5-28.4-64.6-63.3-64.9a63.7 63.7 0 0 0-32 8.3a8 8 0 0 1-10.9-2.9Z"></path></svg>