<svg xmlns="http://www.w3.org/2000/svg" xmlns:xlink="http://www.w3.org/1999/xlink" aria-hidden="true" role="img" class="iconify iconify--ph" width="1em" height="1em" preserveAspectRatio="xMidYMid meet" viewBox="0 0 256 256"><path fill="currentColor" d="M165.9 224a6 6 0 0 1-6 6h-64a6 6 0 1 1 0-12h64a6 6 0 0 1 6 6Zm53.2-33a13.7 13.7 0 0 1-12.1 7H49a13.7 13.7 0 0 1-12.1-7a14 14 0 0 1 0-14.1c6.1-10.4 13.3-30.1 13.3-64.9v-8A77.8 77.8 0 0 1 128 26h.6c42.6.3 77.2 35.7 77.2 78.9v7.1c0 34.8 7.2 54.5 13.3 64.9a14 14 0 0 1 0 14.1Zm-10.4-8c-6.8-11.8-14.9-33.6-14.9-71v-7.1c0-36.6-29.3-66.7-65.3-66.9h-.5a65.9 65.9 0 0 0-65.8 66v8c0 37.4-8.1 59.2-14.9 71a2 2 0 0 0 0 2a1.8 1.8 0 0 0 1.7 1h158a1.8 1.8 0 0 0 1.7-1a2 2 0 0 0 0-2Z"></path></svg>