<svg xmlns="http://www.w3.org/2000/svg" xmlns:xlink="http://www.w3.org/1999/xlink" aria-hidden="true" role="img" class="iconify iconify--ph" width="1em" height="1em" preserveAspectRatio="xMidYMid meet" viewBox="0 0 256 256"><path fill="currentColor" d="M172 228a12 12 0 0 1-12 12H96a12 12 0 0 1 0-24h64a12 12 0 0 1 12 12Zm44.1-3.1a12.1 12.1 0 0 1-17-.8L177.2 200H49a20.1 20.1 0 0 1-17.3-30.1c5.7-9.8 12.5-28.5 12.5-61.9v-4A84.3 84.3 0 0 1 54 64.5L39.1 48.1a12 12 0 0 1 17.8-16.2l160 176a12.1 12.1 0 0 1-.8 17ZM155.4 176L71.6 83.9a61.5 61.5 0 0 0-3.4 20.1v4c0 19.5-2.3 46.4-12.6 68ZM104.7 48.7A59.5 59.5 0 0 1 128 44h.5c32.7.2 59.3 27.5 59.3 60.9v3.1c0 18 1.8 34.2 5.5 48.1a12 12 0 0 0 11.6 9a10.3 10.3 0 0 0 3-.4a12 12 0 0 0 8.6-14.6c-3.1-12-4.7-26.1-4.7-42.1v-3.1c0-46.5-37.3-84.6-83.2-84.9h-.6a83.6 83.6 0 0 0-32.8 6.6a12 12 0 0 0 9.5 22.1Z"></path></svg>