<svg xmlns="http://www.w3.org/2000/svg" xmlns:xlink="http://www.w3.org/1999/xlink" aria-hidden="true" role="img" class="iconify iconify--ph" width="1em" height="1em" preserveAspectRatio="xMidYMid meet" viewBox="0 0 256 256"><path fill="currentColor" d="M224.3 141a100.7 100.7 0 0 0-31.4-49H240a12 12 0 0 0 0-24h-78.1a35.9 35.9 0 0 0-67.8 0H16a12 12 0 0 0 0 24h47.1a100.7 100.7 0 0 0-31.4 49a35.9 35.9 0 1 0 24.3 2.7a76.7 76.7 0 0 1 41.1-45.2a36 36 0 0 0 61.8 0a76.7 76.7 0 0 1 41.1 45.2a36.1 36.1 0 1 0 24.3-2.7ZM40 188a12 12 0 1 1 12-12a12 12 0 0 1-12 12Zm88-96a12 12 0 1 1 12-12a12 12 0 0 1-12 12Zm88 96a12 12 0 1 1 12-12a12 12 0 0 1-12 12Z"></path></svg>