<svg xmlns="http://www.w3.org/2000/svg" xmlns:xlink="http://www.w3.org/1999/xlink" aria-hidden="true" role="img" class="iconify iconify--ph" width="1em" height="1em" preserveAspectRatio="xMidYMid meet" viewBox="0 0 256 256"><path fill="currentColor" d="M217.8 148.1A92.6 92.6 0 0 0 165.5 84H240a4 4 0 0 0 0-8h-84.3a28 28 0 0 0-55.4 0H16a4 4 0 0 0 0 8h74.5a92.6 92.6 0 0 0-52.3 64.1a27.9 27.9 0 1 0 8 .6a84.6 84.6 0 0 1 55.1-60.3a28 28 0 0 0 53.4 0a84.6 84.6 0 0 1 55.1 60.3a28.1 28.1 0 1 0 8-.6ZM60 176a20 20 0 1 1-20-20a20.1 20.1 0 0 1 20 20Zm68-76a20 20 0 1 1 20-20a20.1 20.1 0 0 1-20 20Zm88 96a20 20 0 1 1 20-20a20.1 20.1 0 0 1-20 20Z"></path></svg>