<svg xmlns="http://www.w3.org/2000/svg" xmlns:xlink="http://www.w3.org/1999/xlink" aria-hidden="true" role="img" class="iconify iconify--ph" width="1em" height="1em" preserveAspectRatio="xMidYMid meet" viewBox="0 0 256 256"><path fill="currentColor" d="M152 80a24 24 0 1 1-24-24a23.9 23.9 0 0 1 24 24ZM40 152a24 24 0 1 0 24 24a23.9 23.9 0 0 0-24-24Zm176 0a24 24 0 1 0 24 24a23.9 23.9 0 0 0-24-24Z" opacity=".2"></path><path fill="currentColor" d="M221.1 144.4A97 97 0 0 0 181 88h59a8 8 0 0 0 0-16h-81a32 32 0 0 0-62 0H16a8 8 0 0 0 0 16h59a97 97 0 0 0-40.1 56.4a32 32 0 1 0 16.2 1.6A80.5 80.5 0 0 1 99 93.4a31.9 31.9 0 0 0 58 0a80.5 80.5 0 0 1 47.9 52.6a32 32 0 1 0 16.2-1.6ZM56 176a16 16 0 1 1-16-16a16 16 0 0 1 16 16Zm72-80a16 16 0 1 1 16-16a16 16 0 0 1-16 16Zm88 96a16 16 0 1 1 16-16a16 16 0 0 1-16 16Z"></path></svg>