<svg xmlns="http://www.w3.org/2000/svg" xmlns:xlink="http://www.w3.org/1999/xlink" aria-hidden="true" role="img" class="iconify iconify--ph" width="1em" height="1em" preserveAspectRatio="xMidYMid meet" viewBox="0 0 256 256"><path fill="currentColor" d="M219.4 146.2A94.6 94.6 0 0 0 173.9 86H240a6 6 0 0 0 0-12h-82.6a30 30 0 0 0-58.8 0H16a6 6 0 0 0 0 12h66.1a94.6 94.6 0 0 0-45.5 60.2a30.1 30.1 0 1 0 12 1.1a82.5 82.5 0 0 1 51.5-56.4a29.9 29.9 0 0 0 55.8 0a82.5 82.5 0 0 1 51.5 56.4a29.9 29.9 0 1 0 12-1.1ZM58 176a18 18 0 1 1-18-18a18.1 18.1 0 0 1 18 18Zm70-78a18 18 0 1 1 18-18a18.1 18.1 0 0 1-18 18Zm88 96a18 18 0 1 1 18-18a18.1 18.1 0 0 1-18 18Z"></path></svg>