<svg xmlns="http://www.w3.org/2000/svg" xmlns:xlink="http://www.w3.org/1999/xlink" aria-hidden="true" role="img" class="iconify iconify--ph" width="1em" height="1em" preserveAspectRatio="xMidYMid meet" viewBox="0 0 256 256"><path fill="currentColor" d="m54.5 164.7l27.8-38.2A47.9 47.9 0 1 1 48 112a46.6 46.6 0 0 1 21.4 5.1l-27.9 38.2a8 8 0 0 0 1.8 11.2A8.2 8.2 0 0 0 48 168a7.9 7.9 0 0 0 6.5-3.3ZM165.9 72H192a8 8 0 0 1 8 8a8 8 0 0 0 16 0a24.1 24.1 0 0 0-24-24h-40a7.8 7.8 0 0 0-6.9 4a7.7 7.7 0 0 0 0 8l11.6 20H99.3L82.9 60a7.9 7.9 0 0 0-6.9-4H48a8 8 0 0 0 0 16h23.4l13.7 23.5l-15.7 21.6a48.1 48.1 0 0 1 12.9 9.4l11.6-15.9l31.2 53.4a8 8 0 1 0 13.8-8l-30.3-52h57.5l11.2 19.2a46.5 46.5 0 0 1 13.8-8.1Zm42.1 40a47 47 0 0 0-16.9 3.1l23.8 40.9a8 8 0 1 1-13.8 8l-23.8-40.8A47.9 47.9 0 1 0 208 112Z"></path></svg>