<svg xmlns="http://www.w3.org/2000/svg" xmlns:xlink="http://www.w3.org/1999/xlink" aria-hidden="true" role="img" class="iconify iconify--ph" width="1em" height="1em" preserveAspectRatio="xMidYMid meet" viewBox="0 0 256 256"><path fill="currentColor" d="M248 160a40 40 0 1 1-40-40a40 40 0 0 1 40 40ZM48 120a40 40 0 1 0 40 40a40 40 0 0 0-40-40Z" opacity=".2"></path><path fill="currentColor" d="M208 112a47 47 0 0 0-16.9 3.1L165.9 72H192a8 8 0 0 1 8 8a8 8 0 0 0 16 0a24.1 24.1 0 0 0-24-24h-40a7.8 7.8 0 0 0-6.9 4a7.7 7.7 0 0 0 0 8l11.6 20H99.3L82.9 60a7.9 7.9 0 0 0-6.9-4H48a8 8 0 0 0 0 16h23.4l13.7 23.5l-15.7 21.6A46.6 46.6 0 0 0 48 112a48.1 48.1 0 1 0 34.3 14.5l11.6-15.9l31.2 53.4a8 8 0 1 0 13.8-8l-30.3-52h57.5l11.2 19.2A47.9 47.9 0 1 0 208 112ZM48 192a32 32 0 0 1 0-64a31 31 0 0 1 11.8 2.3l-18.3 25a8 8 0 0 0 1.8 11.2A8.2 8.2 0 0 0 48 168a7.9 7.9 0 0 0 6.5-3.3l18.2-25A31.5 31.5 0 0 1 80 160a32.1 32.1 0 0 1-32 32Zm160 0a32.1 32.1 0 0 1-32-32a31.6 31.6 0 0 1 9.5-22.7l15.6 26.7a8 8 0 1 0 13.8-8l-15.6-26.8a31.5 31.5 0 0 1 8.7-1.2a32 32 0 0 1 0 64Z"></path></svg>