<svg xmlns="http://www.w3.org/2000/svg" xmlns:xlink="http://www.w3.org/1999/xlink" aria-hidden="true" role="img" class="iconify iconify--ph" width="1em" height="1em" preserveAspectRatio="xMidYMid meet" viewBox="0 0 256 256"><path fill="currentColor" d="M208 114a46 46 0 0 0-17.8 3.6L162.4 70H192a10 10 0 0 1 10 10a6 6 0 0 0 12 0a22.1 22.1 0 0 0-22-22h-40a6 6 0 0 0-5.2 3a5.9 5.9 0 0 0 0 6l13.4 23H98.1L81.2 61a6 6 0 0 0-5.2-3H48a6 6 0 0 0 0 12h24.6l14.9 25.6l-17.5 24a45.2 45.2 0 0 0-22-5.6a46.1 46.1 0 1 0 31.7 12.7L94.1 107l32.7 56a6 6 0 0 0 5.2 3a6.4 6.4 0 0 0 3-.8a6 6 0 0 0 2.2-8.2l-32.1-55h62.1l12.7 21.7A45.9 45.9 0 1 0 208 114ZM82 160a33.9 33.9 0 1 1-19.1-30.6l-19.7 27.1a5.8 5.8 0 0 0 1.3 8.3A5.7 5.7 0 0 0 48 166a5.9 5.9 0 0 0 4.8-2.5l19.8-27A34.1 34.1 0 0 1 82 160Zm126 34a34 34 0 0 1-22-59.9l16.8 28.9a6 6 0 0 0 5.2 3a6.4 6.4 0 0 0 3-.8a6 6 0 0 0 2.2-8.2l-16.9-28.9A32.8 32.8 0 0 1 208 126a34 34 0 0 1 0 68Z"></path></svg>