<svg xmlns="http://www.w3.org/2000/svg" xmlns:xlink="http://www.w3.org/1999/xlink" aria-hidden="true" role="img" class="iconify iconify--ph" width="1em" height="1em" preserveAspectRatio="xMidYMid meet" viewBox="0 0 256 256"><path fill="currentColor" d="M208 116a44.1 44.1 0 0 0-18.6 4.1L159 68h33a12 12 0 0 1 12 12a4 4 0 0 0 8 0a20.1 20.1 0 0 0-20-20h-40a4.2 4.2 0 0 0-3.5 2a4.1 4.1 0 0 0 0 4l15.2 26H97L79.5 62a4.3 4.3 0 0 0-3.5-2H48a4 4 0 0 0 0 8h25.7l16.2 27.8l-19.3 26.5A44.3 44.3 0 1 0 77 127l17.3-23.7l34.2 58.7a4.1 4.1 0 0 0 3.5 2a4.6 4.6 0 0 0 2-.5a4.1 4.1 0 0 0 1.5-5.5l-33.9-58h66.8l14.1 24.2A43.9 43.9 0 1 0 208 116ZM84 160a36 36 0 1 1-36-36a35.5 35.5 0 0 1 17.8 4.7l-21 28.9a4.1 4.1 0 0 0 .8 5.6a3.8 3.8 0 0 0 2.4.8a4.2 4.2 0 0 0 3.2-1.6l21.1-28.9A35.8 35.8 0 0 1 84 160Zm124 36a36 36 0 0 1-21.5-64.9l18 30.9a4.1 4.1 0 0 0 3.5 2a4.6 4.6 0 0 0 2-.5a4.1 4.1 0 0 0 1.5-5.5l-18.1-30.9A36 36 0 1 1 208 196Z"></path></svg>