<svg xmlns="http://www.w3.org/2000/svg" xmlns:xlink="http://www.w3.org/1999/xlink" aria-hidden="true" role="img" class="iconify iconify--ph" width="1em" height="1em" preserveAspectRatio="xMidYMid meet" viewBox="0 0 256 256"><path fill="currentColor" d="M204 108a50.2 50.2 0 0 0-15.1 2.3l-20-34.3H192a4 4 0 0 1 4 4a12 12 0 0 0 24 0a28.1 28.1 0 0 0-28-28h-44a12 12 0 0 0-10.4 6a12.2 12.2 0 0 0 0 12l8.2 14h-36.2L94.4 58A12.1 12.1 0 0 0 84 52H52a12 12 0 0 0 0 24h25.1l11.1 19L74 112.9a52.1 52.1 0 1 0 18.8 14.9l8.4-10.6L118 146a11.8 11.8 0 0 0 10.3 6a11.9 11.9 0 0 0 10.4-18l-15.1-26h36.2l8.4 14.4A51.9 51.9 0 1 0 204 108ZM80 160a28 28 0 1 1-28-28a32 32 0 0 1 6.3.7l-15.7 19.9a12 12 0 0 0 2 16.8A11.5 11.5 0 0 0 52 172a12.1 12.1 0 0 0 9.4-4.6l15.7-19.8A27.6 27.6 0 0 1 80 160Zm124 28a28.1 28.1 0 0 1-28-28a27.6 27.6 0 0 1 4.9-15.8l12.7 21.8a12 12 0 0 0 10.4 6a11.7 11.7 0 0 0 6-1.6a12 12 0 0 0 4.4-16.4l-12.8-21.9h2.4a28 28 0 0 1 0 56Z"></path></svg>