<svg xmlns="http://www.w3.org/2000/svg" xmlns:xlink="http://www.w3.org/1999/xlink" aria-hidden="true" role="img" class="iconify iconify--ph" width="1em" height="1em" preserveAspectRatio="xMidYMid meet" viewBox="0 0 256 256"><path fill="currentColor" d="M237.2 151.9c0-.1-.1-.1-.1-.2a42.3 42.3 0 0 0-2.3-5.3l-41.5-94.6a8.1 8.1 0 0 0-1.7-2.4a32 32 0 0 0-45.3 0A7.9 7.9 0 0 0 144 55v29h-32V55a7.9 7.9 0 0 0-2.3-5.6a32 32 0 0 0-45.3 0a8.1 8.1 0 0 0-1.7 2.4l-41.5 94.5a42.3 42.3 0 0 0-2.3 5.3c0 .1-.1.1-.1.2a48 48 0 1 0 93.2 16V100h32v67.8a48 48 0 1 0 93.2-15.9Zm-143.1 27a32 32 0 0 1-60.2-21.7l1.8-4.1A32 32 0 0 1 96 167.9a32.1 32.1 0 0 1-1.9 11Zm108.8 19.2A32 32 0 0 1 160 168a32 32 0 0 1 60.3-14.8l1.8 4.1a32 32 0 0 1-19.2 40.8Z"></path></svg>