<svg xmlns="http://www.w3.org/2000/svg" xmlns:xlink="http://www.w3.org/1999/xlink" aria-hidden="true" role="img" class="iconify iconify--ph" width="1em" height="1em" preserveAspectRatio="xMidYMid meet" viewBox="0 0 256 256"><path fill="currentColor" d="M241 150.7a61.4 61.4 0 0 0-2.5-5.9l-41.6-94.6a11.5 11.5 0 0 0-2.5-3.7a36.1 36.1 0 0 0-50.9 0A12.3 12.3 0 0 0 140 55v25h-24V55a12.3 12.3 0 0 0-3.5-8.5a36.1 36.1 0 0 0-50.9 0a11.5 11.5 0 0 0-2.5 3.7l-41.6 94.5a61.4 61.4 0 0 0-2.5 5.9A52 52 0 1 0 116 168v-64h24v64a52 52 0 1 0 101-17.3ZM80 62.3a11.8 11.8 0 0 1 12-1.2v63.1a52 52 0 0 0-35.9-7.6ZM64 196a28.1 28.1 0 0 1-28-28a28.4 28.4 0 0 1 1.6-9.3l1.7-3.8A28 28 0 1 1 64 196ZM164 61.1a11.8 11.8 0 0 1 12 1.2l23.9 54.3a52 52 0 0 0-35.9 7.6ZM192 196a28 28 0 1 1 24.7-41.1l1.7 3.8a28.4 28.4 0 0 1 1.6 9.3a28.1 28.1 0 0 1-28 28Z"></path></svg>