<svg xmlns="http://www.w3.org/2000/svg" xmlns:xlink="http://www.w3.org/1999/xlink" aria-hidden="true" role="img" class="iconify iconify--ph" width="1em" height="1em" preserveAspectRatio="xMidYMid meet" viewBox="0 0 256 256"><path fill="currentColor" d="m231.2 148.1l-41.6-94.7a8.3 8.3 0 0 0-.8-1.2a28.1 28.1 0 0 0-39.6 0A3.9 3.9 0 0 0 148 55v33h-40V55a3.9 3.9 0 0 0-1.2-2.8a28.1 28.1 0 0 0-39.6 0a8.3 8.3 0 0 0-.8 1.2l-41.6 94.7A43 43 0 0 0 20 168a44 44 0 0 0 88 0V96h40v72a44 44 0 0 0 88 0a43 43 0 0 0-4.8-19.9ZM64 204a36 36 0 0 1-36-36a37.6 37.6 0 0 1 2.1-12.2l1.9-4.3A36 36 0 1 1 64 204Zm0-80a44 44 0 0 0-22.7 6.3l32.1-72.9a19.9 19.9 0 0 1 26.6-.6v85.9A44 44 0 0 0 64 124Zm92-67.2a19.9 19.9 0 0 1 26.6.6l32.1 72.9a44 44 0 0 0-58.7 12.4ZM192 204a36 36 0 1 1 32-52.5l1.9 4.3A37.6 37.6 0 0 1 228 168a36 36 0 0 1-36 36Z"></path></svg>