<svg xmlns="http://www.w3.org/2000/svg" xmlns:xlink="http://www.w3.org/1999/xlink" aria-hidden="true" role="img" class="iconify iconify--ph" width="1em" height="1em" preserveAspectRatio="xMidYMid meet" viewBox="0 0 256 256"><path fill="currentColor" d="M104 168a40 40 0 1 1-40-40a40 40 0 0 1 40 40Zm88-40a40 40 0 1 0 40 40a40 40 0 0 0-40-40Z" opacity=".2"></path><path fill="currentColor" d="M237.2 151.9a53.8 53.8 0 0 0-2.4-5.5l-41.5-94.6a8.1 8.1 0 0 0-1.7-2.4a32 32 0 0 0-45.3 0A7.9 7.9 0 0 0 144 55v29h-32V55a7.9 7.9 0 0 0-2.3-5.6a32 32 0 0 0-45.3 0a8.1 8.1 0 0 0-1.7 2.4l-41.5 94.6a53.8 53.8 0 0 0-2.4 5.5A47.4 47.4 0 0 0 16 168a48 48 0 0 0 96 0v-68h32v68a48 48 0 0 0 96 0a47.4 47.4 0 0 0-2.8-16.1ZM76.7 59.8A16.1 16.1 0 0 1 96 58.7v73.6A47.4 47.4 0 0 0 64 120a48.2 48.2 0 0 0-14.8 2.3ZM64 200a31.9 31.9 0 0 1-30.1-42.8l1.8-4A32 32 0 1 1 64 200Zm96-141.3a16.1 16.1 0 0 1 19.3 1.1l27.5 62.5A48.2 48.2 0 0 0 192 120a47.4 47.4 0 0 0-32 12.3ZM192 200a32 32 0 1 1 28.3-46.8l1.8 4A31.9 31.9 0 0 1 192 200Z"></path></svg>