<svg xmlns="http://www.w3.org/2000/svg" xmlns:xlink="http://www.w3.org/1999/xlink" aria-hidden="true" role="img" class="iconify iconify--ph" width="1em" height="1em" preserveAspectRatio="xMidYMid meet" viewBox="0 0 256 256"><path fill="currentColor" d="m233 147.3l-41.6-94.7a5.7 5.7 0 0 0-1.2-1.8a30 30 0 0 0-42.4 0A5.6 5.6 0 0 0 146 55v31h-36V55a5.6 5.6 0 0 0-1.8-4.2a30 30 0 0 0-42.4 0a5.7 5.7 0 0 0-1.2 1.8L23 147.3a44.9 44.9 0 0 0-5 20.7a46 46 0 0 0 92 0V98h36v70a46 46 0 0 0 92 0a44.9 44.9 0 0 0-5-20.7ZM64 202a34 34 0 0 1-32-45.5l1.8-4.2A34 34 0 1 1 64 202Zm0-80a45.4 45.4 0 0 0-18.5 3.9l29.6-67.3a18 18 0 0 1 22.9-.9V137a45.9 45.9 0 0 0-34-15Zm94-64.3a18 18 0 0 1 22.9.9l29.6 67.3A45.4 45.4 0 0 0 192 122a45.9 45.9 0 0 0-34 15ZM192 202a34 34 0 1 1 30.2-49.7l1.8 4.2a34 34 0 0 1-32 45.5Z"></path></svg>