<svg xmlns="http://www.w3.org/2000/svg" xmlns:xlink="http://www.w3.org/1999/xlink" aria-hidden="true" role="img" class="iconify iconify--ph" width="1em" height="1em" preserveAspectRatio="xMidYMid meet" viewBox="0 0 256 256"><path fill="currentColor" d="M176 72a16 16 0 1 1-16-16a16 16 0 0 1 16 16Zm68 8a12.1 12.1 0 0 1-5.3 10L220 102.4V120a108.1 108.1 0 0 1-108 108H12a12.1 12.1 0 0 1-10.8-6.7a12 12 0 0 1 1.3-12.6L92 91.9V76a64 64 0 0 1 124.6-20.7L238.7 70a12.1 12.1 0 0 1 5.3 10Zm-33.6 0l-10.7-7.1a12.2 12.2 0 0 1-5-7A40 40 0 0 0 116 76v20a12.2 12.2 0 0 1-2.5 7.3L36.3 204H112a84.1 84.1 0 0 0 84-84V96a12.1 12.1 0 0 1 5.3-10Zm-81.8 46.5a11.9 11.9 0 0 0-16.8 2.2l-30.7 40a12 12 0 0 0 2.3 16.8a11.5 11.5 0 0 0 7.3 2.5a11.9 11.9 0 0 0 9.5-4.7l30.7-40a12 12 0 0 0-2.3-16.8Z"></path></svg>