<svg xmlns="http://www.w3.org/2000/svg" xmlns:xlink="http://www.w3.org/1999/xlink" aria-hidden="true" role="img" class="iconify iconify--ph" width="1em" height="1em" preserveAspectRatio="xMidYMid meet" viewBox="0 0 256 256"><path fill="currentColor" d="M172 68a8 8 0 1 1-8-8a8 8 0 0 1 8 8Zm-55.1 65.4l-40 48a4.1 4.1 0 0 0 .5 5.7a4.3 4.3 0 0 0 2.6.9a4.3 4.3 0 0 0 3.1-1.4l40-48a4 4 0 0 0-6.2-5.2ZM236 80a4 4 0 0 1-1.8 3.3L212 98.1V120a100.2 100.2 0 0 1-100 100H8a4.1 4.1 0 0 1-3.6-2.3a3.8 3.8 0 0 1 .5-4.2L100 94.6V76a56 56 0 0 1 109.8-15.6l24.4 16.3A4 4 0 0 1 236 80Zm-11.2 0l-20.7-13.8a3.8 3.8 0 0 1-1.6-2.3A48 48 0 0 0 108 76v20a3.8 3.8 0 0 1-.9 2.5L16.3 212H112a92.1 92.1 0 0 0 92-92V96a4 4 0 0 1 1.8-3.3Z"></path></svg>