<svg xmlns="http://www.w3.org/2000/svg" xmlns:xlink="http://www.w3.org/1999/xlink" aria-hidden="true" role="img" class="iconify iconify--ph" width="1em" height="1em" preserveAspectRatio="xMidYMid meet" viewBox="0 0 256 256"><path fill="currentColor" d="M188.8 169.6L133.3 128l55.5-41.6a8 8 0 0 0 0-12.8l-64-48a8 8 0 0 0-8.4-.7A7.9 7.9 0 0 0 112 32v80L60.8 73.6a8.1 8.1 0 0 0-11.2 1.6a8 8 0 0 0 1.6 11.2l55.5 41.6l-55.5 41.6A8 8 0 0 0 56 184a7.7 7.7 0 0 0 4.8-1.6L112 144v80a8.2 8.2 0 0 0 4.4 7.2a9.4 9.4 0 0 0 3.6.8a7.7 7.7 0 0 0 4.8-1.6l64-48a8 8 0 0 0 0-12.8ZM128 48l42.7 32l-42.7 32Zm0 160v-64l42.7 32Z"></path></svg>