<svg xmlns="http://www.w3.org/2000/svg" xmlns:xlink="http://www.w3.org/1999/xlink" aria-hidden="true" role="img" class="iconify iconify--ph" width="1em" height="1em" preserveAspectRatio="xMidYMid meet" viewBox="0 0 256 256"><path fill="currentColor" d="m211 213.3l-62.8-69.1L51 37.3a4.2 4.2 0 0 0-5.7-.3a4.1 4.1 0 0 0-.2 5.7l74 81.4h-.7a.1.1 0 0 1-.1.1h-.1a1 1 0 0 0-.5.4h-.1l-64 48a4 4 0 0 0-.8 5.6A3.9 3.9 0 0 0 56 180a4.3 4.3 0 0 0 2.4-.8L116 136v88a4.2 4.2 0 0 0 2.2 3.6a3.9 3.9 0 0 0 1.8.4a4.1 4.1 0 0 0 2.4-.8l53.7-40.3l29 31.8a3.6 3.6 0 0 0 2.9 1.3a3.9 3.9 0 0 0 2.7-1a4.1 4.1 0 0 0 .3-5.7Zm-87 2.7v-80l18.5 13.9l28.2 31.1Zm-8-144.4V32a4.2 4.2 0 0 1 2.2-3.6a4 4 0 0 1 4.2.4l64 48a4 4 0 0 1 0 6.4l-33.5 25.1a3.7 3.7 0 0 1-2.4.8a3.9 3.9 0 0 1-3.2-1.6a4 4 0 0 1 .8-5.6L177.3 80L124 40v31.6a4 4 0 0 1-8 0Z"></path></svg>