<svg xmlns="http://www.w3.org/2000/svg" xmlns:xlink="http://www.w3.org/1999/xlink" aria-hidden="true" role="img" class="iconify iconify--ph" width="1em" height="1em" preserveAspectRatio="xMidYMid meet" viewBox="0 0 256 256"><path fill="currentColor" d="m120 32l64 48l-64 48V32zm0 96l64 48l-64 48v-96z" opacity=".2"></path><path fill="currentColor" d="m214 210.6l-31.4-34.5l-31.4-34.5L54 34.6a8 8 0 0 0-11.9 10.8l70.9 77.9l-61.8 46.3A8 8 0 0 0 56 184a7.7 7.7 0 0 0 4.8-1.6L112 144v80a8.1 8.1 0 0 0 4.5 7.2a8.5 8.5 0 0 0 3.5.8a7.7 7.7 0 0 0 4.8-1.6l50.9-38.1l26.4 29.1a8.2 8.2 0 0 0 5.9 2.6a7.8 7.8 0 0 0 5.4-2.1a8 8 0 0 0 .6-11.3Zm-86-2.6v-64l11.8 8.8l25 27.6Zm-8-128.4a8 8 0 0 0 8-8V48l42.7 32l-25 18.7a8 8 0 0 0 4.8 14.4a7.7 7.7 0 0 0 4.8-1.6l33.5-25.1a8 8 0 0 0 0-12.8l-64-48A8 8 0 0 0 112 32v39.6a8 8 0 0 0 8 8Z"></path></svg>