<svg xmlns="http://www.w3.org/2000/svg" xmlns:xlink="http://www.w3.org/1999/xlink" aria-hidden="true" role="img" class="iconify iconify--ph" width="1em" height="1em" preserveAspectRatio="xMidYMid meet" viewBox="0 0 256 256"><path fill="currentColor" d="m216.9 207.9l-31.4-34.5L56.9 31.9a12 12 0 0 0-17.8 16.2l67.9 74.6l-58.2 43.7a12 12 0 0 0-2.4 16.8A12.2 12.2 0 0 0 56 188a12 12 0 0 0 7.2-2.4L108 152v72a12 12 0 0 0 6.7 10.7a10.9 10.9 0 0 0 5.3 1.3a11.8 11.8 0 0 0 7.2-2.4l47.9-35.9l24 26.4a12.1 12.1 0 0 0 8.9 3.9a12 12 0 0 0 8.9-20.1ZM132 200v-49.8l26.9 29.6ZM108 59.7V32a12 12 0 0 1 6.7-10.7a11.8 11.8 0 0 1 12.5 1.1l64 48a12 12 0 0 1 0 19.2l-27.1 20.3a12 12 0 1 1-14.4-19.2L164 80l-32-24v3.7a12 12 0 0 1-24 0Z"></path></svg>