<svg xmlns="http://www.w3.org/2000/svg" xmlns:xlink="http://www.w3.org/1999/xlink" aria-hidden="true" role="img" class="iconify iconify--ph" width="1em" height="1em" preserveAspectRatio="xMidYMid meet" viewBox="0 0 256 256"><path fill="currentColor" d="M186.4 172.8L126.7 128l27.7-20.8a4 4 0 1 0-4.8-6.4L124 120V40l25.6 19.2a4 4 0 0 0 4.8-6.4l-32-24a4 4 0 0 0-4.2-.4A4.2 4.2 0 0 0 116 32v88L58.4 76.8a4 4 0 0 0-4.8 6.4l59.7 44.8l-59.7 44.8a4 4 0 0 0-.8 5.6A3.9 3.9 0 0 0 56 180a4.3 4.3 0 0 0 2.4-.8L116 136v88a4.2 4.2 0 0 0 2.2 3.6a3.9 3.9 0 0 0 1.8.4a4.1 4.1 0 0 0 2.4-.8l64-48a4 4 0 0 0 0-6.4ZM124 216v-80l53.3 40Zm110.8-114.8a3.9 3.9 0 0 1 0 5.6a3.8 3.8 0 0 1-2.8 1.2a3.9 3.9 0 0 1-2.8-1.2L208 85.7l-21.2 21.1a3.8 3.8 0 0 1-2.8 1.2a3.9 3.9 0 0 1-2.8-1.2a3.9 3.9 0 0 1 0-5.6L202.3 80l-21.1-21.2a4 4 0 0 1 5.6-5.6L208 74.3l21.2-21.1a4 4 0 1 1 5.6 5.6L213.7 80Z"></path></svg>