<svg xmlns="http://www.w3.org/2000/svg" xmlns:xlink="http://www.w3.org/1999/xlink" aria-hidden="true" role="img" class="iconify iconify--ph" width="1em" height="1em" preserveAspectRatio="xMidYMid meet" viewBox="0 0 256 256"><path fill="currentColor" d="M52 140a12 12 0 1 1 12-12a12 12 0 0 1-12 12Zm140 36a8.1 8.1 0 0 1-3.2 6.4l-64 48a7.7 7.7 0 0 1-4.8 1.6a9.4 9.4 0 0 1-3.6-.8a8.2 8.2 0 0 1-4.4-7.2v-80l-51.2 38.4A7.7 7.7 0 0 1 56 184a8 8 0 0 1-4.8-14.4l55.5-41.6l-55.5-41.6a8 8 0 0 1 9.6-12.8L112 112V32a7.9 7.9 0 0 1 4.4-7.1a8 8 0 0 1 8.4.7l64 48a8 8 0 0 1 0 12.8L133.3 128l55.5 41.6a8.1 8.1 0 0 1 3.2 6.4Zm-64-64l42.7-32L128 48Zm42.7 64L128 144v64Zm25.3-60a12 12 0 1 0 12 12a12 12 0 0 0-12-12Z"></path></svg>