<svg xmlns="http://www.w3.org/2000/svg" xmlns:xlink="http://www.w3.org/1999/xlink" aria-hidden="true" role="img" class="iconify iconify--ph" width="1em" height="1em" preserveAspectRatio="xMidYMid meet" viewBox="0 0 256 256"><path fill="currentColor" d="m212.5 212l-31.4-34.6l-31.4-34.5L52.5 36a5.9 5.9 0 0 0-8.5-.4a5.8 5.8 0 0 0-.4 8.4l72.3 79.6l-63.5 47.6a6 6 0 0 0-1.2 8.4a6 6 0 0 0 8.4 1.2L114 140v84a6 6 0 0 0 3.3 5.4a6.6 6.6 0 0 0 2.7.6a5.8 5.8 0 0 0 3.6-1.2l52.3-39.2l27.7 30.4a6 6 0 0 0 4.4 2a5.9 5.9 0 0 0 4.1-1.6a6 6 0 0 0 .4-8.4Zm-86.5 0v-72l15.1 11.3l26.7 29.4ZM114 71.6V32a6.2 6.2 0 0 1 3.3-5.4a6 6 0 0 1 6.3.6l64 48a6 6 0 0 1 0 9.6l-33.5 25.1a5.6 5.6 0 0 1-3.6 1.2a6 6 0 0 1-3.6-10.8L174 80l-48-36v27.6a6 6 0 0 1-12 0Z"></path></svg>