<svg xmlns="http://www.w3.org/2000/svg" xmlns:xlink="http://www.w3.org/1999/xlink" aria-hidden="true" role="img" class="iconify iconify--ph" width="1em" height="1em" preserveAspectRatio="xMidYMid meet" viewBox="0 0 256 256"><path fill="currentColor" d="M186.4 172.8L126.7 128l59.7-44.8A3.9 3.9 0 0 0 188 80a4 4 0 0 0-1.6-3.2l-64-48A4 4 0 0 0 116 32v88L58.4 76.8a4 4 0 0 0-4.8 6.4l59.7 44.8l-59.7 44.8a4 4 0 0 0-.8 5.6A3.9 3.9 0 0 0 56 180a4.3 4.3 0 0 0 2.4-.8L116 136v88a4.2 4.2 0 0 0 2.2 3.6a3.9 3.9 0 0 0 1.8.4a4.1 4.1 0 0 0 2.4-.8l64-48a3.9 3.9 0 0 0 1.6-3.2a4 4 0 0 0-1.6-3.2ZM124 40l53.3 40l-53.3 40Zm0 176v-80l53.3 40Zm80-88a8 8 0 1 1-8-8a8 8 0 0 1 8 8Zm-152 8a8 8 0 1 1 8-8a8 8 0 0 1-8 8Z"></path></svg>