<svg xmlns="http://www.w3.org/2000/svg" xmlns:xlink="http://www.w3.org/1999/xlink" aria-hidden="true" role="img" class="iconify iconify--ph" width="1em" height="1em" preserveAspectRatio="xMidYMid meet" viewBox="0 0 256 256"><path fill="currentColor" d="M187.6 171.2L130 128l57.6-43.2a6 6 0 0 0 0-9.6l-64-48a6 6 0 0 0-6.3-.6A6.2 6.2 0 0 0 114 32v84L59.6 75.2a6 6 0 0 0-7.2 9.6L110 128l-57.6 43.2a6 6 0 0 0-1.2 8.4a6 6 0 0 0 8.4 1.2L114 140v84a6 6 0 0 0 3.3 5.4a6.6 6.6 0 0 0 2.7.6a6 6 0 0 0 3.6-1.2l64-48a6 6 0 0 0 0-9.6ZM126 44l48 36l-48 36Zm0 168v-72l48 36Z"></path></svg>