<svg xmlns="http://www.w3.org/2000/svg" xmlns:xlink="http://www.w3.org/1999/xlink" aria-hidden="true" role="img" class="iconify iconify--ph" width="1em" height="1em" preserveAspectRatio="xMidYMid meet" viewBox="0 0 256 256"><path fill="currentColor" d="M120 232a9.4 9.4 0 0 1-3.6-.8a8.2 8.2 0 0 1-4.4-7.2v-80l-51.2 38.4a8 8 0 0 1-11.2-1.6a8.1 8.1 0 0 1 1.6-11.2l61.8-46.3l-70.9-77.9a8 8 0 0 1 .5-11.3a7.9 7.9 0 0 1 11.3.5L151 141.4l.2.2l31.3 34.5h.2l31.2 34.4a8 8 0 0 1-11.8 10.8l-26.4-29.1l-50.9 38.1a7.7 7.7 0 0 1-4.8 1.7Zm8-88v64l36.8-27.6l-25-27.6Zm22.5-30.9a8 8 0 0 1-4.8-14.4l25-18.7L128 48v23.6a8 8 0 0 1-16 0V32a8 8 0 0 1 12.8-6.4l64 48a8 8 0 0 1 0 12.8l-33.5 25.1a7.7 7.7 0 0 1-4.8 1.6Z"></path></svg>