<svg xmlns="http://www.w3.org/2000/svg" xmlns:xlink="http://www.w3.org/1999/xlink" aria-hidden="true" role="img" class="iconify iconify--ph" width="1em" height="1em" preserveAspectRatio="xMidYMid meet" viewBox="0 0 256 256"><path fill="currentColor" d="m213.9 210.6l-31.4-34.5l-31.3-34.5h-.1l-97.2-107a7.9 7.9 0 0 0-11.3-.5a8 8 0 0 0-.5 11.3l70.8 77.9l-61.7 46.3A8 8 0 0 0 56 184a7.7 7.7 0 0 0 4.8-1.6L112 144v80a8.2 8.2 0 0 0 4.4 7.2a9.4 9.4 0 0 0 3.6.8a7.7 7.7 0 0 0 4.8-1.6l50.8-38.1l26.5 29.1a8 8 0 0 0 11.3.5a7.9 7.9 0 0 0 .5-11.3ZM128 208v-64l11.8 8.8l25 27.6ZM112 71.6V32a8 8 0 0 1 12.8-6.4l64 48a8 8 0 0 1 0 12.8l-33.5 25.1a7.9 7.9 0 0 1-4.8 1.6a7.8 7.8 0 0 1-6.4-3.2a7.9 7.9 0 0 1 1.6-11.2l25-18.7L128 48v23.6a8 8 0 0 1-16 0Z"></path></svg>