<svg xmlns="http://www.w3.org/2000/svg" xmlns:xlink="http://www.w3.org/1999/xlink" aria-hidden="true" role="img" class="iconify iconify--ph" width="1em" height="1em" preserveAspectRatio="xMidYMid meet" viewBox="0 0 256 256"><path fill="currentColor" d="m221.1 110.6l-13.1-4.4V56a16 16 0 0 0-16-16h-56V24a8 8 0 0 0-16 0v16H64a16 16 0 0 0-16 16v50.2l-13.1 4.4A16 16 0 0 0 24 125.8V160a8.3 8.3 0 0 0 .3 2.2c15.7 55 86.1 74 100.1 77.2a16.4 16.4 0 0 0 7.2 0c14-3.2 84.4-22.2 100.1-77.2a8.3 8.3 0 0 0 .3-2.2v-34.2a16 16 0 0 0-10.9-15.2ZM136 168a8 8 0 0 1-16 0v-55.6a8 8 0 0 1 16 0Zm56-67.1l-58.9-19.6a16.2 16.2 0 0 0-10.2 0L64 100.9V56h128Z"></path></svg>