<svg xmlns="http://www.w3.org/2000/svg" xmlns:xlink="http://www.w3.org/1999/xlink" aria-hidden="true" role="img" class="iconify iconify--ph" width="1em" height="1em" preserveAspectRatio="xMidYMid meet" viewBox="0 0 256 256"><path fill="currentColor" d="m222.3 106.8l-10.3-3.4V56a20.1 20.1 0 0 0-20-20h-52V24a12 12 0 0 0-24 0v12H64a20.1 20.1 0 0 0-20 20v47.4l-10.3 3.4a19.9 19.9 0 0 0-13.7 19V160a12.6 12.6 0 0 0 .5 3.3c16.3 57.2 88.6 76.7 103 80a20.5 20.5 0 0 0 9 0c14.4-3.3 86.7-22.8 103-80a12.6 12.6 0 0 0 .5-3.3v-34.2a19.9 19.9 0 0 0-13.7-19ZM68 60h120v35.4l-53.7-17.9a15.6 15.6 0 0 0-5.7-1h-1.2a15.6 15.6 0 0 0-5.7 1L68 95.4Zm144 98.2c-13.5 42.6-73.5 58.9-84 61.5c-10.5-2.6-70.5-18.9-84-61.5v-29.6l15.6-5.1l56.4-18.9V168a12 12 0 0 0 24 0v-63.4l56.4 18.8l15.6 5.1Z"></path></svg>