<svg xmlns="http://www.w3.org/2000/svg" xmlns:xlink="http://www.w3.org/1999/xlink" aria-hidden="true" role="img" class="iconify iconify--ph" width="1em" height="1em" preserveAspectRatio="xMidYMid meet" viewBox="0 0 256 256"><path fill="currentColor" d="m219.8 114.4l-15.8-5.3V56a12 12 0 0 0-12-12h-60V24a4 4 0 0 0-8 0v20H64a12 12 0 0 0-12 12v53.1l-15.8 5.3a12 12 0 0 0-8.2 11.4V160a4.3 4.3 0 0 0 .2 1.1c15.1 52.9 83.5 71.2 97.1 74.4l2.7.3l2.7-.3c13.6-3.2 82-21.5 97.1-74.4a4.3 4.3 0 0 0 .2-1.1v-34.2a12 12 0 0 0-8.2-11.4ZM60 56a4 4 0 0 1 4-4h128a4 4 0 0 1 4 4v50.5L131.8 85a11.9 11.9 0 0 0-3.7-.6h-.2a11.9 11.9 0 0 0-3.7.6L60 106.5Zm160 103.4c-6 20.3-21.4 37.4-46 51a185 185 0 0 1-45.1 17.3a5.4 5.4 0 0 1-1.8 0A185 185 0 0 1 82 210.4c-24.6-13.6-40-30.7-46-51v-33.6a3.9 3.9 0 0 1 2.7-3.8L124 93.5V168a4 4 0 0 0 8 0V93.5l85.3 28.5a3.9 3.9 0 0 1 2.7 3.8Z"></path></svg>