<svg xmlns="http://www.w3.org/2000/svg" xmlns:xlink="http://www.w3.org/1999/xlink" aria-hidden="true" role="img" class="iconify iconify--ph" width="1em" height="1em" preserveAspectRatio="xMidYMid meet" viewBox="0 0 256 256"><path fill="currentColor" d="m229.8 196.6l-8.3-30.9L196.6 73l-8.3-30.9a12 12 0 0 0-14.7-8.5l-30.9 8.3a11.7 11.7 0 0 0-3.6 1.6A12 12 0 0 0 128 36H96a11.9 11.9 0 0 0-8 3.1a11.9 11.9 0 0 0-8-3.1H48a12 12 0 0 0-12 12v160a12 12 0 0 0 12 12h32a11.9 11.9 0 0 0 8-3.1a11.9 11.9 0 0 0 8 3.1h32a12 12 0 0 0 12-12V78l2.5 9.5l24.9 92.7l8.3 30.9a11.9 11.9 0 0 0 11.6 8.9a11.5 11.5 0 0 0 3.1-.4l30.9-8.3a11.8 11.8 0 0 0 7.3-5.6a12.1 12.1 0 0 0 1.2-9.1ZM151.3 89.3l38.6-10.4l22.8 85l-38.6 10.4ZM96 44h32a4 4 0 0 1 4 4v124H92V48a4 4 0 0 1 4-4Zm-48 0h32a4 4 0 0 1 4 4v28H44V48a4 4 0 0 1 4-4Zm32 168H48a4 4 0 0 1-4-4V84h40v124a4 4 0 0 1-4 4Zm48 0H96a4 4 0 0 1-4-4v-28h40v28a4 4 0 0 1-4 4Zm14.4-160.5a3.8 3.8 0 0 1 2.4-1.9l30.9-8.3h1a4 4 0 0 1 3.9 2.9l7.3 27.1l-38.7 10.2l-7.2-27a3.5 3.5 0 0 1 .4-3Zm79.2 150.2a4.1 4.1 0 0 1-2.4 1.9l-30.9 8.3a4.1 4.1 0 0 1-4.9-2.9l-7.3-27l38.7-10.4l7.2 27.1a3.5 3.5 0 0 1-.4 3Z"></path></svg>