<svg xmlns="http://www.w3.org/2000/svg" xmlns:xlink="http://www.w3.org/1999/xlink" aria-hidden="true" role="img" class="iconify iconify--ph" width="1em" height="1em" preserveAspectRatio="xMidYMid meet" viewBox="0 0 256 256"><path fill="currentColor" d="M208 28H72a28.1 28.1 0 0 0-28 28v168a4 4 0 0 0 4 4h144a4 4 0 0 0 0-8H52v-4a20.1 20.1 0 0 1 20-20h136a4 4 0 0 0 4-4V32a4 4 0 0 0-4-4Zm-92 8h56v84l-25.6-19.2a3.9 3.9 0 0 0-4.8 0L116 120Zm88 152H72a27.9 27.9 0 0 0-20 8.4V56a20.1 20.1 0 0 1 20-20h36v92a4.2 4.2 0 0 0 2.2 3.6a4 4 0 0 0 4.2-.4L144 109l29.6 22.2a4.3 4.3 0 0 0 2.4.8a3.9 3.9 0 0 0 1.8-.4a4.2 4.2 0 0 0 2.2-3.6V36h24Z"></path></svg>