<svg xmlns="http://www.w3.org/2000/svg" xmlns:xlink="http://www.w3.org/1999/xlink" aria-hidden="true" role="img" class="iconify iconify--ph" width="1em" height="1em" preserveAspectRatio="xMidYMid meet" viewBox="0 0 256 256"><path fill="currentColor" d="M156 56H60a20.1 20.1 0 0 0-20 20v152a12.1 12.1 0 0 0 6.5 10.7a12.2 12.2 0 0 0 12.5-.9l49-35.1l49 35.1a12.6 12.6 0 0 0 7 2.2a11.7 11.7 0 0 0 5.5-1.3A12.1 12.1 0 0 0 176 228V76a20.1 20.1 0 0 0-20-20Zm-4 148.7l-37-26.5a12.1 12.1 0 0 0-7-2.2a11.9 11.9 0 0 0-7 2.2l-37 26.5V80h88ZM216 36v152a12 12 0 0 1-24 0V40H92a12 12 0 0 1 0-24h104a20.1 20.1 0 0 1 20 20Z"></path></svg>