<svg xmlns="http://www.w3.org/2000/svg" xmlns:xlink="http://www.w3.org/1999/xlink" aria-hidden="true" role="img" class="iconify iconify--ph" width="1em" height="1em" preserveAspectRatio="xMidYMid meet" viewBox="0 0 256 256"><path fill="currentColor" d="M160 58H64a14 14 0 0 0-14 14v152a6 6 0 0 0 3.3 5.3a5.8 5.8 0 0 0 6.2-.4l52.5-37.5l52.5 37.5a6.3 6.3 0 0 0 3.5 1.1a5.2 5.2 0 0 0 2.7-.7a6 6 0 0 0 3.3-5.3V72a14 14 0 0 0-14-14Zm2 154.3l-46.5-33.2a6.6 6.6 0 0 0-3.5-1.1a6.3 6.3 0 0 0-3.5 1.1L62 212.3V72a2 2 0 0 1 2-2h96a2 2 0 0 1 2 2ZM206 40v152a6 6 0 0 1-12 0V40a2 2 0 0 0-2-2H88a6 6 0 0 1 0-12h104a14 14 0 0 1 14 14Z"></path></svg>