<svg xmlns="http://www.w3.org/2000/svg" xmlns:xlink="http://www.w3.org/1999/xlink" aria-hidden="true" role="img" class="iconify iconify--ph" width="1em" height="1em" preserveAspectRatio="xMidYMid meet" viewBox="0 0 256 256"><path fill="currentColor" d="M192 20H96a20.1 20.1 0 0 0-20 20v20H64a20.1 20.1 0 0 0-20 20v144a12.1 12.1 0 0 0 6.7 10.8A12.4 12.4 0 0 0 56 236a11.5 11.5 0 0 0 7.3-2.5l44.7-34.4l44.7 34.4a12 12 0 0 0 12.6 1.3A12.1 12.1 0 0 0 172 224v-46.4l20.7 15.9a11.5 11.5 0 0 0 7.3 2.5a12.4 12.4 0 0 0 5.3-1.2A12.1 12.1 0 0 0 212 184V40a20.1 20.1 0 0 0-20-20Zm-44 179.6l-32.7-25.1a11.9 11.9 0 0 0-14.6 0L68 199.6V84h80Zm40-40l-16-12.3V80a20.1 20.1 0 0 0-20-20h-52V44h88Z"></path></svg>