<svg xmlns="http://www.w3.org/2000/svg" xmlns:xlink="http://www.w3.org/1999/xlink" aria-hidden="true" role="img" class="iconify iconify--ph" width="1em" height="1em" preserveAspectRatio="xMidYMid meet" viewBox="0 0 256 256"><path fill="currentColor" d="M176 32v96l-32-24l-32 24V32H72a23.9 23.9 0 0 0-24 24v160a23.9 23.9 0 0 1 24-24h136V32Z" opacity=".2"></path><path fill="currentColor" d="M208 24H72a32.1 32.1 0 0 0-32 32v168a8 8 0 0 0 8 8h144a8 8 0 0 0 0-16H56a16 16 0 0 1 16-16h136a8 8 0 0 0 8-8V32a8 8 0 0 0-8-8Zm-88 16h48v72l-19.2-14.4a8.1 8.1 0 0 0-9.6 0L120 112Zm80 144H72a32.2 32.2 0 0 0-16 4.3V56a16 16 0 0 1 16-16h32v88a8 8 0 0 0 12.8 6.4L144 114l27.2 20.4a7.7 7.7 0 0 0 4.8 1.6a9.4 9.4 0 0 0 3.6-.8a8.2 8.2 0 0 0 4.4-7.2V40h16Z"></path></svg>