<svg xmlns="http://www.w3.org/2000/svg" xmlns:xlink="http://www.w3.org/1999/xlink" aria-hidden="true" role="img" class="iconify iconify--ph" width="1em" height="1em" preserveAspectRatio="xMidYMid meet" viewBox="0 0 256 256"><path fill="currentColor" d="M184 36H72a12 12 0 0 0-12 12v176a3.9 3.9 0 0 0 2.1 3.5a3.8 3.8 0 0 0 4-.1l61.9-38.7l61.9 38.7a3.9 3.9 0 0 0 2.1.6a4.1 4.1 0 0 0 1.9-.5a3.9 3.9 0 0 0 2.1-3.5V48a12 12 0 0 0-12-12Zm4 180.8l-57.9-36.2a4 4 0 0 0-4.2 0L68 216.8V48a4 4 0 0 1 4-4h112a4 4 0 0 1 4 4Z"></path></svg>