<svg xmlns="http://www.w3.org/2000/svg" xmlns:xlink="http://www.w3.org/1999/xlink" aria-hidden="true" role="img" class="iconify iconify--ph" width="1em" height="1em" preserveAspectRatio="xMidYMid meet" viewBox="0 0 256 256"><path fill="currentColor" d="M224 48h-64a40 40 0 0 0-32 16a40 40 0 0 0-32-16H32a16 16 0 0 0-16 16v128a16 16 0 0 0 16 16h64a24.1 24.1 0 0 1 24 24a8 8 0 0 0 16 0a24.1 24.1 0 0 1 24-24h64a16 16 0 0 0 16-16V64a16 16 0 0 0-16-16ZM96 192H32V64h64a24.1 24.1 0 0 1 24 24v112a40 40 0 0 0-24-8Zm128 0h-64a40 40 0 0 0-24 8V88a24.1 24.1 0 0 1 24-24h64Z"></path></svg>