<svg xmlns="http://www.w3.org/2000/svg" xmlns:xlink="http://www.w3.org/1999/xlink" aria-hidden="true" role="img" class="iconify iconify--ph" width="1em" height="1em" preserveAspectRatio="xMidYMid meet" viewBox="0 0 256 256"><path fill="currentColor" d="M224 52h-64a36 36 0 0 0-32 19.5A36 36 0 0 0 96 52H32a12 12 0 0 0-12 12v128a12 12 0 0 0 12 12h64a28.1 28.1 0 0 1 28 28a4 4 0 0 0 8 0a28.1 28.1 0 0 1 28-28h64a12 12 0 0 0 12-12V64a12 12 0 0 0-12-12ZM96 196H32a4 4 0 0 1-4-4V64a4 4 0 0 1 4-4h64a28.1 28.1 0 0 1 28 28v121.4A35.8 35.8 0 0 0 96 196Zm132-4a4 4 0 0 1-4 4h-64a35.8 35.8 0 0 0-28 13.4V88a28.1 28.1 0 0 1 28-28h64a4 4 0 0 1 4 4Z"></path></svg>