<svg xmlns="http://www.w3.org/2000/svg" xmlns:xlink="http://www.w3.org/1999/xlink" aria-hidden="true" role="img" class="iconify iconify--ph" width="1em" height="1em" preserveAspectRatio="xMidYMid meet" viewBox="0 0 256 256"><path fill="currentColor" d="M208 26H72a30.1 30.1 0 0 0-30 30v168a6 6 0 0 0 6 6h144a6 6 0 0 0 0-12H54v-2a18.1 18.1 0 0 1 18-18h136a6 6 0 0 0 6-6V32a6 6 0 0 0-6-6Zm-90 12h52v78l-22.4-16.8a6 6 0 0 0-7.2 0L118 116Zm84 148H72a29.7 29.7 0 0 0-18 6V56a18.1 18.1 0 0 1 18-18h34v90a6 6 0 0 0 3.3 5.4a6 6 0 0 0 6.3-.6l28.4-21.3l28.4 21.3a6 6 0 0 0 3.6 1.2a6.6 6.6 0 0 0 2.7-.6a6.2 6.2 0 0 0 3.3-5.4V38h20Z"></path></svg>