<svg xmlns="http://www.w3.org/2000/svg" xmlns:xlink="http://www.w3.org/1999/xlink" aria-hidden="true" role="img" class="iconify iconify--ph" width="1em" height="1em" preserveAspectRatio="xMidYMid meet" viewBox="0 0 256 256"><path fill="currentColor" d="m168 224l-56-40l-56 40V72a8 8 0 0 1 8-8h96a8 8 0 0 1 8 8Z" opacity=".2"></path><path fill="currentColor" d="M160 56H64a16 16 0 0 0-16 16v152a8 8 0 0 0 8 8a8.2 8.2 0 0 0 4.7-1.5l51.3-36.7l51.4 36.7a7.8 7.8 0 0 0 8.3.6a8.1 8.1 0 0 0 4.3-7.1V72a16 16 0 0 0-16-16Zm0 152.5l-43.4-31a7.7 7.7 0 0 0-4.6-1.5a8.2 8.2 0 0 0-4.7 1.5l-43.3 31V72h96Z"></path><path fill="currentColor" d="M192 24H88a8 8 0 0 0 0 16h104v152a8 8 0 0 0 16 0V40a16 16 0 0 0-16-16Z"></path></svg>