<svg xmlns="http://www.w3.org/2000/svg" xmlns:xlink="http://www.w3.org/1999/xlink" aria-hidden="true" role="img" class="iconify iconify--ph" width="1em" height="1em" preserveAspectRatio="xMidYMid meet" viewBox="0 0 256 256"><path fill="currentColor" d="m231.7 196.1l-8.3-30.9l-33.1-123.7a14.1 14.1 0 0 0-17.2-9.9l-30.9 8.3a8.5 8.5 0 0 0-2.2.9a14 14 0 0 0-12-6.8H96a13.8 13.8 0 0 0-8 2.5a13.8 13.8 0 0 0-8-2.5H48a14 14 0 0 0-14 14v160a14 14 0 0 0 14 14h32a13.8 13.8 0 0 0 8-2.5a13.8 13.8 0 0 0 8 2.5h32a14 14 0 0 0 14-14V93.2l31.7 118.4a14.1 14.1 0 0 0 13.6 10.4a14.9 14.9 0 0 0 3.6-.5l30.9-8.3a14 14 0 0 0 9.9-17.1Zm-78-105.4l34.8-9.3l21.8 81.1l-34.8 9.3Zm-9.6-38.2a2.1 2.1 0 0 1 1.2-1l30.9-8.3h.5a2.2 2.2 0 0 1 2 1.4l6.7 25.2l-34.8 9.3l-6.7-25.1a2.1 2.1 0 0 1 .2-1.5ZM96 46h32a2 2 0 0 1 2 2v122H94V48a2 2 0 0 1 2-2Zm-48 0h32a2 2 0 0 1 2 2v26H46V48a2 2 0 0 1 2-2Zm32 164H48a2 2 0 0 1-2-2V86h36v122a2 2 0 0 1-2 2Zm48 0H96a2 2 0 0 1-2-2v-26h36v26a2 2 0 0 1-2 2Zm90.7-8.4l-30.9 8.3a2 2 0 0 1-2.5-1.4l-6.7-25.1l34.8-9.3l6.7 25.1a1.9 1.9 0 0 1-1.4 2.4Z"></path></svg>