<svg xmlns="http://www.w3.org/2000/svg" xmlns:xlink="http://www.w3.org/1999/xlink" aria-hidden="true" role="img" class="iconify iconify--ph" width="1em" height="1em" preserveAspectRatio="xMidYMid meet" viewBox="0 0 256 256"><path fill="currentColor" d="m233.6 195.6l-8.3-30.9L192.2 41a16 16 0 0 0-19.6-11.3L141.7 38l-1 .3A16 16 0 0 0 128 32H96a15.8 15.8 0 0 0-8 2.2a15.8 15.8 0 0 0-8-2.2H48a16 16 0 0 0-16 16v160a16 16 0 0 0 16 16h32a15.8 15.8 0 0 0 8-2.2a15.8 15.8 0 0 0 8 2.2h32a16 16 0 0 0 16-16v-99.6l19.5 72.8l8.3 30.9a16 16 0 0 0 15.5 11.9a19.9 19.9 0 0 0 4.1-.5l30.9-8.3a15.9 15.9 0 0 0 9.7-7.5a15.6 15.6 0 0 0 1.6-12.1ZM156.2 92.1l30.9-8.3l20.7 77.3l-30.9 8.3Zm20.5-46.9l6.3 23.1l-30.9 8.3l-6.3-23.1ZM128 48v120H96V48Zm-48 0v24H48V48ZM48 208V88h32v120Zm80 0H96v-24h32v24Zm90.2-8.3l-30.9 8.3l-6.3-23.2l31-8.3l6.2 23.2Z"></path></svg>