<svg xmlns="http://www.w3.org/2000/svg" xmlns:xlink="http://www.w3.org/1999/xlink" aria-hidden="true" role="img" class="iconify iconify--ph" width="1em" height="1em" preserveAspectRatio="xMidYMid meet" viewBox="0 0 256 256"><path fill="currentColor" d="m192 176l-64-40l-64 40v48l64-40l64 40v-48z" opacity=".2"></path><path fill="currentColor" d="M184 32H72a16 16 0 0 0-16 16v176a8.1 8.1 0 0 0 4.1 7a7.8 7.8 0 0 0 3.9 1a7.6 7.6 0 0 0 4.2-1.2l59.8-37.4l59.8 37.4A8 8 0 0 0 200 224V48a16 16 0 0 0-16-16Zm0 16v113.6l-51.8-32.4a8 8 0 0 0-8.4 0L72 161.6V48Zm-51.8 129.2a8 8 0 0 0-8.4 0L72 209.6v-29.2l56-35l56 35v29.2Z"></path></svg>