<svg xmlns="http://www.w3.org/2000/svg" xmlns:xlink="http://www.w3.org/1999/xlink" aria-hidden="true" role="img" class="iconify iconify--ph" width="1em" height="1em" preserveAspectRatio="xMidYMid meet" viewBox="0 0 256 256"><path fill="currentColor" d="m237.5 194.5l-8.3-30.9L196.1 40a20.1 20.1 0 0 0-24.5-14.2l-29.6 8a19.6 19.6 0 0 0-14-5.8H96a19.8 19.8 0 0 0-8 1.7a19.8 19.8 0 0 0-8-1.7H48a20.1 20.1 0 0 0-20 20v160a20.1 20.1 0 0 0 20 20h32a19.8 19.8 0 0 0 8-1.7a19.8 19.8 0 0 0 8 1.7h32a20.1 20.1 0 0 0 20-20v-69.2l19.9 74.4a20.1 20.1 0 0 0 19.4 14.8a17.9 17.9 0 0 0 5.1-.7l30.9-8.3a20 20 0 0 0 14.2-24.5Zm-76.4-99.6l23.2-6.2l18.6 69.6l-23.2 6.2Zm12.8-44.8l4.2 15.4l-23.2 6.2l-4.2-15.4ZM124 164h-24V52h24ZM76 52v16H52V52ZM52 92h24v112H52Zm48 112v-16h24v16Zm90.1-.9l-4.2-15.5l23.2-6.2l4.2 15.5Z"></path></svg>