<svg xmlns="http://www.w3.org/2000/svg" xmlns:xlink="http://www.w3.org/1999/xlink" aria-hidden="true" role="img" class="iconify iconify--ph" width="1em" height="1em" preserveAspectRatio="xMidYMid meet" viewBox="0 0 256 256"><path fill="currentColor" d="M160 60H64a12 12 0 0 0-12 12v152a4 4 0 0 0 2.2 3.6a4.3 4.3 0 0 0 4.1-.3l53.7-38.4l53.7 38.4a4.8 4.8 0 0 0 2.3.7a3.7 3.7 0 0 0 1.8-.4a4 4 0 0 0 2.2-3.6V72a12 12 0 0 0-12-12Zm4 156.2l-49.7-35.5a4.1 4.1 0 0 0-4.6 0L60 216.2V72a4 4 0 0 1 4-4h96a4 4 0 0 1 4 4ZM204 40v152a4 4 0 0 1-8 0V40a4 4 0 0 0-4-4H88a4 4 0 0 1 0-8h104a12 12 0 0 1 12 12Z"></path></svg>