<svg xmlns="http://www.w3.org/2000/svg" xmlns:xlink="http://www.w3.org/1999/xlink" aria-hidden="true" role="img" class="iconify iconify--ph" width="1em" height="1em" preserveAspectRatio="xMidYMid meet" viewBox="0 0 256 256"><path fill="currentColor" d="M184 28H72a20.1 20.1 0 0 0-20 20v176a12 12 0 0 0 18.4 10.2l57.6-36l57.6 36a12.4 12.4 0 0 0 6.4 1.8a12 12 0 0 0 12-12V48a20.1 20.1 0 0 0-20-20Zm-4 24v102.3l-45.6-28.5a12.3 12.3 0 0 0-12.8 0L76 154.3V52Zm-45.6 121.8a12.3 12.3 0 0 0-12.8 0L76 202.3v-19.6l52-32.5l52 32.5v19.7Z"></path></svg>