<svg xmlns="http://www.w3.org/2000/svg" xmlns:xlink="http://www.w3.org/1999/xlink" aria-hidden="true" role="img" class="iconify iconify--ph" width="1em" height="1em" preserveAspectRatio="xMidYMid meet" viewBox="0 0 256 256"><path fill="currentColor" d="M192 32H96a8 8 0 0 0-8 8v24h72a8 8 0 0 1 8 8v97.1l32 22.9V40a8 8 0 0 0-8-8Z" opacity=".2"></path><path fill="currentColor" d="M192 24H96a16 16 0 0 0-16 16v16H64a16 16 0 0 0-16 16v152a8 8 0 0 0 8 8a8.2 8.2 0 0 0 4.7-1.5l51.3-36.7l51.4 36.7a7.8 7.8 0 0 0 8.3.6a8.1 8.1 0 0 0 4.3-7.1v-39.3l19.4 13.8a7.7 7.7 0 0 0 4.6 1.5a8 8 0 0 0 8-8V40a16 16 0 0 0-16-16Zm-32 184.5l-43.4-31a7.7 7.7 0 0 0-4.6-1.5a8.2 8.2 0 0 0-4.7 1.5l-43.3 31V72h96Zm32-32L176 165V72a16 16 0 0 0-16-16H96V40h96Z"></path></svg>