<svg xmlns="http://www.w3.org/2000/svg" xmlns:xlink="http://www.w3.org/1999/xlink" aria-hidden="true" role="img" class="iconify iconify--ph" width="1em" height="1em" preserveAspectRatio="xMidYMid meet" viewBox="0 0 256 256"><path fill="currentColor" d="M224 50h-64a38.1 38.1 0 0 0-32 17.5A38.1 38.1 0 0 0 96 50H32a14 14 0 0 0-14 14v128a14 14 0 0 0 14 14h64a26.1 26.1 0 0 1 26 26a6 6 0 0 0 12 0a26.1 26.1 0 0 1 26-26h64a14 14 0 0 0 14-14V64a14 14 0 0 0-14-14ZM96 194H32a2 2 0 0 1-2-2V64a2 2 0 0 1 2-2h64a26.1 26.1 0 0 1 26 26v116.3A37.9 37.9 0 0 0 96 194Zm130-2a2 2 0 0 1-2 2h-64a37.7 37.7 0 0 0-26 10.3V88a26.1 26.1 0 0 1 26-26h64a2 2 0 0 1 2 2Z"></path></svg>