<svg xmlns="http://www.w3.org/2000/svg" xmlns:xlink="http://www.w3.org/1999/xlink" aria-hidden="true" role="img" class="iconify iconify--ph" width="1em" height="1em" preserveAspectRatio="xMidYMid meet" viewBox="0 0 256 256"><path fill="currentColor" d="M192 26H96a14 14 0 0 0-14 14v18H64a14 14 0 0 0-14 14v152a6 6 0 0 0 3.3 5.3a5.8 5.8 0 0 0 6.2-.4l52.5-37.5l52.5 37.5a6.3 6.3 0 0 0 3.5 1.1a5.2 5.2 0 0 0 2.7-.7a6 6 0 0 0 3.3-5.3v-43.2l22.5 16.1a6.3 6.3 0 0 0 3.5 1.1a5.2 5.2 0 0 0 2.7-.7a6 6 0 0 0 3.3-5.3V40a14 14 0 0 0-14-14Zm-30 186.3l-46.5-33.2a6.6 6.6 0 0 0-3.5-1.1a6.3 6.3 0 0 0-3.5 1.1L62 212.3V72a2 2 0 0 1 2-2h96a2 2 0 0 1 2 2Zm32-32l-20-14.2V72a14 14 0 0 0-14-14H94V40a2 2 0 0 1 2-2h96a2 2 0 0 1 2 2Z"></path></svg>