<svg xmlns="http://www.w3.org/2000/svg" xmlns:xlink="http://www.w3.org/1999/xlink" aria-hidden="true" role="img" class="iconify iconify--ph" width="1em" height="1em" preserveAspectRatio="xMidYMid meet" viewBox="0 0 256 256"><path fill="currentColor" d="M48 216a23.9 23.9 0 0 1 24-24h136V32H72a23.9 23.9 0 0 0-24 24Z" opacity=".2"></path><path fill="currentColor" d="M208 24H72a32.1 32.1 0 0 0-32 32v168a8 8 0 0 0 8 8h144a8 8 0 0 0 0-16H56a16 16 0 0 1 16-16h136a8 8 0 0 0 8-8V32a8 8 0 0 0-8-8Zm-8 160H72a32.2 32.2 0 0 0-16 4.3V56a16 16 0 0 1 16-16h128Z"></path></svg>