<svg xmlns="http://www.w3.org/2000/svg" xmlns:xlink="http://www.w3.org/1999/xlink" aria-hidden="true" role="img" class="iconify iconify--ph" width="1em" height="1em" preserveAspectRatio="xMidYMid meet" viewBox="0 0 256 256"><path fill="currentColor" d="M208 20H72a36 36 0 0 0-36 36v168a12 12 0 0 0 12 12h144a12 12 0 0 0 0-24H60v-4a12 12 0 0 1 12-12h136a12 12 0 0 0 12-12V32a12 12 0 0 0-12-12Zm-88 24h40v60l-12.8-9.6a12 12 0 0 0-14.4 0L120 104Zm76 128H72a34.4 34.4 0 0 0-12 2.1V56a12 12 0 0 1 12-12h24v84a12.1 12.1 0 0 0 6.6 10.7a11.6 11.6 0 0 0 5.4 1.3a12 12 0 0 0 7.2-2.4L140 119l24.8 18.6A12 12 0 0 0 184 128V44h12Z"></path></svg>