<svg xmlns="http://www.w3.org/2000/svg" xmlns:xlink="http://www.w3.org/1999/xlink" aria-hidden="true" role="img" class="iconify iconify--ph" width="1em" height="1em" preserveAspectRatio="xMidYMid meet" viewBox="0 0 256 256"><path fill="currentColor" d="M55 62.7C46.3 74.9 36 96.2 36 128s10.3 53.1 19 65.3s19 19.2 19.1 19.3a3.9 3.9 0 0 1 1.3 5.5A4 4 0 0 1 72 220a4.2 4.2 0 0 1-2.1-.6c-1.7-1-41.9-25.9-41.9-91.4s40.2-90.4 41.9-91.4a4 4 0 1 1 4.2 6.8c-.1.1-9.7 6-19.1 19.3Zm131.1-26.1a4 4 0 1 0-4.2 6.8c.1.1 9.7 6 19.1 19.3s19 33.5 19 65.3s-10.3 53.1-19 65.3s-19 19.2-19.1 19.3a4 4 0 0 0 2.1 7.4a4.2 4.2 0 0 0 2.1-.6c1.7-1 41.9-25.9 41.9-91.4s-40.2-90.4-41.9-91.4Z"></path></svg>