<svg xmlns="http://www.w3.org/2000/svg" xmlns:xlink="http://www.w3.org/1999/xlink" aria-hidden="true" role="img" class="iconify iconify--ph" width="1em" height="1em" preserveAspectRatio="xMidYMid meet" viewBox="0 0 256 256"><path fill="currentColor" d="M83.4 42.1L28.7 128l54.7 85.9A4 4 0 0 1 80 220a4.2 4.2 0 0 1-3.4-1.9l-56-88a4 4 0 0 1 0-4.2l56-88a4 4 0 1 1 6.8 4.2Zm152 83.8l-56-88a4 4 0 1 0-6.8 4.2l54.7 85.9l-54.7 85.9a4 4 0 0 0 3.4 6.1a4.2 4.2 0 0 0 3.4-1.9l56-88a4 4 0 0 0 0-4.2Z"></path></svg>