<svg xmlns="http://www.w3.org/2000/svg" xmlns:xlink="http://www.w3.org/1999/xlink" aria-hidden="true" role="img" class="iconify iconify--ph" width="1em" height="1em" preserveAspectRatio="xMidYMid meet" viewBox="0 0 256 256"><path fill="currentColor" d="M90.1 46.4L38.2 128l51.9 81.6a11.9 11.9 0 0 1-3.7 16.5A11.6 11.6 0 0 1 80 228a11.9 11.9 0 0 1-10.1-5.6l-56-88a11.9 11.9 0 0 1 0-12.8l56-88a12 12 0 0 1 20.2 12.8Zm152 75.2l-56-88a12 12 0 1 0-20.2 12.8l51.9 81.6l-51.9 81.6a11.9 11.9 0 0 0 3.7 16.5a11.6 11.6 0 0 0 6.4 1.9a11.9 11.9 0 0 0 10.1-5.6l56-88a11.9 11.9 0 0 0 0-12.8Z"></path></svg>