<svg xmlns="http://www.w3.org/2000/svg" xmlns:xlink="http://www.w3.org/1999/xlink" aria-hidden="true" role="img" class="iconify iconify--ph" width="1em" height="1em" preserveAspectRatio="xMidYMid meet" viewBox="0 0 256 256"><path fill="currentColor" d="M40 128c0 58.3 34.7 80.3 36.2 81.2A8 8 0 0 1 72 224a8.7 8.7 0 0 1-4.1-1.1C66.1 221.8 24 195.8 24 128s42.1-93.8 43.9-94.9a8.1 8.1 0 0 1 11 2.8a8 8 0 0 1-2.8 10.9c-1.6 1-36.1 23-36.1 81.2Zm148.1-94.9a8 8 0 0 0-8.3 13.7c1.5.9 36.2 22.9 36.2 81.2s-34.7 80.3-36.1 81.1A8 8 0 0 0 184 224a8.7 8.7 0 0 0 4.1-1.1c1.8-1.1 43.9-27.1 43.9-94.9s-42.1-93.8-43.9-94.9Z"></path></svg>