<svg xmlns="http://www.w3.org/2000/svg" xmlns:xlink="http://www.w3.org/1999/xlink" aria-hidden="true" role="img" class="iconify iconify--ph" width="1em" height="1em" preserveAspectRatio="xMidYMid meet" viewBox="0 0 256 256"><path fill="currentColor" d="M82.3 222.2A12 12 0 0 1 72 228a11.9 11.9 0 0 1-6.2-1.7C64 225.2 20 198 20 128s44-97.2 45.8-98.3a12 12 0 1 1 12.4 20.5C76.7 51.2 44 72.3 44 128s32.9 76.9 34.3 77.8a12 12 0 0 1 4 16.4ZM190.2 29.7a12 12 0 0 0-12.5 20.5c1.4.9 34.3 22 34.3 77.8s-32.9 76.9-34.2 77.7A12 12 0 0 0 184 228a12.9 12.9 0 0 0 6.2-1.7C192 225.2 236 198 236 128s-44-97.2-45.8-98.3Z"></path></svg>