<svg xmlns="http://www.w3.org/2000/svg" xmlns:xlink="http://www.w3.org/1999/xlink" aria-hidden="true" role="img" class="iconify iconify--ph" width="1em" height="1em" preserveAspectRatio="xMidYMid meet" viewBox="0 0 256 256"><path fill="currentColor" d="m85.1 43.2l-54 84.8l54 84.8a6.1 6.1 0 0 1-1.9 8.3a6.2 6.2 0 0 1-3.2.9a6.1 6.1 0 0 1-5.1-2.8l-56-88a6.1 6.1 0 0 1 0-6.4l56-88a6 6 0 1 1 10.2 6.4Zm152 81.6l-56-88a6 6 0 0 0-10.2 6.4l54 84.8l-54 84.8a6.1 6.1 0 0 0 1.9 8.3a6.2 6.2 0 0 0 3.2.9a6.1 6.1 0 0 0 5.1-2.8l56-88a6.1 6.1 0 0 0 0-6.4Z"></path></svg>