<svg xmlns="http://www.w3.org/2000/svg" xmlns:xlink="http://www.w3.org/1999/xlink" aria-hidden="true" role="img" class="iconify iconify--ph" width="1em" height="1em" preserveAspectRatio="xMidYMid meet" viewBox="0 0 256 256"><path fill="currentColor" d="M43.2 128a30.4 30.4 0 0 1 8 10.3c4.8 9.9 4.8 22 4.8 33.7c0 24.3 1 36 24 36a8 8 0 0 1 0 16c-17.5 0-29.3-6.1-35.2-18.3c-4.8-9.9-4.8-22-4.8-33.7c0-24.3-1-36-24-36a8 8 0 0 1 0-16c23 0 24-11.7 24-36c0-11.7 0-23.8 4.8-33.7C50.7 38.1 62.5 32 80 32a8 8 0 0 1 0 16c-23 0-24 11.7-24 36c0 11.7 0 23.8-4.8 33.7a30.4 30.4 0 0 1-8 10.3Zm196.8-8c-23 0-24-11.7-24-36c0-11.7 0-23.8-4.8-33.7C205.3 38.1 193.5 32 176 32a8 8 0 0 0 0 16c23 0 24 11.7 24 36c0 11.7 0 23.8 4.8 33.7a30.4 30.4 0 0 0 8 10.3a30.4 30.4 0 0 0-8 10.3c-4.8 9.9-4.8 22-4.8 33.7c0 24.3-1 36-24 36a8 8 0 0 0 0 16c17.5 0 29.3-6.1 35.2-18.3c4.8-9.9 4.8-22 4.8-33.7c0-24.3 1-36 24-36a8 8 0 0 0 0-16Z"></path></svg>