<svg xmlns="http://www.w3.org/2000/svg" xmlns:xlink="http://www.w3.org/1999/xlink" aria-hidden="true" role="img" class="iconify iconify--ph" width="1em" height="1em" preserveAspectRatio="xMidYMid meet" viewBox="0 0 256 256"><path fill="currentColor" d="M56.5 64C44.2 81.5 38 103 38 128s6.2 46.5 18.5 64c9.2 13 18.5 18.8 18.6 18.9a6 6 0 0 1 2 8.2a5.9 5.9 0 0 1-8.2 2c-1.7-1-42.9-26.5-42.9-93.1s41.2-92.1 42.9-93.1a6 6 0 0 1 6.2 10.2c-.1.1-9.4 5.9-18.6 18.9Zm130.6-29.1a6 6 0 1 0-6.2 10.2c.1.1 9.4 5.9 18.6 18.9c12.3 17.5 18.5 39 18.5 64s-6.2 46.5-18.5 64c-9.2 13-18.5 18.8-18.6 18.9a6 6 0 0 0-2 8.2a5.9 5.9 0 0 0 8.2 2c1.7-1 42.9-26.5 42.9-93.1s-41.2-92.1-42.9-93.1Z"></path></svg>