<svg xmlns="http://www.w3.org/2000/svg" xmlns:xlink="http://www.w3.org/1999/xlink" aria-hidden="true" role="img" class="iconify iconify--ph" width="1em" height="1em" preserveAspectRatio="xMidYMid meet" viewBox="0 0 256 256"><path fill="currentColor" d="M86.7 44.3L33.5 128l53.2 83.7a7.9 7.9 0 0 1-2.4 11A7.5 7.5 0 0 1 80 224a7.9 7.9 0 0 1-6.7-3.7l-56-88a7.9 7.9 0 0 1 0-8.6l56-88a8 8 0 1 1 13.4 8.6Zm152 79.4l-56-88a8 8 0 1 0-13.4 8.6l53.2 83.7l-53.2 83.7a7.9 7.9 0 0 0 2.4 11a7.5 7.5 0 0 0 4.3 1.3a7.9 7.9 0 0 0 6.7-3.7l56-88a7.9 7.9 0 0 0 0-8.6Z"></path></svg>