<svg xmlns="http://www.w3.org/2000/svg" xmlns:xlink="http://www.w3.org/1999/xlink" aria-hidden="true" role="img" class="iconify iconify--ph" width="1em" height="1em" preserveAspectRatio="xMidYMid meet" viewBox="0 0 256 256"><path fill="currentColor" d="M35.9 128C52 136.2 52 155.6 52 172c0 24.8 1.4 40 28 40a4 4 0 0 1 0 8c-36 0-36-26.6-36-48c0-24.8-1.4-40-28-40a4 4 0 0 1 0-8c26.6 0 28-15.2 28-40c0-21.4 0-48 36-48a4 4 0 0 1 0 8c-26.6 0-28 15.2-28 40c0 16.4 0 35.8-16.1 44Zm204.1-4c-26.6 0-28-15.2-28-40c0-21.4 0-48-36-48a4 4 0 0 0 0 8c26.6 0 28 15.2 28 40c0 16.4 0 35.8 16.1 44c-16.1 8.2-16.1 27.6-16.1 44c0 24.8-1.4 40-28 40a4 4 0 0 0 0 8c36 0 36-26.6 36-48c0-24.8 1.4-40 28-40a4 4 0 0 0 0-8Z"></path></svg>