<svg xmlns="http://www.w3.org/2000/svg" xmlns:xlink="http://www.w3.org/1999/xlink" aria-hidden="true" role="img" class="iconify iconify--ph" width="1em" height="1em" preserveAspectRatio="xMidYMid meet" viewBox="0 0 256 256"><path fill="currentColor" d="M54.8 119.5a39.5 39.5 0 0 1-5.7 8.5a39.5 39.5 0 0 1 5.7 8.5C60 147.2 60 159.8 60 172c0 25.9 1.8 32 20 32a12 12 0 0 1 0 24c-19.1 0-32.2-6.9-38.8-20.5C36 196.8 36 184.2 36 172c0-25.9-1.8-32-20-32a12 12 0 0 1 0-24c18.2 0 20-6.1 20-32c0-12.2 0-24.8 5.2-35.5C47.8 34.9 60.9 28 80 28a12 12 0 0 1 0 24c-18.2 0-20 6.1-20 32c0 12.2 0 24.8-5.2 35.5ZM240 116c-18.2 0-20-6.1-20-32c0-12.2 0-24.8-5.2-35.5C208.2 34.9 195.1 28 176 28a12 12 0 0 0 0 24c18.2 0 20 6.1 20 32c0 12.2 0 24.8 5.2 35.5a39.5 39.5 0 0 0 5.7 8.5a39.5 39.5 0 0 0-5.7 8.5c-5.2 10.7-5.2 23.3-5.2 35.5c0 25.9-1.8 32-20 32a12 12 0 0 0 0 24c19.1 0 32.2-6.9 38.8-20.5c5.2-10.7 5.2-23.3 5.2-35.5c0-25.9 1.8-32 20-32a12 12 0 0 0 0-24Z"></path></svg>