<svg xmlns="http://www.w3.org/2000/svg" xmlns:xlink="http://www.w3.org/1999/xlink" aria-hidden="true" role="img" class="iconify iconify--ph" width="1em" height="1em" preserveAspectRatio="xMidYMid meet" viewBox="0 0 256 256"><path fill="currentColor" d="M244 132a52 52 0 0 0-32-48V72a44 44 0 0 0-84-18.3A44 44 0 0 0 44 72v12a52 52 0 0 0 0 96v4a44 44 0 0 0 84 18.3a44 44 0 0 0 84-18.3v-4a52.1 52.1 0 0 0 32-48ZM88 220a36 36 0 0 1-36-36v-1.4a53.2 53.2 0 0 0 12 1.4h8a4 4 0 0 0 0-8h-8a44 44 0 0 1-14.7-85.5a4.1 4.1 0 0 0 2.7-3.8V72a36 36 0 0 1 72 0v86.7A44 44 0 0 0 88 140a4 4 0 0 0 0 8a36 36 0 0 1 0 72Zm104-44h-8a4 4 0 0 0 0 8h8a53.2 53.2 0 0 0 12-1.4v1.4a36 36 0 1 1-36-36a4 4 0 0 0 0-8a44 44 0 0 0-36 18.7V72a36 36 0 0 1 72 0v14.7a4.1 4.1 0 0 0 2.7 3.8A44 44 0 0 1 192 176ZM92 92a32.1 32.1 0 0 1-32 32a4 4 0 0 1 0-8a24.1 24.1 0 0 0 24-24v-8a4 4 0 0 1 8 0Zm108 28a4 4 0 0 1-4 4a32.1 32.1 0 0 1-32-32v-8a4 4 0 0 1 8 0v8a24.1 24.1 0 0 0 24 24a4 4 0 0 1 4 4Z"></path></svg>