<svg xmlns="http://www.w3.org/2000/svg" xmlns:xlink="http://www.w3.org/1999/xlink" aria-hidden="true" role="img" class="iconify iconify--ph" width="1em" height="1em" preserveAspectRatio="xMidYMid meet" viewBox="0 0 256 256"><path fill="currentColor" d="M246 132a54.1 54.1 0 0 0-32-49.3V72a46 46 0 0 0-86-22.7A46 46 0 0 0 42 72v10.7a54 54 0 0 0 0 98.6v2.7a46 46 0 0 0 86 22.7a46 46 0 0 0 86-22.7v-2.7a54.1 54.1 0 0 0 32-49.3ZM88 218a34.1 34.1 0 0 1-34-32.9a55.5 55.5 0 0 0 10 .9h8a6 6 0 0 0 0-12h-8a42 42 0 0 1-14-81.6a6 6 0 0 0 4-5.7V72a34 34 0 0 1 68 0v81a45.9 45.9 0 0 0-34-15a6 6 0 0 0 0 12a34 34 0 0 1 0 68Zm104-44h-8a6 6 0 0 0 0 12h8a55.5 55.5 0 0 0 10-.9a34 34 0 1 1-34-35.1a6 6 0 0 0 0-12a45.9 45.9 0 0 0-34 15V72a34 34 0 0 1 68 0v14.7a6 6 0 0 0 4 5.7a42 42 0 0 1-14 81.6ZM60 126a6 6 0 0 1 0-12a22.1 22.1 0 0 0 22-22v-8a6 6 0 0 1 12 0v8a34.1 34.1 0 0 1-34 34Zm142-6a6 6 0 0 1-6 6a34.1 34.1 0 0 1-34-34v-8a6 6 0 0 1 12 0v8a22.1 22.1 0 0 0 22 22a6 6 0 0 1 6 6Z"></path></svg>