<svg xmlns="http://www.w3.org/2000/svg" xmlns:xlink="http://www.w3.org/1999/xlink" aria-hidden="true" role="img" class="iconify iconify--ph" width="1em" height="1em" preserveAspectRatio="xMidYMid meet" viewBox="0 0 256 256"><path fill="currentColor" d="M252 132a60.3 60.3 0 0 0-32-53.1V72a52 52 0 0 0-92-33.2A52 52 0 0 0 36 72v6.9a60.1 60.1 0 0 0 0 106.2a52 52 0 0 0 92 32.1a52 52 0 0 0 92-32.1a60.2 60.2 0 0 0 32-53.1ZM88 212a28.2 28.2 0 0 1-26.9-20.1H72a12 12 0 0 0 0-24h-8A36 36 0 0 1 52 98a11.9 11.9 0 0 0 8-11.3V72a28 28 0 0 1 56 0v68.2a50.1 50.1 0 0 0-7.2-3.9a12 12 0 0 0-9.6 22A28 28 0 0 1 88 212Zm104-44h-8a12 12 0 0 0 0 24h10.9a28 28 0 1 1-38.1-33.6a12 12 0 1 0-9.6-22a50.1 50.1 0 0 0-7.2 3.9V72a28 28 0 0 1 56 0v14.7a11.9 11.9 0 0 0 8 11.3a36 36 0 0 1-12 70Zm-92-72a40 40 0 0 1-40 40a12 12 0 0 1 0-24a16 16 0 0 0 16-16v-8a12 12 0 0 1 24 0Zm108 28a12 12 0 0 1-12 12a40 40 0 0 1-40-40v-8a12 12 0 0 1 24 0v8a16 16 0 0 0 16 16a12 12 0 0 1 12 12Z"></path></svg>