<svg xmlns="http://www.w3.org/2000/svg" xmlns:xlink="http://www.w3.org/1999/xlink" aria-hidden="true" role="img" class="iconify iconify--ph" width="1em" height="1em" preserveAspectRatio="xMidYMid meet" viewBox="0 0 256 256"><path fill="currentColor" d="M228 88a99.7 99.7 0 0 0-16.2-54.6a11.9 11.9 0 0 0-10-5.4H54.2a11.9 11.9 0 0 0-10 5.4A100 100 0 0 0 116 187.3V212H88a12 12 0 0 0 0 24h80a12 12 0 0 0 0-24h-28v-24.7A100.2 100.2 0 0 0 228 88ZM61 52h134a78.3 78.3 0 0 1 8.1 24H52.9A78.3 78.3 0 0 1 61 52Zm-8 48h150a75.9 75.9 0 0 1-150 0Z"></path></svg>