<svg xmlns="http://www.w3.org/2000/svg" xmlns:xlink="http://www.w3.org/1999/xlink" aria-hidden="true" role="img" class="iconify iconify--ph" width="1em" height="1em" preserveAspectRatio="xMidYMid meet" viewBox="0 0 256 256"><path fill="currentColor" d="M216 88a88 88 0 0 1-176 0Z" opacity=".2"></path><path fill="currentColor" d="M224 88a96.2 96.2 0 0 0-15.5-52.4a8.2 8.2 0 0 0-6.7-3.6H54.2a8.2 8.2 0 0 0-6.7 3.6A96.1 96.1 0 0 0 120 183.7V216H88a8 8 0 0 0 0 16h80a8 8 0 0 0 0-16h-32v-32.3A96.2 96.2 0 0 0 224 88ZM58.7 48h138.6a78.8 78.8 0 0 1 10.3 32H48.4a78.8 78.8 0 0 1 10.3-32ZM48.4 96h159.2a80 80 0 0 1-159.2 0Z"></path></svg>