<svg xmlns="http://www.w3.org/2000/svg" xmlns:xlink="http://www.w3.org/1999/xlink" aria-hidden="true" role="img" class="iconify iconify--ph" width="1em" height="1em" preserveAspectRatio="xMidYMid meet" viewBox="0 0 256 256"><path fill="currentColor" d="M222 88a94.2 94.2 0 0 0-15.2-51.3a6 6 0 0 0-5-2.7H54.2a6 6 0 0 0-5 2.7A94 94 0 0 0 122 181.8V218H88a6 6 0 0 0 0 12h80a6 6 0 0 0 0-12h-34v-36.2A94.2 94.2 0 0 0 222 88ZM57.6 46h140.8a81 81 0 0 1 11.4 36H46.2a81 81 0 0 1 11.4-36ZM46.2 94h163.6a82 82 0 0 1-163.6 0Z"></path></svg>