<svg xmlns="http://www.w3.org/2000/svg" xmlns:xlink="http://www.w3.org/1999/xlink" aria-hidden="true" role="img" class="iconify iconify--ph" width="1em" height="1em" preserveAspectRatio="xMidYMid meet" viewBox="0 0 256 256"><path fill="currentColor" d="M220 88a91.1 91.1 0 0 0-14.9-50.2a4 4 0 0 0-3.3-1.8H54.2a4 4 0 0 0-3.3 1.8A91.1 91.1 0 0 0 36 88a92.1 92.1 0 0 0 88 91.9V220H88a4 4 0 0 0 0 8h80a4 4 0 0 0 0-8h-36v-40.1A92.1 92.1 0 0 0 220 88ZM56.4 44h143.2a84.5 84.5 0 0 1 12.3 40H44.1a84.5 84.5 0 0 1 12.3-40ZM44.1 92h167.8a84 84 0 0 1-167.8 0Z"></path></svg>