<svg xmlns="http://www.w3.org/2000/svg" xmlns:xlink="http://www.w3.org/1999/xlink" aria-hidden="true" role="img" class="iconify iconify--ph" width="1em" height="1em" preserveAspectRatio="xMidYMid meet" viewBox="0 0 256 256"><path fill="currentColor" d="M216 60h-36V48a28.1 28.1 0 0 0-28-28h-48a28.1 28.1 0 0 0-28 28v12H40a20.1 20.1 0 0 0-20 20v128a20.1 20.1 0 0 0 20 20h176a20.1 20.1 0 0 0 20-20V80a20.1 20.1 0 0 0-20-20ZM44 124h168v40H44Zm56-76a4 4 0 0 1 4-4h48a4 4 0 0 1 4 4v12h-56Zm112 36v16H44V84ZM44 204v-16h168v16Z"></path></svg>