<svg xmlns="http://www.w3.org/2000/svg" xmlns:xlink="http://www.w3.org/1999/xlink" aria-hidden="true" role="img" class="iconify iconify--ph" width="1em" height="1em" preserveAspectRatio="xMidYMid meet" viewBox="0 0 256 256"><path fill="currentColor" d="M224 80v32H32V80a8 8 0 0 1 8-8h176a8 8 0 0 1 8 8ZM32 208a8 8 0 0 0 8 8h176a8 8 0 0 0 8-8v-32H32Z" opacity=".2"></path><path fill="currentColor" d="M216 64h-40v-8a24.1 24.1 0 0 0-24-24h-48a24.1 24.1 0 0 0-24 24v8H40a16 16 0 0 0-16 16v128a16 16 0 0 0 16 16h176a16 16 0 0 0 16-16V80a16 16 0 0 0-16-16ZM40 120h176v48H40Zm56-64a8 8 0 0 1 8-8h48a8 8 0 0 1 8 8v8H96Zm120 24v24H40V80Zm0 128H40v-24h176v24Z"></path></svg>