<svg xmlns="http://www.w3.org/2000/svg" xmlns:xlink="http://www.w3.org/1999/xlink" aria-hidden="true" role="img" class="iconify iconify--ph" width="1em" height="1em" preserveAspectRatio="xMidYMid meet" viewBox="0 0 256 256"><path fill="currentColor" d="M28 120h200a4 4 0 0 1 4 4v40a4 4 0 0 1-4 4H28a4 4 0 0 1-4-4v-40a4 4 0 0 1 4-4Zm-4 88a16 16 0 0 0 16 16h176a16 16 0 0 0 16-16v-20a4 4 0 0 0-4-4H28a4 4 0 0 0-4 4ZM232 80v20a4 4 0 0 1-4 4H28a4 4 0 0 1-4-4V80a16 16 0 0 1 16-16h40v-8a23.9 23.9 0 0 1 24-24h48a23.9 23.9 0 0 1 24 24v8h40a16 16 0 0 1 16 16Zm-72-24a8 8 0 0 0-8-8h-48a8 8 0 0 0-8 8v8h64Z"></path></svg>