<svg xmlns="http://www.w3.org/2000/svg" xmlns:xlink="http://www.w3.org/1999/xlink" aria-hidden="true" role="img" class="iconify iconify--ph" width="1em" height="1em" preserveAspectRatio="xMidYMid meet" viewBox="0 0 256 256"><path fill="currentColor" d="M216 56h-36v-8a28.1 28.1 0 0 0-28-28h-48a28.1 28.1 0 0 0-28 28v8H40a20.1 20.1 0 0 0-20 20v128a20.1 20.1 0 0 0 20 20h176a20.1 20.1 0 0 0 20-20V76a20.1 20.1 0 0 0-20-20Zm-116-8a4 4 0 0 1 4-4h48a4 4 0 0 1 4 4v8h-56Zm112 32v35.2a180.1 180.1 0 0 1-84 20.8a180.4 180.4 0 0 1-84-20.8V80ZM44 200v-58.1a203.7 203.7 0 0 0 84 18.1a203.7 203.7 0 0 0 84-18.1V200Zm60-88a12 12 0 0 1 12-12h24a12 12 0 0 1 0 24h-24a12 12 0 0 1-12-12Z"></path></svg>