<svg xmlns="http://www.w3.org/2000/svg" xmlns:xlink="http://www.w3.org/1999/xlink" aria-hidden="true" role="img" class="iconify iconify--ph" width="1em" height="1em" preserveAspectRatio="xMidYMid meet" viewBox="0 0 256 256"><path fill="currentColor" d="M128 152a190.3 190.3 0 0 1-96-25.7V208a8 8 0 0 0 8 8h176a8 8 0 0 0 8-8v-81.7a191.3 191.3 0 0 1-96 25.7Z" opacity=".2"></path><path fill="currentColor" d="M216 64h-40v-8a24.1 24.1 0 0 0-24-24h-48a24.1 24.1 0 0 0-24 24v8H40a16 16 0 0 0-16 16v128a16 16 0 0 0 16 16h176a16 16 0 0 0 16-16V80a16 16 0 0 0-16-16ZM96 56a8 8 0 0 1 8-8h48a8 8 0 0 1 8 8v8H96Zm120 24v41.6a183.6 183.6 0 0 1-88 22.4a183.6 183.6 0 0 1-88-22.4V80Zm0 128H40v-68.4a199.7 199.7 0 0 0 88 20.4a199.4 199.4 0 0 0 88-20.4V208Zm-108-88a8 8 0 0 1 8-8h24a8 8 0 0 1 0 16h-24a8 8 0 0 1-8-8Z"></path></svg>