<svg xmlns="http://www.w3.org/2000/svg" xmlns:xlink="http://www.w3.org/1999/xlink" aria-hidden="true" role="img" class="iconify iconify--ph" width="1em" height="1em" preserveAspectRatio="xMidYMid meet" viewBox="0 0 256 256"><path fill="currentColor" d="M128 88a40 40 0 1 0 40 40a40 40 0 0 0-40-40Zm0 64a24 24 0 1 1 24-24a24.1 24.1 0 0 1-24 24Zm-59-48.9a64.5 64.5 0 0 0 0 49.8a65.4 65.4 0 0 0 13.7 20.4a7.9 7.9 0 0 1 0 11.3a8 8 0 0 1-5.6 2.3a8.3 8.3 0 0 1-5.7-2.3a80 80 0 0 1-17.1-25.5a79.9 79.9 0 0 1 0-62.2a80 80 0 0 1 17.1-25.5a8 8 0 0 1 11.3 0a7.9 7.9 0 0 1 0 11.3A65.4 65.4 0 0 0 69 103.1Zm132.7 56a80 80 0 0 1-17.1 25.5a8.3 8.3 0 0 1-5.7 2.3a8 8 0 0 1-5.6-2.3a7.9 7.9 0 0 1 0-11.3a65.4 65.4 0 0 0 13.7-20.4a64.5 64.5 0 0 0 0-49.8a65.4 65.4 0 0 0-13.7-20.4a7.9 7.9 0 0 1 0-11.3a8 8 0 0 1 11.3 0a80 80 0 0 1 17.1 25.5a79.9 79.9 0 0 1 0 62.2ZM54.5 201.5a8.1 8.1 0 0 1 0 11.4a8.3 8.3 0 0 1-5.7 2.3a8.5 8.5 0 0 1-5.7-2.3a121.8 121.8 0 0 1-25.7-38.2a120.7 120.7 0 0 1 0-93.4a121.8 121.8 0 0 1 25.7-38.2a8.1 8.1 0 0 1 11.4 11.4A103.5 103.5 0 0 0 24 128a103.5 103.5 0 0 0 30.5 73.5ZM248 128a120.2 120.2 0 0 1-9.4 46.7a121.8 121.8 0 0 1-25.7 38.2a8.5 8.5 0 0 1-5.7 2.3a8.3 8.3 0 0 1-5.7-2.3a8.1 8.1 0 0 1 0-11.4A103.5 103.5 0 0 0 232 128a103.5 103.5 0 0 0-30.5-73.5a8.1 8.1 0 1 1 11.4-11.4a121.8 121.8 0 0 1 25.7 38.2A120.2 120.2 0 0 1 248 128Z"></path></svg>