<svg xmlns="http://www.w3.org/2000/svg" xmlns:xlink="http://www.w3.org/1999/xlink" aria-hidden="true" role="img" class="iconify iconify--ph" width="1em" height="1em" preserveAspectRatio="xMidYMid meet" viewBox="0 0 256 256"><path fill="currentColor" d="M128 90a38 38 0 1 0 38 38a38 38 0 0 0-38-38Zm0 64a26 26 0 1 1 26-26a26.1 26.1 0 0 1-26 26Zm-60.8-51.7a66.1 66.1 0 0 0 0 51.4a67.5 67.5 0 0 0 14.1 21a5.9 5.9 0 0 1 0 8.5a6.1 6.1 0 0 1-4.2 1.7a6.5 6.5 0 0 1-4.3-1.7a80.3 80.3 0 0 1-16.7-24.8a78.8 78.8 0 0 1 0-60.8a80.3 80.3 0 0 1 16.7-24.8a6.1 6.1 0 0 1 8.5 0a5.9 5.9 0 0 1 0 8.5a67.5 67.5 0 0 0-14.1 21ZM206 128a79.3 79.3 0 0 1-6.1 30.4a80.3 80.3 0 0 1-16.7 24.8a6.5 6.5 0 0 1-4.3 1.7a6.1 6.1 0 0 1-4.2-1.7a5.9 5.9 0 0 1 0-8.5a67.5 67.5 0 0 0 14.1-21a66.1 66.1 0 0 0 0-51.4a67.5 67.5 0 0 0-14.1-21a5.9 5.9 0 0 1 0-8.5a6.1 6.1 0 0 1 8.5 0a80.3 80.3 0 0 1 16.7 24.8A79.3 79.3 0 0 1 206 128ZM53 203a5.9 5.9 0 1 1-8.4 8.4a115 115 0 0 1-25.3-37.5a117.9 117.9 0 0 1 0-91.8a115 115 0 0 1 25.3-37.5A5.9 5.9 0 0 1 53 53a108.2 108.2 0 0 0-22.7 33.7a106.9 106.9 0 0 0 0 82.6A108.2 108.2 0 0 0 53 203Zm193-75a116.2 116.2 0 0 1-9.3 45.9a115 115 0 0 1-25.3 37.5a5.9 5.9 0 0 1-8.4-8.4a108.2 108.2 0 0 0 22.7-33.7a106.9 106.9 0 0 0 0-82.6A108.2 108.2 0 0 0 203 53a5.9 5.9 0 1 1 8.4-8.4a115 115 0 0 1 25.3 37.5A116.2 116.2 0 0 1 246 128Z"></path></svg>