<svg xmlns="http://www.w3.org/2000/svg" xmlns:xlink="http://www.w3.org/1999/xlink" aria-hidden="true" role="img" class="iconify iconify--ph" width="1em" height="1em" preserveAspectRatio="xMidYMid meet" viewBox="0 0 256 256"><path fill="currentColor" d="M128 92a36 36 0 1 0 36 36a36 36 0 0 0-36-36Zm0 64a28 28 0 1 1 28-28a28.1 28.1 0 0 1-28 28Zm-62.7-54.5a68.9 68.9 0 0 0 0 53a70.4 70.4 0 0 0 14.6 21.6a3.9 3.9 0 0 1 0 5.6a3.9 3.9 0 0 1-2.8 1.2a3.8 3.8 0 0 1-2.8-1.2A75.9 75.9 0 0 1 58 98.4a74.4 74.4 0 0 1 16.3-24.1a4 4 0 0 1 5.6 5.6a70.4 70.4 0 0 0-14.6 21.6ZM204 128a75.6 75.6 0 0 1-22.3 53.7a3.8 3.8 0 0 1-2.8 1.2a3.9 3.9 0 0 1-2.8-1.2a3.9 3.9 0 0 1 0-5.6a70.4 70.4 0 0 0 14.6-21.6a68.9 68.9 0 0 0 0-53a70.4 70.4 0 0 0-14.6-21.6a4 4 0 1 1 5.6-5.6A75.6 75.6 0 0 1 204 128ZM51.6 204.4a3.9 3.9 0 0 1 0 5.6a3.8 3.8 0 0 1-2.8 1.2A3.9 3.9 0 0 1 46 210a115.6 115.6 0 0 1 0-164a4 4 0 0 1 5.6 5.6a108.2 108.2 0 0 0 0 152.8ZM244 128a115 115 0 0 1-34 82a3.9 3.9 0 0 1-2.8 1.2a3.8 3.8 0 0 1-2.8-1.2a3.9 3.9 0 0 1 0-5.6a108.2 108.2 0 0 0 0-152.8A4 4 0 1 1 210 46a115 115 0 0 1 34 82Z"></path></svg>