<svg xmlns="http://www.w3.org/2000/svg" xmlns:xlink="http://www.w3.org/1999/xlink" aria-hidden="true" role="img" class="iconify iconify--ph" width="1em" height="1em" preserveAspectRatio="xMidYMid meet" viewBox="0 0 256 256"><path fill="currentColor" d="M128 84a44 44 0 1 0 44 44a44 44 0 0 0-44-44Zm0 64a20 20 0 1 1 20-20a20.1 20.1 0 0 1-20 20Zm-42.4 22.4a12 12 0 0 1 0 17a12.2 12.2 0 0 1-8.5 3.5a12 12 0 0 1-8.5-3.5a83.9 83.9 0 0 1 0-118.8a12 12 0 0 1 17 17a59.7 59.7 0 0 0 0 84.8Zm119.8-9.7a83.3 83.3 0 0 1-18 26.7a12 12 0 0 1-8.5 3.5a12.2 12.2 0 0 1-8.5-3.5a12 12 0 0 1 0-17a59.7 59.7 0 0 0 0-84.8a12 12 0 0 1 17-17a84.1 84.1 0 0 1 18 92.1Zm-148.1 38a12 12 0 0 1 0 17a12.1 12.1 0 0 1-17 0a124.1 124.1 0 0 1 0-175.4a12 12 0 0 1 17 17a99 99 0 0 0-21.4 31.8a99.7 99.7 0 0 0 0 77.8a99 99 0 0 0 21.4 31.8ZM252 128a124.2 124.2 0 0 1-36.3 87.7a12.1 12.1 0 0 1-17 0a12 12 0 0 1 0-17a99 99 0 0 0 21.4-31.8a99.7 99.7 0 0 0 0-77.8a99 99 0 0 0-21.4-31.8a12 12 0 0 1 17-17A124.2 124.2 0 0 1 252 128Z"></path></svg>