<svg xmlns="http://www.w3.org/2000/svg" xmlns:xlink="http://www.w3.org/1999/xlink" aria-hidden="true" role="img" class="iconify iconify--ph" width="1em" height="1em" preserveAspectRatio="xMidYMid meet" viewBox="0 0 256 256"><path fill="currentColor" d="M216 48H72a8 8 0 0 0-8 8v24h120a8 8 0 0 1 8 8v88h24a8 8 0 0 0 8-8V56a8 8 0 0 0-8-8Z" opacity=".2"></path><path fill="currentColor" d="M216 40H72a16 16 0 0 0-16 16v16H40a16 16 0 0 0-16 16v112a16 16 0 0 0 16 16h144a16 16 0 0 0 16-16v-16h16a16 16 0 0 0 16-16V56a16 16 0 0 0-16-16Zm-32 48v16H40V88Zm0 112H40v-80h144v80Zm32-32h-16V88a16 16 0 0 0-16-16H72V56h144Z"></path></svg>