<svg xmlns="http://www.w3.org/2000/svg" xmlns:xlink="http://www.w3.org/1999/xlink" aria-hidden="true" role="img" class="iconify iconify--ph" width="1em" height="1em" preserveAspectRatio="xMidYMid meet" viewBox="0 0 256 256"><path fill="currentColor" d="M220 32H76a20.1 20.1 0 0 0-20 20v20H36a20.1 20.1 0 0 0-20 20v112a20.1 20.1 0 0 0 20 20h144a20.1 20.1 0 0 0 20-20v-20h20a20.1 20.1 0 0 0 20-20V52a20.1 20.1 0 0 0-20-20Zm-44 64v16H40V96Zm0 104H40v-64h136Zm40-40h-16V92a20.1 20.1 0 0 0-20-20H80V56h136Z"></path></svg>