<svg xmlns="http://www.w3.org/2000/svg" xmlns:xlink="http://www.w3.org/1999/xlink" aria-hidden="true" role="img" class="iconify iconify--ph" width="1em" height="1em" preserveAspectRatio="xMidYMid meet" viewBox="0 0 256 256"><path fill="currentColor" d="M216 44H72a12 12 0 0 0-12 12v20H40a12 12 0 0 0-12 12v112a12 12 0 0 0 12 12h144a12 12 0 0 0 12-12v-20h20a12 12 0 0 0 12-12V56a12 12 0 0 0-12-12ZM40 84h144a4 4 0 0 1 4 4v20H36V88a4 4 0 0 1 4-4Zm148 116a4 4 0 0 1-4 4H40a4 4 0 0 1-4-4v-84h152Zm32-32a4 4 0 0 1-4 4h-20V88a12 12 0 0 0-12-12H68V56a4 4 0 0 1 4-4h144a4 4 0 0 1 4 4Z"></path></svg>