<svg xmlns="http://www.w3.org/2000/svg" xmlns:xlink="http://www.w3.org/1999/xlink" aria-hidden="true" role="img" class="iconify iconify--ph" width="1em" height="1em" preserveAspectRatio="xMidYMid meet" viewBox="0 0 256 256"><path fill="currentColor" d="M48 96v16H32a8 8 0 0 1 0-16Zm20.3-45.2A79.9 79.9 0 0 0 48.4 96h159.2a79.6 79.6 0 0 0-20-45.3l17.8-16.9a7.9 7.9 0 0 0 .3-11.3a8 8 0 0 0-11.3-.3l-18.6 17.7a79.8 79.8 0 0 0-95.7.1L61.4 22.2a8 8 0 0 0-11 11.6ZM232 104a8 8 0 0 0-8-8h-16v16h16a8 8 0 0 0 8-8Zm-24 48a70.3 70.3 0 0 1-.4 8H224a8 8 0 0 1 0 16h-19.7a80 80 0 0 1-152.6 0H32a8 8 0 0 1 0-16h16.4a70.3 70.3 0 0 1-.4-8v-8H32a8 8 0 0 1 0-16h16v-16h160v16h16a8 8 0 0 1 0 16h-16Zm-72-16a8 8 0 0 0-16 0v64a8 8 0 0 0 16 0Z"></path></svg>