<svg xmlns="http://www.w3.org/2000/svg" xmlns:xlink="http://www.w3.org/1999/xlink" aria-hidden="true" role="img" class="iconify iconify--ph" width="1em" height="1em" preserveAspectRatio="xMidYMid meet" viewBox="0 0 256 256"><path fill="currentColor" d="M224 156a12 12 0 0 0 0-24h-12v-16h12a12 12 0 0 0 0-24h-12.9a83.8 83.8 0 0 0-18-41l15.1-14.3a12 12 0 0 0 .4-17a11.9 11.9 0 0 0-16.9-.4l-16.3 15.4a83.7 83.7 0 0 0-94.9.1L64.2 19.3a12 12 0 1 0-16.5 17.4l15.1 14.4A82.9 82.9 0 0 0 44.9 92H32a12 12 0 0 0 0 24h12v16H32a12 12 0 0 0 0 24h12.1a93.5 93.5 0 0 0 2.3 16H32a12 12 0 0 0 0 24h24.5a83.9 83.9 0 0 0 143 0H224a12 12 0 0 0 0-24h-14.4a93.5 93.5 0 0 0 2.3-16ZM128 44a60.1 60.1 0 0 1 58.8 48H69.2A60.1 60.1 0 0 1 128 44Zm12 166.8V144a12 12 0 0 0-24 0v66.8A60.1 60.1 0 0 1 68 152v-36h120v36a60.1 60.1 0 0 1-48 58.8Z"></path></svg>