<svg xmlns="http://www.w3.org/2000/svg" xmlns:xlink="http://www.w3.org/1999/xlink" aria-hidden="true" role="img" class="iconify iconify--ph" width="1em" height="1em" preserveAspectRatio="xMidYMid meet" viewBox="0 0 256 256"><path fill="currentColor" d="M146 92a10 10 0 1 1 10 10a10 10 0 0 1-10-10Zm-46-10a10 10 0 1 0 10 10a10 10 0 0 0-10-10Zm150 46a6 6 0 0 1-6 6h-30v10a86.6 86.6 0 0 1-3.6 24.6l24.5 14.2a6 6 0 0 1-3 11.2a6.7 6.7 0 0 1-3-.8L206.1 180a86 86 0 0 1-156.2 0l-22.8 13.2a6.7 6.7 0 0 1-3 .8a6 6 0 0 1-3-11.2l24.5-14.2A86.6 86.6 0 0 1 42 144v-10H12a6 6 0 0 1 0-12h30v-10a86.6 86.6 0 0 1 3.6-24.6L21.1 73.2a6 6 0 0 1 6-10.4L49.9 76a86 86 0 0 1 156.2 0l22.8-13.2a6 6 0 0 1 6 10.4l-24.5 14.2A86.6 86.6 0 0 1 214 112v10h30a6 6 0 0 1 6 6Zm-196-6h148v-10a74 74 0 0 0-148 0Zm68 95.7V134H54v10a74 74 0 0 0 68 73.7Zm80-83.7h-68v83.7a74 74 0 0 0 68-73.7Z"></path></svg>