<svg xmlns="http://www.w3.org/2000/svg" xmlns:xlink="http://www.w3.org/1999/xlink" aria-hidden="true" role="img" class="iconify iconify--ph" width="1em" height="1em" preserveAspectRatio="xMidYMid meet" viewBox="0 0 256 256"><path fill="currentColor" d="M48 128h160v20a80 80 0 0 1-160 0Z" opacity=".2"></path><path fill="currentColor" d="m191.4 47l14.1-13.1a8.1 8.1 0 1 0-11-11.8l-15.3 14.4a87.7 87.7 0 0 0-102.4 0L61.5 22.1a8.1 8.1 0 0 0-11 11.8L64.6 47A87.7 87.7 0 0 0 40 108v40a88 88 0 0 0 176 0v-40a87.7 87.7 0 0 0-24.6-61ZM128 36a72.1 72.1 0 0 1 72 72v12H56v-12a72.1 72.1 0 0 1 72-72Zm0 184a72.1 72.1 0 0 1-72-72v-12h144v12a72.1 72.1 0 0 1-72 72Zm16-128a12 12 0 1 1 12 12a12 12 0 0 1-12-12Zm-56 0a12 12 0 1 1 12 12a12 12 0 0 1-12-12Z"></path></svg>