<svg xmlns="http://www.w3.org/2000/svg" xmlns:xlink="http://www.w3.org/1999/xlink" aria-hidden="true" role="img" class="iconify iconify--ph" width="1em" height="1em" preserveAspectRatio="xMidYMid meet" viewBox="0 0 256 256"><path fill="currentColor" d="M208 128v16a80 80 0 0 1-160 0v-16Z" opacity=".2"></path><path fill="currentColor" d="M143.9 92a12 12 0 1 1 12 12a12 12 0 0 1-12-12Zm-44-12a12 12 0 1 0 12 12a12 12 0 0 0-12-12ZM252 128a8 8 0 0 1-8 8h-28v8a88.1 88.1 0 0 1-3.2 23.7l23.1 13.4a8 8 0 0 1-4 14.9a7.6 7.6 0 0 1-4-1.1L207 182.8a88 88 0 0 1-158 0l-20.9 12.1a7.6 7.6 0 0 1-4 1.1a8 8 0 0 1-4-14.9l23.1-13.4A88.1 88.1 0 0 1 40 144v-8H12a8 8 0 0 1 0-16h28v-8a88.1 88.1 0 0 1 3.2-23.7L20.1 74.9a8 8 0 0 1-3-10.9a8.1 8.1 0 0 1 11-2.9L49 73.2a88 88 0 0 1 158 0l20.9-12.1a8.1 8.1 0 0 1 11 2.9a8 8 0 0 1-3 10.9l-23.1 13.4A88.1 88.1 0 0 1 216 112v8h28a8 8 0 0 1 8 8Zm-196-8h144v-8a72 72 0 0 0-144 0Zm64 95.5V136H56v8a72 72 0 0 0 64 71.5Zm80-79.5h-64v79.5a72 72 0 0 0 64-71.5Z"></path></svg>