<svg xmlns="http://www.w3.org/2000/svg" xmlns:xlink="http://www.w3.org/1999/xlink" aria-hidden="true" role="img" class="iconify iconify--ph" width="1em" height="1em" preserveAspectRatio="xMidYMid meet" viewBox="0 0 256 256"><path fill="currentColor" d="M244 120h-28v-8a88.1 88.1 0 0 0-3.2-23.7l23.1-13.4a8 8 0 0 0 3-10.9a8.1 8.1 0 0 0-11-2.9L207 73.2a88 88 0 0 0-158 0L28.1 61.1a8.1 8.1 0 0 0-11 2.9a8 8 0 0 0 3 10.9l23.1 13.4A88.1 88.1 0 0 0 40 112v8H12a8 8 0 0 0 0 16h28v8a88.1 88.1 0 0 0 3.2 23.7l-23.1 13.4a8 8 0 0 0 4 14.9a7.6 7.6 0 0 0 4-1.1L49 182.8a88 88 0 0 0 158 0l20.9 12.1a7.6 7.6 0 0 0 4 1.1a8 8 0 0 0 4-14.9l-23.1-13.4A88.1 88.1 0 0 0 216 144v-8h28a8 8 0 0 0 0-16Zm-108 88a8 8 0 0 1-16 0v-64a8 8 0 0 1 16 0Zm64-88H56v-8a72 72 0 0 1 144 0Zm-88.1-28a12 12 0 1 1-12-12a12 12 0 0 1 12 12Zm56 0a12 12 0 1 1-12-12a12 12 0 0 1 12 12Z"></path></svg>