<svg xmlns="http://www.w3.org/2000/svg" xmlns:xlink="http://www.w3.org/1999/xlink" aria-hidden="true" role="img" class="iconify iconify--ph" width="1em" height="1em" preserveAspectRatio="xMidYMid meet" viewBox="0 0 256 256"><path fill="currentColor" d="M140 88a16 16 0 1 1 16 16a16 16 0 0 1-16-16Zm-40-16a16 16 0 1 0 16 16a16 16 0 0 0-16-16Zm156 56a12 12 0 0 1-12 12h-24v4a92.3 92.3 0 0 1-2.6 21.8l20.5 11.8a12 12 0 0 1-12 20.8l-17.3-10a92 92 0 0 1-161.2 0l-17.3 10a12 12 0 1 1-12-20.8l20.5-11.8A92.3 92.3 0 0 1 36 144v-4H12a12 12 0 0 1 0-24h24v-4a92.3 92.3 0 0 1 2.6-21.8L18.1 78.4a12 12 0 0 1 12-20.8l17.3 10a92 92 0 0 1 161.2 0l17.3-10a12 12 0 0 1 12 20.8l-20.5 11.8A92.3 92.3 0 0 1 220 112v4h24a12 12 0 0 1 12 12ZM60 116h136v-4a68 68 0 0 0-136 0Zm56 94.9V140H60v4a68.1 68.1 0 0 0 56 66.9Zm80-70.9h-56v70.9a68.1 68.1 0 0 0 56-66.9Z"></path></svg>