<svg xmlns="http://www.w3.org/2000/svg" xmlns:xlink="http://www.w3.org/1999/xlink" aria-hidden="true" role="img" class="iconify iconify--ph" width="1em" height="1em" preserveAspectRatio="xMidYMid meet" viewBox="0 0 256 256"><path fill="currentColor" d="M204 140h20a4 4 0 0 0 0-8h-20v-24h20a4 4 0 0 0 0-8h-20.1A75.7 75.7 0 0 0 182 50.6l20.7-19.7a4 4 0 0 0-5.5-5.8l-21.1 20.1a75.9 75.9 0 0 0-96.2 0L58.7 25.1a4 4 0 1 0-5.5 5.8l20.7 19.8A75.8 75.8 0 0 0 52.1 100H32a4 4 0 0 0 0 8h20v24H32a4 4 0 0 0 0 8h20v12a67.8 67.8 0 0 0 1 12H32a4 4 0 0 0 0 8h22.7a76 76 0 0 0 146.6 0H224a4 4 0 0 0 0-8h-21a67.8 67.8 0 0 0 1-12ZM128 36a68.1 68.1 0 0 1 67.9 64H60.1A68.1 68.1 0 0 1 128 36Zm4 183.9V136a4 4 0 0 0-8 0v83.9A68.1 68.1 0 0 1 60 152v-44h136v44a68.1 68.1 0 0 1-64 67.9Z"></path></svg>