<svg xmlns="http://www.w3.org/2000/svg" xmlns:xlink="http://www.w3.org/1999/xlink" aria-hidden="true" role="img" class="iconify iconify--ph" width="1em" height="1em" preserveAspectRatio="xMidYMid meet" viewBox="0 0 256 256"><path fill="currentColor" d="M140.1 84a16 16 0 1 1 16 16a16 16 0 0 1-16-16Zm-40 16a16 16 0 1 0-16-16a16 16 0 0 0 16 16Zm119.9 8v40a92 92 0 0 1-184 0v-40a91.6 91.6 0 0 1 23-60.8L47.8 36.8a12 12 0 0 1 16.4-17.6l13 12.1a92 92 0 0 1 101.6 0l13-12.1a12 12 0 1 1 16.4 17.6L197 47.2a91.6 91.6 0 0 1 23 60.8Zm-92-68a68.1 68.1 0 0 0-68 68v8h136v-8a68.1 68.1 0 0 0-68-68Zm68 108v-8H60v8a68 68 0 0 0 136 0Z"></path></svg>