<svg xmlns="http://www.w3.org/2000/svg" xmlns:xlink="http://www.w3.org/1999/xlink" aria-hidden="true" role="img" class="iconify iconify--ph" width="1em" height="1em" preserveAspectRatio="xMidYMid meet" viewBox="0 0 256 256"><path fill="currentColor" d="M148.1 84a8 8 0 1 1 8 8a8 8 0 0 1-8-8Zm-48 8a8 8 0 1 0-8-8a8 8 0 0 0 8 8ZM212 108v40a84 84 0 0 1-168 0v-40a84 84 0 0 1 26.4-61.1l-17.1-16a4 4 0 0 1 5.4-5.8l17.8 16.6a83.8 83.8 0 0 1 103 0l17.8-16.6a4 4 0 1 1 5.4 5.8l-17.1 16A84 84 0 0 1 212 108Zm-160 0v16h152v-16a76 76 0 0 0-152 0Zm152 40v-16H52v16a76 76 0 0 0 152 0Z"></path></svg>