<svg xmlns="http://www.w3.org/2000/svg" xmlns:xlink="http://www.w3.org/1999/xlink" aria-hidden="true" role="img" class="iconify iconify--ph" width="1em" height="1em" preserveAspectRatio="xMidYMid meet" viewBox="0 0 256 256"><path fill="currentColor" d="M146.1 84a10 10 0 1 1 10 10a10 10 0 0 1-10-10Zm-46 10a10 10 0 1 0-10-10a10 10 0 0 0 10 10ZM214 108v40a86 86 0 0 1-172 0v-40a85.9 85.9 0 0 1 25.5-61.1L51.9 32.4a6 6 0 1 1 8.2-8.8l16.6 15.5a85.5 85.5 0 0 1 102.6 0l16.6-15.5a6 6 0 0 1 8.2 8.8l-15.6 14.5A85.9 85.9 0 0 1 214 108Zm-160 0v14h148v-14a74 74 0 0 0-148 0Zm148 40v-14H54v14a74 74 0 0 0 148 0Z"></path></svg>