<svg xmlns="http://www.w3.org/2000/svg" xmlns:xlink="http://www.w3.org/1999/xlink" aria-hidden="true" role="img" class="iconify iconify--ph" width="1em" height="1em" preserveAspectRatio="xMidYMid meet" viewBox="0 0 256 256"><path fill="currentColor" d="M206 142h18a6 6 0 0 0 0-12h-18v-20h18a6 6 0 0 0 0-12h-18.3a77.1 77.1 0 0 0-20.9-47.3l19.3-18.4a5.9 5.9 0 0 0 .2-8.4a6 6 0 0 0-8.5-.2l-19.9 18.8a77.7 77.7 0 0 0-95.9.1L60.1 23.7a6 6 0 0 0-8.5.2a5.9 5.9 0 0 0 .2 8.4l19.3 18.4A77.2 77.2 0 0 0 50.3 98H32a6 6 0 0 0 0 12h18v20H32a6 6 0 0 0 0 12h18v10a66.3 66.3 0 0 0 .7 10H32a6 6 0 0 0 0 12h21.2a78 78 0 0 0 149.6 0H224a6 6 0 0 0 0-12h-18.7a66.3 66.3 0 0 0 .7-10ZM128 38a66 66 0 0 1 65.7 60H62.3A66 66 0 0 1 128 38Zm6 179.7V136a6 6 0 0 0-12 0v81.7A66 66 0 0 1 62 152v-42h132v42a66 66 0 0 1-60 65.7Z"></path></svg>