<svg xmlns="http://www.w3.org/2000/svg" xmlns:xlink="http://www.w3.org/1999/xlink" aria-hidden="true" role="img" class="iconify iconify--ph" width="1em" height="1em" preserveAspectRatio="xMidYMid meet" viewBox="0 0 256 256"><path fill="currentColor" d="M240 208h-8V104a16 16 0 0 0-16-16h-64V40a16 16 0 0 0-16-16H40a16 16 0 0 0-16 16v168h-8a8 8 0 0 0 0 16h224a8 8 0 0 0 0-16Zm-120-72a8 8 0 0 1-8 8H80a8 8 0 0 1 0-16h32a8 8 0 0 1 8 8ZM64 64h32a8 8 0 0 1 0 16H64a8 8 0 0 1 0-16Zm0 104h32a8 8 0 0 1 0 16H64a8 8 0 0 1 0-16Zm88-64h64v104h-64Zm48 72a8 8 0 0 1-8 8h-16a8 8 0 0 1 0-16h16a8 8 0 0 1 8 8Zm-32-40a8 8 0 0 1 8-8h16a8 8 0 0 1 0 16h-16a8 8 0 0 1-8-8Z"></path></svg>