<svg xmlns="http://www.w3.org/2000/svg" xmlns:xlink="http://www.w3.org/1999/xlink" aria-hidden="true" role="img" class="iconify iconify--ph" width="1em" height="1em" preserveAspectRatio="xMidYMid meet" viewBox="0 0 256 256"><path fill="currentColor" d="M240 204h-4V104a20.1 20.1 0 0 0-20-20h-60V40a20.1 20.1 0 0 0-20-20H40a20.1 20.1 0 0 0-20 20v164h-4a12 12 0 0 0 0 24h224a12 12 0 0 0 0-24Zm-28-96v96h-56v-96ZM44 44h88v160H44Zm12 28a12 12 0 0 1 12-12h28a12 12 0 0 1 0 24H68a12 12 0 0 1-12-12Zm64 64a12 12 0 0 1-12 12H80a12 12 0 0 1 0-24h28a12 12 0 0 1 12 12Zm-12 40a12 12 0 0 1-12 12H68a12 12 0 0 1 0-24h28a12 12 0 0 1 12 12Zm92 0a12 12 0 0 1-12 12h-8a12 12 0 0 1 0-24h8a12 12 0 0 1 12 12Zm-32-40a12 12 0 0 1 12-12h8a12 12 0 0 1 0 24h-8a12 12 0 0 1-12-12Z"></path></svg>