<svg xmlns="http://www.w3.org/2000/svg" xmlns:xlink="http://www.w3.org/1999/xlink" aria-hidden="true" role="img" class="iconify iconify--ph" width="1em" height="1em" preserveAspectRatio="xMidYMid meet" viewBox="0 0 256 256"><path fill="currentColor" d="M240 210h-10V104a14 14 0 0 0-14-14h-66V40a14 14 0 0 0-14-14H40a14 14 0 0 0-14 14v170H16a6 6 0 0 0 0 12h224a6 6 0 0 0 0-12Zm-24-108a2 2 0 0 1 2 2v106h-68V102ZM38 40a2 2 0 0 1 2-2h96a2 2 0 0 1 2 2v170H38Zm20 32a6 6 0 0 1 6-6h32a6 6 0 0 1 0 12H64a6 6 0 0 1-6-6Zm60 64a6 6 0 0 1-6 6H80a6 6 0 0 1 0-12h32a6 6 0 0 1 6 6Zm-16 40a6 6 0 0 1-6 6H64a6 6 0 0 1 0-12h32a6 6 0 0 1 6 6Zm96 0a6 6 0 0 1-6 6h-16a6 6 0 0 1 0-12h16a6 6 0 0 1 6 6Zm-28-40a6 6 0 0 1 6-6h16a6 6 0 0 1 0 12h-16a6 6 0 0 1-6-6Z"></path></svg>