<svg xmlns="http://www.w3.org/2000/svg" xmlns:xlink="http://www.w3.org/1999/xlink" aria-hidden="true" role="img" class="iconify iconify--ph" width="1em" height="1em" preserveAspectRatio="xMidYMid meet" viewBox="0 0 256 256"><path fill="currentColor" d="M190 36H66a28.1 28.1 0 0 0-28 28v152a12 12 0 0 0 12 12h24a12 12 0 0 0 12-12v-20h84v20a12 12 0 0 0 12 12h24a12 12 0 0 0 12-12V64a28.1 28.1 0 0 0-28-28ZM46 188v-64h164v64Zm0-112h164v40H46Zm20-32h124a20.1 20.1 0 0 1 20 20v4H46v-4a20.1 20.1 0 0 1 20-20Zm12 172a4 4 0 0 1-4 4H50a4 4 0 0 1-4-4v-20h32Zm128 4h-24a4 4 0 0 1-4-4v-20h32v20a4 4 0 0 1-4 4ZM92 156a8 8 0 1 1-8-8a8 8 0 0 1 8 8Zm88 0a8 8 0 1 1-8-8a8 8 0 0 1 8 8Z"></path></svg>