<svg xmlns="http://www.w3.org/2000/svg" xmlns:xlink="http://www.w3.org/1999/xlink" aria-hidden="true" role="img" class="iconify iconify--ph" width="1em" height="1em" preserveAspectRatio="xMidYMid meet" viewBox="0 0 256 256"><path fill="currentColor" d="M190 34H66a30.1 30.1 0 0 0-30 30v152a14 14 0 0 0 14 14h24a14 14 0 0 0 14-14v-18h80v18a14 14 0 0 0 14 14h24a14 14 0 0 0 14-14V64a30.1 30.1 0 0 0-30-30ZM48 186v-60h160v60Zm0-108h160v36H48Zm18-32h124a18.1 18.1 0 0 1 18 18v2H48v-2a18.1 18.1 0 0 1 18-18Zm10 170a2 2 0 0 1-2 2H50a2 2 0 0 1-2-2v-18h28Zm130 2h-24a2 2 0 0 1-2-2v-18h28v18a2 2 0 0 1-2 2ZM94 156a10 10 0 1 1-10-10a10 10 0 0 1 10 10Zm88 0a10 10 0 1 1-10-10a10 10 0 0 1 10 10Z"></path></svg>