<svg xmlns="http://www.w3.org/2000/svg" xmlns:xlink="http://www.w3.org/1999/xlink" aria-hidden="true" role="img" class="iconify iconify--ph" width="1em" height="1em" preserveAspectRatio="xMidYMid meet" viewBox="0 0 256 256"><path fill="currentColor" d="M190 28H66a36 36 0 0 0-36 36v152a20.1 20.1 0 0 0 20 20h24a20.1 20.1 0 0 0 20-20v-20h68v20a20.1 20.1 0 0 0 20 20h24a20.1 20.1 0 0 0 20-20V64a36 36 0 0 0-36-36ZM54 172v-28h148v28Zm0-80h148v28H54Zm12-40h124a12 12 0 0 1 12 12v4H54v-4a12 12 0 0 1 12-12Zm4 160H54v-16h16Zm116 0v-16h16v16Z"></path></svg>