<svg xmlns="http://www.w3.org/2000/svg" xmlns:xlink="http://www.w3.org/1999/xlink" aria-hidden="true" role="img" class="iconify iconify--ph" width="1em" height="1em" preserveAspectRatio="xMidYMid meet" viewBox="0 0 256 256"><path fill="currentColor" d="M190 32H66a32.1 32.1 0 0 0-32 32v152a16 16 0 0 0 16 16h24a16 16 0 0 0 16-16v-16h76v16a16 16 0 0 0 16 16h24a16 16 0 0 0 16-16V64a32.1 32.1 0 0 0-32-32ZM50 184v-56h156v56Zm0-104h156v32H50Zm16-32h124a16 16 0 0 1 16 16H50a16 16 0 0 1 16-16Zm8 168H50v-16h24Zm108 0v-16h24v16Zm-88-60a12 12 0 1 1-12-12a12 12 0 0 1 12 12Zm92 0a12 12 0 1 1-12-12a12 12 0 0 1 12 12Z"></path></svg>