<svg xmlns="http://www.w3.org/2000/svg" xmlns:xlink="http://www.w3.org/1999/xlink" aria-hidden="true" role="img" class="iconify iconify--ph" width="1em" height="1em" preserveAspectRatio="xMidYMid meet" viewBox="0 0 256 256"><path fill="currentColor" d="M224 120c-7.8 31.1-29 32.8-36.9 32.4A36 36 0 1 1 128 180a36 36 0 1 1-59.1-27.6c-7.9.4-29.1-1.3-36.9-32.4S17.1 48 48 48s80 48 80 80c0-32 49.1-80 80-80s24 40 16 72Z" opacity=".2"></path><path fill="currentColor" d="M231.4 50.4C227.7 45.6 220.7 40 208 40c-16.7 0-38.1 11.3-57.2 30.3A144.2 144.2 0 0 0 136 87.5V56a8 8 0 0 0-16 0v31.5a144.2 144.2 0 0 0-14.8-17.2C86.1 51.3 64.7 40 48 40c-12.7 0-19.7 5.6-23.4 10.4c-6.8 8.7-12.2 24.1-.4 71.5c5.9 23.4 18.7 32.7 29.5 36.3A44.8 44.8 0 0 0 48 180a44 44 0 0 0 80 25.3a44 44 0 0 0 80-25.3a44.8 44.8 0 0 0-5.7-21.8c10.8-3.6 23.6-12.9 29.5-36.3c6.6-26.6 11.8-55.9-.4-71.5ZM92 208a28 28 0 0 1-18.3-49.2l.7-.6a28.1 28.1 0 0 1 14.5-6a8.1 8.1 0 0 0 7.1-8.9a8 8 0 0 0-8.9-7a42.9 42.9 0 0 0-21 8.1c-8.4-.2-20.9-4.5-26.3-26.3c-2.9-11.5-11.6-46.3-2.6-57.9C38.6 58.4 41.3 56 48 56c26.9 0 72 45.1 72 72v52a28.1 28.1 0 0 1-28 28Zm124.2-89.9c-5.4 21.8-17.9 26.1-26.3 26.3a42.9 42.9 0 0 0-21-8.1a8 8 0 0 0-8.9 7a8.1 8.1 0 0 0 7.1 8.9a28.1 28.1 0 0 1 14.5 6l.7.6A28 28 0 1 1 136 180v-52c0-26.9 45.1-72 72-72c6.7 0 9.4 2.4 10.8 4.2c9 11.6.3 46.4-2.6 57.9Z"></path></svg>