<svg xmlns="http://www.w3.org/2000/svg" xmlns:xlink="http://www.w3.org/1999/xlink" aria-hidden="true" role="img" class="iconify iconify--ph" width="1em" height="1em" preserveAspectRatio="xMidYMid meet" viewBox="0 0 256 256"><path fill="currentColor" d="M216 204h-44v-20a72.1 72.1 0 0 0 72-72a32 32 0 0 0-64 0a8 8 0 0 1-8 8V56a44 44 0 0 0-88 0v24a8 8 0 0 1-8-8a32 32 0 0 0-64 0a72.1 72.1 0 0 0 72 72v60H40a12 12 0 0 0 0 24h176a12 12 0 0 0 0-24ZM96 120H84a48 48 0 0 1-48-48a8 8 0 0 1 16 0a32.1 32.1 0 0 0 32 32h12a12 12 0 0 0 12-12V56a20 20 0 0 1 40 0v76a12 12 0 0 0 12 12h12a32.1 32.1 0 0 0 32-32a8 8 0 0 1 16 0a48 48 0 0 1-48 48h-12a12 12 0 0 0-12 12v32h-40v-72a12 12 0 0 0-12-12Z"></path></svg>