<svg xmlns="http://www.w3.org/2000/svg" xmlns:xlink="http://www.w3.org/1999/xlink" aria-hidden="true" role="img" class="iconify iconify--ph" width="1em" height="1em" preserveAspectRatio="xMidYMid meet" viewBox="0 0 256 256"><path fill="currentColor" d="M216 210h-50v-32h6a66.1 66.1 0 0 0 66-66a26 26 0 0 0-52 0a14 14 0 0 1-14 14h-6V56a38 38 0 0 0-76 0v30h-6a14 14 0 0 1-14-14a26 26 0 0 0-52 0a66.1 66.1 0 0 0 66 66h6v72H40a6 6 0 0 0 0 12h176a6 6 0 0 0 0-12ZM96 126H84a54 54 0 0 1-54-54a14 14 0 0 1 28 0a26.1 26.1 0 0 0 26 26h12a6 6 0 0 0 6-6V56a26 26 0 0 1 52 0v76a6 6 0 0 0 6 6h12a26.1 26.1 0 0 0 26-26a14 14 0 0 1 28 0a54 54 0 0 1-54 54h-12a6 6 0 0 0-6 6v38h-52v-78a6 6 0 0 0-6-6Z"></path></svg>