<svg xmlns="http://www.w3.org/2000/svg" xmlns:xlink="http://www.w3.org/1999/xlink" aria-hidden="true" role="img" class="iconify iconify--ph" width="1em" height="1em" preserveAspectRatio="xMidYMid meet" viewBox="0 0 256 256"><path fill="currentColor" d="M216 212h-52v-36h8a64.1 64.1 0 0 0 64-64a24 24 0 0 0-48 0a16 16 0 0 1-16 16h-8V56a36 36 0 0 0-72 0v32h-8a16 16 0 0 1-16-16a24 24 0 0 0-48 0a64.1 64.1 0 0 0 64 64h8v76H40a4 4 0 0 0 0 8h176a4 4 0 0 0 0-8ZM96 128H84a56 56 0 0 1-56-56a16 16 0 0 1 32 0a24.1 24.1 0 0 0 24 24h12a4 4 0 0 0 4-4V56a28 28 0 0 1 56 0v76a4 4 0 0 0 4 4h12a24.1 24.1 0 0 0 24-24a16 16 0 0 1 32 0a56 56 0 0 1-56 56h-12a4 4 0 0 0-4 4v40h-56v-80a4 4 0 0 0-4-4Z"></path></svg>