<svg xmlns="http://www.w3.org/2000/svg" xmlns:xlink="http://www.w3.org/1999/xlink" aria-hidden="true" role="img" class="iconify iconify--ph" width="1em" height="1em" preserveAspectRatio="xMidYMid meet" viewBox="0 0 256 256"><path fill="currentColor" d="M232 112a60 60 0 0 1-60 60h-12v44H96v-84H84a60 60 0 0 1-60-60a20.1 20.1 0 0 1 20-20a20.1 20.1 0 0 1 20 20a20.1 20.1 0 0 0 20 20h12V56a32 32 0 0 1 32-32a32 32 0 0 1 32 32v76h12a20.1 20.1 0 0 0 20-20a20.1 20.1 0 0 1 20-20a20.1 20.1 0 0 1 20 20Z" opacity=".2"></path><path fill="currentColor" d="M216 208h-48v-28h4a68.1 68.1 0 0 0 68-68a28 28 0 0 0-56 0a12 12 0 0 1-12 12h-4V56a40 40 0 0 0-80 0v28h-4a12 12 0 0 1-12-12a28 28 0 0 0-56 0a68.1 68.1 0 0 0 68 68h4v68H40a8 8 0 0 0 0 16h176a8 8 0 0 0 0-16ZM96 124H84a52 52 0 0 1-52-52a12 12 0 0 1 24 0a28.1 28.1 0 0 0 28 28h12a8 8 0 0 0 8-8V56a24 24 0 0 1 48 0v76a8 8 0 0 0 8 8h12a28.1 28.1 0 0 0 28-28a12 12 0 0 1 24 0a52 52 0 0 1-52 52h-12a8 8 0 0 0-8 8v36h-48v-76a8 8 0 0 0-8-8Z"></path></svg>