<svg xmlns="http://www.w3.org/2000/svg" xmlns:xlink="http://www.w3.org/1999/xlink" aria-hidden="true" role="img" class="iconify iconify--ph" width="1em" height="1em" preserveAspectRatio="xMidYMid meet" viewBox="0 0 256 256"><path fill="currentColor" d="M206 82h-72V68.1c11.6-4.9 18.3-11.9 20.1-21.1c3.9-20.3-19.5-41.2-22.2-43.5a5.8 5.8 0 0 0-7.7-.1a93.8 93.8 0 0 0-12.7 13.2c-8.6 11.1-12.1 21.2-10.4 30.2s8.8 16.5 20.9 21.4V82H50a30.1 30.1 0 0 0-30 30v13.3a41.5 41.5 0 0 0 12.3 29.3l1.7 1.5V208a14 14 0 0 0 14 14h160a14 14 0 0 0 14-14v-51.9l1.7-1.5a41.5 41.5 0 0 0 12.3-29.3V112a30.1 30.1 0 0 0-30-30Zm-93.1-37.4c-1.8-9.3 8.2-21.6 15-28.4a89.7 89.7 0 0 1 6.8 8c4.2 5.6 8.9 13.7 7.6 20.6c-1 5.2-5.8 9.5-14.3 12.8c-9-3.3-14.1-7.7-15.1-13ZM210 208a2 2 0 0 1-2 2H48a2 2 0 0 1-2-2v-44.6a39.1 39.1 0 0 0 14.8 2.6A40.5 40.5 0 0 0 94 147a39.9 39.9 0 0 0 68 0a40.5 40.5 0 0 0 33.2 19h.8a39.1 39.1 0 0 0 14-2.6Zm14-82.7a29.3 29.3 0 0 1-8.7 20.7a27.7 27.7 0 0 1-19.8 8a28.2 28.2 0 0 1-27.5-28a6 6 0 0 0-12 0a28 28 0 0 1-56 0a6 6 0 0 0-12 0a28.2 28.2 0 0 1-27.5 28a27.7 27.7 0 0 1-19.8-8a29.3 29.3 0 0 1-8.7-20.7V112a18.1 18.1 0 0 1 18-18h156a18.1 18.1 0 0 1 18 18Z"></path></svg>