<svg xmlns="http://www.w3.org/2000/svg" xmlns:xlink="http://www.w3.org/1999/xlink" aria-hidden="true" role="img" class="iconify iconify--ph" width="1em" height="1em" preserveAspectRatio="xMidYMid meet" viewBox="0 0 256 256"><path fill="currentColor" d="M206 80h-70V69.4c11.5-5.1 18.2-12.5 20.1-22C160.2 26 136 4.3 133.2 2a7.8 7.8 0 0 0-10.3-.1C120 4.2 95.1 25.7 99.1 47.2c1.8 9.7 8.9 17.2 20.9 22.3V80H50a32.1 32.1 0 0 0-32 32v13.3A43.3 43.3 0 0 0 30.9 156l1.1 1v51a16 16 0 0 0 16 16h160a16 16 0 0 0 16-16v-51l1.1-1a43.3 43.3 0 0 0 12.9-30.7V112a32.1 32.1 0 0 0-32-32Zm-91.2-35.8c-1.5-7.8 6.7-18.4 13.1-25.1c6.2 6.7 14 17.4 12.5 25.3c-.9 4.4-5.1 8.1-12.5 11.1c-5.8-2.3-12.1-5.9-13.1-11.3ZM34 112a16 16 0 0 1 16-16h156a16 16 0 0 1 16 16v13.3a27.5 27.5 0 0 1-8.1 19.3a25.7 25.7 0 0 1-18.4 7.4a26.1 26.1 0 0 1-25.5-26a8.3 8.3 0 0 0-1.8-5.1l-.5-.6a9 9 0 0 0-2.6-1.7a8.3 8.3 0 0 0-6.2 0a9 9 0 0 0-2.6 1.7l-.5.6a8.3 8.3 0 0 0-1.8 5.1a26 26 0 0 1-52 0a8.3 8.3 0 0 0-1.8-5.1l-.5-.6a9 9 0 0 0-2.6-1.7a8.3 8.3 0 0 0-6.2 0a9 9 0 0 0-2.6 1.7l-.5.6A8.3 8.3 0 0 0 86 126a26.1 26.1 0 0 1-25.5 26a25.7 25.7 0 0 1-18.4-7.4a27.5 27.5 0 0 1-8.1-19.3Zm174 96H48v-41.8a39.3 39.3 0 0 0 12.8 1.8A42.2 42.2 0 0 0 94 150.6a41.9 41.9 0 0 0 68 0a42.2 42.2 0 0 0 33.2 17.4h.8a40.6 40.6 0 0 0 12-1.8Z"></path></svg>