<svg xmlns="http://www.w3.org/2000/svg" xmlns:xlink="http://www.w3.org/1999/xlink" aria-hidden="true" role="img" class="iconify iconify--ph" width="1em" height="1em" preserveAspectRatio="xMidYMid meet" viewBox="0 0 256 256"><path fill="currentColor" d="M206 84h-74V66.8c11.7-4.6 18.5-11.4 20.1-20.1c3.8-19.6-20.4-40.8-21.5-41.7a4.1 4.1 0 0 0-5.2-.1c-1 .9-26 22-22.4 41.6c1.7 8.8 8.8 15.7 21 20.3V84H50a28.1 28.1 0 0 0-28 28v13.3a39.3 39.3 0 0 0 11.7 27.8a22.9 22.9 0 0 0 2.3 2.1V208a12 12 0 0 0 12 12h160a12 12 0 0 0 12-12v-52.8a22.9 22.9 0 0 0 2.3-2.1a39.3 39.3 0 0 0 11.7-27.8V112a28.1 28.1 0 0 0-28-28Zm-95.1-39c-2.1-10.9 9.9-24.8 17.1-31.6c6.9 6.8 18.4 20.8 16.3 31.7c-1.2 6.2-6.7 11.1-16.3 14.7c-10.2-3.7-15.9-8.6-17.1-14.8ZM212 208a4 4 0 0 1-4 4H48a4 4 0 0 1-4-4v-47.6a37.8 37.8 0 0 0 50-17.5a37.9 37.9 0 0 0 68 0a38.5 38.5 0 0 0 33.3 21.1h.7a38.2 38.2 0 0 0 16-3.6Zm14-82.7a31.1 31.1 0 0 1-9.3 22.1a29.5 29.5 0 0 1-21.3 8.6a30.2 30.2 0 0 1-29.4-30a4 4 0 0 0-8 0a30 30 0 0 1-60 0a4 4 0 0 0-8 0a30.2 30.2 0 0 1-29.4 30a29.5 29.5 0 0 1-21.3-8.6a31.1 31.1 0 0 1-9.3-22.1V112a20.1 20.1 0 0 1 20-20h156a20.1 20.1 0 0 1 20 20Z"></path></svg>