<svg xmlns="http://www.w3.org/2000/svg" xmlns:xlink="http://www.w3.org/1999/xlink" aria-hidden="true" role="img" class="iconify iconify--ph" width="1em" height="1em" preserveAspectRatio="xMidYMid meet" viewBox="0 0 256 256"><path fill="currentColor" d="M176 60H80a4 4 0 0 0-4 4v48a4 4 0 0 0 4 4h96a4 4 0 0 0 4-4V64a4 4 0 0 0-4-4Zm-4 48H84V68h88Zm28-80H56a12 12 0 0 0-12 12v176a12 12 0 0 0 12 12h144a12 12 0 0 0 12-12V40a12 12 0 0 0-12-12Zm4 188a4 4 0 0 1-4 4H56a4 4 0 0 1-4-4V40a4 4 0 0 1 4-4h144a4 4 0 0 1 4 4Zm-68-68a8 8 0 1 1-8-8a8 8 0 0 1 8 8Zm0 40a8 8 0 1 1-8-8a8 8 0 0 1 8 8Zm-40-40a8 8 0 1 1-8-8a8 8 0 0 1 8 8Zm0 40a8 8 0 1 1-8-8a8 8 0 0 1 8 8Zm80-40a8 8 0 1 1-8-8a8 8 0 0 1 8 8Zm0 40a8 8 0 1 1-8-8a8 8 0 0 1 8 8Z"></path></svg>