<svg xmlns="http://www.w3.org/2000/svg" xmlns:xlink="http://www.w3.org/1999/xlink" aria-hidden="true" role="img" class="iconify iconify--ph" width="1em" height="1em" preserveAspectRatio="xMidYMid meet" viewBox="0 0 256 256"><path fill="currentColor" d="M200 20H56a20.1 20.1 0 0 0-20 20v176a20.1 20.1 0 0 0 20 20h144a20.1 20.1 0 0 0 20-20V40a20.1 20.1 0 0 0-20-20Zm-4 192H60V44h136ZM80 76a12 12 0 0 1 12-12h72a12 12 0 0 1 0 24H92a12 12 0 0 1-12-12Zm88 52a16 16 0 1 1-16-16a16 16 0 0 1 16 16Zm0 48a16 16 0 1 1-16-16a16 16 0 0 1 16 16Zm-48-48a16 16 0 1 1-16-16a16 16 0 0 1 16 16Zm0 48a16 16 0 1 1-16-16a16 16 0 0 1 16 16Z"></path></svg>