<svg xmlns="http://www.w3.org/2000/svg" xmlns:xlink="http://www.w3.org/1999/xlink" aria-hidden="true" role="img" class="iconify iconify--ph" width="1em" height="1em" preserveAspectRatio="xMidYMid meet" viewBox="0 0 256 256"><path fill="currentColor" d="M176 58H80a6 6 0 0 0-6 6v48a6 6 0 0 0 6 6h96a6 6 0 0 0 6-6V64a6 6 0 0 0-6-6Zm-6 48H86V70h84Zm30-80H56a14 14 0 0 0-14 14v176a14 14 0 0 0 14 14h144a14 14 0 0 0 14-14V40a14 14 0 0 0-14-14Zm2 190a2 2 0 0 1-2 2H56a2 2 0 0 1-2-2V40a2 2 0 0 1 2-2h144a2 2 0 0 1 2 2Zm-64-68a10 10 0 1 1-10-10a10 10 0 0 1 10 10Zm0 40a10 10 0 1 1-10-10a10 10 0 0 1 10 10Zm-40-40a10 10 0 1 1-10-10a10 10 0 0 1 10 10Zm0 40a10 10 0 1 1-10-10a10 10 0 0 1 10 10Zm80-40a10 10 0 1 1-10-10a10 10 0 0 1 10 10Zm0 40a10 10 0 1 1-10-10a10 10 0 0 1 10 10Z"></path></svg>