<svg xmlns="http://www.w3.org/2000/svg" xmlns:xlink="http://www.w3.org/1999/xlink" aria-hidden="true" role="img" class="iconify iconify--ph" width="1em" height="1em" preserveAspectRatio="xMidYMid meet" viewBox="0 0 256 256"><path fill="currentColor" d="M80 64h96v48H80z" opacity=".2"></path><path fill="currentColor" d="M80 120h96a8 8 0 0 0 8-8V64a8 8 0 0 0-8-8H80a8 8 0 0 0-8 8v48a8 8 0 0 0 8 8Zm8-48h80v32H88Zm112-48H56a16 16 0 0 0-16 16v176a16 16 0 0 0 16 16h144a16 16 0 0 0 16-16V40a16 16 0 0 0-16-16Zm0 192H56V40h144Zm-60-68a12 12 0 1 1-12-12a12 12 0 0 1 12 12Zm0 40a12 12 0 1 1-12-12a12 12 0 0 1 12 12Zm-40-40a12 12 0 1 1-12-12a12 12 0 0 1 12 12Zm0 40a12 12 0 1 1-12-12a12 12 0 0 1 12 12Zm80-40a12 12 0 1 1-12-12a12 12 0 0 1 12 12Zm0 40a12 12 0 1 1-12-12a12 12 0 0 1 12 12Z"></path></svg>