<svg xmlns="http://www.w3.org/2000/svg" xmlns:xlink="http://www.w3.org/1999/xlink" aria-hidden="true" role="img" class="iconify iconify--ph" width="1em" height="1em" preserveAspectRatio="xMidYMid meet" viewBox="0 0 256 256"><path fill="currentColor" d="M40 88h176V48a8 8 0 0 0-8-8H48a8 8 0 0 0-8 8Z" opacity=".2"></path><path fill="currentColor" d="M208 32h-24v-8a8 8 0 0 0-16 0v8H88v-8a8 8 0 0 0-16 0v8H48a16 16 0 0 0-16 16v160a16 16 0 0 0 16 16h160a16 16 0 0 0 16-16V48a16 16 0 0 0-16-16ZM72 48v8a8 8 0 0 0 16 0v-8h80v8a8 8 0 0 0 16 0v-8h24v32H48V48Zm136 160H48V96h160v112Z"></path><path fill="currentColor" d="M157.7 122.3a8.1 8.1 0 0 0-11.4 0L128 140.7l-18.3-18.4a8.1 8.1 0 0 0-11.4 11.4l18.4 18.3l-18.4 18.3a8.1 8.1 0 0 0 0 11.4a8.2 8.2 0 0 0 11.4 0l18.3-18.4l18.3 18.4a8.2 8.2 0 0 0 11.4 0a8.1 8.1 0 0 0 0-11.4L139.3 152l18.4-18.3a8.1 8.1 0 0 0 0-11.4Z"></path></svg>