<svg xmlns="http://www.w3.org/2000/svg" xmlns:xlink="http://www.w3.org/1999/xlink" aria-hidden="true" role="img" class="iconify iconify--ph" width="1em" height="1em" preserveAspectRatio="xMidYMid meet" viewBox="0 0 256 256"><path fill="currentColor" d="M208 34h-26V24a6 6 0 0 0-12 0v10H86V24a6 6 0 0 0-12 0v10H48a14 14 0 0 0-14 14v160a14 14 0 0 0 14 14h160a14 14 0 0 0 14-14V48a14 14 0 0 0-14-14ZM48 46h26v10a6 6 0 0 0 12 0V46h84v10a6 6 0 0 0 12 0V46h26a2 2 0 0 1 2 2v34H46V48a2 2 0 0 1 2-2Zm160 164H48a2 2 0 0 1-2-2V94h164v114a2 2 0 0 1-2 2Zm-51.8-77.8L136.5 152l19.7 19.8a5.9 5.9 0 1 1-8.4 8.4L128 160.5l-19.8 19.7a5.9 5.9 0 0 1-8.4-8.4l19.7-19.8l-19.7-19.8a5.9 5.9 0 0 1 8.4-8.4l19.8 19.7l19.8-19.7a5.9 5.9 0 0 1 8.4 8.4Z"></path></svg>