<svg xmlns="http://www.w3.org/2000/svg" xmlns:xlink="http://www.w3.org/1999/xlink" aria-hidden="true" role="img" class="iconify iconify--ph" width="1em" height="1em" preserveAspectRatio="xMidYMid meet" viewBox="0 0 256 256"><path fill="currentColor" d="M168 152a12 12 0 0 1-12 12h-16v16a12 12 0 0 1-24 0v-16h-16a12 12 0 0 1 0-24h16v-16a12 12 0 0 1 24 0v16h16a12 12 0 0 1 12 12Zm60-104v160a20.1 20.1 0 0 1-20 20H48a20.1 20.1 0 0 1-20-20V48a20.1 20.1 0 0 1 20-20h20v-8a12 12 0 0 1 24 0v8h72v-8a12 12 0 0 1 24 0v8h20a20.1 20.1 0 0 1 20 20ZM52 52v24h152V52Zm152 152V100H52v104Z"></path></svg>