<svg xmlns="http://www.w3.org/2000/svg" xmlns:xlink="http://www.w3.org/1999/xlink" aria-hidden="true" role="img" class="iconify iconify--ph" width="1em" height="1em" preserveAspectRatio="xMidYMid meet" viewBox="0 0 256 256"><path fill="currentColor" d="M208 36h-28V24a4 4 0 0 0-8 0v12H84V24a4 4 0 0 0-8 0v12H48a12 12 0 0 0-12 12v160a12 12 0 0 0 12 12h160a12 12 0 0 0 12-12V48a12 12 0 0 0-12-12ZM48 44h28v12a4 4 0 0 0 8 0V44h88v12a4 4 0 0 0 8 0V44h28a4 4 0 0 1 4 4v36H44V48a4 4 0 0 1 4-4Zm160 168H48a4 4 0 0 1-4-4V92h168v116a4 4 0 0 1-4 4Zm-41.1-86.7a4 4 0 0 1-.2 5.6l-46.6 44a4.3 4.3 0 0 1-2.8 1.1a3.9 3.9 0 0 1-2.7-1.1l-25.4-24a4.1 4.1 0 0 1-.1-5.7a4 4 0 0 1 5.6-.1l22.6 21.4l44-41.4a3.9 3.9 0 0 1 5.6.2Z"></path></svg>