<svg xmlns="http://www.w3.org/2000/svg" xmlns:xlink="http://www.w3.org/1999/xlink" aria-hidden="true" role="img" class="iconify iconify--ph" width="1em" height="1em" preserveAspectRatio="xMidYMid meet" viewBox="0 0 256 256"><path fill="currentColor" d="M208 34h-26V24a6 6 0 0 0-12 0v10H86V24a6 6 0 0 0-12 0v10H48a14 14 0 0 0-14 14v160a14 14 0 0 0 14 14h160a14 14 0 0 0 14-14V48a14 14 0 0 0-14-14ZM48 46h26v10a6 6 0 0 0 12 0V46h84v10a6 6 0 0 0 12 0V46h26a2 2 0 0 1 2 2v34H46V48a2 2 0 0 1 2-2Zm160 164H48a2 2 0 0 1-2-2V94h164v114a2 2 0 0 1-2 2Zm-39.6-86.1a6.1 6.1 0 0 1-.3 8.5l-46.7 44a5.7 5.7 0 0 1-4.1 1.6a6.4 6.4 0 0 1-4.1-1.6l-25.3-24a6 6 0 0 1 8.2-8.8l21.2 20.1l42.6-40.1a6.1 6.1 0 0 1 8.5.3Z"></path></svg>