<svg xmlns="http://www.w3.org/2000/svg" xmlns:xlink="http://www.w3.org/1999/xlink" aria-hidden="true" role="img" class="iconify iconify--ph" width="1em" height="1em" preserveAspectRatio="xMidYMid meet" viewBox="0 0 256 256"><path fill="currentColor" d="M208 32h-24v-8a8 8 0 0 0-16 0v8H88v-8a8 8 0 0 0-16 0v8H48a16 16 0 0 0-16 16v160a16 16 0 0 0 16 16h160a16 16 0 0 0 16-16V48a16 16 0 0 0-16-16Zm-38.5 101.8l-46.7 44a7.7 7.7 0 0 1-5.5 2.2a7.9 7.9 0 0 1-5.5-2.2l-25.3-24a8 8 0 1 1 11-11.6l19.8 18.8l41.2-38.8a7.9 7.9 0 0 1 11.3.3a8 8 0 0 1-.3 11.3ZM208 80H48V48h24v8a8 8 0 0 0 16 0v-8h80v8a8 8 0 0 0 16 0v-8h24Z"></path></svg>