<svg xmlns="http://www.w3.org/2000/svg" xmlns:xlink="http://www.w3.org/1999/xlink" aria-hidden="true" role="img" class="iconify iconify--ph" width="1em" height="1em" preserveAspectRatio="xMidYMid meet" viewBox="0 0 256 256"><path fill="currentColor" d="M208 32h-24v-8a8 8 0 0 0-16 0v8H88v-8a8 8 0 0 0-16 0v8H48a16 16 0 0 0-16 16v160a16 16 0 0 0 16 16h160a16 16 0 0 0 16-16V48a16 16 0 0 0-16-16ZM104 188a24.2 24.2 0 0 1-17-7a8 8 0 0 1 0-11.3a7.9 7.9 0 0 1 11.3 0a8.3 8.3 0 0 0 5.7 2.3a8 8 0 0 0 0-16h-2.5l-.4-.2h-.3l-.5-.2h-.1l-.6-.4h-.2l-.4-.3l-.4-.3l-.2-.2l-.3-.3a8.6 8.6 0 0 1-1.3-2a5.8 5.8 0 0 1-.6-1.7c-.1-.1-.1-.2-.1-.4a.4.4 0 0 0-.1-.3v-2.4c0-.2.1-.3.1-.4v-.4a.6.6 0 0 0 .1-.4c.1-.1.1-.2.1-.4l.2-.3c0-.2 0-.3.1-.4l.2-.4v-.3l.2-.4l.2-.3l.3-.4l.2-.2l5.6-7H92a8 8 0 0 1 0-16h28a8 8 0 0 1 6.2 13l-8.8 11.1A24 24 0 0 1 104 188Zm64-8a8 8 0 0 1-16 0v-36l-3.2 2.4a8.1 8.1 0 0 1-11.2-1.6a8 8 0 0 1 1.6-11.2l16-12A8 8 0 0 1 168 128Zm40-100H48V48h24v8a8 8 0 0 0 16 0v-8h80v8a8 8 0 0 0 16 0v-8h24Z"></path></svg>