<svg xmlns="http://www.w3.org/2000/svg" xmlns:xlink="http://www.w3.org/1999/xlink" aria-hidden="true" role="img" class="iconify iconify--ph" width="1em" height="1em" preserveAspectRatio="xMidYMid meet" viewBox="0 0 256 256"><path fill="currentColor" d="M208 36h-28V24a4 4 0 0 0-8 0v12H84V24a4 4 0 0 0-8 0v12H48a12 12 0 0 0-12 12v160a12 12 0 0 0 12 12h160a12 12 0 0 0 12-12V48a12 12 0 0 0-12-12ZM48 44h28v12a4 4 0 0 0 8 0V44h88v12a4 4 0 0 0 8 0V44h28a4 4 0 0 1 4 4v36H44V48a4 4 0 0 1 4-4Zm160 168H48a4 4 0 0 1-4-4V92h168v116a4 4 0 0 1-4 4Zm-84-48a20.1 20.1 0 0 1-20 20a19.7 19.7 0 0 1-14.1-5.9a4 4 0 0 1 5.6-5.6a11.9 11.9 0 0 0 8.5 3.5a12 12 0 0 0 0-24a4.1 4.1 0 0 1-3.6-2.3a3.8 3.8 0 0 1 .5-4.2l10.8-13.5H92a4 4 0 0 1 0-8h28a4.1 4.1 0 0 1 3.6 2.3a3.8 3.8 0 0 1-.5 4.2l-11.9 14.9A19.9 19.9 0 0 1 124 164Zm40-36v52a4 4 0 0 1-8 0v-44l-9.6 7.2a4 4 0 1 1-4.8-6.4l16-12a4 4 0 0 1 4.2-.4a4.2 4.2 0 0 1 2.2 3.6Z"></path></svg>