<svg xmlns="http://www.w3.org/2000/svg" xmlns:xlink="http://www.w3.org/1999/xlink" aria-hidden="true" role="img" class="iconify iconify--ph" width="1em" height="1em" preserveAspectRatio="xMidYMid meet" viewBox="0 0 256 256"><path fill="currentColor" d="M216 48v40H40V48a8 8 0 0 1 8-8h160a8 8 0 0 1 8 8Z" opacity=".2"></path><path fill="currentColor" d="M208 32h-24v-8a8 8 0 0 0-16 0v8H88v-8a8 8 0 0 0-16 0v8H48a16 16 0 0 0-16 16v160a16 16 0 0 0 16 16h160a16 16 0 0 0 16-16V48a16 16 0 0 0-16-16ZM72 48v8a8 8 0 0 0 16 0v-8h80v8a8 8 0 0 0 16 0v-8h24v32H48V48Zm136 160H48V96h160v112Zm-38.2-85.5a8 8 0 0 1-.3 11.3l-46.7 44a7.7 7.7 0 0 1-5.5 2.2a7.9 7.9 0 0 1-5.5-2.2l-25.3-24a8 8 0 1 1 11-11.6l19.8 18.8l41.2-38.8a7.9 7.9 0 0 1 11.3.3Z"></path></svg>