<svg xmlns="http://www.w3.org/2000/svg" xmlns:xlink="http://www.w3.org/1999/xlink" aria-hidden="true" role="img" class="iconify iconify--ph" width="1em" height="1em" preserveAspectRatio="xMidYMid meet" viewBox="0 0 256 256"><path fill="currentColor" d="M208 32h-24v-8a8 8 0 0 0-16 0v8H88v-8a8 8 0 0 0-16 0v8H48a16 16 0 0 0-16 16v160a16 16 0 0 0 16 16h160a16 16 0 0 0 16-16V48a16 16 0 0 0-16-16ZM48 48h24v8a8 8 0 0 0 16 0v-8h80v8a8 8 0 0 0 16 0v-8h24v32H48Zm160 160H48V96h160v112Zm-80-44a24 24 0 0 1-41 17a8 8 0 0 1 0-11.3a7.9 7.9 0 0 1 11.3 0a8.3 8.3 0 0 0 5.7 2.3a8 8 0 0 0 0-16a8 8 0 0 1-6.2-13l5.6-7H92a8 8 0 0 1 0-16h28a8 8 0 0 1 6.2 13l-8.8 11.1A23.9 23.9 0 0 1 128 164Zm40-36v52a8 8 0 0 1-16 0v-36l-3.2 2.4a8.1 8.1 0 0 1-11.2-1.6a8 8 0 0 1 1.6-11.2l16-12A8 8 0 0 1 168 128Z"></path></svg>