<svg xmlns="http://www.w3.org/2000/svg" xmlns:xlink="http://www.w3.org/1999/xlink" aria-hidden="true" role="img" class="iconify iconify--ph" width="1em" height="1em" preserveAspectRatio="xMidYMid meet" viewBox="0 0 256 256"><path fill="currentColor" d="M208 32h-24v-8a8 8 0 0 0-16 0v8H88v-8a8 8 0 0 0-16 0v8H48a16 16 0 0 0-16 16v160a16 16 0 0 0 16 16h160a16 16 0 0 0 16-16V48a16 16 0 0 0-16-16Zm-50.3 138.3a8.1 8.1 0 0 1 0 11.4a8.5 8.5 0 0 1-5.7 2.3a8.3 8.3 0 0 1-5.7-2.3L128 163.3l-18.3 18.4a8.5 8.5 0 0 1-5.7 2.3a8.3 8.3 0 0 1-5.7-2.3a8.1 8.1 0 0 1 0-11.4l18.4-18.3l-18.4-18.3a8.1 8.1 0 0 1 11.4-11.4l18.3 18.4l18.3-18.4a8.1 8.1 0 0 1 11.4 11.4L139.3 152ZM208 80H48V48h24v8a8 8 0 0 0 16 0v-8h80v8a8 8 0 0 0 16 0v-8h24Z"></path></svg>