<svg xmlns="http://www.w3.org/2000/svg" xmlns:xlink="http://www.w3.org/1999/xlink" aria-hidden="true" role="img" class="iconify iconify--ph" width="1em" height="1em" preserveAspectRatio="xMidYMid meet" viewBox="0 0 256 256"><path fill="currentColor" d="M208 28h-20v-8a12 12 0 0 0-24 0v8H92v-8a12 12 0 0 0-24 0v8H48a20.1 20.1 0 0 0-20 20v160a20.1 20.1 0 0 0 20 20h160a20.1 20.1 0 0 0 20-20V48a20.1 20.1 0 0 0-20-20Zm-4 24v24H52V52ZM52 204V100h152v104Zm76-40a28.1 28.1 0 0 1-28 28a27.8 27.8 0 0 1-19.8-8.2a12 12 0 0 1 17-17a3.7 3.7 0 0 0 2.8 1.2a4 4 0 0 0 0-8a12 12 0 0 1-9.4-19.5l.4-.5h-3a12 12 0 0 1 0-24h28a12 12 0 0 1 9.4 19.5l-6.4 8a27.9 27.9 0 0 1 9 20.5Zm48-36v52a12 12 0 0 1-24 0v-28.7a12 12 0 0 1-11.2-20.9l16-12A12 12 0 0 1 176 128Z"></path></svg>