<svg xmlns="http://www.w3.org/2000/svg" xmlns:xlink="http://www.w3.org/1999/xlink" aria-hidden="true" role="img" class="iconify iconify--ph" width="1em" height="1em" preserveAspectRatio="xMidYMid meet" viewBox="0 0 256 256"><path fill="currentColor" d="M208 28h-20v-8a12 12 0 0 0-24 0v8H92v-8a12 12 0 0 0-24 0v8H48a20.1 20.1 0 0 0-20 20v160a20.1 20.1 0 0 0 20 20h160a20.1 20.1 0 0 0 20-20V48a20.1 20.1 0 0 0-20-20Zm-4 24v24H52V52ZM52 204V100h152v104Zm120.7-84.2a11.9 11.9 0 0 1-.5 16.9l-46.6 44a12.2 12.2 0 0 1-8.3 3.3a11.9 11.9 0 0 1-8.2-3.3l-25.4-24a12 12 0 0 1-.4-17a11.9 11.9 0 0 1 16.9-.4l17.1 16.2l38.5-36.2a11.8 11.8 0 0 1 16.9.5Z"></path></svg>