<svg xmlns="http://www.w3.org/2000/svg" xmlns:xlink="http://www.w3.org/1999/xlink" aria-hidden="true" role="img" class="iconify iconify--ph" width="1em" height="1em" preserveAspectRatio="xMidYMid meet" viewBox="0 0 256 256"><path fill="currentColor" d="M208 52h-25.6L170 33.3a12.1 12.1 0 0 0-10-5.3H96a12.1 12.1 0 0 0-10 5.3L73.6 52H48a28.1 28.1 0 0 0-28 28v112a28.1 28.1 0 0 0 28 28h160a28.1 28.1 0 0 0 28-28V80a28.1 28.1 0 0 0-28-28Zm4 140a4 4 0 0 1-4 4H48a4 4 0 0 1-4-4V80a4 4 0 0 1 4-4h32a12.1 12.1 0 0 0 10-5.3L102.4 52h51.2L166 70.7a12.1 12.1 0 0 0 10 5.3h32a4 4 0 0 1 4 4ZM128 84a48 48 0 1 0 48 48a48 48 0 0 0-48-48Zm0 72a24 24 0 1 1 24-24a24.1 24.1 0 0 1-24 24Z"></path></svg>