<svg xmlns="http://www.w3.org/2000/svg" xmlns:xlink="http://www.w3.org/1999/xlink" aria-hidden="true" role="img" class="iconify iconify--ph" width="1em" height="1em" preserveAspectRatio="xMidYMid meet" viewBox="0 0 256 256"><path fill="currentColor" d="M208 60h-29.9l-14.8-22.2A4 4 0 0 0 160 36H96a4 4 0 0 0-3.3 1.8L77.9 60H48a20.1 20.1 0 0 0-20 20v112a20.1 20.1 0 0 0 20 20h160a20.1 20.1 0 0 0 20-20V80a20.1 20.1 0 0 0-20-20Zm12 132a12 12 0 0 1-12 12H48a12 12 0 0 1-12-12V80a12 12 0 0 1 12-12h32a4 4 0 0 0 3.3-1.8L98.1 44h59.8l14.8 22.2A4 4 0 0 0 176 68h32a12 12 0 0 1 12 12Zm-60.9-34.5a3.9 3.9 0 0 1 0 5.6a43.9 43.9 0 0 1-62.2 0l-10.3-10.6l-2.7 16.2A4 4 0 0 1 80 172h-.7a3.9 3.9 0 0 1-3.2-4.6l4-24a3.8 3.8 0 0 1 3.2-3.2l24-4a4 4 0 0 1 1.4 7.8l-16.5 2.8l10.4 10.8A35.4 35.4 0 0 0 128 168a35.9 35.9 0 0 0 25.5-10.5a3.9 3.9 0 0 1 5.6 0Zm20.8-60.8l-4 24a3.8 3.8 0 0 1-3.2 3.2l-24 4h-.7a4 4 0 0 1-3.9-3.3a3.9 3.9 0 0 1 3.2-4.6l16.5-2.8l-10.4-10.8A35.4 35.4 0 0 0 128 96a35.9 35.9 0 0 0-25.5 10.5a4 4 0 0 1-5.6-5.6a43.9 43.9 0 0 1 62.2 0l10.3 10.6l2.7-16.2a4 4 0 0 1 7.8 1.4Z"></path></svg>