<svg xmlns="http://www.w3.org/2000/svg" xmlns:xlink="http://www.w3.org/1999/xlink" aria-hidden="true" role="img" class="iconify iconify--ph" width="1em" height="1em" preserveAspectRatio="xMidYMid meet" viewBox="0 0 256 256"><path fill="currentColor" d="M42.3 15.9a12 12 0 1 0-17.7 16.2l18.5 20.3A28.1 28.1 0 0 0 20 80v112a28.1 28.1 0 0 0 28 28h147.4l18.3 20.1a11.8 11.8 0 0 0 8.8 3.9a12 12 0 0 0 8.9-20.1Zm63.9 106l29.8 32.7a23.6 23.6 0 0 1-8 1.4a24.1 24.1 0 0 1-24-24a24.4 24.4 0 0 1 2.2-10.1ZM48 196a4 4 0 0 1-4-4V80a4 4 0 0 1 4-4h16.5l24.9 27.4A48.1 48.1 0 0 0 128 180a49 49 0 0 0 24.8-6.9l20.8 22.9ZM236 80v94.1a12 12 0 1 1-24 0V80a4 4 0 0 0-4-4h-32a11.9 11.9 0 0 1-10-5.4L153.6 52h-51.5a12 12 0 0 1 0-24H160a12.1 12.1 0 0 1 10 5.3L182.4 52H208a28.1 28.1 0 0 1 28 28Z"></path></svg>