<svg xmlns="http://www.w3.org/2000/svg" xmlns:xlink="http://www.w3.org/1999/xlink" aria-hidden="true" role="img" class="iconify iconify--ph" width="1em" height="1em" preserveAspectRatio="xMidYMid meet" viewBox="0 0 256 256"><path fill="currentColor" d="M208 64h-32l-16-24H96L80 64H48a16 16 0 0 0-16 16v112a16 16 0 0 0 16 16h160a16 16 0 0 0 16-16V80a16 16 0 0 0-16-16Zm-80 104a36 36 0 1 1 36-36a36 36 0 0 1-36 36Z" opacity=".2"></path><path fill="currentColor" d="M39.4 18.6a7.9 7.9 0 0 0-11.3-.5a8 8 0 0 0-.6 11.3L51.7 56H48a24.1 24.1 0 0 0-24 24v112a24.1 24.1 0 0 0 24 24h149.2l19.4 21.4a8.2 8.2 0 0 0 5.9 2.6a7.8 7.8 0 0 0 5.4-2.1a8 8 0 0 0 .6-11.3Zm66.2 96.6l37 40.7A27.8 27.8 0 0 1 128 160a28 28 0 0 1-22.4-44.8ZM48 200a8 8 0 0 1-8-8V80a8 8 0 0 1 8-8h18.3l28.4 31.2a44 44 0 0 0 58.7 64.7l29.2 32.1ZM208 56h-27.7l-13.7-20.4A7.6 7.6 0 0 0 160 32H96a7.9 7.9 0 0 0-6.7 3.6l-2 3a8.1 8.1 0 0 0 2.2 11.1a8 8 0 0 0 10.7-1.7h55.5l13.6 20.4A7.9 7.9 0 0 0 176 72h32a8 8 0 0 1 8 8v106a8 8 0 0 0 16 0V80a24.1 24.1 0 0 0-24-24Z"></path></svg>