<svg xmlns="http://www.w3.org/2000/svg" xmlns:xlink="http://www.w3.org/1999/xlink" aria-hidden="true" role="img" class="iconify iconify--ph" width="1em" height="1em" preserveAspectRatio="xMidYMid meet" viewBox="0 0 256 256"><path fill="currentColor" d="M37.9 20a5.9 5.9 0 0 0-8.5-.4A6 6 0 0 0 29 28l27.3 30H48a22.1 22.1 0 0 0-22 22v112a22.1 22.1 0 0 0 22 22h150.1l20 22a6 6 0 0 0 4.4 2a5.9 5.9 0 0 0 4.1-1.6a6 6 0 0 0 .4-8.4Zm67.6 92.2l40.1 44.1a30 30 0 0 1-40.1-44.1ZM48 202a10 10 0 0 1-10-10V80a10 10 0 0 1 10-10h19.2l30.2 33.2A42 42 0 0 0 128 174a41.4 41.4 0 0 0 25.7-8.8l33.5 36.8ZM230 80v106a6 6 0 0 1-12 0V80a10 10 0 0 0-10-10h-32a6 6 0 0 1-5-2.7L156.8 46H99.2l-.2.3a6 6 0 1 1-10-6.6l2-3a6 6 0 0 1 5-2.7h64a6 6 0 0 1 5 2.7L179.2 58H208a22.1 22.1 0 0 1 22 22Z"></path></svg>