<svg xmlns="http://www.w3.org/2000/svg" xmlns:xlink="http://www.w3.org/1999/xlink" aria-hidden="true" role="img" class="iconify iconify--ph" width="1em" height="1em" preserveAspectRatio="xMidYMid meet" viewBox="0 0 256 256"><path fill="currentColor" d="M208 52h-25.6L170 33.3a12.1 12.1 0 0 0-10-5.3H96a12.1 12.1 0 0 0-10 5.3L73.6 52H48a28.1 28.1 0 0 0-28 28v112a28.1 28.1 0 0 0 28 28h160a28.1 28.1 0 0 0 28-28V80a28.1 28.1 0 0 0-28-28Zm4 140a4 4 0 0 1-4 4H48a4 4 0 0 1-4-4V80a4 4 0 0 1 4-4h32a12.1 12.1 0 0 0 10-5.3L102.4 52h51.2L166 70.7a12.1 12.1 0 0 0 10 5.3h32a4 4 0 0 1 4 4Zm-47.2-40.2a12 12 0 0 1 0 17a52 52 0 0 1-72.9.6v.6A11.9 11.9 0 0 1 80 180l-2-.2a11.9 11.9 0 0 1-9.8-13.8l4-24a11.9 11.9 0 0 1 9.8-9.8l24-4a12 12 0 0 1 4 23.6l-1.5.3a28 28 0 0 0 39.3-.3a12 12 0 0 1 17 0Zm23-53.8l-4 24a11.9 11.9 0 0 1-9.8 9.8l-24 4l-2 .2a12 12 0 0 1-2-23.8l1.5-.3a28 28 0 0 0-39.3.3a12 12 0 0 1-17-17a52 52 0 0 1 72.9-.6V94a12 12 0 0 1 23.6 4Z"></path></svg>