<svg xmlns="http://www.w3.org/2000/svg" xmlns:xlink="http://www.w3.org/1999/xlink" aria-hidden="true" role="img" class="iconify iconify--ph" width="1em" height="1em" preserveAspectRatio="xMidYMid meet" viewBox="0 0 256 256"><path fill="currentColor" d="M208 58h-28.8L165 36.7a6 6 0 0 0-5-2.7H96a6 6 0 0 0-5 2.7L76.8 58H48a22.1 22.1 0 0 0-22 22v112a22.1 22.1 0 0 0 22 22h160a22.1 22.1 0 0 0 22-22V80a22.1 22.1 0 0 0-22-22Zm10 134a10 10 0 0 1-10 10H48a10 10 0 0 1-10-10V80a10 10 0 0 1 10-10h32a6 6 0 0 0 5-2.7L99.2 46h57.6L171 67.3a6 6 0 0 0 5 2.7h32a10 10 0 0 1 10 10Zm-57.5-36a5.9 5.9 0 0 1 0 8.5a45.9 45.9 0 0 1-65 0h-.1l-7.4-7.8l-2.1 12.3a6 6 0 0 1-5.9 5h-1a5.9 5.9 0 0 1-4.9-6.9l4-24a5.9 5.9 0 0 1 4.9-4.9l24-4a6 6 0 0 1 2 11.8l-12.8 2l7.8 8.1a33.9 33.9 0 0 0 48-.1a6.1 6.1 0 0 1 8.5 0Zm21.4-59l-4 24a5.9 5.9 0 0 1-4.9 4.9l-24 4h-1a6 6 0 0 1-5.9-5a5.9 5.9 0 0 1 4.9-6.9l12.8-2.1l-7.8-8.1a33.9 33.9 0 0 0-48 .1a6.1 6.1 0 0 1-8.5 0a5.9 5.9 0 0 1 0-8.5a45.9 45.9 0 0 1 65 0h.1l7.4 7.8l2.1-12.2a6 6 0 0 1 11.8 2Z"></path></svg>