<svg xmlns="http://www.w3.org/2000/svg" xmlns:xlink="http://www.w3.org/1999/xlink" aria-hidden="true" role="img" class="iconify iconify--ph" width="1em" height="1em" preserveAspectRatio="xMidYMid meet" viewBox="0 0 256 256"><path fill="currentColor" d="M36.4 21.3a4 4 0 1 0-5.9 5.4L60.8 60H48a20.1 20.1 0 0 0-20 20v112a20.1 20.1 0 0 0 20 20h151l20.6 22.7a3.9 3.9 0 0 0 2.9 1.3a4.3 4.3 0 0 0 2.7-1a4 4 0 0 0 .3-5.7Zm112.1 135.2A31.2 31.2 0 0 1 128 164a32.1 32.1 0 0 1-32-32a31.7 31.7 0 0 1 9.5-22.8ZM48 204a12 12 0 0 1-12-12V80a12 12 0 0 1 12-12h20l32.1 35.3a40 40 0 0 0 53.8 59.2l37.8 41.5ZM228 80v106a4 4 0 0 1-8 0V80a12 12 0 0 0-12-12h-32a4 4 0 0 1-3.3-1.8L157.9 44H98.1l-.8 1.2a4 4 0 0 1-6.6-4.4l2-3A4 4 0 0 1 96 36h64a4 4 0 0 1 3.3 1.8L178.1 60H208a20.1 20.1 0 0 1 20 20Z"></path></svg>