<svg xmlns="http://www.w3.org/2000/svg" xmlns:xlink="http://www.w3.org/1999/xlink" aria-hidden="true" role="img" class="iconify iconify--ph" width="1em" height="1em" preserveAspectRatio="xMidYMid meet" viewBox="0 0 256 256"><path fill="currentColor" d="M208 60h-29.9l-14.8-22.2A4 4 0 0 0 160 36H96a4 4 0 0 0-3.3 1.8L77.9 60H48a20.1 20.1 0 0 0-20 20v112a20.1 20.1 0 0 0 20 20h160a20.1 20.1 0 0 0 20-20V80a20.1 20.1 0 0 0-20-20Zm12 132a12 12 0 0 1-12 12H48a12 12 0 0 1-12-12V80a12 12 0 0 1 12-12h32a4 4 0 0 0 3.3-1.8L98.1 44h59.8l14.8 22.2A4 4 0 0 0 176 68h32a12 12 0 0 1 12 12ZM128 92a40 40 0 1 0 40 40a40 40 0 0 0-40-40Zm0 72a32 32 0 1 1 32-32a32.1 32.1 0 0 1-32 32Z"></path></svg>