<svg xmlns="http://www.w3.org/2000/svg" xmlns:xlink="http://www.w3.org/1999/xlink" aria-hidden="true" role="img" class="iconify iconify--ph" width="1em" height="1em" preserveAspectRatio="xMidYMid meet" viewBox="0 0 256 256"><path fill="currentColor" d="M208 56h-27.7l-13.6-20.4A7.9 7.9 0 0 0 160 32H96a7.9 7.9 0 0 0-6.7 3.6L75.7 56H48a24.1 24.1 0 0 0-24 24v112a24.1 24.1 0 0 0 24 24h160a24.1 24.1 0 0 0 24-24V80a24.1 24.1 0 0 0-24-24Zm-46.1 109.9a47.8 47.8 0 0 1-67.8 0H94l-4.7-4.9l-1.4 8.3A8.1 8.1 0 0 1 80 176h-1.3a8 8 0 0 1-6.6-9.2l4-24a8.1 8.1 0 0 1 6.6-6.6l24-4a8 8 0 1 1 2.6 15.8l-9 1.5l5.1 5.3A32 32 0 0 0 128 164a31.5 31.5 0 0 0 22.6-9.4a8 8 0 0 1 11.3 0a7.9 7.9 0 0 1 0 11.3Zm22-68.6l-4 24a8.1 8.1 0 0 1-6.6 6.6l-24 4H148a8.1 8.1 0 0 1-7.9-6.7a8 8 0 0 1 6.6-9.2l9-1.5l-5.1-5.3A32 32 0 0 0 128 100a31.5 31.5 0 0 0-22.6 9.4a8 8 0 0 1-11.3 0a7.9 7.9 0 0 1 0-11.3a47.8 47.8 0 0 1 67.8 0c.1 0 .1 0 .1.1l4.7 4.8l1.4-8.3a8 8 0 0 1 15.8 2.6Z"></path></svg>