<svg xmlns="http://www.w3.org/2000/svg" xmlns:xlink="http://www.w3.org/1999/xlink" aria-hidden="true" role="img" class="iconify iconify--ph" width="1em" height="1em" preserveAspectRatio="xMidYMid meet" viewBox="0 0 256 256"><path fill="currentColor" d="M223.6 226.4a8 8 0 0 1-7.6 5.6a6.7 6.7 0 0 1-2.4-.4L128 204.4l-85.6 27.2a6.7 6.7 0 0 1-2.4.4a8 8 0 0 1-7.6-5.6a7.9 7.9 0 0 1 5.2-10l64-20.4l-64-20.4a8 8 0 1 1 4.8-15.2l85.6 27.2l85.6-27.2a8 8 0 1 1 4.8 15.2l-64 20.4l64 20.4a7.9 7.9 0 0 1 5.2 10ZM68 108c0-20.1 9.8-40.9 28.2-60a153.5 153.5 0 0 1 27.6-22.8a7.9 7.9 0 0 1 8.4 0c2.3 1.4 55.8 34.9 55.8 82.8a60 60 0 0 1-120 0Zm60 44a16 16 0 0 0 16-16c0-13.6-10-24.5-16-29.8c-6 5.3-16 16.2-16 29.8a16 16 0 0 0 16 16Zm-44-44a43.5 43.5 0 0 0 12.1 30.2a15.5 15.5 0 0 1-.1-2.2c0-28 26.4-45.9 27.6-46.7a8.2 8.2 0 0 1 8.8 0c1.2.8 27.6 18.7 27.6 46.7a15.5 15.5 0 0 1-.1 2.2A43.5 43.5 0 0 0 172 108c0-32-32.3-58-44-66.3C116.3 50 84 76 84 108Z"></path></svg>