<svg xmlns="http://www.w3.org/2000/svg" xmlns:xlink="http://www.w3.org/1999/xlink" aria-hidden="true" role="img" class="iconify iconify--ph" width="1em" height="1em" preserveAspectRatio="xMidYMid meet" viewBox="0 0 256 256"><path fill="currentColor" d="M132.2 25.2a7.9 7.9 0 0 0-8.4 0A153.5 153.5 0 0 0 96.2 48C77.8 67.1 68 87.9 68 108a60 60 0 0 0 120 0c0-47.9-53.5-81.4-55.8-82.8ZM128 152a23.9 23.9 0 0 1-24-24c0-24 24-40 24-40s24 16 24 40a23.9 23.9 0 0 1-24 24Zm95.6 74.4a8 8 0 0 1-7.6 5.6a6.7 6.7 0 0 1-2.4-.4L128 204.4l-85.6 27.2a6.7 6.7 0 0 1-2.4.4a8 8 0 0 1-7.6-5.6a7.9 7.9 0 0 1 5.2-10l64-20.4l-64-20.4a8 8 0 1 1 4.8-15.2l85.6 27.2l85.6-27.2a8 8 0 1 1 4.8 15.2l-64 20.4l64 20.4a7.9 7.9 0 0 1 5.2 10Z"></path></svg>