<svg xmlns="http://www.w3.org/2000/svg" xmlns:xlink="http://www.w3.org/1999/xlink" aria-hidden="true" role="img" class="iconify iconify--ph" width="1em" height="1em" preserveAspectRatio="xMidYMid meet" viewBox="0 0 256 256"><path fill="currentColor" d="M240 114h-12.1l-28.3-63.7a14.2 14.2 0 0 0-12.8-8.3H69.2a14.2 14.2 0 0 0-12.8 8.3L28.1 114H16a6 6 0 0 0 0 12h10v82a14 14 0 0 0 14 14h24a14 14 0 0 0 14-14v-18h100v18a14 14 0 0 0 14 14h24a14 14 0 0 0 14-14v-82h10a6 6 0 0 0 0-12ZM67.4 55.2a2 2 0 0 1 1.8-1.2h117.6a2 2 0 0 1 1.8 1.2l26.2 58.8H41.2ZM66 208a2 2 0 0 1-2 2H40a2 2 0 0 1-2-2v-18h28Zm150 2h-24a2 2 0 0 1-2-2v-18h28v18a2 2 0 0 1-2 2Zm2-32H38v-52h180ZM58 152a6 6 0 0 1 6-6h16a6 6 0 0 1 0 12H64a6 6 0 0 1-6-6Zm112 0a6 6 0 0 1 6-6h16a6 6 0 0 1 0 12h-16a6 6 0 0 1-6-6Z"></path></svg>