<svg xmlns="http://www.w3.org/2000/svg" xmlns:xlink="http://www.w3.org/1999/xlink" aria-hidden="true" role="img" class="iconify iconify--ph" width="1em" height="1em" preserveAspectRatio="xMidYMid meet" viewBox="0 0 256 256"><path fill="currentColor" d="M240 116h-13.4l-28.8-64.9a12.2 12.2 0 0 0-11-7.1H69.2a12.2 12.2 0 0 0-11 7.1L29.4 116H16a4 4 0 0 0 0 8h12v84a12 12 0 0 0 12 12h24a12 12 0 0 0 12-12v-20h104v20a12 12 0 0 0 12 12h24a12 12 0 0 0 12-12v-84h12a4 4 0 0 0 0-8ZM65.5 54.4a4 4 0 0 1 3.7-2.4h117.6a4 4 0 0 1 3.7 2.4l27.3 61.6H38.2ZM220 208a4 4 0 0 1-4 4h-24a4 4 0 0 1-4-4v-24a4 4 0 0 0-4-4H72a4 4 0 0 0-4 4v24a4 4 0 0 1-4 4H40a4 4 0 0 1-4-4v-84h184Z"></path></svg>