<svg xmlns="http://www.w3.org/2000/svg" xmlns:xlink="http://www.w3.org/1999/xlink" aria-hidden="true" role="img" class="iconify iconify--ph" width="1em" height="1em" preserveAspectRatio="xMidYMid meet" viewBox="0 0 256 256"><path fill="currentColor" d="M240 112h-10.8l-27.8-62.5a15.9 15.9 0 0 0-14.6-9.5H69.2a15.9 15.9 0 0 0-14.6 9.5L26.8 112H16a8 8 0 0 0 0 16h8v80a16 16 0 0 0 16 16h24a16 16 0 0 0 16-16v-16h96v16a16 16 0 0 0 16 16h24a16 16 0 0 0 16-16v-80h8a8 8 0 0 0 0-16ZM69.2 56h117.6l24.9 56H44.3ZM64 208H40v-16h24Zm128 0v-16h24v16Zm24-32H40v-48h176ZM56 152a8 8 0 0 1 8-8h16a8 8 0 0 1 0 16H64a8 8 0 0 1-8-8Zm112 0a8 8 0 0 1 8-8h16a8 8 0 0 1 0 16h-16a8 8 0 0 1-8-8Z"></path></svg>