<svg xmlns="http://www.w3.org/2000/svg" xmlns:xlink="http://www.w3.org/1999/xlink" aria-hidden="true" role="img" class="iconify iconify--ph" width="1em" height="1em" preserveAspectRatio="xMidYMid meet" viewBox="0 0 256 256"><rect width="160" height="128" x="32" y="80" fill="currentColor" opacity=".2" rx="8"></rect><path fill="currentColor" d="M184 72H40a16 16 0 0 0-16 16v112a16 16 0 0 0 16 16h144a16 16 0 0 0 16-16V88a16 16 0 0 0-16-16Zm0 128H40V88h144v112Z"></path><path fill="currentColor" d="M216 40H64a8 8 0 0 0 0 16h152v120a8 8 0 0 0 16 0V56a16 16 0 0 0-16-16Z"></path></svg>