<svg xmlns="http://www.w3.org/2000/svg" xmlns:xlink="http://www.w3.org/1999/xlink" aria-hidden="true" role="img" class="iconify iconify--ph" width="1em" height="1em" preserveAspectRatio="xMidYMid meet" viewBox="0 0 256 256"><path fill="currentColor" d="M208 44H48a28.1 28.1 0 0 0-28 28v112a28.1 28.1 0 0 0 28 28h160a28.1 28.1 0 0 0 28-28V72a28.1 28.1 0 0 0-28-28ZM48 68h160a4 4 0 0 1 4 4v16h-44.8a20 20 0 0 0-19.6 16a20 20 0 0 1-39.2 0a20 20 0 0 0-19.6-16H44V72a4 4 0 0 1 4-4Zm160 120H48a4 4 0 0 1-4-4v-72h41.7a44 44 0 0 0 84.6 0H212v72a4 4 0 0 1-4 4Z"></path></svg>