<svg xmlns="http://www.w3.org/2000/svg" xmlns:xlink="http://www.w3.org/1999/xlink" aria-hidden="true" role="img" class="iconify iconify--ph" width="1em" height="1em" preserveAspectRatio="xMidYMid meet" viewBox="0 0 256 256"><path fill="currentColor" d="M208 48H48a24.1 24.1 0 0 0-24 24v112a24.1 24.1 0 0 0 24 24h160a24.1 24.1 0 0 0 24-24V72a24.1 24.1 0 0 0-24-24Zm8 64h-48.8a16.1 16.1 0 0 0-15.7 12.8a24 24 0 0 1-47 0A16.1 16.1 0 0 0 88.8 112H40V96h176Zm0-32H40v-8a8 8 0 0 1 8-8h160a8 8 0 0 1 8 8Z"></path></svg>