<svg xmlns="http://www.w3.org/2000/svg" xmlns:xlink="http://www.w3.org/1999/xlink" aria-hidden="true" role="img" class="iconify iconify--ph" width="1em" height="1em" preserveAspectRatio="xMidYMid meet" viewBox="0 0 256 256"><path fill="currentColor" d="M208 50H48a22.1 22.1 0 0 0-22 22v112a22.1 22.1 0 0 0 22 22h160a22.1 22.1 0 0 0 22-22V72a22.1 22.1 0 0 0-22-22ZM38 94h180v20h-50.8a14 14 0 0 0-13.7 11.2a26 26 0 0 1-51 0A14 14 0 0 0 88.8 114H38Zm10-32h160a10 10 0 0 1 10 10v10H38V72a10 10 0 0 1 10-10Zm160 132H48a10 10 0 0 1-10-10v-58h50.8a2 2 0 0 1 2 1.6a38 38 0 0 0 74.4 0a2 2 0 0 1 2-1.6H218v58a10 10 0 0 1-10 10Z"></path></svg>