<svg xmlns="http://www.w3.org/2000/svg" xmlns:xlink="http://www.w3.org/1999/xlink" aria-hidden="true" role="img" class="iconify iconify--ph" width="1em" height="1em" preserveAspectRatio="xMidYMid meet" viewBox="0 0 256 256"><path fill="currentColor" d="M208 52H48a20.1 20.1 0 0 0-20 20v112a20.1 20.1 0 0 0 20 20h160a20.1 20.1 0 0 0 20-20V72a20.1 20.1 0 0 0-20-20ZM36 92h184v24h-52.8a12.1 12.1 0 0 0-11.8 9.6a28 28 0 0 1-54.8 0a12.1 12.1 0 0 0-11.8-9.6H36Zm12-32h160a12 12 0 0 1 12 12v12H36V72a12 12 0 0 1 12-12Zm160 136H48a12 12 0 0 1-12-12v-60h52.8a4 4 0 0 1 3.9 3.2a36 36 0 0 0 70.6 0a4 4 0 0 1 3.9-3.2H220v60a12 12 0 0 1-12 12Z"></path></svg>