<svg xmlns="http://www.w3.org/2000/svg" xmlns:xlink="http://www.w3.org/1999/xlink" aria-hidden="true" role="img" class="iconify iconify--ph" width="1em" height="1em" preserveAspectRatio="xMidYMid meet" viewBox="0 0 256 256"><path fill="currentColor" d="m141.7 133.7l-80 80a8.2 8.2 0 0 1-11.4 0a8.1 8.1 0 0 1 0-11.4l74.4-74.3l-74.4-74.3a8.1 8.1 0 0 1 11.4-11.4l80 80a8.1 8.1 0 0 1 0 11.4Zm80-11.4l-80-80a8.1 8.1 0 0 0-11.4 11.4l74.4 74.3l-74.4 74.3a8.1 8.1 0 0 0 0 11.4a8.2 8.2 0 0 0 11.4 0l80-80a8.1 8.1 0 0 0 0-11.4Z"></path></svg>