<svg xmlns="http://www.w3.org/2000/svg" xmlns:xlink="http://www.w3.org/1999/xlink" aria-hidden="true" role="img" class="iconify iconify--ph" width="1em" height="1em" preserveAspectRatio="xMidYMid meet" viewBox="0 0 256 256"><path fill="currentColor" d="M200.1 55.9A102 102 0 1 0 55.9 200.1A102 102 0 1 0 200.1 55.9Zm-8.5 135.7a90 90 0 1 1 0-127.2a90 90 0 0 1 0 127.2Zm-67.4-67.8a5.8 5.8 0 0 1 0 8.4l-32 32a5.9 5.9 0 0 1-8.4-8.4l27.7-27.8l-27.7-27.8a5.9 5.9 0 0 1 8.4-8.4Zm56 0a5.8 5.8 0 0 1 0 8.4l-32 32a5.9 5.9 0 0 1-8.4-8.4l27.7-27.8l-27.7-27.8a5.9 5.9 0 0 1 8.4-8.4Z"></path></svg>