<svg xmlns="http://www.w3.org/2000/svg" xmlns:xlink="http://www.w3.org/1999/xlink" aria-hidden="true" role="img" class="iconify iconify--ph" width="1em" height="1em" preserveAspectRatio="xMidYMid meet" viewBox="0 0 256 256"><path fill="currentColor" d="m200 208l-80-80l80-80v160z" opacity=".2"></path><path fill="currentColor" d="M203.1 40.6a8.4 8.4 0 0 0-8.8 1.7l-80 80a8.1 8.1 0 0 0 0 11.4l80 80a8.3 8.3 0 0 0 5.7 2.3a8.5 8.5 0 0 0 3.1-.6a8 8 0 0 0 4.9-7.4V48a8 8 0 0 0-4.9-7.4ZM192 188.7L131.3 128L192 67.3Z"></path><path fill="currentColor" d="m51.3 128l74.4-74.3a8.1 8.1 0 0 0-11.4-11.4l-80 80a8.1 8.1 0 0 0 0 11.4l80 80a8.2 8.2 0 0 0 11.4 0a8.1 8.1 0 0 0 0-11.4Z"></path></svg>