<svg xmlns="http://www.w3.org/2000/svg" xmlns:xlink="http://www.w3.org/1999/xlink" aria-hidden="true" role="img" class="iconify iconify--ph" width="1em" height="1em" preserveAspectRatio="xMidYMid meet" viewBox="0 0 256 256"><circle cx="128" cy="128" r="96" fill="currentColor" opacity=".2"></circle><path fill="currentColor" d="M128 24a104 104 0 1 0 104 104A104.2 104.2 0 0 0 128 24Zm0 192a88 88 0 1 1 88-88a88.1 88.1 0 0 1-88 88Z"></path><path fill="currentColor" d="M149.9 86.6a8 8 0 0 0-11.3-.5l-40 36a8 8 0 0 0 0 11.8l40 36a8.2 8.2 0 0 0 5.4 2.1a7.9 7.9 0 0 0 5.9-2.6a8 8 0 0 0-.5-11.3L116 128l33.4-30.1a8 8 0 0 0 .5-11.3Z"></path></svg>