<svg xmlns="http://www.w3.org/2000/svg" xmlns:xlink="http://www.w3.org/1999/xlink" aria-hidden="true" role="img" class="iconify iconify--ph" width="1em" height="1em" preserveAspectRatio="xMidYMid meet" viewBox="0 0 256 256"><circle cx="128" cy="128" r="96" fill="currentColor" opacity=".2"></circle><path fill="currentColor" d="M201.5 54.5a103.8 103.8 0 0 0-147 0a103.8 103.8 0 0 0 0 147a103.8 103.8 0 0 0 147 0a103.8 103.8 0 0 0 0-147Zm-11.3 135.7a88 88 0 1 1 0-124.4a88.1 88.1 0 0 1 0 124.4Z"></path><path fill="currentColor" d="M173.7 90.3a8.1 8.1 0 0 0-11.4 0l-32 32a8.1 8.1 0 0 0 0 11.4l32 32a8.2 8.2 0 0 0 11.4 0a8.1 8.1 0 0 0 0-11.4L147.3 128l26.4-26.3a8.1 8.1 0 0 0 0-11.4Zm-56 0a8.1 8.1 0 0 0-11.4 0l-32 32a8.1 8.1 0 0 0 0 11.4l32 32a8.2 8.2 0 0 0 11.4 0a8.1 8.1 0 0 0 0-11.4L91.3 128l26.4-26.3a8.1 8.1 0 0 0 0-11.4Z"></path></svg>