<svg xmlns="http://www.w3.org/2000/svg" xmlns:xlink="http://www.w3.org/1999/xlink" aria-hidden="true" role="img" class="iconify iconify--ph" width="1em" height="1em" preserveAspectRatio="xMidYMid meet" viewBox="0 0 256 256"><path fill="currentColor" d="m160 208l-80-80l80-80v160z" opacity=".2"></path><path fill="currentColor" d="M160 216a8.3 8.3 0 0 1-5.7-2.3l-80-80a8.1 8.1 0 0 1 0-11.4l80-80a8.4 8.4 0 0 1 8.8-1.7A8 8 0 0 1 168 48v160a8 8 0 0 1-4.9 7.4a8.5 8.5 0 0 1-3.1.6Zm-68.7-88l60.7 60.7V67.3Z"></path></svg>