<svg xmlns="http://www.w3.org/2000/svg" xmlns:xlink="http://www.w3.org/1999/xlink" aria-hidden="true" role="img" class="iconify iconify--ph" width="1em" height="1em" preserveAspectRatio="xMidYMid meet" viewBox="0 0 256 256"><path fill="currentColor" d="m48 208l80-80l80 80H48z" opacity=".2"></path><path fill="currentColor" d="M133.7 122.3a8.1 8.1 0 0 0-11.4 0l-80 80a8.4 8.4 0 0 0-1.7 8.8A8 8 0 0 0 48 216h160a8 8 0 0 0 7.4-4.9a8.4 8.4 0 0 0-1.7-8.8ZM67.3 200l60.7-60.7l60.7 60.7Z"></path><path fill="currentColor" d="M53.7 133.7L128 59.3l74.3 74.4a8.2 8.2 0 0 0 11.4 0a8.1 8.1 0 0 0 0-11.4l-80-80a8.1 8.1 0 0 0-11.4 0l-80 80a8.1 8.1 0 1 0 11.4 11.4Z"></path></svg>