<svg xmlns="http://www.w3.org/2000/svg" xmlns:xlink="http://www.w3.org/1999/xlink" aria-hidden="true" role="img" class="iconify iconify--ph" width="1em" height="1em" preserveAspectRatio="xMidYMid meet" viewBox="0 0 256 256"><path fill="currentColor" d="m208 48l-80 80l-80-80h160z" opacity=".2"></path><path fill="currentColor" d="M213.7 122.3a8.1 8.1 0 0 0-11.4 0L128 196.7l-74.3-74.4a8.1 8.1 0 0 0-11.4 11.4l80 80a8.2 8.2 0 0 0 11.4 0l80-80a8.1 8.1 0 0 0 0-11.4Z"></path><path fill="currentColor" d="M122.3 133.7a8.2 8.2 0 0 0 11.4 0l80-80a8.4 8.4 0 0 0 1.7-8.8A8 8 0 0 0 208 40H48a8 8 0 0 0-7.4 4.9a8.4 8.4 0 0 0 1.7 8.8ZM188.7 56L128 116.7L67.3 56Z"></path></svg>