<svg xmlns="http://www.w3.org/2000/svg" xmlns:xlink="http://www.w3.org/1999/xlink" aria-hidden="true" role="img" class="iconify iconify--ph" width="1em" height="1em" preserveAspectRatio="xMidYMid meet" viewBox="0 0 256 256"><path fill="currentColor" d="M201.5 54.5a103.9 103.9 0 0 0-147 147a103.9 103.9 0 0 0 147-147Zm-11.3 135.7a88 88 0 1 1 0-124.4a87.5 87.5 0 0 1 0 124.4Zm-20.3-51.6a8 8 0 0 1-.5 11.3a8.2 8.2 0 0 1-5.4 2.1a7.9 7.9 0 0 1-5.9-2.6L128 116l-30.1 33.4a8 8 0 0 1-11.8-10.8l36-40a8 8 0 0 1 11.8 0Z"></path></svg>