<svg xmlns="http://www.w3.org/2000/svg" xmlns:xlink="http://www.w3.org/1999/xlink" aria-hidden="true" role="img" class="iconify iconify--ph" width="1em" height="1em" preserveAspectRatio="xMidYMid meet" viewBox="0 0 256 256"><path fill="currentColor" d="M128 20a108 108 0 1 0 108 108A108.1 108.1 0 0 0 128 20Zm0 192a84 84 0 1 1 84-84a84.1 84.1 0 0 1-84 84Zm24-111.1L121.9 128l30.1 27.1a11.8 11.8 0 0 1 .9 16.9a11.9 11.9 0 0 1-16.9.9l-40-36a11.9 11.9 0 0 1 0-17.8l40-36a12 12 0 0 1 16 17.8Z"></path></svg>