<svg xmlns="http://www.w3.org/2000/svg" xmlns:xlink="http://www.w3.org/1999/xlink" aria-hidden="true" role="img" class="iconify iconify--ph" width="1em" height="1em" preserveAspectRatio="xMidYMid meet" viewBox="0 0 256 256"><path fill="currentColor" d="m96 48l80 80l-80 80V48z" opacity=".2"></path><path fill="currentColor" d="M96 216a8.5 8.5 0 0 1-3.1-.6A8 8 0 0 1 88 208V48a8 8 0 0 1 4.9-7.4a8.4 8.4 0 0 1 8.8 1.7l80 80a8.1 8.1 0 0 1 0 11.4l-80 80A8.3 8.3 0 0 1 96 216Zm8-148.7v121.4l60.7-60.7Z"></path></svg>