<svg xmlns="http://www.w3.org/2000/svg" xmlns:xlink="http://www.w3.org/1999/xlink" aria-hidden="true" role="img" class="iconify iconify--ph" width="1em" height="1em" preserveAspectRatio="xMidYMid meet" viewBox="0 0 256 256"><path fill="currentColor" d="M210.8 205.2a3.9 3.9 0 0 1 0 5.6a3.9 3.9 0 0 1-5.6 0L128 133.7l-77.2 77.1a4 4 0 0 1-5.6-5.6l80-80a3.9 3.9 0 0 1 5.6 0Zm-160-74.4L128 53.7l77.2 77.1a3.9 3.9 0 0 0 5.6 0a3.9 3.9 0 0 0 0-5.6l-80-80a3.9 3.9 0 0 0-5.6 0l-80 80a4 4 0 0 0 5.6 5.6Z"></path></svg>