<svg xmlns="http://www.w3.org/2000/svg" xmlns:xlink="http://www.w3.org/1999/xlink" aria-hidden="true" role="img" class="iconify iconify--ph" width="1em" height="1em" preserveAspectRatio="xMidYMid meet" viewBox="0 0 256 256"><path fill="currentColor" d="m56 48l80 80l-80 80V48z" opacity=".2"></path><path fill="currentColor" d="m141.7 122.3l-80-80a8.4 8.4 0 0 0-8.8-1.7A8 8 0 0 0 48 48v160a8 8 0 0 0 4.9 7.4a8.5 8.5 0 0 0 3.1.6a8.3 8.3 0 0 0 5.7-2.3l80-80a8.1 8.1 0 0 0 0-11.4ZM64 188.7V67.3l60.7 60.7Z"></path><path fill="currentColor" d="m221.7 122.3l-80-80a8.1 8.1 0 0 0-11.4 11.4l74.4 74.3l-74.4 74.3a8.1 8.1 0 0 0 0 11.4a8.2 8.2 0 0 0 11.4 0l80-80a8.1 8.1 0 0 0 0-11.4Z"></path></svg>