<svg xmlns="http://www.w3.org/2000/svg" xmlns:xlink="http://www.w3.org/1999/xlink" aria-hidden="true" role="img" class="iconify iconify--ph" width="1em" height="1em" preserveAspectRatio="xMidYMid meet" viewBox="0 0 256 256"><path fill="currentColor" d="M215.4 124.9a8.4 8.4 0 0 1-1.7 8.8l-80 80a8.2 8.2 0 0 1-11.4 0l-80-80a8.4 8.4 0 0 1-1.7-8.8A8 8 0 0 1 48 120h60.7L42.3 53.7a8.4 8.4 0 0 1-1.7-8.8A8 8 0 0 1 48 40h160a8 8 0 0 1 7.4 4.9a8.4 8.4 0 0 1-1.7 8.8L147.3 120H208a8 8 0 0 1 7.4 4.9Z"></path></svg>