<svg xmlns="http://www.w3.org/2000/svg" xmlns:xlink="http://www.w3.org/1999/xlink" aria-hidden="true" role="img" class="iconify iconify--ph" width="1em" height="1em" preserveAspectRatio="xMidYMid meet" viewBox="0 0 256 256"><path fill="currentColor" d="M201.5 54.5a103.8 103.8 0 0 0-147 0a103.8 103.8 0 0 0 0 147a103.8 103.8 0 0 0 147 0a103.8 103.8 0 0 0 0-147Zm-11.3 135.7a88 88 0 1 1 0-124.4a88.1 88.1 0 0 1 0 124.4Zm-16.5-88.5L147.3 128l26.4 26.3a8.1 8.1 0 0 1 0 11.4a8.2 8.2 0 0 1-11.4 0l-32-32a8.1 8.1 0 0 1 0-11.4l32-32a8.1 8.1 0 0 1 11.4 11.4Zm-56 0L91.3 128l26.4 26.3a8.1 8.1 0 0 1 0 11.4a8.2 8.2 0 0 1-11.4 0l-32-32a8.1 8.1 0 0 1 0-11.4l32-32a8.1 8.1 0 0 1 11.4 11.4Z"></path></svg>