<svg xmlns="http://www.w3.org/2000/svg" xmlns:xlink="http://www.w3.org/1999/xlink" aria-hidden="true" role="img" class="iconify iconify--ph" width="1em" height="1em" preserveAspectRatio="xMidYMid meet" viewBox="0 0 256 256"><path fill="currentColor" d="m138.8 130.8l-80 80a3.9 3.9 0 0 1-5.6 0a3.9 3.9 0 0 1 0-5.6l77.1-77.2l-77.1-77.2a4 4 0 0 1 5.6-5.6l80 80a3.9 3.9 0 0 1 0 5.6Zm80-5.6l-80-80a4 4 0 0 0-5.6 5.6l77.1 77.2l-77.1 77.2a3.9 3.9 0 0 0 0 5.6a3.9 3.9 0 0 0 5.6 0l80-80a3.9 3.9 0 0 0 0-5.6Z"></path></svg>