<svg xmlns="http://www.w3.org/2000/svg" xmlns:xlink="http://www.w3.org/1999/xlink" aria-hidden="true" role="img" class="iconify iconify--ph" width="1em" height="1em" preserveAspectRatio="xMidYMid meet" viewBox="0 0 256 256"><path fill="currentColor" d="M198.7 57.3A100 100 0 1 0 57.3 198.7A100 100 0 1 0 198.7 57.3Zm-5.6 135.8A92.2 92.2 0 1 1 220 128a91.8 91.8 0 0 1-26.9 65.1ZM162.8 85.2a3.9 3.9 0 0 1 0 5.6l-32 32a3.9 3.9 0 0 1-5.6 0l-32-32a4 4 0 0 1 5.6-5.6l29.2 29.1l29.2-29.1a3.9 3.9 0 0 1 5.6 0Zm0 56a3.9 3.9 0 0 1 0 5.6l-32 32a3.9 3.9 0 0 1-5.6 0l-32-32a4 4 0 0 1 5.6-5.6l29.2 29.1l29.2-29.1a3.9 3.9 0 0 1 5.6 0Z"></path></svg>