<svg xmlns="http://www.w3.org/2000/svg" xmlns:xlink="http://www.w3.org/1999/xlink" aria-hidden="true" role="img" class="iconify iconify--ph" width="1em" height="1em" preserveAspectRatio="xMidYMid meet" viewBox="0 0 256 256"><path fill="currentColor" d="M204.4 51.6a107.9 107.9 0 1 0 0 152.8a108.2 108.2 0 0 0 0-152.8Zm-17 135.8a84 84 0 1 1 0-118.8a84.2 84.2 0 0 1 0 118.8Zm-58.9-67.9a12 12 0 0 1 0 17l-32 32a12.1 12.1 0 0 1-17 0a12 12 0 0 1 0-17L103 128l-23.5-23.5a12 12 0 0 1 17-17Zm56 17l-32 32a12.1 12.1 0 0 1-17 0a12 12 0 0 1 0-17L159 128l-23.5-23.5a12 12 0 0 1 17-17l32 32a12 12 0 0 1 0 17Z"></path></svg>