<svg xmlns="http://www.w3.org/2000/svg" xmlns:xlink="http://www.w3.org/1999/xlink" aria-hidden="true" role="img" class="iconify iconify--ph" width="1em" height="1em" preserveAspectRatio="xMidYMid meet" viewBox="0 0 256 256"><path fill="currentColor" d="m208 96l-80 80l-80-80h160z" opacity=".2"></path><path fill="currentColor" d="M128 184a8.5 8.5 0 0 1-5.7-2.3l-80-80a8.4 8.4 0 0 1-1.7-8.8A8 8 0 0 1 48 88h160a8 8 0 0 1 7.4 4.9a8.4 8.4 0 0 1-1.7 8.8l-80 80a8.5 8.5 0 0 1-5.7 2.3Zm-60.7-80l60.7 60.7l60.7-60.7Z"></path></svg>