<svg xmlns="http://www.w3.org/2000/svg" xmlns:xlink="http://www.w3.org/1999/xlink" aria-hidden="true" role="img" class="iconify iconify--ph" width="1em" height="1em" preserveAspectRatio="xMidYMid meet" viewBox="0 0 256 256"><path fill="currentColor" d="M54.5 54.5a104 104 0 1 0 147 0a103.9 103.9 0 0 0-147 0Zm99.8 83.8a8.1 8.1 0 0 1 11.4 0a8.2 8.2 0 0 1 0 11.4l-32 32a8.1 8.1 0 0 1-11.4 0l-32-32a8.1 8.1 0 0 1 11.4-11.4l26.3 26.4Zm0-56a8.1 8.1 0 0 1 11.4 0a8.2 8.2 0 0 1 0 11.4l-32 32a8.1 8.1 0 0 1-11.4 0l-32-32a8.1 8.1 0 0 1 11.4-11.4l26.3 26.4Z"></path></svg>