<svg xmlns="http://www.w3.org/2000/svg" xmlns:xlink="http://www.w3.org/1999/xlink" aria-hidden="true" role="img" class="iconify iconify--ph" width="1em" height="1em" preserveAspectRatio="xMidYMid meet" viewBox="0 0 256 256"><path fill="currentColor" d="M204.4 51.6a107.9 107.9 0 1 0 0 152.8a107.4 107.4 0 0 0 0-152.8Zm-17 135.8a84 84 0 1 1 0-118.8a84.2 84.2 0 0 1 0 118.8ZM172.9 136a11.8 11.8 0 0 1-.9 16.9a11.9 11.9 0 0 1-16.9-.9L128 121.9L100.9 152a12 12 0 1 1-17.8-16l36-40a11.9 11.9 0 0 1 17.8 0Z"></path></svg>