<svg xmlns="http://www.w3.org/2000/svg" xmlns:xlink="http://www.w3.org/1999/xlink" aria-hidden="true" role="img" class="iconify iconify--ph" width="1em" height="1em" preserveAspectRatio="xMidYMid meet" viewBox="0 0 256 256"><path fill="currentColor" d="M201.5 54.5a103.8 103.8 0 0 0-147 0a103.8 103.8 0 0 0 0 147a103.8 103.8 0 0 0 147 0a103.8 103.8 0 0 0 0-147Zm-11.3 135.7a88 88 0 1 1 0-124.4a88.1 88.1 0 0 1 0 124.4ZM165.7 82.3a8.1 8.1 0 0 1 0 11.4l-32 32a8.2 8.2 0 0 1-11.4 0l-32-32a8.1 8.1 0 0 1 11.4-11.4l26.3 26.4l26.3-26.4a8.1 8.1 0 0 1 11.4 0Zm0 56a8.1 8.1 0 0 1 0 11.4l-32 32a8.2 8.2 0 0 1-11.4 0l-32-32a8.1 8.1 0 0 1 11.4-11.4l26.3 26.4l26.3-26.4a8.1 8.1 0 0 1 11.4 0Z"></path></svg>