<svg xmlns="http://www.w3.org/2000/svg" xmlns:xlink="http://www.w3.org/1999/xlink" aria-hidden="true" role="img" class="iconify iconify--ph" width="1em" height="1em" preserveAspectRatio="xMidYMid meet" viewBox="0 0 256 256"><circle cx="128" cy="128" r="96" fill="currentColor" opacity=".2"></circle><path fill="currentColor" d="M128 24a104 104 0 1 0 104 104A104.2 104.2 0 0 0 128 24Zm0 192a88 88 0 1 1 88-88a88.1 88.1 0 0 1-88 88Z"></path><path fill="currentColor" d="M169.4 110.1a8 8 0 0 0-11.3.5L128 144l-30.1-33.4a8 8 0 0 0-11.8 10.8l36 40a8 8 0 0 0 11.8 0l36-40a8 8 0 0 0-.5-11.3Z"></path></svg>