<svg xmlns="http://www.w3.org/2000/svg" xmlns:xlink="http://www.w3.org/1999/xlink" aria-hidden="true" role="img" class="iconify iconify--ph" width="1em" height="1em" preserveAspectRatio="xMidYMid meet" viewBox="0 0 256 256"><path fill="currentColor" d="M94 140a10 10 0 1 1-10-10a10 10 0 0 1 10 10Zm78-10a10 10 0 1 0 10 10a10 10 0 0 0-10-10Zm58-78.7V136c0 51.8-45.8 94-102 94S26 187.8 26 136V51.3a14 14 0 0 1 23.9-9.9l18.4 18.4a99.6 99.6 0 0 1 25.2-12.2l1.4-.5a110 110 0 0 1 66.2 0l1.4.5a99.6 99.6 0 0 1 25.2 12.2l18.4-18.4a14 14 0 0 1 23.9 9.9Zm-12 0a2 2 0 0 0-1.2-1.8a1.9 1.9 0 0 0-2.2.4l-22 21.9a5.9 5.9 0 0 1-7.8.6A89.5 89.5 0 0 0 166 61.7V88a6 6 0 0 1-12 0V57.5a96 96 0 0 0-20-3.3V88a6 6 0 0 1-12 0V54.2a96 96 0 0 0-20 3.3V88a6 6 0 0 1-12 0V61.7a89.5 89.5 0 0 0-18.8 10.7a5.9 5.9 0 0 1-7.8-.6l-22-21.9a1.6 1.6 0 0 0-1.4-.6l-.8.2a2 2 0 0 0-1.2 1.8V136c0 43.4 37.2 79 84 81.8v-23.3l-14.2-14.3a5.9 5.9 0 0 1 8.4-8.4l11.8 11.7l11.8-11.7a5.9 5.9 0 0 1 8.4 8.4L134 194.5v23.3c46.8-2.8 84-38.4 84-81.8Z"></path></svg>