<svg xmlns="http://www.w3.org/2000/svg" xmlns:xlink="http://www.w3.org/1999/xlink" aria-hidden="true" role="img" class="iconify iconify--ph" width="1em" height="1em" preserveAspectRatio="xMidYMid meet" viewBox="0 0 256 256"><path fill="currentColor" d="M221.4 36.3a16.3 16.3 0 0 0-17 4l-16.9 16.9a111.5 111.5 0 0 0-119 0L51.6 40.3a16.3 16.3 0 0 0-17-4a15.9 15.9 0 0 0-10.6 15V136c0 49.1 40.1 89.6 91.6 95.3a4 4 0 0 0 4.4-4v-32l-13.4-13.4a8.3 8.3 0 0 1-.4-11.4a8.1 8.1 0 0 1 11.5-.2l10.3 10.4l10.3-10.4a8.1 8.1 0 0 1 11.5.2a8.3 8.3 0 0 1-.4 11.4L136 195.3v32a4 4 0 0 0 4.4 4c51.5-5.7 91.6-46.2 91.6-95.3V51.3a15.9 15.9 0 0 0-10.6-15ZM84 152a12 12 0 1 1 12-12a12 12 0 0 1-12 12Zm20-64a8 8 0 0 1-16 0V69a8 8 0 0 1 16 0Zm32 0a8 8 0 0 1-16 0V64a8 8 0 0 1 16 0Zm16 0V69a8 8 0 0 1 16 0v19a8 8 0 0 1-16 0Zm20 64a12 12 0 1 1 12-12a12 12 0 0 1-12 12Z"></path></svg>