<svg xmlns="http://www.w3.org/2000/svg" xmlns:xlink="http://www.w3.org/1999/xlink" aria-hidden="true" role="img" class="iconify iconify--ph" width="1em" height="1em" preserveAspectRatio="xMidYMid meet" viewBox="0 0 256 256"><path fill="currentColor" d="M226.8 149.2a3.9 3.9 0 0 1 0 5.6a3.8 3.8 0 0 1-2.8 1.2a3.9 3.9 0 0 1-2.8-1.2L200 133.7l-21.2 21.1a3.8 3.8 0 0 1-2.8 1.2a3.9 3.9 0 0 1-2.8-1.2a3.9 3.9 0 0 1 0-5.6l21.1-21.2l-21.1-21.2a4 4 0 0 1 5.6-5.6l21.2 21.1l21.2-21.1a4 4 0 1 1 5.6 5.6L205.7 128ZM200 169.3a3.9 3.9 0 0 0-4 4V208a4 4 0 0 1-4 4H27.3a4 4 0 0 1-3.7-2.5a3.9 3.9 0 0 1 .9-4.3L189.2 40.5a3.9 3.9 0 0 1 4.3-.9a4 4 0 0 1 2.5 3.7v39.4a4 4 0 0 0 8 0V43.3a12 12 0 0 0-20.5-8.5L18.8 199.5a12 12 0 0 0 8.5 20.5H192a12 12 0 0 0 12-12v-34.7a3.9 3.9 0 0 0-4-4Z"></path></svg>