<svg xmlns="http://www.w3.org/2000/svg" xmlns:xlink="http://www.w3.org/1999/xlink" aria-hidden="true" role="img" class="iconify iconify--ph" width="1em" height="1em" preserveAspectRatio="xMidYMid meet" viewBox="0 0 256 256"><path fill="currentColor" d="M129.8 94.2a7.9 7.9 0 0 1 0-11.3L180.7 32A16 16 0 0 1 208 43.3v116.3a8 8 0 1 1-16 0V43.3l-50.9 50.9a7.9 7.9 0 0 1-11.3 0ZM216 216a8 8 0 0 1-8 8H27.3A16 16 0 0 1 16 196.7l85.7-85.7l-59.6-65.6a7.9 7.9 0 0 1 .5-11.3a8 8 0 0 1 11.3.5l160 176a8.1 8.1 0 0 1 2.1 5.4Zm-188.7-8h162.6l-77.4-85.2Z"></path></svg>