<svg xmlns="http://www.w3.org/2000/svg" xmlns:xlink="http://www.w3.org/1999/xlink" aria-hidden="true" role="img" class="iconify iconify--ph" width="1em" height="1em" preserveAspectRatio="xMidYMid meet" viewBox="0 0 256 256"><path fill="currentColor" d="M132.6 91.4a3.9 3.9 0 0 1 0-5.6l50.9-51a12 12 0 0 1 20.5 8.5v116.3a4 4 0 1 1-8 0V43.3a4 4 0 0 0-2.5-3.7a3.9 3.9 0 0 0-4.3.9l-51 50.9a3.9 3.9 0 0 1-5.6 0ZM212 216a4 4 0 0 1-4 4H27.3a12 12 0 0 1-8.5-20.5l88.4-88.4L45 42.7a4.1 4.1 0 0 1 .3-5.7a4.2 4.2 0 0 1 5.7.3l160 176h-.1a3.9 3.9 0 0 1 1.1 2.7Zm-184.7-4H199l-86.4-95l-88.1 88.2a3.9 3.9 0 0 0-.9 4.3a4 4 0 0 0 3.7 2.5Z"></path></svg>