<svg xmlns="http://www.w3.org/2000/svg" xmlns:xlink="http://www.w3.org/1999/xlink" aria-hidden="true" role="img" class="iconify iconify--ph" width="1em" height="1em" preserveAspectRatio="xMidYMid meet" viewBox="0 0 256 256"><path fill="currentColor" d="M131.2 92.8a5.9 5.9 0 0 1 0-8.5l50.9-50.9a14 14 0 0 1 23.9 9.9v116.3a6 6 0 1 1-12 0V43.3a2 2 0 0 0-1.2-1.8a1.9 1.9 0 0 0-2.2.4l-50.9 50.9a5.9 5.9 0 0 1-8.5 0ZM214 216a6 6 0 0 1-6 6H27.3a14 14 0 0 1-9.9-23.9l87.1-87.1l-60.9-67a5.9 5.9 0 0 1 8.8-8l160 176a5.8 5.8 0 0 1 1.6 4Zm-186.7-6h167.1l-81.9-90.1l-86.6 86.7a1.9 1.9 0 0 0-.4 2.2a2 2 0 0 0 1.8 1.2Z"></path></svg>