<svg xmlns="http://www.w3.org/2000/svg" xmlns:xlink="http://www.w3.org/1999/xlink" aria-hidden="true" role="img" class="iconify iconify--ph" width="1em" height="1em" preserveAspectRatio="xMidYMid meet" viewBox="0 0 256 256"><path fill="currentColor" d="M80 216H27.3a8 8 0 0 1-5.6-13.7L80 144Z" opacity=".2"></path><path fill="currentColor" d="M198.1 28.5a15.9 15.9 0 0 0-17.4 3.5L74.4 138.3h-.1L16 196.7A16 16 0 0 0 27.3 224H192a16 16 0 0 0 16-16V43.3a16 16 0 0 0-9.9-14.8ZM72 163.3V208H27.3ZM192 208H88v-60.7l104-104Z"></path></svg>