<svg xmlns="http://www.w3.org/2000/svg" xmlns:xlink="http://www.w3.org/1999/xlink" aria-hidden="true" role="img" class="iconify iconify--ph" width="1em" height="1em" preserveAspectRatio="xMidYMid meet" viewBox="0 0 256 256"><path fill="currentColor" d="M228.3 147.8a6 6 0 0 1 0 8.4a6.1 6.1 0 0 1-4.3 1.8a5.8 5.8 0 0 1-4.2-1.8L200 136.5l-19.7 19.7a6.1 6.1 0 0 1-4.3 1.8a6 6 0 0 1-4.2-10.2l19.7-19.8l-19.7-19.8a5.8 5.8 0 0 1 0-8.4a5.9 5.9 0 0 1 8.5 0l19.7 19.7l19.8-19.7a6 6 0 0 1 8.5 8.4L208.5 128ZM200 167.3a6 6 0 0 0-6 6V208a2 2 0 0 1-2 2H27.3a2 2 0 0 1-1.8-1.2a1.9 1.9 0 0 1 .4-2.2L190.6 41.9a1.9 1.9 0 0 1 2.2-.4a2 2 0 0 1 1.2 1.8v39.4a6 6 0 0 0 12 0V43.3a14 14 0 0 0-23.9-9.9L17.4 198.1a14 14 0 0 0 9.9 23.9H192a14 14 0 0 0 14-14v-34.7a6 6 0 0 0-6-6Z"></path></svg>