<svg xmlns="http://www.w3.org/2000/svg" xmlns:xlink="http://www.w3.org/1999/xlink" aria-hidden="true" role="img" class="iconify iconify--ph" width="1em" height="1em" preserveAspectRatio="xMidYMid meet" viewBox="0 0 256 256"><path fill="currentColor" d="M196.6 32.2a11.8 11.8 0 0 0-13.1 2.6L18.8 199.5a12 12 0 0 0 8.5 20.5H192a12 12 0 0 0 12-12V43.3a11.8 11.8 0 0 0-7.4-11.1Zm-173 177.3a3.8 3.8 0 0 1 .9-4.3L156 73.6V212H27.3a4 4 0 0 1-3.7-2.5ZM196 208a4 4 0 0 1-4 4h-28V65.6l25.2-25.1a3.4 3.4 0 0 1 2.7-1.2a4 4 0 0 1 1.6.3a3.8 3.8 0 0 1 2.5 3.7Z"></path></svg>