<svg xmlns="http://www.w3.org/2000/svg" xmlns:xlink="http://www.w3.org/1999/xlink" aria-hidden="true" role="img" class="iconify iconify--ph" width="1em" height="1em" preserveAspectRatio="xMidYMid meet" viewBox="0 0 256 256"><path fill="currentColor" d="M198.1 28.5a15.9 15.9 0 0 0-17.4 3.5L16 196.7a15.7 15.7 0 0 0-4.7 11.6a4.9 4.9 0 0 0 .1 1.2a14.7 14.7 0 0 0 1.1 4.6a16 16 0 0 0 6.9 7.8l1 .5a10.2 10.2 0 0 0 2.2.9a18.4 18.4 0 0 0 4.7.7H192a16 16 0 0 0 16-16V43.3a16 16 0 0 0-9.9-14.8ZM192 208h-24V67.3l24-24Z"></path></svg>