<svg xmlns="http://www.w3.org/2000/svg" xmlns:xlink="http://www.w3.org/1999/xlink" aria-hidden="true" role="img" class="iconify iconify--ph" width="1em" height="1em" preserveAspectRatio="xMidYMid meet" viewBox="0 0 256 256"><path fill="currentColor" d="M197.4 30.4a14 14 0 0 0-15.3 3L17.4 198.1a14 14 0 0 0 9.9 23.9H192a14 14 0 0 0 14-14V43.3a13.9 13.9 0 0 0-8.6-12.9ZM25.5 208.8a1.9 1.9 0 0 1 .4-2.2L154 78.5V210H27.3a2 2 0 0 1-1.8-1.2ZM194 208a2 2 0 0 1-2 2h-26V66.5l24.6-24.6a1.8 1.8 0 0 1 1.4-.6l.8.2a1.8 1.8 0 0 1 1.2 1.8Z"></path></svg>