<svg xmlns="http://www.w3.org/2000/svg" xmlns:xlink="http://www.w3.org/1999/xlink" aria-hidden="true" role="img" class="iconify iconify--ph" width="1em" height="1em" preserveAspectRatio="xMidYMid meet" viewBox="0 0 256 256"><path fill="currentColor" d="M129.5 94a8 8 0 0 1 .3-11.1L180.7 32A16 16 0 0 1 208 43.3v116.3a8 8 0 0 1-5.1 7.5a7.4 7.4 0 0 1-2.9.5a7.9 7.9 0 0 1-5.9-2.6Zm84.4 116.6l-160-176a8 8 0 0 0-11.3-.5a7.9 7.9 0 0 0-.5 11.3l59.6 65.6L16 196.7A16 16 0 0 0 27.3 224H208a8.2 8.2 0 0 0 5.4-2.1a8 8 0 0 0 .5-11.3Z"></path></svg>