<svg xmlns="http://www.w3.org/2000/svg" xmlns:xlink="http://www.w3.org/1999/xlink" aria-hidden="true" role="img" class="iconify iconify--ph" width="1em" height="1em" preserveAspectRatio="xMidYMid meet" viewBox="0 0 256 256"><path fill="currentColor" d="M229.7 146.3a8.1 8.1 0 0 1 0 11.4a8.2 8.2 0 0 1-11.4 0L200 139.3l-18.3 18.4a8.2 8.2 0 0 1-11.4 0a8.1 8.1 0 0 1 0-11.4l18.4-18.3l-18.4-18.3a8.1 8.1 0 0 1 11.4-11.4l18.3 18.4l18.3-18.4a8.1 8.1 0 0 1 11.4 11.4L211.3 128Zm-29.7 19a8 8 0 0 0-8 8V208H27.3L192 43.3v39.4a8 8 0 0 0 16 0V43.3A16 16 0 0 0 180.7 32L16 196.7A16 16 0 0 0 27.3 224H192a16 16 0 0 0 16-16v-34.7a8 8 0 0 0-8-8Z"></path></svg>