<svg xmlns="http://www.w3.org/2000/svg" xmlns:xlink="http://www.w3.org/1999/xlink" aria-hidden="true" role="img" class="iconify iconify--ph" width="1em" height="1em" preserveAspectRatio="xMidYMid meet" viewBox="0 0 256 256"><path fill="currentColor" d="M200 43.3V208a8 8 0 0 1-8 8H27.3a8 8 0 0 1-5.6-13.7L186.3 37.6a8.1 8.1 0 0 1 13.7 5.7Z" opacity=".2"></path><path fill="currentColor" d="M192 224H27.3A16 16 0 0 1 16 196.7L180.7 32A16 16 0 0 1 208 43.3V208a16 16 0 0 1-16 16ZM27.3 208H192V43.3L27.3 208Z"></path></svg>