<svg xmlns="http://www.w3.org/2000/svg" xmlns:xlink="http://www.w3.org/1999/xlink" aria-hidden="true" role="img" class="iconify iconify--ph" width="1em" height="1em" preserveAspectRatio="xMidYMid meet" viewBox="0 0 256 256"><path fill="currentColor" d="m216.9 207.9l-160-176a12 12 0 0 0-17.8 16.2l57.1 62.8l-83 83A19.9 19.9 0 0 0 27.3 228H208a12 12 0 0 0 12-12a12.4 12.4 0 0 0-3.1-8.1Zm-104.6-79.3l68.6 75.4H37Zm20.3-37.2a12 12 0 0 1 0-17l45.3-45.2A19.9 19.9 0 0 1 212 43.3v104.5a12 12 0 0 1-24 0V53l-38.4 38.4a12 12 0 0 1-17 0Z"></path></svg>