<svg xmlns="http://www.w3.org/2000/svg" xmlns:xlink="http://www.w3.org/1999/xlink" aria-hidden="true" role="img" class="iconify iconify--ph" width="1em" height="1em" preserveAspectRatio="xMidYMid meet" viewBox="0 0 256 256"><path fill="currentColor" d="M192 220H27.3a12 12 0 0 1-8.5-20.5L183.5 34.8a12 12 0 0 1 20.5 8.5V208a12 12 0 0 1-12 12Zm-.1-180.7a3.4 3.4 0 0 0-2.7 1.2L24.5 205.2a3.8 3.8 0 0 0-.9 4.3a4 4 0 0 0 3.7 2.5H192a4 4 0 0 0 4-4V43.3a3.8 3.8 0 0 0-2.5-3.7a4 4 0 0 0-1.6-.3Z"></path></svg>