<svg xmlns="http://www.w3.org/2000/svg" xmlns:xlink="http://www.w3.org/1999/xlink" aria-hidden="true" role="img" class="iconify iconify--ph" width="1em" height="1em" preserveAspectRatio="xMidYMid meet" viewBox="0 0 256 256"><path fill="currentColor" d="M216 44H40a12 12 0 0 0-12 12v144a12 12 0 0 0 12 12h13.4a4.1 4.1 0 0 0 3.6-2.3a52 52 0 0 1 94 0a4.1 4.1 0 0 0 3.6 2.3H216a12 12 0 0 0 12-12V56a12 12 0 0 0-12-12Zm4 156a4 4 0 0 1-4 4h-58.9a60.4 60.4 0 0 0-34.7-29.1a36 36 0 1 0-36.8 0A60.4 60.4 0 0 0 50.9 204H40a4.1 4.1 0 0 1-4-4V56a4 4 0 0 1 4-4h176a4 4 0 0 1 4 4Zm-116-28a28 28 0 1 1 28-28a28.1 28.1 0 0 1-28 28Zm92-92v96a4 4 0 0 1-4 4h-16a4 4 0 0 1 0-8h12V84H68v12a4 4 0 0 1-8 0V80a4 4 0 0 1 4-4h128a4 4 0 0 1 4 4Z"></path></svg>