<svg xmlns="http://www.w3.org/2000/svg" xmlns:xlink="http://www.w3.org/1999/xlink" aria-hidden="true" role="img" class="iconify iconify--ph" width="1em" height="1em" preserveAspectRatio="xMidYMid meet" viewBox="0 0 256 256"><path fill="currentColor" d="M56 84a12 12 0 0 1 12-12h120a12 12 0 0 1 12 12v88a12 12 0 0 1-24 0V96H68a12 12 0 0 1-12-12Zm180-28v144a20.1 20.1 0 0 1-20 20h-66.7a11.9 11.9 0 0 1-11.4-8.3a36.1 36.1 0 0 0-67.8.1a12 12 0 0 1-11.4 8.2H40a20.1 20.1 0 0 1-20-20V56a20.1 20.1 0 0 1 20-20h176a20.1 20.1 0 0 1 20 20ZM104 164a16 16 0 1 0-16-16a16 16 0 0 0 16 16ZM212 60H44v136h6.9a60.8 60.8 0 0 1 21.8-23.2a40 40 0 1 1 62.6 0a60.8 60.8 0 0 1 21.8 23.2H212Z"></path></svg>