<svg xmlns="http://www.w3.org/2000/svg" xmlns:xlink="http://www.w3.org/1999/xlink" aria-hidden="true" role="img" class="iconify iconify--ph" width="1em" height="1em" preserveAspectRatio="xMidYMid meet" viewBox="0 0 256 256"><path fill="currentColor" d="M20 160V56a20.1 20.1 0 0 1 20-20h176a20.1 20.1 0 0 1 20 20v104a12 12 0 0 1-24 0V60H44v100a12 12 0 0 1-24 0Zm232 40a12 12 0 0 1-12 12H16a12 12 0 0 1 0-24h92v-28a12 12 0 0 1 12-12h64a12 12 0 0 1 12 12v28h44a12 12 0 0 1 12 12Zm-120-12h40v-16h-40Z"></path></svg>