<svg xmlns="http://www.w3.org/2000/svg" xmlns:xlink="http://www.w3.org/1999/xlink" aria-hidden="true" role="img" class="iconify iconify--ph" width="1em" height="1em" preserveAspectRatio="xMidYMid meet" viewBox="0 0 256 256"><path fill="currentColor" d="M240 188h-4V56a20.1 20.1 0 0 0-20-20H40a20.1 20.1 0 0 0-20 20v132h-4a12 12 0 0 0 0 24h224a12 12 0 0 0 0-24ZM44 60h168v128h-16v-28a12 12 0 0 0-12-12h-64a12 12 0 0 0-12 12v28H84v-88h88v20a12 12 0 0 0 24 0V88a12 12 0 0 0-12-12H72a12 12 0 0 0-12 12v100H44Zm128 128h-40v-16h40Z"></path></svg>