<svg xmlns="http://www.w3.org/2000/svg" xmlns:xlink="http://www.w3.org/1999/xlink" aria-hidden="true" role="img" class="iconify iconify--ph" width="1em" height="1em" preserveAspectRatio="xMidYMid meet" viewBox="0 0 256 256"><path fill="currentColor" d="M216 42H40a14 14 0 0 0-14 14v144a14 14 0 0 0 14 14h13.4a6 6 0 0 0 5.4-3.4a50 50 0 0 1 90.4 0a6 6 0 0 0 5.4 3.4H216a14 14 0 0 0 14-14V56a14 14 0 0 0-14-14ZM78 144a26 26 0 1 1 26 26a26.1 26.1 0 0 1-26-26Zm140 56a2 2 0 0 1-2 2h-57.7a62.3 62.3 0 0 0-31.5-27.6a38 38 0 1 0-45.6 0A62.3 62.3 0 0 0 49.7 202H40a2.1 2.1 0 0 1-2-2V56a2 2 0 0 1 2-2h176a2 2 0 0 1 2 2ZM198 80v96a6 6 0 0 1-6 6h-16a6 6 0 0 1 0-12h10V86H70v10a6 6 0 0 1-12 0V80a6 6 0 0 1 6-6h128a6 6 0 0 1 6 6Z"></path></svg>