<svg xmlns="http://www.w3.org/2000/svg" xmlns:xlink="http://www.w3.org/1999/xlink" aria-hidden="true" role="img" class="iconify iconify--ph" width="1em" height="1em" preserveAspectRatio="xMidYMid meet" viewBox="0 0 256 256"><path fill="currentColor" d="M216 40H40a16 16 0 0 0-16 16v144a16 16 0 0 0 16 16h13.4a7.9 7.9 0 0 0 7.2-4.6a48.1 48.1 0 0 1 86.8 0a7.9 7.9 0 0 0 7.2 4.6H216a16 16 0 0 0 16-16V56a16 16 0 0 0-16-16ZM80 144a24 24 0 1 1 24 24a24.1 24.1 0 0 1-24-24Zm136 56h-56.6a64.6 64.6 0 0 0-28.8-26.2a40 40 0 1 0-53.2 0A64.6 64.6 0 0 0 48.6 200H40V56h176ZM56 96V80a8 8 0 0 1 8-8h128a8 8 0 0 1 8 8v96a8 8 0 0 1-8 8h-16a8 8 0 0 1 0-16h8V88H72v8a8 8 0 0 1-16 0Z"></path></svg>