<svg xmlns="http://www.w3.org/2000/svg" xmlns:xlink="http://www.w3.org/1999/xlink" aria-hidden="true" role="img" class="iconify iconify--ph" width="1em" height="1em" preserveAspectRatio="xMidYMid meet" viewBox="0 0 256 256"><path fill="currentColor" d="M216.5 77.4a.8.8 0 0 0-.2-.4l-.3-.5A102 102 0 0 0 39.5 178.6l.2.4l.2.3A102 102 0 0 0 230 128a100.9 100.9 0 0 0-13.5-50.6Zm-13.8.5L134 117.6V38.2a89.9 89.9 0 0 1 68.7 39.7ZM122 38.2v86.3l-74.8 43.2A90.1 90.1 0 0 1 122 38.2Zm6 179.8a89.9 89.9 0 0 1-74.7-39.9l155.5-89.8A90 90 0 0 1 128 218Z"></path></svg>