<svg xmlns="http://www.w3.org/2000/svg" xmlns:xlink="http://www.w3.org/1999/xlink" aria-hidden="true" role="img" class="iconify iconify--ph" width="1em" height="1em" preserveAspectRatio="xMidYMid meet" viewBox="0 0 256 256"><path fill="currentColor" d="M100 116.5a8.1 8.1 0 0 0 4-7v-72a8 8 0 0 0-10.7-7.6A104.3 104.3 0 0 0 24 128a109.1 109.1 0 0 0 1.7 19a8 8 0 0 0 4.6 5.8a7.6 7.6 0 0 0 3.3.8a8 8 0 0 0 4-1.1ZM88 49.6v55.3l-47.9 27.7c-.1-1.6-.1-3.1-.1-4.6a88.3 88.3 0 0 1 48-78.4Zm130.3 26.8a.8.8 0 0 1-.2-.4l-.4-.5A103.9 103.9 0 0 0 128 24a8 8 0 0 0-8 8v91.4l-79.1 45.7a7.9 7.9 0 0 0-3 10.9v.2l.3.5A104 104 0 0 0 232 128a103.5 103.5 0 0 0-13.7-51.6Zm-82.3-36a88.2 88.2 0 0 1 63.9 36.9L136 114.1ZM128 216a88.3 88.3 0 0 1-71.9-37.3l151.8-87.6A88 88 0 0 1 128 216Z"></path></svg>