<svg xmlns="http://www.w3.org/2000/svg" xmlns:xlink="http://www.w3.org/1999/xlink" aria-hidden="true" role="img" class="iconify iconify--ph" width="1em" height="1em" preserveAspectRatio="xMidYMid meet" viewBox="0 0 256 256"><path fill="currentColor" d="M230 208a6 6 0 0 1-6 6H32a6 6 0 0 1-6-6V48a6 6 0 0 1 12 0v113.5l53.8-53.7a5.8 5.8 0 0 1 8.4 0l27.8 27.7L193.5 70H168a6 6 0 0 1 0-12h40a6 6 0 0 1 6 6v40a6 6 0 0 1-12 0V78.5l-69.8 69.7a5.8 5.8 0 0 1-8.4 0L96 120.5l-58 58V202h186a6 6 0 0 1 6 6Z"></path></svg>