<svg xmlns="http://www.w3.org/2000/svg" xmlns:xlink="http://www.w3.org/1999/xlink" aria-hidden="true" role="img" class="iconify iconify--ph" width="1em" height="1em" preserveAspectRatio="xMidYMid meet" viewBox="0 0 256 256"><path fill="currentColor" d="M214.7 78.2c0-.1-.1-.1-.1-.2s-.1-.1-.1-.2a100 100 0 0 0-173.2 100v.2c.1.1.2.2.2.3A100 100 0 0 0 228 128a99.1 99.1 0 0 0-13.3-49.8Zm-9.1.4L132 121.1v-85a92.1 92.1 0 0 1 73.6 42.5ZM124 36.1v89.6l-77.6 44.8A92 92 0 0 1 124 36.1Zm4 183.9a92 92 0 0 1-77.6-42.6l159.2-91.9A92 92 0 0 1 128 220Z"></path></svg>