<svg xmlns="http://www.w3.org/2000/svg" xmlns:xlink="http://www.w3.org/1999/xlink" aria-hidden="true" role="img" class="iconify iconify--ph" width="1em" height="1em" preserveAspectRatio="xMidYMid meet" viewBox="0 0 256 256"><path fill="currentColor" d="M100 109.5v-72a3.9 3.9 0 0 0-1.7-3.3a3.8 3.8 0 0 0-3.6-.5A100.2 100.2 0 0 0 28 128a102.1 102.1 0 0 0 1.7 18.3a4.1 4.1 0 0 0 2.2 2.9a5.3 5.3 0 0 0 1.7.4a3.6 3.6 0 0 0 2-.6L98 113a4 4 0 0 0 2-3.5Zm-8-2.3l-55.3 32A84.2 84.2 0 0 1 36 128a92.2 92.2 0 0 1 56-84.7Zm122.7-29c0-.1-.1-.1-.1-.2s-.1-.1-.1-.2A100 100 0 0 0 128 28a4 4 0 0 0-4 4v93.7l-81.1 46.8a4.1 4.1 0 0 0-1.5 5.5l.2.3l.2.4A100 100 0 0 0 228 128a99.1 99.1 0 0 0-13.3-49.8ZM132 36.1a92.1 92.1 0 0 1 73.6 42.5L132 121.1ZM128 220a92.4 92.4 0 0 1-77.6-42.6l159.2-91.9A92 92 0 0 1 128 220Z"></path></svg>