<svg xmlns="http://www.w3.org/2000/svg" xmlns:xlink="http://www.w3.org/1999/xlink" aria-hidden="true" role="img" class="iconify iconify--ph" width="1em" height="1em" preserveAspectRatio="xMidYMid meet" viewBox="0 0 256 256"><path fill="currentColor" d="M228 208a4 4 0 0 1-4 4H32a4 4 0 0 1-4-4V48a4 4 0 0 1 8 0v118.3l57.2-57.1a3.9 3.9 0 0 1 5.6 0l29.2 29.1L198.3 68H168a4 4 0 0 1 0-8h40a4 4 0 0 1 4 4v40a4 4 0 0 1-8 0V73.7l-73.2 73.1a3.9 3.9 0 0 1-5.6 0L96 117.7l-60 60V204h188a4 4 0 0 1 4 4Z"></path></svg>