<svg xmlns="http://www.w3.org/2000/svg" xmlns:xlink="http://www.w3.org/1999/xlink" aria-hidden="true" role="img" class="iconify iconify--ph" width="1em" height="1em" preserveAspectRatio="xMidYMid meet" viewBox="0 0 256 256"><path fill="currentColor" d="M102 109.5v-72a5.8 5.8 0 0 0-2.5-4.9a6 6 0 0 0-5.5-.8A102.1 102.1 0 0 0 26 128a104.6 104.6 0 0 0 1.7 18.6a5.9 5.9 0 0 0 3.4 4.4a5.7 5.7 0 0 0 2.5.6a5.5 5.5 0 0 0 3-.9l62.4-36a5.9 5.9 0 0 0 3-5.2Zm-12-3.4l-51.7 29.8c-.2-2.6-.3-5.3-.3-7.9a90.1 90.1 0 0 1 52-81.6Zm126.5-28.7a.8.8 0 0 0-.2-.4l-.3-.5A101.9 101.9 0 0 0 128 26a6 6 0 0 0-6 6v92.5l-80.1 46.3a5.9 5.9 0 0 0-2.2 8.2v.2l.3.5A102 102 0 0 0 230 128a100.9 100.9 0 0 0-13.5-50.6ZM134 38.2a89.9 89.9 0 0 1 68.7 39.7L134 117.6ZM128 218a90.7 90.7 0 0 1-74.8-39.9l155.6-89.8A90 90 0 0 1 128 218Z"></path></svg>