<svg xmlns="http://www.w3.org/2000/svg" xmlns:xlink="http://www.w3.org/1999/xlink" aria-hidden="true" role="img" class="iconify iconify--ph" width="1em" height="1em" preserveAspectRatio="xMidYMid meet" viewBox="0 0 256 256"><path fill="currentColor" d="m128 128l-83.1 48A95.9 95.9 0 0 1 128 32Z" opacity=".2"></path><path fill="currentColor" d="M218.3 76.4a.8.8 0 0 1-.2-.4l-.4-.5a104 104 0 0 0-180 104.1l.2.4l.3.4a104 104 0 0 0 180.1-104Zm-18.4.9L136 114.1V40.4a88.2 88.2 0 0 1 63.9 36.9ZM120 40.4v83l-71.9 41.5A88 88 0 0 1 120 40.4Zm8 175.6a88 88 0 0 1-71.9-37.3l151.8-87.6A88 88 0 0 1 128 216Z"></path></svg>