<svg xmlns="http://www.w3.org/2000/svg" xmlns:xlink="http://www.w3.org/1999/xlink" aria-hidden="true" role="img" class="iconify iconify--ph" width="1em" height="1em" preserveAspectRatio="xMidYMid meet" viewBox="0 0 256 256"><path fill="currentColor" d="M221.7 74.4a.8.8 0 0 0-.2-.4l-.3-.5A108 108 0 0 0 34.3 181.6l.2.4l.2.4A108 108 0 0 0 236 128a107.1 107.1 0 0 0-14.3-53.6ZM194 76.1l-54 31.1V44.9a83.8 83.8 0 0 1 54 31.2Zm-78-31.2v76.2l-66 38.1a85.3 85.3 0 0 1-6-31.2a84.1 84.1 0 0 1 72-83.1ZM128 212a83.9 83.9 0 0 1-65.9-32.1L206 96.8A84 84 0 0 1 128 212Z"></path></svg>