<svg xmlns="http://www.w3.org/2000/svg" xmlns:xlink="http://www.w3.org/1999/xlink" aria-hidden="true" role="img" class="iconify iconify--ph" width="1em" height="1em" preserveAspectRatio="xMidYMid meet" viewBox="0 0 256 256"><path fill="currentColor" d="M100 116.5a8.1 8.1 0 0 0 4-7v-72a8 8 0 0 0-10.7-7.6A104.3 104.3 0 0 0 24 128a109.1 109.1 0 0 0 1.7 19a8 8 0 0 0 4.6 5.8a7.6 7.6 0 0 0 3.3.8a8 8 0 0 0 4-1.1ZM88 49.6v55.3l-47.9 27.7c-.1-1.6-.1-3.1-.1-4.6a88.3 88.3 0 0 1 48-78.4ZM232 128a104 104 0 0 1-193.7 52.7l-.3-.5v-.2a7.9 7.9 0 0 1 3-10.9l79-45.7V32a8 8 0 0 1 8-8a103.9 103.9 0 0 1 89.7 51.5l.4.5a.8.8 0 0 0 .2.4A103.5 103.5 0 0 1 232 128Z"></path></svg>