<svg xmlns="http://www.w3.org/2000/svg" xmlns:xlink="http://www.w3.org/1999/xlink" aria-hidden="true" role="img" class="iconify iconify--ph" width="1em" height="1em" preserveAspectRatio="xMidYMid meet" viewBox="0 0 256 256"><path fill="currentColor" d="M232 208a8 8 0 0 1-8 8H32a8 8 0 0 1-8-8V48a8 8 0 0 1 16 0v108.7l50.3-50.4a8.1 8.1 0 0 1 11.4 0l26.3 26.4L188.7 72H168a8 8 0 0 1 0-16h40a8 8 0 0 1 8 8v40a8 8 0 0 1-16 0V83.3l-66.3 66.4a8.1 8.1 0 0 1-11.4 0L96 123.3l-56 56V200h184a8 8 0 0 1 8 8Z"></path></svg>