<svg xmlns="http://www.w3.org/2000/svg" xmlns:xlink="http://www.w3.org/1999/xlink" aria-hidden="true" role="img" class="iconify iconify--ph" width="1em" height="1em" preserveAspectRatio="xMidYMid meet" viewBox="0 0 256 256"><path fill="currentColor" d="M221.7 74.4a.8.8 0 0 0-.2-.4l-.3-.5A108 108 0 0 0 128 20a12 12 0 0 0-12 12v89.1l-77.1 44.5a12 12 0 0 0-4.4 16.4v.2l.3.5A108 108 0 0 0 236 128a107.1 107.1 0 0 0-14.3-53.6ZM140 44.9a83.8 83.8 0 0 1 54 31.2l-54 31.1ZM128 212a84.4 84.4 0 0 1-66-32l144-83.2A84 84 0 0 1 128 212Zm-34-95.5a12 12 0 0 0 6-10.4V40.7a12 12 0 0 0-17-10.9a108.1 108.1 0 0 0-62.4 109.6a12.1 12.1 0 0 0 6.5 9.5a13 13 0 0 0 5.4 1.3a12.5 12.5 0 0 0 6-1.6ZM76 62v37.2l-31.3 18.1A84.5 84.5 0 0 1 76 62Z"></path></svg>