<svg xmlns="http://www.w3.org/2000/svg" xmlns:xlink="http://www.w3.org/1999/xlink" aria-hidden="true" role="img" class="iconify iconify--ph" width="1em" height="1em" preserveAspectRatio="xMidYMid meet" viewBox="0 0 256 256"><path fill="currentColor" d="M166 104a6 6 0 0 1-6 6H96a6 6 0 0 1 0-12h64a6 6 0 0 1 6 6Zm-6 26H96a6 6 0 0 0 0 12h64a6 6 0 0 0 0-12Zm70-74v128a14 14 0 0 1-14 14h-59.5a2.1 2.1 0 0 0-1.7 1L140 223.7a14 14 0 0 1-24 0L101.2 199a2.1 2.1 0 0 0-1.7-1H40a14 14 0 0 1-14-14V56a14 14 0 0 1 14-14h176a14 14 0 0 1 14 14Zm-12 0a2 2 0 0 0-2-2H40a2 2 0 0 0-2 2v128a2 2 0 0 0 2 2h59.5a14 14 0 0 1 12 6.8l14.8 24.7a1.9 1.9 0 0 0 3.4 0l14.8-24.7a14 14 0 0 1 12-6.8H216a2 2 0 0 0 2-2Z"></path></svg>