<svg xmlns="http://www.w3.org/2000/svg" xmlns:xlink="http://www.w3.org/1999/xlink" aria-hidden="true" role="img" class="iconify iconify--ph" width="1em" height="1em" preserveAspectRatio="xMidYMid meet" viewBox="0 0 256 256"><path fill="currentColor" d="m78 201.3l-32.9 27.6a8 8 0 0 1-13.1-6.1V64a8 8 0 0 1 8-8h176a8 8 0 0 1 8 8v128a8 8 0 0 1-8 8H81.7Z" opacity=".2"></path><path fill="currentColor" d="M82.5 208H216a16 16 0 0 0 16-16V64a16 16 0 0 0-16-16H40a16 16 0 0 0-16 16v158.8a15.7 15.7 0 0 0 9.2 14.5a15.1 15.1 0 0 0 6.8 1.6a16 16 0 0 0 10.3-3.8L82.5 208M216 192H82.5a15.6 15.6 0 0 0-10.3 3.8l-32.2 27V64h176Z"></path><circle cx="128" cy="128" r="12" fill="currentColor"></circle><circle cx="80" cy="128" r="12" fill="currentColor"></circle><circle cx="176" cy="128" r="12" fill="currentColor"></circle></svg>