<svg xmlns="http://www.w3.org/2000/svg" xmlns:xlink="http://www.w3.org/1999/xlink" aria-hidden="true" role="img" class="iconify iconify--ph" width="1em" height="1em" preserveAspectRatio="xMidYMid meet" viewBox="0 0 256 256"><path fill="currentColor" d="M216 52H40a12 12 0 0 0-12 12v158.8a12 12 0 0 0 6.9 10.9a11.7 11.7 0 0 0 5.1 1.1a11.6 11.6 0 0 0 7.7-2.8l32.2-27.1a4.1 4.1 0 0 1 2.6-.9H216a12 12 0 0 0 12-12V64a12 12 0 0 0-12-12Zm4 140a4 4 0 0 1-4 4H82.5a12 12 0 0 0-7.7 2.8l-32.2 27.1a4 4 0 0 1-6.6-3.1V64a4 4 0 0 1 4-4h176a4 4 0 0 1 4 4ZM88 128a8 8 0 1 1-8-8a8 8 0 0 1 8 8Zm48 0a8 8 0 1 1-8-8a8 8 0 0 1 8 8Zm48 0a8 8 0 1 1-8-8a8 8 0 0 1 8 8Z"></path></svg>