<svg xmlns="http://www.w3.org/2000/svg" xmlns:xlink="http://www.w3.org/1999/xlink" aria-hidden="true" role="img" class="iconify iconify--ph" width="1em" height="1em" preserveAspectRatio="xMidYMid meet" viewBox="0 0 256 256"><path fill="currentColor" d="M216 48H40a16 16 0 0 0-16 16v158.8a15.7 15.7 0 0 0 9.3 14.5a14.7 14.7 0 0 0 6.7 1.6a16 16 0 0 0 10.3-3.8l31.8-26.7L216 208a16 16 0 0 0 16-16V64a16 16 0 0 0-16-16ZM80 140a12 12 0 1 1 12-12a12 12 0 0 1-12 12Zm48 0a12 12 0 1 1 12-12a12 12 0 0 1-12 12Zm48 0a12 12 0 1 1 12-12a12 12 0 0 1-12 12Z"></path></svg>