<svg xmlns="http://www.w3.org/2000/svg" xmlns:xlink="http://www.w3.org/1999/xlink" aria-hidden="true" role="img" class="iconify iconify--ph" width="1em" height="1em" preserveAspectRatio="xMidYMid meet" viewBox="0 0 256 256"><path fill="currentColor" d="M172.3 68.9A84 84 0 0 0 12 104v66a18.1 18.1 0 0 0 18 18h54.1a84.3 84.3 0 0 0 75.9 48h66a18.1 18.1 0 0 0 18-18v-66a84 84 0 0 0-71.7-83.1ZM36 104a60 60 0 1 1 60 60H36Zm184 108h-60a60.2 60.2 0 0 1-49-25.4a84.1 84.1 0 0 0 69-82.6a81.4 81.4 0 0 0-.5-8.7A59.9 59.9 0 0 1 220 152Z"></path></svg>