<svg xmlns="http://www.w3.org/2000/svg" xmlns:xlink="http://www.w3.org/1999/xlink" aria-hidden="true" role="img" class="iconify iconify--ph" width="1em" height="1em" preserveAspectRatio="xMidYMid meet" viewBox="0 0 256 256"><path fill="currentColor" d="M236 96a20.1 20.1 0 0 0-20-20h-28V48a20.1 20.1 0 0 0-20-20H40a20.1 20.1 0 0 0-20 20v128a12 12 0 0 0 12 12a11.5 11.5 0 0 0 7.5-2.7l28.5-23V184a20.1 20.1 0 0 0 20 20h92.2l36.3 29.3a11.5 11.5 0 0 0 7.5 2.7a12 12 0 0 0 12-12ZM44 150.9V52h120v80H71.6a11.8 11.8 0 0 0-7.6 2.7Zm148 31.8a11.8 11.8 0 0 0-7.6-2.7H92v-24h76a20.1 20.1 0 0 0 20-20v-36h24v98.9Z"></path></svg>