<svg xmlns="http://www.w3.org/2000/svg" xmlns:xlink="http://www.w3.org/1999/xlink" aria-hidden="true" role="img" class="iconify iconify--ph" width="1em" height="1em" preserveAspectRatio="xMidYMid meet" viewBox="0 0 256 256"><path fill="currentColor" d="M132 28a96.2 96.2 0 0 0-96 96v84.3A11.7 11.7 0 0 0 47.7 220H132a96 96 0 0 0 0-192Zm0 184H47.7a3.6 3.6 0 0 1-3.7-3.7V124a88 88 0 1 1 88 88Zm-40-84a8 8 0 1 1-8-8a8 8 0 0 1 8 8Zm48 0a8 8 0 1 1-8-8a8 8 0 0 1 8 8Zm48 0a8 8 0 1 1-8-8a8 8 0 0 1 8 8Z"></path></svg>