<svg xmlns="http://www.w3.org/2000/svg" xmlns:xlink="http://www.w3.org/1999/xlink" aria-hidden="true" role="img" class="iconify iconify--ph" width="1em" height="1em" preserveAspectRatio="xMidYMid meet" viewBox="0 0 256 256"><path fill="currentColor" d="M132 24A100.2 100.2 0 0 0 32 124v84.3A15.7 15.7 0 0 0 47.7 224H132a100 100 0 0 0 0-200Zm0 184H48v-84a84 84 0 1 1 84 84Zm36-96a8 8 0 0 1-8 8h-60a8 8 0 0 1 0-16h60a8 8 0 0 1 8 8Zm0 32a8 8 0 0 1-8 8h-60a8 8 0 0 1 0-16h60a8 8 0 0 1 8 8Z"></path></svg>