<svg xmlns="http://www.w3.org/2000/svg" xmlns:xlink="http://www.w3.org/1999/xlink" aria-hidden="true" role="img" class="iconify iconify--ph" width="1em" height="1em" preserveAspectRatio="xMidYMid meet" viewBox="0 0 256 256"><path fill="currentColor" d="M230 96a14 14 0 0 0-14-14h-34V48a14 14 0 0 0-14-14H40a14 14 0 0 0-14 14v128a6 6 0 0 0 3.4 5.4a5.8 5.8 0 0 0 2.6.6a6.7 6.7 0 0 0 3.8-1.3L73.7 150h.3v34a14 14 0 0 0 14 14h94.3l37.9 30.7a6.7 6.7 0 0 0 3.8 1.3a5.8 5.8 0 0 0 2.6-.6a6 6 0 0 0 3.4-5.4ZM71.6 138a6.5 6.5 0 0 0-3.8 1.3L38 163.4V48a2 2 0 0 1 2-2h128a2 2 0 0 1 2 2v88a2 2 0 0 1-2 2Zm116.6 49.3a6.5 6.5 0 0 0-3.8-1.3H88a2 2 0 0 1-2-2v-34h82a14 14 0 0 0 14-14V94h34a2 2 0 0 1 2 2v115.4Z"></path></svg>