<svg xmlns="http://www.w3.org/2000/svg" xmlns:xlink="http://www.w3.org/1999/xlink" aria-hidden="true" role="img" class="iconify iconify--ph" width="1em" height="1em" preserveAspectRatio="xMidYMid meet" viewBox="0 0 256 256"><path fill="currentColor" d="M216 50H40a14 14 0 0 0-14 14v158.8a13.9 13.9 0 0 0 8.1 12.7a13.7 13.7 0 0 0 5.9 1.3a13.9 13.9 0 0 0 9-3.3l32.2-27a2.1 2.1 0 0 1 1.3-.5H216a14 14 0 0 0 14-14V64a14 14 0 0 0-14-14Zm2 142a2 2 0 0 1-2 2H82.5a14.1 14.1 0 0 0-9 3.3l-32.2 27.1a2.1 2.1 0 0 1-3.3-1.6V64a2 2 0 0 1 2-2h176a2 2 0 0 1 2 2ZM90 128a10 10 0 1 1-10-10a10 10 0 0 1 10 10Zm48 0a10 10 0 1 1-10-10a10 10 0 0 1 10 10Zm48 0a10 10 0 1 1-10-10a10 10 0 0 1 10 10Z"></path></svg>