<svg xmlns="http://www.w3.org/2000/svg" xmlns:xlink="http://www.w3.org/1999/xlink" aria-hidden="true" role="img" class="iconify iconify--ph" width="1em" height="1em" preserveAspectRatio="xMidYMid meet" viewBox="0 0 256 256"><path fill="currentColor" d="M216 42H40a14 14 0 0 0-14 14v128a14 14 0 0 0 14 14h59.5a2.1 2.1 0 0 1 1.7 1l14.8 24.7a14 14 0 0 0 24 0l14.8-24.7a2.1 2.1 0 0 1 1.7-1H216a14 14 0 0 0 14-14V56a14 14 0 0 0-14-14Zm2 142a2 2 0 0 1-2 2h-59.5a14 14 0 0 0-12 6.8l-14.8 24.7a1.9 1.9 0 0 1-3.4 0l-14.8-24.7a14 14 0 0 0-12-6.8H40a2 2 0 0 1-2-2V56a2 2 0 0 1 2-2h176a2 2 0 0 1 2 2ZM90 120a10 10 0 1 1-10-10a10 10 0 0 1 10 10Zm48 0a10 10 0 1 1-10-10a10 10 0 0 1 10 10Zm48 0a10 10 0 1 1-10-10a10 10 0 0 1 10 10Z"></path></svg>