<svg xmlns="http://www.w3.org/2000/svg" xmlns:xlink="http://www.w3.org/1999/xlink" aria-hidden="true" role="img" class="iconify iconify--ph" width="1em" height="1em" preserveAspectRatio="xMidYMid meet" viewBox="0 0 256 256"><path fill="currentColor" d="M132 20A104.1 104.1 0 0 0 28 124v84.3A19.7 19.7 0 0 0 47.7 228H132a104 104 0 0 0 0-208Zm0 184H52v-80a80 80 0 1 1 80 80Zm40-96a12 12 0 0 1-12 12h-60a12 12 0 0 1 0-24h60a12 12 0 0 1 12 12Zm0 40a12 12 0 0 1-12 12h-60a12 12 0 0 1 0-24h60a12 12 0 0 1 12 12Z"></path></svg>