<svg xmlns="http://www.w3.org/2000/svg" xmlns:xlink="http://www.w3.org/1999/xlink" aria-hidden="true" role="img" class="iconify iconify--ph" width="1em" height="1em" preserveAspectRatio="xMidYMid meet" viewBox="0 0 256 256"><path fill="currentColor" d="M168.2 74.4A78 78 0 0 0 18 104v66a12 12 0 0 0 12 12h58a78 78 0 0 0 72 48h66a12 12 0 0 0 12-12v-66a78 78 0 0 0-69.8-77.6ZM30 104a66 66 0 1 1 66 66H30Zm196 114h-66a66 66 0 0 1-58.9-36.2A78.1 78.1 0 0 0 174 104a78.9 78.9 0 0 0-1.9-16.9A66 66 0 0 1 226 152Z"></path></svg>