<svg xmlns="http://www.w3.org/2000/svg" xmlns:xlink="http://www.w3.org/1999/xlink" aria-hidden="true" role="img" class="iconify iconify--ph" width="1em" height="1em" preserveAspectRatio="xMidYMid meet" viewBox="0 0 256 256"><path fill="currentColor" d="m78 201.3l-32.9 27.6a8 8 0 0 1-13.1-6.1V64a8 8 0 0 1 8-8h176a8 8 0 0 1 8 8v128a8 8 0 0 1-8 8H81.7Z" opacity=".2"></path><path fill="currentColor" d="M216 48H40a16 16 0 0 0-16 16v158.8a15.7 15.7 0 0 0 9.2 14.5a16.5 16.5 0 0 0 6.8 1.6a16 16 0 0 0 10.3-3.8L82 208.4l1.1-.4H216a16 16 0 0 0 16-16V64a16 16 0 0 0-16-16Zm0 144H81.7a8.7 8.7 0 0 0-2.8.5l-3.7 1.3a10 10 0 0 0-2.4 1.4L40 222.8V64h176Z"></path><path fill="currentColor" d="M96 120h64a8 8 0 0 0 0-16H96a8 8 0 0 0 0 16Zm0 32h64a8 8 0 0 0 0-16H96a8 8 0 0 0 0 16Z"></path></svg>