<svg xmlns="http://www.w3.org/2000/svg" xmlns:xlink="http://www.w3.org/1999/xlink" aria-hidden="true" role="img" class="iconify iconify--ph" width="1em" height="1em" preserveAspectRatio="xMidYMid meet" viewBox="0 0 256 256"><path fill="currentColor" d="M132 26a98.2 98.2 0 0 0-98 98v84.3A13.7 13.7 0 0 0 47.7 222H132a98 98 0 0 0 0-196Zm0 184H47.7a1.7 1.7 0 0 1-1.7-1.7V124a86 86 0 1 1 86 86Zm-38-82a10 10 0 1 1-10-10a10 10 0 0 1 10 10Zm48 0a10 10 0 1 1-10-10a10 10 0 0 1 10 10Zm48 0a10 10 0 1 1-10-10a10 10 0 0 1 10 10Z"></path></svg>