<svg xmlns="http://www.w3.org/2000/svg" xmlns:xlink="http://www.w3.org/1999/xlink" aria-hidden="true" role="img" class="iconify iconify--ph" width="1em" height="1em" preserveAspectRatio="xMidYMid meet" viewBox="0 0 256 256"><path fill="currentColor" d="M230.5 189.8a80 80 0 0 0-60.9-117.2a80 80 0 1 0-144.1 69.2l-6.2 21.6a13.9 13.9 0 0 0 17.3 17.3l21.6-6.2a80.8 80.8 0 0 0 28.2 8.9a80 80 0 0 0 111.4 39.1l21.6 6.2a13.9 13.9 0 0 0 17.3-17.3Zm-15.4-5.1a7.6 7.6 0 0 0-.9 6.2l6.2 21.5l-21.4-6.2a7.7 7.7 0 0 0-6.3.9a64.2 64.2 0 0 1-88.4-23.5A80.2 80.2 0 0 0 176 104a84.5 84.5 0 0 0-1.3-14.3A64 64 0 0 1 224 152a64.8 64.8 0 0 1-8.9 32.7Z"></path></svg>