<svg xmlns="http://www.w3.org/2000/svg" xmlns:xlink="http://www.w3.org/1999/xlink" aria-hidden="true" role="img" class="iconify iconify--ph" width="1em" height="1em" preserveAspectRatio="xMidYMid meet" viewBox="0 0 256 256"><path fill="currentColor" d="M40 236.8a13.7 13.7 0 0 1-5.9-1.3a13.9 13.9 0 0 1-8.1-12.7V64a14 14 0 0 1 14-14h176a14 14 0 0 1 14 14v128a14 14 0 0 1-14 14H82.5a2.1 2.1 0 0 0-1.3.5l-32.2 27a13.9 13.9 0 0 1-9 3.3ZM40 62a2 2 0 0 0-2 2v158.8a2.1 2.1 0 0 0 3.3 1.6l32.2-27.1a14.1 14.1 0 0 1 9-3.3H216a2 2 0 0 0 2-2V64a2 2 0 0 0-2-2Zm37.4 139.9Z"></path></svg>