<svg xmlns="http://www.w3.org/2000/svg" xmlns:xlink="http://www.w3.org/1999/xlink" aria-hidden="true" role="img" class="iconify iconify--ph" width="1em" height="1em" preserveAspectRatio="xMidYMid meet" viewBox="0 0 256 256"><path fill="currentColor" d="M128 236a107.9 107.9 0 0 1-50.5-12.5l-28.4 8.1a20 20 0 0 1-24.7-24.7l8.1-28.4A108 108 0 1 1 128 236Zm-49-37.4a11 11 0 0 1 6.1 1.7A85.1 85.1 0 0 0 128 212a84 84 0 1 0-84-84a85.1 85.1 0 0 0 11.7 42.9a11.9 11.9 0 0 1 1.3 9.4l-7.5 26.2l26.2-7.5a12.4 12.4 0 0 1 3.3-.4Z"></path></svg>