<svg xmlns="http://www.w3.org/2000/svg" xmlns:xlink="http://www.w3.org/1999/xlink" aria-hidden="true" role="img" class="iconify iconify--ph" width="1em" height="1em" preserveAspectRatio="xMidYMid meet" viewBox="0 0 256 256"><path fill="currentColor" d="M128 24a104 104 0 0 0-91.2 154l-8.5 29.9a16.1 16.1 0 0 0 4 15.8a15.8 15.8 0 0 0 15.7 4l30-8.5A104 104 0 1 0 128 24ZM80 140a12 12 0 1 1 12-12a12 12 0 0 1-12 12Zm48 0a12 12 0 1 1 12-12a12 12 0 0 1-12 12Zm48 0a12 12 0 1 1 12-12a12 12 0 0 1-12 12Z"></path></svg>