<svg xmlns="http://www.w3.org/2000/svg" xmlns:xlink="http://www.w3.org/1999/xlink" aria-hidden="true" role="img" class="iconify iconify--ph" width="1em" height="1em" preserveAspectRatio="xMidYMid meet" viewBox="0 0 256 256"><path fill="currentColor" d="M166.8 76.3A76 76 0 0 0 20 104v66a10 10 0 0 0 10 10h59.3a76.3 76.3 0 0 0 70.7 48h66a10 10 0 0 0 10-10v-66a75.9 75.9 0 0 0-69.2-75.7ZM28 170v-66a68 68 0 1 1 68 68H30a2 2 0 0 1-2-2Zm200 48a2 2 0 0 1-2 2h-66a68.1 68.1 0 0 1-62-40.1a75.9 75.9 0 0 0 71.5-95.2A67.9 67.9 0 0 1 228 152Z"></path></svg>