<svg xmlns="http://www.w3.org/2000/svg" xmlns:xlink="http://www.w3.org/1999/xlink" aria-hidden="true" role="img" class="iconify iconify--ph" width="1em" height="1em" preserveAspectRatio="xMidYMid meet" viewBox="0 0 256 256"><path fill="currentColor" d="M84 100a12 12 0 0 1 12-12h64a12 12 0 0 1 0 24H96a12 12 0 0 1-12-12Zm12 52h64a12 12 0 0 0 0-24H96a12 12 0 0 0 0 24Zm140-96v128a20.1 20.1 0 0 1-20 20h-57.2l-13.6 22.7a20 20 0 0 1-17.2 9.8a19.7 19.7 0 0 1-17.1-9.8L97.2 204H40a20.1 20.1 0 0 1-20-20V56a20.1 20.1 0 0 1 20-20h176a20.1 20.1 0 0 1 20 20Zm-24 4H44v120h55.5a20 20 0 0 1 17.1 9.7l11.4 19l11.4-19a20.1 20.1 0 0 1 17.1-9.7H212Z"></path></svg>