<svg xmlns="http://www.w3.org/2000/svg" xmlns:xlink="http://www.w3.org/1999/xlink" aria-hidden="true" role="img" class="iconify iconify--ph" width="1em" height="1em" preserveAspectRatio="xMidYMid meet" viewBox="0 0 256 256"><path fill="currentColor" d="M45.4 177A95.9 95.9 0 1 1 79 210.6L45.8 220a7.9 7.9 0 0 1-9.8-9.8l9.4-33.2Z" opacity=".2"></path><path fill="currentColor" d="M128 24a104 104 0 0 0-91.2 154l-8.5 30A15.9 15.9 0 0 0 48 227.7l30-8.5A104 104 0 1 0 128 24Zm0 192a88.4 88.4 0 0 1-44.9-12.3a8.7 8.7 0 0 0-4.1-1.1a8.3 8.3 0 0 0-2.2.3l-33.2 9.5l9.5-33.2a8.2 8.2 0 0 0-.8-6.3A88 88 0 1 1 128 216Z"></path><circle cx="128" cy="128" r="12" fill="currentColor"></circle><circle cx="80" cy="128" r="12" fill="currentColor"></circle><circle cx="176" cy="128" r="12" fill="currentColor"></circle></svg>