<svg xmlns="http://www.w3.org/2000/svg" xmlns:xlink="http://www.w3.org/1999/xlink" aria-hidden="true" role="img" class="iconify iconify--ph" width="1em" height="1em" preserveAspectRatio="xMidYMid meet" viewBox="0 0 256 256"><path fill="currentColor" d="M216 40H40a16 16 0 0 0-16 16v128a16 16 0 0 0 16 16h59.5l14.8 24.7a15.9 15.9 0 0 0 27.4 0l14.8-24.7H216a16 16 0 0 0 16-16V56a16 16 0 0 0-16-16ZM80 132a12 12 0 1 1 12-12a12 12 0 0 1-12 12Zm48 0a12 12 0 1 1 12-12a12 12 0 0 1-12 12Zm48 0a12 12 0 1 1 12-12a12 12 0 0 1-12 12Z"></path></svg>