<svg xmlns="http://www.w3.org/2000/svg" xmlns:xlink="http://www.w3.org/1999/xlink" aria-hidden="true" role="img" class="iconify iconify--ph" width="1em" height="1em" preserveAspectRatio="xMidYMid meet" viewBox="0 0 256 256"><path fill="currentColor" d="M132 216H47.7a7.6 7.6 0 0 1-7.7-7.7V124a92 92 0 0 1 92-92a92 92 0 0 1 92 92a92 92 0 0 1-92 92Z" opacity=".2"></path><path fill="currentColor" d="M132 24A100.2 100.2 0 0 0 32 124v84.3A15.7 15.7 0 0 0 47.7 224H132a100 100 0 0 0 0-200Zm0 184H48v-84a84 84 0 1 1 84 84Z"></path><path fill="currentColor" d="M160 104h-60a8 8 0 0 0 0 16h60a8 8 0 0 0 0-16Zm0 32h-60a8 8 0 0 0 0 16h60a8 8 0 0 0 0-16Z"></path></svg>