<svg xmlns="http://www.w3.org/2000/svg" xmlns:xlink="http://www.w3.org/1999/xlink" aria-hidden="true" role="img" class="iconify iconify--ph" width="1em" height="1em" preserveAspectRatio="xMidYMid meet" viewBox="0 0 256 256"><path fill="currentColor" d="m149.7 195.9l-14.8 24.7a8.1 8.1 0 0 1-13.8 0l-14.8-24.7a7.9 7.9 0 0 0-6.8-3.9H40a8 8 0 0 1-8-8V56a8 8 0 0 1 8-8h176a8 8 0 0 1 8 8v128a8 8 0 0 1-8 8h-59.5a7.9 7.9 0 0 0-6.8 3.9Z" opacity=".2"></path><path fill="currentColor" d="M96 112h64a8 8 0 0 0 0-16H96a8 8 0 0 0 0 16Zm0 32h64a8 8 0 0 0 0-16H96a8 8 0 0 0 0 16Z"></path><path fill="currentColor" d="M216 40H40a16 16 0 0 0-16 16v128a16 16 0 0 0 16 16h59.5l14.8 24.7a15.9 15.9 0 0 0 27.4 0l14.8-24.7H216a16 16 0 0 0 16-16V56a16 16 0 0 0-16-16Zm0 144h-59.5a16.2 16.2 0 0 0-13.7 7.8L128 216.5l-14.8-24.7a16.1 16.1 0 0 0-13.7-7.8H40V56h176Z"></path></svg>