<svg xmlns="http://www.w3.org/2000/svg" xmlns:xlink="http://www.w3.org/1999/xlink" aria-hidden="true" role="img" class="iconify iconify--ph" width="1em" height="1em" preserveAspectRatio="xMidYMid meet" viewBox="0 0 256 256"><path fill="currentColor" d="M216 44H40a20.1 20.1 0 0 0-20 20v158.8A19.9 19.9 0 0 0 31.6 241a21 21 0 0 0 8.5 1.9a19.6 19.6 0 0 0 12.8-4.8L84 212h132a20.1 20.1 0 0 0 20-20V64a20.1 20.1 0 0 0-20-20Zm-4 144H81.7a11.4 11.4 0 0 0-4.1.7l-3.7 1.4a10 10 0 0 0-3.6 2.1l-26.3 22V68h168ZM84 108a12 12 0 0 1 12-12h64a12 12 0 0 1 0 24H96a12 12 0 0 1-12-12Zm0 40a12 12 0 0 1 12-12h64a12 12 0 0 1 0 24H96a12 12 0 0 1-12-12Z"></path></svg>