<svg xmlns="http://www.w3.org/2000/svg" xmlns:xlink="http://www.w3.org/1999/xlink" aria-hidden="true" role="img" class="iconify iconify--ph" width="1em" height="1em" preserveAspectRatio="xMidYMid meet" viewBox="0 0 256 256"><path fill="currentColor" d="M128 20a108.1 108.1 0 0 0-95.5 158.5l-8.1 28.4a20 20 0 0 0 24.7 24.7l28.4-8.1A108 108 0 1 0 128 20Zm0 192a85.1 85.1 0 0 1-42.9-11.7a11 11 0 0 0-6.1-1.7a12.4 12.4 0 0 0-3.3.4l-26.2 7.5l7.5-26.2a11.9 11.9 0 0 0-1.3-9.4A85.1 85.1 0 0 1 44 128a84 84 0 1 1 84 84Zm44-104a12 12 0 0 1-12 12H96a12 12 0 0 1 0-24h64a12 12 0 0 1 12 12Zm0 40a12 12 0 0 1-12 12H96a12 12 0 0 1 0-24h64a12 12 0 0 1 12 12Z"></path></svg>