<svg xmlns="http://www.w3.org/2000/svg" xmlns:xlink="http://www.w3.org/1999/xlink" aria-hidden="true" role="img" class="iconify iconify--ph" width="1em" height="1em" preserveAspectRatio="xMidYMid meet" viewBox="0 0 256 256"><path fill="currentColor" d="M216 48H40a16 16 0 0 0-16 16v158.8a15.7 15.7 0 0 0 9.2 14.5a15.1 15.1 0 0 0 6.8 1.6a16 16 0 0 0 10.3-3.8L82.5 208H216a16 16 0 0 0 16-16V64a16 16 0 0 0-16-16Zm0 144H82.5a15.6 15.6 0 0 0-10.3 3.8l-32.2 27V64h176Zm-100-64a12 12 0 1 1 12 12a12 12 0 0 1-12-12Zm-48 0a12 12 0 1 1 12 12a12 12 0 0 1-12-12Zm96 0a12 12 0 1 1 12 12a12 12 0 0 1-12-12Z"></path></svg>