<svg xmlns="http://www.w3.org/2000/svg" xmlns:xlink="http://www.w3.org/1999/xlink" aria-hidden="true" role="img" class="iconify iconify--ph" width="1em" height="1em" preserveAspectRatio="xMidYMid meet" viewBox="0 0 256 256"><path fill="currentColor" d="M40 234.8a11.7 11.7 0 0 1-5.1-1.1a12 12 0 0 1-6.9-10.9V64a12 12 0 0 1 12-12h176a12 12 0 0 1 12 12v128a12 12 0 0 1-12 12H82.5a4.1 4.1 0 0 0-2.6.9L47.7 232a11.6 11.6 0 0 1-7.7 2.8ZM40 60a4 4 0 0 0-4 4v158.8a4 4 0 0 0 6.6 3.1l32.2-27.1a12 12 0 0 1 7.7-2.8H216a4 4 0 0 0 4-4V64a4 4 0 0 0-4-4Z"></path></svg>