<svg xmlns="http://www.w3.org/2000/svg" xmlns:xlink="http://www.w3.org/1999/xlink" aria-hidden="true" role="img" class="iconify iconify--ph" width="1em" height="1em" preserveAspectRatio="xMidYMid meet" viewBox="0 0 256 256"><path fill="currentColor" d="M228.4 189.5a78 78 0 0 0-60.2-115.1a78 78 0 1 0-140.6 67.1L21.2 164A12 12 0 0 0 36 178.8l22.5-6.4a77.3 77.3 0 0 0 29.3 9.2a78 78 0 0 0 109.7 38.8l22.5 6.4a11.9 11.9 0 0 0 14.8-14.8ZM59.3 159.9a4.7 4.7 0 0 0-1.7.3l-24.9 7.1l7.1-24.9a5.6 5.6 0 0 0-.6-4.7a65.9 65.9 0 1 1 23.1 23.1a5.5 5.5 0 0 0-3-.9Zm156.9 30.5l7.1 24.9l-24.9-7.1a5.6 5.6 0 0 0-4.7.6a66.1 66.1 0 0 1-92.6-27A78.1 78.1 0 0 0 174 104a78.9 78.9 0 0 0-1.9-16.9a66.1 66.1 0 0 1 44.7 98.6a5.6 5.6 0 0 0-.6 4.7Z"></path></svg>