<svg xmlns="http://www.w3.org/2000/svg" xmlns:xlink="http://www.w3.org/1999/xlink" aria-hidden="true" role="img" class="iconify iconify--ph" width="1em" height="1em" preserveAspectRatio="xMidYMid meet" viewBox="0 0 256 256"><path fill="currentColor" d="M226.2 189.3a76 76 0 0 0-59.4-113a76 76 0 1 0-137 65l-6.7 23.2a10.1 10.1 0 0 0 12.4 12.4l23.2-6.7a76.6 76.6 0 0 0 30.5 9.5a76 76 0 0 0 108.1 38.5l23.2 6.7a10.1 10.1 0 0 0 12.4-12.4ZM59.3 161.9l-1.1.2l-24.9 7.1a2 2 0 0 1-2.5-2.5l7.1-24.8a4 4 0 0 0-.4-3.2a68 68 0 1 1 23.8 23.8a3.6 3.6 0 0 0-2-.6Zm165.4 54.8a2.2 2.2 0 0 1-2 .5l-24.9-7.1a3.8 3.8 0 0 0-3.1.4A68.1 68.1 0 0 1 98 180a76 76 0 0 0 71.5-95.3a68 68 0 0 1 49 102a3.8 3.8 0 0 0-.4 3.1l7.1 24.9a2.2 2.2 0 0 1-.5 2Z"></path></svg>