<svg xmlns="http://www.w3.org/2000/svg" xmlns:xlink="http://www.w3.org/1999/xlink" aria-hidden="true" role="img" class="iconify iconify--ph" width="1em" height="1em" preserveAspectRatio="xMidYMid meet" viewBox="0 0 256 256"><path fill="currentColor" d="M228 96a12 12 0 0 0-12-12h-36V48a12 12 0 0 0-12-12H40a12 12 0 0 0-12 12v128a4.1 4.1 0 0 0 2.3 3.6a3.3 3.3 0 0 0 1.7.4a3.8 3.8 0 0 0 2.5-.9L73 148h3v36a12 12 0 0 0 12 12h95l38.5 31.1a3.8 3.8 0 0 0 2.5.9a3.3 3.3 0 0 0 1.7-.4a4.1 4.1 0 0 0 2.3-3.6ZM71.6 140a3.8 3.8 0 0 0-2.5.9L36 167.6V48a4 4 0 0 1 4-4h128a4 4 0 0 1 4 4v88a4 4 0 0 1-4 4Zm115.3 48.9a3.8 3.8 0 0 0-2.5-.9H88a4 4 0 0 1-4-4v-36h84a12 12 0 0 0 12-12V92h36a4 4 0 0 1 4 4v119.6Z"></path></svg>