<svg xmlns="http://www.w3.org/2000/svg" xmlns:xlink="http://www.w3.org/1999/xlink" aria-hidden="true" role="img" class="iconify iconify--ph" width="1em" height="1em" preserveAspectRatio="xMidYMid meet" viewBox="0 0 256 256"><path fill="currentColor" d="M128 236.4a19.6 19.6 0 0 1-17.1-9.7L97.2 204H40a20.1 20.1 0 0 1-20-20V56a20.1 20.1 0 0 1 20-20h176a20.1 20.1 0 0 1 20 20v128a20.1 20.1 0 0 1-20 20h-57.2l-13.6 22.7a19.9 19.9 0 0 1-17.2 9.7ZM44 180h55.5a20 20 0 0 1 17.1 9.7l11.4 19l11.4-19a20.1 20.1 0 0 1 17.1-9.7H212V60H44Z"></path></svg>