<svg xmlns="http://www.w3.org/2000/svg" xmlns:xlink="http://www.w3.org/1999/xlink" aria-hidden="true" role="img" class="iconify iconify--ph" width="1em" height="1em" preserveAspectRatio="xMidYMid meet" viewBox="0 0 256 256"><path fill="currentColor" d="M128 228.4a11.7 11.7 0 0 1-10.3-5.8l-14.8-24.7a3.9 3.9 0 0 0-3.4-1.9H40a12 12 0 0 1-12-12V56a12 12 0 0 1 12-12h176a12 12 0 0 1 12 12v128a12 12 0 0 1-12 12h-59.5a3.9 3.9 0 0 0-3.4 1.9l-14.8 24.7a11.7 11.7 0 0 1-10.3 5.8ZM40 52a4 4 0 0 0-4 4v128a4 4 0 0 0 4 4h59.5a12.1 12.1 0 0 1 10.3 5.8l14.8 24.7a4 4 0 0 0 6.8 0l14.8-24.7a12.1 12.1 0 0 1 10.3-5.8H216a4 4 0 0 0 4-4V56a4 4 0 0 0-4-4Z"></path></svg>