<svg xmlns="http://www.w3.org/2000/svg" xmlns:xlink="http://www.w3.org/1999/xlink" aria-hidden="true" role="img" class="iconify iconify--ph" width="1em" height="1em" preserveAspectRatio="xMidYMid meet" viewBox="0 0 256 256"><path fill="currentColor" d="m78 201.3l-32.9 27.6a8 8 0 0 1-13.1-6.1V64a8 8 0 0 1 8-8h176a8 8 0 0 1 8 8v128a8 8 0 0 1-8 8H81.7Z" opacity=".2"></path><path fill="currentColor" d="M40 238.8a16.4 16.4 0 0 1-6.8-1.5a15.7 15.7 0 0 1-9.2-14.5V64a16 16 0 0 1 16-16h176a16 16 0 0 1 16 16v128a16 16 0 0 1-16 16H82.5l-5.2-6.1l5.2 6.1l-32.2 27.1a15.9 15.9 0 0 1-10.3 3.7ZM40 64v158.8l32.2-27a15.6 15.6 0 0 1 10.3-3.8H216V64Z"></path></svg>