<svg xmlns="http://www.w3.org/2000/svg" xmlns:xlink="http://www.w3.org/1999/xlink" aria-hidden="true" role="img" class="iconify iconify--ph" width="1em" height="1em" preserveAspectRatio="xMidYMid meet" viewBox="0 0 256 256"><path fill="currentColor" d="M216 36H40a20.1 20.1 0 0 0-20 20v128a20.1 20.1 0 0 0 20 20h57.2l13.7 22.7a19.7 19.7 0 0 0 17.1 9.8a20 20 0 0 0 17.2-9.8l13.6-22.7H216a20.1 20.1 0 0 0 20-20V56a20.1 20.1 0 0 0-20-20Zm-4 144h-55.5a20.1 20.1 0 0 0-17.1 9.7l-11.4 19l-11.4-19a20 20 0 0 0-17.1-9.7H44V60h168ZM84 120a16 16 0 1 1 16 16a16 16 0 0 1-16-16Zm56 0a16 16 0 1 1 16 16a16 16 0 0 1-16-16Z"></path></svg>