<svg xmlns="http://www.w3.org/2000/svg" xmlns:xlink="http://www.w3.org/1999/xlink" aria-hidden="true" role="img" class="iconify iconify--ph" width="1em" height="1em" preserveAspectRatio="xMidYMid meet" viewBox="0 0 256 256"><path fill="currentColor" d="M216 50H40a14 14 0 0 0-14 14v158.8a13.9 13.9 0 0 0 8.1 12.7a13.7 13.7 0 0 0 5.9 1.3a13.9 13.9 0 0 0 9-3.3l32-26.9l1.7-.6H216a14 14 0 0 0 14-14V64a14 14 0 0 0-14-14Zm2 142a2 2 0 0 1-2 2H81.7a5.2 5.2 0 0 0-2.1.4l-3.7 1.3a5.8 5.8 0 0 0-1.8 1.1l-32.8 27.6a2.1 2.1 0 0 1-3.3-1.6V64a2 2 0 0 1 2-2h176a2 2 0 0 1 2 2Zm-52-80a6 6 0 0 1-6 6H96a6 6 0 0 1 0-12h64a6 6 0 0 1 6 6Zm0 32a6 6 0 0 1-6 6H96a6 6 0 0 1 0-12h64a6 6 0 0 1 6 6Z"></path></svg>