<svg xmlns="http://www.w3.org/2000/svg" xmlns:xlink="http://www.w3.org/1999/xlink" aria-hidden="true" role="img" class="iconify iconify--ph" width="1em" height="1em" preserveAspectRatio="xMidYMid meet" viewBox="0 0 256 256"><path fill="currentColor" d="M163.9 80.1A70.2 70.2 0 0 1 168 104a72 72 0 0 1-72 72h-3.9a72 72 0 0 0 67.9 48h66a6 6 0 0 0 6-6v-66a72 72 0 0 0-68.1-71.9Z" opacity=".2"></path><path fill="currentColor" d="M169.6 72.6A80 80 0 0 0 16 104v66a14 14 0 0 0 14 14h56.7a80.2 80.2 0 0 0 73.3 48h66a14 14 0 0 0 14-14v-66a79.8 79.8 0 0 0-70.4-79.4ZM32 104a64 64 0 1 1 64 64H32Zm192 112h-64a64.2 64.2 0 0 1-55.7-32.4A80.2 80.2 0 0 0 176 104a83.6 83.6 0 0 0-1.3-14.3A64 64 0 0 1 224 152Z"></path></svg>