<svg xmlns="http://www.w3.org/2000/svg" xmlns:xlink="http://www.w3.org/1999/xlink" aria-hidden="true" role="img" class="iconify iconify--ph" width="1em" height="1em" preserveAspectRatio="xMidYMid meet" viewBox="0 0 256 256"><path fill="currentColor" d="M234.8 190.2a84 84 0 0 0-62.5-121.3a84 84 0 1 0-151.1 73.3l-5.8 20.1a18.1 18.1 0 0 0 22.3 22.3l20.1-5.8a81.8 81.8 0 0 0 25.9 8.3a84 84 0 0 0 114.5 39.7l20.1 5.8a18.1 18.1 0 0 0 22.3-22.3ZM59.3 153.9a11.4 11.4 0 0 0-3.3.5l-14.5 4.1l4.1-14.5a12 12 0 0 0-1.2-9.4a60 60 0 1 1 21 21a12.2 12.2 0 0 0-6.1-1.7Zm152.3 28.7a12 12 0 0 0-1.2 9.4l4.1 14.5l-14.5-4.1a12 12 0 0 0-9.4 1.2a60 60 0 0 1-79.6-17a84.1 84.1 0 0 0 69-82.6a83 83 0 0 0-.5-8.7a59.9 59.9 0 0 1 32.1 87.3Z"></path></svg>