<svg xmlns="http://www.w3.org/2000/svg" xmlns:xlink="http://www.w3.org/1999/xlink" aria-hidden="true" role="img" class="iconify iconify--ph" width="1em" height="1em" preserveAspectRatio="xMidYMid meet" viewBox="0 0 256 256"><path fill="currentColor" d="M128 26a102 102 0 0 0-89 151.8l-8.8 30.7a13.9 13.9 0 0 0 17.3 17.3l30.7-8.8A102 102 0 1 0 128 26Zm0 192a89 89 0 0 1-45.9-12.6a6.8 6.8 0 0 0-3.1-.8a4.1 4.1 0 0 0-1.6.2l-33.2 9.5a2 2 0 0 1-2.5-2.5l9.5-33.2a6 6 0 0 0-.6-4.7A90 90 0 1 1 128 218Zm-38-90a10 10 0 1 1-10-10a10 10 0 0 1 10 10Zm48 0a10 10 0 1 1-10-10a10 10 0 0 1 10 10Zm48 0a10 10 0 1 1-10-10a10 10 0 0 1 10 10Z"></path></svg>