<svg xmlns="http://www.w3.org/2000/svg" xmlns:xlink="http://www.w3.org/1999/xlink" aria-hidden="true" role="img" class="iconify iconify--ph" width="1em" height="1em" preserveAspectRatio="xMidYMid meet" viewBox="0 0 256 256"><path fill="currentColor" d="M218 52v152a14 14 0 0 1-14 14h-68.4a6 6 0 0 1 0-12H204a2 2 0 0 0 2-2V52a2 2 0 0 0-2-2H52a2 2 0 0 0-2 2v91.3a6 6 0 0 1-12 0V52a14 14 0 0 1 14-14h152a14 14 0 0 1 14 14Zm-85.8 95.8a5.8 5.8 0 0 0-8.4 0L64 207.5l-27.8-27.7a5.9 5.9 0 1 0-8.4 8.4l32 32a5.8 5.8 0 0 0 8.4 0l64-64a5.8 5.8 0 0 0 0-8.4Z"></path></svg>