<svg xmlns="http://www.w3.org/2000/svg" xmlns:xlink="http://www.w3.org/1999/xlink" aria-hidden="true" role="img" class="iconify iconify--ph" width="1em" height="1em" preserveAspectRatio="xMidYMid meet" viewBox="0 0 256 256"><path fill="currentColor" d="M176.3 99.9a5.9 5.9 0 0 1-.2 8.4l-58.6 56a6.3 6.3 0 0 1-4.2 1.7a5.8 5.8 0 0 1-4.1-1.7l-29.3-28a5.9 5.9 0 0 1 8.2-8.6l25.2 24l54.6-52a5.9 5.9 0 0 1 8.4.2ZM222 48v160a14 14 0 0 1-14 14H48a14 14 0 0 1-14-14V48a14 14 0 0 1 14-14h160a14 14 0 0 1 14 14Zm-12 0a2 2 0 0 0-2-2H48a2 2 0 0 0-2 2v160a2 2 0 0 0 2 2h160a2 2 0 0 0 2-2Z"></path></svg>