<svg xmlns="http://www.w3.org/2000/svg" xmlns:xlink="http://www.w3.org/1999/xlink" aria-hidden="true" role="img" class="iconify iconify--ph" width="1em" height="1em" preserveAspectRatio="xMidYMid meet" viewBox="0 0 256 256"><path fill="currentColor" d="M224 52v152a20.1 20.1 0 0 1-20 20h-68.4a12 12 0 0 1 0-24H200V56H56v87.3a12 12 0 0 1-24 0V52a20.1 20.1 0 0 1 20-20h152a20.1 20.1 0 0 1 20 20Zm-87.5 91.5a12 12 0 0 0-17 0L64 199l-23.5-23.5a12 12 0 0 0-17 17l32 32a12.1 12.1 0 0 0 17 0l64-64a12 12 0 0 0 0-17Z"></path></svg>