<svg xmlns="http://www.w3.org/2000/svg" xmlns:xlink="http://www.w3.org/1999/xlink" aria-hidden="true" role="img" class="iconify iconify--ph" width="1em" height="1em" preserveAspectRatio="xMidYMid meet" viewBox="0 0 256 256"><path fill="currentColor" d="m153.7 89.7l-88 88a8.2 8.2 0 0 1-11.4 0l-44-44a8.1 8.1 0 0 1 11.4-11.4L60 160.7l82.3-82.4a8.1 8.1 0 0 1 11.4 11.4Zm92-11.4a8.1 8.1 0 0 0-11.4 0L152 160.7L134.3 143a8 8 0 0 0-11.3 11.3l23.3 23.4a8.2 8.2 0 0 0 11.4 0l88-88a8.1 8.1 0 0 0 0-11.4Z"></path></svg>