<svg xmlns="http://www.w3.org/2000/svg" xmlns:xlink="http://www.w3.org/1999/xlink" aria-hidden="true" role="img" class="iconify iconify--ph" width="1em" height="1em" preserveAspectRatio="xMidYMid meet" viewBox="0 0 256 256"><path fill="currentColor" d="M174.9 101.2a4.1 4.1 0 0 1-.1 5.7l-58.7 56a4.3 4.3 0 0 1-2.8 1.1a3.9 3.9 0 0 1-2.7-1.1l-29.4-28a4 4 0 1 1 5.6-5.8l26.5 25.4l55.9-53.4a4.1 4.1 0 0 1 5.7.1ZM220 48v160a12 12 0 0 1-12 12H48a12 12 0 0 1-12-12V48a12 12 0 0 1 12-12h160a12 12 0 0 1 12 12Zm-8 0a4 4 0 0 0-4-4H48a4 4 0 0 0-4 4v160a4 4 0 0 0 4 4h160a4 4 0 0 0 4-4Z"></path></svg>