<svg xmlns="http://www.w3.org/2000/svg" xmlns:xlink="http://www.w3.org/1999/xlink" aria-hidden="true" role="img" class="iconify iconify--ph" width="1em" height="1em" preserveAspectRatio="xMidYMid meet" viewBox="0 0 256 256"><path fill="currentColor" d="M216 52v152a12 12 0 0 1-12 12h-68.4a4 4 0 0 1 0-8H204a4 4 0 0 0 4-4V52a4 4 0 0 0-4-4H52a4 4 0 0 0-4 4v91.3a4 4 0 0 1-8 0V52a12 12 0 0 1 12-12h152a12 12 0 0 1 12 12Zm-85.2 97.2a3.9 3.9 0 0 0-5.6 0L64 210.3l-29.2-29.1a4 4 0 0 0-5.6 5.6l32 32a3.9 3.9 0 0 0 5.6 0l64-64a3.9 3.9 0 0 0 0-5.6Z"></path></svg>