<svg xmlns="http://www.w3.org/2000/svg" xmlns:xlink="http://www.w3.org/1999/xlink" aria-hidden="true" role="img" class="iconify iconify--ph" width="1em" height="1em" preserveAspectRatio="xMidYMid meet" viewBox="0 0 256 256"><path fill="currentColor" d="m152.2 88.2l-88 88a5.8 5.8 0 0 1-8.4 0l-44-44a5.8 5.8 0 0 1 0-8.4a5.8 5.8 0 0 1 8.4 0L60 163.5l83.8-83.7a5.9 5.9 0 0 1 8.4 8.4Zm92-8.4a5.8 5.8 0 0 0-8.4 0L152 163.5l-19.1-19.1a6 6 0 0 0-8.5 8.5l23.4 23.3a5.8 5.8 0 0 0 8.4 0l88-88a5.8 5.8 0 0 0 0-8.4Z"></path></svg>