<svg xmlns="http://www.w3.org/2000/svg" xmlns:xlink="http://www.w3.org/1999/xlink" aria-hidden="true" role="img" class="iconify iconify--ph" width="1em" height="1em" preserveAspectRatio="xMidYMid meet" viewBox="0 0 256 256"><path fill="currentColor" d="M220 52v152a16 16 0 0 1-16 16h-68.4a8 8 0 0 1 0-16H204V52H52v91.3a8 8 0 0 1-16 0V52a16 16 0 0 1 16-16h152a16 16 0 0 1 16 16Zm-86.3 94.3a8.1 8.1 0 0 0-11.4 0L64 204.7l-26.3-26.4a8.1 8.1 0 0 0-11.4 11.4l32 32a8.2 8.2 0 0 0 11.4 0l64-64a8.1 8.1 0 0 0 0-11.4Z"></path></svg>