<svg xmlns="http://www.w3.org/2000/svg" xmlns:xlink="http://www.w3.org/1999/xlink" aria-hidden="true" role="img" class="iconify iconify--ph" width="1em" height="1em" preserveAspectRatio="xMidYMid meet" viewBox="0 0 256 256"><path fill="currentColor" d="M180.7 95.7a12 12 0 0 1-.4 17l-58.7 56a12 12 0 0 1-8.3 3.3a12.3 12.3 0 0 1-8.3-3.3l-29.3-28a12 12 0 1 1 16.6-17.4l21 20.1l50.4-48.1a12 12 0 0 1 17 .4ZM236 128A108 108 0 1 1 128 20a108.1 108.1 0 0 1 108 108Zm-24 0a84 84 0 1 0-84 84a84.1 84.1 0 0 0 84-84Z"></path></svg>