<svg xmlns="http://www.w3.org/2000/svg" xmlns:xlink="http://www.w3.org/1999/xlink" aria-hidden="true" role="img" class="iconify iconify--ph" width="1em" height="1em" preserveAspectRatio="xMidYMid meet" viewBox="0 0 256 256"><path fill="currentColor" d="M75.7 140.7a12 12 0 1 1 16.6-17.4l21 20.1l50.4-48.1a12 12 0 1 1 16.6 17.4l-58.7 56a12 12 0 0 1-8.3 3.3a12.2 12.2 0 0 1-8.3-3.3ZM228 48v160a20.1 20.1 0 0 1-20 20H48a20.1 20.1 0 0 1-20-20V48a20.1 20.1 0 0 1 20-20h160a20.1 20.1 0 0 1 20 20Zm-24 4H52v152h152Z"></path></svg>