<svg xmlns="http://www.w3.org/2000/svg" xmlns:xlink="http://www.w3.org/1999/xlink" aria-hidden="true" role="img" class="iconify iconify--ph" width="1em" height="1em" preserveAspectRatio="xMidYMid meet" viewBox="0 0 256 256"><rect width="176" height="176" x="40" y="40" fill="currentColor" opacity=".2" rx="8"></rect><path fill="currentColor" d="m166.5 98.2l-53.2 50.7l-23.8-22.7a8 8 0 1 0-11 11.6l29.3 28a7.9 7.9 0 0 0 5.5 2.2a8.1 8.1 0 0 0 5.6-2.2l58.6-56a8 8 0 0 0-11-11.6Z"></path><path fill="currentColor" d="M208 32H48a16 16 0 0 0-16 16v160a16 16 0 0 0 16 16h160a16 16 0 0 0 16-16V48a16 16 0 0 0-16-16Zm0 176H48V48h160v160Z"></path></svg>