<svg xmlns="http://www.w3.org/2000/svg" xmlns:xlink="http://www.w3.org/1999/xlink" aria-hidden="true" role="img" class="iconify iconify--ph" width="1em" height="1em" preserveAspectRatio="xMidYMid meet" viewBox="0 0 256 256"><path fill="currentColor" d="M177.8 98.5a8 8 0 0 1-.3 11.3l-58.6 56a8.1 8.1 0 0 1-5.6 2.2a7.9 7.9 0 0 1-5.5-2.2l-29.3-28a8 8 0 1 1 11-11.6l23.8 22.7l53.2-50.7a8 8 0 0 1 11.3.3ZM224 48v160a16 16 0 0 1-16 16H48a16 16 0 0 1-16-16V48a16 16 0 0 1 16-16h160a16 16 0 0 1 16 16Zm-16 160V48H48v160Z"></path></svg>