<svg xmlns="http://www.w3.org/2000/svg" xmlns:xlink="http://www.w3.org/1999/xlink" aria-hidden="true" role="img" class="iconify iconify--ph" width="1em" height="1em" preserveAspectRatio="xMidYMid meet" viewBox="0 0 256 256"><path fill="currentColor" d="M76 36a40 40 0 1 0 40 40a40 40 0 0 0-40-40Zm0 72a32 32 0 1 1 32-32a32.1 32.1 0 0 1-32 32Zm104 8a40 40 0 1 0-40-40a40 40 0 0 0 40 40Zm0-72a32 32 0 1 1-32 32a32.1 32.1 0 0 1 32-32ZM76 140a40 40 0 1 0 40 40a40 40 0 0 0-40-40Zm0 72a32 32 0 1 1 32-32a32.1 32.1 0 0 1-32 32Zm136-32a4 4 0 0 1-4 4h-24v24a4 4 0 0 1-8 0v-24h-24a4 4 0 0 1 0-8h24v-24a4 4 0 0 1 8 0v24h24a4 4 0 0 1 4 4Z"></path></svg>