<svg xmlns="http://www.w3.org/2000/svg" xmlns:xlink="http://www.w3.org/1999/xlink" aria-hidden="true" role="img" class="iconify iconify--ph" width="1em" height="1em" preserveAspectRatio="xMidYMid meet" viewBox="0 0 256 256"><path fill="currentColor" d="M128 28a100 100 0 1 0 100 100A100.2 100.2 0 0 0 128 28Zm4 8.1a87 87 0 0 1 24 4.3v175.2a90.9 90.9 0 0 1-24 4.3Zm32 7.2a94.2 94.2 0 0 1 24 15v139.4a94.2 94.2 0 0 1-24 15ZM36 128a92.1 92.1 0 0 1 88-91.9v183.8A92.1 92.1 0 0 1 36 128Zm160 61.9V66.1a91.8 91.8 0 0 1 0 123.8Z"></path></svg>