<svg xmlns="http://www.w3.org/2000/svg" xmlns:xlink="http://www.w3.org/1999/xlink" aria-hidden="true" role="img" class="iconify iconify--ph" width="1em" height="1em" preserveAspectRatio="xMidYMid meet" viewBox="0 0 256 256"><path fill="currentColor" d="M224 128a96 96 0 0 1-96 96V32a96 96 0 0 1 96 96Z" opacity=".2"></path><path fill="currentColor" d="M128 24a104 104 0 1 0 104 104A104.1 104.1 0 0 0 128 24ZM40 128a88.1 88.1 0 0 1 80-87.6v175.2A88.1 88.1 0 0 1 40 128Zm96 87.6V40.4a88 88 0 0 1 0 175.2Z"></path></svg>