<svg xmlns="http://www.w3.org/2000/svg" xmlns:xlink="http://www.w3.org/1999/xlink" aria-hidden="true" role="img" class="iconify iconify--ph" width="1em" height="1em" preserveAspectRatio="xMidYMid meet" viewBox="0 0 256 256"><path fill="currentColor" d="M180 68a52 52 0 1 0-52 52a52 52 0 0 0 52-52Zm-52 28a28 28 0 1 1 28-28a28.1 28.1 0 0 1-28 28Zm60 24a52 52 0 1 0 52 52a52 52 0 0 0-52-52Zm0 80a28 28 0 1 1 28-28a28.1 28.1 0 0 1-28 28ZM68 120a52 52 0 1 0 52 52a52 52 0 0 0-52-52Zm0 80a28 28 0 1 1 28-28a28.1 28.1 0 0 1-28 28Z"></path></svg>