<svg xmlns="http://www.w3.org/2000/svg" xmlns:xlink="http://www.w3.org/1999/xlink" aria-hidden="true" role="img" class="iconify iconify--ph" width="1em" height="1em" preserveAspectRatio="xMidYMid meet" viewBox="0 0 256 256"><circle cx="128" cy="68" r="40" fill="currentColor" opacity=".2"></circle><circle cx="188" cy="172" r="40" fill="currentColor" opacity=".2"></circle><circle cx="68" cy="172" r="40" fill="currentColor" opacity=".2"></circle><path fill="currentColor" d="M176 68a48 48 0 1 0-48 48a48 48 0 0 0 48-48Zm-48 32a32 32 0 1 1 32-32a32.1 32.1 0 0 1-32 32Zm60 24a48 48 0 1 0 48 48a48 48 0 0 0-48-48Zm0 80a32 32 0 1 1 32-32a32.1 32.1 0 0 1-32 32ZM68 124a48 48 0 1 0 48 48a48 48 0 0 0-48-48Zm0 80a32 32 0 1 1 32-32a32.1 32.1 0 0 1-32 32Z"></path></svg>