<svg xmlns="http://www.w3.org/2000/svg" xmlns:xlink="http://www.w3.org/1999/xlink" aria-hidden="true" role="img" class="iconify iconify--ph" width="1em" height="1em" preserveAspectRatio="xMidYMid meet" viewBox="0 0 256 256"><path fill="currentColor" d="M76 34a42 42 0 1 0 42 42a42 42 0 0 0-42-42Zm0 72a30 30 0 1 1 30-30a30.1 30.1 0 0 1-30 30Zm104 12a42 42 0 1 0-42-42a42 42 0 0 0 42 42Zm0-72a30 30 0 1 1-30 30a30.1 30.1 0 0 1 30-30ZM76 138a42 42 0 1 0 42 42a42 42 0 0 0-42-42Zm0 72a30 30 0 1 1 30-30a30.1 30.1 0 0 1-30 30Zm138-30a6 6 0 0 1-6 6h-22v22a6 6 0 0 1-12 0v-22h-22a6 6 0 0 1 0-12h22v-22a6 6 0 0 1 12 0v22h22a6 6 0 0 1 6 6Z"></path></svg>