<svg xmlns="http://www.w3.org/2000/svg" xmlns:xlink="http://www.w3.org/1999/xlink" aria-hidden="true" role="img" class="iconify iconify--ph" width="1em" height="1em" preserveAspectRatio="xMidYMid meet" viewBox="0 0 256 256"><path fill="currentColor" d="M230 128A102.1 102.1 0 0 0 128 26a102 102 0 0 0-72.1 174.1a101.2 101.2 0 0 0 71.9 29.9h.2a102.1 102.1 0 0 0 102-102Zm-12 0a89.3 89.3 0 0 1-20 56.6V71.4a89.3 89.3 0 0 1 20 56.6Zm-116 34.5l20-20v75.3a96.5 96.5 0 0 1-20-3.6Zm-12 47.1a86.2 86.2 0 0 1-21.2-13.9L90 174.5Zm44-79.1l20-20v103.7a96.5 96.5 0 0 1-20 3.6Zm32-32l20-20v118.3a86.1 86.1 0 0 1-20 12.8ZM38 128a89.9 89.9 0 0 1 149.2-67.7L60.3 187.2A89.2 89.2 0 0 1 38 128Z"></path></svg>