<svg xmlns="http://www.w3.org/2000/svg" xmlns:xlink="http://www.w3.org/1999/xlink" aria-hidden="true" role="img" class="iconify iconify--ph" width="1em" height="1em" preserveAspectRatio="xMidYMid meet" viewBox="0 0 256 256"><path fill="currentColor" d="M201.5 54.5a103.8 103.8 0 0 0-147 0a103.8 103.8 0 0 0 0 147a103.8 103.8 0 0 0 147 0a103.8 103.8 0 0 0 0-147ZM184 195.9a91.9 91.9 0 0 1-16 10.5V99.3l16-16Zm-80-32.6l16-16v68.3a86.8 86.8 0 0 1-16-3Zm-16 43.1a90.3 90.3 0 0 1-16.3-10.8L88 179.3Zm48-75.1l16-16v97.3a86.8 86.8 0 0 1-16 3ZM40 128a88 88 0 0 1 144.3-67.6L60.4 184.3A87.3 87.3 0 0 1 40 128Zm160 50.6V77.4a88 88 0 0 1 0 101.2Z"></path></svg>