<svg xmlns="http://www.w3.org/2000/svg" xmlns:xlink="http://www.w3.org/1999/xlink" aria-hidden="true" role="img" class="iconify iconify--ph" width="1em" height="1em" preserveAspectRatio="xMidYMid meet" viewBox="0 0 256 256"><path fill="currentColor" d="M128 24a104 104 0 1 0 104 104A104.1 104.1 0 0 0 128 24Zm8 16.4a94 94 0 0 1 16 2.9v169.4a94 94 0 0 1-16 2.9Zm32 9.2a90.6 90.6 0 0 1 16 10.6v135.6a90.6 90.6 0 0 1-16 10.6ZM40 128a88.1 88.1 0 0 1 80-87.6v175.2A88.1 88.1 0 0 1 40 128Zm160 50.5v-101a87.7 87.7 0 0 1 0 101Z"></path></svg>