<svg xmlns="http://www.w3.org/2000/svg" xmlns:xlink="http://www.w3.org/1999/xlink" aria-hidden="true" role="img" class="iconify iconify--ph" width="1em" height="1em" preserveAspectRatio="xMidYMid meet" viewBox="0 0 256 256"><path fill="currentColor" d="M204.4 51.6A108.2 108.2 0 1 0 236 128a108.2 108.2 0 0 0-31.6-76.4ZM176 196.9a86.2 86.2 0 0 1-16 8.8V113l16-16ZM44 128a84 84 0 0 1 134.3-67.3L60.7 178.3A83.5 83.5 0 0 1 44 128Zm52 49v28.7a89.8 89.8 0 0 1-18.3-10.4Zm24 34.6V153l16-16v74.6a85.5 85.5 0 0 1-16 0Zm80-40.3V84.7a84.1 84.1 0 0 1 0 86.6Z"></path></svg>