<svg xmlns="http://www.w3.org/2000/svg" xmlns:xlink="http://www.w3.org/1999/xlink" aria-hidden="true" role="img" class="iconify iconify--ph" width="1em" height="1em" preserveAspectRatio="xMidYMid meet" viewBox="0 0 256 256"><path fill="currentColor" d="M198.7 57.3A100 100 0 1 0 57.3 198.7A100 100 0 1 0 198.7 57.3ZM188 197.7a91.2 91.2 0 0 1-24 15v-115l24-24Zm-88-36l24-24v82.2a95.8 95.8 0 0 1-24-4.2Zm-8 51a92.5 92.5 0 0 1-26.2-16.9L92 169.7Zm40-83l24-24v110a95.8 95.8 0 0 1-24 4.2ZM36 128a92 92 0 0 1 154.2-67.8l-130 130A91.8 91.8 0 0 1 36 128Zm160 62V66a92.1 92.1 0 0 1 0 124Z"></path></svg>