<svg xmlns="http://www.w3.org/2000/svg" xmlns:xlink="http://www.w3.org/1999/xlink" aria-hidden="true" role="img" class="iconify iconify--ph" width="1em" height="1em" preserveAspectRatio="xMidYMid meet" viewBox="0 0 256 256"><path fill="currentColor" d="M174 68a46 46 0 1 0-46 46a46 46 0 0 0 46-46Zm-46 34a34 34 0 1 1 34-34a34.1 34.1 0 0 1-34 34Zm60 24a46 46 0 1 0 46 46a46 46 0 0 0-46-46Zm0 80a34 34 0 1 1 34-34a34.1 34.1 0 0 1-34 34ZM68 126a46 46 0 1 0 46 46a46 46 0 0 0-46-46Zm0 80a34 34 0 1 1 34-34a34.1 34.1 0 0 1-34 34Z"></path></svg>