<svg xmlns="http://www.w3.org/2000/svg" xmlns:xlink="http://www.w3.org/1999/xlink" aria-hidden="true" role="img" class="iconify iconify--ph" width="1em" height="1em" preserveAspectRatio="xMidYMid meet" viewBox="0 0 256 256"><path fill="currentColor" d="M64.4 55.9a6.1 6.1 0 0 1 0 8.5a89.3 89.3 0 0 0-23.3 40.3a6.2 6.2 0 0 1-5.8 4.5l-1.6-.2a6 6 0 0 1-4.2-7.4a102 102 0 0 1 26.4-45.7a5.9 5.9 0 0 1 8.5 0Zm-23.3 95.4a6 6 0 0 0-7.4-4.2a5.9 5.9 0 0 0-4.2 7.3a100.9 100.9 0 0 0 26.4 45.7a5.8 5.8 0 0 0 4.2 1.8a6.1 6.1 0 0 0 4.3-1.8a5.9 5.9 0 0 0-.1-8.4a90.7 90.7 0 0 1-23.2-40.4ZM151.3 215a90.9 90.9 0 0 1-46.6-.1a6 6 0 0 0-7.3 4.3a5.9 5.9 0 0 0 4.2 7.3a99.5 99.5 0 0 0 26.5 3.5a98 98 0 0 0 26.3-3.5a6 6 0 1 0-3.1-11.5Zm71-67.9a6 6 0 0 0-7.4 4.2a88.7 88.7 0 0 1-23.3 40.3a6.1 6.1 0 0 0 0 8.5a6 6 0 0 0 4.3 1.8a5.8 5.8 0 0 0 4.2-1.8a101.4 101.4 0 0 0 26.4-45.7a5.9 5.9 0 0 0-4.2-7.3Zm-7.4-42.4a6.2 6.2 0 0 0 5.8 4.5l1.6-.2a6 6 0 0 0 4.2-7.4a100.9 100.9 0 0 0-26.4-45.7a5.9 5.9 0 0 0-8.5 0a6 6 0 0 0 .1 8.5a89.8 89.8 0 0 1 23.2 40.3ZM104.7 41.1a89.8 89.8 0 0 1 46.6 0l1.6.2a5.9 5.9 0 0 0 5.7-4.5a5.9 5.9 0 0 0-4.2-7.3a100.6 100.6 0 0 0-52.8 0a5.9 5.9 0 0 0-4.2 7.3a6 6 0 0 0 7.3 4.3Z"></path></svg>