<svg xmlns="http://www.w3.org/2000/svg" xmlns:xlink="http://www.w3.org/1999/xlink" aria-hidden="true" role="img" class="iconify iconify--ph" width="1em" height="1em" preserveAspectRatio="xMidYMid meet" viewBox="0 0 256 256"><path fill="currentColor" d="M68.6 51.6a12 12 0 0 1 0 17a84.1 84.1 0 0 0-21.7 37.6a12.1 12.1 0 0 1-11.6 9a10.6 10.6 0 0 1-3.1-.5a11.9 11.9 0 0 1-8.5-14.6a107.8 107.8 0 0 1 27.9-48.5a12.2 12.2 0 0 1 17 0Zm-21.7 98.1a12 12 0 0 0-23.2 6.3a108.8 108.8 0 0 0 27.9 48.4a12.2 12.2 0 0 0 8.5 3.5a12 12 0 0 0 8.5-20.5a83.7 83.7 0 0 1-21.7-37.7Zm102.8 59.5a83 83 0 0 1-43.4-.1a12 12 0 0 0-14.7 8.5a11.9 11.9 0 0 0 8.4 14.7a107.4 107.4 0 0 0 28.1 3.7a105.3 105.3 0 0 0 27.9-3.7a12 12 0 0 0-6.3-23.1Zm74.1-67.9a11.9 11.9 0 0 0-14.6 8.5a84.6 84.6 0 0 1-21.8 37.6a12 12 0 0 0 8.5 20.5a12.2 12.2 0 0 0 8.5-3.5a108 108 0 0 0 27.9-48.4a12 12 0 0 0-8.5-14.7Zm-14.7-35a12.2 12.2 0 0 0 11.6 8.9a15.5 15.5 0 0 0 3.1-.4a12.1 12.1 0 0 0 8.5-14.7a108.6 108.6 0 0 0-27.9-48.5a12 12 0 0 0-17 17a83.7 83.7 0 0 1 21.7 37.7ZM106.3 46.8a83 83 0 0 1 43.4.1a17.5 17.5 0 0 0 3.2.4a12 12 0 0 0 3.1-23.6a108.5 108.5 0 0 0-56 0a12 12 0 1 0 6.3 23.1Z"></path></svg>