<svg xmlns="http://www.w3.org/2000/svg" xmlns:xlink="http://www.w3.org/1999/xlink" aria-hidden="true" role="img" class="iconify iconify--ph" width="1em" height="1em" preserveAspectRatio="xMidYMid meet" viewBox="0 0 256 256"><path fill="currentColor" d="M195.9 195.9a96 96 0 0 1-135.8 0L195.9 60.1a96 96 0 0 1 0 135.8Z" opacity=".2"></path><path fill="currentColor" d="M201.5 54.5a103.8 103.8 0 0 0-147 0a103.8 103.8 0 0 0 0 147a103.8 103.8 0 0 0 147 0a103.8 103.8 0 0 0 0-147ZM40 128a88 88 0 0 1 144.3-67.6L60.4 184.3A87.3 87.3 0 0 1 40 128Zm150.2 62.2a88.1 88.1 0 0 1-118.5 5.4L195.6 71.7a87.9 87.9 0 0 1-5.4 118.5Z"></path></svg>