<svg xmlns="http://www.w3.org/2000/svg" xmlns:xlink="http://www.w3.org/1999/xlink" aria-hidden="true" role="img" class="iconify iconify--ph" width="1em" height="1em" preserveAspectRatio="xMidYMid meet" viewBox="0 0 256 256"><path fill="currentColor" d="M62.9 57.3a4 4 0 0 1 0 5.7a92.6 92.6 0 0 0-23.8 41.2a4 4 0 0 1-3.8 3l-1.1-.2a3.9 3.9 0 0 1-2.8-4.9a99.9 99.9 0 0 1 25.9-44.8a3.9 3.9 0 0 1 5.6 0Zm-23.8 94.5a3.9 3.9 0 0 0-4.9-2.8a4 4 0 0 0-2.8 4.9a99.7 99.7 0 0 0 25.9 44.8a3.9 3.9 0 0 0 2.8 1.2a3.8 3.8 0 0 0 2.8-1.2a3.9 3.9 0 0 0 0-5.6a93.4 93.4 0 0 1-23.8-41.3Zm112.7 65.1a91.5 91.5 0 0 1-47.6 0a4 4 0 0 0-2.1 7.7a99.8 99.8 0 0 0 26 3.4a97.8 97.8 0 0 0 25.8-3.4a4 4 0 1 0-2.1-7.7Zm70-67.9a4 4 0 0 0-4.9 2.8a93 93 0 0 1-23.8 41.3a3.9 3.9 0 0 0 0 5.6a3.8 3.8 0 0 0 2.8 1.2a3.9 3.9 0 0 0 2.8-1.2a99.9 99.9 0 0 0 25.9-44.8a4 4 0 0 0-2.8-4.9Zm-4.9-44.8a3.9 3.9 0 0 0 3.8 3l1.1-.2a3.9 3.9 0 0 0 2.8-4.9a99.7 99.7 0 0 0-25.9-44.8a4 4 0 1 0-5.6 5.6a93.4 93.4 0 0 1 23.8 41.3ZM104.2 39.1a92.6 92.6 0 0 1 47.6 0l1.1.2a4 4 0 0 0 1-7.9a101.1 101.1 0 0 0-51.8 0a4 4 0 0 0 2.1 7.7Z"></path></svg>