<svg xmlns="http://www.w3.org/2000/svg" xmlns:xlink="http://www.w3.org/1999/xlink" aria-hidden="true" role="img" class="iconify iconify--ph" width="1em" height="1em" preserveAspectRatio="xMidYMid meet" viewBox="0 0 256 256"><path fill="currentColor" d="M74 28a46 46 0 1 0 46 46a46 46 0 0 0-46-46Zm0 68a22 22 0 1 1 22-22a22.1 22.1 0 0 1-22 22Zm108 24a46 46 0 1 0-46-46a46 46 0 0 0 46 46Zm0-68a22 22 0 1 1-22 22a22.1 22.1 0 0 1 22-22ZM74 136a46 46 0 1 0 46 46a46 46 0 0 0-46-46Zm0 68a22 22 0 1 1 22-22a22.1 22.1 0 0 1-22 22Zm146-22a12 12 0 0 1-12 12h-14v14a12 12 0 0 1-24 0v-14h-14a12 12 0 0 1 0-24h14v-14a12 12 0 0 1 24 0v14h14a12 12 0 0 1 12 12Z"></path></svg>