<svg xmlns="http://www.w3.org/2000/svg" xmlns:xlink="http://www.w3.org/1999/xlink" aria-hidden="true" role="img" class="iconify iconify--ph" width="1em" height="1em" preserveAspectRatio="xMidYMid meet" viewBox="0 0 256 256"><path fill="currentColor" d="M128 26a102 102 0 1 0 102 102A102.2 102.2 0 0 0 128 26Zm6 12.2a94.1 94.1 0 0 1 20 3.6v172.4a94.1 94.1 0 0 1-20 3.6Zm32 8.2a90.8 90.8 0 0 1 20 12.8v137.6a90.8 90.8 0 0 1-20 12.8ZM38 128a90.2 90.2 0 0 1 84-89.8v179.6A90.2 90.2 0 0 1 38 128Zm160 56.5v-113a89.8 89.8 0 0 1 0 113Z"></path></svg>