<svg xmlns="http://www.w3.org/2000/svg" xmlns:xlink="http://www.w3.org/1999/xlink" aria-hidden="true" role="img" class="iconify iconify--ph" width="1em" height="1em" preserveAspectRatio="xMidYMid meet" viewBox="0 0 256 256"><path fill="currentColor" d="M76 32a44 44 0 1 0 44 44a44 44 0 0 0-44-44Zm0 72a28 28 0 1 1 28-28a28.1 28.1 0 0 1-28 28Zm104 16a44 44 0 1 0-44-44a44 44 0 0 0 44 44Zm0-72a28 28 0 1 1-28 28a28.1 28.1 0 0 1 28-28ZM76 136a44 44 0 1 0 44 44a44 44 0 0 0-44-44Zm0 72a28 28 0 1 1 28-28a28.1 28.1 0 0 1-28 28Zm104-72a44 44 0 1 0 44 44a44 44 0 0 0-44-44Zm0 72a28 28 0 1 1 28-28a28.1 28.1 0 0 1-28 28Z"></path></svg>