<svg xmlns="http://www.w3.org/2000/svg" xmlns:xlink="http://www.w3.org/1999/xlink" aria-hidden="true" role="img" class="iconify iconify--ph" width="1em" height="1em" preserveAspectRatio="xMidYMid meet" viewBox="0 0 256 256"><path fill="currentColor" d="M172 68a44 44 0 1 0-44 44a44 44 0 0 0 44-44Zm-44 36a36 36 0 1 1 36-36a36 36 0 0 1-36 36Zm60 24a44 44 0 1 0 44 44a44 44 0 0 0-44-44Zm0 80a36 36 0 1 1 36-36a36 36 0 0 1-36 36ZM68 128a44 44 0 1 0 44 44a44 44 0 0 0-44-44Zm0 80a36 36 0 1 1 36-36a36 36 0 0 1-36 36Z"></path></svg>