<svg xmlns="http://www.w3.org/2000/svg" xmlns:xlink="http://www.w3.org/1999/xlink" aria-hidden="true" role="img" class="iconify iconify--ph" width="1em" height="1em" preserveAspectRatio="xMidYMid meet" viewBox="0 0 256 256"><path fill="currentColor" d="M200 36h-38.1a43.9 43.9 0 0 0-67.8 0H56a12 12 0 0 0-12 12v168a12 12 0 0 0 12 12h144a12 12 0 0 0 12-12V48a12 12 0 0 0-12-12Zm-72-8a36 36 0 0 1 36 36v4H92v-4a36 36 0 0 1 36-36Zm76 188a4 4 0 0 1-4 4H56a4 4 0 0 1-4-4V48a4 4 0 0 1 4-4h32.8A43.4 43.4 0 0 0 84 64v8a4 4 0 0 0 4 4h80a4 4 0 0 0 4-4v-8a43.4 43.4 0 0 0-4.8-20H200a4 4 0 0 1 4 4Z"></path></svg>