<svg xmlns="http://www.w3.org/2000/svg" xmlns:xlink="http://www.w3.org/1999/xlink" aria-hidden="true" role="img" class="iconify iconify--ph" width="1em" height="1em" preserveAspectRatio="xMidYMid meet" viewBox="0 0 256 256"><path fill="currentColor" d="M164 152a4 4 0 0 1-4 4H96a4 4 0 0 1 0-8h64a4 4 0 0 1 4 4Zm-4-36H96a4 4 0 0 0 0 8h64a4 4 0 0 0 0-8Zm52-68v168a12 12 0 0 1-12 12H56a12 12 0 0 1-12-12V48a12 12 0 0 1 12-12h38.1a43.9 43.9 0 0 1 67.8 0H200a12 12 0 0 1 12 12ZM92 64v4h72v-4a36 36 0 0 0-72 0Zm112-16a4 4 0 0 0-4-4h-32.8a43.4 43.4 0 0 1 4.8 20v8a4 4 0 0 1-4 4H88a4 4 0 0 1-4-4v-8a43.4 43.4 0 0 1 4.8-20H56a4 4 0 0 0-4 4v168a4 4 0 0 0 4 4h144a4 4 0 0 0 4-4Z"></path></svg>