<svg xmlns="http://www.w3.org/2000/svg" xmlns:xlink="http://www.w3.org/1999/xlink" aria-hidden="true" role="img" class="iconify iconify--ph" width="1em" height="1em" preserveAspectRatio="xMidYMid meet" viewBox="0 0 256 256"><path fill="currentColor" d="M200 34h-37.2a45.8 45.8 0 0 0-69.6 0H56a14 14 0 0 0-14 14v168a14 14 0 0 0 14 14h144a14 14 0 0 0 14-14V48a14 14 0 0 0-14-14Zm-72-4a34.1 34.1 0 0 1 34 34v2H94v-2a34.1 34.1 0 0 1 34-34Zm74 186a2 2 0 0 1-2 2H56a2 2 0 0 1-2-2V48a2 2 0 0 1 2-2h29.7A44.9 44.9 0 0 0 82 64v8a6 6 0 0 0 6 6h80a6 6 0 0 0 6-6v-8a44.9 44.9 0 0 0-3.7-18H200a2 2 0 0 1 2 2Z"></path></svg>