<svg xmlns="http://www.w3.org/2000/svg" xmlns:xlink="http://www.w3.org/1999/xlink" aria-hidden="true" role="img" class="iconify iconify--ph" width="1em" height="1em" preserveAspectRatio="xMidYMid meet" viewBox="0 0 256 256"><path fill="currentColor" d="M200 32h-36.3a47.8 47.8 0 0 0-71.4 0H56a16 16 0 0 0-16 16v168a16 16 0 0 0 16 16h144a16 16 0 0 0 16-16V48a16 16 0 0 0-16-16Zm-72 0a32.1 32.1 0 0 1 32 32H96a32.1 32.1 0 0 1 32-32Zm32 128H96a8 8 0 0 1 0-16h64a8 8 0 0 1 0 16Zm0-32H96a8 8 0 0 1 0-16h64a8 8 0 0 1 0 16Z"></path></svg>