<svg xmlns="http://www.w3.org/2000/svg" xmlns:xlink="http://www.w3.org/1999/xlink" aria-hidden="true" role="img" class="iconify iconify--ph" width="1em" height="1em" preserveAspectRatio="xMidYMid meet" viewBox="0 0 256 256"><path fill="currentColor" d="M200 28h-34.5a51.9 51.9 0 0 0-75 0H56a20.1 20.1 0 0 0-20 20v168a20.1 20.1 0 0 0 20 20h144a20.1 20.1 0 0 0 20-20V48a20.1 20.1 0 0 0-20-20Zm-44.3 32h-55.4a28 28 0 0 1 55.4 0ZM196 212H60V52h17.4A53.2 53.2 0 0 0 76 64v8a12 12 0 0 0 12 12h80a12 12 0 0 0 12-12v-8a53.2 53.2 0 0 0-1.4-12H196Z"></path></svg>