<svg xmlns="http://www.w3.org/2000/svg" xmlns:xlink="http://www.w3.org/1999/xlink" aria-hidden="true" role="img" class="iconify iconify--ph" width="1em" height="1em" preserveAspectRatio="xMidYMid meet" viewBox="0 0 256 256"><path fill="currentColor" d="M172 156a12 12 0 0 1-12 12H96a12 12 0 0 1 0-24h64a12 12 0 0 1 12 12Zm-12-52H96a12 12 0 0 0 0 24h64a12 12 0 0 0 0-24Zm60-56v168a20.1 20.1 0 0 1-20 20H56a20.1 20.1 0 0 1-20-20V48a20.1 20.1 0 0 1 20-20h34.5a51.9 51.9 0 0 1 75 0H200a20.1 20.1 0 0 1 20 20Zm-92-12a27.9 27.9 0 0 0-27.7 24h55.4A27.9 27.9 0 0 0 128 36Zm68 16h-17.4a53.2 53.2 0 0 1 1.4 12v8a12 12 0 0 1-12 12H88a12 12 0 0 1-12-12v-8a53.2 53.2 0 0 1 1.4-12H60v160h136Z"></path></svg>