<svg xmlns="http://www.w3.org/2000/svg" xmlns:xlink="http://www.w3.org/1999/xlink" aria-hidden="true" role="img" class="iconify iconify--ph" width="1em" height="1em" preserveAspectRatio="xMidYMid meet" viewBox="0 0 256 256"><path fill="currentColor" d="M200 32h-36.3a47.8 47.8 0 0 0-71.4 0H56a16 16 0 0 0-16 16v168a16 16 0 0 0 16 16h144a16 16 0 0 0 16-16V48a16 16 0 0 0-16-16Zm-72 0a32.1 32.1 0 0 1 32 32H96a32.1 32.1 0 0 1 32-32Zm72 184H56V48h26.8A47.2 47.2 0 0 0 80 64v8a8 8 0 0 0 8 8h80a8 8 0 0 0 8-8v-8a47.2 47.2 0 0 0-2.8-16H200Z"></path></svg>