<svg xmlns="http://www.w3.org/2000/svg" xmlns:xlink="http://www.w3.org/1999/xlink" aria-hidden="true" role="img" class="iconify iconify--ph" width="1em" height="1em" preserveAspectRatio="xMidYMid meet" viewBox="0 0 256 256"><circle cx="128" cy="128" r="88" fill="currentColor" opacity=".2"></circle><path fill="currentColor" d="M128 72a8 8 0 0 0-8 8v48.7c0 .1.1.2.1.4v.4c.1.1.1.2.1.4a.4.4 0 0 1 .1.3l.2.4a.4.4 0 0 0 .1.3c0 .2.1.3.1.4l.2.3a.5.5 0 0 0 .2.4l.2.3l.2.3l.2.4l.2.2c.1.1.2.3.4.4l.2.2l.3.3l.3.2l.3.3l.4.2h.2l41.6 24a7.1 7.1 0 0 0 4 1.1a8 8 0 0 0 4-14.9L136 123.4V80a8 8 0 0 0-8-8Z"></path><path fill="currentColor" d="M230.8 104.2c.1-.2.2-.3.2-.4l.2-.3c.1-.1.1-.3.2-.4l.2-.3a.6.6 0 0 1 .1-.4c0-.1.1-.2.1-.4a.4.4 0 0 0 .1-.3c0-.2.1-.3.1-.4s.1-.3.1-.4v-.4a2.2 2.2 0 0 0 .1-.8v-40a8 8 0 1 0-16 0v20.7l-20.3-20.3a96 96 0 1 0 0 135.8a8 8 0 0 0 0-11.3a7.9 7.9 0 0 0-11.3 0a80 80 0 1 1 0-113.2l20.3 20.3h-20.7a8 8 0 0 0 0 16h42.3l.4-.2h.3l.4-.2h.3l.4-.2l.3-.2l.4-.3l.2-.2l1.2-1.1l.2-.3Z"></path></svg>