<svg xmlns="http://www.w3.org/2000/svg" xmlns:xlink="http://www.w3.org/1999/xlink" aria-hidden="true" role="img" class="iconify iconify--ph" width="1em" height="1em" preserveAspectRatio="xMidYMid meet" viewBox="0 0 256 256"><path fill="currentColor" d="M124 128.1V80a4 4 0 0 1 8 0v45.7l39.6 22.8a4 4 0 0 1 1.4 5.5a3.9 3.9 0 0 1-3.4 2a4.6 4.6 0 0 1-2-.5l-41.6-24h-.1l-.4-.3l-.2-.2l-.3-.3l-.3-.3c0-.1-.1-.2-.2-.3s-.1-.2-.1-.3l-.2-.4c0-.1-.1-.3-.1-.4v-.3a.9.9 0 0 1-.1-.6Zm103.7-26.5l.2-.4a.8.8 0 0 1 .1-.4v-.3c0-.3.1-.5.1-.8v-40a4 4 0 1 0-8 0v30.4l-27-27.2a92 92 0 1 0 0 130.2a4.2 4.2 0 0 0 0-5.7a4 4 0 0 0-5.7 0a84 84 0 1 1 0-118.8l27.1 27.1h-30.3a4 4 0 0 0 0 8h41.5l.4-.2l.3-.2l.6-.4l.5-.6Z"></path></svg>