<svg xmlns="http://www.w3.org/2000/svg" xmlns:xlink="http://www.w3.org/1999/xlink" aria-hidden="true" role="img" class="iconify iconify--ph" width="1em" height="1em" preserveAspectRatio="xMidYMid meet" viewBox="0 0 256 256"><path fill="currentColor" d="M134 80v44.5l38.6 22.3a6 6 0 0 1-6 10.4l-41.6-24h-.1l-.3-.2l-.3-.2h-.2l-.2-.3h-.2l-.2-.3l-.2-.2l-.2-.2v-.2l-.2-.3c0-.1-.1-.2-.1-.3s-.1-.1-.1-.2l-.2-.3c0-.1 0-.2-.1-.2a.8.8 0 0 0-.1-.4v-.2a.4.4 0 0 1-.1-.3v-.3a.4.4 0 0 1-.1-.3V80a6 6 0 0 1 12 0Zm60.5-18.5a94.3 94.3 0 0 0-133 0L37.8 85.2V59.7a6 6 0 1 0-12 0v40c0 .4.1.8.1 1.1a4.2 4.2 0 0 0 .4 1a4.7 4.7 0 0 0 .5 1l.8 1l.9.7h.1l1 .5l1.1.3h41.1a6 6 0 0 0 0-12H46.3L70 70a82 82 0 1 1 0 116a5.9 5.9 0 0 0-8.5 0a6.1 6.1 0 0 0 0 8.5a94 94 0 0 0 133-133Z"></path></svg>