<svg xmlns="http://www.w3.org/2000/svg" xmlns:xlink="http://www.w3.org/1999/xlink" aria-hidden="true" role="img" class="iconify iconify--ph" width="1em" height="1em" preserveAspectRatio="xMidYMid meet" viewBox="0 0 256 256"><path fill="currentColor" d="M136 80v43.4l37.6 21.7a8 8 0 0 1-4 14.9a7.1 7.1 0 0 1-4-1.1l-41.6-24h-.2l-.4-.3l-.3-.2l-.3-.2l-.3-.3l-.2-.2c-.2-.1-.3-.3-.4-.4l-.2-.2l-.2-.4l-.2-.3l-.2-.3a.5.5 0 0 1-.2-.4l-.2-.3c0-.1-.1-.2-.1-.4a.4.4 0 0 1-.1-.3l-.2-.4a.4.4 0 0 0-.1-.3c0-.2 0-.3-.1-.4v-.4c0-.2-.1-.3-.1-.4V80a8 8 0 0 1 16 0Zm59.9-19.9a96.2 96.2 0 0 0-135.8 0L39.8 80.4V59.7a8 8 0 1 0-16 0v40a2.2 2.2 0 0 0 .1.8v.4c0 .1.1.2.1.4s.1.2.1.4a.4.4 0 0 0 .1.3c0 .2.1.3.1.4a.6.6 0 0 1 .1.4l.2.3c.1.1.1.3.2.4l.2.3c0 .1.1.2.2.4l.2.3l.2.3l1.2 1.1l.2.2l.4.3l.3.2l.4.2h.3l.4.2h.3l.4.2h42.3a8 8 0 0 0 0-16H51.1l20.3-19.8a80 80 0 1 1 0 113.2a7.9 7.9 0 0 0-11.3 0a8 8 0 0 0 0 11.3A96 96 0 0 0 195.9 60.1Z"></path></svg>