<svg xmlns="http://www.w3.org/2000/svg" xmlns:xlink="http://www.w3.org/1999/xlink" aria-hidden="true" role="img" class="iconify iconify--ph" width="1em" height="1em" preserveAspectRatio="xMidYMid meet" viewBox="0 0 256 256"><path fill="currentColor" d="M140 80v41.1l35.6 20.5A12.1 12.1 0 0 1 180 158a12.2 12.2 0 0 1-10.4 6a11.7 11.7 0 0 1-6-1.6l-41.6-24l-.3-.2l-.6-.4l-.4-.3l-.5-.4l-.5-.4l-.3-.4l-.5-.5l-.3-.3l-.4-.6l-.3-.4l-.3-.5l-.3-.5l-.2-.5l-.3-.6c0-.2-.1-.3-.1-.5a1.4 1.4 0 0 1-.2-.6l-.2-.5c0-.2-.1-.4-.1-.6s-.1-.4-.1-.6v-.6a1.5 1.5 0 0 1-.1-.7V80a12 12 0 0 1 24 0Zm86.5 31.5l.6-.2h.6l.5-.2l.6-.2l.5-.2l.5-.3l.5-.3l.5-.3l.5-.4l.5-.3a3 3 0 0 0 .8-.8h.1l.7-.9l.4-.4l.3-.5l.4-.5l.2-.5l.3-.6l.3-.5a.8.8 0 0 1 .2-.5c0-.2.1-.4.1-.6s.1-.4.2-.5s.1-.4.1-.6a2 2 0 0 0 .1-.7a.9.9 0 0 0 .1-.5c0-.4.1-.8.1-1.2v-40a12 12 0 1 0-24 0v11l-13.5-13.5a100 100 0 1 0 0 141.4a12 12 0 0 0 0-17a12.2 12.2 0 0 0-17 0a75.9 75.9 0 1 1 0-107.4l13.5 13.4h-11a12 12 0 0 0 0 24h42.3Z"></path></svg>