<svg xmlns="http://www.w3.org/2000/svg" xmlns:xlink="http://www.w3.org/1999/xlink" aria-hidden="true" role="img" class="iconify iconify--ph" width="1em" height="1em" preserveAspectRatio="xMidYMid meet" viewBox="0 0 256 256"><path fill="currentColor" d="M216 44H40a12 12 0 0 0-12 12v144a12 12 0 0 0 12 12h176a12 12 0 0 0 12-12V56a12 12 0 0 0-12-12Zm4 156a4 4 0 0 1-4 4H40a4 4 0 0 1-4-4V56a4 4 0 0 1 4-4h176a4 4 0 0 1 4 4ZM72 128a24.1 24.1 0 0 0 24 24a23.8 23.8 0 0 0 17.1-7.2a4 4 0 0 1 5.8 5.6a32 32 0 1 1 0-44.8a4 4 0 0 1-5.8 5.6A23.8 23.8 0 0 0 96 104a24.1 24.1 0 0 0-24 24Zm72 0a24.1 24.1 0 0 0 24 24a23.8 23.8 0 0 0 17.1-7.2a4 4 0 1 1 5.8 5.6a32 32 0 1 1 0-44.8a4 4 0 0 1-5.8 5.6A23.8 23.8 0 0 0 168 104a24.1 24.1 0 0 0-24 24Z"></path></svg>