<svg xmlns="http://www.w3.org/2000/svg" xmlns:xlink="http://www.w3.org/1999/xlink" aria-hidden="true" role="img" class="iconify iconify--ph" width="1em" height="1em" preserveAspectRatio="xMidYMid meet" viewBox="0 0 256 256"><path fill="currentColor" d="M216 42H40a14 14 0 0 0-14 14v144a14 14 0 0 0 14 14h176a14 14 0 0 0 14-14V56a14 14 0 0 0-14-14Zm2 158a2 2 0 0 1-2 2H40a2 2 0 0 1-2-2V56a2 2 0 0 1 2-2h176a2 2 0 0 1 2 2ZM74 128a22.1 22.1 0 0 0 22 22a21.6 21.6 0 0 0 15.7-6.6a6 6 0 0 1 8.6 8.4a34 34 0 1 1 0-47.6a6 6 0 1 1-8.6 8.4A21.6 21.6 0 0 0 96 106a22.1 22.1 0 0 0-22 22Zm72 0a22.1 22.1 0 0 0 22 22a21.6 21.6 0 0 0 15.7-6.6a6 6 0 0 1 8.6 8.4a34 34 0 1 1 0-47.6a6 6 0 1 1-8.6 8.4A21.6 21.6 0 0 0 168 106a22.1 22.1 0 0 0-22 22Z"></path></svg>