<svg xmlns="http://www.w3.org/2000/svg" xmlns:xlink="http://www.w3.org/1999/xlink" aria-hidden="true" role="img" class="iconify iconify--ph" width="1em" height="1em" preserveAspectRatio="xMidYMid meet" viewBox="0 0 256 256"><rect width="192" height="160" x="32" y="48" fill="currentColor" opacity=".2" rx="8"></rect><path fill="currentColor" d="M216 40H40a16 16 0 0 0-16 16v144a16 16 0 0 0 16 16h176a16 16 0 0 0 16-16V56a16 16 0 0 0-16-16Zm0 160H40V56h176v144Z"></path><path fill="currentColor" d="M96 108a19.8 19.8 0 0 1 14.3 6a8 8 0 0 0 11.4-11.2A35.4 35.4 0 0 0 96 92a36 36 0 0 0 0 72a35.4 35.4 0 0 0 25.7-10.8a8 8 0 0 0-11.4-11.2a19.8 19.8 0 0 1-14.3 6a20 20 0 0 1 0-40Zm72 0a19.8 19.8 0 0 1 14.3 6a8 8 0 0 0 11.4-11.2A35.4 35.4 0 0 0 168 92a36 36 0 0 0 0 72a35.4 35.4 0 0 0 25.7-10.8a8 8 0 0 0-11.4-11.2a19.8 19.8 0 0 1-14.3 6a20 20 0 0 1 0-40Z"></path></svg>