<svg xmlns="http://www.w3.org/2000/svg" xmlns:xlink="http://www.w3.org/1999/xlink" aria-hidden="true" role="img" class="iconify iconify--ph" width="1em" height="1em" preserveAspectRatio="xMidYMid meet" viewBox="0 0 256 256"><path fill="currentColor" d="M216 36H40a20.1 20.1 0 0 0-20 20v144a20.1 20.1 0 0 0 20 20h176a20.1 20.1 0 0 0 20-20V56a20.1 20.1 0 0 0-20-20Zm-4 160H44V60h168ZM60 128a40 40 0 0 1 58.6-35.4a12 12 0 1 1-11.2 21.2a15.9 15.9 0 0 0-7.4-1.8a16 16 0 0 0 0 32a15.9 15.9 0 0 0 7.4-1.8a12 12 0 0 1 11.2 21.2A40 40 0 0 1 60 128Zm72 0a40 40 0 0 1 58.6-35.4a12 12 0 1 1-11.2 21.2a15.9 15.9 0 0 0-7.4-1.8a16 16 0 0 0 0 32a15.9 15.9 0 0 0 7.4-1.8a12 12 0 0 1 11.2 21.2A40 40 0 0 1 132 128Z"></path></svg>