<svg xmlns="http://www.w3.org/2000/svg" xmlns:xlink="http://www.w3.org/1999/xlink" aria-hidden="true" role="img" class="iconify iconify--ph" width="1em" height="1em" preserveAspectRatio="xMidYMid meet" viewBox="0 0 256 256"><path fill="currentColor" d="M156 74a74.3 74.3 0 0 0-14.2 1.4a69.9 69.9 0 0 0-54.1-63.6a5.9 5.9 0 0 0-5.6 1.6a6.3 6.3 0 0 0-1.6 5.6A56.4 56.4 0 0 1 82 32a58 58 0 0 1-58 58a56.4 56.4 0 0 1-13-1.5a6.2 6.2 0 0 0-5.6 1.6a5.9 5.9 0 0 0-1.6 5.6a70 70 0 0 0 33.3 45A49.9 49.9 0 0 0 76 222h80a74 74 0 0 0 0-148ZM18.2 101.8l5.8.2a70.1 70.1 0 0 0 70-70c0-1.9-.1-3.9-.2-5.8A57.7 57.7 0 0 1 130 78.7a74.6 74.6 0 0 0-43.7 44.4A50.7 50.7 0 0 0 76 122a50.1 50.1 0 0 0-29.9 9.9a58.1 58.1 0 0 1-27.9-30.1ZM156 210H76a38 38 0 0 1 0-76a35.1 35.1 0 0 1 7.2.7A73.1 73.1 0 0 0 82 148a6 6 0 0 0 12 0a62 62 0 1 1 62 62Z"></path></svg>