<svg xmlns="http://www.w3.org/2000/svg" xmlns:xlink="http://www.w3.org/1999/xlink" aria-hidden="true" role="img" class="iconify iconify--ph" width="1em" height="1em" preserveAspectRatio="xMidYMid meet" viewBox="0 0 256 256"><path fill="currentColor" d="m160.9 204.4l-26.2 40a8 8 0 0 1-13.4-8.8l26.3-40a8 8 0 1 1 13.3 8.8ZM232 92a76.1 76.1 0 0 1-76 76h-21.4l-29.2 44.4a8 8 0 0 1-6.7 3.6a7.5 7.5 0 0 1-4.3-1.3a7.9 7.9 0 0 1-2.3-11.1l23.3-35.6H76a52 52 0 0 1 0-104a53.8 53.8 0 0 1 9 .8A76 76 0 0 1 232 92Zm-16 0a60 60 0 0 0-120 0a8 8 0 0 1-16 0a74.9 74.9 0 0 1 .9-11.7A40.3 40.3 0 0 0 76 80a36 36 0 0 0 0 72h80a60 60 0 0 0 60-60Z"></path></svg>