<svg xmlns="http://www.w3.org/2000/svg" xmlns:xlink="http://www.w3.org/1999/xlink" aria-hidden="true" role="img" class="iconify iconify--ph" width="1em" height="1em" preserveAspectRatio="xMidYMid meet" viewBox="0 0 256 256"><path fill="currentColor" d="M194.4 165.6a11.9 11.9 0 0 1 0 16.9l-33.9 34a12.1 12.1 0 0 1-17 0l-33.9-34a12 12 0 0 1 16.9-16.9L140 179v-51a12 12 0 0 1 24 0v51l13.5-13.4a11.9 11.9 0 0 1 16.9 0ZM160 36a92.1 92.1 0 0 0-81 48.4a53.7 53.7 0 0 0-7-.4a68 68 0 0 0 0 136h24a12 12 0 0 0 0-24H72a44 44 0 0 1-1.8-88a94.3 94.3 0 0 0-2.2 20a12 12 0 0 0 24 0a68 68 0 0 1 136 0a67.2 67.2 0 0 1-13.6 40.8a12 12 0 0 0 2.4 16.8a12.2 12.2 0 0 0 7.2 2.4a11.9 11.9 0 0 0 9.6-4.8A92 92 0 0 0 160 36Z"></path></svg>