<svg xmlns="http://www.w3.org/2000/svg" xmlns:xlink="http://www.w3.org/1999/xlink" aria-hidden="true" role="img" class="iconify iconify--ph" width="1em" height="1em" preserveAspectRatio="xMidYMid meet" viewBox="0 0 256 256"><path fill="currentColor" d="M120 212H72a12 12 0 0 1 0-24h48a12 12 0 0 1 0 24Zm64-24h-24a12 12 0 0 0 0 24h24a12 12 0 0 0 0-24Zm-24 40h-56a12 12 0 0 0 0 24h56a12 12 0 0 0 0-24Zm76-136a80.1 80.1 0 0 1-80 80H76a56 56 0 0 1 0-112a46.3 46.3 0 0 1 6.5.4A80 80 0 0 1 236 92Zm-24 0a56 56 0 0 0-112 0a12 12 0 0 1-24 0a70.3 70.3 0 0 1 .4-8H76a32 32 0 0 0 0 64h80a56 56 0 0 0 56-56Z"></path></svg>