<svg xmlns="http://www.w3.org/2000/svg" xmlns:xlink="http://www.w3.org/1999/xlink" aria-hidden="true" role="img" class="iconify iconify--ph" width="1em" height="1em" preserveAspectRatio="xMidYMid meet" viewBox="0 0 256 256"><path fill="currentColor" d="m160.9 204.4l-26.2 40a8 8 0 0 1-13.4-8.8l26.3-40a8 8 0 1 1 13.3 8.8Zm-1.6-188.3A76.1 76.1 0 0 0 85 64.8a74.8 74.8 0 0 0-5 26.9a8.3 8.3 0 0 1-7.4 8.3a8 8 0 0 1-8.6-8a91.6 91.6 0 0 1 2.4-21.1a3.9 3.9 0 0 0-4.9-4.8A52 52 0 0 0 24 116.3C24.2 145 48.1 168 76.8 168h38.6l-23.2 35.4a8 8 0 0 0 6.5 12.6a8 8 0 0 0 6.7-3.6l29.2-44.4H156a76 76 0 0 0 3.3-151.9Z"></path></svg>