<svg xmlns="http://www.w3.org/2000/svg" xmlns:xlink="http://www.w3.org/1999/xlink" aria-hidden="true" role="img" class="iconify iconify--ph" width="1em" height="1em" preserveAspectRatio="xMidYMid meet" viewBox="0 0 256 256"><path fill="currentColor" d="M191.6 168.4a8 8 0 0 1 0 11.3l-33.9 34a8.2 8.2 0 0 1-11.4 0l-33.9-34a8 8 0 0 1 11.3-11.3l20.3 20.3V128a8 8 0 0 1 16 0v60.7l20.3-20.3a8 8 0 0 1 11.3 0ZM160 40a88 88 0 0 0-78.7 48.7A58.2 58.2 0 0 0 72 88a64 64 0 0 0 0 128h24a8 8 0 0 0 0-16H72a48 48 0 0 1 0-96h3.3a85.7 85.7 0 0 0-3.3 24a8 8 0 0 0 16 0a72 72 0 1 1 129.6 43.2a8.1 8.1 0 0 0 1.6 11.2a7.7 7.7 0 0 0 4.8 1.6a8 8 0 0 0 6.4-3.2A88 88 0 0 0 160 40Z"></path></svg>