<svg xmlns="http://www.w3.org/2000/svg" xmlns:xlink="http://www.w3.org/1999/xlink" aria-hidden="true" role="img" class="iconify iconify--ph" width="1em" height="1em" preserveAspectRatio="xMidYMid meet" viewBox="0 0 256 256"><path fill="currentColor" d="M156 20a72.1 72.1 0 0 0-68.4 49.4A50.4 50.4 0 0 0 76 68a48 48 0 0 0 0 96h80a72 72 0 0 0 0-144Zm0 136H76a40 40 0 0 1 0-80a43.3 43.3 0 0 1 9.5 1.1A73.1 73.1 0 0 0 84 92a4 4 0 0 0 8 0a64 64 0 1 1 64 64Zm16 40a8 8 0 1 1-8-8a8 8 0 0 1 8 8Zm-88 0a8 8 0 1 1-8-8a8 8 0 0 1 8 8Zm40 16a8 8 0 1 1-8-8a8 8 0 0 1 8 8Zm-48 24a8 8 0 1 1-8-8a8 8 0 0 1 8 8Zm88 0a8 8 0 1 1-8-8a8 8 0 0 1 8 8Z"></path></svg>