<svg xmlns="http://www.w3.org/2000/svg" xmlns:xlink="http://www.w3.org/1999/xlink" aria-hidden="true" role="img" class="iconify iconify--ph" width="1em" height="1em" preserveAspectRatio="xMidYMid meet" viewBox="0 0 256 256"><path fill="currentColor" d="M156 72a78.8 78.8 0 0 0-20.2 2.7a58.9 58.9 0 0 0-9.4-11.5l9.4-13.6a7.9 7.9 0 0 0-1.9-11.1a8 8 0 0 0-11.2 1.9L113.2 54a55 55 0 0 0-26.9-6l-2.9-16.3a8 8 0 1 0-15.8 2.8l2.9 16.3a55.7 55.7 0 0 0-23.3 14.8l-13.6-9.5a8 8 0 0 0-11.1 2a7.9 7.9 0 0 0 1.9 11.1L38 78.7a55.1 55.1 0 0 0-6 27l-16.3 2.9a8 8 0 0 0 1.4 15.9h1.4l16.3-2.9a52.3 52.3 0 0 0 5.9 12.4A51.9 51.9 0 0 0 76 224h80a76 76 0 0 0 0-152ZM48.6 111.1v-.4a39.6 39.6 0 0 1 6.5-29.5V81h.1a40.1 40.1 0 0 1 25.6-16.4h.5a39.5 39.5 0 0 1 29.1 6.3l.5.3l.4.3a37.4 37.4 0 0 1 9.3 9.3a76.6 76.6 0 0 0-35.6 40a53.8 53.8 0 0 0-9-.8a52.6 52.6 0 0 0-22.1 4.9a40 40 0 0 1-5.3-13.8Z"></path></svg>