<svg xmlns="http://www.w3.org/2000/svg" xmlns:xlink="http://www.w3.org/1999/xlink" aria-hidden="true" role="img" class="iconify iconify--ph" width="1em" height="1em" preserveAspectRatio="xMidYMid meet" viewBox="0 0 256 256"><path fill="currentColor" d="M198.3 196.4L95.5 83.4L52.4 36a5.9 5.9 0 0 0-8.8 8l40.1 44.2l-1.3 2.7A60 60 0 0 0 72 90a62 62 0 0 0 0 124h88a85.4 85.4 0 0 0 32.4-6.3l11.2 12.3a5.9 5.9 0 0 0 4.4 2a5.7 5.7 0 0 0 4-1.6a5.8 5.8 0 0 0 .4-8.4ZM160 202H72a50 50 0 0 1 0-100a38.1 38.1 0 0 1 5.9.4A85 85 0 0 0 74 128a6 6 0 0 0 12 0a74.1 74.1 0 0 1 6.4-30.2l91.3 100.3A72.7 72.7 0 0 1 160 202Zm86-74a86.3 86.3 0 0 1-21.8 57.3a6.2 6.2 0 0 1-4.5 2a6 6 0 0 1-4.5-10a74 74 0 0 0-99-108.9a6.1 6.1 0 0 1-8.4-1.3a6 6 0 0 1 1.3-8.4A85.3 85.3 0 0 1 160 42a86.1 86.1 0 0 1 86 86Z"></path></svg>