<svg xmlns="http://www.w3.org/2000/svg" xmlns:xlink="http://www.w3.org/1999/xlink" aria-hidden="true" role="img" class="iconify iconify--ph" width="1em" height="1em" preserveAspectRatio="xMidYMid meet" viewBox="0 0 256 256"><path fill="currentColor" d="m164.3 206.6l-26.3 40a11.9 11.9 0 0 1-10 5.4a11.4 11.4 0 0 1-6.6-2a11.9 11.9 0 0 1-3.4-16.6l26.2-40a12 12 0 0 1 20.1 13.2ZM236 92a80.1 80.1 0 0 1-80 80h-19.3l-27.9 42.6a12.1 12.1 0 0 1-10.1 5.4a11.3 11.3 0 0 1-6.5-2a12 12 0 0 1-3.5-16.6L108 172H76a56 56 0 0 1 0-112a46.3 46.3 0 0 1 6.5.4A80 80 0 0 1 236 92Zm-24 0a56 56 0 0 0-112 0a12 12 0 0 1-24 0a70.3 70.3 0 0 1 .4-8H76a32 32 0 0 0 0 64h80a56 56 0 0 0 56-56Z"></path></svg>