<svg xmlns="http://www.w3.org/2000/svg" xmlns:xlink="http://www.w3.org/1999/xlink" aria-hidden="true" role="img" class="iconify iconify--ph" width="1em" height="1em" preserveAspectRatio="xMidYMid meet" viewBox="0 0 256 256"><path fill="currentColor" d="M156 166a74 74 0 1 0-69.7-98.9A50.7 50.7 0 0 0 76 66a50 50 0 0 0 0 100h43.1L99 196.7a6.2 6.2 0 0 0-.3 6.2a6.1 6.1 0 0 0 5.3 3.1h39.1L123 236.7a6 6 0 0 0 1.7 8.3a5.8 5.8 0 0 0 3.3 1a6.1 6.1 0 0 0 5-2.7l26.3-40a6 6 0 0 0 .2-6.2a5.9 5.9 0 0 0-5.3-3.1h-39.1l18.4-28ZM38 116a38 38 0 0 1 38-38a35.1 35.1 0 0 1 7.2.7A73.1 73.1 0 0 0 82 92a6 6 0 0 0 12 0a62 62 0 1 1 62 62H76a38 38 0 0 1-38-38Z"></path></svg>