<svg xmlns="http://www.w3.org/2000/svg" xmlns:xlink="http://www.w3.org/1999/xlink" aria-hidden="true" role="img" class="iconify iconify--ph" width="1em" height="1em" preserveAspectRatio="xMidYMid meet" viewBox="0 0 256 256"><path fill="currentColor" d="M51 37.3a4 4 0 1 0-6 5.4l41.2 45.2c-1 1.7-1.8 3.5-2.6 5.2A64.2 64.2 0 0 0 72 92a60 60 0 0 0 0 120h88a84.1 84.1 0 0 0 32.9-6.7l12.1 13.4a4.1 4.1 0 0 0 5.7.3a4.2 4.2 0 0 0 .3-5.7ZM160 204H72a52 52 0 0 1 0-104a59.7 59.7 0 0 1 8.5.7A87.3 87.3 0 0 0 76 128a4 4 0 0 0 8 0a75.9 75.9 0 0 1 7.9-33.8L187.1 199a75.3 75.3 0 0 1-27.1 5Zm84-76a84 84 0 0 1-21.3 55.9a4.1 4.1 0 0 1-3 1.4a4.5 4.5 0 0 1-2.7-1a4.1 4.1 0 0 1-.3-5.7A76 76 0 0 0 115 66.7a3.9 3.9 0 0 1-5.6-.8a4 4 0 0 1 .9-5.6A83.1 83.1 0 0 1 160 44a84.1 84.1 0 0 1 84 84Z"></path></svg>