<svg xmlns="http://www.w3.org/2000/svg" xmlns:xlink="http://www.w3.org/1999/xlink" aria-hidden="true" role="img" class="iconify iconify--ph" width="1em" height="1em" preserveAspectRatio="xMidYMid meet" viewBox="0 0 256 256"><path fill="currentColor" d="M244 128a83.2 83.2 0 0 1-16.8 50.4a3.9 3.9 0 0 1-3.2 1.6a4.3 4.3 0 0 1-2.4-.8a4 4 0 0 1-.8-5.6A76 76 0 1 0 84 128a4 4 0 0 1-8 0a82.8 82.8 0 0 1 4.6-27.3a62.3 62.3 0 0 0-8.6-.7a52 52 0 0 0 0 104h24a4 4 0 0 1 0 8H72a60 60 0 0 1 0-120a64.2 64.2 0 0 1 11.6 1.1A84 84 0 0 1 244 128Zm-89.2-2.8a3.9 3.9 0 0 0-5.6 0l-34 33.9a4 4 0 0 0 5.7 5.7l27.1-27.1V208a4 4 0 0 0 8 0v-70.3l27.1 27.1a3.8 3.8 0 0 0 2.8 1.1a3.9 3.9 0 0 0 2.9-1.1a4.2 4.2 0 0 0 0-5.7Z"></path></svg>