<svg xmlns="http://www.w3.org/2000/svg" xmlns:xlink="http://www.w3.org/1999/xlink" aria-hidden="true" role="img" class="iconify iconify--ph" width="1em" height="1em" preserveAspectRatio="xMidYMid meet" viewBox="0 0 256 256"><path fill="currentColor" d="M160 42a86.2 86.2 0 0 0-77.6 48.9A60 60 0 0 0 72 90a62 62 0 0 0 0 124h88a86 86 0 0 0 0-172Zm0 160H72a50 50 0 0 1 0-100a56.8 56.8 0 0 1 5.9.3A87.9 87.9 0 0 0 74 128a6 6 0 0 0 12 0a74 74 0 1 1 74 74Zm36.2-90.2a5.8 5.8 0 0 1 0 8.4l-48 48a5.8 5.8 0 0 1-8.4 0l-24-24a5.9 5.9 0 0 1 8.4-8.4l19.8 19.7l43.8-43.7a5.8 5.8 0 0 1 8.4 0Z"></path></svg>