<svg xmlns="http://www.w3.org/2000/svg" xmlns:xlink="http://www.w3.org/1999/xlink" aria-hidden="true" role="img" class="iconify iconify--ph" width="1em" height="1em" preserveAspectRatio="xMidYMid meet" viewBox="0 0 256 256"><path fill="currentColor" d="M199.8 195.1L97 82L53.9 34.6a8 8 0 0 0-11.8 10.8l39.2 43.1v.2A58.2 58.2 0 0 0 72 88a64 64 0 0 0 0 128h88a87.9 87.9 0 0 0 31.8-5.9l10.3 11.3a8 8 0 0 0 5.9 2.6a8.2 8.2 0 0 0 5.4-2.1a7.9 7.9 0 0 0 .5-11.3ZM160 200H72a48 48 0 0 1 0-96h3.3a87.8 87.8 0 0 0-3.3 24a8 8 0 0 0 16 0a70.6 70.6 0 0 1 5.1-26.5l87 95.7A75 75 0 0 1 160 200Zm88-72a87.3 87.3 0 0 1-22.4 58.6a7.6 7.6 0 0 1-5.9 2.7a7.7 7.7 0 0 1-5.3-2.1a8 8 0 0 1-.7-11.3A72 72 0 0 0 160 56a70.9 70.9 0 0 0-42.6 14a8.1 8.1 0 0 1-11.2-1.7a8 8 0 0 1 1.7-11.2A87.2 87.2 0 0 1 160 40a88.1 88.1 0 0 1 88 88Z"></path></svg>