<svg xmlns="http://www.w3.org/2000/svg" xmlns:xlink="http://www.w3.org/1999/xlink" aria-hidden="true" role="img" class="iconify iconify--ph" width="1em" height="1em" preserveAspectRatio="xMidYMid meet" viewBox="0 0 256 256"><path fill="currentColor" d="M190.2 169.8a6.1 6.1 0 0 1 0 8.5l-34 33.9a5.8 5.8 0 0 1-8.4 0l-34-33.9a6 6 0 0 1 8.5-8.5l23.7 23.7V128a6 6 0 0 1 12 0v65.5l23.7-23.7a6.1 6.1 0 0 1 8.5 0ZM160 42a86.2 86.2 0 0 0-77.6 48.9A60 60 0 0 0 72 90a62 62 0 0 0 0 124h24a6 6 0 0 0 0-12H72a50 50 0 0 1 0-100a38.1 38.1 0 0 1 5.9.4A86.7 86.7 0 0 0 74 128a6 6 0 0 0 12 0a74 74 0 0 1 148 0a73.2 73.2 0 0 1-14.8 44.4a6 6 0 1 0 9.6 7.2A85 85 0 0 0 246 128a86.1 86.1 0 0 0-86-86Z"></path></svg>