<svg xmlns="http://www.w3.org/2000/svg" xmlns:xlink="http://www.w3.org/1999/xlink" aria-hidden="true" role="img" class="iconify iconify--ph" width="1em" height="1em" preserveAspectRatio="xMidYMid meet" viewBox="0 0 256 256"><path fill="currentColor" d="M156 16a80.1 80.1 0 0 0-73.5 48.4A46.3 46.3 0 0 0 76 64a56 56 0 0 0 0 112h80a80 80 0 0 0 0-160Zm0 136H76a32 32 0 0 1 0-64h.4a70.3 70.3 0 0 0-.4 8a12 12 0 0 0 24 0a56 56 0 1 1 56 56Zm20 64a16 16 0 1 1-16-16a16 16 0 0 1 16 16Zm-96 0a16 16 0 1 1-16-16a16 16 0 0 1 16 16Zm48 0a16 16 0 1 1-16-16a16 16 0 0 1 16 16Z"></path></svg>