<svg xmlns="http://www.w3.org/2000/svg" xmlns:xlink="http://www.w3.org/1999/xlink" aria-hidden="true" role="img" class="iconify iconify--ph" width="1em" height="1em" preserveAspectRatio="xMidYMid meet" viewBox="0 0 256 256"><path fill="currentColor" d="M156 16a76.2 76.2 0 0 0-71 48.8a53.8 53.8 0 0 0-9-.8a52 52 0 0 0 0 104h80a76 76 0 0 0 0-152Zm0 136H76a36 36 0 0 1 0-72a40.3 40.3 0 0 1 4.9.3A74.9 74.9 0 0 0 80 92a8 8 0 0 0 16 0a60 60 0 1 1 60 60Zm20 44a12 12 0 1 1-12-12a12 12 0 0 1 12 12Zm-88 0a12 12 0 1 1-12-12a12 12 0 0 1 12 12Zm40 16a12 12 0 1 1-12-12a12 12 0 0 1 12 12Zm-48 24a12 12 0 1 1-12-12a12 12 0 0 1 12 12Zm88 0a12 12 0 1 1-12-12a12 12 0 0 1 12 12Z"></path></svg>