<svg xmlns="http://www.w3.org/2000/svg" xmlns:xlink="http://www.w3.org/1999/xlink" aria-hidden="true" role="img" class="iconify iconify--ph" width="1em" height="1em" preserveAspectRatio="xMidYMid meet" viewBox="0 0 256 256"><path fill="currentColor" d="M156 164a72 72 0 1 0-68.4-94.6A50.4 50.4 0 0 0 76 68a48 48 0 0 0 0 96h46.8l-22.1 33.8a3.8 3.8 0 0 0-.2 4.1a3.9 3.9 0 0 0 3.5 2.1h42.8l-22.1 33.8a3.9 3.9 0 0 0 1.1 5.5a3.6 3.6 0 0 0 2.2.7a3.8 3.8 0 0 0 3.3-1.8l26.3-40a4 4 0 0 0 .2-4.1a4.1 4.1 0 0 0-3.6-2.1h-42.8l21-32ZM36 116a40 40 0 0 1 40-40a43.3 43.3 0 0 1 9.5 1.1A73.1 73.1 0 0 0 84 92a4 4 0 0 0 8 0a64 64 0 1 1 64 64H76a40 40 0 0 1-40-40Z"></path></svg>