<svg xmlns="http://www.w3.org/2000/svg" xmlns:xlink="http://www.w3.org/1999/xlink" aria-hidden="true" role="img" class="iconify iconify--ph" width="1em" height="1em" preserveAspectRatio="xMidYMid meet" viewBox="0 0 256 256"><path fill="currentColor" d="M202.8 192.4h-.1L100 79.4c0-.1 0-.1-.1-.1l-43-47.4a12 12 0 0 0-17.8 16.2L71.8 84a68 68 0 0 0 .2 136h88a93.4 93.4 0 0 0 30.7-5.2l8.4 9.3a12.1 12.1 0 0 0 17 .8a12.1 12.1 0 0 0 .8-17ZM160 196H72a44 44 0 0 1-1.8-88a96.5 96.5 0 0 0-2.2 20a12 12 0 0 0 24 0a66.3 66.3 0 0 1 2.7-18.8l77.8 85.6A64.6 64.6 0 0 1 160 196Zm92-68a91.6 91.6 0 0 1-17.5 54a11.9 11.9 0 0 1-9.7 5a12.3 12.3 0 0 1-7.1-2.3a12 12 0 0 1-2.6-16.8a68 68 0 0 0-89.6-98.5a11.9 11.9 0 0 1-16.4-4.2a12.1 12.1 0 0 1 4.2-16.5A92 92 0 0 1 252 128Z"></path></svg>