<svg xmlns="http://www.w3.org/2000/svg" xmlns:xlink="http://www.w3.org/1999/xlink" aria-hidden="true" role="img" class="iconify iconify--ph" width="1em" height="1em" preserveAspectRatio="xMidYMid meet" viewBox="0 0 256 256"><path fill="currentColor" d="M156 18a74.2 74.2 0 0 0-69.7 49.1A50.7 50.7 0 0 0 76 66a50 50 0 0 0 0 100h80a74 74 0 0 0 0-148Zm0 136H76a38 38 0 0 1 0-76a35.1 35.1 0 0 1 7.2.7A73.1 73.1 0 0 0 82 92a6 6 0 0 0 12 0a62 62 0 1 1 62 62Zm18 42a10 10 0 1 1-10-10a10 10 0 0 1 10 10Zm-88 0a10 10 0 1 1-10-10a10 10 0 0 1 10 10Zm40 16a10 10 0 1 1-10-10a10 10 0 0 1 10 10Zm-48 24a10 10 0 1 1-10-10a10 10 0 0 1 10 10Zm88 0a10 10 0 1 1-10-10a10 10 0 0 1 10 10Z"></path></svg>