<svg xmlns="http://www.w3.org/2000/svg" xmlns:xlink="http://www.w3.org/1999/xlink" aria-hidden="true" role="img" class="iconify iconify--ph" width="1em" height="1em" preserveAspectRatio="xMidYMid meet" viewBox="0 0 256 256"><path fill="currentColor" d="M88 92a68 68 0 1 1 68 68H76a44 44 0 0 1 0-88a42.5 42.5 0 0 1 14.3 2.4" opacity=".2"></path><path fill="currentColor" d="M120 200H72a8 8 0 0 1 0-16h48a8 8 0 0 1 0 16Zm64-16h-24a8 8 0 0 0 0 16h24a8 8 0 0 0 0-16Zm-24 32h-56a8 8 0 0 0 0 16h56a8 8 0 0 0 0-16Zm72-124a76.1 76.1 0 0 1-76 76H76a52 52 0 0 1 0-104a53.8 53.8 0 0 1 9 .8A76 76 0 0 1 232 92Zm-16 0a60 60 0 0 0-120 0a8 8 0 0 1-16 0a74.9 74.9 0 0 1 .9-11.7A40.3 40.3 0 0 0 76 80a36 36 0 0 0 0 72h80a60 60 0 0 0 60-60Z"></path></svg>