<svg xmlns="http://www.w3.org/2000/svg" xmlns:xlink="http://www.w3.org/1999/xlink" aria-hidden="true" role="img" class="iconify iconify--ph" width="1em" height="1em" preserveAspectRatio="xMidYMid meet" viewBox="0 0 256 256"><path fill="currentColor" d="M80 128a80 80 0 1 1 80 80H72a56 56 0 0 1 0-112a57.5 57.5 0 0 1 13.9 1.7" opacity=".2"></path><path fill="currentColor" d="M160 216H72a64 64 0 0 1 0-128a58.2 58.2 0 0 1 9.3.7A88 88 0 1 1 160 216ZM72 104a48 48 0 0 0 0 96h88a72 72 0 1 0-72-72a8 8 0 0 1-16 0a89.6 89.6 0 0 1 3.3-23.9Z"></path></svg>