<svg xmlns="http://www.w3.org/2000/svg" xmlns:xlink="http://www.w3.org/1999/xlink" aria-hidden="true" role="img" class="iconify iconify--ph" width="1em" height="1em" preserveAspectRatio="xMidYMid meet" viewBox="0 0 256 256"><path fill="currentColor" d="M156 68a79.9 79.9 0 0 0-18.4 2.2a75.8 75.8 0 0 0-6-7.5l7.5-10.8a12 12 0 1 0-19.6-13.8l-7.6 10.8A60.3 60.3 0 0 0 89.6 44l-2.3-13a12 12 0 1 0-23.6 4.2l2.3 13a59.1 59.1 0 0 0-19.3 12.2l-10.8-7.5a12 12 0 1 0-13.8 19.6l10.8 7.6a60.8 60.8 0 0 0-4.9 22.3l-13 2.3a12 12 0 0 0 2.1 23.8l2.1-.2l13-2.3a68.9 68.9 0 0 0 3.4 7.3A55.9 55.9 0 0 0 76 228h80a80 80 0 0 0 0-160Zm-74.5.6h.4a36.1 36.1 0 0 1 26.2 5.6l.5.4l.7.4a38.7 38.7 0 0 1 5.2 4.7a80.7 80.7 0 0 0-32 36.8a46.3 46.3 0 0 0-6.5-.5a56.8 56.8 0 0 0-20.3 3.8a33.5 33.5 0 0 1-3.1-9.4c0-.1 0-.1-.1-.2v-.2a35.7 35.7 0 0 1 5.9-26.5c0-.1.1-.1.1-.2h.1a35.6 35.6 0 0 1 22.9-14.7ZM156 204H76a32 32 0 0 1 0-64h.4a70.3 70.3 0 0 0-.4 8a12 12 0 0 0 24 0a56 56 0 1 1 56 56Z"></path></svg>