<svg xmlns="http://www.w3.org/2000/svg" xmlns:xlink="http://www.w3.org/1999/xlink" aria-hidden="true" role="img" class="iconify iconify--ph" width="1em" height="1em" preserveAspectRatio="xMidYMid meet" viewBox="0 0 256 256"><path fill="currentColor" d="M246 128a85 85 0 0 1-17.2 51.6a6 6 0 1 1-9.6-7.2A73.2 73.2 0 0 0 234 128a74 74 0 0 0-148 0a6 6 0 0 1-12 0a86.7 86.7 0 0 1 3.9-25.6a38.1 38.1 0 0 0-5.9-.4a50 50 0 0 0 0 100h24a6 6 0 0 1 0 12H72a62 62 0 0 1 0-124a60 60 0 0 1 10.4.9A86 86 0 0 1 246 128Zm-89.8-4.2a5.8 5.8 0 0 0-8.4 0l-34 33.9a6 6 0 0 0 8.5 8.5l23.7-23.7V208a6 6 0 0 0 12 0v-65.5l23.7 23.7a5.8 5.8 0 0 0 4.2 1.7a5.9 5.9 0 0 0 4.3-1.7a6.1 6.1 0 0 0 0-8.5Z"></path></svg>