<svg xmlns="http://www.w3.org/2000/svg" xmlns:xlink="http://www.w3.org/1999/xlink" aria-hidden="true" role="img" class="iconify iconify--ph" width="1em" height="1em" preserveAspectRatio="xMidYMid meet" viewBox="0 0 256 256"><path fill="currentColor" d="M160 36a92.2 92.2 0 0 0-81 48.4a53.7 53.7 0 0 0-7-.4a68 68 0 0 0 0 136h88a92 92 0 0 0 0-184Zm0 160H72a44 44 0 0 1-1.8-88a94.3 94.3 0 0 0-2.2 20a12 12 0 0 0 24 0a68 68 0 1 1 68 68Zm40.5-88.5a12 12 0 0 1 0 17l-48 48a12.1 12.1 0 0 1-17 0l-24-24a12 12 0 0 1 17-17L144 147l39.5-39.5a12 12 0 0 1 17 0Z"></path></svg>