<svg xmlns="http://www.w3.org/2000/svg" xmlns:xlink="http://www.w3.org/1999/xlink" aria-hidden="true" role="img" class="iconify iconify--ph" width="1em" height="1em" preserveAspectRatio="xMidYMid meet" viewBox="0 0 256 256"><path fill="currentColor" d="M160.1 40a88.1 88.1 0 0 0-78.8 48.7a86.6 86.6 0 0 0-9.3 39a8.2 8.2 0 0 1-7.4 8.3a8 8 0 0 1-8.6-8a105 105 0 0 1 5.3-32.9a4 4 0 0 0-4.7-5.2A64 64 0 0 0 8 152c0 35.2 29.8 64 64.9 64H160a88 88 0 0 0 .1-176Zm37.6 81.7l-48 48a8.2 8.2 0 0 1-11.4 0l-24-24a8.1 8.1 0 0 1 11.4-11.4l18.3 18.4l42.3-42.4a8.1 8.1 0 0 1 11.4 11.4Z"></path></svg>