<svg xmlns="http://www.w3.org/2000/svg" xmlns:xlink="http://www.w3.org/1999/xlink" aria-hidden="true" role="img" class="iconify iconify--ph" width="1em" height="1em" preserveAspectRatio="xMidYMid meet" viewBox="0 0 256 256"><path fill="currentColor" d="M120 196H72a4 4 0 0 1 0-8h48a4 4 0 0 1 0 8Zm64-8h-24a4 4 0 0 0 0 8h24a4 4 0 0 0 0-8Zm-24 32h-56a4 4 0 0 0 0 8h56a4 4 0 0 0 0-8Zm68-128a72.1 72.1 0 0 1-72 72H76a48 48 0 0 1 0-96a50.4 50.4 0 0 1 11.6 1.4A72 72 0 0 1 228 92Zm-8 0a64 64 0 0 0-128 0a4 4 0 0 1-8 0a73.1 73.1 0 0 1 1.5-14.9A43.3 43.3 0 0 0 76 76a40 40 0 0 0 0 80h80a64.1 64.1 0 0 0 64-64Z"></path></svg>