<svg xmlns="http://www.w3.org/2000/svg" xmlns:xlink="http://www.w3.org/1999/xlink" aria-hidden="true" role="img" class="iconify iconify--ph" width="1em" height="1em" preserveAspectRatio="xMidYMid meet" viewBox="0 0 256 256"><path fill="currentColor" d="M176 196a12 12 0 1 1-12-12a12 12 0 0 1 12 12ZM76 184a12 12 0 1 0 12 12a12 12 0 0 0-12-12Zm40 16a12 12 0 1 0 12 12a12 12 0 0 0-12-12Zm-48 24a12 12 0 1 0 12 12a12 12 0 0 0-12-12Zm88 0a12 12 0 1 0 12 12a12 12 0 0 0-12-12Zm3.3-207.9A76.1 76.1 0 0 0 85 64.8a74.8 74.8 0 0 0-5 26.9a8.3 8.3 0 0 1-7.4 8.3a8 8 0 0 1-8.6-8a91.6 91.6 0 0 1 2.4-21.1a3.9 3.9 0 0 0-4.9-4.8A52 52 0 0 0 24 116.3C24.2 145 48.1 168 76.8 168H156a76 76 0 0 0 3.3-151.9Z"></path></svg>