<svg xmlns="http://www.w3.org/2000/svg" xmlns:xlink="http://www.w3.org/1999/xlink" aria-hidden="true" role="img" class="iconify iconify--ph" width="1em" height="1em" preserveAspectRatio="xMidYMid meet" viewBox="0 0 256 256"><path fill="currentColor" d="M168 224a8 8 0 0 1-8 8h-56a8 8 0 0 1 0-16h56a8 8 0 0 1 8 8Zm-40-32a8 8 0 0 0-8-8H72a8 8 0 0 0 0 16h48a8 8 0 0 0 8-8Zm56-8h-24a8 8 0 0 0 0 16h24a8 8 0 0 0 0-16ZM159.3 16.1A76.1 76.1 0 0 0 85 64.8a76.4 76.4 0 0 0-5 26.9a8.3 8.3 0 0 1-7.4 8.3a8 8 0 0 1-8.6-8a88.2 88.2 0 0 1 2.5-21.1a4 4 0 0 0-5-4.8A52 52 0 0 0 24 116.3C24.2 145 48.1 168 76.8 168H156a76 76 0 0 0 3.3-151.9Z"></path></svg>