<svg xmlns="http://www.w3.org/2000/svg" xmlns:xlink="http://www.w3.org/1999/xlink" aria-hidden="true" role="img" class="iconify iconify--ph" width="1em" height="1em" preserveAspectRatio="xMidYMid meet" viewBox="0 0 256 256"><path fill="currentColor" d="M156 172A80 80 0 1 0 82.5 60.4A46.3 46.3 0 0 0 76 60a56 56 0 0 0 0 112h32l-14 21.4a11.8 11.8 0 0 0-.6 12.3A12 12 0 0 0 104 212h28l-14 21.4a11.9 11.9 0 0 0 3.4 16.6a11.4 11.4 0 0 0 6.6 2a11.9 11.9 0 0 0 10-5.4l26.3-40a12.1 12.1 0 0 0 .5-12.3a11.9 11.9 0 0 0-10.6-6.3h-28l10.5-16ZM44 116a32.1 32.1 0 0 1 32-32h.4a70.3 70.3 0 0 0-.4 8a12 12 0 0 0 24 0a56 56 0 1 1 56 56H76a32.1 32.1 0 0 1-32-32Z"></path></svg>