<svg xmlns="http://www.w3.org/2000/svg" xmlns:xlink="http://www.w3.org/1999/xlink" aria-hidden="true" role="img" class="iconify iconify--ph" width="1em" height="1em" preserveAspectRatio="xMidYMid meet" viewBox="0 0 256 256"><path fill="currentColor" d="M160 40a88 88 0 0 0-78.7 48.7A58.2 58.2 0 0 0 72 88a64 64 0 0 0 0 128h88a88 88 0 0 0 0-176Zm0 160H72a48 48 0 0 1 0-96h3.3a85.7 85.7 0 0 0-3.3 24a8 8 0 0 0 16 0a72 72 0 1 1 72 72Zm37.7-89.7a8.1 8.1 0 0 1 0 11.4l-48 48a8.2 8.2 0 0 1-11.4 0l-24-24a8.1 8.1 0 0 1 11.4-11.4l18.3 18.4l42.3-42.4a8.1 8.1 0 0 1 11.4 0Z"></path></svg>