<svg xmlns="http://www.w3.org/2000/svg" xmlns:xlink="http://www.w3.org/1999/xlink" aria-hidden="true" role="img" class="iconify iconify--ph" width="1em" height="1em" preserveAspectRatio="xMidYMid meet" viewBox="0 0 256 256"><path fill="currentColor" d="m134.6 168l-15.8 24H154a8 8 0 0 1 6.2 2.7a7.8 7.8 0 0 1 .7 9.7l-26.2 40a8 8 0 0 1-6.7 3.6a7.9 7.9 0 0 1-5-1.8a8.2 8.2 0 0 1-1.6-10.8l18-27.4h-35.2a8.3 8.3 0 0 1-6.2-2.7a8.1 8.1 0 0 1-.7-9.7l18.1-27.6H76.8c-28.7 0-52.6-23-52.8-51.7a52 52 0 0 1 37.5-50.2a4 4 0 0 1 5 4.7a91.4 91.4 0 0 0-2.5 21a8.3 8.3 0 0 0 7.5 8.2a8 8 0 0 0 8.5-8a76.4 76.4 0 0 1 5-27.2A76 76 0 1 1 156 168Z"></path></svg>