<svg xmlns="http://www.w3.org/2000/svg" xmlns:xlink="http://www.w3.org/1999/xlink" aria-hidden="true" role="img" class="iconify iconify--ph" width="1em" height="1em" preserveAspectRatio="xMidYMid meet" viewBox="0 0 256 256"><path fill="currentColor" d="M156 68h-1A75.8 75.8 0 0 0 97.1 5.9a12.1 12.1 0 0 0-11.2 3.2a12.2 12.2 0 0 0-3.2 11.2A50.6 50.6 0 0 1 84 32a52 52 0 0 1-52 52a50.6 50.6 0 0 1-11.7-1.3a12.2 12.2 0 0 0-11.2 3.2a12.1 12.1 0 0 0-3.2 11.2a75.5 75.5 0 0 0 25.4 41.2A56 56 0 0 0 76 228h80a80 80 0 0 0 0-160Zm-48.1-32a52 52 0 0 1 23.5 35.9a80.4 80.4 0 0 0-48.9 44.5a46.3 46.3 0 0 0-6.5-.4a55.3 55.3 0 0 0-26 6.4a50.5 50.5 0 0 1-13.9-14.5A76.1 76.1 0 0 0 107.9 36ZM156 204H76a32 32 0 0 1 0-64h.4a70.3 70.3 0 0 0-.4 8a12 12 0 0 0 24 0a56 56 0 1 1 56 56Z"></path></svg>