<svg xmlns="http://www.w3.org/2000/svg" xmlns:xlink="http://www.w3.org/1999/xlink" aria-hidden="true" role="img" class="iconify iconify--ph" width="1em" height="1em" preserveAspectRatio="xMidYMid meet" viewBox="0 0 256 256"><path fill="currentColor" d="M213.9 210.6a7.9 7.9 0 0 1-.5 11.3a8.2 8.2 0 0 1-5.4 2.1a8 8 0 0 1-5.9-2.6l-10.3-11.3A87.9 87.9 0 0 1 160 216H72a64 64 0 0 1 0-128a58.2 58.2 0 0 1 9.3.7v-.2L42.1 45.4a8 8 0 0 1 11.8-10.8ZM160 40a87.2 87.2 0 0 0-52.1 17.1a7.9 7.9 0 0 0-3.2 5.6a7.8 7.8 0 0 0 2 6.2l107.1 117.8a8.1 8.1 0 0 0 5.9 2.6a7.8 7.8 0 0 0 5.9-2.7A88 88 0 0 0 160 40Z"></path></svg>