<svg xmlns="http://www.w3.org/2000/svg" xmlns:xlink="http://www.w3.org/1999/xlink" aria-hidden="true" role="img" class="iconify iconify--ph" width="1em" height="1em" preserveAspectRatio="xMidYMid meet" viewBox="0 0 256 256"><path fill="currentColor" d="M160.1 40a88.1 88.1 0 0 0-78.8 48.7a86.6 86.6 0 0 0-9.3 39a8.2 8.2 0 0 1-7.4 8.3a8 8 0 0 1-8.6-8a105 105 0 0 1 5.3-32.9a4 4 0 0 0-4.7-5.2A64 64 0 0 0 8 152c0 35.2 29.8 64 64.9 64H160a88 88 0 0 0 .1-176Zm31.5 111.6a8.3 8.3 0 0 1-5.7 2.3a8 8 0 0 1-5.6-2.3L160 131.3V192a8 8 0 0 1-16 0v-60.7l-20.3 20.3a8 8 0 0 1-11.3-11.3l33.9-34a8.1 8.1 0 0 1 11.4 0l33.9 34a8 8 0 0 1 0 11.3Z"></path></svg>