<svg xmlns="http://www.w3.org/2000/svg" xmlns:xlink="http://www.w3.org/1999/xlink" aria-hidden="true" role="img" class="iconify iconify--ph" width="1em" height="1em" preserveAspectRatio="xMidYMid meet" viewBox="0 0 256 256"><path fill="currentColor" d="M188.8 171.2a4.2 4.2 0 0 1 0 5.7l-34 33.9a3.9 3.9 0 0 1-5.6 0l-34-33.9a4 4 0 0 1 5.7-5.7l27.1 27.1V128a4 4 0 0 1 8 0v70.3l27.1-27.1a4.2 4.2 0 0 1 5.7 0ZM160 44a84.2 84.2 0 0 0-76.4 49.1A64.2 64.2 0 0 0 72 92a60 60 0 0 0 0 120h24a4 4 0 0 0 0-8H72a52 52 0 0 1 0-104a62.3 62.3 0 0 1 8.6.7A82.8 82.8 0 0 0 76 128a4 4 0 0 0 8 0a76 76 0 1 1 136.8 45.6a4 4 0 0 0 .8 5.6a4.3 4.3 0 0 0 2.4.8a3.9 3.9 0 0 0 3.2-1.6A83.2 83.2 0 0 0 244 128a84.1 84.1 0 0 0-84-84Z"></path></svg>