<svg xmlns="http://www.w3.org/2000/svg" xmlns:xlink="http://www.w3.org/1999/xlink" aria-hidden="true" role="img" class="iconify iconify--ph" width="1em" height="1em" preserveAspectRatio="xMidYMid meet" viewBox="0 0 256 256"><path fill="currentColor" d="M156 74a73.9 73.9 0 0 0-21.2 3.1a52.5 52.5 0 0 0-11.1-13.6l10.5-15a6.1 6.1 0 0 0-1.5-8.4a6 6 0 0 0-8.3 1.5l-10.5 15a53.6 53.6 0 0 0-29.3-6.5l-3.2-18a6 6 0 0 0-11.8 2l3.2 18.1a52.3 52.3 0 0 0-25.3 16.1l-15-10.5a6 6 0 1 0-6.9 9.8l15 10.5a53.5 53.5 0 0 0-6.5 29.3l-18 3.2a5.9 5.9 0 0 0-4.9 6.9a6 6 0 0 0 5.9 5h1l18.1-3.2a53.5 53.5 0 0 0 7.1 15.1A49.5 49.5 0 0 0 26 172a50 50 0 0 0 50 50h80a74 74 0 0 0 0-148ZM46.7 111.4h-.1v-.2A41.9 41.9 0 0 1 53.5 80h.1c0-.1.1-.1.1-.2a41.5 41.5 0 0 1 26.9-17a.1.1 0 0 1 .1-.1h.2a42.1 42.1 0 0 1 30.7 6.6l.5.4l.4.3a42 42 0 0 1 11 11.6a74.6 74.6 0 0 0-37.2 41.6A50.7 50.7 0 0 0 76 122a49.8 49.8 0 0 0-22.8 5.5a40.6 40.6 0 0 1-6.5-16.1ZM156 210H76a38 38 0 0 1 0-76a35.1 35.1 0 0 1 7.2.7A73.1 73.1 0 0 0 82 148a6 6 0 0 0 12 0a62 62 0 1 1 62 62Z"></path></svg>