<svg xmlns="http://www.w3.org/2000/svg" xmlns:xlink="http://www.w3.org/1999/xlink" aria-hidden="true" role="img" class="iconify iconify--ph" width="1em" height="1em" preserveAspectRatio="xMidYMid meet" viewBox="0 0 256 256"><path fill="currentColor" d="m159.3 203.3l-26.3 40a6.1 6.1 0 0 1-5 2.7a5.8 5.8 0 0 1-3.3-1a6 6 0 0 1-1.7-8.3l26.2-40a6 6 0 0 1 10.1 6.6ZM230 92a74.1 74.1 0 0 1-74 74h-22.5l-29.7 45.3a6.3 6.3 0 0 1-5.1 2.7a5.5 5.5 0 0 1-3.2-1a6 6 0 0 1-1.8-8.3l25.4-38.7H76a50 50 0 0 1 0-100a50.7 50.7 0 0 1 10.3 1.1A74 74 0 0 1 230 92Zm-12 0a62 62 0 0 0-124 0a6 6 0 0 1-12 0a73.1 73.1 0 0 1 1.2-13.3A35.1 35.1 0 0 0 76 78a38 38 0 0 0 0 76h80a62.1 62.1 0 0 0 62-62Z"></path></svg>