<svg xmlns="http://www.w3.org/2000/svg" xmlns:xlink="http://www.w3.org/1999/xlink" aria-hidden="true" role="img" class="iconify iconify--ph" width="1em" height="1em" preserveAspectRatio="xMidYMid meet" viewBox="0 0 256 256"><path fill="currentColor" d="M186.7 88.4A57.4 57.4 0 0 0 188 76a60 60 0 0 0-120 0a57.4 57.4 0 0 0 1.3 12.4A60 60 0 0 0 76 208a57 57 0 0 0 12.5-1.3l-4.3 23.1A12 12 0 0 0 96 244h64a12 12 0 0 0 11.8-14.2l-4.3-23.1A57 57 0 0 0 180 208a60 60 0 0 0 6.7-119.6ZM180 184a35.6 35.6 0 0 1-21.4-7a11.9 11.9 0 0 0-13.5-.6a12.1 12.1 0 0 0-5.4 12.4l5.8 31.2h-35l5.8-31.2a12.1 12.1 0 0 0-5.4-12.4a11.9 11.9 0 0 0-13.5.6a35.6 35.6 0 0 1-21.4 7a36 36 0 0 1 0-72a37.5 37.5 0 0 1 8.2.9a13.4 13.4 0 0 0 4.9.3a12.2 12.2 0 0 0 9.8-9a12.5 12.5 0 0 0-1.4-9.1l-.2-.3A35.4 35.4 0 0 1 92 76a36 36 0 1 1 66.8 18.7a11.3 11.3 0 0 0-1.9 5.1a12 12 0 0 0 15 13.1a36.6 36.6 0 0 1 8.1-.9a36 36 0 0 1 0 72Z"></path></svg>