<svg xmlns="http://www.w3.org/2000/svg" xmlns:xlink="http://www.w3.org/1999/xlink" aria-hidden="true" role="img" class="iconify iconify--ph" width="1em" height="1em" preserveAspectRatio="xMidYMid meet" viewBox="0 0 256 256"><path fill="currentColor" d="M160 238H96a6 6 0 0 1-4.8-2.4a5.9 5.9 0 0 1-.9-5.4l10.7-34.3A54 54 0 1 1 76 94h1.1a54 54 0 1 1 101.8 0h1.1a54 54 0 1 1-25 101.9l10.7 34.3a5.9 5.9 0 0 1-.9 5.4a6 6 0 0 1-4.8 2.4Zm-55.8-12h47.6l-14-45.1a5.9 5.9 0 0 1 10.2-5.6a42 42 0 1 0 32-69.3a44.2 44.2 0 0 0-9.6 1.1a5.7 5.7 0 0 1-4.4-.5a6.1 6.1 0 0 1-3.2-6a7.9 7.9 0 0 1 1-2.7A41 41 0 0 0 170 76a42 42 0 0 0-84 0a42.5 42.5 0 0 0 6.2 22c.1.1.1.1.1.2a5.9 5.9 0 0 1-4.2 9a4.9 4.9 0 0 1-2.4-.1A45.1 45.1 0 0 0 76 106a42 42 0 1 0 32 69.3a5.9 5.9 0 0 1 10.2 5.6Z"></path></svg>