<svg xmlns="http://www.w3.org/2000/svg" xmlns:xlink="http://www.w3.org/1999/xlink" aria-hidden="true" role="img" class="iconify iconify--ph" width="1em" height="1em" preserveAspectRatio="xMidYMid meet" viewBox="0 0 256 256"><path fill="currentColor" d="M240.4 172.8L138 96l25.6-19.2A6 6 0 0 0 166 72a38 38 0 0 0-76 0a6 6 0 0 0 12 0a26 26 0 0 1 51.8-2.9l-29.3 22l-.2.2l-108.7 81.5A14 14 0 0 0 24 198h208a14 14 0 0 0 8.4-25.2Zm-6.5 11.8a1.8 1.8 0 0 1-1.9 1.4H24a1.8 1.8 0 0 1-1.9-1.4a1.8 1.8 0 0 1 .7-2.2L128 103.5l105.2 78.9a1.8 1.8 0 0 1 .7 2.2Z"></path></svg>