<svg xmlns="http://www.w3.org/2000/svg" xmlns:xlink="http://www.w3.org/1999/xlink" aria-hidden="true" role="img" class="iconify iconify--ph" width="1em" height="1em" preserveAspectRatio="xMidYMid meet" viewBox="0 0 256 256"><path fill="currentColor" d="M239.2 174.4L134.7 96l27.7-20.8A4 4 0 0 0 164 72a36 36 0 0 0-72 0a4 4 0 0 0 8 0a28 28 0 0 1 55.9-1.9l-30.2 22.6l-.2.2l-108.7 81.5a12 12 0 0 0-4.2 13.4A11.8 11.8 0 0 0 24 196h208a11.8 11.8 0 0 0 11.4-8.2a12 12 0 0 0-4.2-13.4Zm-3.4 10.9a3.9 3.9 0 0 1-3.8 2.7H24a3.9 3.9 0 0 1-3.8-2.7a4 4 0 0 1 1.4-4.5L128 101l106.4 79.8a4 4 0 0 1 1.4 4.5Z"></path></svg>