<svg xmlns="http://www.w3.org/2000/svg" xmlns:xlink="http://www.w3.org/1999/xlink" aria-hidden="true" role="img" class="iconify iconify--ph" width="1em" height="1em" preserveAspectRatio="xMidYMid meet" viewBox="0 0 256 256"><path fill="currentColor" d="M230 78.7a14.8 14.8 0 0 0-1.8-6.9h-.1a14.1 14.1 0 0 0-5.2-5.1l-88-49.7a14.1 14.1 0 0 0-13.8 0l-88 49.5a13.8 13.8 0 0 0-4.9 4.7l-.3.4h-.1a13.7 13.7 0 0 0-1.8 7.1v98.6a14 14 0 0 0 7.1 12.2l88 49.5a14.8 14.8 0 0 0 6.1 1.8h1.6a14.8 14.8 0 0 0 6.1-1.8l88-49.5a14 14 0 0 0 7.1-12.2Zm-101.1 42.4L44.3 74L79 54.4l46.1 25.9a5.7 5.7 0 0 0 5.8 0L177 54.4L211.8 74ZM127 27.4l1-.2l1 .2l35.7 20.1L128 68.2L91.3 47.5ZM38 177.3v-40.1l36 20.2v41.3l-35-19.6a2.2 2.2 0 0 1-1-1.8Zm48 28.2v-51.6a6.1 6.1 0 0 0-3.1-5.2L38 123.4V84.2l84.9 47.3l-.8 94.3Zm48.1 20.2l.8-94.2L218 84.3v39.1l-44.9 25.3a6.1 6.1 0 0 0-3.1 5.2v51.6Zm82.9-46.6l-35 19.6v-41.3l36-20.2v40.1a2.2 2.2 0 0 1-1 1.8Z"></path></svg>