<svg xmlns="http://www.w3.org/2000/svg" xmlns:xlink="http://www.w3.org/1999/xlink" aria-hidden="true" role="img" class="iconify iconify--ph" width="1em" height="1em" preserveAspectRatio="xMidYMid meet" viewBox="0 0 256 256"><path fill="currentColor" d="m237.9 90.6l-100-56.8a20 20 0 0 0-19.8 0l-100 56.8A11.9 11.9 0 0 0 12 101v64a11.9 11.9 0 0 0 6.1 10.4l100 56.8a20.1 20.1 0 0 0 19.8 0l100-56.8A11.9 11.9 0 0 0 244 165v-64a11.9 11.9 0 0 0-6.1-10.4ZM220 144.4L199.9 133l20.1-11.4Zm-44.4-25.2L140 99V62.6l67.7 38.4Zm-47.6 27L104.7 133l23.3-13.2l23.3 13.2Zm-12-83.6V99l-35.6 20.2L48.3 101Zm-80 59L56.1 133L36 144.4Zm44.4 25.2L116 167v36.4L48.3 165Zm59.6 56.6V167l35.6-20.2l32.1 18.2Z"></path></svg>