<svg xmlns="http://www.w3.org/2000/svg" xmlns:xlink="http://www.w3.org/1999/xlink" aria-hidden="true" role="img" class="iconify iconify--ph" width="1em" height="1em" preserveAspectRatio="xMidYMid meet" viewBox="0 0 256 256"><path fill="currentColor" d="M66.6 91.1L22.3 128l44.3 36.9a4.1 4.1 0 0 1 .5 5.7A4.3 4.3 0 0 1 64 172a4.3 4.3 0 0 1-2.6-.9l-48-40a4.1 4.1 0 0 1 0-6.2l48-40a4 4 0 0 1 5.2 6.2Zm176 33.8l-48-40a4 4 0 1 0-5.2 6.2l44.4 36.9l-44.4 36.9a4.1 4.1 0 0 0-.5 5.7a4.3 4.3 0 0 0 3.1 1.4a4.3 4.3 0 0 0 2.6-.9l48-40a4.1 4.1 0 0 0 0-6.2Zm-81.2-88.7a4.2 4.2 0 0 0-5.2 2.4l-64 176a4.2 4.2 0 0 0 2.4 5.2l1.4.2a4.1 4.1 0 0 0 3.8-2.6l64-176a4.2 4.2 0 0 0-2.4-5.2Z"></path></svg>