<svg xmlns="http://www.w3.org/2000/svg" xmlns:xlink="http://www.w3.org/1999/xlink" aria-hidden="true" role="img" class="iconify iconify--ph" width="1em" height="1em" preserveAspectRatio="xMidYMid meet" viewBox="0 0 256 256"><path fill="currentColor" d="M229.9 70.8h-.1a15.5 15.5 0 0 0-6-5.9l-88-49.5a16 16 0 0 0-15.6 0l-88 49.5a16.2 16.2 0 0 0-6 5.9a.1.1 0 0 1-.1.1v.2a15 15 0 0 0-2.1 7.6v98.6a16.1 16.1 0 0 0 8.2 14l88 49.5a16.5 16.5 0 0 0 7.2 2h1.3a16.1 16.1 0 0 0 7.1-2l88-49.5a16.1 16.1 0 0 0 8.2-14V78.7a15.6 15.6 0 0 0-2.1-7.9ZM120.1 222.4L88 204.3v-50.4a7.9 7.9 0 0 0-4.1-6.9L40 122.2V87.6l80.9 45.1Zm8.8-103.6L48.4 74L79 56.7L124.1 82a7.5 7.5 0 0 0 7.8 0L177 56.7L207.7 74Zm87.1 3.4L172.1 147a7.9 7.9 0 0 0-4.1 6.9v50.4l-31.9 18l.8-89.6l79.1-45Z"></path></svg>