<svg xmlns="http://www.w3.org/2000/svg" xmlns:xlink="http://www.w3.org/1999/xlink" aria-hidden="true" role="img" class="iconify iconify--ph" width="1em" height="1em" preserveAspectRatio="xMidYMid meet" viewBox="0 0 256 256"><path fill="currentColor" d="M240 101v64a8 8 0 0 1-4.1 7L142 225.3a4 4 0 0 1-6-3.5v-57.1l55.8-31.7l32.2 18.3v-36.6L191.8 133l-16.2-9.2l40.2-22.8L136 55.7v45.6l39.6 22.5l-47.6 27l-47.6-27l39.6-22.5V55.7L40.2 101l40.2 22.8l-16.2 9.2L32 114.7v36.6L64.2 133l55.8 31.7v57.1a4 4 0 0 1-6 3.5L20.1 172a8 8 0 0 1-4.1-7v-64a8 8 0 0 1 4.1-7l100-56.7a15.9 15.9 0 0 1 15.8 0l100 56.7a8 8 0 0 1 4.1 7Z"></path></svg>