<svg xmlns="http://www.w3.org/2000/svg" xmlns:xlink="http://www.w3.org/1999/xlink" aria-hidden="true" role="img" class="iconify iconify--ph" width="1em" height="1em" preserveAspectRatio="xMidYMid meet" viewBox="0 0 256 256"><path fill="currentColor" d="M234 97.5L133.9 40.8a11.8 11.8 0 0 0-11.8 0L22 97.5a4.2 4.2 0 0 0-2 3.5v64a4.2 4.2 0 0 0 2 3.5l100.1 56.7a11.7 11.7 0 0 0 11.8 0L234 168.5a4.2 4.2 0 0 0 2-3.5v-64a4.2 4.2 0 0 0-2-3.5Zm-6 60.6L183.7 133l44.3-25.1Zm-4.1-57.1l-48.3 27.4l-43.6-24.7V48.9ZM128 155.4L88.5 133l39.5-22.4l39.5 22.4Zm-4-106.5v54.8l-43.6 24.7L32.1 101Zm-96 59L72.3 133L28 158.1Zm4.1 57.1l48.3-27.4l43.6 24.7v54.8Zm99.9 52.1v-54.8l43.6-24.7l48.3 27.4Z"></path></svg>