<svg xmlns="http://www.w3.org/2000/svg" xmlns:xlink="http://www.w3.org/1999/xlink" aria-hidden="true" role="img" class="iconify iconify--ph" width="1em" height="1em" preserveAspectRatio="xMidYMid meet" viewBox="0 0 256 256"><path fill="currentColor" d="M226.4 72.7a12.7 12.7 0 0 0-4.5-4.4l-88-49.5a12.4 12.4 0 0 0-11.8 0l-88 49.5a12.7 12.7 0 0 0-4.5 4.4a11.8 11.8 0 0 0-1.6 6v98.6a11.9 11.9 0 0 0 6.1 10.5l88 49.5a11.5 11.5 0 0 0 5.6 1.5h.6a12.3 12.3 0 0 0 5.6-1.5l88-49.5a11.9 11.9 0 0 0 6.1-10.5V78.7a12.5 12.5 0 0 0-1.6-6Zm-97.5 50.7L40.2 74L79 52.1l47 26.5a4.2 4.2 0 0 0 4 0l47-26.5L215.9 74ZM126 25.7a4.3 4.3 0 0 1 4 0l38.8 21.8l-40.8 23l-40.8-23ZM36 177.3v-43.5l40 22.5v45.9l-38-21.4a4 4 0 0 1-2-3.5Zm48 29.4v-52.8a4.3 4.3 0 0 0-2-3.5l-46-25.8V80.8l88.9 49.5l-.8 98.9Zm48.1 22.4l.8-98.8L220 80.9v43.7l-46 25.8a4.3 4.3 0 0 0-2 3.5v52.8Zm85.9-48.3l-38 21.4v-45.9l40-22.5v43.5a4 4 0 0 1-2 3.5Z"></path></svg>