<svg xmlns="http://www.w3.org/2000/svg" xmlns:xlink="http://www.w3.org/1999/xlink" aria-hidden="true" role="img" class="iconify iconify--ph" width="1em" height="1em" preserveAspectRatio="xMidYMid meet" viewBox="0 0 256 256"><path fill="currentColor" d="m177 47.5l-49 27.6l-49-27.6l45.1-25.3a7.8 7.8 0 0 1 7.8 0Zm-1 106.4V209l43.9-24.7a8.1 8.1 0 0 0 4.1-7v-50.4ZM32 177.3a8.1 8.1 0 0 0 4.1 7L80 209v-55.1l-48-27Z" opacity=".2"></path><path fill="currentColor" d="M232 78.7a15.6 15.6 0 0 0-2.1-7.9h-.1a15.5 15.5 0 0 0-6-5.9l-88-49.5a16 16 0 0 0-15.6 0l-88 49.5a16.2 16.2 0 0 0-6 5.9a.1.1 0 0 1-.1.1v.2a15 15 0 0 0-2.1 7.6v98.6a16.1 16.1 0 0 0 8.2 14l88 49.5a16.5 16.5 0 0 0 7.2 2h1.3a16.1 16.1 0 0 0 7.1-2l88-49.5a16.1 16.1 0 0 0 8.2-14Zm-64 75.2v50.4l-31.9 18l.8-89.6l79.1-45v34.5L172.1 147a7.9 7.9 0 0 0-4.1 6.9ZM83.9 147L40 122.2V87.6l80.9 45.1l-.8 89.7L88 204.3v-50.4a7.9 7.9 0 0 0-4.1-6.9ZM79 56.7L124.1 82a7.5 7.5 0 0 0 7.8 0L177 56.7L207.7 74l-78.8 44.8L48.4 74Zm49-27.5l32.6 18.3L128 65.9L95.4 47.5ZM40 140.6l32 18v36.7l-32-18Zm144 54.7v-36.7l32-18v36.7Z"></path></svg>