<svg xmlns="http://www.w3.org/2000/svg" xmlns:xlink="http://www.w3.org/1999/xlink" aria-hidden="true" role="img" class="iconify iconify--ph" width="1em" height="1em" preserveAspectRatio="xMidYMid meet" viewBox="0 0 256 256"><path fill="currentColor" d="M236 78.7a19.4 19.4 0 0 0-2.6-9.8c0-.1 0-.1-.1-.2a20.5 20.5 0 0 0-7.5-7.4l-88-49.5a20.1 20.1 0 0 0-19.6 0l-88 49.5a20 20 0 0 0-7.5 7.5h-.1a.3.3 0 0 1-.1.2a20 20 0 0 0-2.5 9.7v98.6a20.2 20.2 0 0 0 10.2 17.5l88 49.5a20.6 20.6 0 0 0 9 2.5h1.7a21.2 21.2 0 0 0 8.9-2.5l88-49.5a20.2 20.2 0 0 0 10.2-17.5Zm-72 75.2V202l-23.8 13.4l.7-80.4L212 94.6v25.3l-41.9 23.6a11.9 11.9 0 0 0-6.1 10.4Zm-78.1-10.4L44 119.9V94.4l72.9 40.6l-.7 80.6L92 202v-48.1a11.9 11.9 0 0 0-6.1-10.4ZM79 61.3l43.1 24.2a11.7 11.7 0 0 0 11.8 0L177 61.3l22.6 12.8l-70.7 40.1l-72.3-40.3Zm49-27.5l24.5 13.7L128 61.3l-24.5-13.8ZM44 147.4l24 13.5v27.6L44 175Zm144 41.1v-27.6l24-13.5V175Z"></path></svg>