<svg xmlns="http://www.w3.org/2000/svg" xmlns:xlink="http://www.w3.org/1999/xlink" aria-hidden="true" role="img" class="iconify iconify--ph" width="1em" height="1em" preserveAspectRatio="xMidYMid meet" viewBox="0 0 256 256"><path fill="currentColor" d="m96 73l-61.9 55L96 183a12.1 12.1 0 0 1 1 17a12.1 12.1 0 0 1-17 1L8 137a12.1 12.1 0 0 1 0-18l72-64a12 12 0 0 1 16 18Zm152 46l-72-64a12 12 0 1 0-16 18l61.9 55l-61.9 55a12.1 12.1 0 0 0-1 17a12.1 12.1 0 0 0 17 1l72-64a12.1 12.1 0 0 0 0-18Z"></path></svg>