<svg xmlns="http://www.w3.org/2000/svg" xmlns:xlink="http://www.w3.org/1999/xlink" aria-hidden="true" role="img" class="iconify iconify--ph" width="1em" height="1em" preserveAspectRatio="xMidYMid meet" viewBox="0 0 256 256"><path fill="currentColor" d="M90.7 67L22 128l68.7 61a4.1 4.1 0 0 1 .3 5.7a4.3 4.3 0 0 1-3 1.3a4.1 4.1 0 0 1-2.7-1l-72-64a4.1 4.1 0 0 1 0-6l72-64a4 4 0 0 1 5.4 6Zm152 58l-72-64a4 4 0 0 0-5.4 6l68.7 61l-68.7 61a4.1 4.1 0 0 0-.3 5.7a4.3 4.3 0 0 0 3 1.3a3.9 3.9 0 0 0 2.7-1l72-64a4.1 4.1 0 0 0 0-6Z"></path></svg>