<svg xmlns="http://www.w3.org/2000/svg" xmlns:xlink="http://www.w3.org/1999/xlink" aria-hidden="true" role="img" class="iconify iconify--ph" width="1em" height="1em" preserveAspectRatio="xMidYMid meet" viewBox="0 0 256 256"><path fill="currentColor" d="M235 95.8L134.9 39a14.1 14.1 0 0 0-13.8 0L21 95.8a6 6 0 0 0-3 5.2v64a6 6 0 0 0 3 5.2L121.1 227a14.1 14.1 0 0 0 13.8 0L235 170.2a6 6 0 0 0 3-5.2v-64a6 6 0 0 0-3-5.2Zm-9 58.9L187.8 133l38.2-21.7Zm-6.2-53.7l-44.2 25.1l-41.6-23.6V52.3ZM128 153.1L92.6 133l35.4-20.1l35.4 20.1Zm-6-100.8v50.2l-41.6 23.6L36.2 101Zm-92 59L68.2 133L30 154.7Zm6.2 53.7l44.2-25.1l41.6 23.6v50.2Zm97.8 48.7v-50.2l41.6-23.6l44.2 25.1Z"></path></svg>