<svg xmlns="http://www.w3.org/2000/svg" xmlns:xlink="http://www.w3.org/1999/xlink" aria-hidden="true" role="img" class="iconify iconify--ph" width="1em" height="1em" preserveAspectRatio="xMidYMid meet" viewBox="0 0 256 256"><path fill="currentColor" d="M82 56V24a6 6 0 0 1 12 0v32a6 6 0 0 1-12 0Zm38 6a6 6 0 0 0 6-6V24a6 6 0 0 0-12 0v32a6 6 0 0 0 6 6Zm32 0a6 6 0 0 0 6-6V24a6 6 0 0 0-12 0v32a6 6 0 0 0 6 6Zm94 58v8a38.1 38.1 0 0 1-36.9 38a95 95 0 0 1-31.2 44H208a6 6 0 0 1 0 12H32a6 6 0 0 1 0-12h30.1A94.3 94.3 0 0 1 26 136V88a6 6 0 0 1 6-6h176a38 38 0 0 1 38 38Zm-47.2 38.7c0-.2.1-.4.1-.6A81.4 81.4 0 0 0 202 136V94H38v42a82.3 82.3 0 0 0 46.7 74h70.6a82.4 82.4 0 0 0 43.5-51.3ZM234 120a26 26 0 0 0-20-25.3V136a92.9 92.9 0 0 1-1.7 17.6A25.9 25.9 0 0 0 234 128Z"></path></svg>