<svg xmlns="http://www.w3.org/2000/svg" xmlns:xlink="http://www.w3.org/1999/xlink" aria-hidden="true" role="img" class="iconify iconify--ph" width="1em" height="1em" preserveAspectRatio="xMidYMid meet" viewBox="0 0 256 256"><path fill="currentColor" d="M212 76H32a12 12 0 0 0-12 12v48a100.4 100.4 0 0 0 26.7 68H32a12 12 0 0 0 0 24h176a12 12 0 0 0 0-24h-14.7a101.5 101.5 0 0 0 20-32a44.1 44.1 0 0 0 42.7-44v-8a44 44 0 0 0-44-44ZM86 204a76.2 76.2 0 0 1-42-68v-36h152v36a75.9 75.9 0 0 1-2.8 20.3c-.1.2-.1.5-.2.7a76.3 76.3 0 0 1-39 47Zm146-76a20.1 20.1 0 0 1-12.6 18.6a94.2 94.2 0 0 0 .6-10.6v-34.3a19.9 19.9 0 0 1 12 18.3ZM68 48V24a12 12 0 0 1 24 0v24a12 12 0 0 1-24 0Zm40 0V24a12 12 0 0 1 24 0v24a12 12 0 0 1-24 0Zm40 0V24a12 12 0 0 1 24 0v24a12 12 0 0 1-24 0Z"></path></svg>