<svg xmlns="http://www.w3.org/2000/svg" xmlns:xlink="http://www.w3.org/1999/xlink" aria-hidden="true" role="img" class="iconify iconify--ph" width="1em" height="1em" preserveAspectRatio="xMidYMid meet" viewBox="0 0 256 256"><path fill="currentColor" d="M207.6 63.8C186.8 53.5 159.3 48 128 48s-58.8 5.5-79.6 15.8S16 88.8 16 104v48c0 15.2 11.8 29.9 32.4 40.2S96.7 208 128 208s58.8-5.5 79.6-15.8s32.4-25 32.4-40.2v-48c0-15.2-11.8-29.9-32.4-40.2ZM128 64c62.6 0 96 23.2 96 40c0 9.9-11.7 22.2-34.4 30.5h-.3c-15.5 5.6-36 9.4-61.3 9.4s-45.8-3.8-61.3-9.4h-.3C43.7 126.2 32 113.9 32 104c0-16.8 33.4-40 96-40Zm-8 95.9v32c-19-.7-35-3.5-48-7.5V153c14.3 4 30.5 6.3 48 6.9Zm16 0c17.5-.6 33.7-2.9 48-6.9v31.4c-13 4-29 6.8-48 7.5ZM32 152v-18.5a84.5 84.5 0 0 0 16.4 10.7l7.6 3.4V178c-15.8-7.8-24-17.7-24-26Zm168 26v-30.4l7.6-3.4a84.5 84.5 0 0 0 16.4-10.7V152c0 8.3-8.2 18.2-24 26Z"></path></svg>