<svg xmlns="http://www.w3.org/2000/svg" xmlns:xlink="http://www.w3.org/1999/xlink" aria-hidden="true" role="img" class="iconify iconify--ph" width="1em" height="1em" preserveAspectRatio="xMidYMid meet" viewBox="0 0 256 256"><path fill="currentColor" d="M205.8 67.4C185.9 57.5 158.3 52 128 52s-57.9 5.5-77.8 15.4S20 90.4 20 104v48c0 13.6 11 27 30.2 36.6a124.2 124.2 0 0 0 12.2 5.2h.3C81 200.4 103.6 204 128 204s47-3.6 65.3-10.1h.3a124.2 124.2 0 0 0 12.2-5.2C225 179 236 165.6 236 152v-48c0-13.6-11-27-30.2-36.6ZM128 60c61.8 0 100 22.8 100 44s-38.2 44-100 44s-100-22.8-100-44s38.2-44 100-44Zm-4 96v40c-22-.4-40.9-3.7-56-8.8v-39.6c16.2 5.1 35.4 8 56 8.4Zm8 0c20.6-.4 39.8-3.3 56-8.4v39.6c-15.1 5.1-34 8.4-56 8.8Zm-104-4v-28.1c5.2 6.2 12.7 11.9 22.2 16.7c3.1 1.5 6.4 2.9 9.8 4.3v39.3c-20.5-8.5-32-20.6-32-32.2Zm200 0c0 11.6-11.5 23.7-32 32.2v-39.3c3.4-1.4 6.7-2.8 9.8-4.3c9.5-4.8 17-10.5 22.2-16.7Z"></path></svg>