<svg xmlns="http://www.w3.org/2000/svg" xmlns:xlink="http://www.w3.org/1999/xlink" aria-hidden="true" role="img" class="iconify iconify--ph" width="1em" height="1em" preserveAspectRatio="xMidYMid meet" viewBox="0 0 256 256"><path fill="currentColor" d="M180 93.1V84c0-22.4-36.9-40-84-40S12 61.6 12 84v40c0 19.1 26.9 34.7 64 38.9v9.1c0 22.4 36.9 40 84 40s84-17.6 84-40v-40c0-18.9-26.1-34.6-64-38.9Zm56 38.9c0 15.5-30.5 32-76 32a168.8 168.8 0 0 1-28-2.3v-1.4c28.6-6.3 48-20 48-36.3v-22.8c32.2 3.8 56 16.7 56 30.8ZM80.3 155.3H80c-4.2-.4-8.2-.9-12-1.6v-31.9a176.6 176.6 0 0 0 28 2.2a176.6 176.6 0 0 0 28-2.2v31.9a161.9 161.9 0 0 1-28 2.3c-5.5 0-10.7-.2-15.7-.7Zm91.7-54V124c0 10.9-15.2 22.3-40 28.1v-31.8c17.6-3.9 31.8-10.6 40-19ZM96 52c45.5 0 76 16.5 76 32s-30.5 32-76 32s-76-16.5-76-32s30.5-32 76-32Zm-76 72v-22.7c8.2 8.4 22.4 15.1 40 19v31.8c-24.8-5.8-40-17.2-40-28.1Zm64 48v-8.4c3.9.3 7.9.4 12 .4s8.1-.1 12-.4a115.9 115.9 0 0 0 16 4.6v31.9c-24.8-5.8-40-17.2-40-28.1Zm48 29.7v-31.9a181.5 181.5 0 0 0 28 2.2a176.6 176.6 0 0 0 28-2.2v31.9a171.6 171.6 0 0 1-56 0ZM236 172c0 10.9-15.2 22.3-40 28.1v-31.8c17.6-3.9 31.8-10.6 40-19Z"></path></svg>