<svg xmlns="http://www.w3.org/2000/svg" xmlns:xlink="http://www.w3.org/1999/xlink" aria-hidden="true" role="img" class="iconify iconify--ph" width="1em" height="1em" preserveAspectRatio="xMidYMid meet" viewBox="0 0 256 256"><path fill="currentColor" d="M209.4 60.3C188.1 49.6 159.9 44 128 44s-60.1 5.6-81.4 16.3S12 87.2 12 104v48c0 16.8 12.6 32.7 34.6 43.7S96.1 212 128 212s60.1-5.6 81.4-16.3S244 168.8 244 152v-48c0-16.8-12.6-32.7-34.6-43.7Zm-152 21.4C75.1 72.9 100.2 68 128 68s52.9 4.9 70.6 13.7C211.8 88.3 220 96.9 220 104s-8.2 15.7-21.4 22.3c-17.7 8.8-42.8 13.7-70.6 13.7s-52.9-4.9-70.6-13.7C44.2 119.7 36 111.1 36 104s8.2-15.7 21.4-22.3ZM180 181.4a182.2 182.2 0 0 1-40 6.3v-24a204.3 204.3 0 0 0 40-5.5ZM76 158.2a204.3 204.3 0 0 0 40 5.5v24a182.2 182.2 0 0 1-40-6.3ZM36 152v-10.5a89.5 89.5 0 0 0 10.6 6.2l5.4 2.5v21.1c-10-6.1-16-13.2-16-19.3Zm168 19.3v-21.1l5.4-2.5a89.5 89.5 0 0 0 10.6-6.2V152c0 6.1-6 13.2-16 19.3Z"></path></svg>