<svg xmlns="http://www.w3.org/2000/svg" xmlns:xlink="http://www.w3.org/1999/xlink" aria-hidden="true" role="img" class="iconify iconify--ph" width="1em" height="1em" preserveAspectRatio="xMidYMid meet" viewBox="0 0 256 256"><path fill="currentColor" d="M206.7 65.6C186.2 55.4 159 50 128 50s-58.2 5.4-78.7 15.6S18 89.6 18 104v48c0 14.4 11.4 28.4 31.3 38.4S97 206 128 206s58.2-5.4 78.7-15.6s31.3-24 31.3-38.4v-48c0-14.4-11.4-28.4-31.3-38.4Zm-152 10.8C73.2 67.1 99.2 62 128 62s54.8 5.1 73.3 14.4C217 84.2 226 94.3 226 104s-9 19.8-24.7 27.6c-18.5 9.3-44.5 14.4-73.3 14.4s-54.8-5.1-73.3-14.4C39 123.8 30 113.7 30 104s9-19.8 24.7-27.6Zm67.3 81.5v36c-19.2-.5-37.1-3.3-52-8.1v-35.4c15.3 4.5 32.8 7.1 52 7.5Zm12 0c19.2-.4 36.7-3 52-7.5v35.4c-14.9 4.8-32.8 7.6-52 8.1ZM30 152v-23a76.3 76.3 0 0 0 19.3 13.4c2.8 1.4 5.7 2.6 8.7 3.8v35l-3.3-1.6C39 171.8 30 161.7 30 152Zm171.3 27.6l-3.3 1.6v-35c3-1.2 5.9-2.4 8.7-3.8A76.3 76.3 0 0 0 226 129v23c0 9.7-9 19.8-24.7 27.6Z"></path></svg>