<svg xmlns="http://www.w3.org/2000/svg" xmlns:xlink="http://www.w3.org/1999/xlink" aria-hidden="true" role="img" class="iconify iconify--ph" width="1em" height="1em" preserveAspectRatio="xMidYMid meet" viewBox="0 0 256 256"><path fill="currentColor" d="M152 20h-48c-38.1 0-68 47.4-68 108s29.9 108 68 108h48c38.1 0 68-47.4 68-108S190.1 20 152 20Zm14.3 152a167 167 0 0 0 5.3-32h23.9a133.5 133.5 0 0 1-6.3 32Zm5.3-56a167 167 0 0 0-5.3-32h22.9a133.5 133.5 0 0 1 6.3 32Zm5.6-56h-20a101 101 0 0 0-10-16h4.8c5.4 0 15.3 2.2 25.2 16ZM74.8 189.8C65.2 173.5 60 151.6 60 128s5.2-45.5 14.8-61.8C86 46.9 97.9 44 104 44s18 2.9 29.2 22.2a99.1 99.1 0 0 1 5.2 10.3a.4.4 0 0 0 .1.3c6.2 14.7 9.5 32.4 9.5 51.2s-3.3 36.5-9.5 51.2a.4.4 0 0 0-.1.3a99.1 99.1 0 0 1-5.2 10.3C122 209.1 110.1 212 104 212s-18-2.9-29.2-22.2ZM152 212h-4.8a101 101 0 0 0 10-16h20c-9.9 13.8-19.8 16-25.2 16Z"></path></svg>