<svg xmlns="http://www.w3.org/2000/svg" xmlns:xlink="http://www.w3.org/1999/xlink" aria-hidden="true" role="img" class="iconify iconify--ph" width="1em" height="1em" preserveAspectRatio="xMidYMid meet" viewBox="0 0 256 256"><path fill="currentColor" d="M195.1 58.1C183.7 38.7 168.4 28 152 28h-48c-16.4 0-31.7 10.7-43.1 30.1S44 101.7 44 128s6 51.2 16.9 69.9S87.6 228 104 228h48c16.4 0 31.7-10.7 43.1-30.1S212 154.3 212 128s-6-51.2-16.9-69.9Zm8.8 65.9h-40c-.4-20.5-4.6-39.9-11.8-56h39.2c7.7 15.7 12.1 35.2 12.6 56ZM152 36c12.9 0 25.2 8.5 34.8 24h-38.7l-1-1.9c-5.6-9.6-12.2-17-19.3-22.1ZM67.9 193.9C57.6 176.3 52 152.9 52 128s5.6-48.3 15.9-65.9S90.5 36 104 36s26.3 9.3 36.1 26.1s15.9 41 15.9 65.9s-5.6 48.3-15.9 65.9S117.5 220 104 220s-26.3-9.3-36.1-26.1ZM152 220h-24.2c7.1-5.1 13.7-12.5 19.3-22.1l1-1.9h38.7c-9.6 15.5-21.9 24-34.8 24Zm39.3-32h-39.2c7.2-16.1 11.4-35.5 11.8-56h40c-.5 20.8-4.9 40.3-12.6 56Z"></path></svg>