<svg xmlns="http://www.w3.org/2000/svg" xmlns:xlink="http://www.w3.org/1999/xlink" aria-hidden="true" role="img" class="iconify iconify--ph" width="1em" height="1em" preserveAspectRatio="xMidYMid meet" viewBox="0 0 256 256"><path fill="currentColor" d="M224.6 103.8c-11.2-6.1-26.1-10.4-42.6-12.5V84c0-12.1-9.6-23.1-27-30.9C139.2 45.9 118.2 42 96 42s-43.2 3.9-59 11.1C19.6 60.9 10 71.9 10 84v40c0 12.1 9.6 23.1 27 30.9a130.8 130.8 0 0 0 37 9.8v7.3c0 12.1 9.6 23.1 27 30.9c15.8 7.2 36.8 11.1 59 11.1s43.2-3.9 59-11.1c17.4-7.8 27-18.8 27-30.9v-40c0-10.7-7.6-20.7-21.4-28.2Zm-5.8 10.5c9.8 5.4 15.2 11.6 15.2 17.7c0 14.2-30.4 30-74 30a182.8 182.8 0 0 1-21.2-1.3a102.7 102.7 0 0 0 16.2-5.8c17.4-7.8 27-18.8 27-30.9v-20.6c14.4 2 27.3 5.8 36.8 10.9Zm-138.1 39h-.3c-3.6-.3-7.1-.8-10.4-1.3v-27.9a181.7 181.7 0 0 0 26 1.9a181.7 181.7 0 0 0 26-1.9V152a162.5 162.5 0 0 1-26 2a151.1 151.1 0 0 1-15.3-.7Zm89.3-47.4V124c0 9.5-13.7 19.8-36 25.5v-27.7a105.6 105.6 0 0 0 21-6.9a62.7 62.7 0 0 0 15-9ZM96 54c43.6 0 74 15.8 74 30s-30.4 30-74 30s-74-15.8-74-30s30.4-30 74-30Zm-74 70v-18.1a62.7 62.7 0 0 0 15 9a105.6 105.6 0 0 0 21 6.9v27.7c-22.3-5.7-36-16-36-25.5Zm64 48v-6.3c3.3.2 6.6.3 10 .3s7.8-.1 11.7-.4a95.9 95.9 0 0 0 14.3 4.2v27.7c-22.3-5.7-36-16-36-25.5Zm48 28v-27.9a182.8 182.8 0 0 0 26 1.9a181.7 181.7 0 0 0 26-1.9V200a170 170 0 0 1-52 0Zm64-2.5v-27.7a105.6 105.6 0 0 0 21-6.9a62.7 62.7 0 0 0 15-9V172c0 9.5-13.7 19.8-36 25.5Z"></path></svg>