<svg xmlns="http://www.w3.org/2000/svg" xmlns:xlink="http://www.w3.org/1999/xlink" aria-hidden="true" role="img" class="iconify iconify--ph" width="1em" height="1em" preserveAspectRatio="xMidYMid meet" viewBox="0 0 256 256"><path fill="currentColor" d="M198.5 56.1C186.4 35.4 169.9 24 152 24h-48c-17.9 0-34.4 11.4-46.5 32.1S40 101 40 128s6.2 52.6 17.5 71.9S86.1 232 104 232h48c17.9 0 34.4-11.4 46.5-32.1S216 155 216 128s-6.2-52.6-17.5-71.9Zm1.3 63.9h-32c-.8-17.2-4.1-33.7-9.7-48h30.6c6.1 13.4 10.2 30 11.1 48Zm-20.6-64h-28.7a89 89 0 0 0-12-16H152c10 0 19.4 6 27.2 16ZM152 216h-13.5a89 89 0 0 0 12-16h28.7c-7.8 10-17.2 16-27.2 16Zm36.7-32h-30.6c5.6-14.3 8.9-30.8 9.7-48h32c-.9 18-5 34.6-11.1 48Z"></path></svg>