<svg xmlns="http://www.w3.org/2000/svg" xmlns:xlink="http://www.w3.org/1999/xlink" aria-hidden="true" role="img" class="iconify iconify--ph" width="1em" height="1em" preserveAspectRatio="xMidYMid meet" viewBox="0 0 256 256"><path fill="currentColor" d="M96 120c-44.2 0-80-16.1-80-36s35.8-36 80-36s80 16.1 80 36s-35.8 36-80 36Zm80-23.3V124c0 18-29.2 32.9-67.5 35.6c13.9 5.2 31.9 8.4 51.5 8.4c44.2 0 80-16.1 80-36c0-17.4-27.5-31.9-64-35.3Z" opacity=".2"></path><path fill="currentColor" d="M184 89.6V84c0-25.1-37.8-44-88-44S8 58.9 8 84v40c0 20.9 26.2 37.5 64 42.5v5.5c0 25.1 37.8 44 88 44s88-18.9 88-44v-40c0-20.7-25.4-37.3-64-42.4Zm48 42.4c0 13.2-30.8 28-72 28c-3.7 0-7.4-.1-11.1-.4C170.5 151.8 184 139 184 124v-18.3c29.9 4.5 48 16.6 48 26.3ZM72 150.2v-23.7a184 184 0 0 0 24 1.5a184 184 0 0 0 24-1.5v23.7a151.1 151.1 0 0 1-24 1.8a151.1 151.1 0 0 1-24-1.8Zm96-40.3V124c0 8.4-12.4 17.4-32 22.9v-23.4c12.9-3.1 23.8-7.8 32-13.6ZM96 56c41.2 0 72 14.8 72 28s-30.8 28-72 28s-72-14.8-72-28s30.8-28 72-28Zm-72 68v-14.1c8.2 5.8 19.1 10.5 32 13.6v23.4c-19.6-5.5-32-14.5-32-22.9Zm64 48v-4.2l8 .2q5.9 0 11.4-.3c4 1.4 8.2 2.6 12.6 3.7v23.5c-19.6-5.5-32-14.5-32-22.9Zm48 26.2v-23.8a188.4 188.4 0 0 0 24 1.6a184 184 0 0 0 24-1.5v23.7a160.9 160.9 0 0 1-48 0Zm64-3.3v-23.4c12.9-3.1 23.8-7.8 32-13.6V172c0 8.4-12.4 17.4-32 22.9Z"></path></svg>