<svg xmlns="http://www.w3.org/2000/svg" xmlns:xlink="http://www.w3.org/1999/xlink" aria-hidden="true" role="img" class="iconify iconify--ph" width="1em" height="1em" preserveAspectRatio="xMidYMid meet" viewBox="0 0 256 256"><path fill="currentColor" d="M180 48a28 28 0 0 1 28 28a28 28 0 0 1-28 28h-28V76a28 28 0 0 1 28-28Zm-76 56H76a28 28 0 0 1-28-28a28 28 0 0 1 28-28a28 28 0 0 1 28 28v28Zm48 48h28a28 28 0 0 1 28 28a28 28 0 0 1-28 28a28 28 0 0 1-28-28v-28Zm-76 56a28 28 0 0 1-28-28a28 28 0 0 1 28-28h28v28a28 28 0 0 1-28 28Z" opacity=".2"></path><path fill="currentColor" d="M180 144h-20v-32h20a36 36 0 1 0-36-36v20h-32V76a36 36 0 1 0-36 36h20v32H76a36 36 0 1 0 36 36v-20h32v20a36 36 0 1 0 36-36Zm-20-68a20 20 0 1 1 20 20h-20ZM56 76a20 20 0 0 1 40 0v20H76a20.1 20.1 0 0 1-20-20Zm40 104a20 20 0 1 1-20-20h20Zm16-68h32v32h-32Zm68 88a20.1 20.1 0 0 1-20-20v-20h20a20 20 0 0 1 0 40Z"></path></svg>