<svg xmlns="http://www.w3.org/2000/svg" xmlns:xlink="http://www.w3.org/1999/xlink" aria-hidden="true" role="img" class="iconify iconify--ph" width="1em" height="1em" preserveAspectRatio="xMidYMid meet" viewBox="0 0 256 256"><path fill="currentColor" d="M180 148h-24v-40h24a32 32 0 1 0-32-32v24h-40V76a32 32 0 1 0-32 32h24v40H76a32 32 0 1 0 32 32v-24h40v24a32 32 0 1 0 32-32Zm-24-72a24 24 0 1 1 24 24h-24ZM52 76a24 24 0 0 1 48 0v24H76a24.1 24.1 0 0 1-24-24Zm48 104a24 24 0 1 1-24-24h24Zm8-72h40v40h-40Zm72 96a24.1 24.1 0 0 1-24-24v-24h24a24 24 0 0 1 0 48Z"></path></svg>