<svg xmlns="http://www.w3.org/2000/svg" xmlns:xlink="http://www.w3.org/1999/xlink" aria-hidden="true" role="img" class="iconify iconify--ph" width="1em" height="1em" preserveAspectRatio="xMidYMid meet" viewBox="0 0 256 256"><path fill="currentColor" d="M84 76a12 12 0 0 1 12-12h64a12 12 0 0 1 0 24H96a12 12 0 0 1-12-12Zm12 52h64a12 12 0 0 0 0-24H96a12 12 0 0 0 0 24Zm32 40a16 16 0 1 0 16 16a16 16 0 0 0-16-16Zm84-128v176a20.1 20.1 0 0 1-20 20H64a20.1 20.1 0 0 1-20-20V40a20.1 20.1 0 0 1 20-20h128a20.1 20.1 0 0 1 20 20Zm-24 4H68v168h120Z"></path></svg>