<svg xmlns="http://www.w3.org/2000/svg" xmlns:xlink="http://www.w3.org/1999/xlink" aria-hidden="true" role="img" class="iconify iconify--ph" width="1em" height="1em" preserveAspectRatio="xMidYMid meet" viewBox="0 0 256 256"><path fill="currentColor" d="M128.1 24a104 104 0 1 0 104 104a104.2 104.2 0 0 0-104-104Zm52.4 62.1l-28.1 62.2a8.2 8.2 0 0 1-4.2 4l-59.4 25.5a8.5 8.5 0 0 1-3.1.6a8.3 8.3 0 0 1-5.7-2.3a8 8 0 0 1-1.7-8.8l25.5-59.4a8.2 8.2 0 0 1 4-4.2l62.1-28.2a8.1 8.1 0 0 1 10.6 10.6Z"></path></svg>