<svg xmlns="http://www.w3.org/2000/svg" xmlns:xlink="http://www.w3.org/1999/xlink" aria-hidden="true" role="img" class="iconify iconify--ph" width="1em" height="1em" preserveAspectRatio="xMidYMid meet" viewBox="0 0 256 256"><rect width="192" height="144" x="32" y="56" fill="currentColor" opacity=".2" rx="8" transform="rotate(90 128 128)"></rect><path fill="currentColor" d="M88 72a8 8 0 0 1 8-8h64a8 8 0 0 1 0 16H96a8 8 0 0 1-8-8Zm8 40h64a8 8 0 0 0 0-16H96a8 8 0 0 0 0 16Zm32 56a12 12 0 1 0 12 12a12 12 0 0 0-12-12Zm80-128v176a16 16 0 0 1-16 16H64a16 16 0 0 1-16-16V40a16 16 0 0 1 16-16h128a16 16 0 0 1 16 16Zm-16 0H64v176h128Z"></path></svg>