<svg xmlns="http://www.w3.org/2000/svg" xmlns:xlink="http://www.w3.org/1999/xlink" aria-hidden="true" role="img" class="iconify iconify--ph" width="1em" height="1em" preserveAspectRatio="xMidYMid meet" viewBox="0 0 256 256"><path fill="currentColor" d="M128.1 28a100 100 0 1 0 100 100a100.2 100.2 0 0 0-100-100Zm0 192a92 92 0 1 1 92-92a92.1 92.1 0 0 1-92 92Zm43.4-140.8l-62 28.2a3.8 3.8 0 0 0-2 2.1L82 168.9a4 4 0 0 0 .9 4.4a3.9 3.9 0 0 0 2.8 1.1l1.6-.3l59.4-25.5a3.6 3.6 0 0 0 2-2l28.1-62.1a4 4 0 0 0-5.3-5.3Zm-29.4 62.7l-48.8 20.9l20.9-48.8l50.9-23.1Z"></path></svg>