<svg xmlns="http://www.w3.org/2000/svg" xmlns:xlink="http://www.w3.org/1999/xlink" aria-hidden="true" role="img" class="iconify iconify--ph" width="1em" height="1em" preserveAspectRatio="xMidYMid meet" viewBox="0 0 256 256"><path fill="currentColor" d="M128.1 26a102 102 0 1 0 102 102a102.2 102.2 0 0 0-102-102Zm0 192a90 90 0 1 1 90-90a90.1 90.1 0 0 1-90 90Zm42.6-140.6l-62 28.2a5.9 5.9 0 0 0-3.1 3.1l-25.4 59.4a6 6 0 0 0 1.2 6.6a6.3 6.3 0 0 0 4.3 1.7a4.6 4.6 0 0 0 2.3-.5l59.4-25.4a5.9 5.9 0 0 0 3.1-3.1l28.1-62.1a6 6 0 0 0-7.9-7.9Zm-30.1 63L97.1 159l18.6-43.5l45.4-20.6Z"></path></svg>