<svg xmlns="http://www.w3.org/2000/svg" xmlns:xlink="http://www.w3.org/1999/xlink" aria-hidden="true" role="img" class="iconify iconify--ph" width="1em" height="1em" preserveAspectRatio="xMidYMid meet" viewBox="0 0 256 256"><path fill="currentColor" d="M164 72a4 4 0 0 1-4 4H96a4 4 0 0 1 0-8h64a4 4 0 0 1 4 4Zm-4 28H96a4 4 0 0 0 0 8h64a4 4 0 0 0 0-8Zm-32 72a8 8 0 1 0 8 8a8 8 0 0 0-8-8Zm76-132v176a12 12 0 0 1-12 12H64a12 12 0 0 1-12-12V40a12 12 0 0 1 12-12h128a12 12 0 0 1 12 12Zm-8 0a4 4 0 0 0-4-4H64a4 4 0 0 0-4 4v176a4 4 0 0 0 4 4h128a4 4 0 0 0 4-4Z"></path></svg>