<svg xmlns="http://www.w3.org/2000/svg" xmlns:xlink="http://www.w3.org/1999/xlink" aria-hidden="true" role="img" class="iconify iconify--ph" width="1em" height="1em" preserveAspectRatio="xMidYMid meet" viewBox="0 0 256 256"><path fill="currentColor" d="M128.1 20a108 108 0 1 0 108 108a108.1 108.1 0 0 0-108-108Zm0 192a84 84 0 1 1 84-84a84.1 84.1 0 0 1-84 84Zm35-134.7l-56.4 22.6a11.6 11.6 0 0 0-6.7 6.7l-22.6 56.5A12 12 0 0 0 93 178.7l56.5-22.6a11.6 11.6 0 0 0 6.7-6.7l22.5-56.5a12 12 0 0 0-15.6-15.6Zm-27.3 58.4L110 146.1l10.4-25.8l25.7-10.3Z"></path></svg>