<svg xmlns="http://www.w3.org/2000/svg" xmlns:xlink="http://www.w3.org/1999/xlink" aria-hidden="true" role="img" class="iconify iconify--ph" width="1em" height="1em" preserveAspectRatio="xMidYMid meet" viewBox="0 0 256 256"><path fill="currentColor" d="M109.1 52.6a14 14 0 0 0-23 5.2l-53.9 148a14 14 0 0 0 13.1 18.8a14 14 0 0 0 4.9-.8l148-53.9a14 14 0 0 0 5.2-23Zm-5.2 138.9l-39.4-39.4l14.7-40.4l65.1 65.1Zm-57.8 21a2.1 2.1 0 0 1-2.6-2.6L60 164.5L91.5 196Zm149.3-55.3a2.2 2.2 0 0 1-1.3 1.5l-37.4 13.6l-73-73l13.6-37.4a2.2 2.2 0 0 1 1.5-1.3a2 2 0 0 1 1.8.5l94.3 94.3a2 2 0 0 1 .5 1.8ZM162 72a35.8 35.8 0 0 1 3.6-14.7c5-9.9 14.3-15.3 26.4-15.3c7.5 0 12.5-2.7 15.5-8.4A24.4 24.4 0 0 0 210 24a6 6 0 0 1 6-6a6 6 0 0 1 6 6c0 10.4-6.3 30-30 30c-7.5 0-12.5 2.7-15.5 8.4A24.4 24.4 0 0 0 174 72a6 6 0 0 1-6 6a6 6 0 0 1-6-6Zm-24-32V16a6 6 0 0 1 12 0v24a6 6 0 0 1-12 0Zm98.2 83.8a5.9 5.9 0 1 1-8.4 8.4l-16-16a5.9 5.9 0 0 1 8.4-8.4Zm5.7-46.1l-24 8a6.3 6.3 0 0 1-1.9.3a6 6 0 0 1-5.7-4.1a6.1 6.1 0 0 1 3.8-7.6l24-8a6 6 0 0 1 3.8 11.4Z"></path></svg>