<svg xmlns="http://www.w3.org/2000/svg" xmlns:xlink="http://www.w3.org/1999/xlink" aria-hidden="true" role="img" class="iconify iconify--ph" width="1em" height="1em" preserveAspectRatio="xMidYMid meet" viewBox="0 0 256 256"><path fill="currentColor" d="m57.6 153.6l44.8 44.8l-54.3 19.7a7.9 7.9 0 0 1-10.2-10.2Zm141.5-2.5l-94.2-94.2a8 8 0 0 0-13.2 2.9l-14.9 41l78.4 78.4l41-14.9a8 8 0 0 0 2.9-13.2Z" opacity=".2"></path><path fill="currentColor" d="M110.5 51.2a15.7 15.7 0 0 0-14.7-4.3a16 16 0 0 0-11.6 10.2L30.3 205.2a16.1 16.1 0 0 0 15 21.4a17.1 17.1 0 0 0 5.5-.9l148.1-53.9a16 16 0 0 0 10.2-11.6a15.7 15.7 0 0 0-4.3-14.7Zm-6 137.9l-37.6-37.6L80 115.3l60.7 60.7Zm-59.1 21.5l15.4-42.5l27.1 27.1Zm111.9-40.7L86.1 98.7l13.1-36.2l94.3 94.3ZM160 72a38.2 38.2 0 0 1 3.8-15.6C169.1 45.8 179.1 40 192 40c6.7 0 11-2.3 13.7-7.2a22.3 22.3 0 0 0 2.3-8.9a7.9 7.9 0 0 1 8-7.9a8 8 0 0 1 8 8c0 12.9-8.5 32-32 32c-6.7 0-11 2.3-13.7 7.2a22.3 22.3 0 0 0-2.3 8.9a7.9 7.9 0 0 1-8 7.9a8 8 0 0 1-8-8Zm-24-32V16a8 8 0 0 1 16 0v24a8 8 0 0 1-16 0Zm101.7 82.3a8.1 8.1 0 0 1 0 11.4a8.2 8.2 0 0 1-11.4 0l-16-16a8.1 8.1 0 0 1 11.4-11.4Zm4.8-42.7l-24 8a7.3 7.3 0 0 1-2.5.4a8 8 0 0 1-2.5-15.6l24-8a8 8 0 0 1 5 15.2Z"></path></svg>