<svg xmlns="http://www.w3.org/2000/svg" xmlns:xlink="http://www.w3.org/1999/xlink" aria-hidden="true" role="img" class="iconify iconify--ph" width="1em" height="1em" preserveAspectRatio="xMidYMid meet" viewBox="0 0 256 256"><path fill="currentColor" d="M224.7 116.5a13.5 13.5 0 0 0-11.8-2.7a26 26 0 0 1-31.7-25.1a14 14 0 0 0-13.9-13.9a26 26 0 0 1-25.1-31.7a13.5 13.5 0 0 0-2.7-11.8a13.9 13.9 0 0 0-10.9-5.3A102.1 102.1 0 0 0 26 128.7a102 102 0 0 0 204-1.3a13.9 13.9 0 0 0-5.3-10.9Zm-33.1 75.2c-34.6 34.5-91.3 34.9-126.3.8A90 90 0 0 1 128 38h.5a1.9 1.9 0 0 1 1.6.8a1.7 1.7 0 0 1 .4 1.7a38 38 0 0 0 36.7 46.3a2 2 0 0 1 2 2a38 38 0 0 0 46.3 36.7a1.7 1.7 0 0 1 1.7.4a1.8 1.8 0 0 1 .8 1.5a89.6 89.6 0 0 1-26.4 64.3Zm-28.5-26.8a10 10 0 1 1-14.2 0a10.1 10.1 0 0 1 14.2 0Zm-64-8a10 10 0 1 1-14.2 0a10.1 10.1 0 0 1 14.2 0Zm-22.2-41.8a10 10 0 1 1 14.2 0a10.1 10.1 0 0 1-14.2 0Zm66.2 16a10 10 0 1 1 0-14.2a10.1 10.1 0 0 1 0 14.2Z"></path></svg>