<svg xmlns="http://www.w3.org/2000/svg" xmlns:xlink="http://www.w3.org/1999/xlink" aria-hidden="true" role="img" class="iconify iconify--ph" width="1em" height="1em" preserveAspectRatio="xMidYMid meet" viewBox="0 0 256 256"><path fill="currentColor" d="M252.8 102.4L224 124v60a32.1 32.1 0 0 1-32 32H64a32.1 32.1 0 0 1-32-32v-60L3.2 102.4a8 8 0 0 1 9.6-12.8L32 104V88a16 16 0 0 1 16-16h160a16 16 0 0 1 16 16v16l19.2-14.4a8 8 0 0 1 9.6 12.8ZM160 56a8 8 0 0 0 8-8V16a8 8 0 0 0-16 0v32a8 8 0 0 0 8 8Zm-32 0a8 8 0 0 0 8-8V16a8 8 0 0 0-16 0v32a8 8 0 0 0 8 8Zm-32 0a8 8 0 0 0 8-8V16a8 8 0 0 0-16 0v32a8 8 0 0 0 8 8Z"></path></svg>