<svg xmlns="http://www.w3.org/2000/svg" xmlns:xlink="http://www.w3.org/1999/xlink" aria-hidden="true" role="img" class="iconify iconify--ph" width="1em" height="1em" preserveAspectRatio="xMidYMid meet" viewBox="0 0 256 256"><path fill="currentColor" d="M224 127.4a95.6 95.6 0 0 1-28.2 68.5c-36.9 36.9-97.3 37.3-134.7.9A96 96 0 0 1 128.6 32a8.1 8.1 0 0 1 7.8 9.8a32 32 0 0 0 30.8 39a8 8 0 0 1 8 8a32 32 0 0 0 39 30.8a8.1 8.1 0 0 1 9.8 7.8Z" opacity=".2"></path><path fill="currentColor" d="M225.9 114.9a15.8 15.8 0 0 0-13.4-3.1a23.9 23.9 0 0 1-29.3-23.1a16 16 0 0 0-15.9-15.9a23.9 23.9 0 0 1-23.1-29.3A16.1 16.1 0 0 0 128.6 24h-.6A104.1 104.1 0 0 0 24 128.7a104 104 0 0 0 208-1.3a15.7 15.7 0 0 0-6.1-12.5Zm-35.7 75.4c-33.9 33.8-89.3 34.1-123.5.8A88 88 0 0 1 128 40h.6a39.9 39.9 0 0 0 38.6 48.8a39.9 39.9 0 0 0 48.8 38.6a87.6 87.6 0 0 1-25.8 62.9Zm-25.7-26.8a12 12 0 1 1-17 0a12 12 0 0 1 17 0Zm-64-8a12 12 0 1 1-17 0a12 12 0 0 1 17 0Zm-25-39a12 12 0 1 1 17 0a12 12 0 0 1-17 0Zm69 16a12 12 0 1 1 0-17a12 12 0 0 1 0 17Z"></path></svg>