<svg xmlns="http://www.w3.org/2000/svg" xmlns:xlink="http://www.w3.org/1999/xlink" aria-hidden="true" role="img" class="iconify iconify--ph" width="1em" height="1em" preserveAspectRatio="xMidYMid meet" viewBox="0 0 256 256"><path fill="currentColor" d="M223.5 118a12.3 12.3 0 0 0-10.1-2.3a28 28 0 0 1-34.2-27a12 12 0 0 0-11.9-11.9a28 28 0 0 1-27-34.2A12 12 0 0 0 128.6 28h-.6a100 100 0 1 0 100 99.4a12.2 12.2 0 0 0-4.5-9.4ZM193 193.1c-35.4 35.3-93.3 35.7-129.1.9A92 92 0 0 1 128 36h.6a4.2 4.2 0 0 1 3.1 1.5a4.1 4.1 0 0 1 .8 3.4a36.1 36.1 0 0 0 9.6 33.4a35.8 35.8 0 0 0 25.1 10.5a4 4 0 0 1 4 4a35.8 35.8 0 0 0 10.5 25.1a36.1 36.1 0 0 0 33.4 9.6a4.1 4.1 0 0 1 3.4.8a4.2 4.2 0 0 1 1.5 3.1a91.3 91.3 0 0 1-27 65.7Zm-31.3-26.8a8.1 8.1 0 1 1-11.4 0a8.1 8.1 0 0 1 11.4 0Zm-64-8a8.1 8.1 0 1 1-11.4 0a8.1 8.1 0 0 1 11.4 0Zm-8-44.6a8.1 8.1 0 1 1 0-11.4a8.1 8.1 0 0 1 0 11.4Zm52 4.6a8.1 8.1 0 1 1-11.4 0a8.1 8.1 0 0 1 11.4 0Z"></path></svg>