<svg xmlns="http://www.w3.org/2000/svg" xmlns:xlink="http://www.w3.org/1999/xlink" aria-hidden="true" role="img" class="iconify iconify--ph" width="1em" height="1em" preserveAspectRatio="xMidYMid meet" viewBox="0 0 256 256"><path fill="currentColor" d="M228.4 111.8a19.9 19.9 0 0 0-16.8-3.9a20.1 20.1 0 0 1-24.4-19.3a19.8 19.8 0 0 0-19.8-19.8a20.1 20.1 0 0 1-19.3-24.4A20.1 20.1 0 0 0 128.6 20h-.6a107.9 107.9 0 1 0 76.3 184.4a107 107 0 0 0 31.7-77.1a19.7 19.7 0 0 0-7.6-15.5Zm-41.1 75.7c-32.3 32.2-85.1 32.5-117.8.7a84 84 0 0 1 54.3-144.1a44.1 44.1 0 0 0 39.6 48.5a44.1 44.1 0 0 0 48.5 39.6a83.2 83.2 0 0 1-24.6 55.3Zm-20-26.8a16 16 0 1 1-22.6 0a15.9 15.9 0 0 1 22.6 0Zm-64-8a16 16 0 1 1-22.6 0a15.9 15.9 0 0 1 22.6 0Zm-30.6-33.4a16 16 0 1 1 22.6 0a15.9 15.9 0 0 1-22.6 0Zm74.6 16a16 16 0 1 1 0-22.6a15.9 15.9 0 0 1 0 22.6Z"></path></svg>