<svg xmlns="http://www.w3.org/2000/svg" xmlns:xlink="http://www.w3.org/1999/xlink" aria-hidden="true" role="img" class="iconify iconify--ph" width="1em" height="1em" preserveAspectRatio="xMidYMid meet" viewBox="0 0 256 256"><path fill="currentColor" d="M39.9 72h144v144h-144z" opacity=".2"></path><path fill="currentColor" d="M216 32H71.9a8 8 0 0 0 0 16H208v136a8 8 0 0 0 16 0V40a8 8 0 0 0-8-8Z"></path><path fill="currentColor" d="M184 64H39.9a8 8 0 0 0-8 8v144a8 8 0 0 0 8 8H184a8 8 0 0 0 8-8V72a8 8 0 0 0-8-8Zm-8 144H47.9V80H176Z"></path></svg>