<svg xmlns="http://www.w3.org/2000/svg" xmlns:xlink="http://www.w3.org/1999/xlink" aria-hidden="true" role="img" class="iconify iconify--ph" width="1em" height="1em" preserveAspectRatio="xMidYMid meet" viewBox="0 0 256 256"><path fill="currentColor" d="M128 20a108 108 0 1 0 108 108A108.1 108.1 0 0 0 128 20Zm0 192a84 84 0 1 1 84-84a84.1 84.1 0 0 1-84 84Zm52-84a52 52 0 0 1-93.6 31.2a12 12 0 1 1 19.2-14.4A27.8 27.8 0 0 0 128 156a28 28 0 0 0 0-56a27.8 27.8 0 0 0-22.4 11.2a12 12 0 1 1-19.2-14.4A52 52 0 0 1 180 128Z"></path></svg>