<svg xmlns="http://www.w3.org/2000/svg" xmlns:xlink="http://www.w3.org/1999/xlink" aria-hidden="true" role="img" class="iconify iconify--ph" width="1em" height="1em" preserveAspectRatio="xMidYMid meet" viewBox="0 0 256 256"><path fill="currentColor" d="M128 56a72 72 0 1 0 72 72a72.1 72.1 0 0 0-72-72Zm0 120a47.7 47.7 0 0 1-38.4-19.2a8 8 0 1 1 12.8-9.6a32 32 0 1 0 0-38.4a8.1 8.1 0 0 1-11.2 1.6a8 8 0 0 1-1.6-11.2A48 48 0 1 1 128 176Zm0-156a108 108 0 1 0 108 108A108.1 108.1 0 0 0 128 20Zm0 196a88 88 0 1 1 88-88a88.1 88.1 0 0 1-88 88Z"></path></svg>