<svg xmlns="http://www.w3.org/2000/svg" xmlns:xlink="http://www.w3.org/1999/xlink" aria-hidden="true" role="img" class="iconify iconify--ph" width="1em" height="1em" preserveAspectRatio="xMidYMid meet" viewBox="0 0 256 256"><path fill="currentColor" d="M128 20a108 108 0 1 0 108 108A108.1 108.1 0 0 0 128 20Zm0 196a88 88 0 1 1 88-88a88.1 88.1 0 0 1-88 88Zm0-160a72 72 0 1 0 72 72a72.1 72.1 0 0 0-72-72Zm0 104a31.8 31.8 0 0 0 25.6-12.8a8.1 8.1 0 0 1 11.2-1.6a8 8 0 0 1 1.6 11.2a48 48 0 1 1 0-57.6a8 8 0 0 1-1.6 11.2a8.1 8.1 0 0 1-11.2-1.6A32 32 0 1 0 128 160Z"></path></svg>