<svg xmlns="http://www.w3.org/2000/svg" xmlns:xlink="http://www.w3.org/1999/xlink" aria-hidden="true" role="img" class="iconify iconify--ph" width="1em" height="1em" preserveAspectRatio="xMidYMid meet" viewBox="0 0 256 256"><path fill="currentColor" d="M216 48v40a8 8 0 0 1-4.9 7.4a8.5 8.5 0 0 1-3.1.6a8.3 8.3 0 0 1-5.7-2.3l-40-40a8.4 8.4 0 0 1-1.7-8.8A8 8 0 0 1 168 40h40a8 8 0 0 1 8 8ZM53.7 162.3a8.4 8.4 0 0 0-8.8-1.7A8 8 0 0 0 40 168v40a8 8 0 0 0 8 8h40a8 8 0 0 0 7.4-4.9a8.4 8.4 0 0 0-1.7-8.8Zm157.4-1.7a8.4 8.4 0 0 0-8.8 1.7l-40 40a8.4 8.4 0 0 0-1.7 8.8a8 8 0 0 0 7.4 4.9h40a8 8 0 0 0 8-8v-40a8 8 0 0 0-4.9-7.4ZM88 40H48a8 8 0 0 0-8 8v40a8 8 0 0 0 4.9 7.4a8.5 8.5 0 0 0 3.1.6a8.3 8.3 0 0 0 5.7-2.3l40-40a8.4 8.4 0 0 0 1.7-8.8A8 8 0 0 0 88 40Z"></path></svg>