<svg xmlns="http://www.w3.org/2000/svg" xmlns:xlink="http://www.w3.org/1999/xlink" aria-hidden="true" role="img" class="iconify iconify--ph" width="1em" height="1em" preserveAspectRatio="xMidYMid meet" viewBox="0 0 256 256"><path fill="currentColor" d="M214 48v40a6 6 0 0 1-12 0V54h-34a6 6 0 0 1 0-12h40a6 6 0 0 1 6 6ZM88 202H54v-34a6 6 0 0 0-12 0v40a6 6 0 0 0 6 6h40a6 6 0 0 0 0-12Zm120-40a6 6 0 0 0-6 6v34h-34a6 6 0 0 0 0 12h40a6 6 0 0 0 6-6v-40a6 6 0 0 0-6-6ZM88 42H48a6 6 0 0 0-6 6v40a6 6 0 0 0 12 0V54h34a6 6 0 0 0 0-12Z"></path></svg>