<svg xmlns="http://www.w3.org/2000/svg" xmlns:xlink="http://www.w3.org/1999/xlink" aria-hidden="true" role="img" class="iconify iconify--ph" width="1em" height="1em" preserveAspectRatio="xMidYMid meet" viewBox="0 0 256 256"><path fill="currentColor" d="M152 96V48a8 8 0 0 1 4.9-7.4a8.4 8.4 0 0 1 8.8 1.7l48 48a8.4 8.4 0 0 1 1.7 8.8a8 8 0 0 1-7.4 4.9h-48a8 8 0 0 1-8-8Zm-56 56H48a8 8 0 0 0-7.4 4.9a8.4 8.4 0 0 0 1.7 8.8l48 48A8.3 8.3 0 0 0 96 216a8.5 8.5 0 0 0 3.1-.6a8 8 0 0 0 4.9-7.4v-48a8 8 0 0 0-8-8Zm3.1-111.4a8.4 8.4 0 0 0-8.8 1.7l-48 48a8.4 8.4 0 0 0-1.7 8.8A8 8 0 0 0 48 104h48a8 8 0 0 0 8-8V48a8 8 0 0 0-4.9-7.4ZM208 152h-48a8 8 0 0 0-8 8v48a8 8 0 0 0 4.9 7.4a8.5 8.5 0 0 0 3.1.6a8.3 8.3 0 0 0 5.7-2.3l48-48a8.4 8.4 0 0 0 1.7-8.8a8 8 0 0 0-7.4-4.9Z"></path></svg>