<svg xmlns="http://www.w3.org/2000/svg" xmlns:xlink="http://www.w3.org/1999/xlink" aria-hidden="true" role="img" class="iconify iconify--ph" width="1em" height="1em" preserveAspectRatio="xMidYMid meet" viewBox="0 0 256 256"><path fill="currentColor" d="M212 48v40a4 4 0 0 1-8 0V52h-36a4 4 0 0 1 0-8h40a4 4 0 0 1 4 4ZM88 204H52v-36a4 4 0 0 0-8 0v40a4 4 0 0 0 4 4h40a4 4 0 0 0 0-8Zm120-40a4 4 0 0 0-4 4v36h-36a4 4 0 0 0 0 8h40a4 4 0 0 0 4-4v-40a4 4 0 0 0-4-4ZM88 44H48a4 4 0 0 0-4 4v40a4 4 0 0 0 8 0V52h36a4 4 0 0 0 0-8Z"></path></svg>