<svg xmlns="http://www.w3.org/2000/svg" xmlns:xlink="http://www.w3.org/1999/xlink" aria-hidden="true" role="img" class="iconify iconify--ph" width="1em" height="1em" preserveAspectRatio="xMidYMid meet" viewBox="0 0 256 256"><path fill="currentColor" d="M156 96h-56a4 4 0 0 0-4 4v56a4 4 0 0 0 4 4h56a4 4 0 0 0 4-4v-56a4 4 0 0 0-4-4Zm-4 56h-48v-48h48Zm80-4h-20v-40h20a4 4 0 0 0 0-8h-20V56a12 12 0 0 0-12-12h-44V24a4 4 0 0 0-8 0v20h-40V24a4 4 0 0 0-8 0v20H56a12 12 0 0 0-12 12v44H24a4 4 0 0 0 0 8h20v40H24a4 4 0 0 0 0 8h20v44a12 12 0 0 0 12 12h44v20a4 4 0 0 0 8 0v-20h40v20a4 4 0 0 0 8 0v-20h44a12 12 0 0 0 12-12v-44h20a4 4 0 0 0 0-8Zm-28 52a4 4 0 0 1-4 4H56a4 4 0 0 1-4-4V56a4 4 0 0 1 4-4h144a4 4 0 0 1 4 4Z"></path></svg>