<svg xmlns="http://www.w3.org/2000/svg" xmlns:xlink="http://www.w3.org/1999/xlink" aria-hidden="true" role="img" class="iconify iconify--ph" width="1em" height="1em" preserveAspectRatio="xMidYMid meet" viewBox="0 0 256 256"><path fill="currentColor" d="M224 44H32a20.1 20.1 0 0 0-20 20v127.9a20.1 20.1 0 0 0 20 20h192a20.1 20.1 0 0 0 20-20V64a20.1 20.1 0 0 0-20-20Zm-4 24v16.9H36V68ZM36 188v-79.1h184V188Zm172-24a12 12 0 0 1-12 12h-32a12 12 0 0 1 0-24h32a12 12 0 0 1 12 12Zm-72 0a12 12 0 0 1-12 12h-16a12 12 0 0 1 0-24h16a12 12 0 0 1 12 12Z"></path></svg>