<svg xmlns="http://www.w3.org/2000/svg" xmlns:xlink="http://www.w3.org/1999/xlink" aria-hidden="true" role="img" class="iconify iconify--ph" width="1em" height="1em" preserveAspectRatio="xMidYMid meet" viewBox="0 0 256 256"><path fill="currentColor" d="M24 96.9h208V192a8 8 0 0 1-8 8H32a8 8 0 0 1-8-8Z" opacity=".2"></path><path fill="currentColor" d="M224 48H32a16 16 0 0 0-16 16v127.9a16 16 0 0 0 16 16h192a16 16 0 0 0 16-16V64a16 16 0 0 0-16-16Zm0 16v24.9H32V64Zm0 128H32v-87.1h192V192Z"></path><path fill="currentColor" d="M200 160h-32a8 8 0 0 0 0 16h32a8 8 0 0 0 0-16Zm-64 0h-16a8 8 0 0 0 0 16h16a8 8 0 0 0 0-16Z"></path></svg>