<svg xmlns="http://www.w3.org/2000/svg" xmlns:xlink="http://www.w3.org/1999/xlink" aria-hidden="true" role="img" class="iconify iconify--ph" width="1em" height="1em" preserveAspectRatio="xMidYMid meet" viewBox="0 0 256 256"><path fill="currentColor" d="M224 50H32a14 14 0 0 0-14 14v127.9a14 14 0 0 0 14 14h192a14 14 0 0 0 14-14V64a14 14 0 0 0-14-14ZM32 62h192a2 2 0 0 1 2 2v26.9H30V64a2 2 0 0 1 2-2Zm192 132H32a2 2 0 0 1-2-2v-89.1h196V192a2 2 0 0 1-2 2Zm-18-26a6 6 0 0 1-6 6h-32a6 6 0 0 1 0-12h32a6 6 0 0 1 6 6Zm-64 0a6 6 0 0 1-6 6h-16a6 6 0 0 1 0-12h16a6 6 0 0 1 6 6Z"></path></svg>