<svg xmlns="http://www.w3.org/2000/svg" xmlns:xlink="http://www.w3.org/1999/xlink" aria-hidden="true" role="img" class="iconify iconify--ph" width="1em" height="1em" preserveAspectRatio="xMidYMid meet" viewBox="0 0 256 256"><path fill="currentColor" d="M128 30a98 98 0 1 0 98 98a98.2 98.2 0 0 0-98-98Zm6 183.8V180a6 6 0 0 0-12 0v33.8A86.3 86.3 0 0 1 42.2 134H76a6 6 0 0 0 0-12H42.2A86.3 86.3 0 0 1 122 42.2V76a6 6 0 0 0 12 0V42.2a86.3 86.3 0 0 1 79.8 79.8H180a6 6 0 0 0 0 12h33.8a86.3 86.3 0 0 1-79.8 79.8Z"></path></svg>