<svg xmlns="http://www.w3.org/2000/svg" xmlns:xlink="http://www.w3.org/1999/xlink" aria-hidden="true" role="img" class="iconify iconify--ph" width="1em" height="1em" preserveAspectRatio="xMidYMid meet" viewBox="0 0 256 256"><path fill="currentColor" d="M236 116h-8.7A100.2 100.2 0 0 0 140 28.7V20a12 12 0 0 0-24 0v8.7A100.2 100.2 0 0 0 28.7 116H20a12 12 0 0 0 0 24h8.7a100.2 100.2 0 0 0 87.3 87.3v8.7a12 12 0 0 0 24 0v-8.7a100.2 100.2 0 0 0 87.3-87.3h8.7a12 12 0 0 0 0-24Zm-96 87v-3a12 12 0 0 0-24 0v3a76 76 0 0 1-63-63h3a12 12 0 0 0 0-24h-3a76 76 0 0 1 63-63v3a12 12 0 0 0 24 0v-3a76 76 0 0 1 63 63h-3a12 12 0 0 0 0 24h3a76 76 0 0 1-63 63ZM128 84a44 44 0 1 0 44 44a44 44 0 0 0-44-44Zm0 64a20 20 0 1 1 20-20a20.1 20.1 0 0 1-20 20Z"></path></svg>