<svg xmlns="http://www.w3.org/2000/svg" xmlns:xlink="http://www.w3.org/1999/xlink" aria-hidden="true" role="img" class="iconify iconify--ph" width="1em" height="1em" preserveAspectRatio="xMidYMid meet" viewBox="0 0 256 256"><path fill="currentColor" d="M236 122h-14.2A94.1 94.1 0 0 0 134 34.2V20a6 6 0 0 0-12 0v14.2A94.1 94.1 0 0 0 34.2 122H20a6 6 0 0 0 0 12h14.2a94.1 94.1 0 0 0 87.8 87.8V236a6 6 0 0 0 12 0v-14.2a94.1 94.1 0 0 0 87.8-87.8H236a6 6 0 0 0 0-12Zm-102 87.8V196a6 6 0 0 0-12 0v13.8A82.3 82.3 0 0 1 46.2 134H60a6 6 0 0 0 0-12H46.2A82.3 82.3 0 0 1 122 46.2V60a6 6 0 0 0 12 0V46.2a82.3 82.3 0 0 1 75.8 75.8H196a6 6 0 0 0 0 12h13.8a82.3 82.3 0 0 1-75.8 75.8ZM128 90a38 38 0 1 0 38 38a38 38 0 0 0-38-38Zm0 64a26 26 0 1 1 26-26a26.1 26.1 0 0 1-26 26Z"></path></svg>