<svg xmlns="http://www.w3.org/2000/svg" xmlns:xlink="http://www.w3.org/1999/xlink" aria-hidden="true" role="img" class="iconify iconify--ph" width="1em" height="1em" preserveAspectRatio="xMidYMid meet" viewBox="0 0 256 256"><path fill="currentColor" d="M236 124h-16.1A92 92 0 0 0 132 36.1V20a4 4 0 0 0-8 0v16.1A92 92 0 0 0 36.1 124H20a4 4 0 0 0 0 8h16.1a92 92 0 0 0 87.9 87.9V236a4 4 0 0 0 8 0v-16.1a92 92 0 0 0 87.9-87.9H236a4 4 0 0 0 0-8Zm-104 87.9V196a4 4 0 0 0-8 0v15.9A84.1 84.1 0 0 1 44.1 132H60a4 4 0 0 0 0-8H44.1A84.1 84.1 0 0 1 124 44.1V60a4 4 0 0 0 8 0V44.1a84.1 84.1 0 0 1 79.9 79.9H196a4 4 0 0 0 0 8h15.9a84.1 84.1 0 0 1-79.9 79.9ZM128 92a36 36 0 1 0 36 36a36 36 0 0 0-36-36Zm0 64a28 28 0 1 1 28-28a28.1 28.1 0 0 1-28 28Z"></path></svg>