<svg xmlns="http://www.w3.org/2000/svg" xmlns:xlink="http://www.w3.org/1999/xlink" aria-hidden="true" role="img" class="iconify iconify--ph" width="1em" height="1em" preserveAspectRatio="xMidYMid meet" viewBox="0 0 256 256"><path fill="currentColor" d="M128 24a104 104 0 1 0 104 104A104.2 104.2 0 0 0 128 24Zm12 183.1V180a12 12 0 0 0-24 0v27.1A80.2 80.2 0 0 1 48.9 140H76a12 12 0 0 0 0-24H48.9A80.2 80.2 0 0 1 116 48.9V76a12 12 0 0 0 24 0V48.9a80.2 80.2 0 0 1 67.1 67.1H180a12 12 0 0 0 0 24h27.1a80.2 80.2 0 0 1-67.1 67.1Z"></path></svg>