<svg xmlns="http://www.w3.org/2000/svg" xmlns:xlink="http://www.w3.org/1999/xlink" aria-hidden="true" role="img" class="iconify iconify--ph" width="1em" height="1em" preserveAspectRatio="xMidYMid meet" viewBox="0 0 256 256"><circle cx="128" cy="128" r="92" fill="currentColor" opacity=".2"></circle><path fill="currentColor" d="M128 28a100 100 0 1 0 100 100A100.2 100.2 0 0 0 128 28Zm8 183.6V180a8 8 0 0 0-16 0v31.6A84.2 84.2 0 0 1 44.4 136H76a8 8 0 0 0 0-16H44.4A84.2 84.2 0 0 1 120 44.4V76a8 8 0 0 0 16 0V44.4a84.2 84.2 0 0 1 75.6 75.6H180a8 8 0 0 0 0 16h31.6a84.2 84.2 0 0 1-75.6 75.6Z"></path></svg>