<svg xmlns="http://www.w3.org/2000/svg" xmlns:xlink="http://www.w3.org/1999/xlink" aria-hidden="true" role="img" class="iconify iconify--ph" width="1em" height="1em" preserveAspectRatio="xMidYMid meet" viewBox="0 0 256 256"><path fill="currentColor" d="M128 32a96 96 0 1 0 96 96a96.2 96.2 0 0 0-96-96Zm4 183.9V180a4 4 0 0 0-8 0v35.9A88.1 88.1 0 0 1 40.1 132H76a4 4 0 0 0 0-8H40.1A88.1 88.1 0 0 1 124 40.1V76a4 4 0 0 0 8 0V40.1a88.1 88.1 0 0 1 83.9 83.9H180a4 4 0 0 0 0 8h35.9a88.1 88.1 0 0 1-83.9 83.9Z"></path></svg>