<svg xmlns="http://www.w3.org/2000/svg" xmlns:xlink="http://www.w3.org/1999/xlink" aria-hidden="true" role="img" class="iconify iconify--ph" width="1em" height="1em" preserveAspectRatio="xMidYMid meet" viewBox="0 0 256 256"><path fill="currentColor" d="M236.2 76.6a12 12 0 0 0-12.6-1.7l-50.5 22.5a4.2 4.2 0 0 1-5.2-1.7l-29.4-53.1a12.1 12.1 0 0 0-21 0L88.1 95.7a4.2 4.2 0 0 1-5.2 1.7L32.3 74.9a11.9 11.9 0 0 0-16.5 13.7l25.4 108.3a12.4 12.4 0 0 0 5.6 7.6a12.2 12.2 0 0 0 6.1 1.7a12.6 12.6 0 0 0 3.3-.5a270.6 270.6 0 0 1 143.6 0a11.9 11.9 0 0 0 14.9-8.8l25.5-108.3a11.9 11.9 0 0 0-4-12Zm-3.8 10.2l-25.5 108.3a3.8 3.8 0 0 1-1.8 2.5a4 4 0 0 1-3.2.4A278.4 278.4 0 0 0 54 198a4.1 4.1 0 0 1-5-2.9L23.6 86.8a3.8 3.8 0 0 1 1.3-4a4.2 4.2 0 0 1 2.6-1a4.7 4.7 0 0 1 1.6.4l50.6 22.5a12 12 0 0 0 15.4-5.2l29.4-53a4.1 4.1 0 0 1 7 0l29.4 53a12 12 0 0 0 15.4 5.2l50.6-22.5a4 4 0 0 1 4.2.6a3.8 3.8 0 0 1 1.3 4Z"></path></svg>