<svg xmlns="http://www.w3.org/2000/svg" xmlns:xlink="http://www.w3.org/1999/xlink" aria-hidden="true" role="img" class="iconify iconify--ph" width="1em" height="1em" preserveAspectRatio="xMidYMid meet" viewBox="0 0 256 256"><path fill="currentColor" d="M241.3 70.5a19.9 19.9 0 0 0-20.9-2.9l-47.2 21l-27.7-49.8a20 20 0 0 0-35 0L82.8 88.6l-47.2-21A19.9 19.9 0 0 0 8 90.4l25.4 108.4A20.1 20.1 0 0 0 53 214.2a18.9 18.9 0 0 0 5.3-.8a262.7 262.7 0 0 1 139.3 0a20 20 0 0 0 24.9-14.6L248 90.4a19.8 19.8 0 0 0-6.7-19.9ZM56.8 193.3Zm143.3-4.1a287.1 287.1 0 0 0-144.2 0L33.2 92.8L76.4 112a19.9 19.9 0 0 0 25.6-8.6l26-46.7l26 46.7a19.9 19.9 0 0 0 25.6 8.6l43.2-19.2Zm-28.2-34.3a11.9 11.9 0 0 1-11.9 10.7h-1.2a301.9 301.9 0 0 0-61.6 0a11.9 11.9 0 0 1-13.1-10.7a12 12 0 0 1 10.7-13.2a320.4 320.4 0 0 1 66.4 0a12 12 0 0 1 10.7 13.2Z"></path></svg>