<svg xmlns="http://www.w3.org/2000/svg" xmlns:xlink="http://www.w3.org/1999/xlink" aria-hidden="true" role="img" class="iconify iconify--ph" width="1em" height="1em" preserveAspectRatio="xMidYMid meet" viewBox="0 0 256 256"><path fill="currentColor" d="M233.4 68.9c0-.1 0-.1-.1-.2a20.5 20.5 0 0 0-7.5-7.4l-88-49.5a20.1 20.1 0 0 0-19.6 0l-88 49.5a20 20 0 0 0-7.5 7.5h-.1a.3.3 0 0 1-.1.2a20 20 0 0 0-2.5 9.7v98.6a20.2 20.2 0 0 0 10.2 17.5l88 49.5a20.6 20.6 0 0 0 9 2.5h1.7a21.2 21.2 0 0 0 8.9-2.5l88-49.5a20.2 20.2 0 0 0 10.2-17.5V78.7a19.4 19.4 0 0 0-2.6-9.8ZM128 33.8l71.6 40.3l-70.7 40.1l-72.3-40.3ZM44 94.4l72.9 40.6l-.7 80.6L44 175Zm96.2 121l.7-80.4L212 94.6V175Z"></path></svg>