<svg xmlns="http://www.w3.org/2000/svg" xmlns:xlink="http://www.w3.org/1999/xlink" aria-hidden="true" role="img" class="iconify iconify--ph" width="1em" height="1em" preserveAspectRatio="xMidYMid meet" viewBox="0 0 256 256"><path fill="currentColor" d="M189.7 192.1a3.9 3.9 0 0 1 0 5.6A75.2 75.2 0 0 1 136 220a76.1 76.1 0 0 1-75.9-72H40a4 4 0 0 1 0-8h20v-24H40a4 4 0 0 1 0-8h20.1A76.1 76.1 0 0 1 136 36a75.2 75.2 0 0 1 53.7 22.3a4 4 0 0 1-5.6 5.6a68 68 0 0 0-116 44.1H136a4 4 0 0 1 0 8H68v24h52a4 4 0 0 1 0 8H68.1a68 68 0 0 0 116 44.1a3.9 3.9 0 0 1 5.6 0Z"></path></svg>