<svg xmlns="http://www.w3.org/2000/svg" xmlns:xlink="http://www.w3.org/1999/xlink" aria-hidden="true" role="img" class="iconify iconify--ph" width="1em" height="1em" preserveAspectRatio="xMidYMid meet" viewBox="0 0 256 256"><path fill="currentColor" d="M192 208a8 8 0 0 1-8 8H56a8 8 0 0 1 0-16a28.1 28.1 0 0 0 28-28v-32H56a8 8 0 0 1 0-16h28V84a52 52 0 0 1 88.8-36.8a8 8 0 0 1 0 11.3a7.9 7.9 0 0 1-11.3 0A36.1 36.1 0 0 0 100 84v40h36a8 8 0 0 1 0 16h-36v32a43.8 43.8 0 0 1-10.1 28H184a8 8 0 0 1 8 8Z"></path></svg>