<svg xmlns="http://www.w3.org/2000/svg" xmlns:xlink="http://www.w3.org/1999/xlink" aria-hidden="true" role="img" class="iconify iconify--ph" width="1em" height="1em" preserveAspectRatio="xMidYMid meet" viewBox="0 0 256 256"><path fill="currentColor" d="M240 124h-16.2l19.3-47.5a12 12 0 1 0-22.2-9l-23 56.5h-35.8l-23-56.5a12 12 0 0 0-22.2 0l-23 56.5H58.1l-23-56.5a12 12 0 1 0-22.2 9L32.2 124H16a12 12 0 0 0 0 24h25.9l23 56.5a12 12 0 0 0 22.2 0l23-56.5h35.8l23 56.5a12 12 0 0 0 22.2 0l23-56.5H240a12 12 0 0 0 0-24ZM76 168.1L67.8 148h16.4Zm43.8-44.1l8.2-20.1l8.2 20.1Zm60.2 44.1l-8.2-20.1h16.4Z"></path></svg>