<svg xmlns="http://www.w3.org/2000/svg" xmlns:xlink="http://www.w3.org/1999/xlink" aria-hidden="true" role="img" class="iconify iconify--ph" width="1em" height="1em" preserveAspectRatio="xMidYMid meet" viewBox="0 0 256 256"><path fill="currentColor" d="M58 64a6 6 0 0 1 6-6h128a6 6 0 0 1 0 12H64a6 6 0 0 1-6-6Zm158 106a6 6 0 0 0-6 6v18h-34a18.1 18.1 0 0 1-18-18v-50h50a6 6 0 0 0 0-12H48a6 6 0 0 0 0 12h50v10a58 58 0 0 1-58 58a6 6 0 0 0 0 12a70.1 70.1 0 0 0 70-70v-10h36v50a30.1 30.1 0 0 0 30 30h40a6 6 0 0 0 6-6v-24a6 6 0 0 0-6-6Z"></path></svg>