<svg xmlns="http://www.w3.org/2000/svg" xmlns:xlink="http://www.w3.org/1999/xlink" aria-hidden="true" role="img" class="iconify iconify--ph" width="1em" height="1em" preserveAspectRatio="xMidYMid meet" viewBox="0 0 256 256"><path fill="currentColor" d="M200 168a48 48 0 0 1-48 48h-16v16a8 8 0 0 1-16 0v-16h-16a48 48 0 0 1-48-48a8 8 0 0 1 16 0a32.1 32.1 0 0 0 32 32h48a32 32 0 0 0 0-64h-44a48 48 0 0 1 0-96h12V24a8 8 0 0 1 16 0v16h8a48 48 0 0 1 48 48a8 8 0 0 1-16 0a32.1 32.1 0 0 0-32-32h-36a32 32 0 0 0 0 64h44a48 48 0 0 1 48 48Z"></path></svg>