<svg xmlns="http://www.w3.org/2000/svg" xmlns:xlink="http://www.w3.org/1999/xlink" aria-hidden="true" role="img" class="iconify iconify--ph" width="1em" height="1em" preserveAspectRatio="xMidYMid meet" viewBox="0 0 256 256"><path fill="currentColor" d="m225.4 120.6l-88-112a11.9 11.9 0 0 0-18.8 0l-88 112a11.7 11.7 0 0 0 0 14.8l88 112a11.9 11.9 0 0 0 18.8 0l88-112a11.7 11.7 0 0 0 0-14.8ZM140 50.7l57.1 72.7l-57.1 26Zm-24 98.7l-57.1-26L116 50.7Zm0 26.3v29.6l-36.1-46Zm24 0l36.1-16.4l-36.1 46Z"></path></svg>