<svg xmlns="http://www.w3.org/2000/svg" xmlns:xlink="http://www.w3.org/1999/xlink" aria-hidden="true" role="img" class="iconify iconify--ph" width="1em" height="1em" preserveAspectRatio="xMidYMid meet" viewBox="0 0 256 256"><path fill="currentColor" d="M128 20a108 108 0 1 0 108 108A108.1 108.1 0 0 0 128 20Zm0 192a84 84 0 1 1 84-84a84.1 84.1 0 0 1-84 84Zm44-64a32.1 32.1 0 0 1-32 32v4a12 12 0 0 1-24 0v-4h-12a12 12 0 0 1 0-24h36a8 8 0 0 0 0-16h-24a32 32 0 0 1 0-64v-4a12 12 0 0 1 24 0v4h12a12 12 0 0 1 0 24h-36a8 8 0 0 0 0 16h24a32.1 32.1 0 0 1 32 32Z"></path></svg>