<svg xmlns="http://www.w3.org/2000/svg" xmlns:xlink="http://www.w3.org/1999/xlink" aria-hidden="true" role="img" class="iconify iconify--ph" width="1em" height="1em" preserveAspectRatio="xMidYMid meet" viewBox="0 0 256 256"><path fill="currentColor" d="M170.5 115.7A44 44 0 0 0 144 40.2V24a8 8 0 0 0-16 0v16h-16V24a8 8 0 0 0-16 0v16H64a8 8 0 0 0 0 16h8v136h-8a8 8 0 0 0 0 16h32v16a8 8 0 0 0 16 0v-16h16v16a8 8 0 0 0 16 0v-16h8a48 48 0 0 0 18.5-92.3ZM168 84a28.1 28.1 0 0 1-28 28H88V56h52a28.1 28.1 0 0 1 28 28Zm-16 108H88v-64h64a32 32 0 0 1 0 64Z"></path></svg>