<svg xmlns="http://www.w3.org/2000/svg" xmlns:xlink="http://www.w3.org/1999/xlink" aria-hidden="true" role="img" class="iconify iconify--ph" width="1em" height="1em" preserveAspectRatio="xMidYMid meet" viewBox="0 0 256 256"><path fill="currentColor" d="M152 120h-16V56h8a32.1 32.1 0 0 1 32 32a8 8 0 0 0 16 0a48 48 0 0 0-48-48h-8V24a8 8 0 0 0-16 0v16h-12a48 48 0 0 0 0 96h12v64h-16a32.1 32.1 0 0 1-32-32a8 8 0 0 0-16 0a48 48 0 0 0 48 48h16v16a8 8 0 0 0 16 0v-16h16a48 48 0 0 0 0-96Zm-44 0a32 32 0 0 1 0-64h12v64Zm44 80h-16v-64h16a32 32 0 0 1 0 64Z"></path></svg>