<svg xmlns="http://www.w3.org/2000/svg" xmlns:xlink="http://www.w3.org/1999/xlink" aria-hidden="true" role="img" class="iconify iconify--ph" width="1em" height="1em" preserveAspectRatio="xMidYMid meet" viewBox="0 0 256 256"><path fill="currentColor" d="M56 64a8 8 0 0 1 8-8h128a8 8 0 0 1 0 16H64a8 8 0 0 1-8-8Zm160 104a8 8 0 0 0-8 8v16h-32a16 16 0 0 1-16-16v-48h48a8 8 0 0 0 0-16H48a8 8 0 0 0 0 16h48v8a56 56 0 0 1-56 56a8 8 0 0 0 0 16a72.1 72.1 0 0 0 72-72v-8h32v48a32.1 32.1 0 0 0 32 32h40a8 8 0 0 0 8-8v-24a8 8 0 0 0-8-8Z"></path></svg>