<svg xmlns="http://www.w3.org/2000/svg" xmlns:xlink="http://www.w3.org/1999/xlink" aria-hidden="true" role="img" class="iconify iconify--ph" width="1em" height="1em" preserveAspectRatio="xMidYMid meet" viewBox="0 0 256 256"><path fill="currentColor" d="M191.2 190.7a6.1 6.1 0 0 1 0 8.5A78 78 0 0 1 58.3 150H40a6 6 0 0 1 0-12h18v-20H40a6 6 0 0 1 0-12h18.3a78 78 0 0 1 132.9-49.2a6.1 6.1 0 0 1 0 8.5a5.9 5.9 0 0 1-8.5 0A66 66 0 0 0 70.3 106H136a6 6 0 0 1 0 12H70v20h50a6 6 0 0 1 0 12H70.3a66 66 0 0 0 112.4 40.7a5.9 5.9 0 0 1 8.5 0Z"></path></svg>