<svg xmlns="http://www.w3.org/2000/svg" xmlns:xlink="http://www.w3.org/1999/xlink" aria-hidden="true" role="img" class="iconify iconify--ph" width="1em" height="1em" preserveAspectRatio="xMidYMid meet" viewBox="0 0 256 256"><path fill="currentColor" d="M206 80a6 6 0 0 1-6 6h-34.3q.3 3 .3 6a58 58 0 0 1-58 58H87.5l76.5 69.6a6 6 0 0 1-4 10.4a5.7 5.7 0 0 1-4-1.6l-88-80a5.9 5.9 0 0 1-1.6-6.6A6 6 0 0 1 72 138h36a46 46 0 0 0 46-46a40.3 40.3 0 0 0-.4-6H72a6 6 0 0 1 0-12h78.3A46.1 46.1 0 0 0 108 46H72a6 6 0 0 1 0-12h128a6 6 0 0 1 0 12h-56.7a58.4 58.4 0 0 1 19.8 28H200a6 6 0 0 1 6 6Z"></path></svg>