<svg xmlns="http://www.w3.org/2000/svg" xmlns:xlink="http://www.w3.org/1999/xlink" aria-hidden="true" role="img" class="iconify iconify--ph" width="1em" height="1em" preserveAspectRatio="xMidYMid meet" viewBox="0 0 256 256"><path fill="currentColor" d="M128 28a100 100 0 1 0 100 100A100.2 100.2 0 0 0 128 28Zm0 192a92 92 0 1 1 92-92a92.1 92.1 0 0 1-92 92Zm36-72a24.1 24.1 0 0 1-24 24h-8v12a4 4 0 0 1-8 0v-12h-20a4 4 0 0 1 0-8h36a16 16 0 0 0 0-32h-24a24 24 0 0 1 0-48h8V72a4 4 0 0 1 8 0v12h20a4 4 0 0 1 0 8h-36a16 16 0 0 0 0 32h24a24.1 24.1 0 0 1 24 24Z"></path></svg>