<svg xmlns="http://www.w3.org/2000/svg" xmlns:xlink="http://www.w3.org/1999/xlink" aria-hidden="true" role="img" class="iconify iconify--ph" width="1em" height="1em" preserveAspectRatio="xMidYMid meet" viewBox="0 0 256 256"><path fill="currentColor" d="M240 132h-28.1l23.8-58.5a4 4 0 1 0-7.4-3l-25 61.5h-46.6l-25-61.5a4 4 0 0 0-7.4 0l-25 61.5H52.7l-25-61.5a4 4 0 1 0-7.4 3L44.1 132H16a4 4 0 0 0 0 8h31.3l25 61.5a4 4 0 0 0 7.4 0l25-61.5h46.6l25 61.5a4 4 0 0 0 7.4 0l25-61.5H240a4 4 0 0 0 0-8ZM76 189.4L55.9 140h40.2Zm31.9-57.4L128 82.6l20.1 49.4Zm72.1 57.4L159.9 140h40.2Z"></path></svg>