<svg xmlns="http://www.w3.org/2000/svg" xmlns:xlink="http://www.w3.org/1999/xlink" aria-hidden="true" role="img" class="iconify iconify--ph" width="1em" height="1em" preserveAspectRatio="xMidYMid meet" viewBox="0 0 256 256"><path fill="currentColor" d="M152 124h-20V52h12a36 36 0 0 1 36 36a4 4 0 0 0 8 0a44 44 0 0 0-44-44h-12V24a4 4 0 0 0-8 0v20h-16a44 44 0 0 0 0 88h16v72h-20a36 36 0 0 1-36-36a4 4 0 0 0-8 0a44 44 0 0 0 44 44h20v20a4 4 0 0 0 8 0v-20h20a44 44 0 0 0 0-88Zm-44 0a36 36 0 0 1 0-72h16v72Zm44 80h-20v-72h20a36 36 0 0 1 0 72Z"></path></svg>