<svg xmlns="http://www.w3.org/2000/svg" xmlns:xlink="http://www.w3.org/1999/xlink" aria-hidden="true" role="img" class="iconify iconify--ph" width="1em" height="1em" preserveAspectRatio="xMidYMid meet" viewBox="0 0 256 256"><path fill="currentColor" d="M196 208a12 12 0 0 1-12 12H56a12 12 0 0 1 0-24a24.1 24.1 0 0 0 24-24v-28H56a12 12 0 0 1 0-24h24V84a56 56 0 0 1 95.6-39.6a12 12 0 0 1-17 17A31.5 31.5 0 0 0 136 52a32.1 32.1 0 0 0-32 32v36h32a12 12 0 0 1 0 24h-32v28a47.9 47.9 0 0 1-6.5 24H184a12 12 0 0 1 12 12Z"></path></svg>