<svg xmlns="http://www.w3.org/2000/svg" xmlns:xlink="http://www.w3.org/1999/xlink" aria-hidden="true" role="img" class="iconify iconify--ph" width="1em" height="1em" preserveAspectRatio="xMidYMid meet" viewBox="0 0 256 256"><path fill="currentColor" d="M240 130h-25.1l22.7-55.7a6.1 6.1 0 1 0-11.2-4.6L202 130h-44l-24.4-60.3a6.1 6.1 0 0 0-11.2 0L98 130H54L29.6 69.7a6.2 6.2 0 0 0-7.9-3.3a6.2 6.2 0 0 0-3.3 7.9L41.1 130H16a6 6 0 0 0 0 12h30l24.4 60.3a6.1 6.1 0 0 0 11.2 0L106 142h44l24.4 60.3a6.1 6.1 0 0 0 11.2 0L210 142h30a6 6 0 0 0 0-12ZM76 184.1L58.9 142h34.2Zm34.9-54.1L128 87.9l17.1 42.1Zm69.1 54.1L162.9 142h34.2Z"></path></svg>