<svg xmlns="http://www.w3.org/2000/svg" xmlns:xlink="http://www.w3.org/1999/xlink" aria-hidden="true" role="img" class="iconify iconify--ph" width="1em" height="1em" preserveAspectRatio="xMidYMid meet" viewBox="0 0 256 256"><path fill="currentColor" d="M192.6 189.3a8 8 0 0 1 0 11.3A80 80 0 0 1 56.4 152H40a8 8 0 0 1 0-16h16v-16H40a8 8 0 0 1 0-16h16.4a80 80 0 0 1 136.2-48.6a8 8 0 0 1 0 11.3a7.9 7.9 0 0 1-11.3 0A64.1 64.1 0 0 0 72.5 104H136a8 8 0 0 1 0 16H72v16h48a8 8 0 0 1 0 16H72.5a64.1 64.1 0 0 0 108.8 37.3a7.9 7.9 0 0 1 11.3 0Z"></path></svg>