<svg xmlns="http://www.w3.org/2000/svg" xmlns:xlink="http://www.w3.org/1999/xlink" aria-hidden="true" role="img" class="iconify iconify--ph" width="1em" height="1em" preserveAspectRatio="xMidYMid meet" viewBox="0 0 256 256"><path fill="currentColor" d="M216 116h-12V46a12 12 0 0 0-24 0v70h-46.1L73.5 38.6A12.1 12.1 0 0 0 52 46v70H40a12 12 0 0 0 0 24h12v70a12 12 0 0 0 24 0v-70h46.1l60.4 77.4a12.1 12.1 0 0 0 9.5 4.6a10.7 10.7 0 0 0 3.9-.7A12 12 0 0 0 204 210v-70h12a12 12 0 0 0 0-24Zm-140 0V80.9l27.4 35.1Zm104 59.1L152.6 140H180Z"></path></svg>