<svg xmlns="http://www.w3.org/2000/svg" xmlns:xlink="http://www.w3.org/1999/xlink" aria-hidden="true" role="img" class="iconify iconify--ph" width="1em" height="1em" preserveAspectRatio="xMidYMid meet" viewBox="0 0 256 256"><path fill="currentColor" d="M52 64a12 12 0 0 1 12-12h128a12 12 0 0 1 0 24H64a12 12 0 0 1-12-12Zm164 100a12 12 0 0 0-12 12v12h-28a12 12 0 0 1-12-12v-44h44a12 12 0 0 0 0-24H48a12 12 0 0 0 0 24h44v4a52 52 0 0 1-52 52a12 12 0 0 0 0 24a76.1 76.1 0 0 0 76-76v-4h24v44a36 36 0 0 0 36 36h40a12 12 0 0 0 12-12v-24a12 12 0 0 0-12-12Z"></path></svg>