<svg xmlns="http://www.w3.org/2000/svg" xmlns:xlink="http://www.w3.org/1999/xlink" aria-hidden="true" role="img" class="iconify iconify--ph" width="1em" height="1em" preserveAspectRatio="xMidYMid meet" viewBox="0 0 256 256"><path fill="currentColor" d="m216 128l-88 112l-88-112l88 40Z" opacity=".2"></path><path fill="currentColor" d="m222.3 123.1l-88-112a8 8 0 0 0-12.6 0l-88 112a7.8 7.8 0 0 0 0 9.8l88 112a8 8 0 0 0 12.6 0l88-112a7.8 7.8 0 0 0 0-9.8Zm-86.3-84l67.4 85.8l-67.4 30.7Zm-16 116.5l-67.4-30.7L120 39.1Zm0 17.6v43.7l-53.4-68Zm16 0l53.4-24.3l-53.4 68Z"></path></svg>