<svg xmlns="http://www.w3.org/2000/svg" xmlns:xlink="http://www.w3.org/1999/xlink" aria-hidden="true" role="img" class="iconify iconify--ph" width="1em" height="1em" preserveAspectRatio="xMidYMid meet" viewBox="0 0 256 256"><path fill="currentColor" d="M195.4 186.4a12 12 0 0 1 0 17A84 84 0 0 1 53.5 160H40a12 12 0 0 1 0-24h12v-16H40a12 12 0 0 1 0-24h13.5a84 84 0 0 1 141.9-43.4a12 12 0 0 1-17 17A59.3 59.3 0 0 0 136 52a60.1 60.1 0 0 0-57.8 44H136a12 12 0 0 1 0 24H76v16h44a12 12 0 0 1 0 24H78.2a60.1 60.1 0 0 0 57.8 44a59.3 59.3 0 0 0 42.4-17.6a12 12 0 0 1 17 0Z"></path></svg>