<svg xmlns="http://www.w3.org/2000/svg" xmlns:xlink="http://www.w3.org/1999/xlink" aria-hidden="true" role="img" class="iconify iconify--ph" width="1em" height="1em" preserveAspectRatio="xMidYMid meet" viewBox="0 0 256 256"><path fill="currentColor" d="M216 136h-16v-16h16a8 8 0 0 0 0-16h-16V46a8 8 0 0 0-16 0v58h-64.6L70.3 41.1A8 8 0 0 0 56 46v58H40a8 8 0 0 0 0 16h16v16H40a8 8 0 0 0 0 16h16v58a8 8 0 0 0 16 0v-58h64.6l49.1 62.9a8.1 8.1 0 0 0 8.9 2.7a8.1 8.1 0 0 0 5.4-7.6v-58h16a8 8 0 0 0 0-16Zm-32-16v16h-39.6l-12.5-16ZM72 69.3L99.1 104H72Zm0 66.7v-16h39.6l12.5 16Zm112 50.7L156.9 152H184Z"></path></svg>