<svg xmlns="http://www.w3.org/2000/svg" xmlns:xlink="http://www.w3.org/1999/xlink" aria-hidden="true" role="img" class="iconify iconify--ph" width="1em" height="1em" preserveAspectRatio="xMidYMid meet" viewBox="0 0 256 256"><path fill="currentColor" d="M177.1 114.5a48.1 48.1 0 0 0-25.1-77V24a12 12 0 0 0-24 0v12h-16V24a12 12 0 0 0-24 0v12H64a12 12 0 0 0 0 24h4v128h-4a12 12 0 0 0 0 24h24v12a12 12 0 0 0 24 0v-12h16v12a12 12 0 0 0 24 0v-12a52 52 0 0 0 25.1-97.5ZM164 84a24.1 24.1 0 0 1-24 24H92V60h48a24.1 24.1 0 0 1 24 24Zm-12 104H92v-56h60a28 28 0 0 1 0 56Z"></path></svg>