<svg xmlns="http://www.w3.org/2000/svg" xmlns:xlink="http://www.w3.org/1999/xlink" aria-hidden="true" role="img" class="iconify iconify--ph" width="1em" height="1em" preserveAspectRatio="xMidYMid meet" viewBox="0 0 256 256"><path fill="currentColor" d="M190 208a6 6 0 0 1-6 6H56a6 6 0 0 1 0-12a30.1 30.1 0 0 0 30-30v-34H56a6 6 0 0 1 0-12h30V84a50.1 50.1 0 0 1 85.4-35.4a6.1 6.1 0 0 1 0 8.5a5.9 5.9 0 0 1-8.5 0A38 38 0 0 0 98 84v42h38a6 6 0 0 1 0 12H98v34a42.2 42.2 0 0 1-12.6 30H184a6 6 0 0 1 6 6Z"></path></svg>