<svg xmlns="http://www.w3.org/2000/svg" xmlns:xlink="http://www.w3.org/1999/xlink" aria-hidden="true" role="img" class="iconify iconify--ph" width="1em" height="1em" preserveAspectRatio="xMidYMid meet" viewBox="0 0 256 256"><path fill="currentColor" d="M216 138h-18v-20h18a6 6 0 0 0 0-12h-18V46a6 6 0 0 0-12 0v60h-67.6L68.7 42.3A6 6 0 0 0 58 46v60H40a6 6 0 0 0 0 12h18v20H40a6 6 0 0 0 0 12h18v60a6 6 0 0 0 12 0v-60h67.6l49.7 63.7a5.8 5.8 0 0 0 4.7 2.3a6.9 6.9 0 0 0 2-.3a6 6 0 0 0 4-5.7v-60h18a6 6 0 0 0 0-12Zm-30-20v20h-42.6l-15.6-20ZM70 63.4l33.2 42.6H70Zm0 74.6v-20h42.6l15.6 20Zm116 54.6L152.8 150H186Z"></path></svg>