<svg xmlns="http://www.w3.org/2000/svg" xmlns:xlink="http://www.w3.org/1999/xlink" aria-hidden="true" role="img" class="iconify iconify--ph" width="1em" height="1em" preserveAspectRatio="xMidYMid meet" viewBox="0 0 256 256"><path fill="currentColor" d="M152 122h-18V54h10a34.1 34.1 0 0 1 34 34a6 6 0 0 0 12 0a46 46 0 0 0-46-46h-10V24a6 6 0 0 0-12 0v18h-14a46 46 0 0 0 0 92h14v68h-18a34.1 34.1 0 0 1-34-34a6 6 0 0 0-12 0a46 46 0 0 0 46 46h18v18a6 6 0 0 0 12 0v-18h18a46 46 0 0 0 0-92Zm-44 0a34 34 0 0 1 0-68h14v68Zm44 80h-18v-68h18a34 34 0 0 1 0 68Z"></path></svg>