<svg xmlns="http://www.w3.org/2000/svg" xmlns:xlink="http://www.w3.org/1999/xlink" aria-hidden="true" role="img" class="iconify iconify--ph" width="1em" height="1em" preserveAspectRatio="xMidYMid meet" viewBox="0 0 256 256"><path fill="currentColor" d="M162.3 117.2A40 40 0 0 0 140 44V24a4 4 0 0 0-8 0v20h-24V24a4 4 0 0 0-8 0v20H64a4 4 0 0 0 0 8h12v144H64a4 4 0 0 0 0 8h36v20a4 4 0 0 0 8 0v-20h24v20a4 4 0 0 0 8 0v-20h12a44 44 0 0 0 10.3-86.8ZM172 84a32.1 32.1 0 0 1-32 32H84V52h56a32.1 32.1 0 0 1 32 32Zm-20 112H84v-72h68a36 36 0 0 1 0 72Z"></path></svg>