<svg xmlns="http://www.w3.org/2000/svg" xmlns:xlink="http://www.w3.org/1999/xlink" aria-hidden="true" role="img" class="iconify iconify--ph" width="1em" height="1em" preserveAspectRatio="xMidYMid meet" viewBox="0 0 256 256"><path fill="currentColor" d="M204 80a4 4 0 0 1-4 4h-36.6a52.9 52.9 0 0 1 .6 8a56 56 0 0 1-56 56H82.3l80.4 73a4.2 4.2 0 0 1 .3 5.7a4.1 4.1 0 0 1-5.7.3l-88-80a4.1 4.1 0 0 1-1-4.4A3.9 3.9 0 0 1 72 140h36a48 48 0 0 0 48-48a42.5 42.5 0 0 0-.7-8H72a4 4 0 0 1 0-8h81.2A48 48 0 0 0 108 44H72a4 4 0 0 1 0-8h128a4 4 0 0 1 0 8h-63.2a56.6 56.6 0 0 1 24.9 32H200a4 4 0 0 1 4 4Z"></path></svg>