<svg xmlns="http://www.w3.org/2000/svg" xmlns:xlink="http://www.w3.org/1999/xlink" aria-hidden="true" role="img" class="iconify iconify--ph" width="1em" height="1em" preserveAspectRatio="xMidYMid meet" viewBox="0 0 256 256"><path fill="currentColor" d="M166.7 116.4A41.9 41.9 0 0 0 142 42.1V24a6 6 0 0 0-12 0v18h-20V24a6 6 0 0 0-12 0v18H64a6 6 0 0 0 0 12h10v140H64a6 6 0 0 0 0 12h34v18a6 6 0 0 0 12 0v-18h20v18a6 6 0 0 0 12 0v-18h10a46 46 0 0 0 14.7-89.6ZM170 84a30.1 30.1 0 0 1-30 30H86V54h54a30.1 30.1 0 0 1 30 30Zm-18 110H86v-68h66a34 34 0 0 1 0 68Z"></path></svg>