<svg xmlns="http://www.w3.org/2000/svg" xmlns:xlink="http://www.w3.org/1999/xlink" aria-hidden="true" role="img" class="iconify iconify--ph" width="1em" height="1em" preserveAspectRatio="xMidYMid meet" viewBox="0 0 256 256"><path fill="currentColor" d="M60 64a4 4 0 0 1 4-4h128a4 4 0 0 1 0 8H64a4 4 0 0 1-4-4Zm156 108a4 4 0 0 0-4 4v20h-36a20.1 20.1 0 0 1-20-20v-52h52a4 4 0 0 0 0-8H48a4 4 0 0 0 0 8h52v12a60 60 0 0 1-60 60a4 4 0 0 0 0 8a68.1 68.1 0 0 0 68-68v-12h40v52a28.1 28.1 0 0 0 28 28h40a4 4 0 0 0 4-4v-24a4 4 0 0 0-4-4Z"></path></svg>