<svg xmlns="http://www.w3.org/2000/svg" xmlns:xlink="http://www.w3.org/1999/xlink" aria-hidden="true" role="img" class="iconify iconify--ph" width="1em" height="1em" preserveAspectRatio="xMidYMid meet" viewBox="0 0 256 256"><path fill="currentColor" d="M196 168a44 44 0 0 1-44 44h-20v20a4 4 0 0 1-8 0v-20h-20a44 44 0 0 1-44-44a4 4 0 0 1 8 0a36 36 0 0 0 36 36h48a36 36 0 0 0 0-72h-44a44 44 0 0 1 0-88h16V24a4 4 0 0 1 8 0v20h12a44 44 0 0 1 44 44a4 4 0 0 1-8 0a36 36 0 0 0-36-36h-36a36 36 0 0 0 0 72h44a44 44 0 0 1 44 44Z"></path></svg>