<svg xmlns="http://www.w3.org/2000/svg" xmlns:xlink="http://www.w3.org/1999/xlink" aria-hidden="true" role="img" class="iconify iconify--ph" width="1em" height="1em" preserveAspectRatio="xMidYMid meet" viewBox="0 0 256 256"><path fill="currentColor" d="M212 80a12 12 0 0 1-12 12h-28a64.1 64.1 0 0 1-64 64h-5l65.1 59.1a12.1 12.1 0 0 1 .8 17a12.1 12.1 0 0 1-17 .8l-88-80a12.1 12.1 0 0 1-3.1-13.2A11.9 11.9 0 0 1 72 132h36a40 40 0 0 0 40-40H72a12 12 0 0 1 0-24h68a40 40 0 0 0-32-16H72a12 12 0 0 1 0-24h128a12 12 0 0 1 0 24h-42.1a61.2 61.2 0 0 1 9.4 16H200a12 12 0 0 1 12 12Z"></path></svg>