<svg xmlns="http://www.w3.org/2000/svg" xmlns:xlink="http://www.w3.org/1999/xlink" aria-hidden="true" role="img" class="iconify iconify--ph" width="1em" height="1em" preserveAspectRatio="xMidYMid meet" viewBox="0 0 256 256"><path fill="currentColor" d="M240 128h-22.1l21.5-53a8 8 0 1 0-14.8-6l-24 59h-41.2l-24-59a8 8 0 0 0-14.8 0l-24 59H55.4l-24-59a8 8 0 1 0-14.8 6l21.5 53H16a8 8 0 0 0 0 16h28.6l24 59a8 8 0 0 0 14.8 0l24-59h41.2l24 59a8 8 0 0 0 14.8 0l24-59H240a8 8 0 0 0 0-16ZM76 178.7L61.9 144h28.2Zm37.9-50.7L128 93.3l14.1 34.7Zm66.1 50.7L165.9 144h28.2Z"></path></svg>