<svg xmlns="http://www.w3.org/2000/svg" xmlns:xlink="http://www.w3.org/1999/xlink" aria-hidden="true" role="img" class="iconify iconify--ph" width="1em" height="1em" preserveAspectRatio="xMidYMid meet" viewBox="0 0 256 256"><path fill="currentColor" d="M198 168a46 46 0 0 1-46 46h-18v18a6 6 0 0 1-12 0v-18h-18a46 46 0 0 1-46-46a6 6 0 0 1 12 0a34.1 34.1 0 0 0 34 34h48a34 34 0 0 0 0-68h-44a46 46 0 0 1 0-92h14V24a6 6 0 0 1 12 0v18h10a46 46 0 0 1 46 46a6 6 0 0 1-12 0a34.1 34.1 0 0 0-34-34h-36a34 34 0 0 0 0 68h44a46 46 0 0 1 46 46Z"></path></svg>