<svg xmlns="http://www.w3.org/2000/svg" xmlns:xlink="http://www.w3.org/1999/xlink" aria-hidden="true" role="img" class="iconify iconify--ph" width="1em" height="1em" preserveAspectRatio="xMidYMid meet" viewBox="0 0 256 256"><path fill="currentColor" d="M216 140h-20v-24h20a4 4 0 0 0 0-8h-20V46a4 4 0 0 0-8 0v62h-70.5L67.2 43.5a4.3 4.3 0 0 0-4.5-1.3A4.1 4.1 0 0 0 60 46v62H40a4 4 0 0 0 0 8h20v24H40a4 4 0 0 0 0 8h20v62a4 4 0 0 0 8 0v-62h70.5l50.3 64.5a4.1 4.1 0 0 0 3.2 1.5l1.3-.2a4.1 4.1 0 0 0 2.7-3.8v-62h20a4 4 0 0 0 0-8Zm-28-24v24h-45.6l-18.7-24ZM68 57.6l39.3 50.4H68Zm0 82.4v-24h45.6l18.7 24Zm120 58.4L148.7 148H188Z"></path></svg>