<svg xmlns="http://www.w3.org/2000/svg" xmlns:xlink="http://www.w3.org/1999/xlink" aria-hidden="true" role="img" class="iconify iconify--ph" width="1em" height="1em" preserveAspectRatio="xMidYMid meet" viewBox="0 0 256 256"><path fill="currentColor" d="M192.1 42.5C174.9 33.2 152.2 28 128 28s-46.9 5.2-64.1 14.5S36 65.6 36 80v96c0 14.4 9.9 27.7 27.9 37.5S103.8 228 128 228s46.9-5.2 64.1-14.5S220 190.4 220 176V80c0-14.4-9.9-27.7-27.9-37.5ZM67.7 49.6C83.7 40.8 105.2 36 128 36s44.3 4.8 60.3 13.6S212 68.7 212 80s-8.4 22.1-23.7 30.4S150.8 124 128 124s-44.3-4.8-60.3-13.6S44 91.3 44 80s8.4-22.1 23.7-30.4ZM212 176c0 11.3-8.4 22.1-23.7 30.4S150.8 220 128 220s-44.3-4.8-60.3-13.6S44 187.3 44 176v-26.5c4.7 5.9 11.4 11.3 19.9 16c17.2 9.3 39.9 14.5 64.1 14.5s46.9-5.2 64.1-14.5c8.5-4.7 15.2-10.1 19.9-16Zm0-48c0 11.3-8.4 22.1-23.7 30.4S150.8 172 128 172s-44.3-4.8-60.3-13.6S44 139.3 44 128v-26.5c4.7 5.9 11.4 11.3 19.9 16c17.2 9.3 39.9 14.5 64.1 14.5s46.9-5.2 64.1-14.5c8.5-4.7 15.2-10.1 19.9-16Z"></path></svg>