<svg xmlns="http://www.w3.org/2000/svg" xmlns:xlink="http://www.w3.org/1999/xlink" aria-hidden="true" role="img" class="iconify iconify--ph" width="1em" height="1em" preserveAspectRatio="xMidYMid meet" viewBox="0 0 256 256"><path fill="currentColor" d="M28 96v68a4 4 0 0 0 4 4h76a12 12 0 0 1 0 24h-8v12h8a12 12 0 0 1 0 24H68a12 12 0 0 1 0-24h8v-12H32a28.1 28.1 0 0 1-28-28V96a28.1 28.1 0 0 1 28-28h76a12 12 0 0 1 0 24H32a4 4 0 0 0-4 4Zm152-8h24a12 12 0 0 0 0-24h-24a12 12 0 0 0 0 24Zm0 36h24a12 12 0 0 0 0-24h-24a12 12 0 0 0 0 24Zm72-76v160a20.1 20.1 0 0 1-20 20h-80a20.1 20.1 0 0 1-20-20V48a20.1 20.1 0 0 1 20-20h80a20.1 20.1 0 0 1 20 20Zm-24 4h-72v152h72Zm-36 108a16 16 0 1 0 16 16a16 16 0 0 0-16-16Z"></path></svg>