<svg xmlns="http://www.w3.org/2000/svg" xmlns:xlink="http://www.w3.org/1999/xlink" aria-hidden="true" role="img" class="iconify iconify--ph" width="1em" height="1em" preserveAspectRatio="xMidYMid meet" viewBox="0 0 256 256"><path fill="currentColor" d="M208 40H48a24.1 24.1 0 0 0-24 24v112a24.1 24.1 0 0 0 24 24h72v16H96a8 8 0 0 0 0 16h64a8 8 0 0 0 0-16h-24v-16h72a24.1 24.1 0 0 0 24-24V64a24.1 24.1 0 0 0-24-24ZM48 56h160a8 8 0 0 1 8 8v80H40V64a8 8 0 0 1 8-8Zm160 128H48a8 8 0 0 1-8-8v-16h176v16a8 8 0 0 1-8 8Z"></path></svg>