<svg xmlns="http://www.w3.org/2000/svg" xmlns:xlink="http://www.w3.org/1999/xlink" aria-hidden="true" role="img" class="iconify iconify--ph" width="1em" height="1em" preserveAspectRatio="xMidYMid meet" viewBox="0 0 256 256"><path fill="currentColor" d="M208 36H48a28.1 28.1 0 0 0-28 28v108a28.1 28.1 0 0 0 28 28h68v12H96a12 12 0 0 0 0 24h64a12 12 0 0 0 0-24h-20v-12h68a28.1 28.1 0 0 0 28-28V64a28.1 28.1 0 0 0-28-28ZM48 60h160a4 4 0 0 1 4 4v72H44V64a4 4 0 0 1 4-4Zm160 116H48a4 4 0 0 1-4-4v-12h168v12a4 4 0 0 1-4 4Z"></path></svg>