<svg xmlns="http://www.w3.org/2000/svg" xmlns:xlink="http://www.w3.org/1999/xlink" aria-hidden="true" role="img" class="iconify iconify--ph" width="1em" height="1em" preserveAspectRatio="xMidYMid meet" viewBox="0 0 256 256"><path fill="currentColor" d="M180 148a31.9 31.9 0 0 0-31.7 28h-40.6a32 32 0 1 0 0 8h40.6a32 32 0 1 0 31.7-36ZM76 204a24 24 0 1 1 24-24a24.1 24.1 0 0 1-24 24Zm104 0a24 24 0 1 1 24-24a24.1 24.1 0 0 1-24 24Zm68-88h-29.9L170 47.3a12 12 0 0 0-9.8-5.1h-.2a11.8 11.8 0 0 0-9.8 5.3l-18.9 28.3a3.9 3.9 0 0 1-6.6 0l-18.9-28.3a12 12 0 0 0-19.8-.2L37.9 116H8a4 4 0 0 0 0 8h240a4 4 0 0 0 0-8ZM92.6 51.9a3.8 3.8 0 0 1 3.3-1.7a3.9 3.9 0 0 1 3.3 1.8L118 80.2a12 12 0 0 0 20 0L156.8 52a3.9 3.9 0 0 1 3.3-1.8a3.8 3.8 0 0 1 3.3 1.7l44.9 64.1H47.7Z"></path></svg>