<svg xmlns="http://www.w3.org/2000/svg" xmlns:xlink="http://www.w3.org/1999/xlink" aria-hidden="true" role="img" class="iconify iconify--ph" width="1em" height="1em" preserveAspectRatio="xMidYMid meet" viewBox="0 0 256 256"><path fill="currentColor" d="M182 144a37.9 37.9 0 0 0-36 26h-36a38 38 0 1 0 0 24h36a38 38 0 1 0 36-50ZM74 196a14 14 0 1 1 14-14a14 14 0 0 1-14 14Zm108 0a14 14 0 1 1 14-14a14 14 0 0 1-14 14Zm62-88h-21.8l-45.7-65.3a19.8 19.8 0 0 0-16.6-8.5a20.1 20.1 0 0 0-16.4 8.9L128 66.4l-15.5-23.3a20.1 20.1 0 0 0-16.4-8.9a19.7 19.7 0 0 0-16.6 8.5L33.8 108H12a12 12 0 0 0 0 24h232a12 12 0 0 0 0-24ZM95.8 61.3l15.6 23.4a19.9 19.9 0 0 0 33.2 0l15.6-23.4L193 108H63Z"></path></svg>