<svg xmlns="http://www.w3.org/2000/svg" xmlns:xlink="http://www.w3.org/1999/xlink" aria-hidden="true" role="img" class="iconify iconify--ph" width="1em" height="1em" preserveAspectRatio="xMidYMid meet" viewBox="0 0 256 256"><path fill="currentColor" d="M104 180a28 28 0 1 1-28-28a28 28 0 0 1 28 28Zm76-28a28 28 0 1 0 28 28a28 28 0 0 0-28-28ZM166.7 49.6a8 8 0 0 0-13.2.1L134.7 78a8 8 0 0 1-13.4 0l-18.8-28.3a8 8 0 0 0-13.2-.1L40 120h176Z" opacity=".2"></path><path fill="currentColor" d="M180 144a36.1 36.1 0 0 0-35.1 28h-33.8a36 36 0 1 0 0 16h33.8a36 36 0 1 0 35.1-44ZM76 200a20 20 0 1 1 20-20a20.1 20.1 0 0 1-20 20Zm104 0a20 20 0 1 1 20-20a20.1 20.1 0 0 1-20 20Zm68-88h-27.8l-46.9-67a16.1 16.1 0 0 0-26.5.3L128 73.6l-18.8-28.3a16.1 16.1 0 0 0-26.5-.3l-46.9 67H8a8 8 0 0 0 0 16h240a8 8 0 0 0 0-16ZM95.8 54.2l18.9 28.3a16 16 0 0 0 26.6 0l18.9-28.3l40.4 57.8H55.4Z"></path></svg>