<svg xmlns="http://www.w3.org/2000/svg" xmlns:xlink="http://www.w3.org/1999/xlink" aria-hidden="true" role="img" class="iconify iconify--ph" width="1em" height="1em" preserveAspectRatio="xMidYMid meet" viewBox="0 0 256 256"><path fill="currentColor" d="M180 144a36.1 36.1 0 0 0-35.1 28h-33.8a36 36 0 1 0 0 16h33.8a36 36 0 1 0 35.1-44ZM76 200a20 20 0 1 1 20-20a20.1 20.1 0 0 1-20 20Zm104 0a20 20 0 1 1 20-20a20.1 20.1 0 0 1-20 20Zm68-88h-27.8l-46.9-67a15.9 15.9 0 0 0-13.1-6.8h-.2a16 16 0 0 0-13.2 7.1L128 73.6l-18.8-28.3a16.1 16.1 0 0 0-26.5-.3l-46.9 67H8a8 8 0 0 0 0 16h240a8 8 0 0 0 0-16ZM95.8 54.2l18.9 28.3a16 16 0 0 0 26.6 0l18.9-28.3l40.4 57.8H55.4Z"></path></svg>