<svg xmlns="http://www.w3.org/2000/svg" xmlns:xlink="http://www.w3.org/1999/xlink" aria-hidden="true" role="img" class="iconify iconify--ph" width="1em" height="1em" preserveAspectRatio="xMidYMid meet" viewBox="0 0 256 256"><path fill="currentColor" d="M180 146a34.1 34.1 0 0 0-33.5 28h-37a34 34 0 1 0 0 12h37a34 34 0 1 0 33.5-40ZM76 202a22 22 0 1 1 22-22a22.1 22.1 0 0 1-22 22Zm104 0a22 22 0 1 1 22-22a22.1 22.1 0 0 1-22 22Zm68-88h-28.9l-47.5-67.8a13.8 13.8 0 0 0-11.6-6a14.1 14.1 0 0 0-11.5 6.2l-18.8 28.3a2.1 2.1 0 0 1-3.4 0l-18.8-28.3A14.1 14.1 0 0 0 96 40.2a13.8 13.8 0 0 0-11.6 6L36.9 114H8a6 6 0 0 0 0 12h240a6 6 0 0 0 0-12ZM94.2 53a2.1 2.1 0 0 1 1.7-.8a1.8 1.8 0 0 1 1.6.9l18.9 28.2a13.8 13.8 0 0 0 23.2 0l18.9-28.2a1.8 1.8 0 0 1 1.6-.9a2.1 2.1 0 0 1 1.7.8l42.7 61h-153Z"></path></svg>