<svg xmlns="http://www.w3.org/2000/svg" xmlns:xlink="http://www.w3.org/1999/xlink" aria-hidden="true" role="img" class="iconify iconify--ph" width="1em" height="1em" preserveAspectRatio="xMidYMid meet" viewBox="0 0 256 256"><path fill="currentColor" d="M192 26H64a22.1 22.1 0 0 0-22 22v160a22.1 22.1 0 0 0 22 22h128a22.1 22.1 0 0 0 22-22V48a22.1 22.1 0 0 0-22-22Zm10 182a10 10 0 0 1-10 10H64a10 10 0 0 1-10-10V48a10 10 0 0 1 10-10h128a10 10 0 0 1 10 10ZM166 64a6 6 0 0 1-6 6H96a6 6 0 0 1 0-12h64a6 6 0 0 1 6 6Z"></path></svg>