<svg xmlns="http://www.w3.org/2000/svg" xmlns:xlink="http://www.w3.org/1999/xlink" aria-hidden="true" role="img" class="iconify iconify--ph" width="1em" height="1em" preserveAspectRatio="xMidYMid meet" viewBox="0 0 256 256"><path fill="currentColor" d="M176 20H80a20.1 20.1 0 0 0-20 20v176a20.1 20.1 0 0 0 20 20h96a20.1 20.1 0 0 0 20-20V40a20.1 20.1 0 0 0-20-20Zm12 196a12 12 0 0 1-12 12H80a12 12 0 0 1-12-12V40a12 12 0 0 1 12-12h96a12 12 0 0 1 12 12ZM164 56a4 4 0 0 1-4 4H96a4 4 0 0 1 0-8h64a4 4 0 0 1 4 4Z"></path></svg>