<svg xmlns="http://www.w3.org/2000/svg" xmlns:xlink="http://www.w3.org/1999/xlink" aria-hidden="true" role="img" class="iconify iconify--ph" width="1em" height="1em" preserveAspectRatio="xMidYMid meet" viewBox="0 0 256 256"><path fill="currentColor" d="M192 26H64a22.1 22.1 0 0 0-22 22v160a22.1 22.1 0 0 0 22 22h128a22.1 22.1 0 0 0 22-22V48a22.1 22.1 0 0 0-22-22ZM54 70h148v116H54Zm10-32h128a10 10 0 0 1 10 10v10H54V48a10 10 0 0 1 10-10Zm128 180H64a10 10 0 0 1-10-10v-10h148v10a10 10 0 0 1-10 10Z"></path></svg>