<svg xmlns="http://www.w3.org/2000/svg" xmlns:xlink="http://www.w3.org/1999/xlink" aria-hidden="true" role="img" class="iconify iconify--ph" width="1em" height="1em" preserveAspectRatio="xMidYMid meet" viewBox="0 0 256 256"><path fill="currentColor" d="M48 64h160v128H48z" opacity=".2"></path><path fill="currentColor" d="M192 24H64a24.1 24.1 0 0 0-24 24v160a24.1 24.1 0 0 0 24 24h128a24.1 24.1 0 0 0 24-24V48a24.1 24.1 0 0 0-24-24ZM56 72h144v112H56Zm8-32h128a8 8 0 0 1 8 8v8H56v-8a8 8 0 0 1 8-8Zm128 176H64a8 8 0 0 1-8-8v-8h144v8a8 8 0 0 1-8 8Z"></path></svg>