<svg xmlns="http://www.w3.org/2000/svg" xmlns:xlink="http://www.w3.org/1999/xlink" aria-hidden="true" role="img" class="iconify iconify--ph" width="1em" height="1em" preserveAspectRatio="xMidYMid meet" viewBox="0 0 256 256"><rect width="208" height="128" x="24" y="64" fill="currentColor" opacity=".2" rx="16" transform="rotate(90 128 128)"></rect><circle cx="128" cy="60" r="12" fill="currentColor"></circle><path fill="currentColor" d="M176 16H80a24.1 24.1 0 0 0-24 24v176a24.1 24.1 0 0 0 24 24h96a24.1 24.1 0 0 0 24-24V40a24.1 24.1 0 0 0-24-24Zm8 200a8 8 0 0 1-8 8H80a8 8 0 0 1-8-8V40a8 8 0 0 1 8-8h96a8 8 0 0 1 8 8Z"></path></svg>