<svg xmlns="http://www.w3.org/2000/svg" xmlns:xlink="http://www.w3.org/1999/xlink" aria-hidden="true" role="img" class="iconify iconify--ph" width="1em" height="1em" preserveAspectRatio="xMidYMid meet" viewBox="0 0 256 256"><path fill="currentColor" d="M192 28H64a20.1 20.1 0 0 0-20 20v160a20.1 20.1 0 0 0 20 20h128a20.1 20.1 0 0 0 20-20V48a20.1 20.1 0 0 0-20-20ZM52 68h152v120H52Zm12-32h128a12 12 0 0 1 12 12v12H52V48a12 12 0 0 1 12-12Zm128 184H64a12 12 0 0 1-12-12v-12h152v12a12 12 0 0 1-12 12Z"></path></svg>