<svg xmlns="http://www.w3.org/2000/svg" xmlns:xlink="http://www.w3.org/1999/xlink" aria-hidden="true" role="img" class="iconify iconify--ph" width="1em" height="1em" preserveAspectRatio="xMidYMid meet" viewBox="0 0 256 256"><path fill="currentColor" d="m233.2 119.5l-96.7-96.7a12 12 0 0 0-17 0l-96.7 96.7a12.1 12.1 0 0 0 0 17l96.7 96.7a12.1 12.1 0 0 0 17 0l96.7-96.7a12.1 12.1 0 0 0 0-17Zm-5.7 11.3l-96.7 96.7a3.9 3.9 0 0 1-5.6 0l-96.7-96.7a3.9 3.9 0 0 1 0-5.6l96.7-96.7a3.9 3.9 0 0 1 5.6 0l96.7 96.7a3.9 3.9 0 0 1 0 5.6Z"></path></svg>