<svg xmlns="http://www.w3.org/2000/svg" xmlns:xlink="http://www.w3.org/1999/xlink" aria-hidden="true" role="img" class="iconify iconify--ph" width="1em" height="1em" preserveAspectRatio="xMidYMid meet" viewBox="0 0 256 256"><path fill="currentColor" d="M118.1 102.6a14 14 0 0 0 19.8 0l28.7-28.7a14.1 14.1 0 0 0 0-19.8l-28.7-28.7a14 14 0 0 0-19.8 0L89.4 54.1a14.1 14.1 0 0 0 0 19.8Zm-20.2-40l28.7-28.7a1.9 1.9 0 0 1 2.8 0l28.7 28.7a1.9 1.9 0 0 1 0 2.8l-28.7 28.7a1.9 1.9 0 0 1-2.8 0L97.9 65.4a1.9 1.9 0 0 1 0-2.8Zm132.7 55.5l-28.7-28.7a14 14 0 0 0-19.8 0l-28.7 28.7a14.1 14.1 0 0 0 0 19.8l28.7 28.7a14 14 0 0 0 19.8 0l28.7-28.7a14.1 14.1 0 0 0 0-19.8Zm-8.5 11.3l-28.7 28.7a1.9 1.9 0 0 1-2.8 0l-28.7-28.7a1.9 1.9 0 0 1 0-2.8l28.7-28.7a1.9 1.9 0 0 1 2.8 0l28.7 28.7a1.9 1.9 0 0 1 0 2.8Zm-119.5-11.3L73.9 89.4a14 14 0 0 0-19.8 0l-28.7 28.7a14.1 14.1 0 0 0 0 19.8l28.7 28.7a14 14 0 0 0 19.8 0l28.7-28.7a14.1 14.1 0 0 0 0-19.8Zm-8.5 11.3l-28.7 28.7a1.9 1.9 0 0 1-2.8 0l-28.7-28.7a1.9 1.9 0 0 1 0-2.8l28.7-28.7a1.9 1.9 0 0 1 2.8 0l28.7 28.7a1.9 1.9 0 0 1 0 2.8Zm43.8 24a14 14 0 0 0-19.8 0l-28.7 28.7a14.1 14.1 0 0 0 0 19.8l28.7 28.7a14 14 0 0 0 19.8 0l28.7-28.7a14.1 14.1 0 0 0 0-19.8Zm20.2 40l-28.7 28.7a1.9 1.9 0 0 1-2.8 0l-28.7-28.7a1.9 1.9 0 0 1 0-2.8l28.7-28.7a1.9 1.9 0 0 1 2.8 0l28.7 28.7a1.9 1.9 0 0 1 0 2.8Z"></path></svg>