<svg xmlns="http://www.w3.org/2000/svg" xmlns:xlink="http://www.w3.org/1999/xlink" aria-hidden="true" role="img" class="iconify iconify--ph" width="1em" height="1em" preserveAspectRatio="xMidYMid meet" viewBox="0 0 256 256"><path fill="currentColor" d="m230.3 133.7l-96.6 96.6a8 8 0 0 1-11.4 0l-96.6-96.6a8 8 0 0 1 0-11.4l96.6-96.6a8 8 0 0 1 11.4 0l96.6 96.6a8 8 0 0 1 0 11.4Z" opacity=".2"></path><path fill="currentColor" d="M236 116.7L139.3 20a16.1 16.1 0 0 0-22.6 0L20 116.7a16.1 16.1 0 0 0 0 22.6l96.7 96.7a15.9 15.9 0 0 0 22.6 0l96.7-96.7a16.1 16.1 0 0 0 0-22.6Zm-108 108L31.3 128L128 31.3l96.7 96.7Z"></path></svg>