<svg xmlns="http://www.w3.org/2000/svg" xmlns:xlink="http://www.w3.org/1999/xlink" aria-hidden="true" role="img" class="iconify iconify--ph" width="1em" height="1em" preserveAspectRatio="xMidYMid meet" viewBox="0 0 256 256"><path fill="currentColor" d="M113.9 102.8a19.8 19.8 0 0 0 28.2 0l26.7-26.7a19.9 19.9 0 0 0 0-28.2l-26.7-26.7a19.8 19.8 0 0 0-28.2 0L87.2 47.9a19.9 19.9 0 0 0 0 28.2Zm16.9-16.9ZM128 41l21 21l-21 21l-21-21Zm106.8 72.9l-26.7-26.7a19.8 19.8 0 0 0-28.2 0l-26.7 26.7a19.9 19.9 0 0 0 0 28.2l26.7 26.7a19.8 19.8 0 0 0 28.2 0l26.7-26.7a19.9 19.9 0 0 0 0-28.2Zm-38 38ZM194 149l-21-21l21-21l21 21Zm-91.2-35.1L76.1 87.2a19.8 19.8 0 0 0-28.2 0l-26.7 26.7a19.9 19.9 0 0 0 0 28.2l26.7 26.7a19.8 19.8 0 0 0 28.2 0l26.7-26.7a19.9 19.9 0 0 0 0-28.2Zm-38 38ZM62 149l-21-21l21-21l21 21Zm80.1 4.2a19.8 19.8 0 0 0-28.2 0l-26.7 26.7a19.9 19.9 0 0 0 0 28.2l26.7 26.7a19.8 19.8 0 0 0 28.2 0l26.7-26.7a19.9 19.9 0 0 0 0-28.2Zm-11.3 64.7ZM128 215l-21-21l21-21l21 21Z"></path></svg>