<svg xmlns="http://www.w3.org/2000/svg" xmlns:xlink="http://www.w3.org/1999/xlink" aria-hidden="true" role="img" class="iconify iconify--ph" width="1em" height="1em" preserveAspectRatio="xMidYMid meet" viewBox="0 0 256 256"><path fill="currentColor" d="M93.7 69.7a8 8 0 0 1 0-11.4l28.6-28.6a8 8 0 0 1 11.4 0l28.6 28.6a8 8 0 0 1 0 11.4l-28.6 28.6a8 8 0 0 1-11.4 0Zm132.6 52.6l-28.6-28.6a8 8 0 0 0-11.4 0l-28.6 28.6a8 8 0 0 0 0 11.4l28.6 28.6a8 8 0 0 0 11.4 0l28.6-28.6a8 8 0 0 0 0-11.4Zm-128 0L69.7 93.7a8 8 0 0 0-11.4 0l-28.6 28.6a8 8 0 0 0 0 11.4l28.6 28.6a8 8 0 0 0 11.4 0l28.6-28.6a8 8 0 0 0 0-11.4Zm35.4 35.4a8 8 0 0 0-11.4 0l-28.6 28.6a8 8 0 0 0 0 11.4l28.6 28.6a8 8 0 0 0 11.4 0l28.6-28.6a8 8 0 0 0 0-11.4Z" opacity=".2"></path><path fill="currentColor" d="M116.7 104a15.9 15.9 0 0 0 22.6 0L168 75.3a16.1 16.1 0 0 0 0-22.6L139.3 24a15.9 15.9 0 0 0-22.6 0L88 52.7a16.1 16.1 0 0 0 0 22.6ZM128 35.3L156.7 64L128 92.7L99.3 64Zm104 81.4L203.3 88a15.9 15.9 0 0 0-22.6 0L152 116.7a16.1 16.1 0 0 0 0 22.6l28.7 28.7a15.9 15.9 0 0 0 22.6 0l28.7-28.7a16.1 16.1 0 0 0 0-22.6Zm-40 40L163.3 128L192 99.3l28.7 28.7Zm-88-40L75.3 88a15.9 15.9 0 0 0-22.6 0L24 116.7a16.1 16.1 0 0 0 0 22.6L52.7 168a15.9 15.9 0 0 0 22.6 0l28.7-28.7a16.1 16.1 0 0 0 0-22.6Zm-40 40L35.3 128L64 99.3L92.7 128Zm75.3-4.7a15.9 15.9 0 0 0-22.6 0L88 180.7a16.1 16.1 0 0 0 0 22.6l28.7 28.7a15.9 15.9 0 0 0 22.6 0l28.7-28.7a16.1 16.1 0 0 0 0-22.6ZM128 220.7L99.3 192l28.7-28.7l28.7 28.7Z"></path></svg>