<svg xmlns="http://www.w3.org/2000/svg" xmlns:xlink="http://www.w3.org/1999/xlink" aria-hidden="true" role="img" class="iconify iconify--ph" width="1em" height="1em" preserveAspectRatio="xMidYMid meet" viewBox="0 0 256 256"><path fill="currentColor" d="m234.6 118.1l-96.7-96.7a14.1 14.1 0 0 0-19.8 0l-96.7 96.7a14 14 0 0 0 0 19.8l96.7 96.7a14 14 0 0 0 19.8 0l96.7-96.7a14 14 0 0 0 0-19.8Zm-8.5 11.3l-96.7 96.7a1.9 1.9 0 0 1-2.8 0l-96.7-96.7a1.9 1.9 0 0 1 0-2.8l96.7-96.7a1.9 1.9 0 0 1 2.8 0l96.7 96.7a1.9 1.9 0 0 1 0 2.8Z"></path></svg>