<svg xmlns="http://www.w3.org/2000/svg" xmlns:xlink="http://www.w3.org/1999/xlink" aria-hidden="true" role="img" class="iconify iconify--ph" width="1em" height="1em" preserveAspectRatio="xMidYMid meet" viewBox="0 0 256 256"><rect width="176" height="176" x="40" y="40" fill="currentColor" opacity=".2" rx="24"></rect><path fill="currentColor" d="M192 32H64a32.1 32.1 0 0 0-32 32v128a32.1 32.1 0 0 0 32 32h128a32.1 32.1 0 0 0 32-32V64a32.1 32.1 0 0 0-32-32Zm16 160a16 16 0 0 1-16 16H64a16 16 0 0 1-16-16V64a16 16 0 0 1 16-16h128a16 16 0 0 1 16 16Zm-68-64a12 12 0 1 1-12-12a12 12 0 0 1 12 12Z"></path></svg>