<svg xmlns="http://www.w3.org/2000/svg" xmlns:xlink="http://www.w3.org/1999/xlink" aria-hidden="true" role="img" class="iconify iconify--ph" width="1em" height="1em" preserveAspectRatio="xMidYMid meet" viewBox="0 0 256 256"><path fill="currentColor" d="M192 32H64a32.1 32.1 0 0 0-32 32v128a32.1 32.1 0 0 0 32 32h128a32.1 32.1 0 0 0 32-32V64a32.1 32.1 0 0 0-32-32Zm16 160a16 16 0 0 1-16 16H64a16 16 0 0 1-16-16V64a16 16 0 0 1 16-16h128a16 16 0 0 1 16 16ZM104 92a12 12 0 1 1-12-12a12 12 0 0 1 12 12Zm72 0a12 12 0 1 1-12-12a12 12 0 0 1 12 12Zm-72 72a12 12 0 1 1-12-12a12 12 0 0 1 12 12Zm72 0a12 12 0 1 1-12-12a12 12 0 0 1 12 12Zm-36-36a12 12 0 1 1-12-12a12 12 0 0 1 12 12Z"></path></svg>