<svg xmlns="http://www.w3.org/2000/svg" xmlns:xlink="http://www.w3.org/1999/xlink" aria-hidden="true" role="img" class="iconify iconify--ph" width="1em" height="1em" preserveAspectRatio="xMidYMid meet" viewBox="0 0 256 256"><path fill="currentColor" d="M192 34H64a30.1 30.1 0 0 0-30 30v128a30.1 30.1 0 0 0 30 30h128a30.1 30.1 0 0 0 30-30V64a30.1 30.1 0 0 0-30-30Zm18 158a18.1 18.1 0 0 1-18 18H64a18.1 18.1 0 0 1-18-18V64a18.1 18.1 0 0 1 18-18h128a18.1 18.1 0 0 1 18 18ZM102 92a10 10 0 1 1-10-10a10 10 0 0 1 10 10Zm36 36a10 10 0 1 1-10-10a10 10 0 0 1 10 10Zm36 36a10 10 0 1 1-10-10a10 10 0 0 1 10 10Z"></path></svg>