<svg xmlns="http://www.w3.org/2000/svg" xmlns:xlink="http://www.w3.org/1999/xlink" aria-hidden="true" role="img" class="iconify iconify--ph" width="1em" height="1em" preserveAspectRatio="xMidYMid meet" viewBox="0 0 256 256"><path fill="currentColor" d="M192 36H64a28.1 28.1 0 0 0-28 28v128a28.1 28.1 0 0 0 28 28h128a28.1 28.1 0 0 0 28-28V64a28.1 28.1 0 0 0-28-28Zm20 156a20.1 20.1 0 0 1-20 20H64a20.1 20.1 0 0 1-20-20V64a20.1 20.1 0 0 1 20-20h128a20.1 20.1 0 0 1 20 20Zm-104-92a8 8 0 1 1-8-8a8 8 0 0 1 8 8Zm56 0a8 8 0 1 1-8-8a8 8 0 0 1 8 8Zm-56 56a8 8 0 1 1-8-8a8 8 0 0 1 8 8Zm56 0a8 8 0 1 1-8-8a8 8 0 0 1 8 8Z"></path></svg>