<svg xmlns="http://www.w3.org/2000/svg" xmlns:xlink="http://www.w3.org/1999/xlink" aria-hidden="true" role="img" class="iconify iconify--ph" width="1em" height="1em" preserveAspectRatio="xMidYMid meet" viewBox="0 0 256 256"><path fill="currentColor" d="M106 144a10 10 0 1 1-10-10a10 10 0 0 1 10 10Zm54-10a10 10 0 1 0 10 10a10 10 0 0 0-10-10Zm81.1 51c-16.3 14.2-38.3 25-63.6 31.2a18.6 18.6 0 0 1-3.3.4a13.9 13.9 0 0 1-12.5-7.8l-10.1-20.2A203.5 203.5 0 0 1 128 190a203.5 203.5 0 0 1-23.6-1.4l-10.1 20.2a13.9 13.9 0 0 1-12.5 7.8a18.6 18.6 0 0 1-3.3-.4c-25.3-6.2-47.3-17-63.6-31.2a14 14 0 0 1-4.3-14.6l34-113.3a14 14 0 0 1 8.1-8.9a174.3 174.3 0 0 1 30.7-9.5A13.9 13.9 0 0 1 99.6 48l6.5 19.2a200.4 200.4 0 0 1 43.8 0l6.5-19.2a13.9 13.9 0 0 1 16.2-9.3a174.3 174.3 0 0 1 30.7 9.5a14 14 0 0 1 8.1 8.9l34 113.3a14 14 0 0 1-4.3 14.6Zm-7.2-11.2l-34-113.2a2 2 0 0 0-1.2-1.3a170.3 170.3 0 0 0-28.6-8.9a2.2 2.2 0 0 0-2.4 1.4L162 69a152.1 152.1 0 0 1 21.4 5.3a6 6 0 0 1-1.8 11.7l-1.9-.3A170.8 170.8 0 0 0 128 78a170.8 170.8 0 0 0-51.7 7.7a6 6 0 1 1-3.7-11.4A152.1 152.1 0 0 1 94 69l-5.7-17.2a2.2 2.2 0 0 0-2.4-1.4a170.3 170.3 0 0 0-28.6 8.9a2 2 0 0 0-1.2 1.3l-34 113.2a2.1 2.1 0 0 0 .7 2.2c14.9 12.9 35.1 22.8 58.6 28.5a2 2 0 0 0 2.2-1l8.4-16.8a157 157 0 0 1-19.4-5a6 6 0 1 1 3.7-11.4A170.8 170.8 0 0 0 128 178a170.8 170.8 0 0 0 51.7-7.7a6 6 0 1 1 3.7 11.4a157 157 0 0 1-19.4 5l8.4 16.8a2 2 0 0 0 2.2 1c23.5-5.7 43.7-15.6 58.6-28.5a2.1 2.1 0 0 0 .7-2.2Z"></path></svg>