<svg xmlns="http://www.w3.org/2000/svg" xmlns:xlink="http://www.w3.org/1999/xlink" aria-hidden="true" role="img" class="iconify iconify--ph" width="1em" height="1em" preserveAspectRatio="xMidYMid meet" viewBox="0 0 256 256"><path fill="currentColor" d="m247.3 169.8l-34-113.2a15.6 15.6 0 0 0-9.2-10.2h-.6l.6-.2A192.4 192.4 0 0 0 169.6 36a8 8 0 0 0-9.4 6.3a7.9 7.9 0 0 0 6.2 9.4c4.5.9 8.9 2 13.2 3.2A8 8 0 0 1 176 70h-.8a185.4 185.4 0 0 0-47.2-6a181.8 181.8 0 0 0-46.1 5.8a8 8 0 0 1-5.6-14.9h.1c4.3-1.2 8.7-2.3 13.2-3.2a8 8 0 0 0 6.3-9.4a8.1 8.1 0 0 0-9.4-6.3a191.2 191.2 0 0 0-34.6 10.4a15.6 15.6 0 0 0-9.2 10.2l-34 113.2a16 16 0 0 0 4.9 16.7a34.7 34.7 0 0 0 2.9 2.5h.1c16.2 13.2 37.5 23.3 61.5 29.1a6.3 6.3 0 0 0 1.9.3a8 8 0 0 0 1.9-15.8a160.3 160.3 0 0 1-31.3-11.1a8 8 0 0 1 8.6-13.2c19 8.4 42.9 13.7 68.8 13.7s49.8-5.3 68.8-13.7a8 8 0 0 1 8.6 13.2a160.3 160.3 0 0 1-31.3 11.1a8 8 0 0 0 1.9 15.8a6.3 6.3 0 0 0 1.9-.3c24-5.8 45.3-15.9 61.5-29.1h.1a34.7 34.7 0 0 0 2.9-2.5a16 16 0 0 0 4.9-16.7ZM96 156a12 12 0 1 1 12-12a12 12 0 0 1-12 12Zm64 0a12 12 0 1 1 12-12a12 12 0 0 1-12 12Z"></path></svg>