<svg xmlns="http://www.w3.org/2000/svg" xmlns:xlink="http://www.w3.org/1999/xlink" aria-hidden="true" role="img" class="iconify iconify--ph" width="1em" height="1em" preserveAspectRatio="xMidYMid meet" viewBox="0 0 256 256"><path fill="currentColor" d="m199 57.7l-.3-.4l-.4-.3a100.2 100.2 0 1 0 .7.7ZM163.8 124a36 36 0 0 0-7.7-18.5l39.7-39.6a91.4 91.4 0 0 1 24.1 58.1Zm-7.8 4a28 28 0 1 1-28-28a28.1 28.1 0 0 1 28 28Zm-28 92a92 92 0 1 1 62.1-159.8l-39.6 39.7a36 36 0 1 0 13.3 32.1h56.1a92.1 92.1 0 0 1-91.9 88Z"></path></svg>