<svg xmlns="http://www.w3.org/2000/svg" xmlns:xlink="http://www.w3.org/1999/xlink" aria-hidden="true" role="img" class="iconify iconify--ph" width="1em" height="1em" preserveAspectRatio="xMidYMid meet" viewBox="0 0 256 256"><path fill="currentColor" d="M104 144a8 8 0 1 1-8-8a8 8 0 0 1 8 8Zm56-8a8 8 0 1 0 8 8a8 8 0 0 0-8-8Zm79.8 47.5c-16.1 14-37.8 24.6-62.8 30.7a9 9 0 0 1-2.8.4a11.9 11.9 0 0 1-10.7-6.7l-10.8-21.5a191.5 191.5 0 0 1-49.4 0l-10.8 21.5a11.9 11.9 0 0 1-10.7 6.7a9 9 0 0 1-2.8-.4c-25-6.1-46.7-16.7-62.8-30.7a12.1 12.1 0 0 1-3.7-12.5l34-113.3a11.9 11.9 0 0 1 6.9-7.6a173.5 173.5 0 0 1 30.4-9.4a11.8 11.8 0 0 1 13.9 7.9l7 20.8a194.6 194.6 0 0 1 46.6 0l7-20.8a11.8 11.8 0 0 1 13.9-7.9a173.5 173.5 0 0 1 30.4 9.4a11.9 11.9 0 0 1 6.9 7.6l34 113.3a12.1 12.1 0 0 1-3.7 12.5Zm-4-10.2L201.8 60a3.6 3.6 0 0 0-2.3-2.5a166.1 166.1 0 0 0-29-9a4 4 0 0 0-4.7 2.6l-6.4 19.4a166.7 166.7 0 0 1 23.4 5.7a4 4 0 0 1-1.2 7.8l-1.2-.2A172.8 172.8 0 0 0 128 76a172.8 172.8 0 0 0-52.4 7.8a4 4 0 1 1-2.4-7.6a166.7 166.7 0 0 1 23.4-5.7l-6.4-19.4a4 4 0 0 0-4.7-2.6a174.9 174.9 0 0 0-29 8.9a4 4 0 0 0-2.3 2.6l-34 113.3a3.8 3.8 0 0 0 1.3 4.2c15.1 13.1 35.7 23.2 59.4 29a4.2 4.2 0 0 0 4.5-2.2l9.5-19.1a181.1 181.1 0 0 1-21.7-5.4a4 4 0 1 1 2.4-7.6A172.8 172.8 0 0 0 128 180a172.8 172.8 0 0 0 52.4-7.8a4 4 0 1 1 2.4 7.6a181.1 181.1 0 0 1-21.7 5.4l9.5 19.1a4.2 4.2 0 0 0 4.5 2.2c23.7-5.8 44.3-15.9 59.4-29a3.8 3.8 0 0 0 1.3-4.2Z"></path></svg>