<svg xmlns="http://www.w3.org/2000/svg" xmlns:xlink="http://www.w3.org/1999/xlink" aria-hidden="true" role="img" class="iconify iconify--ph" width="1em" height="1em" preserveAspectRatio="xMidYMid meet" viewBox="0 0 256 256"><path fill="currentColor" d="M160 128a32.1 32.1 0 1 1-9.4-22.6l45.3-45.3A96 96 0 1 0 224 128Z" opacity=".2"></path><path fill="currentColor" d="M202.2 55.2a2.3 2.3 0 0 0-.7-.7a2.3 2.3 0 0 0-.7-.7a104.1 104.1 0 1 0 1.4 1.4Zm-35 64.8a40.3 40.3 0 0 0-5.8-14l34.2-34.3a87.5 87.5 0 0 1 20 48.3Zm-15.2 8a24 24 0 1 1-24-24a24.1 24.1 0 0 1 24 24Zm-24 88a88 88 0 1 1 56.3-155.6L150 94.6a40 40 0 1 0 17.2 41.4h48.4a88.1 88.1 0 0 1-87.6 80Z"></path></svg>