<svg xmlns="http://www.w3.org/2000/svg" xmlns:xlink="http://www.w3.org/1999/xlink" aria-hidden="true" role="img" class="iconify iconify--ph" width="1em" height="1em" preserveAspectRatio="xMidYMid meet" viewBox="0 0 256 256"><path fill="currentColor" d="m205.2 52.6l-.8-1l-1-.8a108.2 108.2 0 1 0 1.8 1.8ZM170.3 116a38.9 38.9 0 0 0-3.9-9.4l28.8-28.9a82.7 82.7 0 0 1 15.9 38.3ZM148 128a20 20 0 1 1-20-20a20.1 20.1 0 0 1 20 20Zm-20 84a84 84 0 0 1 0-168a83.1 83.1 0 0 1 50.3 16.8l-28.9 28.8A42.9 42.9 0 0 0 128 84a44 44 0 1 0 42.3 56h40.8a84 84 0 0 1-83.1 72Z"></path></svg>