<svg xmlns="http://www.w3.org/2000/svg" xmlns:xlink="http://www.w3.org/1999/xlink" aria-hidden="true" role="img" class="iconify iconify--ph" width="1em" height="1em" preserveAspectRatio="xMidYMid meet" viewBox="0 0 256 256"><path fill="currentColor" d="M200.5 56.3c-.2-.1-.2-.3-.4-.4s-.3-.2-.4-.4a102.1 102.1 0 1 0 .8.8Zm-35 65.7a37.9 37.9 0 0 0-6.7-16.3l36.9-36.9a89.5 89.5 0 0 1 22.1 53.2Zm-11.5 6a26 26 0 1 1-26-26a26.1 26.1 0 0 1 26 26Zm-26 90a90 90 0 1 1 59.2-157.7l-36.9 36.9a38 38 0 1 0 15.2 36.8h52.3a90.2 90.2 0 0 1-89.8 84Z"></path></svg>