<svg xmlns="http://www.w3.org/2000/svg" xmlns:xlink="http://www.w3.org/1999/xlink" aria-hidden="true" role="img" class="iconify iconify--ph" width="1em" height="1em" preserveAspectRatio="xMidYMid meet" viewBox="0 0 256 256"><path fill="currentColor" d="M102 140a10 10 0 1 1-10-10a10 10 0 0 1 10 10Zm62 10a10 10 0 1 0-10-10a10 10 0 0 0 10 10Zm67.9-7.9a13.7 13.7 0 0 1-5.9 1.3a14 14 0 0 1-10.9-5.4l-1.1-1.4V184a38 38 0 0 1-38 38H80a38 38 0 0 1-38-38v-47.4l-1.1 1.4a14 14 0 0 1-10.9 5.4a13.7 13.7 0 0 1-5.9-1.3a13.7 13.7 0 0 1-8-15.3l16.4-87.6a14.4 14.4 0 0 1 6.2-9.2a14.7 14.7 0 0 1 11-1.8l55 13.8h46.6l55-13.8a14.7 14.7 0 0 1 11 1.8a14.4 14.4 0 0 1 6.2 9.2l16.4 87.6a13.7 13.7 0 0 1-8 15.3ZM93.6 51.6L46.8 39.9h-.5a2.4 2.4 0 0 0-1.1.3a2.2 2.2 0 0 0-.9 1.4L27.9 129a2 2 0 0 0 3.6 1.6ZM202 121.3L149.1 54h-42.2L54 121.3V184a26.1 26.1 0 0 0 26 26h42v-15.5l-14.2-14.3a5.9 5.9 0 0 1 8.4-8.4l11.8 11.7l11.8-11.7a5.9 5.9 0 0 1 8.4 8.4L134 194.5V210h42a26.1 26.1 0 0 0 26-26Zm26.1 7.7l-16.4-87.5a2.2 2.2 0 0 0-.9-1.4a2.4 2.4 0 0 0-1.6-.2l-46.8 11.7l62.1 79a2 2 0 0 0 3.6-1.6Z"></path></svg>