<svg xmlns="http://www.w3.org/2000/svg" xmlns:xlink="http://www.w3.org/1999/xlink" aria-hidden="true" role="img" class="iconify iconify--ph" width="1em" height="1em" preserveAspectRatio="xMidYMid meet" viewBox="0 0 256 256"><path fill="currentColor" d="M108 136a16 16 0 1 1-16-16a16 16 0 0 1 16 16Zm56-16a16 16 0 1 0 16 16a16 16 0 0 0-16-16Zm70.4 27.6a21.2 21.2 0 0 1-8.4 1.8a19.8 19.8 0 0 1-6-.9V184a44 44 0 0 1-44 44H80a44 44 0 0 1-44-44v-35.5a19.8 19.8 0 0 1-6 .9a21.2 21.2 0 0 1-8.4-1.8a19.8 19.8 0 0 1-11.4-21.9l16.4-87.6A20.2 20.2 0 0 1 35.5 25a20 20 0 0 1 15.6-2.6L105.5 36h45l54.4-13.6a20 20 0 0 1 15.6 2.6a20.2 20.2 0 0 1 8.9 13.1l16.4 87.6a19.8 19.8 0 0 1-11.4 21.9Zm-61.5-92.5l46.3 59l-12.6-67.4Zm-136.1 59l46.3-59l-33.7-8.4ZM196 184v-60.6L146.2 60h-36.4L60 123.4V184a20.1 20.1 0 0 0 20 20h36v-7l-12.5-12.5a12 12 0 0 1 17-17l7.5 7.5l7.5-7.5a12 12 0 0 1 17 17L140 197v7h36a20.1 20.1 0 0 0 20-20Z"></path></svg>