<svg xmlns="http://www.w3.org/2000/svg" xmlns:xlink="http://www.w3.org/1999/xlink" aria-hidden="true" role="img" class="iconify iconify--ph" width="1em" height="1em" preserveAspectRatio="xMidYMid meet" viewBox="0 0 256 256"><path fill="currentColor" d="M208 119.3V184a32 32 0 0 1-32 32H80a32 32 0 0 1-32-32v-64.7L104 48h48Z" opacity=".2"></path><path fill="currentColor" d="M104 140a12 12 0 1 1-12-12a12 12 0 0 1 12 12Zm60-12a12 12 0 1 0 12 12a12 12 0 0 0-12-12Zm68.7 16a16.1 16.1 0 0 1-6.7 1.4a15.6 15.6 0 0 1-10-3.6V184a40 40 0 0 1-40 40H80a40 40 0 0 1-40-40v-42.2a15.6 15.6 0 0 1-10 3.6a16.1 16.1 0 0 1-6.7-1.4a15.8 15.8 0 0 1-9.1-17.6l16.4-87.5a16.1 16.1 0 0 1 19.6-12.6L105 40h46l54.8-13.7a16.1 16.1 0 0 1 19.6 12.6l16.4 87.5a15.8 15.8 0 0 1-9.1 17.6ZM90.1 52.8l-43.8-11l-16.4 87.6ZM200 184v-62l-51.9-66h-40.2L56 122v62a24.1 24.1 0 0 0 24 24h40v-12.7l-13.7-13.6a8.1 8.1 0 0 1 11.4-11.4l10.3 10.4l10.3-10.4a8.1 8.1 0 0 1 11.4 11.4L136 195.3V208h40a24.1 24.1 0 0 0 24-24Zm26.1-54.6l-16.4-87.6l-43.8 11Z"></path></svg>