<svg xmlns="http://www.w3.org/2000/svg" xmlns:xlink="http://www.w3.org/1999/xlink" aria-hidden="true" role="img" class="iconify iconify--ph" width="1em" height="1em" preserveAspectRatio="xMidYMid meet" viewBox="0 0 256 256"><path fill="currentColor" d="M100 140a8 8 0 1 1-8-8a8 8 0 0 1 8 8Zm64 8a8 8 0 1 0-8-8a8 8 0 0 0 8 8Zm67.1-7.7a11.9 11.9 0 0 1-14.4-3.5l-4.7-6V184a36 36 0 0 1-36 36H80a36 36 0 0 1-36-36v-53.2l-4.7 6a11.9 11.9 0 0 1-14.4 3.5a11.7 11.7 0 0 1-6.8-13.1l16.4-87.6a11.9 11.9 0 0 1 14.7-9.4L104.5 44h47l55.3-13.8a11.9 11.9 0 0 1 14.7 9.4l16.4 87.6a11.7 11.7 0 0 1-6.8 13.1ZM97 50.4L47.3 37.9h-1a3.6 3.6 0 0 0-2.2.7a3.9 3.9 0 0 0-1.7 2.6l-16.5 87.4a4 4 0 0 0 7.1 3.3Zm107 70.3L150.1 52h-44.2L52 120.7V184a28.1 28.1 0 0 0 28 28h44v-18.3l-14.8-14.9a4 4 0 0 1 5.6-5.6l13.2 13.1l13.2-13.1a4 4 0 0 1 5.6 5.6L132 193.7V212h44a28.1 28.1 0 0 0 28-28Zm26.1 7.9l-16.5-87.5a3.9 3.9 0 0 0-1.7-2.6a4.5 4.5 0 0 0-3.2-.6L159 50.4l64 81.5a4 4 0 0 0 7.1-3.3Z"></path></svg>