<svg xmlns="http://www.w3.org/2000/svg" xmlns:xlink="http://www.w3.org/1999/xlink" aria-hidden="true" role="img" class="iconify iconify--ph" width="1em" height="1em" preserveAspectRatio="xMidYMid meet" viewBox="0 0 256 256"><path fill="currentColor" d="M72 164a12 12 0 1 1-12-12a12 12 0 0 1 12 12Zm124-60a12 12 0 1 0-12-12a12 12 0 0 0 12 12ZM60 80a12 12 0 1 0 12 12a12 12 0 0 0-12-12Zm68 0a12 12 0 1 0 12 12a12 12 0 0 0-12-12Zm68 72a12 12 0 1 0 12 12a12 12 0 0 0-12-12Zm-68 0a12 12 0 1 0 12 12a12 12 0 0 0-12-12Z"></path></svg>