<svg xmlns="http://www.w3.org/2000/svg" xmlns:xlink="http://www.w3.org/1999/xlink" aria-hidden="true" role="img" class="iconify iconify--ph" width="1em" height="1em" preserveAspectRatio="xMidYMid meet" viewBox="0 0 256 256"><path fill="currentColor" d="M72 128a12 12 0 1 1-12-12a12 12 0 0 1 12 12Zm56 56a12 12 0 1 0 12 12a12 12 0 0 0-12-12Zm68-112a12 12 0 1 0-12-12a12 12 0 0 0 12 12ZM60 184a12 12 0 1 0 12 12a12 12 0 0 0-12-12Zm0-136a12 12 0 1 0 12 12a12 12 0 0 0-12-12Zm136 68a12 12 0 1 0 12 12a12 12 0 0 0-12-12Zm0 68a12 12 0 1 0 12 12a12 12 0 0 0-12-12ZM128 48a12 12 0 1 0 12 12a12 12 0 0 0-12-12Zm0 68a12 12 0 1 0 12 12a12 12 0 0 0-12-12Z"></path></svg>