<svg xmlns="http://www.w3.org/2000/svg" xmlns:xlink="http://www.w3.org/1999/xlink" aria-hidden="true" role="img" class="iconify iconify--ph" width="1em" height="1em" preserveAspectRatio="xMidYMid meet" viewBox="0 0 256 256"><path fill="currentColor" d="M70 92a10 10 0 1 1-10-10a10 10 0 0 1 10 10Zm58-10a10 10 0 1 0 10 10a10 10 0 0 0-10-10Zm68 20a10 10 0 1 0-10-10a10 10 0 0 0 10 10ZM60 154a10 10 0 1 0 10 10a10 10 0 0 0-10-10Zm68 0a10 10 0 1 0 10 10a10 10 0 0 0-10-10Zm68 0a10 10 0 1 0 10 10a10 10 0 0 0-10-10Z"></path></svg>