<svg xmlns="http://www.w3.org/2000/svg" xmlns:xlink="http://www.w3.org/1999/xlink" aria-hidden="true" role="img" class="iconify iconify--ph" width="1em" height="1em" preserveAspectRatio="xMidYMid meet" viewBox="0 0 256 256"><path fill="currentColor" d="M128 96a32 32 0 1 0 32 32a32.1 32.1 0 0 0-32-32Zm0 48a16 16 0 1 1 16-16a16 16 0 0 1-16 16Zm0-64a32 32 0 1 0-32-32a32.1 32.1 0 0 0 32 32Zm0-48a16 16 0 1 1-16 16a16 16 0 0 1 16-16Zm0 144a32 32 0 1 0 32 32a32.1 32.1 0 0 0-32-32Zm0 48a16 16 0 1 1 16-16a16 16 0 0 1-16 16Z"></path></svg>