<svg xmlns="http://www.w3.org/2000/svg" xmlns:xlink="http://www.w3.org/1999/xlink" aria-hidden="true" role="img" class="iconify iconify--ph" width="1em" height="1em" preserveAspectRatio="xMidYMid meet" viewBox="0 0 256 256"><path fill="currentColor" d="M102 60a10 10 0 1 1-10-10a10 10 0 0 1 10 10Zm62 10a10 10 0 1 0-10-10a10 10 0 0 0 10 10Zm-72 48a10 10 0 1 0 10 10a10 10 0 0 0-10-10Zm72 0a10 10 0 1 0 10 10a10 10 0 0 0-10-10Zm-72 68a10 10 0 1 0 10 10a10 10 0 0 0-10-10Zm72 0a10 10 0 1 0 10 10a10 10 0 0 0-10-10Z"></path></svg>