<svg xmlns="http://www.w3.org/2000/svg" xmlns:xlink="http://www.w3.org/1999/xlink" aria-hidden="true" role="img" class="iconify iconify--ph" width="1em" height="1em" preserveAspectRatio="xMidYMid meet" viewBox="0 0 256 256"><path fill="currentColor" d="M76 92a16 16 0 1 1-16-16a16 16 0 0 1 16 16Zm52-16a16 16 0 1 0 16 16a16 16 0 0 0-16-16Zm68 32a16 16 0 1 0-16-16a16 16 0 0 0 16 16ZM60 148a16 16 0 1 0 16 16a16 16 0 0 0-16-16Zm68 0a16 16 0 1 0 16 16a16 16 0 0 0-16-16Zm68 0a16 16 0 1 0 16 16a16 16 0 0 0-16-16Z"></path></svg>