<svg xmlns="http://www.w3.org/2000/svg" xmlns:xlink="http://www.w3.org/1999/xlink" aria-hidden="true" role="img" class="iconify iconify--ph" width="1em" height="1em" preserveAspectRatio="xMidYMid meet" viewBox="0 0 256 256"><path fill="currentColor" d="M104 196a12 12 0 1 1-12-12a12 12 0 0 1 12 12Zm-12-80a12 12 0 1 0 12 12a12 12 0 0 0-12-12Zm72-44a12 12 0 1 0-12-12a12 12 0 0 0 12 12Zm0 44a12 12 0 1 0 12 12a12 12 0 0 0-12-12ZM92 48a12 12 0 1 0 12 12a12 12 0 0 0-12-12Zm72 136a12 12 0 1 0 12 12a12 12 0 0 0-12-12Z"></path></svg>