<svg xmlns="http://www.w3.org/2000/svg" xmlns:xlink="http://www.w3.org/1999/xlink" aria-hidden="true" role="img" class="iconify iconify--ph" width="1em" height="1em" preserveAspectRatio="xMidYMid meet" viewBox="0 0 256 256"><path fill="currentColor" d="M128 96a32 32 0 1 0 32 32a32.1 32.1 0 0 0-32-32Zm0 40a8 8 0 1 1 8-8a8 8 0 0 1-8 8Zm80-40a32 32 0 1 0 32 32a32.1 32.1 0 0 0-32-32Zm0 40a8 8 0 1 1 8-8a8 8 0 0 1-8 8ZM48 96a32 32 0 1 0 32 32a32.1 32.1 0 0 0-32-32Zm0 40a8 8 0 1 1 8-8a8 8 0 0 1-8 8Z"></path></svg>