<svg xmlns="http://www.w3.org/2000/svg" xmlns:xlink="http://www.w3.org/1999/xlink" aria-hidden="true" role="img" class="iconify iconify--ph" width="1em" height="1em" preserveAspectRatio="xMidYMid meet" viewBox="0 0 256 256"><path fill="currentColor" d="M128 98a30 30 0 1 0 30 30a30.1 30.1 0 0 0-30-30Zm0 48a18 18 0 1 1 18-18a18.1 18.1 0 0 1-18 18ZM48 98a30 30 0 1 0 30 30a30.1 30.1 0 0 0-30-30Zm0 48a18 18 0 1 1 18-18a18.1 18.1 0 0 1-18 18Zm160-48a30 30 0 1 0 30 30a30.1 30.1 0 0 0-30-30Zm0 48a18 18 0 1 1 18-18a18.1 18.1 0 0 1-18 18Z"></path></svg>