<svg xmlns="http://www.w3.org/2000/svg" xmlns:xlink="http://www.w3.org/1999/xlink" aria-hidden="true" role="img" class="iconify iconify--ph" width="1em" height="1em" preserveAspectRatio="xMidYMid meet" viewBox="0 0 256 256"><path fill="currentColor" d="M236 136v64a12 12 0 0 1-12 12H32a12 12 0 0 1-12-12v-64a12 12 0 0 1 12-12h48a4 4 0 0 1 0 8H32a4 4 0 0 0-4 4v64a4 4 0 0 0 4 4h192a4 4 0 0 0 4-4v-64a4 4 0 0 0-4-4h-48a4 4 0 0 1 0-8h48a12 12 0 0 1 12 12Zm-110.8-5.2a3.9 3.9 0 0 0 5.6 0l48-48a4 4 0 1 0-5.6-5.6L132 118.3V24a4 4 0 0 0-8 0v94.3L82.8 77.2a4 4 0 0 0-5.6 5.6ZM196 168a8 8 0 1 0-8 8a8 8 0 0 0 8-8Z"></path></svg>