<svg xmlns="http://www.w3.org/2000/svg" xmlns:xlink="http://www.w3.org/1999/xlink" aria-hidden="true" role="img" class="iconify iconify--ph" width="1em" height="1em" preserveAspectRatio="xMidYMid meet" viewBox="0 0 256 256"><path fill="currentColor" d="M80.3 115.7a8.2 8.2 0 0 1-1.7-8.7a8 8 0 0 1 7.4-5h34V40a8 8 0 0 1 16 0v62h34a8 8 0 0 1 7.4 5a8.2 8.2 0 0 1-1.7 8.7l-42 42a8.2 8.2 0 0 1-11.4 0ZM216 144a8 8 0 0 0-8 8v56H48v-56a8 8 0 0 0-16 0v56a16 16 0 0 0 16 16h160a16 16 0 0 0 16-16v-56a8 8 0 0 0-8-8Z"></path></svg>