<svg xmlns="http://www.w3.org/2000/svg" xmlns:xlink="http://www.w3.org/1999/xlink" aria-hidden="true" role="img" class="iconify iconify--ph" width="1em" height="1em" preserveAspectRatio="xMidYMid meet" viewBox="0 0 256 256"><path fill="currentColor" d="M81.8 114.3a5.9 5.9 0 0 1 0-8.5a5.8 5.8 0 0 1 8.4 0l31.8 31.7V40a6 6 0 0 1 12 0v97.5l31.8-31.7a5.8 5.8 0 0 1 8.4 0a5.9 5.9 0 0 1 0 8.5l-42 41.9a5.8 5.8 0 0 1-8.4 0ZM216 146a6 6 0 0 0-6 6v56a2 2 0 0 1-2 2H48a2 2 0 0 1-2-2v-56a6 6 0 0 0-12 0v56a14 14 0 0 0 14 14h160a14 14 0 0 0 14-14v-56a6 6 0 0 0-6-6Z"></path></svg>