<svg xmlns="http://www.w3.org/2000/svg" xmlns:xlink="http://www.w3.org/1999/xlink" aria-hidden="true" role="img" class="iconify iconify--ph" width="1em" height="1em" preserveAspectRatio="xMidYMid meet" viewBox="0 0 256 256"><circle cx="128.1" cy="128" r="96" fill="currentColor" opacity=".2"></circle><path fill="currentColor" d="M232.1 128.7v-.7a103.8 103.8 0 0 0-38.4-80.6l-.6-.5a1.8 1.8 0 0 0-.7-.5A103.8 103.8 0 0 0 83.1 34.2l-1.3.7a104.4 104.4 0 0 0-55.7 72.6v.2H26a104.6 104.6 0 0 0 39.6 103.4l1.3 1h.2a103.7 103.7 0 0 0 61 19.8a101.9 101.9 0 0 0 34.2-5.8l1.2-.4a104.2 104.2 0 0 0 68.5-96.8c0-.1.1-.1.1-.2Zm-16.4-8.5l-7.6-.2a171.4 171.4 0 0 0-44 5.8A173.1 173.1 0 0 0 150.7 96a171.5 171.5 0 0 0 38.2-31.6a88.1 88.1 0 0 1 26.8 55.8Zm-39.4-65.7a150.4 150.4 0 0 1-34.3 28a168.1 168.1 0 0 0-38.6-39a87.9 87.9 0 0 1 72.9 11Zm-90.6-3.6a151 151 0 0 1 42 39.2A152.5 152.5 0 0 1 64.1 104a152.7 152.7 0 0 1-20.3-1.4a88.2 88.2 0 0 1 41.9-51.7ZM40.1 128a75.2 75.2 0 0 1 .5-9.6a183.1 183.1 0 0 0 23.5 1.6a167.4 167.4 0 0 0 72.5-16.4a150.3 150.3 0 0 1 12.3 27.1a172.5 172.5 0 0 0-24.6 11.6a170.5 170.5 0 0 0-55.1 51.1A87.8 87.8 0 0 1 40.1 128Zm42 75a151.9 151.9 0 0 1 50.2-46.8a148.3 148.3 0 0 1 20.9-10a150.3 150.3 0 0 1 3.8 33.5a153.3 153.3 0 0 1-3.5 32.5a85.8 85.8 0 0 1-25.4 3.8a87.8 87.8 0 0 1-46-13Zm89 1.7a160 160 0 0 0 1.9-25a166.1 166.1 0 0 0-4.5-38.5a155.4 155.4 0 0 1 39.6-5.2l7.6.2a88.2 88.2 0 0 1-44.6 68.5Z"></path></svg>