<svg xmlns="http://www.w3.org/2000/svg" xmlns:xlink="http://www.w3.org/1999/xlink" aria-hidden="true" role="img" class="iconify iconify--ph" width="1em" height="1em" preserveAspectRatio="xMidYMid meet" viewBox="0 0 256 256"><path fill="currentColor" d="M230 128.7v-.7a101.7 101.7 0 0 0-37.7-79.1l-.5-.5l-.5-.4A101.5 101.5 0 0 0 128 26a100.2 100.2 0 0 0-44.1 10.1l-1.2.5A102.5 102.5 0 0 0 28 107.9v.2a99.2 99.2 0 0 0-2 19.9a101.9 101.9 0 0 0 40.9 81.6l1 .8h.2A101.7 101.7 0 0 0 128 230a100.2 100.2 0 0 0 33.9-5.8l.6-.2a102.3 102.3 0 0 0 67.5-95.1Zm-12.2-6.4c-3.2-.2-6.5-.3-9.8-.3a163.9 163.9 0 0 0-45.2 6.3A175.9 175.9 0 0 0 148.4 96l-.5-.7a168.2 168.2 0 0 0 40.8-33.7a89.7 89.7 0 0 1 29.1 60.7Zm-38.5-68.2a152.4 152.4 0 0 1-37.9 31.1a167.9 167.9 0 0 0-42.5-42.4a90.1 90.1 0 0 1 80.4 11.3Zm-93.6-5.5a153.9 153.9 0 0 1 45 42.3A154.4 154.4 0 0 1 64 106a158 158 0 0 1-22.8-1.7a90.2 90.2 0 0 1 44.5-55.7ZM38 128a93.9 93.9 0 0 1 .8-11.9A177 177 0 0 0 64 118a165.1 165.1 0 0 0 73.3-17l.7 1.1a157.1 157.1 0 0 1 13.4 29.9a158.3 158.3 0 0 0-26.1 12.1a165 165 0 0 0-55.7 52.3A89.9 89.9 0 0 1 38 128Zm41.2 75.6a155.8 155.8 0 0 1 75.4-60.1a151.9 151.9 0 0 1 4.3 36.2a149.8 149.8 0 0 1-3.8 34.1a89.8 89.8 0 0 1-75.9-10.2Zm89.3 4.8a172.8 172.8 0 0 0 2.4-28.7a166.9 166.9 0 0 0-4.8-39.9A155.8 155.8 0 0 1 208 134c3.3 0 6.5.1 9.8.3a90.2 90.2 0 0 1-49.3 74.1Z"></path></svg>