<svg xmlns="http://www.w3.org/2000/svg" xmlns:xlink="http://www.w3.org/1999/xlink" aria-hidden="true" role="img" class="iconify iconify--ph" width="1em" height="1em" preserveAspectRatio="xMidYMid meet" viewBox="0 0 256 256"><path fill="currentColor" d="M228 128a99.8 99.8 0 0 0-37.1-77.7l-.3-.3l-.4-.3A99.8 99.8 0 0 0 84.5 38l-.7.3A100.3 100.3 0 0 0 30 108.4h-.1A104 104 0 0 0 28 128a99.5 99.5 0 0 0 40.3 80.1l.7.6h.2a99.6 99.6 0 0 0 92 13.5l.6-.2a100.1 100.1 0 0 0 66.2-94Zm-62.2 83.9a165.8 165.8 0 0 0 3.1-32.2a168.1 168.1 0 0 0-5.2-41.3A157.2 157.2 0 0 1 208 132c4 0 8 .1 11.9.4a92.4 92.4 0 0 1-54.1 79.5Zm54.1-87.5c-3.9-.3-7.9-.4-11.9-.4a165.5 165.5 0 0 0-46.5 6.7A168.7 168.7 0 0 0 146.6 97l-1.5-2.4a166.9 166.9 0 0 0 43.4-35.8a91.5 91.5 0 0 1 31.4 65.6Zm-37.6-70.7a155.3 155.3 0 0 1-41.5 34.1a165.8 165.8 0 0 0-46.3-45.5A91.1 91.1 0 0 1 128 36a92.1 92.1 0 0 1 54.3 17.7Zm-96.5-7.4a155.8 155.8 0 0 1 47.9 45.3A155.1 155.1 0 0 1 64 108a152.4 152.4 0 0 1-25.3-2.1a92.3 92.3 0 0 1 47.1-59.6ZM36 128a94.9 94.9 0 0 1 1.1-14.2A161.8 161.8 0 0 0 64 116a164.7 164.7 0 0 0 74.1-17.6l1.6 2.7a156.1 156.1 0 0 1 14.2 32.1a156.2 156.2 0 0 0-27.6 12.6A165 165 0 0 0 70 199.4A92 92 0 0 1 36 128Zm40.5 76.2a156.9 156.9 0 0 1 53.8-51.5a161.4 161.4 0 0 1 25.7-11.8a152.8 152.8 0 0 1 4.9 38.8a158.3 158.3 0 0 1-4.1 35.7a92 92 0 0 1-80.3-11.2Z"></path></svg>