<svg xmlns="http://www.w3.org/2000/svg" xmlns:xlink="http://www.w3.org/1999/xlink" aria-hidden="true" role="img" class="iconify iconify--ph" width="1em" height="1em" preserveAspectRatio="xMidYMid meet" viewBox="0 0 256 256"><path fill="currentColor" d="M93.3 36.9a4 4 0 0 1 .8-7.2a103.7 103.7 0 0 1 88.6 9.9a4 4 0 0 1 1.1 5.9a156.1 156.1 0 0 1-41.9 37a169 169 0 0 0-48.6-45.6ZM127.6 90a154.2 154.2 0 0 0-56-46.9a4.3 4.3 0 0 0-4.1.3a105.1 105.1 0 0 0-38.3 52.1a4 4 0 0 0 3 5.1A151.1 151.1 0 0 0 64 104a150.6 150.6 0 0 0 63.6-14Zm103.8 26.7a104 104 0 0 0-29.2-61.5a4.1 4.1 0 0 0-6 .3a168.3 168.3 0 0 1-45.7 40.4a171.5 171.5 0 0 1 13.6 29.9A167.3 167.3 0 0 1 208 120a171.5 171.5 0 0 1 19 1.1a4 4 0 0 0 4.4-4.4Zm-62.9 24.5a169 169 0 0 1 4.4 38.5a168.1 168.1 0 0 1-4.1 36.8a4 4 0 0 0 5.7 4.5a104.1 104.1 0 0 0 56.6-79.2a4 4 0 0 0-3.5-4.5A141.3 141.3 0 0 0 208 136a151.2 151.2 0 0 0-39.5 5.2Zm-19.7-10.4a142.6 142.6 0 0 0-12.4-27.2A167.2 167.2 0 0 1 64 120a167.3 167.3 0 0 1-34.9-3.7a4 4 0 0 0-4.8 3.6q-.3 4-.3 8.1a103.7 103.7 0 0 0 33 75.9a3.9 3.9 0 0 0 6.1-.9a168.8 168.8 0 0 1 85.7-72.2Zm-73.1 82.4a4 4 0 0 0 1.5 5.5A102.9 102.9 0 0 0 128 232a98.3 98.3 0 0 0 18.1-1.6a3.8 3.8 0 0 0 3-2.6a151 151 0 0 0 7.8-48.1a154.2 154.2 0 0 0-3.7-33.5a153.2 153.2 0 0 0-77.5 67Z"></path></svg>