<svg xmlns="http://www.w3.org/2000/svg" xmlns:xlink="http://www.w3.org/1999/xlink" aria-hidden="true" role="img" class="iconify iconify--ph" width="1em" height="1em" preserveAspectRatio="xMidYMid meet" viewBox="0 0 256 256"><path fill="currentColor" d="M171 50.4a255.4 255.4 0 0 0-40.7-37.7a4.3 4.3 0 0 0-4.6 0A255.4 255.4 0 0 0 85 50.4C58.2 81.2 44 113.6 44 144a84 84 0 0 0 168 0c0-30.4-14.2-62.8-41-93.6Zm-80.1 5.4A247.5 247.5 0 0 1 128 21a247.5 247.5 0 0 1 37.1 34.8c14.4 16.5 31 40.6 36.8 68.2H54.1c5.8-27.6 22.4-51.7 36.8-68.2ZM204 144a67.8 67.8 0 0 1-1 12H53a67.8 67.8 0 0 1-1-12a94.2 94.2 0 0 1 .8-12h150.4a94.2 94.2 0 0 1 .8 12ZM54.7 164h146.6a76.9 76.9 0 0 1-11.4 24H66.1a76.9 76.9 0 0 1-11.4-24Zm73.3 56a75.8 75.8 0 0 1-55.4-24h110.8a75.8 75.8 0 0 1-55.4 24Z"></path></svg>