<svg xmlns="http://www.w3.org/2000/svg" xmlns:xlink="http://www.w3.org/1999/xlink" aria-hidden="true" role="img" class="iconify iconify--ph" width="1em" height="1em" preserveAspectRatio="xMidYMid meet" viewBox="0 0 256 256"><path fill="currentColor" d="M134.9 6.2a12 12 0 0 0-13.8 0a264.8 264.8 0 0 0-42.2 38.9C50.9 77.4 36 111.6 36 144a92 92 0 0 0 184 0c0-77.4-81.6-135.4-85.1-137.8ZM128 212a68.1 68.1 0 0 1-68-68c0-33.3 20-63.4 36.7-82.7A247.8 247.8 0 0 1 128 31.1a247.8 247.8 0 0 1 31.3 30.2C176 80.6 196 110.7 196 144a68.1 68.1 0 0 1-68 68Zm46.8-57.3a48.2 48.2 0 0 1-36.1 36.1l-2.7.3a12 12 0 0 1-2.7-23.7a23.9 23.9 0 0 0 18.1-18.1a12 12 0 1 1 23.4 5.4Z"></path></svg>