<svg xmlns="http://www.w3.org/2000/svg" xmlns:xlink="http://www.w3.org/1999/xlink" aria-hidden="true" role="img" class="iconify iconify--ph" width="1em" height="1em" preserveAspectRatio="xMidYMid meet" viewBox="0 0 256 256"><path fill="currentColor" d="M171 50.4a255.4 255.4 0 0 0-40.7-37.7a4.3 4.3 0 0 0-4.6 0A255.4 255.4 0 0 0 85 50.4C58.2 81.2 44 113.6 44 144a84 84 0 0 0 168 0c0-30.4-14.2-62.8-41-93.6ZM128 220a76.1 76.1 0 0 1-76-76c0-35.9 21.2-67.8 38.9-88.2A247.5 247.5 0 0 1 128 21a247.5 247.5 0 0 1 37.1 34.8C182.8 76.2 204 108.1 204 144a76.1 76.1 0 0 1-76 76Zm51.3-67.3a52 52 0 0 1-42.5 42.5h-.7a4 4 0 0 1-3.9-3.3a3.9 3.9 0 0 1 3.3-4.6a43.9 43.9 0 0 0 35.9-35.9a4 4 0 0 1 4.6-3.3a4 4 0 0 1 3.3 4.6Z"></path></svg>