<svg xmlns="http://www.w3.org/2000/svg" xmlns:xlink="http://www.w3.org/1999/xlink" aria-hidden="true" role="img" class="iconify iconify--ph" width="1em" height="1em" preserveAspectRatio="xMidYMid meet" viewBox="0 0 256 256"><path fill="currentColor" d="M134.9 6.2a12 12 0 0 0-13.8 0a264.8 264.8 0 0 0-42.2 38.9C50.9 77.4 36 111.6 36 144a92 92 0 0 0 184 0c0-77.4-81.6-135.4-85.1-137.8ZM191.6 168H64.4a65.7 65.7 0 0 1-3.9-16h135a65.7 65.7 0 0 1-3.9 16ZM96.7 61.3A247.8 247.8 0 0 1 128 31.1a247.8 247.8 0 0 1 31.3 30.2c14 16.2 30.3 39.9 35.2 66.7h-133c4.9-26.8 21.2-50.5 35.2-66.7ZM128 212a67.9 67.9 0 0 1-48.1-20h96.2a67.9 67.9 0 0 1-48.1 20Z"></path></svg>