<svg xmlns="http://www.w3.org/2000/svg" xmlns:xlink="http://www.w3.org/1999/xlink" aria-hidden="true" role="img" class="iconify iconify--ph" width="1em" height="1em" preserveAspectRatio="xMidYMid meet" viewBox="0 0 256 256"><path fill="currentColor" d="M172.5 49.1a247.8 247.8 0 0 0-41.1-38a5.7 5.7 0 0 0-6.8 0a247.8 247.8 0 0 0-41.1 38C56.3 80.3 42 113.1 42 144a86 86 0 0 0 172 0c0-30.9-14.3-63.7-41.5-94.9ZM128 23.5c13.1 10.1 59.8 49 71.4 98.5H56.6c11.6-49.5 58.3-88.4 71.4-98.5ZM202 144a66.3 66.3 0 0 1-.7 10H54.7a77.3 77.3 0 0 1-.1-20h146.8a82.6 82.6 0 0 1 .6 10ZM67.1 186a75.9 75.9 0 0 1-9.8-20h141.4a75.9 75.9 0 0 1-9.8 20Zm10.4 12h101a73.8 73.8 0 0 1-101 0Z"></path></svg>