<svg xmlns="http://www.w3.org/2000/svg" xmlns:xlink="http://www.w3.org/1999/xlink" aria-hidden="true" role="img" class="iconify iconify--ph" width="1em" height="1em" preserveAspectRatio="xMidYMid meet" viewBox="0 0 256 256"><path fill="currentColor" d="M171 50.4a255.4 255.4 0 0 0-40.7-37.7a4.3 4.3 0 0 0-4.6 0A255.4 255.4 0 0 0 85 50.4C58.2 81.2 44 113.6 44 144a84 84 0 0 0 168 0c0-30.4-14.2-62.8-41-93.6Zm33 93.6a67.8 67.8 0 0 1-1 12h-71v-24h71.2a94.2 94.2 0 0 1 .8 12Zm-13.9-52H132V68h43a175.4 175.4 0 0 1 15.1 24ZM132 164h69.3a76.9 76.9 0 0 1-11.4 24H132Zm0-40v-24h62a120.6 120.6 0 0 1 7.9 24Zm33.1-68.2q1.8 2 3.6 4.2H132V24.1a253.5 253.5 0 0 1 33.1 31.7ZM52 144c0-35.9 21.2-67.8 38.9-88.2A253.5 253.5 0 0 1 124 24.1v195.8A76.1 76.1 0 0 1 52 144Zm80 75.9V196h51.4a76.5 76.5 0 0 1-51.4 23.9Z"></path></svg>