<svg xmlns="http://www.w3.org/2000/svg" xmlns:xlink="http://www.w3.org/1999/xlink" aria-hidden="true" role="img" class="iconify iconify--ph" width="1em" height="1em" preserveAspectRatio="xMidYMid meet" viewBox="0 0 256 256"><path fill="currentColor" d="M174 47.8a259.4 259.4 0 0 0-41.4-38.4a8.1 8.1 0 0 0-9.2 0A259.4 259.4 0 0 0 82 47.8C54.5 79.3 40 112.6 40 144a88 88 0 0 0 176 0c0-31.4-14.5-64.7-42-96.2Zm26 96.2a70.1 70.1 0 0 1-.5 8H136v-16h63.6a70.3 70.3 0 0 1 .4 8Zm-16.6-56H136V72h36.9a184.1 184.1 0 0 1 10.5 16ZM136 200h37.2a71.3 71.3 0 0 1-37.2 15.5Zm0-16v-16h59.9a70.8 70.8 0 0 1-8.1 16Zm0-64v-16h55.4a111.5 111.5 0 0 1 5.4 16Zm23.9-64H136V32.6A266.2 266.2 0 0 1 159.9 56ZM56 144c0-50 42.3-92.7 64-111.4v182.9A72 72 0 0 1 56 144Z"></path></svg>