<svg xmlns="http://www.w3.org/2000/svg" xmlns:xlink="http://www.w3.org/1999/xlink" aria-hidden="true" role="img" class="iconify iconify--ph" width="1em" height="1em" preserveAspectRatio="xMidYMid meet" viewBox="0 0 256 256"><path fill="currentColor" d="M134.9 6.2a12 12 0 0 0-13.8 0a264.8 264.8 0 0 0-42.2 38.9C50.9 77.4 36 111.6 36 144a92 92 0 0 0 184 0c0-77.4-81.6-135.4-85.1-137.8ZM196 144a70.1 70.1 0 0 1-1.9 16H140v-16Zm-56-24v-16h47a108.5 108.5 0 0 1 5.7 16Zm19.3-58.7A190.1 190.1 0 0 1 173.7 80H140V41.5a246.1 246.1 0 0 1 19.3 19.8ZM60 144c0-33.3 20-63.4 36.7-82.7A246.1 246.1 0 0 1 116 41.5v169.4A68.1 68.1 0 0 1 60 144Zm80 66.9V184h42.9a67.5 67.5 0 0 1-42.9 26.9Z"></path></svg>