<svg xmlns="http://www.w3.org/2000/svg" xmlns:xlink="http://www.w3.org/1999/xlink" aria-hidden="true" role="img" class="iconify iconify--ph" width="1em" height="1em" preserveAspectRatio="xMidYMid meet" viewBox="0 0 256 256"><path fill="currentColor" d="M172.5 49.1a247.8 247.8 0 0 0-41.1-38a5.7 5.7 0 0 0-6.8 0a247.8 247.8 0 0 0-41.1 38C56.3 80.3 42 113.1 42 144a86 86 0 0 0 172 0c0-30.9-14.3-63.7-41.5-94.9ZM128 218a74.1 74.1 0 0 1-74-74c0-59.6 59-108.9 74-120.5c15 11.6 74 60.9 74 120.5a74.1 74.1 0 0 1-74 74Zm53.2-64.9a53.8 53.8 0 0 1-44.1 44h-1a6 6 0 0 1-1-11.9a41.9 41.9 0 0 0 34.3-34.2a6.1 6.1 0 0 1 6.9-5a6 6 0 0 1 4.9 7.1Z"></path></svg>