<svg xmlns="http://www.w3.org/2000/svg" xmlns:xlink="http://www.w3.org/1999/xlink" aria-hidden="true" role="img" class="iconify iconify--ph" width="1em" height="1em" preserveAspectRatio="xMidYMid meet" viewBox="0 0 256 256"><path fill="currentColor" d="M174 47.8a259.4 259.4 0 0 0-41.4-38.4a8.1 8.1 0 0 0-9.2 0A259.4 259.4 0 0 0 82 47.8C54.5 79.3 40 112.6 40 144a88 88 0 0 0 176 0c0-31.4-14.5-64.7-42-96.2ZM128 26c14.2 11.1 56.9 47.8 68.8 94H59.2c11.9-46.2 54.6-82.9 68.8-94Zm72 118a70.1 70.1 0 0 1-.5 8h-143a71.3 71.3 0 0 1-.1-16h143.2a70.3 70.3 0 0 1 .4 8ZM68.2 184a70.8 70.8 0 0 1-8.1-16h135.8a70.8 70.8 0 0 1-8.1 16Zm14.6 16h90.4a71.8 71.8 0 0 1-90.4 0Z"></path></svg>