<svg xmlns="http://www.w3.org/2000/svg" xmlns:xlink="http://www.w3.org/1999/xlink" aria-hidden="true" role="img" class="iconify iconify--ph" width="1em" height="1em" preserveAspectRatio="xMidYMid meet" viewBox="0 0 256 256"><path fill="currentColor" d="M172.5 49.1a247.8 247.8 0 0 0-41.1-38a5.7 5.7 0 0 0-6.8 0a247.8 247.8 0 0 0-41.1 38C56.3 80.3 42 113.1 42 144a86 86 0 0 0 172 0c0-30.9-14.3-63.7-41.5-94.9ZM202 144a66.3 66.3 0 0 1-.7 10H134v-20h67.4a82.6 82.6 0 0 1 .6 10Zm-15.2-54H134V70h39.9a175.6 175.6 0 0 1 12.9 20ZM134 198h44.5a73.1 73.1 0 0 1-44.5 19.7Zm0-12v-20h64.7a75.9 75.9 0 0 1-9.8 20Zm0-64v-20h58.7a114.6 114.6 0 0 1 6.7 20Zm30.3-64H134V28.3A261 261 0 0 1 164.3 58ZM54 144c0-53.4 47.3-98.6 68-115.7v189.4A74 74 0 0 1 54 144Z"></path></svg>