<svg xmlns="http://www.w3.org/2000/svg" xmlns:xlink="http://www.w3.org/1999/xlink" aria-hidden="true" role="img" class="iconify iconify--ph" width="1em" height="1em" preserveAspectRatio="xMidYMid meet" viewBox="0 0 256 256"><path fill="currentColor" d="M128 224a80 80 0 0 0 80-80c0-72-80-128-80-128Z" opacity=".2"></path><path fill="currentColor" d="M174 47.8a259.4 259.4 0 0 0-41.4-38.4h-.1l-.9-.5h-.2a6.5 6.5 0 0 0-2.1-.7h-2.6a6.5 6.5 0 0 0-2.1.7h-.2l-.9.5h-.1A259.4 259.4 0 0 0 82 47.8C54.5 79.3 40 112.6 40 144a88 88 0 0 0 176 0c0-31.4-14.5-64.7-42-96.2ZM56 144c0-50 42.3-92.7 64-111.4v182.9A72 72 0 0 1 56 144Zm80 71.5V32.6C157.7 51.3 200 94 200 144a72 72 0 0 1-64 71.5Z"></path></svg>