<svg xmlns="http://www.w3.org/2000/svg" xmlns:xlink="http://www.w3.org/1999/xlink" aria-hidden="true" role="img" class="iconify iconify--ph" width="1em" height="1em" preserveAspectRatio="xMidYMid meet" viewBox="0 0 256 256"><path fill="currentColor" d="M161.9 216A44 44 0 0 1 84 188c0-41.5-36-28-36-84a80 80 0 0 1 160 0c0 40 1 65-46.1 112Z" opacity=".2"></path><path fill="currentColor" d="M213.9 210.6a7.9 7.9 0 0 1-.5 11.3a8.2 8.2 0 0 1-5.4 2.1a8 8 0 0 1-5.9-2.6l-37.9-41.7a29.7 29.7 0 0 1-4.2.3a28.1 28.1 0 0 1-28-28a31.1 31.1 0 0 1 .7-6.9L96 104.7a8 8 0 0 1-16-.7a50.4 50.4 0 0 1 2.2-14.5L64.5 70a71.4 71.4 0 0 0-8.5 34c0 26.7 8.5 34.9 17.6 43.6S92 165.4 92 188a36 36 0 0 0 63.8 22.9a7.9 7.9 0 0 1 11.2-1.1a8.1 8.1 0 0 1 1.1 11.3A52 52 0 0 1 76 188c0-15.8-5.7-21.3-13.5-28.8c-10-9.7-22.5-21.7-22.5-55.2a87.8 87.8 0 0 1 13.2-46.4L42.1 45.4a8 8 0 0 1 11.8-10.8l15.3 16.9h.1l28 30.8l75.4 83ZM91.1 42.2A72 72 0 0 1 200 104a8 8 0 0 0 16 0A88 88 0 0 0 82.9 28.4a8 8 0 0 0-2.8 11a8.1 8.1 0 0 0 11 2.8Zm67.2 83.2a7.7 7.7 0 0 0 4.8 1.6a8 8 0 0 0 6.4-3.2A31.6 31.6 0 0 0 176 104a48 48 0 0 0-48-48a48.6 48.6 0 0 0-15.6 2.6a8 8 0 0 0 5.2 15.1A32.9 32.9 0 0 1 128 72a32.1 32.1 0 0 1 32 32a16 16 0 0 1-3.3 10.2a7.9 7.9 0 0 0 1.6 11.2Z"></path></svg>