<svg xmlns="http://www.w3.org/2000/svg" xmlns:xlink="http://www.w3.org/1999/xlink" aria-hidden="true" role="img" class="iconify iconify--ph" width="1em" height="1em" preserveAspectRatio="xMidYMid meet" viewBox="0 0 256 256"><path fill="currentColor" d="M216.9 207.9a12.1 12.1 0 0 1-.8 17a12.1 12.1 0 0 1-17-.8l-36.5-40.2H160a32.1 32.1 0 0 1-32-32a35.6 35.6 0 0 1 .4-5.7l-31.3-34.4A11.9 11.9 0 0 1 88 116a12 12 0 0 1-12-12a49.8 49.8 0 0 1 1.8-13.4L65.5 77.1A68.1 68.1 0 0 0 60 104c0 25 7.6 32.3 16.3 40.8S96 163.7 96 188a32 32 0 0 0 56.7 20.4a12 12 0 0 1 18.5 15.2A56 56 0 0 1 72 188c0-14.1-4.6-18.6-12.3-26C49.1 151.9 36 139.2 36 104a90.7 90.7 0 0 1 12.3-45.9l-9.2-10a12 12 0 0 1 17.8-16.2l15.3 16.9h.1l27.9 30.7l75.4 83h.1ZM99.3 42.3A68.1 68.1 0 0 1 196 104a12 12 0 0 0 24 0a92.1 92.1 0 0 0-92-92a91.1 91.1 0 0 0-38.8 8.6a12 12 0 0 0 10.1 21.7Zm64.2 80.6a14.1 14.1 0 0 0 3.5.5a12.2 12.2 0 0 0 11.5-8.6A38.1 38.1 0 0 0 180 104a52 52 0 0 0-52-52l-5.1.2a12.2 12.2 0 0 0-10.8 13.2a11.9 11.9 0 0 0 13.1 10.7h2.8a28.1 28.1 0 0 1 28 28a16.2 16.2 0 0 1-.5 4a12 12 0 0 0 8 14.8Z"></path></svg>