<svg xmlns="http://www.w3.org/2000/svg" xmlns:xlink="http://www.w3.org/1999/xlink" aria-hidden="true" role="img" class="iconify iconify--ph" width="1em" height="1em" preserveAspectRatio="xMidYMid meet" viewBox="0 0 256 256"><path fill="currentColor" d="M220 104a12 12 0 0 1-24 0a68 68 0 0 0-136 0c0 25 7.6 32.3 16.3 40.8S96 163.7 96 188a32 32 0 0 0 56.7 20.4a12 12 0 0 1 18.5 15.2A56 56 0 0 1 72 188c0-14.1-4.6-18.6-12.3-26C49.1 151.9 36 139.2 36 104a92 92 0 0 1 184 0Zm-36.9 45a12.1 12.1 0 0 0-15.8 6.2a7.9 7.9 0 0 1-7.3 4.8a8 8 0 0 1-8-8c0-6.2 3-9.1 9.8-14.9S180 121.5 180 104a52 52 0 0 0-104 0a12 12 0 0 0 24 0a28 28 0 0 1 56 0c0 6.2-3 9.1-9.8 14.9S128 134.5 128 152a32 32 0 0 0 61.3 12.8a11.9 11.9 0 0 0-6.2-15.8Z"></path></svg>