<svg xmlns="http://www.w3.org/2000/svg" xmlns:xlink="http://www.w3.org/1999/xlink" aria-hidden="true" role="img" class="iconify iconify--ph" width="1em" height="1em" preserveAspectRatio="xMidYMid meet" viewBox="0 0 256 256"><path fill="currentColor" d="M161.9 216A44 44 0 0 1 84 188c0-41.5-36-28-36-84a80 80 0 0 1 160 0c0 40 1 65-46.1 112Z" opacity=".2"></path><path fill="currentColor" d="M188 152a28 28 0 0 1-56 0c0-15.7 9.3-23.7 16.8-30.1s11.2-10 11.2-17.9a32 32 0 0 0-64 0a8 8 0 0 1-16 0a48 48 0 0 1 96 0c0 15.7-9.3 23.7-16.8 30.1S148 144.1 148 152a12 12 0 0 0 24 0a8 8 0 0 1 16 0ZM128 16a88.1 88.1 0 0 0-88 88c0 33.5 12.5 45.5 22.5 55.2c7.8 7.5 13.5 13 13.5 28.8a52 52 0 0 0 92.1 33.1a8.1 8.1 0 0 0-1.1-11.3a7.9 7.9 0 0 0-11.2 1.1A36 36 0 0 1 92 188c0-22.6-9.8-32-18.4-40.4S56 130.7 56 104a72 72 0 0 1 144 0a8 8 0 0 0 16 0a88.1 88.1 0 0 0-88-88Z"></path></svg>