<svg xmlns="http://www.w3.org/2000/svg" xmlns:xlink="http://www.w3.org/1999/xlink" aria-hidden="true" role="img" class="iconify iconify--ph" width="1em" height="1em" preserveAspectRatio="xMidYMid meet" viewBox="0 0 256 256"><path fill="currentColor" d="m171.3 166.7l-75.5-83l-28-30.8L52.4 36a5.9 5.9 0 0 0-8.8 8l12.1 13.4A85.2 85.2 0 0 0 42 104c0 32.6 12.1 44.3 21.9 53.7C71.8 165.3 78 171.4 78 188a50 50 0 0 0 88.6 31.8a6 6 0 0 0-9.3-7.6A38 38 0 0 1 90 188c0-21.7-9.1-30.5-17.8-38.9S54 131.5 54 104a73.9 73.9 0 0 1 10.1-37.4l20.4 22.5A44.4 44.4 0 0 0 82 104a6 6 0 0 0 12 0a29.7 29.7 0 0 1 .3-4.2l40.6 44.7a30.8 30.8 0 0 0-.9 7.5a25.8 25.8 0 0 0 30.9 25.5l38.7 42.5a5.9 5.9 0 0 0 4.4 2a5.7 5.7 0 0 0 4-1.6a5.8 5.8 0 0 0 .4-8.4Zm-23.7-8.2l4.8 5.2a14.1 14.1 0 0 1-4.8-5.2ZM81.8 38.4a6 6 0 0 1 2.1-8.2A86 86 0 0 1 214 104a6 6 0 0 1-12 0a74.1 74.1 0 0 0-74-74a73.1 73.1 0 0 0-37.9 10.5a6.1 6.1 0 0 1-8.3-2.1Zm76.5 77A17.5 17.5 0 0 0 162 104a34.1 34.1 0 0 0-45-32.2a6 6 0 1 1-3.9-11.3A44.4 44.4 0 0 1 128 58a46 46 0 0 1 46 46a30.1 30.1 0 0 1-6.1 18.6a6 6 0 1 1-9.6-7.2Z"></path></svg>