<svg xmlns="http://www.w3.org/2000/svg" xmlns:xlink="http://www.w3.org/1999/xlink" aria-hidden="true" role="img" class="iconify iconify--ph" width="1em" height="1em" preserveAspectRatio="xMidYMid meet" viewBox="0 0 256 256"><path fill="currentColor" d="M169.8 168.1L94.4 85h-.1l-28-30.8L51 37.3a4 4 0 1 0-6 5.4l13.2 14.5A83.7 83.7 0 0 0 44 104c0 31.8 11.3 42.7 21.2 52.3c8 7.6 14.8 14.2 14.8 31.7a48 48 0 0 0 85 30.6a4.1 4.1 0 0 0-.5-5.7a4 4 0 0 0-5.6.6A40.1 40.1 0 0 1 88 188c0-20.9-8.7-29.3-17.2-37.5S52 132.4 52 104a75.7 75.7 0 0 1 11.8-40.7l23 25.3A42.4 42.4 0 0 0 84 104a4 4 0 0 0 8 0a39.5 39.5 0 0 1 1-8.5l44.1 48.4a26.9 26.9 0 0 0-1.1 8.1a24.1 24.1 0 0 0 24 24a21 21 0 0 0 5.6-.7l39.4 43.4a4.1 4.1 0 0 0 5.7.3a4.2 4.2 0 0 0 .3-5.7ZM144 152v-.4l14.9 16.3A15.9 15.9 0 0 1 144 152ZM83.5 37.4a4 4 0 0 1 1.4-5.5A84 84 0 0 1 212 104a4 4 0 0 1-8 0A76.1 76.1 0 0 0 89 38.7a3.9 3.9 0 0 1-5.5-1.3Zm76.4 79.2A19.9 19.9 0 0 0 164 104a36 36 0 0 0-36-36a38.7 38.7 0 0 0-11.7 1.9a4 4 0 1 1-2.6-7.5A43.4 43.4 0 0 1 128 60a44 44 0 0 1 44 44a28.2 28.2 0 0 1-5.7 17.4a3.9 3.9 0 0 1-3.2 1.6a4.1 4.1 0 0 1-2.4-.8a3.9 3.9 0 0 1-.8-5.6Z"></path></svg>