<svg xmlns="http://www.w3.org/2000/svg" xmlns:xlink="http://www.w3.org/1999/xlink" aria-hidden="true" role="img" class="iconify iconify--ph" width="1em" height="1em" preserveAspectRatio="xMidYMid meet" viewBox="0 0 256 256"><path fill="currentColor" d="M184 152a24 24 0 0 1-48 0c0-13.8 8.2-20.9 15.4-27s12.6-10.8 12.6-21a36 36 0 0 0-72 0a4 4 0 0 1-8 0a44 44 0 0 1 88 0c0 13.8-8.2 20.9-15.4 27S144 141.8 144 152a16 16 0 0 0 32 0a4 4 0 0 1 8 0ZM128 20a84.1 84.1 0 0 0-84 84c0 31.8 11.3 42.7 21.2 52.3c8 7.6 14.8 14.2 14.8 31.7a48 48 0 0 0 85 30.6a4.1 4.1 0 0 0-.5-5.7a4 4 0 0 0-5.6.6A40.1 40.1 0 0 1 88 188c0-20.9-8.7-29.3-17.2-37.5S52 132.4 52 104a76 76 0 0 1 152 0a4 4 0 0 0 8 0a84.1 84.1 0 0 0-84-84Z"></path></svg>