<svg xmlns="http://www.w3.org/2000/svg" xmlns:xlink="http://www.w3.org/1999/xlink" aria-hidden="true" role="img" class="iconify iconify--ph" width="1em" height="1em" preserveAspectRatio="xMidYMid meet" viewBox="0 0 256 256"><path fill="currentColor" d="M185 60.7C167.2 34 145.9 18 128 18S88.8 34 71 60.7S42 121.6 42 152a86 86 0 0 0 172 0c0-30.4-10.6-63.7-29-91.3ZM128 226a74.1 74.1 0 0 1-74-74c0-28.1 9.8-58.9 27-84.7C96.1 44.7 114.6 30 128 30c10.5 0 24.1 9 36.8 23.8l-39.5 43.9a6.1 6.1 0 0 0 2.3 9.6l24.2 9.3l-6.3 32.3a6 6 0 0 0 4.8 7h1.1a6.1 6.1 0 0 0 5.9-4.9l7.2-37.1a5.9 5.9 0 0 0-3.7-6.7l-20.7-8l32.2-35.9l2.7 3.9c17.2 25.8 27 56.6 27 84.7a74.1 74.1 0 0 1-74 74.1Z"></path></svg>