<svg xmlns="http://www.w3.org/2000/svg" xmlns:xlink="http://www.w3.org/1999/xlink" aria-hidden="true" role="img" class="iconify iconify--ph" width="1em" height="1em" preserveAspectRatio="xMidYMid meet" viewBox="0 0 256 256"><path fill="currentColor" d="M186.7 59.6C168.5 32.3 146.5 16 128 16S87.5 32.3 69.3 59.6S40 121.2 40 152a88 88 0 0 0 176 0c0-30.8-10.7-64.5-29.3-92.4ZM128 224a72.1 72.1 0 0 1-72-72c0-27.7 9.7-58.2 26.7-83.6C97.2 46.6 115.4 32 128 32c9.5 0 22.2 8.3 34.1 21.8l-38.3 42.6a8.1 8.1 0 0 0-1.8 7.2a8.3 8.3 0 0 0 4.9 5.6l22.6 8.7l-6 30.6a8.1 8.1 0 0 0 6.4 9.4h1.5a8.1 8.1 0 0 0 7.9-6.5l7.2-37.1a8.1 8.1 0 0 0-5-9l-18-7l28.6-31.8l1.2 1.8c17 25.4 26.7 55.9 26.7 83.6a72.1 72.1 0 0 1-72 72.1Z"></path></svg>