<svg xmlns="http://www.w3.org/2000/svg" xmlns:xlink="http://www.w3.org/1999/xlink" aria-hidden="true" role="img" class="iconify iconify--ph" width="1em" height="1em" preserveAspectRatio="xMidYMid meet" viewBox="0 0 256 256"><path fill="currentColor" d="M128 20c-35.1 0-84 66.5-84 132a84 84 0 0 0 168 0c0-65.5-48.9-132-84-132Zm0 208a76.1 76.1 0 0 1-76-76c0-28.5 10-59.7 27.3-85.8C94.8 43 113.9 28 128 28c11.4 0 26 9.8 39.4 25.8L126.8 99a4 4 0 0 0-.9 3.6a3.7 3.7 0 0 0 2.5 2.8l25.6 10l-6.5 33.8a4 4 0 0 0 3.1 4.7h.8a3.9 3.9 0 0 0 3.9-3.2l7.2-37.2a4 4 0 0 0-2.5-4.5l-23.4-9l35.8-39.9c1.5 1.9 2.9 3.9 4.3 6C194 92.3 204 123.5 204 152a76.1 76.1 0 0 1-76 76Z"></path></svg>