<svg xmlns="http://www.w3.org/2000/svg" xmlns:xlink="http://www.w3.org/1999/xlink" aria-hidden="true" role="img" class="iconify iconify--ph" width="1em" height="1em" preserveAspectRatio="xMidYMid meet" viewBox="0 0 256 256"><path fill="currentColor" d="M216 152a88.1 88.1 0 0 1-87.8 88c-50.6.1-90.2-43-88.1-93.6c1.2-29.2 11.7-60.6 29.2-86.8S109.5 16 128 16c13.3 0 28.2 8.3 42.3 23a4 4 0 0 1 .1 5.5l-46.6 51.9a8.1 8.1 0 0 0-1.8 7.2a8.3 8.3 0 0 0 4.9 5.6l22.6 8.7l-5.9 30.3a8.4 8.4 0 0 0 6.3 9.7h1.5a8.1 8.1 0 0 0 7.9-6.5l7.2-37.1a8.1 8.1 0 0 0-5-9l-18-7L179.7 58a4.1 4.1 0 0 1 6.3.4l.7 1.1c18.6 28 29.3 61.7 29.3 92.5Z"></path></svg>