<svg xmlns="http://www.w3.org/2000/svg" xmlns:xlink="http://www.w3.org/1999/xlink" aria-hidden="true" role="img" class="iconify iconify--ph" width="1em" height="1em" preserveAspectRatio="xMidYMid meet" viewBox="0 0 256 256"><path fill="currentColor" d="M50.3 140h155.4a11.8 11.8 0 0 0 11-7.2a11.6 11.6 0 0 0-2.2-12.9l-77.7-84.2a11.9 11.9 0 0 0-17.6 0l-77.7 84.2a11.6 11.6 0 0 0-2.2 12.9a11.8 11.8 0 0 0 11 7.2Zm-3-14.7l77.8-84.2a3.9 3.9 0 0 1 5.8 0l77.8 84.2a4.1 4.1 0 0 1 .7 4.3a3.9 3.9 0 0 1-3.7 2.4H50.3a3.9 3.9 0 0 1-3.7-2.4a4.1 4.1 0 0 1 .7-4.3ZM208 164H48a12 12 0 0 0-12 12v24a12 12 0 0 0 12 12h160a12 12 0 0 0 12-12v-24a12 12 0 0 0-12-12Zm4 36a4 4 0 0 1-4 4H48a4 4 0 0 1-4-4v-24a4 4 0 0 1 4-4h160a4 4 0 0 1 4 4Z"></path></svg>