<svg xmlns="http://www.w3.org/2000/svg" xmlns:xlink="http://www.w3.org/1999/xlink" aria-hidden="true" role="img" class="iconify iconify--ph" width="1em" height="1em" preserveAspectRatio="xMidYMid meet" viewBox="0 0 256 256"><path fill="currentColor" d="M50.8 144h154.4a20 20 0 0 0 14.4-33.9l-77-80a20.1 20.1 0 0 0-29.2 0l-77 80A20 20 0 0 0 50.8 144ZM128 49.6l67.8 70.4H60.2ZM208 156H48a20.1 20.1 0 0 0-20 20v24a20.1 20.1 0 0 0 20 20h160a20.1 20.1 0 0 0 20-20v-24a20.1 20.1 0 0 0-20-20Zm-4 40H52v-16h152Z"></path></svg>