<svg xmlns="http://www.w3.org/2000/svg" xmlns:xlink="http://www.w3.org/1999/xlink" aria-hidden="true" role="img" class="iconify iconify--ph" width="1em" height="1em" preserveAspectRatio="xMidYMid meet" viewBox="0 0 256 256"><path fill="currentColor" d="M40.8 166h174.4a14 14 0 0 0 10.9-22.8L138.9 35.9a14 14 0 0 0-21.8 0L29.9 143.2A14 14 0 0 0 40.8 166Zm-1.5-15.3l87.1-107.3a2.2 2.2 0 0 1 3.2 0l87.1 107.3a2.1 2.1 0 0 1 .3 2.2a1.9 1.9 0 0 1-1.8 1.1H40.8a1.9 1.9 0 0 1-1.8-1.1a2.1 2.1 0 0 1 .3-2.2ZM230 208a6 6 0 0 1-6 6H32a6 6 0 0 1 0-12h192a6 6 0 0 1 6 6Z"></path></svg>