<svg xmlns="http://www.w3.org/2000/svg" xmlns:xlink="http://www.w3.org/1999/xlink" aria-hidden="true" role="img" class="iconify iconify--ph" width="1em" height="1em" preserveAspectRatio="xMidYMid meet" viewBox="0 0 256 256"><path fill="currentColor" d="M40.8 164h174.4a11.8 11.8 0 0 0 10.8-6.8a11.9 11.9 0 0 0-1.5-12.8L137.3 37.1a12 12 0 0 0-18.6 0L31.5 144.4a11.9 11.9 0 0 0-1.5 12.8a11.8 11.8 0 0 0 10.8 6.8Zm-3.1-14.5l87.2-107.3a4 4 0 0 1 6.2 0l87.2 107.3a3.8 3.8 0 0 1 .5 4.2a4 4 0 0 1-3.6 2.3H40.8a4 4 0 0 1-3.6-2.3a3.8 3.8 0 0 1 .5-4.2ZM228 208a4 4 0 0 1-4 4H32a4 4 0 0 1 0-8h192a4 4 0 0 1 4 4Z"></path></svg>