<svg xmlns="http://www.w3.org/2000/svg" xmlns:xlink="http://www.w3.org/1999/xlink" aria-hidden="true" role="img" class="iconify iconify--ph" width="1em" height="1em" preserveAspectRatio="xMidYMid meet" viewBox="0 0 256 256"><path fill="currentColor" d="M50.3 144h155.4a16 16 0 0 0 11.8-26.9l-77.7-84.2a16.2 16.2 0 0 0-23.6 0l-77.7 84.2A16 16 0 0 0 50.3 144ZM128 43.8l77.7 84.2H50.3ZM208 160H48a16 16 0 0 0-16 16v24a16 16 0 0 0 16 16h160a16 16 0 0 0 16-16v-24a16 16 0 0 0-16-16Zm0 40H48v-24h160Z"></path></svg>