<svg xmlns="http://www.w3.org/2000/svg" xmlns:xlink="http://www.w3.org/1999/xlink" aria-hidden="true" role="img" class="iconify iconify--ph" width="1em" height="1em" preserveAspectRatio="xMidYMid meet" viewBox="0 0 256 256"><path fill="currentColor" d="M215.2 160H40.8a8 8 0 0 1-6.2-13l87.2-107.4a8 8 0 0 1 12.4 0L221.4 147a8 8 0 0 1-6.2 13Z" opacity=".2"></path><path fill="currentColor" d="M40.8 168h174.4a16 16 0 0 0 12.4-26.1L140.4 34.6a16 16 0 0 0-24.8 0L28.4 141.9A16 16 0 0 0 40.8 168ZM128 44.7L215.2 152H40.8ZM232 208a8 8 0 0 1-8 8H32a8 8 0 0 1 0-16h192a8 8 0 0 1 8 8Z"></path></svg>