<svg xmlns="http://www.w3.org/2000/svg" xmlns:xlink="http://www.w3.org/1999/xlink" aria-hidden="true" role="img" class="iconify iconify--ph" width="1em" height="1em" preserveAspectRatio="xMidYMid meet" viewBox="0 0 256 256"><path fill="currentColor" d="M224 44H32a12 12 0 0 0-12 12v136a20.1 20.1 0 0 0 20 20h176a20.1 20.1 0 0 0 20-20V56a12 12 0 0 0-12-12Zm-86.5 75l-9.5 8.7L62.8 68h130.4Zm-44.7 9L44 172.7V83.3Zm17.7 16.3l9.4 8.5a11.9 11.9 0 0 0 16.2 0l9.4-8.5l47.7 43.7H62.8Zm52.7-16.3L212 83.3v89.4Z"></path></svg>