<svg xmlns="http://www.w3.org/2000/svg" xmlns:xlink="http://www.w3.org/1999/xlink" aria-hidden="true" role="img" class="iconify iconify--ph" width="1em" height="1em" preserveAspectRatio="xMidYMid meet" viewBox="0 0 256 256"><path fill="currentColor" d="m224 96l-78.5 56h-35L32 96l96-64Z" opacity=".2"></path><path fill="currentColor" d="m228.4 89.3l-96-64a8.2 8.2 0 0 0-8.8 0l-96 64A7.9 7.9 0 0 0 24 96v104a16 16 0 0 0 16 16h176a16 16 0 0 0 16-16V96a7.9 7.9 0 0 0-3.6-6.7ZM40 111.5L96.7 152L40 192Zm73.1 48.5h29.8l56.6 40h-143Zm46.2-8l56.7-40.5V192ZM128 41.6l81.9 54.6l-67 47.8h-29.8l-67-47.8Z"></path></svg>