<svg xmlns="http://www.w3.org/2000/svg" xmlns:xlink="http://www.w3.org/1999/xlink" aria-hidden="true" role="img" class="iconify iconify--ph" width="1em" height="1em" preserveAspectRatio="xMidYMid meet" viewBox="0 0 256 256"><path fill="currentColor" d="m226.2 92.7l-96-64a3.9 3.9 0 0 0-4.4 0l-96 64A4 4 0 0 0 28 96v104a12 12 0 0 0 12 12h176a12 12 0 0 0 12-12V96a4 4 0 0 0-1.8-3.3ZM128 36.8l89 59.3l-72.8 51.9h-32.4L39 96.1ZM216 204H40a4 4 0 0 1-4-4v-96.2l72.2 51.5a4.8 4.8 0 0 0 2.3.7h35a4.8 4.8 0 0 0 2.3-.7l72.2-51.5V200a4 4 0 0 1-4 4Z"></path></svg>