<svg xmlns="http://www.w3.org/2000/svg" xmlns:xlink="http://www.w3.org/1999/xlink" aria-hidden="true" role="img" class="iconify iconify--ph" width="1em" height="1em" preserveAspectRatio="xMidYMid meet" viewBox="0 0 256 256"><path fill="currentColor" d="m227.3 91l-96-64a6.1 6.1 0 0 0-6.6 0l-96 64a6 6 0 0 0-2.7 5v104a14 14 0 0 0 14 14h176a14 14 0 0 0 14-14V96a6 6 0 0 0-2.7-5ZM128 39.2l85.4 57l-69.9 49.8h-31L42.6 96.2ZM216 202H40a2 2 0 0 1-2-2v-92.4l69.1 49.3a6 6 0 0 0 3.4 1.1h35a6 6 0 0 0 3.4-1.1l69.1-49.3V200a2 2 0 0 1-2 2Z"></path></svg>