<svg xmlns="http://www.w3.org/2000/svg" xmlns:xlink="http://www.w3.org/1999/xlink" aria-hidden="true" role="img" class="iconify iconify--ph" width="1em" height="1em" preserveAspectRatio="xMidYMid meet" viewBox="0 0 256 256"><path fill="currentColor" d="m230.7 86l-96-64a12.1 12.1 0 0 0-13.4 0l-96 64A12.1 12.1 0 0 0 20 96v104a20.1 20.1 0 0 0 20 20h176a20.1 20.1 0 0 0 20-20V96a12.1 12.1 0 0 0-5.3-10ZM128 46.4l74.9 49.9l-61.3 43.7h-27.2L53.1 96.3ZM44 196v-76.7l59.6 42.5a12 12 0 0 0 6.9 2.2h35a12 12 0 0 0 6.9-2.2l59.6-42.5V196Z"></path></svg>