<svg xmlns="http://www.w3.org/2000/svg" xmlns:xlink="http://www.w3.org/1999/xlink" aria-hidden="true" role="img" class="iconify iconify--ph" width="1em" height="1em" preserveAspectRatio="xMidYMid meet" viewBox="0 0 256 256"><path fill="currentColor" d="m227.3 91l-96-64a6.1 6.1 0 0 0-6.6 0l-96 64a6 6 0 0 0-2.7 5v104a14 14 0 0 0 14 14h176a14 14 0 0 0 14-14V96a6 6 0 0 0-2.7-5Zm-127.1 61L38 195.9v-88.3Zm12.3 6h31l62.3 44H50.2Zm43.3-6l62.2-44.4v88.3ZM128 39.2l85.4 57l-69.9 49.8h-31L42.6 96.2Z"></path></svg>