<svg xmlns="http://www.w3.org/2000/svg" xmlns:xlink="http://www.w3.org/1999/xlink" aria-hidden="true" role="img" class="iconify iconify--ph" width="1em" height="1em" preserveAspectRatio="xMidYMid meet" viewBox="0 0 256 256"><path fill="currentColor" d="M84 96a8 8 0 0 1-8 8H36a8 8 0 0 1 0-16h40a8 8 0 0 1 8 8Zm-8 24H36a8 8 0 0 0 0 16h40a8 8 0 0 0 0-16Zm0 32H36a8 8 0 0 0 0 16h40a8 8 0 0 0 0-16Zm0 32H36a8 8 0 0 0 0 16h40a8 8 0 0 0 0-16Zm72-64h-40a8 8 0 0 0 0 16h40a8 8 0 0 0 0-16Zm0 32h-40a8 8 0 0 0 0 16h40a8 8 0 0 0 0-16Zm0 32h-40a8 8 0 0 0 0 16h40a8 8 0 0 0 0-16Zm72-96h-40a8 8 0 0 0 0 16h40a8 8 0 0 0 0-16Zm-40-16h40a8 8 0 0 0 0-16h-40a8 8 0 0 0 0 16Zm40 48h-40a8 8 0 0 0 0 16h40a8 8 0 0 0 0-16Zm0 32h-40a8 8 0 0 0 0 16h40a8 8 0 0 0 0-16Zm0 32h-40a8 8 0 0 0 0 16h40a8 8 0 0 0 0-16Z"></path></svg>