<svg xmlns="http://www.w3.org/2000/svg" xmlns:xlink="http://www.w3.org/1999/xlink" aria-hidden="true" role="img" class="iconify iconify--ph" width="1em" height="1em" preserveAspectRatio="xMidYMid meet" viewBox="0 0 256 256"><path fill="currentColor" d="M82 96a6 6 0 0 1-6 6H36a6 6 0 0 1 0-12h40a6 6 0 0 1 6 6Zm-6 26H36a6 6 0 0 0 0 12h40a6 6 0 0 0 0-12Zm0 32H36a6 6 0 0 0 0 12h40a6 6 0 0 0 0-12Zm0 32H36a6 6 0 0 0 0 12h40a6 6 0 0 0 0-12Zm72-64h-40a6 6 0 0 0 0 12h40a6 6 0 0 0 0-12Zm0 32h-40a6 6 0 0 0 0 12h40a6 6 0 0 0 0-12Zm0 32h-40a6 6 0 0 0 0 12h40a6 6 0 0 0 0-12Zm72-96h-40a6 6 0 0 0 0 12h40a6 6 0 0 0 0-12Zm-40-20h40a6 6 0 0 0 0-12h-40a6 6 0 0 0 0 12Zm40 52h-40a6 6 0 0 0 0 12h40a6 6 0 0 0 0-12Zm0 32h-40a6 6 0 0 0 0 12h40a6 6 0 0 0 0-12Zm0 32h-40a6 6 0 0 0 0 12h40a6 6 0 0 0 0-12Z"></path></svg>