<svg xmlns="http://www.w3.org/2000/svg" xmlns:xlink="http://www.w3.org/1999/xlink" aria-hidden="true" role="img" class="iconify iconify--ph" width="1em" height="1em" preserveAspectRatio="xMidYMid meet" viewBox="0 0 256 256"><path fill="currentColor" d="M84 108a12 12 0 0 1-12 12H36a12 12 0 0 1 0-24h36a12 12 0 0 1 12 12Zm-12 28H36a12 12 0 0 0 0 24h36a12 12 0 0 0 0-24Zm0 44H36a12 12 0 0 0 0 24h36a12 12 0 0 0 0-24Zm74-44h-36a12 12 0 0 0 0 24h36a12 12 0 0 0 0-24Zm0 44h-36a12 12 0 0 0 0 24h36a12 12 0 0 0 0-24Zm38-100h36a12 12 0 0 0 0-24h-36a12 12 0 0 0 0 24Zm36 16h-36a12 12 0 0 0 0 24h36a12 12 0 0 0 0-24Zm0 40h-36a12 12 0 0 0 0 24h36a12 12 0 0 0 0-24Zm0 40h-36a12 12 0 0 0 0 24h36a12 12 0 0 0 0-24Z"></path></svg>