<svg xmlns="http://www.w3.org/2000/svg" xmlns:xlink="http://www.w3.org/1999/xlink" aria-hidden="true" role="img" class="iconify iconify--ph" width="1em" height="1em" preserveAspectRatio="xMidYMid meet" viewBox="0 0 256 256"><path fill="currentColor" d="M80 96a4 4 0 0 1-4 4H36a4 4 0 0 1 0-8h40a4 4 0 0 1 4 4Zm-4 28H36a4 4 0 0 0 0 8h40a4 4 0 0 0 0-8Zm0 32H36a4 4 0 0 0 0 8h40a4 4 0 0 0 0-8Zm0 32H36a4 4 0 0 0 0 8h40a4 4 0 0 0 0-8Zm72-64h-40a4 4 0 0 0 0 8h40a4 4 0 0 0 0-8Zm0 32h-40a4 4 0 0 0 0 8h40a4 4 0 0 0 0-8Zm0 32h-40a4 4 0 0 0 0 8h40a4 4 0 0 0 0-8Zm72-96h-40a4 4 0 0 0 0 8h40a4 4 0 0 0 0-8Zm-40-24h40a4 4 0 0 0 0-8h-40a4 4 0 0 0 0 8Zm40 56h-40a4 4 0 0 0 0 8h40a4 4 0 0 0 0-8Zm0 32h-40a4 4 0 0 0 0 8h40a4 4 0 0 0 0-8Zm0 32h-40a4 4 0 0 0 0 8h40a4 4 0 0 0 0-8Z"></path></svg>