<svg xmlns="http://www.w3.org/2000/svg" xmlns:xlink="http://www.w3.org/1999/xlink" aria-hidden="true" role="img" class="iconify iconify--ph" width="1em" height="1em" preserveAspectRatio="xMidYMid meet" viewBox="0 0 256 256"><path fill="currentColor" d="M216 203.8h-76l27.9-27.9l56.6-56.6a27.9 27.9 0 0 0 0-39.5l-45.3-45.3a28.1 28.1 0 0 0-39.6 0L83.1 91.1l-56.6 56.5a28.1 28.1 0 0 0 0 39.6l37.1 37.1a11.7 11.7 0 0 0 8.5 3.5H216a12 12 0 0 0 0-24ZM156.6 51.5a4 4 0 0 1 5.7 0l45.2 45.2a4 4 0 0 1 0 5.7l-48.1 48.1l-50.9-51Zm-50.5 152.3H77l-33.5-33.5a4 4 0 0 1 0-5.7l48.1-48.1l50.9 50.9Z"></path></svg>