<svg xmlns="http://www.w3.org/2000/svg" xmlns:xlink="http://www.w3.org/1999/xlink" aria-hidden="true" role="img" class="iconify iconify--ph" width="1em" height="1em" preserveAspectRatio="xMidYMid meet" viewBox="0 0 256 256"><path fill="currentColor" d="M216 211.8h-95.3l98.1-98.1a20 20 0 0 0 0-28.3l-45.2-45.2a20 20 0 0 0-28.3 0L88.7 96.7l-56.5 56.6a20 20 0 0 0 0 28.3l37 37.1a4.4 4.4 0 0 0 2.9 1.1H216a4 4 0 0 0 0-8Zm-65.1-166a12 12 0 0 1 17 0l45.3 45.3a11.9 11.9 0 0 1 0 16.9l-53.8 53.8l-62.2-62.3Zm-41.5 166H73.7l-35.9-35.9a12 12 0 0 1 0-17l53.8-53.7l62.2 62.2Z"></path></svg>