<svg xmlns="http://www.w3.org/2000/svg" xmlns:xlink="http://www.w3.org/1999/xlink" aria-hidden="true" role="img" class="iconify iconify--ph" width="1em" height="1em" preserveAspectRatio="xMidYMid meet" viewBox="0 0 256 256"><path fill="currentColor" d="m100 113.9l11.1 22.1H88.9ZM232 56v160a7.9 7.9 0 0 1-3.8 6.8a8 8 0 0 1-7.8.4L192 208.9l-28.4 14.3a8.5 8.5 0 0 1-7.2 0L128 208.9l-28.4 14.3a8.3 8.3 0 0 1-7.2 0L64 208.9l-28.4 14.3a8 8 0 0 1-7.8-.4A7.9 7.9 0 0 1 24 216V56a16 16 0 0 1 16-16h176a16 16 0 0 1 16 16Zm-92.8 100.4l-32-64a8.1 8.1 0 0 0-14.4 0l-32 64a8 8 0 0 0 14.4 7.2l5.7-11.6h38.2l5.7 11.6a8.1 8.1 0 0 0 7.2 4.4a9.4 9.4 0 0 0 3.6-.8a8.2 8.2 0 0 0 3.6-10.8ZM204 128a8 8 0 0 0-8-8h-12v-12a8 8 0 0 0-16 0v12h-12a8 8 0 0 0 0 16h12v12a8 8 0 0 0 16 0v-12h12a8 8 0 0 0 8-8Z"></path></svg>