<svg xmlns="http://www.w3.org/2000/svg" xmlns:xlink="http://www.w3.org/1999/xlink" aria-hidden="true" role="img" class="iconify iconify--ph" width="1em" height="1em" preserveAspectRatio="xMidYMid meet" viewBox="0 0 256 256"><path fill="currentColor" d="M216 40H40a16 16 0 0 0-16 16v160a7.9 7.9 0 0 0 3.8 6.8a8 8 0 0 0 7.8.4L64 208.9l28.4 14.3a8.3 8.3 0 0 0 7.2 0l28.4-14.3l28.4 14.3a8.5 8.5 0 0 0 7.2 0l28.4-14.3l28.4 14.3a8 8 0 0 0 7.8-.4a7.9 7.9 0 0 0 3.8-6.8V56a16 16 0 0 0-16-16Zm0 163.1l-20.4-10.3a8.3 8.3 0 0 0-7.2 0L160 207.1l-28.4-14.3a8.5 8.5 0 0 0-7.2 0L96 207.1l-28.4-14.3a8.3 8.3 0 0 0-7.2 0L40 203.1V56h176ZM68.4 167.2a8.2 8.2 0 0 0 10.8-3.6l5.7-11.6h38.2l5.7 11.6a8.1 8.1 0 0 0 7.2 4.4a9.4 9.4 0 0 0 3.6-.8a8.2 8.2 0 0 0 3.6-10.8l-32-64a8.1 8.1 0 0 0-14.4 0l-32 64a8.2 8.2 0 0 0 3.6 10.8Zm35.6-53.3l11.1 22.1H92.9Zm40 14.1a8 8 0 0 1 8-8h12v-12a8 8 0 0 1 16 0v12h12a8 8 0 0 1 0 16h-12v12a8 8 0 0 1-16 0v-12h-12a8 8 0 0 1-8-8Z"></path></svg>