<svg xmlns="http://www.w3.org/2000/svg" xmlns:xlink="http://www.w3.org/1999/xlink" aria-hidden="true" role="img" class="iconify iconify--ph" width="1em" height="1em" preserveAspectRatio="xMidYMid meet" viewBox="0 0 256 256"><path fill="currentColor" d="M83.2 60.8a3.9 3.9 0 0 1 0-5.6l42-42a3.9 3.9 0 0 1 5.6 0l42 42a3.9 3.9 0 0 1 0 5.6a3.9 3.9 0 0 1-5.6 0L132 25.7V128a4 4 0 0 1-8 0V25.7L88.8 60.8a3.9 3.9 0 0 1-5.6 0ZM200 92h-24a4 4 0 0 0 0 8h24a4 4 0 0 1 4 4v104a4 4 0 0 1-4 4H56a4 4 0 0 1-4-4V104a4 4 0 0 1 4-4h24a4 4 0 0 0 0-8H56a12 12 0 0 0-12 12v104a12 12 0 0 0 12 12h144a12 12 0 0 0 12-12V104a12 12 0 0 0-12-12Z"></path></svg>