<svg xmlns="http://www.w3.org/2000/svg" xmlns:xlink="http://www.w3.org/1999/xlink" aria-hidden="true" role="img" class="iconify iconify--ph" width="1em" height="1em" preserveAspectRatio="xMidYMid meet" viewBox="0 0 256 256"><path fill="currentColor" d="M81.8 62.2a5.9 5.9 0 0 1 0-8.5l42-41.9a5.8 5.8 0 0 1 8.4 0l42 41.9a5.9 5.9 0 0 1 0 8.5a5.8 5.8 0 0 1-8.4 0L134 30.5V128a6 6 0 0 1-12 0V30.5L90.2 62.2a5.8 5.8 0 0 1-8.4 0ZM200 90h-24a6 6 0 0 0 0 12h24a2 2 0 0 1 2 2v104a2 2 0 0 1-2 2H56a2 2 0 0 1-2-2V104a2 2 0 0 1 2-2h24a6 6 0 0 0 0-12H56a14 14 0 0 0-14 14v104a14 14 0 0 0 14 14h144a14 14 0 0 0 14-14V104a14 14 0 0 0-14-14Z"></path></svg>