<svg xmlns="http://www.w3.org/2000/svg" xmlns:xlink="http://www.w3.org/1999/xlink" aria-hidden="true" role="img" class="iconify iconify--ph" width="1em" height="1em" preserveAspectRatio="xMidYMid meet" viewBox="0 0 256 256"><path fill="currentColor" d="M136 88h-16V35.3L91.7 63.6a8 8 0 0 1-11.4-11.3l42-42a8.1 8.1 0 0 1 11.4 0l42 42a8 8 0 0 1 0 11.3a8 8 0 0 1-11.4 0L136 35.3Zm64 0h-64v40a8 8 0 0 1-16 0V88H56a16 16 0 0 0-16 16v104a16 16 0 0 0 16 16h144a16 16 0 0 0 16-16V104a16 16 0 0 0-16-16Z"></path></svg>