<svg xmlns="http://www.w3.org/2000/svg" xmlns:xlink="http://www.w3.org/1999/xlink" aria-hidden="true" role="img" class="iconify iconify--ph" width="1em" height="1em" preserveAspectRatio="xMidYMid meet" viewBox="0 0 256 256"><path fill="currentColor" d="M234.4 160.8a12 12 0 0 1-10.4 18a11.8 11.8 0 0 1-10.4-6l-16.3-28.2a126 126 0 0 1-29.4 13.5l5.2 29.4a11.9 11.9 0 0 1-9.7 13.9l-2.1.2a12 12 0 0 1-11.8-9.9l-5.1-28.7a123.5 123.5 0 0 1-16.4 1a146.3 146.3 0 0 1-16.5-1l-5.1 28.7a12 12 0 0 1-11.8 9.9l-2.1-.2a11.9 11.9 0 0 1-9.7-13.9l5.2-29.4a125.3 125.3 0 0 1-29.3-13.5L42.3 173a12.1 12.1 0 0 1-10.4 6a11.7 11.7 0 0 1-6-1.6a12 12 0 0 1-4.4-16.4l17.9-31a142.4 142.4 0 0 1-16.7-17.6a12 12 0 1 1 18.6-15.1C57.1 116.8 84.9 140 128 140s70.9-23.2 86.7-42.7a12 12 0 1 1 18.6 15.1a150.3 150.3 0 0 1-16.7 17.7Z"></path></svg>