<svg xmlns="http://www.w3.org/2000/svg" xmlns:xlink="http://www.w3.org/1999/xlink" aria-hidden="true" role="img" class="iconify iconify--ph" width="1em" height="1em" preserveAspectRatio="xMidYMid meet" viewBox="0 0 256 256"><path fill="currentColor" d="M128 56c-80 0-112 72-112 72s32 72 112 72s112-72 112-72s-32-72-112-72Zm0 112a40 40 0 1 1 40-40a40 40 0 0 1-40 40Z" opacity=".2"></path><path fill="currentColor" d="M53.9 34.6a8 8 0 0 0-11.8 10.8l19.2 21.1C25 88.8 9.4 123.2 8.7 124.8a7.9 7.9 0 0 0 0 6.4c.3.8 8.8 19.6 27.6 38.5c25.1 25 56.8 38.3 91.7 38.3a128.6 128.6 0 0 0 52.1-10.8l22 24.2a8 8 0 0 0 5.9 2.6a8.2 8.2 0 0 0 5.4-2.1a7.9 7.9 0 0 0 .5-11.3Zm47.3 75.9l41.7 45.8A31.6 31.6 0 0 1 128 160a32 32 0 0 1-26.8-49.5ZM128 192c-30.8 0-57.7-11.2-79.9-33.3A131.5 131.5 0 0 1 24.9 128c4.7-8.8 19.7-33.4 47.4-49.4l18 19.8a48 48 0 0 0 63.6 70l14.7 16.2A112.1 112.1 0 0 1 128 192Zm119.3-67.2c-.3-.8-8.8-19.6-27.6-38.5C194.6 61.3 162.9 48 128 48a132.4 132.4 0 0 0-22 1.8a8 8 0 0 0-6.6 9.2a8.1 8.1 0 0 0 9.2 6.6A112.9 112.9 0 0 1 128 64c30.8 0 57.7 11.2 79.9 33.2A130.3 130.3 0 0 1 231 128a132.6 132.6 0 0 1-27.7 35.1a8 8 0 0 0-.6 11.3a7.6 7.6 0 0 0 5.9 2.7a8.1 8.1 0 0 0 5.3-2c22.9-20.5 33-42.9 33.4-43.9a7.9 7.9 0 0 0 0-6.4Z"></path><path fill="currentColor" d="M159.9 125a7.9 7.9 0 0 0 7.9 7.2h.8a8 8 0 0 0 7.2-8.7A48.3 48.3 0 0 0 137 80.8a8 8 0 0 0-3 15.8a32.2 32.2 0 0 1 25.9 28.4Z"></path></svg>