<svg xmlns="http://www.w3.org/2000/svg" xmlns:xlink="http://www.w3.org/1999/xlink" aria-hidden="true" role="img" class="iconify iconify--ph" width="1em" height="1em" preserveAspectRatio="xMidYMid meet" viewBox="0 0 256 256"><path fill="currentColor" d="M51 37.3a4 4 0 1 0-6 5.4l22.6 24.8C29.3 88.9 13 124.8 12.3 126.4a4.4 4.4 0 0 0 0 3.2c.4.8 8.6 18.9 26.9 37.2S85.3 204 128 204a122.4 122.4 0 0 0 53.1-11.7l23.9 26.4a4.1 4.1 0 0 0 5.7.3a4.2 4.2 0 0 0 .3-5.7Zm98.1 119.9a36 36 0 0 1-48.1-53ZM128 196c-32 0-59.9-11.7-83-34.6A138.7 138.7 0 0 1 20.4 128c3.7-7.2 20.1-36.8 52.7-54.4l22.5 24.7A43.9 43.9 0 0 0 128 172a43.6 43.6 0 0 0 26.5-8.9l20.9 23A114.4 114.4 0 0 1 128 196Zm115.7-66.4a141.3 141.3 0 0 1-32.4 42.5a3.9 3.9 0 0 1-2.7 1a4.3 4.3 0 0 1-3-1.3a4.2 4.2 0 0 1 .3-5.7a136.4 136.4 0 0 0 29.7-38.1A136.8 136.8 0 0 0 211 94.6c-23.1-23-51-34.6-83-34.6a119.1 119.1 0 0 0-20 1.6a3.9 3.9 0 0 1-4.6-3.3a4 4 0 0 1 3.3-4.6A135.1 135.1 0 0 1 128 52c42.7 0 71.9 20.2 88.8 37.2s26.5 36.4 26.9 37.2a4.4 4.4 0 0 1 0 3.2Zm-108.9-37a4 4 0 0 1-3.2-4.6a4 4 0 0 1 4.7-3.2a44.1 44.1 0 0 1 35.5 39.1a3.9 3.9 0 0 1-3.6 4.3h-.4a4 4 0 0 1-4-3.6a36.1 36.1 0 0 0-29-32Z"></path></svg>