<svg xmlns="http://www.w3.org/2000/svg" xmlns:xlink="http://www.w3.org/1999/xlink" aria-hidden="true" role="img" class="iconify iconify--ph" width="1em" height="1em" preserveAspectRatio="xMidYMid meet" viewBox="0 0 256 256"><path fill="currentColor" d="M228 67.4a40.1 40.1 0 0 0-12.5-28.5c-15.6-14.7-40.8-14.2-56.2 1.2l-19.4 19.5a27.9 27.9 0 0 0-35.7 3.2l-7 7.1a19.9 19.9 0 0 0-.8 27.4l-47.5 47.6A44.2 44.2 0 0 0 36.6 183l-9.3 21.3a17.5 17.5 0 0 0 3.7 19.6a19.6 19.6 0 0 0 14.1 5.9a18.9 18.9 0 0 0 8-1.7l19.9-8.7a44.2 44.2 0 0 0 38.1-12.3l47.6-47.5a19.8 19.8 0 0 0 27.4-.8l7.1-7a27.9 27.9 0 0 0 3.2-35.7l19.9-19.8A40 40 0 0 0 228 67.4ZM136.3 148H79.7l33.7-33.7l28.3 28.3Zm-42.2 42.1a19.7 19.7 0 0 1-19.3 5.2a11.9 11.9 0 0 0-7.9.6l-12.1 5.3l5.3-12.1a11.9 11.9 0 0 0 .6-7.9a20.5 20.5 0 0 1-.3-9.2h51.9ZM199.3 79.3l-28 28a12 12 0 0 0 0 17l4.9 4.9a3.9 3.9 0 0 1 0 5.6L172 139l-55-55l4.2-4.2a3.9 3.9 0 0 1 5.6 0l4.9 4.9a12 12 0 0 0 17 0l27.6-27.6c6.3-6.3 16.5-6.6 22.7-.7a15.9 15.9 0 0 1 .3 22.9Z"></path></svg>