<svg xmlns="http://www.w3.org/2000/svg" xmlns:xlink="http://www.w3.org/1999/xlink" aria-hidden="true" role="img" class="iconify iconify--ph" width="1em" height="1em" preserveAspectRatio="xMidYMid meet" viewBox="0 0 256 256"><path fill="currentColor" d="M222 67.5a33.8 33.8 0 0 0-10.6-24.2c-13.3-12.5-34.7-12.1-47.9 1.1l-23.3 23.3l-.6-.6a22.1 22.1 0 0 0-31.2 0l-7 7a14.1 14.1 0 0 0 0 19.8l3.5 3.5l-51.8 51.7a38.3 38.3 0 0 0-10.3 34.6l-10 23a11.6 11.6 0 0 0 2.4 13a14 14 0 0 0 9.9 4.1a13.8 13.8 0 0 0 5.6-1.2l21.6-9.4a38.3 38.3 0 0 0 34.6-10.3l51.7-51.8l3.5 3.5a14 14 0 0 0 19.8 0l7-7a22.1 22.1 0 0 0 0-31.2l-.6-.6L212 92a33.5 33.5 0 0 0 10-24.5ZM98.4 194.4a26.2 26.2 0 0 1-25.1 6.7a6.9 6.9 0 0 0-4 .3l-23.4 10.2a2 2 0 0 1-2.1-.3l10.8-24.6a6.9 6.9 0 0 0 .3-4A25.8 25.8 0 0 1 56 166h70.8Zm40.4-40.4H65.2l48.2-48.1l36.7 36.7Zm64.8-70.4l-28 28a5.8 5.8 0 0 0 0 8.4l4.8 4.9a10.1 10.1 0 0 1 0 14.2l-7 7a1.9 1.9 0 0 1-2.8 0l-60.7-60.7a1.9 1.9 0 0 1 0-2.8l7-7a9.9 9.9 0 0 1 14.2 0l4.9 4.8a5.8 5.8 0 0 0 8.4 0L172 52.9c8.6-8.6 22.5-9 31.1-.9a21.7 21.7 0 0 1 6.9 15.7a22 22 0 0 1-6.4 15.9Z"></path></svg>