<svg xmlns="http://www.w3.org/2000/svg" xmlns:xlink="http://www.w3.org/1999/xlink" aria-hidden="true" role="img" class="iconify iconify--ph" width="1em" height="1em" preserveAspectRatio="xMidYMid meet" viewBox="0 0 256 256"><path fill="currentColor" d="M224 67.5a35.5 35.5 0 0 0-11.3-25.7c-14-13.2-36.7-12.7-50.6 1.2l-21.9 21.9a24.1 24.1 0 0 0-33.2.8l-7 7a16.1 16.1 0 0 0 0 22.6l2.1 2.1l-50.4 50.3a40.3 40.3 0 0 0-11 35.8l-9.8 22.4a13.6 13.6 0 0 0 2.9 15.2a15.8 15.8 0 0 0 11.3 4.7a16.3 16.3 0 0 0 6.4-1.3l21-9.2a40.3 40.3 0 0 0 35.8-11l50.3-50.4l2.1 2.1a15.9 15.9 0 0 0 22.6 0l7-7a24.1 24.1 0 0 0 .8-33.2l22.4-22.3a36.2 36.2 0 0 0 10.5-26ZM137.9 152H70.1l43.3-43.3l33.9 33.9Zm64.2-69.9l-28 28a8.1 8.1 0 0 0 0 11.4l4.9 4.8a8.1 8.1 0 0 1 0 11.4l-7 7L111.3 84l7-7a8 8 0 0 1 11.4 0l4.8 4.9a8.1 8.1 0 0 0 11.4 0l27.5-27.6c7.9-7.8 20.6-8.2 28.3-.8a19.7 19.7 0 0 1 6.3 14.2a19.4 19.4 0 0 1-5.9 14.4Z"></path></svg>