<svg xmlns="http://www.w3.org/2000/svg" xmlns:xlink="http://www.w3.org/1999/xlink" aria-hidden="true" role="img" class="iconify iconify--ph" width="1em" height="1em" preserveAspectRatio="xMidYMid meet" viewBox="0 0 256 256"><path fill="currentColor" d="M45.1 229.8a19.6 19.6 0 0 1-14.1-5.9a17.5 17.5 0 0 1-3.7-19.6l9.3-21.3a44.2 44.2 0 0 1 12.3-38.1l56-56a12 12 0 0 1 17 0a12.2 12.2 0 0 1 0 17l-56 56a19.7 19.7 0 0 0-5.2 19.3a11.9 11.9 0 0 1-.6 7.9l-5.3 12.1l12.1-5.3a11.9 11.9 0 0 1 7.9-.6a19.7 19.7 0 0 0 19.3-5.2l56-56a12.2 12.2 0 0 1 17 0a12 12 0 0 1 0 17l-56 56A44.2 44.2 0 0 1 73 219.4l-19.9 8.7a18.9 18.9 0 0 1-8 1.7Z"></path><path fill="currentColor" d="M172 164.7a19.7 19.7 0 0 1-14.1-5.9L97.2 98.1a19.9 19.9 0 0 1 0-28.2l15-15.1a27.9 27.9 0 0 1 35.7-3.2l11.4-11.5c15.4-15.4 40.6-15.9 56.2-1.2a40.1 40.1 0 0 1 .8 57.4l-11.9 11.8a27.9 27.9 0 0 1-3.2 35.7l-15.1 15a19.7 19.7 0 0 1-14.1 5.9ZM117 84l55 55l12.2-12.2a3.9 3.9 0 0 0 0-5.6l-4.9-4.9a12 12 0 0 1 0-17l20-20a15.9 15.9 0 0 0-.3-22.9c-6.2-5.9-16.4-5.6-22.7.7l-19.6 19.6a12.1 12.1 0 0 1-17 0l-4.9-4.9a3.9 3.9 0 0 0-5.6 0Z"></path></svg>