<svg xmlns="http://www.w3.org/2000/svg" xmlns:xlink="http://www.w3.org/1999/xlink" aria-hidden="true" role="img" class="iconify iconify--ph" width="1em" height="1em" preserveAspectRatio="xMidYMid meet" viewBox="0 0 256 256"><path fill="currentColor" d="M220 67.6a31.9 31.9 0 0 0-10-22.9c-12.5-11.7-32.7-11.3-45 1.1l-24.8 24.7l-2.1-2a19.9 19.9 0 0 0-28.2 0l-7.1 7a12.2 12.2 0 0 0 0 17l4.9 4.9l-53.2 53.1a36.2 36.2 0 0 0-9.6 33.4l-10.3 23.6a9.8 9.8 0 0 0 2 10.8a12 12 0 0 0 8.5 3.5a11.5 11.5 0 0 0 4.8-1l22.2-9.7a36.2 36.2 0 0 0 33.4-9.6l53.1-53.2l4.9 4.9a12.1 12.1 0 0 0 17 0l7-7.1a19.9 19.9 0 0 0 0-28.2l-2-2.1l25.1-25.2a31.5 31.5 0 0 0 9.4-23ZM99.8 195.8a28.4 28.4 0 0 1-27.1 7.3a3.9 3.9 0 0 0-2.6.1l-23.4 10.3a4 4 0 0 1-4.4-.9a1.7 1.7 0 0 1-.4-1.9l10.9-24.8a4.6 4.6 0 0 0 .2-2.6a27.8 27.8 0 0 1 1.7-19.3h76.9Zm39.8-39.8H60.4l53-53l39.6 39.6Zm37.4-43a3.9 3.9 0 0 0 0 5.6l4.9 4.9a12.2 12.2 0 0 1 0 17l-7.1 7a4 4 0 0 1-5.6 0l-60.7-60.7a3.9 3.9 0 0 1 0-5.6l7-7.1a12.1 12.1 0 0 1 17 0l4.9 4.9a3.9 3.9 0 0 0 5.6 0l27.6-27.6c9.3-9.3 24.5-9.7 33.9-.8A24 24 0 0 1 205 85Z"></path></svg>