<svg xmlns="http://www.w3.org/2000/svg" xmlns:xlink="http://www.w3.org/1999/xlink" aria-hidden="true" role="img" class="iconify iconify--ph" width="1em" height="1em" preserveAspectRatio="xMidYMid meet" viewBox="0 0 256 256"><path fill="currentColor" d="M232 72v92a44 44 0 0 1-87.8 4h-32.4a44 44 0 0 1-87.8-4V72a32.1 32.1 0 0 1 32-32a8 8 0 0 1 0 16a16 16 0 0 0-16 16v58.1a43.9 43.9 0 0 1 70.3 21.9h35.4a43.9 43.9 0 0 1 70.3-21.9V72a16 16 0 0 0-16-16a8 8 0 0 1 0-16a32.1 32.1 0 0 1 32 32Z"></path></svg>