<svg xmlns="http://www.w3.org/2000/svg" xmlns:xlink="http://www.w3.org/1999/xlink" aria-hidden="true" role="img" class="iconify iconify--ph" width="1em" height="1em" preserveAspectRatio="xMidYMid meet" viewBox="0 0 256 256"><path fill="currentColor" d="M200 36a12 12 0 0 0 0 24a12 12 0 0 1 12 12v50.5a47.8 47.8 0 0 0-69.2 25.5h-29.6A47.8 47.8 0 0 0 44 122.5V72a12 12 0 0 1 12-12a12 12 0 0 0 0-24a36 36 0 0 0-36 36v92a48 48 0 0 0 95.3 8h25.4a48 48 0 0 0 95.3-8V72a36 36 0 0 0-36-36ZM68 188a24 24 0 1 1 24-24a24.1 24.1 0 0 1-24 24Zm120 0a24 24 0 1 1 24-24a24.1 24.1 0 0 1-24 24Z"></path></svg>