<svg xmlns="http://www.w3.org/2000/svg" xmlns:xlink="http://www.w3.org/1999/xlink" aria-hidden="true" role="img" class="iconify iconify--ph" width="1em" height="1em" preserveAspectRatio="xMidYMid meet" viewBox="0 0 256 256"><path fill="currentColor" d="M200 42a6 6 0 0 0 0 12a18.1 18.1 0 0 1 18 18v62.6a42 42 0 0 0-70.8 19.4h-38.4A42 42 0 0 0 38 134.6V72a18.1 18.1 0 0 1 18-18a6 6 0 0 0 0-12a30.1 30.1 0 0 0-30 30v92a42 42 0 0 0 83.9 2h36.2a42 42 0 0 0 83.9-2V72a30.1 30.1 0 0 0-30-30ZM68 194a30 30 0 1 1 30-30a30.1 30.1 0 0 1-30 30Zm120 0a30 30 0 1 1 30-30a30.1 30.1 0 0 1-30 30Z"></path></svg>