<svg xmlns="http://www.w3.org/2000/svg" xmlns:xlink="http://www.w3.org/1999/xlink" aria-hidden="true" role="img" class="iconify iconify--ph" width="1em" height="1em" preserveAspectRatio="xMidYMid meet" viewBox="0 0 256 256"><path fill="currentColor" d="M200 40a8 8 0 0 0 0 16a16 16 0 0 1 16 16v58.1a43.9 43.9 0 0 0-70.3 21.9h-35.4A43.9 43.9 0 0 0 40 130.1V72a16 16 0 0 1 16-16a8 8 0 0 0 0-16a32.1 32.1 0 0 0-32 32v92a44 44 0 0 0 87.8 4h32.4a44 44 0 0 0 87.8-4V72a32.1 32.1 0 0 0-32-32ZM68 192a28 28 0 1 1 28-28a28.1 28.1 0 0 1-28 28Zm120 0a28 28 0 1 1 28-28a28.1 28.1 0 0 1-28 28Z"></path></svg>