<svg xmlns="http://www.w3.org/2000/svg" xmlns:xlink="http://www.w3.org/1999/xlink" aria-hidden="true" role="img" class="iconify iconify--ph" width="1em" height="1em" preserveAspectRatio="xMidYMid meet" viewBox="0 0 256 256"><path fill="currentColor" d="M176 112a8 8 0 0 1-8 8H88a8 8 0 0 1 0-16h80a8 8 0 0 1 8 8Zm-8 24H88a8 8 0 0 0 0 16h80a8 8 0 0 0 0-16Zm88-32v24a32.1 32.1 0 0 1-32 32h-5.2c-6.6 14.4-19.3 27-37.6 37.2c-21.1 11.7-43.6 17-49.9 18.3l-3.3.3l-3.3-.3c-6.3-1.3-28.8-6.6-49.9-18.3c-18.3-10.2-31-22.8-37.6-37.2H32a32.1 32.1 0 0 1-32-32v-24a32.1 32.1 0 0 1 32-32h1a16 16 0 0 1 9.5-9.4l80-29.1a16 16 0 0 1 11 0l80 29.1A16 16 0 0 1 223 72h1a32.1 32.1 0 0 1 32 32ZM32.6 144a52.9 52.9 0 0 1-.6-8V88a16 16 0 0 0-16 16v24a16 16 0 0 0 16 16Zm175.4-8V77.6l-80-29.1l-80 29.1V136c0 45.8 71.8 62.1 80 63.8c8.2-1.7 80-18 80-63.8Zm32-32a16 16 0 0 0-16-16v48a52.9 52.9 0 0 1-.6 8h.6a16 16 0 0 0 16-16Z"></path></svg>