<svg xmlns="http://www.w3.org/2000/svg" xmlns:xlink="http://www.w3.org/1999/xlink" aria-hidden="true" role="img" class="iconify iconify--ph" width="1em" height="1em" preserveAspectRatio="xMidYMid meet" viewBox="0 0 256 256"><path fill="currentColor" d="M120 176a12 12 0 0 1-12 12H80a12 12 0 0 1 0-24h28a12 12 0 0 1 12 12Zm56-12h-28a12 12 0 0 0 0 24h28a12 12 0 0 0 0-24Zm76 52a12 12 0 0 1-12 12H16a12 12 0 0 1 0-24h12V88a12 12 0 0 1 19.2-9.6L92 112V88a12 12 0 0 1 19.2-9.6l33.3 25l10.6-74.2A20.2 20.2 0 0 1 174.9 12h18.2a20.2 20.2 0 0 1 19.8 17.2l15 105.1v.2a1.3 1.3 0 0 0 .1.6V204h12a12 12 0 0 1 12 12Zm-85.6-96.2l5.6 4.2h30.2l-12.6-88h-11.2ZM52 204h152v-56h-36a11.8 11.8 0 0 1-7.2-2.4l-14.4-10.8L116 112v24a12 12 0 0 1-19.2 9.6L52 112Z"></path></svg>