<svg xmlns="http://www.w3.org/2000/svg" xmlns:xlink="http://www.w3.org/1999/xlink" aria-hidden="true" role="img" class="iconify iconify--ph" width="1em" height="1em" preserveAspectRatio="xMidYMid meet" viewBox="0 0 256 256"><path fill="currentColor" d="M240 208h-16v-72.5a.8.8 0 0 0-.1-.4l-15-105.2A16 16 0 0 0 193.1 16h-18.2a16 16 0 0 0-15.8 13.7l-11.6 81l-38.7-29.1A8 8 0 0 0 96 88v32L44.8 81.6A8 8 0 0 0 32 88v120H16a8 8 0 0 0 0 16h224a8 8 0 0 0 0-16Zm-140-24H72a8 8 0 0 1 0-16h28a8 8 0 0 1 0 16Zm84 0h-28a8 8 0 0 1 0-16h28a8 8 0 0 1 0 16Zm-13.3-56l-8.6-6.4L174.9 32h18.2l13.7 96Z"></path></svg>