<svg xmlns="http://www.w3.org/2000/svg" xmlns:xlink="http://www.w3.org/1999/xlink" aria-hidden="true" role="img" class="iconify iconify--ph" width="1em" height="1em" preserveAspectRatio="xMidYMid meet" viewBox="0 0 256 256"><path fill="currentColor" d="M216 136v80H40V88l64 48V88l64 48Z" opacity=".2"></path><path fill="currentColor" d="M116 176a8 8 0 0 1-8 8H80a8 8 0 0 1 0-16h28a8 8 0 0 1 8 8Zm60-8h-28a8 8 0 0 0 0 16h28a8 8 0 0 0 0-16Zm72 48a8 8 0 0 1-8 8H16a8 8 0 0 1 0-16h16V88a8 8 0 0 1 12.8-6.4L96 120V88a8 8 0 0 1 12.8-6.4l38.7 29.1l11.6-81A16 16 0 0 1 174.9 16h18.2a16 16 0 0 1 15.8 13.7l15 105.2a.8.8 0 0 1 .1.4v72.5h16a8 8 0 0 1 8 8.2Zm-85.9-94.4l8.6 6.4h36.1l-13.7-96h-18.2ZM48 208h160v-64h-40a8.4 8.4 0 0 1-4.8-1.6l-14.4-10.8L112 104v32a8 8 0 0 1-12.8 6.4L48 104Z"></path></svg>