<svg xmlns="http://www.w3.org/2000/svg" xmlns:xlink="http://www.w3.org/1999/xlink" aria-hidden="true" role="img" class="iconify iconify--ph" width="1em" height="1em" preserveAspectRatio="xMidYMid meet" viewBox="0 0 256 256"><path fill="currentColor" d="M114 176a6 6 0 0 1-6 6H80a6 6 0 0 1 0-12h28a6 6 0 0 1 6 6Zm62-6h-28a6 6 0 0 0 0 12h28a6 6 0 0 0 0-12Zm70 46a6 6 0 0 1-6 6H16a6 6 0 0 1 0-12h18V88a6 6 0 0 1 3.3-5.4a6 6 0 0 1 6.3.6L98 124V88a6 6 0 0 1 3.3-5.4a6 6 0 0 1 6.3.6l41.4 31.1L161.1 30a14.1 14.1 0 0 1 13.8-12h18.2a14.1 14.1 0 0 1 13.8 12l15 105.2a.4.4 0 0 1 .1.3v74.3h18a6 6 0 0 1 6 6.2Zm-86-93.5l10 7.5h39.1L195 31.7a1.9 1.9 0 0 0-1.9-1.7h-18.2a1.9 1.9 0 0 0-1.9 1.7ZM46 210h164v-68h-42a5.8 5.8 0 0 1-3.6-1.2L150 130l-40-30v36a6 6 0 0 1-3.3 5.4a6 6 0 0 1-6.3-.6L46 100Z"></path></svg>