<svg xmlns="http://www.w3.org/2000/svg" xmlns:xlink="http://www.w3.org/1999/xlink" aria-hidden="true" role="img" class="iconify iconify--ph" width="1em" height="1em" preserveAspectRatio="xMidYMid meet" viewBox="0 0 256 256"><path fill="currentColor" d="M112 176a4 4 0 0 1-4 4H80a4 4 0 0 1 0-8h28a4 4 0 0 1 4 4Zm64-4h-28a4 4 0 0 0 0 8h28a4 4 0 0 0 0-8Zm68 44a4 4 0 0 1-4 4H16a4 4 0 0 1 0-8h20V88a4.2 4.2 0 0 1 2.2-3.6a4 4 0 0 1 4.2.4L100 128V88a4.2 4.2 0 0 1 2.2-3.6a4 4 0 0 1 4.2.4l44.1 33.1l12.6-87.6A11.9 11.9 0 0 1 174.9 20h18.2a11.9 11.9 0 0 1 11.8 10.3L220 135.4V212h20a4 4 0 0 1 4 4Zm-86.2-92.6l11.5 8.6h42.1L197 31.4a4.1 4.1 0 0 0-3.9-3.4h-18.2a4.1 4.1 0 0 0-3.9 3.4ZM44 212h168v-72h-44a4.1 4.1 0 0 1-2.4-.8L108 96v40a4.2 4.2 0 0 1-2.2 3.6a4 4 0 0 1-4.2-.4L44 96Z"></path></svg>