<svg xmlns="http://www.w3.org/2000/svg" xmlns:xlink="http://www.w3.org/1999/xlink" aria-hidden="true" role="img" class="iconify iconify--ph" width="1em" height="1em" preserveAspectRatio="xMidYMid meet" viewBox="0 0 256 256"><path fill="currentColor" d="M140 172a4 4 0 0 1-4 4H40a4 4 0 0 1 0-8h96a4 4 0 0 1 4 4Zm76-4h-44v-20a4 4 0 0 0-8 0v48a4 4 0 0 0 8 0v-20h44a4 4 0 0 0 0-8ZM40 88h32a4 4 0 0 0 0-8H40a4 4 0 0 0 0 8Zm64 24a4 4 0 0 0 4-4V88h108a4 4 0 0 0 0-8H108V60a4 4 0 0 0-8 0v48a4 4 0 0 0 4 4Z"></path></svg>