<svg xmlns="http://www.w3.org/2000/svg" xmlns:xlink="http://www.w3.org/1999/xlink" aria-hidden="true" role="img" class="iconify iconify--ph" width="1em" height="1em" preserveAspectRatio="xMidYMid meet" viewBox="0 0 256 256"><path fill="currentColor" d="M144 172a8 8 0 0 1-8 8H40a8 8 0 0 1 0-16h96a8 8 0 0 1 8 8Zm72-8h-40v-16a8 8 0 0 0-16 0v48a8 8 0 0 0 16 0v-16h40a8 8 0 0 0 0-16ZM40 92h32a8 8 0 0 0 0-16H40a8 8 0 0 0 0 16Zm64 24a8 8 0 0 0 8-8V92h104a8 8 0 0 0 0-16H112V60a8 8 0 0 0-16 0v48a8 8 0 0 0 8 8Z"></path></svg>