<svg xmlns="http://www.w3.org/2000/svg" xmlns:xlink="http://www.w3.org/1999/xlink" aria-hidden="true" role="img" class="iconify iconify--ph" width="1em" height="1em" preserveAspectRatio="xMidYMid meet" viewBox="0 0 256 256"><path fill="currentColor" d="M144 172a12 12 0 0 1-12 12H40a12 12 0 0 1 0-24h92a12 12 0 0 1 12 12Zm72-12h-32v-12a12 12 0 0 0-24 0v48a12 12 0 0 0 24 0v-12h32a12 12 0 0 0 0-24ZM40 96h28a12 12 0 0 0 0-24H40a12 12 0 0 0 0 24Zm68 24a12 12 0 0 0 12-12V96h96a12 12 0 0 0 0-24h-96V60a12 12 0 0 0-24 0v48a12 12 0 0 0 12 12Z"></path></svg>