<svg xmlns="http://www.w3.org/2000/svg" xmlns:xlink="http://www.w3.org/1999/xlink" aria-hidden="true" role="img" class="iconify iconify--ph" width="1em" height="1em" preserveAspectRatio="xMidYMid meet" viewBox="0 0 256 256"><path fill="currentColor" d="M142 172a6 6 0 0 1-6 6H40a6 6 0 0 1 0-12h96a6 6 0 0 1 6 6Zm74-6h-42v-18a6 6 0 0 0-12 0v48a6 6 0 0 0 12 0v-18h42a6 6 0 0 0 0-12ZM40 90h32a6 6 0 0 0 0-12H40a6 6 0 0 0 0 12Zm64 24a6 6 0 0 0 6-6V90h106a6 6 0 0 0 0-12H110V60a6 6 0 0 0-12 0v48a6 6 0 0 0 6 6Z"></path></svg>