<svg xmlns="http://www.w3.org/2000/svg" xmlns:xlink="http://www.w3.org/1999/xlink" aria-hidden="true" role="img" class="iconify iconify--ph" width="1em" height="1em" preserveAspectRatio="xMidYMid meet" viewBox="0 0 256 256"><path fill="currentColor" d="m243.7 117.9l-89.2-57.3A11.9 11.9 0 0 0 136 70.7v52.1a11.3 11.3 0 0 0-4.3-4.9L42.5 60.6A11.9 11.9 0 0 0 24 70.7v114.6a12 12 0 0 0 6.2 10.6a12.2 12.2 0 0 0 5.8 1.5a11.8 11.8 0 0 0 6.5-2l89.2-57.3a11.3 11.3 0 0 0 4.3-4.9v52.1a12 12 0 0 0 6.2 10.6a12.2 12.2 0 0 0 5.8 1.5a11.8 11.8 0 0 0 6.5-2l89.2-57.3a12 12 0 0 0 0-20.2Zm-116.3 13.5l-89.2 57.3a4 4 0 0 1-4.1.2a4.2 4.2 0 0 1-2.1-3.6V70.7a4.2 4.2 0 0 1 2.1-3.6a4 4 0 0 1 1.9-.5a4 4 0 0 1 2.2.7l89.2 57.3a4.1 4.1 0 0 1 0 6.8Zm112 0l-89.2 57.3a4 4 0 0 1-4.1.2a4.2 4.2 0 0 1-2.1-3.6V70.7a4.2 4.2 0 0 1 2.1-3.6a4 4 0 0 1 1.9-.5a4 4 0 0 1 2.2.7l89.2 57.3a4.1 4.1 0 0 1 0 6.8Z"></path></svg>