<svg xmlns="http://www.w3.org/2000/svg" xmlns:xlink="http://www.w3.org/1999/xlink" aria-hidden="true" role="img" class="iconify iconify--ph" width="1em" height="1em" preserveAspectRatio="xMidYMid meet" viewBox="0 0 256 256"><path fill="currentColor" d="M128 28a100 100 0 1 0 100 100A100.2 100.2 0 0 0 128 28Zm0 192a92 92 0 1 1 92-92a92.1 92.1 0 0 1-92 92Zm6.2-95.3l-48-32a4 4 0 0 0-4.1-.2A3.9 3.9 0 0 0 80 96v64a3.9 3.9 0 0 0 2.1 3.5a4.5 4.5 0 0 0 1.9.5a3.6 3.6 0 0 0 2.2-.7l48-32a3.9 3.9 0 0 0 0-6.6ZM88 152.5v-49l36.8 24.5Zm102.2-27.8l-48-32a4 4 0 0 0-4.1-.2A3.9 3.9 0 0 0 136 96v64a3.9 3.9 0 0 0 2.1 3.5a4.5 4.5 0 0 0 1.9.5a3.6 3.6 0 0 0 2.2-.7l48-32a3.9 3.9 0 0 0 0-6.6ZM144 152.5v-49l36.8 24.5Z"></path></svg>