<svg xmlns="http://www.w3.org/2000/svg" xmlns:xlink="http://www.w3.org/1999/xlink" aria-hidden="true" role="img" class="iconify iconify--ph" width="1em" height="1em" preserveAspectRatio="xMidYMid meet" viewBox="0 0 256 256"><path fill="currentColor" d="m244 111.2l-89.2-57.4A20 20 0 0 0 124 70.7v32.7L46.8 53.8A20 20 0 0 0 16 70.7v114.6a20 20 0 0 0 10.4 17.6a20.4 20.4 0 0 0 9.6 2.4a19.9 19.9 0 0 0 10.8-3.1l77.2-49.6v32.7a20 20 0 0 0 10.4 17.6a20.4 20.4 0 0 0 9.6 2.4a19.9 19.9 0 0 0 10.8-3.1l89.2-57.4a19.9 19.9 0 0 0 0-33.6ZM40 178V78l77.8 50Zm108 0V78l77.8 50Z"></path></svg>