<svg xmlns="http://www.w3.org/2000/svg" xmlns:xlink="http://www.w3.org/1999/xlink" aria-hidden="true" role="img" class="iconify iconify--ph" width="1em" height="1em" preserveAspectRatio="xMidYMid meet" viewBox="0 0 256 256"><path fill="currentColor" d="m244.8 116.2l-89.2-57.3A14 14 0 0 0 134 70.7v46.4l-1.2-.9l-89.2-57.3A14 14 0 0 0 22 70.7v114.6a13.9 13.9 0 0 0 7.3 12.3a13.4 13.4 0 0 0 6.7 1.7a14 14 0 0 0 7.6-2.2l89.2-57.3l1.2-.9v46.4a13.9 13.9 0 0 0 7.3 12.3a13.4 13.4 0 0 0 6.7 1.7a14 14 0 0 0 7.6-2.2l89.2-57.3a14.1 14.1 0 0 0 0-23.6Zm-118.5 13.5L37.1 187a2 2 0 0 1-2.1.1a2.1 2.1 0 0 1-1-1.8V70.7a2.1 2.1 0 0 1 1-1.8a2.9 2.9 0 0 1 1-.3a1.9 1.9 0 0 1 1.1.4l89.2 57.3a2.1 2.1 0 0 1 0 3.4Zm112 0L149.1 187a2 2 0 0 1-2.1.1a2.1 2.1 0 0 1-1-1.8V70.7a2.1 2.1 0 0 1 1-1.8a2.9 2.9 0 0 1 1-.3a1.9 1.9 0 0 1 1.1.4l89.2 57.3a2.1 2.1 0 0 1 0 3.4Z"></path></svg>