<svg xmlns="http://www.w3.org/2000/svg" xmlns:xlink="http://www.w3.org/1999/xlink" aria-hidden="true" role="img" class="iconify iconify--ph" width="1em" height="1em" preserveAspectRatio="xMidYMid meet" viewBox="0 0 256 256"><path fill="currentColor" d="m241.5 134.7l-89.2 57.4a8 8 0 0 1-12.3-6.8V70.7a8 8 0 0 1 12.3-6.8l89.2 57.4a7.9 7.9 0 0 1 0 13.4Zm-112-13.4L40.3 63.9A8 8 0 0 0 28 70.7v114.6a8 8 0 0 0 12.3 6.8l89.2-57.4a7.9 7.9 0 0 0 0-13.4Z" opacity=".2"></path><path fill="currentColor" d="m245.9 114.5l-89.2-57.3A16 16 0 0 0 132 70.7v42.6L44.7 57.2A16 16 0 0 0 20 70.7v114.6a16.1 16.1 0 0 0 8.3 14.1a16.5 16.5 0 0 0 16.4-.6l87.3-56.1v42.6a16.1 16.1 0 0 0 8.3 14.1a16.5 16.5 0 0 0 16.4-.6l89.2-57.3a16.1 16.1 0 0 0 0-27ZM36 185.3V70.7l89.2 57.3Zm112 0V70.7l89.2 57.3Z"></path></svg>