<svg xmlns="http://www.w3.org/2000/svg" xmlns:xlink="http://www.w3.org/1999/xlink" aria-hidden="true" role="img" class="iconify iconify--ph" width="1em" height="1em" preserveAspectRatio="xMidYMid meet" viewBox="0 0 256 256"><path fill="currentColor" d="M128 24a104 104 0 1 0 104 104A104.2 104.2 0 0 0 128 24Zm56.6 110.6l-40 28a8.6 8.6 0 0 1-4.6 1.4a8 8 0 0 1-8-8v-28a8.2 8.2 0 0 1-3.4 6.6l-40 28A8.6 8.6 0 0 1 84 164a8 8 0 0 1-8-8v-56a8.1 8.1 0 0 1 4.3-7.1a8 8 0 0 1 8.3.5l40 28a8.2 8.2 0 0 1 3.4 6.6v-28a8.1 8.1 0 0 1 4.3-7.1a8 8 0 0 1 8.3.5l40 28a8.1 8.1 0 0 1 0 13.2Z"></path></svg>