<svg xmlns="http://www.w3.org/2000/svg" xmlns:xlink="http://www.w3.org/1999/xlink" aria-hidden="true" role="img" class="iconify iconify--ph" width="1em" height="1em" preserveAspectRatio="xMidYMid meet" viewBox="0 0 256 256"><path fill="currentColor" d="M183 94a40 40 0 0 0-21-74H94a40 40 0 0 0-21 74a39.9 39.9 0 0 0 0 68a40 40 0 1 0 61 34v-39.5A40 40 0 1 0 183 94Zm7-34a28.1 28.1 0 0 1-28 28h-28V32h28a28.1 28.1 0 0 1 28 28ZM66 60a28.1 28.1 0 0 1 28-28h28v56H94a28.1 28.1 0 0 1-28-28Zm0 68a28.1 28.1 0 0 1 28-28h28v56H94a28.1 28.1 0 0 1-28-28Zm28 96a28 28 0 0 1 0-56h28v28a28.1 28.1 0 0 1-28 28Zm68-68a28 28 0 0 1 0-56a28 28 0 0 1 0 56Z"></path></svg>