<svg xmlns="http://www.w3.org/2000/svg" xmlns:xlink="http://www.w3.org/1999/xlink" aria-hidden="true" role="img" class="iconify iconify--ph" width="1em" height="1em" preserveAspectRatio="xMidYMid meet" viewBox="0 0 256 256"><path fill="currentColor" d="M178.9 94A38 38 0 0 0 162 22H94a38 38 0 0 0-16.9 72a37.9 37.9 0 0 0 0 68a38 38 0 1 0 54.9 34v-44.7A38 38 0 1 0 178.9 94ZM192 60a30 30 0 0 1-30 30h-30V30h30a30.1 30.1 0 0 1 30 30Zm-53.3 38a42.5 42.5 0 0 0-6.7 6.7V98ZM64 60a30.1 30.1 0 0 1 30-30h30v60H94a30 30 0 0 1-30-30Zm30 166a30 30 0 0 1 0-60h30v30a30.1 30.1 0 0 1-30 30Zm30-68H94a30 30 0 0 1 0-60h30Zm38 0a30 30 0 0 1 0-60a30 30 0 0 1 0 60Z"></path></svg>