<svg xmlns="http://www.w3.org/2000/svg" xmlns:xlink="http://www.w3.org/1999/xlink" aria-hidden="true" role="img" class="iconify iconify--ph" width="1em" height="1em" preserveAspectRatio="xMidYMid meet" viewBox="0 0 256 256"><path fill="currentColor" d="m213.7 82.3l-56-56A8.1 8.1 0 0 0 152 24H56a16 16 0 0 0-16 16v88a8 8 0 0 0 16 0V40h88v48a8 8 0 0 0 8 8h48v120h-32a8 8 0 0 0 0 16h32a16 16 0 0 0 16-16V88a8.1 8.1 0 0 0-2.3-5.7ZM160 80V51.3L188.7 80Zm-56 72v72a7.9 7.9 0 0 1-4.6 7.2a6.8 6.8 0 0 1-3.4.8a7.5 7.5 0 0 1-5.1-1.9L69.1 212H48a8 8 0 0 1-8-8v-32a8 8 0 0 1 8-8h21.1l21.8-18.1a7.8 7.8 0 0 1 8.5-1.1a7.9 7.9 0 0 1 4.6 7.2Zm44 36a39.8 39.8 0 0 1-15 31.2a7.9 7.9 0 0 1-5 1.8a7.8 7.8 0 0 1-6.2-3a8.1 8.1 0 0 1 1.2-11.3a23.9 23.9 0 0 0 0-37.4a8 8 0 0 1 10-12.5a39.8 39.8 0 0 1 15 31.2Z"></path></svg>