<svg xmlns="http://www.w3.org/2000/svg" xmlns:xlink="http://www.w3.org/1999/xlink" aria-hidden="true" role="img" class="iconify iconify--ph" width="1em" height="1em" preserveAspectRatio="xMidYMid meet" viewBox="0 0 256 256"><path fill="currentColor" d="M216 88a7.8 7.8 0 0 0-2.4-5.7l-55.9-56A8.1 8.1 0 0 0 152 24H56a16 16 0 0 0-16 16v88a8 8 0 0 0 16 0V40h88v48a8 8 0 0 0 8 8h48v120h-32a8 8 0 0 0 0 16h32a16 16 0 0 0 16-16V88Zm-56-36.7L188.7 80H160Zm-60.6 93.5a7.8 7.8 0 0 0-8.5 1.1L69.1 164H48a8 8 0 0 0-8 8v32a8 8 0 0 0 8 8h21.1l21.8 18.1A7.5 7.5 0 0 0 96 232a6.8 6.8 0 0 0 3.4-.8a7.9 7.9 0 0 0 4.6-7.2v-72a7.9 7.9 0 0 0-4.6-7.2ZM88 206.9l-10.9-9A7.8 7.8 0 0 0 72 196H56v-16h16a7.8 7.8 0 0 0 5.1-1.9l10.9-9Zm60-18.9a39.8 39.8 0 0 1-15 31.2a7.9 7.9 0 0 1-5 1.8a7.8 7.8 0 0 1-6.2-3a8.1 8.1 0 0 1 1.2-11.3a23.9 23.9 0 0 0 0-37.4a8 8 0 0 1 10-12.5a39.8 39.8 0 0 1 15 31.2Z"></path></svg>