<svg xmlns="http://www.w3.org/2000/svg" xmlns:xlink="http://www.w3.org/1999/xlink" aria-hidden="true" role="img" class="iconify iconify--ph" width="1em" height="1em" preserveAspectRatio="xMidYMid meet" viewBox="0 0 256 256"><path fill="currentColor" d="M58 162H44a6 6 0 0 0-6 6v48a6 6 0 0 0 6 6h14a30 30 0 0 0 0-60Zm0 48h-8v-36h8a18 18 0 0 1 0 36Zm72-48c-15.4 0-28 13.5-28 30s12.6 30 28 30s28-13.5 28-30s-12.6-30-28-30Zm0 48c-8.8 0-16-8.1-16-18s7.2-18 16-18s16 8.1 16 18s-7.2 18-16 18Zm86.5-3.5a6 6 0 0 1-.5 8.5a26.9 26.9 0 0 1-18 7c-15.4 0-28-13.5-28-30s12.6-30 28-30a26.9 26.9 0 0 1 18 7a6 6 0 0 1 .5 8.5a5.9 5.9 0 0 1-8.5.4a15.1 15.1 0 0 0-10-3.9c-8.8 0-16 8.1-16 18s7.2 18 16 18a15.1 15.1 0 0 0 10-3.9a5.9 5.9 0 0 1 8.5.4ZM48 134a6 6 0 0 0 6-6V40a2 2 0 0 1 2-2h90v50a6 6 0 0 0 6 6h50v34a6 6 0 0 0 12 0V88a6 6 0 0 0-1.8-4.3l-56-55.9A5.6 5.6 0 0 0 152 26H56a14 14 0 0 0-14 14v88a6 6 0 0 0 6 6Zm110-87.5L193.5 82H158Z"></path></svg>