<svg xmlns="http://www.w3.org/2000/svg" xmlns:xlink="http://www.w3.org/1999/xlink" aria-hidden="true" role="img" class="iconify iconify--ph" width="1em" height="1em" preserveAspectRatio="xMidYMid meet" viewBox="0 0 256 256"><path fill="currentColor" d="M110.7 154.8a8 8 0 0 0-13.4 0l-20.9 31.4l-9.7-15.1a7.9 7.9 0 0 0-13.4 0l-32.7 50.7a4 4 0 0 0-.1 4.1A3.9 3.9 0 0 0 24 228h128a3.9 3.9 0 0 0 3.5-2.1a4 4 0 0 0-.2-4.1ZM31.3 220L60 175.4l9.7 15.1a8.3 8.3 0 0 0 6.7 3.7a8.2 8.2 0 0 0 6.7-3.6l20.9-31.4l40.5 60.8ZM212 88a4.5 4.5 0 0 0-1.2-2.9l-56-55.9A3.6 3.6 0 0 0 152 28H56a12 12 0 0 0-12 12v96a4 4 0 0 0 8 0V40a4 4 0 0 1 4-4h92v52a4 4 0 0 0 4 4h52v124a4 4 0 0 1-4 4h-8a4 4 0 0 0 0 8h8a12 12 0 0 0 12-12V88.1Zm-56-46.3L198.3 84H156Z"></path></svg>