<svg xmlns="http://www.w3.org/2000/svg" xmlns:xlink="http://www.w3.org/1999/xlink" aria-hidden="true" role="img" class="iconify iconify--ph" width="1em" height="1em" preserveAspectRatio="xMidYMid meet" viewBox="0 0 256 256"><path fill="currentColor" d="M114 152.6a12 12 0 0 0-20 0l-17.5 26.3l-6.4-10a12 12 0 0 0-20.2 0l-32.6 50.8a7.9 7.9 0 0 0-.3 8.1a8 8 0 0 0 7 4.2h128a8 8 0 0 0 7.1-4.2a8.3 8.3 0 0 0-.4-8.2ZM38.7 216L60 182.8l6.3 9.8a12.1 12.1 0 0 0 10 5.6a12 12 0 0 0 10.1-5.4l17.6-26.4l33.1 49.6ZM216 88a7.8 7.8 0 0 0-2.4-5.7l-55.9-56A8.1 8.1 0 0 0 152 24H56a16 16 0 0 0-16 16v96a8 8 0 0 0 16 0V40h88v48a8 8 0 0 0 8 8h48v120h-8a8 8 0 0 0 0 16h8a16 16 0 0 0 16-16V88Zm-56-36.7L188.7 80H160Z"></path></svg>