<svg xmlns="http://www.w3.org/2000/svg" xmlns:xlink="http://www.w3.org/1999/xlink" aria-hidden="true" role="img" class="iconify iconify--ph" width="1em" height="1em" preserveAspectRatio="xMidYMid meet" viewBox="0 0 256 256"><path fill="currentColor" d="M124 176a4 4 0 0 1-4 4h-12v36a4 4 0 0 1-8 0v-36H88a4 4 0 0 1 0-8h32a4 4 0 0 1 4 4Zm-60-4a4 4 0 0 0-4 4v16H40v-16a4 4 0 0 0-8 0v40a4 4 0 0 0 8 0v-16h20v16a4 4 0 0 0 8 0v-40a4 4 0 0 0-4-4Zm172 40h-20v-36a4 4 0 0 0-8 0v40a4 4 0 0 0 4 4h24a4 4 0 0 0 0-8Zm-50.8-39.8a4.2 4.2 0 0 0-4.5 1.5L164 197.1l-16.7-23.4a4.2 4.2 0 0 0-4.5-1.5a4 4 0 0 0-2.8 3.8v40a4 4 0 0 0 8 0v-27.5l12.7 17.8a4.1 4.1 0 0 0 6.6 0l12.7-17.8V216a4 4 0 0 0 8 0v-40a4 4 0 0 0-2.8-3.8ZM208 140a4 4 0 0 1-4-4V92h-52a4 4 0 0 1-4-4V36H56a4 4 0 0 0-4 4v96a4 4 0 0 1-8 0V40a12 12 0 0 1 12-12h96a3.6 3.6 0 0 1 2.8 1.2l56 55.9A4.5 4.5 0 0 1 212 88v48a4 4 0 0 1-4 4Zm-52-56h42.3L156 41.7Z"></path></svg>