<svg xmlns="http://www.w3.org/2000/svg" xmlns:xlink="http://www.w3.org/1999/xlink" aria-hidden="true" role="img" class="iconify iconify--ph" width="1em" height="1em" preserveAspectRatio="xMidYMid meet" viewBox="0 0 256 256"><path fill="currentColor" d="M212 88a4.5 4.5 0 0 0-1.2-2.9l-56-55.9A3.6 3.6 0 0 0 152 28H56a12 12 0 0 0-12 12v88a4 4 0 0 0 8 0V40a4 4 0 0 1 4-4h92v52a4 4 0 0 0 4 4h52v124a4 4 0 0 1-4 4h-24a4 4 0 0 0 0 8h24a12 12 0 0 0 12-12V88.1Zm-56-46.3L198.3 84H156Zm-9.9 118.9a4.1 4.1 0 0 0-3.9-.2L116 173.5V168a12 12 0 0 0-12-12H48a12 12 0 0 0-12 12v40a12 12 0 0 0 12 12h56a12 12 0 0 0 12-12v-5.3l26.1 14a4.5 4.5 0 0 0 1.9.5a4.2 4.2 0 0 0 2.1-.6a3.9 3.9 0 0 0 1.9-3.4V164a3.9 3.9 0 0 0-1.9-3.4ZM108 208a4 4 0 0 1-4 4H48a4 4 0 0 1-4-4v-40a4 4 0 0 1 4-4h56a4 4 0 0 1 4 4Zm32-1.5l-24-12.9v-11.1l24-12Z"></path></svg>