<svg xmlns="http://www.w3.org/2000/svg" xmlns:xlink="http://www.w3.org/1999/xlink" aria-hidden="true" role="img" class="iconify iconify--ph" width="1em" height="1em" preserveAspectRatio="xMidYMid meet" viewBox="0 0 256 256"><path fill="currentColor" d="M208 88h-56V32Z" opacity=".2"></path><path fill="currentColor" d="M64 160H48a8 8 0 0 0-8 8v48a8 8 0 0 0 16 0v-8h8a24 24 0 0 0 0-48Zm0 32h-8v-16h8a8 8 0 0 1 0 16Zm64-32h-16a8 8 0 0 0-8 8v48a8 8 0 0 0 16 0v-8h8a24 24 0 0 0 0-48Zm0 32h-8v-16h8a8 8 0 0 1 0 16Zm88-24a8 8 0 0 1-8 8h-10v40a8 8 0 0 1-16 0v-40h-10a8 8 0 0 1 0-16h36a8 8 0 0 1 8 8Zm0-80a7.8 7.8 0 0 0-2.4-5.7l-55.9-56A8.1 8.1 0 0 0 152 24H56a16 16 0 0 0-16 16v88a8 8 0 0 0 16 0V40h88v48a8 8 0 0 0 8 8h48v32a8 8 0 0 0 16 0V88Zm-56-36.7L188.7 80H160Z"></path></svg>