<svg xmlns="http://www.w3.org/2000/svg" xmlns:xlink="http://www.w3.org/1999/xlink" aria-hidden="true" role="img" class="iconify iconify--ph" width="1em" height="1em" preserveAspectRatio="xMidYMid meet" viewBox="0 0 256 256"><path fill="currentColor" d="m221.8 171l-15.1 21l15.1 21a12 12 0 0 1-19.6 14L192 212.6L181.8 227a12 12 0 1 1-19.6-14l15.1-21l-15.1-21a12 12 0 1 1 19.6-14l10.2 14.4l10.2-14.4a12 12 0 0 1 19.6 14Zm2.2-79v32a12 12 0 0 1-24 0v-12h-52a12 12 0 0 1-12-12V48H56v76a12 12 0 0 1-24 0V44a20.1 20.1 0 0 1 20-20h104a12.3 12.3 0 0 1 8.5 3.5l56 56A12.3 12.3 0 0 1 224 92Zm-64-4h31l-31-31ZM60 152a12 12 0 0 0-12 12v36a8 8 0 0 1-16 0a12 12 0 0 0-24 0a32 32 0 0 0 64 0v-36a12 12 0 0 0-12-12Zm59 28c-2.1-.7-5.3-1.6-7-2.4c.2-1 .7-1.6 3-1.6a12 12 0 0 1 7 2.5h-.2a12 12 0 0 0 20.2-8.8a12.1 12.1 0 0 0-3.8-8.8A36.2 36.2 0 0 0 115 152c-15.6 0-27 11.2-27 26.6c0 17.2 15.7 21.9 24.2 24.4c2.4.7 6.2 1.8 7.8 2.8a3.7 3.7 0 0 1-.2 1.4c-.3.2-1.7.8-4.8.8a12 12 0 0 1-7-2.5h.2a12 12 0 0 0-20.2 8.9a12.1 12.1 0 0 0 3.8 8.8A36.2 36.2 0 0 0 115 232c17.6 0 29-10.4 29-26.6c0-18-16.2-22.8-25-25.4Z"></path></svg>