<svg xmlns="http://www.w3.org/2000/svg" xmlns:xlink="http://www.w3.org/1999/xlink" aria-hidden="true" role="img" class="iconify iconify--ph" width="1em" height="1em" preserveAspectRatio="xMidYMid meet" viewBox="0 0 256 256"><path fill="currentColor" d="m210.8 85.2l-56-56A3.6 3.6 0 0 0 152 28H56a12 12 0 0 0-12 12v88a4 4 0 0 0 8 0V40a4 4 0 0 1 4-4h92v52a4 4 0 0 0 4 4h52v124a4 4 0 0 1-4 4h-32a4 4 0 0 0 0 8h32a12 12 0 0 0 12-12V88a3.6 3.6 0 0 0-1.2-2.8ZM156 41.7L198.3 84H156ZM128 176h-12v-8a24 24 0 0 0-48 0v8H56a4 4 0 0 0-4 4v44a4 4 0 0 0 4 4h72a4 4 0 0 0 4-4v-44a4 4 0 0 0-4-4Zm-52-8a16 16 0 0 1 32 0v8H76Zm48 52H60v-36h64Z"></path></svg>