<svg xmlns="http://www.w3.org/2000/svg" xmlns:xlink="http://www.w3.org/1999/xlink" aria-hidden="true" role="img" class="iconify iconify--ph" width="1em" height="1em" preserveAspectRatio="xMidYMid meet" viewBox="0 0 256 256"><path fill="currentColor" d="M74.7 200.9A20 20 0 0 0 64 164H48a4 4 0 0 0-4 4v48a4 4 0 0 0 8 0v-12h12a15.3 15.3 0 0 0 3-.3l9.7 14.5A3.8 3.8 0 0 0 80 220a3.6 3.6 0 0 0 2.2-.7a4 4 0 0 0 1.1-5.5ZM52 196v-24h12a12 12 0 0 1 0 24Zm96 8c0 10.8-7.7 17-21 17a30 30 0 0 1-17.6-5.9a4.1 4.1 0 0 1-.5-5.7a4 4 0 0 1 5.6-.5A21.5 21.5 0 0 0 127 213c13 0 13-6.5 13-9c0-4.6-4.3-6.2-13.4-8.6S108 190.5 108 180s7.6-17 19-17a30 30 0 0 1 17.6 5.9a4 4 0 1 1-5.2 6.2A20.7 20.7 0 0 0 127 171c-6.9 0-11 3.4-11 9c0 3.9 4 5.4 12.6 7.7S148 192.8 148 204Zm64-116a4.5 4.5 0 0 0-1.2-2.9l-56-55.9A3.6 3.6 0 0 0 152 28H56a12 12 0 0 0-12 12v88a4 4 0 0 0 8 0V40a4 4 0 0 1 4-4h92v52a4 4 0 0 0 4 4h52v124a4 4 0 0 1-4 4h-16a4 4 0 0 0 0 8h16a12 12 0 0 0 12-12V88.1Zm-56-46.3L198.3 84H156Z"></path></svg>