<svg xmlns="http://www.w3.org/2000/svg" xmlns:xlink="http://www.w3.org/1999/xlink" aria-hidden="true" role="img" class="iconify iconify--ph" width="1em" height="1em" preserveAspectRatio="xMidYMid meet" viewBox="0 0 256 256"><path fill="currentColor" d="M212 88a4.5 4.5 0 0 0-1.2-2.9l-56-55.9l-.6-.4h-.2l-.5-.3H56A12 12 0 0 0 44 40v176a12 12 0 0 0 12 12h144a12 12 0 0 0 12-12V88.1Zm-56-46.3L198.3 84H156ZM200 220H56a4 4 0 0 1-4-4V40a4 4 0 0 1 4-4h92v52a4 4 0 0 0 4 4h52v124a4 4 0 0 1-4 4Zm-41.2-74.8a3.9 3.9 0 0 1 0 5.6a3.9 3.9 0 0 1-5.6 0L132 129.7V184a4 4 0 0 1-8 0v-54.3l-21.2 21.1a4 4 0 0 1-5.6-5.6l28-28l.6-.4l.3-.2l.4-.2h3l.4.2l.3.2l.6.4Z"></path></svg>