<svg xmlns="http://www.w3.org/2000/svg" xmlns:xlink="http://www.w3.org/1999/xlink" aria-hidden="true" role="img" class="iconify iconify--ph" width="1em" height="1em" preserveAspectRatio="xMidYMid meet" viewBox="0 0 256 256"><path fill="currentColor" d="M44 136a12 12 0 0 0 12-12V48h80v52a12 12 0 0 0 12 12h52v12a12 12 0 0 0 24 0V92a12.3 12.3 0 0 0-3.5-8.5l-56-56A12.3 12.3 0 0 0 156 24H52a20.1 20.1 0 0 0-20 20v80a12 12 0 0 0 12 12Zm147-48h-31V57ZM60 152H44a12 12 0 0 0-12 12v56a12 12 0 0 0 24 0v-4h4a32 32 0 0 0 0-64Zm0 40h-4v-16h4a8 8 0 0 1 0 16Zm72-40h-16a12 12 0 0 0-12 12v56a12 12 0 0 0 24 0v-4h4a32 32 0 0 0 0-64Zm0 40h-4v-16h4a8 8 0 0 1 0 16Zm100-28a12 12 0 0 1-12 12h-8v44a12 12 0 0 1-24 0v-44h-8a12 12 0 0 1 0-24h40a12 12 0 0 1 12 12Z"></path></svg>