<svg xmlns="http://www.w3.org/2000/svg" xmlns:xlink="http://www.w3.org/1999/xlink" aria-hidden="true" role="img" class="iconify iconify--ph" width="1em" height="1em" preserveAspectRatio="xMidYMid meet" viewBox="0 0 256 256"><path fill="currentColor" d="m210.8 85.2l-56-56A3.6 3.6 0 0 0 152 28H56a12 12 0 0 0-12 12v176a12 12 0 0 0 12 12h144a12 12 0 0 0 12-12V88a3.6 3.6 0 0 0-1.2-2.8ZM156 41.7L198.3 84H156ZM200 220H56a4 4 0 0 1-4-4V40a4 4 0 0 1 4-4h92v52a4 4 0 0 0 4 4h52v124a4 4 0 0 1-4 4Zm-45.2-89.2L133.7 152l21.1 21.2a3.9 3.9 0 0 1 0 5.6a3.9 3.9 0 0 1-5.6 0L128 157.7l-21.2 21.1a3.9 3.9 0 0 1-5.6 0a3.9 3.9 0 0 1 0-5.6l21.1-21.2l-21.1-21.2a4 4 0 1 1 5.6-5.6l21.2 21.1l21.2-21.1a4 4 0 1 1 5.6 5.6Z"></path></svg>