<svg xmlns="http://www.w3.org/2000/svg" xmlns:xlink="http://www.w3.org/1999/xlink" aria-hidden="true" role="img" class="iconify iconify--ph" width="1em" height="1em" preserveAspectRatio="xMidYMid meet" viewBox="0 0 256 256"><path fill="currentColor" d="M184 172v16h20a4 4 0 0 1 0 8h-20v16h24a4 4 0 0 1 0 8h-28a4 4 0 0 1-4-4v-48a4 4 0 0 1 4-4h28a4 4 0 0 1 0 8Zm-98.5-7.7a4 4 0 0 0-5.2 2.2L64 205.6l-16.3-39.1a4 4 0 0 0-7.4 3l20 48a4 4 0 0 0 7.4 0l20-48a4 4 0 0 0-2.2-5.2Zm62.5-.3a4 4 0 0 0-4 4v30a14 14 0 0 1-28 0v-30a4 4 0 0 0-8 0v30a22 22 0 0 0 44 0v-30a4 4 0 0 0-4-4Zm64-75.9V128a4 4 0 0 1-8 0V92h-52a4 4 0 0 1-4-4V36H56a4 4 0 0 0-4 4v88a4 4 0 0 1-8 0V40a12 12 0 0 1 12-12h96a3.6 3.6 0 0 1 2.8 1.2l56 55.9A4.5 4.5 0 0 1 212 88ZM156 84h42.3L156 41.7Z"></path></svg>