<svg xmlns="http://www.w3.org/2000/svg" xmlns:xlink="http://www.w3.org/1999/xlink" aria-hidden="true" role="img" class="iconify iconify--ph" width="1em" height="1em" preserveAspectRatio="xMidYMid meet" viewBox="0 0 256 256"><path fill="currentColor" d="M212 88a4.5 4.5 0 0 0-1.2-2.9l-56-55.9A3.6 3.6 0 0 0 152 28H56a12 12 0 0 0-12 12v88a4 4 0 0 0 8 0V40a4 4 0 0 1 4-4h92v52a4 4 0 0 0 4 4h52v124a4 4 0 0 1-4 4h-32a4 4 0 0 0 0 8h32a12 12 0 0 0 12-12V88.1Zm-56-46.3L198.3 84H156ZM97.7 148.4a4 4 0 0 0-4.3.5L70.6 168H48a4 4 0 0 0-4 4v32a4 4 0 0 0 4 4h22.6l22.8 19.1a4.3 4.3 0 0 0 2.6.9a3.3 3.3 0 0 0 1.7-.4a3.9 3.9 0 0 0 2.3-3.6v-72a3.9 3.9 0 0 0-2.3-3.6ZM92 215.5l-17.4-14.6a4.3 4.3 0 0 0-2.6-.9H52v-24h20a4.3 4.3 0 0 0 2.6-.9L92 160.5Zm52-27.5a35.8 35.8 0 0 1-13.5 28.1a3.8 3.8 0 0 1-2.5.9a3.9 3.9 0 0 1-3.1-1.5a4 4 0 0 1 .6-5.6a28.1 28.1 0 0 0 0-43.8a4 4 0 1 1 5-6.2A35.8 35.8 0 0 1 144 188Z"></path></svg>