<svg xmlns="http://www.w3.org/2000/svg" xmlns:xlink="http://www.w3.org/1999/xlink" aria-hidden="true" role="img" class="iconify iconify--ph" width="1em" height="1em" preserveAspectRatio="xMidYMid meet" viewBox="0 0 256 256"><path fill="currentColor" d="M80.1 201.8A24 24 0 0 0 64 160H48a8 8 0 0 0-8 8v48a8 8 0 0 0 16 0v-8h9l8.3 12.4A7.9 7.9 0 0 0 80 224a7.8 7.8 0 0 0 4.4-1.3a8 8 0 0 0 2.2-11.1ZM64 192h-8v-16h8a8 8 0 0 1 0 16Zm88 12c0 13.1-9.3 21-25 21a33.4 33.4 0 0 1-20.1-6.8a7.6 7.6 0 0 1-2.9-6.2a8 8 0 0 1 8-8a8.3 8.3 0 0 1 5.1 1.8h-.1a18.4 18.4 0 0 0 10 3.2c9 0 9-3 9-5s0-.9-1.2-1.6s-5.8-2.2-9.2-3.1C117 197 104 193.5 104 180s9.5-21 23-21a33.4 33.4 0 0 1 20.1 6.8a7.6 7.6 0 0 1 2.9 6.2a8 8 0 0 1-8 8a8.3 8.3 0 0 1-5.1-1.8h.1a18.4 18.4 0 0 0-10-3.2c-4.6 0-7 1.7-7 5v.2c1.1 1.3 6.6 2.8 9.7 3.6C138 186 152 189.7 152 204Zm61.7-121.7l-56-56A8.1 8.1 0 0 0 152 24H56a16 16 0 0 0-16 16v88a8 8 0 0 0 8 8h120a8 8 0 0 1 8 8v80a8 8 0 0 0 8 8h16a16 16 0 0 0 16-16V88a8.1 8.1 0 0 0-2.3-5.7ZM152 88V44l44 44Z"></path></svg>