<svg xmlns="http://www.w3.org/2000/svg" xmlns:xlink="http://www.w3.org/1999/xlink" aria-hidden="true" role="img" class="iconify iconify--ph" width="1em" height="1em" preserveAspectRatio="xMidYMid meet" viewBox="0 0 256 256"><path fill="currentColor" d="m213.6 82.3l-55.9-56l-.3-.2l-.3-.3l-.3-.2l-.3-.2c-.1-.1-.2-.1-.2-.2l-.5-.3h-.2l-.5-.3h-.1l-.7-.3H56A16 16 0 0 0 40 40v176a16 16 0 0 0 16 16h144a16 16 0 0 0 16-16V88a7.8 7.8 0 0 0-2.4-5.7Zm-51.9 71.4a8.1 8.1 0 0 1-11.4 0L136 139.3V184a8 8 0 0 1-16 0v-44.7l-14.3 14.4a8.1 8.1 0 0 1-11.4-11.4l28-28h.1l.5-.5l.3-.2l.4-.3l.3-.2l.3-.2h.4l.3-.2h.4l.4-.2h4.6l.4.2h.4l.3.2h.4l.3.2l.3.2l.4.3l.3.2l.5.5h.1l28 28a8.1 8.1 0 0 1 0 11.4ZM152 88V43.3L196.7 88Z"></path></svg>