<svg xmlns="http://www.w3.org/2000/svg" xmlns:xlink="http://www.w3.org/1999/xlink" aria-hidden="true" role="img" class="iconify iconify--ph" width="1em" height="1em" preserveAspectRatio="xMidYMid meet" viewBox="0 0 256 256"><path fill="currentColor" d="M208 88h-56V32Z" opacity=".2"></path><path fill="currentColor" d="M216 88a7.8 7.8 0 0 0-2.4-5.7l-55.9-56A8.1 8.1 0 0 0 152 24H56a16 16 0 0 0-16 16v88a8 8 0 0 0 16 0V40h88v48a8 8 0 0 0 8 8h48v32a8 8 0 0 0 16 0V88Zm-56-36.7L188.7 80H160ZM52 192c0 8.8 6.3 16 14 16a12.9 12.9 0 0 0 8.6-3.4a7.9 7.9 0 0 1 11.3.6a8 8 0 0 1-.5 11.3A29.3 29.3 0 0 1 66 224c-16.5 0-30-14.4-30-32s13.5-32 30-32a29.3 29.3 0 0 1 19.4 7.5a8 8 0 0 1 .5 11.3a7.9 7.9 0 0 1-11.3.6A12.9 12.9 0 0 0 66 176c-7.7 0-14 7.2-14 16Zm77.7-8.2c-3.1-.8-8.6-2.3-9.7-3.6v-.2c0-3.3 2.4-5 7-5a18.4 18.4 0 0 1 10 3.2h-.1a8.3 8.3 0 0 0 5.1 1.8a8 8 0 0 0 8-8a7.6 7.6 0 0 0-2.9-6.1A33.4 33.4 0 0 0 127 159c-13.5 0-23 8.6-23 21s13 17 21.6 19.3c3.4.9 7 1.8 9.2 3.1s1.2 1 1.2 1.6s0 5-9 5a18.4 18.4 0 0 1-10-3.2h.1a8.3 8.3 0 0 0-5.1-1.8a8 8 0 0 0-8 8a7.6 7.6 0 0 0 2.9 6.1A33.4 33.4 0 0 0 127 225c15.6 0 25-7.9 25-21s-14-18-22.3-20.2Zm7.2-5.6Zm-19.8 27.6Zm76.6-22c-3.1-.8-8.6-2.3-9.7-3.6v-.2c0-3.3 2.3-5 7-5a18.4 18.4 0 0 1 10 3.2h-.1a8.3 8.3 0 0 0 5.1 1.8a8 8 0 0 0 8-8a7.6 7.6 0 0 0-2.9-6.1A33.4 33.4 0 0 0 191 159c-13.5 0-23 8.6-23 21s13 17 21.6 19.3c3.4.9 7 1.8 9.2 3.1s1.2 1 1.2 1.6s0 5-9 5a18.4 18.4 0 0 1-10-3.2h.1a8.3 8.3 0 0 0-5.1-1.8a8 8 0 0 0-8 8a7.6 7.6 0 0 0 2.9 6.1A33.4 33.4 0 0 0 191 225c15.6 0 25-7.9 25-21s-14-18-22.3-20.2Zm7.2-5.6Zm-19.8 27.6Z"></path></svg>