<svg xmlns="http://www.w3.org/2000/svg" xmlns:xlink="http://www.w3.org/1999/xlink" aria-hidden="true" role="img" class="iconify iconify--ph" width="1em" height="1em" preserveAspectRatio="xMidYMid meet" viewBox="0 0 256 256"><path fill="currentColor" d="M60 164H44a4 4 0 0 0-4 4v48a4 4 0 0 0 8 0v-12h12a20 20 0 0 0 0-40Zm0 32H48v-24h12a12 12 0 0 1 0 24Zm88-28v48a4.1 4.1 0 0 1-2.7 3.8l-1.3.2a4.2 4.2 0 0 1-3.2-1.6L112 180v36a4 4 0 0 1-8 0v-48a4.1 4.1 0 0 1 2.7-3.8a4 4 0 0 1 4.5 1.4L140 204v-36a4 4 0 0 1 8 0Zm72 37.8a4.3 4.3 0 0 1-.6 2.2a25.7 25.7 0 0 1-21.4 12c-14.3 0-26-12.6-26-28s11.7-28 26-28a24.6 24.6 0 0 1 14.3 4.6a4.1 4.1 0 0 1 1 5.6a4 4 0 0 1-5.6.9a17.2 17.2 0 0 0-9.7-3.1c-9.9 0-18 9-18 20s8.1 20 18 20a17.6 17.6 0 0 0 14-7.4V198h-8a4 4 0 0 1 0-8h12a4 4 0 0 1 4 4ZM204 128a4 4 0 0 0 8 0V88.1a4.5 4.5 0 0 0-1.2-2.9l-56-55.9A3.6 3.6 0 0 0 152 28H56a12 12 0 0 0-12 12v88a4 4 0 0 0 8 0V40a4 4 0 0 1 4-4h92v52a4 4 0 0 0 4 4h52Zm-48-86.3L198.3 84H156Z"></path></svg>