<svg xmlns="http://www.w3.org/2000/svg" xmlns:xlink="http://www.w3.org/1999/xlink" aria-hidden="true" role="img" class="iconify iconify--ph" width="1em" height="1em" preserveAspectRatio="xMidYMid meet" viewBox="0 0 256 256"><path fill="currentColor" d="M214 88a6 6 0 0 0-1.8-4.3l-56-55.9l-.4-.3h-.1l-.4-.3h-.1l-.4-.2l-.5-.2a.1.1 0 0 0-.1-.1H56A14 14 0 0 0 42 40v176a14 14 0 0 0 14 14h144a14 14 0 0 0 14-14V88Zm-56-41.5L193.5 82H158ZM200 218H56a2 2 0 0 1-2-2V40a2 2 0 0 1 2-2h90v50a6 6 0 0 0 6 6h50v122a2 2 0 0 1-2 2Zm-39.8-74.2a5.9 5.9 0 1 1-8.4 8.4L134 134.5V184a6 6 0 0 1-12 0v-49.5l-17.8 17.7a5.9 5.9 0 0 1-8.4-8.4l28-28a2.4 2.4 0 0 1 .9-.8l1-.5h.1l1-.3h2.4l1 .3h.1l1 .5a2.4 2.4 0 0 1 .9.8Z"></path></svg>