<svg xmlns="http://www.w3.org/2000/svg" xmlns:xlink="http://www.w3.org/1999/xlink" aria-hidden="true" role="img" class="iconify iconify--ph" width="1em" height="1em" preserveAspectRatio="xMidYMid meet" viewBox="0 0 256 256"><path fill="currentColor" d="m93.8 171l-15.1 21l15.1 21a12 12 0 0 1-19.6 14L64 212.6L53.8 227a12 12 0 1 1-19.6-14l15.1-21l-15.1-21a12 12 0 1 1 19.6-14L64 171.4L74.2 157a12 12 0 0 1 19.6 14Zm54.2 37h-16v-44a12 12 0 0 0-24 0v56a12 12 0 0 0 12 12h28a12 12 0 0 0 0-24Zm76-116v32a12 12 0 0 1-24 0v-12h-52a12 12 0 0 1-12-12V48H56v76a12 12 0 0 1-24 0V44a20.1 20.1 0 0 1 20-20h104a12.3 12.3 0 0 1 8.5 3.5l56 56A12.3 12.3 0 0 1 224 92Zm-64-4h31l-31-31Zm39 92c-2.1-.7-5.3-1.6-7-2.4c.2-1 .7-1.6 3-1.6a12 12 0 0 1 7 2.5h-.2a12 12 0 0 0 20.2-8.8a12.1 12.1 0 0 0-3.8-8.8A36.2 36.2 0 0 0 195 152c-15.6 0-27 11.2-27 26.6c0 17.2 15.7 21.9 24.2 24.4c2.4.7 6.2 1.8 7.8 2.8a3.7 3.7 0 0 1-.2 1.4c-.3.2-1.7.8-4.8.8a12 12 0 0 1-7-2.5h.2a12 12 0 0 0-20.2 8.8a12.1 12.1 0 0 0 3.8 8.8A36.2 36.2 0 0 0 195 232c17.6 0 29-10.4 29-26.6c0-18-16.2-22.8-25-25.4Z"></path></svg>