<svg xmlns="http://www.w3.org/2000/svg" xmlns:xlink="http://www.w3.org/1999/xlink" aria-hidden="true" role="img" class="iconify iconify--ph" width="1em" height="1em" preserveAspectRatio="xMidYMid meet" viewBox="0 0 256 256"><path fill="currentColor" d="M117.3 150.3a16 16 0 0 0-26.6 0l-14.2 21.2l-3-4.8a16.1 16.1 0 0 0-27 0l-32.6 50.8A12 12 0 0 0 24 236h128a12 12 0 0 0 10.6-6.3a12.2 12.2 0 0 0-.6-12.4ZM46 212l14-21.8l3 4.6a16 16 0 0 0 13.3 7.4h.1a15.8 15.8 0 0 0 13.3-7.2l14.3-21.4l25.6 38.4ZM216.5 79.5l-56-56A12.3 12.3 0 0 0 152 20H56a20.1 20.1 0 0 0-20 20v88a12 12 0 0 0 24 0V44h76v48a12 12 0 0 0 12 12h48v108a12 12 0 0 0 0 24h4a20.1 20.1 0 0 0 20-20V88a12.3 12.3 0 0 0-3.5-8.5ZM160 57l23 23h-23Z"></path></svg>