<svg xmlns="http://www.w3.org/2000/svg" xmlns:xlink="http://www.w3.org/1999/xlink" aria-hidden="true" role="img" class="iconify iconify--ph" width="1em" height="1em" preserveAspectRatio="xMidYMid meet" viewBox="0 0 256 256"><path fill="currentColor" d="M208 88h-56V32Z" opacity=".2"></path><path fill="currentColor" d="M216 88a7.7 7.7 0 0 0-2.4-5.7l-55.9-56A8.1 8.1 0 0 0 152 24H56a16 16 0 0 0-16 16v88a8 8 0 0 0 16 0V40h88v48a8 8 0 0 0 8 8h48v120h-24a8 8 0 0 0 0 16h24a16 16 0 0 0 16-16V88Zm-56-36.7L188.7 80H160ZM108 128a52.1 52.1 0 0 0-48 32a36 36 0 0 0 0 72h48a52 52 0 0 0 0-104Zm0 88H60a20 20 0 0 1-3.9-39.6c-.1 1.2-.1 2.4-.1 3.6a8 8 0 0 0 16 0a36 36 0 1 1 36 36Z"></path></svg>