<svg xmlns="http://www.w3.org/2000/svg" xmlns:xlink="http://www.w3.org/1999/xlink" aria-hidden="true" role="img" class="iconify iconify--ph" width="1em" height="1em" preserveAspectRatio="xMidYMid meet" viewBox="0 0 256 256"><path fill="currentColor" d="m216.5 79.5l-56-56A12.3 12.3 0 0 0 152 20H56a20.1 20.1 0 0 0-20 20v76a12 12 0 0 0 24 0V44h76v48a12 12 0 0 0 12 12h48v108h-16a12 12 0 0 0 0 24h20a20.1 20.1 0 0 0 20-20V88a12.3 12.3 0 0 0-3.5-8.5ZM160 57l23 23h-23Zm-58.9 76.1a12.2 12.2 0 0 0-12.8 1.7L67.7 152H48a12 12 0 0 0-12 12v40a12 12 0 0 0 12 12h19.7l20.6 17.2A11.6 11.6 0 0 0 96 236a13 13 0 0 0 5.1-1.1A12 12 0 0 0 108 224v-80a12 12 0 0 0-6.9-10.9ZM84 198.4l-4.3-3.6A12.2 12.2 0 0 0 72 192H60v-16h12a12.2 12.2 0 0 0 7.7-2.8l4.3-3.6Zm76-10.4a43.7 43.7 0 0 1-16.5 34.3a11.9 11.9 0 0 1-7.5 2.7a12.3 12.3 0 0 1-9.4-4.5a12.1 12.1 0 0 1 1.9-16.9a20 20 0 0 0 0-31.2a12 12 0 1 1 15-18.7A43.7 43.7 0 0 1 160 188Z"></path></svg>