<svg xmlns="http://www.w3.org/2000/svg" xmlns:xlink="http://www.w3.org/1999/xlink" aria-hidden="true" role="img" class="iconify iconify--ph" width="1em" height="1em" preserveAspectRatio="xMidYMid meet" viewBox="0 0 256 256"><path fill="currentColor" d="m216.5 79.5l-56-56A12.3 12.3 0 0 0 152 20H56a20.1 20.1 0 0 0-20 20v84a12 12 0 0 0 24 0V44h76v48a12 12 0 0 0 12 12h48v108h-24a12 12 0 0 0 0 24h28a20.1 20.1 0 0 0 20-20V88a12.3 12.3 0 0 0-3.5-8.5ZM160 57l23 23h-23Zm-32 115h-4v-4a32 32 0 0 0-64 0v4h-4a12 12 0 0 0-12 12v44a12 12 0 0 0 12 12h72a12 12 0 0 0 12-12v-44a12 12 0 0 0-12-12Zm-44-4a8 8 0 0 1 16 0v4H84Zm32 48H68v-20h48Z"></path></svg>