<svg xmlns="http://www.w3.org/2000/svg" xmlns:xlink="http://www.w3.org/1999/xlink" aria-hidden="true" role="img" class="iconify iconify--ph" width="1em" height="1em" preserveAspectRatio="xMidYMid meet" viewBox="0 0 256 256"><path fill="currentColor" d="M58 164H44a4 4 0 0 0-4 4v48a4 4 0 0 0 4 4h14a28 28 0 0 0 0-56Zm0 48H48v-40h10a20 20 0 0 1 0 40Zm72-48c-14.3 0-26 12.6-26 28s11.7 28 26 28s26-12.6 26-28s-11.7-28-26-28Zm0 48c-9.9 0-18-9-18-20s8.1-20 18-20s18 9 18 20s-8.1 20-18 20Zm85-4.2a4.1 4.1 0 0 1-.3 5.7A25 25 0 0 1 198 220c-14.3 0-26-12.6-26-28s11.7-28 26-28a25 25 0 0 1 16.7 6.5a4.1 4.1 0 0 1 .3 5.7a4.2 4.2 0 0 1-5.7.3A16.2 16.2 0 0 0 198 172c-9.9 0-18 9-18 20s8.1 20 18 20a16.2 16.2 0 0 0 11.3-4.5a4.2 4.2 0 0 1 5.7.3ZM48 132a4 4 0 0 0 4-4V40a4 4 0 0 1 4-4h92v52a4 4 0 0 0 4 4h52v36a4 4 0 0 0 8 0V88.1a4.5 4.5 0 0 0-1.2-2.9l-56-55.9A3.6 3.6 0 0 0 152 28H56a12 12 0 0 0-12 12v88a4 4 0 0 0 4 4Zm108-90.3L198.3 84H156Z"></path></svg>