<svg xmlns="http://www.w3.org/2000/svg" xmlns:xlink="http://www.w3.org/1999/xlink" aria-hidden="true" role="img" class="iconify iconify--ph" width="1em" height="1em" preserveAspectRatio="xMidYMid meet" viewBox="0 0 256 256"><path fill="currentColor" d="m216.5 79.5l-56-56A12.3 12.3 0 0 0 152 20H56a20.1 20.1 0 0 0-20 20v84a12 12 0 0 0 24 0V44h76v48a12 12 0 0 0 12 12h48v108h-16a12 12 0 0 0 0 24h20a20.1 20.1 0 0 0 20-20V88a12.3 12.3 0 0 0-3.5-8.5ZM160 57l23 23h-23Zm-52 67a56 56 0 0 0-50.6 32.1A40 40 0 0 0 60 236h48a56 56 0 0 0 0-112Zm0 88H60a16 16 0 0 1-7.8-30a12 12 0 0 0 23.8-2a32 32 0 1 1 32 32Z"></path></svg>