<svg xmlns="http://www.w3.org/2000/svg" xmlns:xlink="http://www.w3.org/1999/xlink" aria-hidden="true" role="img" class="iconify iconify--ph" width="1em" height="1em" preserveAspectRatio="xMidYMid meet" viewBox="0 0 256 256"><path fill="currentColor" d="m212.2 83.8l-56-56A5.6 5.6 0 0 0 152 26H56a14 14 0 0 0-14 14v176a14 14 0 0 0 14 14h144a14 14 0 0 0 14-14V88a5.6 5.6 0 0 0-1.8-4.2ZM158 46.5L193.5 82H158ZM200 218H56a2 2 0 0 1-2-2V40a2 2 0 0 1 2-2h90v50a6 6 0 0 0 6 6h50v122a2 2 0 0 1-2 2Zm-43.8-85.8L136.5 152l19.7 19.8a5.9 5.9 0 1 1-8.4 8.4L128 160.5l-19.8 19.7a5.9 5.9 0 0 1-8.4-8.4l19.7-19.8l-19.7-19.8a5.9 5.9 0 0 1 8.4-8.4l19.8 19.7l19.8-19.7a5.9 5.9 0 0 1 8.4 8.4Z"></path></svg>