<svg xmlns="http://www.w3.org/2000/svg" xmlns:xlink="http://www.w3.org/1999/xlink" aria-hidden="true" role="img" class="iconify iconify--ph" width="1em" height="1em" preserveAspectRatio="xMidYMid meet" viewBox="0 0 256 256"><path fill="currentColor" d="M256 220a12 12 0 0 1-12 12h-24a12 12 0 0 1-12-12v-56a12 12 0 0 1 24 0v44h12a12 12 0 0 1 12 12Zm-64.2-67.4a12.1 12.1 0 0 0-13.4 4.2L164 176l-14.4-19.2l-.2-.2l-.3-.4l-.5-.5l-.2-.2a10.7 10.7 0 0 0-1.6-1.4l-.3-.2l-.6-.3l-.4-.2l-.6-.3l-.4-.2l-.7-.3h-.4l-.9-.2H60a11.9 11.9 0 0 0-11.9 10.8a4.9 4.9 0 0 0-.1.8v16H32v-16a12 12 0 0 0-24 0v56a12 12 0 0 0 24 0v-16h16v16a12 12 0 0 0 24 0v-44h16v44a12 12 0 0 0 24 0v-44h16v44a12 12 0 0 0 24 0v-20l2.4 3.2a12 12 0 0 0 19.2 0l2.4-3.2v20a12 12 0 0 0 24 0v-56a12 12 0 0 0-8.2-11.4ZM212 136a12 12 0 0 1-12-12v-12h-52a12 12 0 0 1-12-12V48H56v76a12 12 0 0 1-24 0V44a20.1 20.1 0 0 1 20-20h104a12.3 12.3 0 0 1 8.5 3.5l56 56A12.3 12.3 0 0 1 224 92v32a12 12 0 0 1-12 12Zm-52-48h31l-31-31Z"></path></svg>