<svg xmlns="http://www.w3.org/2000/svg" xmlns:xlink="http://www.w3.org/1999/xlink" aria-hidden="true" role="img" class="iconify iconify--ph" width="1em" height="1em" preserveAspectRatio="xMidYMid meet" viewBox="0 0 256 256"><path fill="currentColor" d="m213.7 82.3l-56-56A8.1 8.1 0 0 0 152 24H56a16 16 0 0 0-16 16v96a8 8 0 0 0 16 0V40h88v48a8 8 0 0 0 8 8h48v120h-8a8 8 0 0 0 0 16h8a16 16 0 0 0 16-16V88a8.1 8.1 0 0 0-2.3-5.7ZM160 80V51.3L188.7 80Zm-1.3 139.6a8.3 8.3 0 0 1 .4 8.2a8 8 0 0 1-7.1 4.2H24a8 8 0 0 1-7-4.2a7.9 7.9 0 0 1 .3-8.1l32.6-50.8a12 12 0 0 1 20.2 0l6.4 10L94 152.6a12 12 0 0 1 20 0Z"></path></svg>