<svg xmlns="http://www.w3.org/2000/svg" xmlns:xlink="http://www.w3.org/1999/xlink" aria-hidden="true" role="img" class="iconify iconify--ph" width="1em" height="1em" preserveAspectRatio="xMidYMid meet" viewBox="0 0 256 256"><path fill="currentColor" d="M120 168H88a8 8 0 0 0 0 16h8v32a8 8 0 0 0 16 0v-32h8a8 8 0 0 0 0-16Zm-56 0a8 8 0 0 0-8 8v12H44v-12a8 8 0 0 0-16 0v40a8 8 0 0 0 16 0v-12h12v12a8 8 0 0 0 16 0v-40a8 8 0 0 0-8-8Zm172 40h-16v-32a8 8 0 0 0-16 0v40a8 8 0 0 0 8 8h24a8 8 0 0 0 0-16Zm-49.6-39.6a7.8 7.8 0 0 0-8.9 3L164 190.2l-13.5-18.8A8 8 0 0 0 136 176v40a8 8 0 0 0 16 0v-15l5.5 7.6a7.9 7.9 0 0 0 13 0l5.5-7.6v15a8 8 0 0 0 16 0v-40a7.8 7.8 0 0 0-5.6-7.6ZM48 136h160a8 8 0 0 0 8-8V88a8.1 8.1 0 0 0-2.3-5.7l-56-56A8.1 8.1 0 0 0 152 24H56a16 16 0 0 0-16 16v88a8 8 0 0 0 8 8Zm104-92l44 44h-44Z"></path></svg>