<svg xmlns="http://www.w3.org/2000/svg" xmlns:xlink="http://www.w3.org/1999/xlink" aria-hidden="true" role="img" class="iconify iconify--ph" width="1em" height="1em" preserveAspectRatio="xMidYMid meet" viewBox="0 0 256 256"><path fill="currentColor" d="M60 162H44a6 6 0 0 0-6 6v48a6 6 0 0 0 12 0v-10h10a22 22 0 0 0 0-44Zm0 32H50v-20h10a10 10 0 0 1 0 20Zm90-26v48a6 6 0 0 1-4.1 5.7a6.3 6.3 0 0 1-1.9.3a6.1 6.1 0 0 1-4.8-2.4L114 186v30a6 6 0 0 1-12 0v-48a6 6 0 0 1 10.8-3.6L138 198v-30a6 6 0 0 1 12 0Zm72 37.8a5.6 5.6 0 0 1-1 3.3a27.4 27.4 0 0 1-23 12.9c-15.4 0-28-13.5-28-30s12.6-30 28-30a26.5 26.5 0 0 1 15.5 5a6 6 0 1 1-7 9.8a14.7 14.7 0 0 0-8.5-2.8c-8.8 0-16 8.1-16 18s7.2 18 16 18a15.5 15.5 0 0 0 12-6.1V200h-6a6 6 0 0 1 0-12h12a6 6 0 0 1 6 6ZM202 128a6 6 0 0 0 12 0V88a6 6 0 0 0-1.8-4.3l-56-55.9A5.6 5.6 0 0 0 152 26H56a14 14 0 0 0-14 14v88a6 6 0 0 0 12 0V40a2 2 0 0 1 2-2h90v50a6 6 0 0 0 6 6h50Zm-44-81.5L193.5 82H158Z"></path></svg>