<svg xmlns="http://www.w3.org/2000/svg" xmlns:xlink="http://www.w3.org/1999/xlink" aria-hidden="true" role="img" class="iconify iconify--ph" width="1em" height="1em" preserveAspectRatio="xMidYMid meet" viewBox="0 0 256 256"><path fill="currentColor" d="m213.7 82.3l-56-56A8.1 8.1 0 0 0 152 24H56a16 16 0 0 0-16 16v176a16 16 0 0 0 16 16h144a16 16 0 0 0 16-16V88a8.1 8.1 0 0 0-2.3-5.7Zm-56 88a8.1 8.1 0 0 1 0 11.4a8.2 8.2 0 0 1-11.4 0L128 163.3l-18.3 18.4a8.2 8.2 0 0 1-11.4 0a8.1 8.1 0 0 1 0-11.4l18.4-18.3l-18.4-18.3a8.1 8.1 0 0 1 11.4-11.4l18.3 18.4l18.3-18.4a8.1 8.1 0 0 1 11.4 11.4L139.3 152ZM152 88V44l44 44Z"></path></svg>