<svg xmlns="http://www.w3.org/2000/svg" xmlns:xlink="http://www.w3.org/1999/xlink" aria-hidden="true" role="img" class="iconify iconify--ph" width="1em" height="1em" preserveAspectRatio="xMidYMid meet" viewBox="0 0 256 256"><path fill="currentColor" d="m210.8 69.2l-40-40A3.6 3.6 0 0 0 168 28H88a12 12 0 0 0-12 12v20H56a12 12 0 0 0-12 12v144a12 12 0 0 0 12 12h112a12 12 0 0 0 12-12v-20h20a12 12 0 0 0 12-12V72a3.6 3.6 0 0 0-1.2-2.8ZM172 216a4 4 0 0 1-4 4H56a4 4 0 0 1-4-4V72a4 4 0 0 1 4-4h78.3l37.7 37.7Zm32-32a4 4 0 0 1-4 4h-20v-84a3.6 3.6 0 0 0-1.2-2.8l-40-40A3.6 3.6 0 0 0 136 60H84V40a4 4 0 0 1 4-4h78.3L204 73.7Zm-64-32a4 4 0 0 1-4 4H88a4 4 0 0 1 0-8h48a4 4 0 0 1 4 4Zm0 32a4 4 0 0 1-4 4H88a4 4 0 0 1 0-8h48a4 4 0 0 1 4 4Z"></path></svg>