<svg xmlns="http://www.w3.org/2000/svg" xmlns:xlink="http://www.w3.org/1999/xlink" aria-hidden="true" role="img" class="iconify iconify--ph" width="1em" height="1em" preserveAspectRatio="xMidYMid meet" viewBox="0 0 256 256"><path fill="currentColor" d="M214 88a6 6 0 0 0-1.8-4.3l-56-55.9l-.4-.3h-.1l-.4-.3h-.1l-.4-.2l-.5-.2a.1.1 0 0 0-.1-.1H56A14 14 0 0 0 42 40v88a6 6 0 0 0 12 0V40a2 2 0 0 1 2-2h90v50a6 6 0 0 0 6 6h50v122a2 2 0 0 1-2 2h-24a6 6 0 0 0 0 12h24a14 14 0 0 0 14-14V88Zm-56-41.5L193.5 82H158ZM108 130a50 50 0 0 0-46.6 32H60a34 34 0 0 0 0 68h48a50 50 0 0 0 0-100Zm0 88H60a22 22 0 0 1-1.6-43.9a38.1 38.1 0 0 0-.4 5.9a6 6 0 0 0 12 0a38 38 0 1 1 38 38Z"></path></svg>