<svg xmlns="http://www.w3.org/2000/svg" xmlns:xlink="http://www.w3.org/1999/xlink" aria-hidden="true" role="img" class="iconify iconify--ph" width="1em" height="1em" preserveAspectRatio="xMidYMid meet" viewBox="0 0 256 256"><path fill="currentColor" d="M216 88a7.8 7.8 0 0 0-2.4-5.7l-55.9-56A8.1 8.1 0 0 0 152 24H56a16 16 0 0 0-16 16v88a8 8 0 0 0 16 0V40h88v48a8 8 0 0 0 8 8h48v120h-32a8 8 0 0 0 0 16h32a16 16 0 0 0 16-16V88Zm-56-36.7L188.7 80H160ZM128 172h-8v-4a28 28 0 0 0-56 0v4h-8a8 8 0 0 0-8 8v44a8 8 0 0 0 8 8h72a8 8 0 0 0 8-8v-44a8 8 0 0 0-8-8Zm-48-4a12 12 0 0 1 24 0v4H80Zm40 48H64v-28h56Z"></path></svg>