<svg xmlns="http://www.w3.org/2000/svg" xmlns:xlink="http://www.w3.org/1999/xlink" aria-hidden="true" role="img" class="iconify iconify--ph" width="1em" height="1em" preserveAspectRatio="xMidYMid meet" viewBox="0 0 256 256"><path fill="currentColor" d="M208 176v8h16a12 12 0 0 1 0 24h-16v12a12 12 0 0 1-24 0v-56a12 12 0 0 1 12-12h32a12 12 0 0 1 0 24ZM32 124V44a20.1 20.1 0 0 1 20-20h104a12.3 12.3 0 0 1 8.5 3.5l56 56A12.3 12.3 0 0 1 224 92v32a12 12 0 0 1-24 0v-12h-52a12 12 0 0 1-12-12V48H56v76a12 12 0 0 1-24 0Zm128-67v31h31Zm8 135a40 40 0 0 1-40 40h-16a12 12 0 0 1-12-12v-56a12 12 0 0 1 12-12h16a40 40 0 0 1 40 40Zm-24 0a16 16 0 0 0-16-16h-4v32h4a16 16 0 0 0 16-16Zm-60-8a32.1 32.1 0 0 1-32 32h-4v4a12 12 0 0 1-24 0v-56a12 12 0 0 1 12-12h16a32.1 32.1 0 0 1 32 32Zm-24 0a8 8 0 0 0-8-8h-4v16h4a8 8 0 0 0 8-8Z"></path></svg>