<svg xmlns="http://www.w3.org/2000/svg" xmlns:xlink="http://www.w3.org/1999/xlink" aria-hidden="true" role="img" class="iconify iconify--ph" width="1em" height="1em" preserveAspectRatio="xMidYMid meet" viewBox="0 0 256 256"><path fill="currentColor" d="M212 88a4.5 4.5 0 0 0-1.2-2.9l-56-55.9A3.6 3.6 0 0 0 152 28H56a12 12 0 0 0-12 12v176a12 12 0 0 0 12 12h144a12 12 0 0 0 12-12V88.1Zm-56-46.3L198.3 84H156ZM200 220H56a4 4 0 0 1-4-4V40a4 4 0 0 1 4-4h92v52a4 4 0 0 0 4 4h52v124a4 4 0 0 1-4 4Zm-25.2-70.8a3.9 3.9 0 0 1 0 5.6l-24 24a3.9 3.9 0 0 1-2.8 1.2a3.8 3.8 0 0 1-2.8-1.2a3.9 3.9 0 0 1 0-5.6l21.1-21.2l-21.1-21.2a4 4 0 1 1 5.6-5.6Zm-64-18.4L89.7 152l21.1 21.2a3.9 3.9 0 0 1 0 5.6a3.9 3.9 0 0 1-2.8 1.2a3.8 3.8 0 0 1-2.8-1.2l-24-24a3.9 3.9 0 0 1 0-5.6l24-24a4 4 0 1 1 5.6 5.6Z"></path></svg>