<svg xmlns="http://www.w3.org/2000/svg" xmlns:xlink="http://www.w3.org/1999/xlink" aria-hidden="true" role="img" class="iconify iconify--ph" width="1em" height="1em" preserveAspectRatio="xMidYMid meet" viewBox="0 0 256 256"><path fill="currentColor" d="M220 92v-4a12.3 12.3 0 0 0-3.5-8.5l-56-56A12.3 12.3 0 0 0 152 20H56a20.1 20.1 0 0 0-20 20v176a20.1 20.1 0 0 0 20 20h144a20.1 20.1 0 0 0 20-20V92Zm-37-12h-23V57ZM60 212V44h76v48a12 12 0 0 0 12 12h48v108Zm104.5-68.5a12 12 0 0 1 0 17a12.1 12.1 0 0 1-17 0L140 153v31a12 12 0 0 1-24 0v-31l-7.5 7.5a12 12 0 0 1-17-17l28-28l.9-.8l.4-.3l.5-.4l.6-.3l.4-.3l.6-.2l.5-.3l.6-.2l.5-.2h.6l.6-.2h4.6l.6.2h.6l.5.2l.6.2l.5.3l.6.2l.4.3l.6.3l.5.4l.4.3l.9.8Z"></path></svg>