<svg xmlns="http://www.w3.org/2000/svg" xmlns:xlink="http://www.w3.org/1999/xlink" aria-hidden="true" role="img" class="iconify iconify--ph" width="1em" height="1em" preserveAspectRatio="xMidYMid meet" viewBox="0 0 256 256"><path fill="currentColor" d="M212.8 171.6L197.5 192l15.3 20.4a6 6 0 0 1-9.6 7.2L190 202l-13.2 17.6a6 6 0 1 1-9.6-7.2l15.3-20.4l-15.3-20.4a6 6 0 1 1 9.6-7.2L190 182l13.2-17.6a6 6 0 0 1 9.6 7.2ZM84 162H48a6 6 0 0 0 0 12h12v42a6 6 0 0 0 12 0v-42h12a6 6 0 0 0 0-12Zm45.2 23.7c-7.8-2-11.2-3.3-11.2-5.7c0-6.1 5.6-7 9-7a19.7 19.7 0 0 1 11.2 3.6a6 6 0 0 0 7.6-9.2A30 30 0 0 0 127 161c-12.4 0-21 7.8-21 19s11.6 15.1 20.1 17.3S138 201 138 204s0 7-11 7a20 20 0 0 1-11.2-3.6a6 6 0 1 0-7.6 9.2A30 30 0 0 0 127 223c14.4 0 23-7.1 23-19s-12.5-16.1-20.8-18.3ZM214 88.2V128a6 6 0 0 1-12 0V94h-50a6 6 0 0 1-6-6V38H56a2 2 0 0 0-2 2v88a6 6 0 0 1-12 0V40a14 14 0 0 1 14-14h96a5.6 5.6 0 0 1 4.2 1.8l56 55.9A6 6 0 0 1 214 88ZM158 82h35.5L158 46.5Z"></path></svg>