<svg xmlns="http://www.w3.org/2000/svg" xmlns:xlink="http://www.w3.org/1999/xlink" aria-hidden="true" role="img" class="iconify iconify--ph" width="1em" height="1em" preserveAspectRatio="xMidYMid meet" viewBox="0 0 256 256"><path fill="currentColor" d="m212.2 83.8l-56-56A5.6 5.6 0 0 0 152 26H56a14 14 0 0 0-14 14v176a14 14 0 0 0 14 14h144a14 14 0 0 0 14-14V88a5.6 5.6 0 0 0-1.8-4.2ZM158 46.5L193.5 82H158ZM200 218H56a2 2 0 0 1-2-2V40a2 2 0 0 1 2-2h90v50a6 6 0 0 0 6 6h50v122a2 2 0 0 1-2 2Zm-39.8-66.2a5.8 5.8 0 0 1 0 8.4l-28 28a5.8 5.8 0 0 1-8.4 0l-28-28a5.9 5.9 0 0 1 8.4-8.4l17.8 17.7V120a6 6 0 0 1 12 0v49.5l17.8-17.7a5.8 5.8 0 0 1 8.4 0Z"></path></svg>