<svg xmlns="http://www.w3.org/2000/svg" xmlns:xlink="http://www.w3.org/1999/xlink" aria-hidden="true" role="img" class="iconify iconify--ph" width="1em" height="1em" preserveAspectRatio="xMidYMid meet" viewBox="0 0 256 256"><path fill="currentColor" d="M214.4 172.8L200 192l14.4 19.2a8 8 0 0 1-1.6 11.2a7.7 7.7 0 0 1-4.8 1.6a8 8 0 0 1-6.4-3.2L190 205.3l-11.6 15.5a8 8 0 0 1-6.4 3.2a7.7 7.7 0 0 1-4.8-1.6a8 8 0 0 1-1.6-11.2L180 192l-14.4-19.2a8 8 0 0 1 12.8-9.6l11.6 15.5l11.6-15.5a8.1 8.1 0 0 1 11.2-1.6a8 8 0 0 1 1.6 11.2ZM84 160H48a8 8 0 0 0 0 16h10v40a8 8 0 0 0 16 0v-40h10a8 8 0 0 0 0-16Zm132-71.8V128a8 8 0 0 1-16 0V96h-48a8 8 0 0 1-8-8V40H56v88a8 8 0 0 1-16 0V40a16 16 0 0 1 16-16h96a8.1 8.1 0 0 1 5.7 2.3l55.9 56A7.8 7.8 0 0 1 216 88ZM160 80h28.7L160 51.3Zm-30.3 103.8c-3.1-.8-8.6-2.3-9.7-3.6v-.2c0-3.3 2.4-5 7-5a18.4 18.4 0 0 1 10 3.2h-.1a8.3 8.3 0 0 0 5.1 1.8a8 8 0 0 0 8-8a7.6 7.6 0 0 0-2.9-6.1A33.4 33.4 0 0 0 127 159c-13.5 0-23 8.6-23 21s13 17 21.6 19.3c3.4.9 7 1.8 9.2 3.1s1.2 1 1.2 1.6s0 5-9 5a18.4 18.4 0 0 1-10-3.2h.1a8.3 8.3 0 0 0-5.1-1.8a8 8 0 0 0-8 8a7.6 7.6 0 0 0 2.9 6.1A33.4 33.4 0 0 0 127 225c15.6 0 25-7.9 25-21s-14-18-22.3-20.2Z"></path></svg>