<svg xmlns="http://www.w3.org/2000/svg" xmlns:xlink="http://www.w3.org/1999/xlink" aria-hidden="true" role="img" class="iconify iconify--ph" width="1em" height="1em" preserveAspectRatio="xMidYMid meet" viewBox="0 0 256 256"><path fill="currentColor" d="m216.5 79.5l-56-56A12.3 12.3 0 0 0 152 20H56a20.1 20.1 0 0 0-20 20v176a20.1 20.1 0 0 0 20 20h144a20.1 20.1 0 0 0 20-20V88a12.3 12.3 0 0 0-3.5-8.5ZM160 57l23 23h-23ZM60 212V44h76v48a12 12 0 0 0 12 12h48v108Zm104.5-64.5a12 12 0 0 1 0 17l-28 28a12.1 12.1 0 0 1-17 0l-28-28a12 12 0 0 1 17-17l7.5 7.5v-31a12 12 0 0 1 24 0v31l7.5-7.5a12 12 0 0 1 17 0Z"></path></svg>