<svg xmlns="http://www.w3.org/2000/svg" xmlns:xlink="http://www.w3.org/1999/xlink" aria-hidden="true" role="img" class="iconify iconify--ph" width="1em" height="1em" preserveAspectRatio="xMidYMid meet" viewBox="0 0 256 256"><path fill="currentColor" d="M140 164v56a12 12 0 0 1-24 0v-56a12 12 0 0 1 24 0Zm-56 44H67.3l26.5-37a12.2 12.2 0 0 0 .9-12.5A12.1 12.1 0 0 0 84 152H44a12 12 0 0 0 0 24h16.7l-26.5 37a12.2 12.2 0 0 0-.9 12.5A12.1 12.1 0 0 0 44 232h40a12 12 0 0 0 0-24Zm140-24a32.1 32.1 0 0 1-32 32h-4v4a12 12 0 0 1-24 0v-56a12 12 0 0 1 12-12h16a32.1 32.1 0 0 1 32 32Zm-24 0a8 8 0 0 0-8-8h-4v16h4a8 8 0 0 0 8-8Zm24-92v32a12 12 0 0 1-24 0v-12h-52a12 12 0 0 1-12-12V48H56v76a12 12 0 0 1-24 0V44a20.1 20.1 0 0 1 20-20h104a12.3 12.3 0 0 1 8.5 3.5l56 56A12.3 12.3 0 0 1 224 92Zm-33-4l-31-31v31Z"></path></svg>