<svg xmlns="http://www.w3.org/2000/svg" xmlns:xlink="http://www.w3.org/1999/xlink" aria-hidden="true" role="img" class="iconify iconify--ph" width="1em" height="1em" preserveAspectRatio="xMidYMid meet" viewBox="0 0 256 256"><path fill="currentColor" d="M126 176a6 6 0 0 1-6 6h-10v34a6 6 0 0 1-12 0v-34H88a6 6 0 0 1 0-12h32a6 6 0 0 1 6 6Zm-62-6a6 6 0 0 0-6 6v14H42v-14a6 6 0 0 0-12 0v40a6 6 0 0 0 12 0v-14h16v14a6 6 0 0 0 12 0v-40a6 6 0 0 0-6-6Zm172 40h-18v-34a6 6 0 0 0-12 0v40a6 6 0 0 0 6 6h24a6 6 0 0 0 0-12Zm-50.2-39.7a6 6 0 0 0-6.7 2.2L164 193.7l-15.1-21.2A6 6 0 0 0 138 176v40a6 6 0 0 0 12 0v-21.3l9.1 12.8a6.1 6.1 0 0 0 9.8 0l9.1-12.8V216a6 6 0 0 0 12 0v-40a6 6 0 0 0-4.2-5.7ZM208 142a6 6 0 0 1-6-6V94h-50a6 6 0 0 1-6-6V38H56a2 2 0 0 0-2 2v96a6 6 0 0 1-12 0V40a14 14 0 0 1 14-14h96a5.6 5.6 0 0 1 4.2 1.8l56 55.9A6 6 0 0 1 214 88v48a6 6 0 0 1-6 6Zm-50-60h35.5L158 46.5Z"></path></svg>