<svg xmlns="http://www.w3.org/2000/svg" xmlns:xlink="http://www.w3.org/1999/xlink" aria-hidden="true" role="img" class="iconify iconify--ph" width="1em" height="1em" preserveAspectRatio="xMidYMid meet" viewBox="0 0 256 256"><path fill="currentColor" d="M154 216a6 6 0 0 1-6 6h-28a6 6 0 0 1-6-6v-48a6 6 0 0 1 12 0v42h22a6 6 0 0 1 6 6Zm-62.4-52.8a5.9 5.9 0 0 0-8.4 1.2L70 182l-13.2-17.6a6 6 0 1 0-9.6 7.2L62.5 192l-15.3 20.4a6 6 0 1 0 9.6 7.2L70 202l13.2 17.6a6 6 0 0 0 9.6-7.2L77.5 192l15.3-20.4a5.9 5.9 0 0 0-1.2-8.4Zm101.6 22.5c-7.8-2-11.2-3.3-11.2-5.7c0-6.1 5.6-7 9-7a19.7 19.7 0 0 1 11.2 3.6a6 6 0 0 0 7.6-9.2A30 30 0 0 0 191 161c-12.4 0-21 7.8-21 19s11.6 15.1 20.1 17.3S202 201 202 204s0 7-11 7a20 20 0 0 1-11.2-3.6a6 6 0 1 0-7.6 9.2A30 30 0 0 0 191 223c14.4 0 23-7.1 23-19s-12.5-16.1-20.8-18.3ZM214 88.2V128a6 6 0 0 1-12 0V94h-50a6 6 0 0 1-6-6V38H56a2 2 0 0 0-2 2v88a6 6 0 0 1-12 0V40a14 14 0 0 1 14-14h96a5.6 5.6 0 0 1 4.2 1.8l56 55.9A6 6 0 0 1 214 88ZM158 82h35.5L158 46.5Z"></path></svg>