<svg xmlns="http://www.w3.org/2000/svg" xmlns:xlink="http://www.w3.org/1999/xlink" aria-hidden="true" role="img" class="iconify iconify--ph" width="1em" height="1em" preserveAspectRatio="xMidYMid meet" viewBox="0 0 256 256"><path fill="currentColor" d="m220.5 59.5l-40-40A12.3 12.3 0 0 0 172 16H92a20.1 20.1 0 0 0-20 20v20H56a20.1 20.1 0 0 0-20 20v140a20.1 20.1 0 0 0 20 20h108a20.1 20.1 0 0 0 20-20v-20h20a20.1 20.1 0 0 0 20-20V68a12.3 12.3 0 0 0-3.5-8.5ZM160 212H60V80h67l33 33Zm40-40h-16v-64a12.3 12.3 0 0 0-3.5-8.5l-40-40A12.3 12.3 0 0 0 132 56H96V40h71l33 33Zm-56-28a12 12 0 0 1-12 12H88a12 12 0 0 1 0-24h44a12 12 0 0 1 12 12Zm0 40a12 12 0 0 1-12 12H88a12 12 0 0 1 0-24h44a12 12 0 0 1 12 12Z"></path></svg>