<svg xmlns="http://www.w3.org/2000/svg" xmlns:xlink="http://www.w3.org/1999/xlink" aria-hidden="true" role="img" class="iconify iconify--ph" width="1em" height="1em" preserveAspectRatio="xMidYMid meet" viewBox="0 0 256 256"><path fill="currentColor" d="M88 168a4 4 0 0 1-4 4H70v44a4 4 0 0 1-8 0v-44H48a4 4 0 0 1 0-8h36a4 4 0 0 1 4 4Zm40.6 19.7c-8.6-2.3-12.6-3.8-12.6-7.7c0-5.6 4.1-9 11-9a20.7 20.7 0 0 1 12.4 4.1a4 4 0 1 0 5.2-6.2A30 30 0 0 0 127 163c-11.4 0-19 6.8-19 17s10.3 13.2 18.6 15.4s13.4 4 13.4 8.6c0 2.5 0 9-13 9a21.5 21.5 0 0 1-12.5-4.1a4 4 0 0 0-5.6.5a4.1 4.1 0 0 0 .5 5.7A30 30 0 0 0 127 221c13.3 0 21-6.2 21-17s-10.7-14.1-19.4-16.3ZM212 88.1V216a12 12 0 0 1-12 12h-16a4 4 0 0 1 0-8h16a4 4 0 0 0 4-4V92h-52a4 4 0 0 1-4-4V36H56a4 4 0 0 0-4 4v88a4 4 0 0 1-8 0V40a12 12 0 0 1 12-12h96a3.6 3.6 0 0 1 2.8 1.2l56 55.9A4.5 4.5 0 0 1 212 88ZM156 84h42.3L156 41.7Z"></path></svg>