<svg xmlns="http://www.w3.org/2000/svg" xmlns:xlink="http://www.w3.org/1999/xlink" aria-hidden="true" role="img" class="iconify iconify--ph" width="1em" height="1em" preserveAspectRatio="xMidYMid meet" viewBox="0 0 256 256"><path fill="currentColor" d="M208 88h-56V32Z" opacity=".2"></path><path fill="currentColor" d="M128 176a8 8 0 0 1-8 8h-8v32a8 8 0 0 1-16 0v-32h-8a8 8 0 0 1 0-16h32a8 8 0 0 1 8 8Zm-64-8a8 8 0 0 0-8 8v12H44v-12a8 8 0 0 0-16 0v40a8 8 0 0 0 16 0v-12h12v12a8 8 0 0 0 16 0v-40a8 8 0 0 0-8-8Zm172 40h-16v-32a8 8 0 0 0-16 0v40a8 8 0 0 0 8 8h24a8 8 0 0 0 0-16Zm-49.6-39.6a7.8 7.8 0 0 0-8.9 3L164 190.2l-13.5-18.8A8 8 0 0 0 136 176v40a8 8 0 0 0 16 0v-15l5.5 7.6a7.9 7.9 0 0 0 13 0l5.5-7.6v15a8 8 0 0 0 16 0v-40a7.8 7.8 0 0 0-5.6-7.6ZM208 136a8 8 0 0 1-8-8V96h-48a8 8 0 0 1-8-8V40H56v88a8 8 0 0 1-16 0V40a16 16 0 0 1 16-16h96a8.1 8.1 0 0 1 5.7 2.3l55.9 56A7.8 7.8 0 0 1 216 88v40a8 8 0 0 1-8 8Zm-48-56h28.7L160 51.3Z"></path></svg>