<svg xmlns="http://www.w3.org/2000/svg" xmlns:xlink="http://www.w3.org/1999/xlink" aria-hidden="true" role="img" class="iconify iconify--ph" width="1em" height="1em" preserveAspectRatio="xMidYMid meet" viewBox="0 0 256 256"><path fill="currentColor" d="m213.7 82.3l-56-56A8.1 8.1 0 0 0 152 24H56a16 16 0 0 0-16 16v88a8 8 0 0 0 16 0V40h88v48a8 8 0 0 0 8 8h48v120h-24a8 8 0 0 0 0 16h24a16 16 0 0 0 16-16V88a8.1 8.1 0 0 0-2.3-5.7ZM160 80V51.3L188.7 80Zm0 100a52 52 0 0 1-52 52H60a36 36 0 0 1-9.2-70.8A65.3 65.3 0 0 0 48 180a8 8 0 0 0 16 0a47.4 47.4 0 0 1 4.4-20a48 48 0 0 1 91.6 20Z"></path></svg>