<svg xmlns="http://www.w3.org/2000/svg" xmlns:xlink="http://www.w3.org/1999/xlink" aria-hidden="true" role="img" class="iconify iconify--ph" width="1em" height="1em" preserveAspectRatio="xMidYMid meet" viewBox="0 0 256 256"><path fill="currentColor" d="M188 176v8h16a8 8 0 0 1 0 16h-16v8h20a8 8 0 0 1 0 16h-28a8 8 0 0 1-8-8v-48a8 8 0 0 1 8-8h28a8 8 0 0 1 0 16ZM87.1 160.6a8 8 0 0 0-10.5 4.3L64 195.2l-12.6-30.3a8 8 0 0 0-14.8 6.2l20 48a8 8 0 0 0 14.8 0l20-48a8 8 0 0 0-4.3-10.5Zm60.9-.6a8 8 0 0 0-8 8v30a10 10 0 0 1-20 0v-30a8 8 0 0 0-16 0v30a26 26 0 0 0 52 0v-30a8 8 0 0 0-8-8Zm68-71.8V128a8 8 0 0 1-16 0V96h-48a8 8 0 0 1-8-8V40H56v88a8 8 0 0 1-16 0V40a16 16 0 0 1 16-16h96a8.1 8.1 0 0 1 5.7 2.3l55.9 56A7.8 7.8 0 0 1 216 88ZM160 80h28.7L160 51.3Z"></path></svg>