<svg xmlns="http://www.w3.org/2000/svg" xmlns:xlink="http://www.w3.org/1999/xlink" aria-hidden="true" role="img" class="iconify iconify--ph" width="1em" height="1em" preserveAspectRatio="xMidYMid meet" viewBox="0 0 256 256"><path fill="currentColor" d="M214 88a6 6 0 0 0-1.8-4.3l-56-55.9A5.6 5.6 0 0 0 152 26H56a14 14 0 0 0-14 14v88a6 6 0 0 0 12 0V40a2 2 0 0 1 2-2h90v50a6 6 0 0 0 6 6h50v122a2 2 0 0 1-2 2h-32a6 6 0 0 0 0 12h32a14 14 0 0 0 14-14V88Zm-56-41.5L193.5 82H158ZM98.5 146.6a5.8 5.8 0 0 0-6.3.8L69.8 166H48a6 6 0 0 0-6 6v32a6 6 0 0 0 6 6h21.8l22.4 18.6A5.9 5.9 0 0 0 96 230a5.4 5.4 0 0 0 2.5-.6a5.9 5.9 0 0 0 3.5-5.4v-72a5.9 5.9 0 0 0-3.5-5.4ZM90 211.2l-14.2-11.8A5.7 5.7 0 0 0 72 198H54v-20h18a5.7 5.7 0 0 0 3.8-1.4L90 164.8Zm56-23.2a38.1 38.1 0 0 1-14.2 29.7a7 7 0 0 1-3.8 1.3a6 6 0 0 1-3.8-10.7a25.9 25.9 0 0 0 0-40.6a6 6 0 0 1-.9-8.4a6.1 6.1 0 0 1 8.5-1A38.1 38.1 0 0 1 146 188Z"></path></svg>