<svg xmlns="http://www.w3.org/2000/svg" xmlns:xlink="http://www.w3.org/1999/xlink" aria-hidden="true" role="img" class="iconify iconify--ph" width="1em" height="1em" preserveAspectRatio="xMidYMid meet" viewBox="0 0 256 256"><path fill="currentColor" d="m216.5 79.5l-56-56A12.3 12.3 0 0 0 152 20H56a20.1 20.1 0 0 0-20 20v80a12 12 0 0 0 24 0V44h76v48a12 12 0 0 0 12 12h48v108h-8a12 12 0 0 0 0 24h12a20.1 20.1 0 0 0 20-20V88a12.3 12.3 0 0 0-3.5-8.5ZM160 57l23 23h-23Zm-5 97.3a11.9 11.9 0 0 0-10.8-1.7l-21.9 7.3A20 20 0 0 0 104 148H48a20.1 20.1 0 0 0-20 20v40a20.1 20.1 0 0 0 20 20h56a20 20 0 0 0 18.1-11.5l21.8 7.9a11.5 11.5 0 0 0 4.1.8a12.5 12.5 0 0 0 6.9-2.2a11.9 11.9 0 0 0 5.1-9.8V164a11.9 11.9 0 0 0-5-9.7ZM52 204v-32h48v32Zm84-8l-12-4.4v-7l12-4Z"></path></svg>