<svg xmlns="http://www.w3.org/2000/svg" xmlns:xlink="http://www.w3.org/1999/xlink" aria-hidden="true" role="img" class="iconify iconify--ph" width="1em" height="1em" preserveAspectRatio="xMidYMid meet" viewBox="0 0 256 256"><path fill="currentColor" d="m213.7 82.3l-56-56A8.1 8.1 0 0 0 152 24H56a16 16 0 0 0-16 16v88a8 8 0 0 0 8 8h160a8 8 0 0 0 8-8V88a8.1 8.1 0 0 0-2.3-5.7ZM152 88V44l44 44Zm-60 80a8 8 0 0 1-8 8H74v40a8 8 0 0 1-16 0v-40H48a8 8 0 0 1 0-16h36a8 8 0 0 1 8 8Zm122.4 4.8L200 192l14.4 19.2a8 8 0 0 1-1.6 11.2a7.7 7.7 0 0 1-4.8 1.6a8 8 0 0 1-6.4-3.2L190 205.3l-11.6 15.5a8 8 0 0 1-6.4 3.2a7.7 7.7 0 0 1-4.8-1.6a8.1 8.1 0 0 1-1.6-11.2L180 192l-14.4-19.2a8.1 8.1 0 0 1 1.6-11.2a8 8 0 0 1 11.2 1.6l11.6 15.5l11.6-15.5a8 8 0 1 1 12.8 9.6ZM152 204c0 13.1-9.3 21-25 21a33.4 33.4 0 0 1-20.1-6.8a7.6 7.6 0 0 1-2.9-6.2a8 8 0 0 1 8-8a8.3 8.3 0 0 1 5.1 1.8h-.1a18.4 18.4 0 0 0 10 3.2c9 0 9-3 9-5s0-.9-1.2-1.6s-5.8-2.2-9.2-3.1C117 197 104 193.5 104 180s9.5-21 23-21a33.4 33.4 0 0 1 20.1 6.8a7.6 7.6 0 0 1 2.9 6.2a8 8 0 0 1-8 8a8.3 8.3 0 0 1-5.1-1.8h.1a18.4 18.4 0 0 0-10-3.2c-4.6 0-7 1.7-7 5v.2c1.1 1.3 6.6 2.8 9.7 3.6C138 186 152 189.7 152 204Z"></path></svg>