<svg xmlns="http://www.w3.org/2000/svg" xmlns:xlink="http://www.w3.org/1999/xlink" aria-hidden="true" role="img" class="iconify iconify--ph" width="1em" height="1em" preserveAspectRatio="xMidYMid meet" viewBox="0 0 256 256"><path fill="currentColor" d="M160 164v56a12 12 0 0 1-21.8 7L120 201.4V220a12 12 0 0 1-24 0v-56a12 12 0 0 1 21.8-7l18.2 25.6V164a12 12 0 0 1 24 0ZM32 124V44a20.1 20.1 0 0 1 20-20h104a12.3 12.3 0 0 1 8.5 3.5l56 56A12.3 12.3 0 0 1 224 92v32a12 12 0 0 1-24 0v-12h-52a12 12 0 0 1-12-12V48H56v76a12 12 0 0 1-24 0Zm128-67v31h31ZM84 184a32.1 32.1 0 0 1-32 32h-4v4a12 12 0 0 1-24 0v-56a12 12 0 0 1 12-12h16a32.1 32.1 0 0 1 32 32Zm-24 0a8 8 0 0 0-8-8h-4v16h4a8 8 0 0 0 8-8Zm168 2.9h-8a12 12 0 0 0-12 12a11.9 11.9 0 0 0 3.1 8a12.6 12.6 0 0 1-5.1 1.1c-7.7 0-14-7.2-14-16s6.3-16 14-16a12.8 12.8 0 0 1 7.2 2.3a12 12 0 0 0 13.6-19.8A37.1 37.1 0 0 0 206 152c-21 0-38 17.9-38 40s17 40 38 40c13.3 0 25.4-7.1 32.4-19a12.9 12.9 0 0 0 1.6-6.1v-8a12 12 0 0 0-12-12Z"></path></svg>