<svg xmlns="http://www.w3.org/2000/svg" xmlns:xlink="http://www.w3.org/1999/xlink" aria-hidden="true" role="img" class="iconify iconify--ph" width="1em" height="1em" preserveAspectRatio="xMidYMid meet" viewBox="0 0 256 256"><path fill="currentColor" d="M224 92a12.3 12.3 0 0 0-3.5-8.5l-56-56A12.3 12.3 0 0 0 156 24H52a20.1 20.1 0 0 0-20 20v80a12 12 0 0 0 24 0V48h80v52a12 12 0 0 0 12 12h52v96h-20a12 12 0 0 0 0 24h24a20.1 20.1 0 0 0 20-20Zm-64-35l31 31h-31ZM88 164a12 12 0 0 1-12 12h-8v44a12 12 0 0 1-24 0v-44h-8a12 12 0 0 1 0-24h40a12 12 0 0 1 12 12Zm64 41.4c0 16.2-11.4 26.6-29 26.6a36.2 36.2 0 0 1-23.2-8.8a12 12 0 0 1 8.2-20.8a12 12 0 0 1 8.2 3.2h-.2a12 12 0 0 0 7 2.5c3.1 0 4.5-.6 4.8-.8a3.7 3.7 0 0 0 .2-1.4c-1.6-1-5.4-2.1-7.8-2.8c-8.5-2.5-24.2-7.2-24.2-24.4c0-15.4 11.4-26.6 27-26.6a36.2 36.2 0 0 1 23.2 8.8a12 12 0 0 1-8.2 20.8a12 12 0 0 1-8.2-3.2h.2a12 12 0 0 0-7-2.5c-2.3 0-2.8.6-3 1.6c1.7.8 4.9 1.7 7 2.4c8.8 2.6 25 7.4 25 25.4Z"></path></svg>