<svg xmlns="http://www.w3.org/2000/svg" xmlns:xlink="http://www.w3.org/1999/xlink" aria-hidden="true" role="img" class="iconify iconify--ph" width="1em" height="1em" preserveAspectRatio="xMidYMid meet" viewBox="0 0 256 256"><path fill="currentColor" d="M212 88a4.5 4.5 0 0 0-1.2-2.9l-56-55.9A3.6 3.6 0 0 0 152 28H56a12 12 0 0 0-12 12v88a4 4 0 0 0 8 0V40a4 4 0 0 1 4-4h92v52a4 4 0 0 0 4 4h52v36a4 4 0 0 0 8 0V88.1Zm-56-46.3L198.3 84H156ZM184 164h-16a4 4 0 0 0-4 4v48a4 4 0 0 0 8 0v-12h12a20 20 0 0 0 0-40Zm0 32h-12v-24h12a12 12 0 0 1 0 24Zm-52-28v48a4 4 0 0 1-8 0v-48a4 4 0 0 1 8 0Zm-40 48a4 4 0 0 1-4 4H56a3.9 3.9 0 0 1-3.5-2.1a4 4 0 0 1 .2-4.1L80.5 172H56a4 4 0 0 1 0-8h32a3.9 3.9 0 0 1 3.5 2.1a4 4 0 0 1-.2 4.1L63.5 212H88a4 4 0 0 1 4 4Z"></path></svg>