<svg xmlns="http://www.w3.org/2000/svg" xmlns:xlink="http://www.w3.org/1999/xlink" aria-hidden="true" role="img" class="iconify iconify--ph" width="1em" height="1em" preserveAspectRatio="xMidYMid meet" viewBox="0 0 256 256"><path fill="currentColor" d="M144 204c0 13.1-9.3 21-25 21a33.4 33.4 0 0 1-20.1-6.8A7.6 7.6 0 0 1 96 212a8 8 0 0 1 8-8a8.3 8.3 0 0 1 5.1 1.8h-.1a18.4 18.4 0 0 0 10 3.2c9 0 9-3 9-5s0-.9-1.2-1.6s-5.8-2.2-9.2-3.1C109 197 96 193.5 96 180s9.5-21 23-21a33.4 33.4 0 0 1 20.1 6.8a7.6 7.6 0 0 1 2.9 6.2a8 8 0 0 1-8 8a8.3 8.3 0 0 1-5.1-1.8h.1a18.4 18.4 0 0 0-10-3.2c-4.6 0-7 1.7-7 5v.2c1.1 1.3 6.6 2.8 9.7 3.6C130 186 144 189.7 144 204Zm-72-44a8 8 0 0 0-8 8v32a8 8 0 0 1-16 0a8 8 0 0 0-16 0a24 24 0 0 0 48 0v-32a8 8 0 0 0-8-8Zm144-72v128a16 16 0 0 1-16 16h-24a8 8 0 0 1-8-8v-80a8 8 0 0 0-8-8H48a8 8 0 0 1-8-8V40a16 16 0 0 1 16-16h96a8.1 8.1 0 0 1 5.7 2.3l56 56A8.1 8.1 0 0 1 216 88Zm-20 0l-44-44v44Z"></path></svg>