<svg xmlns="http://www.w3.org/2000/svg" xmlns:xlink="http://www.w3.org/1999/xlink" aria-hidden="true" role="img" class="iconify iconify--ph" width="1em" height="1em" preserveAspectRatio="xMidYMid meet" viewBox="0 0 256 256"><path fill="currentColor" d="M112.3 153.7a9.9 9.9 0 0 0-16.6 0l-19.2 28.8l-8.1-12.5a10 10 0 0 0-16.8 0L19 220.8a6 6 0 0 0-.3 6.1A6.1 6.1 0 0 0 24 230h128a6 6 0 0 0 5-9.3ZM35 218l25-38.9l8 12.5a10.3 10.3 0 0 0 8.3 4.6h.1a9.8 9.8 0 0 0 8.3-4.5l19.3-28.9l36.8 55.2ZM214 88a6 6 0 0 0-1.8-4.3l-56-55.9A5.6 5.6 0 0 0 152 26H56a14 14 0 0 0-14 14v96a6 6 0 0 0 12 0V40a2 2 0 0 1 2-2h90v50a6 6 0 0 0 6 6h50v122a2 2 0 0 1-2 2h-8a6 6 0 0 0 0 12h8a14 14 0 0 0 14-14V88Zm-56-41.5L193.5 82H158Z"></path></svg>