<svg xmlns="http://www.w3.org/2000/svg" xmlns:xlink="http://www.w3.org/1999/xlink" aria-hidden="true" role="img" class="iconify iconify--ph" width="1em" height="1em" preserveAspectRatio="xMidYMid meet" viewBox="0 0 256 256"><path fill="currentColor" d="m212.2 83.8l-56-56A5.6 5.6 0 0 0 152 26H56a14 14 0 0 0-14 14v88a6 6 0 0 0 12 0V40a2 2 0 0 1 2-2h90v50a6 6 0 0 0 6 6h50v122a2 2 0 0 1-2 2h-32a6 6 0 0 0 0 12h32a14 14 0 0 0 14-14V88a5.6 5.6 0 0 0-1.8-4.2ZM158 46.5L193.5 82H158ZM128 174h-10v-6a26 26 0 0 0-52 0v6H56a6 6 0 0 0-6 6v44a6 6 0 0 0 6 6h72a6 6 0 0 0 6-6v-44a6 6 0 0 0-6-6Zm-50-6a14 14 0 0 1 28 0v6H78Zm44 50H62v-32h60Z"></path></svg>