<svg xmlns="http://www.w3.org/2000/svg" xmlns:xlink="http://www.w3.org/1999/xlink" aria-hidden="true" role="img" class="iconify iconify--ph" width="1em" height="1em" preserveAspectRatio="xMidYMid meet" viewBox="0 0 256 256"><path fill="currentColor" d="M208 88h-56V32Z" opacity=".2"></path><path fill="currentColor" d="M216 88a7.7 7.7 0 0 0-2.4-5.7l-55.9-56l-.6-.5h-.2l-.5-.3h-.1l-.5-.4h-.1l-.6-.3h-.1l-.7-.3H56A16 16 0 0 0 40 40v176a16 16 0 0 0 16 16h144a16 16 0 0 0 16-16V88Zm-56-36.7L188.7 80H160ZM200 216H56V40h88v48a8 8 0 0 0 8 8h48v120Zm-38.3-73.7a8.1 8.1 0 0 1 0 11.4a8.2 8.2 0 0 1-11.4 0L136 139.3V184a8 8 0 0 1-16 0v-44.7l-14.3 14.4a8.1 8.1 0 0 1-11.4-11.4l28-28l.6-.5l.3-.2l.4-.3l.3-.2l.3-.2h.4l.3-.2h.4l.4-.2h4.6l.4.2h.4l.3.2h.4l.3.2l.3.2l.4.3l.3.2l.6.5Z"></path></svg>