<svg xmlns="http://www.w3.org/2000/svg" xmlns:xlink="http://www.w3.org/1999/xlink" aria-hidden="true" role="img" class="iconify iconify--ph" width="1em" height="1em" preserveAspectRatio="xMidYMid meet" viewBox="0 0 256 256"><path fill="currentColor" d="M212 88a4.5 4.5 0 0 0-1.2-2.9l-56-55.9l-.6-.4h-.2l-.5-.3H56A12 12 0 0 0 44 40v88a4 4 0 0 0 8 0V40a4 4 0 0 1 4-4h92v52a4 4 0 0 0 4 4h52v124a4 4 0 0 1-4 4h-24a4 4 0 0 0 0 8h24a12 12 0 0 0 12-12V88.1Zm-56-46.3L198.3 84H156ZM108 132a48.1 48.1 0 0 0-45.3 32H60a32 32 0 0 0 0 64h48a48 48 0 0 0 0-96Zm0 88H60a24 24 0 0 1 0-48h.7a42.5 42.5 0 0 0-.7 8a4 4 0 0 0 8 0a40 40 0 1 1 40 40Z"></path></svg>