<svg xmlns="http://www.w3.org/2000/svg" xmlns:xlink="http://www.w3.org/1999/xlink" aria-hidden="true" role="img" class="iconify iconify--ph" width="1em" height="1em" preserveAspectRatio="xMidYMid meet" viewBox="0 0 256 256"><path fill="currentColor" d="M216 88a7.8 7.8 0 0 0-2.4-5.7l-55.9-56A8.1 8.1 0 0 0 152 24H56a16 16 0 0 0-16 16v88a8 8 0 0 0 16 0V40h88v48a8 8 0 0 0 8 8h48v120h-24a8 8 0 0 0 0 16h24a16 16 0 0 0 16-16V88Zm-56-36.7L188.7 80H160Zm-11.8 105.9a8 8 0 0 0-7.8-.4L120 167.1a16.1 16.1 0 0 0-16-15.1H48a16 16 0 0 0-16 16v40a16 16 0 0 0 16 16h56a16 16 0 0 0 15.9-14.7l20.3 10.9a7.5 7.5 0 0 0 3.8 1a7.8 7.8 0 0 0 4.1-1.2a7.9 7.9 0 0 0 3.9-6.8V164a7.9 7.9 0 0 0-3.8-6.8ZM104 208H48v-40h56v40Zm32-8.2l-16-8.6v-6.3l16-8Z"></path></svg>