<svg xmlns="http://www.w3.org/2000/svg" xmlns:xlink="http://www.w3.org/1999/xlink" aria-hidden="true" role="img" class="iconify iconify--ph" width="1em" height="1em" preserveAspectRatio="xMidYMid meet" viewBox="0 0 256 256"><path fill="currentColor" d="M64 162H48a6 6 0 0 0-6 6v48a6 6 0 0 0 12 0v-10h10a22 22 0 0 0 0-44Zm0 32H54v-20h10a10 10 0 0 1 0 20Zm64-32h-16a6 6 0 0 0-6 6v48a6 6 0 0 0 12 0v-10h10a22 22 0 0 0 0-44Zm0 32h-10v-20h10a10 10 0 0 1 0 20Zm86-26a6 6 0 0 1-6 6h-12v42a6 6 0 0 1-12 0v-42h-12a6 6 0 0 1 0-12h36a6 6 0 0 1 6 6Zm0-80a6 6 0 0 0-1.8-4.3l-56-55.9A5.6 5.6 0 0 0 152 26H56a14 14 0 0 0-14 14v88a6 6 0 0 0 12 0V40a2 2 0 0 1 2-2h90v50a6 6 0 0 0 6 6h50v34a6 6 0 0 0 12 0V88Zm-56-41.5L193.5 82H158Z"></path></svg>