<svg xmlns="http://www.w3.org/2000/svg" xmlns:xlink="http://www.w3.org/1999/xlink" aria-hidden="true" role="img" class="iconify iconify--ph" width="1em" height="1em" preserveAspectRatio="xMidYMid meet" viewBox="0 0 256 256"><path fill="currentColor" d="M64 160H48a8 8 0 0 0-8 8v48a8 8 0 0 0 16 0v-8h8a24 24 0 0 0 0-48Zm0 32h-8v-16h8a8 8 0 0 1 0 16Zm132-16v12h16a8 8 0 0 1 0 16h-16v12a8 8 0 0 1-16 0v-48a8 8 0 0 1 8-8h28a8 8 0 0 1 0 16Zm-68-16h-14a8 8 0 0 0-8 8v48a8 8 0 0 0 8 8h14a32 32 0 0 0 0-64Zm0 48h-6v-32h6a16 16 0 0 1 0 32Zm-80-72h160a8 8 0 0 0 8-8V88a8.1 8.1 0 0 0-2.3-5.7l-56-56A8.1 8.1 0 0 0 152 24H56a16 16 0 0 0-16 16v88a8 8 0 0 0 8 8Zm104-92l44 44h-44Z"></path></svg>