<svg xmlns="http://www.w3.org/2000/svg" xmlns:xlink="http://www.w3.org/1999/xlink" aria-hidden="true" role="img" class="iconify iconify--ph" width="1em" height="1em" preserveAspectRatio="xMidYMid meet" viewBox="0 0 256 256"><path fill="currentColor" d="M216 40H40a16 16 0 0 0-16 16v144a16 16 0 0 0 16 16h176a16 16 0 0 0 16-16V56a16 16 0 0 0-16-16Zm-32 16h32v16h-32Zm-48 0h32v16h-32Zm-48 0h32v16H88ZM72 200H40v-16h32Zm0-128H40V56h32Zm16 128v-14.7h32V200Zm48 0v-14.7h32V200Zm80 0h-32v-14.7h9.2V184H216v16Z"></path></svg>