<svg xmlns="http://www.w3.org/2000/svg" xmlns:xlink="http://www.w3.org/1999/xlink" aria-hidden="true" role="img" class="iconify iconify--ph" width="1em" height="1em" preserveAspectRatio="xMidYMid meet" viewBox="0 0 256 256"><path fill="currentColor" d="M216 104H100.8l111.3-29.8a7.9 7.9 0 0 0 4.8-3.8a7.5 7.5 0 0 0 .8-6l-8.3-30.9a15.8 15.8 0 0 0-19.5-11.3L35.3 63.6A15.9 15.9 0 0 0 24 83.2l8 29.9V200a16 16 0 0 0 16 16h160a16 16 0 0 0 16-16v-88a8 8 0 0 0-8-8Zm-87-49l29.4 17l-47.7 12.8l-29.4-17Zm65-17.4l6.2 23.2l-20 5.3l-29.4-16.9ZM59.4 73.7l29.4 16.9l-43.1 11.6L39.4 79ZM208 200H48v-80h160v80Z"></path></svg>