<svg xmlns="http://www.w3.org/2000/svg" xmlns:xlink="http://www.w3.org/1999/xlink" aria-hidden="true" role="img" class="iconify iconify--ph" width="1em" height="1em" preserveAspectRatio="xMidYMid meet" viewBox="0 0 256 256"><path fill="currentColor" d="M216 100h-84.9l51-13.7l31-8.3a11.8 11.8 0 0 0 7.3-5.6a12 12 0 0 0 1.2-9.1l-8.3-30.9a20 20 0 0 0-24.5-14.1L34.3 59.7a20.1 20.1 0 0 0-14.2 24.5l7.9 29.4V200a20.1 20.1 0 0 0 20 20h160a20.1 20.1 0 0 0 20-20v-88a12 12 0 0 0-12-12Zm-87.6-40.7L148 70.6l-36.8 9.9l-19.6-11.3Zm62.8-16.8l4.1 15.5l-14.5 3.9l-19.6-11.4ZM58.9 78l19.6 11.3l-30 8l-4.2-15.5ZM204 196H52v-72h152Z"></path></svg>