<svg xmlns="http://www.w3.org/2000/svg" xmlns:xlink="http://www.w3.org/1999/xlink" aria-hidden="true" role="img" class="iconify iconify--ph" width="1em" height="1em" preserveAspectRatio="xMidYMid meet" viewBox="0 0 256 256"><path fill="currentColor" d="M216 106H85.6l25.5-6.8l69.5-18.7l31-8.3a6 6 0 0 0 4.2-7.3L207.5 34a14.2 14.2 0 0 0-6.5-8.5a13.6 13.6 0 0 0-10.6-1.4L35.8 65.5a14 14 0 0 0-9.9 17.1l8.1 30.2V200a14 14 0 0 0 14 14h160a14 14 0 0 0 14-14v-88a6 6 0 0 0-6-6Zm-86.7-53.1l34.2 19.8l-53.1 14.2l-34.3-19.8Zm64.2-17.2h.5a1.9 1.9 0 0 1 1.9 1.5l6.8 25.1l-22.8 6.1l-34.3-19.9ZM38.9 77.1l20.8-5.6L94 91.3l-49.8 13.4l-6.7-25.2a2 2 0 0 1 1.4-2.4ZM210 200a2 2 0 0 1-2 2H48a2 2 0 0 1-2-2v-82h164Z"></path></svg>