<svg xmlns="http://www.w3.org/2000/svg" xmlns:xlink="http://www.w3.org/1999/xlink" aria-hidden="true" role="img" class="iconify iconify--ph" width="1em" height="1em" preserveAspectRatio="xMidYMid meet" viewBox="0 0 256 256"><path fill="currentColor" d="M216 108H70.4l40.2-10.8l69.5-18.6l30.9-8.3a4 4 0 0 0 2.5-1.9a4.5 4.5 0 0 0 .4-3l-8.3-30.9a11.8 11.8 0 0 0-5.6-7.3a12.1 12.1 0 0 0-9.1-1.2L59.5 61.2l-23.2 6.2a11.9 11.9 0 0 0-8.4 14.7l8.1 30.4V200a12 12 0 0 0 12 12h160a12 12 0 0 0 12-12v-88a4 4 0 0 0-4-4Zm-86.5-57.3l39.2 22.7l-58.6 15.7l-39.2-22.7Zm63.5-17h1a4.1 4.1 0 0 1 3.9 3l7.2 27l-25.4 6.8l-39.2-22.7ZM38.4 75.2L60 69.4L99.2 92l-56.4 15.1l-7.2-27a3.9 3.9 0 0 1 2.8-4.9ZM212 200a4 4 0 0 1-4 4H48a4 4 0 0 1-4-4v-84h168Z"></path></svg>