<svg xmlns="http://www.w3.org/2000/svg" xmlns:xlink="http://www.w3.org/1999/xlink" aria-hidden="true" role="img" class="iconify iconify--ph" width="1em" height="1em" preserveAspectRatio="xMidYMid meet" viewBox="0 0 256 256"><path fill="currentColor" d="M160 128a223.6 223.6 0 0 1-26.4 105.5a11.9 11.9 0 0 1-10.6 6.4a12.5 12.5 0 0 1-5.6-1.4a12 12 0 0 1-4.9-16.3A200.2 200.2 0 0 0 136 128a8 8 0 0 0-16 0a12 12 0 0 1-24 0a32 32 0 0 1 64 0Zm-32-72a12 12 0 0 0 0 24a48 48 0 0 1 48 48c0 7.6-.4 15.3-1.1 22.9a11.9 11.9 0 0 0 10.8 13h1.2a12 12 0 0 0 11.9-10.9c.8-8.3 1.2-16.7 1.2-25.1A72.1 72.1 0 0 0 128 56ZM96 92.2a12 12 0 0 0-16-17.9A72 72 0 0 0 56 128a120.4 120.4 0 0 1-15.1 58.4a11.9 11.9 0 0 0 4.6 16.3a12.5 12.5 0 0 0 5.8 1.5a11.9 11.9 0 0 0 10.5-6.1A144.2 144.2 0 0 0 80 128a48.1 48.1 0 0 1 16-35.8Zm10.1 64.1a12 12 0 0 0-14.4 8.9a163 163 0 0 1-18.9 45.9a12 12 0 0 0 4 16.5a11.6 11.6 0 0 0 6.2 1.7a12 12 0 0 0 10.3-5.7a184.5 184.5 0 0 0 21.7-52.8a12 12 0 0 0-8.9-14.5Zm76.7 24.1a11.9 11.9 0 0 0-14.6 8.6a238.8 238.8 0 0 1-8 24.8a11.9 11.9 0 0 0 6.9 15.5a10.9 10.9 0 0 0 4.3.8a11.9 11.9 0 0 0 11.2-7.7a257.1 257.1 0 0 0 8.8-27.4a11.9 11.9 0 0 0-8.6-14.6ZM128 16A112.1 112.1 0 0 0 16 127.4v.6a79.5 79.5 0 0 1-5 27.8a12.2 12.2 0 0 0 7.1 15.5a12 12 0 0 0 15.4-7.1a102.9 102.9 0 0 0 6.5-35.6v-.6a88 88 0 0 1 176-.5v.5a286.6 286.6 0 0 1-6.7 61.4a11.9 11.9 0 0 0 9 14.3a12.4 12.4 0 0 0 2.7.3a12 12 0 0 0 11.7-9.4a304.3 304.3 0 0 0 7.3-66.1v-.5A112.1 112.1 0 0 0 128 16Z"></path></svg>