<svg xmlns="http://www.w3.org/2000/svg" xmlns:xlink="http://www.w3.org/1999/xlink" aria-hidden="true" role="img" class="iconify iconify--ph" width="1em" height="1em" preserveAspectRatio="xMidYMid meet" viewBox="0 0 256 256"><path fill="currentColor" d="M188 128a250.9 250.9 0 0 1-18.8 95.8a12 12 0 0 1-11.1 7.4a12.2 12.2 0 0 1-4.6-.9a12 12 0 0 1-6.5-15.7a226.6 226.6 0 0 0 17-86.6a12 12 0 0 1 24 0Zm-60-36a36.1 36.1 0 0 1 26.8 12a12 12 0 0 0 17.9-16A60 60 0 0 0 68 128a131.6 131.6 0 0 1-16.5 63.9a12 12 0 0 0 21 11.7A155.9 155.9 0 0 0 92 128a36 36 0 0 1 36-36Zm0-72a109.3 109.3 0 0 0-36 6.1a12 12 0 0 0 8 22.7a83.2 83.2 0 0 1 28-4.8a84.1 84.1 0 0 1 84 84a279.5 279.5 0 0 1-6.8 61.3a12 12 0 0 0 9 14.4a12.4 12.4 0 0 0 2.7.3a12.1 12.1 0 0 0 11.7-9.3A304.4 304.4 0 0 0 236 128A108.1 108.1 0 0 0 128 20ZM72 65.4a12 12 0 0 0-16-17.9A108.1 108.1 0 0 0 20 128a84.1 84.1 0 0 1-7.6 35a12 12 0 0 0 5.9 15.9a11 11 0 0 0 5 1.1a12 12 0 0 0 10.9-7a107.2 107.2 0 0 0 9.8-45a84 84 0 0 1 28-62.6Zm43.6 131.7a12 12 0 0 0-15.9 5.9c-1.9 4.1-4 8.2-6.2 12.2a12 12 0 1 0 21 11.6c2.5-4.5 4.8-9.1 7-13.8a12.1 12.1 0 0 0-5.9-15.9ZM128 116a12 12 0 0 0-12 12a179.1 179.1 0 0 1-5.7 45a12 12 0 0 0 8.6 14.6a10.8 10.8 0 0 0 3 .4a12.1 12.1 0 0 0 11.7-9a207.8 207.8 0 0 0 6.4-51a12 12 0 0 0-12-12Z"></path></svg>