<svg xmlns="http://www.w3.org/2000/svg" xmlns:xlink="http://www.w3.org/1999/xlink" aria-hidden="true" role="img" class="iconify iconify--ph" width="1em" height="1em" preserveAspectRatio="xMidYMid meet" viewBox="0 0 256 256"><path fill="currentColor" d="M182 128a244.7 244.7 0 0 1-18.4 93.5a5.9 5.9 0 0 1-5.5 3.7a4.6 4.6 0 0 1-2.3-.5a6 6 0 0 1-3.3-7.8A232.5 232.5 0 0 0 170 128a6 6 0 0 1 12 0Zm-54-42a42.2 42.2 0 0 1 31.3 14a6 6 0 1 0 8.9-8A54 54 0 0 0 74 128a138.7 138.7 0 0 1-17.2 66.8a6 6 0 0 0 2.3 8.2a5.9 5.9 0 0 0 2.9.7a6 6 0 0 0 5.3-3.1A150.6 150.6 0 0 0 86 128a42 42 0 0 1 42-42Zm0-60a102.9 102.9 0 0 0-34 5.8a6 6 0 1 0 4 11.3A90.1 90.1 0 0 1 218 128a286.2 286.2 0 0 1-7 62.7a6.1 6.1 0 0 0 4.5 7.2h1.4a6 6 0 0 0 5.8-4.7A297.8 297.8 0 0 0 230 128A102.2 102.2 0 0 0 128 26ZM68 60.9a6 6 0 0 0 .5-8.5A6.1 6.1 0 0 0 60 52a102 102 0 0 0-34 76a88 88 0 0 1-8.2 37.5a6.2 6.2 0 0 0 3 8a7.4 7.4 0 0 0 2.5.5a5.9 5.9 0 0 0 5.4-3.5A100.5 100.5 0 0 0 38 128a90.1 90.1 0 0 1 30-67.1Zm45.1 141.6a6.2 6.2 0 0 0-8 3c-1.9 4.2-4.1 8.5-6.3 12.6a5.9 5.9 0 0 0 2.3 8.1a5.9 5.9 0 0 0 8.2-2.3c2.4-4.4 4.7-8.9 6.7-13.4a6 6 0 0 0-2.9-8ZM128 122a6 6 0 0 0-6 6a185.8 185.8 0 0 1-5.9 46.5a6 6 0 0 0 4.3 7.3l1.5.2a6.1 6.1 0 0 0 5.9-4.5A200.4 200.4 0 0 0 134 128a6 6 0 0 0-6-6Z"></path></svg>