<svg xmlns="http://www.w3.org/2000/svg" xmlns:xlink="http://www.w3.org/1999/xlink" aria-hidden="true" role="img" class="iconify iconify--ph" width="1em" height="1em" preserveAspectRatio="xMidYMid meet" viewBox="0 0 256 256"><path fill="currentColor" d="M232 128a298.1 298.1 0 0 1-5.6 57.5a7.9 7.9 0 0 1-7.8 6.5a4.4 4.4 0 0 1-1.6-.2a8 8 0 0 1-6.3-9.3A284.4 284.4 0 0 0 216 128a88 88 0 0 0-176 0a104.5 104.5 0 0 1-5.9 34.7a8.1 8.1 0 0 1-7.6 5.3a6.3 6.3 0 0 1-2.6-.5a7.9 7.9 0 0 1-4.9-10.2a88 88 0 0 0 5-29.3a104 104 0 0 1 208 0ZM93 84.3a8 8 0 1 0-10-12.5A71.7 71.7 0 0 0 56 128a119 119 0 0 1-12.5 53.4a8.1 8.1 0 0 0 3.6 10.7a9.4 9.4 0 0 0 3.6.8a8.1 8.1 0 0 0 7.2-4.4A136.1 136.1 0 0 0 72 128a55.9 55.9 0 0 1 21-43.7Zm35 35.7a8 8 0 0 0-8 8a183.3 183.3 0 0 1-23 89.1a8.1 8.1 0 0 0 3.2 10.9a7.5 7.5 0 0 0 3.8 1a8 8 0 0 0 7-4.1a199.8 199.8 0 0 0 25-96.9a8 8 0 0 0-8-8Zm0-32a40.1 40.1 0 0 0-40 40a8 8 0 0 0 16 0a24 24 0 0 1 48 0a214.3 214.3 0 0 1-20.5 92a7.9 7.9 0 0 0 3.8 10.6a7.1 7.1 0 0 0 3.4.8a8.1 8.1 0 0 0 7.3-4.6a230 230 0 0 0 22-98.8a40 40 0 0 0-40-40Zm-33.6 64.2a7.9 7.9 0 0 0-9.4 6.2a153.2 153.2 0 0 1-17.2 45.4a8.1 8.1 0 0 0 2.9 11a8.2 8.2 0 0 0 4 1a7.9 7.9 0 0 0 6.9-4a164.4 164.4 0 0 0 19.1-50.2a8.1 8.1 0 0 0-6.3-9.4ZM128 56a68 68 0 0 0-9 .6a8 8 0 1 0 2 15.8a54.8 54.8 0 0 1 7-.4a56 56 0 0 1 56 56a245.7 245.7 0 0 1-1.9 31a7.9 7.9 0 0 0 6.9 8.9h1a8.1 8.1 0 0 0 8-7a279.7 279.7 0 0 0 2-33A72.1 72.1 0 0 0 128 56Zm57.9 128.3a7.9 7.9 0 0 0-9.7 5.7c-1.5 5.7-3.2 11.4-5 17a8 8 0 0 0 5 10.1a8 8 0 0 0 10.1-5.1q3-8.9 5.4-18a8 8 0 0 0-5.8-9.7Z"></path></svg>