<svg xmlns="http://www.w3.org/2000/svg" xmlns:xlink="http://www.w3.org/1999/xlink" aria-hidden="true" role="img" class="iconify iconify--ph" width="1em" height="1em" preserveAspectRatio="xMidYMid meet" viewBox="0 0 256 256"><path fill="currentColor" d="M184 128a246.4 246.4 0 0 1-18.5 94.2a8.1 8.1 0 0 1-7.4 5a8.5 8.5 0 0 1-3.1-.6a8 8 0 0 1-4.3-10.4A231.1 231.1 0 0 0 168 128a8 8 0 0 1 16 0Zm-56-40a40.2 40.2 0 0 1 29.8 13.3a8 8 0 0 0 11.3.7a8 8 0 0 0 .6-11.3A56 56 0 0 0 72 128a136.4 136.4 0 0 1-17 65.9a8 8 0 0 0 3.2 10.8a7.5 7.5 0 0 0 3.8 1a8 8 0 0 0 7-4.1A152.2 152.2 0 0 0 88 128a40.1 40.1 0 0 1 40-40Zm0-64a105 105 0 0 0-34.7 5.9a8 8 0 0 0-4.8 10.2A7.9 7.9 0 0 0 98.7 45A88.1 88.1 0 0 1 216 128a281.7 281.7 0 0 1-6.9 62.2a8 8 0 0 0 6 9.6l1.8.2a8.1 8.1 0 0 0 7.8-6.2A302.3 302.3 0 0 0 232 128A104.1 104.1 0 0 0 128 24ZM69.3 62.4a8 8 0 0 0 .7-11.3a8 8 0 0 0-11.3-.6A104 104 0 0 0 24 128a87.6 87.6 0 0 1-8 36.7a8.1 8.1 0 0 0 4 10.6a7.8 7.8 0 0 0 3.3.7a8 8 0 0 0 7.3-4.7A103.8 103.8 0 0 0 40 128a88.3 88.3 0 0 1 29.3-65.6Zm44.6 138.3a8 8 0 0 0-10.6 4c-1.9 4.2-4 8.3-6.3 12.4a8 8 0 0 0 7 11.9a8 8 0 0 0 7-4.1c2.5-4.4 4.8-9 6.9-13.6a8.1 8.1 0 0 0-4-10.6ZM128 120a8 8 0 0 0-8 8a186.5 186.5 0 0 1-5.8 46a8 8 0 0 0 5.8 9.7a6.4 6.4 0 0 0 2 .3a8 8 0 0 0 7.7-6a200.4 200.4 0 0 0 6.3-50a8 8 0 0 0-8-8Z"></path></svg>