<svg xmlns="http://www.w3.org/2000/svg" xmlns:xlink="http://www.w3.org/1999/xlink" aria-hidden="true" role="img" class="iconify iconify--ph" width="1em" height="1em" preserveAspectRatio="xMidYMid meet" viewBox="0 0 256 256"><path fill="currentColor" d="M68 128a130.8 130.8 0 0 1-13.7 58.7a4 4 0 0 1-3.6 2.2a3.9 3.9 0 0 1-1.8-.4a4 4 0 0 1-1.8-5.4A121.9 121.9 0 0 0 60 128a67.8 67.8 0 0 1 25.5-53.1a4 4 0 0 1 5.6.6a4.1 4.1 0 0 1-.6 5.7A59.6 59.6 0 0 0 68 128Zm60-4a4 4 0 0 0-4 4a187.2 187.2 0 0 1-23.5 91a4.2 4.2 0 0 0 1.6 5.5a4.5 4.5 0 0 0 1.9.5a4 4 0 0 0 3.5-2.1A196.4 196.4 0 0 0 132 128a4 4 0 0 0-4-4Zm0-32a36.1 36.1 0 0 0-36 36a4 4 0 0 0 8 0a28 28 0 0 1 56 0a217.4 217.4 0 0 1-20.9 93.7a4 4 0 0 0 1.9 5.3a3.8 3.8 0 0 0 1.7.4a4 4 0 0 0 3.7-2.3A226.8 226.8 0 0 0 164 128a36 36 0 0 0-36-36Zm0-64A100.2 100.2 0 0 0 28 128a91.7 91.7 0 0 1-5.2 30.7a3.9 3.9 0 0 0 2.4 5.1a4 4 0 0 0 5.1-2.5A99.2 99.2 0 0 0 36 128a92 92 0 0 1 184 0a282.3 282.3 0 0 1-5.4 55.2a4 4 0 0 0 3.2 4.7h.8a4 4 0 0 0 3.9-3.2A291.6 291.6 0 0 0 228 128A100.1 100.1 0 0 0 128 28ZM93.6 156.1a3.9 3.9 0 0 0-4.7 3.1a153.2 153.2 0 0 1-17.7 46.6a4 4 0 0 0 1.5 5.5a3.5 3.5 0 0 0 2 .5a4.1 4.1 0 0 0 3.5-2a161.5 161.5 0 0 0 18.5-49a3.9 3.9 0 0 0-3.1-4.7ZM128 60a80.8 80.8 0 0 0-8.5.5A4.1 4.1 0 0 0 116 65a4 4 0 0 0 4.5 3.5a63 63 0 0 1 7.5-.5a60 60 0 0 1 60 60a254.9 254.9 0 0 1-1.9 31.5a4 4 0 0 0 3.4 4.5h.5a4.1 4.1 0 0 0 4-3.5a270.1 270.1 0 0 0 2-32.5a68.1 68.1 0 0 0-68-68Zm56.9 128.1a4 4 0 0 0-4.8 2.9c-1.5 5.8-3.2 11.6-5.1 17.2a4 4 0 0 0 2.5 5.1l1.3.2a4.2 4.2 0 0 0 3.8-2.7c1.9-5.9 3.7-11.8 5.2-17.8a4 4 0 0 0-2.9-4.9Z"></path></svg>