<svg xmlns="http://www.w3.org/2000/svg" xmlns:xlink="http://www.w3.org/1999/xlink" aria-hidden="true" role="img" class="iconify iconify--ph" width="1em" height="1em" preserveAspectRatio="xMidYMid meet" viewBox="0 0 256 256"><path fill="currentColor" d="M36 128a98.2 98.2 0 0 1-9.1 41.7a4 4 0 0 1-3.6 2.3a3.5 3.5 0 0 1-1.7-.4a3.9 3.9 0 0 1-1.9-5.3A91.3 91.3 0 0 0 28 128a100.3 100.3 0 0 1 33.3-74.5a4 4 0 1 1 5.4 5.9A92.3 92.3 0 0 0 36 128Zm140-4a4 4 0 0 0-4 4a235.1 235.1 0 0 1-17.6 89.7a3.9 3.9 0 0 0 2.2 5.2a3.7 3.7 0 0 0 1.5.3a4.1 4.1 0 0 0 3.7-2.5A242.4 242.4 0 0 0 180 128a4 4 0 0 0-4-4Zm-15.2-25.3a4 4 0 0 0 5.6.3a4.1 4.1 0 0 0 .4-5.7A52 52 0 0 0 76 128a139.5 139.5 0 0 1-17.5 67.8a4.1 4.1 0 0 0 1.6 5.4a3.4 3.4 0 0 0 1.9.5a3.9 3.9 0 0 0 3.5-2A148.1 148.1 0 0 0 84 128a44 44 0 0 1 76.8-29.3ZM128 28a99.2 99.2 0 0 0-33.3 5.7a4 4 0 0 0-2.5 5.1a4 4 0 0 0 5.1 2.4A94.3 94.3 0 0 1 128 36a92.1 92.1 0 0 1 92 92a289.9 289.9 0 0 1-7 63.1a3.9 3.9 0 0 0 3 4.8h.9a4.1 4.1 0 0 0 3.9-3.1A294.1 294.1 0 0 0 228 128A100.2 100.2 0 0 0 128 28Zm-15.7 176.4a4 4 0 0 0-5.4 1.9c-1.9 4.3-4.1 8.6-6.4 12.7a4.1 4.1 0 0 0 1.6 5.5a4.5 4.5 0 0 0 1.9.5a4 4 0 0 0 3.5-2.1c2.4-4.3 4.7-8.8 6.7-13.2a4 4 0 0 0-1.9-5.3ZM128 124a4 4 0 0 0-4 4a190.4 190.4 0 0 1-5.9 47a4 4 0 0 0 2.8 4.9h1a4 4 0 0 0 3.9-3a196.5 196.5 0 0 0 6.2-49a4 4 0 0 0-4-3.9Z"></path></svg>