<svg xmlns="http://www.w3.org/2000/svg" xmlns:xlink="http://www.w3.org/1999/xlink" aria-hidden="true" role="img" class="iconify iconify--ph" width="1em" height="1em" preserveAspectRatio="xMidYMid meet" viewBox="0 0 256 256"><path fill="currentColor" d="M208 40a23.9 23.9 0 0 0-24 24H72a24 24 0 0 0-48 0v80a64.1 64.1 0 0 0 64 64h80a64.1 64.1 0 0 0 64-64V64a23.9 23.9 0 0 0-24-24Zm-8 104a32 32 0 0 1-32 32H88a32 32 0 0 1-32-32v-8a32 32 0 0 1 32-32h80a32 32 0 0 1 32 32Z" opacity=".2"></path><path fill="currentColor" d="M168 96H88a40 40 0 0 0-40 40v8a40 40 0 0 0 40 40h80a40 40 0 0 0 40-40v-8a40 40 0 0 0-40-40Zm24 48a24.1 24.1 0 0 1-24 24H88a24.1 24.1 0 0 1-24-24v-8a24.1 24.1 0 0 1 24-24h80a24.1 24.1 0 0 1 24 24Zm-16-4a12 12 0 1 1-12-12a12 12 0 0 1 12 12Zm-72 0a12 12 0 1 1-12-12a12 12 0 0 1 12 12ZM208 32a32.1 32.1 0 0 0-31 24H79a32 32 0 0 0-63 8v80a72.1 72.1 0 0 0 72 72h80a72.1 72.1 0 0 0 72-72V64a32.1 32.1 0 0 0-32-32Zm16 112a56 56 0 0 1-56 56H88a56 56 0 0 1-56-56V64a16 16 0 0 1 32 0a8 8 0 0 0 8 8h112a8 8 0 0 0 8-8a16 16 0 0 1 32 0Z"></path></svg>