<svg xmlns="http://www.w3.org/2000/svg" xmlns:xlink="http://www.w3.org/1999/xlink" aria-hidden="true" role="img" class="iconify iconify--ph" width="1em" height="1em" preserveAspectRatio="xMidYMid meet" viewBox="0 0 256 256"><path fill="currentColor" d="M168 88H88a44 44 0 0 0-44 44v16a44 44 0 0 0 44 44h80a44 44 0 0 0 44-44v-16a44 44 0 0 0-44-44Zm20 60a20.1 20.1 0 0 1-20 20H88a20.1 20.1 0 0 1-20-20v-16a20.1 20.1 0 0 1 20-20h80a20.1 20.1 0 0 1 20 20Zm-12-8a16 16 0 1 1-16-16a16 16 0 0 1 16 16Zm-64 0a16 16 0 1 1-16-16a16 16 0 0 1 16 16ZM212 28a36 36 0 0 0-33.9 24H77.9A36 36 0 0 0 8 64v88a76.1 76.1 0 0 0 76 76h88a76.1 76.1 0 0 0 76-76V64a36 36 0 0 0-36-36Zm12 124a52 52 0 0 1-52 52H84a52 52 0 0 1-52-52V64a12 12 0 0 1 24 0a12 12 0 0 0 12 12h120a12 12 0 0 0 12-12a12 12 0 0 1 24 0Z"></path></svg>