<svg xmlns="http://www.w3.org/2000/svg" xmlns:xlink="http://www.w3.org/1999/xlink" aria-hidden="true" role="img" class="iconify iconify--ph" width="1em" height="1em" preserveAspectRatio="xMidYMid meet" viewBox="0 0 256 256"><path fill="currentColor" d="M104 140a12 12 0 1 1-12-12a12 12 0 0 1 12 12Zm60-12a12 12 0 1 0 12 12a12 12 0 0 0-12-12Zm76-64v80a72.1 72.1 0 0 1-72 72H88a72.1 72.1 0 0 1-72-72V64a32 32 0 0 1 63-8h98a32 32 0 0 1 63 8Zm-40 72a32 32 0 0 0-32-32H88a32 32 0 0 0-32 32v8a32 32 0 0 0 32 32h80a32 32 0 0 0 32-32Z"></path></svg>