<svg xmlns="http://www.w3.org/2000/svg" xmlns:xlink="http://www.w3.org/1999/xlink" aria-hidden="true" role="img" class="iconify iconify--ph" width="1em" height="1em" preserveAspectRatio="xMidYMid meet" viewBox="0 0 256 256"><path fill="currentColor" d="M168 98H88a38 38 0 0 0-38 38v8a38 38 0 0 0 38 38h80a38 38 0 0 0 38-38v-8a38 38 0 0 0-38-38Zm26 46a26.1 26.1 0 0 1-26 26H88a26.1 26.1 0 0 1-26-26v-8a26.1 26.1 0 0 1 26-26h80a26.1 26.1 0 0 1 26 26Zm-20-4a10 10 0 1 1-10-10a10 10 0 0 1 10 10Zm-72 0a10 10 0 1 1-10-10a10 10 0 0 1 10 10ZM208 34a30 30 0 0 0-29.4 24H77.4A30 30 0 0 0 18 64v80a70.1 70.1 0 0 0 70 70h80a70.1 70.1 0 0 0 70-70V64a30.1 30.1 0 0 0-30-30Zm18 110a58 58 0 0 1-58 58H88a58 58 0 0 1-58-58V64a18 18 0 0 1 36 0a6 6 0 0 0 6 6h112a6 6 0 0 0 6-6a18 18 0 0 1 36 0Z"></path></svg>