<svg xmlns="http://www.w3.org/2000/svg" xmlns:xlink="http://www.w3.org/1999/xlink" aria-hidden="true" role="img" class="iconify iconify--ph" width="1em" height="1em" preserveAspectRatio="xMidYMid meet" viewBox="0 0 256 256"><path fill="currentColor" d="M151.1 14.6a6.1 6.1 0 0 0-9.7 1.7l-31.8 66.9l-34.2-22.8A6.2 6.2 0 0 0 67 62c-19.2 29.1-29 55.3-29 78a90 90 0 0 0 180 0c0-51.5-32.2-90.7-66.9-125.4ZM128 218a78.1 78.1 0 0 1-78-78c0-19 8-41.3 23.8-66.3L108.7 97a6 6 0 0 0 4.9.8a5.8 5.8 0 0 0 3.8-3.2l31.2-65.4C179.1 60.5 206 95.8 206 140a78.1 78.1 0 0 1-78 78Z"></path></svg>