<svg xmlns="http://www.w3.org/2000/svg" xmlns:xlink="http://www.w3.org/1999/xlink" aria-hidden="true" role="img" class="iconify iconify--ph" width="1em" height="1em" preserveAspectRatio="xMidYMid meet" viewBox="0 0 256 256"><path fill="currentColor" d="M149.6 16a4.1 4.1 0 0 0-3.5-1.1a4.4 4.4 0 0 0-2.9 2.3l-32.8 68.9L74.3 62a4.2 4.2 0 0 0-3.1-.6a4.4 4.4 0 0 0-2.5 1.7C49.7 91.9 40 117.7 40 140a88 88 0 0 0 176 0c0-50.7-31.9-89.6-66.4-124ZM128 220a80.1 80.1 0 0 1-80-80c0-19.8 8.5-43.1 25.2-69.1l36.6 24.4a3.8 3.8 0 0 0 3.3.6a4.2 4.2 0 0 0 2.5-2.2l32.4-68c31.7 32.2 60 68.4 60 114.3a80.1 80.1 0 0 1-80 80Z"></path></svg>