<svg xmlns="http://www.w3.org/2000/svg" xmlns:xlink="http://www.w3.org/1999/xlink" aria-hidden="true" role="img" class="iconify iconify--ph" width="1em" height="1em" preserveAspectRatio="xMidYMid meet" viewBox="0 0 256 256"><path fill="currentColor" d="M159.9 142.9a12 12 0 1 1 23.9 2.2a56.2 56.2 0 0 1-45.6 50l-2.2.2a12.1 12.1 0 0 1-11.8-9.9a11.9 11.9 0 0 1 9.6-13.9a32.1 32.1 0 0 0 26.1-28.6ZM224 140a96 96 0 0 1-192 0c0-23.9 10.1-51.2 30-81.3a12.1 12.1 0 0 1 16.7-3.3l28.4 18.9L136 13.7a11.9 11.9 0 0 1 19.3-3.3c14.9 14.9 31.9 32.9 45.2 54.1C216.3 89.6 224 114.3 224 140Zm-24 0c0-39.3-22.7-71.5-49.8-100.4l-27.4 57.6a12 12 0 0 1-17.5 4.8L75.6 82.2C62.6 104 56 123.4 56 140a72 72 0 0 0 144 0Z"></path></svg>