<svg xmlns="http://www.w3.org/2000/svg" xmlns:xlink="http://www.w3.org/1999/xlink" aria-hidden="true" role="img" class="iconify iconify--ph" width="1em" height="1em" preserveAspectRatio="xMidYMid meet" viewBox="0 0 256 256"><path fill="currentColor" d="M197.1 66.6c-13-20.8-29.9-38.7-44.6-53.4a8 8 0 0 0-7-2.2a7.9 7.9 0 0 0-5.9 4.4l-30.9 64.8l-32.2-21.5a8.1 8.1 0 0 0-6-1.2a8 8 0 0 0-5.1 3.4C45.9 90.3 36 116.9 36 140a92 92 0 0 0 184 0c0-24.9-7.5-48.9-22.9-73.4ZM128 216a76.1 76.1 0 0 1-76-76c0-18.2 7.5-39.5 22.4-63.5l33.2 22.2a8.2 8.2 0 0 0 6.5 1a7.8 7.8 0 0 0 5.1-4.3l29.9-62.8C178.6 63.2 204 97.4 204 140a76.1 76.1 0 0 1-76 76Z"></path></svg>