<svg xmlns="http://www.w3.org/2000/svg" xmlns:xlink="http://www.w3.org/1999/xlink" aria-hidden="true" role="img" class="iconify iconify--ph" width="1em" height="1em" preserveAspectRatio="xMidYMid meet" viewBox="0 0 256 256"><path fill="currentColor" d="M200.5 64.5c-13.3-21.2-30.3-39.2-45.2-54.1a11.9 11.9 0 0 0-19.3 3.3l-28.9 60.6l-28.4-18.9A12.1 12.1 0 0 0 62 58.7C42.1 88.8 32 116.1 32 140a96 96 0 0 0 192 0c0-25.7-7.7-50.4-23.5-75.5ZM128 212a72.1 72.1 0 0 1-72-72c0-16.6 6.6-36 19.6-57.8l29.7 19.8a12 12 0 0 0 17.5-4.8l27.4-57.6C177.3 68.5 200 100.7 200 140a72.1 72.1 0 0 1-72 72Z"></path></svg>