<svg xmlns="http://www.w3.org/2000/svg" xmlns:xlink="http://www.w3.org/1999/xlink" aria-hidden="true" role="img" class="iconify iconify--ph" width="1em" height="1em" preserveAspectRatio="xMidYMid meet" viewBox="0 0 256 256"><path fill="currentColor" d="M216 84h-44V40a20.1 20.1 0 0 0-20-20h-48a20.1 20.1 0 0 0-20 20v44H40a20.1 20.1 0 0 0-20 20v48a20.1 20.1 0 0 0 20 20h44v44a20.1 20.1 0 0 0 20 20h48a20.1 20.1 0 0 0 20-20v-44h44a20.1 20.1 0 0 0 20-20v-48a20.1 20.1 0 0 0-20-20Zm-4 64h-52a12 12 0 0 0-12 12v52h-40v-52a12 12 0 0 0-12-12H44v-40h52a12 12 0 0 0 12-12V44h40v52a12 12 0 0 0 12 12h52Z"></path></svg>