<svg xmlns="http://www.w3.org/2000/svg" xmlns:xlink="http://www.w3.org/1999/xlink" aria-hidden="true" role="img" class="iconify iconify--ph" width="1em" height="1em" preserveAspectRatio="xMidYMid meet" viewBox="0 0 256 256"><rect width="192" height="144" x="32" y="72" fill="currentColor" opacity=".2" rx="8"></rect><path fill="currentColor" d="M156 136h-20v-20a8 8 0 0 0-16 0v20h-20a8 8 0 0 0 0 16h20v20a8 8 0 0 0 16 0v-20h20a8 8 0 0 0 0-16Z"></path><path fill="currentColor" d="M216 64h-40v-8a24.1 24.1 0 0 0-24-24h-48a24.1 24.1 0 0 0-24 24v8H40a16 16 0 0 0-16 16v128a16 16 0 0 0 16 16h176a16 16 0 0 0 16-16V80a16 16 0 0 0-16-16ZM96 56a8 8 0 0 1 8-8h48a8 8 0 0 1 8 8v8H96Zm120 152H40V80h176v128Z"></path></svg>