<svg xmlns="http://www.w3.org/2000/svg" xmlns:xlink="http://www.w3.org/1999/xlink" aria-hidden="true" role="img" class="iconify iconify--ph" width="1em" height="1em" preserveAspectRatio="xMidYMid meet" viewBox="0 0 256 256"><path fill="currentColor" d="M216 88h-48V40a16 16 0 0 0-16-16h-48a16 16 0 0 0-16 16v48H40a16 16 0 0 0-16 16v48a16 16 0 0 0 16 16h48v48a16 16 0 0 0 16 16h48a16 16 0 0 0 16-16v-48h48a16 16 0 0 0 16-16v-48a16 16 0 0 0-16-16Zm0 64h-56a8 8 0 0 0-8 8v56h-48v-56a8 8 0 0 0-8-8H40v-48h56a8 8 0 0 0 8-8V40h48v56a8 8 0 0 0 8 8h56Z"></path></svg>