<svg xmlns="http://www.w3.org/2000/svg" xmlns:xlink="http://www.w3.org/1999/xlink" aria-hidden="true" role="img" class="iconify iconify--ph" width="1em" height="1em" preserveAspectRatio="xMidYMid meet" viewBox="0 0 256 256"><path fill="currentColor" d="M162 144a6 6 0 0 1-6 6h-22v22a6 6 0 0 1-12 0v-22h-22a6 6 0 0 1 0-12h22v-22a6 6 0 0 1 12 0v22h22a6 6 0 0 1 6 6Zm68-64v128a14 14 0 0 1-14 14H40a14 14 0 0 1-14-14V80a14 14 0 0 1 14-14h42V56a22.1 22.1 0 0 1 22-22h48a22.1 22.1 0 0 1 22 22v10h42a14 14 0 0 1 14 14ZM94 66h68V56a10 10 0 0 0-10-10h-48a10 10 0 0 0-10 10Zm124 14a2 2 0 0 0-2-2H40a2 2 0 0 0-2 2v128a2 2 0 0 0 2 2h176a2 2 0 0 0 2-2Z"></path></svg>