<svg xmlns="http://www.w3.org/2000/svg" xmlns:xlink="http://www.w3.org/1999/xlink" aria-hidden="true" role="img" class="iconify iconify--ph" width="1em" height="1em" preserveAspectRatio="xMidYMid meet" viewBox="0 0 256 256"><path fill="currentColor" d="M160 144a4 4 0 0 1-4 4h-24v24a4 4 0 0 1-8 0v-24h-24a4 4 0 0 1 0-8h24v-24a4 4 0 0 1 8 0v24h24a4 4 0 0 1 4 4Zm68-64v128a12 12 0 0 1-12 12H40a12 12 0 0 1-12-12V80a12 12 0 0 1 12-12h44V56a20.1 20.1 0 0 1 20-20h48a20.1 20.1 0 0 1 20 20v12h44a12 12 0 0 1 12 12ZM92 68h72V56a12 12 0 0 0-12-12h-48a12 12 0 0 0-12 12Zm128 12a4 4 0 0 0-4-4H40a4 4 0 0 0-4 4v128a4 4 0 0 0 4 4h176a4 4 0 0 0 4-4Z"></path></svg>