<svg xmlns="http://www.w3.org/2000/svg" xmlns:xlink="http://www.w3.org/1999/xlink" aria-hidden="true" role="img" class="iconify iconify--ph" width="1em" height="1em" preserveAspectRatio="xMidYMid meet" viewBox="0 0 256 256"><path fill="currentColor" d="M168 144a12 12 0 0 1-12 12h-16v16a12 12 0 0 1-24 0v-16h-16a12 12 0 0 1 0-24h16v-16a12 12 0 0 1 24 0v16h16a12 12 0 0 1 12 12Zm68-64v128a20.1 20.1 0 0 1-20 20H40a20.1 20.1 0 0 1-20-20V80a20.1 20.1 0 0 1 20-20h36v-8a28.1 28.1 0 0 1 28-28h48a28.1 28.1 0 0 1 28 28v8h36a20.1 20.1 0 0 1 20 20ZM100 60h56v-8a4 4 0 0 0-4-4h-48a4 4 0 0 0-4 4Zm112 24H44v120h168Z"></path></svg>