<svg xmlns="http://www.w3.org/2000/svg" xmlns:xlink="http://www.w3.org/1999/xlink" aria-hidden="true" role="img" class="iconify iconify--ph" width="1em" height="1em" preserveAspectRatio="xMidYMid meet" viewBox="0 0 256 256"><path fill="currentColor" d="M166 76a10 10 0 1 1-10-10a10 10 0 0 1 10 10Zm30.8 90.6c-26.5 26.3-68.7 37.1-126 32.1c1.6 12.6 4 25.9 7.1 40a6.1 6.1 0 0 1-4.6 7.2H72a6.1 6.1 0 0 1-5.9-4.7c-3.3-15.5-5.9-30.1-7.5-43.9c-13.8-1.7-28.5-4.2-43.9-7.6a6 6 0 1 1 2.6-11.7c14 3.1 27.4 5.4 40 7.1c-5-57.3 5.8-99.5 32.1-126a93.8 93.8 0 0 1 10.8-9.1l.6-.4c40-29 94.5-20.3 111.5-16.7a14.2 14.2 0 0 1 10.8 10.8c4 18.6 14 82.6-26.3 122.9Zm-8.5-8.5l.6-.7a101 101 0 0 1-61-29.3a101 101 0 0 1-29.3-61l-.7.6c-24.1 24.2-33.7 64.1-28.5 118.8c54.8 5.2 94.7-4.3 118.9-28.4Zm23-111.9a1.9 1.9 0 0 0-1.5-1.5c-15.4-3.3-63.9-11.1-99.8 13.1a89.2 89.2 0 0 0 26.4 61.8a88.7 88.7 0 0 0 61.8 26.4c24.2-35.9 16.4-84.4 13.1-99.8Z"></path></svg>