<svg xmlns="http://www.w3.org/2000/svg" xmlns:xlink="http://www.w3.org/1999/xlink" aria-hidden="true" role="img" class="iconify iconify--ph" width="1em" height="1em" preserveAspectRatio="xMidYMid meet" viewBox="0 0 256 256"><path fill="currentColor" d="M164 76a8 8 0 1 1-8-8a8 8 0 0 1 8 8Zm38.6 81a92 92 0 0 1-13.8 14.1h-.1c-20.1 16.4-47.9 25.3-83.2 26.5l-21.8 52A4.1 4.1 0 0 1 80 252h-.2a4 4 0 0 1-3.6-2.9l-15.4-53.9l-53.9-15.4a4.1 4.1 0 0 1-2.9-3.6a4 4 0 0 1 2.4-3.9l51.9-21.8c1.2-35.3 10.1-63.1 26.5-83.2h.2a91.4 91.4 0 0 1 14-13.9c39.7-31.2 96.5-22.1 112.9-18.5a12 12 0 0 1 9.2 9.2c3.6 16.4 12.7 73.2-18.5 112.9ZM175 171.2a52.2 52.2 0 0 1-42.9-47.3A52.2 52.2 0 0 1 84.8 81q-17.5 27.6-18.6 72.3a4.2 4.2 0 0 1-2.5 3.6L20 175.2l45.1 13a3.7 3.7 0 0 1 2.7 2.7L80.7 236l18.4-43.8a4 4 0 0 1 3.6-2.4c29.7-.7 53.9-6.9 72.3-18.6Zm38.3-125.4a4.4 4.4 0 0 0-3.1-3.1c-15.6-3.3-69.3-12.1-106.3 17A86.2 86.2 0 0 0 92 71.2v.8a44 44 0 0 0 44 44a4 4 0 0 1 4 4a44 44 0 0 0 44 44h.8a86.2 86.2 0 0 0 11.5-11.9c29.1-37 20.3-90.7 17-106.3Z"></path></svg>