<svg xmlns="http://www.w3.org/2000/svg" xmlns:xlink="http://www.w3.org/1999/xlink" aria-hidden="true" role="img" class="iconify iconify--ph" width="1em" height="1em" preserveAspectRatio="xMidYMid meet" viewBox="0 0 256 256"><path fill="currentColor" d="M102.8 193.8L80 248l-16-56l-56-16l54.2-22.8c.9-39.1 11.1-65.6 25.9-83.5A17.7 17.7 0 0 0 88 72a48 48 0 0 0 48 48a48 48 0 0 0 48 48h2.3c-17.9 14.7-44.5 24.9-83.5 25.8Z" opacity=".2"></path><path fill="currentColor" d="M168 76a12 12 0 1 1-12-12a12 12 0 0 1 12 12Zm37.7 83.5c-20.4 25.9-53.2 40.1-97.5 42.1l-20.8 49.5A8.1 8.1 0 0 1 80 256h-.5a7.9 7.9 0 0 1-7.2-5.8l-14.8-51.7l-51.7-14.8a8 8 0 0 1-.9-15.1l49.5-20.8C56 112.6 65.2 84.7 82 64.5a101.7 101.7 0 0 1 14.5-14.2c41.1-32.4 99.4-23 116.3-19.3A15.9 15.9 0 0 1 225 43.2c3.7 16.9 13.1 75.2-19.3 116.3Zm-41.2 13a56.3 56.3 0 0 1-36-45a56.3 56.3 0 0 1-45-36c-8.3 16.5-12.7 37.2-13.3 61.9a8.2 8.2 0 0 1-4.9 7.2L32 174.5l34.2 9.8a8 8 0 0 1 5.5 5.5l9.7 34.1l14-33.2a8.1 8.1 0 0 1 7.2-4.9c24.7-.6 45.4-5 61.9-13.3Zm44.9-125.9c-15.2-3.2-67.4-11.8-103 16.3A74.1 74.1 0 0 0 96 72.7a40.1 40.1 0 0 0 40 39.3a8 8 0 0 1 8 8a40.1 40.1 0 0 0 39.3 40a80 80 0 0 0 9.8-10.4c28.1-35.6 19.5-87.8 16.3-103Z"></path></svg>