<svg xmlns="http://www.w3.org/2000/svg" xmlns:xlink="http://www.w3.org/1999/xlink" aria-hidden="true" role="img" class="iconify iconify--ph" width="1em" height="1em" preserveAspectRatio="xMidYMid meet" viewBox="0 0 256 256"><path fill="currentColor" d="M201.4 152c-20.6 28.1-60.8 48.3-137.4 40c-8.3-76.6 11.9-116.8 40-137.4a96 96 0 0 0 97.3 97.4Z" opacity=".2"></path><path fill="currentColor" d="M168 76a12 12 0 1 1-12-12a12 12 0 0 1 12 12Zm30.2 92c-26.5 26.4-68.4 37.4-125.1 32.9c1.6 11.8 3.8 24.3 6.7 37.4a7.9 7.9 0 0 1-6.1 9.5l-1.7.2a8 8 0 0 1-7.8-6.3c-3.3-14.9-5.7-29.1-7.4-42.5c-13.4-1.7-27.6-4.2-42.5-7.4a8 8 0 0 1 3.4-15.7c13.1 2.9 25.6 5.2 37.4 6.8c-4.5-56.7 6.5-98.6 32.9-125.1c41-41 105.8-30.9 124.7-26.8A15.9 15.9 0 0 1 225 43.3c4.1 18.9 14.2 83.7-26.8 124.7Zm-13.7-9.1a103 103 0 0 1-58-29.4a103.6 103.6 0 0 1-29.4-58.1c-21.8 23.8-30.5 61.7-25.8 113.3c51.5 4.7 89.5-4 113.2-25.8Zm24.9-112.2c-15-3.3-62.3-10.9-97.3 12.1a87.9 87.9 0 0 0 85.1 85.1c23-35 15.4-82.3 12.2-97.2Z"></path></svg>