<svg xmlns="http://www.w3.org/2000/svg" xmlns:xlink="http://www.w3.org/1999/xlink" aria-hidden="true" role="img" class="iconify iconify--ph" width="1em" height="1em" preserveAspectRatio="xMidYMid meet" viewBox="0 0 256 256"><path fill="currentColor" d="M168 76a12 12 0 1 1-12-12a12 12 0 0 1 12 12Zm37.7 83.5c-20.4 25.9-53.2 40.1-97.5 42.1l-20.8 49.5A8.1 8.1 0 0 1 80 256h-.5a7.9 7.9 0 0 1-7.2-5.8l-14.8-51.7l-51.7-14.8a8 8 0 0 1-.9-15.1l49.5-20.8c2-44.3 16.1-77.1 42.1-97.5c41.1-32.4 99.4-23 116.3-19.3A15.9 15.9 0 0 1 225 43.2c3.7 16.9 13.1 75.2-19.3 116.3Zm3.7-112.9c-15.2-3.2-67.4-11.8-103 16.3A74.1 74.1 0 0 0 96 72.7a40.1 40.1 0 0 0 40 39.3a8 8 0 0 1 8 8a40.1 40.1 0 0 0 39.3 40a80 80 0 0 0 9.8-10.4c28.1-35.6 19.5-87.8 16.3-103Z"></path></svg>