<svg xmlns="http://www.w3.org/2000/svg" xmlns:xlink="http://www.w3.org/1999/xlink" aria-hidden="true" role="img" class="iconify iconify--ph" width="1em" height="1em" preserveAspectRatio="xMidYMid meet" viewBox="0 0 256 256"><path fill="currentColor" d="M225 43.3A15.9 15.9 0 0 0 212.7 31C193.8 26.9 129 16.8 88 57.8c-26.4 26.5-37.4 68.4-32.9 125.1c-11.8-1.6-24.3-3.9-37.4-6.8a8 8 0 0 0-3.4 15.7c14.9 3.2 29.1 5.7 42.5 7.4c1.7 13.4 4.1 27.6 7.4 42.5A8 8 0 0 0 72 248l1.7-.2a7.9 7.9 0 0 0 6.1-9.5c-2.9-13.1-5.1-25.6-6.7-37.4c56.7 4.5 98.6-6.5 125.1-32.9c41-41 30.9-105.8 26.8-124.7Zm-27.8 100.6a87.9 87.9 0 0 1-85.1-85.1c35-23 82.3-15.4 97.3-12.1c3.2 14.9 10.8 62.2-12.2 97.2ZM168 76a12 12 0 1 1-12-12a12 12 0 0 1 12 12Z"></path></svg>