<svg xmlns="http://www.w3.org/2000/svg" xmlns:xlink="http://www.w3.org/1999/xlink" aria-hidden="true" role="img" class="iconify iconify--ph" width="1em" height="1em" preserveAspectRatio="xMidYMid meet" viewBox="0 0 256 256"><path fill="currentColor" d="M164 76a8 8 0 1 1-8-8a8 8 0 0 1 8 8Zm31.3 89.1c-26.3 26.4-68.9 36.8-126.8 31.4c1.7 13.4 4.1 27.6 7.4 42.6a4 4 0 0 1-3 4.8H72a4.1 4.1 0 0 1-3.9-3.1a447.6 447.6 0 0 1-7.7-45.3c-14.2-1.7-29.3-4.2-45.3-7.7a4 4 0 0 1 1.8-7.8c15 3.2 29.2 5.7 42.6 7.4c-5.4-57.8 5-100.4 31.3-126.7a92.8 92.8 0 0 1 10.9-9.3h.1c39.4-28.6 93.3-20 110.1-16.4a12 12 0 0 1 9.2 9.2c4 18.3 13.9 81.4-25.8 120.9Zm-5.6-5.6l3.5-3.7a99 99 0 0 1-63.9-29.1a99 99 0 0 1-29.1-63.9l-3.7 3.5C71.7 91.2 62 132.1 67.6 188.4c56.3 5.6 97.2-4.1 122.1-28.9Zm23.6-113.7a4.4 4.4 0 0 0-3.1-3.1c-15.7-3.4-65.6-11.4-102.2 14a91.8 91.8 0 0 0 91.3 91.3c25.4-36.6 17.4-86.5 14-102.2Z"></path></svg>