<svg xmlns="http://www.w3.org/2000/svg" xmlns:xlink="http://www.w3.org/1999/xlink" aria-hidden="true" role="img" class="iconify iconify--ph" width="1em" height="1em" preserveAspectRatio="xMidYMid meet" viewBox="0 0 256 256"><path fill="currentColor" d="M140 76a16 16 0 1 1 16 16a16 16 0 0 1-16-16Zm61 94.8c-26.5 26.5-67.8 38-123.2 34.4c1.5 10.3 3.5 21 5.9 32.2a12 12 0 0 1-9.1 14.3l-2.6.3a12 12 0 0 1-11.7-9.4c-3.1-13.9-5.4-27.2-7.1-39.8c-12.6-1.7-25.9-4.1-39.8-7.1a12 12 0 0 1 5.2-23.5c11.1 2.5 21.9 4.5 32.2 6c-3.6-55.4 7.9-96.7 34.4-123.2c42.4-42.5 109-32.1 128.4-27.9a20 20 0 0 1 15.3 15.3c4.2 19.4 14.6 86-27.9 128.4ZM116.2 60.9a83.8 83.8 0 0 0 78.8 78.9c7.6-12.3 12.2-27.3 13.7-44.8a168.4 168.4 0 0 0-2.7-45c-16.5-3.2-58-8.6-89.8 10.9Zm12.2 118.6c18.9-3.1 34.7-9.2 47-18.3a108 108 0 0 1-80.6-80.6c-9.1 12.3-15.3 28.1-18.3 47c-2.6 15.6-3.1 33.5-1.5 53.4c19.9 1.5 37.7 1.1 53.4-1.5Z"></path></svg>