<svg xmlns="http://www.w3.org/2000/svg" xmlns:xlink="http://www.w3.org/1999/xlink" aria-hidden="true" role="img" class="iconify iconify--ph" width="1em" height="1em" preserveAspectRatio="xMidYMid meet" viewBox="0 0 256 256"><path fill="currentColor" d="M221.4 37.3a12 12 0 0 0-12.6 1.1c-26.5 19.8-48.3 10.5-76.1-1.4s-62.4-26.8-99.9 1.4l-.2.2l-.5.4l-.4.4l-.4.3c-.2.2-.3.4-.5.5l-.2.4l-.5.6c-.1.1-.1.2-.2.4l-.4.5c-.1.2-.1.4-.2.5l-.3.6c-.1.1-.1.3-.2.5s-.1.4-.2.5s-.1.4-.2.6s-.1.4-.1.6a4.3 4.3 0 0 1-.1.5c0 .2-.1.4-.1.6a1.3 1.3 0 0 1-.1.6V216a12 12 0 0 0 24 0v-41.7c24.3-15.4 45.2-6.4 71.3 4.7c16.7 7.2 34.7 14.9 54.1 14.9c14.5 0 29.8-4.3 45.8-16.3a12.1 12.1 0 0 0 4.8-9.6V48a12.1 12.1 0 0 0-6.6-10.7ZM204 161.7c-24.3 15.4-45.2 6.4-71.3-4.7c-24.1-10.4-50.9-21.9-80.7-9.7v-93c24.3-15.4 45.2-6.4 71.3 4.7c24.1 10.4 50.9 21.9 80.7 9.7Z"></path></svg>