<svg xmlns="http://www.w3.org/2000/svg" xmlns:xlink="http://www.w3.org/1999/xlink" aria-hidden="true" role="img" class="iconify iconify--ph" width="1em" height="1em" preserveAspectRatio="xMidYMid meet" viewBox="0 0 256 256"><path fill="currentColor" d="M218.7 42.6a6 6 0 0 0-6.3.6c-29.2 21.9-54.9 10.9-82-.7s-59.2-25.4-94 .7A6 6 0 0 0 34 48v168a6 6 0 0 0 12 0v-44.9c28.2-19.6 53.2-8.9 79.6 2.4c16.1 6.9 33.3 14.3 51.7 14.3c13.5 0 27.6-4 42.3-15a6 6 0 0 0 2.4-4.8V48a6.2 6.2 0 0 0-3.3-5.4ZM210 59.1v44c-16.8 11.6-32.5 12.5-48 9V66.2c15.2 3 31.2 2.3 48-7.1ZM150 63v45.5c-6.5-2.2-13-5-19.6-7.9s-16-6.8-24.4-9.5V45.6c6.5 2.3 13 5.1 19.6 7.9A246.7 246.7 0 0 0 150 63ZM94 42.1V88c-15.2-3.1-31.2-2.3-48 7.1v-44c16.8-11.7 32.5-12.6 48-9ZM46 156.9v-47.7c16.8-11.6 32.5-12.6 48-9v49.6c-15.2-3-31.2-2.3-48 7.1Zm60-3.9v-49.3c6.5 2.3 13 5.1 19.6 8s16 6.8 24.4 9.5v49.2c-6.5-2.3-13-5.1-19.6-7.9s-16-6.8-24.4-9.5Zm56 21v-49.7a77.9 77.9 0 0 0 15.3 1.6a65.8 65.8 0 0 0 32.7-8.7v47.7c-16.8 11.7-32.5 12.6-48 9.1Z"></path></svg>