<svg xmlns="http://www.w3.org/2000/svg" xmlns:xlink="http://www.w3.org/1999/xlink" aria-hidden="true" role="img" class="iconify iconify--ph" width="1em" height="1em" preserveAspectRatio="xMidYMid meet" viewBox="0 0 256 256"><path fill="currentColor" d="M219.6 40.8a8.2 8.2 0 0 0-8.4.8c-28.3 21.2-52.3 11-80-.9s-60.3-25.9-96 .9A8 8 0 0 0 32 48v168a8 8 0 0 0 16 0v-43.9c26.9-18.1 50.1-8.2 76.8 3.3c16.3 6.9 33.8 14.4 52.6 14.4c13.8 0 28.3-4 43.4-15.4a8.1 8.1 0 0 0 3.2-6.4V48a8.2 8.2 0 0 0-4.4-7.2ZM208 62.4V102c-15.4 10.4-29.6 11.6-44 8.6v-42c13.9 2.5 28.6 1.6 44-6.2Zm-60 2.1v41.2q-8.2-3.2-16.8-6.9c-7.5-3.2-15.2-6.5-23.2-9.2V48.4c5.5 2.1 11.1 4.5 16.8 7c7.5 3.2 15.2 6.5 23.2 9.1ZM92 43.6v41.9c-13.9-2.4-28.6-1.5-44 6.2V52.1c15.4-10.4 29.6-11.6 44-8.5Zm-44 110v-43.3c15.4-10.4 29.6-11.6 44-8.6v45.7c-13.9-2.4-28.6-1.6-44 6.2Zm60-2.1v-44.9c5.5 2 11.1 4.4 16.8 6.9c7.5 3.2 15.2 6.5 23.2 9.1v45c-5.5-2.1-11.1-4.5-16.8-6.9c-7.5-3.2-15.2-6.6-23.2-9.2Zm56 20.9v-45.6a84.5 84.5 0 0 0 13.4 1.2a66 66 0 0 0 30.6-7.5v43.4c-15.4 10.4-29.6 11.6-44 8.5Z"></path></svg>