<svg xmlns="http://www.w3.org/2000/svg" xmlns:xlink="http://www.w3.org/1999/xlink" aria-hidden="true" role="img" class="iconify iconify--ph" width="1em" height="1em" preserveAspectRatio="xMidYMid meet" viewBox="0 0 256 256"><path fill="currentColor" d="M221.4 37.3a12 12 0 0 0-12.6 1.1c-26.4 19.8-48.3 10.5-76.1-1.4s-62.4-26.8-99.9 1.4A12.2 12.2 0 0 0 28 48v168a12 12 0 0 0 24 0v-41.7c24.3-15.4 45.2-6.4 71.3 4.7c16.7 7.2 34.7 14.9 54.1 14.9c14.5 0 29.8-4.3 45.8-16.3a12.1 12.1 0 0 0 4.8-9.6V48a12.1 12.1 0 0 0-6.6-10.7ZM204 68.7v31.2c-12.5 7.9-24.1 9.3-36 7.4v-34a70.6 70.6 0 0 0 36-4.6Zm-60-1.3v32.5l-11.3-4.8c-6.7-2.9-13.6-5.8-20.7-8.3V54.3l11.3 4.7c6.7 2.9 13.6 5.9 20.7 8.4ZM88 46.9v33.9a69.6 69.6 0 0 0-36 4.7V54.3c12.5-7.9 24.1-9.4 36-7.4ZM52 147.3v-34.9c12.5-7.9 24.1-9.3 36-7.4v37.7a70.6 70.6 0 0 0-36 4.6Zm60 1.3v-36.2l11.3 4.8c6.7 2.8 13.6 5.8 20.7 8.3v36.2l-11.3-4.7c-6.7-2.9-13.6-5.9-20.7-8.4Zm56 20.5v-37.6c3.1.3 6.3.6 9.4.6a70 70 0 0 0 26.6-5.3v34.9c-12.5 7.9-24.1 9.4-36 7.4Z"></path></svg>