<svg xmlns="http://www.w3.org/2000/svg" xmlns:xlink="http://www.w3.org/1999/xlink" aria-hidden="true" role="img" class="iconify iconify--ph" width="1em" height="1em" preserveAspectRatio="xMidYMid meet" viewBox="0 0 256 256"><path fill="currentColor" d="M217.8 44.4a4 4 0 0 0-4.2.4c-30.1 22.6-56.3 11.4-84-.5s-58.1-24.9-92 .5A4.2 4.2 0 0 0 36 48v168a4 4 0 0 0 8 0v-45.9c29.5-21.1 55.2-10.1 82.4 1.6c16.5 7 33.2 14.2 50.9 14.2c13.1 0 26.7-3.9 41.1-14.7a4 4 0 0 0 1.6-3.2V48a4.2 4.2 0 0 0-2.2-3.6ZM212 55.6v48.5c-18.4 13.1-35.3 13.8-52 9.6V63.8c16.5 3.8 33.6 3.2 52-8.2Zm-60 6v49.8c-7.4-2.5-14.9-5.7-22.4-8.9s-16.9-7.3-25.6-10V42.8c7.4 2.5 14.9 5.6 22.4 8.9a265.2 265.2 0 0 0 25.6 9.9ZM96 40.5v49.9c-16.5-3.8-33.6-3.3-52 8.2V50.1c18.4-13.2 35.3-13.8 52-9.6ZM44 160.4v-52.2c18.4-13.1 35.3-13.8 52-9.6v53.6c-16.5-3.8-33.6-3.2-52 8.2Zm60-6v-53.5c7.4 2.5 14.9 5.7 22.4 8.9s16.9 7.3 25.6 10v53.4c-7.4-2.5-14.9-5.6-22.4-8.9a265.2 265.2 0 0 0-25.6-9.9Zm56 21.2v-53.7a78 78 0 0 0 17.3 2.1c11.2 0 22.7-2.8 34.7-10.3V166c-18.4 13.1-35.3 13.7-52 9.6Z"></path></svg>