<svg xmlns="http://www.w3.org/2000/svg" xmlns:xlink="http://www.w3.org/1999/xlink" aria-hidden="true" role="img" class="iconify iconify--ph" width="1em" height="1em" preserveAspectRatio="xMidYMid meet" viewBox="0 0 256 256"><path fill="currentColor" d="M217.8 44.4a4 4 0 0 0-4.2.4c-30.2 22.6-56.3 11.4-84-.5s-58.1-24.9-92 .5l-.2.2l-.3.3l-.3.3c0 .1-.1.2-.2.3s-.1.2-.2.3s-.1.2-.1.4a.4.4 0 0 0-.1.3a61654275059634.7 61654275059634.7 0 0 0-.2.8V216a4 4 0 0 0 8 0v-45.9c29.5-21.1 55.2-10.1 82.4 1.6c16.5 7 33.2 14.2 50.9 14.2c13.1 0 26.7-3.9 41.1-14.7a4 4 0 0 0 1.6-3.2V48a4.2 4.2 0 0 0-2.2-3.6ZM212 166c-29.5 21-55.2 10-82.4-1.7S75.2 141 44 160.4V50.1C73.5 29 99.2 40 126.4 51.7S180.8 75 212 55.6Z"></path></svg>