<svg xmlns="http://www.w3.org/2000/svg" xmlns:xlink="http://www.w3.org/1999/xlink" aria-hidden="true" role="img" class="iconify iconify--ph" width="1em" height="1em" preserveAspectRatio="xMidYMid meet" viewBox="0 0 256 256"><path fill="currentColor" d="M170.9 54.2a216.8 216.8 0 0 0-40.8-33.6a4 4 0 0 0-4.2 0a216.8 216.8 0 0 0-40.8 33.6C58.2 82.5 44 113.5 44 144a84 84 0 0 0 168 0c0-30.5-14.2-61.5-41.1-89.8ZM92 184c0-32.1 28.1-53.7 36-59.2c7.9 5.5 36 27.1 36 59.2a36 36 0 0 1-72 0Zm69.9 28a43.8 43.8 0 0 0 10.1-28c0-41.8-40.2-66.4-41.9-67.4a4 4 0 0 0-4.2 0c-1.7 1-41.9 25.6-41.9 67.4a43.8 43.8 0 0 0 10.1 28A76 76 0 0 1 52 144c0-62.5 63.6-107.2 76-115.3c12.4 8.1 76 52.8 76 115.3a76 76 0 0 1-42.1 68Z"></path></svg>