<svg xmlns="http://www.w3.org/2000/svg" xmlns:xlink="http://www.w3.org/1999/xlink" aria-hidden="true" role="img" class="iconify iconify--ph" width="1em" height="1em" preserveAspectRatio="xMidYMid meet" viewBox="0 0 256 256"><path fill="currentColor" d="M128 24S48 72 48 144a79.9 79.9 0 0 0 77.9 79.9A39.9 39.9 0 0 1 88 184c0-40 40-64 40-64s40 24 40 64a39.9 39.9 0 0 1-37.9 39.9A79.9 79.9 0 0 0 208 144c0-72-80-120-80-120Z" opacity=".2"></path><path fill="currentColor" d="M173.8 51.5a221.5 221.5 0 0 0-41.7-34.4a8 8 0 0 0-8.2 0a221.5 221.5 0 0 0-41.7 34.4C54.6 80.5 40 112.5 40 144a88 88 0 0 0 176 0c0-31.5-14.6-63.5-42.2-92.5ZM96 184c0-27.7 22.5-47.3 32-54.3c9.5 7 32 26.6 32 54.3a32 32 0 0 1-64 0Zm77.3 15.9A49.1 49.1 0 0 0 176 184c0-44-42.1-69.8-43.9-70.9a8 8 0 0 0-8.2 0C122.1 114.2 80 140 80 184a49.1 49.1 0 0 0 2.7 15.9A71.7 71.7 0 0 1 56 144c0-34.4 20.4-63.1 37.5-81.2A223.2 223.2 0 0 1 128 33.5a223.2 223.2 0 0 1 34.5 29.3C193.5 95.5 200 125 200 144a71.7 71.7 0 0 1-26.7 55.9Z"></path></svg>