<svg xmlns="http://www.w3.org/2000/svg" xmlns:xlink="http://www.w3.org/1999/xlink" aria-hidden="true" role="img" class="iconify iconify--ph" width="1em" height="1em" preserveAspectRatio="xMidYMid meet" viewBox="0 0 256 256"><path fill="currentColor" d="M173.8 51.5a221.5 221.5 0 0 0-41.7-34.4a8 8 0 0 0-8.2 0a221.5 221.5 0 0 0-41.7 34.4C54.6 80.5 40 112.5 40 144a88 88 0 0 0 176 0c0-31.5-14.6-63.5-42.2-92.5ZM128 216a32.1 32.1 0 0 1-32-32c0-27.7 22.5-47.3 32-54.3c9.5 7 32 26.6 32 54.3a32.1 32.1 0 0 1-32 32Z"></path></svg>