<svg xmlns="http://www.w3.org/2000/svg" xmlns:xlink="http://www.w3.org/1999/xlink" aria-hidden="true" role="img" class="iconify iconify--ph" width="1em" height="1em" preserveAspectRatio="xMidYMid meet" viewBox="0 0 256 256"><path fill="currentColor" d="m221.9 200.8l-63.6-106a1.9 1.9 0 0 1-.3-1V38h10a6 6 0 0 0 0-12H88a6 6 0 0 0 0 12h10v55.8a1.9 1.9 0 0 1-.3 1l-40.2 67v.2l-23.4 38.8a14 14 0 0 0 12 21.2h163.8a14 14 0 0 0 12-21.2ZM108 101a14.2 14.2 0 0 0 2-7.2V38h36v55.8a14.2 14.2 0 0 0 2 7.2l39.9 66.5c-13.8 8.7-33.5 7-57.2-4.9s-40.5-13.1-53.4-10.5Zm103.6 108a1.8 1.8 0 0 1-1.7 1H46.1a1.8 1.8 0 0 1-1.7-1a2 2 0 0 1 0-2l22.7-37.8c13.8-9.4 33.9-8 58.2 4.2c17 8.4 30.9 11.6 42.2 11.6a49.4 49.4 0 0 0 26.6-7.2l17.5 29.2a2 2 0 0 1 0 2Z"></path></svg>