<svg xmlns="http://www.w3.org/2000/svg" xmlns:xlink="http://www.w3.org/1999/xlink" aria-hidden="true" role="img" class="iconify iconify--ph" width="1em" height="1em" preserveAspectRatio="xMidYMid meet" viewBox="0 0 256 256"><path fill="currentColor" d="m227 197.7l-63-105V44h4a12 12 0 0 0 0-24H88a12 12 0 0 0 0 24h4v48.7l-39.6 66v.2L29 197.7A19.9 19.9 0 0 0 46.1 228h163.8a19.9 19.9 0 0 0 17.1-30.3Zm-113.9-93.6a19.8 19.8 0 0 0 2.9-10.3V44h24v49.8a19.8 19.8 0 0 0 2.9 10.3l36.5 60.9c-14.3 5.2-32.3-.9-46-7.7c-17.9-9-32.7-12.3-44.8-12.3ZM53.2 204l18.3-30.6c15-9.1 35.9-2.3 51.1 5.3c17.9 9 32.8 12.3 45 12.3a56.3 56.3 0 0 0 24.3-5.2l10.9 18.2Z"></path></svg>