<svg xmlns="http://www.w3.org/2000/svg" xmlns:xlink="http://www.w3.org/1999/xlink" aria-hidden="true" role="img" class="iconify iconify--ph" width="1em" height="1em" preserveAspectRatio="xMidYMid meet" viewBox="0 0 256 256"><path fill="currentColor" d="M184 20H72a12 12 0 0 0-12 12v45.3a12.2 12.2 0 0 0 2.4 7.2l20.8 27.8a4.1 4.1 0 0 1 .8 2.4V224a12 12 0 0 0 12 12h64a12 12 0 0 0 12-12V114.7a4.1 4.1 0 0 1 .8-2.4l20.8-27.8a12.2 12.2 0 0 0 2.4-7.2V32a12 12 0 0 0-12-12ZM72 28h112a4 4 0 0 1 4 4v28H68V32a4 4 0 0 1 4-4Zm115.2 51.7l-20.8 27.8a12.2 12.2 0 0 0-2.4 7.2V224a4 4 0 0 1-4 4H96a4 4 0 0 1-4-4V114.7a12.2 12.2 0 0 0-2.4-7.2L68.8 79.7a4.1 4.1 0 0 1-.8-2.4V68h120v9.3a4.1 4.1 0 0 1-.8 2.4ZM132 120v32a4 4 0 0 1-8 0v-32a4 4 0 0 1 8 0Z"></path></svg>