<svg xmlns="http://www.w3.org/2000/svg" xmlns:xlink="http://www.w3.org/1999/xlink" aria-hidden="true" role="img" class="iconify iconify--ph" width="1em" height="1em" preserveAspectRatio="xMidYMid meet" viewBox="0 0 256 256"><path fill="currentColor" d="M184 12H72a20.1 20.1 0 0 0-20 20v45.3a19.9 19.9 0 0 0 4 12L76 116v108a20.1 20.1 0 0 0 20 20h64a20.1 20.1 0 0 0 20-20V116l20-26.7a19.9 19.9 0 0 0 4-12V32a20.1 20.1 0 0 0-20-20Zm-4 24v16H76V36Zm-20 66.7a19.9 19.9 0 0 0-4 12V220h-56V114.7a19.9 19.9 0 0 0-4-12L76 76h104ZM140 120v32a12 12 0 0 1-24 0v-32a12 12 0 0 1 24 0Z"></path></svg>