<svg xmlns="http://www.w3.org/2000/svg" xmlns:xlink="http://www.w3.org/1999/xlink" aria-hidden="true" role="img" class="iconify iconify--ph" width="1em" height="1em" preserveAspectRatio="xMidYMid meet" viewBox="0 0 256 256"><path fill="currentColor" d="m220.2 201.8l-63.6-106a3.6 3.6 0 0 1-.6-2V36h12a4 4 0 0 0 0-8H88a4 4 0 0 0 0 8h12v57.8a3.6 3.6 0 0 1-.6 2l-40.2 67.1l-23.4 38.9a11.9 11.9 0 0 0-.1 12.1a11.7 11.7 0 0 0 10.4 6.1h163.8a11.7 11.7 0 0 0 10.4-6.1a11.9 11.9 0 0 0-.1-12.1ZM106.3 100a12.3 12.3 0 0 0 1.7-6.2V36h40v57.8a12.3 12.3 0 0 0 1.7 6.2l40.9 68.1c-14.5 10.3-35.4 9-60.8-3.7c-16.1-8-37.6-15.1-56.7-9.1Zm107.1 110a4.1 4.1 0 0 1-3.5 2H46.1a4.1 4.1 0 0 1-3.5-2a4.2 4.2 0 0 1 .1-4.1l22.9-38.1c14.5-10.1 35.4-8.8 60.6 3.8c16.6 8.3 30.3 11.4 41.3 11.4s20.7-3.5 27.2-8l18.6 30.9a4.2 4.2 0 0 1 .1 4.1Z"></path></svg>