<svg xmlns="http://www.w3.org/2000/svg" xmlns:xlink="http://www.w3.org/1999/xlink" aria-hidden="true" role="img" class="iconify iconify--ph" width="1em" height="1em" preserveAspectRatio="xMidYMid meet" viewBox="0 0 256 256"><path fill="currentColor" d="M223.6 199.8L160 93.8V40h8a8 8 0 0 0 0-16H88a8 8 0 0 0 0 16h8v53.8l-40.2 66.9c0 .1-.1.2-.1.3l-23.3 38.8A16 16 0 0 0 46.1 224h163.8a16 16 0 0 0 13.7-24.2ZM109.7 102a15.9 15.9 0 0 0 2.3-8.2V40h32v53.8a15.9 15.9 0 0 0 2.3 8.2l38.8 64.8c-13.1 7.1-31.4 5.1-53.5-6c-14.3-7.1-32.7-13.5-50.3-11.4ZM46.1 208l22.5-37.4c13.2-8.7 32.4-7.1 55.8 4.6c17.3 8.6 31.5 11.8 43.2 11.8a51.4 51.4 0 0 0 25.8-6.5l16.5 27.5Z"></path></svg>