<svg xmlns="http://www.w3.org/2000/svg" xmlns:xlink="http://www.w3.org/1999/xlink" aria-hidden="true" role="img" class="iconify iconify--ph" width="1em" height="1em" preserveAspectRatio="xMidYMid meet" viewBox="0 0 256 256"><path fill="currentColor" d="M184 18H72a14 14 0 0 0-14 14v45.3a14.1 14.1 0 0 0 2.8 8.4l20.8 27.8a1.6 1.6 0 0 1 .4 1.2V224a14 14 0 0 0 14 14h64a14 14 0 0 0 14-14V114.7a1.6 1.6 0 0 1 .4-1.2l20.8-27.8a14.1 14.1 0 0 0 2.8-8.4V32a14 14 0 0 0-14-14ZM72 30h112a2 2 0 0 1 2 2v26H70V32a2 2 0 0 1 2-2Zm113.6 48.5l-20.8 27.8a14.1 14.1 0 0 0-2.8 8.4V224a2 2 0 0 1-2 2H96a2 2 0 0 1-2-2V114.7a14.1 14.1 0 0 0-2.8-8.4L70.4 78.5a1.6 1.6 0 0 1-.4-1.2V70h116v7.3a1.6 1.6 0 0 1-.4 1.2ZM134 120v32a6 6 0 0 1-12 0v-32a6 6 0 0 1 12 0Z"></path></svg>