<svg xmlns="http://www.w3.org/2000/svg" xmlns:xlink="http://www.w3.org/1999/xlink" aria-hidden="true" role="img" class="iconify iconify--ph" width="1em" height="1em" preserveAspectRatio="xMidYMid meet" viewBox="0 0 256 256"><path fill="currentColor" d="M184 16H72a16 16 0 0 0-16 16v45.3a15.6 15.6 0 0 0 3.2 9.6L80 114.7V224a16 16 0 0 0 16 16h64a16 16 0 0 0 16-16V114.7l20.8-27.8a15.6 15.6 0 0 0 3.2-9.6V32a16 16 0 0 0-16-16ZM72 32h112v24H72V32Zm91.2 73.1a15.6 15.6 0 0 0-3.2 9.6V224H96V114.7a15.6 15.6 0 0 0-3.2-9.6L72 77.3V72h112v5.3ZM136 120v32a8 8 0 0 1-16 0v-32a8 8 0 0 1 16 0Z"></path></svg>