<svg xmlns="http://www.w3.org/2000/svg" xmlns:xlink="http://www.w3.org/1999/xlink" aria-hidden="true" role="img" class="iconify iconify--ph" width="1em" height="1em" preserveAspectRatio="xMidYMid meet" viewBox="0 0 256 256"><path fill="currentColor" d="M208 34H91.3a13.8 13.8 0 0 0-9.9 4.1L38.1 81.4a14.1 14.1 0 0 0-4.1 9.9V208a14 14 0 0 0 14 14h160a14 14 0 0 0 14-14V48a14 14 0 0 0-14-14Zm2 174a2 2 0 0 1-2 2H48a2 2 0 0 1-2-2V91.3a2 2 0 0 1 .6-1.4l43.3-43.3a2 2 0 0 1 1.4-.6H154v28H96a6 6 0 0 0 0 12h64a6 6 0 0 0 6-6V46h42a2 2 0 0 1 2 2Zm-82-94a34 34 0 1 0 34 34a34.1 34.1 0 0 0-34-34Zm0 56a22 22 0 1 1 22-22a22.1 22.1 0 0 1-22 22Z"></path></svg>