<svg xmlns="http://www.w3.org/2000/svg" xmlns:xlink="http://www.w3.org/1999/xlink" aria-hidden="true" role="img" class="iconify iconify--ph" width="1em" height="1em" preserveAspectRatio="xMidYMid meet" viewBox="0 0 256 256"><path fill="currentColor" d="m217.9 81.4l-43.3-43.3a13.8 13.8 0 0 0-9.9-4.1H48a14 14 0 0 0-14 14v160a14 14 0 0 0 14 14h160a14 14 0 0 0 14-14V91.3a14.1 14.1 0 0 0-4.1-9.9ZM170 210H86v-58a2 2 0 0 1 2-2h80a2 2 0 0 1 2 2Zm40-2a2 2 0 0 1-2 2h-26v-58a14 14 0 0 0-14-14H88a14 14 0 0 0-14 14v58H48a2 2 0 0 1-2-2V48a2 2 0 0 1 2-2h116.7a2 2 0 0 1 1.4.6l43.3 43.3a2 2 0 0 1 .6 1.4ZM158 72a6 6 0 0 1-6 6H96a6 6 0 0 1 0-12h56a6 6 0 0 1 6 6Z"></path></svg>