<svg xmlns="http://www.w3.org/2000/svg" xmlns:xlink="http://www.w3.org/1999/xlink" aria-hidden="true" role="img" class="iconify iconify--ph" width="1em" height="1em" preserveAspectRatio="xMidYMid meet" viewBox="0 0 256 256"><path fill="currentColor" d="m222.1 77.2l-43.3-43.3a19.7 19.7 0 0 0-14.1-5.9H48a20.1 20.1 0 0 0-20 20v160a20.1 20.1 0 0 0 20 20h160a20.1 20.1 0 0 0 20-20V91.3a19.7 19.7 0 0 0-5.9-14.1ZM164 204H92v-48h72Zm40 0h-16v-52a20.1 20.1 0 0 0-20-20H88a20.1 20.1 0 0 0-20 20v52H52V52h111l41 41ZM164 80a12 12 0 0 1-12 12H96a12 12 0 0 1 0-24h56a12 12 0 0 1 12 12Z"></path></svg>