<svg xmlns="http://www.w3.org/2000/svg" xmlns:xlink="http://www.w3.org/1999/xlink" aria-hidden="true" role="img" class="iconify iconify--ph" width="1em" height="1em" preserveAspectRatio="xMidYMid meet" viewBox="0 0 256 256"><path fill="currentColor" d="M219.3 80L176 36.7a15.9 15.9 0 0 0-11.3-4.7H48a16 16 0 0 0-16 16v160a16 16 0 0 0 16 16h160a16 16 0 0 0 16-16V91.3a15.9 15.9 0 0 0-4.7-11.3ZM208 91.3V208h-24v-56a16 16 0 0 0-16-16H88a16 16 0 0 0-16 16v56H48V48h116.7L208 91.3ZM160 72a8 8 0 0 1-8 8H96a8 8 0 0 1 0-16h56a8 8 0 0 1 8 8Z"></path></svg>