<svg xmlns="http://www.w3.org/2000/svg" xmlns:xlink="http://www.w3.org/1999/xlink" aria-hidden="true" role="img" class="iconify iconify--ph" width="1em" height="1em" preserveAspectRatio="xMidYMid meet" viewBox="0 0 256 256"><path fill="currentColor" d="M208 36H91.3a11.9 11.9 0 0 0-8.5 3.5L39.5 82.8a11.9 11.9 0 0 0-3.5 8.5V208a12 12 0 0 0 12 12h160a12 12 0 0 0 12-12V48a12 12 0 0 0-12-12Zm4 172a4 4 0 0 1-4 4H48a4 4 0 0 1-4-4V91.3a3.6 3.6 0 0 1 1.2-2.8l43.3-43.3a3.6 3.6 0 0 1 2.8-1.2H156v32H96a4 4 0 0 0 0 8h64a4 4 0 0 0 4-4V44h44a4 4 0 0 1 4 4Zm-84-92a32 32 0 1 0 32 32a32.1 32.1 0 0 0-32-32Zm0 56a24 24 0 1 1 24-24a24.1 24.1 0 0 1-24 24Z"></path></svg>