<svg xmlns="http://www.w3.org/2000/svg" xmlns:xlink="http://www.w3.org/1999/xlink" aria-hidden="true" role="img" class="iconify iconify--ph" width="1em" height="1em" preserveAspectRatio="xMidYMid meet" viewBox="0 0 256 256"><path fill="currentColor" d="M208 28H91.3a20 20 0 0 0-14.1 5.8L33.9 77.2A19.7 19.7 0 0 0 28 91.3V208a20.1 20.1 0 0 0 20 20h160a20.1 20.1 0 0 0 20-20V48a20.1 20.1 0 0 0-20-20Zm-4 176H52V93l41-41h55v16h-44a12 12 0 0 0 0 24h56a12 12 0 0 0 12-12V52h32Zm-76-96a40 40 0 1 0 40 40a40 40 0 0 0-40-40Zm0 56a16 16 0 1 1 16-16a16 16 0 0 1-16 16Z"></path></svg>