<svg xmlns="http://www.w3.org/2000/svg" xmlns:xlink="http://www.w3.org/1999/xlink" aria-hidden="true" role="img" class="iconify iconify--ph" width="1em" height="1em" preserveAspectRatio="xMidYMid meet" viewBox="0 0 256 256"><path fill="currentColor" d="m216.5 82.8l-43.3-43.3a11.9 11.9 0 0 0-8.5-3.5H48a12 12 0 0 0-12 12v160a12 12 0 0 0 12 12h160a12 12 0 0 0 12-12V91.3a11.9 11.9 0 0 0-3.5-8.5ZM172 212H84v-60a4 4 0 0 1 4-4h80a4 4 0 0 1 4 4Zm40-4a4 4 0 0 1-4 4h-28v-60a12 12 0 0 0-12-12H88a12 12 0 0 0-12 12v60H48a4 4 0 0 1-4-4V48a4 4 0 0 1 4-4h116.7a3.8 3.8 0 0 1 2.8 1.2l43.3 43.3a3.6 3.6 0 0 1 1.2 2.8ZM156 72a4 4 0 0 1-4 4H96a4 4 0 0 1 0-8h56a4 4 0 0 1 4 4Z"></path></svg>