<svg xmlns="http://www.w3.org/2000/svg" xmlns:xlink="http://www.w3.org/1999/xlink" aria-hidden="true" role="img" class="iconify iconify--ph" width="1em" height="1em" preserveAspectRatio="xMidYMid meet" viewBox="0 0 256 256"><path fill="currentColor" d="M115 103.2c-7.3-15.4-15-34.6-15-47.2a28 28 0 0 1 56 0c0 12.6-7.7 31.8-15 47.2a28 28 0 0 0-26 0Zm26 0Zm-41 23.6Zm13-22.4Zm-61.4 11.8c10.9 6.3 31.4 9.3 48.4 10.6a27.8 27.8 0 0 1 3.8-12.8a26.5 26.5 0 0 1 9.2-9.6C103.3 90.3 90.5 74 79.6 67.8a28 28 0 0 0-28 48.4Zm52.2 25.8a27.8 27.8 0 0 1-3.8-12.8c-17 1.3-37.5 4.3-48.4 10.6a28 28 0 1 0 28 48.4c10.9-6.2 23.7-22.5 33.4-36.6a26.5 26.5 0 0 1-9.2-9.6Zm11.2 10.8Zm26 0Zm-13 3.2a27.2 27.2 0 0 1-13-3.2c-7.3 15.4-15 34.6-15 47.2a28 28 0 0 0 56 0c0-12.6-7.7-31.8-15-47.2a27.2 27.2 0 0 1-13 3.2Zm76.4-16.2c-10.9-6.3-31.4-9.3-48.4-10.6a27.8 27.8 0 0 1-3.8 12.8a26.5 26.5 0 0 1-9.2 9.6c9.7 14.1 22.5 30.4 33.4 36.6a28 28 0 0 0 28-48.4Zm-48.4-13Zm-13-22.4Zm9.2 9.6a27.8 27.8 0 0 1 3.8 12.8c17-1.3 37.5-4.3 48.4-10.6a28 28 0 0 0-28-48.4c-10.9 6.2-23.7 22.5-33.4 36.6a26.5 26.5 0 0 1 9.2 9.6Z" opacity=".2"></path><path fill="currentColor" d="M208.4 132.8a56.9 56.9 0 0 0-11.5-4.8a56.9 56.9 0 0 0 11.5-4.8a36 36 0 0 0-36-62.4a58.7 58.7 0 0 0-9.9 7.5A58.6 58.6 0 0 0 164 56a36 36 0 0 0-72 0a58.6 58.6 0 0 0 1.5 12.3a58.7 58.7 0 0 0-9.9-7.5a36 36 0 0 0-36 62.4a56.9 56.9 0 0 0 11.5 4.8a56.9 56.9 0 0 0-11.5 4.8a36 36 0 0 0 36 62.4a58.7 58.7 0 0 0 9.9-7.5A58.6 58.6 0 0 0 92 200a36 36 0 0 0 72 0a58.6 58.6 0 0 0-1.5-12.3a58.7 58.7 0 0 0 9.9 7.5a36 36 0 0 0 36-62.4ZM108 128a20 20 0 1 1 20 20a20.1 20.1 0 0 1-20-20Zm72.4-53.3a20 20 0 0 1 20 34.6c-6.8 3.9-20.1 7-37.8 8.9a36.2 36.2 0 0 0-8.8-15.3c10.5-14.4 19.8-24.3 26.6-28.2ZM128 36a20.1 20.1 0 0 1 20 20c0 7.8-3.9 20.9-11.2 37.1a35.8 35.8 0 0 0-17.6 0C111.9 76.9 108 63.8 108 56a20.1 20.1 0 0 1 20-20ZM48.3 82a20 20 0 0 1 27.3-7.3c6.8 3.9 16.1 13.8 26.6 28.2a36.2 36.2 0 0 0-8.8 15.3c-17.7-1.9-31-5-37.8-8.9A20 20 0 0 1 48.3 82Zm27.3 99.3a20 20 0 0 1-20-34.6c6.8-3.9 20.1-7 37.8-8.9a36.2 36.2 0 0 0 8.8 15.3c-10.5 14.4-19.8 24.3-26.6 28.2ZM128 220a20.1 20.1 0 0 1-20-20c0-7.8 3.9-20.9 11.2-37.1a35.8 35.8 0 0 0 17.6 0c7.3 16.2 11.2 29.3 11.2 37.1a20.1 20.1 0 0 1-20 20Zm79.7-46a20.1 20.1 0 0 1-27.3 7.3c-6.8-3.9-16.1-13.8-26.6-28.2a36.2 36.2 0 0 0 8.8-15.3c17.7 1.9 31 5 37.8 8.9a20 20 0 0 1 7.3 27.3Z"></path></svg>