<svg xmlns="http://www.w3.org/2000/svg" xmlns:xlink="http://www.w3.org/1999/xlink" aria-hidden="true" role="img" class="iconify iconify--ph" width="1em" height="1em" preserveAspectRatio="xMidYMid meet" viewBox="0 0 256 256"><path fill="currentColor" d="m244.2 75.8l-40-40a5.9 5.9 0 0 0-8.4 8.4L225.5 74H176a54 54 0 0 0-54 54a42 42 0 0 1-42 42h-2.5a34 34 0 1 0 0 12H80a54 54 0 0 0 54-54a42 42 0 0 1 42-42h49.5l-29.7 29.8a5.9 5.9 0 1 0 8.4 8.4l40-40a5.8 5.8 0 0 0 0-8.4ZM44 198a22 22 0 1 1 22-22a22.1 22.1 0 0 1-22 22Z"></path></svg>