<svg xmlns="http://www.w3.org/2000/svg" xmlns:xlink="http://www.w3.org/1999/xlink" aria-hidden="true" role="img" class="iconify iconify--ph" width="1em" height="1em" preserveAspectRatio="xMidYMid meet" viewBox="0 0 256 256"><path fill="currentColor" d="M207.4 134.6q-6.7-3.9-18-6.6q11.3-2.7 18-6.6a34 34 0 1 0-34-58.8c-4.5 2.5-9.4 6.6-14.7 12.2c2.2-7.4 3.3-13.7 3.3-18.8a34 34 0 0 0-68 0c0 5.1 1.1 11.4 3.3 18.8c-5.3-5.6-10.2-9.7-14.7-12.2a34 34 0 1 0-34 58.8q6.8 3.9 18 6.6q-11.2 2.7-18 6.6A34 34 0 0 0 65.7 198a33.3 33.3 0 0 0 16.9-4.6c4.5-2.5 9.4-6.6 14.7-12.2c-2.2 7.4-3.3 13.7-3.3 18.8a34 34 0 0 0 68 0c0-5.1-1.1-11.4-3.3-18.8c5.3 5.6 10.2 9.7 14.7 12.2a33.3 33.3 0 0 0 16.9 4.6a34 34 0 0 0 17.1-63.4ZM106 128a22 22 0 1 1 22 22a22.1 22.1 0 0 1-22-22Zm73.4-55.1a22 22 0 0 1 22 38.2c-7.4 4.2-21.3 7.4-40.3 9.2a33.6 33.6 0 0 0-9.9-17.1c11.1-15.6 20.8-26 28.2-30.3ZM128 34a22.1 22.1 0 0 1 22 22c0 8.5-4.2 22.1-12.1 39.5a33.4 33.4 0 0 0-19.8 0C110.2 78.1 106 64.5 106 56a22.1 22.1 0 0 1 22-22ZM46.6 81a22.1 22.1 0 0 1 30-8.1c7.4 4.3 17.1 14.7 28.2 30.3a33.6 33.6 0 0 0-9.9 17.1c-19-1.8-32.9-5-40.3-9.2a22 22 0 0 1-8-30.1Zm30 102.1a22 22 0 0 1-22-38.2c7.4-4.2 21.3-7.4 40.3-9.2a33.6 33.6 0 0 0 9.9 17.1c-11.1 15.6-20.8 26-28.2 30.3ZM128 222a22.1 22.1 0 0 1-22-22c0-8.5 4.2-22.1 12.1-39.5a33.4 33.4 0 0 0 19.8 0c7.9 17.4 12.1 31 12.1 39.5a22.1 22.1 0 0 1-22 22Zm81.4-47a22.1 22.1 0 0 1-30 8.1c-7.4-4.3-17.1-14.7-28.2-30.3a33.6 33.6 0 0 0 9.9-17.1c19 1.8 32.9 5 40.3 9.2a22 22 0 0 1 8 30.1Z"></path></svg>