<svg xmlns="http://www.w3.org/2000/svg" xmlns:xlink="http://www.w3.org/1999/xlink" aria-hidden="true" role="img" class="iconify iconify--ph" width="1em" height="1em" preserveAspectRatio="xMidYMid meet" viewBox="0 0 256 256"><path fill="currentColor" d="m242.8 77.2l-40-40a4 4 0 0 0-5.6 5.6L230.3 76H176a52 52 0 0 0-52 52a44 44 0 0 1-44 44h-4.3a32 32 0 1 0 0 8H80a52 52 0 0 0 52-52a44 44 0 0 1 44-44h54.3l-33.1 33.2a3.9 3.9 0 0 0 0 5.6a3.9 3.9 0 0 0 5.6 0l40-40a3.9 3.9 0 0 0 0-5.6ZM44 200a24 24 0 1 1 24-24a24.1 24.1 0 0 1-24 24Z"></path></svg>