<svg xmlns="http://www.w3.org/2000/svg" xmlns:xlink="http://www.w3.org/1999/xlink" aria-hidden="true" role="img" class="iconify iconify--ph" width="1em" height="1em" preserveAspectRatio="xMidYMid meet" viewBox="0 0 256 256"><path fill="currentColor" d="m245.7 85.7l-40 40a8.2 8.2 0 0 1-11.4 0a8.1 8.1 0 0 1 0-11.4L220.7 88H176a40 40 0 0 0-40 40a56 56 0 0 1-56 56h-.9a36 36 0 1 1 0-16h.9a40 40 0 0 0 40-40a56 56 0 0 1 56-56h44.7l-26.4-26.3a8.1 8.1 0 0 1 11.4-11.4l40 40a8.1 8.1 0 0 1 0 11.4Z"></path></svg>