<svg xmlns="http://www.w3.org/2000/svg" xmlns:xlink="http://www.w3.org/1999/xlink" aria-hidden="true" role="img" class="iconify iconify--ph" width="1em" height="1em" preserveAspectRatio="xMidYMid meet" viewBox="0 0 256 256"><path fill="currentColor" d="m248.5 71.5l-40-40a12 12 0 0 0-17 17L211 68h-35a60 60 0 0 0-60 60a36 36 0 0 1-33.9 35.9a39.9 39.9 0 1 0 .1 24A59.9 59.9 0 0 0 140 128a36 36 0 0 1 36-36h35l-19.5 19.5a12 12 0 0 0 0 17a12.1 12.1 0 0 0 17 0l40-40a12 12 0 0 0 0-17ZM44 192a16 16 0 1 1 16-16a16 16 0 0 1-16 16Z"></path></svg>