<svg xmlns="http://www.w3.org/2000/svg" xmlns:xlink="http://www.w3.org/1999/xlink" aria-hidden="true" role="img" class="iconify iconify--ph" width="1em" height="1em" preserveAspectRatio="xMidYMid meet" viewBox="0 0 256 256"><path fill="currentColor" d="M250.5 121.3a15.9 15.9 0 0 0-9.9-7.5a77.1 77.1 0 0 0-27.9-1.8a86.7 86.7 0 0 0-2.6-40.9a15.9 15.9 0 0 0-18.5-10.7a82.3 82.3 0 0 0-26.2 10.8a94.4 94.4 0 0 0-27.8-34.4a15.9 15.9 0 0 0-19.2 0a94.4 94.4 0 0 0-27.8 34.4a82.3 82.3 0 0 0-26.2-10.8a15.9 15.9 0 0 0-18.5 10.7a86.7 86.7 0 0 0-2.6 40.9a77.1 77.1 0 0 0-27.9 1.8A15.9 15.9 0 0 0 4 133.6c3.5 12.6 14.3 36.7 47.1 55.6s61.4 18.8 76.8 18.8h.2c15.4 0 44.2 0 76.8-18.8s43.6-43 47.1-55.6a16 16 0 0 0-1.5-12.3ZM128 49.6c9.6 7.2 32 28.4 32 70.4s-22.4 63.2-32 70.4c-9.6-7.2-32-28.4-32-70.4s22.4-63.2 32-70.4ZM19.3 129.3c6.2-1.6 15.9-2.8 28.4-.6a117.1 117.1 0 0 0 9.7 20.9a137.9 137.9 0 0 0 33.2 38.6a123.4 123.4 0 0 1-31.5-12.9c-27.8-16.1-36.8-35.8-39.8-46Zm177.6 46a123.4 123.4 0 0 1-31.5 12.9a137.9 137.9 0 0 0 33.2-38.6a117.1 117.1 0 0 0 9.7-20.9a68.8 68.8 0 0 1 28.3.5c-2.9 10.3-11.9 30-39.7 46.1Z"></path></svg>