<svg xmlns="http://www.w3.org/2000/svg" xmlns:xlink="http://www.w3.org/1999/xlink" aria-hidden="true" role="img" class="iconify iconify--ph" width="1em" height="1em" preserveAspectRatio="xMidYMid meet" viewBox="0 0 256 256"><path fill="currentColor" d="M248.7 122.3a13.2 13.2 0 0 0-8.6-6.5a77.6 77.6 0 0 0-29.9-1.5c3.8-18.9.9-33.7-2-42.5a13.9 13.9 0 0 0-16.2-9.4a80.7 80.7 0 0 0-27.4 11.7a92.7 92.7 0 0 0-28.2-35.7a14.1 14.1 0 0 0-16.8 0a92.7 92.7 0 0 0-28.2 35.7A80.7 80.7 0 0 0 64 62.4a13.9 13.9 0 0 0-16.2 9.4c-2.9 8.8-5.8 23.6-2 42.5a77.6 77.6 0 0 0-29.9 1.5a13.2 13.2 0 0 0-8.6 6.5A13.9 13.9 0 0 0 5.9 133c3.5 12.4 14.1 35.9 46.2 54.4S112.7 206 128 206c15.3 0 43.8 0 75.9-18.6s42.7-42 46.2-54.4a13.9 13.9 0 0 0-1.4-10.7Zm-54.2-48.2a2 2 0 0 1 2.3 1.4c2.9 8.7 5.6 24.2-.3 44.2a2.9 2.9 0 0 0-.2.9a111.4 111.4 0 0 1-9.8 22a124.2 124.2 0 0 1-25.8 31.2C168.1 160.7 174 143 174 120a116.7 116.7 0 0 0-5-34.4a70.8 70.8 0 0 1 25.5-11.5ZM126.8 48a2 2 0 0 1 2.4 0c9.9 7.4 32.8 29.1 32.8 72c0 45.3-25.2 66.8-34 72.9c-8.6-6.1-34-27.9-34-72.9c0-42.9 22.9-64.6 32.8-72ZM59.2 75.5a2 2 0 0 1 2.3-1.4A70.8 70.8 0 0 1 87 85.6a116.7 116.7 0 0 0-5 34.4c0 23 5.9 40.7 13.3 53.8a124.2 124.2 0 0 1-25.8-31.2a108.3 108.3 0 0 1-9.8-22a2.9 2.9 0 0 0-.2-.9c-5.9-20-3.2-35.5-.3-44.2Zm-41.7 54.3a2.3 2.3 0 0 1 .1-1.5a1.9 1.9 0 0 1 1.2-.9c6.6-1.7 17-3 30.4-.4a116.4 116.4 0 0 0 9.9 21.6A135.7 135.7 0 0 0 99 192a122.8 122.8 0 0 1-40.9-14.9c-28.5-16.5-37.7-36.7-40.6-47.3Zm221 0c-2.9 10.6-12.1 30.8-40.6 47.3A122.8 122.8 0 0 1 157 192a135.7 135.7 0 0 0 39.9-43.4a116.4 116.4 0 0 0 9.9-21.6c13.4-2.6 23.8-1.3 30.4.4a1.9 1.9 0 0 1 1.2.9a2.3 2.3 0 0 1 .1 1.5Z"></path></svg>