<svg xmlns="http://www.w3.org/2000/svg" xmlns:xlink="http://www.w3.org/1999/xlink" aria-hidden="true" role="img" class="iconify iconify--ph" width="1em" height="1em" preserveAspectRatio="xMidYMid meet" viewBox="0 0 256 256"><path fill="currentColor" d="m245.7 74.3l-40-40a8.1 8.1 0 0 0-11.4 11.4L220.7 72H176a56 56 0 0 0-56 56a40 40 0 0 1-40 40h-.9a36 36 0 1 0 0 16h.9a56 56 0 0 0 56-56a40 40 0 0 1 40-40h44.7l-26.4 26.3a8.1 8.1 0 0 0 0 11.4a8.2 8.2 0 0 0 11.4 0l40-40a8.1 8.1 0 0 0 0-11.4ZM44 196a20 20 0 1 1 20-20a20.1 20.1 0 0 1-20 20Z"></path></svg>