<svg xmlns="http://www.w3.org/2000/svg" xmlns:xlink="http://www.w3.org/1999/xlink" aria-hidden="true" role="img" class="iconify iconify--ph" width="1em" height="1em" preserveAspectRatio="xMidYMid meet" viewBox="0 0 256 256"><path fill="currentColor" d="M208.4 132.8a56.9 56.9 0 0 0-11.5-4.8a56.9 56.9 0 0 0 11.5-4.8a36 36 0 0 0-36-62.4a58.7 58.7 0 0 0-9.9 7.5A58.6 58.6 0 0 0 164 56a36 36 0 0 0-72 0a58.6 58.6 0 0 0 1.5 12.3a58.7 58.7 0 0 0-9.9-7.5a36 36 0 0 0-36 62.4a56.9 56.9 0 0 0 11.5 4.8a56.9 56.9 0 0 0-11.5 4.8a36 36 0 0 0 36 62.4a58.7 58.7 0 0 0 9.9-7.5A58.6 58.6 0 0 0 92 200a36 36 0 0 0 72 0a58.6 58.6 0 0 0-1.5-12.3a58.7 58.7 0 0 0 9.9 7.5a36 36 0 0 0 36-62.4ZM128 152a24 24 0 1 1 24-24a24.1 24.1 0 0 1-24 24Z"></path></svg>