<svg xmlns="http://www.w3.org/2000/svg" xmlns:xlink="http://www.w3.org/1999/xlink" aria-hidden="true" role="img" class="iconify iconify--ph" width="1em" height="1em" preserveAspectRatio="xMidYMid meet" viewBox="0 0 256 256"><path fill="currentColor" d="M253.3 119.3a20.1 20.1 0 0 0-12.3-9.4a84.7 84.7 0 0 0-23.6-2.3a88.5 88.5 0 0 0-3.5-37.7a19.9 19.9 0 0 0-23.1-13.4a84.1 84.1 0 0 0-23.7 9.1a98.7 98.7 0 0 0-27.1-32a19.8 19.8 0 0 0-24 0a98.7 98.7 0 0 0-27.1 32a84.1 84.1 0 0 0-23.7-9.1a19.9 19.9 0 0 0-23.1 13.4a88.5 88.5 0 0 0-3.5 37.7a84.7 84.7 0 0 0-23.6 2.3A20.1 20.1 0 0 0 .7 134.6c3.7 13.3 15 38.4 49 58s62.6 19.4 78.2 19.4h.2c15.6 0 44.7 0 78.2-19.4s45.3-44.7 49-58a20 20 0 0 0-2-15.3Zm-61.1-38.4c2 8.3 3.3 21.1-1.4 37l-.3.9a99.1 99.1 0 0 1-9.2 20.8a66.5 66.5 0 0 1-3.9 6.3A128.3 128.3 0 0 0 180 120a122.3 122.3 0 0 0-4-31.8a61.5 61.5 0 0 1 16.2-7.3ZM128 54.7c10 8.2 28 28.3 28 65.3s-18.3 57.4-28 65.4c-9.7-8-28-28-28-65.4s18-57.1 28-65.3ZM63.8 80.9A61.5 61.5 0 0 1 80 88.2a122.3 122.3 0 0 0-4 31.8a128.3 128.3 0 0 0 2.6 25.9a66.5 66.5 0 0 1-3.9-6.3a99.1 99.1 0 0 1-9.2-20.8l-.3-.9c-4.7-15.9-3.4-28.7-1.4-37Zm-38.6 51.4a65.7 65.7 0 0 1 19.5-.1a124.8 124.8 0 0 0 9.2 19.4a136.2 136.2 0 0 0 19.8 26.3q-5.9-2.6-12-6c-23.2-13.5-32.7-29.3-36.5-39.6Zm169.1 39.6c-4.1 2.3-8.1 4.3-11.9 6a137.6 137.6 0 0 0 19.7-26.3a124.8 124.8 0 0 0 9.2-19.4a65.7 65.7 0 0 1 19.5.1c-3.8 10.3-13.3 26.1-36.5 39.6Z"></path></svg>