<svg xmlns="http://www.w3.org/2000/svg" xmlns:xlink="http://www.w3.org/1999/xlink" aria-hidden="true" role="img" class="iconify iconify--ph" width="1em" height="1em" preserveAspectRatio="xMidYMid meet" viewBox="0 0 256 256"><path fill="currentColor" d="M176.7 211.6a4.1 4.1 0 0 1-3.3 4.6h-.7a4 4 0 0 1-3.9-3.4l-4-23.5a4.1 4.1 0 0 1 3.3-4.6a3.9 3.9 0 0 1 4.6 3.3ZM128 188a4 4 0 0 0-4 4v32a4 4 0 0 0 8 0v-32a4 4 0 0 0-4-4Zm-40.1-3.2a3.9 3.9 0 0 0-4.6 3.3l-4 23.5a4.1 4.1 0 0 0 3.3 4.6h.7a4 4 0 0 0 3.9-3.4l4-23.5a4.1 4.1 0 0 0-3.3-4.5ZM244 112c0 29.2-51 52-116 52S12 141.2 12 112c0-20.3 24.8-38.2 64.8-46.8A60.2 60.2 0 0 1 127.2 36a59.5 59.5 0 0 1 42.9 17.3a60.4 60.4 0 0 1 9.5 12C219.4 74 244 91.8 244 112ZM76 96.8v3.1a11.8 11.8 0 0 0 9.2 11.6A191.2 191.2 0 0 0 128 116a189.7 189.7 0 0 0 42.7-4.5a11.8 11.8 0 0 0 9.3-11.6V96a52.1 52.1 0 0 0-52.7-52C99 44.4 76 68.1 76 96.8ZM236 112c0-15.1-20.1-29.4-51.9-37.4A61.1 61.1 0 0 1 188 96v3.9a19.8 19.8 0 0 1-15.5 19.4A199.9 199.9 0 0 1 128 124a199.9 199.9 0 0 1-44.5-4.7A19.8 19.8 0 0 1 68 99.9v-3.1a61.4 61.4 0 0 1 4.2-22.3C40.2 82.5 20 96.9 20 112c0 23.9 49.5 44 108 44s108-20.1 108-44Z"></path></svg>