<svg xmlns="http://www.w3.org/2000/svg" xmlns:xlink="http://www.w3.org/1999/xlink" aria-hidden="true" role="img" class="iconify iconify--ph" width="1em" height="1em" preserveAspectRatio="xMidYMid meet" viewBox="0 0 256 256"><path fill="currentColor" d="M184.6 58.2a73.9 73.9 0 0 0-8.8-10.6A67.6 67.6 0 0 0 71.9 58.1C29.3 68 4 87.9 4 112c0 17.9 14.2 33.9 40.1 45c22.6 9.7 52.4 15 83.9 15s61.3-5.3 83.9-15c25.9-11.1 40.1-27.1 40.1-45c0-24-25.1-43.9-67.4-53.8ZM127.4 52h.6a44 44 0 0 1 44 44v3.9a4 4 0 0 1-3 3.8a181.1 181.1 0 0 1-41 4.3a181.1 181.1 0 0 1-41-4.3a4 4 0 0 1-3-3.8v-3.1c0-24.4 19.5-44.5 43.4-44.8Zm.6 96c-61 0-100-21.3-100-36c0-6.7 7.7-12.8 12.3-15.9a97.9 97.9 0 0 1 20.5-9.9a75.9 75.9 0 0 0-.8 10.7v3a27.9 27.9 0 0 0 21.7 27.2A204.3 204.3 0 0 0 128 132a204.3 204.3 0 0 0 46.3-4.9A27.9 27.9 0 0 0 196 99.9V96a62.4 62.4 0 0 0-.7-9.7a93.2 93.2 0 0 1 20.5 9.9c4.5 3 12.2 9.2 12.2 15.8c0 14.7-39 36-100 36Zm56.5 62.3a12 12 0 0 1-9.8 13.8l-2 .2a12 12 0 0 1-11.8-10.1l-2.6-15.2a12 12 0 1 1 23.7-4ZM140 200v24a12 12 0 0 1-24 0v-24a12 12 0 0 1 24 0Zm-42.3-1.1l-2.6 15.3a12 12 0 0 1-11.8 10.1l-2-.2a12 12 0 0 1-9.8-13.8L74 195a12 12 0 0 1 23.7 3.9Z"></path></svg>