<svg xmlns="http://www.w3.org/2000/svg" xmlns:xlink="http://www.w3.org/1999/xlink" aria-hidden="true" role="img" class="iconify iconify--ph" width="1em" height="1em" preserveAspectRatio="xMidYMid meet" viewBox="0 0 256 256"><path fill="currentColor" d="M240 112c0 26.5-50.1 48-112 48S16 138.5 16 112c0-19 25.9-35.5 63.4-43.2a56.8 56.8 0 0 0-7.4 28v3.1a15.8 15.8 0 0 0 12.4 15.5A191.4 191.4 0 0 0 128 120a191.4 191.4 0 0 0 43.6-4.6A15.8 15.8 0 0 0 184 99.9V96a56.7 56.7 0 0 0-7-27.2c37.3 7.8 63 24.2 63 43.2Z" opacity=".2"></path><path fill="currentColor" d="M180.6 211a8.1 8.1 0 0 1-6.6 9.2h-1.3a8.1 8.1 0 0 1-7.9-6.7l-3.9-23.5a8 8 0 0 1 15.8-2.7ZM128 184a8 8 0 0 0-8 8v32a8 8 0 0 0 16 0v-32a8 8 0 0 0-8-8Zm-39.5-3.1a7.9 7.9 0 0 0-9.2 6.5L75.4 211a8.1 8.1 0 0 0 6.6 9.2h1.3a8.1 8.1 0 0 0 7.9-6.7l3.9-23.5a8 8 0 0 0-6.6-9.1ZM248 112c0 16.2-13.4 30.9-37.7 41.3C188.2 162.8 159 168 128 168s-60.2-5.2-82.3-14.7C21.4 142.9 8 128.2 8 112c0-8.4 3.7-20.8 21.2-32.5c11.3-7.6 26.9-13.8 45.2-17.9A64 64 0 0 1 127.2 32A63.3 63.3 0 0 1 173 50.5a64.7 64.7 0 0 1 9.1 11.2c41.3 9.4 65.9 28 65.9 50.3ZM80 96.8v3.1a7.8 7.8 0 0 0 6.1 7.7A189.1 189.1 0 0 0 128 112a189.1 189.1 0 0 0 41.9-4.4a7.8 7.8 0 0 0 6.1-7.7V96a47.5 47.5 0 0 0-6.1-23.4a51.7 51.7 0 0 0-8.2-10.7A47.4 47.4 0 0 0 127.4 48C101.2 48.3 80 70.2 80 96.8ZM232 112c0-11.7-16.6-23.9-41.9-31.6A62.3 62.3 0 0 1 192 96v3.9a23.9 23.9 0 0 1-18.6 23.3A202.1 202.1 0 0 1 128 128a202.1 202.1 0 0 1-45.4-4.8A23.9 23.9 0 0 1 64 99.9v-3a65.1 65.1 0 0 1 2.1-16.6C40.7 88 24 100.3 24 112c0 18.9 42.7 40 104 40s104-21.1 104-40Z"></path></svg>