<svg xmlns="http://www.w3.org/2000/svg" xmlns:xlink="http://www.w3.org/1999/xlink" aria-hidden="true" role="img" class="iconify iconify--ph" width="1em" height="1em" preserveAspectRatio="xMidYMid meet" viewBox="0 0 256 256"><path fill="currentColor" d="M224 160h-12v-8a24 24 0 0 0-48 0v8h-12a4 4 0 0 0-4 4v44a4 4 0 0 0 4 4h72a4 4 0 0 0 4-4v-44a4 4 0 0 0-4-4Zm-52-8a16 16 0 0 1 32 0v8h-32Zm48 52h-64v-36h64Zm-4-128h-86.3l-28.5-28.5a11.9 11.9 0 0 0-8.5-3.5H40a12 12 0 0 0-12 12v144.6A11.4 11.4 0 0 0 39.4 212h73.2a4 4 0 1 0 0-8H39.4a3.4 3.4 0 0 1-3.4-3.4V84h180a4 4 0 0 1 4 4v16a4 4 0 0 0 8 0V88a12 12 0 0 0-12-12ZM40 52h52.7a3.6 3.6 0 0 1 2.8 1.2L118.3 76H36V56a4 4 0 0 1 4-4Z"></path></svg>