<svg xmlns="http://www.w3.org/2000/svg" xmlns:xlink="http://www.w3.org/1999/xlink" aria-hidden="true" role="img" class="iconify iconify--ph" width="1em" height="1em" preserveAspectRatio="xMidYMid meet" viewBox="0 0 256 256"><path fill="currentColor" d="M216 76h-86.7l-28.8-21.6a12.2 12.2 0 0 0-7.2-2.4H40a12 12 0 0 0-12 12v136a12 12 0 0 0 12 12h176a12 12 0 0 0 12-12V88a12 12 0 0 0-12-12ZM36 64a4 4 0 0 1 4-4h53.3a4.1 4.1 0 0 1 2.4.8L121.3 80L95.7 99.2a4.1 4.1 0 0 1-2.4.8H36Zm184 136a4 4 0 0 1-4 4H40a4 4 0 0 1-4-4v-92h57.3a12.2 12.2 0 0 0 7.2-2.4L129.3 84H216a4 4 0 0 1 4 4Zm-64-52a4 4 0 0 1-4 4h-48a4 4 0 0 1 0-8h48a4 4 0 0 1 4 4Z"></path></svg>