<svg xmlns="http://www.w3.org/2000/svg" xmlns:xlink="http://www.w3.org/1999/xlink" aria-hidden="true" role="img" class="iconify iconify--ph" width="1em" height="1em" preserveAspectRatio="xMidYMid meet" viewBox="0 0 256 256"><path fill="currentColor" d="M207.1 195.1a30 30 0 1 0-38.2 0a38 38 0 0 0-17.7 23.4a6 6 0 0 0 4.3 7.3l1.5.2a6 6 0 0 0 5.8-4.5a26 26 0 0 1 50.4 0a6 6 0 1 0 11.6-3a38 38 0 0 0-17.7-23.4ZM170 172a18 18 0 1 1 18 18a18.1 18.1 0 0 1-18-18Zm46-98h-85.5l-27.9-27.9a14.3 14.3 0 0 0-9.9-4.1H40a14 14 0 0 0-14 14v144.6A13.4 13.4 0 0 0 39.4 214h81.2a6 6 0 1 0 0-12H39.4a1.4 1.4 0 0 1-1.4-1.4V86h178a2 2 0 0 1 2 2v32a6 6 0 0 0 12 0V88a14 14 0 0 0-14-14ZM40 54h52.7a2 2 0 0 1 1.4.6L113.5 74H38V56a2 2 0 0 1 2-2Z"></path></svg>