<svg xmlns="http://www.w3.org/2000/svg" xmlns:xlink="http://www.w3.org/1999/xlink" aria-hidden="true" role="img" class="iconify iconify--ph" width="1em" height="1em" preserveAspectRatio="xMidYMid meet" viewBox="0 0 256 256"><path fill="currentColor" d="M216 72h-85.3l-27.8-20.8a15.6 15.6 0 0 0-9.6-3.2H40a16 16 0 0 0-16 16v136a16 16 0 0 0 16 16h176a16 16 0 0 0 16-16V88a16 16 0 0 0-16-16ZM93.3 96H40V64h53.3l21.4 16l-21.4 16M216 200H40v-88h53.3a15.6 15.6 0 0 0 9.6-3.2L130.7 88H216Zm-80-76v16h16a8 8 0 0 1 0 16h-16v16a8 8 0 0 1-16 0v-16h-16a8 8 0 0 1 0-16h16v-16a8 8 0 0 1 16 0Z"></path></svg>