<svg xmlns="http://www.w3.org/2000/svg" xmlns:xlink="http://www.w3.org/1999/xlink" aria-hidden="true" role="img" class="iconify iconify--ph" width="1em" height="1em" preserveAspectRatio="xMidYMid meet" viewBox="0 0 256 256"><path fill="currentColor" d="M40 64v136h80a8 8 0 0 1 0 16H40a16 16 0 0 1-16-16V64a16 16 0 0 1 16-16h53.3a15.6 15.6 0 0 1 9.6 3.2L130.7 72H216a16 16 0 0 1 16 16v32a8 8 0 0 1-16 0V88h-85.3a15.6 15.6 0 0 1-9.6-3.2L93.3 64Zm201.1 103.8l-22.5 18.6l6.8 27.7a7.9 7.9 0 0 1-3 8.3a7.4 7.4 0 0 1-4.7 1.6a8.7 8.7 0 0 1-4.1-1.1L188 207.8l-25.6 15.1a8 8 0 0 1-8.8-.5a7.9 7.9 0 0 1-3-8.3l6.8-27.7l-22.5-18.6a8.1 8.1 0 0 1 4.5-14.2l29.8-2.3l11.5-26.5a8 8 0 0 1 14.6 0l11.5 26.5l29.8 2.3a8.1 8.1 0 0 1 4.5 14.2Zm-25.5.3l-14.9-1.2a8.1 8.1 0 0 1-6.7-4.8l-6-13.9l-6 13.9a8.1 8.1 0 0 1-6.7 4.8l-14.9 1.2l11.1 9.1a8.1 8.1 0 0 1 2.7 8.1l-3.5 14.2l13.2-7.9a8.2 8.2 0 0 1 8.2 0l13.2 7.9l-3.5-14.2a8.1 8.1 0 0 1 2.7-8.1Z"></path></svg>