<svg xmlns="http://www.w3.org/2000/svg" xmlns:xlink="http://www.w3.org/1999/xlink" aria-hidden="true" role="img" class="iconify iconify--ph" width="1em" height="1em" preserveAspectRatio="xMidYMid meet" viewBox="0 0 256 256"><path fill="currentColor" d="M216.9 212H40a12 12 0 0 1-12-12V64a12 12 0 0 1 12-12h53.3a12.2 12.2 0 0 1 7.2 2.4l27.8 20.8a4.1 4.1 0 0 0 2.4.8H216a12 12 0 0 1 12 12v112.9a11.1 11.1 0 0 1-11.1 11.1ZM40 60a4 4 0 0 0-4 4v136a4 4 0 0 0 4 4h176.9a3.1 3.1 0 0 0 3.1-3.1V88a4 4 0 0 0-4-4h-85.3a12.2 12.2 0 0 1-7.2-2.4L95.7 60.8a4.1 4.1 0 0 0-2.4-.8Z"></path></svg>