<svg xmlns="http://www.w3.org/2000/svg" xmlns:xlink="http://www.w3.org/1999/xlink" aria-hidden="true" role="img" class="iconify iconify--ph" width="1em" height="1em" preserveAspectRatio="xMidYMid meet" viewBox="0 0 256 256"><path fill="currentColor" d="M216 74h-85.3a1.6 1.6 0 0 1-1.2-.4l-27.8-20.8a14.1 14.1 0 0 0-8.4-2.8H40a14 14 0 0 0-14 14v136a14 14 0 0 0 14 14h176.9a13.1 13.1 0 0 0 13.1-13.1V88a14 14 0 0 0-14-14Zm2 126.9a1.1 1.1 0 0 1-1.1 1.1H40a2 2 0 0 1-2-2V64a2 2 0 0 1 2-2h53.3a1.6 1.6 0 0 1 1.2.4l27.8 20.8a14.1 14.1 0 0 0 8.4 2.8H216a2 2 0 0 1 2 2ZM158 144a6 6 0 0 1-6 6h-18v18a6 6 0 0 1-12 0v-18h-18a6 6 0 0 1 0-12h18v-18a6 6 0 0 1 12 0v18h18a6 6 0 0 1 6 6Z"></path></svg>