<svg xmlns="http://www.w3.org/2000/svg" xmlns:xlink="http://www.w3.org/1999/xlink" aria-hidden="true" role="img" class="iconify iconify--ph" width="1em" height="1em" preserveAspectRatio="xMidYMid meet" viewBox="0 0 256 256"><path fill="currentColor" d="M224 66h-69.3a1.6 1.6 0 0 1-1.2-.4l-27.8-20.8a14.1 14.1 0 0 0-8.4-2.8H72a14 14 0 0 0-14 14v18H40a14 14 0 0 0-14 14v112a14 14 0 0 0 14 14h152.9a13.1 13.1 0 0 0 13.1-13.1V182h18.9a13.1 13.1 0 0 0 13.1-13.1V80a14 14 0 0 0-14-14Zm-30 134.9a1.1 1.1 0 0 1-1.1 1.1H40a2 2 0 0 1-2-2V88a2 2 0 0 1 2-2h45.3a1.6 1.6 0 0 1 1.2.4l27.8 20.8a14.1 14.1 0 0 0 8.4 2.8H192a2 2 0 0 1 2 2Zm32-32a1.1 1.1 0 0 1-1.1 1.1H206v-58a14 14 0 0 0-14-14h-69.3a1.6 1.6 0 0 1-1.2-.4L93.7 76.8a14.1 14.1 0 0 0-8.4-2.8H70V56a2 2 0 0 1 2-2h45.3a1.6 1.6 0 0 1 1.2.4l27.8 20.8a14.1 14.1 0 0 0 8.4 2.8H224a2 2 0 0 1 2 2Z"></path></svg>