<svg xmlns="http://www.w3.org/2000/svg" xmlns:xlink="http://www.w3.org/1999/xlink" aria-hidden="true" role="img" class="iconify iconify--ph" width="1em" height="1em" preserveAspectRatio="xMidYMid meet" viewBox="0 0 256 256"><path fill="currentColor" d="M224 152h-4v-4a32 32 0 0 0-64 0v4h-4a12 12 0 0 0-12 12v44a12 12 0 0 0 12 12h72a12 12 0 0 0 12-12v-44a12 12 0 0 0-12-12Zm-44-4a8 8 0 0 1 16 0v4h-16Zm32 48h-48v-20h48Zm4-128h-82.6l-26-29.3a20 20 0 0 0-15-6.7H40a20.1 20.1 0 0 0-20 20v148.6A19.4 19.4 0 0 0 39.4 220h65.2a12 12 0 1 0 0-24H44V92h168a12 12 0 0 0 24 0v-4a20.1 20.1 0 0 0-20-20ZM44 68V56h46.6l10.7 12Z"></path></svg>