<svg xmlns="http://www.w3.org/2000/svg" xmlns:xlink="http://www.w3.org/1999/xlink" aria-hidden="true" role="img" class="iconify iconify--ph" width="1em" height="1em" preserveAspectRatio="xMidYMid meet" viewBox="0 0 256 256"><path fill="currentColor" d="M104 132h48a12 12 0 0 1 0 24h-48a12 12 0 0 1 0-24Zm132-44v112.9a19.2 19.2 0 0 1-19.1 19.1H40a20.1 20.1 0 0 1-20-20V64a20.1 20.1 0 0 1 20-20h53.3a19.9 19.9 0 0 1 12 4L132 68h84a20.1 20.1 0 0 1 20 20Zm-24 4h-81.3a19.9 19.9 0 0 1-12-4L92 68H44v128h168Z"></path></svg>