<svg xmlns="http://www.w3.org/2000/svg" xmlns:xlink="http://www.w3.org/1999/xlink" aria-hidden="true" role="img" class="iconify iconify--ph" width="1em" height="1em" preserveAspectRatio="xMidYMid meet" viewBox="0 0 256 256"><path fill="currentColor" d="M216.3 194.3a36 36 0 1 0-56.6 0a43.7 43.7 0 0 0-14.3 22.7a11.9 11.9 0 0 0 8.6 14.6a10.3 10.3 0 0 0 3 .4a12 12 0 0 0 11.6-9a20 20 0 0 1 38.8 0a12 12 0 1 0 23.2-6a43.7 43.7 0 0 0-14.3-22.7ZM176 172a12 12 0 1 1 12 12a12 12 0 0 1-12-12Zm60-84v20a12 12 0 0 1-24 0V92h-81.3a19.9 19.9 0 0 1-12-4L92 68H44v128h68a12 12 0 0 1 0 24H40a20.1 20.1 0 0 1-20-20V64a20.1 20.1 0 0 1 20-20h53.3a19.9 19.9 0 0 1 12 4L132 68h84a20.1 20.1 0 0 1 20 20Z"></path></svg>