<svg xmlns="http://www.w3.org/2000/svg" xmlns:xlink="http://www.w3.org/1999/xlink" aria-hidden="true" role="img" class="iconify iconify--ph" width="1em" height="1em" preserveAspectRatio="xMidYMid meet" viewBox="0 0 256 256"><path fill="currentColor" d="M216.3 194.3a36 36 0 1 0-56.6 0a43.7 43.7 0 0 0-14.3 22.7a11.9 11.9 0 0 0 8.6 14.6a10.3 10.3 0 0 0 3 .4a12 12 0 0 0 11.6-9a20 20 0 0 1 38.8 0a12 12 0 1 0 23.2-6a43.7 43.7 0 0 0-14.3-22.7ZM176 172a12 12 0 1 1 12 12a12 12 0 0 1-12-12Zm40-104h-82.6l-26-29.3a20 20 0 0 0-15-6.7H40a20.1 20.1 0 0 0-20 20v148.6A19.4 19.4 0 0 0 39.4 220h73.2a12 12 0 1 0 0-24H44V92h168v16a12 12 0 0 0 24 0V88a20.1 20.1 0 0 0-20-20ZM44 68V56h46.6l10.7 12Z"></path></svg>