<svg xmlns="http://www.w3.org/2000/svg" xmlns:xlink="http://www.w3.org/1999/xlink" aria-hidden="true" role="img" class="iconify iconify--ph" width="1em" height="1em" preserveAspectRatio="xMidYMid meet" viewBox="0 0 256 256"><path fill="currentColor" d="M207.1 195.1a30 30 0 1 0-38.2 0a38 38 0 0 0-17.7 23.4a6 6 0 0 0 4.3 7.3l1.5.2a6 6 0 0 0 5.8-4.5a26 26 0 0 1 50.4 0a6 6 0 1 0 11.6-3a38 38 0 0 0-17.7-23.4ZM170 172a18 18 0 1 1 18 18a18.1 18.1 0 0 1-18-18Zm60-84v32a6 6 0 0 1-12 0V88a2 2 0 0 0-2-2h-85.3a14.1 14.1 0 0 1-8.4-2.8L94.5 62.4a1.6 1.6 0 0 0-1.2-.4H40a2 2 0 0 0-2 2v136a2 2 0 0 0 2 2h80a6 6 0 0 1 0 12H40a14 14 0 0 1-14-14V64a14 14 0 0 1 14-14h53.3a14.1 14.1 0 0 1 8.4 2.8l27.8 20.8a1.6 1.6 0 0 0 1.2.4H216a14 14 0 0 1 14 14Z"></path></svg>