<svg xmlns="http://www.w3.org/2000/svg" xmlns:xlink="http://www.w3.org/1999/xlink" aria-hidden="true" role="img" class="iconify iconify--ph" width="1em" height="1em" preserveAspectRatio="xMidYMid meet" viewBox="0 0 256 256"><path fill="currentColor" d="M120.6 200H40V88h176v32a8 8 0 0 0 16 0V88a16 16 0 0 0-16-16h-84.7L104 44.7A15.9 15.9 0 0 0 92.7 40H40a16 16 0 0 0-16 16v144.6A15.4 15.4 0 0 0 39.4 216h81.2a8 8 0 1 0 0-16ZM92.7 56l16 16H40V56Zm150.9 103.2a8.1 8.1 0 0 0-7-5.6l-29.8-2.3l-11.5-26.5a8 8 0 0 0-14.6 0l-11.5 26.5l-29.8 2.3a8.1 8.1 0 0 0-4.5 14.2l22.5 18.6l-6.8 27.7a7.9 7.9 0 0 0 3 8.3a8 8 0 0 0 8.8.5l25.6-15.1l25.6 15.1a8.7 8.7 0 0 0 4.1 1.1a7.4 7.4 0 0 0 4.7-1.6a7.9 7.9 0 0 0 3-8.3l-6.8-27.7l22.5-18.6a8 8 0 0 0 2.5-8.6Zm-39.1 18a8.1 8.1 0 0 0-2.7 8.1l3.5 14.2l-13.2-7.9a8.2 8.2 0 0 0-8.2 0l-13.2 7.9l3.5-14.2a8.1 8.1 0 0 0-2.7-8.1l-11.1-9.1l14.9-1.2a8.1 8.1 0 0 0 6.7-4.8l6-13.9l6 13.9a8.1 8.1 0 0 0 6.7 4.8l14.9 1.2Z"></path></svg>