<svg xmlns="http://www.w3.org/2000/svg" xmlns:xlink="http://www.w3.org/1999/xlink" aria-hidden="true" role="img" class="iconify iconify--ph" width="1em" height="1em" preserveAspectRatio="xMidYMid meet" viewBox="0 0 256 256"><path fill="currentColor" d="M158 144a6 6 0 0 1-6 6h-48a6 6 0 0 1 0-12h48a6 6 0 0 1 6 6Zm72-56v112.9a13.1 13.1 0 0 1-13.1 13.1H40a14 14 0 0 1-14-14V64a14 14 0 0 1 14-14h53.3a14.1 14.1 0 0 1 8.4 2.8l27.8 20.8a1.6 1.6 0 0 0 1.2.4H216a14 14 0 0 1 14 14Zm-12 0a2 2 0 0 0-2-2h-85.3a14.1 14.1 0 0 1-8.4-2.8L94.5 62.4a1.6 1.6 0 0 0-1.2-.4H40a2 2 0 0 0-2 2v136a2 2 0 0 0 2 2h176.9a1.1 1.1 0 0 0 1.1-1.1Z"></path></svg>