<svg xmlns="http://www.w3.org/2000/svg" xmlns:xlink="http://www.w3.org/1999/xlink" aria-hidden="true" role="img" class="iconify iconify--ph" width="1em" height="1em" preserveAspectRatio="xMidYMid meet" viewBox="0 0 256 256"><path fill="currentColor" d="M216 74h-85.5l-27.9-27.9a14.3 14.3 0 0 0-9.9-4.1H40a14 14 0 0 0-14 14v144.6A13.4 13.4 0 0 0 39.4 214h177.5a13.1 13.1 0 0 0 13.1-13.1V88a14 14 0 0 0-14-14ZM40 54h52.7a2 2 0 0 1 1.4.6L113.5 74H38V56a2 2 0 0 1 2-2Zm178 146.9a1.1 1.1 0 0 1-1.1 1.1H39.4a1.4 1.4 0 0 1-1.4-1.4V86h178a2 2 0 0 1 2 2ZM158 144a6 6 0 0 1-6 6h-48a6 6 0 0 1 0-12h48a6 6 0 0 1 6 6Z"></path></svg>