<svg xmlns="http://www.w3.org/2000/svg" xmlns:xlink="http://www.w3.org/1999/xlink" aria-hidden="true" role="img" class="iconify iconify--ph" width="1em" height="1em" preserveAspectRatio="xMidYMid meet" viewBox="0 0 256 256"><path fill="currentColor" d="M112.6 196H44V92h168v20a12 12 0 0 0 24 0V88a20.1 20.1 0 0 0-20-20h-82.6l-26-29.3a20 20 0 0 0-15-6.7H40a20.1 20.1 0 0 0-20 20v148.6A19.4 19.4 0 0 0 39.4 220h73.2a12 12 0 1 0 0-24ZM44 56h46.6l10.7 12H44Zm203.4 102a11.9 11.9 0 0 0-10.5-8.4l-27.4-2.1l-10.5-24.3a12 12 0 0 0-22 0l-10.5 24.3l-27.4 2.1a12.1 12.1 0 0 0-6.7 21.3l20.5 17l-6.2 25.2a12 12 0 0 0 17.7 13.2l23.6-13.8l23.6 13.8a11.3 11.3 0 0 0 6.1 1.7a11.7 11.7 0 0 0 7.1-2.4a11.9 11.9 0 0 0 4.5-12.5l-6.2-25.2l20.5-17a11.9 11.9 0 0 0 3.8-12.9ZM202 174.2a11.6 11.6 0 0 0-4 12.1l1.2 4.9l-5.1-3a11.8 11.8 0 0 0-12.2 0l-5.1 3l1.2-4.9a11.6 11.6 0 0 0-4-12.1l-3.4-2.9l5-.4a12 12 0 0 0 10.1-7.2l2.3-5.4l2.3 5.4a12 12 0 0 0 10.1 7.2l5 .4Z"></path></svg>