<svg xmlns="http://www.w3.org/2000/svg" xmlns:xlink="http://www.w3.org/1999/xlink" aria-hidden="true" role="img" class="iconify iconify--ph" width="1em" height="1em" preserveAspectRatio="xMidYMid meet" viewBox="0 0 256 256"><path fill="currentColor" d="M238.6 113a11.6 11.6 0 0 0-9.7-5H212V88a12 12 0 0 0-12-12h-69.3a4.1 4.1 0 0 1-2.4-.8l-27.8-20.8a12.2 12.2 0 0 0-7.2-2.4H40a12 12 0 0 0-12 12v144a3.4 3.4 0 0 0 .7 2.2A4 4 0 0 0 32 212h176a4.1 4.1 0 0 0 3.8-2.7l28.5-85.5a11.9 11.9 0 0 0-1.7-10.8ZM40 60h53.3a4.1 4.1 0 0 1 2.4.8l27.8 20.8a12.2 12.2 0 0 0 7.2 2.4H200a4 4 0 0 1 4 4v20h-57.6a11.7 11.7 0 0 0-6.6 2l-20 13.3a3.6 3.6 0 0 1-2.2.7H69.4a12 12 0 0 0-11.1 7.5L36 187.2V64a4 4 0 0 1 4-4Zm192.7 61.3L205.1 204H37.9l27.8-69.5a4 4 0 0 1 3.7-2.5h48.2a11.7 11.7 0 0 0 6.6-2l20-13.3a3.6 3.6 0 0 1 2.2-.7h82.5a3.7 3.7 0 0 1 3.2 1.7a3.8 3.8 0 0 1 .6 3.6Z"></path></svg>