<svg xmlns="http://www.w3.org/2000/svg" xmlns:xlink="http://www.w3.org/1999/xlink" aria-hidden="true" role="img" class="iconify iconify--ph" width="1em" height="1em" preserveAspectRatio="xMidYMid meet" viewBox="0 0 256 256"><path fill="currentColor" d="M236 88v4a12 12 0 0 1-24 0h-81.3a19.9 19.9 0 0 1-12-4L92 68H44v128h60a12 12 0 0 1 0 24H40a20.1 20.1 0 0 1-20-20V64a20.1 20.1 0 0 1 20-20h53.3a19.9 19.9 0 0 1 12 4L132 68h84a20.1 20.1 0 0 1 20 20Zm0 76v44a12 12 0 0 1-12 12h-72a12 12 0 0 1-12-12v-44a12 12 0 0 1 12-12h4v-4a32 32 0 0 1 64 0v4h4a12 12 0 0 1 12 12Zm-56-12h16v-4a8 8 0 0 0-16 0Zm32 24h-48v20h48Z"></path></svg>