<svg xmlns="http://www.w3.org/2000/svg" xmlns:xlink="http://www.w3.org/1999/xlink" aria-hidden="true" role="img" class="iconify iconify--ph" width="1em" height="1em" preserveAspectRatio="xMidYMid meet" viewBox="0 0 256 256"><path fill="currentColor" d="M232 88v16a8 8 0 0 1-16 0V88h-85.3a15.6 15.6 0 0 1-9.6-3.2L93.3 64H40v136h72a8 8 0 0 1 0 16H40a16 16 0 0 1-16-16V64a16 16 0 0 1 16-16h53.3a15.6 15.6 0 0 1 9.6 3.2L130.7 72H216a16 16 0 0 1 16 16Zm0 76v44a8 8 0 0 1-8 8h-72a8 8 0 0 1-8-8v-44a8 8 0 0 1 8-8h8v-4a28 28 0 0 1 56 0v4h8a8 8 0 0 1 8 8Zm-32-12a12 12 0 0 0-24 0v4h24Z"></path></svg>