<svg xmlns="http://www.w3.org/2000/svg" xmlns:xlink="http://www.w3.org/1999/xlink" aria-hidden="true" role="img" class="iconify iconify--ph" width="1em" height="1em" preserveAspectRatio="xMidYMid meet" viewBox="0 0 256 256"><path fill="currentColor" d="M241.7 159.8a6 6 0 0 0-5.2-4.2l-31.1-2.4l-11.9-27.6a6 6 0 0 0-11 0l-11.9 27.6l-31.1 2.4a6 6 0 0 0-5.2 4.2a5.8 5.8 0 0 0 1.9 6.4l23.5 19.4l-7.2 29a5.9 5.9 0 0 0 2.2 6.2a6.1 6.1 0 0 0 6.7.4l26.6-15.7l26.6 15.7a6.8 6.8 0 0 0 3.1.8a6.2 6.2 0 0 0 3.6-1.2a5.9 5.9 0 0 0 2.2-6.2l-7.2-29l23.5-19.4a5.8 5.8 0 0 0 1.9-6.4Zm-35.9 19a5.9 5.9 0 0 0-2 6.1l4.6 18.7l-17.4-10.2a5.5 5.5 0 0 0-6 0l-17.4 10.2l4.6-18.7a5.9 5.9 0 0 0-2-6.1l-14.9-12.3l19.8-1.6a6.1 6.1 0 0 0 5.1-3.6l7.8-18.2l7.8 18.2a6.1 6.1 0 0 0 5.1 3.6l19.8 1.6ZM120.6 202H39.4a1.4 1.4 0 0 1-1.4-1.4V86h178a2 2 0 0 1 2 2v32a6 6 0 0 0 12 0V88a14 14 0 0 0-14-14h-85.5l-27.9-27.9a14.3 14.3 0 0 0-9.9-4.1H40a14 14 0 0 0-14 14v144.6A13.4 13.4 0 0 0 39.4 214h81.2a6 6 0 1 0 0-12ZM38 56a2 2 0 0 1 2-2h52.7a2 2 0 0 1 1.4.6L113.5 74H38Z"></path></svg>