<svg xmlns="http://www.w3.org/2000/svg" xmlns:xlink="http://www.w3.org/1999/xlink" aria-hidden="true" role="img" class="iconify iconify--ph" width="1em" height="1em" preserveAspectRatio="xMidYMid meet" viewBox="0 0 256 256"><path fill="currentColor" d="M224 88v112.9a7.1 7.1 0 0 1-7.1 7.1H40a8 8 0 0 1-8-8V64a8 8 0 0 1 8-8h53.3a7.9 7.9 0 0 1 4.8 1.6l27.8 20.8a8.1 8.1 0 0 0 4.8 1.6H216a8 8 0 0 1 8 8Z" opacity=".2"></path><path fill="currentColor" d="M216 72h-85.3l-27.8-20.8a15.6 15.6 0 0 0-9.6-3.2H40a16 16 0 0 0-16 16v136a16 16 0 0 0 16 16h176.9a15.2 15.2 0 0 0 15.1-15.1V88a16 16 0 0 0-16-16Zm0 128H40V64h53.3l27.8 20.8a15.6 15.6 0 0 0 9.6 3.2H216Z"></path><path fill="currentColor" d="M152 136h-16v-16a8 8 0 0 0-16 0v16h-16a8 8 0 0 0 0 16h16v16a8 8 0 0 0 16 0v-16h16a8 8 0 0 0 0-16Z"></path></svg>