<svg xmlns="http://www.w3.org/2000/svg" xmlns:xlink="http://www.w3.org/1999/xlink" aria-hidden="true" role="img" class="iconify iconify--ph" width="1em" height="1em" preserveAspectRatio="xMidYMid meet" viewBox="0 0 256 256"><path fill="currentColor" d="M212 172a24 24 0 1 1-24-24a23.9 23.9 0 0 1 24 24Z" opacity=".2"></path><path fill="currentColor" d="M210.4 194.8a32 32 0 1 0-44.8 0a40.2 40.2 0 0 0-16.3 23.2a7.9 7.9 0 0 0 5.7 9.7l2 .3a8.1 8.1 0 0 0 7.8-6a24 24 0 0 1 46.4 0a8 8 0 0 0 9.8 5.7a7.9 7.9 0 0 0 5.7-9.7a40.2 40.2 0 0 0-16.3-23.2ZM172 172a16 16 0 1 1 16 16a16 16 0 0 1-16-16Zm60-84v32a8 8 0 0 1-16 0V88h-85.3a15.6 15.6 0 0 1-9.6-3.2L93.3 64H40v136h80a8 8 0 0 1 0 16H40a16 16 0 0 1-16-16V64a16 16 0 0 1 16-16h53.3a15.6 15.6 0 0 1 9.6 3.2L130.7 72H216a16 16 0 0 1 16 16Z"></path></svg>