<svg xmlns="http://www.w3.org/2000/svg" xmlns:xlink="http://www.w3.org/1999/xlink" aria-hidden="true" role="img" class="iconify iconify--ph" width="1em" height="1em" preserveAspectRatio="xMidYMid meet" viewBox="0 0 256 256"><path fill="currentColor" d="M120.6 204H39.4a3.4 3.4 0 0 1-3.4-3.4V84h180a4 4 0 0 1 4 4v32a4 4 0 0 0 8 0V88a12 12 0 0 0-12-12h-86.3l-28.5-28.5a11.9 11.9 0 0 0-8.5-3.5H40a12 12 0 0 0-12 12v144.6A11.4 11.4 0 0 0 39.4 212h81.2a4 4 0 1 0 0-8ZM36 56a4 4 0 0 1 4-4h52.7a3.8 3.8 0 0 1 2.8 1.2L118.3 76H36Zm203.8 104.4a4.3 4.3 0 0 0-3.5-2.8l-32.2-2.5l-12.4-28.7a4.1 4.1 0 0 0-7.4 0l-12.4 28.7l-32.2 2.5a4.3 4.3 0 0 0-3.5 2.8a3.9 3.9 0 0 0 1.3 4.3l24.4 20.2l-7.4 30.1a4.1 4.1 0 0 0 1.4 4.2a3.9 3.9 0 0 0 4.5.2l27.6-16.2l27.6 16.2a4.2 4.2 0 0 0 2.1.6a4.3 4.3 0 0 0 2.4-.8a4.1 4.1 0 0 0 1.4-4.2l-7.4-30.1l24.4-20.2a3.9 3.9 0 0 0 1.3-4.3Zm-32.7 19.9a4 4 0 0 0-1.4 4.1l5.8 23.3l-21.5-12.6a3.6 3.6 0 0 0-4 0l-21.5 12.6l5.8-23.3a4 4 0 0 0-1.4-4.1l-18.7-15.5l24.8-1.9a3.9 3.9 0 0 0 3.3-2.4l9.7-22.4l9.7 22.4a3.9 3.9 0 0 0 3.3 2.4l24.8 1.9Z"></path></svg>