<svg xmlns="http://www.w3.org/2000/svg" xmlns:xlink="http://www.w3.org/1999/xlink" aria-hidden="true" role="img" class="iconify iconify--ph" width="1em" height="1em" preserveAspectRatio="xMidYMid meet" viewBox="0 0 256 256"><path fill="currentColor" d="M36 64v136a4 4 0 0 0 4 4h80a4 4 0 0 1 0 8H40a12 12 0 0 1-12-12V64a12 12 0 0 1 12-12h53.3a12.2 12.2 0 0 1 7.2 2.4l27.8 20.8a4.1 4.1 0 0 0 2.4.8H216a12 12 0 0 1 12 12v32a4 4 0 0 1-8 0V88a4 4 0 0 0-4-4h-85.3a12.2 12.2 0 0 1-7.2-2.4L95.7 60.8a4.1 4.1 0 0 0-2.4-.8H40a4 4 0 0 0-4 4Zm202.5 100.7l-24.4 20.2l7.4 30.1a4.1 4.1 0 0 1-1.4 4.2a4.3 4.3 0 0 1-2.4.8a4.2 4.2 0 0 1-2.1-.6L188 203.2l-27.6 16.2a3.9 3.9 0 0 1-4.5-.2a4.1 4.1 0 0 1-1.4-4.2l7.4-30.1l-24.4-20.2a3.9 3.9 0 0 1-1.3-4.3a4.3 4.3 0 0 1 3.5-2.8l32.2-2.5l12.4-28.7a4.1 4.1 0 0 1 7.4 0l12.4 28.7l32.2 2.5a4.3 4.3 0 0 1 3.5 2.8a3.9 3.9 0 0 1-1.3 4.3Zm-12.7.1l-24.8-1.9a3.9 3.9 0 0 1-3.3-2.4l-9.7-22.4l-9.7 22.4a3.9 3.9 0 0 1-3.3 2.4l-24.8 1.9l18.7 15.5a4 4 0 0 1 1.4 4.1l-5.8 23.3l21.5-12.6a3.6 3.6 0 0 1 4 0l21.5 12.6l-5.8-23.3a4 4 0 0 1 1.4-4.1Z"></path></svg>