<svg xmlns="http://www.w3.org/2000/svg" xmlns:xlink="http://www.w3.org/1999/xlink" aria-hidden="true" role="img" class="iconify iconify--ph" width="1em" height="1em" preserveAspectRatio="xMidYMid meet" viewBox="0 0 256 256"><path fill="currentColor" d="M98.3 50.3L128 80H32V56a8 8 0 0 1 8-8h52.7a7.9 7.9 0 0 1 5.6 2.3Z" opacity=".2"></path><path fill="currentColor" d="M216 72h-84.7L104 44.7A15.9 15.9 0 0 0 92.7 40H40a16 16 0 0 0-16 16v144.6A15.4 15.4 0 0 0 39.4 216h177.5a15.2 15.2 0 0 0 15.1-15.1V88a16 16 0 0 0-16-16ZM92.7 56l16 16H40V56ZM216 200H40V88h176Z"></path><path fill="currentColor" d="M96 144a8 8 0 0 0 8 8h48a8 8 0 0 0 0-16h-48a8 8 0 0 0-8 8Z"></path></svg>