<svg xmlns="http://www.w3.org/2000/svg" xmlns:xlink="http://www.w3.org/1999/xlink" aria-hidden="true" role="img" class="iconify iconify--ph" width="1em" height="1em" preserveAspectRatio="xMidYMid meet" viewBox="0 0 256 256"><path fill="currentColor" d="M93.3 104H32V64a8 8 0 0 1 8-8h53.3a7.9 7.9 0 0 1 4.8 1.6L128 80l-29.9 22.4a7.9 7.9 0 0 1-4.8 1.6Z" opacity=".2"></path><path fill="currentColor" d="M216 72h-85.3l-27.8-20.8a15.6 15.6 0 0 0-9.6-3.2H40a16 16 0 0 0-16 16v136a16 16 0 0 0 16 16h176a16 16 0 0 0 16-16V88a16 16 0 0 0-16-16ZM40 64h53.3l21.4 16l-21.4 16H40Zm176 136H40v-88h53.3a15.6 15.6 0 0 0 9.6-3.2L130.7 88H216Z"></path></svg>