<svg xmlns="http://www.w3.org/2000/svg" xmlns:xlink="http://www.w3.org/1999/xlink" aria-hidden="true" role="img" class="iconify iconify--ph" width="1em" height="1em" preserveAspectRatio="xMidYMid meet" viewBox="0 0 256 256"><path fill="currentColor" d="M40 64v136h80a8 8 0 0 1 0 16H40a16 16 0 0 1-16-16V64a16 16 0 0 1 16-16h53.3a15.6 15.6 0 0 1 9.6 3.2L130.7 72H216a16 16 0 0 1 16 16v32a8 8 0 0 1-16 0V88h-85.3a15.6 15.6 0 0 1-9.6-3.2L93.3 64Zm203.6 95.2a8.1 8.1 0 0 0-7-5.6l-29.8-2.3l-11.5-26.5a8 8 0 0 0-14.6 0l-11.5 26.5l-29.8 2.3a8.1 8.1 0 0 0-4.5 14.2l22.5 18.6l-6.8 27.7a7.9 7.9 0 0 0 3 8.3a8 8 0 0 0 8.8.5l25.6-15.1l25.6 15.1a8.7 8.7 0 0 0 4.1 1.1a7.4 7.4 0 0 0 4.7-1.6a7.9 7.9 0 0 0 3-8.3l-6.8-27.7l22.5-18.6a8 8 0 0 0 2.5-8.6Z"></path></svg>