<svg xmlns="http://www.w3.org/2000/svg" xmlns:xlink="http://www.w3.org/1999/xlink" aria-hidden="true" role="img" class="iconify iconify--ph" width="1em" height="1em" preserveAspectRatio="xMidYMid meet" viewBox="0 0 256 256"><path fill="currentColor" d="M226.7 218a8 8 0 0 1-7.7 10h-62a8 8 0 0 1-7.7-10a40.2 40.2 0 0 1 16.3-23.2a32 32 0 1 1 44.8 0a40.2 40.2 0 0 1 16.3 23.2ZM216 72h-85.3l-27.8-20.8a15.6 15.6 0 0 0-9.6-3.2H40a16 16 0 0 0-16 16v136a16 16 0 0 0 16 16h80a8 8 0 0 0 0-16H40V64h53.3l27.8 20.8a15.6 15.6 0 0 0 9.6 3.2H216v32a8 8 0 0 0 16 0V88a16 16 0 0 0-16-16Z"></path></svg>