<svg xmlns="http://www.w3.org/2000/svg" xmlns:xlink="http://www.w3.org/1999/xlink" aria-hidden="true" role="img" class="iconify iconify--ph" width="1em" height="1em" preserveAspectRatio="xMidYMid meet" viewBox="0 0 256 256"><path fill="currentColor" d="M216 72h-84.7L104 44.7A15.9 15.9 0 0 0 92.7 40H40a16 16 0 0 0-16 16v144.6A15.4 15.4 0 0 0 39.4 216h81.2a8 8 0 1 0 0-16H40V88h176v32a8 8 0 0 0 16 0V88a16 16 0 0 0-16-16ZM40 72V56h52.7l16 16Zm186.7 146a8 8 0 0 1-7.7 10h-62a8 8 0 0 1-7.7-10a40.2 40.2 0 0 1 16.3-23.2a32 32 0 1 1 44.8 0a40.2 40.2 0 0 1 16.3 23.2Z"></path></svg>