<svg xmlns="http://www.w3.org/2000/svg" xmlns:xlink="http://www.w3.org/1999/xlink" aria-hidden="true" role="img" class="iconify iconify--ph" width="1em" height="1em" preserveAspectRatio="xMidYMid meet" viewBox="0 0 256 256"><path fill="currentColor" d="M224 156h-8v-4a28 28 0 0 0-56 0v4h-8a8 8 0 0 0-8 8v44a8 8 0 0 0 8 8h72a8 8 0 0 0 8-8v-44a8 8 0 0 0-8-8Zm-48-4a12 12 0 0 1 24 0v4h-24Zm40 48h-56v-28h56Zm0-128h-84.7L104 44.7A15.9 15.9 0 0 0 92.7 40H40a16 16 0 0 0-16 16v144.6A15.4 15.4 0 0 0 39.4 216h73.2a8 8 0 1 0 0-16H40V88h176v16a8 8 0 0 0 16 0V88a16 16 0 0 0-16-16ZM92.7 56l16 16H40V56Z"></path></svg>