<svg xmlns="http://www.w3.org/2000/svg" xmlns:xlink="http://www.w3.org/1999/xlink" aria-hidden="true" role="img" class="iconify iconify--ph" width="1em" height="1em" preserveAspectRatio="xMidYMid meet" viewBox="0 0 256 256"><path fill="currentColor" d="M38 64v136a2 2 0 0 0 2 2h80a6 6 0 0 1 0 12H40a14 14 0 0 1-14-14V64a14 14 0 0 1 14-14h53.3a14.1 14.1 0 0 1 8.4 2.8l27.8 20.8a1.6 1.6 0 0 0 1.2.4H216a14 14 0 0 1 14 14v32a6 6 0 0 1-12 0V88a2 2 0 0 0-2-2h-85.3a14.1 14.1 0 0 1-8.4-2.8L94.5 62.4a1.6 1.6 0 0 0-1.2-.4H40a2 2 0 0 0-2 2Zm201.8 102.2l-23.5 19.4l7.2 29a5.9 5.9 0 0 1-2.2 6.2a6.2 6.2 0 0 1-3.6 1.2a6.8 6.8 0 0 1-3.1-.8L188 205.5l-26.6 15.7a6.1 6.1 0 0 1-6.7-.4a5.9 5.9 0 0 1-2.2-6.2l7.2-29l-23.5-19.4a5.8 5.8 0 0 1-1.9-6.4a6 6 0 0 1 5.2-4.2l31.1-2.4l11.9-27.6a6 6 0 0 1 11 0l11.9 27.6l31.1 2.4a6 6 0 0 1 5.2 4.2a5.8 5.8 0 0 1-1.9 6.4Zm-19.1.3l-19.8-1.6a6.1 6.1 0 0 1-5.1-3.6l-7.8-18.2l-7.8 18.2a6.1 6.1 0 0 1-5.1 3.6l-19.8 1.6l14.9 12.3a5.9 5.9 0 0 1 2 6.1l-4.6 18.7l17.4-10.2a5.5 5.5 0 0 1 6 0l17.4 10.2l-4.6-18.7a5.9 5.9 0 0 1 2-6.1Z"></path></svg>