<svg xmlns="http://www.w3.org/2000/svg" xmlns:xlink="http://www.w3.org/1999/xlink" aria-hidden="true" role="img" class="iconify iconify--ph" width="1em" height="1em" preserveAspectRatio="xMidYMid meet" viewBox="0 0 256 256"><path fill="currentColor" d="M120.6 200H40V88h176v32a8 8 0 0 0 16 0V88a16 16 0 0 0-16-16h-84.7L104 44.7A15.9 15.9 0 0 0 92.7 40H40a16 16 0 0 0-16 16v144.6A15.4 15.4 0 0 0 39.4 216h81.2a8 8 0 1 0 0-16ZM40 56h52.7l16 16H40Zm201.1 111.8l-22.5 18.6l6.8 27.7a7.9 7.9 0 0 1-3 8.3a7.4 7.4 0 0 1-4.7 1.6a8.7 8.7 0 0 1-4.1-1.1L188 207.8l-25.6 15.1a8 8 0 0 1-8.8-.5a7.9 7.9 0 0 1-3-8.3l6.8-27.7l-22.5-18.6a8.1 8.1 0 0 1 4.5-14.2l29.8-2.3l11.5-26.5a8 8 0 0 1 14.6 0l11.5 26.5l29.8 2.3a8.1 8.1 0 0 1 4.5 14.2Z"></path></svg>