<svg xmlns="http://www.w3.org/2000/svg" xmlns:xlink="http://www.w3.org/1999/xlink" aria-hidden="true" role="img" class="iconify iconify--ph" width="1em" height="1em" preserveAspectRatio="xMidYMid meet" viewBox="0 0 256 256"><path fill="currentColor" d="M203.3 195.4a28 28 0 1 0-30.6 0a36.4 36.4 0 0 0-19.6 23.6a4.2 4.2 0 0 0 2.9 4.9h1a4.1 4.1 0 0 0 3.9-3a28 28 0 0 1 54.2 0a4 4 0 0 0 7.8-2a36.4 36.4 0 0 0-19.6-23.5ZM168 172a20 20 0 1 1 20 20a20.1 20.1 0 0 1-20-20Zm60-84v32a4 4 0 0 1-8 0V88a4 4 0 0 0-4-4h-85.3a12.2 12.2 0 0 1-7.2-2.4L95.7 60.8a4.1 4.1 0 0 0-2.4-.8H40a4 4 0 0 0-4 4v136a4 4 0 0 0 4 4h80a4 4 0 0 1 0 8H40a12 12 0 0 1-12-12V64a12 12 0 0 1 12-12h53.3a12.2 12.2 0 0 1 7.2 2.4l27.8 20.8a4.1 4.1 0 0 0 2.4.8H216a12 12 0 0 1 12 12Z"></path></svg>