<svg xmlns="http://www.w3.org/2000/svg" xmlns:xlink="http://www.w3.org/1999/xlink" aria-hidden="true" role="img" class="iconify iconify--ph" width="1em" height="1em" preserveAspectRatio="xMidYMid meet" viewBox="0 0 256 256"><path fill="currentColor" d="M216 68h-84l-26.7-20a19.9 19.9 0 0 0-12-4H40a20.1 20.1 0 0 0-20 20v136a20.1 20.1 0 0 0 20 20h176.9a19.2 19.2 0 0 0 19.1-19.1V88a20.1 20.1 0 0 0-20-20Zm-4 128H44V68h48l26.7 20a19.9 19.9 0 0 0 12 4H212Zm-84-88a12 12 0 0 1 12 12v12h12a12 12 0 0 1 0 24h-12v12a12 12 0 0 1-24 0v-12h-12a12 12 0 0 1 0-24h12v-12a12 12 0 0 1 12-12Z"></path></svg>