<svg xmlns="http://www.w3.org/2000/svg" xmlns:xlink="http://www.w3.org/1999/xlink" aria-hidden="true" role="img" class="iconify iconify--ph" width="1em" height="1em" preserveAspectRatio="xMidYMid meet" viewBox="0 0 256 256"><path fill="currentColor" d="M245 112.4a19.8 19.8 0 0 0-16.3-8.4H220V88a20.1 20.1 0 0 0-20-20h-68l-26.7-20a19.9 19.9 0 0 0-12-4H40a20.1 20.1 0 0 0-20 20v144a12.2 12.2 0 0 0 2 6.6a11.9 11.9 0 0 0 10 5.4h176a11.8 11.8 0 0 0 11.3-8.1l28.3-81.3a19.7 19.7 0 0 0-2.6-18.2ZM92 68l26.7 20a19.9 19.9 0 0 0 12 4H196v12h-49.6a20.1 20.1 0 0 0-11.1 3.4L116.4 120H69.3a19.9 19.9 0 0 0-18.4 12.2L44 148.6V68Zm107.5 128H50.1L72 144h45.6a20.1 20.1 0 0 0 11.1-3.4l18.9-12.6h75.5Z"></path></svg>