<svg xmlns="http://www.w3.org/2000/svg" xmlns:xlink="http://www.w3.org/1999/xlink" aria-hidden="true" role="img" class="iconify iconify--ph" width="1em" height="1em" preserveAspectRatio="xMidYMid meet" viewBox="0 0 256 256"><path fill="currentColor" d="M240.3 111.8a14.3 14.3 0 0 0-11.4-5.8H214V88a14 14 0 0 0-14-14h-69.3a1.6 1.6 0 0 1-1.2-.4l-27.8-20.8a14.1 14.1 0 0 0-8.4-2.8H40a14 14 0 0 0-14 14v144a5.9 5.9 0 0 0 1 3.4a6.1 6.1 0 0 0 5 2.6h176a6 6 0 0 0 5.7-4.1l28.5-85.5a14.2 14.2 0 0 0-1.9-12.6ZM40 62h53.3a1.6 1.6 0 0 1 1.2.4l27.8 20.8a14.1 14.1 0 0 0 8.4 2.8H200a2 2 0 0 1 2 2v18h-55.6a13.2 13.2 0 0 0-7.7 2.4l-20 13.3a2 2 0 0 1-1.1.3H69.4a14.1 14.1 0 0 0-13 8.8l-18.4 46V64a2 2 0 0 1 2-2Zm190.8 58.6L203.7 202H40.9l26.7-66.7a1.9 1.9 0 0 1 1.8-1.3h48.2a13.2 13.2 0 0 0 7.7-2.4l20-13.3a2 2 0 0 1 1.1-.3h82.5a1.9 1.9 0 0 1 1.6.8a2 2 0 0 1 .3 1.8Z"></path></svg>