<svg xmlns="http://www.w3.org/2000/svg" xmlns:xlink="http://www.w3.org/1999/xlink" aria-hidden="true" role="img" class="iconify iconify--ph" width="1em" height="1em" preserveAspectRatio="xMidYMid meet" viewBox="0 0 256 256"><path fill="currentColor" d="M216 76h-85.3a4.1 4.1 0 0 1-2.4-.8l-27.8-20.8a12.2 12.2 0 0 0-7.2-2.4H40a12 12 0 0 0-12 12v136a12 12 0 0 0 12 12h176.9a11.1 11.1 0 0 0 11.1-11.1V88a12 12 0 0 0-12-12Zm4 124.9a3.1 3.1 0 0 1-3.1 3.1H40a4 4 0 0 1-4-4V64a4 4 0 0 1 4-4h53.3a4.1 4.1 0 0 1 2.4.8l27.8 20.8a12.2 12.2 0 0 0 7.2 2.4H216a4 4 0 0 1 4 4ZM156 144a4 4 0 0 1-4 4h-20v20a4 4 0 0 1-8 0v-20h-20a4 4 0 0 1 0-8h20v-20a4 4 0 0 1 8 0v20h20a4 4 0 0 1 4 4Z"></path></svg>