<svg xmlns="http://www.w3.org/2000/svg" xmlns:xlink="http://www.w3.org/1999/xlink" aria-hidden="true" role="img" class="iconify iconify--ph" width="1em" height="1em" preserveAspectRatio="xMidYMid meet" viewBox="0 0 256 256"><path fill="currentColor" d="M216 68h-82.6l-26-29.3a20 20 0 0 0-15-6.7H40a20.1 20.1 0 0 0-20 20v148.6A19.4 19.4 0 0 0 39.4 220h177.5a19.2 19.2 0 0 0 19.1-19.1V88a20.1 20.1 0 0 0-20-20ZM90.6 56l10.7 12H44V56ZM212 196H44V92h168Zm-72-76v12h12a12 12 0 0 1 0 24h-12v12a12 12 0 0 1-24 0v-12h-12a12 12 0 0 1 0-24h12v-12a12 12 0 0 1 24 0Z"></path></svg>