<svg xmlns="http://www.w3.org/2000/svg" xmlns:xlink="http://www.w3.org/1999/xlink" aria-hidden="true" role="img" class="iconify iconify--ph" width="1em" height="1em" preserveAspectRatio="xMidYMid meet" viewBox="0 0 256 256"><path fill="currentColor" d="M228 56h-68l-26.7-20a19.9 19.9 0 0 0-12-4H76a20.1 20.1 0 0 0-20 20v20H36a20.1 20.1 0 0 0-20 20v112a20.1 20.1 0 0 0 20 20h152.9a19.2 19.2 0 0 0 19.1-19.1V184h20.9a19.2 19.2 0 0 0 19.1-19.1V76a20.1 20.1 0 0 0-20-20Zm-44 144H40V96h40l26.7 20a19.9 19.9 0 0 0 12 4H184Zm40-40h-16v-44a20.1 20.1 0 0 0-20-20h-68L93.3 76a19.9 19.9 0 0 0-12-4H80V56h40l26.7 20a19.9 19.9 0 0 0 12 4H224Z"></path></svg>