<svg xmlns="http://www.w3.org/2000/svg" xmlns:xlink="http://www.w3.org/1999/xlink" aria-hidden="true" role="img" class="iconify iconify--ph" width="1em" height="1em" preserveAspectRatio="xMidYMid meet" viewBox="0 0 256 256"><path fill="currentColor" d="M222 57a28 28 0 0 0-23-23c-30.6-5.2-88.2-7.6-130.4 34.6S28.8 168.4 34 199a28 28 0 0 0 23 23a197.1 197.1 0 0 0 32.6 2.8c30.3 0 67.9-7.5 97.8-37.4C229.6 145.2 227.2 87.6 222 57Zm-55.9-17.9a181.3 181.3 0 0 1 31.6 2.8a20 20 0 0 1 16.4 16.4a183.9 183.9 0 0 1 2.6 40.7L157 39.3Zm-107.8 175a20 20 0 0 1-16.4-16.4a183.9 183.9 0 0 1-2.6-40.7L99 216.7l-9.1.2a181.3 181.3 0 0 1-31.6-2.8Zm123.4-32.4c-12.1 12.2-35.4 29.4-72.3 34l-69.1-69.1c4.6-36.9 21.8-60.2 34-72.3s35.4-29.4 72.3-34l69.1 69.1c-4.6 36.9-21.8 60.2-34 72.3Zm-18.9-88.5a3.9 3.9 0 0 1 0 5.6L145 116.7l11.8 11.8a4 4 0 0 1 0 5.6a4 4 0 0 1-2.9 1.2a3.9 3.9 0 0 1-2.8-1.2l-11.8-11.8l-17 17l11.8 11.8a4 4 0 0 1 0 5.7a3.7 3.7 0 0 1-2.8 1.1a3.8 3.8 0 0 1-2.8-1.1L116.7 145l-17.9 17.8a3.9 3.9 0 0 1-5.6 0a3.9 3.9 0 0 1 0-5.6l17.8-17.9l-11.8-11.8a4 4 0 0 1 0-5.6a4 4 0 0 1 5.7 0l11.8 11.8l17-17l-11.8-11.8a4 4 0 0 1 0-5.7a4 4 0 0 1 5.6 0l11.8 11.8l17.9-17.8a3.9 3.9 0 0 1 5.6 0Z"></path></svg>