<svg xmlns="http://www.w3.org/2000/svg" xmlns:xlink="http://www.w3.org/1999/xlink" aria-hidden="true" role="img" class="iconify iconify--ph" width="1em" height="1em" preserveAspectRatio="xMidYMid meet" viewBox="0 0 256 256"><path fill="currentColor" d="M229.9 55.6a35.9 35.9 0 0 0-29.5-29.5c-32.2-5.5-92.7-7.9-137.5 36.8S20.6 168.2 26.1 200.4a35.9 35.9 0 0 0 29.5 29.5a202.5 202.5 0 0 0 34 2.9c31.9 0 71.7-8 103.5-39.7c44.7-44.8 42.3-105.3 36.8-137.5Zm-23.6 4c1.1 7 1.9 13.7 2.3 20l-32.2-32.2c6.3.4 13 1.2 20 2.3a12.4 12.4 0 0 1 9.9 9.9ZM49.7 196.4c-1.1-7-1.9-13.7-2.3-20l32.2 32.2c-6.3-.4-13-1.2-20-2.3a12.4 12.4 0 0 1-9.9-9.9Zm126.4-20.3c-10.9 10.9-31.4 26.1-63.9 31.1l-63.4-63.4c5-32.5 20.2-53 31.1-63.9s31.4-26.1 63.9-31.1l63.4 63.4c-5 32.5-20.2 53-31.1 63.9Zm-7.6-88.6a12 12 0 0 1 0 17l-12.2 12.2l6.1 6.1a12 12 0 1 1-16.9 17l-6.2-6.1l-5.6 5.6l6.1 6.2a11.9 11.9 0 0 1 0 16.9a11.6 11.6 0 0 1-8.5 3.5a11.8 11.8 0 0 1-8.5-3.5l-6.1-6.1l-12.2 12.2a12.1 12.1 0 0 1-17 0a12 12 0 0 1 0-17l12.2-12.2l-6.1-6.1a12 12 0 0 1 0-17a11.9 11.9 0 0 1 16.9 0l6.2 6.1l5.6-5.6l-6.1-6.2a11.9 11.9 0 0 1 0-16.9a12 12 0 0 1 17 0l6.1 6.1l12.2-12.2a12 12 0 0 1 17 0Z"></path></svg>