<svg xmlns="http://www.w3.org/2000/svg" xmlns:xlink="http://www.w3.org/1999/xlink" aria-hidden="true" role="img" class="iconify iconify--ph" width="1em" height="1em" preserveAspectRatio="xMidYMid meet" viewBox="0 0 256 256"><path fill="currentColor" d="M224 56.6A30 30 0 0 0 199.4 32c-31-5.3-89.4-7.7-132.2 35.2S26.7 168.4 32 199.4A30 30 0 0 0 56.6 224a203.3 203.3 0 0 0 33 2.8c30.7 0 68.8-7.6 99.2-38C231.7 146 229.3 87.6 224 56.6Zm-57.9-15.5a187.4 187.4 0 0 1 31.3 2.7a18.3 18.3 0 0 1 14.8 14.8a183.5 183.5 0 0 1 2.6 35.8l-53.2-53.2ZM58.6 212.2a18.3 18.3 0 0 1-14.8-14.8a183.5 183.5 0 0 1-2.6-35.8l53.2 53.2a183.5 183.5 0 0 1-35.8-2.6Zm121.7-31.9c-11.8 11.9-34.4 28.6-70.2 33.3l-67.7-67.7c4.7-35.8 21.4-58.4 33.3-70.2s34.4-28.6 70.2-33.3l67.7 67.7c-4.7 35.8-21.4 58.4-33.3 70.2Zm-16.1-88.5a5.8 5.8 0 0 1 0 8.4l-16.4 16.5l10.4 10.4a6.1 6.1 0 0 1 0 8.5a6.2 6.2 0 0 1-8.5 0l-10.4-10.4l-14.1 14.1l10.4 10.4a6 6 0 0 1-4.3 10.2a5.7 5.7 0 0 1-4.2-1.7l-10.4-10.4l-16.5 16.4a5.9 5.9 0 0 1-8.4-8.4l16.4-16.5l-10.4-10.4a6 6 0 0 1 8.5-8.5l10.4 10.4l14.1-14.1l-10.4-10.4a6 6 0 0 1 8.5-8.5l10.4 10.4l16.5-16.4a5.8 5.8 0 0 1 8.4 0Z"></path></svg>