<svg xmlns="http://www.w3.org/2000/svg" xmlns:xlink="http://www.w3.org/1999/xlink" aria-hidden="true" role="img" class="iconify iconify--ph" width="1em" height="1em" preserveAspectRatio="xMidYMid meet" viewBox="0 0 256 256"><path fill="currentColor" d="M219.8 107.8c-2.8 25.2-12 53.5-35.2 76.8S133 217 107.8 219.8l-71.6-71.6c2.8-25.2 12-53.5 35.2-76.8S123 39 148.2 36.2l71.6 71.6Z" opacity=".2"></path><path fill="currentColor" d="M226 56.3A32.3 32.3 0 0 0 199.7 30c-31.4-5.3-90.4-7.7-133.9 35.8S24.7 168.3 30 199.7A32.3 32.3 0 0 0 56.3 226a206.3 206.3 0 0 0 33.3 2.8c31.1 0 69.8-7.7 100.6-38.6c43.5-43.5 41.1-102.5 35.8-133.9ZM59 210.2A15.9 15.9 0 0 1 45.8 197a178.7 178.7 0 0 1-2.7-30.6l46.5 46.5a179.5 179.5 0 0 1-30.6-2.7Zm119.9-31.3c-11.5 11.6-33.4 27.8-68.1 32.6l-66.3-66.3c4.9-34.7 21-56.6 32.6-68.1s33.4-27.8 68.1-32.6l66.3 66.3c-4.9 34.7-21 56.6-32.6 68.1ZM166.4 43.1a179.5 179.5 0 0 1 30.6 2.7A15.9 15.9 0 0 1 210.2 59a178.7 178.7 0 0 1 2.7 30.6Zm-27.1 62.3l15-15.1a8.1 8.1 0 0 1 11.4 11.4l-15.1 15l9 9a8 8 0 0 1 0 11.3a8.3 8.3 0 0 1-5.7 2.3a8 8 0 0 1-5.6-2.3l-9-9l-11.3 11.3l9 9a8 8 0 0 1 0 11.3a7.8 7.8 0 0 1-5.7 2.3a7.6 7.6 0 0 1-5.6-2.3l-9-9l-15 15.1a8.2 8.2 0 0 1-11.4 0a8.1 8.1 0 0 1 0-11.4l15.1-15l-9-9a8 8 0 0 1 11.3-11.3l9 9l11.3-11.3l-9-9a8 8 0 0 1 11.3-11.3Z"></path></svg>