<svg xmlns="http://www.w3.org/2000/svg" xmlns:xlink="http://www.w3.org/1999/xlink" aria-hidden="true" role="img" class="iconify iconify--ph" width="1em" height="1em" preserveAspectRatio="xMidYMid meet" viewBox="0 0 256 256"><path fill="currentColor" d="M127.9 78.8a4.9 4.9 0 0 1 .1 1.2a44.1 44.1 0 0 1-36 43.3V224a8 8 0 0 1-16 0V123.3A44.1 44.1 0 0 1 40 80a4.9 4.9 0 0 1 .1-1.2l8-48a8 8 0 1 1 15.8 2.6L57.4 72H76V32a8 8 0 0 1 16 0v40h18.6l-6.5-38.7a8 8 0 1 1 15.8-2.6l8 48Zm80.7-53.4a8.2 8.2 0 0 0-7.3-.9c-20.8 7.5-37.5 32.9-49.5 75.3a412.8 412.8 0 0 0-11.8 59.3a8.1 8.1 0 0 0 2 6.2a8.2 8.2 0 0 0 6 2.7h48v56a8 8 0 0 0 16 0V32a8.2 8.2 0 0 0-3.4-6.6Z"></path></svg>