<svg xmlns="http://www.w3.org/2000/svg" xmlns:xlink="http://www.w3.org/1999/xlink" aria-hidden="true" role="img" class="iconify iconify--ph" width="1em" height="1em" preserveAspectRatio="xMidYMid meet" viewBox="0 0 256 256"><path fill="currentColor" d="M204 160h-56s12-112 56-128" opacity=".2"></path><path fill="currentColor" d="M84 80a8 8 0 0 0 8-8V32a8 8 0 0 0-16 0v40a8 8 0 0 0 8 8Z"></path><path fill="currentColor" d="M119.9 30.7a8 8 0 1 0-15.8 2.6l7.9 47.3a28 28 0 0 1-56 0l7.9-47.3a8 8 0 1 0-15.8-2.6l-8 48A5.7 5.7 0 0 0 40 80a44.1 44.1 0 0 0 36 43.3V224a8 8 0 0 0 16 0V123.3A44.1 44.1 0 0 0 128 80a5.7 5.7 0 0 0-.1-1.3Zm88.7-5.3a8.2 8.2 0 0 0-7.3-.9c-20.8 7.5-37.5 32.9-49.5 75.3a412.8 412.8 0 0 0-11.8 59.3a8.1 8.1 0 0 0 2 6.2a8.2 8.2 0 0 0 6 2.7h48v56a8 8 0 0 0 16 0V32a8.2 8.2 0 0 0-3.4-6.6ZM196 152h-38.9a402.3 402.3 0 0 1 10.1-47.8c7.9-28 17.7-47.6 28.8-57.8Z"></path></svg>