<svg xmlns="http://www.w3.org/2000/svg" xmlns:xlink="http://www.w3.org/1999/xlink" aria-hidden="true" role="img" class="iconify iconify--ph" width="1em" height="1em" preserveAspectRatio="xMidYMid meet" viewBox="0 0 256 256"><path fill="currentColor" d="M72 72V32a12 12 0 0 1 24 0v40a12 12 0 0 1-24 0Zm48-52a12 12 0 0 0-12 12v48a24 24 0 0 1-48 0V32a12 12 0 0 0-24 0v48a48.2 48.2 0 0 0 36 46.5V224a12 12 0 0 0 24 0v-97.5A48.2 48.2 0 0 0 132 80V32a12 12 0 0 0-12-12Zm96 12v192a12 12 0 0 1-24 0v-52h-44a12 12 0 0 1-11.9-13.3a398 398 0 0 1 11.9-60c12.3-43.7 29.8-69.9 51.9-78A12 12 0 0 1 216 32Zm-24 25c-7.8 10.8-15 27.2-21 48.3a385 385 0 0 0-9.2 42.7H192Z"></path></svg>