<svg xmlns="http://www.w3.org/2000/svg" xmlns:xlink="http://www.w3.org/1999/xlink" aria-hidden="true" role="img" class="iconify iconify--ph" width="1em" height="1em" preserveAspectRatio="xMidYMid meet" viewBox="0 0 256 256"><path fill="currentColor" d="M78 72V32a6 6 0 0 1 12 0v40a6 6 0 0 1-12 0Zm39.9-41a6 6 0 0 0-11.8 2l7.9 47.5a30 30 0 0 1-60 0L61.9 33a6 6 0 1 0-11.8-2l-8 48a3.4 3.4 0 0 0-.1 1a42.2 42.2 0 0 0 36 41.6V224a6 6 0 0 0 12 0V121.6A42.2 42.2 0 0 0 126 80a3.4 3.4 0 0 0-.1-1Zm92.1 1v192a6 6 0 0 1-12 0v-58h-50a6.1 6.1 0 0 1-4.5-2a6.4 6.4 0 0 1-1.5-4.6a412.4 412.4 0 0 1 11.7-59c11.9-41.8 28.1-66.7 48.2-74A6 6 0 0 1 210 32Zm-12 10.1c-25.7 19.4-39.1 81.1-43.2 111.9H198Z"></path></svg>