<svg xmlns="http://www.w3.org/2000/svg" xmlns:xlink="http://www.w3.org/1999/xlink" aria-hidden="true" role="img" class="iconify iconify--ph" width="1em" height="1em" preserveAspectRatio="xMidYMid meet" viewBox="0 0 256 256"><path fill="currentColor" d="M128 240a3.9 3.9 0 0 1-2.7-1.1l-72-68A3.9 3.9 0 0 1 52 168v-68a4 4 0 0 1 4-4h61.9L53.3 34.9A4 4 0 0 1 56 28h144a4 4 0 0 1 4 4v68a4 4 0 0 1-4 4h-61.9l64.6 61.1a4 4 0 0 1-2.7 6.9h-68v64a4 4 0 0 1-2.4 3.7a4.5 4.5 0 0 1-1.6.3Zm-68-73.7l64 60.4V168a4 4 0 0 1 4-4h61.9l-63.5-60H60ZM129.6 96H196V36H66.1Z"></path></svg>