<svg xmlns="http://www.w3.org/2000/svg" xmlns:xlink="http://www.w3.org/1999/xlink" aria-hidden="true" role="img" class="iconify iconify--ph" width="1em" height="1em" preserveAspectRatio="xMidYMid meet" viewBox="0 0 256 256"><path fill="currentColor" d="M128 242a6.2 6.2 0 0 1-4.1-1.6l-72-68A6.1 6.1 0 0 1 50 168v-68a6 6 0 0 1 6-6h56.9l-61-57.6a6 6 0 0 1-1.5-6.6A6 6 0 0 1 56 26h144a6 6 0 0 1 6 6v68a6 6 0 0 1-6 6h-56.9l61 57.6a6 6 0 0 1 1.5 6.6a6 6 0 0 1-5.6 3.8h-66v62a5.9 5.9 0 0 1-3.6 5.5a6.9 6.9 0 0 1-2.4.5Zm-66-76.6l60 56.7V168a6 6 0 0 1 6-6h56.9l-59.3-56H62ZM130.4 94H194V38H71.1Z"></path></svg>