<svg xmlns="http://www.w3.org/2000/svg" xmlns:xlink="http://www.w3.org/1999/xlink" aria-hidden="true" role="img" class="iconify iconify--ph" width="1em" height="1em" preserveAspectRatio="xMidYMid meet" viewBox="0 0 256 256"><path fill="currentColor" d="M56 100v68l72 68v-68h72L56 32h144v68H56z" opacity=".2"></path><path fill="currentColor" d="M128 244a8.2 8.2 0 0 1-5.5-2.2l-72-68A7.9 7.9 0 0 1 48 168v-68a8 8 0 0 1 8-8h51.9L50.5 37.8A8 8 0 0 1 56 24h144a8 8 0 0 1 8 8v68a8 8 0 0 1-8 8h-51.9l57.4 54.2A8 8 0 0 1 200 176h-64v60a7.9 7.9 0 0 1-4.8 7.3a7.4 7.4 0 0 1-3.2.7Zm-64-79.4l56 52.8V168a8 8 0 0 1 8-8h51.9l-55.1-52H64ZM131.2 92H192V40H76.1Z"></path></svg>