<svg xmlns="http://www.w3.org/2000/svg" xmlns:xlink="http://www.w3.org/1999/xlink" aria-hidden="true" role="img" class="iconify iconify--ph" width="1em" height="1em" preserveAspectRatio="xMidYMid meet" viewBox="0 0 256 256"><path fill="currentColor" d="M208 100V32a8 8 0 0 0-8-8H56a8 8 0 0 0-5.5 13.8L107.9 92H56a8 8 0 0 0-8 8v68a7.9 7.9 0 0 0 2.5 5.8l72 68a8.2 8.2 0 0 0 5.5 2.2a7.4 7.4 0 0 0 3.2-.7a7.9 7.9 0 0 0 4.8-7.3v-60h64a8 8 0 0 0 5.5-13.8L148.1 108H200a8 8 0 0 0 8-8Zm-28.1 60H128a8 8 0 0 0-8 8v49.4l-56-52.8V108h60.8ZM192 92h-60.8L76.1 40H192Z"></path></svg>