<svg xmlns="http://www.w3.org/2000/svg" xmlns:xlink="http://www.w3.org/1999/xlink" aria-hidden="true" role="img" class="iconify iconify--ph" width="1em" height="1em" preserveAspectRatio="xMidYMid meet" viewBox="0 0 256 256"><path fill="currentColor" d="M128 248a11.6 11.6 0 0 1-8.2-3.3l-72-68A11.9 11.9 0 0 1 44 168v-68a12 12 0 0 1 12-12h41.8l-50-47.3a12 12 0 0 1-3-13.1A12.2 12.2 0 0 1 56 20h144a12 12 0 0 1 12 12v68a12 12 0 0 1-12 12h-41.8l50 47.3a12 12 0 0 1 3 13.1A12.2 12.2 0 0 1 200 180h-60v56a12.1 12.1 0 0 1-7.2 11a11.8 11.8 0 0 1-4.8 1Zm-60-85.2l48 45.4V168a12 12 0 0 1 12-12h41.8l-46.6-44H68ZM132.8 88H188V44H86.2Z"></path></svg>