<svg xmlns="http://www.w3.org/2000/svg" xmlns:xlink="http://www.w3.org/1999/xlink" aria-hidden="true" role="img" class="iconify iconify--ph" width="1em" height="1em" preserveAspectRatio="xMidYMid meet" viewBox="0 0 256 256"><path fill="currentColor" d="M212 40a12 12 0 0 1-12 12h-29.3A20 20 0 0 0 151 68.4l-8.6 47.6H184a12 12 0 0 1 0 24h-46l-9.4 51.9A44 44 0 0 1 85.3 228H56a12 12 0 0 1 0-24h29.3a20 20 0 0 0 19.7-16.4l8.6-47.6H72a12 12 0 0 1 0-24h46l9.4-51.9A44 44 0 0 1 170.7 28H200a12 12 0 0 1 12 12Z"></path></svg>