<svg xmlns="http://www.w3.org/2000/svg" xmlns:xlink="http://www.w3.org/1999/xlink" aria-hidden="true" role="img" class="iconify iconify--ph" width="1em" height="1em" preserveAspectRatio="xMidYMid meet" viewBox="0 0 256 256"><path fill="currentColor" d="M204 40a4 4 0 0 1-4 4h-29.3a28 28 0 0 0-27.5 23l-10.4 57H184a4 4 0 0 1 0 8h-52.7l-10.6 58.4A35.9 35.9 0 0 1 85.3 220H56a4 4 0 0 1 0-8h29.3a28 28 0 0 0 27.5-23l10.4-57H72a4 4 0 0 1 0-8h52.7l10.6-58.4A35.9 35.9 0 0 1 170.7 36H200a4 4 0 0 1 4 4Z"></path></svg>