<svg xmlns="http://www.w3.org/2000/svg" xmlns:xlink="http://www.w3.org/1999/xlink" aria-hidden="true" role="img" class="iconify iconify--ph" width="1em" height="1em" preserveAspectRatio="xMidYMid meet" viewBox="0 0 256 256"><path fill="currentColor" d="M206 40a6 6 0 0 1-6 6h-29.3a26.1 26.1 0 0 0-25.6 21.3l-9.9 54.7H184a6 6 0 0 1 0 12h-51l-10.3 56.8A38 38 0 0 1 85.3 222H56a6 6 0 0 1 0-12h29.3a26.1 26.1 0 0 0 25.6-21.3l9.9-54.7H72a6 6 0 0 1 0-12h51l10.3-56.8A38 38 0 0 1 170.7 34H200a6 6 0 0 1 6 6Z"></path></svg>