<svg xmlns="http://www.w3.org/2000/svg" xmlns:xlink="http://www.w3.org/1999/xlink" aria-hidden="true" role="img" class="iconify iconify--ph" width="1em" height="1em" preserveAspectRatio="xMidYMid meet" viewBox="0 0 256 256"><path fill="currentColor" d="M208 40a8 8 0 0 1-8 8h-29.3a24 24 0 0 0-23.6 19.7l-9.5 52.3H184a8 8 0 0 1 0 16h-49.3l-10.1 55.2A39.9 39.9 0 0 1 85.3 224H56a8 8 0 0 1 0-16h29.3a24 24 0 0 0 23.6-19.7l9.5-52.3H72a8 8 0 0 1 0-16h49.3l10.1-55.2A39.9 39.9 0 0 1 170.7 32H200a8 8 0 0 1 8 8Z"></path></svg>