<svg xmlns="http://www.w3.org/2000/svg" xmlns:xlink="http://www.w3.org/1999/xlink" aria-hidden="true" role="img" class="iconify iconify--ph" width="1em" height="1em" preserveAspectRatio="xMidYMid meet" viewBox="0 0 256 256"><path fill="currentColor" d="M112 237.1a19.6 19.6 0 0 1-9.4-2.4A19.9 19.9 0 0 1 92 217.1v-76.5L27.3 69.5A20 20 0 0 1 42.1 36h171.8a20 20 0 0 1 14.8 33.5L164 140.6v55.1a20.1 20.1 0 0 1-8.9 16.7l-32 21.3a20.4 20.4 0 0 1-11.1 3.4ZM51.1 60l59.7 65.6a19.8 19.8 0 0 1 5.2 13.5v70.5l24-16v-54.5a19.8 19.8 0 0 1 5.2-13.5L204.9 60ZM93 141.8ZM213.9 60Z"></path></svg>