<svg xmlns="http://www.w3.org/2000/svg" xmlns:xlink="http://www.w3.org/1999/xlink" aria-hidden="true" role="img" class="iconify iconify--ph" width="1em" height="1em" preserveAspectRatio="xMidYMid meet" viewBox="0 0 256 256"><path fill="currentColor" d="M112 229.1a12.2 12.2 0 0 1-12-12v-78a4.3 4.3 0 0 0-1-2.7L33.2 64.1a12.1 12.1 0 0 1-2.1-13a11.9 11.9 0 0 1 11-7.1h171.8a11.9 11.9 0 0 1 11 7.1a12.1 12.1 0 0 1-2.1 13L157 136.4a4.3 4.3 0 0 0-1 2.7v56.6a12.1 12.1 0 0 1-5.3 10l-32 21.3a12 12 0 0 1-6.7 2.1ZM42.1 52a4 4 0 0 0-3 6.7l65.8 72.3a12 12 0 0 1 3.1 8.1v78a4.1 4.1 0 0 0 2.1 3.5a4 4 0 0 0 4.1-.2l32-21.4a3.9 3.9 0 0 0 1.8-3.3v-56.6a12 12 0 0 1 3.1-8.1l65.8-72.3a4 4 0 0 0-3-6.7Z"></path></svg>