<svg xmlns="http://www.w3.org/2000/svg" xmlns:xlink="http://www.w3.org/1999/xlink" aria-hidden="true" role="img" class="iconify iconify--ph" width="1em" height="1em" preserveAspectRatio="xMidYMid meet" viewBox="0 0 256 256"><path fill="currentColor" d="M184 114h-32a6 6 0 0 1 0-12h32a6 6 0 0 1 0 12Zm-80-12H94V92a6 6 0 0 0-12 0v10H72a6 6 0 0 0 0 12h10v10a6 6 0 0 0 12 0v-10h10a6 6 0 0 0 0-12Zm113.9 119.5a39.2 39.2 0 0 1-5.9.5a33.7 33.7 0 0 1-24-10l-.4-.3l-41.3-45.9l-36.6.2l-41.3 45.7l-.4.3a33.7 33.7 0 0 1-24 10a39.2 39.2 0 0 1-5.9-.5a34.1 34.1 0 0 1-27.6-39.4l16.3-84c.1 0 .1-.1.1-.2A57.9 57.9 0 0 1 84 50l88-.3a58.1 58.1 0 0 1 57.1 47.7v.2l16.4 84.4a34.1 34.1 0 0 1-27.6 39.5ZM172 153.7a46 46 0 1 0 0-92L84 62a45.9 45.9 0 0 0-45.3 37.7v.4l-16.4 84.1a22.2 22.2 0 0 0 17.9 25.5a21.9 21.9 0 0 0 19.2-6l43.2-47.7a5.7 5.7 0 0 1 4.4-2Zm61.7 30.5l-9.8-50.5a58 58 0 0 1-51.9 32h-9.6l34.2 37.9a22 22 0 0 0 37.1-19.5Z"></path></svg>