<svg xmlns="http://www.w3.org/2000/svg" xmlns:xlink="http://www.w3.org/1999/xlink" aria-hidden="true" role="img" class="iconify iconify--ph" width="1em" height="1em" preserveAspectRatio="xMidYMid meet" viewBox="0 0 256 256"><path fill="currentColor" d="M184 120h-32a12 12 0 0 1 0-24h32a12 12 0 0 1 0 24Zm-80-24h-4v-4a12 12 0 0 0-24 0v4h-4a12 12 0 0 0 0 24h4v4a12 12 0 0 0 24 0v-4h4a12 12 0 0 0 0-24Zm115 131.4a42.3 42.3 0 0 1-7 .6a40.4 40.4 0 0 1-28.3-11.7l-.6-.7l-39.4-43.7h-31.3l-39.5 43.8l-.6.6A40 40 0 0 1 4.6 181v-.2l16.3-83.7v-.2A63.7 63.7 0 0 1 84 44l88-.3a64.2 64.2 0 0 1 63 52.5v.2l16.4 84.5a40.1 40.1 0 0 1-32.4 46.5Zm-47-79.7a40 40 0 1 0 0-80L84 68a39.9 39.9 0 0 0-39.3 32.6a1.7 1.7 0 0 0-.1.7l-16.4 84a16 16 0 0 0 26.9 14.2l43-47.5a11.8 11.8 0 0 1 8.9-4Zm55.8 37.6l-7-36.2a63.5 63.5 0 0 1-45 22.5l25.1 27.9a16 16 0 0 0 26.9-14.2Z"></path></svg>