<svg xmlns="http://www.w3.org/2000/svg" xmlns:xlink="http://www.w3.org/1999/xlink" aria-hidden="true" role="img" class="iconify iconify--ph" width="1em" height="1em" preserveAspectRatio="xMidYMid meet" viewBox="0 0 256 256"><path fill="currentColor" d="M184 112h-32a4 4 0 0 1 0-8h32a4 4 0 0 1 0 8Zm-80-8H92V92a4 4 0 0 0-8 0v12H72a4 4 0 0 0 0 8h12v12a4 4 0 0 0 8 0v-12h12a4 4 0 0 0 0-8Zm113.6 115.5a35.3 35.3 0 0 1-5.6.5a31.7 31.7 0 0 1-22.6-9.4l-.3-.2l-41.9-46.6l-38.4.2l-41.9 46.4l-.3.2A31.7 31.7 0 0 1 44 220a35.3 35.3 0 0 1-5.6-.5a32.1 32.1 0 0 1-25.9-37.1l16.3-83.9v-.2A55.9 55.9 0 0 1 84 52l88-.3a56.1 56.1 0 0 1 55.1 46.1c0 .1 0 .1.1.1l16.3 84.5a32.1 32.1 0 0 1-25.9 37.1ZM172 155.7a48 48 0 1 0 0-96L84 60a47.9 47.9 0 0 0-47.2 39.4c0 .1-.1.2-.1.3l-16.3 84.2a23.9 23.9 0 0 0 19.4 27.7a24.2 24.2 0 0 0 21.1-6.5l43.2-47.8a3.9 3.9 0 0 1 2.9-1.3Zm63.6 28.1l-11-56.9a55.9 55.9 0 0 1-52.6 36.8h-14l37.1 41.3a24 24 0 0 0 40.5-21.3Z"></path></svg>