<svg xmlns="http://www.w3.org/2000/svg" xmlns:xlink="http://www.w3.org/1999/xlink" aria-hidden="true" role="img" class="iconify iconify--ph" width="1em" height="1em" preserveAspectRatio="xMidYMid meet" viewBox="0 0 256 256"><path fill="currentColor" d="M149 159.8h23a52 52 0 0 0 52-52a45 45 0 0 0-.8-9l16.4 84.4a28 28 0 0 1-47.4 24.7l-43.2-48Z" opacity=".2"></path><path fill="currentColor" d="M192 108a8 8 0 0 0-8-8h-32a8 8 0 0 0 0 16h32a8 8 0 0 0 8-8Zm-88-8h-8v-8a8 8 0 0 0-16 0v8h-8a8 8 0 0 0 0 16h8v8a8 8 0 0 0 16 0v-8h8a8 8 0 0 0 0-16Z"></path><path fill="currentColor" d="M247.5 181.7h-.1l-16.3-84.5c0-.1 0-.1-.1-.2a60 60 0 0 0-59-49.3L84 48a59.9 59.9 0 0 0-59.1 49.6v.2L8.6 181.6a35.9 35.9 0 0 0 29.2 41.7a31.8 31.8 0 0 0 6.2.6a36.4 36.4 0 0 0 25.5-10.5l.4-.5l40.7-45l34.9-.2l40.6 45.3l.5.5A36 36 0 0 0 212 224a33.6 33.6 0 0 0 6.3-.6a36.1 36.1 0 0 0 29.2-41.7ZM107 152a8.3 8.3 0 0 0-5.9 2.6L58 202.3a20 20 0 0 1-33.7-17.7l16.3-84.1a.9.9 0 0 0 .1-.5A43.9 43.9 0 0 1 84 64l88-.3a44 44 0 1 1 0 88Zm108.5 55.7a20.1 20.1 0 0 1-17.5-5.4l-31.1-34.5h5.1a60 60 0 0 0 51-28.3l8.7 45.2a20 20 0 0 1-16.2 23Z"></path></svg>