<svg xmlns="http://www.w3.org/2000/svg" xmlns:xlink="http://www.w3.org/1999/xlink" aria-hidden="true" role="img" class="iconify iconify--ph" width="1em" height="1em" preserveAspectRatio="xMidYMid meet" viewBox="0 0 256 256"><path fill="currentColor" d="m238.1 72.5l-19.3-19.3a4 4 0 0 0-5.6 5.6l19.3 19.3a11.9 11.9 0 0 1 3.5 8.5V168a12 12 0 0 1-24 0v-40a20.1 20.1 0 0 0-20-20h-20V56a20.1 20.1 0 0 0-20-20H72a20.1 20.1 0 0 0-20 20v156H32a4 4 0 0 0 0 8h160a4 4 0 0 0 0-8h-20v-96h20a12 12 0 0 1 12 12v40a20 20 0 0 0 40 0V86.6a19.8 19.8 0 0 0-5.9-14.1ZM60 212V56a12 12 0 0 1 12-12h80a12 12 0 0 1 12 12v156Zm80-100a4 4 0 0 1-4 4H88a4 4 0 0 1 0-8h48a4 4 0 0 1 4 4Z"></path></svg>