<svg xmlns="http://www.w3.org/2000/svg" xmlns:xlink="http://www.w3.org/1999/xlink" aria-hidden="true" role="img" class="iconify iconify--ph" width="1em" height="1em" preserveAspectRatio="xMidYMid meet" viewBox="0 0 256 256"><path fill="currentColor" d="m247.8 66.8l-19.3-19.3a12 12 0 0 0-17 17l19.3 19.3a3.9 3.9 0 0 1 1.2 2.8V168a4 4 0 0 1-4 4h-4a4 4 0 0 1-4-4v-40a28.1 28.1 0 0 0-28-28h-12V56a28.1 28.1 0 0 0-28-28H72a28.1 28.1 0 0 0-28 28v148H32a12 12 0 0 0 0 24h160a12 12 0 0 0 0-24h-12v-80h12a4 4 0 0 1 4 4v40a28.1 28.1 0 0 0 28 28h4a28.1 28.1 0 0 0 28-28V86.6a27.8 27.8 0 0 0-8.2-19.8ZM68 204V56a4 4 0 0 1 4-4h80a4 4 0 0 1 4 4v148Zm72-92a12 12 0 0 1-12 12H96a12 12 0 0 1 0-24h32a12 12 0 0 1 12 12Z"></path></svg>