<svg xmlns="http://www.w3.org/2000/svg" xmlns:xlink="http://www.w3.org/1999/xlink" aria-hidden="true" role="img" class="iconify iconify--ph" width="1em" height="1em" preserveAspectRatio="xMidYMid meet" viewBox="0 0 256 256"><path fill="currentColor" d="m239.6 71.1l-19.4-19.3a5.9 5.9 0 0 0-8.4 8.4l19.3 19.4a9.7 9.7 0 0 1 2.9 7V168a10 10 0 0 1-20 0v-40a22.1 22.1 0 0 0-22-22h-18V56a22.1 22.1 0 0 0-22-22H72a22.1 22.1 0 0 0-22 22v154H32a6 6 0 0 0 0 12h160a6 6 0 0 0 0-12h-18v-92h18a10 10 0 0 1 10 10v40a22 22 0 0 0 44 0V86.6a22 22 0 0 0-6.4-15.5ZM62 210V56a10 10 0 0 1 10-10h80a10 10 0 0 1 10 10v154Zm80-98a6 6 0 0 1-6 6H88a6 6 0 0 1 0-12h48a6 6 0 0 1 6 6Z"></path></svg>