<svg xmlns="http://www.w3.org/2000/svg" xmlns:xlink="http://www.w3.org/1999/xlink" aria-hidden="true" role="img" class="iconify iconify--ph" width="1em" height="1em" preserveAspectRatio="xMidYMid meet" viewBox="0 0 256 256"><path fill="currentColor" d="M204.2 83.5A107 107 0 0 0 128.1 52h-.5c-48.9.2-90.4 33.5-103.4 78.9a3.7 3.7 0 0 0-.5 1.1a3 3 0 0 0-.1 1.3a106.5 106.5 0 0 0-3.6 27.8V184a12 12 0 0 0 12 12h192a12 12 0 0 0 12-12v-24a107.3 107.3 0 0 0-31.8-76.5ZM228 184a4 4 0 0 1-4 4H111.6l63.4-82.7a4 4 0 1 0-6.3-4.9L101.5 188H32a4 4 0 0 1-4-4v-22.9a102.6 102.6 0 0 1 2.6-23l26.8 7.1l1.1.2a4 4 0 0 0 1-7.9l-26.7-7.2C45.3 90.8 81.3 61.8 124 60.1V88a4 4 0 0 0 8 0V60.1a99.3 99.3 0 0 1 66.6 29.1a98.2 98.2 0 0 1 24.9 41.1l-27 7.2a4 4 0 0 0 1 7.9l1.1-.2l27-7.2a100.2 100.2 0 0 1 2.4 22Z"></path></svg>