<svg xmlns="http://www.w3.org/2000/svg" xmlns:xlink="http://www.w3.org/1999/xlink" aria-hidden="true" role="img" class="iconify iconify--ph" width="1em" height="1em" preserveAspectRatio="xMidYMid meet" viewBox="0 0 256 256"><path fill="currentColor" d="M209.9 77.8A115.4 115.4 0 0 0 128 44h-.4c-52.2.2-96.5 35.5-110.7 83.6a11.7 11.7 0 0 0-.9 2.4a5.9 5.9 0 0 0-.4 2.3a114.2 114.2 0 0 0-3.6 28.8V184a20.1 20.1 0 0 0 20 20h192a20.1 20.1 0 0 0 20-20v-24a115.3 115.3 0 0 0-34.1-82.2ZM220 180h-92.2l53.6-69.8a12 12 0 0 0-19.1-14.6L97.5 180H36v-18.9a95 95 0 0 1 .9-13.1l18.4 5a17.5 17.5 0 0 0 3.2.4a12 12 0 0 0 3.1-23.6l-18.3-4.9C55.8 95.1 83.2 73.1 116 68.8V88a12 12 0 0 0 24 0V68.8a91.4 91.4 0 0 1 52.9 26a90.5 90.5 0 0 1 20.1 30l-18.6 5a12 12 0 0 0 3.1 23.6a17.5 17.5 0 0 0 3.2-.4l18.5-5a94.2 94.2 0 0 1 .8 12Z"></path></svg>