<svg xmlns="http://www.w3.org/2000/svg" xmlns:xlink="http://www.w3.org/1999/xlink" aria-hidden="true" role="img" class="iconify iconify--ph" width="1em" height="1em" preserveAspectRatio="xMidYMid meet" viewBox="0 0 256 256"><path fill="currentColor" d="M207.1 80.7A111.3 111.3 0 0 0 128 48h-.4c-50.6.2-93.4 34.5-107 81.2a7.1 7.1 0 0 0-.8 1.8a11 11 0 0 0-.2 1.8a110.9 110.9 0 0 0-3.6 28.3V184a16 16 0 0 0 16 16h192a16 16 0 0 0 16-16v-24a111.2 111.2 0 0 0-32.9-79.3ZM224 184H119.7l58.5-76.3a8 8 0 0 0-12.7-9.7l-66 86H32v-22.9a98.3 98.3 0 0 1 1.7-18.1l22.7 6.1a7.6 7.6 0 0 0 2.1.3a8 8 0 0 0 2-15.8l-22.6-6C50.6 93 82.2 67.5 120 64.3V88a8 8 0 0 0 16 0V64.3A95.6 95.6 0 0 1 195.8 92a96.9 96.9 0 0 1 22.6 35.5l-22.9 6.1a8 8 0 0 0 2 15.8a7.6 7.6 0 0 0 2.1-.3l22.9-6.1a95.1 95.1 0 0 1 1.5 17Z"></path></svg>