<svg xmlns="http://www.w3.org/2000/svg" xmlns:xlink="http://www.w3.org/1999/xlink" aria-hidden="true" role="img" class="iconify iconify--ph" width="1em" height="1em" preserveAspectRatio="xMidYMid meet" viewBox="0 0 256 256"><path fill="currentColor" d="m229.6 106l-25.9-14.4a80.1 80.1 0 0 0-6.3-11l.5-29.6a102.6 102.6 0 0 0-38.2-22l-25.4 15.2a88.3 88.3 0 0 0-12.6 0L96.2 28.9A104 104 0 0 0 58.1 51l.5 29.7a73.6 73.6 0 0 0-6.3 10.9l-26 14.4a102 102 0 0 0 .1 44l25.9 14.4a80.1 80.1 0 0 0 6.3 11l-.5 29.6a102.6 102.6 0 0 0 38.2 22l25.4-15.2a88.3 88.3 0 0 0 12.6 0l25.5 15.3a104 104 0 0 0 38.1-22.1l-.5-29.7a73.6 73.6 0 0 0 6.3-10.9l26-14.4a102 102 0 0 0-.1-44ZM128 176a48 48 0 1 1 48-48a48 48 0 0 1-48 48Z" opacity=".2"></path><path fill="currentColor" d="M128 72a56 56 0 1 0 56 56a56 56 0 0 0-56-56Zm0 96a40 40 0 1 1 40-40a40 40 0 0 1-40 40Zm109.5-63.7a8 8 0 0 0-4-5.3l-23.8-13.2a69.3 69.3 0 0 0-4.3-7.5l.5-27.2a8.3 8.3 0 0 0-2.6-6.1a112 112 0 0 0-41.1-23.7a8.1 8.1 0 0 0-6.6.8l-23.3 14c-2.9-.1-5.7-.1-8.6 0l-23.3-14a8.1 8.1 0 0 0-6.6-.8a111.1 111.1 0 0 0-41.1 23.8a7.9 7.9 0 0 0-2.6 6l.5 27.2c-1.6 2.4-3 4.9-4.4 7.5L22.4 99a7.9 7.9 0 0 0-3.9 5.3a111.4 111.4 0 0 0 0 47.4a8 8 0 0 0 4 5.3l23.8 13.2a69.3 69.3 0 0 0 4.3 7.5l-.5 27.2a8.3 8.3 0 0 0 2.6 6.1a112 112 0 0 0 41.1 23.7a8.1 8.1 0 0 0 6.6-.8l23.3-14h8.6l23.4 14a7.3 7.3 0 0 0 4.1 1.2a10 10 0 0 0 2.4-.4a111.1 111.1 0 0 0 41.1-23.8a7.9 7.9 0 0 0 2.6-6l-.5-27.2c1.6-2.4 3-4.9 4.4-7.5l23.8-13.2a7.9 7.9 0 0 0 3.9-5.3a111.4 111.4 0 0 0 0-47.4Zm-15 40.5l-22.7 12.6a8.2 8.2 0 0 0-3.3 3.6a73.6 73.6 0 0 1-5.7 9.8a8.6 8.6 0 0 0-1.4 4.7l.4 25.9a94.4 94.4 0 0 1-29.1 16.9l-22.3-13.4a8.1 8.1 0 0 0-4.1-1.1h-.6a72.3 72.3 0 0 1-11.4 0a8.6 8.6 0 0 0-4.7 1.1l-22.3 13.4a95 95 0 0 1-29.1-16.8l.4-26a8.6 8.6 0 0 0-1.4-4.7a86.4 86.4 0 0 1-5.7-9.8a8.8 8.8 0 0 0-3.3-3.6l-22.7-12.6a94.8 94.8 0 0 1 0-33.6l22.7-12.6a8.2 8.2 0 0 0 3.3-3.6a73.6 73.6 0 0 1 5.7-9.8a8.6 8.6 0 0 0 1.4-4.7l-.4-25.9a94.4 94.4 0 0 1 29.1-16.9l22.3 13.4a8.4 8.4 0 0 0 4.7 1.1a72.3 72.3 0 0 1 11.4 0a8.6 8.6 0 0 0 4.7-1.1l22.3-13.4a95 95 0 0 1 29.1 16.8l-.4 26a8.6 8.6 0 0 0 1.4 4.7a86.4 86.4 0 0 1 5.7 9.8a8.8 8.8 0 0 0 3.3 3.6l22.7 12.6a94.8 94.8 0 0 1 0 33.6Z"></path></svg>