<svg xmlns="http://www.w3.org/2000/svg" xmlns:xlink="http://www.w3.org/1999/xlink" aria-hidden="true" role="img" class="iconify iconify--ph" width="1em" height="1em" preserveAspectRatio="xMidYMid meet" viewBox="0 0 256 256"><path fill="currentColor" d="M128 76a52 52 0 1 0 52 52a52 52 0 0 0-52-52Zm0 96a44 44 0 1 1 44-44a44 44 0 0 1-44 44Zm105.5-66.9a3.6 3.6 0 0 0-1.9-2.6l-24.9-13.8a64.6 64.6 0 0 0-5.3-9.2l.5-28.5a4.3 4.3 0 0 0-1.3-3A108.5 108.5 0 0 0 161 25.1a4.2 4.2 0 0 0-3.3.4l-24.4 14.7a75 75 0 0 0-10.6-.1L98.3 25.5a4.2 4.2 0 0 0-3.3-.4A109.4 109.4 0 0 0 55.4 48a4.4 4.4 0 0 0-1.3 3.1l.5 28.4a64.6 64.6 0 0 0-5.3 9.2l-24.9 13.8a4.1 4.1 0 0 0-2 2.6a105.6 105.6 0 0 0 .1 45.8a3.6 3.6 0 0 0 1.9 2.6l24.9 13.8a64.6 64.6 0 0 0 5.3 9.2l-.5 28.5a4.3 4.3 0 0 0 1.3 3A108.5 108.5 0 0 0 95 230.9a4.2 4.2 0 0 0 3.3-.4l24.4-14.7a75 75 0 0 0 10.6.1l24.4 14.6a3.7 3.7 0 0 0 2.1.6l1.2-.2a109.4 109.4 0 0 0 39.6-22.9a4.4 4.4 0 0 0 1.3-3.1l-.5-28.4a64.6 64.6 0 0 0 5.3-9.2l24.9-13.8a4.1 4.1 0 0 0 2-2.6a105.6 105.6 0 0 0-.1-45.8Zm-7.4 42.3l-24.3 13.5a3.7 3.7 0 0 0-1.7 1.8a71.9 71.9 0 0 1-6 10.4a3.9 3.9 0 0 0-.7 2.3l.5 27.8a98.7 98.7 0 0 1-33.6 19.5l-23.9-14.3a4.2 4.2 0 0 0-2.1-.6h-.3a80.1 80.1 0 0 1-12 0a3.7 3.7 0 0 0-2.3.5l-23.9 14.4a101.3 101.3 0 0 1-33.7-19.4l.5-27.9a3.9 3.9 0 0 0-.7-2.3a82.5 82.5 0 0 1-6-10.4a3.7 3.7 0 0 0-1.7-1.8l-24.3-13.5a97.5 97.5 0 0 1 0-38.8l24.3-13.5a3.7 3.7 0 0 0 1.7-1.8a71.9 71.9 0 0 1 6-10.4a3.9 3.9 0 0 0 .7-2.3l-.5-27.8a98.7 98.7 0 0 1 33.6-19.5l23.9 14.3a3.5 3.5 0 0 0 2.4.6a80.1 80.1 0 0 1 12 0a3.7 3.7 0 0 0 2.3-.5l23.9-14.4a101.3 101.3 0 0 1 33.7 19.4l-.5 27.9a3.9 3.9 0 0 0 .7 2.3a82.5 82.5 0 0 1 6 10.4a3.7 3.7 0 0 0 1.7 1.8l24.3 13.5a97.5 97.5 0 0 1 0 38.8Z"></path></svg>