<svg xmlns="http://www.w3.org/2000/svg" xmlns:xlink="http://www.w3.org/1999/xlink" aria-hidden="true" role="img" class="iconify iconify--ph" width="1em" height="1em" preserveAspectRatio="xMidYMid meet" viewBox="0 0 256 256"><path fill="currentColor" d="M211.8 133.1c.3-3.4 0-10.2 0-10.2l16.6-22.1a103.2 103.2 0 0 0-10.2-24.6l-27.3-3.9q-3.5-3.7-7.2-7.2l-3.9-27.3a102.2 102.2 0 0 0-24.6-10.2l-22.1 16.6a57.9 57.9 0 0 0-10.2 0l-22.1-16.6a103.2 103.2 0 0 0-24.6 10.2l-3.9 27.3q-3.7 3.5-7.2 7.2l-27.3 3.9a102.2 102.2 0 0 0-10.2 24.6l16.6 22.1c-.3 3.4 0 10.2 0 10.2l-16.6 22.1a103.2 103.2 0 0 0 10.2 24.6l27.3 3.9q3.5 3.8 7.2 7.2l3.9 27.3a102.2 102.2 0 0 0 24.6 10.2l22.1-16.6a57.9 57.9 0 0 0 10.2 0l22.1 16.6a103.2 103.2 0 0 0 24.6-10.2l3.9-27.3c2.5-2.3 7.2-7.2 7.2-7.2l27.3-3.9a102.2 102.2 0 0 0 10.2-24.6ZM128 176a48 48 0 1 1 48-48a48 48 0 0 1-48 48Z" opacity=".2"></path><path fill="currentColor" d="M128 72a56 56 0 1 0 56 56a56 56 0 0 0-56-56Zm0 96a40 40 0 1 1 40-40a40 40 0 0 1-40 40Zm106.8-17.6l-14.9-19.8c.1-1.8 0-3.7 0-5.1l14.9-19.9a7.8 7.8 0 0 0 1.3-6.9a114.8 114.8 0 0 0-10.9-26.4a8.2 8.2 0 0 0-5.8-4l-24.5-3.5l-3.7-3.7l-3.5-24.5a8.2 8.2 0 0 0-4-5.8a114.8 114.8 0 0 0-26.4-10.9a7.8 7.8 0 0 0-6.9 1.3L130.6 36h-5.2l-19.8-14.8a7.8 7.8 0 0 0-6.9-1.3a114.8 114.8 0 0 0-26.4 10.9a8.2 8.2 0 0 0-4 5.8l-3.5 24.5l-3.7 3.7l-24.5 3.5a8.2 8.2 0 0 0-5.8 4a114.8 114.8 0 0 0-10.9 26.4a7.8 7.8 0 0 0 1.3 6.9l14.9 19.8v5.1l-14.9 19.9a7.8 7.8 0 0 0-1.3 6.9a114.8 114.8 0 0 0 10.9 26.4a8.2 8.2 0 0 0 5.8 4l24.5 3.5l3.7 3.7l3.5 24.5a8.2 8.2 0 0 0 4 5.8a114.8 114.8 0 0 0 26.4 10.9a7.6 7.6 0 0 0 2.1.3a7.7 7.7 0 0 0 4.8-1.6l19.8-14.8h5.2l19.8 14.8a7.8 7.8 0 0 0 6.9 1.3a114.8 114.8 0 0 0 26.4-10.9a8.2 8.2 0 0 0 4-5.8l3.5-24.6c1.2-1.2 2.6-2.5 3.6-3.6l24.6-3.5a8.2 8.2 0 0 0 5.8-4a114.8 114.8 0 0 0 10.9-26.4a7.8 7.8 0 0 0-1.3-6.9Zm-21.7 22l-23.3 3.3a8.3 8.3 0 0 0-4.7 2.5c-1.2 1.3-4.9 5.1-6.7 6.7a8 8 0 0 0-2.7 4.9l-3.3 23.3a88.6 88.6 0 0 1-15.6 6.5l-18.9-14.2a7.7 7.7 0 0 0-5.3-1.5h-9.2a7.7 7.7 0 0 0-5.3 1.5l-18.9 14.2a88.6 88.6 0 0 1-15.6-6.5l-3.3-23.3a8 8 0 0 0-2.7-4.9a66.5 66.5 0 0 1-6.5-6.5a8 8 0 0 0-4.9-2.7l-23.3-3.3a96.9 96.9 0 0 1-6.5-15.6l14.2-18.9a8.8 8.8 0 0 0 1.6-5c-.1-1.8-.2-7-.1-9.5a7.7 7.7 0 0 0-1.5-5.3L36.4 99.2a96.9 96.9 0 0 1 6.5-15.6l23.3-3.3a8 8 0 0 0 4.9-2.7a66.5 66.5 0 0 1 6.5-6.5a8 8 0 0 0 2.7-4.9l3.3-23.3a96.9 96.9 0 0 1 15.6-6.5l18.9 14.2a7.7 7.7 0 0 0 5.3 1.5c3-.1 6.2-.1 9.2 0a7.7 7.7 0 0 0 5.3-1.5l18.9-14.2a88.6 88.6 0 0 1 15.6 6.5l3.3 23.3a8 8 0 0 0 2.7 4.9a66.5 66.5 0 0 1 6.5 6.5a8 8 0 0 0 4.9 2.7l23.3 3.3a88.6 88.6 0 0 1 6.5 15.6l-14.2 18.9a8.8 8.8 0 0 0-1.6 5c.1 1.8.2 7 .1 9.5a7.7 7.7 0 0 0 1.5 5.3l14.2 18.9a88.6 88.6 0 0 1-6.5 15.6Z"></path></svg>