<svg xmlns="http://www.w3.org/2000/svg" xmlns:xlink="http://www.w3.org/1999/xlink" aria-hidden="true" role="img" class="iconify iconify--ph" width="1em" height="1em" preserveAspectRatio="xMidYMid meet" viewBox="0 0 256 256"><path fill="currentColor" d="M128 72a56 56 0 1 0 56 56a56 56 0 0 0-56-56Zm0 88a32 32 0 1 1 32-32a32.1 32.1 0 0 1-32 32Zm113.4-56.6a11.9 11.9 0 0 0-5.9-7.9l-22.8-12.6c-1-2-2.1-3.9-3.2-5.7l.4-26a12 12 0 0 0-3.9-9.1a116 116 0 0 0-42.6-24.6a12 12 0 0 0-9.8 1.2L131.3 32h-6.6l-22.3-13.3a12.1 12.1 0 0 0-9.8-1.2A116 116 0 0 0 50 42.1a12 12 0 0 0-3.9 9.1l.4 26c-1.1 1.8-2.2 3.7-3.2 5.7L20.5 95.5a12.1 12.1 0 0 0-5.9 7.9a116.6 116.6 0 0 0 0 49.2a11.9 11.9 0 0 0 5.9 7.9l22.8 12.6c1 2 2.1 3.9 3.2 5.7l-.4 26a12 12 0 0 0 3.9 9.1a116 116 0 0 0 42.6 24.6a12 12 0 0 0 9.8-1.2l22.3-13.3h6.6l22.3 13.3a11.5 11.5 0 0 0 6.2 1.8a11.3 11.3 0 0 0 3.6-.6a116 116 0 0 0 42.6-24.6a12 12 0 0 0 3.9-9.1l-.4-26c1.1-1.8 2.2-3.7 3.2-5.7l22.8-12.6a12.1 12.1 0 0 0 5.9-7.9a116.6 116.6 0 0 0 0-49.2Zm-22.5 38.9l-21 11.6a12.2 12.2 0 0 0-5 5.3a79 79 0 0 1-5.4 9.4a12 12 0 0 0-2.1 6.9l.4 24.1a93.7 93.7 0 0 1-24.7 14.3l-20.6-12.4a12.3 12.3 0 0 0-6.2-1.7h-.9a64.9 64.9 0 0 1-10.8 0a11.9 11.9 0 0 0-7.1 1.7l-20.6 12.4a92.1 92.1 0 0 1-24.7-14.3l.4-24a12.3 12.3 0 0 0-2.1-7a79 79 0 0 1-5.4-9.4a12.7 12.7 0 0 0-5-5.3l-21-11.6a91.4 91.4 0 0 1 0-28.6l21-11.6a12.2 12.2 0 0 0 5-5.3a79 79 0 0 1 5.4-9.4a12 12 0 0 0 2.1-6.9l-.4-24.1a93.7 93.7 0 0 1 24.7-14.3l20.6 12.4a11.7 11.7 0 0 0 7.1 1.7a64.9 64.9 0 0 1 10.8 0a11.9 11.9 0 0 0 7.1-1.7l20.6-12.4a92.1 92.1 0 0 1 24.7 14.3l-.4 24a12.3 12.3 0 0 0 2.1 7a79 79 0 0 1 5.4 9.4a12.7 12.7 0 0 0 5 5.3l21 11.6a91.4 91.4 0 0 1 0 28.6Z"></path></svg>