<svg xmlns="http://www.w3.org/2000/svg" xmlns:xlink="http://www.w3.org/1999/xlink" aria-hidden="true" role="img" class="iconify iconify--ph" width="1em" height="1em" preserveAspectRatio="xMidYMid meet" viewBox="0 0 256 256"><path fill="currentColor" d="M141.3 205.3a64.1 64.1 0 1 1 0-90.6a64.3 64.3 0 0 1 0 90.6Z" opacity=".2"></path><path fill="currentColor" d="M216 32h-48a8 8 0 0 0 0 16h28.7L168 76.7l-18.3-18.4a8.1 8.1 0 0 0-11.4 11.4L156.7 88l-15.8 15.8a72.2 72.2 0 1 0 11.3 11.3L168 99.3l18.3 18.4a8.2 8.2 0 0 0 11.4 0a8.1 8.1 0 0 0 0-11.4L179.3 88L208 59.3V88a8 8 0 0 0 16 0V40a8 8 0 0 0-8-8Zm-80.4 167.6a56.1 56.1 0 0 1-79.2 0a56 56 0 0 1 79.2-79.2a56 56 0 0 1 0 79.2Z"></path></svg>