<svg xmlns="http://www.w3.org/2000/svg" xmlns:xlink="http://www.w3.org/1999/xlink" aria-hidden="true" role="img" class="iconify iconify--ph" width="1em" height="1em" preserveAspectRatio="xMidYMid meet" viewBox="0 0 256 256"><path fill="currentColor" d="M216 28h-44a12 12 0 0 0 0 24h15l-19 19l-15.5-15.5a12 12 0 0 0-17 17L151 88l-10.4 10.5a75.9 75.9 0 0 0-98.3 7.8A76 76 0 0 0 96 236a76.1 76.1 0 0 0 76-76a76.1 76.1 0 0 0-14.4-44.6L168 105l15.5 15.5a12.1 12.1 0 0 0 17 0a12 12 0 0 0 0-17L185 88l19-19v15a12 12 0 0 0 24 0V40a12 12 0 0 0-12-12Zm-83.2 168.8A52.1 52.1 0 1 1 148 160a52.3 52.3 0 0 1-15.2 36.8Z"></path></svg>