<svg xmlns="http://www.w3.org/2000/svg" xmlns:xlink="http://www.w3.org/1999/xlink" aria-hidden="true" role="img" class="iconify iconify--ph" width="1em" height="1em" preserveAspectRatio="xMidYMid meet" viewBox="0 0 256 256"><path fill="currentColor" d="M216 34h-48a6 6 0 0 0 0 12h33.5L168 79.5l-19.8-19.7a5.9 5.9 0 0 0-8.4 8.4L159.5 88l-18.4 18.5a68.9 68.9 0 1 0 8.5 8.4L168 96.5l19.8 19.7a5.9 5.9 0 1 0 8.4-8.4L176.5 88L210 54.5V88a6 6 0 0 0 12 0V40a6 6 0 0 0-6-6Zm-79 167a58.1 58.1 0 0 1-82 0a58 58 0 1 1 82-82a57.9 57.9 0 0 1 0 82Z"></path></svg>