<svg xmlns="http://www.w3.org/2000/svg" xmlns:xlink="http://www.w3.org/1999/xlink" aria-hidden="true" role="img" class="iconify iconify--ph" width="1em" height="1em" preserveAspectRatio="xMidYMid meet" viewBox="0 0 256 256"><path fill="currentColor" d="M134 90.3v-35L160.4 73a5.8 5.8 0 0 0 3.3 1a6 6 0 0 0 5-2.7a6.1 6.1 0 0 0-1.6-8.3l-28.3-19l28.3-19a6.1 6.1 0 0 0 1.6-8.3a6 6 0 0 0-8.3-1.7L128 36.8L95.6 15a6 6 0 0 0-8.3 1.7a6.1 6.1 0 0 0 1.6 8.3l28.3 19l-28.3 19a6.1 6.1 0 0 0-1.6 8.3a6 6 0 0 0 5 2.7a5.8 5.8 0 0 0 3.3-1L122 55.3v35a74 74 0 1 0 12 0ZM128 226a62 62 0 1 1 62-62a62.1 62.1 0 0 1-62 62Z"></path></svg>