<svg xmlns="http://www.w3.org/2000/svg" xmlns:xlink="http://www.w3.org/1999/xlink" aria-hidden="true" role="img" class="iconify iconify--ph" width="1em" height="1em" preserveAspectRatio="xMidYMid meet" viewBox="0 0 256 256"><path fill="currentColor" d="M154.9 202.9a72 72 0 1 1 0-101.8a72 72 0 0 1 0 101.8Z" opacity=".2"></path><path fill="currentColor" d="M216 32h-48a8 8 0 0 0 0 16h28.7l-42.1 42.1a80 80 0 1 0 11.3 11.3L208 59.3V88a8 8 0 0 0 16 0V40a8 8 0 0 0-8-8Zm-66.7 165.3a64 64 0 1 1 0-90.6a64.3 64.3 0 0 1 0 90.6Z"></path></svg>