<svg xmlns="http://www.w3.org/2000/svg" xmlns:xlink="http://www.w3.org/1999/xlink" aria-hidden="true" role="img" class="iconify iconify--ph" width="1em" height="1em" preserveAspectRatio="xMidYMid meet" viewBox="0 0 256 256"><path fill="currentColor" d="M208 20h-40a4 4 0 0 0 0 8h30.3l-33.9 34A64 64 0 1 0 116 171.9V200H88a4 4 0 0 0 0 8h28v24a4 4 0 0 0 8 0v-24h28a4 4 0 0 0 0-8h-28v-28.1a64.2 64.2 0 0 0 60-63.9a63.2 63.2 0 0 0-14.2-40.1L204 33.7V64a4 4 0 0 0 8 0V24a4 4 0 0 0-4-4Zm-88 144a56 56 0 1 1 56-56a56 56 0 0 1-56 56Z"></path></svg>