<svg xmlns="http://www.w3.org/2000/svg" xmlns:xlink="http://www.w3.org/1999/xlink" aria-hidden="true" role="img" class="iconify iconify--ph" width="1em" height="1em" preserveAspectRatio="xMidYMid meet" viewBox="0 0 256 256"><path fill="currentColor" d="M200 96a72 72 0 1 1-72-72a72 72 0 0 1 72 72Z" opacity=".2"></path><path fill="currentColor" d="M208 96a80 80 0 1 0-88 79.6V200H88a8 8 0 0 0 0 16h32v24a8 8 0 0 0 16 0v-24h32a8 8 0 0 0 0-16h-32v-24.4A80.1 80.1 0 0 0 208 96ZM64 96a64 64 0 1 1 64 64a64.1 64.1 0 0 1-64-64Z"></path></svg>