<svg xmlns="http://www.w3.org/2000/svg" xmlns:xlink="http://www.w3.org/1999/xlink" aria-hidden="true" role="img" class="iconify iconify--ph" width="1em" height="1em" preserveAspectRatio="xMidYMid meet" viewBox="0 0 256 256"><path fill="currentColor" d="M208 16h-40a8 8 0 0 0 0 16h20.7l-24.4 24.4A68 68 0 1 0 112 175.5V196H88a8 8 0 0 0 0 16h24v20a8 8 0 0 0 16 0v-20h24a8 8 0 0 0 0-16h-24v-20.5a67.9 67.9 0 0 0 47.1-107.3L200 43.3V64a8 8 0 0 0 16 0V24a8 8 0 0 0-8-8Zm-88 144a52 52 0 1 1 52-52a52 52 0 0 1-52 52Z"></path></svg>