<svg xmlns="http://www.w3.org/2000/svg" xmlns:xlink="http://www.w3.org/1999/xlink" aria-hidden="true" role="img" class="iconify iconify--ph" width="1em" height="1em" preserveAspectRatio="xMidYMid meet" viewBox="0 0 256 256"><path fill="currentColor" d="M208 12h-36a12 12 0 0 0 0 24h7l-15 15.1A71.2 71.2 0 0 0 120 36a72 72 0 0 0-12 143v13H88a12 12 0 0 0 0 24h20v16a12 12 0 0 0 24 0v-16h20a12 12 0 0 0 0-24h-20v-13a72 72 0 0 0 48.3-110.3L196 53v7a12 12 0 0 0 24 0V24a12 12 0 0 0-12-12Zm-88 144a48 48 0 1 1 48-48a48 48 0 0 1-48 48Z"></path></svg>