<svg xmlns="http://www.w3.org/2000/svg" xmlns:xlink="http://www.w3.org/1999/xlink" aria-hidden="true" role="img" class="iconify iconify--ph" width="1em" height="1em" preserveAspectRatio="xMidYMid meet" viewBox="0 0 256 256"><path fill="currentColor" d="M136 88.4V59l23.3 15.6a7.2 7.2 0 0 0 4.4 1.4a8 8 0 0 0 4.5-14.6L142.3 44l25.9-17.4a8 8 0 1 0-8.9-13.2l-31.3 21l-31.3-21a8 8 0 1 0-8.9 13.2L113.7 44L87.8 61.4A8 8 0 0 0 92.3 76a7.2 7.2 0 0 0 4.4-1.4L120 59v29.4a76 76 0 1 0 16 0ZM128 224a60 60 0 1 1 60-60a60 60 0 0 1-60 60Z"></path><circle cx="128" cy="164" r="68" fill="currentColor" opacity=".2"></circle></svg>