<svg xmlns="http://www.w3.org/2000/svg" xmlns:xlink="http://www.w3.org/1999/xlink" aria-hidden="true" role="img" class="iconify iconify--ph" width="1em" height="1em" preserveAspectRatio="xMidYMid meet" viewBox="0 0 256 256"><path fill="currentColor" d="M140 84.9V63.5l17.4 10.7a12.3 12.3 0 0 0 6.3 1.8a11.8 11.8 0 0 0 10.2-5.7a12 12 0 0 0-3.9-16.5L150.9 42L170 30.2a12 12 0 0 0-12.6-20.4L128 27.9L98.6 9.8A12 12 0 0 0 86 30.2L105.1 42L86 53.8a12 12 0 0 0-3.9 16.5A11.8 11.8 0 0 0 92.3 76a12.3 12.3 0 0 0 6.3-1.8L116 63.5v21.4a80 80 0 1 0 24 0ZM128 220a56 56 0 1 1 56-56a56 56 0 0 1-56 56Z"></path></svg>