<svg xmlns="http://www.w3.org/2000/svg" xmlns:xlink="http://www.w3.org/1999/xlink" aria-hidden="true" role="img" class="iconify iconify--ph" width="1em" height="1em" preserveAspectRatio="xMidYMid meet" viewBox="0 0 256 256"><path fill="currentColor" d="M216 36h-48a4 4 0 0 0 0 8h38.3L168 82.3l-21.2-21.1a4 4 0 0 0-5.6 5.6L162.3 88l-21.1 21.2a68 68 0 1 0 5.6 5.6L168 93.7l21.2 21.1a3.9 3.9 0 0 0 5.6 0a3.9 3.9 0 0 0 0-5.6L173.7 88L212 49.7V88a4 4 0 0 0 8 0V40a4 4 0 0 0-4-4Zm-77.6 166.4a60 60 0 0 1-84.8 0a60 60 0 1 1 84.8-84.8a59.9 59.9 0 0 1 0 84.8Z"></path></svg>