<svg xmlns="http://www.w3.org/2000/svg" xmlns:xlink="http://www.w3.org/1999/xlink" aria-hidden="true" role="img" class="iconify iconify--ph" width="1em" height="1em" preserveAspectRatio="xMidYMid meet" viewBox="0 0 256 256"><path fill="currentColor" d="M132 92.1V51.5l29.5 19.8a3.6 3.6 0 0 0 2.2.7a3.8 3.8 0 0 0 3.3-1.8a3.8 3.8 0 0 0-1.1-5.5L135.2 44l30.7-20.7a3.8 3.8 0 0 0 1.1-5.5a3.8 3.8 0 0 0-5.5-1.1L128 39.2L94.5 16.7a3.8 3.8 0 0 0-5.5 1.1a3.8 3.8 0 0 0 1.1 5.5L120.8 44L90.1 64.7a3.8 3.8 0 0 0-1.1 5.5a3.8 3.8 0 0 0 3.3 1.8a3.6 3.6 0 0 0 2.2-.7L124 51.5v40.6a72 72 0 1 0 8 0ZM128 228a64 64 0 1 1 64-64a64.1 64.1 0 0 1-64 64Z"></path></svg>