<svg xmlns="http://www.w3.org/2000/svg" xmlns:xlink="http://www.w3.org/1999/xlink" aria-hidden="true" role="img" class="iconify iconify--ph" width="1em" height="1em" preserveAspectRatio="xMidYMid meet" viewBox="0 0 256 256"><path fill="currentColor" d="M128 24a96.2 96.2 0 0 0-96 96v96a8.1 8.1 0 0 0 13.1 6.2l24.2-19.9l24.3 19.9a8 8 0 0 0 10.1 0l24.3-19.9l24.3 19.9a8 8 0 0 0 10.1 0l24.3-19.9l24.2 19.9a7.9 7.9 0 0 0 8.5 1a7.9 7.9 0 0 0 4.6-7.2v-96a96.2 96.2 0 0 0-96-96Zm-28 104a12 12 0 1 1 12-12a12 12 0 0 1-12 12Zm56 0a12 12 0 1 1 12-12a12 12 0 0 1-12 12Z"></path></svg>