<svg xmlns="http://www.w3.org/2000/svg" xmlns:xlink="http://www.w3.org/1999/xlink" aria-hidden="true" role="img" class="iconify iconify--ph" width="1em" height="1em" preserveAspectRatio="xMidYMid meet" viewBox="0 0 256 256"><path fill="currentColor" d="M112 116a12 12 0 1 1-12-12a12 12 0 0 1 12 12Zm44-12a12 12 0 1 0 12 12a12 12 0 0 0-12-12Zm68 16v96a7.9 7.9 0 0 1-4.6 7.2a7.9 7.9 0 0 1-8.5-1l-24.2-19.9l-24.3 19.9a8 8 0 0 1-10.1 0L128 202.3l-24.3 19.9a8 8 0 0 1-10.1 0l-24.3-19.9l-24.2 19.9A8.1 8.1 0 0 1 32 216v-96a96 96 0 0 1 192 0Zm-16 0a80 80 0 0 0-160 0v79.1l16.3-13.3a8 8 0 0 1 10.1 0l24.3 19.9l24.2-19.9a8.1 8.1 0 0 1 10.2 0l24.2 19.9l24.3-19.9a8 8 0 0 1 10.1 0l16.3 13.3Z"></path></svg>