<svg xmlns="http://www.w3.org/2000/svg" xmlns:xlink="http://www.w3.org/1999/xlink" aria-hidden="true" role="img" class="iconify iconify--ph" width="1em" height="1em" preserveAspectRatio="xMidYMid meet" viewBox="0 0 256 256"><path fill="currentColor" d="M108 116a8 8 0 1 1-8-8a8 8 0 0 1 8 8Zm48-8a8 8 0 1 0 8 8a8 8 0 0 0-8-8Zm64 12v96a4 4 0 0 1-2.3 3.6a3.3 3.3 0 0 1-1.7.4a3.8 3.8 0 0 1-2.5-.9l-26.8-21.9l-26.8 21.9a4.1 4.1 0 0 1-5.1 0L128 197.2l-26.8 21.9a4.1 4.1 0 0 1-5.1 0l-26.8-21.9l-26.8 21.9a3.8 3.8 0 0 1-4.2.5A4 4 0 0 1 36 216v-96a92 92 0 0 1 184 0Zm-8 0a84 84 0 0 0-168 0v87.6l22.8-18.7a4.1 4.1 0 0 1 5.1 0l26.8 21.9l26.8-21.9a3.9 3.9 0 0 1 5 0l26.8 21.9l26.8-21.9a4.1 4.1 0 0 1 5.1 0l22.8 18.7Z"></path></svg>