<svg xmlns="http://www.w3.org/2000/svg" xmlns:xlink="http://www.w3.org/1999/xlink" aria-hidden="true" role="img" class="iconify iconify--ph" width="1em" height="1em" preserveAspectRatio="xMidYMid meet" viewBox="0 0 256 256"><path fill="currentColor" d="M110 116a10 10 0 1 1-10-10a10 10 0 0 1 10 10Zm46-10a10 10 0 1 0 10 10a10 10 0 0 0-10-10Zm66 14v96a6 6 0 0 1-3.4 5.4a5.8 5.8 0 0 1-2.6.6a5.9 5.9 0 0 1-3.8-1.4l-25.5-20.8l-25.6 20.8a5.8 5.8 0 0 1-7.6 0L128 199.8l-25.5 20.8a5.8 5.8 0 0 1-7.6 0l-25.6-20.8l-25.5 20.8A6 6 0 0 1 34 216v-96a94 94 0 0 1 188 0Zm-12 0a82 82 0 0 0-164 0v83.3l19.5-15.9a5.8 5.8 0 0 1 7.6 0l25.6 20.8l25.5-20.8a5.9 5.9 0 0 1 7.6 0l25.5 20.8l25.6-20.8a5.8 5.8 0 0 1 7.6 0l19.5 15.9Z"></path></svg>