<svg xmlns="http://www.w3.org/2000/svg" xmlns:xlink="http://www.w3.org/1999/xlink" aria-hidden="true" role="img" class="iconify iconify--ph" width="1em" height="1em" preserveAspectRatio="xMidYMid meet" viewBox="0 0 256 256"><path fill="currentColor" d="M140 72v112a4 4 0 0 1-8 0V72a4 4 0 0 1 8 0Zm88-4h-48a4 4 0 0 0-4 4v112a4 4 0 0 0 8 0v-52h32a4 4 0 0 0 0-8h-32V76h44a4 4 0 0 0 0-8ZM96 124H72a4 4 0 0 0 0 8h20v20a28 28 0 0 1-56 0v-48a28 28 0 0 1 55.1-7a4 4 0 1 0 7.8-2a36 36 0 0 0-70.9 9v48a36 36 0 0 0 72 0v-24a4 4 0 0 0-4-4Z"></path></svg>