<svg xmlns="http://www.w3.org/2000/svg" xmlns:xlink="http://www.w3.org/1999/xlink" aria-hidden="true" role="img" class="iconify iconify--ph" width="1em" height="1em" preserveAspectRatio="xMidYMid meet" viewBox="0 0 256 256"><path fill="currentColor" d="M148 72v112a12 12 0 0 1-24 0V72a12 12 0 0 1 24 0Zm80-12h-48a12 12 0 0 0-12 12v112a12 12 0 0 0 24 0v-44h24a12 12 0 0 0 0-24h-24V84h36a12 12 0 0 0 0-24ZM96 120H72a12 12 0 0 0 0 24h12v8a20 20 0 0 1-40 0v-48a20 20 0 0 1 39.4-5a12 12 0 0 0 23.2-6A44 44 0 0 0 20 104v48a44 44 0 0 0 88 0v-20a12 12 0 0 0-12-12Z"></path></svg>