<svg xmlns="http://www.w3.org/2000/svg" xmlns:xlink="http://www.w3.org/1999/xlink" aria-hidden="true" role="img" class="iconify iconify--ph" width="1em" height="1em" preserveAspectRatio="xMidYMid meet" viewBox="0 0 256 256"><path fill="currentColor" d="M142 72v112a6 6 0 0 1-12 0V72a6 6 0 0 1 12 0Zm86-6h-48a6 6 0 0 0-6 6v112a6 6 0 0 0 12 0v-50h30a6 6 0 0 0 0-12h-30V78h42a6 6 0 0 0 0-12ZM96 122H72a6 6 0 0 0 0 12h18v18a26 26 0 0 1-52 0v-48a26 26 0 0 1 51.2-6.5a6 6 0 0 0 11.6-3A38 38 0 0 0 26 104v48a38 38 0 0 0 76 0v-24a6 6 0 0 0-6-6Z"></path></svg>