<svg xmlns="http://www.w3.org/2000/svg" xmlns:xlink="http://www.w3.org/1999/xlink" aria-hidden="true" role="img" class="iconify iconify--ph" width="1em" height="1em" preserveAspectRatio="xMidYMid meet" viewBox="0 0 256 256"><path fill="currentColor" d="M144 72v112a8 8 0 0 1-16 0V72a8 8 0 0 1 16 0Zm84-8h-48a8 8 0 0 0-8 8v112a8 8 0 0 0 16 0v-48h28a8 8 0 0 0 0-16h-28V80h40a8 8 0 0 0 0-16ZM96 120H72a8 8 0 0 0 0 16h16v16a24 24 0 0 1-48 0v-48a24 24 0 0 1 47.2-6a8 8 0 0 0 15.5-4A40 40 0 0 0 24 104v48a40 40 0 0 0 80 0v-24a8 8 0 0 0-8-8Z"></path></svg>