<svg xmlns="http://www.w3.org/2000/svg" xmlns:xlink="http://www.w3.org/1999/xlink" aria-hidden="true" role="img" class="iconify iconify--ph" width="1em" height="1em" preserveAspectRatio="xMidYMid meet" viewBox="0 0 256 256"><path fill="currentColor" d="M216 74h-39.7l1.2-1.1a30 30 0 1 0-42.4-42.4a33.9 33.9 0 0 0-7.1 11.7a33.9 33.9 0 0 0-7.1-11.7a30 30 0 0 0-42.4 42.4l1.2 1.1H40a14 14 0 0 0-14 14v32a14 14 0 0 0 14 14h2v66a14 14 0 0 0 14 14h144a14 14 0 0 0 14-14v-66h2a14 14 0 0 0 14-14V88a14 14 0 0 0-14-14Zm-72.4-35A18 18 0 1 1 169 64.4c-5.9 5.9-22.5 8.7-34.8 9.4c.7-12.3 3.5-28.9 9.4-34.8ZM87 39a18 18 0 0 1 25.4 0c5.9 5.9 8.7 22.5 9.4 34.8c-12.3-.7-28.9-3.5-34.8-9.4A18 18 0 0 1 87 39Zm-49 81V88a2 2 0 0 1 2-2h82v36H40a2 2 0 0 1-2-2Zm16 80v-66h68v68H56a2 2 0 0 1-2-2Zm148 0a2 2 0 0 1-2 2h-66v-68h68Zm16-80a2 2 0 0 1-2 2h-82V86h82a2 2 0 0 1 2 2Z"></path></svg>