<svg xmlns="http://www.w3.org/2000/svg" xmlns:xlink="http://www.w3.org/1999/xlink" aria-hidden="true" role="img" class="iconify iconify--ph" width="1em" height="1em" preserveAspectRatio="xMidYMid meet" viewBox="0 0 256 256"><path fill="currentColor" d="M216 72h-35a32 32 0 0 0-47.3-42.9a29.2 29.2 0 0 0-5.7 8.2a29.2 29.2 0 0 0-5.7-8.2A32 32 0 0 0 75 72H40a16 16 0 0 0-16 16v32a16 16 0 0 0 16 16v64a16 16 0 0 0 16 16h144a16 16 0 0 0 16-16v-64a16 16 0 0 0 16-16V88a16 16 0 0 0-16-16Zm-71-31.6A16 16 0 1 1 167.6 63c-4.9 5-19.2 7.7-31.3 8.7c1-12.1 3.7-26.4 8.7-31.3Zm-56.6 0a16.1 16.1 0 0 1 22.6 0c5 4.9 7.7 19.2 8.7 31.3c-12.1-1-26.4-3.7-31.3-8.7a16.1 16.1 0 0 1 0-22.6ZM216 120h-80v72a8 8 0 0 1-16 0v-72H40V88h80v32h16V88h80v32Z"></path></svg>