<svg xmlns="http://www.w3.org/2000/svg" xmlns:xlink="http://www.w3.org/1999/xlink" aria-hidden="true" role="img" class="iconify iconify--ph" width="1em" height="1em" preserveAspectRatio="xMidYMid meet" viewBox="0 0 256 256"><path fill="currentColor" d="M216 68h-27.6a36 36 0 0 0-57.6-41.7a30.4 30.4 0 0 0-2.8 3.3a30.4 30.4 0 0 0-2.8-3.3A36 36 0 0 0 67.6 68H40a20.1 20.1 0 0 0-20 20v32a20.1 20.1 0 0 0 16 19.6V200a20.1 20.1 0 0 0 20 20h144a20.1 20.1 0 0 0 20-20v-60.4a20.1 20.1 0 0 0 16-19.6V88a20.1 20.1 0 0 0-20-20Zm-4 48h-72V92h72Zm-64.2-72.8a12 12 0 0 1 8.5-3.5a12 12 0 0 1 8.5 20.5c-3.3 3.3-13.5 5.8-24.1 7c1.4-11.8 4.3-21.2 7.1-24Zm-56.6 0a12.2 12.2 0 0 1 17 0c3.3 3.3 5.8 13.5 7 24.1c-11.8-1.4-21.2-4.3-24-7.1a12.2 12.2 0 0 1 0-17ZM44 92h72v24H44Zm16 48h56v56H60Zm80 56v-56h56v56Z"></path></svg>