<svg xmlns="http://www.w3.org/2000/svg" xmlns:xlink="http://www.w3.org/1999/xlink" aria-hidden="true" role="img" class="iconify iconify--ph" width="1em" height="1em" preserveAspectRatio="xMidYMid meet" viewBox="0 0 256 256"><path fill="currentColor" d="M104 68a36 36 0 1 0-44 35.1v49.8a36 36 0 1 0 16 0v-49.8A36.1 36.1 0 0 0 104 68ZM88 188a20 20 0 1 1-20-20a20.1 20.1 0 0 1 20 20Zm136 0a36 36 0 1 1-44-35.1v-33a40 40 0 0 0-11.7-28.3L144 67.3V88a8 8 0 0 1-16 0V48a8 8 0 0 1 8-8h40a8 8 0 0 1 0 16h-20.7l24.3 24.3a55.5 55.5 0 0 1 16.4 39.6v33a36.1 36.1 0 0 1 28 35.1Z"></path></svg>