<svg xmlns="http://www.w3.org/2000/svg" xmlns:xlink="http://www.w3.org/1999/xlink" aria-hidden="true" role="img" class="iconify iconify--ph" width="1em" height="1em" preserveAspectRatio="xMidYMid meet" viewBox="0 0 256 256"><path fill="currentColor" d="M220 68a32 32 0 1 0-36 31.7v4.3a20.1 20.1 0 0 1-20 20H92a27.9 27.9 0 0 0-20 8.4V99.7a32 32 0 1 0-8 0v56.6a32 32 0 1 0 8 0V152a20.1 20.1 0 0 1 20-20h72a28.1 28.1 0 0 0 28-28v-4.3A31.9 31.9 0 0 0 220 68ZM44 68a24 24 0 1 1 24 24a24.1 24.1 0 0 1-24-24Zm48 120a24 24 0 1 1-24-24a24.1 24.1 0 0 1 24 24Zm96-96a24 24 0 1 1 24-24a24.1 24.1 0 0 1-24 24Z"></path></svg>