<svg xmlns="http://www.w3.org/2000/svg" xmlns:xlink="http://www.w3.org/1999/xlink" aria-hidden="true" role="img" class="iconify iconify--ph" width="1em" height="1em" preserveAspectRatio="xMidYMid meet" viewBox="0 0 256 256"><path fill="currentColor" d="M224 68a36 36 0 1 0-44 35.1v.9a16 16 0 0 1-16 16H92a16 16 0 0 1-16-16v-.9a36 36 0 1 0-16 0v.9a32.1 32.1 0 0 0 32 32h28v16.9a36 36 0 1 0 16 0V136h28a32 32 0 0 0 32-32v-.9A36.1 36.1 0 0 0 224 68Zm-76 120a20 20 0 1 1-20-20a20.1 20.1 0 0 1 20 20Z"></path></svg>