<svg xmlns="http://www.w3.org/2000/svg" xmlns:xlink="http://www.w3.org/1999/xlink" aria-hidden="true" role="img" class="iconify iconify--ph" width="1em" height="1em" preserveAspectRatio="xMidYMid meet" viewBox="0 0 256 256"><path fill="currentColor" d="M100 68a32 32 0 1 0-36 31.7v56.6a32 32 0 1 0 8 0V99.7A31.9 31.9 0 0 0 100 68Zm-56 0a24 24 0 1 1 24 24a24.1 24.1 0 0 1-24-24Zm48 120a24 24 0 1 1-24-24a24.1 24.1 0 0 1 24 24Zm100-31.7v-36.4a51.7 51.7 0 0 0-15.2-36.8L145.7 52H176a4 4 0 0 0 0-8h-40a4 4 0 0 0-4 4v40a4 4 0 0 0 8 0V57.7l31.1 31.1a43.6 43.6 0 0 1 12.9 31.1v36.4a32 32 0 1 0 8 0Zm-4 55.7a24 24 0 1 1 24-24a24.1 24.1 0 0 1-24 24Z"></path></svg>