<svg xmlns="http://www.w3.org/2000/svg" xmlns:xlink="http://www.w3.org/1999/xlink" aria-hidden="true" role="img" class="iconify iconify--ph" width="1em" height="1em" preserveAspectRatio="xMidYMid meet" viewBox="0 0 256 256"><path fill="currentColor" d="M108 68a40 40 0 1 0-52 38.2v43.6a40 40 0 1 0 24 0v-43.6A40.2 40.2 0 0 0 108 68ZM68 52a16 16 0 1 1-16 16a16 16 0 0 1 16-16Zm0 152a16 16 0 1 1 16-16a16 16 0 0 1-16 16Zm132-54.2v-29.9a59.3 59.3 0 0 0-17.6-42.4L165 60h11a12 12 0 0 0 0-24h-40a12 12 0 0 0-12 12v40a12 12 0 0 0 24 0V77l17.5 17.4a35.9 35.9 0 0 1 10.5 25.5v29.9a40 40 0 1 0 24 0ZM188 204a16 16 0 1 1 16-16a16 16 0 0 1-16 16Z"></path></svg>