<svg xmlns="http://www.w3.org/2000/svg" xmlns:xlink="http://www.w3.org/1999/xlink" aria-hidden="true" role="img" class="iconify iconify--ph" width="1em" height="1em" preserveAspectRatio="xMidYMid meet" viewBox="0 0 256 256"><path fill="currentColor" d="M188 106a34 34 0 0 0-33.9 32h-23.6a42 42 0 0 1-32.3-15.1l-19-22.8a33.9 33.9 0 1 0-17.2 1.4v53a34 34 0 1 0 12 0v-41.9l15 18a54 54 0 0 0 41.5 19.4h25a34 34 0 1 0 32.5-44ZM46 68a22 22 0 1 1 22 22a22.1 22.1 0 0 1-22-22Zm44 120a22 22 0 1 1-22-22a22.1 22.1 0 0 1 22 22Zm98-26a22 22 0 1 1 22-22a22.1 22.1 0 0 1-22 22Z"></path></svg>