<svg xmlns="http://www.w3.org/2000/svg" xmlns:xlink="http://www.w3.org/1999/xlink" aria-hidden="true" role="img" class="iconify iconify--ph" width="1em" height="1em" preserveAspectRatio="xMidYMid meet" viewBox="0 0 256 256"><path fill="currentColor" d="M232 188a36 36 0 1 1-44-35.1v-33a40 40 0 0 0-11.7-28.3L152 67.3V88a8 8 0 0 1-16 0V48a8 8 0 0 1 8-8h40a8 8 0 0 1 0 16h-20.7l24.3 24.3a55.5 55.5 0 0 1 16.4 39.6v33a36.1 36.1 0 0 1 28 35.1Zm-120-28a8 8 0 0 0-8 8v20.7l-24.3-24.3A40 40 0 0 1 68 136.1v-33a36 36 0 1 0-16 0v33a55.5 55.5 0 0 0 16.4 39.6L92.7 200H72a8 8 0 0 0 0 16h40a8 8 0 0 0 8-8v-40a8 8 0 0 0-8-8Z"></path></svg>