<svg xmlns="http://www.w3.org/2000/svg" xmlns:xlink="http://www.w3.org/1999/xlink" aria-hidden="true" role="img" class="iconify iconify--ph" width="1em" height="1em" preserveAspectRatio="xMidYMid meet" viewBox="0 0 256 256"><path fill="currentColor" d="M188 100a40.1 40.1 0 0 0-39.2 32h-18.3a35.9 35.9 0 0 1-27.7-13l-14-16.8a40 40 0 1 0-32.8 4v43.6a40 40 0 1 0 24 0v-20.7l4.4 5.3a59.8 59.8 0 0 0 46.1 21.6h20.9a40 40 0 1 0 36.6-56ZM68 52a16 16 0 1 1-16 16a16 16 0 0 1 16-16Zm0 152a16 16 0 1 1 16-16a16 16 0 0 1-16 16Zm120-48a16 16 0 1 1 16-16a16 16 0 0 1-16 16Z"></path></svg>