<svg xmlns="http://www.w3.org/2000/svg" xmlns:xlink="http://www.w3.org/1999/xlink" aria-hidden="true" role="img" class="iconify iconify--ph" width="1em" height="1em" preserveAspectRatio="xMidYMid meet" viewBox="0 0 256 256"><path fill="currentColor" d="M228 68a40 40 0 1 0-52.2 38.1A12 12 0 0 1 164 116H92a34.4 34.4 0 0 0-12 2.1v-11.9a40 40 0 1 0-24 0v43.6a40.1 40.1 0 1 0 24.2.1A12 12 0 0 1 92 140h72a36 36 0 0 0 35.9-33.8A40.1 40.1 0 0 0 228 68ZM68 52a16 16 0 1 1-16 16a16 16 0 0 1 16-16Zm0 152a16 16 0 1 1 16-16a16 16 0 0 1-16 16ZM188 84a16 16 0 1 1 16-16a16 16 0 0 1-16 16Z"></path></svg>