<svg xmlns="http://www.w3.org/2000/svg" xmlns:xlink="http://www.w3.org/1999/xlink" aria-hidden="true" role="img" class="iconify iconify--ph" width="1em" height="1em" preserveAspectRatio="xMidYMid meet" viewBox="0 0 256 256"><path fill="currentColor" d="M188 34a34 34 0 0 0-6 67.5v2.5a18.1 18.1 0 0 1-18 18H92a29.7 29.7 0 0 0-18 6v-26.5a34 34 0 1 0-12 0v53a34 34 0 1 0 12 0V152a18.1 18.1 0 0 1 18-18h72a30.1 30.1 0 0 0 30-30v-2.5a34 34 0 0 0-6-67.5ZM90 188a22 22 0 1 1-22-22a22.1 22.1 0 0 1 22 22ZM68 90a22 22 0 1 1 22-22a22.1 22.1 0 0 1-22 22Zm120 0a22 22 0 1 1 22-22a22.1 22.1 0 0 1-22 22Z"></path></svg>