<svg xmlns="http://www.w3.org/2000/svg" xmlns:xlink="http://www.w3.org/1999/xlink" aria-hidden="true" role="img" class="iconify iconify--ph" width="1em" height="1em" preserveAspectRatio="xMidYMid meet" viewBox="0 0 256 256"><path fill="currentColor" d="M202 154.5v-34.6a53.7 53.7 0 0 0-15.8-38.2L158.5 54H184a6 6 0 0 0 0-12h-40a6 6 0 0 0-6 6v40a6 6 0 0 0 12 0V62.5l27.7 27.7a41.8 41.8 0 0 1 12.3 29.7v34.6a34 34 0 1 0 12 0Zm-6 55.5a22 22 0 1 1 22-22a22.1 22.1 0 0 1-22 22Zm-84-48a6 6 0 0 0-6 6v25.5l-27.7-27.7A41.8 41.8 0 0 1 66 136.1v-34.6a34 34 0 1 0-12 0v34.6a53.7 53.7 0 0 0 15.8 38.2L97.5 202H72a6 6 0 0 0 0 12h40a6 6 0 0 0 6-6v-40a6 6 0 0 0-6-6ZM38 68a22 22 0 1 1 22 22a22.1 22.1 0 0 1-22-22Z"></path></svg>