<svg xmlns="http://www.w3.org/2000/svg" xmlns:xlink="http://www.w3.org/1999/xlink" aria-hidden="true" role="img" class="iconify iconify--ph" width="1em" height="1em" preserveAspectRatio="xMidYMid meet" viewBox="0 0 256 256"><path fill="currentColor" d="M102 68a34 34 0 1 0-40 33.5v53a34 34 0 1 0 12 0v-53A34.1 34.1 0 0 0 102 68Zm-56 0a22 22 0 1 1 22 22a22.1 22.1 0 0 1-22-22Zm44 120a22 22 0 1 1-22-22a22.1 22.1 0 0 1 22 22Zm104-33.5v-34.6a53.7 53.7 0 0 0-15.8-38.2L150.5 54H176a6 6 0 0 0 0-12h-40a6 6 0 0 0-6 6v40a6 6 0 0 0 12 0V62.5l27.7 27.7a41.8 41.8 0 0 1 12.3 29.7v34.6a34 34 0 1 0 12 0Zm-6 55.5a22 22 0 1 1 22-22a22.1 22.1 0 0 1-22 22Z"></path></svg>