<svg xmlns="http://www.w3.org/2000/svg" xmlns:xlink="http://www.w3.org/1999/xlink" aria-hidden="true" role="img" class="iconify iconify--ph" width="1em" height="1em" preserveAspectRatio="xMidYMid meet" viewBox="0 0 256 256"><path fill="currentColor" d="M216 220a20.1 20.1 0 0 1-20-20v-8a28 28 0 0 0-18.9-26.5A51.9 51.9 0 0 0 204 120v-8a52.7 52.7 0 0 0-8.1-27.8a55.9 55.9 0 0 0-4.4-46.2a4.3 4.3 0 0 0-3.5-2a55.7 55.7 0 0 0-46 24h-28a55.7 55.7 0 0 0-46-24a4.3 4.3 0 0 0-3.5 2a55.9 55.9 0 0 0-4.4 46.2A52.7 52.7 0 0 0 52 112v8a51.9 51.9 0 0 0 26.9 45.5A28 28 0 0 0 60 192v8a20.1 20.1 0 0 1-20 20a4 4 0 0 0 0 8a28.1 28.1 0 0 0 28-28v-8a20.1 20.1 0 0 1 20-20h16v44a20.1 20.1 0 0 1-20 20a4 4 0 0 0 0 8a28.1 28.1 0 0 0 28-28v-44h32v44a28.1 28.1 0 0 0 28 28a4 4 0 0 0 0-8a20.1 20.1 0 0 1-20-20v-44h16a20.1 20.1 0 0 1 20 20v8a28.1 28.1 0 0 0 28 28a4 4 0 0 0 0-8ZM60 120v-8a45.4 45.4 0 0 1 7.7-24.9a4 4 0 0 0 .5-3.8a48.3 48.3 0 0 1 2.1-39.2a47.6 47.6 0 0 1 38.2 22.1a4 4 0 0 0 3.3 1.8h32.4a4 4 0 0 0 3.3-1.8a47.6 47.6 0 0 1 38.2-22.1a48.3 48.3 0 0 1 2.1 39.2a4 4 0 0 0 .5 3.8A45.4 45.4 0 0 1 196 112v8a44 44 0 0 1-44 44h-48a44 44 0 0 1-44-44Z"></path></svg>