<svg xmlns="http://www.w3.org/2000/svg" xmlns:xlink="http://www.w3.org/1999/xlink" aria-hidden="true" role="img" class="iconify iconify--ph" width="1em" height="1em" preserveAspectRatio="xMidYMid meet" viewBox="0 0 256 256"><path fill="currentColor" d="M216 216a16 16 0 0 1-16-16v-8a32.1 32.1 0 0 0-14.8-27a55.8 55.8 0 0 0 22.8-45v-8a58 58 0 0 0-7.7-28.3a59.9 59.9 0 0 0-5.4-47.7a7.8 7.8 0 0 0-6.9-4a59.7 59.7 0 0 0-48 24h-24a59.7 59.7 0 0 0-48-24a7.8 7.8 0 0 0-6.9 4a59.9 59.9 0 0 0-5.4 47.7A58 58 0 0 0 48 112v8a55.8 55.8 0 0 0 22.8 45A32.1 32.1 0 0 0 56 192v8a16 16 0 0 1-16 16a8 8 0 0 0 0 16a32.1 32.1 0 0 0 32-32v-8a16 16 0 0 1 16-16h12v40a16 16 0 0 1-16 16a8 8 0 0 0 0 16a32.1 32.1 0 0 0 32-32v-40h24v40a32.1 32.1 0 0 0 32 32a8 8 0 0 0 0-16a16 16 0 0 1-16-16v-40h12a16 16 0 0 1 16 16v8a32.1 32.1 0 0 0 32 32a8 8 0 0 0 0-16ZM64 120v-8a42.7 42.7 0 0 1 6.9-22.5a7.9 7.9 0 0 0 1.1-7.7a43.7 43.7 0 0 1 .8-33.5a43.6 43.6 0 0 1 32.3 20a8 8 0 0 0 6.7 3.7h32.4a8 8 0 0 0 6.7-3.7a43.6 43.6 0 0 1 32.3-20a43.7 43.7 0 0 1 .8 33.5a8.2 8.2 0 0 0 1.1 7.7A42.7 42.7 0 0 1 192 112v8a40 40 0 0 1-40 40h-48a40 40 0 0 1-40-40Z"></path></svg>