<svg xmlns="http://www.w3.org/2000/svg" xmlns:xlink="http://www.w3.org/1999/xlink" aria-hidden="true" role="img" class="iconify iconify--ph" width="1em" height="1em" preserveAspectRatio="xMidYMid meet" viewBox="0 0 256 256"><path fill="currentColor" d="M236.3 153L209 50.5a10 10 0 0 0-19-.9L168.8 106H87.2L66 49.6a10 10 0 0 0-19 .9L19.7 153a13.9 13.9 0 0 0 5.5 15.1l94.8 65.7a13.4 13.4 0 0 0 6.3 2.3h3.4a13.4 13.4 0 0 0 6.3-2.3l94.8-65.7a13.9 13.9 0 0 0 5.5-15.1ZM199 59.7l12.4 46.3h-29.7ZM164.3 118L128 214.9L91.7 118ZM57 59.7L74.3 106H44.6Zm-25.8 96.4L41.4 118h37.4l36.8 98.2L32 158.3a2.1 2.1 0 0 1-.8-2.2Zm192.8 2.2l-83.6 57.9l36.8-98.2h37.4l10.2 38.1a2.1 2.1 0 0 1-.8 2.2Z"></path></svg>