<svg xmlns="http://www.w3.org/2000/svg" xmlns:xlink="http://www.w3.org/1999/xlink" aria-hidden="true" role="img" class="iconify iconify--ph" width="1em" height="1em" preserveAspectRatio="xMidYMid meet" viewBox="0 0 256 256"><path fill="currentColor" d="M242.1 151.5L214.8 49a16 16 0 0 0-30.4-1.5L164.7 100H91.3L71.6 47.5A16 16 0 0 0 41.2 49L13.9 151.5a20 20 0 0 0 7.9 21.6l94.8 65.6a21.1 21.1 0 0 0 8.7 3.4h5.4a21.1 21.1 0 0 0 8.7-3.4l94.8-65.6a20 20 0 0 0 7.9-21.6ZM155.7 124L128 197.8L100.3 124ZM57.9 79.3l13.9 36.9l31.5 84.1l-65.5-45.4Zm94.8 121l31.5-84.1l13.9-36.9l20.1 75.6Z"></path></svg>