<svg xmlns="http://www.w3.org/2000/svg" xmlns:xlink="http://www.w3.org/1999/xlink" aria-hidden="true" role="img" class="iconify iconify--ph" width="1em" height="1em" preserveAspectRatio="xMidYMid meet" viewBox="0 0 256 256"><path fill="currentColor" d="M234.4 153.5L207.1 51a7.9 7.9 0 0 0-7.4-5.9a7.8 7.8 0 0 0-7.8 5.2L170.2 108H85.8L64.1 50.3a7.8 7.8 0 0 0-7.8-5.2a7.9 7.9 0 0 0-7.4 5.9L21.6 153.5a12.1 12.1 0 0 0 4.7 13l94.9 65.6a11.6 11.6 0 0 0 13.6 0l94.9-65.6a12.1 12.1 0 0 0 4.7-13Zm-9.3 6.4l-94.8 65.7a4.3 4.3 0 0 1-4.6 0l-94.8-65.7a4 4 0 0 1-1.6-4.3L56.6 53.1l22.7 60.3A3.8 3.8 0 0 0 83 116h90a3.8 3.8 0 0 0 3.7-2.6l22.7-60.3l27.3 102.5a4 4 0 0 1-1.6 4.3Z"></path></svg>