<svg xmlns="http://www.w3.org/2000/svg" xmlns:xlink="http://www.w3.org/1999/xlink" aria-hidden="true" role="img" class="iconify iconify--ph" width="1em" height="1em" preserveAspectRatio="xMidYMid meet" viewBox="0 0 256 256"><path fill="currentColor" d="M83 112h90l-44.3 118.2a3.3 3.3 0 0 1-1.4 0Zm120.2-59.9a4 4 0 0 0-7.6-.4L173 112h46.2Zm-150.4 0l-16 59.9H83L60.4 51.7a4 4 0 0 0-7.6.4Z" opacity=".2"></path><path fill="currentColor" d="M238.3 152.5L211 50a12 12 0 0 0-22.9-1.1L167.5 104h-79L67.9 48.9A12 12 0 0 0 45 50L17.7 152.5a16.1 16.1 0 0 0 6.4 17.3l94.8 65.6a15.5 15.5 0 0 0 7.1 2.7h4a15.5 15.5 0 0 0 7.1-2.7l94.8-65.6a16.1 16.1 0 0 0 6.4-17.3Zm-39.6-86.3l10.1 37.8h-24.3ZM161.5 120L128 209.2L94.5 120ZM57.3 66.2L71.5 104H47.2ZM42.9 120h34.6l34 90.9l-78.3-54.3Zm101.6 90.9l34-90.9h34.6l9.7 36.6Z"></path></svg>