<svg xmlns="http://www.w3.org/2000/svg" xmlns:xlink="http://www.w3.org/1999/xlink" aria-hidden="true" role="img" class="iconify iconify--ph" width="1em" height="1em" preserveAspectRatio="xMidYMid meet" viewBox="0 0 256 256"><path fill="currentColor" d="M234.4 153.5L207.1 51a7.9 7.9 0 0 0-7.4-5.9a7.8 7.8 0 0 0-7.8 5.2L170.2 108H85.8L64.1 50.3a8 8 0 0 0-15.2.7L21.6 153.5a12.1 12.1 0 0 0 4.7 13l94.9 65.6a10.9 10.9 0 0 0 5.4 2.1h2.8a10.9 10.9 0 0 0 5.4-2.1l94.9-65.6a12.1 12.1 0 0 0 4.7-13Zm-35-100.4L214 108h-35.2ZM128 220.6L88.8 116h78.4ZM56.6 53.1L77.2 108H42ZM29.3 155.6L39.9 116h40.3l39.6 105.4l-88.9-61.5a4 4 0 0 1-1.6-4.3Zm195.8 4.3l-88.9 61.5L175.8 116h40.3l10.6 39.6a4 4 0 0 1-1.6 4.3Z"></path></svg>