<svg xmlns="http://www.w3.org/2000/svg" xmlns:xlink="http://www.w3.org/1999/xlink" aria-hidden="true" role="img" class="iconify iconify--ph" width="1em" height="1em" preserveAspectRatio="xMidYMid meet" viewBox="0 0 256 256"><path fill="currentColor" d="M236.3 153L209 50.5a10 10 0 0 0-19-.9L168.8 106H87.2L66 49.6a10 10 0 0 0-19 .9L19.7 153a13.9 13.9 0 0 0 5.5 15.1l94.8 65.7a14.1 14.1 0 0 0 16 0l94.8-65.7a13.9 13.9 0 0 0 5.5-15.1Zm-12.3 5.3l-94.9 65.6a1.8 1.8 0 0 1-2.2 0L32 158.3a2.1 2.1 0 0 1-.8-2.2L57 59.7l20.4 54.4A6.1 6.1 0 0 0 83 118h90a6.1 6.1 0 0 0 5.6-3.9L199 59.7l25.8 96.4a2.1 2.1 0 0 1-.8 2.2Z"></path></svg>