<svg xmlns="http://www.w3.org/2000/svg" xmlns:xlink="http://www.w3.org/1999/xlink" aria-hidden="true" role="img" class="iconify iconify--ph" width="1em" height="1em" preserveAspectRatio="xMidYMid meet" viewBox="0 0 256 256"><path fill="currentColor" d="M242.1 151.5L214.8 49a16 16 0 0 0-30.4-1.5L164.7 100H91.3L71.6 47.5A16 16 0 0 0 41.2 49L13.9 151.5a20 20 0 0 0 7.9 21.6l94.8 65.6a20.3 20.3 0 0 0 22.8 0l94.8-65.6a20 20 0 0 0 7.9-21.6ZM128 217.4l-90.2-62.5l20.1-75.6l13.9 36.9A11.9 11.9 0 0 0 83 124h90a11.9 11.9 0 0 0 11.2-7.8l13.9-36.9l20.1 75.6Z"></path></svg>