<svg xmlns="http://www.w3.org/2000/svg" xmlns:xlink="http://www.w3.org/1999/xlink" aria-hidden="true" role="img" class="iconify iconify--ph" width="1em" height="1em" preserveAspectRatio="xMidYMid meet" viewBox="0 0 256 256"><path fill="currentColor" d="M128 176a80 80 0 1 0-80-80a80.1 80.1 0 0 0 80 80Zm0-144a64 64 0 1 1-64 64a64.1 64.1 0 0 1 64-64Zm8 175.7V224h24a8 8 0 0 1 0 16H96a8 8 0 0 1 0-16h24v-16.3A112 112 0 0 1 48.8 16.8a8 8 0 1 1 11.3 11.3a96 96 0 0 0 135.8 135.8a8 8 0 0 1 11.3 11.3a111.6 111.6 0 0 1-71.2 32.5Z"></path></svg>