<svg xmlns="http://www.w3.org/2000/svg" xmlns:xlink="http://www.w3.org/1999/xlink" aria-hidden="true" role="img" class="iconify iconify--ph" width="1em" height="1em" preserveAspectRatio="xMidYMid meet" viewBox="0 0 256 256"><path fill="currentColor" d="M227.1 170.9a10.1 10.1 0 0 0 .7-1.5a108.1 108.1 0 0 0-37.7-129.7l-1.3-.9A107.9 107.9 0 0 0 39.2 189.4v.2l1.1 1.5a107.8 107.8 0 0 0 153.1 22.7a7.5 7.5 0 0 0 1.7-1.4a107.8 107.8 0 0 0 32-41.5Zm-42.3 13.6a19.1 19.1 0 0 0-9.1-5.3l-17.9-4.7l1.5-10.4l26-10.8l16.4 15a84.3 84.3 0 0 1-14.2 18.9ZM128 44a82.9 82.9 0 0 1 43 11.9l.8 16.5l-20.1 23.2l-27.9 3.8l-14.1-11.8A19.9 19.9 0 0 0 80 92.1L60.3 123a20.2 20.2 0 0 0-3.1 8.8l-3.4 35.1h-.2A83.3 83.3 0 0 1 44 128a84.1 84.1 0 0 1 84-84ZM67.8 186.4h.1a20.3 20.3 0 0 0 9.5-15.2l3.6-36.1l16.8-26.2l11.9 10a19.9 19.9 0 0 0 15.5 4.5l31.2-4.2a20.1 20.1 0 0 0 12.4-6.7L191 86.9a20.5 20.5 0 0 0 4.4-9A83.9 83.9 0 0 1 212 128a82.2 82.2 0 0 1-1.5 15.8l-10.9-9.9a19.9 19.9 0 0 0-21.2-3.7L148 142.8a20.1 20.1 0 0 0-12.1 15.6l-2.4 16.2a19.9 19.9 0 0 0 14.7 22.2l19.6 5.2a83.8 83.8 0 0 1-100-15.6Z"></path></svg>