<svg xmlns="http://www.w3.org/2000/svg" xmlns:xlink="http://www.w3.org/1999/xlink" aria-hidden="true" role="img" class="iconify iconify--ph" width="1em" height="1em" preserveAspectRatio="xMidYMid meet" viewBox="0 0 256 256"><path fill="currentColor" d="M128 174a78 78 0 1 0-78-78a78.1 78.1 0 0 0 78 78Zm0-144a66 66 0 1 1-66 66a66.1 66.1 0 0 1 66-66Zm6 175.8V226h26a6 6 0 0 1 0 12H96a6 6 0 0 1 0-12h26v-20.2A110 110 0 0 1 50.2 18.2a6 6 0 0 1 8.5 8.5A98 98 0 0 0 128 194a97.3 97.3 0 0 0 69.3-28.7a5.9 5.9 0 0 1 8.5 0a6.1 6.1 0 0 1 0 8.5a109.4 109.4 0 0 1-71.8 32Z"></path></svg>