<svg xmlns="http://www.w3.org/2000/svg" xmlns:xlink="http://www.w3.org/1999/xlink" aria-hidden="true" role="img" class="iconify iconify--ph" width="1em" height="1em" preserveAspectRatio="xMidYMid meet" viewBox="0 0 256 256"><path fill="currentColor" d="M128 26a102 102 0 1 0 102 102A102.2 102.2 0 0 0 128 26Zm89.8 96h-43.9c-1.3-32-13-61.4-32.9-83a90 90 0 0 1 76.8 83ZM94.1 134h67.8c-1.5 30.8-13.8 59.7-33.9 79.3c-20.1-19.6-32.4-48.5-33.9-79.3Zm0-12c1.5-30.8 13.8-59.7 33.9-79.3c20.1 19.6 32.4 48.5 33.9 79.3ZM115 39c-19.9 21.6-31.6 51-32.9 83H38.2A90 90 0 0 1 115 39Zm-76.8 95h43.9c1.3 32 13 61.4 32.9 83.1A90.2 90.2 0 0 1 38.2 134ZM141 217.1c19.9-21.7 31.6-51.1 32.9-83.1h43.9a90.2 90.2 0 0 1-76.8 83.1Z"></path></svg>