<svg xmlns="http://www.w3.org/2000/svg" xmlns:xlink="http://www.w3.org/1999/xlink" aria-hidden="true" role="img" class="iconify iconify--ph" width="1em" height="1em" preserveAspectRatio="xMidYMid meet" viewBox="0 0 256 256"><path fill="currentColor" d="M223.5 169.2a6.1 6.1 0 0 0 .5-1.2a103.9 103.9 0 0 0-36.2-125l-1.2-.9a104 104 0 0 0-144 145.2v.2l.8 1.1a104 104 0 0 0 147.8 21.9l1.4-1.1a105.3 105.3 0 0 0 30.9-40.2Zm-36 23.6l-5.5-5.5a15.8 15.8 0 0 0-7.3-4.2l-21.4-5.6l2.4-16.2l30.4-12.7l20.6 18.8a90.6 90.6 0 0 1-19.2 25.4ZM128 40a87.5 87.5 0 0 1 46.9 13.6l1 20.2l-22.2 25.6l-31.5 4.2l-19.6-14.2a16.2 16.2 0 0 0-12.4-2.8a16.3 16.3 0 0 0-10.5 7.2l-19.9 31a16.3 16.3 0 0 0-2.5 8.6l-.2 36.1l-5 3A87.2 87.2 0 0 1 40 128a88.1 88.1 0 0 1 88-88ZM61.5 185.6l3.9-2.4a16.2 16.2 0 0 0 7.7-13.6l.2-36.1l19.9-31.1l19.6 14.2a16.5 16.5 0 0 0 11.6 2.9l31.4-4.3a15.8 15.8 0 0 0 10-5.4L188 84.2a15.8 15.8 0 0 0 3.8-11.2l-.2-5.8A87.7 87.7 0 0 1 216 128a86.4 86.4 0 0 1-3.2 23.4l-15.9-14.6a16.1 16.1 0 0 0-16.9-3l-30.5 12.7a16.1 16.1 0 0 0-9.7 12.4l-2.4 16.2a16.2 16.2 0 0 0 11.8 17.9l21.5 5.6l4 4a88 88 0 0 1-113.2-17Z"></path></svg>