<svg xmlns="http://www.w3.org/2000/svg" xmlns:xlink="http://www.w3.org/1999/xlink" aria-hidden="true" role="img" class="iconify iconify--ph" width="1em" height="1em" preserveAspectRatio="xMidYMid meet" viewBox="0 0 256 256"><path fill="currentColor" d="M128 172a76 76 0 1 0-76-76a76.1 76.1 0 0 0 76 76Zm0-144a68 68 0 1 1-68 68a68.1 68.1 0 0 1 68-68Zm4 175.9V228h28a4 4 0 0 1 0 8H96a4 4 0 0 1 0-8h28v-24.1A108 108 0 0 1 51.6 19.6a4.2 4.2 0 0 1 5.7 0a4 4 0 0 1 0 5.7a100 100 0 1 0 141.4 141.4a4 4 0 0 1 5.7 0a4.2 4.2 0 0 1 0 5.7a107.7 107.7 0 0 1-72.4 31.5Z"></path></svg>