<svg xmlns="http://www.w3.org/2000/svg" xmlns:xlink="http://www.w3.org/1999/xlink" aria-hidden="true" role="img" class="iconify iconify--ph" width="1em" height="1em" preserveAspectRatio="xMidYMid meet" viewBox="0 0 256 256"><path fill="currentColor" d="M128 28a100 100 0 1 0 100 100A100.2 100.2 0 0 0 128 28Zm91.9 96h-48c-.9-34.2-13.9-65.6-36.1-87.7a92.2 92.2 0 0 1 84.1 87.7ZM128 216c-21.7-20.3-34.9-51.2-35.9-84h71.8c-1 32.8-14.2 63.7-35.9 84Zm-35.9-92c1-32.7 14.2-63.7 35.9-84c21.7 20.3 34.9 51.3 35.9 84Zm28.2-87.7C98 58.4 85 89.8 84.1 124h-48a92.2 92.2 0 0 1 84.2-87.7ZM36.1 132h48c.9 34.3 13.9 65.7 36.2 87.7A92.2 92.2 0 0 1 36.1 132Zm99.7 87.7c22.2-22 35.2-53.4 36.1-87.7h48a92.2 92.2 0 0 1-84.1 87.7Z"></path></svg>