<svg xmlns="http://www.w3.org/2000/svg" xmlns:xlink="http://www.w3.org/1999/xlink" aria-hidden="true" role="img" class="iconify iconify--ph" width="1em" height="1em" preserveAspectRatio="xMidYMid meet" viewBox="0 0 256 256"><path fill="currentColor" d="M217.9 171.7A98.5 98.5 0 0 0 228 128a100.3 100.3 0 0 0-74.3-96.7h-.3A96.7 96.7 0 0 0 128 28a99.5 99.5 0 0 0-65.2 24.2a3 3 0 0 0-.8.8a99.9 99.9 0 0 0 66 175h2.3a100 100 0 0 0 87.2-55.5h.1ZM220 128a91.2 91.2 0 0 1-7.6 36.6l-50.4-31a11.6 11.6 0 0 0-4.7-1.7l-22.8-3.1a12 12 0 0 0-12.5 6.9h-10.9a4.1 4.1 0 0 1-3.6-2.3l-3.8-7.8a11.5 11.5 0 0 0-8.2-6.5l-11.3-2.5l6.4-15.3a3.9 3.9 0 0 1 3.7-2.4h21.4a13.2 13.2 0 0 0 5.8-1.5l12.2-6.8a8.9 8.9 0 0 0 2.2-1.6l27-24.3a12.2 12.2 0 0 0 2.4-14.8l-4.4-7.8A92.2 92.2 0 0 1 220 128Zm-70.2-89.4l8.5 15.2a3.9 3.9 0 0 1-.8 4.9l-26.9 24.4l-.8.5l-12.2 6.8a4.5 4.5 0 0 1-1.9.5H94.3a11.8 11.8 0 0 0-11 7.3l-7.1 16.7l-2.2-.4a4.2 4.2 0 0 1-2.9-2.6L59.6 81.3a4.4 4.4 0 0 1 .1-3l8.5-20.2a92.1 92.1 0 0 1 81.6-19.5ZM36 128a92.1 92.1 0 0 1 15.9-51.7a12.2 12.2 0 0 0 .2 7.8l11.5 30.7a12.2 12.2 0 0 0 8.7 7.5l5.5 1.2l16 3.4a3.6 3.6 0 0 1 2.7 2.1l3.8 7.9a12.2 12.2 0 0 0 10.8 6.8h7.3l-10.2 22.9a12 12 0 0 0 2.2 13l18.8 20.3a4.1 4.1 0 0 1 .9 3.5l-3.2 16.6A92.1 92.1 0 0 1 36 128Zm99.1 91.7l2.9-14.8a12.1 12.1 0 0 0-3-10.4l-18.8-20.3a4.2 4.2 0 0 1-.7-4.4l12.8-28.6l.9-2.1a4 4 0 0 1 4.2-2.3l22.8 3a4.4 4.4 0 0 1 1.6.6l51.1 31.4a92 92 0 0 1-73.8 47.9Z"></path></svg>