<svg xmlns="http://www.w3.org/2000/svg" xmlns:xlink="http://www.w3.org/1999/xlink" aria-hidden="true" role="img" class="iconify iconify--ph" width="1em" height="1em" preserveAspectRatio="xMidYMid meet" viewBox="0 0 256 256"><path fill="currentColor" d="M128 20a108 108 0 1 0 108 108A108.1 108.1 0 0 0 128 20Zm83.1 96h-31.6a138.3 138.3 0 0 0-22.9-67a84.2 84.2 0 0 1 54.5 67Zm-110.5 24h54.8c-2.4 24.7-12.2 47.7-27.4 64.6c-15.2-16.9-25-39.9-27.4-64.6Zm0-24c2.4-24.7 12.2-47.7 27.4-64.6c15.2 16.9 25 39.9 27.4 64.6Zm-1.2-67a138.3 138.3 0 0 0-22.9 67H44.9a84.2 84.2 0 0 1 54.5-67Zm-54.5 91h31.6a138.3 138.3 0 0 0 22.9 67a84 84 0 0 1-54.5-67Zm111.7 67a138.3 138.3 0 0 0 22.9-67h31.6a84 84 0 0 1-54.5 67Z"></path></svg>