<svg xmlns="http://www.w3.org/2000/svg" xmlns:xlink="http://www.w3.org/1999/xlink" aria-hidden="true" role="img" class="iconify iconify--ph" width="1em" height="1em" preserveAspectRatio="xMidYMid meet" viewBox="0 0 256 256"><path fill="currentColor" d="M128 172a76 76 0 1 0-76-76a76.1 76.1 0 0 0 76 76Zm0-128a52 52 0 1 1-52 52a52 52 0 0 1 52-52Z"></path><path fill="currentColor" d="M210 178a12 12 0 1 0-16.9-17a91.5 91.5 0 0 1-65.1 27a91.1 91.1 0 0 1-65-27a92 92 0 0 1 0-130.1A12 12 0 0 0 46 14a116.1 116.1 0 0 0 0 164a114.8 114.8 0 0 0 70 33.4V224H96a12 12 0 0 0 0 24h64a12 12 0 0 0 0-24h-20v-12.6a114.6 114.6 0 0 0 70-33.4Z"></path></svg>