<svg xmlns="http://www.w3.org/2000/svg" xmlns:xlink="http://www.w3.org/1999/xlink" aria-hidden="true" role="img" class="iconify iconify--ph" width="1em" height="1em" preserveAspectRatio="xMidYMid meet" viewBox="0 0 256 256"><path fill="currentColor" d="M219.8 172.5a102.1 102.1 0 0 0-65.5-143.1h-.5A100.3 100.3 0 0 0 128 26a101.9 101.9 0 0 0-66.4 24.6a5.2 5.2 0 0 0-1.1 1A102 102 0 0 0 128 230h2.3a102.1 102.1 0 0 0 88.9-56.4h.1ZM218 128a89.9 89.9 0 0 1-6.5 33.7L163 131.9a13.6 13.6 0 0 0-5.4-2l-22.9-3.1a14.2 14.2 0 0 0-13.9 6.9h-9.7a2.3 2.3 0 0 1-1.8-1.1l-3.8-7.9a13.9 13.9 0 0 0-9.6-7.6l-8.9-1.9l5.5-13.1a1.8 1.8 0 0 1 1.8-1.2h21.4a13.2 13.2 0 0 0 6.7-1.8l12.3-6.7a24.8 24.8 0 0 0 2.6-1.9l26.9-24.3a14 14 0 0 0 2.8-17.3l-1.5-2.7A89.9 89.9 0 0 1 218 128Zm-69.5-87.6l8.1 14.4a2.1 2.1 0 0 1-.4 2.4l-27 24.4l-.3.3l-12.3 6.7a1.6 1.6 0 0 1-.9.3H94.3a14 14 0 0 0-12.9 8.5L75 112.6h-.6a1.8 1.8 0 0 1-1.4-1.3L61.5 80.6a2 2 0 0 1 0-1.5l8.4-19.8A89.6 89.6 0 0 1 128 38a87.1 87.1 0 0 1 20.5 2.4ZM38 128a90 90 0 0 1 11.8-44.6l.5 1.4l11.5 30.7a13.7 13.7 0 0 0 10.1 8.7l5.5 1.2h.1l15.9 3.4a2.1 2.1 0 0 1 1.3 1.1l3.8 7.9a14.2 14.2 0 0 0 12.6 7.9h4.2l-8.9 20.1a14 14 0 0 0 2.5 15.2l18.8 20.3a2.2 2.2 0 0 1 .5 1.7l-2.9 15A90.2 90.2 0 0 1 38 128Zm99.6 89.5l2.4-12.2a14.1 14.1 0 0 0-3.5-12.1l-18.8-20.4a2.2 2.2 0 0 1-.4-2.2l12.8-28.6l.9-2.1a2.2 2.2 0 0 1 2.1-1.2l22.9 3.1c.2.1.5.1.7.3l49.5 30.4a90.1 90.1 0 0 1-68.6 45Z"></path></svg>