<svg xmlns="http://www.w3.org/2000/svg" xmlns:xlink="http://www.w3.org/1999/xlink" aria-hidden="true" role="img" class="iconify iconify--ph" width="1em" height="1em" preserveAspectRatio="xMidYMid meet" viewBox="0 0 256 256"><circle cx="128" cy="96" r="72" fill="currentColor" opacity=".2"></circle><path fill="currentColor" d="M128 176a80 80 0 1 0-80-80a80.1 80.1 0 0 0 80 80Zm0-144a64 64 0 1 1-64 64a64.1 64.1 0 0 1 64-64Z"></path><path fill="currentColor" d="M207.2 175.2a8 8 0 0 0-11.3-11.3A96 96 0 0 1 60.1 28.1a8 8 0 1 0-11.3-11.3A112 112 0 0 0 120 207.7V224H96a8 8 0 0 0 0 16h64a8 8 0 0 0 0-16h-24v-16.3a111.6 111.6 0 0 0 71.2-32.5Z"></path></svg>