<svg xmlns="http://www.w3.org/2000/svg" xmlns:xlink="http://www.w3.org/1999/xlink" aria-hidden="true" role="img" class="iconify iconify--ph" width="1em" height="1em" preserveAspectRatio="xMidYMid meet" viewBox="0 0 256 256"><path fill="currentColor" d="M128 24a104 104 0 1 0 104 104A104.2 104.2 0 0 0 128 24Zm0 16a88.1 88.1 0 0 1 76.2 44H128a44 44 0 0 0-41.2 28.6L62.1 69.8A87.6 87.6 0 0 1 128 40Zm-17.5 174.3A88 88 0 0 1 51.8 84l38.1 66l.2.3a44 44 0 0 0 45.2 21.1ZM128 216l38.1-66c.1-.1.1-.3.2-.4a43.8 43.8 0 0 0-4.4-49.6h49.5a86.5 86.5 0 0 1 4.6 28a88.1 88.1 0 0 1-88 88Z"></path></svg>