<svg xmlns="http://www.w3.org/2000/svg" xmlns:xlink="http://www.w3.org/1999/xlink" aria-hidden="true" role="img" class="iconify iconify--ph" width="1em" height="1em" preserveAspectRatio="xMidYMid meet" viewBox="0 0 256 256"><path fill="currentColor" d="M232 128h-53.5A64 64 0 0 0 132 20a4 4 0 0 0-4 4v53.5A64 64 0 0 0 20 124a4 4 0 0 0 4 4h53.5A64 64 0 0 0 124 236a4 4 0 0 0 4-4v-53.5A64 64 0 0 0 236 132a4 4 0 0 0-4-4Zm-96-99.9a56 56 0 0 1 30.6 99.9H136ZM84 68a55.6 55.6 0 0 1 44 21.4V120H28.1A56.2 56.2 0 0 1 84 68Zm36 159.9A56 56 0 0 1 89.4 128H120Zm52-39.9a55.6 55.6 0 0 1-44-21.4V136h99.9a56.2 56.2 0 0 1-55.9 52Z"></path></svg>