<svg xmlns="http://www.w3.org/2000/svg" xmlns:xlink="http://www.w3.org/1999/xlink" aria-hidden="true" role="img" class="iconify iconify--ph" width="1em" height="1em" preserveAspectRatio="xMidYMid meet" viewBox="0 0 256 256"><path fill="currentColor" d="M128 20a108 108 0 1 0 108 108A108.1 108.1 0 0 0 128 20Zm0 24a84.1 84.1 0 0 1 68.9 36H128a48.3 48.3 0 0 0-41.6 24L67 70.3A83.7 83.7 0 0 1 128 44Zm24 84a24 24 0 1 1-24-24a24.1 24.1 0 0 1 24 24Zm-108 0a83.7 83.7 0 0 1 8-35.7L86.4 152c.1.1.2.2.2.3A48.1 48.1 0 0 0 128 176l-19.5 33.7A84.2 84.2 0 0 1 44 128Zm91.1 83.7l34.5-59.7a.8.8 0 0 1 .2-.4a47.8 47.8 0 0 0-.3-47.6h39a82.9 82.9 0 0 1 3.5 24a84.1 84.1 0 0 1-76.9 83.7Z"></path></svg>