<svg xmlns="http://www.w3.org/2000/svg" xmlns:xlink="http://www.w3.org/1999/xlink" aria-hidden="true" role="img" class="iconify iconify--ph" width="1em" height="1em" preserveAspectRatio="xMidYMid meet" viewBox="0 0 256 256"><path fill="currentColor" d="M223.7 114.2L55.9 18.1a16 16 0 0 0-16.1.1a15.6 15.6 0 0 0-7.9 13.7v192.2a16 16 0 0 0 16 15.9a16.2 16.2 0 0 0 8-2.1l167.8-96.1a15.7 15.7 0 0 0 0-27.6ZM47.9 212.9V43.1l84.9 84.9Zm96.2-73.6l18.8 18.9l-88.2 50.4Zm-69.4-92l88.2 50.5l-18.8 18.9Zm102.6 102.6L155.4 128l21.9-21.9l38.3 21.9Z"></path></svg>