<svg xmlns="http://www.w3.org/2000/svg" xmlns:xlink="http://www.w3.org/1999/xlink" aria-hidden="true" role="img" class="iconify iconify--ph" width="1em" height="1em" preserveAspectRatio="xMidYMid meet" viewBox="0 0 256 256"><path fill="currentColor" d="M140 24v24a12 12 0 0 1-24 0V24a12 12 0 0 1 24 0Zm36 32a12 12 0 0 0-12 12v24a12 12 0 0 0 24 0V68a12 12 0 0 0-12-12Zm-48 140a12 12 0 0 0-12 12v24a12 12 0 0 0 24 0v-24a12 12 0 0 0-12-12Zm0-120a12 12 0 0 0-12 12v80a12 12 0 0 0 24 0V88a12 12 0 0 0-12-12ZM80 56a12 12 0 0 0-12 12v56a12 12 0 0 0 24 0V68a12 12 0 0 0-12-12Zm96 64a12 12 0 0 0-12 12v56a12 12 0 0 0 24 0v-56a12 12 0 0 0-12-12ZM32 104a12 12 0 0 0-12 12v24a12 12 0 0 0 24 0v-24a12 12 0 0 0-12-12Zm48 48a12 12 0 0 0-12 12v24a12 12 0 0 0 24 0v-24a12 12 0 0 0-12-12Zm144-48a12 12 0 0 0-12 12v24a12 12 0 0 0 24 0v-24a12 12 0 0 0-12-12Z"></path></svg>