<svg xmlns="http://www.w3.org/2000/svg" xmlns:xlink="http://www.w3.org/1999/xlink" aria-hidden="true" role="img" class="iconify iconify--ph" width="1em" height="1em" preserveAspectRatio="xMidYMid meet" viewBox="0 0 256 256"><path fill="currentColor" d="M128 26a102 102 0 1 0 102 102A102.2 102.2 0 0 0 128 26Zm0 12a90.1 90.1 0 0 1 79.6 48H128a42.2 42.2 0 0 0-40.7 31.5L59.6 69.6A89.9 89.9 0 0 1 128 38Zm30 90a30 30 0 1 1-30-30a30.1 30.1 0 0 1 30 30Zm-120 0a90 90 0 0 1 13.8-47.9L91.6 149l.2.2A41.8 41.8 0 0 0 128 170a38.6 38.6 0 0 0 11.3-1.6l-27.7 48.1A90.2 90.2 0 0 1 38 128Zm90 90h-3.4l39.8-69l.2-.4a42 42 0 0 0-7.2-50.6h55.5A90.1 90.1 0 0 1 128 218Z"></path></svg>