<svg xmlns="http://www.w3.org/2000/svg" xmlns:xlink="http://www.w3.org/1999/xlink" aria-hidden="true" role="img" class="iconify iconify--ph" width="1em" height="1em" preserveAspectRatio="xMidYMid meet" viewBox="0 0 256 256"><path fill="currentColor" d="M221.8 117.7L53.9 21.6a11.9 11.9 0 0 0-12.1 0a18.4 18.4 0 0 0-2.2 1.7h-.1a11.6 11.6 0 0 0-3.6 8.5v192.3a11.6 11.6 0 0 0 3.6 8.5h.1a18.4 18.4 0 0 0 2.2 1.7a12.1 12.1 0 0 0 6.1 1.6a11.7 11.7 0 0 0 6-1.6l167.8-96a11.8 11.8 0 0 0 6.2-10.4a11.6 11.6 0 0 0-6.1-10.2ZM169.5 97l-25.4 25.3L50.7 29ZM43.9 222.5v-189l94.5 94.5Zm6.8 4.5l93.4-93.3l25.4 25.3Zm167.1-95.6l-41.1 23.5l-27-26.9l27-26.9l41.2 23.6a3.7 3.7 0 0 1 2 3.3a3.8 3.8 0 0 1-2.1 3.4Z"></path></svg>