<svg xmlns="http://www.w3.org/2000/svg" xmlns:xlink="http://www.w3.org/1999/xlink" aria-hidden="true" role="img" class="iconify iconify--ph" width="1em" height="1em" preserveAspectRatio="xMidYMid meet" viewBox="0 0 256 256"><path fill="currentColor" d="m225.7 110.7l-167.8-96a20.1 20.1 0 0 0-20.1 0a19.7 19.7 0 0 0-9.9 17.2v192.2a19.7 19.7 0 0 0 9.9 17.2a20.1 20.1 0 0 0 10.1 2.7a19.8 19.8 0 0 0 10-2.7l167.8-96a19.8 19.8 0 0 0 0-34.6ZM51.9 203.2V52.8l75.2 75.2Zm92.2-58.2l12.3 12.3l-57.7 33ZM98.7 65.7l57.7 33l-12.3 12.3Zm79.3 79.2L161 128l17-16.9l29.6 16.9Z"></path></svg>