<svg xmlns="http://www.w3.org/2000/svg" xmlns:xlink="http://www.w3.org/1999/xlink" aria-hidden="true" role="img" class="iconify iconify--ph" width="1em" height="1em" preserveAspectRatio="xMidYMid meet" viewBox="0 0 256 256"><path fill="currentColor" d="M88 68v64a8 8 0 0 1-16 0V68a8 8 0 0 1 16 0Zm40 132a8 8 0 0 0-8 8v24a8 8 0 0 0 16 0v-24a8 8 0 0 0-8-8Zm0-128a8 8 0 0 0-8 8v96a8 8 0 0 0 16 0V80a8 8 0 0 0-8-8Zm-48 84a8 8 0 0 0-8 8v24a8 8 0 0 0 16 0v-24a8 8 0 0 0-8-8Zm-48-48a8 8 0 0 0-8 8v24a8 8 0 0 0 16 0v-24a8 8 0 0 0-8-8Zm96-92a8 8 0 0 0-8 8v24a8 8 0 0 0 16 0V24a8 8 0 0 0-8-8Zm48 44a8 8 0 0 0-8 8v24a8 8 0 0 0 16 0V68a8 8 0 0 0-8-8Zm48 48a8 8 0 0 0-8 8v24a8 8 0 0 0 16 0v-24a8 8 0 0 0-8-8Zm-48 8a8 8 0 0 0-8 8v64a8 8 0 0 0 16 0v-64a8 8 0 0 0-8-8Z"></path></svg>