<svg xmlns="http://www.w3.org/2000/svg" xmlns:xlink="http://www.w3.org/1999/xlink" aria-hidden="true" role="img" class="iconify iconify--ph" width="1em" height="1em" preserveAspectRatio="xMidYMid meet" viewBox="0 0 256 256"><path fill="currentColor" d="M134 24v24a6 6 0 0 1-12 0V24a6 6 0 0 1 12 0Zm42 38a6 6 0 0 0-6 6v24a6 6 0 0 0 12 0V68a6 6 0 0 0-6-6Zm-48 140a6 6 0 0 0-6 6v24a6 6 0 0 0 12 0v-24a6 6 0 0 0-6-6Zm0-128a6 6 0 0 0-6 6v96a6 6 0 0 0 12 0V80a6 6 0 0 0-6-6ZM80 62a6 6 0 0 0-6 6v64a6 6 0 0 0 12 0V68a6 6 0 0 0-6-6Zm96 56a6 6 0 0 0-6 6v64a6 6 0 0 0 12 0v-64a6 6 0 0 0-6-6Zm-144-8a6 6 0 0 0-6 6v24a6 6 0 0 0 12 0v-24a6 6 0 0 0-6-6Zm48 48a6 6 0 0 0-6 6v24a6 6 0 0 0 12 0v-24a6 6 0 0 0-6-6Zm144-48a6 6 0 0 0-6 6v24a6 6 0 0 0 12 0v-24a6 6 0 0 0-6-6Z"></path></svg>