<svg xmlns="http://www.w3.org/2000/svg" xmlns:xlink="http://www.w3.org/1999/xlink" aria-hidden="true" role="img" class="iconify iconify--ph" width="1em" height="1em" preserveAspectRatio="xMidYMid meet" viewBox="0 0 256 256"><path fill="currentColor" d="M232 126h-49.1A66 66 0 0 0 132 18a6 6 0 0 0-6 6v49.1A66 66 0 0 0 18 124a6 6 0 0 0 6 6h49.1A66 66 0 0 0 124 238a6 6 0 0 0 6-6v-49.1A66 66 0 0 0 238 132a6 6 0 0 0-6-6Zm-94-95.7A54.1 54.1 0 0 1 186 84a53.5 53.5 0 0 1-20.1 42H138ZM84 70a53.5 53.5 0 0 1 42 20.1V118H30.3A54.1 54.1 0 0 1 84 70Zm34 155.7A54.1 54.1 0 0 1 70 172a53.5 53.5 0 0 1 20.1-42H118Zm54-39.7a53.5 53.5 0 0 1-42-20.1V138h95.7a54.1 54.1 0 0 1-53.7 48Z"></path></svg>