<svg xmlns="http://www.w3.org/2000/svg" xmlns:xlink="http://www.w3.org/1999/xlink" aria-hidden="true" role="img" class="iconify iconify--ph" width="1em" height="1em" preserveAspectRatio="xMidYMid meet" viewBox="0 0 256 256"><path fill="currentColor" d="M232 124h-45a67.4 67.4 0 0 0 13-40a68.1 68.1 0 0 0-68-68a8 8 0 0 0-8 8v45a67.4 67.4 0 0 0-40-13a68.1 68.1 0 0 0-68 68a8 8 0 0 0 8 8h45a67.4 67.4 0 0 0-13 40a68.1 68.1 0 0 0 68 68a8 8 0 0 0 8-8v-45a67.4 67.4 0 0 0 40 13a68.1 68.1 0 0 0 68-68a8 8 0 0 0-8-8ZM84 72a51.5 51.5 0 0 1 40 18.8V116H32.6A52.1 52.1 0 0 1 84 72Zm88 112a51.5 51.5 0 0 1-40-18.8V140h91.4a52.1 52.1 0 0 1-51.4 44Z"></path></svg>