<svg xmlns="http://www.w3.org/2000/svg" xmlns:xlink="http://www.w3.org/1999/xlink" aria-hidden="true" role="img" class="iconify iconify--ph" width="1em" height="1em" preserveAspectRatio="xMidYMid meet" viewBox="0 0 256 256"><path fill="currentColor" d="M132 24v24a4 4 0 0 1-8 0V24a4 4 0 0 1 8 0Zm44 40a4 4 0 0 0-4 4v24a4 4 0 0 0 8 0V68a4 4 0 0 0-4-4Zm-48 140a4 4 0 0 0-4 4v24a4 4 0 0 0 8 0v-24a4 4 0 0 0-4-4Zm0-128a4 4 0 0 0-4 4v96a4 4 0 0 0 8 0V80a4 4 0 0 0-4-4ZM80 64a4 4 0 0 0-4 4v64a4 4 0 0 0 8 0V68a4 4 0 0 0-4-4Zm96 56a4 4 0 0 0-4 4v64a4 4 0 0 0 8 0v-64a4 4 0 0 0-4-4Zm-144-8a4 4 0 0 0-4 4v24a4 4 0 0 0 8 0v-24a4 4 0 0 0-4-4Zm48 48a4 4 0 0 0-4 4v24a4 4 0 0 0 8 0v-24a4 4 0 0 0-4-4Zm144-48a4 4 0 0 0-4 4v24a4 4 0 0 0 8 0v-24a4 4 0 0 0-4-4Z"></path></svg>