<svg xmlns="http://www.w3.org/2000/svg" xmlns:xlink="http://www.w3.org/1999/xlink" aria-hidden="true" role="img" class="iconify iconify--ph" width="1em" height="1em" preserveAspectRatio="xMidYMid meet" viewBox="0 0 256 256"><path fill="currentColor" d="M232 120h-37.6A72.1 72.1 0 0 0 132 12a12 12 0 0 0-12 12v37.6A72.1 72.1 0 0 0 12 124a12 12 0 0 0 12 12h37.6A72.1 72.1 0 0 0 124 244a12 12 0 0 0 12-12v-37.6A72.1 72.1 0 0 0 244 132a12 12 0 0 0-12-12Zm-52-36a47.4 47.4 0 0 1-16.3 36H144V37.5A48.2 48.2 0 0 1 180 84Zm-96-8a47.4 47.4 0 0 1 36 16.3V112H37.5A48.2 48.2 0 0 1 84 76Zm-8 96a47.4 47.4 0 0 1 16.3-36H112v82.5A48.2 48.2 0 0 1 76 172Zm96 8a47.4 47.4 0 0 1-36-16.3V144h82.5a48.2 48.2 0 0 1-46.5 36Z"></path></svg>