<svg xmlns="http://www.w3.org/2000/svg" xmlns:xlink="http://www.w3.org/1999/xlink" aria-hidden="true" role="img" class="iconify iconify--ph" width="1em" height="1em" preserveAspectRatio="xMidYMid meet" viewBox="0 0 256 256"><path fill="currentColor" d="m250.8 90.7l-120-64a6.1 6.1 0 0 0-5.6 0l-120 64a6 6 0 0 0 0 10.6L30 114.5v51a13.6 13.6 0 0 0 2.8 8.3C40.6 184.2 70.4 218 128 218c21.9 0 39.8-4.9 54-11.5V240a6 6 0 0 0 12 0v-40a106.8 106.8 0 0 0 29.2-26.2a13.6 13.6 0 0 0 2.8-8.3v-51l24.8-13.2a6 6 0 0 0 0-10.6ZM128 206c-52 0-78.7-30.1-85.6-39.4a1.5 1.5 0 0 1-.4-1.1v-44.6l83.2 44.4a6 6 0 0 0 5.6 0L182 138v55.1c-13.5 7.2-31.3 12.9-54 12.9Zm86-40.5a1.5 1.5 0 0 1-.4 1.1a90.7 90.7 0 0 1-19.6 18.9v-53.9l20-10.7Zm3.2-59.9h-.1L188 121.2l-57.2-30.5a6 6 0 0 0-5.6 10.6l50.1 26.7l-47.3 25.2l-89.1-47.5h-.1l-18-9.7L128 38.8L235.3 96Z"></path></svg>