<svg xmlns="http://www.w3.org/2000/svg" xmlns:xlink="http://www.w3.org/1999/xlink" aria-hidden="true" role="img" class="iconify iconify--ph" width="1em" height="1em" preserveAspectRatio="xMidYMid meet" viewBox="0 0 256 256"><path fill="currentColor" d="M64 184a8 8 0 0 1-8 8H32a8 8 0 0 1 0-16h24a8 8 0 0 1 8 8Zm20-40a8 8 0 0 0-8-8H32a8 8 0 0 0 0 16h44a8 8 0 0 0 8-8Zm12 0a8 8 0 0 0 8 8h48a8 8 0 0 0 0-16h-48a8 8 0 0 0-8 8ZM32 72h192a8 8 0 0 0 0-16H32a8 8 0 0 0 0 16Zm0 40h80a8 8 0 0 0 0-16H32a8 8 0 0 0 0 16Zm136 64h-24a8 8 0 0 0 0 16h24a8 8 0 0 0 0-16Zm56-40h-44a8 8 0 0 0 0 16h44a8 8 0 0 0 0-16Zm-112 40H88a8 8 0 0 0 0 16h24a8 8 0 0 0 0-16Zm112-80h-80a8 8 0 0 0 0 16h80a8 8 0 0 0 0-16Zm0 80h-24a8 8 0 0 0 0 16h24a8 8 0 0 0 0-16Z"></path></svg>