<svg xmlns="http://www.w3.org/2000/svg" xmlns:xlink="http://www.w3.org/1999/xlink" aria-hidden="true" role="img" class="iconify iconify--ph" width="1em" height="1em" preserveAspectRatio="xMidYMid meet" viewBox="0 0 256 256"><path fill="currentColor" d="M220 110.9v54.6a7.8 7.8 0 0 1-1.6 4.7c-6.7 9-35.1 41.8-90.4 41.8s-83.7-32.8-90.4-41.8a7.8 7.8 0 0 1-1.6-4.7v-54.6l92 49.1Z" opacity=".2"></path><path fill="currentColor" d="m251.8 88.9l-120-64a8.5 8.5 0 0 0-7.6 0l-120 64a8.1 8.1 0 0 0 0 14.2L28 115.7v49.8a15.5 15.5 0 0 0 3.2 9.5c7.9 10.6 38.3 45 96.8 45a128.7 128.7 0 0 0 52-10.5V240a8 8 0 0 0 16 0v-38.9a111.8 111.8 0 0 0 28.8-26.1a15.5 15.5 0 0 0 3.2-9.5v-49.8l23.8-12.6a8.1 8.1 0 0 0 0-14.2ZM128 204c-51.1 0-77.2-29.5-84-38.5v-41.2l80.2 42.8a8.5 8.5 0 0 0 7.6 0l48.2-25.8v50.5c-13.1 6.9-30.3 12.2-52 12.2Zm84-38.6a85.8 85.8 0 0 1-16 16.1v-48.7l16-8.5Zm4.2-61.5l-28.2 15l-56.2-30a8.1 8.1 0 1 0-7.6 14.2L171 128l-43 22.9l-88.2-47L25 96l103-54.9L231 96Z"></path></svg>