<svg xmlns="http://www.w3.org/2000/svg" xmlns:xlink="http://www.w3.org/1999/xlink" aria-hidden="true" role="img" class="iconify iconify--ph" width="1em" height="1em" preserveAspectRatio="xMidYMid meet" viewBox="0 0 256 256"><path fill="currentColor" d="m249.9 92.5l-120-64a3.7 3.7 0 0 0-3.8 0l-120 64a4 4 0 0 0 0 7L32 113.3v52.2a11.5 11.5 0 0 0 2.4 7.1C42 182.8 71.4 216 128 216c23.1 0 41.6-5.5 56-12.7V240a4 4 0 0 0 8 0v-41.2a104 104 0 0 0 29.6-26.2a11.5 11.5 0 0 0 2.4-7.1v-52.2l25.9-13.8a4 4 0 0 0 0-7ZM128 208c-52.9 0-80.1-30.7-87.2-40.2a3.8 3.8 0 0 1-.8-2.3v-47.9l86.1 45.9a3.9 3.9 0 0 0 3.8 0l54.1-28.8v59.5c-13.9 7.7-32.4 13.8-56 13.8Zm88-42.5a3.8 3.8 0 0 1-.8 2.3a95.9 95.9 0 0 1-23.2 21.6v-59l24-12.8Zm-28-42l-58.1-31a4 4 0 1 0-3.8 7l53.4 28.5l-51.5 27.5L16.5 96L128 36.5L239.5 96Z"></path></svg>