<svg xmlns="http://www.w3.org/2000/svg" xmlns:xlink="http://www.w3.org/1999/xlink" aria-hidden="true" role="img" class="iconify iconify--ph" width="1em" height="1em" preserveAspectRatio="xMidYMid meet" viewBox="0 0 256 256"><path fill="currentColor" d="m249.8 85.5l-116-64a12 12 0 0 0-11.6 0l-116 64a12 12 0 0 0 0 21l13.8 7.6v51.1a20.3 20.3 0 0 0 4.7 12.9C33.8 188.9 68.2 224 128 224a138.8 138.8 0 0 0 46-7.6V240a12 12 0 0 0 24 0v-34.5a132.2 132.2 0 0 0 33.3-27.4a20.3 20.3 0 0 0 4.7-12.9v-51.1l13.8-7.6a12 12 0 0 0 0-21ZM128 45.7L219.2 96l-.9.5h-.1L186 114.3l-52.2-28.8a12 12 0 1 0-11.6 21l39 21.5l-33.2 18.3l-90.2-49.8h-.1l-.9-.5Zm0 154.3c-47.6 0-75.3-26.4-84-36.3v-36.3l78.2 43.1a12 12 0 0 0 11.6 0l40.2-22.2v42.5a116.7 116.7 0 0 1-46 9.2Zm84-36.3a99.8 99.8 0 0 1-14 13v-41.6l14-7.7Z"></path></svg>