<svg xmlns="http://www.w3.org/2000/svg" xmlns:xlink="http://www.w3.org/1999/xlink" aria-hidden="true" role="img" class="iconify iconify--ph" width="1em" height="1em" preserveAspectRatio="xMidYMid meet" viewBox="0 0 256 256"><path fill="currentColor" d="M200 156a28.1 28.1 0 0 0-19.4 7.8l-28.3-22A26.9 26.9 0 0 0 156 128a27.3 27.3 0 0 0-.5-5l19.5-6.4a28 28 0 1 0-3-12.6a27.3 27.3 0 0 0 .5 5l-19.5 6.4a28.1 28.1 0 0 0-25-15.4a27.4 27.4 0 0 0-7.6 1.1l-9.5-21.4A28 28 0 1 0 96 84a27.4 27.4 0 0 0 7.6-1.1l9.5 21.4a28 28 0 0 0-8.5 39.1L74 170.6a27.6 27.6 0 0 0-18-6.6a28 28 0 1 0 23.4 12.6l30.6-27.2a27.6 27.6 0 0 0 18 6.6a28.1 28.1 0 0 0 19.4-7.8l28.3 22A26.9 26.9 0 0 0 172 184a28 28 0 1 0 28-28Zm0-72a20 20 0 1 1-20 20a20.1 20.1 0 0 1 20-20ZM76 56a20 20 0 1 1 20 20a20.1 20.1 0 0 1-20-20ZM56 212a20 20 0 1 1 20-20a20.1 20.1 0 0 1-20 20Zm72-64a20 20 0 1 1 20-20a20.1 20.1 0 0 1-20 20Zm72 56a20 20 0 1 1 20-20a20.1 20.1 0 0 1-20 20Z"></path></svg>