<svg xmlns="http://www.w3.org/2000/svg" xmlns:xlink="http://www.w3.org/1999/xlink" aria-hidden="true" role="img" class="iconify iconify--ph" width="1em" height="1em" preserveAspectRatio="xMidYMid meet" viewBox="0 0 256 256"><path fill="currentColor" d="M128 128H44V52a8 8 0 0 1 8-8h76Z" opacity=".2"></path><path fill="currentColor" d="M204 36H52a16 16 0 0 0-16 16v152a16 16 0 0 0 16 16h152a16 16 0 0 0 16-16V52a16 16 0 0 0-16-16Zm0 84h-68V52h68Zm-84-68v68H52V52Zm-68 84h68v68H52Zm152 68h-68v-68h68v68Z"></path></svg>