<svg xmlns="http://www.w3.org/2000/svg" xmlns:xlink="http://www.w3.org/1999/xlink" aria-hidden="true" role="img" class="iconify iconify--ph" width="1em" height="1em" preserveAspectRatio="xMidYMid meet" viewBox="0 0 256 256"><path fill="currentColor" d="M36.4 98.1a16.3 16.3 0 0 1-3.2-13.5C40.5 49.5 80.4 24 128 24s87.5 25.5 94.8 60.6a16 16 0 0 1-15.6 19.4H48.8a16.2 16.2 0 0 1-12.4-5.9ZM225 152.6l-37 14.8l-37-14.8a7.8 7.8 0 0 0-6 0l-37 14.8l-37-14.8a7.8 7.8 0 0 0-6 0l-40 16a8 8 0 0 0 3 15.4a8 8 0 0 0 3-.6l9-3.6v4.2a40 40 0 0 0 40 40h96a40 40 0 0 0 40-40v-10.6l15-6a8 8 0 0 0-6-14.8Zm7-32.6H24a8 8 0 0 0 0 16h208a8 8 0 0 0 0-16Z"></path></svg>