<svg xmlns="http://www.w3.org/2000/svg" xmlns:xlink="http://www.w3.org/1999/xlink" aria-hidden="true" role="img" class="iconify iconify--ph" width="1em" height="1em" preserveAspectRatio="xMidYMid meet" viewBox="0 0 256 256"><path fill="currentColor" d="M207.2 96H48.8a8 8 0 0 1-7.8-9.7C47.4 55.5 83.9 32 128 32s80.6 23.5 87 54.3a8 8 0 0 1-7.8 9.7ZM148 160l-40 16l-40-16l-20 8v16a32 32 0 0 0 32 32h96a32 32 0 0 0 32-32v-16l-20 8Z" opacity=".2"></path><path fill="currentColor" d="M48.8 104h158.4a16 16 0 0 0 15.6-19.4C215.5 49.5 175.6 24 128 24S40.5 49.5 33.2 84.6A16 16 0 0 0 48.8 104ZM128 40c39.4 0 73.4 20.6 79.2 47.9H48.8C54.6 60.6 88.6 40 128 40Zm97 112.6l-37 14.8l-37-14.8a7.8 7.8 0 0 0-6 0l-37 14.8l-37-14.8a7.8 7.8 0 0 0-6 0l-40 16a8 8 0 0 0 3 15.4a8 8 0 0 0 3-.6l9-3.6v4.2a40 40 0 0 0 40 40h96a40 40 0 0 0 40-40v-10.6l15-6a8 8 0 0 0-6-14.8ZM200 184a24.1 24.1 0 0 1-24 24H80a24.1 24.1 0 0 1-24-24v-10.6l12-4.8l37 14.8a7.8 7.8 0 0 0 6 0l37-14.8l37 14.8a7.8 7.8 0 0 0 6 0l9-3.6Zm40-56a8 8 0 0 1-8 8H24a8 8 0 0 1 0-16h208a8 8 0 0 1 8 8Z"></path></svg>