<svg xmlns="http://www.w3.org/2000/svg" xmlns:xlink="http://www.w3.org/1999/xlink" aria-hidden="true" role="img" class="iconify iconify--ph" width="1em" height="1em" preserveAspectRatio="xMidYMid meet" viewBox="0 0 256 256"><path fill="currentColor" d="M48.8 100h158.4a11.9 11.9 0 0 0 11.7-14.5c-3.4-16.1-14.4-30.7-31.2-41.3S149.9 28 128 28s-43.1 5.8-59.7 16.2s-27.8 25.2-31.2 41.3A11.9 11.9 0 0 0 48.8 100Zm-3.9-12.9C51 58 86.7 36 128 36s77 22 83.1 51.1a4.5 4.5 0 0 1-.8 3.4a4 4 0 0 1-3.1 1.5H48.8a4 4 0 0 1-3.1-1.5a4.5 4.5 0 0 1-.8-3.4Zm181.6 69.2L188 171.7l-38.5-15.4a3.9 3.9 0 0 0-3 0L108 171.7l-38.5-15.4a3.9 3.9 0 0 0-3 0l-40 16a4 4 0 1 0 3 7.4l14.5-5.8V184a36 36 0 0 0 36 36h96a36 36 0 0 0 36-36v-13.3l17.5-7a4 4 0 1 0-3-7.4ZM204 184a28.1 28.1 0 0 1-28 28H80a28.1 28.1 0 0 1-28-28v-13.3l16-6.4l38.5 15.4a3.9 3.9 0 0 0 3 0l38.5-15.4l38.5 15.4a3.9 3.9 0 0 0 3 0l14.5-5.8Zm32-56a4 4 0 0 1-4 4H24a4 4 0 0 1 0-8h208a4 4 0 0 1 4 4Z"></path></svg>