<svg xmlns="http://www.w3.org/2000/svg" xmlns:xlink="http://www.w3.org/1999/xlink" aria-hidden="true" role="img" class="iconify iconify--ph" width="1em" height="1em" preserveAspectRatio="xMidYMid meet" viewBox="0 0 256 256"><path fill="currentColor" d="M48.8 102h158.4a13.7 13.7 0 0 0 10.8-5.2a14.3 14.3 0 0 0 2.9-11.8c-3.5-16.5-14.9-31.6-32.1-42.5S150.3 26 128 26s-43.9 5.9-60.8 16.5s-28.6 26-32.1 42.5A14.3 14.3 0 0 0 38 96.8a13.7 13.7 0 0 0 10.8 5.2Zm-1.9-14.5C52.8 59.3 87.7 38 128 38s75.2 21.3 81.1 49.5a2.2 2.2 0 0 1-.4 1.8a2.1 2.1 0 0 1-1.5.7H48.8a2.1 2.1 0 0 1-1.5-.7a2.2 2.2 0 0 1-.4-1.8Zm178.9 66.9L188 169.5l-37.8-15.1a6.6 6.6 0 0 0-4.4 0L108 169.5l-37.8-15.1a6.6 6.6 0 0 0-4.4 0l-40 16a6.1 6.1 0 0 0-3.4 7.8A6 6 0 0 0 28 182a5.7 5.7 0 0 0 2.2-.4l11.8-4.7v7.1a38 38 0 0 0 38 38h96a38 38 0 0 0 38-38v-11.9l16.2-6.5a6 6 0 1 0-4.4-11.2ZM202 184a26.1 26.1 0 0 1-26 26H80a26.1 26.1 0 0 1-26-26v-11.9l14-5.6l37.8 15.1a6.6 6.6 0 0 0 4.4 0l37.8-15.1l37.8 15.1a6.6 6.6 0 0 0 4.4 0l11.8-4.7Zm36-56a6 6 0 0 1-6 6H24a6 6 0 0 1 0-12h208a6 6 0 0 1 6 6Z"></path></svg>