<svg xmlns="http://www.w3.org/2000/svg" xmlns:xlink="http://www.w3.org/1999/xlink" aria-hidden="true" role="img" class="iconify iconify--ph" width="1em" height="1em" preserveAspectRatio="xMidYMid meet" viewBox="0 0 256 256"><path fill="currentColor" d="M223.5 140.9L188 155.1l-35.5-14.2a11.7 11.7 0 0 0-9 0L108 155.1l-35.5-14.2a11.7 11.7 0 0 0-9 0l-40 16a12 12 0 1 0 9 22.2l3.5-1.4v6.3a44 44 0 0 0 44 44h96a44 44 0 0 0 44-44v-15.9l12.5-5a12 12 0 0 0-9-22.2ZM196 184a20.1 20.1 0 0 1-20 20H80a20.1 20.1 0 0 1-20-20v-15.9l8-3.2l35.5 14.2a11.7 11.7 0 0 0 9 0l35.5-14.2l35.5 14.2a11.7 11.7 0 0 0 9 0l3.5-1.4Zm36-84h-12.8a92 92 0 0 0-182.4 0H24a12 12 0 0 0 0 24h208a12 12 0 0 0 0-24ZM128 44a68.1 68.1 0 0 1 66.9 56H61.1A68.1 68.1 0 0 1 128 44Z"></path></svg>