<svg xmlns="http://www.w3.org/2000/svg" xmlns:xlink="http://www.w3.org/1999/xlink" aria-hidden="true" role="img" class="iconify iconify--ph" width="1em" height="1em" preserveAspectRatio="xMidYMid meet" viewBox="0 0 256 256"><path fill="currentColor" d="M188.5 70.7a21.9 21.9 0 0 0-30-8.1a21.5 21.5 0 0 0-9.6 11.4l-17.6-30.3a21.9 21.9 0 0 0-30-8.1A21.5 21.5 0 0 0 91.7 47a22.1 22.1 0 0 0-29.6-7.3a21.9 21.9 0 0 0-10.2 13.4a21.1 21.1 0 0 0 .7 13.6a21 21 0 0 0-10.2 2.9a22.1 22.1 0 0 0-8.1 30.1l5.6 9.5a22.8 22.8 0 0 0-14.7 2.6a22 22 0 0 0-8 30.1l37 64.1a75.9 75.9 0 0 0 137.2-12.2a76.3 76.3 0 0 0 14.1-93.7Zm-83.2-28.2a14 14 0 0 1 19.1 5.2l24.2 41.9a21.4 21.4 0 0 0-9.8 2.9a22.3 22.3 0 0 0-9.7 11.3l-17.5-30.3a21.3 21.3 0 0 0-9.7-8.9l-1.7-2.9a14.1 14.1 0 0 1 5.1-19.2ZM59.6 55.2a14 14 0 0 1 25.6-3.4l6.3 10.8a21 21 0 0 0-9.9 2.9A21.4 21.4 0 0 0 72 76.9a22.8 22.8 0 0 0-9.3-8.2L61 65.8a13.6 13.6 0 0 1-1.4-10.6ZM154 226.9A68.1 68.1 0 0 1 61.1 202l-37-64.1a14 14 0 1 1 24.2-14l24 41.6a4.1 4.1 0 0 0 3.5 2a3.6 3.6 0 0 0 2-.6a4 4 0 0 0 1.5-5.4l-38-65.8a14 14 0 1 1 24.2-14l38 65.8a4 4 0 0 0 5.5 1.4a4 4 0 0 0 1.5-5.4l-30-52a14 14 0 0 1 24.2-14l42 72.8a3.9 3.9 0 0 0 5.5 1.4a3.9 3.9 0 0 0 1.4-5.4l-16-27.8a14.5 14.5 0 0 1-1.4-10.6a14.1 14.1 0 0 1 17.2-9.9l1.3.4a14.1 14.1 0 0 1 7.2 6l17 29.5a68.1 68.1 0 0 1-24.9 93Zm41.4-49.8a75.4 75.4 0 0 0-9.6-47.1l-17-29.5a22.2 22.2 0 0 0-9.8-8.9l-1.7-2.9a14.5 14.5 0 0 1-1.4-10.6a13.8 13.8 0 0 1 6.6-8.5a14 14 0 0 1 19.1 5.1l17 29.4a68.5 68.5 0 0 1-3.2 73ZM168.8 25.7l4.2-15.5a4 4 0 0 1 4.9-2.8a4 4 0 0 1 2.8 4.9l-4.1 15.5a4.1 4.1 0 0 1-3.9 2.9h-1a4.1 4.1 0 0 1-2.9-5Zm25.8 10.5l9.2-13.1a4 4 0 1 1 6.5 4.6l-9.1 13.1a4.2 4.2 0 0 1-3.3 1.7a4 4 0 0 1-2.3-.8a3.9 3.9 0 0 1-1-5.5Zm38.3 16l-13.1 9.2a4 4 0 0 1-5.5-1a4 4 0 0 1 .9-5.6l13.1-9.1a4 4 0 1 1 4.6 6.5Z"></path></svg>