<svg xmlns="http://www.w3.org/2000/svg" xmlns:xlink="http://www.w3.org/1999/xlink" aria-hidden="true" role="img" class="iconify iconify--ph" width="1em" height="1em" preserveAspectRatio="xMidYMid meet" viewBox="0 0 256 256"><path fill="currentColor" d="M144 184a16 16 0 1 1-16-16a16 16 0 0 1 16 16Zm35.5-19.3v-.4c-3.9-12.7-19.3-36.3-51.5-36.3s-47.6 23.6-51.4 36.3v.4a12.6 12.6 0 0 0-.6 3.3a12 12 0 0 0 23.5 3.3c.6-2 6.6-19.4 28.5-19.4s27.9 17.4 28.5 19.4A12 12 0 0 0 180 168a12.6 12.6 0 0 0-.5-3.3ZM220 112v40a92 92 0 0 1-184 0V68a32.1 32.1 0 0 1 32-32a35 35 0 0 1 8 1v-1a32 32 0 0 1 60.8-14A32.1 32.1 0 0 1 180 52v29a35 35 0 0 1 8-1a32.1 32.1 0 0 1 32 32Zm-24 0a8 8 0 0 0-16 0v4a12 12 0 0 1-24 0V52a8 8 0 0 0-16 0v52a12 12 0 0 1-24 0V36a8 8 0 0 0-16 0v76a12 12 0 0 1-24 0V68a8 8 0 0 0-16 0v84a68 68 0 0 0 136 0Z"></path></svg>