<svg xmlns="http://www.w3.org/2000/svg" xmlns:xlink="http://www.w3.org/1999/xlink" aria-hidden="true" role="img" class="iconify iconify--ph" width="1em" height="1em" preserveAspectRatio="xMidYMid meet" viewBox="0 0 256 256"><path fill="currentColor" d="M168 112v-12a20 20 0 0 0-40 0V36a20 20 0 0 0-40 0v121.3l-21.9-38a20 20 0 0 0-34.7 20C64 208 83.8 232 128 232a80 80 0 0 0 80-80v-40a20 20 0 0 0-40 0Z" opacity=".2"></path><path fill="currentColor" d="M188 84a27.6 27.6 0 0 0-14.6 4.1A28.1 28.1 0 0 0 136 74.7V36a28 28 0 0 0-56 0v91.4l-7-12.1A28 28 0 0 0 24.3 143c32.5 68.4 54.1 97 103.7 97a88.1 88.1 0 0 0 88-88v-40a28.1 28.1 0 0 0-28-28Zm12 68a72.1 72.1 0 0 1-72 72c-20.2 0-34.2-5.5-47-18.2S56.3 173 38.7 135.9l-.3-.6a11.6 11.6 0 0 1-1.2-9.1a11.8 11.8 0 0 1 5.6-7.3a12 12 0 0 1 9.1-1.2a11.6 11.6 0 0 1 7.2 5.6l22 38a8.1 8.1 0 0 0 9 3.7a7.9 7.9 0 0 0 5.9-7.7V36a12 12 0 0 1 24 0v68a8 8 0 0 0 16 0v-4a12 12 0 0 1 24 0v12a8 8 0 0 0 16 0a12 12 0 0 1 24 0Z"></path></svg>