<svg xmlns="http://www.w3.org/2000/svg" xmlns:xlink="http://www.w3.org/1999/xlink" aria-hidden="true" role="img" class="iconify iconify--ph" width="1em" height="1em" preserveAspectRatio="xMidYMid meet" viewBox="0 0 256 256"><path fill="currentColor" d="m250.9 105.4l-24.6-47.1a20.2 20.2 0 0 0-26.7-8.7l-22.4 11.3h-10.6l-32.2-14.6a20.2 20.2 0 0 0-13.9-1h-.2L77.2 59L56.4 48.6a20.1 20.1 0 0 0-26.7 8.6L5.1 104.3a20.1 20.1 0 0 0-1.3 15.4a19.9 19.9 0 0 0 10.1 11.7l23.5 11.8L86.9 185l.4.3a20.4 20.4 0 0 0 7.4 3.6l58 14.5a19.7 19.7 0 0 0 4.8.6a20.1 20.1 0 0 0 14.2-5.9l36.8-36.8h.1l.4-.4l.5-.7l.2-.2l.2-.3l.2-.3l10.2-15.9l21.8-10.9a19.9 19.9 0 0 0 8.8-27.1Zm-54.1 30.3l-33.7-24.5a12 12 0 0 0-14.3.1l-12.8 9.6a20.1 20.1 0 0 1-24 0l-1.7-1.3L145 84.9h27.7l25.4 48.6ZM49.2 71.8l10.5 5.3l-20.9 40l-10.5-5.3Zm107.1 107.8l-54.8-13.7l-42.4-35.8L84.2 82l41.7-13.2l.8.4L90 105.9a19.9 19.9 0 0 0 2.2 30.1l5.4 4.1a44.4 44.4 0 0 0 52.8 0l5.7-4.3l25.5 18.5Zm60.9-61.5l-20.9-40l10.5-5.2l20.9 40Zm-97.6 105.7a12 12 0 0 1-11.6 9.1a14.5 14.5 0 0 1-2.9-.4L75 225a20.6 20.6 0 0 1-8.3-4.3l-22.6-19.6a12.1 12.1 0 0 1 15.8-18.2l21.8 19l29.2 7.3a12 12 0 0 1 8.7 14.6Z"></path></svg>