<svg xmlns="http://www.w3.org/2000/svg" xmlns:xlink="http://www.w3.org/1999/xlink" aria-hidden="true" role="img" class="iconify iconify--ph" width="1em" height="1em" preserveAspectRatio="xMidYMid meet" viewBox="0 0 256 256"><path fill="currentColor" d="M200 82h-18V64a30 30 0 0 0-54-18a30 30 0 0 0-54 18a29.7 29.7 0 0 0-18-6a30.1 30.1 0 0 0-30 30v40a102 102 0 0 0 204 0v-16a30.1 30.1 0 0 0-30-30Zm-48-36a18.1 18.1 0 0 1 18 18v18h-34l-2 .2V64a18.1 18.1 0 0 1 18-18ZM86 64a18 18 0 0 1 36 0v40a18 18 0 0 1-36 0V64ZM38 88a18 18 0 0 1 36 0v16a18 18 0 0 1-36 0Zm180 40a90 90 0 0 1-180 0a30 30 0 0 0 42-6a30 30 0 0 0 45.1 3.3a30.3 30.3 0 0 0 14.9 14.2a46.1 46.1 0 0 0-18 36.5a6 6 0 0 0 12 0a34.1 34.1 0 0 1 34-34a6 6 0 0 0 0-12h-16a18.1 18.1 0 0 1-18-18V96a2 2 0 0 1 2-2h64a18.1 18.1 0 0 1 18 18Z"></path></svg>