<svg xmlns="http://www.w3.org/2000/svg" xmlns:xlink="http://www.w3.org/1999/xlink" aria-hidden="true" role="img" class="iconify iconify--ph" width="1em" height="1em" preserveAspectRatio="xMidYMid meet" viewBox="0 0 256 256"><path fill="currentColor" d="M208.8 72H47.2a8.1 8.1 0 0 0-8 7.1L25 207.1a8 8 0 0 0 7.9 8.9h190.2a8 8 0 0 0 7.9-8.9l-14.2-128a8.1 8.1 0 0 0-8-7.1Z" opacity=".2"></path><path fill="currentColor" d="m239 206.2l-14.3-128A15.9 15.9 0 0 0 208.8 64h-33.5a48 48 0 0 0-94.6 0H47.2a15.9 15.9 0 0 0-15.9 14.2L17 206.2a16.2 16.2 0 0 0 4 12.5a15.9 15.9 0 0 0 11.9 5.3h190.2a15.9 15.9 0 0 0 11.9-5.3a16.2 16.2 0 0 0 4-12.5ZM128 40a32.1 32.1 0 0 1 31 24H97a32.1 32.1 0 0 1 31-24ZM32.9 208L47.2 80H80v24a8 8 0 0 0 16 0V80h64v24a8 8 0 0 0 16 0V80h32.8l14.3 128Z"></path></svg>