<svg xmlns="http://www.w3.org/2000/svg" xmlns:xlink="http://www.w3.org/1999/xlink" aria-hidden="true" role="img" class="iconify iconify--ph" width="1em" height="1em" preserveAspectRatio="xMidYMid meet" viewBox="0 0 256 256"><path fill="currentColor" d="m239 206.2l-14.3-128A15.9 15.9 0 0 0 208.8 64h-33.5a48 48 0 0 0-94.6 0H47.2a15.9 15.9 0 0 0-15.9 14.2L17 206.2a16.2 16.2 0 0 0 4 12.5a15.9 15.9 0 0 0 11.9 5.3h190.2a15.9 15.9 0 0 0 11.9-5.3a16.2 16.2 0 0 0 4-12.5ZM96 104a8 8 0 0 1-16 0V88a8 8 0 0 1 16 0Zm1-40a32 32 0 0 1 62 0Zm79 40a8 8 0 0 1-16 0V88a8 8 0 0 1 16 0Z"></path></svg>