<svg xmlns="http://www.w3.org/2000/svg" xmlns:xlink="http://www.w3.org/1999/xlink" aria-hidden="true" role="img" class="iconify iconify--ph" width="1em" height="1em" preserveAspectRatio="xMidYMid meet" viewBox="0 0 256 256"><path fill="currentColor" d="M188 88a23.9 23.9 0 0 0-16 6.1V52a24.1 24.1 0 0 0-24-24a23.8 23.8 0 0 0-16.1 6.2A24 24 0 0 0 84 36v14.1A24 24 0 0 0 44 68v84a84 84 0 0 0 168 0v-40a24.1 24.1 0 0 0-24-24Zm16 64a76 76 0 0 1-152 0V68a16 16 0 0 1 32 0v44a4 4 0 0 0 8 0V36a16 16 0 0 1 32 0v68a4 4 0 0 0 8 0V52a16 16 0 0 1 32 0v76.2a44 44 0 0 0-40 43.8a4 4 0 0 0 8 0a36 36 0 0 1 36-36a4 4 0 0 0 4-4v-20a16 16 0 0 1 32 0Z"></path></svg>