<svg xmlns="http://www.w3.org/2000/svg" xmlns:xlink="http://www.w3.org/1999/xlink" aria-hidden="true" role="img" class="iconify iconify--ph" width="1em" height="1em" preserveAspectRatio="xMidYMid meet" viewBox="0 0 256 256"><path fill="currentColor" d="M188 76a32.2 32.2 0 0 0-11.2 2A32.2 32.2 0 0 0 148 60a31.8 31.8 0 0 0-20 7a32 32 0 0 0-52 25v12h-8a32.1 32.1 0 0 0-32 32v16a92 92 0 0 0 184 0v-44a32.1 32.1 0 0 0-32-32Zm8 76a68 68 0 0 1-136 0v-16a8 8 0 0 1 8-8h8v20a12 12 0 0 0 24 0V92a8 8 0 0 1 16 0v32a12 12 0 0 0 24 0V92a8 8 0 0 1 16 0v32a12 12 0 0 0 24 0v-16a8 8 0 0 1 16 0Z"></path></svg>