<svg xmlns="http://www.w3.org/2000/svg" xmlns:xlink="http://www.w3.org/1999/xlink" aria-hidden="true" role="img" class="iconify iconify--ph" width="1em" height="1em" preserveAspectRatio="xMidYMid meet" viewBox="0 0 256 256"><path fill="currentColor" d="M208 112v40a80 80 0 0 1-160 0V68a20 20 0 0 1 40 0V36a20 20 0 0 1 40 0v16a20 20 0 0 1 40 0v60a20 20 0 0 1 40 0Z" opacity=".2"></path><path fill="currentColor" d="M188 84a28.2 28.2 0 0 0-12 2.7V52a28.1 28.1 0 0 0-28-28a27.8 27.8 0 0 0-13.4 3.4A28 28 0 0 0 80 36v6.7A28 28 0 0 0 40 68v84a88 88 0 0 0 176 0v-40a28.1 28.1 0 0 0-28-28Zm12 68a72 72 0 0 1-144 0V68a12 12 0 0 1 24 0v44a8 8 0 0 0 16 0V36a12 12 0 0 1 24 0v68a8 8 0 0 0 16 0V52a12 12 0 0 1 24 0v72.7a48 48 0 0 0-40 47.3a8 8 0 0 0 16 0a32.1 32.1 0 0 1 32-32a8 8 0 0 0 8-8v-20a12 12 0 0 1 24 0Z"></path></svg>