<svg xmlns="http://www.w3.org/2000/svg" xmlns:xlink="http://www.w3.org/1999/xlink" aria-hidden="true" role="img" class="iconify iconify--ph" width="1em" height="1em" preserveAspectRatio="xMidYMid meet" viewBox="0 0 256 256"><path fill="currentColor" d="M200 84h-20V64a28 28 0 0 0-52-14.4A28 28 0 0 0 76 64v4.4A28 28 0 0 0 28 88v40a100 100 0 0 0 200 0v-16a28.1 28.1 0 0 0-28-28Zm-48-40a20.1 20.1 0 0 1 20 20v20h-36a13.4 13.4 0 0 0-4 .7V64a20.1 20.1 0 0 1 20-20ZM84 64a20 20 0 0 1 40 0v40a20 20 0 0 1-40 0V64ZM36 88a20 20 0 0 1 40 0v16a20 20 0 0 1-40 0Zm184 40a92 92 0 0 1-184 0v-4.4a28 28 0 0 0 44-5.2a28.1 28.1 0 0 0 24 13.6a27.6 27.6 0 0 0 21.7-10.4a28 28 0 0 0 18.6 17.3A44.2 44.2 0 0 0 124 176a4 4 0 0 0 8 0a36 36 0 0 1 36-36a4 4 0 0 0 0-8h-16a20.1 20.1 0 0 1-20-20V96a4 4 0 0 1 4-4h64a20.1 20.1 0 0 1 20 20Z"></path></svg>