<svg xmlns="http://www.w3.org/2000/svg" xmlns:xlink="http://www.w3.org/1999/xlink" aria-hidden="true" role="img" class="iconify iconify--ph" width="1em" height="1em" preserveAspectRatio="xMidYMid meet" viewBox="0 0 256 256"><path fill="currentColor" d="M195.7 75.3A32 32 0 0 0 152 63.6a31.7 31.7 0 0 0-6.5 4.9L131 43.4a32 32 0 0 0-43.7-11.7a30.8 30.8 0 0 0-8.7 7.3a35 35 0 0 0-9.6-4.4a32 32 0 0 0-36 46.9l.5.9a30.5 30.5 0 0 0-7.5 3.1a32 32 0 0 0-11.7 43.7l42 72.8a92 92 0 1 0 159.4-92ZM170 214.9A68.1 68.1 0 0 1 77.1 190l-42-72.8a7.9 7.9 0 0 1-.8-6a8.3 8.3 0 0 1 3.7-4.9a8.1 8.1 0 0 1 11 2.9l22 38.1l4 6.9a12 12 0 1 0 20.7-12l-42-72.8a8.4 8.4 0 0 1-.8-6a8.1 8.1 0 0 1 3.8-4.9a7.5 7.5 0 0 1 6-.8a8.3 8.3 0 0 1 4.9 3.7l8 13.9l13 22.5l21 36.4a12 12 0 0 0 20.8-12l-8-13.9l-13-22.5l-13-22.5a8 8 0 0 1 13.8-8l30 51.9l18 31.2a12 12 0 0 0 20.8-12l-8-13.8l-10-17.3a8.4 8.4 0 0 1-.8-6a8.1 8.1 0 0 1 3.8-4.9a8 8 0 0 1 10.9 2.9l20 34.7a68.1 68.1 0 0 1-24.9 92.9ZM144 28V12a12 12 0 0 1 24 0v16a12 12 0 0 1-24 0Zm41.6 4.7l8-13.8a12 12 0 0 1 20.8 12l-8 13.8a12 12 0 0 1-16.4 4.4a12 12 0 0 1-4.4-16.4Zm59.5 37.7l-13.8 8a12 12 0 1 1-12-20.8l13.8-8a12 12 0 0 1 12 20.8Z"></path></svg>