<svg xmlns="http://www.w3.org/2000/svg" xmlns:xlink="http://www.w3.org/1999/xlink" aria-hidden="true" role="img" class="iconify iconify--ph" width="1em" height="1em" preserveAspectRatio="xMidYMid meet" viewBox="0 0 256 256"><path fill="currentColor" d="M247.8 109.1L223.2 62a12 12 0 0 0-16-5.2l-24.1 12.1h-18.2l-33.8-15.3a11.9 11.9 0 0 0-8.3-.6L72.6 67.6L48.8 55.7a12 12 0 0 0-16 5.2L8.2 108a12.1 12.1 0 0 0-.8 9.3a12.3 12.3 0 0 0 6.1 7l24.4 12.2L92.2 179a13.5 13.5 0 0 0 4.5 2.2l57.9 14.4a10.1 10.1 0 0 0 2.9.4a11.7 11.7 0 0 0 8.5-3.5l36.8-36.8l.2-.2l15.5-18.1l24-12a12.2 12.2 0 0 0 6.1-7.1a11.8 11.8 0 0 0-.8-9.2Zm-48.4 38.4l-41-29.9a4 4 0 0 0-4.8.1l-12.8 9.6a28.2 28.2 0 0 1-33.6 0l-5.4-4.1a3.7 3.7 0 0 1-1.6-2.9a3.6 3.6 0 0 1 1.2-3.1L140.5 78a4.1 4.1 0 0 1 2.8-1.1h38.3l29.6 56.7ZM15.1 114.8a3.7 3.7 0 0 1 .2-3.1l24.6-47.1a3.9 3.9 0 0 1 3.6-2.1a3.3 3.3 0 0 1 1.7.4l21.4 10.6l-28.3 54.2l-21.2-10.6a3.5 3.5 0 0 1-2-2.3Zm145.3 72a4.2 4.2 0 0 1-3.8 1.1l-58-14.5a5.1 5.1 0 0 1-1.5-.7l-52-40.7l29.6-56.7L125 60.7a3.9 3.9 0 0 1 2.8.2l17.7 8h-2.2a11.9 11.9 0 0 0-8.5 3.5l-39.1 39.1a12 12 0 0 0 1.3 18.1l5.4 4.1a36.3 36.3 0 0 0 43.2 0l10.4-7.9l37.9 27.5Zm80.5-70.9a3.8 3.8 0 0 1-2 2.3l-21.2 10.6l-28.3-54.2L210.8 64a4 4 0 0 1 5.3 1.7l24.6 47.1a3.7 3.7 0 0 1 .2 3.1Zm-125 97.9a4.1 4.1 0 0 1-3.9 3.1l-1-.2l-30.1-7.5a12 12 0 0 1-5-2.6L53.4 187a4 4 0 1 1 5.2-6l22.6 19.6a3.5 3.5 0 0 0 1.6.8L113 209a4 4 0 0 1 2.9 4.8Z"></path></svg>