<svg xmlns="http://www.w3.org/2000/svg" xmlns:xlink="http://www.w3.org/1999/xlink" aria-hidden="true" role="img" class="iconify iconify--ph" width="1em" height="1em" preserveAspectRatio="xMidYMid meet" viewBox="0 0 256 256"><path fill="currentColor" d="M188 86a25.6 25.6 0 0 0-14 4.1V52a26 26 0 0 0-40.6-21.5A26 26 0 0 0 82 36v10.1A25.6 25.6 0 0 0 68 42a26.1 26.1 0 0 0-26 26v84a86 86 0 0 0 172 0v-40a26.1 26.1 0 0 0-26-26Zm14 66a74 74 0 0 1-148 0V68a14 14 0 0 1 28 0v44a6 6 0 0 0 12 0V36a14 14 0 0 1 28 0v68a6 6 0 0 0 12 0V52a14 14 0 0 1 28 0v74.4a46.1 46.1 0 0 0-40 45.6a6 6 0 0 0 12 0a34.1 34.1 0 0 1 34-34a6 6 0 0 0 6-6v-20a14 14 0 0 1 28 0Z"></path></svg>