<svg xmlns="http://www.w3.org/2000/svg" xmlns:xlink="http://www.w3.org/1999/xlink" aria-hidden="true" role="img" class="iconify iconify--ph" width="1em" height="1em" preserveAspectRatio="xMidYMid meet" viewBox="0 0 256 256"><path fill="currentColor" d="M188 92a20.1 20.1 0 0 0-20 20V52a20 20 0 0 0-40 0V36a20 20 0 0 0-40 0v32a20 20 0 0 0-40 0v84a80 80 0 0 0 160 0v-40a20.1 20.1 0 0 0-20-20Zm-14.6 80.4c-5.7 8.8-20.8 27.6-45.4 27.6s-39.7-18.8-45.4-27.6a8.2 8.2 0 0 1 0-8.8c5.7-8.8 20.8-27.6 45.4-27.6s39.7 18.8 45.4 27.6a8.2 8.2 0 0 1 0 8.8Z" opacity=".2"></path><path fill="currentColor" d="M128 128c-28.7 0-46 21.8-52.1 31.2a16.1 16.1 0 0 0 0 17.6C82 186.2 99.3 208 128 208s46-21.8 52.1-31.2a16.1 16.1 0 0 0 0-17.6C174 149.8 156.7 128 128 128Zm0 64c-20.8 0-34-16.8-38.7-24c4.7-7.2 17.9-24 38.7-24s34 16.8 38.7 24c-4.7 7.2-17.9 24-38.7 24Zm60-108a28.2 28.2 0 0 0-12 2.7V52a28.1 28.1 0 0 0-28-28a27.8 27.8 0 0 0-13.4 3.4A28 28 0 0 0 80 36v6.7A28 28 0 0 0 40 68v84a88 88 0 0 0 176 0v-40a28.1 28.1 0 0 0-28-28Zm12 68a72 72 0 0 1-144 0V68a12 12 0 0 1 24 0v44a8 8 0 0 0 16 0V36a12 12 0 0 1 24 0v68a8 8 0 0 0 16 0V52a12 12 0 0 1 24 0v64a8 8 0 0 0 16 0v-4a12 12 0 0 1 24 0Zm-60 16a12 12 0 1 1-12-12a12 12 0 0 1 12 12Z"></path></svg>