<svg xmlns="http://www.w3.org/2000/svg" xmlns:xlink="http://www.w3.org/1999/xlink" aria-hidden="true" role="img" class="iconify iconify--ph" width="1em" height="1em" preserveAspectRatio="xMidYMid meet" viewBox="0 0 256 256"><path fill="currentColor" d="M200 76h-12V64a36 36 0 0 0-60-26.8a35.9 35.9 0 0 0-58.7 17.3A36.6 36.6 0 0 0 56 52a36 36 0 0 0-36 36v40a108 108 0 0 0 216 0v-16a36 36 0 0 0-36-36Zm-48-24a12 12 0 0 1 12 12v12h-24V64a12 12 0 0 1 12-12ZM92 64a12 12 0 0 1 24 0v40a12 12 0 0 1-24 0V64ZM44 88a12 12 0 0 1 24 0v16a12 12 0 0 1-24 0Zm168 40a84 84 0 0 1-167.4 10.2a36.2 36.2 0 0 0 35.4-7.4a36 36 0 0 0 24 9.2a35.6 35.6 0 0 0 19.6-5.9a35.3 35.3 0 0 0 6.4 6.4a51.8 51.8 0 0 0-14 35.5a12 12 0 0 0 24 0a28.1 28.1 0 0 1 28-28a12 12 0 0 0 0-24h-16a12 12 0 0 1-12-12v-12h60a12 12 0 0 1 12 12Z"></path></svg>