<svg xmlns="http://www.w3.org/2000/svg" xmlns:xlink="http://www.w3.org/1999/xlink" aria-hidden="true" role="img" class="iconify iconify--ph" width="1em" height="1em" preserveAspectRatio="xMidYMid meet" viewBox="0 0 256 256"><path fill="currentColor" d="M203.7 67.3A32 32 0 0 0 160 55.6a31.7 31.7 0 0 0-6.5 4.9L139 35.4a32 32 0 0 0-43.7-11.7a32.5 32.5 0 0 0-8.7 7.3a35 35 0 0 0-9.6-4.4a32 32 0 0 0-36 46.9l.5.9a30.5 30.5 0 0 0-7.5 3.1a32.1 32.1 0 0 0-11.7 43.7l42 72.8a92 92 0 1 0 159.4-92Zm6 98.3A68 68 0 0 1 85.1 182l-42-72.8A8 8 0 0 1 46 98.3a8.1 8.1 0 0 1 11 2.9l22 38.1a5.7 5.7 0 0 0 .8 1.3l.3.3a2.7 2.7 0 0 0 .7.8l.3.3l1 .9h.1l1.1.7l.4.2l.9.5h.4l1.3.4h.1l1.2.2h3.3a.1.1 0 0 1 .1-.1l1.2-.2h.5l.9-.4h.4l1.4-.7a11.8 11.8 0 0 0 5.9-9.5a11.5 11.5 0 0 0-1.6-6.9l-38-65.8a8.4 8.4 0 0 1-.8-6a8.1 8.1 0 0 1 3.8-4.9a7.5 7.5 0 0 1 6-.8a8.3 8.3 0 0 1 4.9 3.7l34 58.9l.7 1.1a11.9 11.9 0 0 0 13.9 4.1l1.8-.8a12.1 12.1 0 0 0 6-9.5a13 13 0 0 0-1.6-6.9l-26-45a8 8 0 0 1 13.8-8l30 51.9l4.7 8.2a52.1 52.1 0 0 0-9.3 63.8a12 12 0 0 0 20.8-12a28 28 0 0 1 10.2-38.2l1-.7a1.8 1.8 0 0 0 .7-.5l.3-.2l.7-.7h.1l.7-.8h.1a5.6 5.6 0 0 1 .5-.8v-.2l.5-.8a.3.3 0 0 1 .1-.2a2 2 0 0 1 .4-.8a.4.4 0 0 1 .1-.3l.6-2.3v-.2c0-.3.1-.6.1-.9v-1.4a3.4 3.4 0 0 0-.1-1a3.6 3.6 0 0 0-.2-1l-.3-1.1c0-.1-.1-.1-.1-.2l-.3-.9l-.6-1l-9.9-17.6a8.4 8.4 0 0 1-.8-6a8.1 8.1 0 0 1 3.8-4.9a8 8 0 0 1 10.9 2.9l20 34.7a67.4 67.4 0 0 1 6.8 51.6ZM234 63.4a12 12 0 0 1-6 1.6a11.8 11.8 0 0 1-10.4-6A48.2 48.2 0 0 0 176 35a12 12 0 0 1 0-24a72.3 72.3 0 0 1 62.4 36a12.1 12.1 0 0 1-4.4 16.4ZM76.1 247.7a11.9 11.9 0 0 1-9.2 4.3a12 12 0 0 1-7.7-2.8A131.7 131.7 0 0 1 29.7 214a12 12 0 0 1 20.8-12a109.7 109.7 0 0 0 24.1 28.8a11.9 11.9 0 0 1 1.5 16.9Z"></path></svg>