<svg xmlns="http://www.w3.org/2000/svg" xmlns:xlink="http://www.w3.org/1999/xlink" aria-hidden="true" role="img" class="iconify iconify--ph" width="1em" height="1em" preserveAspectRatio="xMidYMid meet" viewBox="0 0 256 256"><path fill="currentColor" d="M182 98.5V88a30.1 30.1 0 0 0-30-30h-18V30h34a10 10 0 0 1 10 10a6 6 0 0 0 12 0a22.1 22.1 0 0 0-22-22h-64a6 6 0 0 0 0 12h18v28h-18a30.1 30.1 0 0 0-30 30v10.5A38.1 38.1 0 0 0 42 136v80a14 14 0 0 0 14 14h144a14 14 0 0 0 14-14v-80a38.1 38.1 0 0 0-32-37.5ZM104 70h48a18.1 18.1 0 0 1 18 18v10H86V88a18.1 18.1 0 0 1 18-18Zm98 146a2 2 0 0 1-2 2H56a2 2 0 0 1-2-2v-80a26.1 26.1 0 0 1 26-26h96a26.1 26.1 0 0 1 26 26Z"></path></svg>