<svg xmlns="http://www.w3.org/2000/svg" xmlns:xlink="http://www.w3.org/1999/xlink" aria-hidden="true" role="img" class="iconify iconify--ph" width="1em" height="1em" preserveAspectRatio="xMidYMid meet" viewBox="0 0 256 256"><path fill="currentColor" d="M128 64a24 24 0 0 1 48 0v24h24a23.9 23.9 0 0 1 24 24v16a96 96 0 0 1-192 0V88a24 24 0 0 1 48 0V64a24 24 0 0 1 48 0" opacity=".2"></path><path fill="currentColor" d="M200 80h-16V64a32 32 0 0 0-56-21.1A31.8 31.8 0 0 0 104 32a32.1 32.1 0 0 0-31.8 28.4A32 32 0 0 0 24 88v40a104 104 0 0 0 208 0v-16a32.1 32.1 0 0 0-32-32Zm-48-32a16 16 0 0 1 16 16v16h-32V64a16 16 0 0 1 16-16ZM88 64a16 16 0 0 1 32 0v40a16 16 0 0 1-32 0V64ZM40 88a16 16 0 0 1 32 0v16a16 16 0 0 1-32 0Zm176 40a88 88 0 0 1-175.9 3.8a32 32 0 0 0 39.9-6.7a31.9 31.9 0 0 0 44.6 3.4a32.3 32.3 0 0 0 11.8 11.4A47.7 47.7 0 0 0 120 176a8 8 0 0 0 16 0a32.1 32.1 0 0 1 32-32a8 8 0 0 0 0-16h-16a16 16 0 0 1-16-16V96h64a16 16 0 0 1 16 16Z"></path></svg>