<svg xmlns="http://www.w3.org/2000/svg" xmlns:xlink="http://www.w3.org/1999/xlink" aria-hidden="true" role="img" class="iconify iconify--ph" width="1em" height="1em" preserveAspectRatio="xMidYMid meet" viewBox="0 0 256 256"><path fill="currentColor" d="M188 84a23.8 23.8 0 0 0-16.1 6.2A23.9 23.9 0 0 0 128 78.8A24 24 0 0 0 84 92v20H68a24.1 24.1 0 0 0-24 24v16a84 84 0 0 0 168 0v-44a24.1 24.1 0 0 0-24-24Zm16 68a76 76 0 0 1-152 0v-16a16 16 0 0 1 16-16h16v28a4 4 0 0 0 8 0V92a16 16 0 0 1 32 0v32a4 4 0 0 0 8 0V92a16 16 0 0 1 32 0v32a4 4 0 0 0 8 0v-16a16 16 0 0 1 32 0Z"></path></svg>