<svg xmlns="http://www.w3.org/2000/svg" xmlns:xlink="http://www.w3.org/1999/xlink" aria-hidden="true" role="img" class="iconify iconify--ph" width="1em" height="1em" preserveAspectRatio="xMidYMid meet" viewBox="0 0 256 256"><path fill="currentColor" d="M188 97.7V92a36 36 0 0 0-36-36h-12V36h28a4 4 0 0 1 4 4a12 12 0 0 0 24 0a28.1 28.1 0 0 0-28-28h-64a12 12 0 0 0 0 24h12v20h-12a36 36 0 0 0-36 36v5.7A44.1 44.1 0 0 0 36 140v76a20.1 20.1 0 0 0 20 20h144a20.1 20.1 0 0 0 20-20v-76a44.1 44.1 0 0 0-32-42.3ZM104 80h48a12 12 0 0 1 12 12v4H92v-4a12 12 0 0 1 12-12Zm92 132H60v-72a20.1 20.1 0 0 1 20-20h96a20.1 20.1 0 0 1 20 20Z"></path></svg>