<svg xmlns="http://www.w3.org/2000/svg" xmlns:xlink="http://www.w3.org/1999/xlink" aria-hidden="true" role="img" class="iconify iconify--ph" width="1em" height="1em" preserveAspectRatio="xMidYMid meet" viewBox="0 0 256 256"><path fill="currentColor" d="m242.9 205.8l-14.2-128A19.9 19.9 0 0 0 208.8 60h-30.2a52 52 0 0 0-101.2 0H47.2a19.9 19.9 0 0 0-19.9 17.8l-14.2 128a19.6 19.6 0 0 0 4.9 15.5a20 20 0 0 0 14.9 6.7h190.2a20 20 0 0 0 14.9-6.7a19.6 19.6 0 0 0 4.9-15.5ZM128 44a28 28 0 0 1 25.3 16h-50.6A28 28 0 0 1 128 44ZM37.4 204L50.7 84H76v20a12 12 0 0 0 24 0V84h56v20a12 12 0 0 0 24 0V84h25.3l13.3 120Z"></path></svg>