<svg xmlns="http://www.w3.org/2000/svg" xmlns:xlink="http://www.w3.org/1999/xlink" aria-hidden="true" role="img" class="iconify iconify--ph" width="1em" height="1em" preserveAspectRatio="xMidYMid meet" viewBox="0 0 256 256"><path fill="currentColor" d="m249.5 108.1l-24.5-47a14.1 14.1 0 0 0-18.7-6.1l-23.7 11.9h-17.3l-33.4-15.1a13.5 13.5 0 0 0-9.7-.7L72.8 65.5L49.7 53.9A14.2 14.2 0 0 0 31 60L6.5 107.1a13.8 13.8 0 0 0 6.1 19l24.2 12.1L91 180.5a12.8 12.8 0 0 0 5.2 2.6l58 14.5a12.4 12.4 0 0 0 3.3.4a14.1 14.1 0 0 0 9.9-4.1l36.8-36.8h.4l15.2-18.1l23.6-11.8a14.2 14.2 0 0 0 7.1-8.3a14 14 0 0 0-1-10.8ZM199 144.7L159.5 116a6 6 0 0 0-7.1.1l-12.8 9.6a26.1 26.1 0 0 1-31.2 0l-5.4-4.1a1.7 1.7 0 0 1-.8-1.5a1.8 1.8 0 0 1 .6-1.5l39.1-39.2a2.4 2.4 0 0 1 1.4-.5h37.1l28.4 54.4ZM17 114.2a1.8 1.8 0 0 1 .1-1.6l24.6-47.1a2 2 0 0 1 1.8-1a1.1 1.1 0 0 1 .8.2l19.6 9.7l-26.5 50.7l-19.4-9.8a1.7 1.7 0 0 1-1-1.1Zm142 71.2a2 2 0 0 1-1.9.5l-58-14.4l-.7-.4l-50.8-39.7L76 77l49.6-14.4a2.3 2.3 0 0 1 1.4.1l11.3 5.1a14.3 14.3 0 0 0-4.9 3.2l-39.1 39.1a13.9 13.9 0 0 0 1.5 21.1l5.4 4.1a38.4 38.4 0 0 0 45.6 0l9.3-7l34.7 25.3Zm80-70.2a1.8 1.8 0 0 1-1 1.2l-19.4 9.7l-26.5-50.6l19.6-9.8a2 2 0 0 1 2.6.9l24.6 47.1a1.6 1.6 0 0 1 .1 1.5Zm-121.2 99.1a6.1 6.1 0 0 1-5.8 4.6l-1.5-.2l-30.1-7.6a13.5 13.5 0 0 1-5.8-3l-22.5-19.6a6 6 0 1 1 7.8-9l22.6 19.6a2 2 0 0 0 .8.4l30.2 7.5a6 6 0 0 1 4.3 7.3Z"></path></svg>