<svg xmlns="http://www.w3.org/2000/svg" xmlns:xlink="http://www.w3.org/1999/xlink" aria-hidden="true" role="img" class="iconify iconify--ph" width="1em" height="1em" preserveAspectRatio="xMidYMid meet" viewBox="0 0 256 256"><path fill="currentColor" d="M180 100.2V88a28.1 28.1 0 0 0-28-28h-20V28h36a12 12 0 0 1 12 12a4 4 0 0 0 8 0a20.1 20.1 0 0 0-20-20h-64a4 4 0 0 0 0 8h20v32h-20a28.1 28.1 0 0 0-28 28v12.2A36.1 36.1 0 0 0 44 136v80a12 12 0 0 0 12 12h144a12 12 0 0 0 12-12v-80a36.1 36.1 0 0 0-32-35.8ZM104 68h48a20.1 20.1 0 0 1 20 20v12H84V88a20.1 20.1 0 0 1 20-20Zm100 148a4 4 0 0 1-4 4H56a4 4 0 0 1-4-4v-80a28.1 28.1 0 0 1 28-28h96a28.1 28.1 0 0 1 28 28Z"></path></svg>