<svg xmlns="http://www.w3.org/2000/svg" xmlns:xlink="http://www.w3.org/1999/xlink" aria-hidden="true" role="img" class="iconify iconify--ph" width="1em" height="1em" preserveAspectRatio="xMidYMid meet" viewBox="0 0 256 256"><path fill="currentColor" d="M128 130c-27.7 0-44.5 21.2-50.4 30.3a13.9 13.9 0 0 0 0 15.4c5.9 9.1 22.7 30.3 50.4 30.3s44.5-21.2 50.4-30.3a13.9 13.9 0 0 0 0-15.4c-5.9-9.1-22.7-30.3-50.4-30.3Zm40.4 39.1c-4.9 7.5-18.6 24.9-40.4 24.9s-35.5-17.4-40.4-24.9a2.2 2.2 0 0 1 0-2.2c4.9-7.5 18.6-24.9 40.4-24.9s35.5 17.4 40.4 24.9a2.2 2.2 0 0 1 0 2.2ZM188 86a25.6 25.6 0 0 0-14 4.1V52a26 26 0 0 0-40.6-21.5A26 26 0 0 0 82 36v10.1A25.6 25.6 0 0 0 68 42a26.1 26.1 0 0 0-26 26v84a86 86 0 0 0 172 0v-40a26.1 26.1 0 0 0-26-26Zm14 66a74 74 0 0 1-148 0V68a14 14 0 0 1 28 0v44a6 6 0 0 0 12 0V36a14 14 0 0 1 28 0v68a6 6 0 0 0 12 0V52a14 14 0 0 1 28 0v64a6 6 0 0 0 12 0v-4a14 14 0 0 1 28 0Zm-64 16a10 10 0 1 1-10-10a10 10 0 0 1 10 10Z"></path></svg>