<svg xmlns="http://www.w3.org/2000/svg" xmlns:xlink="http://www.w3.org/1999/xlink" aria-hidden="true" role="img" class="iconify iconify--ph" width="1em" height="1em" preserveAspectRatio="xMidYMid meet" viewBox="0 0 256 256"><path fill="currentColor" d="M188 80a35 35 0 0 0-8 1V52a32.1 32.1 0 0 0-43.2-30A32 32 0 0 0 76 36v1a35 35 0 0 0-8-1a32.1 32.1 0 0 0-32 32v84a92 92 0 0 0 184 0v-40a32.1 32.1 0 0 0-32-32Zm8 72a68 68 0 0 1-136 0V68a8 8 0 0 1 16 0v44a12 12 0 0 0 24 0V36a8 8 0 0 1 16 0v68a12 12 0 0 0 24 0V52a8 8 0 0 1 16 0v69.4a52.1 52.1 0 0 0-40 50.6a12 12 0 0 0 24 0a28.1 28.1 0 0 1 28-28a12 12 0 0 0 12-12v-20a8 8 0 0 1 16 0Z"></path></svg>