<svg xmlns="http://www.w3.org/2000/svg" xmlns:xlink="http://www.w3.org/1999/xlink" aria-hidden="true" role="img" class="iconify iconify--ph" width="1em" height="1em" preserveAspectRatio="xMidYMid meet" viewBox="0 0 256 256"><path fill="currentColor" d="m237 206.5l-14.2-128a14.1 14.1 0 0 0-14-12.5h-35.2a46 46 0 0 0-91.2 0H47.2a14.1 14.1 0 0 0-14 12.5L19 206.5A14.1 14.1 0 0 0 32.9 222h190.2a14.1 14.1 0 0 0 13.9-15.5ZM128 38a34.1 34.1 0 0 1 33.5 28h-67A34.1 34.1 0 0 1 128 38Zm96.6 171.3a2.1 2.1 0 0 1-1.5.7H32.9a2.1 2.1 0 0 1-1.5-.7a1.8 1.8 0 0 1-.4-1.5l14.2-128a2 2 0 0 1 2-1.8H82v26a6 6 0 0 0 12 0V78h68v26a6 6 0 0 0 12 0V78h34.8a2 2 0 0 1 2 1.8l14.2 128a1.8 1.8 0 0 1-.4 1.5Z"></path></svg>