<svg xmlns="http://www.w3.org/2000/svg" xmlns:xlink="http://www.w3.org/1999/xlink" aria-hidden="true" role="img" class="iconify iconify--ph" width="1em" height="1em" preserveAspectRatio="xMidYMid meet" viewBox="0 0 256 256"><path fill="currentColor" d="M188 86a25.4 25.4 0 0 0-15.5 5.2A26.2 26.2 0 0 0 148 74a25.6 25.6 0 0 0-14 4.1V36a26 26 0 0 0-52 0v98.9l-10.7-18.6a26 26 0 0 0-15.8-12.1a25.6 25.6 0 0 0-19.7 2.6a25.3 25.3 0 0 0-12.2 15.8a26.1 26.1 0 0 0 2.5 19.5C58.2 209.7 79.5 238 128 238a86.1 86.1 0 0 0 86-86v-40a26.1 26.1 0 0 0-26-26Zm14 66a74.1 74.1 0 0 1-74 74c-38.8 0-57.5-18.4-91.1-89.3l-.3-.4a14.5 14.5 0 0 1-1.4-10.6a13.8 13.8 0 0 1 6.6-8.5a14 14 0 0 1 19.1 5.1l21.9 38a6.1 6.1 0 0 0 6.8 2.8a6 6 0 0 0 4.4-5.8V36a14 14 0 0 1 28 0v68a6 6 0 0 0 12 0v-4a14 14 0 0 1 28 0v12a6 6 0 0 0 12 0a14 14 0 0 1 28 0Z"></path></svg>