<svg xmlns="http://www.w3.org/2000/svg" xmlns:xlink="http://www.w3.org/1999/xlink" aria-hidden="true" role="img" class="iconify iconify--ph" width="1em" height="1em" preserveAspectRatio="xMidYMid meet" viewBox="0 0 256 256"><path fill="currentColor" d="M160 88a16 16 0 1 1 16 16a16 16 0 0 1-16-16Zm16 64a16 16 0 1 0 16 16a16 16 0 0 0-16-16Zm52-96v144a20.1 20.1 0 0 1-20 20H48a20.1 20.1 0 0 1-20-20V56a20.1 20.1 0 0 1 20-20h160a20.1 20.1 0 0 1 20 20ZM52 60v56h152V60Zm152 136v-56H52v56Z"></path></svg>