<svg xmlns="http://www.w3.org/2000/svg" xmlns:xlink="http://www.w3.org/1999/xlink" aria-hidden="true" role="img" class="iconify iconify--ph" width="1em" height="1em" preserveAspectRatio="xMidYMid meet" viewBox="0 0 256 256"><path fill="currentColor" d="M208 140H48a12 12 0 0 0-12 12v48a12 12 0 0 0 12 12h160a12 12 0 0 0 12-12v-48a12 12 0 0 0-12-12Zm4 60a4 4 0 0 1-4 4H48a4 4 0 0 1-4-4v-48a4 4 0 0 1 4-4h160a4 4 0 0 1 4 4Zm-4-156H48a12 12 0 0 0-12 12v48a12 12 0 0 0 12 12h160a12 12 0 0 0 12-12V56a12 12 0 0 0-12-12Zm4 60a4 4 0 0 1-4 4H48a4 4 0 0 1-4-4V56a4 4 0 0 1 4-4h160a4 4 0 0 1 4 4Zm-24-24a8 8 0 1 1-8-8a8 8 0 0 1 8 8Zm0 96a8 8 0 1 1-8-8a8 8 0 0 1 8 8Z"></path></svg>