<svg xmlns="http://www.w3.org/2000/svg" xmlns:xlink="http://www.w3.org/1999/xlink" aria-hidden="true" role="img" class="iconify iconify--ph" width="1em" height="1em" preserveAspectRatio="xMidYMid meet" viewBox="0 0 256 256"><path fill="currentColor" d="M144 224h-1.4a8 8 0 0 1-6.5-9.3l8.5-46.6H96.9l-9 49.4a8 8 0 1 1-15.8-2.8l8.5-46.7H32a8 8 0 0 1 0-16h51.5l8.7-48H43.6a8 8 0 1 1 0-16h51.5l9-49.4a8 8 0 1 1 15.8 2.8L111.4 88h47.7l9-49.4a8 8 0 0 1 15.8 2.8L175.4 88H224a8 8 0 0 1 0 16h-51.5l-8.7 48h48.6a8 8 0 0 1 0 16h-51.5l-9 49.4a8 8 0 0 1-7.9 6.6Zm-44.2-72h47.7l8.7-48h-47.7Z"></path></svg>