<svg xmlns="http://www.w3.org/2000/svg" xmlns:xlink="http://www.w3.org/1999/xlink" aria-hidden="true" role="img" class="iconify iconify--ph" width="1em" height="1em" preserveAspectRatio="xMidYMid meet" viewBox="0 0 256 256"><path fill="currentColor" d="M224 90h-51l8.9-48.9a6 6 0 0 0-11.8-2.2L160.8 90H109l8.9-48.9a6 6 0 0 0-11.8-2.2L96.8 90H43.6a6 6 0 1 0 0 12h51l-9.4 52H32a6 6 0 0 0 0 12h51l-8.9 48.9a6 6 0 0 0 4.8 7H80a5.9 5.9 0 0 0 5.9-4.9l9.3-51H147l-8.9 48.9a6 6 0 0 0 4.8 7h1.1a5.9 5.9 0 0 0 5.9-4.9l9.3-51.1h53.2a6 6 0 0 0 0-12h-51l9.4-52H224a6 6 0 0 0 0-12Zm-74.8 64H97.4l9.4-52h51.8Z"></path></svg>