<svg xmlns="http://www.w3.org/2000/svg" xmlns:xlink="http://www.w3.org/1999/xlink" aria-hidden="true" role="img" class="iconify iconify--ph" width="1em" height="1em" preserveAspectRatio="xMidYMid meet" viewBox="0 0 256 256"><path fill="currentColor" d="M224 92h-53.4l9.3-51.3a4 4 0 1 0-7.8-1.4L162.5 92h-55.9l9.3-51.3a4 4 0 1 0-7.8-1.4L98.5 92H43.6a4 4 0 1 0 0 8H97l-10.2 56H32a4 4 0 0 0 0 8h53.4l-9.3 51.3a3.9 3.9 0 0 0 3.2 4.6h.7a3.9 3.9 0 0 0 3.9-3.3l9.6-52.6h55.9l-9.3 51.3a3.9 3.9 0 0 0 3.2 4.6h.7a3.9 3.9 0 0 0 3.9-3.3l9.6-52.7h54.9a4 4 0 0 0 0-8H159l10.2-56H224a4 4 0 0 0 0-8Zm-73.2 64H95l10.2-56H161Z"></path></svg>