<svg xmlns="http://www.w3.org/2000/svg" xmlns:xlink="http://www.w3.org/1999/xlink" aria-hidden="true" role="img" class="iconify iconify--ph" width="1em" height="1em" preserveAspectRatio="xMidYMid meet" viewBox="0 0 256 256"><path fill="currentColor" d="M233.5 136v56a24.1 24.1 0 0 1-24 24h-16a24 24 0 0 1-24-24v-40a24 24 0 0 1 24-24h23.6a88 88 0 0 0-88.3-80h-.1a87.8 87.8 0 0 0-88.3 80H64a24.1 24.1 0 0 1 24 24v40a24.1 24.1 0 0 1-24 24H48a24.1 24.1 0 0 1-24-24v-56A104 104 0 0 1 128.7 32h.8a104.1 104.1 0 0 1 104 104Z"></path></svg>