<svg xmlns="http://www.w3.org/2000/svg" xmlns:xlink="http://www.w3.org/1999/xlink" aria-hidden="true" role="img" class="iconify iconify--ph" width="1em" height="1em" preserveAspectRatio="xMidYMid meet" viewBox="0 0 256 256"><path fill="currentColor" d="M32 128v56a16 16 0 0 0 16 16h16a16 16 0 0 0 16-16v-40a16 16 0 0 0-16-16Zm193.5 0h-32a16 16 0 0 0-16 16v40a16 16 0 0 0 16 16h16a16 16 0 0 0 16-16Z" opacity=".2"></path><path fill="currentColor" d="M202.7 54.2A103.1 103.1 0 0 0 129.5 24H128A104 104 0 0 0 24 128v56a24.1 24.1 0 0 0 24 24h16a24.1 24.1 0 0 0 24-24v-40a24.1 24.1 0 0 0-24-24H40.4a87.8 87.8 0 0 1 88.3-80h.1a88 88 0 0 1 88.3 80h-23.6a24 24 0 0 0-24 24v40a24 24 0 0 0 24 24h16a23.6 23.6 0 0 0 8-1.4v1.4a24.1 24.1 0 0 1-24 24H136a8 8 0 0 0 0 16h57.5a40.1 40.1 0 0 0 40-40v-80a103.5 103.5 0 0 0-30.8-73.8ZM64 136a8 8 0 0 1 8 8v40a8 8 0 0 1-8 8H48a8 8 0 0 1-8-8v-48Zm145.5 56h-16a8 8 0 0 1-8-8v-40a8 8 0 0 1 8-8h24v48a8 8 0 0 1-8 8Z"></path></svg>