<svg xmlns="http://www.w3.org/2000/svg" xmlns:xlink="http://www.w3.org/1999/xlink" aria-hidden="true" role="img" class="iconify iconify--ph" width="1em" height="1em" preserveAspectRatio="xMidYMid meet" viewBox="0 0 256 256"><path fill="currentColor" d="M164 80a4 4 0 0 1 4-4h72a4 4 0 0 1 0 8h-72a4 4 0 0 1-4-4Zm76 92h-72a4 4 0 0 0 0 8h72a4 4 0 0 0 0-8Zm0-64h-72a4 4 0 0 0 0 8h72a4 4 0 0 0 0-8Zm0 32h-72a4 4 0 0 0 0 8h72a4 4 0 0 0 0-8ZM140 64v128a12 12 0 0 1-12 12H88a76.1 76.1 0 0 1-76-76.6C12.3 85.8 46.8 52 88.9 52H128a12 12 0 0 1 12 12Zm-8 0a4 4 0 0 0-4-4H88.9C51.2 60 20.3 90.3 20 127.5A67.9 67.9 0 0 0 88 196h40a4 4 0 0 0 4-4Z"></path></svg>