<svg xmlns="http://www.w3.org/2000/svg" xmlns:xlink="http://www.w3.org/1999/xlink" aria-hidden="true" role="img" class="iconify iconify--ph" width="1em" height="1em" preserveAspectRatio="xMidYMid meet" viewBox="0 0 256 256"><path fill="currentColor" d="M205.5 59.3A107.1 107.1 0 0 0 128.7 28A107.9 107.9 0 0 0 20 136v56a28.1 28.1 0 0 0 28 28h16a28.1 28.1 0 0 0 28-28v-40a28.1 28.1 0 0 0-28-28H44.8A84.1 84.1 0 0 1 128 52h.8a84.1 84.1 0 0 1 83.8 72h-19.1a28 28 0 0 0-28 28v40a28 28 0 0 0 28 28h16a28.1 28.1 0 0 0 28-28v-56a107.5 107.5 0 0 0-32-76.7ZM64 148a4 4 0 0 1 4 4v40a4 4 0 0 1-4 4H48a4 4 0 0 1-4-4v-44Zm149.5 44a4 4 0 0 1-4 4h-16a3.9 3.9 0 0 1-4-4v-40a3.9 3.9 0 0 1 4-4h20Z"></path></svg>