<svg xmlns="http://www.w3.org/2000/svg" xmlns:xlink="http://www.w3.org/1999/xlink" aria-hidden="true" role="img" class="iconify iconify--ph" width="1em" height="1em" preserveAspectRatio="xMidYMid meet" viewBox="0 0 256 256"><path fill="currentColor" d="M144 64v128a16 16 0 0 1-16 16H88a79.9 79.9 0 0 1-80-80.6C8.3 83.6 44.6 48 88.9 48H128a16 16 0 0 1 16 16Zm96 104h-72a8 8 0 0 0 0 16h72a8 8 0 0 0 0-16Zm-72-80h72a8 8 0 0 0 0-16h-72a8 8 0 0 0 0 16Zm72 16h-72a8 8 0 0 0 0 16h72a8 8 0 0 0 0-16Zm0 32h-72a8 8 0 0 0 0 16h72a8 8 0 0 0 0-16Z"></path></svg>