<svg xmlns="http://www.w3.org/2000/svg" xmlns:xlink="http://www.w3.org/1999/xlink" aria-hidden="true" role="img" class="iconify iconify--ph" width="1em" height="1em" preserveAspectRatio="xMidYMid meet" viewBox="0 0 256 256"><path fill="currentColor" d="M201.3 63.6A101.1 101.1 0 0 0 128.8 34h-.8A101.9 101.9 0 0 0 26 136v56a22.1 22.1 0 0 0 22 22h16a22.1 22.1 0 0 0 22-22v-40a22.1 22.1 0 0 0-22-22H38.2a90 90 0 0 1 89.9-84h1.4a90 90 0 0 1 89.8 84h-25.8a22 22 0 0 0-22 22v40a22 22 0 0 0 22 22h16a22.1 22.1 0 0 0 22-22v-56a101.1 101.1 0 0 0-30.2-72.4ZM64 142a10 10 0 0 1 10 10v40a10 10 0 0 1-10 10H48a10 10 0 0 1-10-10v-50Zm155.5 50a10 10 0 0 1-10 10h-16a10 10 0 0 1-10-10v-40a10 10 0 0 1 10-10h26Z"></path></svg>