<svg xmlns="http://www.w3.org/2000/svg" xmlns:xlink="http://www.w3.org/1999/xlink" aria-hidden="true" role="img" class="iconify iconify--ph" width="1em" height="1em" preserveAspectRatio="xMidYMid meet" viewBox="0 0 256 256"><path fill="currentColor" d="M160 80a8 8 0 0 1 8-8h72a8 8 0 0 1 0 16h-72a8 8 0 0 1-8-8Zm80 88h-72a8 8 0 0 0 0 16h72a8 8 0 0 0 0-16Zm0-64h-72a8 8 0 0 0 0 16h72a8 8 0 0 0 0-16Zm0 32h-72a8 8 0 0 0 0 16h72a8 8 0 0 0 0-16Zm-96-72v128a16 16 0 0 1-16 16H88a79.9 79.9 0 0 1-80-80.6C8.3 83.6 44.6 48 88.9 48H128a16 16 0 0 1 16 16Zm-16 0H88.9C53.4 64 24.3 92.5 24 127.5A64 64 0 0 0 88 192h40Z"></path></svg>