<svg xmlns="http://www.w3.org/2000/svg" xmlns:xlink="http://www.w3.org/1999/xlink" aria-hidden="true" role="img" class="iconify iconify--ph" width="1em" height="1em" preserveAspectRatio="xMidYMid meet" viewBox="0 0 256 256"><path fill="currentColor" d="M205.5 51.3A107.1 107.1 0 0 0 128.7 20A107.9 107.9 0 0 0 20 128v56a28.1 28.1 0 0 0 28 28h16a28.1 28.1 0 0 0 28-28v-40a28.1 28.1 0 0 0-28-28H44.8A84.1 84.1 0 0 1 128 44h1.5a84.1 84.1 0 0 1 83.1 72h-19.1a28 28 0 0 0-28 28v40a28 28 0 0 0 28 28h16l3.6-.2a20 20 0 0 1-19.6 16.2H136a12 12 0 0 0 0 24h57.5a44.1 44.1 0 0 0 44-44v-80a107.5 107.5 0 0 0-32-76.7ZM64 140a4 4 0 0 1 4 4v40a4 4 0 0 1-4 4H48a4 4 0 0 1-4-4v-44Zm145.5 48h-16a3.9 3.9 0 0 1-4-4v-40a3.9 3.9 0 0 1 4-4h20v44a4 4 0 0 1-4 4Z"></path></svg>