<svg xmlns="http://www.w3.org/2000/svg" xmlns:xlink="http://www.w3.org/1999/xlink" aria-hidden="true" role="img" class="iconify iconify--ph" width="1em" height="1em" preserveAspectRatio="xMidYMid meet" viewBox="0 0 256 256"><path fill="currentColor" d="M201.3 55.6A101.1 101.1 0 0 0 128.8 26h-.8A101.9 101.9 0 0 0 26 128v56a22.1 22.1 0 0 0 22 22h16a22.1 22.1 0 0 0 22-22v-40a22.1 22.1 0 0 0-22-22H38.2a90 90 0 0 1 89.9-84h.7a90 90 0 0 1 90.5 84h-25.8a22 22 0 0 0-22 22v40a22 22 0 0 0 22 22h16a22.3 22.3 0 0 0 10-2.4v4.4a26.1 26.1 0 0 1-26 26H136a6 6 0 0 0 0 12h57.5a38 38 0 0 0 38-38v-80a101.1 101.1 0 0 0-30.2-72.4ZM64 134a10 10 0 0 1 10 10v40a10 10 0 0 1-10 10H48a10 10 0 0 1-10-10v-50Zm145.5 60h-16a10 10 0 0 1-10-10v-40a10 10 0 0 1 10-10h26v50a10 10 0 0 1-10 10Z"></path></svg>