<svg xmlns="http://www.w3.org/2000/svg" xmlns:xlink="http://www.w3.org/1999/xlink" aria-hidden="true" role="img" class="iconify iconify--ph" width="1em" height="1em" preserveAspectRatio="xMidYMid meet" viewBox="0 0 256 256"><path fill="currentColor" d="M164 80a12 12 0 0 1 12-12h64a12 12 0 0 1 0 24h-64a12 12 0 0 1-12-12Zm76 84h-64a12 12 0 0 0 0 24h64a12 12 0 0 0 0-24Zm0-48h-64a12 12 0 0 0 0 24h64a12 12 0 0 0 0-24Zm-92-52v128a20.1 20.1 0 0 1-20 20H88a84 84 0 0 1-84-84.6C4.3 81.4 42.4 44 88.9 44H128a20.1 20.1 0 0 1 20 20Zm-24 4H88.9C55.6 68 28.2 94.7 28 127.5A59.9 59.9 0 0 0 88 188h36Z"></path></svg>