<svg xmlns="http://www.w3.org/2000/svg" xmlns:xlink="http://www.w3.org/1999/xlink" aria-hidden="true" role="img" class="iconify iconify--ph" width="1em" height="1em" preserveAspectRatio="xMidYMid meet" viewBox="0 0 256 256"><path fill="currentColor" d="M162 80a6 6 0 0 1 6-6h72a6 6 0 0 1 0 12h-72a6 6 0 0 1-6-6Zm78 90h-72a6 6 0 0 0 0 12h72a6 6 0 0 0 0-12Zm0-64h-72a6 6 0 0 0 0 12h72a6 6 0 0 0 0-12Zm0 32h-72a6 6 0 0 0 0 12h72a6 6 0 0 0 0-12Zm-98-74v128a14 14 0 0 1-14 14H88a78 78 0 0 1-78-78.6C10.3 84.7 45.7 50 88.9 50H128a14 14 0 0 1 14 14Zm-12 0a2 2 0 0 0-2-2H88.9C52.3 62 22.3 91.4 22 127.5A66.1 66.1 0 0 0 88 194h40a2 2 0 0 0 2-2Z"></path></svg>