<svg xmlns="http://www.w3.org/2000/svg" xmlns:xlink="http://www.w3.org/1999/xlink" aria-hidden="true" role="img" class="iconify iconify--ph" width="1em" height="1em" preserveAspectRatio="xMidYMid meet" viewBox="0 0 256 256"><path fill="currentColor" d="M202.7 62.2a103.1 103.1 0 0 0-74-30.2h-.7A104 104 0 0 0 24 136v56a24.1 24.1 0 0 0 24 24h16a24.1 24.1 0 0 0 24-24v-40a24.1 24.1 0 0 0-24-24H40.4a87.8 87.8 0 0 1 88.3-80h.1a88 88 0 0 1 88.3 80h-23.6a24 24 0 0 0-24 24v40a24 24 0 0 0 24 24h16a24.1 24.1 0 0 0 24-24v-56a103.5 103.5 0 0 0-30.8-73.8ZM64 144a8 8 0 0 1 8 8v40a8 8 0 0 1-8 8H48a8 8 0 0 1-8-8v-48Zm153.5 48a8 8 0 0 1-8 8h-16a8 8 0 0 1-8-8v-40a8 8 0 0 1 8-8h24Z"></path></svg>