<svg xmlns="http://www.w3.org/2000/svg" xmlns:xlink="http://www.w3.org/1999/xlink" aria-hidden="true" role="img" class="iconify iconify--ph" width="1em" height="1em" preserveAspectRatio="xMidYMid meet" viewBox="0 0 256 256"><path fill="currentColor" d="M224.6 51.9a59.9 59.9 0 0 0-87-2.3l-9.6 9.5l-7.5-7.4A64.3 64.3 0 0 0 79 32.8a57.7 57.7 0 0 0-43.1 14.6a59.9 59.9 0 0 0-2.3 87l83.1 83.1a15.9 15.9 0 0 0 22.6 0l81-81A64.3 64.3 0 0 0 239.2 95a57.7 57.7 0 0 0-14.6-43.1ZM209 125.2l-81 81l-83.1-83.1a44 44 0 0 1 1.7-63.9A42.5 42.5 0 0 1 75 48.7A48.4 48.4 0 0 1 109.2 63l7.7 7.7l-10.8 11.9a8.1 8.1 0 0 0 .2 11.1l26.4 26.3l-10.4 10.3a8.1 8.1 0 0 0 0 11.4a8.2 8.2 0 0 0 11.4 0l16-16a8.1 8.1 0 0 0 0-11.4l-26.6-26.6l25.8-26.8a44 44 0 0 1 63.9 1.7c15.3 17.1 13.7 45.2-3.8 62.6Z"></path></svg>