<svg xmlns="http://www.w3.org/2000/svg" xmlns:xlink="http://www.w3.org/1999/xlink" aria-hidden="true" role="img" class="iconify iconify--ph" width="1em" height="1em" preserveAspectRatio="xMidYMid meet" viewBox="0 0 256 256"><path fill="currentColor" d="M72 132H32a4 4 0 0 1 0-8h37.9l14.8-22.2a3.9 3.9 0 0 1 6.6 0l28.7 43l12.7-19a4 4 0 0 1 3.3-1.8h24a4 4 0 0 1 0 8h-21.9l-14.8 22.2a3.9 3.9 0 0 1-6.6 0l-28.7-43l-12.7 19A4 4 0 0 1 72 132Zm104-96a55.8 55.8 0 0 0-48 27.1A56 56 0 0 0 24 92c0 1.4 0 2.8.1 4.2a4 4 0 0 0 8-.4c-.1-1.3-.1-2.6-.1-3.8a48 48 0 0 1 92.3-18.5A4 4 0 0 0 128 76a4 4 0 0 0 3.7-2.5A48 48 0 0 1 224 92c0 59.7-82.2 111.1-96 119.4c-8.3-5-41.4-25.5-66.3-54a4 4 0 0 0-5.7-.4a4.1 4.1 0 0 0-.4 5.6c29.6 33.8 68.8 56 70.4 56.9a4.3 4.3 0 0 0 4 0a321.4 321.4 0 0 0 50.7-37c34-30.7 51.3-61.1 51.3-90.5a56 56 0 0 0-56-56Z"></path></svg>