<svg xmlns="http://www.w3.org/2000/svg" xmlns:xlink="http://www.w3.org/1999/xlink" aria-hidden="true" role="img" class="iconify iconify--ph" width="1em" height="1em" preserveAspectRatio="xMidYMid meet" viewBox="0 0 256 256"><path fill="currentColor" d="M176 36a55.5 55.5 0 0 0-39.6 16.4l-9.3 9.3A56 56 0 0 0 24 92c0 29.4 17.3 59.8 51.3 90.5a321.4 321.4 0 0 0 50.7 37a4.3 4.3 0 0 0 4 0a321.4 321.4 0 0 0 50.7-37c34-30.7 51.3-61.1 51.3-90.5a56 56 0 0 0-56-56Zm-48 175.4c-13.8-8.3-96-59.7-96-119.4a48 48 0 0 1 89.3-24.5l-16.9 16.9a4 4 0 0 0 0 5.7l29.2 29.1l-13.2 13.2a4 4 0 0 0 0 5.7a4.2 4.2 0 0 0 5.7 0l16-16a4.2 4.2 0 0 0 0-5.7l-29.2-29.2L129 71.1h.1l13-12.9A47.4 47.4 0 0 1 176 44a48 48 0 0 1 48 48c0 59.7-82.2 111.1-96 119.4Z"></path></svg>