<svg xmlns="http://www.w3.org/2000/svg" xmlns:xlink="http://www.w3.org/1999/xlink" aria-hidden="true" role="img" class="iconify iconify--ph" width="1em" height="1em" preserveAspectRatio="xMidYMid meet" viewBox="0 0 256 256"><path fill="currentColor" d="M223.2 53.2A58 58 0 0 0 139 51l-11 11l-8.9-8.9a62.8 62.8 0 0 0-40.3-18.3a56.5 56.5 0 0 0-41.6 14A58 58 0 0 0 35 133l83.1 83.1a14 14 0 0 0 19.8 0l81-81a62.8 62.8 0 0 0 18.3-40.3a56.5 56.5 0 0 0-14-41.6Zm-12.8 73.4l-81 81a1.9 1.9 0 0 1-2.8 0l-83.1-83.1a45.8 45.8 0 0 1 1.8-66.7A44 44 0 0 1 75 46.7a50.3 50.3 0 0 1 35.6 14.9l9.1 9.1L107.6 84a5.8 5.8 0 0 0 .2 8.2l27.7 27.8l-11.7 11.8a5.9 5.9 0 1 0 8.4 8.4l16-16a5.8 5.8 0 0 0 0-8.4l-27.9-28l27.2-28.3a45.8 45.8 0 0 1 66.7 1.8c16.1 17.8 14.4 47.1-3.8 65.3Z"></path></svg>