<svg xmlns="http://www.w3.org/2000/svg" xmlns:xlink="http://www.w3.org/1999/xlink" aria-hidden="true" role="img" class="iconify iconify--ph" width="1em" height="1em" preserveAspectRatio="xMidYMid meet" viewBox="0 0 256 256"><path fill="currentColor" d="M221.7 54.6a56 56 0 0 0-81.3-2.2L128 64.8l-10.3-10.3a60.3 60.3 0 0 0-39-17.7a54 54 0 0 0-40.1 13.5a56 56 0 0 0-2.2 81.3l83.1 83.1a12.1 12.1 0 0 0 17 0l81-81a60.3 60.3 0 0 0 17.7-39a54 54 0 0 0-13.5-40.1Zm-9.8 73.4l-81.1 81.1a4 4 0 0 1-5.6 0l-83.1-83.2a47.9 47.9 0 0 1 1.8-69.6A45.9 45.9 0 0 1 75 44.7a52.4 52.4 0 0 1 37 15.4l10.5 10.5L109 85.3a4 4 0 0 0 .2 5.5l29.1 29.2l-13.1 13.2a3.9 3.9 0 0 0 0 5.6a3.9 3.9 0 0 0 5.6 0l16-16a3.9 3.9 0 0 0 0-5.6l-29.3-29.3l28.6-29.8a47.9 47.9 0 0 1 69.6 1.8c16.8 18.7 15.1 49.2-3.8 68.1Z"></path></svg>