<svg xmlns="http://www.w3.org/2000/svg" xmlns:xlink="http://www.w3.org/1999/xlink" aria-hidden="true" role="img" class="iconify iconify--ph" width="1em" height="1em" preserveAspectRatio="xMidYMid meet" viewBox="0 0 256 256"><path fill="currentColor" d="M176 28a64 64 0 0 0-45.3 18.7l-2.8 2.9A63.4 63.4 0 0 0 80 28a64.1 64.1 0 0 0-64 64c0 74.2 101.8 132 106.1 134.5a12.4 12.4 0 0 0 11.8 0C138.2 224 240 166.2 240 92a64.1 64.1 0 0 0-64-64Zm-48 174c-20.6-12.8-88-58.8-88-110a40 40 0 0 1 70.9-25.4L98.7 78.7a12.2 12.2 0 0 0 0 17l23.6 23.5l-7.6 7.5a12.2 12.2 0 0 0 0 17a12 12 0 0 0 17 0l16-16a12 12 0 0 0 0-17l-23.5-23.5l10.3-10.3l.4-.4l12.8-12.8A40 40 0 0 1 216 92c0 51.2-67.4 97.2-88 110Z"></path></svg>