<svg xmlns="http://www.w3.org/2000/svg" xmlns:xlink="http://www.w3.org/1999/xlink" aria-hidden="true" role="img" class="iconify iconify--ph" width="1em" height="1em" preserveAspectRatio="xMidYMid meet" viewBox="0 0 256 256"><path fill="currentColor" d="M236 92c0 30.6-17.7 62-52.6 93.4a314.3 314.3 0 0 1-51.5 37.6a8.1 8.1 0 0 1-7.8 0C119.8 220.6 20 163.9 20 92a60 60 0 0 1 92.3-50.6a4 4 0 0 1 .6 6.2l-18 18a8 8 0 0 0 0 11.3l34.4 34.3l-15 15.1a7.9 7.9 0 0 0 0 11.3a8 8 0 0 0 5.6 2.3a8.3 8.3 0 0 0 5.7-2.3l20.7-20.7a8 8 0 0 0 0-11.3l-34.4-34.4l21.7-21.6A59.3 59.3 0 0 1 176 32a60 60 0 0 1 60 60Z"></path></svg>