<svg xmlns="http://www.w3.org/2000/svg" xmlns:xlink="http://www.w3.org/1999/xlink" aria-hidden="true" role="img" class="iconify iconify--ph" width="1em" height="1em" preserveAspectRatio="xMidYMid meet" viewBox="0 0 256 256"><path fill="currentColor" d="M227.6 49.2a64.1 64.1 0 0 0-92.9-2.5l-6.7 6.8l-4.7-4.7a68.8 68.8 0 0 0-44.1-20a62.1 62.1 0 0 0-46 15.6a64.1 64.1 0 0 0-2.5 92.9l83.2 83.1a20 20 0 0 0 28.2 0l81.1-81.1a68.8 68.8 0 0 0 20-44.1a62.1 62.1 0 0 0-15.6-46Zm-21.4 73.2L128 200.6l-80.3-80.3a40 40 0 0 1 1.6-58.1A38.1 38.1 0 0 1 75 52.7a44.6 44.6 0 0 1 31.4 13.1l5 5l-8.3 9.1a12.1 12.1 0 0 0 .4 16.6L127 120l-7.5 7.5a12 12 0 0 0 0 17a12.1 12.1 0 0 0 17 0l16-16a12 12 0 0 0 0-17l-23.9-23.9l23.1-23.9a40 40 0 0 1 58.1 1.6c14 15.5 12.4 41.1-3.6 57.1Z"></path></svg>