<svg xmlns="http://www.w3.org/2000/svg" xmlns:xlink="http://www.w3.org/1999/xlink" aria-hidden="true" role="img" class="iconify iconify--ph" width="1em" height="1em" preserveAspectRatio="xMidYMid meet" viewBox="0 0 256 256"><path fill="currentColor" d="M128 242.8a20 20 0 0 1-9.8-2.6l-84-47.5A19.9 19.9 0 0 1 24 175.3V80.7a19.9 19.9 0 0 1 10.2-17.4l84-47.5a19.6 19.6 0 0 1 19.6 0l84 47.5A19.9 19.9 0 0 1 232 80.7v94.6a19.9 19.9 0 0 1-10.2 17.4l-84 47.5a20 20 0 0 1-9.8 2.6ZM48 173l80 45.2l80-45.2V83l-80-45.2L48 83Z"></path></svg>