<svg xmlns="http://www.w3.org/2000/svg" xmlns:xlink="http://www.w3.org/1999/xlink" aria-hidden="true" role="img" class="iconify iconify--ph" width="1em" height="1em" preserveAspectRatio="xMidYMid meet" viewBox="0 0 256 256"><path fill="currentColor" d="M128 236.8a13.9 13.9 0 0 1-6.9-1.8l-84-47.5a14 14 0 0 1-7.1-12.2V80.7a14 14 0 0 1 7.1-12.2l84-47.5a14.1 14.1 0 0 1 13.8 0l84 47.5a14 14 0 0 1 7.1 12.2v94.6a14 14 0 0 1-7.1 12.2l-84 47.5a13.9 13.9 0 0 1-6.9 1.8Zm0-205.6l-1 .2l-84 47.5a2.1 2.1 0 0 0-1 1.8v94.6a2.1 2.1 0 0 0 1 1.8l84 47.5a2.3 2.3 0 0 0 2 0l84-47.5a2.1 2.1 0 0 0 1-1.8V80.7a2.1 2.1 0 0 0-1-1.8l-84-47.5Z"></path></svg>