<svg xmlns="http://www.w3.org/2000/svg" xmlns:xlink="http://www.w3.org/1999/xlink" aria-hidden="true" role="img" class="iconify iconify--ph" width="1em" height="1em" preserveAspectRatio="xMidYMid meet" viewBox="0 0 256 256"><path fill="currentColor" d="M128 234.8a12.3 12.3 0 0 1-5.9-1.5l-84-47.5a11.9 11.9 0 0 1-6.1-10.5V80.7a11.9 11.9 0 0 1 6.1-10.5l84-47.5a12.4 12.4 0 0 1 11.8 0l84 47.5a11.9 11.9 0 0 1 6.1 10.5v94.6a11.9 11.9 0 0 1-6.1 10.5l-84 47.5a12.3 12.3 0 0 1-5.9 1.5Zm0-205.6a4.6 4.6 0 0 0-2 .5L42 77.2a4 4 0 0 0-2 3.5v94.6a4 4 0 0 0 2 3.5l84 47.5a4.1 4.1 0 0 0 4 0l84-47.5a4 4 0 0 0 2-3.5V80.7a4 4 0 0 0-2-3.5l-84-47.5a4.6 4.6 0 0 0-2-.5Z"></path></svg>