<svg xmlns="http://www.w3.org/2000/svg" xmlns:xlink="http://www.w3.org/1999/xlink" aria-hidden="true" role="img" class="iconify iconify--ph" width="1em" height="1em" preserveAspectRatio="xMidYMid meet" viewBox="0 0 256 256"><path fill="currentColor" d="M198.7 57.3A100 100 0 1 0 57.3 198.7A100 100 0 1 0 198.7 57.3ZM92 212.7V152a4 4 0 0 1 4-4h64a4 4 0 0 1 4 4v60.7a92.4 92.4 0 0 1-72 0Zm56-72.7h-40V98.5l40-20Zm45.1 53.1a93.4 93.4 0 0 1-21.1 15.7V152a12 12 0 0 0-12-12h-4V72a3.9 3.9 0 0 0-1.9-3.4a4.1 4.1 0 0 0-3.9-.2l-48 24A4.2 4.2 0 0 0 100 96v44h-4a12 12 0 0 0-12 12v56.8a93.4 93.4 0 0 1-21.1-15.7a92 92 0 1 1 130.2 0Z"></path></svg>