<svg xmlns="http://www.w3.org/2000/svg" xmlns:xlink="http://www.w3.org/1999/xlink" aria-hidden="true" role="img" class="iconify iconify--ph" width="1em" height="1em" preserveAspectRatio="xMidYMid meet" viewBox="0 0 256 256"><path fill="currentColor" d="M200.1 200.1ZM230 128a102 102 0 0 1-174.1 72.1A102 102 0 1 1 200.1 55.9A101.1 101.1 0 0 1 230 128Zm-102 90a90.7 90.7 0 0 0 34-6.6V152a2 2 0 0 0-2-2H96a2 2 0 0 0-2 2v59.4a90.7 90.7 0 0 0 34 6.6Zm18-136.3l-36 18V138h36Zm45.6 109.9A89.5 89.5 0 1 0 82 205.4V152a14 14 0 0 1 14-14h2V96a6 6 0 0 1 3.3-5.4l48-24a6.2 6.2 0 0 1 5.9.3A6.1 6.1 0 0 1 158 72v66h2a14 14 0 0 1 14 14v53.4a89.2 89.2 0 0 0 17.6-13.8Z"></path></svg>