<svg xmlns="http://www.w3.org/2000/svg" xmlns:xlink="http://www.w3.org/1999/xlink" aria-hidden="true" role="img" class="iconify iconify--ph" width="1em" height="1em" preserveAspectRatio="xMidYMid meet" viewBox="0 0 256 256"><path fill="currentColor" d="M201.5 54.5a103.8 103.8 0 0 0-147 0a103.8 103.8 0 0 0 0 147a103.8 103.8 0 0 0 147 0a103.8 103.8 0 0 0 0-147ZM96 210v-58h64v58a88.3 88.3 0 0 1-64 0Zm48-74h-32v-35.1l32-16Zm46.2 54.2a86.8 86.8 0 0 1-14.2 11.6V152a16 16 0 0 0-16-16V72a7.9 7.9 0 0 0-3.8-6.8a8 8 0 0 0-7.8-.4l-48 24A8.2 8.2 0 0 0 96 96v40a16 16 0 0 0-16 16v49.8A88.7 88.7 0 0 1 40 128a88 88 0 1 1 150.2 62.2Z"></path></svg>