<svg xmlns="http://www.w3.org/2000/svg" xmlns:xlink="http://www.w3.org/1999/xlink" aria-hidden="true" role="img" class="iconify iconify--ph" width="1em" height="1em" preserveAspectRatio="xMidYMid meet" viewBox="0 0 256 256"><path fill="currentColor" d="M200.6 56.4A101.2 101.2 0 0 0 128 26h-8a6 6 0 0 0-6 6v28.6L12.9 122.9a5.8 5.8 0 0 0-2.8 3.9a6.4 6.4 0 0 0 1 4.7l13.8 19.1a29.6 29.6 0 0 0 29.4 12c14.3-2.4 40.9-4.4 64.9 7.4l-28.5 39.9A88.7 88.7 0 0 1 68 195.1a6 6 0 0 0-8.5.5a5.9 5.9 0 0 0 .5 8.4a101.6 101.6 0 0 0 68 26h2.1a102 102 0 0 0 70.5-173.6Zm-8.9 135a89.4 89.4 0 0 1-61.9 26.6a90.4 90.4 0 0 1-27.5-3.7l28.9-40.4A54 54 0 0 0 182 120a6 6 0 0 0-12 0a42.2 42.2 0 0 1-40.5 42c-28.3-16.3-60.4-14-77.2-11.2a17.8 17.8 0 0 1-17.6-7.2l-10.1-13.9l98.5-60.6A6 6 0 0 0 126 64V38h2a89.9 89.9 0 0 1 63.7 153.4ZM134 100a10 10 0 1 1-10-10a10 10 0 0 1 10 10Z"></path></svg>