<svg xmlns="http://www.w3.org/2000/svg" xmlns:xlink="http://www.w3.org/1999/xlink" aria-hidden="true" role="img" class="iconify iconify--ph" width="1em" height="1em" preserveAspectRatio="xMidYMid meet" viewBox="0 0 256 256"><path fill="currentColor" d="M92.8 217.3a95.2 95.2 0 0 0 37.1 6.7c51.5-1 93.4-43.1 94.1-94.6A96 96 0 0 0 128 32h-8v32L16 128l13.8 19.1a23.9 23.9 0 0 0 23.5 9.6c17.5-2.9 48.1-4.7 74.7 11.3Z" opacity=".2"></path><circle cx="124" cy="100" r="12" fill="currentColor"></circle><path fill="currentColor" d="M202.1 55A103.2 103.2 0 0 0 128 24h-8a8 8 0 0 0-8 8v27.5L11.8 121.2a8 8 0 0 0-3.6 5.2a7.8 7.8 0 0 0 1.3 6.3l13.8 19.1a31.6 31.6 0 0 0 31.3 12.8c13.7-2.3 38.6-4.2 61.6 6.2L90 207.4a91.1 91.1 0 0 1-20.7-13.8a8 8 0 0 0-11.3.6a8 8 0 0 0 .7 11.3A103.5 103.5 0 0 0 128 232h2.1a104 104 0 0 0 72-177Zm-11.8 135a87.6 87.6 0 0 1-60.5 26a88.7 88.7 0 0 1-24.2-2.9l26.6-37.3A56.1 56.1 0 0 0 184 120a8 8 0 0 0-16 0a39.9 39.9 0 0 1-38 39.9c-28.7-16.2-61.1-13.9-78-11.1a15.8 15.8 0 0 1-15.7-6.4l-8.8-12.1l96.7-59.5A7.8 7.8 0 0 0 128 64V40a87.9 87.9 0 0 1 62.3 150Z"></path></svg>