<svg xmlns="http://www.w3.org/2000/svg" xmlns:xlink="http://www.w3.org/1999/xlink" aria-hidden="true" role="img" class="iconify iconify--ph" width="1em" height="1em" preserveAspectRatio="xMidYMid meet" viewBox="0 0 256 256"><path fill="currentColor" d="m136.5 128l70.1-70.1a14 14 0 0 0-9.9-23.9H59.3a14 14 0 0 0-9.9 23.9l70.1 70.1l-70.1 70.1a14 14 0 0 0 9.9 23.9h137.4a14 14 0 0 0 9.9-23.9Zm-79-80.8a2 2 0 0 1 1.8-1.2h137.4a2 2 0 0 1 1.8 1.2a1.9 1.9 0 0 1-.4 2.2L173.5 74h-91L57.9 49.4a1.9 1.9 0 0 1-.4-2.2Zm37 38.8h67L128 119.5Zm104 122.8a2 2 0 0 1-1.8 1.2H59.3a2 2 0 0 1-1.8-1.2a1.9 1.9 0 0 1 .4-2.2l64.1-64.1V168a6 6 0 0 0 12 0v-25.5l64.1 64.1a1.9 1.9 0 0 1 .4 2.2Z"></path></svg>