<svg xmlns="http://www.w3.org/2000/svg" xmlns:xlink="http://www.w3.org/1999/xlink" aria-hidden="true" role="img" class="iconify iconify--ph" width="1em" height="1em" preserveAspectRatio="xMidYMid meet" viewBox="0 0 256 256"><path fill="currentColor" d="M53.7 202.3a8 8 0 0 0 5.6 13.7h137.4a8 8 0 0 0 5.6-13.7L176 176H80Z" opacity=".2"></path><path fill="currentColor" d="M139.3 128L208 59.3A16 16 0 0 0 196.7 32H59.3A16 16 0 0 0 48 59.3l68.7 68.7L48 196.7A16 16 0 0 0 59.3 224h137.4a16 16 0 0 0 11.3-27.3Zm-80-80h137.4L128 116.7Zm68.7 91.3l28.7 28.7H99.3ZM59.3 208l24-24h89.4l24 24Z"></path></svg>