<svg xmlns="http://www.w3.org/2000/svg" xmlns:xlink="http://www.w3.org/1999/xlink" aria-hidden="true" role="img" class="iconify iconify--ph" width="1em" height="1em" preserveAspectRatio="xMidYMid meet" viewBox="0 0 256 256"><path fill="currentColor" d="m133.7 128l71.5-71.5a12 12 0 0 0-8.5-20.5H59.3a12 12 0 0 0-8.5 20.5l71.5 71.5l-71.5 71.5a12 12 0 0 0 8.5 20.5h137.4a12 12 0 0 0 8.5-20.5ZM56.5 50.8a3.9 3.9 0 0 1-.9-4.3a4 4 0 0 1 3.7-2.5h137.4a4 4 0 0 1 3.7 2.5a3.9 3.9 0 0 1-.9 4.3L128 122.3Zm71.5 82.9l38.3 38.3H89.7Zm72.4 75.8a4 4 0 0 1-3.7 2.5H59.3a4 4 0 0 1-3.7-2.5a3.9 3.9 0 0 1 .9-4.3L81.7 180h92.6l25.2 25.2a3.9 3.9 0 0 1 .9 4.3Z"></path></svg>