<svg xmlns="http://www.w3.org/2000/svg" xmlns:xlink="http://www.w3.org/1999/xlink" aria-hidden="true" role="img" class="iconify iconify--ph" width="1em" height="1em" preserveAspectRatio="xMidYMid meet" viewBox="0 0 256 256"><path fill="currentColor" d="m128 128l48-48H80l48 48z" opacity=".2"></path><path fill="currentColor" d="m139.3 128l42.4-42.3L208 59.3A16 16 0 0 0 196.7 32H59.3A16 16 0 0 0 48 59.3l68.7 68.7L48 196.7A16 16 0 0 0 59.3 224h137.4a16 16 0 0 0 11.3-27.3Zm57.4-80l-24 24H83.3l-24-24ZM99.3 88h57.4L128 116.7Zm-40 120l60.7-60.7V168a8 8 0 0 0 16 0v-20.7l60.7 60.7Z"></path></svg>