<svg xmlns="http://www.w3.org/2000/svg" xmlns:xlink="http://www.w3.org/1999/xlink" aria-hidden="true" role="img" class="iconify iconify--ph" width="1em" height="1em" preserveAspectRatio="xMidYMid meet" viewBox="0 0 256 256"><path fill="currentColor" d="M128 128L67.2 82.4A8.1 8.1 0 0 1 64 76V64h128v11.6a8.1 8.1 0 0 1-3.2 6.4L128 128" opacity=".2"></path><path fill="currentColor" d="M184 24H72a16 16 0 0 0-16 16v36a16.1 16.1 0 0 0 6.4 12.8l52.3 39.2l-52.3 39.2A16.1 16.1 0 0 0 56 180v36a16 16 0 0 0 16 16h112a16 16 0 0 0 16-16v-35.6a16.1 16.1 0 0 0-6.4-12.8L141.3 128l52.3-39.6a16.1 16.1 0 0 0 6.4-12.8V40a16 16 0 0 0-16-16Zm0 16v16H72V40Zm0 176H72v-36l56-42l56 42.4Zm-56-98L72 76v-4h112v3.6Z"></path></svg>