<svg xmlns="http://www.w3.org/2000/svg" xmlns:xlink="http://www.w3.org/1999/xlink" aria-hidden="true" role="img" class="iconify iconify--ph" width="1em" height="1em" preserveAspectRatio="xMidYMid meet" viewBox="0 0 256 256"><path fill="currentColor" d="m145 128l65.8-65.9A19.9 19.9 0 0 0 196.7 28H59.3a19.9 19.9 0 0 0-14.1 34.1L111 128l-65.8 65.9A19.9 19.9 0 0 0 59.3 228h137.4a19.9 19.9 0 0 0 14.1-34.1Zm42-76l-16 16H85L69 52Zm-78 40h38l-19 19ZM69 204l47-47v11a12 12 0 0 0 24 0v-11l47 47Z"></path></svg>