<svg xmlns="http://www.w3.org/2000/svg" xmlns:xlink="http://www.w3.org/1999/xlink" aria-hidden="true" role="img" class="iconify iconify--ph" width="1em" height="1em" preserveAspectRatio="xMidYMid meet" viewBox="0 0 256 256"><path fill="currentColor" d="m128 128l52.9-40H74.7l53.3 40z" opacity=".2"></path><path fill="currentColor" d="M200 75.6V40a16 16 0 0 0-16-16H72a16 16 0 0 0-16 16v36a16.1 16.1 0 0 0 6.4 12.8l52.3 39.2l-52.3 39.2A16.1 16.1 0 0 0 56 180v36a16 16 0 0 0 16 16h112a16 16 0 0 0 16-16v-35.6a16.1 16.1 0 0 0-6.4-12.8L141.3 128l52.3-39.6a16.1 16.1 0 0 0 6.4-12.8ZM72 40h112v35.6l-5.8 4.4H77.3L72 76Zm56 78L98.7 96h58.4Zm56 98H72v-36l48-36v24a8 8 0 0 0 16 0v-23.9l48 36.3Z"></path></svg>