<svg xmlns="http://www.w3.org/2000/svg" xmlns:xlink="http://www.w3.org/1999/xlink" aria-hidden="true" role="img" class="iconify iconify--ph" width="1em" height="1em" preserveAspectRatio="xMidYMid meet" viewBox="0 0 256 256"><path fill="currentColor" d="M193.6 88.4a16.1 16.1 0 0 0 6.4-12.8V40a16 16 0 0 0-16-16H72a16 16 0 0 0-16 16v36a16.1 16.1 0 0 0 6.4 12.8l18.1 13.6l34.2 25.6l-52.3 39.2A16.1 16.1 0 0 0 56 180v36a16 16 0 0 0 16 16h112a16 16 0 0 0 16-16v-35.6a16.1 16.1 0 0 0-6.4-12.8L141.3 128l22.7-17.2ZM72 40h112v35.6l-5.8 4.4H77.3L72 76Zm112 140.4V216H72v-36l48-36v24a8 8 0 0 0 16 0v-23.9Z"></path></svg>