<svg xmlns="http://www.w3.org/2000/svg" xmlns:xlink="http://www.w3.org/1999/xlink" aria-hidden="true" role="img" class="iconify iconify--ph" width="1em" height="1em" preserveAspectRatio="xMidYMid meet" viewBox="0 0 256 256"><path fill="currentColor" d="M196.7 220H59.3a12 12 0 0 1-8.5-20.5l71.5-71.5l-71.5-71.5A12 12 0 0 1 59.3 36h137.4a12 12 0 0 1 8.5 20.5L133.7 128l71.5 71.5a12 12 0 0 1-8.5 20.5ZM128 133.7l-71.5 71.5a3.9 3.9 0 0 0-.9 4.3a4 4 0 0 0 3.7 2.5h137.4a4 4 0 0 0 3.7-2.5a3.9 3.9 0 0 0-.9-4.3ZM59.3 44a4 4 0 0 0-3.7 2.5a3.9 3.9 0 0 0 .9 4.3l71.5 71.5l71.5-71.5a3.9 3.9 0 0 0 .9-4.3a4 4 0 0 0-3.7-2.5Z"></path></svg>