<svg xmlns="http://www.w3.org/2000/svg" xmlns:xlink="http://www.w3.org/1999/xlink" aria-hidden="true" role="img" class="iconify iconify--ph" width="1em" height="1em" preserveAspectRatio="xMidYMid meet" viewBox="0 0 256 256"><path fill="currentColor" d="M193.6 88.4L141.3 128l52.3 39.6a16.1 16.1 0 0 1 6.4 12.8V216a16 16 0 0 1-16 16H72a16 16 0 0 1-16-16v-36a16.1 16.1 0 0 1 6.4-12.8l52.3-39.2l-52.3-39.2A16.1 16.1 0 0 1 56 76V40a16 16 0 0 1 16-16h112a16 16 0 0 1 16 16v35.6a16.1 16.1 0 0 1-6.4 12.8Z"></path></svg>