<svg xmlns="http://www.w3.org/2000/svg" xmlns:xlink="http://www.w3.org/1999/xlink" aria-hidden="true" role="img" class="iconify iconify--ph" width="1em" height="1em" preserveAspectRatio="xMidYMid meet" viewBox="0 0 256 256"><path fill="currentColor" d="M196 75.6V40a12 12 0 0 0-12-12H72a12 12 0 0 0-12 12v36a12.1 12.1 0 0 0 4.8 9.6l56.5 42.4l-56.5 42.4A12.1 12.1 0 0 0 60 180v36a12 12 0 0 0 12 12h112a12 12 0 0 0 12-12v-35.6a11.9 11.9 0 0 0-4.8-9.6L134.6 128l56.6-42.8a11.9 11.9 0 0 0 4.8-9.6Zm-8 104.8V216a4 4 0 0 1-4 4H72a4 4 0 0 1-4-4v-36a4 4 0 0 1 1.6-3.2L128 133l58.4 44.2a3.9 3.9 0 0 1 1.6 3.2Zm0-104.8a3.9 3.9 0 0 1-1.6 3.2L128 123L69.6 79.2A4 4 0 0 1 68 76V40a4 4 0 0 1 4-4h112a4 4 0 0 1 4 4Z"></path></svg>