<svg xmlns="http://www.w3.org/2000/svg" xmlns:xlink="http://www.w3.org/1999/xlink" aria-hidden="true" role="img" class="iconify iconify--ph" width="1em" height="1em" preserveAspectRatio="xMidYMid meet" viewBox="0 0 256 256"><path fill="currentColor" d="M196.7 222H59.3a14 14 0 0 1-9.9-23.9l70.1-70.1l-70.1-70.1A14 14 0 0 1 59.3 34h137.4a14 14 0 0 1 9.9 23.9L136.5 128l70.1 70.1a14 14 0 0 1-9.9 23.9ZM128 136.5l-70.1 70.1a1.9 1.9 0 0 0-.4 2.2a2 2 0 0 0 1.8 1.2h137.4a2 2 0 0 0 1.8-1.2a1.9 1.9 0 0 0-.4-2.2ZM59.3 46a2 2 0 0 0-1.8 1.2a1.9 1.9 0 0 0 .4 2.2l70.1 70.1l70.1-70.1a1.9 1.9 0 0 0 .4-2.2a2 2 0 0 0-1.8-1.2Z"></path></svg>