<svg xmlns="http://www.w3.org/2000/svg" xmlns:xlink="http://www.w3.org/1999/xlink" aria-hidden="true" role="img" class="iconify iconify--ph" width="1em" height="1em" preserveAspectRatio="xMidYMid meet" viewBox="0 0 256 256"><path fill="currentColor" d="M128 128L67.2 82.4A8.1 8.1 0 0 1 64 76V40a8 8 0 0 1 8-8h112a8 8 0 0 1 8 8v35.6a8.1 8.1 0 0 1-3.2 6.4L128 128m0 0l-60.8 45.6A8.1 8.1 0 0 0 64 180v36a8 8 0 0 0 8 8h112a8 8 0 0 0 8-8v-35.6a8.1 8.1 0 0 0-3.2-6.4L128 128" opacity=".2"></path><path fill="currentColor" d="M200 75.6V40a16 16 0 0 0-16-16H72a16 16 0 0 0-16 16v36a16.1 16.1 0 0 0 6.4 12.8l52.3 39.2l-52.3 39.2A16.1 16.1 0 0 0 56 180v36a16 16 0 0 0 16 16h112a16 16 0 0 0 16-16v-35.6a16.1 16.1 0 0 0-6.4-12.8L141.3 128l52.3-39.6a16.1 16.1 0 0 0 6.4-12.8ZM184 216H72v-36l56-42l56 42.4Zm0-140.4L128 118L72 76V40h112Z"></path></svg>