<svg xmlns="http://www.w3.org/2000/svg" xmlns:xlink="http://www.w3.org/1999/xlink" aria-hidden="true" role="img" class="iconify iconify--ph" width="1em" height="1em" preserveAspectRatio="xMidYMid meet" viewBox="0 0 256 256"><path fill="currentColor" d="m136.5 128l70.1-70.1a14 14 0 0 0-9.9-23.9H59.3a14 14 0 0 0-9.9 23.9l70.1 70.1l-43.7 43.8l-26.4 26.3a14 14 0 0 0 9.9 23.9h137.4a14 14 0 0 0 9.9-23.9ZM57.9 49.4a1.9 1.9 0 0 1-.4-2.2a2 2 0 0 1 1.8-1.2h137.4a2 2 0 0 1 1.8 1.2a1.9 1.9 0 0 1-.4 2.2L128 119.5Zm70.1 87.1l33.5 33.5h-67Zm70.5 72.3a2 2 0 0 1-1.8 1.2H59.3a2 2 0 0 1-1.8-1.2a1.9 1.9 0 0 1 .4-2.2L82.5 182h91l24.6 24.6a1.9 1.9 0 0 1 .4 2.2Z"></path></svg>