<svg xmlns="http://www.w3.org/2000/svg" xmlns:xlink="http://www.w3.org/1999/xlink" aria-hidden="true" role="img" class="iconify iconify--ph" width="1em" height="1em" preserveAspectRatio="xMidYMid meet" viewBox="0 0 256 256"><path fill="currentColor" d="M198 75.6V40a14 14 0 0 0-14-14H72a14 14 0 0 0-14 14v36a14 14 0 0 0 5.6 11.2L118 128l-54.4 40.8a14.2 14.2 0 0 0-5.6 10.5V216a14 14 0 0 0 14 14h112a14 14 0 0 0 14-14v-36.2a14.2 14.2 0 0 0-5.6-10.5L138 128l54.4-41.2a14 14 0 0 0 5.6-11.2Zm-18.7 98.7L76.6 174l51.4-38.5ZM184 218H72a2 2 0 0 1-2-2v-30l116 .3V216a2 2 0 0 1-2 2Zm2-142.4a1.8 1.8 0 0 1-.8 1.6L128 120.5L70.8 77.6A2.1 2.1 0 0 1 70 76V40a2 2 0 0 1 2-2h112a2 2 0 0 1 2 2Z"></path></svg>