<svg xmlns="http://www.w3.org/2000/svg" xmlns:xlink="http://www.w3.org/1999/xlink" aria-hidden="true" role="img" class="iconify iconify--ph" width="1em" height="1em" preserveAspectRatio="xMidYMid meet" viewBox="0 0 256 256"><path fill="currentColor" d="M204 75.6V40a20.1 20.1 0 0 0-20-20H72a20.1 20.1 0 0 0-20 20v36a20.1 20.1 0 0 0 8 16l48 36l-48 36a19.9 19.9 0 0 0-8 15.9v36a20.1 20.1 0 0 0 20 20h112a20.1 20.1 0 0 0 20-20v-35.5a20.3 20.3 0 0 0-7.9-16L147.9 128l48.2-36.4a20.3 20.3 0 0 0 7.9-16Zm-42.6 92.7l-66.8-.2L128 143ZM76 212v-20l104 .3V212ZM180 73.7L128 113L76 74V44h104Z"></path></svg>