<svg xmlns="http://www.w3.org/2000/svg" xmlns:xlink="http://www.w3.org/1999/xlink" aria-hidden="true" role="img" class="iconify iconify--ph" width="1em" height="1em" preserveAspectRatio="xMidYMid meet" viewBox="0 0 256 256"><path fill="currentColor" d="M200 75.6V40a16 16 0 0 0-16-16H72a16 16 0 0 0-16 16v36a16.1 16.1 0 0 0 6.4 12.8l52.3 39.2l-52.3 39.2a15.6 15.6 0 0 0-6.3 11.9a2.8 2.8 0 0 0-.1.9v36a16 16 0 0 0 16 16h112a16 16 0 0 0 16-16v-35.6a2.8 2.8 0 0 0-.1-.9a15.6 15.6 0 0 0-6.3-11.9L141.3 128l52.3-39.6a16.1 16.1 0 0 0 6.4-12.8ZM82.6 172.1L128 138l45.3 34.3ZM184 75.6L128 118L72 76V40h112Z"></path></svg>