<svg xmlns="http://www.w3.org/2000/svg" xmlns:xlink="http://www.w3.org/1999/xlink" aria-hidden="true" role="img" class="iconify iconify--ph" width="1em" height="1em" preserveAspectRatio="xMidYMid meet" viewBox="0 0 256 256"><path fill="currentColor" d="M198 75.6V40a14 14 0 0 0-14-14H72a14 14 0 0 0-14 14v36a14 14 0 0 0 5.6 11.2L118 128l-54.4 40.8A14 14 0 0 0 58 180v36a14 14 0 0 0 14 14h112a14 14 0 0 0 14-14v-35.6a14 14 0 0 0-5.6-11.2L138 128l54.4-41.2a14 14 0 0 0 5.6-11.2ZM70 40a2 2 0 0 1 2-2h112a2 2 0 0 1 2 2v35.6a1.8 1.8 0 0 1-.8 1.6l-6.3 4.8H76.7l-5.9-4.4A2.1 2.1 0 0 1 70 76Zm58 80.5L92.7 94H163Zm58 59.9V216a2 2 0 0 1-2 2H72a2 2 0 0 1-2-2v-36a2.1 2.1 0 0 1 .8-1.6L122 140v28a6 6 0 0 0 12 0v-27.9l51.2 38.7a1.8 1.8 0 0 1 .8 1.6Z"></path></svg>