<svg xmlns="http://www.w3.org/2000/svg" xmlns:xlink="http://www.w3.org/1999/xlink" aria-hidden="true" role="img" class="iconify iconify--ph" width="1em" height="1em" preserveAspectRatio="xMidYMid meet" viewBox="0 0 256 256"><path fill="currentColor" d="M204 75.6V40a20.1 20.1 0 0 0-20-20H72a20.1 20.1 0 0 0-20 20v36a20.1 20.1 0 0 0 8 16l48 36l-48 36a20.1 20.1 0 0 0-8 16v36a20.1 20.1 0 0 0 20 20h112a20.1 20.1 0 0 0 20-20v-35.6a20.3 20.3 0 0 0-7.9-16L147.9 128l48.2-36.4a20.3 20.3 0 0 0 7.9-16ZM180 44v28H76V44Zm-52 69l-22.7-17h45.1Zm52 99H76v-30l40-30v16a12 12 0 0 0 24 0v-15.9l40 30.2Z"></path></svg>