<svg xmlns="http://www.w3.org/2000/svg" xmlns:xlink="http://www.w3.org/1999/xlink" aria-hidden="true" role="img" class="iconify iconify--ph" width="1em" height="1em" preserveAspectRatio="xMidYMid meet" viewBox="0 0 256 256"><path fill="currentColor" d="M240 210h-18v-94.5a13.9 13.9 0 0 0-4.6-10.3l-80-72.8a14.1 14.1 0 0 0-18.8 0l-80 72.8a13.9 13.9 0 0 0-4.6 10.3V210H16a6 6 0 0 0 0 12h224a6 6 0 0 0 0-12ZM46 115.5a1.8 1.8 0 0 1 .6-1.4l80-72.8a2 2 0 0 1 2.7 0l80 72.8a1.6 1.6 0 0 1 .7 1.4V210h-52v-50a14 14 0 0 0-14-14h-32a14 14 0 0 0-14 14v50H46ZM146 210h-36v-50a2 2 0 0 1 2-2h32a2 2 0 0 1 2 2Z"></path></svg>