<svg xmlns="http://www.w3.org/2000/svg" xmlns:xlink="http://www.w3.org/1999/xlink" aria-hidden="true" role="img" class="iconify iconify--ph" width="1em" height="1em" preserveAspectRatio="xMidYMid meet" viewBox="0 0 256 256"><path fill="currentColor" d="M240 204h-12v-88.5a20 20 0 0 0-6.6-14.8l-80-72.7a19.9 19.9 0 0 0-26.9 0l-80 72.7a20.3 20.3 0 0 0-6.5 14.8V204H16a12 12 0 0 0 0 24h224a12 12 0 0 0 0-24ZM52 117.3l76-69.1l76 69.1V204h-40v-44a20.1 20.1 0 0 0-20-20h-32a20.1 20.1 0 0 0-20 20v44H52Zm88 86.7h-24v-40h24Z"></path></svg>