<svg xmlns="http://www.w3.org/2000/svg" xmlns:xlink="http://www.w3.org/1999/xlink" aria-hidden="true" role="img" class="iconify iconify--ph" width="1em" height="1em" preserveAspectRatio="xMidYMid meet" viewBox="0 0 256 256"><path fill="currentColor" d="M240 212h-20v-96.5a11.8 11.8 0 0 0-3.9-8.8l-80-72.8a12 12 0 0 0-16.2 0l-80 72.8a11.8 11.8 0 0 0-3.9 8.8V212H16a4 4 0 0 0 0 8h224a4 4 0 0 0 0-8ZM44 115.5a3.9 3.9 0 0 1 1.3-2.9l80-72.8a4 4 0 0 1 5.4 0l80 72.8a3.9 3.9 0 0 1 1.3 2.9V212h-56v-52a12 12 0 0 0-12-12h-32a12 12 0 0 0-12 12v52H44ZM148 212h-40v-52a4 4 0 0 1 4-4h32a4 4 0 0 1 4 4Z"></path></svg>