<svg xmlns="http://www.w3.org/2000/svg" xmlns:xlink="http://www.w3.org/1999/xlink" aria-hidden="true" role="img" class="iconify iconify--ph" width="1em" height="1em" preserveAspectRatio="xMidYMid meet" viewBox="0 0 256 256"><path fill="currentColor" d="M152 208v-48a8 8 0 0 0-8-8h-32a8 8 0 0 0-8 8v48a8 8 0 0 1-8 8H48a8 8 0 0 1-8-8v-92.5a8.3 8.3 0 0 1 2.6-5.9l80-72.7a8 8 0 0 1 10.8 0l80 72.7a7.9 7.9 0 0 1 2.6 5.9V208a8 8 0 0 1-8 8h-48a8 8 0 0 1-8-8Z" opacity=".2"></path><path fill="currentColor" d="M208 224h-48a16 16 0 0 1-16-16v-48h-32v48a16 16 0 0 1-16 16H48a16 16 0 0 1-16-16v-92.5a16 16 0 0 1 5.2-11.8l80-72.7a16 16 0 0 1 21.6 0l80 72.7a16 16 0 0 1 5.2 11.8V208a16 16 0 0 1-16 16Zm-96-80h32a16 16 0 0 1 16 16v48h48v-92.5l-80-72.7l-80 72.7V208h48v-48a16 16 0 0 1 16-16Z"></path></svg>