<svg xmlns="http://www.w3.org/2000/svg" xmlns:xlink="http://www.w3.org/1999/xlink" aria-hidden="true" role="img" class="iconify iconify--ph" width="1em" height="1em" preserveAspectRatio="xMidYMid meet" viewBox="0 0 256 256"><path fill="currentColor" d="M208 222h-48a14 14 0 0 1-14-14v-48a2 2 0 0 0-2-2h-32a2 2 0 0 0-2 2v48a14 14 0 0 1-14 14H48a14.3 14.3 0 0 1-9.9-4.1A14.1 14.1 0 0 1 34 208v-92.5a13.9 13.9 0 0 1 4.6-10.3l80-72.8a14.1 14.1 0 0 1 18.8 0l80 72.8a13.9 13.9 0 0 1 4.6 10.3V208a14 14 0 0 1-14 14Zm-96-76h32a14 14 0 0 1 14 14v48a2 2 0 0 0 2 2h48a2.1 2.1 0 0 0 2-2v-92.5a1.8 1.8 0 0 0-.6-1.4l-80.1-72.8a1.9 1.9 0 0 0-2.6 0l-80 72.8a1.6 1.6 0 0 0-.7 1.4V208a2.1 2.1 0 0 0 2 2h48a2 2 0 0 0 2-2v-48a14 14 0 0 1 14-14Z"></path></svg>