<svg xmlns="http://www.w3.org/2000/svg" xmlns:xlink="http://www.w3.org/1999/xlink" aria-hidden="true" role="img" class="iconify iconify--ph" width="1em" height="1em" preserveAspectRatio="xMidYMid meet" viewBox="0 0 256 256"><path fill="currentColor" d="M240 208h-16v-92.5a16 16 0 0 0-5.2-11.8l-80-72.7a16 16 0 0 0-21.6 0l-80 72.7a16 16 0 0 0-5.2 11.8V208H16a8 8 0 0 0 0 16h224a8 8 0 0 0 0-16ZM48 115.5l80-72.7l80 72.7V208h-48v-48a16 16 0 0 0-16-16h-32a16 16 0 0 0-16 16v48H48Zm96 92.5h-32v-48h32Z"></path></svg>