<svg xmlns="http://www.w3.org/2000/svg" xmlns:xlink="http://www.w3.org/1999/xlink" aria-hidden="true" role="img" class="iconify iconify--ph" width="1em" height="1em" preserveAspectRatio="xMidYMid meet" viewBox="0 0 256 256"><path fill="currentColor" d="M196 112a4 4 0 0 1-4 4h-40a4 4 0 0 1 0-8h40a4 4 0 0 1 4 4Zm-4 28h-40a4 4 0 0 0 0 8h40a4 4 0 0 0 0-8Zm-65 27a4 4 0 0 1-7.8 2a28 28 0 0 0-54.2 0a4.1 4.1 0 0 1-3.9 3h-1a4.2 4.2 0 0 1-2.9-4.9a36.4 36.4 0 0 1 19.6-23.6a28 28 0 1 1 30.6 0A36.4 36.4 0 0 1 127 167Zm-34.9-27a20 20 0 1 0-20-20a20.1 20.1 0 0 0 20 20ZM228 56v144a12 12 0 0 1-12 12H40a12 12 0 0 1-12-12V56a12 12 0 0 1 12-12h176a12 12 0 0 1 12 12Zm-8 0a4 4 0 0 0-4-4H40a4 4 0 0 0-4 4v144a4 4 0 0 0 4 4h176a4 4 0 0 0 4-4Z"></path></svg>