<svg xmlns="http://www.w3.org/2000/svg" xmlns:xlink="http://www.w3.org/1999/xlink" aria-hidden="true" role="img" class="iconify iconify--ph" width="1em" height="1em" preserveAspectRatio="xMidYMid meet" viewBox="0 0 256 256"><path fill="currentColor" d="M140 108a12 12 0 0 1 12-12h32a12 12 0 0 1 0 24h-32a12 12 0 0 1-12-12Zm12 52h32a12 12 0 0 0 0-24h-32a12 12 0 0 0 0 24Zm-91.9 4a34 34 0 0 1 9.9-24a34 34 0 1 1 48.2 0a34 34 0 0 1 9.9 24a12 12 0 0 1-24 0a10 10 0 0 0-20 0a12 12 0 0 1-24 0Zm24-48a10 10 0 1 0 10-10a10 10 0 0 0-10 10ZM236 56v144a20.1 20.1 0 0 1-20 20H40a20.1 20.1 0 0 1-20-20V56a20.1 20.1 0 0 1 20-20h176a20.1 20.1 0 0 1 20 20Zm-24 4H44v136h168Z"></path></svg>