<svg xmlns="http://www.w3.org/2000/svg" xmlns:xlink="http://www.w3.org/1999/xlink" aria-hidden="true" role="img" class="iconify iconify--ph" width="1em" height="1em" preserveAspectRatio="xMidYMid meet" viewBox="0 0 256 256"><path fill="currentColor" d="M216 40H40a16 16 0 0 0-16 16v144a16 16 0 0 0 16 16h176a16 16 0 0 0 16-16V56a16 16 0 0 0-16-16Zm-90.9 135.7a8 8 0 0 1-9.8-5.7a24 24 0 0 0-46.4 0a8.1 8.1 0 0 1-7.8 6l-2-.3a7.9 7.9 0 0 1-5.7-9.7a40.2 40.2 0 0 1 16.3-23.2a32 32 0 1 1 44.8 0a40.2 40.2 0 0 1 16.3 23.2a7.9 7.9 0 0 1-5.7 9.7ZM192 152h-40a8 8 0 0 1 0-16h40a8 8 0 0 1 0 16Zm0-32h-40a8 8 0 0 1 0-16h40a8 8 0 0 1 0 16Zm-83.9 0a16 16 0 1 1-16-16a16 16 0 0 1 16 16Z"></path></svg>