<svg xmlns="http://www.w3.org/2000/svg" xmlns:xlink="http://www.w3.org/1999/xlink" aria-hidden="true" role="img" class="iconify iconify--ph" width="1em" height="1em" preserveAspectRatio="xMidYMid meet" viewBox="0 0 256 256"><path fill="currentColor" d="M216 48H40a8 8 0 0 0-8 8v144a8 8 0 0 0 8 8h176a8 8 0 0 0 8-8V56a8 8 0 0 0-8-8ZM92.1 144a24 24 0 1 1 24-24a23.9 23.9 0 0 1-24 24Z" opacity=".2"></path><path fill="currentColor" d="M192 104h-40a8 8 0 0 0 0 16h40a8 8 0 0 0 0-16Zm0 32h-40a8 8 0 0 0 0 16h40a8 8 0 0 0 0-16Zm-77.5 6.8a32 32 0 1 0-44.8 0A40.2 40.2 0 0 0 53.4 166a7.9 7.9 0 0 0 5.7 9.7l2 .3a8.1 8.1 0 0 0 7.8-6a24 24 0 0 1 46.4 0a8 8 0 0 0 9.8 5.7a7.9 7.9 0 0 0 5.7-9.7a40.2 40.2 0 0 0-16.3-23.2ZM76.1 120a16 16 0 1 1 16 16a16 16 0 0 1-16-16Z"></path><path fill="currentColor" d="M216 40H40a16 16 0 0 0-16 16v144a16 16 0 0 0 16 16h176a16 16 0 0 0 16-16V56a16 16 0 0 0-16-16Zm0 160H40V56h176v144Z"></path></svg>