<svg xmlns="http://www.w3.org/2000/svg" xmlns:xlink="http://www.w3.org/1999/xlink" aria-hidden="true" role="img" class="iconify iconify--ph" width="1em" height="1em" preserveAspectRatio="xMidYMid meet" viewBox="0 0 256 256"><path fill="currentColor" d="M208 34H48a14 14 0 0 0-14 14v160a14 14 0 0 0 14 14h160a14 14 0 0 0 14-14V48a14 14 0 0 0-14-14Zm2 174a2 2 0 0 1-2 2H48a2 2 0 0 1-2-2v-29.5l32.6-32.6a1.9 1.9 0 0 1 2.8 0l20.7 20.7a14 14 0 0 0 19.8 0l44.7-44.7a1.9 1.9 0 0 1 2.8 0l40.6 40.6Zm0-62.5l-32.1-32.1a14 14 0 0 0-19.8 0l-44.7 44.7a1.9 1.9 0 0 1-2.8 0l-20.7-20.7a14.1 14.1 0 0 0-19.8 0L46 161.5V48a2 2 0 0 1 2-2h160a2 2 0 0 1 2 2ZM110 92a10 10 0 0 1-10 10a9.9 9.9 0 0 1-10-10a10 10 0 0 1 20 0Z"></path></svg>