<svg xmlns="http://www.w3.org/2000/svg" xmlns:xlink="http://www.w3.org/1999/xlink" aria-hidden="true" role="img" class="iconify iconify--ph" width="1em" height="1em" preserveAspectRatio="xMidYMid meet" viewBox="0 0 256 256"><path fill="currentColor" d="M216 44H40a12 12 0 0 0-12 12v144a12 12 0 0 0 12 12h176a12 12 0 0 0 12-12V56a12 12 0 0 0-12-12ZM40 52h176a4 4 0 0 1 4 4v118.3l-35.5-35.5a12 12 0 0 0-17 0l-20.7 20.7a3.9 3.9 0 0 1-5.6 0l-44.7-44.7a12 12 0 0 0-17 0L36 158.3V56a4 4 0 0 1 4-4Zm176 152H40a4 4 0 0 1-4-4v-30.3l49.2-49.2a3.9 3.9 0 0 1 5.6 0l44.7 44.7a12.2 12.2 0 0 0 17 0l20.7-20.7a3.9 3.9 0 0 1 5.6 0l41.2 41.2V200a4 4 0 0 1-4 4Zm-65.7-98.3a8.3 8.3 0 0 1-2.3-5.7a8 8 0 0 1 16 0a8 8 0 0 1-8 8a8.3 8.3 0 0 1-5.7-2.3Z"></path></svg>