<svg xmlns="http://www.w3.org/2000/svg" xmlns:xlink="http://www.w3.org/1999/xlink" aria-hidden="true" role="img" class="iconify iconify--ph" width="1em" height="1em" preserveAspectRatio="xMidYMid meet" viewBox="0 0 256 256"><path fill="currentColor" d="M168 100a12 12 0 0 1-12 12a12.3 12.3 0 0 1-8.5-3.5a11.9 11.9 0 0 1-3.5-8.5a12 12 0 0 1 24 0Zm64-44v144a16 16 0 0 1-16 16H40a16 16 0 0 1-16-16V56a16 16 0 0 1 16-16h176a16 16 0 0 1 16 16Zm-16 108.7V56H40v92.7L76.7 112a16.1 16.1 0 0 1 22.6 0l44.7 44.7l20.7-20.7a16.1 16.1 0 0 1 22.6 0Z"></path></svg>