<svg xmlns="http://www.w3.org/2000/svg" xmlns:xlink="http://www.w3.org/1999/xlink" aria-hidden="true" role="img" class="iconify iconify--ph" width="1em" height="1em" preserveAspectRatio="xMidYMid meet" viewBox="0 0 256 256"><path fill="currentColor" d="M244 128a52 52 0 0 1-88.8 36.8c0-.1-.1-.1-.1-.2L95 96.8a44 44 0 1 0 0 62.4l8.6-9.7a4 4 0 1 1 6 5.3l-8.7 9.8c0 .1-.1.1-.1.2a52 52 0 1 1 0-73.6c0 .1.1.1.1.2l60.1 67.8a44 44 0 1 0 0-62.4l-8.6 9.7a4 4 0 1 1-6-5.3l8.7-9.8c0-.1.1-.1.1-.2A52 52 0 0 1 244 128Z"></path></svg>