<svg xmlns="http://www.w3.org/2000/svg" xmlns:xlink="http://www.w3.org/1999/xlink" aria-hidden="true" role="img" class="iconify iconify--ph" width="1em" height="1em" preserveAspectRatio="xMidYMid meet" viewBox="0 0 256 256"><path fill="currentColor" d="M128 28a100 100 0 1 0 100 100A100.2 100.2 0 0 0 128 28Zm0 192a92 92 0 1 1 92-92a92.1 92.1 0 0 1-92 92Zm12-44a4 4 0 0 1-4 4h-8a4 4 0 0 1-4-4v-52h-4a4 4 0 0 1 0-8h8a4 4 0 0 1 4 4v52h4a4 4 0 0 1 4 4Zm-22-92a8 8 0 1 1 8 8a8 8 0 0 1-8-8Z"></path></svg>