<svg xmlns="http://www.w3.org/2000/svg" xmlns:xlink="http://www.w3.org/1999/xlink" aria-hidden="true" role="img" class="iconify iconify--ph" width="1em" height="1em" preserveAspectRatio="xMidYMid meet" viewBox="0 0 256 256"><path fill="currentColor" d="M172.9 83.1a78 78 0 1 0-89.8 89.8a78 78 0 1 0 89.8-89.8ZM30 96a66 66 0 0 1 130.5-14h-.5a77.2 77.2 0 0 0-40.4 11.3l-.6.4A78.4 78.4 0 0 0 93.7 119l-.4.6A77.2 77.2 0 0 0 82 160v.5A66.1 66.1 0 0 1 30 96Zm104.2 53.7l-27.9-27.9a63.4 63.4 0 0 1 15.5-15.5l27.9 27.9a63.4 63.4 0 0 1-15.5 15.5ZM94 160a66.6 66.6 0 0 1 6-27.5l23.5 23.5a66.6 66.6 0 0 1-27.5 6h-1.9a13.4 13.4 0 0 1-.1-2Zm68-64a66.6 66.6 0 0 1-6 27.5L132.5 100a66.6 66.6 0 0 1 27.5-6h2Zm-2 130a66.1 66.1 0 0 1-64.5-52h.5a77.2 77.2 0 0 0 40.4-11.3l.6-.4a78.4 78.4 0 0 0 25.3-25.3l.4-.6A77.2 77.2 0 0 0 174 96v-.5A66 66 0 0 1 160 226Z"></path></svg>