<svg xmlns="http://www.w3.org/2000/svg" xmlns:xlink="http://www.w3.org/1999/xlink" aria-hidden="true" role="img" class="iconify iconify--ph" width="1em" height="1em" preserveAspectRatio="xMidYMid meet" viewBox="0 0 256 256"><path fill="currentColor" d="M174.6 81.4a80 80 0 1 0-93.2 93.2a80 80 0 1 0 93.2-93.2Zm-40.2 65.7l-25.5-25.5a63.7 63.7 0 0 1 12.7-12.7l25.5 25.5a63.7 63.7 0 0 1-12.7 12.7ZM100.7 136l19.3 19.3a63.8 63.8 0 0 1-24 4.7a63.8 63.8 0 0 1 4.7-24Zm54.6-16L136 100.7a63.8 63.8 0 0 1 24-4.7a63.8 63.8 0 0 1-4.7 24ZM32 96a64 64 0 0 1 126-15.9a79.8 79.8 0 0 0-39 11.2a6 6 0 0 0-1.3.9a79.3 79.3 0 0 0-25.5 25.4a11 11 0 0 0-.9 1.4a79.8 79.8 0 0 0-11.2 39A64.2 64.2 0 0 1 32 96Zm128 128a64.2 64.2 0 0 1-62-48.1a79.8 79.8 0 0 0 39-11.2a6 6 0 0 0 1.3-.9a79.3 79.3 0 0 0 25.5-25.4a11 11 0 0 0 .9-1.4a79.8 79.8 0 0 0 11.2-39A64 64 0 0 1 160 224Z"></path></svg>