<svg xmlns="http://www.w3.org/2000/svg" xmlns:xlink="http://www.w3.org/1999/xlink" aria-hidden="true" role="img" class="iconify iconify--ph" width="1em" height="1em" preserveAspectRatio="xMidYMid meet" viewBox="0 0 256 256"><path fill="currentColor" d="M171.2 84.8a76 76 0 1 0-86.4 86.4a76 76 0 1 0 86.4-86.4ZM28 96a68 68 0 0 1 134.9-11.9H160a75.2 75.2 0 0 0-39.3 11l-.6.4a76.7 76.7 0 0 0-24.7 24.7a2.1 2.1 0 0 0-.4.6A75.2 75.2 0 0 0 84 160a27.1 27.1 0 0 0 .1 2.9A68 68 0 0 1 28 96Zm136 0a67.2 67.2 0 0 1-7.5 30.9l-27.4-27.4A67.2 67.2 0 0 1 160 92h3.9c.1 1.4.1 2.7.1 4Zm-30 56.4L103.6 122a70 70 0 0 1 18.4-18.4l30.4 30.4a70 70 0 0 1-18.4 18.4ZM92 160a67.2 67.2 0 0 1 7.5-30.9l27.4 27.4A67.2 67.2 0 0 1 96 164h-3.9c-.1-1.4-.1-2.7-.1-4Zm68 68a68 68 0 0 1-66.9-56.1H96a75.2 75.2 0 0 0 39.3-11l.6-.4a76.7 76.7 0 0 0 24.7-24.7l.4-.6A75.2 75.2 0 0 0 172 96a27.1 27.1 0 0 0-.1-2.9A68 68 0 0 1 160 228Z"></path></svg>