<svg xmlns="http://www.w3.org/2000/svg" xmlns:xlink="http://www.w3.org/1999/xlink" aria-hidden="true" role="img" class="iconify iconify--ph" width="1em" height="1em" preserveAspectRatio="xMidYMid meet" viewBox="0 0 256 256"><path fill="currentColor" d="M178 78A84 84 0 1 0 78 178A84 84 0 1 0 178 78Zm-68 48.9l19.1 19.1a59 59 0 0 1-28.9 9.8a59 59 0 0 1 9.8-28.9Zm36 2.2L126.9 110a59 59 0 0 1 28.9-9.8a59 59 0 0 1-9.8 28.9ZM36 96a60 60 0 0 1 116.7-19.7a84.4 84.4 0 0 0-76.4 76.4A60.2 60.2 0 0 1 36 96Zm124 124a60.2 60.2 0 0 1-56.7-40.3a84.4 84.4 0 0 0 76.4-76.4A60 60 0 0 1 160 220Z"></path></svg>