<svg xmlns="http://www.w3.org/2000/svg" xmlns:xlink="http://www.w3.org/1999/xlink" aria-hidden="true" role="img" class="iconify iconify--ph" width="1em" height="1em" preserveAspectRatio="xMidYMid meet" viewBox="0 0 256 256"><path fill="currentColor" d="M240 90h-14.8l-6.3-44a14.1 14.1 0 0 0-13.8-12H50.9a14.1 14.1 0 0 0-13.8 12l-6.3 44H16a6 6 0 0 0 0 12h14v106a14 14 0 0 0 14 14h24a14 14 0 0 0 14-14v-26h92v26a14 14 0 0 0 14 14h24a14 14 0 0 0 14-14V102h14a6 6 0 0 0 0-12ZM49 47.7a1.9 1.9 0 0 1 1.9-1.7h154.2a1.9 1.9 0 0 1 1.9 1.7l6.1 42.3H42.9ZM70 208a2 2 0 0 1-2 2H44a2 2 0 0 1-2-2v-26h28Zm142 2h-24a2 2 0 0 1-2-2v-26h28v26a2 2 0 0 1-2 2Zm2-40h-64v-42a6 6 0 0 0-12 0v42h-20v-42a6 6 0 0 0-12 0v42H42v-68h172ZM62 132a10 10 0 1 1 10 10a10 10 0 0 1-10-10Zm112 0a10 10 0 1 1 10 10a10 10 0 0 1-10-10Z"></path></svg>