<svg xmlns="http://www.w3.org/2000/svg" xmlns:xlink="http://www.w3.org/1999/xlink" aria-hidden="true" role="img" class="iconify iconify--ph" width="1em" height="1em" preserveAspectRatio="xMidYMid meet" viewBox="0 0 256 256"><path fill="currentColor" d="M239.7 88h-12.8l-6-42.3A16 16 0 0 0 205.1 32H50.9a16 16 0 0 0-15.8 13.7l-6 42.3H16.3A8.2 8.2 0 0 0 8 95.5a8 8 0 0 0 8 8.5h12v104a16 16 0 0 0 16 16h24a16 16 0 0 0 16-16v-24h16a4 4 0 0 0 4-4v-51.7a8.2 8.2 0 0 1 7.5-8.3a8 8 0 0 1 8.5 8v52a4 4 0 0 0 4 4h8a4 4 0 0 0 4-4v-51.7a8.2 8.2 0 0 1 7.5-8.3a8 8 0 0 1 8.5 8v52a4 4 0 0 0 4 4h16v24a16 16 0 0 0 16 16h24a16 16 0 0 0 16-16V104h12a8 8 0 0 0 8-8.5a8.2 8.2 0 0 0-8.3-7.5ZM72 144a12 12 0 1 1 12-12a12 12 0 0 1-12 12Zm112 0a12 12 0 1 1 12-12a12 12 0 0 1-12 12Z"></path></svg>