<svg xmlns="http://www.w3.org/2000/svg" xmlns:xlink="http://www.w3.org/1999/xlink" aria-hidden="true" role="img" class="iconify iconify--ph" width="1em" height="1em" preserveAspectRatio="xMidYMid meet" viewBox="0 0 256 256"><path fill="currentColor" d="M240 84h-9.6l-5.5-38.8A20.2 20.2 0 0 0 205.1 28H50.9a20.2 20.2 0 0 0-19.8 17.2L25.6 84H16a12 12 0 0 0 0 24h8v100a20.1 20.1 0 0 0 20 20h24a20.1 20.1 0 0 0 20-20v-20h80v20a20.1 20.1 0 0 0 20 20h24a20.1 20.1 0 0 0 20-20V108h8a12 12 0 0 0 0-24ZM54.4 52h147.2l4.6 32H49.8ZM64 204H48v-16h16Zm128 0v-16h16v16Zm16-40h-28v-28a12 12 0 0 0-24 0v28h-16v-28a12 12 0 0 0-24 0v28h-16v-28a12 12 0 0 0-24 0v28H48v-56h160Z"></path></svg>