<svg xmlns="http://www.w3.org/2000/svg" xmlns:xlink="http://www.w3.org/1999/xlink" aria-hidden="true" role="img" class="iconify iconify--ph" width="1em" height="1em" preserveAspectRatio="xMidYMid meet" viewBox="0 0 256 256"><path fill="currentColor" d="M240 92h-16.5l-6.6-45.7A11.9 11.9 0 0 0 205.1 36H50.9a11.9 11.9 0 0 0-11.8 10.3L32.5 92H16a4 4 0 0 0 0 8h16v108a12 12 0 0 0 12 12h24a12 12 0 0 0 12-12v-28h96v28a12 12 0 0 0 12 12h24a12 12 0 0 0 12-12V100h16a4 4 0 0 0 0-8ZM47 47.4a4.1 4.1 0 0 1 3.9-3.4h154.2a4.1 4.1 0 0 1 3.9 3.4l6.4 44.6H40.6ZM72 208a4 4 0 0 1-4 4H44a4 4 0 0 1-4-4v-28h32Zm140 4h-24a4 4 0 0 1-4-4v-28h32v28a4 4 0 0 1-4 4Zm4-40h-68v-44a4 4 0 0 0-8 0v44h-24v-44a4 4 0 0 0-8 0v44H40v-72h176ZM64 132a8 8 0 1 1 8 8a8 8 0 0 1-8-8Zm112 0a8 8 0 1 1 8 8a8 8 0 0 1-8-8Z"></path></svg>