<svg xmlns="http://www.w3.org/2000/svg" xmlns:xlink="http://www.w3.org/1999/xlink" aria-hidden="true" role="img" class="iconify iconify--ph" width="1em" height="1em" preserveAspectRatio="xMidYMid meet" viewBox="0 0 256 256"><path fill="currentColor" d="M240 88h-13.1l-6-42.3A16 16 0 0 0 205.1 32H50.9a16 16 0 0 0-15.8 13.7l-6 42.3H16a8 8 0 0 0 0 16h12v104a16 16 0 0 0 16 16h24a16 16 0 0 0 16-16v-24h88v24a16 16 0 0 0 16 16h24a16 16 0 0 0 16-16V104h12a8 8 0 0 0 0-16ZM50.9 48h154.2l5.7 40H45.2ZM68 208H44v-24h24Zm120 0v-24h24v24Zm24-40h-60v-40a8 8 0 0 0-16 0v40h-16v-40a8 8 0 0 0-16 0v40H44v-64h168ZM60 132a12 12 0 1 1 12 12a12 12 0 0 1-12-12Zm112 0a12 12 0 1 1 12 12a12 12 0 0 1-12-12Z"></path></svg>