<svg xmlns="http://www.w3.org/2000/svg" xmlns:xlink="http://www.w3.org/1999/xlink" aria-hidden="true" role="img" class="iconify iconify--ph" width="1em" height="1em" preserveAspectRatio="xMidYMid meet" viewBox="0 0 256 256"><path fill="currentColor" d="M216 52H40a4 4 0 0 0-4 4v152a12 12 0 0 0 12 12h40a12 12 0 0 0 12-12v-52h56v20a12 12 0 0 0 12 12h40a12 12 0 0 0 12-12V56a4 4 0 0 0-4-4Zm-4 64h-48V60h48ZM92 60v56H44V60Zm0 148a4 4 0 0 1-4 4H48a4 4 0 0 1-4-4v-84h48Zm8-60V60h56v88Zm108 32h-40a4 4 0 0 1-4-4v-52h48v52a4 4 0 0 1-4 4Z"></path></svg>