<svg xmlns="http://www.w3.org/2000/svg" xmlns:xlink="http://www.w3.org/1999/xlink" aria-hidden="true" role="img" class="iconify iconify--ph" width="1em" height="1em" preserveAspectRatio="xMidYMid meet" viewBox="0 0 256 256"><path fill="currentColor" d="M216 44H40a12 12 0 0 0-12 12v152a20.1 20.1 0 0 0 20 20h40a20.1 20.1 0 0 0 20-20v-44h40v12a20.1 20.1 0 0 0 20 20h40a20.1 20.1 0 0 0 20-20V56a12 12 0 0 0-12-12Zm-12 64h-32V68h32ZM84 68v40H52V68Zm0 136H52v-72h32Zm24-64V68h40v72Zm64 32v-40h32v40Z"></path></svg>