<svg xmlns="http://www.w3.org/2000/svg" xmlns:xlink="http://www.w3.org/1999/xlink" aria-hidden="true" role="img" class="iconify iconify--ph" width="1em" height="1em" preserveAspectRatio="xMidYMid meet" viewBox="0 0 256 256"><path fill="currentColor" d="M160 18a78.1 78.1 0 0 0-78 78a77.2 77.2 0 0 0 4.2 25.3l-58.4 58.5A5.6 5.6 0 0 0 26 184v40a6 6 0 0 0 6 6h40a6 6 0 0 0 6-6v-18h18a6 6 0 0 0 6-6v-18h18a5.6 5.6 0 0 0 4.2-1.8l10.5-10.4A77.2 77.2 0 0 0 160 174a78 78 0 0 0 0-156Zm0 144a65.4 65.4 0 0 1-24.4-4.7a6.2 6.2 0 0 0-6.7 1.3L117.5 170H96a6 6 0 0 0-6 6v18H72a6 6 0 0 0-6 6v18H38v-31.5l59.4-59.4a6.2 6.2 0 0 0 1.3-6.7A65.4 65.4 0 0 1 94 96a66 66 0 1 1 66 66Zm30-86a10 10 0 1 1-10-10a10 10 0 0 1 10 10Z"></path></svg>