<svg xmlns="http://www.w3.org/2000/svg" xmlns:xlink="http://www.w3.org/1999/xlink" aria-hidden="true" role="img" class="iconify iconify--ph" width="1em" height="1em" preserveAspectRatio="xMidYMid meet" viewBox="0 0 256 256"><path fill="currentColor" d="M160 20a76.1 76.1 0 0 0-76 76a74.9 74.9 0 0 0 4.5 25.8l-59.3 59.4A3.6 3.6 0 0 0 28 184v40a4 4 0 0 0 4 4h40a4 4 0 0 0 4-4v-20h20a4 4 0 0 0 4-4v-20h20a3.6 3.6 0 0 0 2.8-1.2l11.4-11.3A74.9 74.9 0 0 0 160 172a76 76 0 0 0 0-152Zm0 144a67.6 67.6 0 0 1-25.2-4.8a4 4 0 0 0-4.5.8l-12 12H96a4 4 0 0 0-4 4v20H72a4 4 0 0 0-4 4v20H36v-34.3l60-60a4 4 0 0 0 .8-4.5A68 68 0 1 1 160 164Zm28-88a8 8 0 1 1-8-8a8 8 0 0 1 8 8Z"></path></svg>