<svg xmlns="http://www.w3.org/2000/svg" xmlns:xlink="http://www.w3.org/1999/xlink" aria-hidden="true" role="img" class="iconify iconify--ph" width="1em" height="1em" preserveAspectRatio="xMidYMid meet" viewBox="0 0 256 256"><path fill="currentColor" d="M180 104v32a4 4 0 0 1-4 4H89.7l17.1 17.2a3.9 3.9 0 0 1 0 5.6a3.9 3.9 0 0 1-5.6 0l-24-24a3.9 3.9 0 0 1 0-5.6l24-24a4 4 0 0 1 5.6 5.6L89.7 132H172v-28a4 4 0 0 1 8 0Zm48-48v144a12 12 0 0 1-12 12H40a12 12 0 0 1-12-12V56a12 12 0 0 1 12-12h176a12 12 0 0 1 12 12Zm-8 0a4 4 0 0 0-4-4H40a4 4 0 0 0-4 4v144a4 4 0 0 0 4 4h176a4 4 0 0 0 4-4Z"></path></svg>