<svg xmlns="http://www.w3.org/2000/svg" xmlns:xlink="http://www.w3.org/1999/xlink" aria-hidden="true" role="img" class="iconify iconify--ph" width="1em" height="1em" preserveAspectRatio="xMidYMid meet" viewBox="0 0 256 256"><path fill="currentColor" d="M184 104v32a8 8 0 0 1-8 8H99.3l10.4 10.3a8.1 8.1 0 0 1 0 11.4a8.2 8.2 0 0 1-11.4 0l-24-24a8.1 8.1 0 0 1 0-11.4l24-24a8.1 8.1 0 0 1 11.4 11.4L99.3 128H168v-24a8 8 0 0 1 16 0Zm48-48v144a16 16 0 0 1-16 16H40a16 16 0 0 1-16-16V56a16 16 0 0 1 16-16h176a16 16 0 0 1 16 16Zm-16 144V56H40v144Z"></path></svg>