<svg xmlns="http://www.w3.org/2000/svg" xmlns:xlink="http://www.w3.org/1999/xlink" aria-hidden="true" role="img" class="iconify iconify--ph" width="1em" height="1em" preserveAspectRatio="xMidYMid meet" viewBox="0 0 256 256"><path fill="currentColor" d="M160 12a84.1 84.1 0 0 0-84 84a82.3 82.3 0 0 0 3.4 23.7l-55.9 55.8A12.3 12.3 0 0 0 20 184v40a12 12 0 0 0 12 12h40a12 12 0 0 0 12-12v-12h12a12 12 0 0 0 12-12v-12h12a12.3 12.3 0 0 0 8.5-3.5l7.8-7.9A82.3 82.3 0 0 0 160 180a84 84 0 0 0 0-168Zm0 144a59.5 59.5 0 0 1-22.1-4.2a12 12 0 0 0-13.2 2.5L115 164H96a12 12 0 0 0-12 12v12H72a12 12 0 0 0-12 12v12H44v-23l57.7-57.7a12 12 0 0 0 2.5-13.2A60 60 0 1 1 160 156Zm36-80a16 16 0 1 1-16-16a16 16 0 0 1 16 16Z"></path></svg>