<svg xmlns="http://www.w3.org/2000/svg" xmlns:xlink="http://www.w3.org/1999/xlink" aria-hidden="true" role="img" class="iconify iconify--ph" width="1em" height="1em" preserveAspectRatio="xMidYMid meet" viewBox="0 0 256 256"><path fill="currentColor" d="M182 104v32a6 6 0 0 1-6 6H94.5l13.7 13.8a5.9 5.9 0 1 1-8.4 8.4l-24-24a5.8 5.8 0 0 1 0-8.4l24-24a5.9 5.9 0 0 1 8.4 8.4L94.5 130H170v-26a6 6 0 0 1 12 0Zm48-48v144a14 14 0 0 1-14 14H40a14 14 0 0 1-14-14V56a14 14 0 0 1 14-14h176a14 14 0 0 1 14 14Zm-12 0a2 2 0 0 0-2-2H40a2 2 0 0 0-2 2v144a2 2 0 0 0 2 2h176a2 2 0 0 0 2-2Z"></path></svg>