<svg xmlns="http://www.w3.org/2000/svg" xmlns:xlink="http://www.w3.org/1999/xlink" aria-hidden="true" role="img" class="iconify iconify--ph" width="1em" height="1em" preserveAspectRatio="xMidYMid meet" viewBox="0 0 256 256"><path fill="currentColor" d="M71.5 144.5a12 12 0 0 1 0-17l24-24a12 12 0 0 1 17 17L109 124h55v-20a12 12 0 0 1 24 0v32a12 12 0 0 1-12 12h-67l3.5 3.5a12 12 0 0 1 0 17a12.1 12.1 0 0 1-17 0ZM236 56v144a20.1 20.1 0 0 1-20 20H40a20.1 20.1 0 0 1-20-20V56a20.1 20.1 0 0 1 20-20h176a20.1 20.1 0 0 1 20 20Zm-24 4H44v136h168Z"></path></svg>