<svg xmlns="http://www.w3.org/2000/svg" xmlns:xlink="http://www.w3.org/1999/xlink" aria-hidden="true" role="img" class="iconify iconify--ph" width="1em" height="1em" preserveAspectRatio="xMidYMid meet" viewBox="0 0 256 256"><path fill="currentColor" d="M160 16a80.1 80.1 0 0 0-76.1 104.8l-57.6 57.5A8.1 8.1 0 0 0 24 184v40a8 8 0 0 0 8 8h40a8 8 0 0 0 8-8v-16h16a8 8 0 0 0 8-8v-16h16a8.1 8.1 0 0 0 5.7-2.3l9.5-9.6A80 80 0 1 0 160 16Zm0 144a64 64 0 0 1-23.7-4.5a7.9 7.9 0 0 0-8.8 1.7L116.7 168H96a8 8 0 0 0-8 8v16H72a8 8 0 0 0-8 8v16H40v-28.7l58.8-58.8a7.9 7.9 0 0 0 1.7-8.8A64 64 0 1 1 160 160Zm32-84a12 12 0 1 1-12-12a12 12 0 0 1 12 12Z"></path></svg>