<svg xmlns="http://www.w3.org/2000/svg" xmlns:xlink="http://www.w3.org/1999/xlink" aria-hidden="true" role="img" class="iconify iconify--ph" width="1em" height="1em" preserveAspectRatio="xMidYMid meet" viewBox="0 0 256 256"><rect width="208" height="144" x="24" y="56" fill="currentColor" opacity=".2" rx="8.5"></rect><path fill="currentColor" d="M223.5 47.5h-191a17 17 0 0 0-17 17v127a17 17 0 0 0 17 17h191a17 17 0 0 0 17-17v-127a17 17 0 0 0-17-17Zm0 144h-191v-127h191v127Z"></path><path fill="currentColor" d="M200 120H56a8 8 0 0 0 0 16h144a8 8 0 0 0 0-16Zm0-32H56a8 8 0 0 0 0 16h144a8 8 0 0 0 0-16ZM64 152h-8a8 8 0 0 0 0 16h8a8 8 0 0 0 0-16Zm96 0H96a8 8 0 0 0 0 16h64a8 8 0 0 0 0-16Zm40 0h-8a8 8 0 0 0 0 16h8a8 8 0 0 0 0-16Z"></path></svg>