<svg xmlns="http://www.w3.org/2000/svg" xmlns:xlink="http://www.w3.org/1999/xlink" aria-hidden="true" role="img" class="iconify iconify--ph" width="1em" height="1em" preserveAspectRatio="xMidYMid meet" viewBox="0 0 256 256"><path fill="currentColor" d="M223.5 52h-191A12.5 12.5 0 0 0 20 64.5v127A12.5 12.5 0 0 0 32.5 204h191a12.5 12.5 0 0 0 12.5-12.5v-127A12.5 12.5 0 0 0 223.5 52Zm4.5 139.5a4.5 4.5 0 0 1-4.5 4.5h-191a4.5 4.5 0 0 1-4.5-4.5v-127a4.5 4.5 0 0 1 4.5-4.5h191a4.5 4.5 0 0 1 4.5 4.5ZM204 128a4 4 0 0 1-4 4H56a4 4 0 0 1 0-8h144a4 4 0 0 1 4 4Zm0-32a4 4 0 0 1-4 4H56a4 4 0 0 1 0-8h144a4 4 0 0 1 4 4ZM68 160a4 4 0 0 1-4 4h-8a4 4 0 0 1 0-8h8a4 4 0 0 1 4 4Zm96 0a4 4 0 0 1-4 4H96a4 4 0 0 1 0-8h64a4 4 0 0 1 4 4Zm40 0a4 4 0 0 1-4 4h-8a4 4 0 0 1 0-8h8a4 4 0 0 1 4 4Z"></path></svg>