<svg xmlns="http://www.w3.org/2000/svg" xmlns:xlink="http://www.w3.org/1999/xlink" aria-hidden="true" role="img" class="iconify iconify--ph" width="1em" height="1em" preserveAspectRatio="xMidYMid meet" viewBox="0 0 256 256"><path fill="currentColor" d="M223.5 44h-191A20.5 20.5 0 0 0 12 64.5v127A20.5 20.5 0 0 0 32.5 212h191a20.5 20.5 0 0 0 20.5-20.5v-127A20.5 20.5 0 0 0 223.5 44ZM220 188H36V68h184ZM52 128a12 12 0 0 1 12-12h128a12 12 0 0 1 0 24H64a12 12 0 0 1-12-12Zm0-36a12 12 0 0 1 12-12h128a12 12 0 0 1 0 24H64a12 12 0 0 1-12-12Zm0 72a12 12 0 0 1 12-12h8a12 12 0 0 1 0 24h-8a12 12 0 0 1-12-12Zm108 0a12 12 0 0 1-12 12h-40a12 12 0 0 1 0-24h40a12 12 0 0 1 12 12Zm44 0a12 12 0 0 1-12 12h-8a12 12 0 0 1 0-24h8a12 12 0 0 1 12 12Z"></path></svg>