<svg xmlns="http://www.w3.org/2000/svg" xmlns:xlink="http://www.w3.org/1999/xlink" aria-hidden="true" role="img" class="iconify iconify--ph" width="1em" height="1em" preserveAspectRatio="xMidYMid meet" viewBox="0 0 256 256"><path fill="currentColor" d="M223.5 50h-191A14.5 14.5 0 0 0 18 64.5v127A14.5 14.5 0 0 0 32.5 206h191a14.5 14.5 0 0 0 14.5-14.5v-127A14.5 14.5 0 0 0 223.5 50Zm2.5 141.5a2.5 2.5 0 0 1-2.5 2.5h-191a2.5 2.5 0 0 1-2.5-2.5v-127a2.5 2.5 0 0 1 2.5-2.5h191a2.5 2.5 0 0 1 2.5 2.5ZM206 128a6 6 0 0 1-6 6H56a6 6 0 0 1 0-12h144a6 6 0 0 1 6 6Zm0-32a6 6 0 0 1-6 6H56a6 6 0 0 1 0-12h144a6 6 0 0 1 6 6ZM70 160a6 6 0 0 1-6 6h-8a6 6 0 0 1 0-12h8a6 6 0 0 1 6 6Zm96 0a6 6 0 0 1-6 6H96a6 6 0 0 1 0-12h64a6 6 0 0 1 6 6Zm40 0a6 6 0 0 1-6 6h-8a6 6 0 0 1 0-12h8a6 6 0 0 1 6 6Z"></path></svg>