<svg xmlns="http://www.w3.org/2000/svg" xmlns:xlink="http://www.w3.org/1999/xlink" aria-hidden="true" role="img" class="iconify iconify--ph" width="1em" height="1em" preserveAspectRatio="xMidYMid meet" viewBox="0 0 256 256"><path fill="currentColor" d="M128 24a104 104 0 1 0 104 104A104.2 104.2 0 0 0 128 24Zm0 192a88 88 0 1 1 88-88a88.1 88.1 0 0 1-88 88Zm35.8-111.8A36 36 0 0 0 92 108a35.7 35.7 0 0 0 12.7 27.4l-11.3 26.3a16.1 16.1 0 0 0 14.7 22.3h39.8a16.1 16.1 0 0 0 14.7-22.3l-11.3-26.3a35.9 35.9 0 0 0 12.5-31.2ZM134 135.7l13.9 32.3h-39.8l13.9-32.3a7.9 7.9 0 0 0-3.6-10.1A20.1 20.1 0 0 1 108 108a20.1 20.1 0 0 1 20-20h2.3a20.1 20.1 0 0 1 7.3 37.5a7.9 7.9 0 0 0-3.6 10.2Z"></path></svg>