<svg xmlns="http://www.w3.org/2000/svg" xmlns:xlink="http://www.w3.org/1999/xlink" aria-hidden="true" role="img" class="iconify iconify--ph" width="1em" height="1em" preserveAspectRatio="xMidYMid meet" viewBox="0 0 256 256"><path fill="currentColor" d="m146.4 134.2l12.5 29.1a12 12 0 0 1-11 16.7h-39.8a12 12 0 0 1-11-16.7l12.5-29.1a32 32 0 0 1-2.9-50.1a32.4 32.4 0 0 1 25-7.9a32 32 0 0 1 14.7 58ZM232 128A104 104 0 1 1 128 24a104.2 104.2 0 0 1 104 104Zm-16 0a88 88 0 1 0-88 88a88.1 88.1 0 0 0 88-88Z"></path></svg>