<svg xmlns="http://www.w3.org/2000/svg" xmlns:xlink="http://www.w3.org/1999/xlink" aria-hidden="true" role="img" class="iconify iconify--ph" width="1em" height="1em" preserveAspectRatio="xMidYMid meet" viewBox="0 0 256 256"><path fill="currentColor" d="M128 26a102 102 0 1 0 102 102A102.2 102.2 0 0 0 128 26Zm0 192a90 90 0 1 1 90-90a90.1 90.1 0 0 1-90 90Zm33.8-113.6a34 34 0 1 0-54.7 30.4l-11.8 27.7a13.8 13.8 0 0 0 1.1 13.2a14.1 14.1 0 0 0 11.7 6.3h39.8a14.1 14.1 0 0 0 11.7-6.3a13.8 13.8 0 0 0 1.1-13.2l-11.8-27.7a33.9 33.9 0 0 0 12.9-30.4Zm-23.3 22.9a6.1 6.1 0 0 0-2.6 7.7l13.8 32.2a1.7 1.7 0 0 1-.2 1.9a1.9 1.9 0 0 1-1.6.9h-39.8a1.9 1.9 0 0 1-1.6-.9a1.7 1.7 0 0 1-.2-1.9l13.8-32.2a6.1 6.1 0 0 0-2.6-7.7A21.8 21.8 0 0 1 106 108a22.2 22.2 0 0 1 7.3-16.4A21.6 21.6 0 0 1 128 86h2.6a22.2 22.2 0 0 1 19.3 19.6a22 22 0 0 1-11.4 21.7Z"></path></svg>