<svg xmlns="http://www.w3.org/2000/svg" xmlns:xlink="http://www.w3.org/1999/xlink" aria-hidden="true" role="img" class="iconify iconify--ph" width="1em" height="1em" preserveAspectRatio="xMidYMid meet" viewBox="0 0 256 256"><path fill="currentColor" d="M128 28a100 100 0 1 0 100 100A100.2 100.2 0 0 0 128 28Zm0 192a92 92 0 1 1 92-92a92.1 92.1 0 0 1-92 92Zm31.8-115.4a32 32 0 0 0-28.1-28.4A32 32 0 0 0 96 108a32 32 0 0 0 13.6 26.2l-12.5 29.1a12 12 0 0 0 11 16.7h39.8a12 12 0 0 0 11-16.7l-12.5-29.1a32.2 32.2 0 0 0 13.4-29.6Zm-22.1 29.6l13.8 32.2a3.7 3.7 0 0 1-.3 3.8a4 4 0 0 1-3.3 1.8h-39.8a4 4 0 0 1-3.3-1.8a3.7 3.7 0 0 1-.3-3.8l13.8-32.2a4.1 4.1 0 0 0-1.8-5.1a24 24 0 0 1-4.5-39a23.7 23.7 0 0 1 16-6.1l2.8.2a24 24 0 0 1 8.7 44.9a4.1 4.1 0 0 0-1.8 5.1Z"></path></svg>