<svg xmlns="http://www.w3.org/2000/svg" xmlns:xlink="http://www.w3.org/1999/xlink" aria-hidden="true" role="img" class="iconify iconify--ph" width="1em" height="1em" preserveAspectRatio="xMidYMid meet" viewBox="0 0 256 256"><path fill="currentColor" d="M234.6 29.4a31.9 31.9 0 0 0-45.2 0c-.1 0-.1 0-.1.1L15.4 207.6a12 12 0 0 0 5.9 20.1a162.1 162.1 0 0 0 35.9 4.1c34.2 0 68.4-11.1 100.5-32.9a234.1 234.1 0 0 0 51.9-47.7a12 12 0 0 0-1.1-15.7l-16-16l42.3-45a32 32 0 0 0-.2-45.1Zm-90.9 150.1c-31 20.8-62.7 30.2-94.7 28.1l97.6-100l20.4 20.3l.6.6l16.1 16.1a222.4 222.4 0 0 1-40 34.9Zm74-121.8l-.3.2l-41.9 44.6l-12.1-12.1l43-44.1a8 8 0 0 1 11.3 0a8.1 8.1 0 0 1 0 11.4Z"></path></svg>