<svg xmlns="http://www.w3.org/2000/svg" xmlns:xlink="http://www.w3.org/1999/xlink" aria-hidden="true" role="img" class="iconify iconify--ph" width="1em" height="1em" preserveAspectRatio="xMidYMid meet" viewBox="0 0 256 256"><path fill="currentColor" d="M231.8 32.2a28.1 28.1 0 0 0-39.7.1L18.3 210.4a8 8 0 0 0 3.9 13.4a154.1 154.1 0 0 0 35 4c33.4 0 66.8-10.9 98.3-32.2a232 232 0 0 0 50.9-46.8a8.1 8.1 0 0 0-.7-10.5l-18.8-18.7l45-47.9a28 28 0 0 0-.1-39.5Zm-42.6 112.3a227 227 0 0 1-43.1 38.2c-34.5 23.2-70 32.6-105.8 28.1l106.3-108.9l23.3 23.3c.1.1.2.3.4.4h.1Zm31.3-84c-.1 0-.1.1-.2.2l-44.7 47.6l-17.9-17.9l45.8-46.9a12 12 0 0 1 17 17Z"></path></svg>