<svg xmlns="http://www.w3.org/2000/svg" xmlns:xlink="http://www.w3.org/1999/xlink" aria-hidden="true" role="img" class="iconify iconify--ph" width="1em" height="1em" preserveAspectRatio="xMidYMid meet" viewBox="0 0 256 256"><path fill="currentColor" d="M230.4 33.6a26 26 0 0 0-36.8.1L19.7 211.8a6.1 6.1 0 0 0-1.5 5.9a5.9 5.9 0 0 0 4.5 4.1a148.9 148.9 0 0 0 34.4 4c33.1 0 66.2-10.8 97.3-31.8s49.6-45.4 50.4-46.4a5.8 5.8 0 0 0-.6-7.8l-20.1-20.2l46.4-49.3a26.1 26.1 0 0 0-.1-36.7Zm-38.5 110.8a226.1 226.1 0 0 1-44.6 39.8c-36.2 24.5-73.5 33.8-111.2 28L146.5 99l24.8 24.8l.4.4h.1Zm30-82.5h-.1l-46.2 49.2l-20.7-20.7l47.2-48.3a14 14 0 0 1 19.8 19.8Z"></path></svg>