<svg xmlns="http://www.w3.org/2000/svg" xmlns:xlink="http://www.w3.org/1999/xlink" aria-hidden="true" role="img" class="iconify iconify--ph" width="1em" height="1em" preserveAspectRatio="xMidYMid meet" viewBox="0 0 256 256"><path fill="currentColor" d="M211.8 214.6L160.3 73l10.5-29H184a4 4 0 0 0 0-8H88a4 4 0 0 0 0 8h10.3L36.2 214.6a4.2 4.2 0 0 0 2.4 5.2l1.4.2a4.1 4.1 0 0 0 3.8-2.6L54.4 188h55.5l-9.7 26.6a4.2 4.2 0 0 0 2.4 5.2l1.4.2a4.1 4.1 0 0 0 3.8-2.6l19.4-53.4h57.6l19.4 53.4a4.1 4.1 0 0 0 3.8 2.6l1.4-.2a4.2 4.2 0 0 0 2.4-5.2ZM130.3 132H74.8l14.5-40h55.5Zm32-88l-14.6 40H92.3l14.5-40Zm-105 136l14.6-40h55.5l-14.6 40Zm72.8-24L156 84.7l25.9 71.3Z"></path></svg>