<svg xmlns="http://www.w3.org/2000/svg" xmlns:xlink="http://www.w3.org/1999/xlink" aria-hidden="true" role="img" class="iconify iconify--ph" width="1em" height="1em" preserveAspectRatio="xMidYMid meet" viewBox="0 0 256 256"><path fill="currentColor" d="M213.6 213.9L162.4 73l9.8-27H184a6 6 0 0 0 0-12H88a6 6 0 0 0 0 12h7.4l-61 167.9a5.9 5.9 0 0 0 3.5 7.7a5.2 5.2 0 0 0 2.1.4a5.8 5.8 0 0 0 5.6-3.9L55.8 190h51.3l-8.7 23.9a5.9 5.9 0 0 0 3.5 7.7a5.2 5.2 0 0 0 2.1.4a5.8 5.8 0 0 0 5.6-3.9l19-52.1h54.8l19 52.1a5.8 5.8 0 0 0 5.6 3.9a5.2 5.2 0 0 0 2.1-.4a5.9 5.9 0 0 0 3.5-7.7ZM128.9 130H77.7l13-36H142Zm30.5-84l-13.1 36H95.1l13.1-36ZM60.2 178l13.1-36h51.2l-13.1 36Zm72.7-24L156 90.6l23.1 63.4Z"></path></svg>