<svg xmlns="http://www.w3.org/2000/svg" xmlns:xlink="http://www.w3.org/1999/xlink" aria-hidden="true" role="img" class="iconify iconify--ph" width="1em" height="1em" preserveAspectRatio="xMidYMid meet" viewBox="0 0 256 256"><path fill="currentColor" d="M219.3 211.9L168.8 73l7.6-21h7.6a12 12 0 0 0 0-24H88a12 12 0 0 0-12 12a11.9 11.9 0 0 0 10.9 11.9l-58.2 160a12.1 12.1 0 0 0 7.2 15.4a11.8 11.8 0 0 0 4.1.7a12 12 0 0 0 11.3-7.9L60 196h38.5l-5.8 15.9a12.1 12.1 0 0 0 7.2 15.4a11.8 11.8 0 0 0 4.1.7a12 12 0 0 0 11.3-7.9l17.5-48.1h46.4l17.5 48.1A12 12 0 0 0 208 228a11.8 11.8 0 0 0 4.1-.7a12.1 12.1 0 0 0 7.2-15.4ZM124.7 124H86.2l8.8-24h38.4Zm17.4-48h-38.4l8.7-24h38.5Zm-73.3 96l8.7-24H116l-8.8 24Zm72.7-24l14.5-39.9l14.5 39.9Z"></path></svg>