<svg xmlns="http://www.w3.org/2000/svg" xmlns:xlink="http://www.w3.org/1999/xlink" aria-hidden="true" role="img" class="iconify iconify--ph" width="1em" height="1em" preserveAspectRatio="xMidYMid meet" viewBox="0 0 256 256"><path fill="currentColor" d="m246.3 136.1l-41.2-96A20 20 0 0 0 186.7 28H69.3a20 20 0 0 0-18.4 12.1l-41.2 96A20 20 0 0 0 28.1 164H116v40H96a12 12 0 0 0 0 24h64a12 12 0 0 0 0-24h-20v-40h48v28a12 12 0 0 0 24 0v-28h15.9a20 20 0 0 0 18.4-27.9ZM34.2 140l37.7-88h112.2l37.7 88Z"></path></svg>