<svg xmlns="http://www.w3.org/2000/svg" xmlns:xlink="http://www.w3.org/1999/xlink" aria-hidden="true" role="img" class="iconify iconify--ph" width="1em" height="1em" preserveAspectRatio="xMidYMid meet" viewBox="0 0 256 256"><path fill="currentColor" d="m240.7 138.5l-41.1-96a14 14 0 0 0-12.9-8.5H69.3a14 14 0 0 0-12.9 8.5l-41.1 96a13.8 13.8 0 0 0 1.1 13.2a14.1 14.1 0 0 0 11.7 6.3H122v52H96a6 6 0 0 0 0 12h64a6 6 0 0 0 0-12h-26v-52h60v34a6 6 0 0 0 12 0v-34h21.9a14.1 14.1 0 0 0 11.7-6.3a13.8 13.8 0 0 0 1.1-13.2Zm-11.2 6.6a1.9 1.9 0 0 1-1.6.9H28.1a1.9 1.9 0 0 1-1.6-.9a1.7 1.7 0 0 1-.2-1.9l41.1-96a2.2 2.2 0 0 1 1.9-1.2h117.4a2.2 2.2 0 0 1 1.9 1.2l41.1 96a1.7 1.7 0 0 1-.2 1.9Z"></path></svg>