<svg xmlns="http://www.w3.org/2000/svg" xmlns:xlink="http://www.w3.org/1999/xlink" aria-hidden="true" role="img" class="iconify iconify--ph" width="1em" height="1em" preserveAspectRatio="xMidYMid meet" viewBox="0 0 256 256"><path fill="currentColor" d="M227.9 152H28.1a8 8 0 0 1-7.3-11.2l41.1-96a8.1 8.1 0 0 1 7.4-4.8h117.4a8.1 8.1 0 0 1 7.4 4.8l41.1 96a8 8 0 0 1-7.3 11.2Z" opacity=".2"></path><path fill="currentColor" d="m242.6 137.7l-41.2-96a15.9 15.9 0 0 0-14.7-9.7H69.3a15.9 15.9 0 0 0-14.7 9.7l-41.2 96A16.1 16.1 0 0 0 28.1 160H120v48H96a8 8 0 0 0 0 16h64a8 8 0 0 0 0-16h-24v-48h56v32a8 8 0 0 0 16 0v-32h19.9a16.1 16.1 0 0 0 14.7-22.3ZM28.1 144l41.2-96h117.4l41.2 96Z"></path></svg>