<svg xmlns="http://www.w3.org/2000/svg" xmlns:xlink="http://www.w3.org/1999/xlink" aria-hidden="true" role="img" class="iconify iconify--ph" width="1em" height="1em" preserveAspectRatio="xMidYMid meet" viewBox="0 0 256 256"><path fill="currentColor" d="m238.9 139.3l-41.1-96a12.2 12.2 0 0 0-11.1-7.3H69.3a12.2 12.2 0 0 0-11.1 7.3l-41.1 96a12 12 0 0 0 11 16.7H124v56H96a4 4 0 0 0 0 8h64a4 4 0 0 0 0-8h-28v-56h64v36a4 4 0 0 0 8 0v-36h23.9a12 12 0 0 0 11-16.7Zm-7.7 6.9a4 4 0 0 1-3.3 1.8H28.1a4 4 0 0 1-3.3-1.8a3.7 3.7 0 0 1-.3-3.8l41.1-96a4.1 4.1 0 0 1 3.7-2.4h117.4a4.1 4.1 0 0 1 3.7 2.4l41.1 96a3.7 3.7 0 0 1-.3 3.8Z"></path></svg>