<svg xmlns="http://www.w3.org/2000/svg" xmlns:xlink="http://www.w3.org/1999/xlink" aria-hidden="true" role="img" class="iconify iconify--ph" width="1em" height="1em" preserveAspectRatio="xMidYMid meet" viewBox="0 0 256 256"><path fill="currentColor" d="M241.2 152.8a15.8 15.8 0 0 1-13.3 7.2H208v32a8 8 0 0 1-16 0v-32h-56v48h24a8 8 0 0 1 0 16H96a8 8 0 0 1 0-16h24v-48H28.1a16.1 16.1 0 0 1-14.7-22.3l41.2-96A15.9 15.9 0 0 1 69.3 32h117.4a15.9 15.9 0 0 1 14.7 9.7l41.2 96a15.9 15.9 0 0 1-1.4 15.1Z"></path></svg>