<svg xmlns="http://www.w3.org/2000/svg" xmlns:xlink="http://www.w3.org/1999/xlink" aria-hidden="true" role="img" class="iconify iconify--ph" width="1em" height="1em" preserveAspectRatio="xMidYMid meet" viewBox="0 0 256 256"><path fill="currentColor" d="M232 168h-8V72a24.1 24.1 0 0 0-24-24H56a24.1 24.1 0 0 0-24 24v96h-8a8 8 0 0 0-8 8v16a24.1 24.1 0 0 0 24 24h176a24.1 24.1 0 0 0 24-24v-16a8 8 0 0 0-8-8ZM112 72h32a8 8 0 0 1 0 16h-32a8 8 0 0 1 0-16Zm112 120a8 8 0 0 1-8 8H40a8 8 0 0 1-8-8v-8h192Z"></path></svg>