<svg xmlns="http://www.w3.org/2000/svg" xmlns:xlink="http://www.w3.org/1999/xlink" aria-hidden="true" role="img" class="iconify iconify--ph" width="1em" height="1em" preserveAspectRatio="xMidYMid meet" viewBox="0 0 256 256"><path fill="currentColor" d="M232 172h-12V72a20.1 20.1 0 0 0-20-20H56a20.1 20.1 0 0 0-20 20v100H24a4 4 0 0 0-4 4v16a20.1 20.1 0 0 0 20 20h176a20.1 20.1 0 0 0 20-20v-16a4 4 0 0 0-4-4ZM44 72a12 12 0 0 1 12-12h144a12 12 0 0 1 12 12v100H44Zm184 120a12 12 0 0 1-12 12H40a12 12 0 0 1-12-12v-12h200ZM148 88a4 4 0 0 1-4 4h-32a4 4 0 0 1 0-8h32a4 4 0 0 1 4 4Z"></path></svg>