<svg xmlns="http://www.w3.org/2000/svg" xmlns:xlink="http://www.w3.org/1999/xlink" aria-hidden="true" role="img" class="iconify iconify--ph" width="1em" height="1em" preserveAspectRatio="xMidYMid meet" viewBox="0 0 256 256"><path fill="currentColor" d="M224 39.5a8.1 8.1 0 0 0-7.5-7.5C140.2 27.5 79.1 50.5 53 93.6a87.3 87.3 0 0 0-12.8 49.1c.6 15.9 5.2 32.1 13.8 48l-19.7 19.6a8.1 8.1 0 0 0 0 11.4a8.2 8.2 0 0 0 11.4 0L65.3 202c15.9 8.6 32.1 13.2 48 13.8h3.3a87 87 0 0 0 45.8-12.8c43.1-26.1 66.1-87.2 61.6-163.5Zm-69.8 149.8c-22.9 13.8-49.9 14-77 .8l88.5-88.4a8.1 8.1 0 0 0-11.4-11.4l-88.4 88.5c-13.2-27.1-13-54.1.8-77c22.1-36.5 74.8-56.5 141.7-54.2c2.3 66.9-17.7 119.6-54.2 141.7Z"></path></svg>