<svg xmlns="http://www.w3.org/2000/svg" xmlns:xlink="http://www.w3.org/1999/xlink" aria-hidden="true" role="img" class="iconify iconify--ph" width="1em" height="1em" preserveAspectRatio="xMidYMid meet" viewBox="0 0 256 256"><path fill="currentColor" d="M162.4 203a87 87 0 0 1-45.8 12.8h-3.3c-15.9-.6-32.1-5.2-48-13.8l100.4-100.3a8.1 8.1 0 0 0-11.4-11.4L54 190.7c-8.6-15.9-13.2-32.1-13.8-48A87.3 87.3 0 0 1 53 93.6C79.1 50.5 140.2 27.5 216.5 32a8.1 8.1 0 0 1 7.5 7.5c4.5 76.3-18.5 137.4-61.6 163.5Zm-105.3-6.9c-1.1-1.8-2.1-3.6-3.1-5.4l-19.7 19.6a8.1 8.1 0 0 0 0 11.4a8.2 8.2 0 0 0 11.4 0L65.3 202l-5.4-3.1a9.3 9.3 0 0 1-2.8-2.8Z"></path></svg>