<svg xmlns="http://www.w3.org/2000/svg" xmlns:xlink="http://www.w3.org/1999/xlink" aria-hidden="true" role="img" class="iconify iconify--ph" width="1em" height="1em" preserveAspectRatio="xMidYMid meet" viewBox="0 0 256 256"><path fill="currentColor" d="M222 39.6a6 6 0 0 0-5.6-5.6c-75.6-4.4-136 18.2-161.7 60.6c-17.5 28.8-16.8 62.9 1.8 96.4l-20.7 20.8a5.9 5.9 0 1 0 8.4 8.4L65 199.5c17.3 9.6 34.8 14.4 51.6 14.4a85.8 85.8 0 0 0 44.8-12.6c42.4-25.7 65-86.1 60.6-161.7ZM155.2 191c-24.1 14.6-52.8 14.4-81.3-.4l90.3-90.4a5.9 5.9 0 0 0-8.4-8.4l-90.4 90.3c-14.8-28.5-15-57.2-.4-81.3c22.7-37.5 76.8-57.9 145.3-55.1c2.8 68.5-17.6 122.6-55.1 145.3Z"></path></svg>