<svg xmlns="http://www.w3.org/2000/svg" xmlns:xlink="http://www.w3.org/1999/xlink" aria-hidden="true" role="img" class="iconify iconify--ph" width="1em" height="1em" preserveAspectRatio="xMidYMid meet" viewBox="0 0 256 256"><path fill="currentColor" d="M199 198.3a99.7 99.7 0 0 0 0-140.6l-.3-.4l-.4-.3a99.7 99.7 0 0 0-140.6 0l-.4.3l-.3.4a99.7 99.7 0 0 0 0 140.6l.3.4l.4.3a99.7 99.7 0 0 0 140.6 0l.4-.3Zm-3.2-8.2l-34-34a43.8 43.8 0 0 0 0-56.2l34-34a91.8 91.8 0 0 1 0 124.2ZM92 128a36 36 0 1 1 36 36a36 36 0 0 1-36-36Zm98.1-67.8l-34 34a43.8 43.8 0 0 0-56.2 0l-34-34a91.8 91.8 0 0 1 124.2 0ZM60.2 65.9l34 34a43.8 43.8 0 0 0 0 56.2l-34 34a91.8 91.8 0 0 1 0-124.2Zm5.7 129.9l34-34a43.8 43.8 0 0 0 56.2 0l34 34a91.8 91.8 0 0 1-124.2 0Z"></path></svg>