<svg xmlns="http://www.w3.org/2000/svg" xmlns:xlink="http://www.w3.org/1999/xlink" aria-hidden="true" role="img" class="iconify iconify--ph" width="1em" height="1em" preserveAspectRatio="xMidYMid meet" viewBox="0 0 256 256"><path fill="currentColor" d="m195.9 195.9l-39.6-39.6a40.1 40.1 0 0 0 0-56.6l39.6-39.6a96 96 0 0 1 0 135.8ZM60.1 60.1a96 96 0 0 0 0 135.8l39.6-39.6a40.1 40.1 0 0 1 0-56.6Z" opacity=".2"></path><path fill="currentColor" d="M202.2 200.8a103.8 103.8 0 0 0 0-145.6a2.3 2.3 0 0 0-.7-.7a2.3 2.3 0 0 0-.7-.7a103.8 103.8 0 0 0-145.6 0a2.3 2.3 0 0 0-.7.7a2.3 2.3 0 0 0-.7.7a103.8 103.8 0 0 0 0 145.6l.7.7a2.3 2.3 0 0 0 .7.7a103.8 103.8 0 0 0 145.6 0a2.3 2.3 0 0 0 .7-.7a2.3 2.3 0 0 0 .7-.7Zm-6.6-16.5l-28.5-28.5a47.9 47.9 0 0 0 0-55.6l28.5-28.5a87.9 87.9 0 0 1 0 112.6ZM96 128a32 32 0 1 1 32 32a32.1 32.1 0 0 1-32-32Zm88.3-67.6l-28.5 28.5a47.9 47.9 0 0 0-55.6 0L71.7 60.4a87.9 87.9 0 0 1 112.6 0ZM60.4 71.7l28.5 28.5a47.9 47.9 0 0 0 0 55.6l-28.5 28.5a87.9 87.9 0 0 1 0-112.6Zm11.3 123.9l28.5-28.5a47.9 47.9 0 0 0 55.6 0l28.5 28.5a87.9 87.9 0 0 1-112.6 0Z"></path></svg>