<svg xmlns="http://www.w3.org/2000/svg" xmlns:xlink="http://www.w3.org/1999/xlink" aria-hidden="true" role="img" class="iconify iconify--ph" width="1em" height="1em" preserveAspectRatio="xMidYMid meet" viewBox="0 0 256 256"><path fill="currentColor" d="m96 240l16-80l-64-24L160 16l-16 80l64 24L96 240z" opacity=".2"></path><path fill="currentColor" d="M53.9 34.6a8 8 0 0 0-11.3-.5a7.9 7.9 0 0 0-.5 11.3l39.2 43.2l-39.1 41.9a7.9 7.9 0 0 0-2 7.3a8.2 8.2 0 0 0 5 5.7l57.6 21.6l-14.6 73.3a8.1 8.1 0 0 0 4.1 8.7a8.4 8.4 0 0 0 3.7.9a7.7 7.7 0 0 0 5.8-2.6l61.9-66.2l38.4 42.2a8 8 0 0 0 5.9 2.6a8.2 8.2 0 0 0 5.4-2.1a7.9 7.9 0 0 0 .5-11.3Zm55.5 179.3l10.4-52.4a7.9 7.9 0 0 0-5-9L62 132.7l30.1-32.3l60.8 66.9ZM108.6 71a7.9 7.9 0 0 1-.3-11.3l45.9-49.2a8 8 0 0 1 13.6 7l-14.6 73.4l57.6 21.6a7.9 7.9 0 0 1 3 12.9l-22.3 23.9a7.9 7.9 0 0 1-11.3.4a8 8 0 0 1-.4-11.3l14.2-15.1l-52.8-19.8a7.9 7.9 0 0 1-5-9.1L146.6 42L120 70.6a8.2 8.2 0 0 1-11.4.4Z"></path></svg>