<svg xmlns="http://www.w3.org/2000/svg" xmlns:xlink="http://www.w3.org/1999/xlink" aria-hidden="true" role="img" class="iconify iconify--ph" width="1em" height="1em" preserveAspectRatio="xMidYMid meet" viewBox="0 0 256 256"><path fill="currentColor" d="M174 232a6 6 0 0 1-6 6H88a6 6 0 0 1 0-12h80a6 6 0 0 1 6 6Zm40-128a85.4 85.4 0 0 1-32.9 67.6A18.4 18.4 0 0 0 174 186v6a14 14 0 0 1-14 14H96a14 14 0 0 1-14-14v-6a18.2 18.2 0 0 0-7-14.3a85.4 85.4 0 0 1-33-67.2c-.3-46.6 37.4-85.4 83.9-86.5a86.1 86.1 0 0 1 88.1 86Zm-12 0a74.1 74.1 0 0 0-75.8-74c-40 1-72.4 34.3-72.2 74.4a73.7 73.7 0 0 0 28.4 57.9A29.9 29.9 0 0 1 94 186v6a2 2 0 0 0 2 2h26v-47.5l-30.2-30.3a5.9 5.9 0 0 1 8.4-8.4l27.8 27.7l27.8-27.7a5.9 5.9 0 0 1 8.4 8.4L134 146.5V194h26a2 2 0 0 0 2-2v-6a30.3 30.3 0 0 1 11.7-23.8A73.6 73.6 0 0 0 202 104Z"></path></svg>