<svg xmlns="http://www.w3.org/2000/svg" xmlns:xlink="http://www.w3.org/1999/xlink" aria-hidden="true" role="img" class="iconify iconify--ph" width="1em" height="1em" preserveAspectRatio="xMidYMid meet" viewBox="0 0 256 256"><path fill="currentColor" d="M52.4 36a5.9 5.9 0 0 0-8.8 8L84 88.6l-40.4 43.3a5.6 5.6 0 0 0-1.4 5.4a5.8 5.8 0 0 0 3.7 4.3l59.2 22.2l-15 75a6 6 0 0 0 3.2 6.5a5.2 5.2 0 0 0 2.7.7a6.3 6.3 0 0 0 4.4-1.9l63.3-67.9l39.9 43.8a5.9 5.9 0 0 0 4.4 2a5.7 5.7 0 0 0 4-1.6a5.8 5.8 0 0 0 .4-8.4ZM106 220.4l11.9-59.2a5.9 5.9 0 0 0-3.8-6.8l-55.6-20.9l33.6-36l63.5 69.8Zm4-150.9a6 6 0 0 1-.3-8.4l45.9-49.2a6 6 0 0 1 7.1-1.3a6.2 6.2 0 0 1 3.2 6.6l-15 74.9l59.2 22.3a6 6 0 0 1 2.3 9.7L190.1 148a6.3 6.3 0 0 1-4.4 1.9a5.7 5.7 0 0 1-4.1-1.6a6 6 0 0 1-.3-8.5l16.2-17.4l-55.6-20.8a5.9 5.9 0 0 1-3.8-6.8L150 35.5l-31.5 33.7a5.9 5.9 0 0 1-8.5.3Z"></path></svg>