<svg xmlns="http://www.w3.org/2000/svg" xmlns:xlink="http://www.w3.org/1999/xlink" aria-hidden="true" role="img" class="iconify iconify--ph" width="1em" height="1em" preserveAspectRatio="xMidYMid meet" viewBox="0 0 256 256"><path fill="currentColor" d="M180 232a12 12 0 0 1-12 12H88a12 12 0 0 1 0-24h80a12 12 0 0 1 12 12Zm40-128a92.3 92.3 0 0 1-37 73.7a8 8 0 0 0-3 6.3a20.1 20.1 0 0 1-20 20H96a20.1 20.1 0 0 1-20-20v-.2a7.8 7.8 0 0 0-3.2-6.2A91.6 91.6 0 0 1 36 104.5c-.3-49.8 40-91.3 89.8-92.5a92 92 0 0 1 94.2 92Zm-24 0a68 68 0 0 0-69.6-68c-36.8.9-66.6 31.6-66.4 68.4a67.4 67.4 0 0 0 27.2 54A32.3 32.3 0 0 1 99.8 180H116v-31l-28.5-28.5a12 12 0 0 1 17-17L128 127l23.5-23.5a12 12 0 0 1 17 17L140 149v31h16.3a31.4 31.4 0 0 1 12.4-21.5A67.6 67.6 0 0 0 196 104Z"></path></svg>