<svg xmlns="http://www.w3.org/2000/svg" xmlns:xlink="http://www.w3.org/1999/xlink" aria-hidden="true" role="img" class="iconify iconify--ph" width="1em" height="1em" preserveAspectRatio="xMidYMid meet" viewBox="0 0 256 256"><path fill="currentColor" d="M51 37.3a4 4 0 1 0-6 5.4l41.8 45.9l-41.7 44.6a4.2 4.2 0 0 0-1 3.7a3.7 3.7 0 0 0 2.5 2.8l60.8 22.8l-15.3 76.7a3.9 3.9 0 0 0 2.1 4.3a3.7 3.7 0 0 0 4.7-.8l64.8-69.4l41.3 45.4a4.1 4.1 0 0 0 5.7.3a4.2 4.2 0 0 0 .3-5.7ZM102.7 227l13.2-66.2a4.1 4.1 0 0 0-2.5-4.6L55 134.3l37.2-39.8l66.1 72.8Zm8.7-158.9a4.1 4.1 0 0 1-.2-5.7l45.9-49.2a4 4 0 0 1 6.8 3.6l-15.3 76.6l60.8 22.8a4.1 4.1 0 0 1 2.5 2.9a4 4 0 0 1-1 3.6l-22.3 23.9a3.7 3.7 0 0 1-2.9 1.3a4 4 0 0 1-2.9-6.7l18.2-19.6l-58.4-21.9a4 4 0 0 1-2.5-4.5L153.3 29L117 67.9a4 4 0 0 1-5.6.2Z"></path></svg>