<svg xmlns="http://www.w3.org/2000/svg" xmlns:xlink="http://www.w3.org/1999/xlink" aria-hidden="true" role="img" class="iconify iconify--ph" width="1em" height="1em" preserveAspectRatio="xMidYMid meet" viewBox="0 0 256 256"><path fill="currentColor" d="M208 104a79.9 79.9 0 0 1-30.6 62.9A24.2 24.2 0 0 0 168 186v6a8 8 0 0 1-8 8H96a8 8 0 0 1-8-8v-6a24.4 24.4 0 0 0-9.3-19A79.5 79.5 0 0 1 48 104.5C47.8 61.1 82.7 25 126.1 24a80.1 80.1 0 0 1 81.9 80Z" opacity=".2"></path><path fill="currentColor" d="M176 232a8 8 0 0 1-8 8H88a8 8 0 0 1 0-16h80a8 8 0 0 1 8 8Zm40-128a87.7 87.7 0 0 1-33.6 69.2A16.1 16.1 0 0 0 176 186v6a16 16 0 0 1-16 16H96a16 16 0 0 1-16-16v-6a16.2 16.2 0 0 0-6.2-12.7A87.8 87.8 0 0 1 40 104.5c-.3-47.7 38.3-87.4 85.9-88.5a87.9 87.9 0 0 1 90.1 88Zm-16 0a72.1 72.1 0 0 0-73.7-72c-39 .9-70.5 33.4-70.3 72.4a71.7 71.7 0 0 0 27.6 56.3A32 32 0 0 1 96 186v6h64v-6a32.1 32.1 0 0 1 12.5-25.4A71.5 71.5 0 0 0 200 104Zm-16.8-9.4a55.8 55.8 0 0 0-45.8-45.7a8 8 0 1 0-2.6 15.8a39.7 39.7 0 0 1 32.6 32.6a8 8 0 0 0 7.9 6.6h1.4a7.9 7.9 0 0 0 6.5-9.3Z"></path></svg>