<svg xmlns="http://www.w3.org/2000/svg" xmlns:xlink="http://www.w3.org/1999/xlink" aria-hidden="true" role="img" class="iconify iconify--ph" width="1em" height="1em" preserveAspectRatio="xMidYMid meet" viewBox="0 0 256 256"><path fill="currentColor" d="M56.9 31.9a12 12 0 0 0-17.8 16.2l36.8 40.4l-36.7 39.3a12.1 12.1 0 0 0-2.9 10.9a11.9 11.9 0 0 0 7.5 8.5l54.4 20.4l-14 70a12.1 12.1 0 0 0 6.3 13.1A13.4 13.4 0 0 0 96 252a12.2 12.2 0 0 0 8.8-3.8l58.9-63.1l35.4 39a12.1 12.1 0 0 0 17 .8a12.1 12.1 0 0 0 .8-17Zm59.2 169l7.7-38.6a12.2 12.2 0 0 0-7.6-13.6L69 131l23.1-24.7l55.4 61Zm-4.7-132.8a12 12 0 0 1-.6-17l40.4-43.3a12.2 12.2 0 0 1 14.3-2.5a12.1 12.1 0 0 1 6.3 13l-14 70l54.4 20.4a11.9 11.9 0 0 1 7.5 8.5a12.3 12.3 0 0 1-2.9 11l-16.9 18a11.8 11.8 0 0 1-8.7 3.8a12 12 0 0 1-8.8-20.2l4.6-4.9l-47.2-17.7a12.1 12.1 0 0 1-7.6-13.6l7.7-38.6l-11.5 12.5a12.1 12.1 0 0 1-17 .6Z"></path></svg>