<svg xmlns="http://www.w3.org/2000/svg" xmlns:xlink="http://www.w3.org/1999/xlink" aria-hidden="true" role="img" class="iconify iconify--ph" width="1em" height="1em" preserveAspectRatio="xMidYMid meet" viewBox="0 0 256 256"><path fill="currentColor" d="M96 244a4.1 4.1 0 0 1-1.8-.5a3.9 3.9 0 0 1-2.1-4.3l15.3-76.7l-60.8-22.8a3.7 3.7 0 0 1-2.5-2.8a4.2 4.2 0 0 1 1-3.7l112-120a4 4 0 0 1 6.8 3.6l-15.3 76.6l60.8 22.8a4.1 4.1 0 0 1 2.5 2.9a4 4 0 0 1-1 3.6l-112 120A4.1 4.1 0 0 1 96 244ZM55 134.3l58.4 21.9a4.1 4.1 0 0 1 2.5 4.6L102.7 227L201 121.6l-58.4-21.9a4 4 0 0 1-2.5-4.5L153.3 29Z"></path></svg>