<svg xmlns="http://www.w3.org/2000/svg" xmlns:xlink="http://www.w3.org/1999/xlink" aria-hidden="true" role="img" class="iconify iconify--ph" width="1em" height="1em" preserveAspectRatio="xMidYMid meet" viewBox="0 0 256 256"><path fill="currentColor" d="M176 232a8 8 0 0 1-8 8H88a8 8 0 0 1 0-16h80a8 8 0 0 1 8 8Zm40-128a87.7 87.7 0 0 1-33.6 69.2A16.1 16.1 0 0 0 176 186v6a16 16 0 0 1-16 16H96a16 16 0 0 1-16-16v-6a16.2 16.2 0 0 0-6.2-12.7A87.8 87.8 0 0 1 40 104.5c-.3-47.7 38.3-87.4 85.9-88.5a87.9 87.9 0 0 1 90.1 88Zm-32.8-9.4a55.8 55.8 0 0 0-45.8-45.7a8 8 0 1 0-2.6 15.8a39.7 39.7 0 0 1 32.6 32.6a8 8 0 0 0 7.9 6.6h1.4a7.9 7.9 0 0 0 6.5-9.3Z"></path></svg>