<svg xmlns="http://www.w3.org/2000/svg" xmlns:xlink="http://www.w3.org/1999/xlink" aria-hidden="true" role="img" class="iconify iconify--ph" width="1em" height="1em" preserveAspectRatio="xMidYMid meet" viewBox="0 0 256 256"><path fill="currentColor" d="M213.9 210.6a7.9 7.9 0 0 1-.5 11.3a8.2 8.2 0 0 1-5.4 2.1a8 8 0 0 1-5.9-2.6l-38.4-42.2l-61.9 66.2A7.7 7.7 0 0 1 96 248a8.4 8.4 0 0 1-3.7-.9a8.1 8.1 0 0 1-4.1-8.7l14.6-73.3l-57.6-21.6a8.2 8.2 0 0 1-5-5.7a7.9 7.9 0 0 1 2-7.3l39.1-41.9l-39.2-43.2a7.9 7.9 0 0 1 .5-11.3a8 8 0 0 1 11.3.5Zm-34.1-61.3a8 8 0 0 0 5.8 2.6h.1a7.7 7.7 0 0 0 5.8-2.6l22.3-23.9a7.9 7.9 0 0 0-3-12.9l-57.6-21.6l14.6-73.4a8 8 0 0 0-13.6-7l-45.9 49.2a7.9 7.9 0 0 0-.1 10.8Z"></path></svg>