<svg xmlns="http://www.w3.org/2000/svg" xmlns:xlink="http://www.w3.org/1999/xlink" aria-hidden="true" role="img" class="iconify iconify--ph" width="1em" height="1em" preserveAspectRatio="xMidYMid meet" viewBox="0 0 256 256"><path fill="currentColor" d="M57 183a24 24 0 0 1-34 34a24 24 0 0 1 34-34ZM79 79a24 24 0 1 0 34 0a24.2 24.2 0 0 0-34 0Zm64 64a24 24 0 1 0 34 0a24.2 24.2 0 0 0-34 0Zm90-104a24 24 0 1 0 0 34a24.2 24.2 0 0 0 0-34Z" opacity=".2"></path><path fill="currentColor" d="M238.6 33.4a31.9 31.9 0 0 0-45.2 0a31.9 31.9 0 0 0 0 45.2l.9.9l-26.7 49.4a32.4 32.4 0 0 0-23.9 3.5l-20.1-20.1a32 32 0 0 0-50.2-38.9a31.9 31.9 0 0 0 0 45.2l.9.9l-26.7 49.4a32.1 32.1 0 0 0-30.2 8.5a31.9 31.9 0 0 0 0 45.2a31.9 31.9 0 0 0 45.2 0a31.9 31.9 0 0 0 0-45.2l-.9-.9l26.7-49.4a32.2 32.2 0 0 0 7.6.9a32.7 32.7 0 0 0 16.3-4.4l20.1 20.1a32 32 0 0 0 5 38.9a31.9 31.9 0 0 0 45.2 0a31.9 31.9 0 0 0 0-45.2l-.9-.9l26.7-49.4a32.2 32.2 0 0 0 7.6.9a31.6 31.6 0 0 0 22.6-9.4a31.9 31.9 0 0 0 0-45.2ZM51.3 211.3a16 16 0 0 1-22.6-22.6a16 16 0 0 1 22.6 22.6Zm33.4-104a15.9 15.9 0 0 1 0-22.6a16 16 0 1 1 0 22.6Zm86.6 64a16 16 0 0 1-22.6-22.6a16 16 0 0 1 22.6 22.6Zm56-104a16 16 0 0 1-22.6-22.6a16 16 0 1 1 22.6 22.6Z"></path></svg>