<svg xmlns="http://www.w3.org/2000/svg" xmlns:xlink="http://www.w3.org/1999/xlink" aria-hidden="true" role="img" class="iconify iconify--ph" width="1em" height="1em" preserveAspectRatio="xMidYMid meet" viewBox="0 0 256 256"><path fill="currentColor" d="M213.2 42.8A30 30 0 0 0 167 80.5L80.5 167a29.9 29.9 0 0 0-37.7 3.8a30 30 0 0 0 0 42.4a29.9 29.9 0 0 0 42.4 0a29.9 29.9 0 0 0 3.8-37.7L175.5 89a30 30 0 0 0 37.7-46.2ZM76.7 204.7a18 18 0 0 1-25.4-25.4a18 18 0 1 1 25.4 25.4Zm128-128a18 18 0 0 1-25.4 0a18 18 0 1 1 25.4 0Z"></path></svg>