<svg xmlns="http://www.w3.org/2000/svg" xmlns:xlink="http://www.w3.org/1999/xlink" aria-hidden="true" role="img" class="iconify iconify--ph" width="1em" height="1em" preserveAspectRatio="xMidYMid meet" viewBox="0 0 256 256"><path fill="currentColor" d="M235.8 36.2a28.1 28.1 0 0 0-39.6 0a28.1 28.1 0 0 0 0 39.6a26.1 26.1 0 0 0 3.1 2.7l-29.7 55.2a27.9 27.9 0 0 0-26.4 3.9l-24.8-24.8a28 28 0 0 0-42.2-36.6a28.1 28.1 0 0 0 0 39.6a26.1 26.1 0 0 0 3.1 2.7l-29.7 55.2a28.1 28.1 0 0 0-29.4 6.5a28.1 28.1 0 0 0 0 39.6a28 28 0 0 0 39.6 0a28.1 28.1 0 0 0 0-39.6a26.1 26.1 0 0 0-3.1-2.7l29.7-55.2A28.5 28.5 0 0 0 96 124a28.3 28.3 0 0 0 16.8-5.6l24.8 24.8a28 28 0 1 0 42.2-3a26.1 26.1 0 0 0-3.1-2.7l29.7-55.2A28.5 28.5 0 0 0 216 84a27.8 27.8 0 0 0 19.8-8.2a28.1 28.1 0 0 0 0-39.6ZM54.1 214.1a19.9 19.9 0 0 1-28.2-28.2a19.9 19.9 0 0 1 28.2 28.2Zm27.8-104a19.9 19.9 0 0 1 0-28.2a19.9 19.9 0 0 1 28.2 28.2a19.9 19.9 0 0 1-28.2 0Zm92.2 64a19.9 19.9 0 0 1-28.2-28.2a19.9 19.9 0 0 1 28.2 28.2Zm56-104a19.9 19.9 0 0 1-28.2-28.2a19.9 19.9 0 0 1 28.2 28.2Z"></path></svg>