<svg xmlns="http://www.w3.org/2000/svg" xmlns:xlink="http://www.w3.org/1999/xlink" aria-hidden="true" role="img" class="iconify iconify--ph" width="1em" height="1em" preserveAspectRatio="xMidYMid meet" viewBox="0 0 256 256"><path fill="currentColor" d="M214.6 41.4a32 32 0 0 0-50.2 38.9l-84.1 84.1a32 32 0 0 0-38.9 5a31.9 31.9 0 0 0 0 45.2a31.9 31.9 0 0 0 45.2 0a32 32 0 0 0 5-38.9l84.1-84.1A32.7 32.7 0 0 0 192 96a31.6 31.6 0 0 0 22.6-9.4a31.9 31.9 0 0 0 0-45.2ZM75.3 203.3a16 16 0 0 1-22.6-22.6a15.9 15.9 0 0 1 22.6 0a15.9 15.9 0 0 1 0 22.6Zm128-128a15.9 15.9 0 0 1-22.6 0a16 16 0 1 1 22.6 0Z"></path></svg>