<svg xmlns="http://www.w3.org/2000/svg" xmlns:xlink="http://www.w3.org/1999/xlink" aria-hidden="true" role="img" class="iconify iconify--ph" width="1em" height="1em" preserveAspectRatio="xMidYMid meet" viewBox="0 0 256 256"><path fill="currentColor" d="M238.6 78.6A31.6 31.6 0 0 1 216 88a32.2 32.2 0 0 1-7.6-.9l-26.7 49.4l.9.9a31.9 31.9 0 0 1 0 45.2a31.9 31.9 0 0 1-45.2 0a32 32 0 0 1-5-38.9l-20.1-20.1A32.7 32.7 0 0 1 96 128a32.2 32.2 0 0 1-7.6-.9l-26.7 49.4l.9.9a31.9 31.9 0 0 1 0 45.2a31.9 31.9 0 0 1-45.2 0a31.9 31.9 0 0 1 0-45.2a32.1 32.1 0 0 1 30.2-8.5l26.7-49.4l-.9-.9a31.9 31.9 0 0 1 0-45.2a32 32 0 0 1 50.2 38.9l20.1 20.1a32.4 32.4 0 0 1 23.9-3.5l26.7-49.4l-.9-.9a31.9 31.9 0 0 1 0-45.2a32 32 0 0 1 45.2 45.2Z"></path></svg>