<svg xmlns="http://www.w3.org/2000/svg" xmlns:xlink="http://www.w3.org/1999/xlink" aria-hidden="true" role="img" class="iconify iconify--ph" width="1em" height="1em" preserveAspectRatio="xMidYMid meet" viewBox="0 0 256 256"><path fill="currentColor" d="M211.8 44.2a28 28 0 0 0-42.2 36.6l-88.8 88.8a28 28 0 0 0-36.6 2.6a28.1 28.1 0 0 0 0 39.6a28 28 0 0 0 42.2-36.6l88.8-88.8A28.3 28.3 0 0 0 192 92a27.8 27.8 0 0 0 19.8-8.2a28.1 28.1 0 0 0 0-39.6ZM78.1 206.1a19.9 19.9 0 0 1-28.2-28.2a19.9 19.9 0 1 1 28.2 28.2Zm128-128a19.9 19.9 0 0 1-28.2 0a19.9 19.9 0 1 1 28.2 0Z"></path></svg>