<svg xmlns="http://www.w3.org/2000/svg" xmlns:xlink="http://www.w3.org/1999/xlink" aria-hidden="true" role="img" class="iconify iconify--ph" width="1em" height="1em" preserveAspectRatio="xMidYMid meet" viewBox="0 0 256 256"><path fill="currentColor" d="M237.2 34.8a30 30 0 0 0-42.4 0a30 30 0 0 0 0 42.4a11.2 11.2 0 0 0 2 1.8l-28.2 52.3a29.9 29.9 0 0 0-25.1 3.7L121 112.5a30 30 0 0 0-46.2-37.7a30 30 0 0 0 0 42.4a11.2 11.2 0 0 0 2 1.8l-28.2 52.3a29.8 29.8 0 0 0-29.8 7.5a30 30 0 0 0 0 42.4a29.9 29.9 0 0 0 42.4 0a30 30 0 0 0 0-42.4a11.2 11.2 0 0 0-2-1.8l28.2-52.3A28 28 0 0 0 96 126a29.9 29.9 0 0 0 16.5-5l22.5 22.5a29.9 29.9 0 0 0 3.8 37.7a29.9 29.9 0 0 0 42.4 0a30 30 0 0 0 0-42.4a11.2 11.2 0 0 0-2-1.8l28.2-52.3A28 28 0 0 0 216 86a29.6 29.6 0 0 0 21.2-8.8a30 30 0 0 0 0-42.4ZM52.7 212.7a18 18 0 0 1-25.4-25.4a18 18 0 0 1 25.4 25.4Zm30.6-104a18 18 0 0 1 0-25.4a18 18 0 1 1 0 25.4Zm89.4 64a18 18 0 0 1-25.4-25.4a18 18 0 0 1 25.4 25.4Zm56-104a18 18 0 0 1-25.4-25.4a18 18 0 0 1 25.4 25.4Z"></path></svg>