<svg xmlns="http://www.w3.org/2000/svg" xmlns:xlink="http://www.w3.org/1999/xlink" aria-hidden="true" role="img" class="iconify iconify--ph" width="1em" height="1em" preserveAspectRatio="xMidYMid meet" viewBox="0 0 256 256"><path fill="currentColor" d="M84 68V48a12 12 0 0 1 24 0v20a12 12 0 0 1-24 0Zm76 108a12 12 0 0 0-12 12v20a12 12 0 0 0 24 0v-20a12 12 0 0 0-12-12ZM48 108h20a12 12 0 0 0 0-24H48a12 12 0 0 0 0 24Zm160 40h-20a12 12 0 0 0 0 24h20a12 12 0 0 0 0-24Zm-92.9 32.5l-7.3 7.3a28 28 0 0 1-39.6-39.6l7.3-7.3a12 12 0 0 0-17-17l-7.3 7.3a52 52 0 0 0 73.6 73.6l7.3-7.3a12 12 0 0 0-17-17Zm72.7-112.3a28.1 28.1 0 0 1 0 39.6l-7.3 7.3a12 12 0 0 0 8.5 20.5a12.4 12.4 0 0 0 8.5-3.5l7.3-7.3a52 52 0 0 0-73.6-73.6l-7.3 7.3a12 12 0 0 0 17 17l7.3-7.3a28.1 28.1 0 0 1 39.6 0Z"></path></svg>