<svg xmlns="http://www.w3.org/2000/svg" xmlns:xlink="http://www.w3.org/1999/xlink" aria-hidden="true" role="img" class="iconify iconify--ph" width="1em" height="1em" preserveAspectRatio="xMidYMid meet" viewBox="0 0 256 256"><path fill="currentColor" d="M96 80a8 8 0 1 1-8-8a8 8 0 0 1 8 8Zm-8 28a4 4 0 0 0-4 4v64a4 4 0 0 0 8 0v-64a4 4 0 0 0-4-4Zm60 0a31.8 31.8 0 0 0-24 10.9V112a4 4 0 0 0-8 0v64a4 4 0 0 0 8 0v-36a24 24 0 0 1 48 0v36a4 4 0 0 0 8 0v-36a32.1 32.1 0 0 0-32-32Zm76-64v168a12 12 0 0 1-12 12H44a12 12 0 0 1-12-12V44a12 12 0 0 1 12-12h168a12 12 0 0 1 12 12Zm-8 0a4 4 0 0 0-4-4H44a4 4 0 0 0-4 4v168a4 4 0 0 0 4 4h168a4 4 0 0 0 4-4Z"></path></svg>