<svg xmlns="http://www.w3.org/2000/svg" xmlns:xlink="http://www.w3.org/1999/xlink" aria-hidden="true" role="img" class="iconify iconify--ph" width="1em" height="1em" preserveAspectRatio="xMidYMid meet" viewBox="0 0 256 256"><path fill="currentColor" d="M149.2 174.7a6.1 6.1 0 0 1 0 8.5l-28.3 28.2a54 54 0 0 1-76.3-76.3l28.2-28.3a6 6 0 0 1 8.5 8.5L53 143.6a42 42 0 0 0 59.4 59.4l28.3-28.3a5.9 5.9 0 0 1 8.5 0Zm62.2-130.1a53.9 53.9 0 0 0-76.3 0l-28.3 28.2a6 6 0 0 0 8.5 8.5L143.6 53a42 42 0 1 1 59.4 59.4l-28.3 28.3a5.9 5.9 0 0 0 0 8.5a5.8 5.8 0 0 0 4.2 1.8a6.1 6.1 0 0 0 4.3-1.8l28.2-28.3a53.9 53.9 0 0 0 0-76.3Z"></path></svg>