<svg xmlns="http://www.w3.org/2000/svg" xmlns:xlink="http://www.w3.org/1999/xlink" aria-hidden="true" role="img" class="iconify iconify--ph" width="1em" height="1em" preserveAspectRatio="xMidYMid meet" viewBox="0 0 256 256"><path fill="currentColor" d="M150.6 173.3a8 8 0 0 1 0 11.3l-28.3 28.3a56 56 0 0 1-79.2-79.2l28.3-28.3a8 8 0 0 1 11.3 11.3L54.5 145a40 40 0 0 0 0 56.5a39.7 39.7 0 0 0 56.5 0l28.3-28.2a7.9 7.9 0 0 1 11.3 0Zm62.3-130.2a56 56 0 0 0-79.2 0l-28.3 28.3a8 8 0 0 0 11.3 11.3L145 54.5a39.7 39.7 0 0 1 56.5 0a40 40 0 0 1 0 56.5l-28.2 28.3a7.9 7.9 0 0 0 0 11.3a7.7 7.7 0 0 0 5.6 2.4a8 8 0 0 0 5.7-2.4l28.3-28.3a56.1 56.1 0 0 0 0-79.2Z"></path></svg>