<svg xmlns="http://www.w3.org/2000/svg" xmlns:xlink="http://www.w3.org/1999/xlink" aria-hidden="true" role="img" class="iconify iconify--ph" width="1em" height="1em" preserveAspectRatio="xMidYMid meet" viewBox="0 0 256 256"><path fill="currentColor" d="M94 112v64a6 6 0 0 1-12 0v-64a6 6 0 0 1 12 0Zm-6-42a10 10 0 1 0 10 10a10 10 0 0 0-10-10Zm138-26v168a14 14 0 0 1-14 14H44a14 14 0 0 1-14-14V44a14 14 0 0 1 14-14h168a14 14 0 0 1 14 14Zm-12 0a2 2 0 0 0-2-2H44a2 2 0 0 0-2 2v168a2 2 0 0 0 2 2h168a2 2 0 0 0 2-2Zm-66 62a34 34 0 0 0-22 8.1V112a6 6 0 0 0-12 0v64a6 6 0 0 0 12 0v-36a22 22 0 0 1 44 0v36a6 6 0 0 0 12 0v-36a34.1 34.1 0 0 0-34-34Z"></path></svg>