<svg xmlns="http://www.w3.org/2000/svg" xmlns:xlink="http://www.w3.org/1999/xlink" aria-hidden="true" role="img" class="iconify iconify--ph" width="1em" height="1em" preserveAspectRatio="xMidYMid meet" viewBox="0 0 256 256"><path fill="currentColor" d="M92 72V48a4 4 0 0 1 8 0v24a4 4 0 0 1-8 0Zm68 108a4 4 0 0 0-4 4v24a4 4 0 0 0 8 0v-24a4 4 0 0 0-4-4ZM48 100h24a4 4 0 0 0 0-8H48a4 4 0 0 0 0 8Zm160 56h-24a4 4 0 0 0 0 8h24a4 4 0 0 0 0-8Zm-83.2 26.1l-11.3 11.4a36.1 36.1 0 0 1-51-51l11.4-11.3a4 4 0 0 0 0-5.6a4 4 0 0 0-5.7 0l-11.3 11.3a44 44 0 1 0 62.2 62.2l11.3-11.3a4 4 0 0 0 0-5.7a4 4 0 0 0-5.6 0Zm68.7-68.6l-11.4 11.3a4 4 0 0 0 0 5.6a4 4 0 0 0 2.9 1.2a3.9 3.9 0 0 0 2.8-1.2l11.3-11.3a44 44 0 0 0-62.2-62.2l-11.3 11.3a4 4 0 0 0 0 5.7a4 4 0 0 0 5.6 0l11.3-11.4a36.1 36.1 0 0 1 51 51Z"></path></svg>