<svg xmlns="http://www.w3.org/2000/svg" xmlns:xlink="http://www.w3.org/1999/xlink" aria-hidden="true" role="img" class="iconify iconify--ph" width="1em" height="1em" preserveAspectRatio="xMidYMid meet" viewBox="0 0 256 256"><path fill="currentColor" d="M164.8 91.2a4.2 4.2 0 0 1 0 5.7l-67.9 67.9a4.3 4.3 0 0 1-2.8 1.1a4.4 4.4 0 0 1-2.9-1.1a4.2 4.2 0 0 1 0-5.7l67.9-67.9a4.2 4.2 0 0 1 5.7 0Zm-22.7 84.9l-28.2 28.3a44.1 44.1 0 0 1-62.3-62.3l28.3-28.2a4 4 0 0 0 0-5.7a3.9 3.9 0 0 0-5.6 0L46 136.5a52 52 0 0 0 0 73.5a52 52 0 0 0 73.5 0l28.3-28.3a3.9 3.9 0 0 0 0-5.6a4 4 0 0 0-5.7 0ZM210 46a52 52 0 0 0-73.5 0l-28.3 28.3a3.9 3.9 0 0 0 0 5.6a4 4 0 0 0 5.7 0l28.2-28.3a44.1 44.1 0 0 1 62.3 62.3l-28.3 28.2a4.1 4.1 0 0 0 2.8 6.9a3.8 3.8 0 0 0 2.8-1.2l28.3-28.3a52 52 0 0 0 0-73.5Z"></path></svg>