<svg xmlns="http://www.w3.org/2000/svg" xmlns:xlink="http://www.w3.org/1999/xlink" aria-hidden="true" role="img" class="iconify iconify--ph" width="1em" height="1em" preserveAspectRatio="xMidYMid meet" viewBox="0 0 256 256"><path fill="currentColor" d="M153.4 170.4a12 12 0 0 1 0 17l-28.2 28.3a60 60 0 1 1-84.9-84.9l28.3-28.3a12.2 12.2 0 0 1 17 0a12 12 0 0 1 0 17l-28.3 28.3a36 36 0 0 0 50.9 50.9l28.3-28.3a11.9 11.9 0 0 1 16.9 0Zm62.3-130.1a60.1 60.1 0 0 0-84.9 0l-28.3 28.3a12.2 12.2 0 0 0 0 17a12 12 0 0 0 17 0l28.3-28.3a36 36 0 1 1 50.9 50.9l-28.3 28.3a12.1 12.1 0 0 0 8.5 20.5a11.7 11.7 0 0 0 8.5-3.6l28.3-28.2a60 60 0 0 0 0-84.9Z"></path></svg>