<svg xmlns="http://www.w3.org/2000/svg" xmlns:xlink="http://www.w3.org/1999/xlink" aria-hidden="true" role="img" class="iconify iconify--ph" width="1em" height="1em" preserveAspectRatio="xMidYMid meet" viewBox="0 0 256 256"><path fill="currentColor" d="M207.2 116.7L178.9 145a48.2 48.2 0 0 1-67.9 0a4 4 0 1 1 5.7-5.7a40.1 40.1 0 0 0 56.6 0l28.2-28.3a40 40 0 0 0 0-56.5a39.7 39.7 0 0 0-56.5 0l-19.8 19.8a4 4 0 0 1-5.7-5.7l19.8-19.8a48 48 0 0 1 67.9 67.9Zm-76.4 65L111 201.5A40 40 0 0 1 54.5 145l28.2-28.3a40.1 40.1 0 0 1 56.6 0a4 4 0 0 0 5.7-5.7a48.1 48.1 0 0 0-67.9 0l-28.3 28.3a48.1 48.1 0 0 0 0 67.9a47.9 47.9 0 0 0 67.9 0l19.8-19.8a4 4 0 0 0-5.7-5.7Z"></path></svg>