<svg xmlns="http://www.w3.org/2000/svg" xmlns:xlink="http://www.w3.org/1999/xlink" aria-hidden="true" role="img" class="iconify iconify--ph" width="1em" height="1em" preserveAspectRatio="xMidYMid meet" viewBox="0 0 256 256"><path fill="currentColor" d="M88 72V48a8 8 0 0 1 16 0v24a8 8 0 0 1-16 0Zm72 104a8 8 0 0 0-8 8v24a8 8 0 0 0 16 0v-24a8 8 0 0 0-8-8ZM48 104h24a8 8 0 0 0 0-16H48a8 8 0 0 0 0 16Zm160 48h-24a8 8 0 0 0 0 16h24a8 8 0 0 0 0-16Zm-86.1 27.3l-11.3 11.3a32 32 0 0 1-45.2-45.2l11.3-11.3a8.1 8.1 0 0 0 0-11.4a8 8 0 0 0-11.3 0l-11.3 11.4a47.9 47.9 0 1 0 67.8 67.8l11.4-11.3a8 8 0 0 0 0-11.3a8.1 8.1 0 0 0-11.4 0Zm68.7-113.9a31.9 31.9 0 0 1 0 45.2l-11.3 11.3a8.1 8.1 0 0 0 0 11.4a8.3 8.3 0 0 0 5.7 2.3a8 8 0 0 0 5.6-2.3l11.3-11.4a47.9 47.9 0 0 0-67.8-67.8l-11.4 11.3a8 8 0 0 0 0 11.3a8.1 8.1 0 0 0 11.4 0l11.3-11.3a31.9 31.9 0 0 1 45.2 0Z"></path></svg>