<svg xmlns="http://www.w3.org/2000/svg" xmlns:xlink="http://www.w3.org/1999/xlink" aria-hidden="true" role="img" class="iconify iconify--ph" width="1em" height="1em" preserveAspectRatio="xMidYMid meet" viewBox="0 0 256 256"><path fill="currentColor" d="M96 120v56a12 12 0 0 1-24 0v-56a12 12 0 0 1 24 0Zm28 68a12 12 0 0 0 12-12v-28a16 16 0 0 1 32 0v28a12 12 0 0 0 24 0v-28a40 40 0 0 0-58.6-35.4A12 12 0 0 0 112 120v56a12 12 0 0 0 12 12ZM232 44v168a20.1 20.1 0 0 1-20 20H44a20.1 20.1 0 0 1-20-20V44a20.1 20.1 0 0 1 20-20h168a20.1 20.1 0 0 1 20 20Zm-24 4H48v160h160ZM84 96a16 16 0 1 0-16-16a16 16 0 0 0 16 16Z"></path></svg>