<svg xmlns="http://www.w3.org/2000/svg" xmlns:xlink="http://www.w3.org/1999/xlink" aria-hidden="true" role="img" class="iconify iconify--ph" width="1em" height="1em" preserveAspectRatio="xMidYMid meet" viewBox="0 0 256 256"><path fill="currentColor" d="M227 221.2a5.9 5.9 0 0 1-8.2-2.2c-1.3-2.4-32.8-58.2-32.8-123a58 58 0 0 0-116 0c0 64.8-31.5 120.6-32.8 123a6 6 0 0 1-5.2 3a6.7 6.7 0 0 1-3-.8a5.9 5.9 0 0 1-2.2-8.2c.4-.7 31.2-55.5 31.2-117a70 70 0 0 1 140 0c0 61.6 30.9 116.5 31.2 117a5.9 5.9 0 0 1-2.2 8.2ZM100 98a10 10 0 1 0 10 10a10 10 0 0 0-10-10Zm66 10a10 10 0 1 0-10 10a10 10 0 0 0 10-10Zm-67.3 30.6a6 6 0 1 0-5.4 10.8l32 16a6.4 6.4 0 0 0 5.4 0l32-16a6 6 0 1 0-5.4-10.8L128 153.3ZM128 186a54.3 54.3 0 0 0-46.8 27a6 6 0 0 0 2.2 8.2a5.9 5.9 0 0 0 8.2-2.2a42 42 0 0 1 72.8 0a6 6 0 0 0 5.2 3a6.7 6.7 0 0 0 3-.8a6 6 0 0 0 2.2-8.2a54.3 54.3 0 0 0-46.8-27Z"></path></svg>