<svg xmlns="http://www.w3.org/2000/svg" xmlns:xlink="http://www.w3.org/1999/xlink" aria-hidden="true" role="img" class="iconify iconify--ph" width="1em" height="1em" preserveAspectRatio="xMidYMid meet" viewBox="0 0 256 256"><path fill="currentColor" d="M224 216h-54.4a48.1 48.1 0 0 0-83.2 0H32s32-56 32-120a64 64 0 0 1 128 0c0 64 32 120 32 120Z" opacity=".2"></path><path fill="currentColor" d="M228 222.9a7.9 7.9 0 0 1-10.9-2.9c-1.4-2.4-33.1-58.6-33.1-124a56 56 0 0 0-112 0c0 65.4-31.7 121.6-33.1 124a7.7 7.7 0 0 1-6.9 4a7.3 7.3 0 0 1-4-1.1a7.9 7.9 0 0 1-2.9-10.9c.3-.5 30.9-55 30.9-116a72 72 0 0 1 144 0c0 61 30.6 115.5 30.9 116a7.9 7.9 0 0 1-2.9 10.9ZM100 96a12 12 0 1 0 12 12a12 12 0 0 0-12-12Zm68 12a12 12 0 1 0-12 12a12 12 0 0 0 12-12Zm-68.4 28.8a8 8 0 1 0-7.2 14.4l32 16a8.5 8.5 0 0 0 7.2 0l32-16a8 8 0 1 0-7.2-14.4L128 151.1ZM128 184a56.2 56.2 0 0 0-48.5 28a8 8 0 1 0 13.8 8a40.1 40.1 0 0 1 69.4 0a7.7 7.7 0 0 0 6.9 4a7.6 7.6 0 0 0 4-1.1a8 8 0 0 0 2.9-10.9a56.2 56.2 0 0 0-48.5-28Z"></path></svg>