<svg xmlns="http://www.w3.org/2000/svg" xmlns:xlink="http://www.w3.org/1999/xlink" aria-hidden="true" role="img" class="iconify iconify--ph" width="1em" height="1em" preserveAspectRatio="xMidYMid meet" viewBox="0 0 256 256"><path fill="currentColor" d="M161.2 217.7a4 4 0 0 1-3.3 6.3H98.1a4 4 0 0 1-3.3-6.3a40 40 0 0 1 66.4 0Zm68.6 3.8a8.2 8.2 0 0 1-6 2.5h-39.2a4.1 4.1 0 0 1-3.8-2.7a56 56 0 0 0-105.6 0a4.1 4.1 0 0 1-3.8 2.7H32.2a8 8 0 0 1-6-2.5a7.9 7.9 0 0 1-1.1-9.5c.3-.5 30.9-55 30.9-116a72.1 72.1 0 0 1 72.5-72c39.6.3 71.4 32.9 71.5 72.5c.2 60.8 30.6 115 30.9 115.5a7.9 7.9 0 0 1-1.1 9.5ZM88 108a12 12 0 1 0 12-12a12 12 0 0 0-12 12Zm79.2 32.4a8.2 8.2 0 0 0-10.8-3.6L128 151.1l-28.4-14.3a8 8 0 1 0-7.2 14.4l32 16a8.5 8.5 0 0 0 7.2 0l32-16a8.2 8.2 0 0 0 3.6-10.8Zm.8-32.4a12 12 0 1 0-12 12a12 12 0 0 0 12-12Z"></path></svg>