<svg xmlns="http://www.w3.org/2000/svg" xmlns:xlink="http://www.w3.org/1999/xlink" aria-hidden="true" role="img" class="iconify iconify--ph" width="1em" height="1em" preserveAspectRatio="xMidYMid meet" viewBox="0 0 256 256"><path fill="currentColor" d="M226 219.5a4.6 4.6 0 0 1-2 .5a4.1 4.1 0 0 1-3.5-2c-1.3-2.3-32.5-57.7-32.5-122a60 60 0 0 0-120 0c0 64.3-31.2 119.7-32.5 122a4 4 0 0 1-7-4c.3-.5 31.5-55.9 31.5-118a68 68 0 0 1 136 0c0 62.1 31.2 117.5 31.5 118a4.1 4.1 0 0 1-1.5 5.5ZM100 100a8 8 0 1 0 8 8a8 8 0 0 0-8-8Zm64 8a8 8 0 1 0-8 8a8 8 0 0 0 8-8Zm-66.2 32.4a4 4 0 1 0-3.6 7.2l32 16a4.2 4.2 0 0 0 3.6 0l32-16a4 4 0 1 0-3.6-7.2L128 155.5ZM128 188a52.1 52.1 0 0 0-45 26a4 4 0 1 0 6.9 4a44 44 0 0 1 76.2 0a4.1 4.1 0 0 0 3.5 2a4.6 4.6 0 0 0 2-.5a4 4 0 0 0 1.4-5.5a52.1 52.1 0 0 0-45-26Z"></path></svg>