<svg xmlns="http://www.w3.org/2000/svg" xmlns:xlink="http://www.w3.org/1999/xlink" aria-hidden="true" role="img" class="iconify iconify--ph" width="1em" height="1em" preserveAspectRatio="xMidYMid meet" viewBox="0 0 256 256"><path fill="currentColor" d="M224 128a8 8 0 0 1-8 8H104a8 8 0 0 1 0-16h112a8 8 0 0 1 8 8ZM104 72h112a8 8 0 0 0 0-16H104a8 8 0 0 0 0 16Zm112 112H104a8 8 0 0 0 0 16h112a8 8 0 0 0 0-16ZM43.6 67.2l4.4-2.3V108a8 8 0 0 0 16 0V52a7.9 7.9 0 0 0-3.8-6.8a8 8 0 0 0-7.8-.4l-16 8a8 8 0 1 0 7.2 14.4Zm28.6 103.1A21.5 21.5 0 0 0 76 158a22 22 0 0 0-42.3-8.6a8 8 0 0 0 14.8 6.3A5.8 5.8 0 0 1 54 152a6 6 0 0 1 6 6a5.7 5.7 0 0 1-.9 3.2l-25.5 34A8 8 0 0 0 40 208h28a8 8 0 0 0 0-16H56l16-21.4Z"></path></svg>