<svg xmlns="http://www.w3.org/2000/svg" xmlns:xlink="http://www.w3.org/1999/xlink" aria-hidden="true" role="img" class="iconify iconify--ph" width="1em" height="1em" preserveAspectRatio="xMidYMid meet" viewBox="0 0 256 256"><path fill="currentColor" d="M220 128a4 4 0 0 1-4 4H104a4 4 0 0 1 0-8h112a4 4 0 0 1 4 4ZM104 68h112a4 4 0 0 0 0-8H104a4 4 0 0 0 0 8Zm112 120H104a4 4 0 0 0 0 8h112a4 4 0 0 0 0-8ZM41.8 63.6L52 58.5V108a4 4 0 0 0 8 0V52a3.9 3.9 0 0 0-1.9-3.4a4.1 4.1 0 0 0-3.9-.2l-16 8a4 4 0 1 0 3.6 7.2Zm27.1 104.5A18 18 0 0 0 54 140a18 18 0 0 0-16.6 11a4 4 0 0 0 7.4 3.1A10 10 0 0 1 64 158a9.7 9.7 0 0 1-1.7 5.5l-25.5 34.1a4 4 0 0 0-.4 4.2A4.2 4.2 0 0 0 40 204h28a4 4 0 0 0 0-8H48l20.8-27.8Z"></path></svg>