<svg xmlns="http://www.w3.org/2000/svg" xmlns:xlink="http://www.w3.org/1999/xlink" aria-hidden="true" role="img" class="iconify iconify--ph" width="1em" height="1em" preserveAspectRatio="xMidYMid meet" viewBox="0 0 256 256"><path fill="currentColor" d="M220 128a4 4 0 0 1-4 4h-88a4 4 0 0 1 0-8h88a4 4 0 0 1 4 4Zm-92-60h88a4 4 0 0 0 0-8h-88a4 4 0 0 0 0 8Zm88 120h-88a4 4 0 0 0 0 8h88a4 4 0 0 0 0-8ZM89.3 45.1l-32 29.5l-14.6-13.5a4 4 0 1 0-5.4 5.8l17.3 16a4.3 4.3 0 0 0 2.7 1.1a3.9 3.9 0 0 0 2.7-1.1l34.7-32a4 4 0 1 0-5.4-5.8Zm0 64l-32 29.5l-14.6-13.5a4 4 0 0 0-5.4 5.8l17.3 16a4.3 4.3 0 0 0 2.7 1.1a3.9 3.9 0 0 0 2.7-1.1l34.7-32a4 4 0 0 0-5.4-5.8Zm0 64l-32 29.5l-14.6-13.5a4 4 0 0 0-5.4 5.8l17.3 16a4.3 4.3 0 0 0 2.7 1.1a3.9 3.9 0 0 0 2.7-1.1l34.7-32a4 4 0 1 0-5.4-5.8Z"></path></svg>