<svg xmlns="http://www.w3.org/2000/svg" xmlns:xlink="http://www.w3.org/1999/xlink" aria-hidden="true" role="img" class="iconify iconify--ph" width="1em" height="1em" preserveAspectRatio="xMidYMid meet" viewBox="0 0 256 256"><path fill="currentColor" d="M84 64a12 12 0 0 1 12-12h120a12 12 0 0 1 0 24H96a12 12 0 0 1-12-12Zm132 52H96a12 12 0 0 0 0 24h120a12 12 0 0 0 0-24Zm0 64H96a12 12 0 0 0 0 24h120a12 12 0 0 0 0-24ZM56 52H40a12 12 0 0 0 0 24h16a12 12 0 0 0 0-24Zm0 64H40a12 12 0 0 0 0 24h16a12 12 0 0 0 0-24Zm0 64H40a12 12 0 0 0 0 24h16a12 12 0 0 0 0-24Z"></path></svg>