<svg xmlns="http://www.w3.org/2000/svg" xmlns:xlink="http://www.w3.org/1999/xlink" aria-hidden="true" role="img" class="iconify iconify--ph" width="1em" height="1em" preserveAspectRatio="xMidYMid meet" viewBox="0 0 256 256"><path fill="currentColor" d="M92 64a4 4 0 0 1 4-4h120a4 4 0 0 1 0 8H96a4 4 0 0 1-4-4Zm124 60H96a4 4 0 0 0 0 8h120a4 4 0 0 0 0-8Zm0 64H96a4 4 0 0 0 0 8h120a4 4 0 0 0 0-8ZM56 60H40a4 4 0 0 0 0 8h16a4 4 0 0 0 0-8Zm0 64H40a4 4 0 0 0 0 8h16a4 4 0 0 0 0-8Zm0 64H40a4 4 0 0 0 0 8h16a4 4 0 0 0 0-8Z"></path></svg>