<svg xmlns="http://www.w3.org/2000/svg" xmlns:xlink="http://www.w3.org/1999/xlink" aria-hidden="true" role="img" class="iconify iconify--ph" width="1em" height="1em" preserveAspectRatio="xMidYMid meet" viewBox="0 0 256 256"><path fill="currentColor" d="M56 128a12 12 0 1 1-12-12a12 12 0 0 1 12 12Zm-12 52a12 12 0 1 0 12 12a12 12 0 0 0-12-12Zm0-128a12 12 0 1 0 12 12a12 12 0 0 0-12-12Zm44 20h128a8 8 0 0 0 0-16H88a8 8 0 0 0 0 16Zm128 48H88a8 8 0 0 0 0 16h128a8 8 0 0 0 0-16Zm0 64H88a8 8 0 0 0 0 16h128a8 8 0 0 0 0-16Z"></path></svg>