<svg xmlns="http://www.w3.org/2000/svg" xmlns:xlink="http://www.w3.org/1999/xlink" aria-hidden="true" role="img" class="iconify iconify--ph" width="1em" height="1em" preserveAspectRatio="xMidYMid meet" viewBox="0 0 256 256"><path fill="currentColor" d="M222 128a6 6 0 0 1-6 6h-88a6 6 0 0 1 0-12h88a6 6 0 0 1 6 6Zm-94-58h88a6 6 0 0 0 0-12h-88a6 6 0 0 0 0 12Zm88 116h-88a6 6 0 0 0 0 12h88a6 6 0 0 0 0-12ZM87.9 43.6L57.3 71.8L44.1 59.6a6 6 0 0 0-8.2 8.8l17.4 16a5.7 5.7 0 0 0 4 1.6a5.7 5.7 0 0 0 4.1-1.6l34.7-32a6 6 0 1 0-8.2-8.8Zm0 64l-30.6 28.2l-13.2-12.2a6 6 0 0 0-8.2 8.8l17.4 16a5.7 5.7 0 0 0 4 1.6a5.7 5.7 0 0 0 4.1-1.6l34.7-32a6 6 0 1 0-8.2-8.8Zm0 64l-30.6 28.2l-13.2-12.2a6 6 0 0 0-8.2 8.8l17.4 16a5.7 5.7 0 0 0 4 1.6a5.7 5.7 0 0 0 4.1-1.6l34.7-32a6 6 0 1 0-8.2-8.8Z"></path></svg>