<svg xmlns="http://www.w3.org/2000/svg" xmlns:xlink="http://www.w3.org/1999/xlink" aria-hidden="true" role="img" class="iconify iconify--ph" width="1em" height="1em" preserveAspectRatio="xMidYMid meet" viewBox="0 0 256 256"><path fill="currentColor" d="M128 116a24 24 0 0 0-4 47.7V184a4 4 0 0 0 8 0v-20.3a24 24 0 0 0-4-47.7Zm0 40a16 16 0 1 1 16-16a16 16 0 0 1-16 16Zm80-72H96V52a32 32 0 0 1 64 0a4 4 0 0 0 8 0a40 40 0 0 0-80 0v32H48a12 12 0 0 0-12 12v112a12 12 0 0 0 12 12h160a12 12 0 0 0 12-12V96a12 12 0 0 0-12-12Zm4 124a4 4 0 0 1-4 4H48a4 4 0 0 1-4-4V96a4 4 0 0 1 4-4h160a4 4 0 0 1 4 4Z"></path></svg>