<svg xmlns="http://www.w3.org/2000/svg" xmlns:xlink="http://www.w3.org/1999/xlink" aria-hidden="true" role="img" class="iconify iconify--ph" width="1em" height="1em" preserveAspectRatio="xMidYMid meet" viewBox="0 0 256 256"><path fill="currentColor" d="M208 82h-38V52a42 42 0 0 0-84 0v30H48a14 14 0 0 0-14 14v112a14 14 0 0 0 14 14h160a14 14 0 0 0 14-14V96a14 14 0 0 0-14-14ZM46 126h164v20H46Zm0 32h164v20H46ZM98 52a30 30 0 0 1 60 0v30H98ZM48 94h160a2 2 0 0 1 2 2v18H46V96a2 2 0 0 1 2-2Zm160 116H48a2 2 0 0 1-2-2v-18h164v18a2 2 0 0 1-2 2Z"></path></svg>