<svg xmlns="http://www.w3.org/2000/svg" xmlns:xlink="http://www.w3.org/1999/xlink" aria-hidden="true" role="img" class="iconify iconify--ph" width="1em" height="1em" preserveAspectRatio="xMidYMid meet" viewBox="0 0 256 256"><rect width="176" height="128" x="40" y="88" fill="currentColor" opacity=".2" rx="8"></rect><path fill="currentColor" d="M208 80H100V52a28 28 0 0 1 56 0a8 8 0 0 0 16 0a44 44 0 0 0-88 0v28H48a16 16 0 0 0-16 16v112a16 16 0 0 0 16 16h160a16 16 0 0 0 16-16V96a16 16 0 0 0-16-16Zm0 128H48V96h160v112Z"></path></svg>