<svg xmlns="http://www.w3.org/2000/svg" xmlns:xlink="http://www.w3.org/1999/xlink" aria-hidden="true" role="img" class="iconify iconify--ph" width="1em" height="1em" preserveAspectRatio="xMidYMid meet" viewBox="0 0 256 256"><path fill="currentColor" d="M208 76H104V52a24 24 0 0 1 47.9-2.7a12 12 0 0 0 23.8-2.6A48 48 0 0 0 80 52v24H48a20.1 20.1 0 0 0-20 20v112a20.1 20.1 0 0 0 20 20h160a20.1 20.1 0 0 0 20-20V96a20.1 20.1 0 0 0-20-20ZM52 144h152v16H52Zm152-44v20H52v-20ZM52 204v-20h152v20Z"></path></svg>