<svg xmlns="http://www.w3.org/2000/svg" xmlns:xlink="http://www.w3.org/1999/xlink" aria-hidden="true" role="img" class="iconify iconify--ph" width="1em" height="1em" preserveAspectRatio="xMidYMid meet" viewBox="0 0 256 256"><path fill="currentColor" d="M128 114a26 26 0 0 0-6 51.3V184a6 6 0 0 0 12 0v-18.7a26 26 0 0 0-6-51.3Zm0 40a14 14 0 1 1 14-14a14 14 0 0 1-14 14Zm80-72h-38V52a42 42 0 0 0-84 0v30H48a14 14 0 0 0-14 14v112a14 14 0 0 0 14 14h160a14 14 0 0 0 14-14V96a14 14 0 0 0-14-14ZM98 52a30 30 0 0 1 60 0v30H98Zm112 156a2 2 0 0 1-2 2H48a2 2 0 0 1-2-2V96a2 2 0 0 1 2-2h160a2 2 0 0 1 2 2Z"></path></svg>