<svg xmlns="http://www.w3.org/2000/svg" xmlns:xlink="http://www.w3.org/1999/xlink" aria-hidden="true" role="img" class="iconify iconify--ph" width="1em" height="1em" preserveAspectRatio="xMidYMid meet" viewBox="0 0 256 256"><path fill="currentColor" d="M244 152a4 4 0 0 1-4 4h-20v20a4 4 0 0 1-8 0v-20h-20a4 4 0 0 1 0-8h20v-20a4 4 0 0 1 8 0v20h20a4 4 0 0 1 4 4ZM64 64h16v16a4 4 0 0 0 8 0V64h16a4 4 0 0 0 0-8H88V40a4 4 0 0 0-8 0v16H64a4 4 0 0 0 0 8Zm120 132h-12v-12a4 4 0 0 0-8 0v12h-12a4 4 0 0 0 0 8h12v12a4 4 0 0 0 8 0v-12h12a4 4 0 0 0 0-8Zm-5.2-81.2L72.5 221.2a12.1 12.1 0 0 1-17 0l-20.7-20.7a12.1 12.1 0 0 1 0-17L183.5 34.8a12.2 12.2 0 0 1 17 0l20.7 20.7a12.1 12.1 0 0 1 0 17l-42.4 42.3ZM149.7 80l26.3 26.3l39.5-39.5a3.9 3.9 0 0 0 0-5.6l-20.7-20.7a3.9 3.9 0 0 0-5.6 0Zm20.6 32L144 85.7L40.5 189.2a3.9 3.9 0 0 0 0 5.6l20.7 20.7a3.9 3.9 0 0 0 5.6 0Z"></path></svg>