<svg xmlns="http://www.w3.org/2000/svg" xmlns:xlink="http://www.w3.org/1999/xlink" aria-hidden="true" role="img" class="iconify iconify--ph" width="1em" height="1em" preserveAspectRatio="xMidYMid meet" viewBox="0 0 256 256"><path fill="currentColor" d="M256 152a12 12 0 0 1-12 12h-12v12a12 12 0 0 1-24 0v-12h-12a12 12 0 0 1 0-24h12v-12a12 12 0 0 1 24 0v12h12a12 12 0 0 1 12 12ZM60 68h8v8a12 12 0 0 0 24 0v-8h8a12 12 0 0 0 0-24h-8v-8a12 12 0 0 0-24 0v8h-8a12 12 0 0 0 0 24Zm120 124h-4v-4a12 12 0 0 0-24 0v4h-4a12 12 0 0 0 0 24h4v4a12 12 0 0 0 24 0v-4h4a12 12 0 0 0 0-24Zm4.5-71.5L78.1 226.8a19.8 19.8 0 0 1-28.2 0l-20.7-20.7a19.8 19.8 0 0 1 0-28.2L177.9 29.2a19.9 19.9 0 0 1 28.2 0l20.7 20.7a19.8 19.8 0 0 1 0 28.2l-42.3 42.4ZM161 80l15 15l31-31l-15-15Zm-2 32l-15-15l-95 95l15 15Z"></path></svg>