<svg xmlns="http://www.w3.org/2000/svg" xmlns:xlink="http://www.w3.org/1999/xlink" aria-hidden="true" role="img" class="iconify iconify--ph" width="1em" height="1em" preserveAspectRatio="xMidYMid meet" viewBox="0 0 256 256"><path fill="currentColor" d="M246 152a6 6 0 0 1-6 6h-18v18a6 6 0 0 1-12 0v-18h-18a6 6 0 0 1 0-12h18v-18a6 6 0 0 1 12 0v18h18a6 6 0 0 1 6 6ZM64 66h14v14a6 6 0 0 0 12 0V66h14a6 6 0 0 0 0-12H90V40a6 6 0 0 0-12 0v14H64a6 6 0 0 0 0 12Zm120 128h-10v-10a6 6 0 0 0-12 0v10h-10a6 6 0 0 0 0 12h10v10a6 6 0 0 0 12 0v-10h10a6 6 0 0 0 0-12Zm-3.8-77.8L73.9 222.6a14 14 0 0 1-19.8 0l-20.7-20.7a14 14 0 0 1 0-19.8L182.1 33.4a14.1 14.1 0 0 1 19.8 0l20.7 20.7a14 14 0 0 1 0 19.8l-42.4 42.3ZM152.5 80l23.5 23.5l38.1-38.1a1.9 1.9 0 0 0 0-2.8l-20.7-20.7a1.9 1.9 0 0 0-2.8 0Zm15 32L144 88.5L41.9 190.6a1.9 1.9 0 0 0 0 2.8l20.7 20.7a1.9 1.9 0 0 0 2.8 0Z"></path></svg>