<svg xmlns="http://www.w3.org/2000/svg" xmlns:xlink="http://www.w3.org/1999/xlink" aria-hidden="true" role="img" class="iconify iconify--ph" width="1em" height="1em" preserveAspectRatio="xMidYMid meet" viewBox="0 0 256 256"><path fill="currentColor" d="M56 60a8 8 0 0 1 8-8h12V40a8 8 0 0 1 16 0v12h12a8 8 0 0 1 0 16H92v12a8 8 0 0 1-16 0V68H64a8 8 0 0 1-8-8Zm184 84h-16v-16a8 8 0 0 0-16 0v16h-16a8 8 0 0 0 0 16h16v16a8 8 0 0 0 16 0v-16h16a8 8 0 0 0 0-16Zm-58.3-26.3L75.3 224a15.9 15.9 0 0 1-22.6 0L32 203.3a15.9 15.9 0 0 1 0-22.6L180.7 32a16.1 16.1 0 0 1 22.6 0L224 52.7a15.9 15.9 0 0 1 0 22.6l-42.3 42.4Zm-5.7-17L212.7 64L192 43.3L155.3 80Zm8 91.3h-8v-8a8 8 0 0 0-16 0v8h-8a8 8 0 0 0 0 16h8v8a8 8 0 0 0 16 0v-8h8a8 8 0 0 0 0-16Z"></path></svg>