<svg xmlns="http://www.w3.org/2000/svg" xmlns:xlink="http://www.w3.org/1999/xlink" aria-hidden="true" role="img" class="iconify iconify--ph" width="1em" height="1em" preserveAspectRatio="xMidYMid meet" viewBox="0 0 256 256"><path fill="currentColor" d="M248 152a8 8 0 0 1-8 8h-16v16a8 8 0 0 1-16 0v-16h-16a8 8 0 0 1 0-16h16v-16a8 8 0 0 1 16 0v16h16a8 8 0 0 1 8 8ZM64 68h12v12a8 8 0 0 0 16 0V68h12a8 8 0 0 0 0-16H92V40a8 8 0 0 0-16 0v12H64a8 8 0 0 0 0 16Zm120 124h-8v-8a8 8 0 0 0-16 0v8h-8a8 8 0 0 0 0 16h8v8a8 8 0 0 0 16 0v-8h8a8 8 0 0 0 0-16Zm-2.3-74.3L75.3 224a15.9 15.9 0 0 1-22.6 0L32 203.3a15.9 15.9 0 0 1 0-22.6L180.7 32a16.1 16.1 0 0 1 22.6 0L224 52.7a15.9 15.9 0 0 1 0 22.6l-42.3 42.4ZM155.3 80l20.7 20.7L212.7 64L192 43.3Zm9.4 32L144 91.3L43.3 192L64 212.7Z"></path></svg>