<svg xmlns="http://www.w3.org/2000/svg" xmlns:xlink="http://www.w3.org/1999/xlink" aria-hidden="true" role="img" class="iconify iconify--ph" width="1em" height="1em" preserveAspectRatio="xMidYMid meet" viewBox="0 0 256 256"><path fill="currentColor" d="M200 44h-40a12 12 0 0 0-12 12v88a20 20 0 0 1-40 0V56a12 12 0 0 0-12-12H56a12 12 0 0 0-12 12v88a84 84 0 0 0 84 84h.6c46-.3 83.4-38.5 83.4-85V56a12 12 0 0 0-12-12Zm-40 8h40a4 4 0 0 1 4 4v36h-48V56a4 4 0 0 1 4-4ZM56 52h40a4 4 0 0 1 4 4v36H52V56a4 4 0 0 1 4-4Zm72.6 168A76.1 76.1 0 0 1 52 144v-44h48v44a28 28 0 0 0 56 0v-44h48v43c0 42.1-33.8 76.7-75.4 77Z"></path></svg>