<svg xmlns="http://www.w3.org/2000/svg" xmlns:xlink="http://www.w3.org/1999/xlink" aria-hidden="true" role="img" class="iconify iconify--ph" width="1em" height="1em" preserveAspectRatio="xMidYMid meet" viewBox="0 0 256 256"><path fill="currentColor" d="M204.1 53.1A83.4 83.4 0 0 0 144.6 28h-.3a83.5 83.5 0 0 0-59.5 24.6l-66.1 66.9a12.1 12.1 0 0 0 .1 17l28.6 28.6a11.9 11.9 0 0 0 8.5 3.5h.1a11.8 11.8 0 0 0 8.5-3.6l65.6-67.2a20.1 20.1 0 0 1 28-.2a19.6 19.6 0 0 1 6 14a21.5 21.5 0 0 1-6 14.9l-67.1 65a11.8 11.8 0 0 0-3.6 8.5a12.1 12.1 0 0 0 3.5 8.6l28.7 28.6a11.6 11.6 0 0 0 8.5 3.5a12 12 0 0 0 8.4-3.4l32.9-32.3l33.5-32.9c32.9-32.9 33.5-86.3 1.2-119ZM58.8 159.4a3.9 3.9 0 0 1-2.8 1.2h-.1a3.9 3.9 0 0 1-2.8-1.2l-28.6-28.6a4 4 0 0 1-.1-5.6L54 95.3l34.1 34.1Zm72.1 72.2a4.2 4.2 0 0 1-5.7 0l-28.6-28.7a3.8 3.8 0 0 1-1.2-2.8a4 4 0 0 1 1.2-2.9l30.1-29.2l34.2 34.2Zm35.7-35l-34.1-34.2l31.2-30.2a29.3 29.3 0 0 0 8.4-20.7a27.9 27.9 0 0 0-47.6-19.3h-.1l-30.7 31.5l-34.1-34.1l30.9-31.3A75.6 75.6 0 0 1 144.3 36h.2a75.4 75.4 0 0 1 53.9 22.7c29.2 29.6 28.7 77.9-1.1 107.7Z"></path></svg>