<svg xmlns="http://www.w3.org/2000/svg" xmlns:xlink="http://www.w3.org/1999/xlink" aria-hidden="true" role="img" class="iconify iconify--ph" width="1em" height="1em" preserveAspectRatio="xMidYMid meet" viewBox="0 0 256 256"><path fill="currentColor" d="M205.5 51.7A85.2 85.2 0 0 0 144.6 26h-.3a85.5 85.5 0 0 0-60.9 25.2l-66.1 66.9a14.1 14.1 0 0 0 .1 19.8L46 166.5a13.8 13.8 0 0 0 9.9 4.1h.1a13.6 13.6 0 0 0 9.9-4.2l65.7-67.2a17.8 17.8 0 0 1 30.5 12.4a19.1 19.1 0 0 1-5.4 13.4l-67 65a13.7 13.7 0 0 0-4.3 10a13.9 13.9 0 0 0 4.1 10l28.7 28.6a13.6 13.6 0 0 0 9.9 4.1a14 14 0 0 0 9.8-4l66.5-65.2c33.6-33.7 34.2-88.3 1.1-121.8ZM57.4 158a2.1 2.1 0 0 1-1.5.6a2 2 0 0 1-1.4-.6l-28.6-28.6a1.9 1.9 0 0 1 0-2.8L54 98.1l31.3 31.3Zm72.1 72.2a2.3 2.3 0 0 1-2.9 0L98 201.5a1.9 1.9 0 0 1 0-2.8l28.7-27.9l31.3 31.3Zm66.4-65.2l-29.3 28.7l-31.3-31.2l29.8-28.9a30.8 30.8 0 0 0 9-22.1a29.5 29.5 0 0 0-29.8-29.4a30.3 30.3 0 0 0-21.3 8.7l-29.3 30l-31.3-31.2l29.5-29.9A73.6 73.6 0 0 1 144.3 38h.2A73.6 73.6 0 0 1 197 60.1c28.4 28.8 27.9 75.9-1.1 104.9Z"></path></svg>