<svg xmlns="http://www.w3.org/2000/svg" xmlns:xlink="http://www.w3.org/1999/xlink" aria-hidden="true" role="img" class="iconify iconify--ph" width="1em" height="1em" preserveAspectRatio="xMidYMid meet" viewBox="0 0 256 256"><path fill="currentColor" d="M160 116a12 12 0 0 1-12 12h-20v20a12 12 0 0 1-24 0v-20H84a12 12 0 0 1 0-24h20V84a12 12 0 0 1 24 0v20h20a12 12 0 0 1 12 12Zm72.5 116.5a12.1 12.1 0 0 1-17 0l-40.7-40.7A94.9 94.9 0 0 1 116 212a96 96 0 1 1 96-96a94.9 94.9 0 0 1-20.2 58.8l40.7 40.7a12 12 0 0 1 0 17ZM116 188a72 72 0 1 0-72-72a72.1 72.1 0 0 0 72 72Z"></path></svg>