<svg xmlns="http://www.w3.org/2000/svg" xmlns:xlink="http://www.w3.org/1999/xlink" aria-hidden="true" role="img" class="iconify iconify--ph" width="1em" height="1em" preserveAspectRatio="xMidYMid meet" viewBox="0 0 256 256"><path fill="currentColor" d="m166.6 202.2l-32.9 32.3a8.1 8.1 0 0 1-11.3-.1l-28.7-28.7a8.1 8.1 0 0 1 .1-11.4l33-31.9ZM54 89.6l-32.4 32.7a8 8 0 0 0 0 11.3l28.7 28.7a8.1 8.1 0 0 0 11.4-.1l32-32.8Z" opacity=".2"></path><path fill="currentColor" d="M207 50.2A87.7 87.7 0 0 0 144.6 24h-.3A87.3 87.3 0 0 0 82 49.8L48.3 83.9l-32.4 32.8a16.1 16.1 0 0 0 .1 22.6l28.6 28.6a15.6 15.6 0 0 0 11.3 4.7h.1a15.8 15.8 0 0 0 11.4-4.8l32-32.8l33.6-34.3a16.1 16.1 0 0 1 22.4-.2a15.7 15.7 0 0 1 4.7 11.2a17 17 0 0 1-4.9 12l-34.1 33l-32.8 31.9a15.9 15.9 0 0 0-.2 22.8l28.6 28.7a16.3 16.3 0 0 0 22.6.1l32.9-32.4l33.6-32.9c34.4-34.4 35-90.3 1.2-124.7ZM55.9 156.6L27.3 128L54 100.9l28.5 28.5Zm72.2 72.1l-28.7-28.6l27.3-26.5l28.5 28.5Zm38.5-37.8l-28.4-28.4l28.2-27.4h.1a32.8 32.8 0 0 0 9.6-23.5a31.6 31.6 0 0 0-31.8-31.4a31.9 31.9 0 0 0-22.7 9.3L93.7 118L65.2 89.5l28.1-28.4a71.8 71.8 0 0 1 51-21.1h.2a71.7 71.7 0 0 1 51.1 21.5c27.6 28 27.1 73.9-1.1 102.1Z"></path></svg>