<svg xmlns="http://www.w3.org/2000/svg" xmlns:xlink="http://www.w3.org/1999/xlink" aria-hidden="true" role="img" class="iconify iconify--ph" width="1em" height="1em" preserveAspectRatio="xMidYMid meet" viewBox="0 0 256 256"><path fill="currentColor" d="M200 42h-40a14 14 0 0 0-14 14v88a18 18 0 0 1-36 0V56a14 14 0 0 0-14-14H56a14 14 0 0 0-14 14v88a86 86 0 0 0 86 86h.7c47-.4 85.3-39.4 85.3-87V56a14 14 0 0 0-14-14Zm-40 12h40a2 2 0 0 1 2 2v34h-44V56a2 2 0 0 1 2-2ZM56 54h40a2 2 0 0 1 2 2v34H54V56a2 2 0 0 1 2-2Zm72.6 164h-.6a74.1 74.1 0 0 1-74-74v-42h44v42a30 30 0 0 0 60 0v-42h44v41c0 41.1-32.9 74.7-73.4 75Z"></path></svg>