<svg xmlns="http://www.w3.org/2000/svg" xmlns:xlink="http://www.w3.org/1999/xlink" aria-hidden="true" role="img" class="iconify iconify--ph" width="1em" height="1em" preserveAspectRatio="xMidYMid meet" viewBox="0 0 256 256"><path fill="currentColor" d="M200 36h-40a20.1 20.1 0 0 0-20 20v88a12 12 0 0 1-24 0V56a20.1 20.1 0 0 0-20-20H56a20.1 20.1 0 0 0-20 20v88a92 92 0 0 0 92 92h.7c50.3-.4 91.3-42.1 91.3-93V56a20.1 20.1 0 0 0-20-20Zm-4 24v24h-32V60ZM92 60v24H60V60Zm36.5 152h-.5a67.9 67.9 0 0 1-68-68v-36h32v36a36 36 0 0 0 72 0v-36h32v35c0 37.8-30.3 68.7-67.5 69Z"></path></svg>