<svg xmlns="http://www.w3.org/2000/svg" xmlns:xlink="http://www.w3.org/1999/xlink" aria-hidden="true" role="img" class="iconify iconify--ph" width="1em" height="1em" preserveAspectRatio="xMidYMid meet" viewBox="0 0 256 256"><path fill="currentColor" d="M152 116a4 4 0 0 1-4 4h-28v28a4 4 0 0 1-8 0v-28H84a4 4 0 0 1 0-8h28V84a4 4 0 0 1 8 0v28h28a4 4 0 0 1 4 4Zm74.8 110.8a3.9 3.9 0 0 1-5.6 0L175.3 181a88 88 0 1 1 5.7-5.7l45.8 45.9a3.9 3.9 0 0 1 0 5.6ZM116 196a80 80 0 1 0-80-80a80.1 80.1 0 0 0 80 80Z"></path></svg>