<svg xmlns="http://www.w3.org/2000/svg" xmlns:xlink="http://www.w3.org/1999/xlink" aria-hidden="true" role="img" class="iconify iconify--ph" width="1em" height="1em" preserveAspectRatio="xMidYMid meet" viewBox="0 0 256 256"><path fill="currentColor" d="M209.8 47.4A91.3 91.3 0 0 0 144.6 20h-.3a91.5 91.5 0 0 0-65.1 27l-66.1 66.9a20 20 0 0 0 0 28.2l28.7 28.7a20 20 0 0 0 14.3 5.8a19.8 19.8 0 0 0 14.1-6l65.6-67.1a12.1 12.1 0 0 1 16.8-.2a12.3 12.3 0 0 1 3.5 8.4a12.9 12.9 0 0 1-3.7 9.1l-66.9 64.9a19.9 19.9 0 0 0-.2 28.5l28.6 28.7a19.9 19.9 0 0 0 14.2 5.8a20.1 20.1 0 0 0 14-5.7l66.4-65.2h.1c36-36 36.5-94.5 1.2-130.4ZM55.9 150.9l-23-23L54 106.6l22.9 22.9Zm72.2 72.2l-23-23l21.5-20.9l22.9 22.9Zm63.6-62.3l-25.1 24.5l-22.7-22.8l25.3-24.5v-.2a36.6 36.6 0 0 0 10.8-26.3a35.3 35.3 0 0 0-10.9-25.4a36.2 36.2 0 0 0-50.4.4h-.1l-25 25.8l-22.7-22.8l25.3-25.6A67.6 67.6 0 0 1 144.3 44h.2a67.6 67.6 0 0 1 48.2 20.3c26.1 26.5 25.6 69.7-1 96.5Z"></path></svg>