<svg xmlns="http://www.w3.org/2000/svg" xmlns:xlink="http://www.w3.org/1999/xlink" aria-hidden="true" role="img" class="iconify iconify--ph" width="1em" height="1em" preserveAspectRatio="xMidYMid meet" viewBox="0 0 256 256"><path fill="currentColor" d="M200 40h-40a16 16 0 0 0-16 16v88a16 16 0 0 1-32 0V56a16 16 0 0 0-16-16H56a16 16 0 0 0-16 16v88a87.9 87.9 0 0 0 88 88h.7c48.1-.4 87.3-40.3 87.3-89V56a16 16 0 0 0-16-16Zm0 16v32h-40V56ZM96 56v32H56V56Zm32.5 160h-.5a72 72 0 0 1-72-72v-40h40v40a32 32 0 0 0 64 0v-40h40v39c0 40-32.1 72.7-71.5 73Z"></path></svg>