<svg xmlns="http://www.w3.org/2000/svg" xmlns:xlink="http://www.w3.org/1999/xlink" aria-hidden="true" role="img" class="iconify iconify--ph" width="1em" height="1em" preserveAspectRatio="xMidYMid meet" viewBox="0 0 256 256"><path fill="currentColor" d="M154 116a6 6 0 0 1-6 6h-26v26a6 6 0 0 1-12 0v-26H84a6 6 0 0 1 0-12h26V84a6 6 0 0 1 12 0v26h26a6 6 0 0 1 6 6Zm74.2 112.2a5.8 5.8 0 0 1-8.4 0l-44.6-44.5a90.2 90.2 0 1 1 8.5-8.5l44.5 44.6a5.8 5.8 0 0 1 0 8.4ZM194 116a78 78 0 1 0-78 78a78.1 78.1 0 0 0 78-78Z"></path></svg>