<svg xmlns="http://www.w3.org/2000/svg" xmlns:xlink="http://www.w3.org/1999/xlink" aria-hidden="true" role="img" class="iconify iconify--ph" width="1em" height="1em" preserveAspectRatio="xMidYMid meet" viewBox="0 0 256 256"><path fill="currentColor" d="M128.1 68a36 36 0 1 0 36 36a36 36 0 0 0-36-36Zm0 64a28 28 0 1 1 28-28a28.1 28.1 0 0 1-28 28Zm0-112a84.1 84.1 0 0 0-84 84c0 30.4 14.2 62.8 41 93.6a255.4 255.4 0 0 0 40.7 37.7a4.1 4.1 0 0 0 4.6 0a255.4 255.4 0 0 0 40.7-37.7c26.8-30.8 41-63.2 41-93.6a84.1 84.1 0 0 0-84-84Zm37.1 172.2a242.6 242.6 0 0 1-37.1 34.8A247.5 247.5 0 0 1 91 192.2c-17.7-20.4-38.9-52.3-38.9-88.2a76 76 0 0 1 152 0c0 35.9-21.1 67.8-38.9 88.2Z"></path></svg>