<svg xmlns="http://www.w3.org/2000/svg" xmlns:xlink="http://www.w3.org/1999/xlink" aria-hidden="true" role="img" class="iconify iconify--ph" width="1em" height="1em" preserveAspectRatio="xMidYMid meet" viewBox="0 0 256 256"><path fill="currentColor" d="M226.6 52.8a4.4 4.4 0 0 0-3.5-.7l-62.5 15.7l-62.7-31.4h-2.8l-64 16a4.2 4.2 0 0 0-3 3.9V200a4.2 4.2 0 0 0 1.6 3.2a4.1 4.1 0 0 0 2.4.8h1l62.5-15.7l62.7 31.4h.1l.7.3h2l64-16a4.1 4.1 0 0 0 3-3.9V56a4.4 4.4 0 0 0-1.5-3.2ZM36.1 59.1l56-14v135.8l-56 14Zm120 150.4l-56-28v-135l56 28Zm64-12.6l-56 14V75.1l56-14Z"></path></svg>