<svg xmlns="http://www.w3.org/2000/svg" xmlns:xlink="http://www.w3.org/1999/xlink" aria-hidden="true" role="img" class="iconify iconify--ph" width="1em" height="1em" preserveAspectRatio="xMidYMid meet" viewBox="0 0 256 256"><path fill="currentColor" d="M200.1 220h-39.2c5.1-5 10.7-10.7 16.3-17.1c28.1-32.3 42.9-66.5 42.9-98.9a92 92 0 0 0-184 0c0 50 34.1 91.9 59.2 116H56.1a12 12 0 0 0 0 24h144a12 12 0 1 0 0-24Zm-140-116a68 68 0 0 1 136 0c0 33.3-19.9 63.4-36.7 82.7a247.8 247.8 0 0 1-31.3 30.2a247.8 247.8 0 0 1-31.3-30.2c-16.7-19.3-36.7-49.4-36.7-82.7Zm68 44a44 44 0 1 0-44-44a44 44 0 0 0 44 44Zm0-64a20 20 0 1 1-20 20a20.1 20.1 0 0 1 20-20Z"></path></svg>