<svg xmlns="http://www.w3.org/2000/svg" xmlns:xlink="http://www.w3.org/1999/xlink" aria-hidden="true" role="img" class="iconify iconify--ph" width="1em" height="1em" preserveAspectRatio="xMidYMid meet" viewBox="0 0 256 256"><path fill="currentColor" d="M128.1 66a38 38 0 1 0 38 38a38 38 0 0 0-38-38Zm0 64a26 26 0 1 1 26-26a26.1 26.1 0 0 1-26 26Zm0-112a86.1 86.1 0 0 0-86 86c0 30.9 14.4 63.7 41.5 94.9a247.8 247.8 0 0 0 41.1 38a6 6 0 0 0 3.4 1.1a6.6 6.6 0 0 0 3.5-1.1a254.2 254.2 0 0 0 41-38c27.2-31.2 41.5-64 41.5-94.9a86.1 86.1 0 0 0-86-86Zm0 206.5c-15-11.6-74-60.9-74-120.5a74 74 0 0 1 148 0c0 59.6-59 108.9-74 120.5Z"></path></svg>