<svg xmlns="http://www.w3.org/2000/svg" xmlns:xlink="http://www.w3.org/1999/xlink" aria-hidden="true" role="img" class="iconify iconify--ph" width="1em" height="1em" preserveAspectRatio="xMidYMid meet" viewBox="0 0 256 256"><path fill="currentColor" d="M200.1 224h-49.4a266.5 266.5 0 0 0 23.5-23.8c27.4-31.5 41.9-64.8 41.9-96.2a88 88 0 0 0-176 0c0 31.4 14.5 64.7 42 96.2a253.6 253.6 0 0 0 23.5 23.8H56.1a8 8 0 0 0 0 16h144a8 8 0 1 0 0-16Zm-144-120a72 72 0 0 1 144 0c0 57.2-55.5 105-72 118c-16.5-13-72-60.8-72-118Zm112 0a40 40 0 1 0-40 40a40 40 0 0 0 40-40Zm-64 0a24 24 0 1 1 24 24a24.1 24.1 0 0 1-24-24Z"></path></svg>