<svg xmlns="http://www.w3.org/2000/svg" xmlns:xlink="http://www.w3.org/1999/xlink" aria-hidden="true" role="img" class="iconify iconify--ph" width="1em" height="1em" preserveAspectRatio="xMidYMid meet" viewBox="0 0 256 256"><path fill="currentColor" d="M229 49.7a7.9 7.9 0 0 0-6.8-1.5L161 63.5L99.7 32.8h-.1l-.8-.3h-.2l-.7-.2h-.3l-.7-.2h-2.7l-64 16a8 8 0 0 0-6.1 7.9v144a7.8 7.8 0 0 0 3.1 6.3a7.9 7.9 0 0 0 4.9 1.7l2-.2l61.1-15.3l61.3 30.7h.1l.7.3h.1l.8.3h3.9l64-16a8 8 0 0 0 6-7.8V56a7.8 7.8 0 0 0-3.1-6.3ZM40.1 62.2l48-12v127.6l-48 12Zm112 140.9l-48-24V52.9l48 24Zm64-9.3l-48 12V78.2l48-12Z"></path></svg>