<svg xmlns="http://www.w3.org/2000/svg" xmlns:xlink="http://www.w3.org/1999/xlink" aria-hidden="true" role="img" class="iconify iconify--ph" width="1em" height="1em" preserveAspectRatio="xMidYMid meet" viewBox="0 0 256 256"><path fill="currentColor" d="M227.8 51.3a5.6 5.6 0 0 0-5.1-1.1l-61.9 15.4l-62-31h-.1l-.6-.3h-.7c0-.1-.1-.1-.2-.1h-2.5l-64 16a5.9 5.9 0 0 0-4.6 5.8v144a6.1 6.1 0 0 0 2.3 4.7a5.8 5.8 0 0 0 3.7 1.3l1.5-.2l61.8-15.4l62 31l.7.3h.2l.7.2h2.6l64-16a5.9 5.9 0 0 0 4.5-5.8V56a5.8 5.8 0 0 0-2.3-4.7ZM38.1 60.7l52-13v131.6l-52 13Zm116 145.6l-52-26V49.7l52 26Zm64-11l-52 13V76.7l52-13Z"></path></svg>