<svg xmlns="http://www.w3.org/2000/svg" xmlns:xlink="http://www.w3.org/1999/xlink" aria-hidden="true" role="img" class="iconify iconify--ph" width="1em" height="1em" preserveAspectRatio="xMidYMid meet" viewBox="0 0 256 256"><path fill="currentColor" d="M128.1 60a44 44 0 1 0 44 44a44.1 44.1 0 0 0-44-44Zm0 64a20 20 0 1 1 20-20a20.1 20.1 0 0 1-20 20Zm0-112a92.1 92.1 0 0 0-92 92c0 77.4 81.7 135.4 85.1 137.8a11.9 11.9 0 0 0 13.8 0a260 260 0 0 0 42.2-38.9c28.1-32.3 42.9-66.5 42.9-98.9a92.1 92.1 0 0 0-92-92Zm31.3 174.7a247.8 247.8 0 0 1-31.3 30.2a247.8 247.8 0 0 1-31.3-30.2c-16.7-19.3-36.7-49.4-36.7-82.7a68 68 0 0 1 136 0c0 33.3-19.9 63.4-36.7 82.7Z"></path></svg>