<svg xmlns="http://www.w3.org/2000/svg" xmlns:xlink="http://www.w3.org/1999/xlink" aria-hidden="true" role="img" class="iconify iconify--ph" width="1em" height="1em" preserveAspectRatio="xMidYMid meet" viewBox="0 0 256 256"><path fill="currentColor" d="M200.1 228h-60.3a255.1 255.1 0 0 0 31.3-30.4c26.8-30.8 41-63.2 41-93.6a84 84 0 0 0-168 0c0 30.4 14.2 62.8 41 93.6a262.4 262.4 0 0 0 31.3 30.4H56.1a4 4 0 0 0 0 8h144a4 4 0 1 0 0-8ZM91 192.2c-17.7-20.4-38.9-52.3-38.9-88.2a76 76 0 0 1 152 0c0 35.9-21.1 67.8-38.9 88.2a242.6 242.6 0 0 1-37.1 34.8A247.5 247.5 0 0 1 91 192.2Zm73.1-88.2a36 36 0 1 0-36 36a36 36 0 0 0 36-36Zm-64 0a28 28 0 1 1 28 28a28.1 28.1 0 0 1-28-28Z"></path></svg>