<svg xmlns="http://www.w3.org/2000/svg" xmlns:xlink="http://www.w3.org/1999/xlink" aria-hidden="true" role="img" class="iconify iconify--ph" width="1em" height="1em" preserveAspectRatio="xMidYMid meet" viewBox="0 0 256 256"><path fill="currentColor" d="M231.5 46.5a12.2 12.2 0 0 0-10.3-2.1l-59.7 14.9l-60-30h-.1l-1.3-.5h-.2l-1.2-.3H97a13.2 13.2 0 0 0-2.8.2h-.4l-.6.2l-64 16A12 12 0 0 0 20.1 56v144a12.1 12.1 0 0 0 4.6 9.5a12.7 12.7 0 0 0 7.4 2.5a9.2 9.2 0 0 0 2.9-.4l59.7-14.9l60 30h.2l1 .4h.2l1.2.4h.2l1.1.2h3.6l.8-.2l64-16a11.9 11.9 0 0 0 9.1-11.6V56a12.1 12.1 0 0 0-4.6-9.5ZM44.1 65.4l40-10v119.2l-40 10Zm104 131.2l-40-20V59.4l40 20Zm64-6l-40 10V81.4l40-10Z"></path></svg>