<svg xmlns="http://www.w3.org/2000/svg" xmlns:xlink="http://www.w3.org/1999/xlink" aria-hidden="true" role="img" class="iconify iconify--ph" width="1em" height="1em" preserveAspectRatio="xMidYMid meet" viewBox="0 0 256 256"><path fill="currentColor" d="M200.1 55.9A102 102 0 1 0 55.9 200.1A102 102 0 1 0 200.1 55.9ZM86 207.6V176a2 2 0 0 1 2-2h80a2 2 0 0 1 2 2v31.6a90 90 0 0 1-84 0Zm18-65.6h48a2 2 0 0 1 2 2v18h-52v-18a2 2 0 0 1 2-2Zm11.5-12L126 79.6a2.1 2.1 0 0 1 4 0l10.5 50.4Zm76.1 61.6a76 76 0 0 1-9.6 8.4v-24a14 14 0 0 0-14-14h-2v-18a14 14 0 0 0-13.3-14l-11-52.9a14 14 0 0 0-27.4 0l-11 52.9A14 14 0 0 0 90 144v18h-2a14 14 0 0 0-14 14v24a76 76 0 0 1-9.6-8.4a90 90 0 1 1 127.2 0Z"></path></svg>