<svg xmlns="http://www.w3.org/2000/svg" xmlns:xlink="http://www.w3.org/1999/xlink" aria-hidden="true" role="img" class="iconify iconify--ph" width="1em" height="1em" preserveAspectRatio="xMidYMid meet" viewBox="0 0 256 256"><path fill="currentColor" d="M201.5 54.5a103.8 103.8 0 0 0-147 0a103.8 103.8 0 0 0 0 147a103.8 103.8 0 0 0 147 0a103.8 103.8 0 0 0 0-147ZM168 206.4a88.8 88.8 0 0 1-80 0V176h80ZM104 160v-24h48v24Zm86.2 30.2c-2 2-4.1 3.9-6.2 5.7V176a16 16 0 0 0-16-16v-24a16 16 0 0 0-13.7-15.8l-10.7-46.9a16 16 0 0 0-31.2 0l-10.7 46.9A16 16 0 0 0 88 136v24a16 16 0 0 0-16 16v19.9c-2.1-1.8-4.2-3.7-6.2-5.7a88 88 0 1 1 124.4 0Z"></path></svg>