<svg xmlns="http://www.w3.org/2000/svg" xmlns:xlink="http://www.w3.org/1999/xlink" aria-hidden="true" role="img" class="iconify iconify--ph" width="1em" height="1em" preserveAspectRatio="xMidYMid meet" viewBox="0 0 256 256"><path fill="currentColor" d="M198.7 57.3A100 100 0 1 0 57.3 198.7A100 100 0 1 0 198.7 57.3ZM84 208.8V176a4 4 0 0 1 4-4h80a4 4 0 0 1 4 4v32.8a92 92 0 0 1-88 0Zm24.1-68.8H152a4 4 0 0 1 4 4v20h-56v-20a4 4 0 0 1 4-4Zm5-8l11-52.8a4 4 0 0 1 7.8 0l11 52.8Zm80 61.1a102.9 102.9 0 0 1-13.1 10.8V176a12 12 0 0 0-12-12h-4v-20a12 12 0 0 0-12-12h-.9l-11.4-54.4a11.9 11.9 0 0 0-23.4 0L104.9 132h-.9a12 12 0 0 0-12 12v20h-4a12 12 0 0 0-12 12v27.9a102.9 102.9 0 0 1-13.1-10.8a92 92 0 1 1 130.2 0Z"></path></svg>