<svg xmlns="http://www.w3.org/2000/svg" xmlns:xlink="http://www.w3.org/1999/xlink" aria-hidden="true" role="img" class="iconify iconify--ph" width="1em" height="1em" preserveAspectRatio="xMidYMid meet" viewBox="0 0 256 256"><path fill="currentColor" d="M176 211.2a96 96 0 1 0-96 0V176a8 8 0 0 1 8-8h8v-24a8 8 0 0 1 8-8h4.2l12-57.6c1.7-8.5 13.9-8.5 15.6 0l12 57.6h4.2a8 8 0 0 1 8 8v24h8a8 8 0 0 1 8 8v35.2Z" opacity=".2"></path><path fill="currentColor" d="M201.5 54.5a103.8 103.8 0 0 0-147 0a103.8 103.8 0 0 0 0 147a103.8 103.8 0 0 0 147 0a103.8 103.8 0 0 0 0-147ZM88 206.4V176h80v30.4a88.8 88.8 0 0 1-80 0Zm16-62.4h48v16h-48Zm14-16l10-48l10 48Zm72.2 62.2c-2 2-4.1 3.9-6.2 5.7V176a16 16 0 0 0-16-16v-16a16 16 0 0 0-13.6-15.8l-10.7-51.5a16.1 16.1 0 0 0-31.4 0l-10.7 51.5A16 16 0 0 0 88 144v16a16 16 0 0 0-16 16v19.9c-2.1-1.8-4.2-3.7-6.2-5.7a88 88 0 1 1 124.4 0Z"></path></svg>