<svg xmlns="http://www.w3.org/2000/svg" xmlns:xlink="http://www.w3.org/1999/xlink" aria-hidden="true" role="img" class="iconify iconify--ph" width="1em" height="1em" preserveAspectRatio="xMidYMid meet" viewBox="0 0 256 256"><path fill="currentColor" d="M204.4 204.4a108 108 0 1 0-152.8 0a111.4 111.4 0 0 0 22.1 17l.8.4a108.5 108.5 0 0 0 107 0l.7-.4a112 112 0 0 0 22.2-17ZM108 156v-16h40v16Zm-64-28a84 84 0 1 1 144 58.8V176a20.1 20.1 0 0 0-16-19.6V136a20 20 0 0 0-14.9-19.3l-9.8-35.5a20.1 20.1 0 0 0-38.6 0l-9.8 35.5A20 20 0 0 0 84 136v20.4A20.1 20.1 0 0 0 68 176v10.8A83.5 83.5 0 0 1 44 128Zm48 75.9V180h72v23.9a84.8 84.8 0 0 1-72 0Z"></path></svg>