<svg xmlns="http://www.w3.org/2000/svg" xmlns:xlink="http://www.w3.org/1999/xlink" aria-hidden="true" role="img" class="iconify iconify--ph" width="1em" height="1em" preserveAspectRatio="xMidYMid meet" viewBox="0 0 256 256"><path fill="currentColor" d="M56 72h144l-72 72l-72-72z" opacity=".2"></path><path fill="currentColor" d="M237.7 45.7a8.4 8.4 0 0 0 1.7-8.8A8 8 0 0 0 232 32H24a8 8 0 0 0-7.4 4.9a8.4 8.4 0 0 0 1.7 8.8L120 147.3V208H88a8 8 0 0 0 0 16h80a8 8 0 0 0 0-16h-32v-60.7ZM75.3 80h105.4L128 132.7Zm137.4-32l-16 16H59.3l-16-16Z"></path></svg>