<svg xmlns="http://www.w3.org/2000/svg" xmlns:xlink="http://www.w3.org/1999/xlink" aria-hidden="true" role="img" class="iconify iconify--ph" width="1em" height="1em" preserveAspectRatio="xMidYMid meet" viewBox="0 0 256 256"><path fill="currentColor" d="M187.8 122.7a8 8 0 0 1-.6 11.3a8.1 8.1 0 0 1-5.3 2a8 8 0 0 1-6-2.7a16 16 0 0 0-23.8 0a8 8 0 0 1-11.3.7a8 8 0 0 1-.6-11.3a31.8 31.8 0 0 1 47.6 0Zm-83.9 10.6a8 8 0 0 0 6 2.7a8.1 8.1 0 0 0 5.3-2a8 8 0 0 0 .6-11.3a31.8 31.8 0 0 0-47.6 0a8 8 0 0 0 .6 11.3a8 8 0 0 0 11.3-.7a16 16 0 0 1 23.8 0Zm46.2 36a39.8 39.8 0 0 1-44.2 0a8 8 0 0 0-11.1 2.3a8.1 8.1 0 0 0 2.2 11.1a56.3 56.3 0 0 0 62 0a8.1 8.1 0 0 0 2.2-11.1a8 8 0 0 0-11.1-2.3Zm73.9-121V104c0 35.8-9.7 69.5-27.2 95s-42.6 41-68.8 41s-50.7-14.5-68.8-41S32 139.8 32 104V48.3a16 16 0 0 1 21.8-14.9C67.8 38.9 96.2 48 128 48s60.2-9.1 74.2-14.6A16 16 0 0 1 224 48.3Zm-16 0C192.9 54.2 162.4 64 128 64s-64.9-9.8-80-15.7V104c0 32.6 8.7 63.1 24.4 86s34.8 34 55.6 34s40.5-12.1 55.6-34s24.4-53.4 24.4-86Z"></path></svg>