<svg xmlns="http://www.w3.org/2000/svg" xmlns:xlink="http://www.w3.org/1999/xlink" aria-hidden="true" role="img" class="iconify iconify--ph" width="1em" height="1em" preserveAspectRatio="xMidYMid meet" viewBox="0 0 256 256"><path fill="currentColor" d="M217 35.1a15.9 15.9 0 0 0-14.8-1.7C188.2 38.9 159.8 48 128 48s-60.2-9.1-74.2-14.6A16 16 0 0 0 32 48.3V104c0 35.8 9.7 69.5 27.2 95s42.6 41 68.8 41s50.7-14.5 68.8-41s27.2-59.2 27.2-95V48.3a15.9 15.9 0 0 0-7-13.2ZM68.2 125.3a8 8 0 0 1 .6-11.3a8 8 0 0 1 11.3.7a16 16 0 0 0 23.8 0a8 8 0 0 1 11.3-.7a8 8 0 0 1 .6 11.3a31.8 31.8 0 0 1-47.6 0Zm93 63.1a8.1 8.1 0 0 1-11.1 2.3a39.8 39.8 0 0 0-44.2 0a8 8 0 0 1-11.1-2.3a8.1 8.1 0 0 1 2.2-11.1a56.3 56.3 0 0 1 62 0a8.1 8.1 0 0 1 2.2 11.1Zm26.6-63.1a31.8 31.8 0 0 1-47.6 0a8 8 0 0 1 .6-11.3a8 8 0 0 1 11.3.7a16 16 0 0 0 23.8 0a8 8 0 0 1 11.3-.7a8 8 0 0 1 .6 11.3Z"></path></svg>