<svg xmlns="http://www.w3.org/2000/svg" xmlns:xlink="http://www.w3.org/1999/xlink" aria-hidden="true" role="img" class="iconify iconify--ph" width="1em" height="1em" preserveAspectRatio="xMidYMid meet" viewBox="0 0 256 256"><path fill="currentColor" d="M108 184a4 4 0 0 1-4 4H76v28a4 4 0 0 1-8 0v-28H40a4 4 0 0 1 0-8h28v-28a4 4 0 0 1 8 0v28h28a4 4 0 0 1 4 4Zm-4-116H40a4 4 0 0 0 0 8h64a4 4 0 0 0 0-8Zm48 104.1h64a4 4 0 0 0 0-8h-64a4 4 0 0 0 0 8Zm64 23.8h-64a4 4 0 0 0 0 8h64a4 4 0 0 0 0-8Zm-58.8-97.1a3.9 3.9 0 0 0 5.6 0L184 77.7l21.2 21.1a3.9 3.9 0 0 0 5.6 0a3.9 3.9 0 0 0 0-5.6L189.7 72l21.1-21.2a4 4 0 1 0-5.6-5.6L184 66.3l-21.2-21.1a4 4 0 0 0-5.6 5.6L178.3 72l-21.1 21.2a3.9 3.9 0 0 0 0 5.6Z"></path></svg>