<svg xmlns="http://www.w3.org/2000/svg" xmlns:xlink="http://www.w3.org/1999/xlink" aria-hidden="true" role="img" class="iconify iconify--ph" width="1em" height="1em" preserveAspectRatio="xMidYMid meet" viewBox="0 0 256 256"><path fill="currentColor" d="M110 184a6 6 0 0 1-6 6H78v26a6 6 0 0 1-12 0v-26H40a6 6 0 0 1 0-12h26v-26a6 6 0 0 1 12 0v26h26a6 6 0 0 1 6 6Zm-6-118H40a6 6 0 0 0 0 12h64a6 6 0 0 0 0-12Zm48 108.1h64a6 6 0 0 0 0-12h-64a6 6 0 0 0 0 12Zm64 19.8h-64a6 6 0 0 0 0 12h64a6 6 0 0 0 0-12Zm-60.2-93.7a5.8 5.8 0 0 0 8.4 0L184 80.5l19.8 19.7a5.9 5.9 0 1 0 8.4-8.4L192.5 72l19.7-19.8a5.9 5.9 0 0 0-8.4-8.4L184 63.5l-19.8-19.7a5.9 5.9 0 0 0-8.4 8.4L175.5 72l-19.7 19.8a5.8 5.8 0 0 0 0 8.4Z"></path></svg>