<svg xmlns="http://www.w3.org/2000/svg" xmlns:xlink="http://www.w3.org/1999/xlink" aria-hidden="true" role="img" class="iconify iconify--ph" width="1em" height="1em" preserveAspectRatio="xMidYMid meet" viewBox="0 0 256 256"><path fill="currentColor" d="M214 96a86 86 0 1 0-140 66.9V240a6.1 6.1 0 0 0 2.8 5.1a6.2 6.2 0 0 0 5.9.3l45.3-22.7l45.3 22.7a6.6 6.6 0 0 0 2.7.6a6.2 6.2 0 0 0 3.2-.9a6.1 6.1 0 0 0 2.8-5.1v-77.1A85.9 85.9 0 0 0 214 96ZM54 96a74 74 0 1 1 74 74a74.1 74.1 0 0 1-74-74Zm116 134.3l-39.3-19.7a6.4 6.4 0 0 0-5.4 0L86 230.3V171a85.7 85.7 0 0 0 84 0ZM128 150a54 54 0 1 0-54-54a54 54 0 0 0 54 54Zm0-96a42 42 0 1 1-42 42a42 42 0 0 1 42-42Z"></path></svg>