<svg xmlns="http://www.w3.org/2000/svg" xmlns:xlink="http://www.w3.org/1999/xlink" aria-hidden="true" role="img" class="iconify iconify--ph" width="1em" height="1em" preserveAspectRatio="xMidYMid meet" viewBox="0 0 256 256"><circle cx="128" cy="96" r="48" fill="currentColor" opacity=".2"></circle><path fill="currentColor" d="M216 96a88 88 0 1 0-144 67.8V240a7.9 7.9 0 0 0 3.8 6.8a8 8 0 0 0 7.8.4l44.4-22.3l44.4 22.3a9.4 9.4 0 0 0 3.6.8a8 8 0 0 0 8-8v-76.2A87.8 87.8 0 0 0 216 96ZM56 96a72 72 0 1 1 72 72a72.1 72.1 0 0 1-72-72Zm112 131.1l-36.4-18.3a8.3 8.3 0 0 0-7.2 0L88 227.1v-52.7a88.1 88.1 0 0 0 80 0Z"></path><path fill="currentColor" d="M128 152a56 56 0 1 0-56-56a56 56 0 0 0 56 56Zm0-96a40 40 0 1 1-40 40a40.1 40.1 0 0 1 40-40Z"></path></svg>