<svg xmlns="http://www.w3.org/2000/svg" xmlns:xlink="http://www.w3.org/1999/xlink" aria-hidden="true" role="img" class="iconify iconify--ph" width="1em" height="1em" preserveAspectRatio="xMidYMid meet" viewBox="0 0 256 256"><path fill="currentColor" d="M212 96a84 84 0 1 0-136 65.9V240a3.9 3.9 0 0 0 1.9 3.4a4.1 4.1 0 0 0 3.9.2l46.2-23.1l46.2 23.1a4 4 0 0 0 5.8-3.6v-78.1A83.8 83.8 0 0 0 212 96Zm-40 137.5l-42.2-21.1a4.5 4.5 0 0 0-3.6 0L84 233.5v-66a83.7 83.7 0 0 0 88 0ZM128 172a76 76 0 1 1 76-76a76.1 76.1 0 0 1-76 76Zm0-128a52 52 0 1 0 52 52a52 52 0 0 0-52-52Zm0 96a44 44 0 1 1 44-44a44 44 0 0 1-44 44Z"></path></svg>