<svg xmlns="http://www.w3.org/2000/svg" xmlns:xlink="http://www.w3.org/1999/xlink" aria-hidden="true" role="img" class="iconify iconify--ph" width="1em" height="1em" preserveAspectRatio="xMidYMid meet" viewBox="0 0 256 256"><path fill="currentColor" d="M184 96a56 56 0 1 1-56-56a56 56 0 0 1 56 56Zm32 0a87.8 87.8 0 0 1-32 67.8V240a8 8 0 0 1-8 8a9.4 9.4 0 0 1-3.6-.8L128 224.9l-44.4 22.3a8 8 0 0 1-7.8-.4A7.9 7.9 0 0 1 72 240v-76.2A88 88 0 1 1 216 96Zm-16 0a72 72 0 1 0-72 72a72.1 72.1 0 0 0 72-72Z"></path></svg>