<svg xmlns="http://www.w3.org/2000/svg" xmlns:xlink="http://www.w3.org/1999/xlink" aria-hidden="true" role="img" class="iconify iconify--ph" width="1em" height="1em" preserveAspectRatio="xMidYMid meet" viewBox="0 0 256 256"><path fill="currentColor" d="M220 96a92 92 0 1 0-152 69.7V240a12 12 0 0 0 5.7 10.2a11.9 11.9 0 0 0 11.7.5l42.6-21.3l42.6 21.3a11.6 11.6 0 0 0 5.4 1.3a11.8 11.8 0 0 0 6.3-1.8A12 12 0 0 0 188 240v-74.3A91.9 91.9 0 0 0 220 96ZM60 96a68 68 0 1 1 68 68a68.1 68.1 0 0 1-68-68Zm104 124.6l-30.6-15.3a12.1 12.1 0 0 0-10.8 0L92 220.6v-39.9a92.4 92.4 0 0 0 72 0ZM128 148a52 52 0 1 0-52-52a52 52 0 0 0 52 52Zm0-80a28 28 0 1 1-28 28a28.1 28.1 0 0 1 28-28Z"></path></svg>