<svg xmlns="http://www.w3.org/2000/svg" xmlns:xlink="http://www.w3.org/1999/xlink" aria-hidden="true" role="img" class="iconify iconify--ph" width="1em" height="1em" preserveAspectRatio="xMidYMid meet" viewBox="0 0 256 256"><path fill="currentColor" d="M240 120a48 48 0 0 0-48-48h-40c-.5 0-52.4-.7-101.7-42.1a15.9 15.9 0 0 0-17.1-2.2A15.7 15.7 0 0 0 24 42.2v155.6a15.7 15.7 0 0 0 9.2 14.5a16.4 16.4 0 0 0 6.8 1.5a15.9 15.9 0 0 0 10.3-3.7c37.9-31.8 77.2-39.6 93.7-41.5v35.1a15.9 15.9 0 0 0 7.1 13.3l11 7.4a16.8 16.8 0 0 0 14.7 1.6a15.9 15.9 0 0 0 9.7-11.1l11.9-47.3A48.2 48.2 0 0 0 240 120ZM40 197.8V42.2C82.7 78 126.4 85.8 144 87.5v65c-17.6 1.7-61.3 9.5-104 45.3ZM171 211l-11-7.3V168h21.8Zm21-59h-32V88h32a32 32 0 0 1 0 64Z"></path></svg>