<svg xmlns="http://www.w3.org/2000/svg" xmlns:xlink="http://www.w3.org/1999/xlink" aria-hidden="true" role="img" class="iconify iconify--ph" width="1em" height="1em" preserveAspectRatio="xMidYMid meet" viewBox="0 0 256 256"><path fill="currentColor" d="m219.9 88.6l-82.1-24l-93.9-27.4a14 14 0 0 0-12.3 2.3A13.6 13.6 0 0 0 26 50.7v138.6a14 14 0 0 0 14 14a13.1 13.1 0 0 0 3.9-.5l86.1-25.1V192a14 14 0 0 0 14 14h32a14 14 0 0 0 14-14v-31.8l29.9-8.8A13.9 13.9 0 0 0 230 138v-36a13.9 13.9 0 0 0-10.1-13.4ZM40.6 191.3a2.1 2.1 0 0 1-2.6-2V50.7a1.9 1.9 0 0 1 .8-1.6a1.7 1.7 0 0 1 1.2-.4h.6L130 74.8v90.4Zm137.4.7a2 2 0 0 1-2 2h-32a2 2 0 0 1-2-2v-17.8l36-10.5Zm40-54a2 2 0 0 1-1.4 1.9l-34.4 10l-40.2 11.8V78.3l74.6 21.8a2 2 0 0 1 1.4 1.9Z"></path></svg>