<svg xmlns="http://www.w3.org/2000/svg" xmlns:xlink="http://www.w3.org/1999/xlink" aria-hidden="true" role="img" class="iconify iconify--ph" width="1em" height="1em" preserveAspectRatio="xMidYMid meet" viewBox="0 0 256 256"><path fill="currentColor" d="M236 120a44 44 0 0 0-44-44h-40c-.5 0-53.6-.5-104.3-43A12 12 0 0 0 28 42.2v155.6a12 12 0 0 0 6.9 10.9a11.7 11.7 0 0 0 5.1 1.1a11.6 11.6 0 0 0 7.7-2.8c42.6-35.7 87-41.8 100.3-42.8v39.5a12.1 12.1 0 0 0 5.3 10l11 7.3a11.7 11.7 0 0 0 6.7 2a10.6 10.6 0 0 0 4.3-.8a11.8 11.8 0 0 0 7.3-8.2l12.6-50.1A44.2 44.2 0 0 0 236 120ZM42.6 200.9a3.9 3.9 0 0 1-4.3.5a3.8 3.8 0 0 1-2.3-3.6V42.2a3.8 3.8 0 0 1 2.3-3.6a3.4 3.4 0 0 1 1.8-.4a4 4 0 0 1 2.5.9C87.9 77.2 134.3 83 148 83.8v72.4c-13.7.8-60.1 6.6-105.4 44.7ZM174.9 212a3.9 3.9 0 0 1-2.5 2.8a3.9 3.9 0 0 1-3.6-.4l-11-7.4a3.9 3.9 0 0 1-1.8-3.3V164h30.9Zm17.1-56h-36V84h36a36 36 0 0 1 0 72Z"></path></svg>