<svg xmlns="http://www.w3.org/2000/svg" xmlns:xlink="http://www.w3.org/1999/xlink" aria-hidden="true" role="img" class="iconify iconify--ph" width="1em" height="1em" preserveAspectRatio="xMidYMid meet" viewBox="0 0 256 256"><path fill="currentColor" d="M238 120a46 46 0 0 0-46-46h-40c-.5 0-52.8-.5-103-42.5a14 14 0 0 0-23 10.7v155.6a13.9 13.9 0 0 0 8.1 12.7a13.7 13.7 0 0 0 5.9 1.3a13.9 13.9 0 0 0 9-3.3c40.1-33.6 81.8-40.6 97-42.1v37.3a14 14 0 0 0 6.2 11.7l11 7.3a14.8 14.8 0 0 0 7.8 2.3a14.3 14.3 0 0 0 5-.9a13.8 13.8 0 0 0 8.6-9.7l12.1-48.6A46.1 46.1 0 0 0 238 120ZM41.3 199.4a2 2 0 0 1-2.2.2a1.9 1.9 0 0 1-1.1-1.8V42.2a1.9 1.9 0 0 1 1.1-1.8l.9-.2a1.8 1.8 0 0 1 1.3.5c43.9 36.8 88.8 43.7 104.7 45v68.6c-15.9 1.3-60.8 8.2-104.7 45.1Zm131.6 12.1a2 2 0 0 1-3 1.2l-11-7.3a2 2 0 0 1-.9-1.7V166h26.3ZM192 154h-34V86h34a34 34 0 0 1 0 68Z"></path></svg>