<svg xmlns="http://www.w3.org/2000/svg" xmlns:xlink="http://www.w3.org/1999/xlink" aria-hidden="true" role="img" class="iconify iconify--ph" width="1em" height="1em" preserveAspectRatio="xMidYMid meet" viewBox="0 0 256 256"><path fill="currentColor" d="m219.4 90.5l-176-51.4A12.1 12.1 0 0 0 28 50.7v138.6a12.1 12.1 0 0 0 4.8 9.6a11.8 11.8 0 0 0 7.2 2.4a13.7 13.7 0 0 0 3.4-.4L132 175v17a12 12 0 0 0 12 12h32a12 12 0 0 0 12-12v-33.3l31.4-9.2A12.1 12.1 0 0 0 228 138v-36a12.1 12.1 0 0 0-8.6-11.5ZM41.1 193.2a4 4 0 0 1-3.5-.7a3.9 3.9 0 0 1-1.6-3.2V50.7a3.9 3.9 0 0 1 1.6-3.2a3.5 3.5 0 0 1 2.4-.8h1.1L132 73.3v93.4ZM180 192a4 4 0 0 1-4 4h-32a4 4 0 0 1-4-4v-19.3l40-11.7Zm40-54a4 4 0 0 1-2.9 3.8L140 164.3V75.7l77.1 22.5a4 4 0 0 1 2.9 3.8Z"></path></svg>