<svg xmlns="http://www.w3.org/2000/svg" xmlns:xlink="http://www.w3.org/1999/xlink" aria-hidden="true" role="img" class="iconify iconify--ph" width="1em" height="1em" preserveAspectRatio="xMidYMid meet" viewBox="0 0 256 256"><path fill="currentColor" d="m220.5 86.6l-82.1-23.9h-.1L44.5 35.3a15.8 15.8 0 0 0-14.1 2.6A15.7 15.7 0 0 0 24 50.7v138.6a15.7 15.7 0 0 0 6.4 12.8a16.1 16.1 0 0 0 9.6 3.2a17.4 17.4 0 0 0 4.5-.6l83.5-24.4V192a16 16 0 0 0 16 16h32a16 16 0 0 0 16-16v-30.3l28.5-8.3A16.1 16.1 0 0 0 232 138v-36a16.1 16.1 0 0 0-11.5-15.4ZM40 189.3V50.7l88 25.6v87.4Zm136 2.7h-32v-16.3l32-9.4Zm40-54l-34.4 10l-37.6 11V81l72 21Z"></path></svg>