<svg xmlns="http://www.w3.org/2000/svg" xmlns:xlink="http://www.w3.org/1999/xlink" aria-hidden="true" role="img" class="iconify iconify--ph" width="1em" height="1em" preserveAspectRatio="xMidYMid meet" viewBox="0 0 256 256"><path fill="currentColor" d="M244 120a52 52 0 0 0-52-52h-40c-.5 0-51-.8-99.1-41.1A20 20 0 0 0 20 42.2v155.6a19.7 19.7 0 0 0 11.5 18.1a20.3 20.3 0 0 0 8.5 2a19.7 19.7 0 0 0 12.9-4.8a180.1 180.1 0 0 1 79.1-38.5v28.5a19.7 19.7 0 0 0 11.1 17.8l18.6 9.4a20.2 20.2 0 0 0 17.3.3a19.9 19.9 0 0 0 11.1-13.4l11.5-46.1A52.1 52.1 0 0 0 244 120ZM44 189.5v-139a200.9 200.9 0 0 0 88 39.4v60.2a200.9 200.9 0 0 0-88 39.4Zm124 17.1l-12-6V172h20.6Zm24-58.6h-36V92h36a28 28 0 0 1 0 56Z"></path></svg>