<svg xmlns="http://www.w3.org/2000/svg" xmlns:xlink="http://www.w3.org/1999/xlink" aria-hidden="true" role="img" class="iconify iconify--ph" width="1em" height="1em" preserveAspectRatio="xMidYMid meet" viewBox="0 0 256 256"><path fill="currentColor" d="m221.6 82.8l-82-23.9h-.1L45.6 31.5A20 20 0 0 0 20 50.7v138.6a19.7 19.7 0 0 0 8 16a19.4 19.4 0 0 0 11.9 4a18.7 18.7 0 0 0 5.7-.8l78.4-22.8v6.3a20.1 20.1 0 0 0 20 20h32a20.1 20.1 0 0 0 20-20v-27.3l25.6-7.5A20.1 20.1 0 0 0 236 138v-36a20.1 20.1 0 0 0-14.4-19.2ZM44 184V56l80 23.3v81.4Zm128 4h-24v-9.3l24-7Zm40-53l-31.5 9.2h-.1l-32.4 9.5V86.3l64 18.7Z"></path></svg>