<svg xmlns="http://www.w3.org/2000/svg" xmlns:xlink="http://www.w3.org/1999/xlink" aria-hidden="true" role="img" class="iconify iconify--ph" width="1em" height="1em" preserveAspectRatio="xMidYMid meet" viewBox="0 0 256 256"><path fill="currentColor" d="M128 24a104 104 0 0 0-91.2 154l-8.5 30A15.9 15.9 0 0 0 48 227.7l30-8.5A104 104 0 1 0 128 24Zm53.7 93.7l-32 32a8.2 8.2 0 0 1-11.4 0L112 123.3l-26.3 26.4a8.1 8.1 0 0 1-11.4-11.4l32-32a8.1 8.1 0 0 1 11.4 0l26.3 26.4l26.3-26.4a8.1 8.1 0 0 1 11.4 11.4Z"></path></svg>