<svg xmlns="http://www.w3.org/2000/svg" xmlns:xlink="http://www.w3.org/1999/xlink" aria-hidden="true" role="img" class="iconify iconify--ph" width="1em" height="1em" preserveAspectRatio="xMidYMid meet" viewBox="0 0 256 256"><path fill="currentColor" d="M224 128a96.1 96.1 0 0 1-145 82.6L45.8 220a7.9 7.9 0 0 1-9.8-9.8l9.4-33.2A96 96 0 1 1 224 128Z" opacity=".2"></path><path fill="currentColor" d="M128 24a104 104 0 0 0-91.2 154l-8.5 30A15.9 15.9 0 0 0 48 227.7l30-8.5A104 104 0 1 0 128 24Zm0 192a88.4 88.4 0 0 1-44.9-12.3a8.7 8.7 0 0 0-4.1-1.1a8.3 8.3 0 0 0-2.2.3l-33.2 9.5l9.5-33.2a8.2 8.2 0 0 0-.8-6.3A88 88 0 1 1 128 216Zm53.7-109.7a8.1 8.1 0 0 1 0 11.4l-32 32a8.2 8.2 0 0 1-11.4 0L112 123.3l-26.3 26.4a8.1 8.1 0 0 1-11.4-11.4l32-32a8.1 8.1 0 0 1 11.4 0l26.3 26.4l26.3-26.4a8.1 8.1 0 0 1 11.4 0Z"></path></svg>