<svg xmlns="http://www.w3.org/2000/svg" xmlns:xlink="http://www.w3.org/1999/xlink" aria-hidden="true" role="img" class="iconify iconify--ph" width="1em" height="1em" preserveAspectRatio="xMidYMid meet" viewBox="0 0 256 256"><path fill="currentColor" d="M216.3 135.8a68 68 0 0 0-96.1-96.1l-.3.2c-.1.1-.2.2-.2.3A67.7 67.7 0 0 0 100 88a64 64 0 0 0 .6 8.8L24.8 200.1a12 12 0 0 0 1.2 15.6L40.3 230a12.1 12.1 0 0 0 15.6 1.2l103.3-75.8a64 64 0 0 0 8.8.6a67.7 67.7 0 0 0 47.8-19.7l.3-.2ZM228 88a59.7 59.7 0 0 1-14.9 39.5l-84.6-84.6A59.9 59.9 0 0 1 228 88ZM51.2 224.7a4 4 0 0 1-5.2-.4L31.7 210a4 4 0 0 1-.4-5.2l71.5-97.5a68.2 68.2 0 0 0 45.9 45.9ZM108 88a59.7 59.7 0 0 1 14.9-39.5l84.6 84.6A59.9 59.9 0 0 1 108 88Zm-5.2 65.2a3.9 3.9 0 0 1 0 5.6l-12 12a3.9 3.9 0 0 1-5.6 0a3.9 3.9 0 0 1 0-5.6l12-12a3.9 3.9 0 0 1 5.6 0Z"></path></svg>