<svg xmlns="http://www.w3.org/2000/svg" xmlns:xlink="http://www.w3.org/1999/xlink" aria-hidden="true" role="img" class="iconify iconify--ph" width="1em" height="1em" preserveAspectRatio="xMidYMid meet" viewBox="0 0 256 256"><path fill="currentColor" d="M126 104a12 12 0 0 1-12 12h-6v36a12 12 0 0 1-24 0v-36h-6a12 12 0 0 1 0-24h36a12 12 0 0 1 12 12Zm106-16v80a68 68 0 0 1-128 32H40a20.1 20.1 0 0 1-20-20V76a20.1 20.1 0 0 1 20-20h80a44 44 0 0 1 88 0a43.4 43.4 0 0 1-4.8 20H220a12 12 0 0 1 12 12Zm-88-32h8a20 20 0 0 1 19.9 18.4A20 20 0 1 0 144 56ZM44 176h104V80H44Zm164-76h-36v80a20.1 20.1 0 0 1-20 20h-18.1a43.9 43.9 0 0 0 74.1-32Z"></path></svg>