<svg xmlns="http://www.w3.org/2000/svg" xmlns:xlink="http://www.w3.org/1999/xlink" aria-hidden="true" role="img" class="iconify iconify--ph" width="1em" height="1em" preserveAspectRatio="xMidYMid meet" viewBox="0 0 256 256"><path fill="currentColor" d="M152 80v96a8 8 0 0 1-8 8H40a8 8 0 0 1-8-8V80a8 8 0 0 1 8-8h104a8 8 0 0 1 8 8Z" opacity=".2"></path><path fill="currentColor" d="M200 24H72a16 16 0 0 0-16 16v24H40a16 16 0 0 0-16 16v96a16 16 0 0 0 16 16h16v24a16 16 0 0 0 16 16h128a16 16 0 0 0 16-16V40a16 16 0 0 0-16-16Zm-40 80h40v48h-40Zm40-16h-40v-8a16 16 0 0 0-16-16V40h56ZM72 40h56v24H72ZM40 80h104v96H40Zm32 112h56v24H72Zm72 24v-24a16 16 0 0 0 16-16v-8h40v48Zm-76.4-68.8L82 128l-14.4-19.2a8 8 0 1 1 12.8-9.6L92 114.7l11.6-15.5a8 8 0 0 1 12.8 9.6L102 128l14.4 19.2a8 8 0 0 1-1.6 11.2a7.7 7.7 0 0 1-4.8 1.6a8 8 0 0 1-6.4-3.2L92 141.3l-11.6 15.5A8 8 0 0 1 74 160a7.7 7.7 0 0 1-4.8-1.6a8 8 0 0 1-1.6-11.2Z"></path></svg>