<svg xmlns="http://www.w3.org/2000/svg" xmlns:xlink="http://www.w3.org/1999/xlink" aria-hidden="true" role="img" class="iconify iconify--ph" width="1em" height="1em" preserveAspectRatio="xMidYMid meet" viewBox="0 0 256 256"><path fill="currentColor" d="M115 46.4a4 4 0 0 0-6.1.5A71.9 71.9 0 0 0 96 88a65.1 65.1 0 0 0 .4 7.7l-74.8 102a16 16 0 0 0 1.6 20.8l14.3 14.3a16 16 0 0 0 20.8 1.6l102-74.8a65.1 65.1 0 0 0 7.7.4a71.9 71.9 0 0 0 41.1-12.9a4 4 0 0 0 .5-6.1Zm-1.3 107.3l-20 20a8.2 8.2 0 0 1-11.4 0a8.1 8.1 0 0 1 0-11.4l20-20a8.1 8.1 0 0 1 11.4 11.4Zm113.4-24.6a4 4 0 0 1-6.1.5L126.4 35a4 4 0 0 1 .5-6.1a72 72 0 0 1 100.2 100.2Z"></path></svg>