<svg xmlns="http://www.w3.org/2000/svg" xmlns:xlink="http://www.w3.org/1999/xlink" aria-hidden="true" role="img" class="iconify iconify--ph" width="1em" height="1em" preserveAspectRatio="xMidYMid meet" viewBox="0 0 256 256"><path fill="currentColor" d="M102 120a8 8 0 0 0-8-8h-8v16h8a8 8 0 0 0 8-8Z"></path><path fill="currentColor" d="M136 24a104.5 104.5 0 0 0-82 40H40a16 16 0 0 0-16 16v96a16 16 0 0 0 16 16h14a104 104 0 1 0 82-168ZM70 152v-48a8 8 0 0 1 8-8h16a24 24 0 0 1 0 48h-8v8a8 8 0 0 1-16 0Zm58 63.6A88.7 88.7 0 0 1 75.6 192H128ZM128 64H75.6A88.7 88.7 0 0 1 128 40.4Zm16-23.6a88 88 0 0 1 79.6 79.6H160V80a16 16 0 0 0-16-16Zm0 175.2V192a16 16 0 0 0 16-16v-40h63.6a88 88 0 0 1-79.6 79.6Z"></path></svg>