<svg xmlns="http://www.w3.org/2000/svg" xmlns:xlink="http://www.w3.org/1999/xlink" aria-hidden="true" role="img" class="iconify iconify--ph" width="1em" height="1em" preserveAspectRatio="xMidYMid meet" viewBox="0 0 256 256"><path fill="currentColor" d="M200 28H72a12 12 0 0 0-12 12v28H40a12 12 0 0 0-12 12v96a12 12 0 0 0 12 12h20v28a12 12 0 0 0 12 12h128a12 12 0 0 0 12-12V40a12 12 0 0 0-12-12Zm-44 72h48v56h-48Zm48-60v52h-48V80a12 12 0 0 0-12-12h-4V36h60a4 4 0 0 1 4 4ZM68 40a4 4 0 0 1 4-4h60v32H68ZM36 176V80a4 4 0 0 1 4-4h104a4 4 0 0 1 4 4v96a4 4 0 0 1-4 4H40a4 4 0 0 1-4-4Zm32 40v-28h64v32H72a4 4 0 0 1-4-4Zm132 4h-60v-32h4a12 12 0 0 0 12-12v-12h48v52a4 4 0 0 1-4 4ZM70.8 149.6L87 128l-16.2-21.6a4 4 0 0 1 6.4-4.8L92 121.3l14.8-19.7a4 4 0 1 1 6.4 4.8L97 128l16.2 21.6a4 4 0 0 1-.8 5.6a4.3 4.3 0 0 1-2.4.8a4.2 4.2 0 0 1-3.2-1.6L92 134.7l-14.8 19.7A4.2 4.2 0 0 1 74 156a4.3 4.3 0 0 1-2.4-.8a4 4 0 0 1-.8-5.6Z"></path></svg>