<svg xmlns="http://www.w3.org/2000/svg" xmlns:xlink="http://www.w3.org/1999/xlink" aria-hidden="true" role="img" class="iconify iconify--ph" width="1em" height="1em" preserveAspectRatio="xMidYMid meet" viewBox="0 0 256 256"><path fill="currentColor" d="M200 24H72a16 16 0 0 0-16 16v24H40a16 16 0 0 0-16 16v96a16 16 0 0 0 16 16h16v24a16 16 0 0 0 16 16h128a16 16 0 0 0 16-16V40a16 16 0 0 0-16-16ZM69.2 158.4a8 8 0 0 1-1.6-11.2L82 128l-14.4-19.2a8 8 0 1 1 12.8-9.6L92 114.7l11.6-15.5a8 8 0 0 1 12.8 9.6L102 128l14.4 19.2a8 8 0 0 1-1.6 11.2a7.7 7.7 0 0 1-4.8 1.6a8 8 0 0 1-6.4-3.2L92 141.3l-11.6 15.5A8 8 0 0 1 74 160a7.7 7.7 0 0 1-4.8-1.6ZM128 216H72v-24h56Zm0-152H72V40h56Zm72 152h-56v-24a16 16 0 0 0 16-16v-8h40Zm0-64h-40v-48h40Zm0-64h-40v-8a16 16 0 0 0-16-16V40h56Z"></path></svg>