<svg xmlns="http://www.w3.org/2000/svg" xmlns:xlink="http://www.w3.org/1999/xlink" aria-hidden="true" role="img" class="iconify iconify--ph" width="1em" height="1em" preserveAspectRatio="xMidYMid meet" viewBox="0 0 256 256"><path fill="currentColor" d="M74 112a8 8 0 0 1 0-16h36a8 8 0 0 1 0 16h-10v40a8 8 0 0 1-16 0v-40Zm158-19.3V152a40 40 0 0 1-36.6 39.8a64 64 0 0 1-118.7.2H40a16 16 0 0 1-16-16V80a16 16 0 0 1 16-16h56.8a42.6 42.6 0 0 1-.8-8a40 40 0 0 1 72.6-23.2A34 34 0 0 1 220 62a33.5 33.5 0 0 1-5.2 18h4.5A12.7 12.7 0 0 1 232 92.7Zm-56.9-45a37.7 37.7 0 0 1 .9 8.3a39.2 39.2 0 0 1-4 17.3A18 18 0 1 0 186 44a17.7 17.7 0 0 0-10.9 3.7ZM113.4 64H144a15.9 15.9 0 0 1 11.9 5.4A24.3 24.3 0 0 0 160 56a24 24 0 0 0-48 0a24.5 24.5 0 0 0 1.4 8ZM40 176h104V80H40Zm144-8V96h-24v80a16 16 0 0 1-16 16H94.4a48.5 48.5 0 0 0 41.6 24a48 48 0 0 0 48-48Zm32-72h-16v72a49.2 49.2 0 0 1-.4 6.7A24 24 0 0 0 216 152Z"></path></svg>