<svg xmlns="http://www.w3.org/2000/svg" xmlns:xlink="http://www.w3.org/1999/xlink" aria-hidden="true" role="img" class="iconify iconify--ph" width="1em" height="1em" preserveAspectRatio="xMidYMid meet" viewBox="0 0 256 256"><path fill="currentColor" d="M128 174a46 46 0 0 0 46-46V64a46 46 0 0 0-92 0v64a46 46 0 0 0 46 46ZM94 64a34 34 0 0 1 68 0v64a34 34 0 0 1-68 0Zm111.5 72.7a77.9 77.9 0 0 1-71.5 69.1V232a6 6 0 0 1-12 0v-26.2a77.9 77.9 0 0 1-71.5-69.1a6 6 0 1 1 11.9-1.4a66 66 0 0 0 131.2 0a6 6 0 1 1 11.9 1.4Z"></path></svg>