<svg xmlns="http://www.w3.org/2000/svg" xmlns:xlink="http://www.w3.org/1999/xlink" aria-hidden="true" role="img" class="iconify iconify--ph" width="1em" height="1em" preserveAspectRatio="xMidYMid meet" viewBox="0 0 256 256"><path fill="currentColor" d="M200 20H72a20.1 20.1 0 0 0-20 20v16H40a20.1 20.1 0 0 0-20 20v104a20.1 20.1 0 0 0 20 20h12v16a20.1 20.1 0 0 0 20 20h128a20.1 20.1 0 0 0 20-20V40a20.1 20.1 0 0 0-20-20Zm-28 88h24v40h-24ZM76 44h120v40h-24v-8a20.1 20.1 0 0 0-20-20H76ZM44 80h104v96H44Zm32 132v-12h76a20.1 20.1 0 0 0 20-20v-8h24v40Zm-7.6-57.1l-12-48a12 12 0 0 1 23.2-5.8l3.6 14.2l1.8-4.2a12.1 12.1 0 0 1 22 0l1.8 4.2l3.6-14.2a12 12 0 0 1 23.2 5.8l-12 48A12 12 0 0 1 113 164h-1a12.2 12.2 0 0 1-11-7.1l-5-11.4l-5 11.4a12 12 0 0 1-22.6-2Z"></path></svg>