<svg xmlns="http://www.w3.org/2000/svg" xmlns:xlink="http://www.w3.org/1999/xlink" aria-hidden="true" role="img" class="iconify iconify--ph" width="1em" height="1em" preserveAspectRatio="xMidYMid meet" viewBox="0 0 256 256"><path fill="currentColor" d="M193.3 164.3a5.7 5.7 0 0 1-2.5-.6a6 6 0 0 1-2.9-8a65.3 65.3 0 0 0 5.7-20.4a6 6 0 1 1 11.9 1.4a78 78 0 0 1-6.7 24.1a6 6 0 0 1-5.5 3.5Zm18.7 56.1a5.7 5.7 0 0 1-4 1.6a5.9 5.9 0 0 1-4.4-2l-27.7-30.4a78.1 78.1 0 0 1-41.9 16.2V232a6 6 0 0 1-12 0v-26.2a77.9 77.9 0 0 1-71.5-69.1a6 6 0 1 1 11.9-1.4a66.1 66.1 0 0 0 105.4 45.4l-13.6-14.9A46 46 0 0 1 82 128V86.3L43.6 44a5.9 5.9 0 0 1 8.8-8l106.9 117.6l53.1 58.4a5.8 5.8 0 0 1-.4 8.4Zm-65.9-63.6L94 99.5V128a34 34 0 0 0 52.1 28.8ZM90.8 48.1a6 6 0 0 0 8.3-2A33.6 33.6 0 0 1 128 30a34.1 34.1 0 0 1 34 34v60.4a6 6 0 0 0 12 0V64a46 46 0 0 0-85.1-24.2a6 6 0 0 0 1.9 8.3Z"></path></svg>