<svg xmlns="http://www.w3.org/2000/svg" xmlns:xlink="http://www.w3.org/1999/xlink" aria-hidden="true" role="img" class="iconify iconify--ph" width="1em" height="1em" preserveAspectRatio="xMidYMid meet" viewBox="0 0 256 256"><path fill="currentColor" d="M94 100H78a4 4 0 0 0-4 4v48a4 4 0 0 0 8 0v-12h12a20 20 0 0 0 0-40Zm0 32H82v-24h12a12 12 0 0 1 0 24Zm42-104a100.4 100.4 0 0 0-80 40H40a12 12 0 0 0-12 12v96a12 12 0 0 0 12 12h16a100 100 0 1 0 80-160Zm91.9 96H156V80a12 12 0 0 0-12-12h-4V36.1a92 92 0 0 1 87.9 87.9ZM132 36.1V68H66.3A91.9 91.9 0 0 1 132 36.1ZM36 176V80a4 4 0 0 1 4-4h104a4 4 0 0 1 4 4v96a4 4 0 0 1-4 4H40a4 4 0 0 1-4-4Zm30.3 12H132v31.9A91.9 91.9 0 0 1 66.3 188Zm73.7 31.9V188h4a12 12 0 0 0 12-12v-44h71.9a92 92 0 0 1-87.9 87.9Z"></path></svg>