<svg xmlns="http://www.w3.org/2000/svg" xmlns:xlink="http://www.w3.org/1999/xlink" aria-hidden="true" role="img" class="iconify iconify--ph" width="1em" height="1em" preserveAspectRatio="xMidYMid meet" viewBox="0 0 256 256"><path fill="currentColor" d="M74 110a6 6 0 0 1 0-12h36a6 6 0 0 1 0 12H98v42a6 6 0 0 1-12 0v-42Zm156-17.3V152a38 38 0 0 1-36 37.9a62 62 0 0 1-116 .1H40a14 14 0 0 1-14-14V80a14 14 0 0 1 14-14h59.3A41.5 41.5 0 0 1 98 56a38 38 0 0 1 70-20.5a32.6 32.6 0 0 1 18-5.5a32 32 0 0 1 25 52h8.3A10.7 10.7 0 0 1 230 92.7Zm-57.1-45.8A39.1 39.1 0 0 1 174 56a37.4 37.4 0 0 1-4.3 17.5A19.8 19.8 0 0 0 186 82a20 20 0 1 0-13.1-35.1ZM112 66h32a14.1 14.1 0 0 1 11.9 6.7A25.8 25.8 0 0 0 162 56a26 26 0 1 0-50 10ZM40 178h104a2 2 0 0 0 2-2V80a2 2 0 0 0-2-2H40a2 2 0 0 0-2 2v96a2 2 0 0 0 2 2Zm146-10V96a2 2 0 0 0-2-2h-26v82a14 14 0 0 1-14 14H91.1a50 50 0 0 0 94.9-22Zm32-74h-20.2a13.6 13.6 0 0 1 .2 2v72a59.9 59.9 0 0 1-.7 9.5A26.2 26.2 0 0 0 218 152Z"></path></svg>