<svg xmlns="http://www.w3.org/2000/svg" xmlns:xlink="http://www.w3.org/1999/xlink" aria-hidden="true" role="img" class="iconify iconify--ph" width="1em" height="1em" preserveAspectRatio="xMidYMid meet" viewBox="0 0 256 256"><path fill="currentColor" d="M200 24H72a16 16 0 0 0-16 16v24H40a16 16 0 0 0-16 16v96a16 16 0 0 0 16 16h16v24a16 16 0 0 0 16 16h128a16 16 0 0 0 16-16V40a16 16 0 0 0-16-16ZM68.2 153.9l-12-48a8 8 0 0 1 15.6-3.8l6.3 25.4l6.6-14.7a8 8 0 0 1 14.6 0l6.6 14.7l6.3-25.4a8 8 0 1 1 15.6 3.8l-12 48a8.1 8.1 0 0 1-7.1 6.1h-.7a7.9 7.9 0 0 1-7.3-4.8L92 135.7l-8.7 19.5a8 8 0 0 1-8 4.8a8.1 8.1 0 0 1-7.1-6.1ZM200 216H72v-24h72a16 16 0 0 0 16-16v-8h40Zm0-64h-40v-48h40Zm0-64h-40v-8a16 16 0 0 0-16-16H72V40h128Z"></path></svg>