<svg xmlns="http://www.w3.org/2000/svg" xmlns:xlink="http://www.w3.org/1999/xlink" aria-hidden="true" role="img" class="iconify iconify--ph" width="1em" height="1em" preserveAspectRatio="xMidYMid meet" viewBox="0 0 256 256"><path fill="currentColor" d="M94 96H78a8 8 0 0 0-8 8v48a8 8 0 0 0 16 0v-8h8a24 24 0 0 0 0-48Zm0 32h-8v-16h8a8 8 0 0 1 0 16Zm42-104a104.5 104.5 0 0 0-82 40H40a16 16 0 0 0-16 16v96a16 16 0 0 0 16 16h14a104 104 0 1 0 82-168Zm87.6 96H160V80a16 16 0 0 0-16-16V40.4a88 88 0 0 1 79.6 79.6ZM128 40.4V64H75.6A88.7 88.7 0 0 1 128 40.4ZM40 80h104v96H40Zm88 112v23.6A88.7 88.7 0 0 1 75.6 192Zm16 23.6V192a16 16 0 0 0 16-16v-40h63.6a88 88 0 0 1-79.6 79.6Z"></path></svg>