<svg xmlns="http://www.w3.org/2000/svg" xmlns:xlink="http://www.w3.org/1999/xlink" aria-hidden="true" role="img" class="iconify iconify--ph" width="1em" height="1em" preserveAspectRatio="xMidYMid meet" viewBox="0 0 256 256"><path fill="currentColor" d="M128 172a52 52 0 0 0 52-52V64a52 52 0 0 0-104 0v56a52 52 0 0 0 52 52ZM100 64a28 28 0 0 1 56 0v56a28 28 0 0 1-56 0Zm40 147.2V232a12 12 0 0 1-24 0v-20.8A92.1 92.1 0 0 1 36 120a12 12 0 0 1 24 0a68 68 0 0 0 136 0a12 12 0 0 1 24 0a92.1 92.1 0 0 1-80 91.2Z"></path></svg>