<svg xmlns="http://www.w3.org/2000/svg" xmlns:xlink="http://www.w3.org/1999/xlink" aria-hidden="true" role="img" class="iconify iconify--ph" width="1em" height="1em" preserveAspectRatio="xMidYMid meet" viewBox="0 0 256 256"><path fill="currentColor" d="M98 92H82a12 12 0 0 0-12 12v48a12 12 0 0 0 24 0v-4h4a28 28 0 0 0 0-56Zm0 32h-4v-8h4a4 4 0 0 1 0 8Zm38-104a107.6 107.6 0 0 0-80.5 36H40a20.1 20.1 0 0 0-20 20v104a20.1 20.1 0 0 0 20 20h15.5A108 108 0 1 0 136 20Zm0 24a84 84 0 0 1 83.1 72H172V76a20.1 20.1 0 0 0-20-20H92.7A83.5 83.5 0 0 1 136 44ZM44 80h104v96H44Zm92 132a83.5 83.5 0 0 1-43.3-12H152a20.1 20.1 0 0 0 20-20v-40h47.1a84 84 0 0 1-83.1 72Z"></path></svg>