<svg xmlns="http://www.w3.org/2000/svg" xmlns:xlink="http://www.w3.org/1999/xlink" aria-hidden="true" role="img" class="iconify iconify--ph" width="1em" height="1em" preserveAspectRatio="xMidYMid meet" viewBox="0 0 256 256"><path fill="currentColor" d="M94 98H78a6 6 0 0 0-6 6v48a6 6 0 0 0 12 0v-10h10a22 22 0 0 0 0-44Zm0 32H84v-20h10a10 10 0 0 1 0 20Zm42-104a102.4 102.4 0 0 0-81 40H40a14 14 0 0 0-14 14v96a14 14 0 0 0 14 14h15a102 102 0 1 0 81-164Zm89.8 96H158V80a14 14 0 0 0-14-14h-2V38.2a90.1 90.1 0 0 1 83.8 83.8ZM130 38.2V66H70.8A90.2 90.2 0 0 1 130 38.2ZM38 176V80a2 2 0 0 1 2-2h104a2 2 0 0 1 2 2v96a2 2 0 0 1-2 2H40a2 2 0 0 1-2-2Zm32.8 14H130v27.8A90.2 90.2 0 0 1 70.8 190Zm71.2 27.8V190h2a14 14 0 0 0 14-14v-42h67.8a90.1 90.1 0 0 1-83.8 83.8Z"></path></svg>