<svg xmlns="http://www.w3.org/2000/svg" xmlns:xlink="http://www.w3.org/1999/xlink" aria-hidden="true" role="img" class="iconify iconify--ph" width="1em" height="1em" preserveAspectRatio="xMidYMid meet" viewBox="0 0 256 256"><path fill="currentColor" d="M200 28H72a12 12 0 0 0-12 12v28H40a12 12 0 0 0-12 12v96a12 12 0 0 0 12 12h20v28a12 12 0 0 0 12 12h128a12 12 0 0 0 12-12V40a12 12 0 0 0-12-12Zm-44 72h48v56h-48ZM68 40a4 4 0 0 1 4-4h128a4 4 0 0 1 4 4v52h-48V80a12 12 0 0 0-12-12H68ZM36 176V80a4 4 0 0 1 4-4h104a4 4 0 0 1 4 4v96a4 4 0 0 1-4 4H40a4 4 0 0 1-4-4Zm164 44H72a4 4 0 0 1-4-4v-28h76a12 12 0 0 0 12-12v-12h48v52a4 4 0 0 1-4 4ZM72.1 153l-12-48a4 4 0 0 1 7.8-2l9.2 36.8l11.2-25.4a4.1 4.1 0 0 1 7.4 0l11.2 25.4l9.2-36.8a4 4 0 1 1 7.8 2l-12 48a4.2 4.2 0 0 1-3.6 3h-.3a4 4 0 0 1-3.7-2.4L92 125.8l-12.3 27.8a4 4 0 0 1-4 2.4a4.2 4.2 0 0 1-3.6-3Z"></path></svg>