<svg xmlns="http://www.w3.org/2000/svg" xmlns:xlink="http://www.w3.org/1999/xlink" aria-hidden="true" role="img" class="iconify iconify--ph" width="1em" height="1em" preserveAspectRatio="xMidYMid meet" viewBox="0 0 256 256"><path fill="currentColor" d="M213.4 221.9a8.2 8.2 0 0 1-5.4 2.1a8 8 0 0 1-5.9-2.6l-26.5-29.1a79.2 79.2 0 0 1-39.6 15.3V232a8 8 0 0 1-16 0v-24.4a79.9 79.9 0 0 1-71.5-70.7a8 8 0 1 1 15.9-1.8a64 64 0 0 0 100.4 45.3l-10.9-12A48 48 0 0 1 80 128V87.1L42.1 45.4a8 8 0 0 1 11.8-10.8l160 176a7.9 7.9 0 0 1-.5 11.3Zm-51.3-92.1a7.9 7.9 0 0 0 5.9 2.6a7.4 7.4 0 0 0 2.9-.5a8 8 0 0 0 5.1-7.5V64a48 48 0 0 0-48-48a47.5 47.5 0 0 0-40.8 22.8a8 8 0 0 0 .8 9.6Zm30.1 31.9a9.3 9.3 0 0 0 2.9.5a7.8 7.8 0 0 0 7.4-5.1a78.7 78.7 0 0 0 5-20.2a8 8 0 1 0-15.9-1.8a60.1 60.1 0 0 1-4 16.2a8.1 8.1 0 0 0 4.6 10.4Z"></path></svg>