<svg xmlns="http://www.w3.org/2000/svg" xmlns:xlink="http://www.w3.org/1999/xlink" aria-hidden="true" role="img" class="iconify iconify--ph" width="1em" height="1em" preserveAspectRatio="xMidYMid meet" viewBox="0 0 256 256"><path fill="currentColor" d="M200 20H72a20.1 20.1 0 0 0-20 20v16H40a20.1 20.1 0 0 0-20 20v104a20.1 20.1 0 0 0 20 20h12v16a20.1 20.1 0 0 0 20 20h128a20.1 20.1 0 0 0 20-20V40a20.1 20.1 0 0 0-20-20Zm-28 88h24v40h-24Zm24-24h-24v-8a20.1 20.1 0 0 0-20-20h-4V44h48ZM76 44h48v12H76ZM44 80h104v96H44Zm32 120h48v12H76Zm72 12v-12h4a20.1 20.1 0 0 0 20-20v-8h24v40Zm-79.6-67.2L81 128l-12.6-16.8a12 12 0 1 1 19.2-14.4L96 108l8.4-11.2a12 12 0 0 1 19.2 14.4L111 128l12.6 16.8a12 12 0 0 1-2.4 16.8a12 12 0 0 1-16.8-2.4L96 148l-8.4 11.2a12 12 0 0 1-16.8 2.4a12 12 0 0 1-2.4-16.8Z"></path></svg>