<svg xmlns="http://www.w3.org/2000/svg" xmlns:xlink="http://www.w3.org/1999/xlink" aria-hidden="true" role="img" class="iconify iconify--ph" width="1em" height="1em" preserveAspectRatio="xMidYMid meet" viewBox="0 0 256 256"><path fill="currentColor" d="M114 104a4 4 0 0 1-4 4H96v44a4 4 0 0 1-8 0v-44H74a4 4 0 0 1 0-8h36a4 4 0 0 1 4 4Zm114-11.3V152a36 36 0 0 1-35.4 36a60 60 0 0 1-113.2 0H40a12 12 0 0 1-12-12V80a12 12 0 0 1 12-12h62.1a34.8 34.8 0 0 1-2.1-12a36 36 0 0 1 67.4-17.5a30 30 0 0 1 39 45.5h12.9a8.7 8.7 0 0 1 8.7 8.7ZM158.6 84h7a26 26 0 0 1-3.2-3.5Zm12-37.7A34.5 34.5 0 0 1 172 56a35.6 35.6 0 0 1-4.7 17.6A21.8 21.8 0 0 0 186 84a22 22 0 1 0-15.4-37.7ZM110.7 68H144a12 12 0 0 1 11.4 8.2A28 28 0 1 0 108 56a27.4 27.4 0 0 0 2.7 12ZM40 180h104a4 4 0 0 0 4-4V80a4 4 0 0 0-4-4H40a4 4 0 0 0-4 4v96a4 4 0 0 0 4 4Zm148-12V96a4 4 0 0 0-4-4h-28v84a12 12 0 0 1-12 12H88a52 52 0 0 0 100-20Zm32-75.3a.7.7 0 0 0-.7-.7h-24a13.4 13.4 0 0 1 .7 4v72a58.6 58.6 0 0 1-1.2 11.9A28.2 28.2 0 0 0 220 152Z"></path></svg>