<svg xmlns="http://www.w3.org/2000/svg" xmlns:xlink="http://www.w3.org/1999/xlink" aria-hidden="true" role="img" class="iconify iconify--ph" width="1em" height="1em" preserveAspectRatio="xMidYMid meet" viewBox="0 0 256 256"><path fill="currentColor" d="M128 176a48 48 0 0 0 48-48V64a48 48 0 0 0-96 0v64a48 48 0 0 0 48 48ZM96 64a32 32 0 0 1 64 0v64a32 32 0 0 1-64 0Zm111.5 72.9a79.9 79.9 0 0 1-71.5 70.7V232a8 8 0 0 1-16 0v-24.4a79.9 79.9 0 0 1-71.5-70.7a8 8 0 1 1 15.9-1.8a64 64 0 0 0 127.2 0a8 8 0 1 1 15.9 1.8Z"></path></svg>