<svg xmlns="http://www.w3.org/2000/svg" xmlns:xlink="http://www.w3.org/1999/xlink" aria-hidden="true" role="img" class="iconify iconify--ph" width="1em" height="1em" preserveAspectRatio="xMidYMid meet" viewBox="0 0 256 256"><path fill="currentColor" d="M128 172a44 44 0 0 0 44-44V64a44 44 0 0 0-88 0v64a44 44 0 0 0 44 44ZM92 64a36 36 0 0 1 72 0v64a36 36 0 0 1-72 0Zm111.5 72.4a75.8 75.8 0 0 1-71.5 67.5V232a4 4 0 0 1-8 0v-28.1a75.8 75.8 0 0 1-71.5-67.5A3.9 3.9 0 0 1 56 132a4 4 0 0 1 4.4 3.6a68 68 0 0 0 135.2 0a4 4 0 0 1 4.4-3.6a3.9 3.9 0 0 1 3.5 4.4Z"></path></svg>