<svg xmlns="http://www.w3.org/2000/svg" xmlns:xlink="http://www.w3.org/1999/xlink" aria-hidden="true" role="img" class="iconify iconify--ph" width="1em" height="1em" preserveAspectRatio="xMidYMid meet" viewBox="0 0 256 256"><path fill="currentColor" d="M200 26H72a14 14 0 0 0-14 14v26H40a14 14 0 0 0-14 14v96a14 14 0 0 0 14 14h18v26a14 14 0 0 0 14 14h128a14 14 0 0 0 14-14V40a14 14 0 0 0-14-14Zm-42 76h44v52h-44ZM70 40a2 2 0 0 1 2-2h128a2 2 0 0 1 2 2v50h-44V80a14 14 0 0 0-14-14H70ZM38 176V80a2 2 0 0 1 2-2h104a2 2 0 0 1 2 2v96a2 2 0 0 1-2 2H40a2 2 0 0 1-2-2Zm162 42H72a2 2 0 0 1-2-2v-26h74a14 14 0 0 0 14-14v-10h44v50a2 2 0 0 1-2 2ZM70.2 153.5l-12-48a6 6 0 1 1 11.6-3l7.8 31.1l8.9-20a6 6 0 0 1 11 0l8.9 20l7.8-31.1a6 6 0 1 1 11.6 3l-12 48a6 6 0 0 1-5.3 4.5h-.5a6 6 0 0 1-5.5-3.6L92 130.8l-10.5 23.6a6.1 6.1 0 0 1-6 3.6a6 6 0 0 1-5.3-4.5Z"></path></svg>