<svg xmlns="http://www.w3.org/2000/svg" xmlns:xlink="http://www.w3.org/1999/xlink" aria-hidden="true" role="img" class="iconify iconify--ph" width="1em" height="1em" preserveAspectRatio="xMidYMid meet" viewBox="0 0 256 256"><path fill="currentColor" d="m211 213.3l-53.1-58.4L51 37.3a4 4 0 1 0-6 5.4l39 42.8V128a44 44 0 0 0 70.5 35.1l16.2 17.8a68 68 0 0 1-110.3-45.3A4 4 0 0 0 56 132a3.9 3.9 0 0 0-3.5 4.4a75.8 75.8 0 0 0 71.5 67.5V232a4 4 0 0 0 8 0v-28.1a75.7 75.7 0 0 0 44.1-17.1l28.9 31.9a4.1 4.1 0 0 0 5.7.3a4.2 4.2 0 0 0 .3-5.7ZM128 164a36 36 0 0 1-36-36V94.3l57.1 62.9A36.1 36.1 0 0 1 128 164ZM90.6 40.9A43.5 43.5 0 0 1 128 20a44 44 0 0 1 44 44v60.4a4 4 0 0 1-8 0V64a36 36 0 0 0-66.6-18.9a4.1 4.1 0 0 1-5.5 1.3a3.9 3.9 0 0 1-1.3-5.5Zm100.8 111.9a73.3 73.3 0 0 0 4.2-17.2a4 4 0 0 1 4.4-3.6a3.9 3.9 0 0 1 3.5 4.4a75.6 75.6 0 0 1-4.7 19.3a3.9 3.9 0 0 1-3.7 2.5l-1.5-.3a3.9 3.9 0 0 1-2.2-5.1Z"></path></svg>