<svg xmlns="http://www.w3.org/2000/svg" xmlns:xlink="http://www.w3.org/1999/xlink" aria-hidden="true" role="img" class="iconify iconify--ph" width="1em" height="1em" preserveAspectRatio="xMidYMid meet" viewBox="0 0 256 256"><path fill="currentColor" d="m213.9 210.6l-160-176a8 8 0 0 0-11.8 10.8L80 87.1V128a48 48 0 0 0 73.9 40.4l10.9 12a64 64 0 0 1-100.4-45.3a8 8 0 1 0-15.9 1.8a79.9 79.9 0 0 0 71.5 70.7V232a8 8 0 0 0 16 0v-24.4a79.2 79.2 0 0 0 39.6-15.3l26.5 29.1a8 8 0 0 0 5.9 2.6a8.2 8.2 0 0 0 5.4-2.1a7.9 7.9 0 0 0 .5-11.3ZM128 160a32.1 32.1 0 0 1-32-32v-23.3l46.9 51.6A31.6 31.6 0 0 1 128 160ZM87.2 38.8A47.5 47.5 0 0 1 128 16a48 48 0 0 1 48 48v60.4a8 8 0 0 1-16 0V64a32.1 32.1 0 0 0-32-32a31.7 31.7 0 0 0-27.2 15.2a8.1 8.1 0 0 1-11.1 2.6a8 8 0 0 1-2.5-11Zm100.4 112.5a60.1 60.1 0 0 0 4-16.2a8 8 0 1 1 15.9 1.8a78.7 78.7 0 0 1-5 20.2a7.8 7.8 0 0 1-7.4 5.1a9.3 9.3 0 0 1-2.9-.5a8.1 8.1 0 0 1-4.6-10.4Z"></path></svg>