<svg xmlns="http://www.w3.org/2000/svg" xmlns:xlink="http://www.w3.org/1999/xlink" aria-hidden="true" role="img" class="iconify iconify--ph" width="1em" height="1em" preserveAspectRatio="xMidYMid meet" viewBox="0 0 256 256"><path fill="currentColor" d="M232 52H24A20.1 20.1 0 0 0 4 72v112a20.1 20.1 0 0 0 20 20h208a20.1 20.1 0 0 0 20-20V72a20.1 20.1 0 0 0-20-20ZM92.6 180l-58.5-52l58.5-52h70.8l58.5 52l-58.5 52ZM228 101.3L199.6 76H228ZM56.4 76L28 101.3V76ZM28 154.7L56.4 180H28ZM199.6 180l28.4-25.3V180ZM128 88a40 40 0 1 0 40 40a40 40 0 0 0-40-40Zm0 56a16 16 0 1 1 16-16a16 16 0 0 1-16 16Z"></path></svg>