<svg xmlns="http://www.w3.org/2000/svg" xmlns:xlink="http://www.w3.org/1999/xlink" aria-hidden="true" role="img" class="iconify iconify--ph" width="1em" height="1em" preserveAspectRatio="xMidYMid meet" viewBox="0 0 256 256"><path fill="currentColor" d="M232 60H24a12 12 0 0 0-12 12v112a12 12 0 0 0 12 12h208a12 12 0 0 0 12-12V72a12 12 0 0 0-12-12ZM81.5 188L20 134.2v-12.4L81.5 68h93l61.5 53.8v12.4L174.5 188ZM236 72v39.2L186.6 68H232a4 4 0 0 1 4 4ZM24 68h45.4L20 111.2V72a4 4 0 0 1 4-4Zm-4 116v-39.2L69.4 188H24a4 4 0 0 1-4-4Zm212 4h-45.4l49.4-43.2V184a4 4 0 0 1-4 4ZM128 92a36 36 0 1 0 36 36a36 36 0 0 0-36-36Zm0 64a28 28 0 1 1 28-28a28.1 28.1 0 0 1-28 28Z"></path></svg>