<svg xmlns="http://www.w3.org/2000/svg" xmlns:xlink="http://www.w3.org/1999/xlink" aria-hidden="true" role="img" class="iconify iconify--ph" width="1em" height="1em" preserveAspectRatio="xMidYMid meet" viewBox="0 0 256 256"><g fill="currentColor" opacity=".2"><circle cx="128" cy="128" r="32"></circle><path d="M232 64h-56l64 56V72a8 8 0 0 0-8-8Zm0 128a8 8 0 0 0 8-8v-48l-64 56ZM16 72v48l64-56H24a8 8 0 0 0-8 8Zm0 112a8 8 0 0 0 8 8h56l-64-56Z"></path></g><path fill="currentColor" d="M232 56H24A16 16 0 0 0 8 72v112a16 16 0 0 0 16 16h208a16 16 0 0 0 16-16V72a16 16 0 0 0-16-16ZM83 184l-59-51.6v-8.8L83 72h90l59 51.6v8.8L173 184Zm149-81.6L197.3 72H232ZM58.7 72L24 102.4V72ZM24 153.6L58.7 184H24ZM232 184h-34.7l34.7-30.4V184ZM128 88a40 40 0 1 0 40 40a40 40 0 0 0-40-40Zm0 64a24 24 0 1 1 24-24a24.1 24.1 0 0 1-24 24Z"></path></svg>