<svg xmlns="http://www.w3.org/2000/svg" xmlns:xlink="http://www.w3.org/1999/xlink" aria-hidden="true" role="img" class="iconify iconify--ph" width="1em" height="1em" preserveAspectRatio="xMidYMid meet" viewBox="0 0 256 256"><path fill="currentColor" d="M208 42.9H48a20.1 20.1 0 0 0-20 20v112a20.1 20.1 0 0 0 20 20h160a20.1 20.1 0 0 0 20-20v-112a20.1 20.1 0 0 0-20-20Zm12 132a12 12 0 0 1-12 12H48a12 12 0 0 1-12-12v-112a12 12 0 0 1 12-12h160a12 12 0 0 1 12 12Zm-56 48a4 4 0 0 1-4 4H96a4 4 0 1 1 0-8h64a4 4 0 0 1 4 4Z"></path></svg>