<svg xmlns="http://www.w3.org/2000/svg" xmlns:xlink="http://www.w3.org/1999/xlink" aria-hidden="true" role="img" class="iconify iconify--ph" width="1em" height="1em" preserveAspectRatio="xMidYMid meet" viewBox="0 0 256 256"><path fill="currentColor" d="M208 40.9H48a22.1 22.1 0 0 0-22 22v112a22 22 0 0 0 22 22h160a22 22 0 0 0 22-22v-112a22.1 22.1 0 0 0-22-22Zm10 134a10 10 0 0 1-10 10H48a10 10 0 0 1-10-10v-112a10 10 0 0 1 10-10h160a10 10 0 0 1 10 10Zm-52 48a6 6 0 0 1-6 6H96a6 6 0 1 1 0-12h64a6 6 0 0 1 6 6Z"></path></svg>