<svg xmlns="http://www.w3.org/2000/svg" xmlns:xlink="http://www.w3.org/1999/xlink" aria-hidden="true" role="img" class="iconify iconify--ph" width="1em" height="1em" preserveAspectRatio="xMidYMid meet" viewBox="0 0 256 256"><path fill="currentColor" d="m162.2 116.7l-48-32a4 4 0 0 0-4.1-.2A3.9 3.9 0 0 0 108 88v64a3.9 3.9 0 0 0 2.1 3.5a4.5 4.5 0 0 0 1.9.5a3.6 3.6 0 0 0 2.2-.7l48-32a3.9 3.9 0 0 0 0-6.6ZM116 144.5v-49l36.8 24.5ZM208 44H48a20.1 20.1 0 0 0-20 20v112a20.1 20.1 0 0 0 20 20h160a20.1 20.1 0 0 0 20-20V64a20.1 20.1 0 0 0-20-20Zm12 132a12 12 0 0 1-12 12H48a12 12 0 0 1-12-12V64a12 12 0 0 1 12-12h160a12 12 0 0 1 12 12Zm-56 48a4 4 0 0 1-4 4H96a4 4 0 0 1 0-8h64a4 4 0 0 1 4 4Z"></path></svg>