<svg xmlns="http://www.w3.org/2000/svg" xmlns:xlink="http://www.w3.org/1999/xlink" aria-hidden="true" role="img" class="iconify iconify--ph" width="1em" height="1em" preserveAspectRatio="xMidYMid meet" viewBox="0 0 256 256"><path fill="currentColor" d="M168 224a8 8 0 0 1-8 8H96a8 8 0 0 1 0-16h64a8 8 0 0 1 8 8Zm64-160v112a24.1 24.1 0 0 1-24 24H48a24.1 24.1 0 0 1-24-24V64a24.1 24.1 0 0 1 24-24h160a24.1 24.1 0 0 1 24 24Zm-68 56a7.9 7.9 0 0 0-3.7-6.7l-44-28a7.9 7.9 0 0 0-8.1-.3a8 8 0 0 0-4.2 7v56a8 8 0 0 0 4.2 7a7.7 7.7 0 0 0 8.1-.3l44-28a7.9 7.9 0 0 0 3.7-6.7Z"></path></svg>