<svg xmlns="http://www.w3.org/2000/svg" xmlns:xlink="http://www.w3.org/1999/xlink" aria-hidden="true" role="img" class="iconify iconify--ph" width="1em" height="1em" preserveAspectRatio="xMidYMid meet" viewBox="0 0 256 256"><path fill="currentColor" d="M208 40H48a24.1 24.1 0 0 0-24 24v112a24.1 24.1 0 0 0 24 24h160a24.1 24.1 0 0 0 24-24V64a24.1 24.1 0 0 0-24-24Zm8 136a8 8 0 0 1-8 8H48a8 8 0 0 1-8-8V64a8 8 0 0 1 8-8h160a8 8 0 0 1 8 8Zm-48 48a8 8 0 0 1-8 8H96a8 8 0 0 1 0-16h64a8 8 0 0 1 8 8Zm-3.6-110.7l-48-32a8.3 8.3 0 0 0-8.2-.4A8 8 0 0 0 104 88v64a8 8 0 0 0 4.2 7.1a8.5 8.5 0 0 0 3.8.9a8.4 8.4 0 0 0 4.4-1.3l48-32a8 8 0 0 0 0-13.4ZM120 137.1v-34.2l25.6 17.1Z"></path></svg>