<svg xmlns="http://www.w3.org/2000/svg" xmlns:xlink="http://www.w3.org/1999/xlink" aria-hidden="true" role="img" class="iconify iconify--ph" width="1em" height="1em" preserveAspectRatio="xMidYMid meet" viewBox="0 0 256 256"><path fill="currentColor" d="m163.3 115l-48-32a6 6 0 0 0-9.3 5v64a6 6 0 0 0 3.2 5.3a5.9 5.9 0 0 0 6.1-.3l48-32a6 6 0 0 0 0-10ZM118 140.8V99.2l31.2 20.8ZM208 42H48a22.1 22.1 0 0 0-22 22v112a22.1 22.1 0 0 0 22 22h160a22.1 22.1 0 0 0 22-22V64a22.1 22.1 0 0 0-22-22Zm10 134a10 10 0 0 1-10 10H48a10 10 0 0 1-10-10V64a10 10 0 0 1 10-10h160a10 10 0 0 1 10 10Zm-52 48a6 6 0 0 1-6 6H96a6 6 0 0 1 0-12h64a6 6 0 0 1 6 6Z"></path></svg>