<svg xmlns="http://www.w3.org/2000/svg" xmlns:xlink="http://www.w3.org/1999/xlink" aria-hidden="true" role="img" class="iconify iconify--ph" width="1em" height="1em" preserveAspectRatio="xMidYMid meet" viewBox="0 0 256 256"><path fill="currentColor" d="M246 88a6 6 0 0 1-6 6h-18v18a6 6 0 0 1-12 0V94h-18a6 6 0 0 1 0-12h18V64a6 6 0 0 1 12 0v18h18a6 6 0 0 1 6 6Zm-94-42h10v10a6 6 0 0 0 12 0V46h10a6 6 0 0 0 0-12h-10V24a6 6 0 0 0-12 0v10h-10a6 6 0 0 0 0 12Zm70.4 104.7a6.3 6.3 0 0 1 0 3.6A98 98 0 1 1 101.6 33.6a6.1 6.1 0 0 1 4 .2a5.8 5.8 0 0 1 3.7 5.9a6.8 6.8 0 0 1-.2 1.4a86 86 0 0 0 105.8 105.8l1.6-.3a6.3 6.3 0 0 1 5.9 4.1Zm-14.9 10.1A98.1 98.1 0 0 1 95.2 48.5a86 86 0 1 0 112.3 112.3Z"></path></svg>