<svg xmlns="http://www.w3.org/2000/svg" xmlns:xlink="http://www.w3.org/1999/xlink" aria-hidden="true" role="img" class="iconify iconify--ph" width="1em" height="1em" preserveAspectRatio="xMidYMid meet" viewBox="0 0 256 256"><path fill="currentColor" d="M244 88a4 4 0 0 1-4 4h-20v20a4 4 0 0 1-8 0V92h-20a4 4 0 0 1 0-8h20V64a4 4 0 0 1 8 0v20h20a4 4 0 0 1 4 4Zm-92-44h12v12a4 4 0 0 0 8 0V44h12a4 4 0 0 0 0-8h-12V24a4 4 0 0 0-8 0v12h-12a4 4 0 0 0 0 8Zm68.5 107.4a4.9 4.9 0 0 1 0 2.4A96 96 0 1 1 102.2 35.5a3.9 3.9 0 0 1 2.6.1a4 4 0 0 1 2.5 4a2.8 2.8 0 0 1-.1.9a88 88 0 0 0 108.2 108.3l1.2-.2a4.2 4.2 0 0 1 3.9 2.8Zm-9.8 6.8A96.1 96.1 0 0 1 97.8 45.3a88 88 0 1 0 112.9 112.9Z"></path></svg>