<svg xmlns="http://www.w3.org/2000/svg" xmlns:xlink="http://www.w3.org/1999/xlink" aria-hidden="true" role="img" class="iconify iconify--ph" width="1em" height="1em" preserveAspectRatio="xMidYMid meet" viewBox="0 0 256 256"><path fill="currentColor" d="M252 88a12 12 0 0 1-12 12h-12v12a12 12 0 0 1-24 0v-12h-12a12 12 0 0 1 0-24h12V64a12 12 0 0 1 24 0v12h12a12 12 0 0 1 12 12ZM152 52h4v4a12 12 0 0 0 24 0v-4h4a12 12 0 0 0 0-24h-4v-4a12 12 0 0 0-24 0v4h-4a12 12 0 0 0 0 24Zm76 96.9a11.5 11.5 0 0 1 .2 7.1A104 104 0 1 1 99.9 27.8a12.6 12.6 0 0 1 7.9.4a12 12 0 0 1 7.5 11.8a13.5 13.5 0 0 1-.4 2.8a80 80 0 0 0 98.3 98.4a11.3 11.3 0 0 1 3.2-.5a11.6 11.6 0 0 1 11.6 8.2Zm-30.6 19A104.2 104.2 0 0 1 88.1 58.6a80 80 0 1 0 109.3 109.3Z"></path></svg>