<svg xmlns="http://www.w3.org/2000/svg" xmlns:xlink="http://www.w3.org/1999/xlink" aria-hidden="true" role="img" class="iconify iconify--ph" width="1em" height="1em" preserveAspectRatio="xMidYMid meet" viewBox="0 0 256 256"><path fill="currentColor" d="M248 88a8 8 0 0 1-8 8h-16v16a8 8 0 0 1-16 0V96h-16a8 8 0 0 1 0-16h16V64a8 8 0 0 1 16 0v16h16a8 8 0 0 1 8 8Zm-96-40h8v8a8 8 0 0 0 16 0v-8h8a8 8 0 0 0 0-16h-8v-8a8 8 0 0 0-16 0v8h-8a8 8 0 0 0 0 16Zm72.3 102.1a7.9 7.9 0 0 1 0 4.8A100 100 0 1 1 101.1 31.7a7.8 7.8 0 0 1 5.2.2a8 8 0 0 1 5 7.9a5.7 5.7 0 0 1-.3 1.8A84 84 0 0 0 214.3 145l2.2-.4a8.2 8.2 0 0 1 7.8 5.5Zm-20 13.1A99.9 99.9 0 0 1 92.8 51.7a84 84 0 1 0 111.5 111.5Z"></path></svg>