<svg xmlns="http://www.w3.org/2000/svg" xmlns:xlink="http://www.w3.org/1999/xlink" aria-hidden="true" role="img" class="iconify iconify--ph" width="1em" height="1em" preserveAspectRatio="xMidYMid meet" viewBox="0 0 256 256"><path fill="currentColor" d="M164 78a26 26 0 1 0-26-26a26.1 26.1 0 0 0 26 26Zm0-40a14 14 0 1 1-14 14a14 14 0 0 1 14-14Zm89.2 158.9L196 100.6a13.9 13.9 0 0 0-24 0l-27.9 46.9l-44-74.8a14.1 14.1 0 0 0-24.2 0L2.8 197a5.9 5.9 0 0 0 0 6a6.1 6.1 0 0 0 5.2 3h240a6.1 6.1 0 0 0 5.2-9.1ZM86.3 78.8a1.9 1.9 0 0 1 3.4 0l25.5 43.2H60.8ZM18.5 194l35.3-60h68.4l16.7 28.4l18.6 31.6Zm152.9 0l-20.3-34.6l31.2-52.7a1.9 1.9 0 0 1 3.4 0l51.8 87.3Z"></path></svg>