<svg xmlns="http://www.w3.org/2000/svg" xmlns:xlink="http://www.w3.org/1999/xlink" aria-hidden="true" role="img" class="iconify iconify--ph" width="1em" height="1em" preserveAspectRatio="xMidYMid meet" viewBox="0 0 256 256"><path fill="currentColor" d="M164 80a28 28 0 1 0-28-28a28.1 28.1 0 0 0 28 28Zm0-40a12 12 0 1 1-12 12a12 12 0 0 1 12-12Zm90.9 155.9l-57.1-96.4a16.1 16.1 0 0 0-27.6 0l-26.1 44.1l-42.3-71.9a16 16 0 0 0-27.6 0L1.1 195.9a7.9 7.9 0 0 0 0 8.1a7.8 7.8 0 0 0 6.9 4h240a8.1 8.1 0 0 0 7-4a8.3 8.3 0 0 0-.1-8.1ZM88 79.8l23.7 40.2H64.3ZM22 192l32.9-56h66.2l16.1 27.4L154 192Zm150.6 0l-19.2-32.6l30.6-51.7l50 84.3Z"></path></svg>