<svg xmlns="http://www.w3.org/2000/svg" xmlns:xlink="http://www.w3.org/1999/xlink" aria-hidden="true" role="img" class="iconify iconify--ph" width="1em" height="1em" preserveAspectRatio="xMidYMid meet" viewBox="0 0 256 256"><path fill="currentColor" d="M164 84a32 32 0 1 0-32-32a32.1 32.1 0 0 0 32 32Zm0-40a8 8 0 1 1-8 8a8 8 0 0 1 8-8Zm85.6 149.9l-52.4-88.4a20 20 0 0 0-34.4 0L146.5 133l-37.3-63.4a20 20 0 0 0-34.4 0L1.7 193.9A12 12 0 0 0 12 212h227.3a12 12 0 0 0 10.3-18.1ZM92 87.7l16.7 28.3H75.3ZM33 188l28.2-48h61.6l13.3 22.7h.1L151 188Zm145.9 0l-18.5-31.4l19.6-33.1l38.2 64.5Z"></path></svg>