<svg xmlns="http://www.w3.org/2000/svg" xmlns:xlink="http://www.w3.org/1999/xlink" aria-hidden="true" role="img" class="iconify iconify--ph" width="1em" height="1em" preserveAspectRatio="xMidYMid meet" viewBox="0 0 256 256"><path fill="currentColor" d="M164 76a24 24 0 1 0-24-24a24.1 24.1 0 0 0 24 24Zm0-40a16 16 0 1 1-16 16a16 16 0 0 1 16-16Zm87.4 162l-57.1-96.4a11.9 11.9 0 0 0-20.6 0l-29.6 49.9l-45.8-77.8a11.9 11.9 0 0 0-20.6 0L4.6 198a3.8 3.8 0 0 0-.1 4a4.2 4.2 0 0 0 3.5 2h240a4.2 4.2 0 0 0 3.5-2a3.8 3.8 0 0 0-.1-4ZM84.6 77.8a3.9 3.9 0 0 1 6.8 0l27.3 46.2H57.3ZM15 196l37.6-64h70.8l37.6 64Zm155.3 0l-21.6-36.6l31.9-53.7a3.9 3.9 0 0 1 6.8 0L241 196Z"></path></svg>