<svg xmlns="http://www.w3.org/2000/svg" xmlns:xlink="http://www.w3.org/1999/xlink" aria-hidden="true" role="img" class="iconify iconify--ph" width="1em" height="1em" preserveAspectRatio="xMidYMid meet" viewBox="0 0 256 256"><path fill="currentColor" d="M148 26h-40a62.1 62.1 0 0 0-62 62v80a62.1 62.1 0 0 0 62 62h40a62.1 62.1 0 0 0 62-62V88a62.1 62.1 0 0 0-62-62Zm50 142a50 50 0 0 1-50 50h-40a50 50 0 0 1-50-50V88a50 50 0 0 1 50-50h40a50 50 0 0 1 50 50Zm-64-96v40a6 6 0 0 1-12 0V72a6 6 0 0 1 12 0Z"></path></svg>