<svg xmlns="http://www.w3.org/2000/svg" xmlns:xlink="http://www.w3.org/1999/xlink" aria-hidden="true" role="img" class="iconify iconify--ph" width="1em" height="1em" preserveAspectRatio="xMidYMid meet" viewBox="0 0 256 256"><path fill="currentColor" d="M148 20h-40a68.1 68.1 0 0 0-68 68v80a68.1 68.1 0 0 0 68 68h40a68.1 68.1 0 0 0 68-68V88a68.1 68.1 0 0 0-68-68Zm44 68v12h-52V44h8a44 44 0 0 1 44 44Zm-84-44h8v56H64V88a44 44 0 0 1 44-44Zm40 168h-40a44 44 0 0 1-44-44v-44h128v44a44 44 0 0 1-44 44Z"></path></svg>