<svg xmlns="http://www.w3.org/2000/svg" xmlns:xlink="http://www.w3.org/1999/xlink" aria-hidden="true" role="img" class="iconify iconify--ph" width="1em" height="1em" preserveAspectRatio="xMidYMid meet" viewBox="0 0 256 256"><path fill="currentColor" d="M148 20h-40a68.1 68.1 0 0 0-68 68v80a68.1 68.1 0 0 0 68 68h40a68.1 68.1 0 0 0 68-68V88a68.1 68.1 0 0 0-68-68Zm44 148a44 44 0 0 1-44 44h-40a44 44 0 0 1-44-44V88a44 44 0 0 1 44-44h40a44 44 0 0 1 44 44Zm-52-92v40a12 12 0 0 1-24 0V76a12 12 0 0 1 24 0Z"></path></svg>