<svg xmlns="http://www.w3.org/2000/svg" xmlns:xlink="http://www.w3.org/1999/xlink" aria-hidden="true" role="img" class="iconify iconify--ph" width="1em" height="1em" preserveAspectRatio="xMidYMid meet" viewBox="0 0 256 256"><path fill="currentColor" d="M148 24h-40a64.1 64.1 0 0 0-64 64v80a64.1 64.1 0 0 0 64 64h40a64.1 64.1 0 0 0 64-64V88a64.1 64.1 0 0 0-64-64Zm48 144a48 48 0 0 1-48 48h-40a48 48 0 0 1-48-48V88a48 48 0 0 1 48-48h40a48 48 0 0 1 48 48Zm-60-96v40a8 8 0 0 1-16 0V72a8 8 0 0 1 16 0Z"></path></svg>