<svg xmlns="http://www.w3.org/2000/svg" xmlns:xlink="http://www.w3.org/1999/xlink" aria-hidden="true" role="img" class="iconify iconify--ph" width="1em" height="1em" preserveAspectRatio="xMidYMid meet" viewBox="0 0 256 256"><path fill="currentColor" d="M128 32h-20a56 56 0 0 0-56 56v24h76Z" opacity=".2"></path><path fill="currentColor" d="M148 24h-40a64.1 64.1 0 0 0-64 64v80a64.1 64.1 0 0 0 64 64h40a64.1 64.1 0 0 0 64-64V88a64.1 64.1 0 0 0-64-64Zm48 64v16h-60V40h12a48 48 0 0 1 48 48Zm-88-48h12v64H60V88a48 48 0 0 1 48-48Zm40 176h-40a48 48 0 0 1-48-48v-48h136v48a48 48 0 0 1-48 48Z"></path></svg>