<svg xmlns="http://www.w3.org/2000/svg" xmlns:xlink="http://www.w3.org/1999/xlink" aria-hidden="true" role="img" class="iconify iconify--ph" width="1em" height="1em" preserveAspectRatio="xMidYMid meet" viewBox="0 0 256 256"><path fill="currentColor" d="M232 56a8 8 0 0 1-8 8h-16v16a8 8 0 0 1-16 0V64h-16a8 8 0 0 1 0-16h16V32a8 8 0 0 1 16 0v16h16a8 8 0 0 1 8 8Zm-16 63.2V172a36 36 0 1 1-36-36a35.3 35.3 0 0 1 20 6.1v-22.9a8 8 0 1 1 16 0ZM200 172a20 20 0 1 0-20 20a20.1 20.1 0 0 0 20-20ZM88 118.2V204a36 36 0 1 1-36-36a35.3 35.3 0 0 1 20 6.1V64a8 8 0 0 1 6.1-7.8l56.4-14.1a8 8 0 1 1 3.9 15.5L88 70.2v31.6l69.1-17.3A8 8 0 1 1 161 100ZM72 204a20 20 0 1 0-20 20a20.1 20.1 0 0 0 20-20Z"></path></svg>