<svg xmlns="http://www.w3.org/2000/svg" xmlns:xlink="http://www.w3.org/1999/xlink" aria-hidden="true" role="img" class="iconify iconify--ph" width="1em" height="1em" preserveAspectRatio="xMidYMid meet" viewBox="0 0 256 256"><path fill="currentColor" d="M228 56a4 4 0 0 1-4 4h-20v20a4 4 0 0 1-8 0V60h-20a4 4 0 0 1 0-8h20V32a4 4 0 0 1 8 0v20h20a4 4 0 0 1 4 4Zm-16 63.2V172a32.1 32.1 0 1 1-8-21.1v-31.7a4 4 0 1 1 8 0Zm-8 52.8a24 24 0 1 0-24 24a24.1 24.1 0 0 0 24-24ZM84 115.1V204a32.1 32.1 0 1 1-8-21.1V64a4.1 4.1 0 0 1 3-3.9L135.5 46a4 4 0 0 1 4.8 2.9a4 4 0 0 1-2.9 4.9L84 67.1v39.8l74.1-18.5a4 4 0 0 1 1.9 7.7ZM76 204a24 24 0 1 0-24 24a24.1 24.1 0 0 0 24-24Z"></path></svg>