<svg xmlns="http://www.w3.org/2000/svg" xmlns:xlink="http://www.w3.org/1999/xlink" aria-hidden="true" role="img" class="iconify iconify--ph" width="1em" height="1em" preserveAspectRatio="xMidYMid meet" viewBox="0 0 256 256"><path fill="currentColor" d="M210.5 28.8a4.4 4.4 0 0 0-3.5-.7l-128 32a4.1 4.1 0 0 0-3 3.9v118.9a32 32 0 1 0 8 21.1V67.1l120-30v113.8a32 32 0 1 0 8 21.1V32a4.4 4.4 0 0 0-1.5-3.2ZM52 228a24 24 0 1 1 24-24a24.1 24.1 0 0 1-24 24Zm128-32a24 24 0 1 1 24-24a24.1 24.1 0 0 1-24 24Z"></path></svg>