<svg xmlns="http://www.w3.org/2000/svg" xmlns:xlink="http://www.w3.org/1999/xlink" aria-hidden="true" role="img" class="iconify iconify--ph" width="1em" height="1em" preserveAspectRatio="xMidYMid meet" viewBox="0 0 256 256"><path fill="currentColor" d="M230 56a6 6 0 0 1-6 6h-18v18a6 6 0 0 1-12 0V62h-18a6 6 0 0 1 0-12h18V32a6 6 0 0 1 12 0v18h18a6 6 0 0 1 6 6Zm-16 63.2V172a34 34 0 1 1-12-25.9v-26.9a6 6 0 1 1 12 0ZM202 172a22 22 0 1 0-22 22a22.1 22.1 0 0 0 22-22ZM86 116.7V204a34 34 0 1 1-12-25.9V64a5.9 5.9 0 0 1 4.5-5.8L135 44.1a6 6 0 0 1 7.3 4.3a6.1 6.1 0 0 1-4.4 7.3L86 68.7v35.6l71.6-17.9a6 6 0 0 1 2.9 11.7ZM74 204a22 22 0 1 0-22 22a22.1 22.1 0 0 0 22-22Z"></path></svg>