<svg xmlns="http://www.w3.org/2000/svg" xmlns:xlink="http://www.w3.org/1999/xlink" aria-hidden="true" role="img" class="iconify iconify--ph" width="1em" height="1em" preserveAspectRatio="xMidYMid meet" viewBox="0 0 256 256"><circle cx="180" cy="172" r="28" fill="currentColor" opacity=".2"></circle><circle cx="52" cy="204" r="28" fill="currentColor" opacity=".2"></circle><path fill="currentColor" d="M212.9 25.7a7.9 7.9 0 0 0-6.8-1.5l-128 32A8 8 0 0 0 72 64v110.1a35.3 35.3 0 0 0-20-6.1a36 36 0 1 0 36 36V70.2l112-28v99.9a35.3 35.3 0 0 0-20-6.1a36 36 0 1 0 36 36V32a7.8 7.8 0 0 0-3.1-6.3ZM52 224a20 20 0 1 1 20-20a20.1 20.1 0 0 1-20 20Zm128-32a20 20 0 1 1 20-20a20.1 20.1 0 0 1-20 20Z"></path></svg>