<svg xmlns="http://www.w3.org/2000/svg" xmlns:xlink="http://www.w3.org/1999/xlink" aria-hidden="true" role="img" class="iconify iconify--ph" width="1em" height="1em" preserveAspectRatio="xMidYMid meet" viewBox="0 0 256 256"><path fill="currentColor" d="M232 56a8 8 0 0 1-8 8h-16v16a8 8 0 0 1-16 0V64h-16a8 8 0 0 1 0-16h16V32a8 8 0 0 1 16 0v16h16a8 8 0 0 1 8 8Zm-24 55.2a8 8 0 0 0-8 8v22.9a35.3 35.3 0 0 0-20-6.1a36 36 0 1 0 36 36v-52.8a8 8 0 0 0-8-8Zm-45.6-11.7a7.9 7.9 0 0 0 4.4-5.2a8.3 8.3 0 0 0-2-7.7a9 9 0 0 0-2.6-1.7A32.3 32.3 0 0 1 144 56a37.1 37.1 0 0 1 .3-4.7a7.9 7.9 0 0 0-2-6.9a8.1 8.1 0 0 0-7.8-2.3L78.1 56.2A8 8 0 0 0 72 64v110.1a35.3 35.3 0 0 0-20-6.1a36 36 0 1 0 36 36v-85.8l72.8-18.2Z"></path></svg>