<svg xmlns="http://www.w3.org/2000/svg" xmlns:xlink="http://www.w3.org/1999/xlink" aria-hidden="true" role="img" class="iconify iconify--ph" width="1em" height="1em" preserveAspectRatio="xMidYMid meet" viewBox="0 0 256 256"><path fill="currentColor" d="m210.3 56.3l-80-24a8.2 8.2 0 0 0-7.1 1.3A8.1 8.1 0 0 0 120 40v108.3A47.4 47.4 0 0 0 88 136a48 48 0 1 0 48 48V98.8l69.7 20.9a8.2 8.2 0 0 0 7.1-1.3a8.1 8.1 0 0 0 3.2-6.4V64a8.1 8.1 0 0 0-5.7-7.7ZM88 216a32 32 0 1 1 32-32a32.1 32.1 0 0 1-32 32Zm112-114.8L136 82V50.8L200 70Z"></path></svg>