<svg xmlns="http://www.w3.org/2000/svg" xmlns:xlink="http://www.w3.org/1999/xlink" aria-hidden="true" role="img" class="iconify iconify--ph" width="1em" height="1em" preserveAspectRatio="xMidYMid meet" viewBox="0 0 256 256"><path fill="currentColor" d="M236 56a12 12 0 0 1-12 12h-12v12a12 12 0 0 1-24 0V68h-12a12 12 0 0 1 0-24h12V32a12 12 0 0 1 24 0v12h12a12 12 0 0 1 12 12ZM92 121.4V204a40 40 0 1 1-40-40a38.9 38.9 0 0 1 16 3.4V64a11.9 11.9 0 0 1 9.1-11.6l48.2-12.1a12 12 0 0 1 5.8 23.3L92 73.4v23.2l53.1-13.2a12 12 0 1 1 5.8 23.2ZM68 204a16 16 0 1 0-16 16a16 16 0 0 0 16-16Zm152-76.7V172a40 40 0 1 1-40-40a38.9 38.9 0 0 1 16 3.4v-8.1a12 12 0 0 1 24 0ZM196 172a16 16 0 1 0-16 16a16 16 0 0 0 16-16Z"></path></svg>