<svg xmlns="http://www.w3.org/2000/svg" xmlns:xlink="http://www.w3.org/1999/xlink" aria-hidden="true" role="img" class="iconify iconify--ph" width="1em" height="1em" preserveAspectRatio="xMidYMid meet" viewBox="0 0 256 256"><path fill="currentColor" d="m209.1 60.2l-80-24a3.7 3.7 0 0 0-3.5.6A3.9 3.9 0 0 0 124 40v118.7a44 44 0 1 0 8 25.3V93.4l74.9 22.4a3.7 3.7 0 0 0 3.5-.6a3.9 3.9 0 0 0 1.6-3.2V64a4 4 0 0 0-2.9-3.8ZM88 220a36 36 0 1 1 36-36a36 36 0 0 1-36 36Zm116-113.4L132 85V45.4L204 67Z"></path></svg>