<svg xmlns="http://www.w3.org/2000/svg" xmlns:xlink="http://www.w3.org/1999/xlink" aria-hidden="true" role="img" class="iconify iconify--ph" width="1em" height="1em" preserveAspectRatio="xMidYMid meet" viewBox="0 0 256 256"><path fill="currentColor" d="M211.7 27.3a5.8 5.8 0 0 0-5.2-1.1l-128 32A5.9 5.9 0 0 0 74 64v114.1A34 34 0 1 0 86 204V68.7l116-29v106.4a34 34 0 1 0 12 25.9V32a6.1 6.1 0 0 0-2.3-4.7ZM52 226a22 22 0 1 1 22-22a22.1 22.1 0 0 1-22 22Zm128-32a22 22 0 1 1 22-22a22.1 22.1 0 0 1-22 22Z"></path></svg>