<svg xmlns="http://www.w3.org/2000/svg" xmlns:xlink="http://www.w3.org/1999/xlink" aria-hidden="true" role="img" class="iconify iconify--ph" width="1em" height="1em" preserveAspectRatio="xMidYMid meet" viewBox="0 0 256 256"><path fill="currentColor" d="m209.7 58.3l-80-24a5.9 5.9 0 0 0-5.3.9A6 6 0 0 0 122 40v113a46 46 0 1 0 12 31V96.1l72.3 21.6a5.9 5.9 0 0 0 5.3-.9a6 6 0 0 0 2.4-4.8V64a5.9 5.9 0 0 0-4.3-5.7ZM88 218a34 34 0 1 1 34-34a34.1 34.1 0 0 1-34 34Zm114-114.1l-68-20.4V48.1l68 20.4Z"></path></svg>