<svg xmlns="http://www.w3.org/2000/svg" xmlns:xlink="http://www.w3.org/1999/xlink" aria-hidden="true" role="img" class="iconify iconify--ph" width="1em" height="1em" preserveAspectRatio="xMidYMid meet" viewBox="0 0 256 256"><path fill="currentColor" d="M215.4 22.5a12.2 12.2 0 0 0-10.3-2.1l-128 32A11.9 11.9 0 0 0 68 64v103.4a38.9 38.9 0 0 0-16-3.4a40 40 0 1 0 40 40v-82.6l104-26v40a38.9 38.9 0 0 0-16-3.4a40 40 0 1 0 40 40V32a12.1 12.1 0 0 0-4.6-9.5ZM52 220a16 16 0 1 1 16-16a16 16 0 0 1-16 16ZM92 96.6V73.4l104-26v23.2Zm88 91.4a16 16 0 1 1 16-16a16 16 0 0 1-16 16Z"></path></svg>