<svg xmlns="http://www.w3.org/2000/svg" xmlns:xlink="http://www.w3.org/1999/xlink" aria-hidden="true" role="img" class="iconify iconify--ph" width="1em" height="1em" preserveAspectRatio="xMidYMid meet" viewBox="0 0 256 256"><path fill="currentColor" d="M103.5 234.3a19.9 19.9 0 0 1-18.8-13.5L26.1 51.5a19.7 19.7 0 0 1 4.7-20.7A19.9 19.9 0 0 1 51.5 26l169.3 58.7a19.9 19.9 0 0 1 13.5 19.2a20.1 20.1 0 0 1-14.2 18.8l-74.5 22.9l-22.9 74.5a19.9 19.9 0 0 1-18.8 14.1Zm3.8-21.4ZM51.4 51.4l51.9 150l20-64.9a19.8 19.8 0 0 1 13.2-13.2l64.9-20Zm-2.7-7.8Z"></path></svg>