<svg xmlns="http://www.w3.org/2000/svg" xmlns:xlink="http://www.w3.org/1999/xlink" aria-hidden="true" role="img" class="iconify iconify--ph" width="1em" height="1em" preserveAspectRatio="xMidYMid meet" viewBox="0 0 256 256"><path fill="currentColor" d="M37.4 47.6L96 216.9c2.5 7.3 12.9 7.1 15.2-.3l23.6-76.6a7.5 7.5 0 0 1 5.3-5.2l76.5-23.6c7.4-2.3 7.6-12.7.3-15.2L47.6 37.4a8 8 0 0 0-10.2 10.2Z" opacity=".2"></path><path fill="currentColor" d="M103.5 230.3a15.8 15.8 0 0 1-15.1-10.8L29.8 50.2a16 16 0 0 1 20.4-20.4l169.3 58.6a15.9 15.9 0 0 1 10.8 15.4a15.8 15.8 0 0 1-11.3 15l-76.6 23.6l-23.6 76.6a15.6 15.6 0 0 1-15 11.2ZM45 44.9l58.6 169.4l23.5-76.6a16.1 16.1 0 0 1 10.6-10.6l76.6-23.5Zm0 0Z"></path></svg>