<svg xmlns="http://www.w3.org/2000/svg" xmlns:xlink="http://www.w3.org/1999/xlink" aria-hidden="true" role="img" class="iconify iconify--ph" width="1em" height="1em" preserveAspectRatio="xMidYMid meet" viewBox="0 0 256 256"><path fill="currentColor" d="M103.5 226.3a11.8 11.8 0 0 1-11.3-8.1L33.6 48.9a12.1 12.1 0 0 1 15.3-15.3l169.3 58.6a12 12 0 0 1-.4 22.8l-76.6 23.6a4.2 4.2 0 0 0-2.6 2.6L115 217.8a11.7 11.7 0 0 1-11.2 8.4ZM44.9 40.9a3.9 3.9 0 0 0-2.8 1.2a4 4 0 0 0-.9 4.2l58.6 169.3a3.8 3.8 0 0 0 3.8 2.6a3.8 3.8 0 0 0 3.8-2.8l23.5-76.5a12.3 12.3 0 0 1 8-8l76.5-23.5a4.1 4.1 0 0 0 2.9-3.8a3.9 3.9 0 0 0-2.7-3.8L46.3 41.2a3.5 3.5 0 0 0-1.4-.3Z"></path></svg>