<svg xmlns="http://www.w3.org/2000/svg" xmlns:xlink="http://www.w3.org/1999/xlink" aria-hidden="true" role="img" class="iconify iconify--ph" width="1em" height="1em" preserveAspectRatio="xMidYMid meet" viewBox="0 0 256 256"><path fill="currentColor" d="M215.1 40.9a43.9 43.9 0 0 0-62.2 0l-24 24a12.1 12.1 0 0 0-3.4 6.4c-7.1 41.7-70.2 112.4-94 136.2a12 12 0 0 0 0 17a12.1 12.1 0 0 0 17 0c23.7-23.7 94.5-86.9 136.2-94a12.1 12.1 0 0 0 6.4-3.4l24-24a43.9 43.9 0 0 0 0-62.2Zm-17 45.2l-21.4 21.5c-14.8 3.3-32.4 11.4-52.5 24.2c12.8-20.1 20.9-37.7 24.2-52.5l21.5-21.4a19.9 19.9 0 1 1 28.2 28.2Z"></path></svg>