<svg xmlns="http://www.w3.org/2000/svg" xmlns:xlink="http://www.w3.org/1999/xlink" aria-hidden="true" role="img" class="iconify iconify--ph" width="1em" height="1em" preserveAspectRatio="xMidYMid meet" viewBox="0 0 256 256"><path fill="currentColor" d="M212.3 43.7a40.1 40.1 0 0 0-56.6 0l-24 24a8.1 8.1 0 0 0-2.2 4.3c-8.8 51.3-93.5 136.7-95.1 138.3h-.1a8.1 8.1 0 0 0 0 11.4a8.2 8.2 0 0 0 11.4 0c.8-.9 86.8-86.4 138.3-95.2a8.1 8.1 0 0 0 4.3-2.2l24-24a40.1 40.1 0 0 0 0-56.6Zm-22.6 34l-16 16a8.2 8.2 0 0 1-11.4 0a8.1 8.1 0 0 1 0-11.4l16-16a8.1 8.1 0 0 1 11.4 11.4Z"></path></svg>