<svg xmlns="http://www.w3.org/2000/svg" xmlns:xlink="http://www.w3.org/1999/xlink" aria-hidden="true" role="img" class="iconify iconify--ph" width="1em" height="1em" preserveAspectRatio="xMidYMid meet" viewBox="0 0 256 256"><path fill="currentColor" d="M216 44H40a12 12 0 0 0-12 12v160a3.9 3.9 0 0 0 1.9 3.4a4.1 4.1 0 0 0 3.9.2L64 204.5l30.2 15.1a4.5 4.5 0 0 0 3.6 0l30.2-15.1l30.2 15.1a4.5 4.5 0 0 0 3.6 0l30.2-15.1l30.2 15.1a4 4 0 0 0 5.8-3.6V56a12 12 0 0 0-12-12Zm4 165.5l-26.2-13.1a4.5 4.5 0 0 0-3.6 0L160 211.5l-30.2-15.1a4.2 4.2 0 0 0-3.6 0L96 211.5l-30.2-15.1a4.5 4.5 0 0 0-3.6 0L36 209.5V56a4 4 0 0 1 4-4h176a4 4 0 0 1 4 4ZM196 112a4 4 0 0 1-4 4h-48a4 4 0 0 1 0-8h48a4 4 0 0 1 4 4Zm0 32a4 4 0 0 1-4 4h-48a4 4 0 0 1 0-8h48a4 4 0 0 1 4 4Zm-84-52H64a4 4 0 0 0-4 4v64a4 4 0 0 0 4 4h48a4 4 0 0 0 4-4V96a4 4 0 0 0-4-4Zm-4 64H68v-56h40Z"></path></svg>