<svg xmlns="http://www.w3.org/2000/svg" xmlns:xlink="http://www.w3.org/1999/xlink" aria-hidden="true" role="img" class="iconify iconify--ph" width="1em" height="1em" preserveAspectRatio="xMidYMid meet" viewBox="0 0 256 256"><path fill="currentColor" d="M216 40H40a16 16 0 0 0-16 16v160a7.9 7.9 0 0 0 3.8 6.8a8 8 0 0 0 7.8.4L64 208.9l28.4 14.3a8.3 8.3 0 0 0 7.2 0l28.4-14.3l28.4 14.3a8.5 8.5 0 0 0 7.2 0l28.4-14.3l28.4 14.3a8 8 0 0 0 7.8-.4a7.9 7.9 0 0 0 3.8-6.8V56a16 16 0 0 0-16-16Zm0 163.1l-20.4-10.3a8.3 8.3 0 0 0-7.2 0L160 207.1l-28.4-14.3a8.5 8.5 0 0 0-7.2 0L96 207.1l-28.4-14.3a8.3 8.3 0 0 0-7.2 0L40 203.1V56h176ZM136 112a8 8 0 0 1 8-8h48a8 8 0 0 1 0 16h-48a8 8 0 0 1-8-8Zm0 32a8 8 0 0 1 8-8h48a8 8 0 0 1 0 16h-48a8 8 0 0 1-8-8Zm-72 24h48a8 8 0 0 0 8-8V96a8 8 0 0 0-8-8H64a8 8 0 0 0-8 8v64a8 8 0 0 0 8 8Zm8-64h32v48H72Z"></path></svg>