<svg xmlns="http://www.w3.org/2000/svg" xmlns:xlink="http://www.w3.org/1999/xlink" aria-hidden="true" role="img" class="iconify iconify--ph" width="1em" height="1em" preserveAspectRatio="xMidYMid meet" viewBox="0 0 256 256"><path fill="currentColor" d="M72 104h32v48H72Zm160-48v160a7.9 7.9 0 0 1-3.8 6.8a8 8 0 0 1-7.8.4L192 208.9l-28.4 14.3a8.5 8.5 0 0 1-7.2 0L128 208.9l-28.4 14.3a8.3 8.3 0 0 1-7.2 0L64 208.9l-28.4 14.3a8 8 0 0 1-7.8-.4A7.9 7.9 0 0 1 24 216V56a16 16 0 0 1 16-16h176a16 16 0 0 1 16 16ZM120 96a8 8 0 0 0-8-8H64a8 8 0 0 0-8 8v64a8 8 0 0 0 8 8h48a8 8 0 0 0 8-8Zm80 48a8 8 0 0 0-8-8h-48a8 8 0 0 0 0 16h48a8 8 0 0 0 8-8Zm0-32a8 8 0 0 0-8-8h-48a8 8 0 0 0 0 16h48a8 8 0 0 0 8-8Z"></path></svg>