<svg xmlns="http://www.w3.org/2000/svg" xmlns:xlink="http://www.w3.org/1999/xlink" aria-hidden="true" role="img" class="iconify iconify--ph" width="1em" height="1em" preserveAspectRatio="xMidYMid meet" viewBox="0 0 256 256"><path fill="currentColor" d="M216 36H40a20.1 20.1 0 0 0-20 20v160a12 12 0 0 0 5.7 10.2a11.9 11.9 0 0 0 11.7.5L64 213.4l26.6 13.3a12.1 12.1 0 0 0 10.8 0l26.6-13.3l26.6 13.3a11.9 11.9 0 0 0 10.8 0l26.6-13.3l26.6 13.3a11.9 11.9 0 0 0 11.7-.5A12 12 0 0 0 236 216V56a20.1 20.1 0 0 0-20-20Zm-4 160.6l-14.6-7.3a12.1 12.1 0 0 0-10.8 0L160 202.6l-26.6-13.3a11.9 11.9 0 0 0-10.8 0L96 202.6l-26.6-13.3a12.1 12.1 0 0 0-10.8 0L44 196.6V60h168ZM136 108a12 12 0 0 1 12-12h36a12 12 0 0 1 0 24h-36a12 12 0 0 1-12-12Zm0 40a12 12 0 0 1 12-12h36a12 12 0 0 1 0 24h-36a12 12 0 0 1-12-12Zm-64 24h40a12 12 0 0 0 12-12V96a12 12 0 0 0-12-12H72a12 12 0 0 0-12 12v64a12 12 0 0 0 12 12Zm12-64h16v40H84Z"></path></svg>