<svg xmlns="http://www.w3.org/2000/svg" xmlns:xlink="http://www.w3.org/1999/xlink" aria-hidden="true" role="img" class="iconify iconify--ph" width="1em" height="1em" preserveAspectRatio="xMidYMid meet" viewBox="0 0 256 256"><path fill="currentColor" d="M92 108a12 12 0 0 1 12-12h72a12 12 0 0 1 0 24h-72a12 12 0 0 1-12-12Zm12 52h72a12 12 0 0 0 0-24h-72a12 12 0 0 0 0 24Zm132-96v120a28.1 28.1 0 0 1-28 28H36a32.1 32.1 0 0 1-32-32V88a12 12 0 0 1 24 0v92a8 8 0 0 0 16 0V64a20.1 20.1 0 0 1 20-20h152a20.1 20.1 0 0 1 20 20Zm-24 4H68v112a35 35 0 0 1-1 8h141a4 4 0 0 0 4-4Z"></path></svg>