<svg xmlns="http://www.w3.org/2000/svg" xmlns:xlink="http://www.w3.org/1999/xlink" aria-hidden="true" role="img" class="iconify iconify--ph" width="1em" height="1em" preserveAspectRatio="xMidYMid meet" viewBox="0 0 256 256"><path fill="currentColor" d="M216 42H40a14 14 0 0 0-14 14v160a6.1 6.1 0 0 0 2.8 5.1a6.2 6.2 0 0 0 5.9.3L64 206.7l29.3 14.7a6.4 6.4 0 0 0 5.4 0l29.3-14.7l29.3 14.7a6.4 6.4 0 0 0 5.4 0l29.3-14.7l29.3 14.7a6.6 6.6 0 0 0 2.7.6a6.2 6.2 0 0 0 3.2-.9a6.1 6.1 0 0 0 2.8-5.1V56a14 14 0 0 0-14-14Zm2 164.3l-23.3-11.7a6.4 6.4 0 0 0-5.4 0L160 209.3l-29.3-14.7a6.4 6.4 0 0 0-5.4 0L96 209.3l-29.3-14.7a6.4 6.4 0 0 0-5.4 0L38 206.3V56a2 2 0 0 1 2-2h176a2 2 0 0 1 2 2ZM198 112a6 6 0 0 1-6 6h-48a6 6 0 0 1 0-12h48a6 6 0 0 1 6 6Zm0 32a6 6 0 0 1-6 6h-48a6 6 0 0 1 0-12h48a6 6 0 0 1 6 6Zm-86-54H64a6 6 0 0 0-6 6v64a6 6 0 0 0 6 6h48a6 6 0 0 0 6-6V96a6 6 0 0 0-6-6Zm-6 64H70v-52h36Z"></path></svg>