<svg xmlns="http://www.w3.org/2000/svg" xmlns:xlink="http://www.w3.org/1999/xlink" aria-hidden="true" role="img" class="iconify iconify--ph" width="1em" height="1em" preserveAspectRatio="xMidYMid meet" viewBox="0 0 256 256"><path fill="currentColor" d="M182 112a6 6 0 0 1-6 6H96a6 6 0 0 1 0-12h80a6 6 0 0 1 6 6Zm-6 26H96a6 6 0 0 0 0 12h80a6 6 0 0 0 0-12Zm54-74v120a22.1 22.1 0 0 1-22 22H32a22 22 0 0 1-22-21.9V88a6 6 0 0 1 12 0v96a10 10 0 0 0 20 0V64a14 14 0 0 1 14-14h160a14 14 0 0 1 14 14Zm-12 0a2 2 0 0 0-2-2H56a2 2 0 0 0-2 2v120a22.3 22.3 0 0 1-2.4 10H208a10 10 0 0 0 10-10Z"></path></svg>