<svg xmlns="http://www.w3.org/2000/svg" xmlns:xlink="http://www.w3.org/1999/xlink" aria-hidden="true" role="img" class="iconify iconify--ph" width="1em" height="1em" preserveAspectRatio="xMidYMid meet" viewBox="0 0 256 256"><path fill="currentColor" d="M200 32h-16v-8a8 8 0 0 0-16 0v8h-32v-8a8 8 0 0 0-16 0v8H88v-8a8 8 0 0 0-16 0v8H56a16 16 0 0 0-16 16v152a32.1 32.1 0 0 0 32 32h112a32.1 32.1 0 0 0 32-32V48a16 16 0 0 0-16-16Zm-40 136H96a8 8 0 0 1 0-16h64a8 8 0 0 1 0 16Zm0-32H96a8 8 0 0 1 0-16h64a8 8 0 0 1 0 16Z"></path></svg>