<svg xmlns="http://www.w3.org/2000/svg" xmlns:xlink="http://www.w3.org/1999/xlink" aria-hidden="true" role="img" class="iconify iconify--ph" width="1em" height="1em" preserveAspectRatio="xMidYMid meet" viewBox="0 0 256 256"><path fill="currentColor" d="M224 156.7V48a16 16 0 0 0-16-16H48a16 16 0 0 0-16 16v160a16 16 0 0 0 16 16h108.7a15.9 15.9 0 0 0 11.3-4.7l51.3-51.3a16.7 16.7 0 0 0 3.3-4.7c0-.1 0-.1.1-.2a17.4 17.4 0 0 0 1.3-6.4ZM48 48h160v104h-48a8 8 0 0 0-8 8v48H48Zm148.7 120L168 196.7V168Z"></path></svg>