<svg xmlns="http://www.w3.org/2000/svg" xmlns:xlink="http://www.w3.org/1999/xlink" aria-hidden="true" role="img" class="iconify iconify--ph" width="1em" height="1em" preserveAspectRatio="xMidYMid meet" viewBox="0 0 256 256"><path fill="currentColor" d="M208 36H48a12 12 0 0 0-12 12v160a12 12 0 0 0 12 12h108.7a11.9 11.9 0 0 0 8.5-3.5l51.3-51.3a11.9 11.9 0 0 0 3.5-8.5V48a12 12 0 0 0-12-12Zm-44 170.3V164h42.4Zm48-50.3h-52a4 4 0 0 0-4 4v52H48a4 4 0 0 1-4-4V48a4 4 0 0 1 4-4h160a4 4 0 0 1 4 4Z"></path></svg>