<svg xmlns="http://www.w3.org/2000/svg" xmlns:xlink="http://www.w3.org/1999/xlink" aria-hidden="true" role="img" class="iconify iconify--ph" width="1em" height="1em" preserveAspectRatio="xMidYMid meet" viewBox="0 0 256 256"><path fill="currentColor" d="M84 108a12 12 0 0 1 12-12h64a12 12 0 0 1 0 24H96a12 12 0 0 1-12-12Zm32 28H96a12 12 0 0 0 0 24h20a12 12 0 0 0 0-24Zm112-88v108.7a19.7 19.7 0 0 1-5.9 14.1l-51.3 51.3a19.7 19.7 0 0 1-14.1 5.9H48a20.1 20.1 0 0 1-20-20V48a20.1 20.1 0 0 1 20-20h160a20.1 20.1 0 0 1 20 20ZM52 204h92v-48a12 12 0 0 1 12-12h48V52H52Zm139-36h-23v23Z"></path></svg>