<svg xmlns="http://www.w3.org/2000/svg" xmlns:xlink="http://www.w3.org/1999/xlink" aria-hidden="true" role="img" class="iconify iconify--ph" width="1em" height="1em" preserveAspectRatio="xMidYMid meet" viewBox="0 0 256 256"><path fill="currentColor" d="M128 160H96v-32l72-72l32 32l-72 72z" opacity=".2"></path><path fill="currentColor" d="m229.6 58.3l-32-32a8 8 0 0 0-11.3 0l-96 96A8.1 8.1 0 0 0 88 128v32a8 8 0 0 0 8 8h32a7.9 7.9 0 0 0 5.6-2.3l96-96a8 8 0 0 0 0-11.4ZM124.7 152H104v-20.7l64-64L188.7 88ZM200 76.7L179.3 56L192 43.3L212.7 64Z"></path><path fill="currentColor" d="M216 112a8 8 0 0 0-8 8v88H48V48h88a8 8 0 0 0 0-16H48a16 16 0 0 0-16 16v160a16 16 0 0 0 16 16h160a16 16 0 0 0 16-16v-88a8 8 0 0 0-8-8Z"></path></svg>