<svg xmlns="http://www.w3.org/2000/svg" xmlns:xlink="http://www.w3.org/1999/xlink" aria-hidden="true" role="img" class="iconify iconify--ph" width="1em" height="1em" preserveAspectRatio="xMidYMid meet" viewBox="0 0 256 256"><path fill="currentColor" d="M108 108a12 12 0 0 1 12-12h56a12 12 0 0 1 0 24h-56a12 12 0 0 1-12-12Zm68 28h-56a12 12 0 0 0 0 24h56a12 12 0 0 0 0-24Zm52-88v160a20.1 20.1 0 0 1-20 20H48a20.1 20.1 0 0 1-20-20V48a20.1 20.1 0 0 1 20-20h160a20.1 20.1 0 0 1 20 20ZM52 204h16V52H52ZM204 52H92v152h112Z"></path></svg>