<svg xmlns="http://www.w3.org/2000/svg" xmlns:xlink="http://www.w3.org/1999/xlink" aria-hidden="true" role="img" class="iconify iconify--ph" width="1em" height="1em" preserveAspectRatio="xMidYMid meet" viewBox="0 0 256 256"><path fill="currentColor" d="m226.8 61.2l-32-32a3.9 3.9 0 0 0-5.6 0l-96 96A3.6 3.6 0 0 0 92 128v32a4 4 0 0 0 4 4h32a3.6 3.6 0 0 0 2.8-1.2l96-96a3.9 3.9 0 0 0 0-5.6ZM126.3 156H100v-26.3l68-68L194.3 88ZM200 82.3L173.7 56L192 37.7L218.3 64Zm20 37.7v88a12 12 0 0 1-12 12H48a12 12 0 0 1-12-12V48a12 12 0 0 1 12-12h88a4 4 0 0 1 0 8H48a4 4 0 0 0-4 4v160a4 4 0 0 0 4 4h160a4 4 0 0 0 4-4v-88a4 4 0 0 1 8 0Z"></path></svg>