<svg xmlns="http://www.w3.org/2000/svg" xmlns:xlink="http://www.w3.org/1999/xlink" aria-hidden="true" role="img" class="iconify iconify--ph" width="1em" height="1em" preserveAspectRatio="xMidYMid meet" viewBox="0 0 256 256"><path fill="currentColor" d="M208 34H48a14 14 0 0 0-14 14v160a14 14 0 0 0 14 14h108.7a13.1 13.1 0 0 0 5.6-1.2h.2a14.2 14.2 0 0 0 4.1-2.8l51.3-51.3a14.3 14.3 0 0 0 4.1-9.9V48a14 14 0 0 0-14-14ZM46 208V48a2 2 0 0 1 2-2h160a2 2 0 0 1 2 2v106h-50a6 6 0 0 0-6 6v50H48a2 2 0 0 1-2-2Zm120-6.5V166h35.5Z"></path></svg>