<svg xmlns="http://www.w3.org/2000/svg" xmlns:xlink="http://www.w3.org/1999/xlink" aria-hidden="true" role="img" class="iconify iconify--ph" width="1em" height="1em" preserveAspectRatio="xMidYMid meet" viewBox="0 0 256 256"><path fill="currentColor" d="M88 96a8 8 0 0 1 8-8h64a8 8 0 0 1 0 16H96a8 8 0 0 1-8-8Zm8 40h64a8 8 0 0 0 0-16H96a8 8 0 0 0 0 16Zm32 16H96a8 8 0 0 0 0 16h32a8 8 0 0 0 0-16Zm96-104v108.7a15.9 15.9 0 0 1-4.7 11.3L168 219.3a15.9 15.9 0 0 1-11.3 4.7H48a16 16 0 0 1-16-16V48a16 16 0 0 1 16-16h160a16 16 0 0 1 16 16ZM48 208h104v-48a8 8 0 0 1 8-8h48V48H48Zm120-40v28.7l28.7-28.7Z"></path></svg>