<svg xmlns="http://www.w3.org/2000/svg" xmlns:xlink="http://www.w3.org/1999/xlink" aria-hidden="true" role="img" class="iconify iconify--ph" width="1em" height="1em" preserveAspectRatio="xMidYMid meet" viewBox="0 0 256 256"><path fill="currentColor" d="M80 216H48a8 8 0 0 1-8-8V48a8 8 0 0 1 8-8h32Z" opacity=".2"></path><path fill="currentColor" d="M176 104h-64a8 8 0 0 0 0 16h64a8 8 0 0 0 0-16Zm0 32h-64a8 8 0 0 0 0 16h64a8 8 0 0 0 0-16Z"></path><path fill="currentColor" d="M208 32H48a16 16 0 0 0-16 16v160a16 16 0 0 0 16 16h160a16 16 0 0 0 16-16V48a16 16 0 0 0-16-16ZM72 208H48V48h24Zm136 0H88V48h120v160Z"></path></svg>