<svg xmlns="http://www.w3.org/2000/svg" xmlns:xlink="http://www.w3.org/1999/xlink" aria-hidden="true" role="img" class="iconify iconify--ph" width="1em" height="1em" preserveAspectRatio="xMidYMid meet" viewBox="0 0 256 256"><path fill="currentColor" d="M224 60a28 28 0 1 1-28-28a28 28 0 0 1 28 28Z" opacity=".2"></path><path fill="currentColor" d="M216 128v80a16 16 0 0 1-16 16H48a16 16 0 0 1-16-16V56a16 16 0 0 1 16-16h80a8 8 0 0 1 0 16H48v152h152v-80a8 8 0 0 1 16 0Zm16-68a36 36 0 1 1-36-36a36 36 0 0 1 36 36Zm-16 0a20 20 0 1 0-20 20a20.1 20.1 0 0 0 20-20Z"></path></svg>