<svg xmlns="http://www.w3.org/2000/svg" xmlns:xlink="http://www.w3.org/1999/xlink" aria-hidden="true" role="img" class="iconify iconify--ph" width="1em" height="1em" preserveAspectRatio="xMidYMid meet" viewBox="0 0 256 256"><path fill="currentColor" d="M128 28a100 100 0 1 0 100 100A100.2 100.2 0 0 0 128 28Zm0 192a92 92 0 1 1 92-92a92.1 92.1 0 0 1-92 92Zm27.2-138.3a3.8 3.8 0 0 1 .6 3.6l-32 96a4.1 4.1 0 0 1-3.8 2.7l-1.3-.2a4 4 0 0 1-2.5-5.1L146.5 88H104a4 4 0 0 1 0-8h48a3.7 3.7 0 0 1 3.2 1.7Z"></path></svg>