<svg xmlns="http://www.w3.org/2000/svg" xmlns:xlink="http://www.w3.org/1999/xlink" aria-hidden="true" role="img" class="iconify iconify--ph" width="1em" height="1em" preserveAspectRatio="xMidYMid meet" viewBox="0 0 256 256"><path fill="currentColor" d="m115.2 84l-5.7 35.4a32.1 32.1 0 0 1 14.4-3.4a32.1 32.1 0 0 1 32.1 32a31.4 31.4 0 0 1-9.4 22.6a32.1 32.1 0 0 1-45.4 0a4 4 0 0 1 5.6-5.6a24.3 24.3 0 0 0 34.1 0a24 24 0 0 0-17-41a24.2 24.2 0 0 0-17.1 7a3.8 3.8 0 0 1-4.6.8a3.9 3.9 0 0 1-2.1-4.2l7.8-48.2a4 4 0 0 1 3.9-3.4H152a4 4 0 0 1 0 8ZM220 48v160a12 12 0 0 1-12 12H48a12 12 0 0 1-12-12V48a12 12 0 0 1 12-12h160a12 12 0 0 1 12 12Zm-8 0a4 4 0 0 0-4-4H48a4 4 0 0 0-4 4v160a4 4 0 0 0 4 4h160a4 4 0 0 0 4-4Z"></path></svg>