<svg xmlns="http://www.w3.org/2000/svg" xmlns:xlink="http://www.w3.org/1999/xlink" aria-hidden="true" role="img" class="iconify iconify--ph" width="1em" height="1em" preserveAspectRatio="xMidYMid meet" viewBox="0 0 256 256"><circle cx="128" cy="128" r="96" fill="currentColor" opacity=".2"></circle><path fill="currentColor" d="M128 24a104 104 0 1 0 104 104A104.2 104.2 0 0 0 128 24Zm0 192a88 88 0 1 1 88-88a88.1 88.1 0 0 1-88 88Zm28-104v64a8 8 0 0 1-16 0v-24h-40a8 8 0 0 1-6.5-3.4a7.9 7.9 0 0 1-1-7.3l24-68a8 8 0 0 1 15 5.4L111.3 136H140v-24a8 8 0 0 1 16 0Z"></path></svg>