<svg xmlns="http://www.w3.org/2000/svg" xmlns:xlink="http://www.w3.org/1999/xlink" aria-hidden="true" role="img" class="iconify iconify--ph" width="1em" height="1em" preserveAspectRatio="xMidYMid meet" viewBox="0 0 256 256"><rect width="176" height="176" x="40" y="40" fill="currentColor" opacity=".2" rx="8"></rect><path fill="currentColor" d="M128 72c-13 0-24 6.7-31.2 19c-5.7 9.7-8.8 22.9-8.8 37s3.1 27.3 8.8 37c7.2 12.3 18.2 19 31.2 19s24-6.7 31.2-19c5.7-9.7 8.8-22.9 8.8-37s-3.1-27.3-8.8-37C152 78.7 141 72 128 72Zm0 96c-8.9 0-24-8.4-24-40s15.1-40 24-40s24 8.4 24 40s-15.1 40-24 40Zm80-136H48a16 16 0 0 0-16 16v160a16 16 0 0 0 16 16h160a16 16 0 0 0 16-16V48a16 16 0 0 0-16-16Zm0 176H48V48h160v160Z"></path></svg>