<svg xmlns="http://www.w3.org/2000/svg" xmlns:xlink="http://www.w3.org/1999/xlink" aria-hidden="true" role="img" class="iconify iconify--ph" width="1em" height="1em" preserveAspectRatio="xMidYMid meet" viewBox="0 0 256 256"><path fill="currentColor" d="M179.9 118.1a.4.4 0 0 0 .1-.3a59 59 0 0 0 8-29.8a60 60 0 1 0-30.8 52.4l-48.9 81.5a4 4 0 0 0 1.4 5.5a3.6 3.6 0 0 0 2 .6a4.2 4.2 0 0 0 3.5-1.9l64.1-106.9c0-.1 0-.2.1-.2ZM128 140a52 52 0 1 1 52-52a51.5 51.5 0 0 1-7.4 26.7l-.2.4A52.1 52.1 0 0 1 128 140Z"></path></svg>