<svg xmlns="http://www.w3.org/2000/svg" xmlns:xlink="http://www.w3.org/1999/xlink" aria-hidden="true" role="img" class="iconify iconify--ph" width="1em" height="1em" preserveAspectRatio="xMidYMid meet" viewBox="0 0 256 256"><circle cx="128" cy="128" r="96" fill="currentColor" opacity=".2"></circle><path fill="currentColor" d="M128 24a104 104 0 1 0 104 104A104.2 104.2 0 0 0 128 24Zm0 192a88 88 0 1 1 88-88a88.1 88.1 0 0 1-88 88Zm0-108h-1.8l16.7-27.9a8 8 0 1 0-13.8-8.2l-32.2 54l-.3.6A36 36 0 1 0 128 108Zm0 56a20 20 0 1 1 20-20a20.1 20.1 0 0 1-20 20Z"></path></svg>