<svg xmlns="http://www.w3.org/2000/svg" xmlns:xlink="http://www.w3.org/1999/xlink" aria-hidden="true" role="img" class="iconify iconify--ph" width="1em" height="1em" preserveAspectRatio="xMidYMid meet" viewBox="0 0 256 256"><path fill="currentColor" d="M208 32H48a16 16 0 0 0-16 16v160a16 16 0 0 0 16 16h160a16 16 0 0 0 16-16V48a16 16 0 0 0-16-16Zm-48.4 54.5l-32 96a7.9 7.9 0 0 1-7.6 5.5a7.3 7.3 0 0 1-2.5-.4a8 8 0 0 1-5.1-10.1L140.9 92H104a8 8 0 0 1 0-16h48a7.9 7.9 0 0 1 6.5 3.3a8.1 8.1 0 0 1 1.1 7.2Z"></path></svg>