<svg xmlns="http://www.w3.org/2000/svg" xmlns:xlink="http://www.w3.org/1999/xlink" aria-hidden="true" role="img" class="iconify iconify--ph" width="1em" height="1em" preserveAspectRatio="xMidYMid meet" viewBox="0 0 256 256"><path fill="currentColor" d="M128 26a102 102 0 1 0 102 102A102.2 102.2 0 0 0 128 26Zm0 192a90 90 0 1 1 90-90a90.1 90.1 0 0 1-90 90Zm0-140a34 34 0 1 0 5.6 67.5l-18.8 31.4a6.1 6.1 0 0 0 2.1 8.3a6.8 6.8 0 0 0 3.1.8a6.1 6.1 0 0 0 5.2-2.9l32.2-54c.1-.2.2-.3.2-.5A33.4 33.4 0 0 0 162 112a34.1 34.1 0 0 0-34-34Zm-22 34a22 22 0 1 1 22 22a22.1 22.1 0 0 1-22-22Z"></path></svg>