<svg xmlns="http://www.w3.org/2000/svg" xmlns:xlink="http://www.w3.org/1999/xlink" aria-hidden="true" role="img" class="iconify iconify--ph" width="1em" height="1em" preserveAspectRatio="xMidYMid meet" viewBox="0 0 256 256"><path fill="currentColor" d="M128 24a104 104 0 1 0 104 104A104.2 104.2 0 0 0 128 24Zm24 150a33.9 33.9 0 1 1-48-48a26.6 26.6 0 0 1 3.1-2.6l-.3-.2a29.9 29.9 0 0 1 0-42.4c11.3-11.3 31.1-11.3 42.4 0a29.9 29.9 0 0 1 0 42.4l-.3.2a26.6 26.6 0 0 1 3.1 2.6a33.8 33.8 0 0 1 0 48Zm-33.9-62.1a14 14 0 1 1 19.8 0a14.3 14.3 0 0 1-19.8 0Zm22.6 25.4a17.9 17.9 0 0 1 0 25.4a18.4 18.4 0 0 1-25.4 0a18 18 0 1 1 25.4-25.4Z"></path></svg>