<svg xmlns="http://www.w3.org/2000/svg" xmlns:xlink="http://www.w3.org/1999/xlink" aria-hidden="true" role="img" class="iconify iconify--ph" width="1em" height="1em" preserveAspectRatio="xMidYMid meet" viewBox="0 0 256 256"><rect width="176" height="176" x="40" y="40" fill="currentColor" opacity=".2" rx="8"></rect><path fill="currentColor" d="M156 112v64a8 8 0 0 1-16 0v-24h-40a8 8 0 0 1-6.5-3.4a7.9 7.9 0 0 1-1-7.3l24-68a8 8 0 0 1 15 5.4L111.3 136H140v-24a8 8 0 0 1 16 0Zm68-64v160a16 16 0 0 1-16 16H48a16 16 0 0 1-16-16V48a16 16 0 0 1 16-16h160a16 16 0 0 1 16 16Zm-16 160V48H48v160Z"></path></svg>