<svg xmlns="http://www.w3.org/2000/svg" xmlns:xlink="http://www.w3.org/1999/xlink" aria-hidden="true" role="img" class="iconify iconify--ph" width="1em" height="1em" preserveAspectRatio="xMidYMid meet" viewBox="0 0 256 256"><path fill="currentColor" d="M128 76c-11.6 0-21.2 5.9-27.7 17c-5.4 9.2-8.3 21.6-8.3 35s2.9 25.8 8.3 35c6.5 11.1 16.1 17 27.7 17s21.2-5.9 27.7-17c5.4-9.2 8.3-21.6 8.3-35s-2.9-25.8-8.3-35c-6.5-11.1-16.1-17-27.7-17Zm0 96c-19.3 0-28-22.1-28-44s8.7-44 28-44s28 22.1 28 44s-8.7 44-28 44Zm80-136H48a12 12 0 0 0-12 12v160a12 12 0 0 0 12 12h160a12 12 0 0 0 12-12V48a12 12 0 0 0-12-12Zm4 172a4 4 0 0 1-4 4H48a4 4 0 0 1-4-4V48a4 4 0 0 1 4-4h160a4 4 0 0 1 4 4Z"></path></svg>