<svg xmlns="http://www.w3.org/2000/svg" xmlns:xlink="http://www.w3.org/1999/xlink" aria-hidden="true" role="img" class="iconify iconify--ph" width="1em" height="1em" preserveAspectRatio="xMidYMid meet" viewBox="0 0 256 256"><path fill="currentColor" d="M128 26a102 102 0 1 0 102 102A102.2 102.2 0 0 0 128 26Zm0 192a90 90 0 1 1 90-90a90.1 90.1 0 0 1-90 90Zm0-108a34.3 34.3 0 0 0-5.6.5l18.8-31.4a6.1 6.1 0 0 0-2.1-8.3a6.2 6.2 0 0 0-8.3 2.1l-32.2 54l-.3.6A34 34 0 1 0 128 110Zm0 56a22 22 0 1 1 22-22a22.1 22.1 0 0 1-22 22Z"></path></svg>