<svg xmlns="http://www.w3.org/2000/svg" xmlns:xlink="http://www.w3.org/1999/xlink" aria-hidden="true" role="img" class="iconify iconify--ph" width="1em" height="1em" preserveAspectRatio="xMidYMid meet" viewBox="0 0 256 256"><path fill="currentColor" d="M118.1 111.9a14 14 0 1 1 19.8 0a14.3 14.3 0 0 1-19.8 0ZM128 132a18 18 0 0 0-12.7 30.7a18.4 18.4 0 0 0 25.4 0A18 18 0 0 0 128 132Zm96-84v160a16 16 0 0 1-16 16H48a16 16 0 0 1-16-16V48a16 16 0 0 1 16-16h160a16 16 0 0 1 16 16Zm-62 102a33.3 33.3 0 0 0-10-24a26.6 26.6 0 0 0-3.1-2.6l.3-.2a29.9 29.9 0 0 0 0-42.4c-11.3-11.3-31.1-11.3-42.4 0a29.9 29.9 0 0 0 0 42.4l.3.2a26.6 26.6 0 0 0-3.1 2.6a33.9 33.9 0 1 0 48 48a33.3 33.3 0 0 0 10-24Z"></path></svg>