<svg xmlns="http://www.w3.org/2000/svg" xmlns:xlink="http://www.w3.org/1999/xlink" aria-hidden="true" role="img" class="iconify iconify--ph" width="1em" height="1em" preserveAspectRatio="xMidYMid meet" viewBox="0 0 256 256"><path fill="currentColor" d="M208 32H48a16 16 0 0 0-16 16v160a16 16 0 0 0 16 16h160a16 16 0 0 0 16-16V48a16 16 0 0 0-16-16Zm-58.5 145.5a36.2 36.2 0 0 1-51 0a8.1 8.1 0 0 1 11.4-11.4A19.9 19.9 0 1 0 124 132a8.1 8.1 0 0 1-7.1-4.3a8 8 0 0 1 .5-8.3L136.6 92H104a8 8 0 0 1 0-16h48a8.1 8.1 0 0 1 7.1 4.3a7.8 7.8 0 0 1-.6 8.3l-21 30a37.9 37.9 0 0 1 12 7.9a36.2 36.2 0 0 1 0 51Z"></path></svg>