<svg xmlns="http://www.w3.org/2000/svg" xmlns:xlink="http://www.w3.org/1999/xlink" aria-hidden="true" role="img" class="iconify iconify--ph" width="1em" height="1em" preserveAspectRatio="xMidYMid meet" viewBox="0 0 256 256"><path fill="currentColor" d="M128 68c-14.4 0-26.7 7.4-34.6 21c-6.1 10.3-9.4 24.2-9.4 39s3.3 28.7 9.4 39c7.9 13.6 20.2 21 34.6 21s26.7-7.4 34.6-21c6.1-10.3 9.4-24.2 9.4-39s-3.3-28.7-9.4-39c-7.9-13.6-20.2-21-34.6-21Zm0 96c-15.8 0-20-23.5-20-36s4.2-36 20-36s20 23.5 20 36s-4.2 36-20 36Zm0-144a108 108 0 1 0 108 108A108.1 108.1 0 0 0 128 20Zm0 192a84 84 0 1 1 84-84a84.1 84.1 0 0 1-84 84Z"></path></svg>