<svg xmlns="http://www.w3.org/2000/svg" xmlns:xlink="http://www.w3.org/1999/xlink" aria-hidden="true" role="img" class="iconify iconify--ph" width="1em" height="1em" preserveAspectRatio="xMidYMid meet" viewBox="0 0 256 256"><path fill="currentColor" d="M128 20a108 108 0 1 0 108 108A108.1 108.1 0 0 0 128 20Zm0 192a84 84 0 1 1 84-84a84.1 84.1 0 0 1-84 84Zm26.7-89a33.9 33.9 0 0 0 7.3-21a33.9 33.9 0 0 0-58-24a33.3 33.3 0 0 0-10 24a33.9 33.9 0 0 0 7.3 21h-.2a38 38 0 1 0 53.8 0Zm-33.8-13.9a10.1 10.1 0 1 1 7.1 2.9a9.9 9.9 0 0 1-7.1-2.9Zm17 50.8a14 14 0 1 1 4.1-9.9a14.1 14.1 0 0 1-4.1 9.9Z"></path></svg>