<svg xmlns="http://www.w3.org/2000/svg" xmlns:xlink="http://www.w3.org/1999/xlink" aria-hidden="true" role="img" class="iconify iconify--ph" width="1em" height="1em" preserveAspectRatio="xMidYMid meet" viewBox="0 0 256 256"><path fill="currentColor" d="M128 188c14.4 0 26.7-7.4 34.6-21c6.1-10.3 9.4-24.2 9.4-39s-3.3-28.7-9.4-39c-7.9-13.6-20.2-21-34.6-21s-26.7 7.4-34.6 21c-6.1 10.3-9.4 24.2-9.4 39s3.3 28.7 9.4 39c7.9 13.6 20.2 21 34.6 21Zm0-96c15.8 0 20 23.5 20 36s-4.2 36-20 36s-20-23.5-20-36s4.2-36 20-36Zm80-64H48a20.1 20.1 0 0 0-20 20v160a20.1 20.1 0 0 0 20 20h160a20.1 20.1 0 0 0 20-20V48a20.1 20.1 0 0 0-20-20Zm-4 176H52V52h152Z"></path></svg>