<svg xmlns="http://www.w3.org/2000/svg" xmlns:xlink="http://www.w3.org/1999/xlink" aria-hidden="true" role="img" class="iconify iconify--ph" width="1em" height="1em" preserveAspectRatio="xMidYMid meet" viewBox="0 0 256 256"><path fill="currentColor" d="M173.2 132.9A66.2 66.2 0 0 0 150 119a53.1 53.1 0 0 0 16.6-10.7a49.6 49.6 0 0 0 0-73.3a57.2 57.2 0 0 0-77.2 0a49.6 49.6 0 0 0 0 73.3A53.1 53.1 0 0 0 106 119a66.2 66.2 0 0 0-23.2 13.9a58 58 0 0 0 0 85.5a66.8 66.8 0 0 0 90.4 0a58 58 0 0 0 0-85.5Zm-78.4-30.4a41.7 41.7 0 0 1 0-61.6a49.2 49.2 0 0 1 66.4 0a41.7 41.7 0 0 1 0 61.6a49.5 49.5 0 0 1-66.4 0Zm72.9 110.1a58.9 58.9 0 0 1-79.4 0a50 50 0 0 1 0-73.9a58.9 58.9 0 0 1 79.4 0a50 50 0 0 1 0 73.9Z"></path></svg>