<svg xmlns="http://www.w3.org/2000/svg" xmlns:xlink="http://www.w3.org/1999/xlink" aria-hidden="true" role="img" class="iconify iconify--ph" width="1em" height="1em" preserveAspectRatio="xMidYMid meet" viewBox="0 0 256 256"><path fill="currentColor" d="M152 112v64a4 4 0 0 1-8 0v-28h-44a4 4 0 0 1-3.3-1.7a4.2 4.2 0 0 1-.5-3.6l24-68a4 4 0 1 1 7.6 2.6L105.7 140H144v-28a4 4 0 0 1 8 0Zm68-64v160a12 12 0 0 1-12 12H48a12 12 0 0 1-12-12V48a12 12 0 0 1 12-12h160a12 12 0 0 1 12 12Zm-8 0a4 4 0 0 0-4-4H48a4 4 0 0 0-4 4v160a4 4 0 0 0 4 4h160a4 4 0 0 0 4-4Z"></path></svg>