<svg xmlns="http://www.w3.org/2000/svg" xmlns:xlink="http://www.w3.org/1999/xlink" aria-hidden="true" role="img" class="iconify iconify--ph" width="1em" height="1em" preserveAspectRatio="xMidYMid meet" viewBox="0 0 256 256"><path fill="currentColor" d="M163.8 124.2a62.1 62.1 0 0 1-88 87.7a6 6 0 0 1 8.4-8.6a50.3 50.3 0 0 0 71.1 0a49.7 49.7 0 0 0 0-70.6a50.3 50.3 0 0 0-71.1 0a5.9 5.9 0 0 1-6.9 1a5.8 5.8 0 0 1-3.2-6.3L89.7 31a6 6 0 0 1 6-5H176a6 6 0 0 1 0 12h-75.2l-12.5 76.5a62.4 62.4 0 0 1 75.5 9.7Z"></path></svg>