<svg xmlns="http://www.w3.org/2000/svg" xmlns:xlink="http://www.w3.org/1999/xlink" aria-hidden="true" role="img" class="iconify iconify--ph" width="1em" height="1em" preserveAspectRatio="xMidYMid meet" viewBox="0 0 256 256"><path fill="currentColor" d="M128 28a100 100 0 1 0 100 100A100.2 100.2 0 0 0 128 28Zm0 192a92 92 0 1 1 92-92a92.1 92.1 0 0 1-92 92Zm14.4-96.3a41.2 41.2 0 0 0 4-3.3a26 26 0 1 0-36.8 0a41.2 41.2 0 0 0 4 3.3a25.8 25.8 0 0 0-6.8 5.1a30 30 0 1 0 42.4 0a25.8 25.8 0 0 0-6.8-5.1Zm-27.1-9A17.9 17.9 0 1 1 128 120a17.9 17.9 0 0 1-12.7-5.3Zm28.3 50.9A22.2 22.2 0 1 1 150 150a22.2 22.2 0 0 1-6.4 15.6Z"></path></svg>