<svg xmlns="http://www.w3.org/2000/svg" xmlns:xlink="http://www.w3.org/1999/xlink" aria-hidden="true" role="img" class="iconify iconify--ph" width="1em" height="1em" preserveAspectRatio="xMidYMid meet" viewBox="0 0 256 256"><path fill="currentColor" d="M128 28a100 100 0 1 0 100 100A100.2 100.2 0 0 0 128 28Zm0 192a92 92 0 1 1 92-92a92.1 92.1 0 0 1-92 92Zm23.1-100.2L112 172h40a4 4 0 0 1 0 8h-48l-1.3-.2a4 4 0 0 1-2.7-3.8a3.8 3.8 0 0 1 .9-2.5l43.7-58.4a20 20 0 1 0-35-18.9a4 4 0 0 1-7.4-3.1A28 28 0 0 1 156 104a28.4 28.4 0 0 1-4.8 15.7Z"></path></svg>