<svg xmlns="http://www.w3.org/2000/svg" xmlns:xlink="http://www.w3.org/1999/xlink" aria-hidden="true" role="img" class="iconify iconify--ph" width="1em" height="1em" preserveAspectRatio="xMidYMid meet" viewBox="0 0 256 256"><path fill="currentColor" d="M165.2 122.7a64 64 0 0 1 0 90.6a64.5 64.5 0 0 1-90.8 0a8 8 0 1 1 11.2-11.4a48.4 48.4 0 0 0 68.3 0a48 48 0 0 0-34.1-81.9a48.3 48.3 0 0 0-34.2 14.1a8 8 0 0 1-13.5-7l15.7-96.4a7.9 7.9 0 0 1 7.9-6.7H176a8 8 0 0 1 0 16h-73.5L91 110.8a63 63 0 0 1 28.8-6.8a64.4 64.4 0 0 1 45.4 18.7Z"></path></svg>