<svg xmlns="http://www.w3.org/2000/svg" xmlns:xlink="http://www.w3.org/1999/xlink" aria-hidden="true" role="img" class="iconify iconify--ph" width="1em" height="1em" preserveAspectRatio="xMidYMid meet" viewBox="0 0 256 256"><path fill="currentColor" d="M208 34H48a14 14 0 0 0-14 14v160a14 14 0 0 0 14 14h160a14 14 0 0 0 14-14V48a14 14 0 0 0-14-14Zm2 174a2 2 0 0 1-2 2H48a2 2 0 0 1-2-2V48a2 2 0 0 1 2-2h160a2 2 0 0 1 2 2Zm-82-94a34.3 34.3 0 0 0-5.6.5l18.8-31.4a6.1 6.1 0 1 0-10.4-6.2l-32.2 54l-.2.3A34 34 0 1 0 128 114Zm0 56a22.1 22.1 0 0 1-22-22a21.8 21.8 0 0 1 3.1-11.3h.1A22 22 0 1 1 128 170Z"></path></svg>