<svg xmlns="http://www.w3.org/2000/svg" xmlns:xlink="http://www.w3.org/1999/xlink" aria-hidden="true" role="img" class="iconify iconify--ph" width="1em" height="1em" preserveAspectRatio="xMidYMid meet" viewBox="0 0 256 256"><path fill="currentColor" d="M90 150a38 38 0 1 0 64.9-26.9h-.2a33.9 33.9 0 0 0 7.3-21a33.9 33.9 0 0 0-58-24a33.3 33.3 0 0 0-10 24a33.9 33.9 0 0 0 7.3 21h-.2A38.1 38.1 0 0 0 90 150Zm47.9 9.9a14 14 0 1 1 4.1-9.9a14.1 14.1 0 0 1-4.1 9.9Zm-17-50.8a10.1 10.1 0 1 1 7.1 2.9a9.9 9.9 0 0 1-7.1-2.9ZM208 28H48a20.1 20.1 0 0 0-20 20v160a20.1 20.1 0 0 0 20 20h160a20.1 20.1 0 0 0 20-20V48a20.1 20.1 0 0 0-20-20Zm-4 176H52V52h152Z"></path></svg>