<svg xmlns="http://www.w3.org/2000/svg" xmlns:xlink="http://www.w3.org/1999/xlink" aria-hidden="true" role="img" class="iconify iconify--ph" width="1em" height="1em" preserveAspectRatio="xMidYMid meet" viewBox="0 0 256 256"><path fill="currentColor" d="m116.9 86l-4.9 30.1a34.3 34.3 0 0 1 11.9-2.1a34.1 34.1 0 0 1 34.1 34a34 34 0 0 1-34.1 34a33.6 33.6 0 0 1-24.1-10a5.9 5.9 0 0 1-.1-8.4a6 6 0 0 1 8.5-.1a22.1 22.1 0 0 0 15.7 6.5a21.7 21.7 0 0 0 15.6-6.5a21.7 21.7 0 0 0 0-31a21.7 21.7 0 0 0-15.6-6.5a22.1 22.1 0 0 0-15.7 6.5a5.9 5.9 0 0 1-6.9 1a5.8 5.8 0 0 1-3.2-6.3l7.8-48.2a6 6 0 0 1 5.9-5H152a6 6 0 0 1 0 12ZM222 48v160a14 14 0 0 1-14 14H48a14 14 0 0 1-14-14V48a14 14 0 0 1 14-14h160a14 14 0 0 1 14 14Zm-12 0a2 2 0 0 0-2-2H48a2 2 0 0 0-2 2v160a2 2 0 0 0 2 2h160a2 2 0 0 0 2-2Z"></path></svg>