<svg xmlns="http://www.w3.org/2000/svg" xmlns:xlink="http://www.w3.org/1999/xlink" aria-hidden="true" role="img" class="iconify iconify--ph" width="1em" height="1em" preserveAspectRatio="xMidYMid meet" viewBox="0 0 256 256"><path fill="currentColor" d="M182 168a62.1 62.1 0 0 1-62 62a61.1 61.1 0 0 1-43.8-18.2a5.8 5.8 0 0 1 0-8.4a5.9 5.9 0 0 1 8.5 0A50 50 0 1 0 120 118a5.9 5.9 0 0 1-5.3-3.2a6 6 0 0 1 .4-6.2L164.5 38H80a6 6 0 0 1 0-12h96a5.9 5.9 0 0 1 5.3 3.2a6 6 0 0 1-.4 6.2l-50 71.6a62.1 62.1 0 0 1 51.1 61Z"></path></svg>