<svg xmlns="http://www.w3.org/2000/svg" xmlns:xlink="http://www.w3.org/1999/xlink" aria-hidden="true" role="img" class="iconify iconify--ph" width="1em" height="1em" preserveAspectRatio="xMidYMid meet" viewBox="0 0 256 256"><path fill="currentColor" d="M189.4 52.4C175 28.6 153.8 16 128 16S81 28.6 66.6 52.4C54.6 72.1 48 99 48 128s6.6 55.8 18.6 75.6C81 227.4 102.2 240 128 240s47-12.6 61.4-36.4c12-19.8 18.6-46.6 18.6-75.6s-6.6-55.9-18.6-75.6ZM128 224c-44.2 0-64-48.2-64-96s19.8-96 64-96s64 48.2 64 96s-19.8 96-64 96Z"></path></svg>