<svg xmlns="http://www.w3.org/2000/svg" xmlns:xlink="http://www.w3.org/1999/xlink" aria-hidden="true" role="img" class="iconify iconify--ph" width="1em" height="1em" preserveAspectRatio="xMidYMid meet" viewBox="0 0 256 256"><path fill="currentColor" d="M128 24a104 104 0 1 0 104 104A104.2 104.2 0 0 0 128 24Zm0 192a88 88 0 1 1 88-88a88.1 88.1 0 0 1-88 88Zm-9.4-124l-4.1 25.2a37.3 37.3 0 0 1 9.4-1.2a36 36 0 1 1-25.5 61.5a8 8 0 1 1 11.2-11.4a20.1 20.1 0 0 0 14.3 5.9a19.9 19.9 0 0 0 14.2-5.9a19.8 19.8 0 0 0 0-28.2a19.9 19.9 0 0 0-14.2-5.9a20.1 20.1 0 0 0-14.3 5.9a8 8 0 0 1-13.5-7l7.8-48.2a8 8 0 0 1 7.9-6.7H152a8 8 0 0 1 0 16Z"></path></svg>