<svg xmlns="http://www.w3.org/2000/svg" xmlns:xlink="http://www.w3.org/1999/xlink" aria-hidden="true" role="img" class="iconify iconify--ph" width="1em" height="1em" preserveAspectRatio="xMidYMid meet" viewBox="0 0 256 256"><path fill="currentColor" d="M208 34H48a14 14 0 0 0-14 14v160a14 14 0 0 0 14 14h160a14 14 0 0 0 14-14V48a14 14 0 0 0-14-14Zm2 174a2 2 0 0 1-2 2H48a2 2 0 0 1-2-2V48a2 2 0 0 1 2-2h160a2 2 0 0 1 2 2Zm-57.3-87L116 170h36a6 6 0 0 1 0 12h-48a6.3 6.3 0 0 1-1.9-.3A6 6 0 0 1 98 176a5.9 5.9 0 0 1 1.3-3.7l43.7-58.4a17.2 17.2 0 0 0 3-9.9a18 18 0 0 0-34.6-7a6 6 0 1 1-11-4.7A30 30 0 0 1 158 104a30.4 30.4 0 0 1-5.1 16.8Z"></path></svg>