<svg xmlns="http://www.w3.org/2000/svg" xmlns:xlink="http://www.w3.org/1999/xlink" aria-hidden="true" role="img" class="iconify iconify--ph" width="1em" height="1em" preserveAspectRatio="xMidYMid meet" viewBox="0 0 256 256"><path fill="currentColor" d="M128 24a104 104 0 1 0 104 104A104.2 104.2 0 0 0 128 24Zm0 192a88 88 0 1 1 88-88a88.1 88.1 0 0 1-88 88Zm0-140a36 36 0 0 0 0 72h1.8l-16.7 27.9a8.1 8.1 0 0 0 2.8 11a8.7 8.7 0 0 0 4.1 1.1a8.1 8.1 0 0 0 6.9-3.9l32.2-54l.3-.5A36 36 0 0 0 128 76Zm-20 36a20 20 0 1 1 20 20a20.1 20.1 0 0 1-20-20Z"></path></svg>