<svg xmlns="http://www.w3.org/2000/svg" xmlns:xlink="http://www.w3.org/1999/xlink" aria-hidden="true" role="img" class="iconify iconify--ph" width="1em" height="1em" preserveAspectRatio="xMidYMid meet" viewBox="0 0 256 256"><path fill="currentColor" d="M186 54.4C172.3 31.9 152.3 20 128 20S83.7 31.9 70 54.4C58.4 73.6 52 99.7 52 128s6.4 54.4 18 73.6c13.7 22.5 33.7 34.4 58 34.4s44.3-11.9 58-34.4c11.6-19.2 18-45.3 18-73.6s-6.4-54.4-18-73.6ZM128 228c-47 0-68-50.2-68-100S81 28 128 28s68 50.2 68 100s-21 100-68 100Z"></path></svg>