<svg xmlns="http://www.w3.org/2000/svg" xmlns:xlink="http://www.w3.org/1999/xlink" aria-hidden="true" role="img" class="iconify iconify--ph" width="1em" height="1em" preserveAspectRatio="xMidYMid meet" viewBox="0 0 256 256"><path fill="currentColor" d="M148 148a20 20 0 1 1-20-20a20.1 20.1 0 0 1 20 20Zm76-100v160a16 16 0 0 1-16 16H48a16 16 0 0 1-16-16V48a16 16 0 0 1 16-16h160a16 16 0 0 1 16 16Zm-60 100a36 36 0 0 0-36-36h-1.8l16.7-27.9a8 8 0 1 0-13.8-8.2l-32.2 54l-.2.3A36 36 0 1 0 164 148Z"></path></svg>