<svg xmlns="http://www.w3.org/2000/svg" xmlns:xlink="http://www.w3.org/1999/xlink" aria-hidden="true" role="img" class="iconify iconify--ph" width="1em" height="1em" preserveAspectRatio="xMidYMid meet" viewBox="0 0 256 256"><path fill="currentColor" d="M178.6 127.1a73.8 73.8 0 0 0-11.4-8.8a64 64 0 0 0 4.9-4.2a57.5 57.5 0 0 0 0-84.9a65.1 65.1 0 0 0-88.2 0a57.5 57.5 0 0 0 0 84.9a64 64 0 0 0 4.9 4.2a73.8 73.8 0 0 0-11.4 8.8a65.8 65.8 0 0 0 0 97.1a74.6 74.6 0 0 0 101.2 0a65.8 65.8 0 0 0 0-97.1Zm-78.3-30.5a33.6 33.6 0 0 1 0-49.9a41.2 41.2 0 0 1 55.4 0a33.6 33.6 0 0 1 0 49.9a41.2 41.2 0 0 1-55.4 0Zm61.9 110.2a50.9 50.9 0 0 1-68.4 0a41.9 41.9 0 0 1 0-62.2a50.6 50.6 0 0 1 68.4 0a41.9 41.9 0 0 1 0 62.2Z"></path></svg>