<svg xmlns="http://www.w3.org/2000/svg" xmlns:xlink="http://www.w3.org/1999/xlink" aria-hidden="true" role="img" class="iconify iconify--ph" width="1em" height="1em" preserveAspectRatio="xMidYMid meet" viewBox="0 0 256 256"><path fill="currentColor" d="M128 26a102 102 0 1 0 102 102A102.2 102.2 0 0 0 128 26Zm0 192a90 90 0 1 1 90-90a90.1 90.1 0 0 1-90 90Zm20-90a33.9 33.9 0 1 1-48 48a5.9 5.9 0 0 1 8.4-8.4A22.1 22.1 0 1 0 124 130a5.9 5.9 0 0 1-5.3-3.2a5.8 5.8 0 0 1 .4-6.2L140.5 90H104a6 6 0 0 1 0-12h48a5.9 5.9 0 0 1 5.3 3.2a5.8 5.8 0 0 1-.4 6.2l-22.5 32.2A32.8 32.8 0 0 1 148 128Z"></path></svg>