<svg xmlns="http://www.w3.org/2000/svg" xmlns:xlink="http://www.w3.org/1999/xlink" aria-hidden="true" role="img" class="iconify iconify--ph" width="1em" height="1em" preserveAspectRatio="xMidYMid meet" viewBox="0 0 256 256"><path fill="currentColor" d="M208 28H48a20.1 20.1 0 0 0-20 20v160a20.1 20.1 0 0 0 20 20h160a20.1 20.1 0 0 0 20-20V48a20.1 20.1 0 0 0-20-20Zm-4 176H52V52h152Zm-65.9-93.5a12.3 12.3 0 0 0 1.9-6.5a12 12 0 0 0-23.1-4.7A12 12 0 0 1 94.8 90a36 36 0 0 1 69.2 14a35.1 35.1 0 0 1-6.2 20.1l-.3.5L128 164h24a12 12 0 0 1 0 24h-48a12.6 12.6 0 0 1-3.8-.6a12.1 12.1 0 0 1-5.7-18.8Z"></path></svg>