<svg xmlns="http://www.w3.org/2000/svg" xmlns:xlink="http://www.w3.org/1999/xlink" aria-hidden="true" role="img" class="iconify iconify--ph" width="1em" height="1em" preserveAspectRatio="xMidYMid meet" viewBox="0 0 256 256"><path fill="currentColor" d="M208 36H48a12 12 0 0 0-12 12v160a12 12 0 0 0 12 12h160a12 12 0 0 0 12-12V48a12 12 0 0 0-12-12Zm4 172a4 4 0 0 1-4 4H48a4 4 0 0 1-4-4V48a4 4 0 0 1 4-4h160a4 4 0 0 1 4 4ZM128 80a32 32 0 1 0 9.8 62.5l-21.2 35.4a4 4 0 0 0 1.3 5.5a4.2 4.2 0 0 0 2.1.6a3.9 3.9 0 0 0 3.4-1.9l32.3-54c0-.1 0-.2.1-.2A31.7 31.7 0 0 0 160 112a32.1 32.1 0 0 0-32-32Zm-24 32a24 24 0 1 1 24 24a24.1 24.1 0 0 1-24-24Z"></path></svg>