<svg xmlns="http://www.w3.org/2000/svg" xmlns:xlink="http://www.w3.org/1999/xlink" aria-hidden="true" role="img" class="iconify iconify--ph" width="1em" height="1em" preserveAspectRatio="xMidYMid meet" viewBox="0 0 256 256"><path fill="currentColor" d="M92 84a12 12 0 0 1 12-12h48a12 12 0 0 1 9.8 18.9l-18.3 26.2a40 40 0 1 1-47.8 63.2a12 12 0 0 1 17-17A16 16 0 1 0 124 136a12 12 0 0 1-9.8-18.9L129 96h-25a12 12 0 0 1-12-12Zm136-36v160a20.1 20.1 0 0 1-20 20H48a20.1 20.1 0 0 1-20-20V48a20.1 20.1 0 0 1 20-20h160a20.1 20.1 0 0 1 20 20Zm-24 4H52v152h152Z"></path></svg>