<svg xmlns="http://www.w3.org/2000/svg" xmlns:xlink="http://www.w3.org/1999/xlink" aria-hidden="true" role="img" class="iconify iconify--ph" width="1em" height="1em" preserveAspectRatio="xMidYMid meet" viewBox="0 0 256 256"><path fill="currentColor" d="M208 28H48a20.1 20.1 0 0 0-20 20v160a20.1 20.1 0 0 0 20 20h160a20.1 20.1 0 0 0 20-20V48a20.1 20.1 0 0 0-20-20Zm-4 176H52V52h152Zm-76-16a40 40 0 0 0 5.1-79.7l13.2-22.2a12 12 0 0 0-20.6-12.3l-32.2 54.1l-.2.3A39.4 39.4 0 0 0 88 148a40 40 0 0 0 40 40Zm16-40a16 16 0 1 1-16-16a16 16 0 0 1 16 16Z"></path></svg>