<svg xmlns="http://www.w3.org/2000/svg" xmlns:xlink="http://www.w3.org/1999/xlink" aria-hidden="true" role="img" class="iconify iconify--ph" width="1em" height="1em" preserveAspectRatio="xMidYMid meet" viewBox="0 0 256 256"><path fill="currentColor" d="M156.9 80.5a6.1 6.1 0 0 1 .8 5.4l-32 96a6 6 0 0 1-5.7 4.1a6.3 6.3 0 0 1-1.9-.3a6.1 6.1 0 0 1-3.8-7.6L143.7 90H104a6 6 0 0 1 0-12h48a6.1 6.1 0 0 1 4.9 2.5ZM222 48v160a14 14 0 0 1-14 14H48a14 14 0 0 1-14-14V48a14 14 0 0 1 14-14h160a14 14 0 0 1 14 14Zm-12 0a2 2 0 0 0-2-2H48a2 2 0 0 0-2 2v160a2 2 0 0 0 2 2h160a2 2 0 0 0 2-2Z"></path></svg>