<svg xmlns="http://www.w3.org/2000/svg" xmlns:xlink="http://www.w3.org/1999/xlink" aria-hidden="true" role="img" class="iconify iconify--ph" width="1em" height="1em" preserveAspectRatio="xMidYMid meet" viewBox="0 0 256 256"><path fill="currentColor" d="M128 26a102 102 0 1 0 102 102A102.2 102.2 0 0 0 128 26Zm0 192a90 90 0 1 1 90-90a90.1 90.1 0 0 1-90 90Zm28.9-137.5a6.1 6.1 0 0 1 .8 5.4l-32 96a6 6 0 0 1-5.7 4.1a6.3 6.3 0 0 1-1.9-.3a6.1 6.1 0 0 1-3.8-7.6L143.7 90H104a6 6 0 0 1 0-12h48a6.1 6.1 0 0 1 4.9 2.5Z"></path></svg>