<svg xmlns="http://www.w3.org/2000/svg" xmlns:xlink="http://www.w3.org/1999/xlink" aria-hidden="true" role="img" class="iconify iconify--ph" width="1em" height="1em" preserveAspectRatio="xMidYMid meet" viewBox="0 0 256 256"><path fill="currentColor" d="M192.8 50.3C177.6 25.2 155.2 12 128 12S78.4 25.2 63.2 50.3C50.8 70.7 44 98.3 44 128s6.8 57.3 19.2 77.7C78.4 230.8 100.8 244 128 244s49.6-13.2 64.8-38.3c12.4-20.4 19.2-48 19.2-77.7s-6.8-57.3-19.2-77.7ZM128 220c-41.4 0-60-46.2-60-92s18.6-92 60-92s60 46.2 60 92s-18.6 92-60 92Z"></path></svg>