<svg xmlns="http://www.w3.org/2000/svg" xmlns:xlink="http://www.w3.org/1999/xlink" aria-hidden="true" role="img" class="iconify iconify--ph" width="1em" height="1em" preserveAspectRatio="xMidYMid meet" viewBox="0 0 256 256"><path fill="currentColor" d="M155.2 81.7a3.8 3.8 0 0 1 .6 3.6l-32 96a4.1 4.1 0 0 1-3.8 2.7l-1.3-.2a4 4 0 0 1-2.5-5.1L146.5 88H104a4 4 0 0 1 0-8h48a3.7 3.7 0 0 1 3.2 1.7ZM220 48v160a12 12 0 0 1-12 12H48a12 12 0 0 1-12-12V48a12 12 0 0 1 12-12h160a12 12 0 0 1 12 12Zm-8 0a4 4 0 0 0-4-4H48a4 4 0 0 0-4 4v160a4 4 0 0 0 4 4h160a4 4 0 0 0 4-4Z"></path></svg>