<svg xmlns="http://www.w3.org/2000/svg" xmlns:xlink="http://www.w3.org/1999/xlink" aria-hidden="true" role="img" class="iconify iconify--ph" width="1em" height="1em" preserveAspectRatio="xMidYMid meet" viewBox="0 0 256 256"><path fill="currentColor" d="M174.5 131.5a65.8 65.8 0 0 0-19.4-12.7a54.8 54.8 0 0 0 12.9-9.1a51.5 51.5 0 0 0 0-76.1a59.1 59.1 0 0 0-80 0a51.5 51.5 0 0 0 0 76.1a54.8 54.8 0 0 0 12.9 9.1a65.8 65.8 0 0 0-19.4 12.7a59.8 59.8 0 0 0 0 88.4a68.8 68.8 0 0 0 93 0a59.8 59.8 0 0 0 0-88.4ZM96.2 101a39.6 39.6 0 0 1 0-58.7a47.3 47.3 0 0 1 63.6 0a39.6 39.6 0 0 1 0 58.7a47.3 47.3 0 0 1-63.6 0Zm70.1 110.1a56.7 56.7 0 0 1-76.6 0a47.9 47.9 0 0 1 0-70.9a56.7 56.7 0 0 1 76.6 0a47.9 47.9 0 0 1 0 70.9Z"></path></svg>