<svg xmlns="http://www.w3.org/2000/svg" xmlns:xlink="http://www.w3.org/1999/xlink" aria-hidden="true" role="img" class="iconify iconify--ph" width="1em" height="1em" preserveAspectRatio="xMidYMid meet" viewBox="0 0 256 256"><path fill="currentColor" d="M98 106.6a11.9 11.9 0 0 1 3.3-16.6l24-16a12.2 12.2 0 0 1 12.4-.6A12 12 0 0 1 144 84v92a12 12 0 0 1-24 0v-69.6l-5.3 3.6a12 12 0 0 1-16.7-3.4ZM228 48v160a20.1 20.1 0 0 1-20 20H48a20.1 20.1 0 0 1-20-20V48a20.1 20.1 0 0 1 20-20h160a20.1 20.1 0 0 1 20 20Zm-24 4H52v152h152Z"></path></svg>