<svg xmlns="http://www.w3.org/2000/svg" xmlns:xlink="http://www.w3.org/1999/xlink" aria-hidden="true" role="img" class="iconify iconify--ph" width="1em" height="1em" preserveAspectRatio="xMidYMid meet" viewBox="0 0 256 256"><circle cx="128" cy="128" r="96" fill="currentColor" opacity=".2"></circle><path fill="currentColor" d="M128 24a104 104 0 1 0 104 104A104.2 104.2 0 0 0 128 24Zm0 192a88 88 0 1 1 88-88a88.1 88.1 0 0 1-88 88Zm30.5-136.7a8.1 8.1 0 0 1 1.1 7.2l-32 96a7.9 7.9 0 0 1-7.6 5.5a7.3 7.3 0 0 1-2.5-.4a8 8 0 0 1-5.1-10.1L140.9 92H104a8 8 0 0 1 0-16h48a7.9 7.9 0 0 1 6.5 3.3Z"></path></svg>