<svg xmlns="http://www.w3.org/2000/svg" xmlns:xlink="http://www.w3.org/1999/xlink" aria-hidden="true" role="img" class="iconify iconify--ph" width="1em" height="1em" preserveAspectRatio="xMidYMid meet" viewBox="0 0 256 256"><path fill="currentColor" d="M208 36H48a12 12 0 0 0-12 12v160a12 12 0 0 0 12 12h160a12 12 0 0 0 12-12V48a12 12 0 0 0-12-12Zm4 172a4 4 0 0 1-4 4H48a4 4 0 0 1-4-4V48a4 4 0 0 1 4-4h160a4 4 0 0 1 4 4Zm-84-92a30.8 30.8 0 0 0-9.7 1.5L139.4 82a4 4 0 0 0-6.8-4.1L100.3 132a32 32 0 1 0 27.7-16Zm0 56a24.1 24.1 0 0 1-24-24a24.8 24.8 0 0 1 3.4-12.4h.1A24 24 0 1 1 128 172Z"></path></svg>