<svg xmlns="http://www.w3.org/2000/svg" xmlns:xlink="http://www.w3.org/1999/xlink" aria-hidden="true" role="img" class="iconify iconify--ph" width="1em" height="1em" preserveAspectRatio="xMidYMid meet" viewBox="0 0 256 256"><circle cx="128" cy="128" r="96" fill="currentColor" opacity=".2"></circle><path fill="currentColor" d="M128 24a104 104 0 1 0 104 104A104.2 104.2 0 0 0 128 24Zm0 192a88 88 0 1 1 88-88a88.1 88.1 0 0 1-88 88Zm21.1-92.7h.1a30 30 0 1 0-42.4 0h.1a24.4 24.4 0 0 0-2.9 2.7a33.9 33.9 0 1 0 48 48a33.8 33.8 0 0 0 0-48a24.4 24.4 0 0 0-2.9-2.7Zm-31-11.4a14 14 0 1 1 9.9 4.1a14.1 14.1 0 0 1-9.9-4.1Zm22.6 50.8A17.9 17.9 0 1 1 146 150a17.9 17.9 0 0 1-5.3 12.7Z"></path></svg>