<svg xmlns="http://www.w3.org/2000/svg" xmlns:xlink="http://www.w3.org/1999/xlink" aria-hidden="true" role="img" class="iconify iconify--ph" width="1em" height="1em" preserveAspectRatio="xMidYMid meet" viewBox="0 0 256 256"><path fill="currentColor" d="M208 32H48a16 16 0 0 0-16 16v160a16 16 0 0 0 16 16h160a16 16 0 0 0 16-16V48a16 16 0 0 0-16-16Zm0 176H48V48h160v160Zm-80-96h-1.8l16.7-27.9a8 8 0 1 0-13.8-8.2l-32.2 54l-.2.3A36 36 0 1 0 128 112Zm0 56a20 20 0 1 1 20-20a20.1 20.1 0 0 1-20 20Z"></path></svg>