<svg xmlns="http://www.w3.org/2000/svg" xmlns:xlink="http://www.w3.org/1999/xlink" aria-hidden="true" role="img" class="iconify iconify--ph" width="1em" height="1em" preserveAspectRatio="xMidYMid meet" viewBox="0 0 256 256"><path fill="currentColor" d="M208 34H48a14 14 0 0 0-14 14v160a14 14 0 0 0 14 14h160a14 14 0 0 0 14-14V48a14 14 0 0 0-14-14Zm2 174a2 2 0 0 1-2 2H48a2 2 0 0 1-2-2V48a2 2 0 0 1 2-2h160a2 2 0 0 1 2 2ZM128 78a34 34 0 1 0 5.6 67.5l-18.8 31.4a6.1 6.1 0 0 0 2.1 8.3a6.8 6.8 0 0 0 3.1.8a6.1 6.1 0 0 0 5.2-2.9l32.2-54c.1-.2.2-.3.2-.5A33.4 33.4 0 0 0 162 112a34.1 34.1 0 0 0-34-34Zm-22 34a22 22 0 1 1 22 22a22.1 22.1 0 0 1-22-22Z"></path></svg>