<svg xmlns="http://www.w3.org/2000/svg" xmlns:xlink="http://www.w3.org/1999/xlink" aria-hidden="true" role="img" class="iconify iconify--ph" width="1em" height="1em" preserveAspectRatio="xMidYMid meet" viewBox="0 0 256 256"><path fill="currentColor" d="M187.7 53.4C173.7 30.2 153 18 128 18S82.3 30.2 68.3 53.4C56.5 72.9 50 99.4 50 128s6.5 55.1 18.3 74.6C82.3 225.8 103 238 128 238s45.7-12.2 59.7-35.4c11.8-19.5 18.3-46 18.3-74.6s-6.5-55.1-18.3-74.6ZM128 226c-45.6 0-66-49.2-66-98s20.4-98 66-98s66 49.2 66 98s-20.4 98-66 98Z"></path></svg>