<svg xmlns="http://www.w3.org/2000/svg" xmlns:xlink="http://www.w3.org/1999/xlink" aria-hidden="true" role="img" class="iconify iconify--ph" width="1em" height="1em" preserveAspectRatio="xMidYMid meet" viewBox="0 0 256 256"><path fill="currentColor" d="M128 26a102 102 0 1 0 102 102A102.2 102.2 0 0 0 128 26Zm0 192a90 90 0 1 1 90-90a90.1 90.1 0 0 1-90 90Zm17.9-94.5a15.4 15.4 0 0 0 1.9-1.7a28 28 0 1 0-39.6 0a15.4 15.4 0 0 0 1.9 1.7a25 25 0 0 0-4.7 3.9a32 32 0 1 0 45.2 0a25 25 0 0 0-4.7-3.9Zm-29.2-10.2A15.9 15.9 0 1 1 128 118a15.9 15.9 0 0 1-11.3-4.7Zm25.4 50.8A19.8 19.8 0 1 1 148 150a19.7 19.7 0 0 1-5.9 14.1Z"></path></svg>