<svg xmlns="http://www.w3.org/2000/svg" xmlns:xlink="http://www.w3.org/1999/xlink" aria-hidden="true" role="img" class="iconify iconify--ph" width="1em" height="1em" preserveAspectRatio="xMidYMid meet" viewBox="0 0 256 256"><path fill="currentColor" d="M128 74c-12.4 0-22.6 6.2-29.4 18c-5.6 9.4-8.6 22.2-8.6 36s3 26.6 8.6 36c6.8 11.8 17 18 29.4 18s22.6-6.2 29.4-18c5.6-9.4 8.6-22.2 8.6-36s-3-26.6-8.6-36c-6.8-11.8-17-18-29.4-18Zm0 96c-18 0-26-21.1-26-42c0-29 13.1-42 26-42c18 0 26 21.1 26 42c0 29-13.1 42-26 42Zm0-144a102 102 0 1 0 102 102A102.2 102.2 0 0 0 128 26Zm0 192a90 90 0 1 1 90-90a90.1 90.1 0 0 1-90 90Z"></path></svg>