<svg xmlns="http://www.w3.org/2000/svg" xmlns:xlink="http://www.w3.org/1999/xlink" aria-hidden="true" role="img" class="iconify iconify--ph" width="1em" height="1em" preserveAspectRatio="xMidYMid meet" viewBox="0 0 256 256"><path fill="currentColor" d="M90.2 150.9a12 12 0 0 1-1.5-10.9l24-68a12 12 0 1 1 22.6 8L117 132h19v-20a12 12 0 0 1 24 0v64a12 12 0 0 1-24 0v-20h-36a12 12 0 0 1-9.8-5.1ZM228 48v160a20.1 20.1 0 0 1-20 20H48a20.1 20.1 0 0 1-20-20V48a20.1 20.1 0 0 1 20-20h160a20.1 20.1 0 0 1 20 20Zm-24 4H52v152h152Z"></path></svg>