<svg xmlns="http://www.w3.org/2000/svg" xmlns:xlink="http://www.w3.org/1999/xlink" aria-hidden="true" role="img" class="iconify iconify--ph" width="1em" height="1em" preserveAspectRatio="xMidYMid meet" viewBox="0 0 256 256"><path fill="currentColor" d="M92 84a12 12 0 0 1 12-12h48a12.1 12.1 0 0 1 11.4 15.8l-32 96A12.1 12.1 0 0 1 120 192a12.6 12.6 0 0 1-3.8-.6a12 12 0 0 1-7.6-15.2L135.4 96H104a12 12 0 0 1-12-12Zm136-36v160a20.1 20.1 0 0 1-20 20H48a20.1 20.1 0 0 1-20-20V48a20.1 20.1 0 0 1 20-20h160a20.1 20.1 0 0 1 20 20Zm-24 4H52v152h152Z"></path></svg>