<svg xmlns="http://www.w3.org/2000/svg" xmlns:xlink="http://www.w3.org/1999/xlink" aria-hidden="true" role="img" class="iconify iconify--ph" width="1em" height="1em" preserveAspectRatio="xMidYMid meet" viewBox="0 0 256 256"><path fill="currentColor" d="M128 26a102 102 0 1 0 102 102A102.2 102.2 0 0 0 128 26Zm0 192a90 90 0 1 1 90-90a90.1 90.1 0 0 1-90 90ZM116.9 90l-4.9 30.1a34.3 34.3 0 0 1 11.9-2.1a34.1 34.1 0 0 1 34.1 34a34 34 0 0 1-34.1 34a33.6 33.6 0 0 1-24.1-10a5.9 5.9 0 0 1-.1-8.4a6 6 0 0 1 8.5-.1a22.1 22.1 0 0 0 15.7 6.5a21.7 21.7 0 0 0 15.6-6.5a21.7 21.7 0 0 0 0-31a21.7 21.7 0 0 0-15.6-6.5a22.1 22.1 0 0 0-15.7 6.5a5.9 5.9 0 0 1-6.9 1a5.8 5.8 0 0 1-3.2-6.3l7.8-48.2a6 6 0 0 1 5.9-5H152a6 6 0 0 1 0 12Z"></path></svg>