<svg xmlns="http://www.w3.org/2000/svg" xmlns:xlink="http://www.w3.org/1999/xlink" aria-hidden="true" role="img" class="iconify iconify--ph" width="1em" height="1em" preserveAspectRatio="xMidYMid meet" viewBox="0 0 256 256"><path fill="currentColor" d="M128 20a108 108 0 1 0 108 108A108.1 108.1 0 0 0 128 20Zm0 192a84 84 0 1 1 84-84a84.1 84.1 0 0 1-84 84Zm-6-116l-2.6 16.2l4.5-.2a40 40 0 1 1 0 80a40.3 40.3 0 0 1-28.4-11.7a12 12 0 0 1 17-17a16.2 16.2 0 0 0 22.8 0a15.9 15.9 0 0 0 0-22.6a16.2 16.2 0 0 0-22.8 0a12 12 0 0 1-20.3-10.4l7.8-48.2A12 12 0 0 1 111.8 72H152a12 12 0 0 1 0 24Z"></path></svg>