<svg xmlns="http://www.w3.org/2000/svg" xmlns:xlink="http://www.w3.org/1999/xlink" aria-hidden="true" role="img" class="iconify iconify--ph" width="1em" height="1em" preserveAspectRatio="xMidYMid meet" viewBox="0 0 256 256"><path fill="currentColor" d="M149.1 123.3h.1a30 30 0 1 0-42.4 0h.1a24.4 24.4 0 0 0-2.9 2.7a33.9 33.9 0 1 0 48 48a33.8 33.8 0 0 0 0-48a24.4 24.4 0 0 0-2.9-2.7Zm-31-11.4a14 14 0 1 1 9.9 4.1a14.1 14.1 0 0 1-9.9-4.1Zm22.6 50.8A17.9 17.9 0 1 1 146 150a17.9 17.9 0 0 1-5.3 12.7ZM208 32H48a16 16 0 0 0-16 16v160a16 16 0 0 0 16 16h160a16 16 0 0 0 16-16V48a16 16 0 0 0-16-16Zm0 176H48V48h160v160Z"></path></svg>