<svg xmlns="http://www.w3.org/2000/svg" xmlns:xlink="http://www.w3.org/1999/xlink" aria-hidden="true" role="img" class="iconify iconify--ph" width="1em" height="1em" preserveAspectRatio="xMidYMid meet" viewBox="0 0 256 256"><path fill="currentColor" d="M162.4 125.6a60.1 60.1 0 0 1-85.2 84.8a4 4 0 0 1 5.6-5.6a52.5 52.5 0 0 0 73.9 0a51.9 51.9 0 0 0 0-73.6a52.5 52.5 0 0 0-73.9 0a3.8 3.8 0 0 1-4.6.8a3.9 3.9 0 0 1-2.1-4.2l15.6-96.4a4 4 0 0 1 4-3.4H176a4 4 0 0 1 0 8H99.1l-13.4 82.5a60.5 60.5 0 0 1 76.7 7.1Z"></path></svg>