<svg xmlns="http://www.w3.org/2000/svg" xmlns:xlink="http://www.w3.org/1999/xlink" aria-hidden="true" role="img" class="iconify iconify--ph" width="1em" height="1em" preserveAspectRatio="xMidYMid meet" viewBox="0 0 256 256"><path fill="currentColor" d="M154 112v64a6 6 0 0 1-12 0v-26h-42a6 6 0 0 1-4.9-2.5a6.3 6.3 0 0 1-.8-5.5l24-68a6 6 0 1 1 11.4 4l-21.2 60H142v-26a6 6 0 0 1 12 0Zm68-64v160a14 14 0 0 1-14 14H48a14 14 0 0 1-14-14V48a14 14 0 0 1 14-14h160a14 14 0 0 1 14 14Zm-12 0a2 2 0 0 0-2-2H48a2 2 0 0 0-2 2v160a2 2 0 0 0 2 2h160a2 2 0 0 0 2-2Z"></path></svg>