<svg xmlns="http://www.w3.org/2000/svg" xmlns:xlink="http://www.w3.org/1999/xlink" aria-hidden="true" role="img" class="iconify iconify--ph" width="1em" height="1em" preserveAspectRatio="xMidYMid meet" viewBox="0 0 256 256"><path fill="currentColor" d="M146.6 129.4a32 32 0 1 1-45.2 45.2a4 4 0 0 1 5.6-5.6a24 24 0 1 0 17-41a3.8 3.8 0 0 1-3.5-2.1a4.2 4.2 0 0 1 .2-4.2L144.3 88H104a4 4 0 0 1 0-8h48a3.7 3.7 0 0 1 3.5 2.2a4 4 0 0 1-.2 4.1l-24.2 34.5a31.4 31.4 0 0 1 15.5 8.6ZM220 48v160a12 12 0 0 1-12 12H48a12 12 0 0 1-12-12V48a12 12 0 0 1 12-12h160a12 12 0 0 1 12 12Zm-8 0a4 4 0 0 0-4-4H48a4 4 0 0 0-4 4v160a4 4 0 0 0 4 4h160a4 4 0 0 0 4-4Z"></path></svg>