<svg xmlns="http://www.w3.org/2000/svg" xmlns:xlink="http://www.w3.org/1999/xlink" aria-hidden="true" role="img" class="iconify iconify--ph" width="1em" height="1em" preserveAspectRatio="xMidYMid meet" viewBox="0 0 256 256"><path fill="currentColor" d="M128 20a108 108 0 1 0 108 108A108.1 108.1 0 0 0 128 20Zm0 192a84 84 0 1 1 84-84a84.1 84.1 0 0 1-84 84Zm24.3-88.3a40 40 0 0 1-56.6 56.6a12 12 0 0 1 17-17A16 16 0 1 0 124 136a12 12 0 0 1-9.8-18.9L129 96h-25a12 12 0 0 1 0-24h48a12 12 0 0 1 9.8 18.9l-18.3 26.2a39.7 39.7 0 0 1 8.8 6.6Z"></path></svg>