<svg xmlns="http://www.w3.org/2000/svg" xmlns:xlink="http://www.w3.org/1999/xlink" aria-hidden="true" role="img" class="iconify iconify--ph" width="1em" height="1em" preserveAspectRatio="xMidYMid meet" viewBox="0 0 256 256"><path fill="currentColor" d="M128 20a108 108 0 1 0 108 108A108.1 108.1 0 0 0 128 20Zm0 192a84 84 0 1 1 84-84a84.1 84.1 0 0 1-84 84Zm0-140a40 40 0 0 0-5.1 79.7l-13.2 22.1a12.1 12.1 0 0 0 4.1 16.5a11.9 11.9 0 0 0 6.2 1.7a12 12 0 0 0 10.3-5.8l32.3-54c.1-.2.1-.4.2-.6A39.6 39.6 0 0 0 168 112a40 40 0 0 0-40-40Zm-16 40a16 16 0 1 1 16 16a16 16 0 0 1-16-16Z"></path></svg>