<svg xmlns="http://www.w3.org/2000/svg" xmlns:xlink="http://www.w3.org/1999/xlink" aria-hidden="true" role="img" class="iconify iconify--ph" width="1em" height="1em" preserveAspectRatio="xMidYMid meet" viewBox="0 0 256 256"><path fill="currentColor" d="M138 84v92a6 6 0 0 1-12 0V95.2l-14.7 9.8a6 6 0 0 1-6.6-10l24-16a6 6 0 0 1 9.3 5Zm84-36v160a14 14 0 0 1-14 14H48a14 14 0 0 1-14-14V48a14 14 0 0 1 14-14h160a14 14 0 0 1 14 14Zm-12 0a2 2 0 0 0-2-2H48a2 2 0 0 0-2 2v160a2 2 0 0 0 2 2h160a2 2 0 0 0 2-2Z"></path></svg>