<svg xmlns="http://www.w3.org/2000/svg" xmlns:xlink="http://www.w3.org/1999/xlink" aria-hidden="true" role="img" class="iconify iconify--ph" width="1em" height="1em" preserveAspectRatio="xMidYMid meet" viewBox="0 0 256 256"><path fill="currentColor" d="M128 28a100 100 0 1 0 100 100A100.2 100.2 0 0 0 128 28Zm0 192a92 92 0 1 1 92-92a92.1 92.1 0 0 1-92 92Zm0-108a31.9 31.9 0 0 0-9.8 1.5l21.2-35.4a4 4 0 1 0-6.8-4.2l-32.3 54a.4.4 0 0 1-.1.3A31.1 31.1 0 0 0 96 144a32 32 0 1 0 32-32Zm0 56a24 24 0 1 1 24-24a24.1 24.1 0 0 1-24 24Z"></path></svg>