<svg xmlns="http://www.w3.org/2000/svg" xmlns:xlink="http://www.w3.org/1999/xlink" aria-hidden="true" role="img" class="iconify iconify--ph" width="1em" height="1em" preserveAspectRatio="xMidYMid meet" viewBox="0 0 256 256"><path fill="currentColor" d="M128 28a100 100 0 1 0 100 100A100.2 100.2 0 0 0 128 28Zm0 192a92 92 0 1 1 92-92a92.1 92.1 0 0 1-92 92Zm18.6-90.6a32 32 0 1 1-45.2 45.2a4 4 0 0 1 5.6-5.6a24 24 0 1 0 17-41a3.7 3.7 0 0 1-3.5-2.2a4 4 0 0 1 .2-4.1L144.3 88H104a4 4 0 0 1 0-8h48a3.8 3.8 0 0 1 3.5 2.1a4.2 4.2 0 0 1-.2 4.2l-24.2 34.5a30.7 30.7 0 0 1 15.5 8.6Z"></path></svg>