<svg xmlns="http://www.w3.org/2000/svg" xmlns:xlink="http://www.w3.org/1999/xlink" aria-hidden="true" role="img" class="iconify iconify--ph" width="1em" height="1em" preserveAspectRatio="xMidYMid meet" viewBox="0 0 256 256"><path fill="currentColor" d="m221.8 63.3l-84-47.5a19.6 19.6 0 0 0-19.6 0l-84 47.5A19.9 19.9 0 0 0 24 80.7v94.6a19.9 19.9 0 0 0 10.2 17.4l84 47.5a19.8 19.8 0 0 0 19.6 0l84-47.5a19.9 19.9 0 0 0 10.2-17.4V80.7a19.9 19.9 0 0 0-10.2-17.4ZM208 173l-80 45.2L48 173V83l80-45.2L208 83ZM80 128a48 48 0 1 0 48-48a48 48 0 0 0-48 48Zm72 0a24 24 0 1 1-24-24a24.1 24.1 0 0 1 24 24Z"></path></svg>