<svg xmlns="http://www.w3.org/2000/svg" xmlns:xlink="http://www.w3.org/1999/xlink" aria-hidden="true" role="img" class="iconify iconify--ph" width="1em" height="1em" preserveAspectRatio="xMidYMid meet" viewBox="0 0 256 256"><path fill="currentColor" d="m219.9 66.7l-84-47.4a15.9 15.9 0 0 0-15.8 0l-84 47.4a16.2 16.2 0 0 0-8.1 14v94.6a16.2 16.2 0 0 0 8.1 14l84 47.4a15.9 15.9 0 0 0 15.8 0l84-47.4a16.2 16.2 0 0 0 8.1-14V80.7a16.2 16.2 0 0 0-8.1-14ZM128 164a36 36 0 1 1 36-36a36 36 0 0 1-36 36Z"></path></svg>