<svg xmlns="http://www.w3.org/2000/svg" xmlns:xlink="http://www.w3.org/1999/xlink" aria-hidden="true" role="img" class="iconify iconify--ph" width="1em" height="1em" preserveAspectRatio="xMidYMid meet" viewBox="0 0 256 256"><path fill="currentColor" d="M172.1 138a10 10 0 1 1-10 10a10 10 0 0 1 10-10Zm39.4 26.8a86.1 86.1 0 0 1-117.3 58.3l-1.3-.6a86.2 86.2 0 0 1-50.1-66.9a3.7 3.7 0 0 1-.1-1.1A72.2 72.2 0 0 1 42 144a85.8 85.8 0 0 1 15.1-48.6a33.7 33.7 0 0 1-21-31.4a34 34 0 0 1 34-34a5.8 5.8 0 0 1 2.6.6L187.4 86a22 22 0 0 0-1.3-44a6 6 0 0 1 0-12a34 34 0 0 1 0 68a5.8 5.8 0 0 1-2.6-.6L126.8 70A74.1 74.1 0 0 0 54 144v.7l39.1-20.9h.1l32-17.1a5.9 5.9 0 0 1 5.9.2a5.8 5.8 0 0 1 2.9 5.1v105.8a73.9 73.9 0 0 0 65.8-55.9a6 6 0 0 1 11.7 2.9ZM65.1 85.4a86.8 86.8 0 0 1 42.1-24.8L68.8 42a22 22 0 0 0-20.7 22a21.8 21.8 0 0 0 17 21.4ZM122 122l-20 10.7v80.6a73.6 73.6 0 0 0 20 4.4Zm-32 85.5v-68.4l-34.7 18.5A74.2 74.2 0 0 0 90 207.5Z"></path></svg>