<svg xmlns="http://www.w3.org/2000/svg" xmlns:xlink="http://www.w3.org/1999/xlink" aria-hidden="true" role="img" class="iconify iconify--ph" width="1em" height="1em" preserveAspectRatio="xMidYMid meet" viewBox="0 0 256 256"><path fill="currentColor" d="M128 112v112a79.4 79.4 0 0 1-32-6.7v-88.2Z" opacity=".2"></path><path fill="currentColor" d="M184 148a12 12 0 1 1-12-12a12 12 0 0 1 12 12Zm29.4 17.3a88.1 88.1 0 0 1-120.1 59.6l-1.1-.5a88.4 88.4 0 0 1-51.5-69.3a80.2 80.2 0 0 1-.7-11a87.3 87.3 0 0 1 14.1-47.8a36 36 0 0 1 16-68.3a7.7 7.7 0 0 1 3.4.8l114.3 55.1a20 20 0 0 0-1.7-39.9a8 8 0 0 1 0-16a36 36 0 0 1 0 72a8.5 8.5 0 0 1-3.5-.8L126.3 72a72.1 72.1 0 0 0-70.2 69.3L92.2 122l32-17.1A8 8 0 0 1 136 112v103.5a71.8 71.8 0 0 0 61.9-54.1a8 8 0 0 1 15.5 3.9Zm-93.4-40l-16 8.6v78a71.5 71.5 0 0 0 16 3.6ZM64.4 83.2a88.1 88.1 0 0 1 37.1-23.1l-33.1-16a20 20 0 0 0-4 39.1ZM88 203.8v-61.4l-30.5 16.3A72.1 72.1 0 0 0 88 203.8Z"></path></svg>