<svg xmlns="http://www.w3.org/2000/svg" xmlns:xlink="http://www.w3.org/1999/xlink" aria-hidden="true" role="img" class="iconify iconify--ph" width="1em" height="1em" preserveAspectRatio="xMidYMid meet" viewBox="0 0 256 256"><path fill="currentColor" d="M172.1 140a8 8 0 1 1-8 8a8 8 0 0 1 8-8Zm37.4 24.3a83.8 83.8 0 0 1-114.7 56.8l-.8-.3a84.2 84.2 0 0 1-49.2-65.7a1.3 1.3 0 0 1-.1-.6A74.1 74.1 0 0 1 44 144a83.3 83.3 0 0 1 16.2-49.5A32 32 0 0 1 70.1 32a3.3 3.3 0 0 1 1.7.4L187 88a24 24 0 0 0-.9-48a4 4 0 0 1 0-8a32 32 0 0 1 0 64a3.9 3.9 0 0 1-1.8-.4L127.2 68A76.2 76.2 0 0 0 52 144c0 1.3 0 2.6.1 3.9l74-39.4a3.8 3.8 0 0 1 4 .1a3.9 3.9 0 0 1 1.9 3.4v107.9a75.8 75.8 0 0 0 69.8-57.5a4 4 0 1 1 7.7 1.9ZM65.8 87.6a83.7 83.7 0 0 1 47.5-26.3L69.2 40a24.1 24.1 0 0 0-23.1 24a23.8 23.8 0 0 0 19.7 23.6Zm58.2 31.1l-24 12.8v83.1a74.2 74.2 0 0 0 24 5.3Zm-32 92.2v-75.2l-39 20.8a76.4 76.4 0 0 0 39 54.4Z"></path></svg>