<svg xmlns="http://www.w3.org/2000/svg" xmlns:xlink="http://www.w3.org/1999/xlink" aria-hidden="true" role="img" class="iconify iconify--ph" width="1em" height="1em" preserveAspectRatio="xMidYMid meet" viewBox="0 0 256 256"><path fill="currentColor" d="M164.5 230h-73a14.3 14.3 0 0 1-9.9-4.1l-51.5-51.5a14.3 14.3 0 0 1-4.1-9.9v-73a14.3 14.3 0 0 1 4.1-9.9l51.5-51.5a14.3 14.3 0 0 1 9.9-4.1h73a14.3 14.3 0 0 1 9.9 4.1l51.5 51.5a14.3 14.3 0 0 1 4.1 9.9v73a14.3 14.3 0 0 1-4.1 9.9l-51.5 51.5a14.3 14.3 0 0 1-9.9 4.1Zm-73-192a2 2 0 0 0-1.4.6L38.6 90.1a2 2 0 0 0-.6 1.4v73a2 2 0 0 0 .6 1.4l51.5 51.5a2 2 0 0 0 1.4.6h73a2 2 0 0 0 1.4-.6l51.5-51.5a2 2 0 0 0 .6-1.4v-73a2 2 0 0 0-.6-1.4l-51.5-51.5a2 2 0 0 0-1.4-.6Z"></path></svg>