<svg xmlns="http://www.w3.org/2000/svg" xmlns:xlink="http://www.w3.org/1999/xlink" aria-hidden="true" role="img" class="iconify iconify--ph" width="1em" height="1em" preserveAspectRatio="xMidYMid meet" viewBox="0 0 256 256"><path fill="currentColor" d="M164.5 228h-73a11.5 11.5 0 0 1-8.4-3.5l-51.6-51.6a11.5 11.5 0 0 1-3.5-8.4v-73a11.5 11.5 0 0 1 3.5-8.4l51.6-51.6a11.5 11.5 0 0 1 8.4-3.5h73a11.5 11.5 0 0 1 8.4 3.5l51.6 51.6a11.5 11.5 0 0 1 3.5 8.4v73a11.5 11.5 0 0 1-3.5 8.4l-51.6 51.6a11.5 11.5 0 0 1-8.4 3.5Zm-73-192a3.9 3.9 0 0 0-2.8 1.2L37.2 88.7a3.9 3.9 0 0 0-1.2 2.8v73a3.9 3.9 0 0 0 1.2 2.8l51.5 51.5a3.9 3.9 0 0 0 2.8 1.2h73a3.9 3.9 0 0 0 2.8-1.2l51.5-51.5a3.9 3.9 0 0 0 1.2-2.8v-73a3.9 3.9 0 0 0-1.2-2.8l-51.5-51.5a3.9 3.9 0 0 0-2.8-1.2Z"></path></svg>