<svg xmlns="http://www.w3.org/2000/svg" xmlns:xlink="http://www.w3.org/1999/xlink" aria-hidden="true" role="img" class="iconify iconify--ph" width="1em" height="1em" preserveAspectRatio="xMidYMid meet" viewBox="0 0 256 256"><path fill="currentColor" d="M164.5 236h-73a19.8 19.8 0 0 1-14.1-5.9l-51.5-51.5a19.8 19.8 0 0 1-5.9-14.1v-73a19.8 19.8 0 0 1 5.9-14.1l51.5-51.5A19.8 19.8 0 0 1 91.5 20h73a19.8 19.8 0 0 1 14.1 5.9l51.5 51.5a19.8 19.8 0 0 1 5.9 14.1v73a19.8 19.8 0 0 1-5.9 14.1l-51.5 51.5a19.8 19.8 0 0 1-14.1 5.9Zm-71.3-24h69.6l49.2-49.2V93.2L162.8 44H93.2L44 93.2v69.6Zm71.3-168Z"></path></svg>