<svg xmlns="http://www.w3.org/2000/svg" xmlns:xlink="http://www.w3.org/1999/xlink" aria-hidden="true" role="img" class="iconify iconify--ph" width="1em" height="1em" preserveAspectRatio="xMidYMid meet" viewBox="0 0 256 256"><path fill="currentColor" d="M228.3 71.8h-.1a13.4 13.4 0 0 0-5.2-5.1L135 17a14.1 14.1 0 0 0-13.8 0l-88 49.5a13.8 13.8 0 0 0-4.9 4.7l-.3.4h-.1a14.8 14.8 0 0 0-1.8 6.9v98.6a14 14 0 0 0 7.1 12.2l88 49.5a14.8 14.8 0 0 0 6.1 1.8h1.7a14.8 14.8 0 0 0 6-1.8l88-49.5a14 14 0 0 0 7.1-12.2V78.7a13.4 13.4 0 0 0-1.8-6.9ZM127.1 27.4l1-.2l1 .2L211.9 74l-34.7 19.7l-84.8-46.8Zm1.9 93.7L44.4 74l35.7-20.1l84.9 46.8Zm-89.9 58a2.2 2.2 0 0 1-1-1.8V84.2l84.9 47.3l-.8 94.3Zm178 0l-82.9 46.6l.8-94.2l36.1-20.5v41.5a6 6 0 0 0 12 0v-48.3l35-19.9v93a2.2 2.2 0 0 1-1 1.8Z"></path></svg>