<svg xmlns="http://www.w3.org/2000/svg" xmlns:xlink="http://www.w3.org/1999/xlink" aria-hidden="true" role="img" class="iconify iconify--ph" width="1em" height="1em" preserveAspectRatio="xMidYMid meet" viewBox="0 0 256 256"><path fill="currentColor" d="M233.5 68.9c0-.1 0-.1-.1-.2a20.5 20.5 0 0 0-7.5-7.4l-88-49.5a20.1 20.1 0 0 0-19.6 0l-88 49.5a20 20 0 0 0-7.5 7.5h-.1a.3.3 0 0 1-.1.2a20 20 0 0 0-2.5 9.7v98.6a20.2 20.2 0 0 0 10.2 17.5l88 49.5a20.6 20.6 0 0 0 9 2.5h1.8a21.2 21.2 0 0 0 8.8-2.5l88-49.5a20.2 20.2 0 0 0 10.2-17.5V78.7a19.4 19.4 0 0 0-2.6-9.8ZM128.1 33.8l71.6 40.3l-22.5 12.7l-72.4-39.9Zm.9 80.4L56.7 73.9l23.5-13.2l72.5 40.1ZM44.1 94.4L117 135l-.7 80.6L44.1 175Zm96.2 121l.7-80.4l24.1-13.7v31.2a12 12 0 0 0 24 0v-44.8l23-13.1V175Z"></path></svg>