<svg xmlns="http://www.w3.org/2000/svg" xmlns:xlink="http://www.w3.org/1999/xlink" aria-hidden="true" role="img" class="iconify iconify--ph" width="1em" height="1em" preserveAspectRatio="xMidYMid meet" viewBox="0 0 256 256"><path fill="currentColor" d="M226.5 72.7a12.7 12.7 0 0 0-4.5-4.4l-88-49.6a12.4 12.4 0 0 0-11.8 0l-88 49.5a12.7 12.7 0 0 0-4.5 4.4a12.5 12.5 0 0 0-1.6 6v98.6a12.2 12.2 0 0 0 6.1 10.5l88 49.5a11.5 11.5 0 0 0 5.6 1.5h.6a13.7 13.7 0 0 0 5.6-1.5l88-49.5a11.9 11.9 0 0 0 6.1-10.5V78.7a12.5 12.5 0 0 0-1.6-6Zm-100.3-47a4.1 4.1 0 0 1 1.9-.5a4.6 4.6 0 0 1 2 .5L216 74l-38.7 22l-89-49Zm2.8 97.7L40.3 74l39.8-22.4l89 49.1Zm-90.8 57.4a3.9 3.9 0 0 1-2.1-3.5V80.8l88.9 49.5l-.8 98.9Zm179.9 0l-85.9 48.3l.8-98.8l40.1-22.7v44.9a4 4 0 0 0 8 0V103l39-22.1v96.4a4 4 0 0 1-2 3.5Z"></path></svg>