<svg xmlns="http://www.w3.org/2000/svg" xmlns:xlink="http://www.w3.org/1999/xlink" aria-hidden="true" role="img" class="iconify iconify--ph" width="1em" height="1em" preserveAspectRatio="xMidYMid meet" viewBox="0 0 256 256"><path fill="currentColor" d="M229 123.5a6.4 6.4 0 0 0-1.8-4.3L119.7 11.8a5.9 5.9 0 0 0-8.5 0L69.7 53.3L42.1 25.6a6 6 0 0 0-8.5 8.5l27.7 27.6l-46.2 46.2a22 22 0 0 0 0 31.1l84.8 84.9a22.2 22.2 0 0 0 15.6 6.4a21.8 21.8 0 0 0 15.5-6.4l96.2-96.2a6 6 0 0 0 1.8-4.2Zm-106.4 91.9a10.1 10.1 0 0 1-14.2 0l-84.8-84.9a10 10 0 0 1 0-14.1l46.1-46.2l32.2 32.2a26 26 0 0 0 40.5 32A26 26 0 0 0 124 90a25.7 25.7 0 0 0-13.6 3.9L78.2 61.7l37.3-37.2l99 99ZM124 102a14.1 14.1 0 0 1 9.9 4.1a13.9 13.9 0 0 1 0 19.8a14 14 0 0 1-19.8 0a13.9 13.9 0 0 1 0-19.8a14.1 14.1 0 0 1 9.9-4.1Zm108.2 57.8a5.8 5.8 0 0 0-8.4 0c-.9.8-21.8 22-21.8 44.2a26 26 0 0 0 52 0c0-22.2-20.9-43.4-21.8-44.2ZM228 218a14 14 0 0 1-14-14c0-11.9 8.6-24.3 14-30.9c5.4 6.6 14 19 14 30.9a14 14 0 0 1-14 14Z"></path></svg>