<svg xmlns="http://www.w3.org/2000/svg" xmlns:xlink="http://www.w3.org/1999/xlink" aria-hidden="true" role="img" class="iconify iconify--ph" width="1em" height="1em" preserveAspectRatio="xMidYMid meet" viewBox="0 0 256 256"><path fill="currentColor" d="M232 88h-16V64a16 16 0 0 0-16-16H48a16 16 0 0 0-16 16v24H16a8 8 0 0 0 0 16h16v24a16 16 0 0 0 16 16h152a16 16 0 0 0 16-16v-24h16v50l-100.4 28.6A16.2 16.2 0 0 0 120 198v34a8 8 0 0 0 16 0v-34l100.4-28.6A16.2 16.2 0 0 0 248 154v-50a16 16 0 0 0-16-16Zm-32 40H48V64h152v64Z"></path></svg>