<svg xmlns="http://www.w3.org/2000/svg" xmlns:xlink="http://www.w3.org/1999/xlink" aria-hidden="true" role="img" class="iconify iconify--ph" width="1em" height="1em" preserveAspectRatio="xMidYMid meet" viewBox="0 0 256 256"><path fill="currentColor" d="M235 123.5a12.1 12.1 0 0 0-3.5-8.5L124 7.5a12 12 0 0 0-17 0L69.7 44.8L46.3 21.4a12 12 0 0 0-16.9 16.9l23.4 23.4l-42 42a28.1 28.1 0 0 0 0 39.6l84.9 84.8a28 28 0 0 0 39.6 0l96.2-96.1a12.3 12.3 0 0 0 3.5-8.5Zm-116.7 87.7a4.1 4.1 0 0 1-5.6 0l-84.9-84.9a4 4 0 0 1 0-5.7l41.9-41.9l21.8 21.8a36 36 0 0 0 58 41a36 36 0 0 0-41-57.9L86.7 61.7L115.5 33l90.5 90.5ZM124 104a12.2 12.2 0 0 1 8.5 3.5a12 12 0 1 1-17 0a12.2 12.2 0 0 1 8.5-3.5Zm108.5 63.5a12.1 12.1 0 0 0-17 0c-2.4 2.4-23.5 24.2-23.5 48.5a32 32 0 0 0 64 0c0-24.3-21.1-46.1-23.5-48.5ZM224 224a8 8 0 0 1-8-8c0-6.9 3.8-14.7 8-20.9c4.1 6.2 8 14 8 20.9a8 8 0 0 1-8 8Z"></path></svg>