<svg xmlns="http://www.w3.org/2000/svg" xmlns:xlink="http://www.w3.org/1999/xlink" aria-hidden="true" role="img" class="iconify iconify--ph" width="1em" height="1em" preserveAspectRatio="xMidYMid meet" viewBox="0 0 256 256"><path fill="currentColor" d="M216 24H72a40 40 0 0 0-40 40v72a24.1 24.1 0 0 0 24 24h46.8l-6.7 46.9a3.7 3.7 0 0 0-.1 1.1a32 32 0 0 0 64 0a3.7 3.7 0 0 0-.1-1.1l-6.7-46.9H200a24.1 24.1 0 0 0 24-24V32a8 8 0 0 0-8-8Zm-8 80H48V64a24.1 24.1 0 0 1 24-24h104v40a8 8 0 0 0 16 0V40h16Z"></path></svg>