<svg xmlns="http://www.w3.org/2000/svg" xmlns:xlink="http://www.w3.org/1999/xlink" aria-hidden="true" role="img" class="iconify iconify--ph" width="1em" height="1em" preserveAspectRatio="xMidYMid meet" viewBox="0 0 256 256"><path fill="currentColor" d="M248 104v50a16.2 16.2 0 0 1-11.6 15.4L136 198v34a8 8 0 0 1-16 0v-34a16.2 16.2 0 0 1 11.6-15.4L232 154v-50h-16v24a16 16 0 0 1-16 16H48a16 16 0 0 1-16-16v-24H16a8 8 0 0 1 0-16h16V64a16 16 0 0 1 16-16h152a16 16 0 0 1 16 16v24h16a16 16 0 0 1 16 16Z"></path></svg>