<svg xmlns="http://www.w3.org/2000/svg" xmlns:xlink="http://www.w3.org/1999/xlink" aria-hidden="true" role="img" class="iconify iconify--ph" width="1em" height="1em" preserveAspectRatio="xMidYMid meet" viewBox="0 0 256 256"><path fill="currentColor" d="M231 123.5a8.2 8.2 0 0 0-2.4-5.7L121.1 10.3a8 8 0 0 0-11.3 0L69.7 50.4L43.5 24.2a8 8 0 0 0-11.3 11.3l26.2 26.2l-44.7 44.8a23.9 23.9 0 0 0 0 33.9l84.8 84.9a24.1 24.1 0 0 0 34 0l96.1-96.2a8 8 0 0 0 2.4-5.6ZM121.1 214a8.1 8.1 0 0 1-11.3 0L25 129.1a8 8 0 0 1 0-11.3l44.7-44.7l29.7 29.6a28 28 0 1 0 11.3-11.3L81.1 61.7l34.4-34.4l96.2 96.2Zm2.9-110a12.2 12.2 0 0 1 8.5 3.5a12 12 0 1 1-17 0a12.2 12.2 0 0 1 8.5-3.5Zm109.7 54.3a8.2 8.2 0 0 0-11.4 0c-.9 1-22.3 22.7-22.3 45.7a28 28 0 0 0 56 0c0-23-21.4-44.7-22.3-45.7ZM228 216a12 12 0 0 1-12-12c0-9.7 6.5-20.6 12-27.8c5.5 7.2 12 18 12 27.8a12 12 0 0 1-12 12Z"></path></svg>