<svg xmlns="http://www.w3.org/2000/svg" xmlns:xlink="http://www.w3.org/1999/xlink" aria-hidden="true" role="img" class="iconify iconify--ph" width="1em" height="1em" preserveAspectRatio="xMidYMid meet" viewBox="0 0 256 256"><path fill="currentColor" d="M216 20H72a44 44 0 0 0-44 44v72a28.1 28.1 0 0 0 28 28h39.1L92 207.1v.9a36 36 0 0 0 72 0v-.9l-3.1-43.1H200a28.1 28.1 0 0 0 28-28V32a12 12 0 0 0-12-12ZM72 44h92v28a12 12 0 0 0 24 0V44h16v56H52V64a20.1 20.1 0 0 1 20-20Zm128 96h-43.4a20.2 20.2 0 0 0-20 21.4l3.4 47a12 12 0 0 1-24 0l3.4-47a20.2 20.2 0 0 0-20-21.4H56a4 4 0 0 1-4-4v-12h152v12a4 4 0 0 1-4 4Z"></path></svg>