<svg xmlns="http://www.w3.org/2000/svg" xmlns:xlink="http://www.w3.org/1999/xlink" aria-hidden="true" role="img" class="iconify iconify--ph" width="1em" height="1em" preserveAspectRatio="xMidYMid meet" viewBox="0 0 256 256"><path fill="currentColor" d="M225 19c-22.3 0-47.2 12.1-73.8 36c-17.4 15.5-32.4 33.1-43.1 47a66.4 66.4 0 0 0-16.1-2a64.1 64.1 0 0 0-64 64c0 28.6-14.3 41.6-15.5 42.7a11.8 11.8 0 0 0-4 13.2A12 12 0 0 0 20 228h72a64.1 64.1 0 0 0 64-64a66.4 66.4 0 0 0-2-16.1c13.9-10.7 31.5-25.7 47-43.1c23.9-26.6 36-51.5 36-73.8a12 12 0 0 0-12-12ZM92 204H43.3a91.3 91.3 0 0 0 8.7-40a40 40 0 1 1 40 40Zm38.2-91.3c3-3.8 6.5-8 10.2-12.4a78.2 78.2 0 0 1 15.2 15.2c-4.4 3.9-8.6 7.3-12.3 10.3a62.6 62.6 0 0 0-13.1-13.1Zm43.1-13.5a103 103 0 0 0-16.5-16.5c3.4-3.4 6.8-6.7 10.4-9.9c15.7-14 30.4-23.3 43.4-27.4c-5.7 18.5-21.2 37.7-37.3 53.8Z"></path></svg>