<svg xmlns="http://www.w3.org/2000/svg" xmlns:xlink="http://www.w3.org/1999/xlink" aria-hidden="true" role="img" class="iconify iconify--ph" width="1em" height="1em" preserveAspectRatio="xMidYMid meet" viewBox="0 0 256 256"><path fill="currentColor" d="M227.8 28.2a28.1 28.1 0 0 0-39.6 0c0 .1-.1.1-.1.2l-54.9 61.1a4.2 4.2 0 0 1-2.9 1.4a4.1 4.1 0 0 1-3-1.2l-9.2-9.2a19.9 19.9 0 0 0-28.2 0l-76.7 76.7a3.9 3.9 0 0 0 0 5.6l80 80a3.9 3.9 0 0 0 5.6 0l76.7-76.7a19.9 19.9 0 0 0 0-28.2l-9.2-9.2a4 4 0 0 1 .2-5.9l61.1-54.9h.2a28.1 28.1 0 0 0 0-39.7ZM96 234.3l-19.8-19.7l28.4-28.4a4 4 0 0 0-5.7-5.7l-28.3 28.4l-22.4-22.3l28.4-28.4a4 4 0 0 0-5.7-5.7l-28.3 28.4L21.7 160L72 109.7l74.3 74.3ZM222.2 62.1l-61.1 54.8a12.2 12.2 0 0 0-4 8.6a12.1 12.1 0 0 0 3.6 8.8l9.2 9.2a12.1 12.1 0 0 1 0 17L152 178.3L77.7 104l17.8-17.9a12.1 12.1 0 0 1 17 0l9.2 9.2a11.7 11.7 0 0 0 8.8 3.6a12.2 12.2 0 0 0 8.6-4l54.8-61.1a20 20 0 0 1 28.3 28.3Z"></path></svg>