<svg xmlns="http://www.w3.org/2000/svg" xmlns:xlink="http://www.w3.org/1999/xlink" aria-hidden="true" role="img" class="iconify iconify--ph" width="1em" height="1em" preserveAspectRatio="xMidYMid meet" viewBox="0 0 256 256"><path fill="currentColor" d="M232 90h-18V64a14 14 0 0 0-14-14H48a14 14 0 0 0-14 14v26H16a6 6 0 0 0 0 12h18v26a14 14 0 0 0 14 14h152a14 14 0 0 0 14-14v-26h18a2 2 0 0 1 2 2v50a2 2 0 0 1-1.5 1.9l-100.3 28.7A14 14 0 0 0 122 198v34a6 6 0 0 0 12 0v-34a2 2 0 0 1 1.5-1.9l100.3-28.7A14 14 0 0 0 246 154v-50a14 14 0 0 0-14-14Zm-30 38a2 2 0 0 1-2 2H48a2 2 0 0 1-2-2V64a2 2 0 0 1 2-2h152a2 2 0 0 1 2 2Z"></path></svg>