<svg xmlns="http://www.w3.org/2000/svg" xmlns:xlink="http://www.w3.org/1999/xlink" aria-hidden="true" role="img" class="iconify iconify--ph" width="1em" height="1em" preserveAspectRatio="xMidYMid meet" viewBox="0 0 256 256"><path fill="currentColor" d="M227 123.5a4.5 4.5 0 0 0-1.2-2.9L118.3 13.2a3.9 3.9 0 0 0-5.6 0l-43 42.9l-29-29.1a4 4 0 0 0-5.7 5.7l29.1 29l-47.6 47.6a20 20 0 0 0 0 28.3l84.8 84.9a20.2 20.2 0 0 0 28.3 0l96.2-96.2a4.2 4.2 0 0 0 1.2-2.8Zm-103 93.3a12.1 12.1 0 0 1-17 0L22.1 132a12.2 12.2 0 0 1 0-17l47.6-47.6l34.8 34.7A24 24 0 0 0 107 133a24.1 24.1 0 0 0 34 0a24 24 0 0 0-30.9-36.5L75.4 61.7l40.1-40l101.8 101.8Zm0-116.8a16 16 0 1 1-11.3 4.7A16 16 0 0 1 124 100Zm106.8 61.2a3.9 3.9 0 0 0-5.6 0c-.9.8-21.2 21.4-21.2 42.8a24 24 0 0 0 48 0c0-21.4-20.3-42-21.2-42.8ZM228 220a16 16 0 0 1-16-16c0-13.7 10.7-27.9 16-34.1c5.3 6.2 16 20.4 16 34.1a16 16 0 0 1-16 16Z"></path></svg>