<svg xmlns="http://www.w3.org/2000/svg" xmlns:xlink="http://www.w3.org/1999/xlink" aria-hidden="true" role="img" class="iconify iconify--ph" width="1em" height="1em" preserveAspectRatio="xMidYMid meet" viewBox="0 0 256 256"><path fill="currentColor" d="M216 26H72a38 38 0 0 0-38 38v72a22.1 22.1 0 0 0 22 22h46.8a1.8 1.8 0 0 1 1.5.7a2 2 0 0 1 .5 1.6l-6.7 46.9a1.9 1.9 0 0 0-.1.8a30 30 0 0 0 60 0a1.9 1.9 0 0 0-.1-.8l-6.7-46.9a2 2 0 0 1 .5-1.6a1.8 1.8 0 0 1 1.5-.7H200a22.1 22.1 0 0 0 22-22V32a6 6 0 0 0-6-6ZM72 38h106v42a6 6 0 0 0 12 0V38h20v68H46V64a26.1 26.1 0 0 1 26-26Zm128 108h-46.8a14.4 14.4 0 0 0-10.6 4.8a14.2 14.2 0 0 0-3.2 11.2l6.6 46.4a18 18 0 0 1-36 0l6.6-46.4a14.2 14.2 0 0 0-3.2-11.2a14.4 14.4 0 0 0-10.6-4.8H56a10 10 0 0 1-10-10v-18h164v18a10 10 0 0 1-10 10Z"></path></svg>