<svg xmlns="http://www.w3.org/2000/svg" xmlns:xlink="http://www.w3.org/1999/xlink" aria-hidden="true" role="img" class="iconify iconify--ph" width="1em" height="1em" preserveAspectRatio="xMidYMid meet" viewBox="0 0 256 256"><path fill="currentColor" d="M216 28H72a36 36 0 0 0-36 36v72a20.1 20.1 0 0 0 20 20h46.8a3.9 3.9 0 0 1 3 1.4a3.7 3.7 0 0 1 .9 3.2l-6.7 46.8v.6a28 28 0 0 0 56 0v-.6l-6.7-46.8a3.7 3.7 0 0 1 .9-3.2a3.9 3.9 0 0 1 3-1.4H200a20.1 20.1 0 0 0 20-20V32a4 4 0 0 0-4-4ZM72 36h108v44a4 4 0 0 0 8 0V36h24v72H44V64a28.1 28.1 0 0 1 28-28Zm128 112h-46.8a11.8 11.8 0 0 0-9 4.1a12.5 12.5 0 0 0-2.9 9.6l6.7 46.6a20 20 0 0 1-40 0l6.7-46.6a12.5 12.5 0 0 0-2.9-9.6a11.8 11.8 0 0 0-9-4.1H56a12 12 0 0 1-12-12v-20h168v20a12 12 0 0 1-12 12Z"></path></svg>