<svg xmlns="http://www.w3.org/2000/svg" xmlns:xlink="http://www.w3.org/1999/xlink" aria-hidden="true" role="img" class="iconify iconify--ph" width="1em" height="1em" preserveAspectRatio="xMidYMid meet" viewBox="0 0 256 256"><path fill="currentColor" d="M230.6 25.4a31.9 31.9 0 0 0-45.2 0l-.3.3l-54.9 61.2l-9.2-9.2a23.9 23.9 0 0 0-34 0l-76.7 76.6a8.1 8.1 0 0 0 0 11.4l80 80a8.2 8.2 0 0 0 11.4 0l76.6-76.7a23.9 23.9 0 0 0 0-34l-9.2-9.2l61.2-54.9l.3-.3a31.9 31.9 0 0 0 0-45.2ZM96 228.7l-14.1-14.1l25.5-25.6a8 8 0 0 0-11.3-11.3l-25.5 25.6l-16.7-16.7L79.4 161a8 8 0 0 0-11.3-11.3l-25.5 25.6L27.3 160L72 115.3l68.7 68.7Z"></path></svg>