<svg xmlns="http://www.w3.org/2000/svg" xmlns:xlink="http://www.w3.org/1999/xlink" aria-hidden="true" role="img" class="iconify iconify--ph" width="1em" height="1em" preserveAspectRatio="xMidYMid meet" viewBox="0 0 256 256"><path fill="currentColor" d="m163.5 131.5l9.2 9.2a16.1 16.1 0 0 1 0 22.6L152 184l-80-80l20.7-20.7a16.1 16.1 0 0 1 22.6 0l9.2 9.2a8 8 0 0 0 11.6-.3L191 31a24 24 0 0 1 34 34l-61.2 54.9a8 8 0 0 0-.3 11.6Z" opacity=".2"></path><path fill="currentColor" d="M230.6 25.4a31.9 31.9 0 0 0-45.2 0l-.3.3l-54.9 61.2l-9.2-9.2a23.9 23.9 0 0 0-34 0l-76.7 76.6a8.1 8.1 0 0 0 0 11.4l80 80a8.2 8.2 0 0 0 11.4 0l76.6-76.7a23.9 23.9 0 0 0 0-34l-9.2-9.2l61.2-54.9l.3-.3a31.9 31.9 0 0 0 0-45.2ZM96 228.7l-14.1-14.1l25.5-25.6a8 8 0 0 0-11.3-11.3l-25.5 25.6l-16.7-16.7L79.4 161a8 8 0 0 0-11.3-11.3l-25.5 25.6L27.3 160L72 115.3l68.7 68.7ZM219.5 59.2l-61 54.7a16.3 16.3 0 0 0-5.4 11.5a16 16 0 0 0 4.7 11.7l9.2 9.2a8 8 0 0 1 0 11.4l-15 15L83.3 104l15-15a8 8 0 0 1 11.4 0l9.2 9.2a16 16 0 0 0 11.7 4.7a16.3 16.3 0 0 0 11.5-5.4l54.7-61a16.1 16.1 0 0 1 22.7 22.7Z"></path></svg>