<svg xmlns="http://www.w3.org/2000/svg" xmlns:xlink="http://www.w3.org/1999/xlink" aria-hidden="true" role="img" class="iconify iconify--ph" width="1em" height="1em" preserveAspectRatio="xMidYMid meet" viewBox="0 0 256 256"><path fill="currentColor" d="M232 84h-16V64a20.1 20.1 0 0 0-20-20H52a20.1 20.1 0 0 0-20 20v20H16a12 12 0 0 0 0 24h16v20a20.1 20.1 0 0 0 20 20h144a20.1 20.1 0 0 0 20-20v-20h12v42.9l-97.5 27.9A20.1 20.1 0 0 0 116 198v34a12 12 0 0 0 24 0v-30.9l97.5-27.9A20.1 20.1 0 0 0 252 154v-50a20.1 20.1 0 0 0-20-20Zm-40 40H56V68h136Z"></path></svg>