<svg xmlns="http://www.w3.org/2000/svg" xmlns:xlink="http://www.w3.org/1999/xlink" aria-hidden="true" role="img" class="iconify iconify--ph" width="1em" height="1em" preserveAspectRatio="xMidYMid meet" viewBox="0 0 256 256"><path fill="currentColor" d="M233.5 22.5a36.2 36.2 0 0 0-51 0l-.4.5L130 81l-6.2-6.2a28.1 28.1 0 0 0-39.6 0L7.5 151.5a12 12 0 0 0 0 17l80 80a12.1 12.1 0 0 0 17 0l76.7-76.7a28.1 28.1 0 0 0 0-39.6L175 126l58-52.1l.5-.4a36.2 36.2 0 0 0 0-51ZM96 223l-8.6-8.6l17.3-18.1a12 12 0 1 0-17.4-16.6l-16.9 17.7l-11-11l17.3-18.1a12 12 0 1 0-17.4-16.6l-16.9 17.7L33 160l39-39l63 63ZM216.7 56.3l-60.9 54.6a20 20 0 0 0-.8 29.1l9.2 9.2a3.9 3.9 0 0 1 0 5.6L152 167l-63-63l12.2-12.2a3.9 3.9 0 0 1 5.6 0l9.2 9.2a20 20 0 0 0 29.1-.8l54.6-60.9a12 12 0 0 1 17 17Z"></path></svg>