<svg xmlns="http://www.w3.org/2000/svg" xmlns:xlink="http://www.w3.org/1999/xlink" aria-hidden="true" role="img" class="iconify iconify--ph" width="1em" height="1em" preserveAspectRatio="xMidYMid meet" viewBox="0 0 256 256"><path fill="currentColor" d="M200.8 53.9A103.4 103.4 0 0 0 128 24h-1.1a104 104 0 0 0-33.5 202.1a32 32 0 0 0 42.6-30.2V192a16 16 0 0 1 16-16h46.2a31.7 31.7 0 0 0 31.2-24.9a101.5 101.5 0 0 0 2.6-24a102.9 102.9 0 0 0-31.2-73.2ZM89 164.4a12 12 0 1 1 4.4-16.4a12 12 0 0 1-4.4 16.4Zm4.4-56.4A12 12 0 1 1 89 91.6a12.1 12.1 0 0 1 4.4 16.4ZM128 88a12 12 0 1 1 12-12a12 12 0 0 1-12 12Zm51 24.4a12 12 0 1 1 4.4-16.4a12.1 12.1 0 0 1-4.4 16.4Z"></path></svg>