<svg xmlns="http://www.w3.org/2000/svg" xmlns:xlink="http://www.w3.org/1999/xlink" aria-hidden="true" role="img" class="iconify iconify--ph" width="1em" height="1em" preserveAspectRatio="xMidYMid meet" viewBox="0 0 256 256"><path fill="currentColor" d="M199.4 55.3A101.5 101.5 0 0 0 128 26h-1a102 102 0 0 0-33 198.2a30 30 0 0 0 40-28.3V192a18.1 18.1 0 0 1 18-18h46.2a30 30 0 0 0 29.3-23.3a103.4 103.4 0 0 0 2.5-23.6a101.3 101.3 0 0 0-30.6-71.8Zm16.4 92.7a17.9 17.9 0 0 1-17.6 14H152a30.1 30.1 0 0 0-30 30v3.9a18 18 0 0 1-24 17A90 90 0 0 1 64.1 64.7a88.8 88.8 0 0 1 63-26.7h.9a90.3 90.3 0 0 1 90 89.2a90.8 90.8 0 0 1-2.2 20.8ZM138 76a10 10 0 1 1-10-10a10 10 0 0 1 10 10Zm-46.4 31a10 10 0 1 1-17.3-10a10 10 0 1 1 17.3 10Zm0 42a10 10 0 1 1-13.6-3.7a10.1 10.1 0 0 1 13.6 3.7Zm90.1-52a10 10 0 1 1-13.7-3.7a10 10 0 0 1 13.7 3.7Z"></path></svg>