<svg xmlns="http://www.w3.org/2000/svg" xmlns:xlink="http://www.w3.org/1999/xlink" aria-hidden="true" role="img" class="iconify iconify--ph" width="1em" height="1em" preserveAspectRatio="xMidYMid meet" viewBox="0 0 256 256"><path fill="currentColor" d="M198 56.7A99.7 99.7 0 0 0 128 28h-1a100 100 0 0 0-32.3 194.3a28.1 28.1 0 0 0 25.5-3.5a27.8 27.8 0 0 0 11.8-22.9V192a20.1 20.1 0 0 1 20-20h46.2a27.7 27.7 0 0 0 27.3-21.8A99.7 99.7 0 0 0 198 56.7Zm19.7 91.8a19.9 19.9 0 0 1-19.5 15.5H152a28.1 28.1 0 0 0-28 28v3.9a20.1 20.1 0 0 1-26.6 18.9A92 92 0 0 1 62.6 63.3A91.2 91.2 0 0 1 127.1 36h.9a92.4 92.4 0 0 1 92 91.2a89.7 89.7 0 0 1-2.3 21.3ZM136 76a8 8 0 1 1-8-8a8 8 0 0 1 8 8Zm-46.1 30A8 8 0 0 1 76 98a8.1 8.1 0 0 1 11-2.9a8 8 0 0 1 2.9 10.9Zm0 44a8 8 0 0 1-2.9 10.9a8.1 8.1 0 0 1-11-2.9a8 8 0 0 1 13.9-8ZM180 98a8 8 0 1 1-11-2.9a8.1 8.1 0 0 1 11 2.9Z"></path></svg>