<svg xmlns="http://www.w3.org/2000/svg" xmlns:xlink="http://www.w3.org/1999/xlink" aria-hidden="true" role="img" class="iconify iconify--ph" width="1em" height="1em" preserveAspectRatio="xMidYMid meet" viewBox="0 0 256 256"><path fill="currentColor" d="M210.3 35.9L23.9 88.4a8 8 0 0 0-1.2 15l85.6 40.5a7.8 7.8 0 0 1 3.8 3.8l40.5 85.6a8 8 0 0 0 15-1.2l52.5-186.4a7.9 7.9 0 0 0-9.8-9.8Z" opacity=".2"></path><path fill="currentColor" d="M223.7 32.3a15.9 15.9 0 0 0-15.6-4.1L21.8 80.7a16.1 16.1 0 0 0-2.6 29.9l85.7 40.5l40.5 85.7a16 16 0 0 0 14.4 9.1h1.4a15.9 15.9 0 0 0 14.1-11.6l52.5-186.4a15.9 15.9 0 0 0-4.1-15.6Zm-63.8 197.6l-39.4-83.1l41.3-41.3a8 8 0 1 0-11.3-11.3l-41.3 41.3l-83.1-39.4l186.3-52.5Z"></path></svg>