<svg xmlns="http://www.w3.org/2000/svg" xmlns:xlink="http://www.w3.org/1999/xlink" aria-hidden="true" role="img" class="iconify iconify--ph" width="1em" height="1em" preserveAspectRatio="xMidYMid meet" viewBox="0 0 256 256"><path fill="currentColor" d="M236.6 201.5L142 32.6a16.1 16.1 0 0 0-28 0L19.4 201.5a16.1 16.1 0 0 0 19.4 22.9l89.2-31.9l89.2 31.9a17.1 17.1 0 0 0 5.5.9a15.7 15.7 0 0 0 12.1-5.7a15.9 15.9 0 0 0 1.8-18.1ZM136 178.4V120a8 8 0 0 0-16 0v58.4l-86.6 30.9L128 40.4l94.6 168.9Z"></path></svg>