<svg xmlns="http://www.w3.org/2000/svg" xmlns:xlink="http://www.w3.org/1999/xlink" aria-hidden="true" role="img" class="iconify iconify--ph" width="1em" height="1em" preserveAspectRatio="xMidYMid meet" viewBox="0 0 256 256"><path fill="currentColor" d="M219.5 121L50.6 26.4a8 8 0 0 0-11.4 9.7L71 125.3a7.2 7.2 0 0 1 0 5.4l-31.8 89.2a8 8 0 0 0 11.4 9.7L219.5 135a8 8 0 0 0 0-14Z" opacity=".2"></path><path fill="currentColor" d="M223.4 114L54.5 19.4a16.1 16.1 0 0 0-22.9 19.4L63.5 128l-31.9 89.2a16.1 16.1 0 0 0 15.1 21.4a16.5 16.5 0 0 0 7.8-2L223.4 142a16.1 16.1 0 0 0 0-28ZM46.7 222.6L77.6 136H136a8 8 0 0 0 0-16H77.6L46.7 33.4L215.6 128Z"></path></svg>