<svg xmlns="http://www.w3.org/2000/svg" xmlns:xlink="http://www.w3.org/1999/xlink" aria-hidden="true" role="img" class="iconify iconify--ph" width="1em" height="1em" preserveAspectRatio="xMidYMid meet" viewBox="0 0 256 256"><path fill="currentColor" d="M233.1 203.4L138.5 34.5a12.1 12.1 0 0 0-21 0L22.9 203.4a12.1 12.1 0 0 0 1.3 13.6a11.9 11.9 0 0 0 13.2 3.6l89.3-31.9a3.9 3.9 0 0 1 2.6 0l89.3 31.9a11.2 11.2 0 0 0 4 .7a12 12 0 0 0 10.5-17.9Zm-7.5 8.5a3.9 3.9 0 0 1-4.4 1.2L132 181.2V120a4 4 0 0 0-8 0v61.2l-89.2 31.9a4.1 4.1 0 0 1-4.9-5.8l94.6-168.9a4.1 4.1 0 0 1 7 0l94.6 168.9a3.9 3.9 0 0 1-.5 4.6Z"></path></svg>