<svg xmlns="http://www.w3.org/2000/svg" xmlns:xlink="http://www.w3.org/1999/xlink" aria-hidden="true" role="img" class="iconify iconify--ph" width="1em" height="1em" preserveAspectRatio="xMidYMid meet" viewBox="0 0 256 256"><path fill="currentColor" d="M234.8 202.4L140.2 33.5a14 14 0 0 0-24.4 0L21.2 202.4a14 14 0 0 0 16.9 20.1l89.2-31.9h1.4l89.2 31.9a16 16 0 0 0 4.7.8a13.7 13.7 0 0 0 10.7-5a13.9 13.9 0 0 0 1.5-15.9Zm-10.7 8.2a1.8 1.8 0 0 1-2.2.6L134 179.8V120a6 6 0 0 0-12 0v59.8l-87.9 31.4a1.8 1.8 0 0 1-2.2-.6a1.9 1.9 0 0 1-.2-2.3l94.6-168.9a1.9 1.9 0 0 1 3.4 0l94.6 168.9a1.9 1.9 0 0 1-.2 2.3Z"></path></svg>