<svg xmlns="http://www.w3.org/2000/svg" xmlns:xlink="http://www.w3.org/1999/xlink" aria-hidden="true" role="img" class="iconify iconify--ph" width="1em" height="1em" preserveAspectRatio="xMidYMid meet" viewBox="0 0 256 256"><path fill="currentColor" d="M221.5 117.5L52.6 22.9A12.1 12.1 0 0 0 39 24.2a11.9 11.9 0 0 0-3.6 13.2l31.9 89.3a3.9 3.9 0 0 1 0 2.6l-31.9 89.3a11.9 11.9 0 0 0 3.6 13.2a12.2 12.2 0 0 0 7.7 2.8a12.6 12.6 0 0 0 5.9-1.5l168.9-94.6a12.1 12.1 0 0 0 0-21Zm-3.9 14L48.7 226.1a4.1 4.1 0 0 1-5.8-4.9L74.8 132H136a4 4 0 0 0 0-8H74.8L42.9 34.8a3.9 3.9 0 0 1 1.2-4.4a4.2 4.2 0 0 1 2.6-1a3.9 3.9 0 0 1 2 .5l168.9 94.6a4.1 4.1 0 0 1 0 7Z"></path></svg>