<svg xmlns="http://www.w3.org/2000/svg" xmlns:xlink="http://www.w3.org/1999/xlink" aria-hidden="true" role="img" class="iconify iconify--ph" width="1em" height="1em" preserveAspectRatio="xMidYMid meet" viewBox="0 0 256 256"><path fill="currentColor" d="M222.5 115.8L53.6 21.2a14 14 0 0 0-20.1 16.9l31.9 89.2a3.3 3.3 0 0 1 0 1.4l-31.9 89.2a14 14 0 0 0 13.2 18.7a14.5 14.5 0 0 0 6.9-1.8l168.9-94.6a14 14 0 0 0 0-24.4Zm-5.9 13.9L47.7 224.3a1.9 1.9 0 0 1-2.3-.2a1.8 1.8 0 0 1-.6-2.2L76.2 134H136a6 6 0 0 0 0-12H76.2L44.8 34.1a1.8 1.8 0 0 1 .6-2.2a1.9 1.9 0 0 1 1.3-.5l1 .3l168.9 94.6a1.9 1.9 0 0 1 0 3.4Z"></path></svg>