<svg xmlns="http://www.w3.org/2000/svg" xmlns:xlink="http://www.w3.org/1999/xlink" aria-hidden="true" role="img" class="iconify iconify--ph" width="1em" height="1em" preserveAspectRatio="xMidYMid meet" viewBox="0 0 256 256"><path fill="currentColor" d="M220.9 35.1a11.8 11.8 0 0 0-11.7-3.1L22.8 84.6A12 12 0 0 0 21 107l85.6 40.5a4.4 4.4 0 0 1 1.9 1.9L149 235a11.8 11.8 0 0 0 10.8 6.9h1.1a12.1 12.1 0 0 0 10.5-8.7L224 46.8a11.8 11.8 0 0 0-3.1-11.7Zm-4.6 9.6L163.7 231a3.9 3.9 0 0 1-3.5 2.9a4 4 0 0 1-3.9-2.3L115.7 146l43.2-43.3a4 4 0 1 0-5.6-5.6L110 140.3L24.4 99.7a4 4 0 0 1-2.3-3.9a3.9 3.9 0 0 1 2.9-3.5l186.3-52.6h1.2a4.1 4.1 0 0 1 2.8 1.1a4.5 4.5 0 0 1 1 3.9Z"></path></svg>