<svg xmlns="http://www.w3.org/2000/svg" xmlns:xlink="http://www.w3.org/1999/xlink" aria-hidden="true" role="img" class="iconify iconify--ph" width="1em" height="1em" preserveAspectRatio="xMidYMid meet" viewBox="0 0 256 256"><path fill="currentColor" d="M222.3 33.7a13.6 13.6 0 0 0-13.7-3.6L22.3 82.7A13.9 13.9 0 0 0 12.1 95a14.1 14.1 0 0 0 8 13.8l85.6 40.5a2.4 2.4 0 0 1 1 1l40.5 85.6a13.8 13.8 0 0 0 12.6 8h1.2a13.9 13.9 0 0 0 12.3-10.2l52.6-186.3a13.6 13.6 0 0 0-3.6-13.7Zm-8 10.4l-52.5 186.3a1.8 1.8 0 0 1-1.8 1.5a1.8 1.8 0 0 1-1.9-1.1l-40-84.4l42.3-42.3a6 6 0 0 0-8.5-8.5l-42.3 42.3l-84.4-40a1.8 1.8 0 0 1-1.1-1.9a1.8 1.8 0 0 1 1.5-1.8l186.3-52.5h.6a1.6 1.6 0 0 1 1.3.6a1.8 1.8 0 0 1 .5 1.8Z"></path></svg>