<svg xmlns="http://www.w3.org/2000/svg" xmlns:xlink="http://www.w3.org/1999/xlink" aria-hidden="true" role="img" class="iconify iconify--ph" width="1em" height="1em" preserveAspectRatio="xMidYMid meet" viewBox="0 0 256 256"><path fill="currentColor" d="M225.4 110.5L56.5 16a19.9 19.9 0 0 0-28.6 24.1L59.3 128l-31.4 87.9a19.8 19.8 0 0 0 5.9 22a20.1 20.1 0 0 0 12.9 4.7a19.5 19.5 0 0 0 9.8-2.6l168.9-94.5a20.1 20.1 0 0 0 0-35ZM54.1 213.9L80.5 140H136a12 12 0 0 0 0-24H80.5L54.1 42.1L207.4 128Z"></path></svg>