<svg xmlns="http://www.w3.org/2000/svg" xmlns:xlink="http://www.w3.org/1999/xlink" aria-hidden="true" role="img" class="iconify iconify--ph" width="1em" height="1em" preserveAspectRatio="xMidYMid meet" viewBox="0 0 256 256"><path fill="currentColor" d="M223.4 114L54.9 19.7a16.3 16.3 0 0 0-18.2 1.2a15.9 15.9 0 0 0-5.1 17.9l28.1 78.5a4.1 4.1 0 0 0 3.8 2.7h72.2a8.2 8.2 0 0 1 8.3 7.5a8 8 0 0 1-8 8.5H63.5a4.1 4.1 0 0 0-3.8 2.7l-28.1 78.5a16.1 16.1 0 0 0 15.1 21.4a16.5 16.5 0 0 0 7.8-2L223.4 142a16.1 16.1 0 0 0 0-28Z"></path></svg>