<svg xmlns="http://www.w3.org/2000/svg" xmlns:xlink="http://www.w3.org/1999/xlink" aria-hidden="true" role="img" class="iconify iconify--ph" width="1em" height="1em" preserveAspectRatio="xMidYMid meet" viewBox="0 0 256 256"><path fill="currentColor" d="M236 120A108.1 108.1 0 0 0 128 12A108.1 108.1 0 0 0 20 120a12.1 12.1 0 0 0 4.8 9.6L116 198v14h-4a12 12 0 0 0 0 24h32a12 12 0 0 0 0-24h-4v-14l91.2-68.4a12.1 12.1 0 0 0 4.8-9.6Zm-24.9-12h-31.5c-1.8-29.3-9.9-50.5-18.9-65.4a84.2 84.2 0 0 1 50.4 65.4Zm-110.7 0c2.8-39.2 18.6-59.9 27.6-68.6c9 8.7 24.8 29.4 27.6 68.6Zm-5.1-65.4c-9 14.9-17.1 36.1-18.9 65.4H44.9a84.2 84.2 0 0 1 50.4-65.4ZM68 132h48v36Zm72 0h48l-48 36Z"></path></svg>