<svg xmlns="http://www.w3.org/2000/svg" xmlns:xlink="http://www.w3.org/1999/xlink" aria-hidden="true" role="img" class="iconify iconify--ph" width="1em" height="1em" preserveAspectRatio="xMidYMid meet" viewBox="0 0 256 256"><path fill="currentColor" d="M232 120A104.2 104.2 0 0 0 128 16A104.2 104.2 0 0 0 24 120a8.2 8.2 0 0 0 3.2 6.4L120 196v20h-8a8 8 0 0 0 0 16h32a8 8 0 0 0 0-16h-8v-20l92.8-69.6a8.2 8.2 0 0 0 3.2-6.4Zm-16.4-8h-39.8c-1.5-37.9-13.9-62.4-25.1-77a88.1 88.1 0 0 1 64.9 77Zm-61.2 16L128 175.5L101.6 128Zm-71.1 0l19.5 35.1L56 128Zm89.4 0H200l-46.8 35.1Zm-67.4-93c-11.2 14.6-23.6 39.1-25.1 77H40.4a88.1 88.1 0 0 1 64.9-77Z"></path></svg>