<svg xmlns="http://www.w3.org/2000/svg" xmlns:xlink="http://www.w3.org/1999/xlink" aria-hidden="true" role="img" class="iconify iconify--ph" width="1em" height="1em" preserveAspectRatio="xMidYMid meet" viewBox="0 0 256 256"><path fill="currentColor" d="M230 120a102 102 0 0 0-204 0a5.8 5.8 0 0 0 2.4 4.8L122 195v23h-10a6 6 0 0 0 0 12h32a6 6 0 0 0 0-12h-10v-23l93.6-70.2a5.8 5.8 0 0 0 2.4-4.8Zm-12.2-6h-43.9c-1.3-42.9-16.5-68.6-28.4-82.3a90.1 90.1 0 0 1 72.3 82.3ZM128 31.4a78.5 78.5 0 0 1 15.4 17.5c13.9 21.2 17.8 46.1 18.5 65.1H94.1c1.1-31.9 10.5-52.9 18.5-65.1A78.5 78.5 0 0 1 128 31.4Zm29.8 94.6L128 179.6L98.2 126Zm-73.3 0l24.6 44.3L50 126Zm87 0H206l-59.1 44.3Zm-61-94.3C98.6 45.4 83.4 71.1 82.1 114H38.2a90.1 90.1 0 0 1 72.3-82.3Z"></path></svg>