<svg xmlns="http://www.w3.org/2000/svg" xmlns:xlink="http://www.w3.org/1999/xlink" aria-hidden="true" role="img" class="iconify iconify--ph" width="1em" height="1em" preserveAspectRatio="xMidYMid meet" viewBox="0 0 256 256"><path fill="currentColor" d="M46 56v144a6 6 0 0 1-12 0V56a6 6 0 0 1 12 0Zm86.6 56.4l-22.6 7.3V96a6 6 0 0 0-12 0v23.7l-22.6-7.3a6 6 0 0 0-3.7 11.4l22.6 7.4l-14 19.2a5.9 5.9 0 0 0 1.4 8.3a5.7 5.7 0 0 0 3.5 1.2a5.9 5.9 0 0 0 4.8-2.5l14-19.2l14 19.2a5.9 5.9 0 0 0 4.8 2.5a5.7 5.7 0 0 0 3.5-1.2a5.9 5.9 0 0 0 1.4-8.3l-14-19.2l22.6-7.4a6 6 0 0 0-3.7-11.4Zm103.5 3.9a6 6 0 0 0-7.5-3.9l-22.6 7.3V96a6 6 0 0 0-12 0v23.7l-22.6-7.3a6 6 0 0 0-3.7 11.4l22.6 7.4l-14 19.2a5.9 5.9 0 0 0 1.4 8.3a5.7 5.7 0 0 0 3.5 1.2a5.9 5.9 0 0 0 4.8-2.5l14-19.2l14 19.2a5.9 5.9 0 0 0 4.8 2.5a5.7 5.7 0 0 0 3.5-1.2a5.9 5.9 0 0 0 1.4-8.3l-14-19.2l22.6-7.4a5.9 5.9 0 0 0 3.8-7.5Z"></path></svg>