<svg xmlns="http://www.w3.org/2000/svg" xmlns:xlink="http://www.w3.org/1999/xlink" aria-hidden="true" role="img" class="iconify iconify--ph" width="1em" height="1em" preserveAspectRatio="xMidYMid meet" viewBox="0 0 256 256"><path fill="currentColor" d="M48 56v144a12 12 0 0 1-24 0V56a12 12 0 0 1 24 0Zm82.7 50.7l-14.7 4.8V96a12 12 0 0 0-24 0v15.5l-14.7-4.8a12 12 0 1 0-7.4 22.8l14.7 4.8l-9.1 12.5a12.1 12.1 0 0 0 2.6 16.8a12.5 12.5 0 0 0 7.1 2.3a11.8 11.8 0 0 0 9.7-5l9.1-12.5l9.1 12.5a11.8 11.8 0 0 0 9.7 5a12.5 12.5 0 0 0 7.1-2.3a12.1 12.1 0 0 0 2.6-16.8l-9.1-12.5l14.7-4.8a12 12 0 0 0-7.4-22.8Zm111.1 7.7a12 12 0 0 0-15.1-7.7l-14.7 4.8V96a12 12 0 0 0-24 0v15.5l-14.7-4.8a12 12 0 1 0-7.4 22.8l14.7 4.8l-9.1 12.5a12.1 12.1 0 0 0 2.6 16.8a12.5 12.5 0 0 0 7.1 2.3a11.8 11.8 0 0 0 9.7-5l9.1-12.5l9.1 12.5a11.8 11.8 0 0 0 9.7 5a12.5 12.5 0 0 0 7.1-2.3a12.1 12.1 0 0 0 2.6-16.8l-9.1-12.5l14.7-4.8a11.9 11.9 0 0 0 7.7-15.1Z"></path></svg>