<svg xmlns="http://www.w3.org/2000/svg" xmlns:xlink="http://www.w3.org/1999/xlink" aria-hidden="true" role="img" class="iconify iconify--ph" width="1em" height="1em" preserveAspectRatio="xMidYMid meet" viewBox="0 0 256 256"><path fill="currentColor" d="M48 56v144a8 8 0 0 1-16 0V56a8 8 0 0 1 16 0Zm84 54.5l-20 6.5V96a8 8 0 0 0-16 0v21l-20-6.5a7.8 7.8 0 0 0-10 5.1a7.9 7.9 0 0 0 5.1 10.1l20 6.5l-12.4 17a8 8 0 0 0 1.8 11.2a8.1 8.1 0 0 0 11.2-1.8l12.3-17l12.3 17a8.1 8.1 0 0 0 11.2 1.8a8 8 0 0 0 1.8-11.2l-12.4-17l20-6.5a7.9 7.9 0 0 0 5.1-10.1a7.8 7.8 0 0 0-10-5.1Zm106 5.1a7.8 7.8 0 0 0-10-5.1l-20 6.5V96a8 8 0 0 0-16 0v21l-20-6.5a7.8 7.8 0 0 0-10 5.1a7.9 7.9 0 0 0 5.1 10.1l20 6.5l-12.4 17a8 8 0 0 0 1.8 11.2a8.1 8.1 0 0 0 11.2-1.8l12.3-17l12.3 17a8.1 8.1 0 0 0 11.2 1.8a8 8 0 0 0 1.8-11.2l-12.4-17l20-6.5a7.9 7.9 0 0 0 5.1-10.1Z"></path></svg>