<svg xmlns="http://www.w3.org/2000/svg" xmlns:xlink="http://www.w3.org/1999/xlink" aria-hidden="true" role="img" class="iconify iconify--ph" width="1em" height="1em" preserveAspectRatio="xMidYMid meet" viewBox="0 0 256 256"><path fill="currentColor" d="M44 56v144a4 4 0 0 1-8 0V56a4 4 0 0 1 8 0Zm89.2 58.3l-25.2 8.2V96a4 4 0 0 0-8 0v26.5l-25.2-8.2a4 4 0 0 0-2.5 7.6l25.2 8.2L82 151.5a4.1 4.1 0 0 0 .8 5.6a4.3 4.3 0 0 0 2.4.8a4 4 0 0 0 3.2-1.7l15.6-21.4l15.6 21.4a4 4 0 0 0 3.2 1.7a4.3 4.3 0 0 0 2.4-.8a4.1 4.1 0 0 0 .8-5.6l-15.5-21.4l25.2-8.2a4 4 0 0 0-2.5-7.6Zm101 2.6a3.9 3.9 0 0 0-5-2.6l-25.2 8.2V96a4 4 0 0 0-8 0v26.5l-25.2-8.2a4 4 0 0 0-2.5 7.6l25.2 8.2l-15.5 21.4a4.1 4.1 0 0 0 .8 5.6a4.3 4.3 0 0 0 2.4.8a4 4 0 0 0 3.2-1.7l15.6-21.4l15.6 21.4a4 4 0 0 0 3.2 1.7a4.3 4.3 0 0 0 2.4-.8a4.1 4.1 0 0 0 .8-5.6l-15.5-21.4l25.2-8.2a3.9 3.9 0 0 0 2.5-5Z"></path></svg>