<svg xmlns="http://www.w3.org/2000/svg" xmlns:xlink="http://www.w3.org/1999/xlink" aria-hidden="true" role="img" class="iconify iconify--ph" width="1em" height="1em" preserveAspectRatio="xMidYMid meet" viewBox="0 0 256 256"><circle cx="200" cy="200" r="24" fill="currentColor" opacity=".2"></circle><path fill="currentColor" d="M200 168a32.1 32.1 0 0 0-31 24H72a32 32 0 0 1 0-64h96a40 40 0 0 0 0-80H72a8 8 0 0 0 0 16h96a24 24 0 0 1 0 48H72a48 48 0 0 0 0 96h97a32 32 0 1 0 31-40Zm0 48a16 16 0 1 1 16-16a16 16 0 0 1-16 16Z"></path></svg>