<svg xmlns="http://www.w3.org/2000/svg" xmlns:xlink="http://www.w3.org/1999/xlink" aria-hidden="true" role="img" class="iconify iconify--ph" width="1em" height="1em" preserveAspectRatio="xMidYMid meet" viewBox="0 0 256 256"><path fill="currentColor" d="M200 34h-36a14 14 0 0 0-14 14v160a14 14 0 0 0 14 14h36a14 14 0 0 0 14-14V48a14 14 0 0 0-14-14Zm2 174a2 2 0 0 1-2 2h-36a2 2 0 0 1-2-2V48a2 2 0 0 1 2-2h36a2 2 0 0 1 2 2ZM92 34H56a14 14 0 0 0-14 14v160a14 14 0 0 0 14 14h36a14 14 0 0 0 14-14V48a14 14 0 0 0-14-14Zm2 174a2 2 0 0 1-2 2H56a2 2 0 0 1-2-2V48a2 2 0 0 1 2-2h36a2 2 0 0 1 2 2Z"></path></svg>