<svg xmlns="http://www.w3.org/2000/svg" xmlns:xlink="http://www.w3.org/1999/xlink" aria-hidden="true" role="img" class="iconify iconify--ph" width="1em" height="1em" preserveAspectRatio="xMidYMid meet" viewBox="0 0 256 256"><path fill="currentColor" d="M200 28h-36a20.1 20.1 0 0 0-20 20v160a20.1 20.1 0 0 0 20 20h36a20.1 20.1 0 0 0 20-20V48a20.1 20.1 0 0 0-20-20Zm-4 176h-28V52h28ZM92 28H56a20.1 20.1 0 0 0-20 20v160a20.1 20.1 0 0 0 20 20h36a20.1 20.1 0 0 0 20-20V48a20.1 20.1 0 0 0-20-20Zm-4 176H60V52h28Z"></path></svg>