<svg xmlns="http://www.w3.org/2000/svg" xmlns:xlink="http://www.w3.org/1999/xlink" aria-hidden="true" role="img" class="iconify iconify--ph" width="1em" height="1em" preserveAspectRatio="xMidYMid meet" viewBox="0 0 256 256"><path fill="currentColor" d="M200 36h-36a12 12 0 0 0-12 12v160a12 12 0 0 0 12 12h36a12 12 0 0 0 12-12V48a12 12 0 0 0-12-12Zm4 172a4 4 0 0 1-4 4h-36a4 4 0 0 1-4-4V48a4 4 0 0 1 4-4h36a4 4 0 0 1 4 4ZM92 36H56a12 12 0 0 0-12 12v160a12 12 0 0 0 12 12h36a12 12 0 0 0 12-12V48a12 12 0 0 0-12-12Zm4 172a4 4 0 0 1-4 4H56a4 4 0 0 1-4-4V48a4 4 0 0 1 4-4h36a4 4 0 0 1 4 4Z"></path></svg>