<svg xmlns="http://www.w3.org/2000/svg" xmlns:xlink="http://www.w3.org/1999/xlink" aria-hidden="true" role="img" class="iconify iconify--ph" width="1em" height="1em" preserveAspectRatio="xMidYMid meet" viewBox="0 0 256 256"><path fill="currentColor" d="M212 84a24 24 0 1 0 24 24a24.1 24.1 0 0 0-24-24Zm0 40a16 16 0 1 1 16-16a16 16 0 0 1-16 16ZM68 108a24 24 0 1 0-24 24a24.1 24.1 0 0 0 24-24Zm-24 16a16 16 0 1 1 16-16a16 16 0 0 1-16 16Zm48-40a24 24 0 1 0-24-24a24.1 24.1 0 0 0 24 24Zm0-40a16 16 0 1 1-16 16a16 16 0 0 1 16-16Zm72 40a24 24 0 1 0-24-24a24.1 24.1 0 0 0 24 24Zm0-40a16 16 0 1 1-16 16a16 16 0 0 1 16-16Zm21.2 108.3a39 39 0 0 1-18.8-23.5a40 40 0 0 0-76.8 0a39 39 0 0 1-18.7 23.5A36 36 0 0 0 88 220a36.8 36.8 0 0 0 14-2.8a67.9 67.9 0 0 1 52 0a36.8 36.8 0 0 0 14 2.8a36 36 0 0 0 17.2-67.7ZM168 212a27.7 27.7 0 0 1-11-2.2a75.1 75.1 0 0 0-29-5.8a75.9 75.9 0 0 0-29.1 5.8A26.9 26.9 0 0 1 88 212a28 28 0 0 1-13.3-52.6a47.6 47.6 0 0 0 22.6-28.3a32 32 0 0 1 61.4 0a47.6 47.6 0 0 0 22.6 28.3A28 28 0 0 1 168 212Z"></path></svg>