<svg xmlns="http://www.w3.org/2000/svg" xmlns:xlink="http://www.w3.org/1999/xlink" aria-hidden="true" role="img" class="iconify iconify--ph" width="1em" height="1em" preserveAspectRatio="xMidYMid meet" viewBox="0 0 256 256"><path fill="currentColor" d="M212 80a28 28 0 1 0 28 28a28.1 28.1 0 0 0-28-28Zm0 40a12 12 0 1 1 12-12a12 12 0 0 1-12 12ZM72 108a28 28 0 1 0-28 28a28.1 28.1 0 0 0 28-28Zm-28 12a12 12 0 1 1 12-12a12 12 0 0 1-12 12Zm48-32a28 28 0 1 0-28-28a28.1 28.1 0 0 0 28 28Zm0-40a12 12 0 1 1-12 12a12 12 0 0 1 12-12Zm72 40a28 28 0 1 0-28-28a28.1 28.1 0 0 0 28 28Zm0-40a12 12 0 1 1-12 12a12 12 0 0 1 12-12Zm23.1 100.8a35.3 35.3 0 0 1-16.9-21.1a43.9 43.9 0 0 0-84.4 0A35.5 35.5 0 0 1 69 148.8A40 40 0 0 0 88 224a40.5 40.5 0 0 0 15.5-3.1a64.2 64.2 0 0 1 48.9-.1A39.6 39.6 0 0 0 168 224a40 40 0 0 0 19.1-75.2ZM168 208a24.1 24.1 0 0 1-9.5-1.9A78.7 78.7 0 0 0 128 200a79.9 79.9 0 0 0-30.6 6.1A23.2 23.2 0 0 1 88 208a24 24 0 0 1-11.3-45.2a51.1 51.1 0 0 0 24.4-30.6a28 28 0 0 1 53.8 0a51.1 51.1 0 0 0 24.4 30.6h.1A24 24 0 0 1 168 208Z"></path></svg>