<svg xmlns="http://www.w3.org/2000/svg" xmlns:xlink="http://www.w3.org/1999/xlink" aria-hidden="true" role="img" class="iconify iconify--ph" width="1em" height="1em" preserveAspectRatio="xMidYMid meet" viewBox="0 0 256 256"><path fill="currentColor" d="M136 60a28 28 0 1 1 28 28a28.1 28.1 0 0 1-28-28Zm-64 48a28 28 0 1 0-28 28a28.1 28.1 0 0 0 28-28Zm20-20a28 28 0 1 0-28-28a28.1 28.1 0 0 0 28 28Zm95.1 60.8a35.3 35.3 0 0 1-16.9-21.1a43.9 43.9 0 0 0-84.4 0A35.5 35.5 0 0 1 69 148.8A40 40 0 0 0 88 224a40.5 40.5 0 0 0 15.5-3.1a64.2 64.2 0 0 1 48.9-.1A39.6 39.6 0 0 0 168 224a40 40 0 0 0 19.1-75.2ZM212 80a28 28 0 1 0 28 28a28.1 28.1 0 0 0-28-28Z"></path></svg>