<svg xmlns="http://www.w3.org/2000/svg" xmlns:xlink="http://www.w3.org/1999/xlink" aria-hidden="true" role="img" class="iconify iconify--ph" width="1em" height="1em" preserveAspectRatio="xMidYMid meet" viewBox="0 0 256 256"><path fill="currentColor" d="M212 82a26 26 0 1 0 26 26a26.1 26.1 0 0 0-26-26Zm0 40a14 14 0 1 1 14-14a14 14 0 0 1-14 14ZM70 108a26 26 0 1 0-26 26a26.1 26.1 0 0 0 26-26Zm-26 14a14 14 0 1 1 14-14a14 14 0 0 1-14 14Zm48-36a26 26 0 1 0-26-26a26.1 26.1 0 0 0 26 26Zm0-40a14 14 0 1 1-14 14a14 14 0 0 1 14-14Zm72 40a26 26 0 1 0-26-26a26.1 26.1 0 0 0 26 26Zm0-40a14 14 0 1 1-14 14a14 14 0 0 1 14-14Zm22.1 104.6a37.4 37.4 0 0 1-17.8-22.3a42 42 0 0 0-80.6 0a37.4 37.4 0 0 1-17.8 22.3a38 38 0 0 0 32.9 68.4a65.7 65.7 0 0 1 50.4 0a38 38 0 0 0 32.9-68.4ZM168 210a25.9 25.9 0 0 1-10.2-2.1A79.1 79.1 0 0 0 128 202a80 80 0 0 0-29.9 5.9A25 25 0 0 1 88 210a26 26 0 0 1-12.3-48.9a49.5 49.5 0 0 0 23.5-29.5a30 30 0 0 1 57.6 0a49.5 49.5 0 0 0 23.5 29.5h.1A26 26 0 0 1 168 210Z"></path></svg>