<svg xmlns="http://www.w3.org/2000/svg" xmlns:xlink="http://www.w3.org/1999/xlink" aria-hidden="true" role="img" class="iconify iconify--ph" width="1em" height="1em" preserveAspectRatio="xMidYMid meet" viewBox="0 0 256 256"><path fill="currentColor" d="M211.9 185.9A102 102 0 1 0 26 128a101.2 101.2 0 0 0 18.1 57.9l.3.6l.4.5a102 102 0 0 0 166.4 0l.4-.5ZM218 128a90.2 90.2 0 0 1-13 46.6l-71-49.7V38.2a90.2 90.2 0 0 1 84 89.8Zm-96-89.8v86.7l-71 49.7a90 90 0 0 1 71-136.4ZM57.9 184.4l64.1-44.9v78.3a90.2 90.2 0 0 1-64.1-33.4Zm76.1 33.4v-78.3l64.1 44.9a90.2 90.2 0 0 1-64.1 33.4Z"></path></svg>