<svg xmlns="http://www.w3.org/2000/svg" xmlns:xlink="http://www.w3.org/1999/xlink" aria-hidden="true" role="img" class="iconify iconify--ph" width="1em" height="1em" preserveAspectRatio="xMidYMid meet" viewBox="0 0 256 256"><path fill="currentColor" d="M213.6 186.9A102.9 102.9 0 0 0 232 128a104 104 0 0 0-208 0a102.9 102.9 0 0 0 18.4 58.9l.4.8l.4.4a103.9 103.9 0 0 0 169.6 0l.4-.4a3 3 0 0 0 .4-.8ZM216 128a87.5 87.5 0 0 1-11.6 43.7L136 123.8V40.4a88.1 88.1 0 0 1 80 87.6Zm-96-87.6v83.4l-68.4 47.9A88 88 0 0 1 120 40.4ZM60.8 184.8l59.2-41.4v72.2a87.9 87.9 0 0 1-59.2-30.8Zm75.2 30.8v-72.2l59.2 41.4a87.9 87.9 0 0 1-59.2 30.8Z"></path></svg>