<svg xmlns="http://www.w3.org/2000/svg" xmlns:xlink="http://www.w3.org/1999/xlink" aria-hidden="true" role="img" class="iconify iconify--ph" width="1em" height="1em" preserveAspectRatio="xMidYMid meet" viewBox="0 0 256 256"><path fill="currentColor" d="M217 189.2a108 108 0 1 0-178 0l.5.7l.4.5a107.9 107.9 0 0 0 176.2 0l.4-.5Zm-5-61.2a83.9 83.9 0 0 1-9 37.8l-63-44V44.9a84 84 0 0 1 72 83.1Zm-96-83.1v76.9l-63 44a83.9 83.9 0 0 1 63-120.9ZM66.8 185.5l49.2-34.4v60a83.8 83.8 0 0 1-49.2-25.6Zm73.2 25.6v-60l49.2 34.4a83.8 83.8 0 0 1-49.2 25.6Z"></path></svg>