<svg xmlns="http://www.w3.org/2000/svg" xmlns:xlink="http://www.w3.org/1999/xlink" aria-hidden="true" role="img" class="iconify iconify--ph" width="1em" height="1em" preserveAspectRatio="xMidYMid meet" viewBox="0 0 256 256"><path fill="currentColor" d="M210.1 185A100 100 0 1 0 28 128a99.2 99.2 0 0 0 17.9 57l.2.4l.2.2a99.9 99.9 0 0 0 163.4 0l.2-.2Zm9.9-57a91.6 91.6 0 0 1-14.4 49.4L132 125.9V36.1a92.1 92.1 0 0 1 88 91.9Zm-96-91.9v89.8l-73.6 51.5A92 92 0 0 1 124 36.1ZM55 184l69-48.3v84.2A91.9 91.9 0 0 1 55 184Zm77 35.9v-84.2l69 48.3a91.9 91.9 0 0 1-69 35.9Z"></path></svg>