<svg xmlns="http://www.w3.org/2000/svg" xmlns:xlink="http://www.w3.org/1999/xlink" aria-hidden="true" role="img" class="iconify iconify--ph" width="1em" height="1em" preserveAspectRatio="xMidYMid meet" viewBox="0 0 256 256"><path fill="currentColor" d="M232.7 104a12.3 12.3 0 0 0-3.5-8.5l-68.7-68.7a12.1 12.1 0 0 0-17 0l-25.7 25.8l-58.9 22a12.1 12.1 0 0 0-7.6 9.3L28.1 223.3A4 4 0 0 0 32 228h.7l139.4-23.2a12.1 12.1 0 0 0 9.3-7.6l22-58.9l25.8-25.7a12.3 12.3 0 0 0 3.5-8.6Zm-58.8 90.3a4 4 0 0 1-3.1 2.5L43.7 218l58.4-58.4A24.4 24.4 0 0 0 116 164a24 24 0 1 0-24-24a24.4 24.4 0 0 0 4.4 13.9L38 212.3L59.2 85.2a4 4 0 0 1 2.5-3.1L119 60.7l76.4 76.3ZM100 140a16 16 0 1 1 16 16a16 16 0 0 1-16-16Zm123.5-33.2L200 130.3L125.7 56l23.5-23.5a3.9 3.9 0 0 1 5.6 0l68.7 68.7a3.9 3.9 0 0 1 0 5.6Z"></path></svg>