<svg xmlns="http://www.w3.org/2000/svg" xmlns:xlink="http://www.w3.org/1999/xlink" aria-hidden="true" role="img" class="iconify iconify--ph" width="1em" height="1em" preserveAspectRatio="xMidYMid meet" viewBox="0 0 256 256"><path fill="currentColor" d="m215 125.7l-27-54.6V32a12 12 0 0 0-12-12H80a12 12 0 0 0-12 12v39.1l-27 54.6a12.1 12.1 0 0 0 1.1 12.4l82.7 112.3a4 4 0 0 0 6.4 0l82.7-112.3a11.8 11.8 0 0 0 1.1-12.4ZM80 28h96a4 4 0 0 1 4 4v36H76V32a4 4 0 0 1 4-4Zm48 120a16 16 0 1 1 16-16a16 16 0 0 1-16 16Zm79.4-14.7L132 235.8v-80.1a24 24 0 1 0-8 0v80.1L48.6 133.3a3.8 3.8 0 0 1-.4-4.1L74.5 76h107l26.3 53.2a3.8 3.8 0 0 1-.4 4.1Z"></path></svg>