<svg xmlns="http://www.w3.org/2000/svg" xmlns:xlink="http://www.w3.org/1999/xlink" aria-hidden="true" role="img" class="iconify iconify--ph" width="1em" height="1em" preserveAspectRatio="xMidYMid meet" viewBox="0 0 256 256"><path fill="currentColor" d="M211.4 127.4L184 72H72l-27.4 55.4a8.2 8.2 0 0 0 .7 8.3L128 248l82.7-112.3a8.2 8.2 0 0 0 .7-8.3ZM128 152a20 20 0 1 1 20-20a20.1 20.1 0 0 1-20 20Z" opacity=".2"></path><path fill="currentColor" d="M218.6 123.9L192 70.1V32a16 16 0 0 0-16-16H80a16 16 0 0 0-16 16v38.1l-26.6 53.8a16.1 16.1 0 0 0 1.5 16.6l82.7 112.2a7.9 7.9 0 0 0 12.8 0l82.7-112.2a16.1 16.1 0 0 0 1.5-16.6ZM176 32v32H80V32Zm-48 112a12 12 0 1 1 12-12a12 12 0 0 1-12 12Zm8 79.6v-64.8a28 28 0 1 0-16 0v64.8L51.8 131L77 80h102l25.2 51Z"></path></svg>