<svg xmlns="http://www.w3.org/2000/svg" xmlns:xlink="http://www.w3.org/1999/xlink" aria-hidden="true" role="img" class="iconify iconify--ph" width="1em" height="1em" preserveAspectRatio="xMidYMid meet" viewBox="0 0 256 256"><path fill="currentColor" d="M224.3 126.5L196 69.2V32a20.1 20.1 0 0 0-20-20H80a20.1 20.1 0 0 0-20 20v37.2l-28.3 57.3a12.2 12.2 0 0 0 1.2 12.6l85.6 112.2a12 12 0 0 0 19 0l85.6-112.2a12 12 0 0 0 1.2-12.6ZM172 36v24H84V36Zm-44 108a12 12 0 1 1 12-12a12 12 0 0 1-12 12Zm12 64.5v-42.6a36 36 0 1 0-24 0v42.6l-59.5-78.1l23-46.4h97l23 46.4Z"></path></svg>