<svg xmlns="http://www.w3.org/2000/svg" xmlns:xlink="http://www.w3.org/1999/xlink" aria-hidden="true" role="img" class="iconify iconify--ph" width="1em" height="1em" preserveAspectRatio="xMidYMid meet" viewBox="0 0 256 256"><path fill="currentColor" d="M232.7 88a19.7 19.7 0 0 0-5.9-14.1l-44.7-44.7a19.9 19.9 0 0 0-28.2 0l-120 120a19.7 19.7 0 0 0-5.9 14.1V208a20.1 20.1 0 0 0 20 20h44.7a19.7 19.7 0 0 0 14.1-5.9l1.7-1.6l77.8-77.8l4.1 13.9l-34.9 34.9a12 12 0 0 0 0 17a12.1 12.1 0 0 0 17 0l40-40a11.9 11.9 0 0 0 3-11.9l-9.9-33.2l21.2-21.3a19.7 19.7 0 0 0 5.9-14.1ZM100 195l-39-39l75-75l39 39Zm-48-14l23 23H52Zm140-78l-39-39l15-15l39 39Z"></path></svg>