<svg xmlns="http://www.w3.org/2000/svg" xmlns:xlink="http://www.w3.org/1999/xlink" aria-hidden="true" role="img" class="iconify iconify--ph" width="1em" height="1em" preserveAspectRatio="xMidYMid meet" viewBox="0 0 256 256"><path fill="currentColor" d="M216.8 124.8L190 70.6V32a14 14 0 0 0-14-14H80a14 14 0 0 0-14 14v38.6l-26.8 54.2a14.1 14.1 0 0 0 1.3 14.5l82.7 112.3a6 6 0 0 0 9.6 0l82.7-112.3a14.1 14.1 0 0 0 1.3-14.5ZM80 30h96a2 2 0 0 1 2 2v34H78V32a2 2 0 0 1 2-2Zm48 116a14 14 0 1 1 14-14a14 14 0 0 1-14 14Zm77.8-13.8L134 229.7v-72.4a26 26 0 1 0-12 0v72.4l-71.8-97.5a2 2 0 0 1-.2-2.1L75.7 78h104.6l25.7 52.1a2 2 0 0 1-.2 2.1Z"></path></svg>