<svg xmlns="http://www.w3.org/2000/svg" xmlns:xlink="http://www.w3.org/1999/xlink" aria-hidden="true" role="img" class="iconify iconify--ph" width="1em" height="1em" preserveAspectRatio="xMidYMid meet" viewBox="0 0 256 256"><path fill="currentColor" d="M232 92.7L163.3 24a16.1 16.1 0 0 0-22.6 0l-25.1 25.1l-58.1 21.8a15.9 15.9 0 0 0-10.1 12.3L26.6 207.8a4 4 0 0 0 6.8 3.5l55-55.1A31.7 31.7 0 0 1 84 140a32 32 0 1 1 32 32a31.7 31.7 0 0 1-16.2-4.4l-55.1 55a4 4 0 0 0 3.5 6.8l124.6-20.7a16.2 16.2 0 0 0 12.3-10.2l21.8-58.1l25.1-25.1a15.9 15.9 0 0 0 0-22.6Zm-32 32L131.3 56L152 35.3l68.7 68.7ZM116 156a16 16 0 1 1 16-16a16 16 0 0 1-16 16Z"></path></svg>