<svg xmlns="http://www.w3.org/2000/svg" xmlns:xlink="http://www.w3.org/1999/xlink" aria-hidden="true" role="img" class="iconify iconify--ph" width="1em" height="1em" preserveAspectRatio="xMidYMid meet" viewBox="0 0 256 256"><path fill="currentColor" d="M224.7 88a12.3 12.3 0 0 0-3.5-8.5l-44.7-44.7a12.2 12.2 0 0 0-17 0l-120 120a11.7 11.7 0 0 0-2.7 4.2a11.6 11.6 0 0 0-.8 4.2V208a12 12 0 0 0 12 12h44.7a11.6 11.6 0 0 0 4.2-.8h.1a11.7 11.7 0 0 0 4.2-2.7l88.6-88.7l5.8 23l-38.4 38.4a3.9 3.9 0 0 0 0 5.6a3.9 3.9 0 0 0 5.6 0l40-40a4.1 4.1 0 0 0 1.1-3.8l-7.5-29.8l24.8-24.7a12.3 12.3 0 0 0 3.5-8.5ZM44 208v-38.3L86.3 212H48a4 4 0 0 1-4-4Zm52 2.3L45.7 160L136 69.7l50.3 50.3ZM215.5 90.8L192 114.3L141.7 64l23.5-23.5a3.9 3.9 0 0 1 5.6 0l44.7 44.7a3.9 3.9 0 0 1 0 5.6Z"></path></svg>