<svg xmlns="http://www.w3.org/2000/svg" xmlns:xlink="http://www.w3.org/1999/xlink" aria-hidden="true" role="img" class="iconify iconify--ph" width="1em" height="1em" preserveAspectRatio="xMidYMid meet" viewBox="0 0 256 256"><path fill="currentColor" d="m192 120l-56-56l26.3-26.3a8 8 0 0 1 11.4 0l44.6 44.6a8 8 0 0 1 0 11.4Z" opacity=".2"></path><path fill="currentColor" d="M228.7 88a15.9 15.9 0 0 0-4.7-11.3L179.3 32a16.1 16.1 0 0 0-22.6 0l-120 120a15.4 15.4 0 0 0-3.6 5.5c-.1.2-.1.4-.2.6a15 15 0 0 0-.9 5.2V208a16 16 0 0 0 16 16h44.7a16 16 0 0 0 5.3-.9l.5-.2a15.4 15.4 0 0 0 5.5-3.6l83.7-83.7l3.4 13.9l-36.8 36.8a8.1 8.1 0 0 0 0 11.4a8.2 8.2 0 0 0 11.4 0l40-40a8.5 8.5 0 0 0 2.1-7.6l-6.9-27.6L224 99.3a15.9 15.9 0 0 0 4.7-11.3ZM48 179.3L76.7 208H48Zm48 25.4L51.3 160L136 75.3l44.7 44.7Zm96-96L147.3 64L168 43.3L212.7 88Z"></path></svg>