<svg xmlns="http://www.w3.org/2000/svg" xmlns:xlink="http://www.w3.org/1999/xlink" aria-hidden="true" role="img" class="iconify iconify--ph" width="1em" height="1em" preserveAspectRatio="xMidYMid meet" viewBox="0 0 256 256"><path fill="currentColor" d="M226.7 88a14.1 14.1 0 0 0-4.1-9.9l-44.7-44.7a14.1 14.1 0 0 0-19.8 0l-120 120a13.7 13.7 0 0 0-3.1 4.8h-.1a14.3 14.3 0 0 0-.9 5V208a14 14 0 0 0 14 14h44.7a14.3 14.3 0 0 0 5-.9h.1a13.7 13.7 0 0 0 4.8-3.1l86.1-86.2l4.7 18.5l-37.6 37.6a5.9 5.9 0 1 0 8.4 8.4l40-40a5.9 5.9 0 0 0 1.6-5.7l-7.2-28.7l24-23.9a14.1 14.1 0 0 0 4.1-10ZM46 208v-33.5L81.5 210H48a2 2 0 0 1-2-2Zm50-.5L48.5 160L136 72.5l47.5 47.5ZM214.1 89.4L192 111.5L144.5 64l22.1-22.1a1.9 1.9 0 0 1 2.8 0l44.7 44.7a1.9 1.9 0 0 1 0 2.8Z"></path></svg>