<svg xmlns="http://www.w3.org/2000/svg" xmlns:xlink="http://www.w3.org/1999/xlink" aria-hidden="true" role="img" class="iconify iconify--ph" width="1em" height="1em" preserveAspectRatio="xMidYMid meet" viewBox="0 0 256 256"><path fill="currentColor" d="m234.8 89.9l-68.7-68.7a19.9 19.9 0 0 0-28.2 0l-24.5 24.5l-57.3 21.4a20.2 20.2 0 0 0-12.7 15.5L20.2 222A11.9 11.9 0 0 0 32 236l2-.2l139.4-23.2a20.2 20.2 0 0 0 15.5-12.7l21.4-57.2l24.5-24.6a19.9 19.9 0 0 0 0-28.2Zm-67.6 99.4L67 206l33.5-33.5a36 36 0 1 0-17-17L50 189L66.7 88.8L117 70l69.1 69ZM104 140a12 12 0 1 1 12 12a12 12 0 0 1-12-12Zm96-21l-63-63l15-15l63 63Z"></path></svg>