<svg xmlns="http://www.w3.org/2000/svg" xmlns:xlink="http://www.w3.org/1999/xlink" aria-hidden="true" role="img" class="iconify iconify--ph" width="1em" height="1em" preserveAspectRatio="xMidYMid meet" viewBox="0 0 256 256"><path fill="currentColor" d="M228.7 88a15.9 15.9 0 0 0-4.7-11.3L179.3 32a16.1 16.1 0 0 0-22.6 0l-120 120a16 16 0 0 0-3.6 5.4l-.3.8a17 17 0 0 0-.8 5.1V208a16 16 0 0 0 16 16h44.7a14.4 14.4 0 0 0 5.1-.9l.8-.2a16 16 0 0 0 5.4-3.6l83.7-83.7l3.4 13.9l-36.8 36.8a8.1 8.1 0 0 0 0 11.4a8.2 8.2 0 0 0 11.4 0l40-40a8.5 8.5 0 0 0 2.1-7.6l-6.9-27.6L224 99.3a15.9 15.9 0 0 0 4.7-11.3ZM192 108.7L147.3 64L168 43.3L212.7 88Z"></path></svg>