<svg xmlns="http://www.w3.org/2000/svg" xmlns:xlink="http://www.w3.org/1999/xlink" aria-hidden="true" role="img" class="iconify iconify--ph" width="1em" height="1em" preserveAspectRatio="xMidYMid meet" viewBox="0 0 256 256"><path fill="currentColor" d="M218.3 93.7L192 120l-56-56l26.3-26.3a8 8 0 0 1 11.4 0l44.6 44.6a8 8 0 0 1 0 11.4Z" opacity=".2"></path><path fill="currentColor" d="M216 208H115.3l82.4-82.3L224 99.3a15.9 15.9 0 0 0 0-22.6L179.3 32a16.1 16.1 0 0 0-22.6 0l-120 120a15.4 15.4 0 0 0-3.6 5.5c-.1.2-.1.4-.2.6a15 15 0 0 0-.9 5.2V208a16 16 0 0 0 16 16h168a8 8 0 0 0 0-16ZM168 43.3L212.7 88L192 108.7L147.3 64Zm-32 32L152.7 92L68 176.7L51.3 160ZM48 208v-28.7L76.7 208Zm31.3-20l84.7-84.7l16.7 16.7L96 204.7Z"></path></svg>