<svg xmlns="http://www.w3.org/2000/svg" xmlns:xlink="http://www.w3.org/1999/xlink" aria-hidden="true" role="img" class="iconify iconify--ph" width="1em" height="1em" preserveAspectRatio="xMidYMid meet" viewBox="0 0 256 256"><path fill="currentColor" d="M226.7 88a14.1 14.1 0 0 0-4.1-9.9l-44.7-44.7a14.1 14.1 0 0 0-19.8 0l-120 120a14.3 14.3 0 0 0-4.1 9.9V208a14 14 0 0 0 14 14h168a6 6 0 0 0 0-12H110.5L222.6 97.9a14.1 14.1 0 0 0 4.1-9.9ZM46 208v-44.7a2 2 0 0 1 .6-1.4L136 72.5l47.5 47.5l-90 90H48a2 2 0 0 1-2-2ZM214.1 89.4L192 111.5L144.5 64l22.1-22.1a1.9 1.9 0 0 1 2.8 0l44.7 44.7a1.9 1.9 0 0 1 0 2.8Z"></path></svg>