<svg xmlns="http://www.w3.org/2000/svg" xmlns:xlink="http://www.w3.org/1999/xlink" aria-hidden="true" role="img" class="iconify iconify--ph" width="1em" height="1em" preserveAspectRatio="xMidYMid meet" viewBox="0 0 256 256"><path fill="currentColor" d="M218.3 93.7L192 120l-56-56l26.3-26.3a8 8 0 0 1 11.4 0l44.6 44.6a8 8 0 0 1 0 11.4Z" opacity=".2"></path><path fill="currentColor" d="M224 76.7L179.3 32a15.9 15.9 0 0 0-22.6 0l-120 120a15.9 15.9 0 0 0-4.7 11.3V208a16 16 0 0 0 16 16h44.7a15.9 15.9 0 0 0 11.3-4.7l120-120a16.1 16.1 0 0 0 0-22.6ZM92.7 208H48v-44.7l88-88l44.7 44.7Zm99.3-99.3L147.3 64L168 43.3L212.7 88Z"></path></svg>