<svg xmlns="http://www.w3.org/2000/svg" xmlns:xlink="http://www.w3.org/1999/xlink" aria-hidden="true" role="img" class="iconify iconify--ph" width="1em" height="1em" preserveAspectRatio="xMidYMid meet" viewBox="0 0 256 256"><path fill="currentColor" d="M224 76.7L179.3 32a15.9 15.9 0 0 0-22.6 0l-26.4 26.3L36.7 152a15.9 15.9 0 0 0-4.7 11.3V208a16 16 0 0 0 16 16h44.7a15.9 15.9 0 0 0 11.3-4.7l120-120a16.1 16.1 0 0 0 0-22.6ZM51.3 160L144 67.3L160.7 84L68 176.7ZM48 179.3L76.7 208H48Zm48 25.4L79.3 188L172 95.3l16.7 16.7Z"></path></svg>