<svg xmlns="http://www.w3.org/2000/svg" xmlns:xlink="http://www.w3.org/1999/xlink" aria-hidden="true" role="img" class="iconify iconify--ph" width="1em" height="1em" preserveAspectRatio="xMidYMid meet" viewBox="0 0 256 256"><path fill="currentColor" d="M200.1 55.9A102 102 0 1 0 55.9 200.1A102 102 0 1 0 200.1 55.9ZM106 134h44l14.1 30.6A28.9 28.9 0 0 0 152 162a30 30 0 0 0-24 12a30 30 0 0 0-24-12a28.9 28.9 0 0 0-12.1 2.6Zm5.5-12L128 86.3l16.5 35.7Zm22.5 70a18 18 0 0 1 36 0v15.6a89.9 89.9 0 0 1-36 10.2Zm-48 0a18 18 0 0 1 36 0v25.8a89.9 89.9 0 0 1-36-10.2Zm105.6-.4a76 76 0 0 1-9.6 8.4v-24a5.4 5.4 0 0 0-.6-2.5l-48-104a5.9 5.9 0 0 0-10.8 0l-48 104a5.4 5.4 0 0 0-.6 2.5v24a76 76 0 0 1-9.6-8.4a90 90 0 1 1 127.2 0Z"></path></svg>