<svg xmlns="http://www.w3.org/2000/svg" xmlns:xlink="http://www.w3.org/1999/xlink" aria-hidden="true" role="img" class="iconify iconify--ph" width="1em" height="1em" preserveAspectRatio="xMidYMid meet" viewBox="0 0 256 256"><path fill="currentColor" d="M218.3 93.7L192 120l-56-56l26.3-26.3a8 8 0 0 1 11.4 0l44.6 44.6a8 8 0 0 1 0 11.4Z" opacity=".2"></path><path fill="currentColor" d="M216 208H115.3L224 99.3a15.9 15.9 0 0 0 0-22.6L179.3 32a16.1 16.1 0 0 0-22.6 0l-120 120a15.9 15.9 0 0 0-4.7 11.3V208a16 16 0 0 0 16 16h168a8 8 0 0 0 0-16ZM168 43.3L212.7 88L192 108.7L147.3 64Zm-120 120l88-88l44.7 44.7l-88 88H48Z"></path></svg>