<svg xmlns="http://www.w3.org/2000/svg" xmlns:xlink="http://www.w3.org/1999/xlink" aria-hidden="true" role="img" class="iconify iconify--ph" width="1em" height="1em" preserveAspectRatio="xMidYMid meet" viewBox="0 0 256 256"><path fill="currentColor" d="M226.7 88a14.1 14.1 0 0 0-4.1-9.9l-44.7-44.7a14.1 14.1 0 0 0-19.8 0l-120 120a13.7 13.7 0 0 0-3.1 4.8h-.1a14.3 14.3 0 0 0-.9 5V208a14 14 0 0 0 14 14h168a6 6 0 0 0 0-12H110.5L222.6 97.9a14.1 14.1 0 0 0 4.1-9.9ZM76.5 188l87.5-87.5l19.5 19.5L96 207.5Zm-8.5-8.5L48.5 160L136 72.5L155.5 92ZM46 208v-33.5L81.5 210H48a2 2 0 0 1-2-2ZM214.1 89.4L192 111.5L144.5 64l22.1-22.1a1.9 1.9 0 0 1 2.8 0l44.7 44.7a1.9 1.9 0 0 1 0 2.8Z"></path></svg>