<svg xmlns="http://www.w3.org/2000/svg" xmlns:xlink="http://www.w3.org/1999/xlink" aria-hidden="true" role="img" class="iconify iconify--ph" width="1em" height="1em" preserveAspectRatio="xMidYMid meet" viewBox="0 0 256 256"><path fill="currentColor" d="m221.2 79.5l-44.7-44.7a12.1 12.1 0 0 0-17 0l-120 120a11.9 11.9 0 0 0-3.5 8.5V208a12 12 0 0 0 12 12h44.7a11.9 11.9 0 0 0 8.5-3.5l120-120a12 12 0 0 0 0-17ZM45.7 160L136 69.7L158.3 92L68 182.3ZM44 208v-38.3l21.2 21.1L86.3 212H48a4 4 0 0 1-4-4Zm52 2.3L73.7 188L164 97.7l22.3 22.3ZM215.5 90.8L192 114.3L141.7 64l23.5-23.5a3.9 3.9 0 0 1 5.6 0l44.7 44.7a3.9 3.9 0 0 1 0 5.6Z"></path></svg>