<svg xmlns="http://www.w3.org/2000/svg" xmlns:xlink="http://www.w3.org/1999/xlink" aria-hidden="true" role="img" class="iconify iconify--ph" width="1em" height="1em" preserveAspectRatio="xMidYMid meet" viewBox="0 0 256 256"><path fill="currentColor" d="M216 204h-91l75.5-75.5l26.3-26.4a19.8 19.8 0 0 0 0-28.2l-44.7-44.7a19.9 19.9 0 0 0-28.2 0l-120 120a19.8 19.8 0 0 0-5.9 14.1V208a20.1 20.1 0 0 0 20 20h168a12 12 0 0 0 0-24ZM61 156l75-75l11 11l-75 75Zm103-47l11 11l-75 75l-11-11Zm4-60l39 39l-15 15l-39-39ZM52 181l11.5 11.5L75 204H52Z"></path></svg>