<svg xmlns="http://www.w3.org/2000/svg" xmlns:xlink="http://www.w3.org/1999/xlink" aria-hidden="true" role="img" class="iconify iconify--ph" width="1em" height="1em" preserveAspectRatio="xMidYMid meet" viewBox="0 0 256 256"><path fill="currentColor" d="m226.8 73.9l-44.7-44.7a19.8 19.8 0 0 0-28.2 0l-120 120a19.7 19.7 0 0 0-5.9 14.1V208a20.1 20.1 0 0 0 20 20h44.7a19.7 19.7 0 0 0 14.1-5.9l120-120a19.9 19.9 0 0 0 0-28.2ZM89 184l75-75l11 11l-75 75Zm-17-17l-11-11l75-75l11 11Zm-20 14l11.5 11.5L75 204H52Zm140-78l-39-39l15-15l39 39Z"></path></svg>