<svg xmlns="http://www.w3.org/2000/svg" xmlns:xlink="http://www.w3.org/1999/xlink" aria-hidden="true" role="img" class="iconify iconify--ph" width="1em" height="1em" preserveAspectRatio="xMidYMid meet" viewBox="0 0 256 256"><path fill="currentColor" d="M218.3 93.7L192 120l-56-56l26.3-26.3a8 8 0 0 1 11.4 0l44.6 44.6a8 8 0 0 1 0 11.4Z" opacity=".2"></path><path fill="currentColor" d="M224 76.7L179.3 32a15.9 15.9 0 0 0-22.6 0l-120 120a15.9 15.9 0 0 0-4.7 11.3V208a16 16 0 0 0 16 16h44.7a15.9 15.9 0 0 0 11.3-4.7l120-120a16.1 16.1 0 0 0 0-22.6ZM51.3 160L136 75.3L152.7 92L68 176.7ZM48 179.3L76.7 208H48Zm48 25.4L79.3 188l84.7-84.7l16.7 16.7Zm96-96L147.3 64L168 43.3L212.7 88Z"></path></svg>