<svg xmlns="http://www.w3.org/2000/svg" xmlns:xlink="http://www.w3.org/1999/xlink" aria-hidden="true" role="img" class="iconify iconify--ph" width="1em" height="1em" preserveAspectRatio="xMidYMid meet" viewBox="0 0 256 256"><path fill="currentColor" d="m194.8 122.8l26.4-26.3a12.1 12.1 0 0 0 0-17l-44.7-44.7a12.2 12.2 0 0 0-17 0l-120 120a11.7 11.7 0 0 0-2.7 4.2a11.6 11.6 0 0 0-.8 4.2V208a12 12 0 0 0 12 12h168a4 4 0 0 0 0-8H105.7l89.1-89.2Zm-29.6-82.3a3.9 3.9 0 0 1 5.6 0l44.7 44.7a3.9 3.9 0 0 1 0 5.6L192 114.3L141.7 64ZM73.7 188L164 97.7l22.3 22.3L96 210.3Zm-28-28L136 69.7L158.3 92L68 182.3ZM44 208v-38.3l21.2 21.1L86.3 212H48a4 4 0 0 1-4-4Z"></path></svg>