<svg xmlns="http://www.w3.org/2000/svg" xmlns:xlink="http://www.w3.org/1999/xlink" aria-hidden="true" role="img" class="iconify iconify--ph" width="1em" height="1em" preserveAspectRatio="xMidYMid meet" viewBox="0 0 256 256"><path fill="currentColor" d="M221.2 96.5a12.1 12.1 0 0 0 0-17l-44.7-44.7a12.2 12.2 0 0 0-17 0l-120 120a11.9 11.9 0 0 0-3.5 8.5V208a12 12 0 0 0 12 12h168a4 4 0 0 0 0-8H105.7Zm-56-56a3.9 3.9 0 0 1 5.6 0l44.7 44.7a3.9 3.9 0 0 1 0 5.6L192 114.3L141.7 64ZM44 208v-44.7a3.6 3.6 0 0 1 1.2-2.8L136 69.7l50.3 50.3l-92 92H48a4 4 0 0 1-4-4Z"></path></svg>