<svg xmlns="http://www.w3.org/2000/svg" xmlns:xlink="http://www.w3.org/1999/xlink" aria-hidden="true" role="img" class="iconify iconify--ph" width="1em" height="1em" preserveAspectRatio="xMidYMid meet" viewBox="0 0 256 256"><path fill="currentColor" d="m222.6 78.1l-44.7-44.7a14 14 0 0 0-19.8 0l-120 120a14.3 14.3 0 0 0-4.1 9.9V208a14 14 0 0 0 14 14h44.7a14.3 14.3 0 0 0 9.9-4.1l120-120a14.1 14.1 0 0 0 0-19.8ZM48.5 160L136 72.5L155.5 92L68 179.5ZM46 208v-33.5L81.5 210H48a2 2 0 0 1-2-2Zm50-.5L76.5 188l87.5-87.5l19.5 19.5ZM214.1 89.4L192 111.5L144.5 64l22.1-22.1a1.9 1.9 0 0 1 2.8 0l44.7 44.7a1.9 1.9 0 0 1 0 2.8Z"></path></svg>