<svg xmlns="http://www.w3.org/2000/svg" xmlns:xlink="http://www.w3.org/1999/xlink" aria-hidden="true" role="img" class="iconify iconify--ph" width="1em" height="1em" preserveAspectRatio="xMidYMid meet" viewBox="0 0 256 256"><path fill="currentColor" d="m204.2 60.2l-144 144a5.9 5.9 0 0 1-8.4-8.4l144-144a5.9 5.9 0 0 1 8.4 8.4ZM52 100a33.8 33.8 0 0 1 0-48a33.9 33.9 0 0 1 48 0a34 34 0 0 1-24 58a33.5 33.5 0 0 1-24-10Zm2-24a22 22 0 1 0 37.6-15.6a22.2 22.2 0 0 0-31.2 0A22.2 22.2 0 0 0 54 76Zm160 104a34 34 0 1 1-58-24a33.9 33.9 0 0 1 48 0a33.3 33.3 0 0 1 10 24Zm-12 0a22.2 22.2 0 0 0-6.4-15.6a22.2 22.2 0 0 0-31.2 0A22.1 22.1 0 1 0 202 180Z"></path></svg>