<svg xmlns="http://www.w3.org/2000/svg" xmlns:xlink="http://www.w3.org/1999/xlink" aria-hidden="true" role="img" class="iconify iconify--ph" width="1em" height="1em" preserveAspectRatio="xMidYMid meet" viewBox="0 0 256 256"><path fill="currentColor" d="m202.8 58.8l-144 144a3.9 3.9 0 0 1-5.6 0a3.9 3.9 0 0 1 0-5.6l144-144a4 4 0 1 1 5.6 5.6ZM53.4 98.6a31.9 31.9 0 0 1 0-45.2a31.9 31.9 0 0 1 45.2 0a32 32 0 1 1-45.2 45.2ZM52 76a24 24 0 1 0 41-17a24.1 24.1 0 0 0-34 0a24.2 24.2 0 0 0-7 17Zm160 104a32 32 0 1 1-54.6-22.6a31.9 31.9 0 0 1 45.2 0A31.5 31.5 0 0 1 212 180Zm-8 0a24.2 24.2 0 0 0-7-17a24.1 24.1 0 0 0-34 0a24 24 0 1 0 41 17Z"></path></svg>