<svg xmlns="http://www.w3.org/2000/svg" xmlns:xlink="http://www.w3.org/1999/xlink" aria-hidden="true" role="img" class="iconify iconify--ph" width="1em" height="1em" preserveAspectRatio="xMidYMid meet" viewBox="0 0 256 256"><path fill="currentColor" d="m208.5 64.5l-144 144a12.1 12.1 0 0 1-17 0a12 12 0 0 1 0-17l144-144a12 12 0 0 1 17 17ZM47.7 104.3A40.1 40.1 0 1 1 76 116a40 40 0 0 1-28.3-11.7ZM60 76a16 16 0 1 0 4.7-11.3A15.9 15.9 0 0 0 60 76Zm160 104a40 40 0 1 1-11.7-28.3A40 40 0 0 1 220 180Zm-24 0a15.9 15.9 0 0 0-4.7-11.3A15.9 15.9 0 1 0 196 180Z"></path></svg>