<svg xmlns="http://www.w3.org/2000/svg" xmlns:xlink="http://www.w3.org/1999/xlink" aria-hidden="true" role="img" class="iconify iconify--ph" width="1em" height="1em" preserveAspectRatio="xMidYMid meet" viewBox="0 0 256 256"><circle cx="180" cy="180" r="28" fill="currentColor" opacity=".2"></circle><circle cx="76" cy="76" r="28" fill="currentColor" opacity=".2"></circle><path fill="currentColor" d="M205.7 50.3a8.1 8.1 0 0 0-11.4 0l-144 144a8.1 8.1 0 0 0 0 11.4a8.2 8.2 0 0 0 11.4 0l144-144a8.1 8.1 0 0 0 0-11.4ZM76 112a35.9 35.9 0 1 0-25.5-10.5A36.2 36.2 0 0 0 76 112ZM61.9 61.9a19.8 19.8 0 0 1 28.2 0a19.8 19.8 0 0 1 0 28.2a19.9 19.9 0 0 1-28.2 0a19.8 19.8 0 0 1 0-28.2Zm143.6 92.6a36.2 36.2 0 0 0-51 0a36 36 0 1 0 51 0Zm-11.4 39.6a19.9 19.9 0 1 1-28.2-28.2a19.8 19.8 0 0 1 28.2 0a19.8 19.8 0 0 1 0 28.2Z"></path></svg>