<svg xmlns="http://www.w3.org/2000/svg" xmlns:xlink="http://www.w3.org/1999/xlink" aria-hidden="true" role="img" class="iconify iconify--ph" width="1em" height="1em" preserveAspectRatio="xMidYMid meet" viewBox="0 0 256 256"><path fill="currentColor" d="M240 116h-12V49.6a20 20 0 0 0-23.6-19.7L44.4 59A20 20 0 0 0 28 78.7V116H16a12 12 0 0 0 0 24h12v37.3A20 20 0 0 0 44.4 197l160 29.1a21.9 21.9 0 0 0 3.6.3a19.9 19.9 0 0 0 20-20V140h12a12 12 0 0 0 0-24ZM52 82l152-27.6V116H52Zm152 119.6L52 174v-34h152Z"></path></svg>