<svg xmlns="http://www.w3.org/2000/svg" xmlns:xlink="http://www.w3.org/1999/xlink" aria-hidden="true" role="img" class="iconify iconify--ph" width="1em" height="1em" preserveAspectRatio="xMidYMid meet" viewBox="0 0 256 256"><path fill="currentColor" d="M128 80a36 36 0 1 1 36-36a36 36 0 0 1-36 36Zm83.8 59.5l-39.3-50.6l-.7-.7A27.8 27.8 0 0 0 152 80h-48a27.8 27.8 0 0 0-19.8 8.2l-.7.7l-39.3 50.6a20 20 0 0 0 28.3 28.3l14.1-11l-19.8 62.7a19.7 19.7 0 0 0-.5 14.7a20.2 20.2 0 0 0 10.4 11.3a19.8 19.8 0 0 0 15.3.7a20.4 20.4 0 0 0 11-9.8l25-39.4l25 39.4a20.4 20.4 0 0 0 11 9.8a20.9 20.9 0 0 0 6.9 1.2a19.1 19.1 0 0 0 8.4-1.9a20.2 20.2 0 0 0 10.4-11.3a19.7 19.7 0 0 0-.5-14.7l-19.8-62.7l14.1 11a20 20 0 0 0 28.3-28.3Z"></path></svg>