<svg xmlns="http://www.w3.org/2000/svg" xmlns:xlink="http://www.w3.org/1999/xlink" aria-hidden="true" role="img" class="iconify iconify--ph" width="1em" height="1em" preserveAspectRatio="xMidYMid meet" viewBox="0 0 256 256"><path fill="currentColor" d="M216 49.6v156.8a8 8 0 0 1-9.4 7.9l-160-29.1a8 8 0 0 1-6.6-7.9V78.7a8 8 0 0 1 6.6-7.9l160-29.1a8 8 0 0 1 9.4 7.9Z" opacity=".2"></path><path fill="currentColor" d="M240 120h-16V49.6a16.1 16.1 0 0 0-5.7-12.3a16.6 16.6 0 0 0-13.2-3.5l-160 29.1A16 16 0 0 0 32 78.7V120H16a8 8 0 0 0 0 16h16v41.3a16 16 0 0 0 13.1 15.8l160 29.1l2.9.2a16.5 16.5 0 0 0 10.3-3.7a16.1 16.1 0 0 0 5.7-12.3V136h16a8 8 0 0 0 0-16ZM48 78.7l160-29.1V120H48Zm160 127.7L48 177.3V136h160Z"></path></svg>