<svg xmlns="http://www.w3.org/2000/svg" xmlns:xlink="http://www.w3.org/1999/xlink" aria-hidden="true" role="img" class="iconify iconify--ph" width="1em" height="1em" preserveAspectRatio="xMidYMid meet" viewBox="0 0 256 256"><path fill="currentColor" d="M120 48a32 32 0 1 1 32 32a32.1 32.1 0 0 1-32-32Zm88 88c-28.5 0-41.7-14.1-55.6-29.1c-3.5-3.8-7.2-7.7-11-11.2c-37.2-34.4-96.5 24.1-99.1 26.6a8.1 8.1 0 1 0 11.4 11.4a157.3 157.3 0 0 1 30.5-23.2c14.3-8.2 26.3-11.1 35.7-8.8l-17.7 40.7l-37.5 86.4a7.9 7.9 0 0 0 4.1 10.5a7.1 7.1 0 0 0 3.2.7a7.9 7.9 0 0 0 7.3-4.8l33.6-77.3l31.1 22.2V232a8 8 0 0 0 16 0v-56a7.8 7.8 0 0 0-3.4-6.5l-37.1-26.6l14.1-32.5l7.1 7.4C154.9 133 172.5 152 208 152a8 8 0 0 0 0-16Z"></path></svg>