<svg xmlns="http://www.w3.org/2000/svg" xmlns:xlink="http://www.w3.org/1999/xlink" aria-hidden="true" role="img" class="iconify iconify--ph" width="1em" height="1em" preserveAspectRatio="xMidYMid meet" viewBox="0 0 256 256"><path fill="currentColor" d="M127.9 84a36 36 0 1 0-36-36a36 36 0 0 0 36 36Zm0-48a12 12 0 1 1-12 12a12 12 0 0 1 12-12Zm106.4 102.2A12.1 12.1 0 0 1 224 144a11.9 11.9 0 0 1-6.2-1.7c-.3-.2-32.3-18.9-77.8-21.9v27l61 68.6a12.1 12.1 0 0 1-1 17a12.1 12.1 0 0 1-17-1l-55-61.9L73 232a12 12 0 0 1-18-16l61-68.6v-27c-45.7 3-77.5 21.7-77.8 21.9a12 12 0 0 1-12.4-20.6C27.6 120.7 69.4 96 128 96s100.4 24.7 102.2 25.7a12 12 0 0 1 4.1 16.5Z"></path></svg>