<svg xmlns="http://www.w3.org/2000/svg" xmlns:xlink="http://www.w3.org/1999/xlink" aria-hidden="true" role="img" class="iconify iconify--ph" width="1em" height="1em" preserveAspectRatio="xMidYMid meet" viewBox="0 0 256 256"><path fill="currentColor" d="M176 48a24 24 0 1 1-24-24a23.9 23.9 0 0 1 24 24Z" opacity=".2"></path><path fill="currentColor" d="M152 80a32 32 0 1 0-32-32a32.1 32.1 0 0 0 32 32Zm0-48a16 16 0 1 1-16 16a16 16 0 0 1 16-16Zm64 112a8 8 0 0 1-8 8c-35.5 0-53.1-19-67.3-34.2l-7.1-7.4l-14.1 32.5l37.1 26.6a7.8 7.8 0 0 1 3.4 6.5v56a8 8 0 0 1-16 0v-51.9l-31.1-22.2l-33.6 77.3A7.9 7.9 0 0 1 72 240a7.1 7.1 0 0 1-3.2-.7a7.9 7.9 0 0 1-4.1-10.5l37.5-86.3l17.7-40.7c-9.4-2.3-21.4.6-35.7 8.8a157.3 157.3 0 0 0-30.5 23.2a8.1 8.1 0 1 1-11.4-11.4c2.6-2.5 61.9-61 99.1-26.6c3.8 3.5 7.5 7.4 11 11.2c13.9 15 27.1 29.1 55.6 29.1a8 8 0 0 1 8 7.9Z"></path></svg>