<svg xmlns="http://www.w3.org/2000/svg" xmlns:xlink="http://www.w3.org/1999/xlink" aria-hidden="true" role="img" class="iconify iconify--ph" width="1em" height="1em" preserveAspectRatio="xMidYMid meet" viewBox="0 0 256 256"><path fill="currentColor" d="M128 76a32 32 0 1 0-32-32a32.1 32.1 0 0 0 32 32Zm0-56a24 24 0 1 1-24 24a24.1 24.1 0 0 1 24-24Zm80.8 122.1l-39.5-50.7l-.3-.4a24.2 24.2 0 0 0-17-7h-48a24.2 24.2 0 0 0-17 7l-.3.4l-39.5 50.7a16.1 16.1 0 0 0-4.5 11.2a16.1 16.1 0 0 0 27.2 11.5l24.4-19l-23.8 75.1a16.1 16.1 0 0 0-.4 12a16 16 0 0 0 20.5 9.5a15.9 15.9 0 0 0 8.9-8l28.5-44.9l28.5 44.9a15.9 15.9 0 0 0 8.9 8a14.9 14.9 0 0 0 5.5 1a16.1 16.1 0 0 0 15-10.5a16.1 16.1 0 0 0-.4-12l-23.8-75.1l24.4 19a16.1 16.1 0 0 0 22.7-22.7Zm-5.9 16.8a8 8 0 0 1-11.3 0l-.4-.3l-34.7-27a4.1 4.1 0 0 0-4.8-.2a4.1 4.1 0 0 0-1.5 4.5l27.7 87.6c.1.2.2.3.2.5a8.1 8.1 0 0 1 .3 6.1a7.9 7.9 0 0 1-4.1 4.5a8.3 8.3 0 0 1-6.2.3a7.9 7.9 0 0 1-4.5-4.1c0-.2-.1-.3-.2-.5l-32-50.4a4.1 4.1 0 0 0-6.8 0l-32 50.4c-.1.2-.2.3-.2.5a7.9 7.9 0 0 1-4.5 4.1a8.3 8.3 0 0 1-6.2-.3a7.9 7.9 0 0 1-4.1-4.5a8.1 8.1 0 0 1 .3-6.1c0-.2.1-.3.2-.5l27.7-87.6a4.1 4.1 0 0 0-1.5-4.5a4.1 4.1 0 0 0-4.8.2l-34.7 27l-.4.3a8 8 0 1 1-11.3-11.3l.3-.4l39.5-50.7A15.8 15.8 0 0 1 104 92h48a15.8 15.8 0 0 1 11.1 4.5l39.5 50.7l.3.4a7.9 7.9 0 0 1 0 11.3Z"></path></svg>