<svg xmlns="http://www.w3.org/2000/svg" xmlns:xlink="http://www.w3.org/1999/xlink" aria-hidden="true" role="img" class="iconify iconify--ph" width="1em" height="1em" preserveAspectRatio="xMidYMid meet" viewBox="0 0 256 256"><path fill="currentColor" d="M176 56a24 24 0 1 1-24-24a23.9 23.9 0 0 1 24 24Z" opacity=".2"></path><path fill="currentColor" d="M152 88a32 32 0 1 0-32-32a32.1 32.1 0 0 0 32 32Zm0-48a16 16 0 1 1-16 16a16 16 0 0 1 16-16Zm67.7 100.6c-.6.4-7.6 3.9-20.1 3.9s-34.2-4.4-60-22.3a164.5 164.5 0 0 1-16 34.1c9.2 3 20.8 7.9 31.2 15.8c19.1 14.5 29.2 35.2 29.2 59.9a8 8 0 0 1-16 0c0-41.7-34.7-56.7-54.1-61.9c-16.6 20.9-40.6 38.3-73.2 38.3c-3.1 0-6.2-.1-9.5-.4a8 8 0 1 1 1.6-16c26.8 2.7 50-8.1 68.9-32.3l2.4-3.1h.1a149.6 149.6 0 0 0 21.8-44.5c-38.8-27-63.5-5.6-64.6-4.6a8 8 0 0 1-11.3-.5a7.9 7.9 0 0 1 .5-11.3c1-.9 10.1-9 25.9-12.1c26.1-5 49.4 7.9 64.4 19.6c23.8 18.7 42.1 23.9 53.3 25.1s18.1-1.9 18.2-1.9h-.1a7.8 7.8 0 0 1 3.7-.9a8 8 0 0 1 8 8a7.8 7.8 0 0 1-4.3 7.1Z"></path></svg>