<svg xmlns="http://www.w3.org/2000/svg" xmlns:xlink="http://www.w3.org/1999/xlink" aria-hidden="true" role="img" class="iconify iconify--ph" width="1em" height="1em" preserveAspectRatio="xMidYMid meet" viewBox="0 0 256 256"><path fill="currentColor" d="M128 78a34 34 0 1 0-34-34a34.1 34.1 0 0 0 34 34Zm0-56a22 22 0 1 1-22 22a22.1 22.1 0 0 1 22-22Zm82.3 118.8l-39.4-50.6l-.5-.6A26 26 0 0 0 152 82h-48a26 26 0 0 0-18.4 7.6l-.5.6l-39.4 50.6a18 18 0 0 0 25.5 25.5l19.2-15l-21.8 68.9a18 18 0 0 0-.4 13.3a17.7 17.7 0 0 0 9.3 10.2a18.3 18.3 0 0 0 13.8.6a17.7 17.7 0 0 0 9.9-8.9l26.8-42.1l26.8 42.1a17.7 17.7 0 0 0 9.9 8.9a18.8 18.8 0 0 0 6.2 1.1a18.3 18.3 0 0 0 7.6-1.7a17.7 17.7 0 0 0 9.3-10.2a18 18 0 0 0-.4-13.3l-21.8-68.9l19.2 15a18 18 0 0 0 25.5-25.5Zm-8.8 16.7a6.1 6.1 0 0 1-8.5 0l-.5-.5l-34.8-27a6 6 0 0 0-7.1-.2a5.9 5.9 0 0 0-2.3 6.7l27.7 87.6l.3.7a5.7 5.7 0 0 1 .2 4.6a5.8 5.8 0 0 1-3.1 3.4a5.7 5.7 0 0 1-4.6.2a5.8 5.8 0 0 1-3.4-3.1l-.3-.7l-32-50.3a6 6 0 0 0-10.2 0l-32 50.3l-.3.7a5.8 5.8 0 0 1-3.4 3.1a5.7 5.7 0 0 1-4.6-.2a5.8 5.8 0 0 1-3.1-3.4a5.7 5.7 0 0 1 .2-4.6l.3-.7l27.7-87.6a5.9 5.9 0 0 0-2.3-6.7a6 6 0 0 0-7.1.2l-34.8 27l-.5.5a6.1 6.1 0 0 1-8.5 0a6 6 0 0 1-1.8-4.2a6.2 6.2 0 0 1 1.8-4.3l.5-.5l39.3-50.6A14.2 14.2 0 0 1 104 94h48a14.2 14.2 0 0 1 9.7 3.9l39.3 50.6l.5.5a6.2 6.2 0 0 1 1.8 4.3a6 6 0 0 1-1.8 4.2Z"></path></svg>