<svg xmlns="http://www.w3.org/2000/svg" xmlns:xlink="http://www.w3.org/1999/xlink" aria-hidden="true" role="img" class="iconify iconify--ph" width="1em" height="1em" preserveAspectRatio="xMidYMid meet" viewBox="0 0 256 256"><path fill="currentColor" d="M152 92a36 36 0 1 0-36-36a36 36 0 0 0 36 36Zm0-48a12 12 0 1 1-12 12a12 12 0 0 1 12-12Zm61.6 108.2c-1.6.8-9.1 4.3-21.9 4.3a56.2 56.2 0 0 1-5.7-.2c-15.5-1.2-31.8-7.1-48.6-17.5c-2.2 4.7-4.8 10-7.9 15.4c23.7 8.6 58.5 29.6 58.5 77.8a12 12 0 0 1-24 0c0-18.7-7-33.1-21.3-43.9c-9.1-7-19.5-11.1-27.4-13.4c-1.9 2.3-3.9 4.6-6.1 6.9c-19.3 20.3-42.9 30.8-68.7 30.8a79.8 79.8 0 0 1-9.7-.5a12 12 0 1 1 2.4-23.8c22.3 2.2 42-5.6 58.7-23.1a112.2 112.2 0 0 0 8.9-10.7a143.6 143.6 0 0 0 16.5-29.8c-15.4-11.2-30.1-15.7-43.9-13.5a37.7 37.7 0 0 0-17.4 7.5h.1a12.2 12.2 0 0 1-8.1 3.2a12 12 0 0 1-8.1-20.9c1-1 11-9.8 27.8-13c27.6-5.3 52 8.2 67.7 20.4l3.4 2.6h.1c40.5 30.2 63.6 20.2 63.8 20.1h-.3a13.2 13.2 0 0 1 5.6-1.3a12 12 0 0 1 5.6 22.6Z"></path></svg>