<svg xmlns="http://www.w3.org/2000/svg" xmlns:xlink="http://www.w3.org/1999/xlink" aria-hidden="true" role="img" class="iconify iconify--ph" width="1em" height="1em" preserveAspectRatio="xMidYMid meet" viewBox="0 0 256 256"><path fill="currentColor" d="M152 76a28 28 0 1 0-28-28a28.1 28.1 0 0 0 28 28Zm0-48a20 20 0 1 1-20 20a20.1 20.1 0 0 1 20-20Zm60 116a4 4 0 0 1-4 4c-33.7 0-50-17.5-64.4-32.9c-3.5-3.8-6.8-7.4-10.3-10.6l-1.1-.9l-17.7 40.7l39.8 28.4a4 4 0 0 1 1.7 3.3v56a4 4 0 0 1-8 0v-53.9l-36.8-26.3l-35.5 81.8A4.1 4.1 0 0 1 72 236a4.5 4.5 0 0 1-1.6-.3a4.2 4.2 0 0 1-2.1-5.3l37.6-86.3l19.4-44.7c-29.6-12.7-74 31-74.5 31.5a4 4 0 0 1-5.6-5.6a176.7 176.7 0 0 1 32.8-25c25.2-14.4 46.2-15 60.7-1.6c3.7 3.4 7.2 7.1 10.8 11c13.9 15 28.3 30.4 58.5 30.4a4 4 0 0 1 4 3.9Z"></path></svg>