<svg xmlns="http://www.w3.org/2000/svg" xmlns:xlink="http://www.w3.org/1999/xlink" aria-hidden="true" role="img" class="iconify iconify--ph" width="1em" height="1em" preserveAspectRatio="xMidYMid meet" viewBox="0 0 256 256"><path fill="currentColor" d="M95.9 48a32 32 0 1 1 32 32a32 32 0 0 1-32-32Zm132.2 73.1c-1.7-1-42.5-25.1-100.1-25.1s-98.4 24.1-100.1 25.1a8 8 0 0 0 8.2 13.8c.4-.3 34.9-20.6 83.9-22.7V149l-62 69.7a8 8 0 0 0 12 10.6l58-65.3l58 65.3a8 8 0 0 0 6 2.7a8.1 8.1 0 0 0 5.3-2a8 8 0 0 0 .7-11.3L136 149v-36.8c48.8 2.1 83.5 22.4 83.9 22.7a8.7 8.7 0 0 0 4.1 1.1a8 8 0 0 0 4.1-14.9Z"></path></svg>