<svg xmlns="http://www.w3.org/2000/svg" xmlns:xlink="http://www.w3.org/1999/xlink" aria-hidden="true" role="img" class="iconify iconify--ph" width="1em" height="1em" preserveAspectRatio="xMidYMid meet" viewBox="0 0 256 256"><path fill="currentColor" d="M152 84a36 36 0 1 0-36-36a36 36 0 0 0 36 36Zm0-48a12 12 0 1 1-12 12a12 12 0 0 1 12-12Zm64 112a12 12 0 0 1-12 12c-37.2 0-55.5-19.7-70.2-35.5l-1.4-1.4l-8 18.4l34.6 24.7a12.2 12.2 0 0 1 5 9.8v56a12 12 0 0 1-24 0v-49.8l-25.4-18.1L83 236.8a12.1 12.1 0 0 1-11 7.2a11.8 11.8 0 0 1-4.8-1a12 12 0 0 1-6.2-15.8l37.5-86.4h.1l13.7-31.6c-8.1-1-18.2 2-30.3 8.9a156.7 156.7 0 0 0-29.5 22.4a12 12 0 0 1-17-17A187.4 187.4 0 0 1 70 97.3c36.1-20.7 58.1-11.7 70.1-.6c4 3.7 7.7 7.6 11.2 11.5c13.4 14.3 25.9 27.8 52.7 27.8a12 12 0 0 1 12 12Z"></path></svg>