<svg xmlns="http://www.w3.org/2000/svg" xmlns:xlink="http://www.w3.org/1999/xlink" aria-hidden="true" role="img" class="iconify iconify--ph" width="1em" height="1em" preserveAspectRatio="xMidYMid meet" viewBox="0 0 256 256"><path fill="currentColor" d="M240 124h-20V49.6a12 12 0 0 0-4.3-9.2a11.7 11.7 0 0 0-9.8-2.6l-160 29.1A11.9 11.9 0 0 0 36 78.7V124H16a4 4 0 0 0 0 8h20v45.3a11.9 11.9 0 0 0 9.9 11.8l160 29.1a7.5 7.5 0 0 0 2.1.2a12 12 0 0 0 12-12V132h20a4 4 0 0 0 0-8ZM44 78.7a4.1 4.1 0 0 1 3.3-4l160-29a4.2 4.2 0 0 1 3.3.8a4.3 4.3 0 0 1 1.4 3.1V124H44Zm168 127.7a4.3 4.3 0 0 1-1.4 3.1a4.2 4.2 0 0 1-3.3.8l-160-29a4.1 4.1 0 0 1-3.3-4V132h168Z"></path></svg>