<svg xmlns="http://www.w3.org/2000/svg" xmlns:xlink="http://www.w3.org/1999/xlink" aria-hidden="true" role="img" class="iconify iconify--ph" width="1em" height="1em" preserveAspectRatio="xMidYMid meet" viewBox="0 0 256 256"><path fill="currentColor" d="M127.9 80a32 32 0 1 0-32-32a32.1 32.1 0 0 0 32 32Zm0-48a16 16 0 1 1-16 16a16 16 0 0 1 16-16Zm103 100.1a8.1 8.1 0 0 1-6.9 3.9a8.7 8.7 0 0 1-4.1-1.1c-.4-.3-35.1-20.6-83.9-22.7V149l62 69.7a8 8 0 0 1-.7 11.3a8.1 8.1 0 0 1-5.3 2a8 8 0 0 1-6-2.7L128 164l-58 65.3a8 8 0 0 1-12-10.6l62-69.7v-36.8c-49 2.1-83.5 22.4-83.9 22.7a8 8 0 0 1-8.2-13.8C29.6 120.1 70.4 96 128 96s98.4 24.1 100.1 25.1a8.1 8.1 0 0 1 2.8 11Z"></path></svg>