<svg xmlns="http://www.w3.org/2000/svg" xmlns:xlink="http://www.w3.org/1999/xlink" aria-hidden="true" role="img" class="iconify iconify--ph" width="1em" height="1em" preserveAspectRatio="xMidYMid meet" viewBox="0 0 256 256"><path fill="currentColor" d="M127.9 78a30 30 0 1 0-30-30a30.1 30.1 0 0 0 30 30Zm0-48a18 18 0 1 1-18 18a18.1 18.1 0 0 1 18-18Zm101.2 101.1a5.9 5.9 0 0 1-8.2 2c-.4-.2-36.5-21.4-86.9-23v39.6l62.5 70.3a6 6 0 0 1-.5 8.5a6.2 6.2 0 0 1-4 1.5a6.1 6.1 0 0 1-4.5-2L128 161l-59.5 67a6 6 0 0 1-9-8l62.5-70.3v-39.6c-50.4 1.6-86.5 22.8-86.9 23a6 6 0 1 1-6.2-10.2C30.6 121.8 71 98 128 98s97.4 23.8 99.1 24.9a6 6 0 0 1 2 8.2Z"></path></svg>