<svg xmlns="http://www.w3.org/2000/svg" xmlns:xlink="http://www.w3.org/1999/xlink" aria-hidden="true" role="img" class="iconify iconify--ph" width="1em" height="1em" preserveAspectRatio="xMidYMid meet" viewBox="0 0 256 256"><path fill="currentColor" d="M32 120v16H16a8 8 0 0 1 0-16Zm0 57.3a16 16 0 0 0 13.1 15.8l160 29.1l2.9.2a16.5 16.5 0 0 0 10.3-3.7a16.1 16.1 0 0 0 5.7-12.3V136H32ZM240 120h-16v16h16a8 8 0 0 0 0-16Zm-16-70.4a16.1 16.1 0 0 0-5.7-12.3a16.6 16.6 0 0 0-13.2-3.5l-160 29.1A16 16 0 0 0 32 78.7V120h192Z"></path></svg>