<svg xmlns="http://www.w3.org/2000/svg" xmlns:xlink="http://www.w3.org/1999/xlink" aria-hidden="true" role="img" class="iconify iconify--ph" width="1em" height="1em" preserveAspectRatio="xMidYMid meet" viewBox="0 0 256 256"><path fill="currentColor" d="M164 44a36 36 0 1 0-36 36a36 36 0 0 0 36-36Zm-36 20a20 20 0 1 1 20-20a20.1 20.1 0 0 1-20 20Zm83.8 75.5l-39.3-50.6l-.7-.7A27.8 27.8 0 0 0 152 80h-48a27.8 27.8 0 0 0-19.8 8.2l-.7.7l-39.3 50.6a20 20 0 0 0 28.3 28.3l14.1-11l-19.8 62.7a19.7 19.7 0 0 0-.5 14.7a20.2 20.2 0 0 0 10.4 11.3a19.8 19.8 0 0 0 15.3.7a20.4 20.4 0 0 0 11-9.8l25-39.4l25 39.4a20.4 20.4 0 0 0 11 9.8a20.9 20.9 0 0 0 6.9 1.2a19.1 19.1 0 0 0 8.4-1.9a20.2 20.2 0 0 0 10.4-11.3a19.7 19.7 0 0 0-.5-14.7l-19.8-62.7l14.1 11a20 20 0 0 0 28.3-28.3Zm-11.7 16.6a4.2 4.2 0 0 1-5.7 0l-.7-.7l-34.8-27a8 8 0 0 0-12.5 8.7l27.7 87.6a10.4 10.4 0 0 0 .4 1a3.5 3.5 0 0 1 .1 3a3.8 3.8 0 0 1-2 2.3a3.7 3.7 0 0 1-3.1.1a3.7 3.7 0 0 1-2.2-2a4.1 4.1 0 0 1-.5-.9l-32-50.4a8.1 8.1 0 0 0-13.6 0l-32 50.4a4.1 4.1 0 0 1-.5.9a3.7 3.7 0 0 1-2.2 2a3.7 3.7 0 0 1-3.1-.1a3.8 3.8 0 0 1-2-2.3a3.5 3.5 0 0 1 .1-3a10.4 10.4 0 0 0 .4-1l27.7-87.6a8 8 0 0 0-3.1-9a7.8 7.8 0 0 0-9.4.3l-34.8 27l-.7.7a4 4 0 0 1-5.7-5.7l.7-.7l39.2-50.5A11.9 11.9 0 0 1 104 96h48a11.9 11.9 0 0 1 8.2 3.2l39.2 50.5l.7.7a4.1 4.1 0 0 1 1.2 2.9a4.1 4.1 0 0 1-1.2 2.8Z"></path></svg>