<svg xmlns="http://www.w3.org/2000/svg" xmlns:xlink="http://www.w3.org/1999/xlink" aria-hidden="true" role="img" class="iconify iconify--ph" width="1em" height="1em" preserveAspectRatio="xMidYMid meet" viewBox="0 0 256 256"><path fill="currentColor" d="M152 84a28 28 0 1 0-28-28a28.1 28.1 0 0 0 28 28Zm0-48a20 20 0 1 1-20 20a20.1 20.1 0 0 1 20-20Zm67 100.2l-.3.3l-.3.2l-.4.3h-.1c-.6.3-7 3.5-18.3 3.5c-13.8 0-35-4.7-62.2-24.9a162.6 162.6 0 0 1-20.1 42.9c9.4 2.6 23.1 7.5 35.1 16.7c18.3 13.9 27.6 33 27.6 56.7a4 4 0 0 1-8 0c0-15.9-5.9-53.8-59.7-66.4l-1.2 1.5c-19.2 24.6-43.4 37.3-70.6 37.3c-2.9 0-5.9-.1-8.9-.4a4 4 0 0 1 .8-8c28.3 2.8 52.7-8.5 72.4-33.8l2.6-3.3c13.2-18.1 20.6-38 23.2-48.3c-42.9-31.5-70.7-7.1-71.9-6h-.2l-.4.3l-.2.2l-.5.2H55l-.7-.2l-.6-.4h-.1l-.5-.4H53l-.4-.6h-.1l-.2-.5a.4.4 0 0 1-.1-.3a.7.7 0 0 1-.1-.5a.4.4 0 0 1-.1-.3v-.7a.8.8 0 0 0 .1-.4c0-.1.1-.3.1-.4s.1-.2.1-.4s.2-.2.2-.3l.2-.3l.2-.3l.3-.3a.1.1 0 0 0 .1-.1c.3-.3 9-8.2 23.9-11.1c24.7-4.7 46.9 7.7 61.3 18.9c47.4 37.1 75.4 23.7 75.7 23.6h.6c0-.1.1-.1.2-.1h1.5l.7.2a.9.9 0 0 1 .7.3l.6.4h.1l.5.5l.4.6a1.3 1.3 0 0 1 .3.7a6.4 6.4 0 0 1 .2.7v.8a.7.7 0 0 1-.1.5v.3a.8.8 0 0 0-.2.4l-.2.3l-.2.3Z"></path></svg>