<svg xmlns="http://www.w3.org/2000/svg" xmlns:xlink="http://www.w3.org/1999/xlink" aria-hidden="true" role="img" class="iconify iconify--ph" width="1em" height="1em" preserveAspectRatio="xMidYMid meet" viewBox="0 0 256 256"><path fill="currentColor" d="m222 158.4l-46.9-20a15.6 15.6 0 0 0-15.1 1.3l-25.1 16.7a76.5 76.5 0 0 1-35.2-35L116.3 96a15.9 15.9 0 0 0 1.4-15.1L97.6 34a16.3 16.3 0 0 0-16.7-9.6A56.2 56.2 0 0 0 32 80c0 79.4 64.6 144 144 144a56.2 56.2 0 0 0 55.6-48.9a16.3 16.3 0 0 0-9.6-16.7ZM176 208A128.1 128.1 0 0 1 48 80a40 40 0 0 1 34.9-39.7L103 87.2l-16.7 25.4a16 16 0 0 0-1 15.7a92.5 92.5 0 0 0 42.8 42.6a16 16 0 0 0 15.7-1.1l25-16.7l46.9 20A40 40 0 0 1 176 208ZM154.3 90.3L172.7 72l-18.4-18.3a8.1 8.1 0 0 1 11.4-11.4L184 60.7l18.3-18.4a8.1 8.1 0 0 1 11.4 11.4L195.3 72l18.4 18.3a8.1 8.1 0 0 1 0 11.4a8.2 8.2 0 0 1-11.4 0L184 83.3l-18.3 18.4a8.2 8.2 0 0 1-11.4 0a8.1 8.1 0 0 1 0-11.4Z"></path></svg>