<svg xmlns="http://www.w3.org/2000/svg" xmlns:xlink="http://www.w3.org/1999/xlink" aria-hidden="true" role="img" class="iconify iconify--ph" width="1em" height="1em" preserveAspectRatio="xMidYMid meet" viewBox="0 0 256 256"><path fill="currentColor" d="M231.6 175.1A56.2 56.2 0 0 1 176 224C96.6 224 32 159.4 32 80a56.2 56.2 0 0 1 48.9-55.6A16.3 16.3 0 0 1 97.6 34l20.1 46.9a15.9 15.9 0 0 1-1.4 15.1l-16.6 25.4a76.5 76.5 0 0 0 35.2 35l25.1-16.7a15.6 15.6 0 0 1 15.1-1.3l46.9 20a16.3 16.3 0 0 1 9.6 16.7Zm-79.5-78a.9.9 0 0 0 .1.5v.3a.8.8 0 0 1 .1.4l.2.4c0 .1.1.2.1.4l.2.3c0 .1.1.2.1.4l.2.3l.3.3l.2.3a.8.8 0 0 0 .2.4c.1.1.3.2.4.4a.3.3 0 0 1 .1.2h.2l.4.4l.4.2l.3.3l.3.2l.3.2h.4l.3.2h.4l.4.2H200a8 8 0 0 0 0-16h-20.7l34.4-34.3a8.1 8.1 0 0 0-11.4-11.4l-34.3 35V56a8 8 0 0 0-16 0v40.8a.4.4 0 0 1 .1.3Z"></path></svg>