<svg xmlns="http://www.w3.org/2000/svg" xmlns:xlink="http://www.w3.org/1999/xlink" aria-hidden="true" role="img" class="iconify iconify--ph" width="1em" height="1em" preserveAspectRatio="xMidYMid meet" viewBox="0 0 256 256"><path fill="currentColor" d="M155.4 117.3a83.9 83.9 0 0 0-55.1.1a8 8 0 0 0-5.2 5.9l-5.8 29.5a8.2 8.2 0 0 1-4.9 5.9l-47.3 18.9a7.9 7.9 0 0 1-9.3-2.5a48 48 0 0 1 4-63.3a136.1 136.1 0 0 1 192.4 0a48 48 0 0 1 4 63.3a7.9 7.9 0 0 1-9.3 2.5l-47.3-18.9a8.2 8.2 0 0 1-4.9-5.8l-6.2-29.7a7.9 7.9 0 0 0-5.1-5.9Z" opacity=".2"></path><path fill="currentColor" d="M120.9 108.3L89.8 74h-.1L53.9 34.6a8 8 0 0 0-11.8 10.8L70 76.1a143.9 143.9 0 0 0-43.8 30.1a56.1 56.1 0 0 0-4.7 73.9a16.2 16.2 0 0 0 12.6 6.1a17.1 17.1 0 0 0 5.9-1.1l47.4-19a16 16 0 0 0 9.7-11.7l5.9-29.5a72.1 72.1 0 0 1 9.1-2.5l90 99a8 8 0 0 0 5.9 2.6a8.2 8.2 0 0 0 5.4-2.1a7.9 7.9 0 0 0 .5-11.3Zm-23.3 1.5a16.1 16.1 0 0 0-10.3 12l-5.9 29.5l-47.3 18.9a40 40 0 0 1 3.4-52.7a126.8 126.8 0 0 1 44-28.8l18.5 20.4Zm132.2-3.6a144.4 144.4 0 0 0-109.7-42a8 8 0 1 0 .9 16a128 128 0 0 1 97.5 37.3a40 40 0 0 1 3.4 52.7l-4-1.6a8 8 0 0 0-6 14.8l4.1 1.7a17.1 17.1 0 0 0 5.9 1.1a16.2 16.2 0 0 0 12.6-6.1a56.1 56.1 0 0 0-4.7-73.9Z"></path></svg>