<svg xmlns="http://www.w3.org/2000/svg" xmlns:xlink="http://www.w3.org/1999/xlink" aria-hidden="true" role="img" class="iconify iconify--ph" width="1em" height="1em" preserveAspectRatio="xMidYMid meet" viewBox="0 0 256 256"><path fill="currentColor" d="m123.8 105.6l-31-34.1a.1.1 0 0 1-.1-.1L56.9 31.9a12 12 0 0 0-17.8 16.2l24.3 26.7a147.4 147.4 0 0 0-40.1 28.5a60.2 60.2 0 0 0-5 79.2a20 20 0 0 0 15.8 7.7a21.1 21.1 0 0 0 7.4-1.4l47.3-19a19.9 19.9 0 0 0 12.2-14.6l5.5-27.2a33.1 33.1 0 0 1 4.2-1.2l88.4 97.3a12.1 12.1 0 0 0 17 .8a12.1 12.1 0 0 0 .8-17ZM83.4 121l-5.5 27.4l-42.4 16.9a36.1 36.1 0 0 1 4.8-45a123.8 123.8 0 0 1 40.1-26.8l12.7 14a20 20 0 0 0-9.7 13.5Zm154.3 61.5a22.4 22.4 0 0 1-4.5 4.2a12 12 0 0 1-14.1-19.4a36.1 36.1 0 0 0-3.4-47A124.1 124.1 0 0 0 130.9 84a12 12 0 0 1 .3-24h.3a147.7 147.7 0 0 1 101.2 43.3a60.2 60.2 0 0 1 5 79.2Z"></path></svg>