<svg xmlns="http://www.w3.org/2000/svg" xmlns:xlink="http://www.w3.org/1999/xlink" aria-hidden="true" role="img" class="iconify iconify--ph" width="1em" height="1em" preserveAspectRatio="xMidYMid meet" viewBox="0 0 256 256"><path fill="currentColor" d="m223.5 154.8l-46.8-20.1a20.1 20.1 0 0 0-19 1.7l-23.1 15.4a72.3 72.3 0 0 1-30.3-30.2l15.4-23.4a19.9 19.9 0 0 0 1.6-18.9l-20.1-46.8a19.9 19.9 0 0 0-20.8-12A60 60 0 0 0 28 80c0 81.6 66.4 148 148 148a60 60 0 0 0 59.5-52.4a19.9 19.9 0 0 0-12-20.8ZM176 204A124.1 124.1 0 0 1 52 80a36 36 0 0 1 28.4-35.2l18 42L83 110.4a19.8 19.8 0 0 0-1.3 19.7a96.5 96.5 0 0 0 44.6 44.4a20.1 20.1 0 0 0 19.7-1.4l23.2-15.5l42 18A36 36 0 0 1 176 204ZM151.5 87.5L167 72l-15.5-15.5a12 12 0 0 1 17-17L184 55l15.5-15.5a12 12 0 0 1 17 17L201 72l15.5 15.5a12 12 0 0 1 0 17a12.1 12.1 0 0 1-17 0L184 89l-15.5 15.5a12.1 12.1 0 0 1-17 0a12 12 0 0 1 0-17Z"></path></svg>