<svg xmlns="http://www.w3.org/2000/svg" xmlns:xlink="http://www.w3.org/1999/xlink" aria-hidden="true" role="img" class="iconify iconify--ph" width="1em" height="1em" preserveAspectRatio="xMidYMid meet" viewBox="0 0 256 256"><path fill="currentColor" d="M231.6 175.1A56.2 56.2 0 0 1 176 224C96.6 224 32 159.4 32 80a56.2 56.2 0 0 1 48.9-55.6A16.3 16.3 0 0 1 97.6 34l20.1 46.9a15.9 15.9 0 0 1-1.4 15.1l-16.6 25.4a76.5 76.5 0 0 0 35.2 35l25.1-16.7a15.6 15.6 0 0 1 15.1-1.3l46.9 20a16.3 16.3 0 0 1 9.6 16.7Zm-77.3-73.4a8.2 8.2 0 0 0 11.4 0L184 83.3l18.3 18.4a8.2 8.2 0 0 0 11.4 0a8.1 8.1 0 0 0 0-11.4L195.3 72l18.4-18.3a8.1 8.1 0 0 0-11.4-11.4L184 60.7l-18.3-18.4a8.1 8.1 0 0 0-11.4 11.4L172.7 72l-18.4 18.3a8.1 8.1 0 0 0 0 11.4Z"></path></svg>