<svg xmlns="http://www.w3.org/2000/svg" xmlns:xlink="http://www.w3.org/1999/xlink" aria-hidden="true" role="img" class="iconify iconify--ph" width="1em" height="1em" preserveAspectRatio="xMidYMid meet" viewBox="0 0 256 256"><path fill="currentColor" d="M88.3 75.4h-.1L52.4 36a5.9 5.9 0 0 0-8.8 8l29.8 32.9a140.8 140.8 0 0 0-45.8 30.7a54 54 0 0 0-4.5 71.2a13.9 13.9 0 0 0 16.2 4.4l47.3-18.9a13.9 13.9 0 0 0 8.5-10.3l5.9-29.5a2.3 2.3 0 0 1 1.2-1.5a78.8 78.8 0 0 1 10.6-2.8l90.8 99.8a5.9 5.9 0 0 0 4.4 2a5.7 5.7 0 0 0 4-1.6a5.8 5.8 0 0 0 .4-8.4Zm10 36.3a13.8 13.8 0 0 0-9 10.5l-5.9 29.5a2 2 0 0 1-1.3 1.4l-47.3 19a2.2 2.2 0 0 1-2.3-.6a42 42 0 0 1 3.6-55.4A128.3 128.3 0 0 1 82 86.4l21.6 23.7Zm134.6 67.1a13.9 13.9 0 0 1-16.2 4.4l-4-1.6a6 6 0 1 1 4.4-11.2l4.1 1.7a2.2 2.2 0 0 0 2.3-.6a42 42 0 0 0-3.6-55.4a130.2 130.2 0 0 0-99-37.9a6 6 0 1 1-.7-12a142.2 142.2 0 0 1 108.2 41.4a54 54 0 0 1 4.5 71.2Z"></path></svg>