<svg xmlns="http://www.w3.org/2000/svg" xmlns:xlink="http://www.w3.org/1999/xlink" aria-hidden="true" role="img" class="iconify iconify--ph" width="1em" height="1em" preserveAspectRatio="xMidYMid meet" viewBox="0 0 256 256"><path fill="currentColor" d="M92.5 124.8a83.6 83.6 0 0 0 39 38.9a8 8 0 0 0 7.9-.6l25-16.7a7.9 7.9 0 0 1 7.6-.7l46.8 20.1a7.9 7.9 0 0 1 4.8 8.3A48 48 0 0 1 176 216A136 136 0 0 1 40 80a48 48 0 0 1 41.9-47.6a7.9 7.9 0 0 1 8.3 4.8l20.1 46.9a8 8 0 0 1-.6 7.5L93 117a8 8 0 0 0-.5 7.8Z" opacity=".2"></path><path fill="currentColor" d="m222 158.4l-46.9-20a15.6 15.6 0 0 0-15.1 1.3l-25.1 16.7a76.5 76.5 0 0 1-35.2-35L116.3 96a15.9 15.9 0 0 0 1.4-15.1L97.6 34a16.3 16.3 0 0 0-16.7-9.6A56.2 56.2 0 0 0 32 80c0 79.4 64.6 144 144 144a56.2 56.2 0 0 0 55.6-48.9a16.3 16.3 0 0 0-9.6-16.7ZM176 208A128.1 128.1 0 0 1 48 80a40 40 0 0 1 34.9-39.7L103 87.2l-16.7 25.4a16 16 0 0 0-1 15.7a92.5 92.5 0 0 0 42.8 42.6a16 16 0 0 0 15.7-1.1l25-16.7l46.9 20A40 40 0 0 1 176 208ZM157.4 47.7a72.6 72.6 0 0 1 50.9 50.9a8 8 0 0 0 7.7 6a7.6 7.6 0 0 0 2.1-.3a7.9 7.9 0 0 0 5.6-9.8a88 88 0 0 0-62.2-62.2a8 8 0 1 0-4.1 15.4Zm-8.3 30.9a40.4 40.4 0 0 1 28.3 28.3a7.9 7.9 0 0 0 7.7 6a6.4 6.4 0 0 0 2-.3a7.9 7.9 0 0 0 5.7-9.8a55.8 55.8 0 0 0-39.6-39.6a8 8 0 1 0-4.1 15.4Z"></path></svg>