<svg xmlns="http://www.w3.org/2000/svg" xmlns:xlink="http://www.w3.org/1999/xlink" aria-hidden="true" role="img" class="iconify iconify--ph" width="1em" height="1em" preserveAspectRatio="xMidYMid meet" viewBox="0 0 256 256"><path fill="currentColor" d="M147.8 36.9a12 12 0 0 1 14.7-8.5a92.3 92.3 0 0 1 65.1 65.1a12 12 0 0 1-8.5 14.7a11 11 0 0 1-3.1.4a12.1 12.1 0 0 1-11.6-8.9a68 68 0 0 0-48.1-48.1a12 12 0 0 1-8.5-14.7Zm87.7 138.7A60 60 0 0 1 176 228C94.4 228 28 161.6 28 80a60 60 0 0 1 52.4-59.5a19.9 19.9 0 0 1 20.8 12l20.1 46.8a19.9 19.9 0 0 1-1.6 18.9l-15.4 23.4a72.3 72.3 0 0 0 30.3 30.2l23.1-15.4a20.1 20.1 0 0 1 19-1.7l46.8 20.1a19.9 19.9 0 0 1 12 20.8Zm-24.3 0l-42-18l-23.2 15.5a20.1 20.1 0 0 1-19.7 1.4a96.5 96.5 0 0 1-44.6-44.4a19.8 19.8 0 0 1 1.3-19.7l15.4-23.6l-18-42A36 36 0 0 0 52 80a124.1 124.1 0 0 0 124 124a36 36 0 0 0 35.2-28.4Zm-65.6-86.1a31.7 31.7 0 0 1 20.9 20.9a12.1 12.1 0 0 0 11.5 8.4a11.3 11.3 0 0 0 3.6-.6a11.9 11.9 0 0 0 7.8-15a55.8 55.8 0 0 0-36.6-36.6a12 12 0 0 0-7.2 22.9Z"></path></svg>