<svg xmlns="http://www.w3.org/2000/svg" xmlns:xlink="http://www.w3.org/1999/xlink" aria-hidden="true" role="img" class="iconify iconify--ph" width="1em" height="1em" preserveAspectRatio="xMidYMid meet" viewBox="0 0 256 256"><path fill="currentColor" d="M155.4 101.3a83.9 83.9 0 0 0-55.1.1a8 8 0 0 0-5.2 5.9l-5.8 29.5a8.2 8.2 0 0 1-4.9 5.9l-47.3 18.9a7.9 7.9 0 0 1-9.3-2.5a48 48 0 0 1 4-63.3a136.1 136.1 0 0 1 192.4 0a48 48 0 0 1 4 63.3a7.9 7.9 0 0 1-9.3 2.5l-47.3-18.9a8.2 8.2 0 0 1-4.9-5.8l-6.2-29.7a7.9 7.9 0 0 0-5.1-5.9Z" opacity=".2"></path><path fill="currentColor" d="M229.8 90.2C173.7 34 82.3 34 26.2 90.2a56.1 56.1 0 0 0-4.7 73.9a16.2 16.2 0 0 0 12.6 6.1a17.1 17.1 0 0 0 5.9-1.1l47.4-19a16 16 0 0 0 9.7-11.7l5.9-29.5a76.3 76.3 0 0 1 49.7-.1l6.2 29.7a15.9 15.9 0 0 0 9.7 11.6l47.4 19a16.1 16.1 0 0 0 18.5-5a56.1 56.1 0 0 0-4.7-73.9Zm-7.9 64l-47.3-18.9l-6.3-29.8A15.8 15.8 0 0 0 158 93.7a92.6 92.6 0 0 0-60.4.1a16.1 16.1 0 0 0-10.3 12l-5.9 29.5l-47.3 18.9a40 40 0 0 1 3.4-52.7a128.2 128.2 0 0 1 181 0a40 40 0 0 1 3.4 52.7ZM216 192H40a8 8 0 0 0 0 16h176a8 8 0 0 0 0-16Z"></path></svg>