<svg xmlns="http://www.w3.org/2000/svg" xmlns:xlink="http://www.w3.org/1999/xlink" aria-hidden="true" role="img" class="iconify iconify--ph" width="1em" height="1em" preserveAspectRatio="xMidYMid meet" viewBox="0 0 256 256"><path fill="currentColor" d="M220.4 162.1L173.6 142a11.9 11.9 0 0 0-11.4 1.1l-25.1 16.7a3.7 3.7 0 0 1-3.8.3a79.9 79.9 0 0 1-37.2-37a3.9 3.9 0 0 1 .3-3.9L113 93.8a12 12 0 0 0 1-11.3L93.9 35.6a12.1 12.1 0 0 0-12.5-7.2A52.1 52.1 0 0 0 36 80c0 77.2 62.8 140 140 140a52.1 52.1 0 0 0 51.6-45.4a12.1 12.1 0 0 0-7.2-12.5Zm-.7 11.5A44.1 44.1 0 0 1 176 212A132.1 132.1 0 0 1 44 80a44.1 44.1 0 0 1 38.4-43.7h.5a3.9 3.9 0 0 1 3.6 2.5l20.1 46.8a3.9 3.9 0 0 1-.3 3.8l-16.6 25.4a12.1 12.1 0 0 0-.8 11.8a88.6 88.6 0 0 0 40.9 40.7a11.9 11.9 0 0 0 11.8-.9l25-16.7a4.2 4.2 0 0 1 3.8-.3l46.8 20.1a4 4 0 0 1 2.5 4.1Zm-62.5-80.4L178.3 72l-21.1-21.2a4 4 0 0 1 5.6-5.6L184 66.3l21.2-21.1a4 4 0 1 1 5.6 5.6L189.7 72l21.1 21.2a3.9 3.9 0 0 1 0 5.6a3.9 3.9 0 0 1-5.6 0L184 77.7l-21.2 21.1a3.9 3.9 0 0 1-5.6 0a3.9 3.9 0 0 1 0-5.6Z"></path></svg>