<svg xmlns="http://www.w3.org/2000/svg" xmlns:xlink="http://www.w3.org/1999/xlink" aria-hidden="true" role="img" class="iconify iconify--ph" width="1em" height="1em" preserveAspectRatio="xMidYMid meet" viewBox="0 0 256 256"><path fill="currentColor" d="M232.7 87.3a148.3 148.3 0 0 0-209.4 0a60.2 60.2 0 0 0-5 79.2a20 20 0 0 0 15.8 7.7a21.1 21.1 0 0 0 7.4-1.4l47.3-19a19.9 19.9 0 0 0 12.2-14.6l5.5-27.2a71.5 71.5 0 0 1 42.7-.1l5.8 27.4a19.8 19.8 0 0 0 12.1 14.5l47.4 19a20 20 0 0 0 23.2-6.3a60.2 60.2 0 0 0-5-79.2Zm-12.2 62l-42.5-17l-5.7-27.6a20.3 20.3 0 0 0-13-14.8a97.1 97.1 0 0 0-63 .1a20.1 20.1 0 0 0-12.9 15l-5.5 27.4l-42.4 16.9a36.1 36.1 0 0 1 4.8-45a124.3 124.3 0 0 1 175.4 0a36.1 36.1 0 0 1 4.8 45ZM228 200a12 12 0 0 1-12 12H40a12 12 0 0 1 0-24h176a12 12 0 0 1 12 12Z"></path></svg>