<svg xmlns="http://www.w3.org/2000/svg" xmlns:xlink="http://www.w3.org/1999/xlink" aria-hidden="true" role="img" class="iconify iconify--ph" width="1em" height="1em" preserveAspectRatio="xMidYMid meet" viewBox="0 0 256 256"><path fill="currentColor" d="M231.6 175.1A56.2 56.2 0 0 1 176 224C96.6 224 32 159.4 32 80a56.2 56.2 0 0 1 48.9-55.6A16.3 16.3 0 0 1 97.6 34l20.1 46.9a15.9 15.9 0 0 1-1.4 15.1l-16.6 25.4a76.5 76.5 0 0 0 35.2 35l25.1-16.7a15.6 15.6 0 0 1 15.1-1.3l46.9 20a16.3 16.3 0 0 1 9.6 16.7ZM160 104a8.5 8.5 0 0 0 5.7-2.3L200 67.3V88a8 8 0 0 0 16 0V48a8 8 0 0 0-8-8h-40a8 8 0 0 0 0 16h20.7l-34.4 34.3a8.1 8.1 0 0 0 0 11.4a8.5 8.5 0 0 0 5.7 2.3Z"></path></svg>