<svg xmlns="http://www.w3.org/2000/svg" xmlns:xlink="http://www.w3.org/1999/xlink" aria-hidden="true" role="img" class="iconify iconify--ph" width="1em" height="1em" preserveAspectRatio="xMidYMid meet" viewBox="0 0 256 256"><path fill="currentColor" d="M153.6 38.5a6.1 6.1 0 0 1 7.4-4.3A86.1 86.1 0 0 1 221.8 95a6 6 0 0 1-4.3 7.4l-1.5.2a6 6 0 0 1-5.8-4.5a74.3 74.3 0 0 0-52.3-52.3a6.1 6.1 0 0 1-4.3-7.3Zm-4 38.2a42.4 42.4 0 0 1 29.7 29.7a6 6 0 0 0 5.8 4.5l1.5-.2a6.2 6.2 0 0 0 4.3-7.4a54.2 54.2 0 0 0-38.2-38.2a6.2 6.2 0 0 0-7.4 4.3a6 6 0 0 0 4.3 7.3Zm80 98.1A54.1 54.1 0 0 1 176 222C97.7 222 34 158.3 34 80a54.1 54.1 0 0 1 47.2-53.6a14 14 0 0 1 14.5 8.4l20.1 46.9a14.1 14.1 0 0 1-1.1 13.2L98 120.3a2.1 2.1 0 0 0-.1 1.9a78.2 78.2 0 0 0 36.2 36.1a1.9 1.9 0 0 0 1.9-.2l25.1-16.7a13.8 13.8 0 0 1 13.2-1.2l46.9 20.1a14 14 0 0 1 8.4 14.5Zm-11.9-1.5a2 2 0 0 0-1.2-2l-46.9-20.1a2.1 2.1 0 0 0-1.9.2l-25 16.7a14.2 14.2 0 0 1-13.8 1a90.8 90.8 0 0 1-41.8-41.7a14 14 0 0 1 .9-13.7l16.6-25.4a1.9 1.9 0 0 0 .2-1.9L84.7 39.5a2 2 0 0 0-1.8-1.2h-.2A42.2 42.2 0 0 0 46 80a130.1 130.1 0 0 0 130 130a42.2 42.2 0 0 0 41.7-36.7Z"></path></svg>