<svg xmlns="http://www.w3.org/2000/svg" xmlns:xlink="http://www.w3.org/1999/xlink" aria-hidden="true" role="img" class="iconify iconify--ph" width="1em" height="1em" preserveAspectRatio="xMidYMid meet" viewBox="0 0 256 256"><path fill="currentColor" d="M220 98a78.1 78.1 0 0 0-78-78H68a12 12 0 0 0-12 12v132a78.1 78.1 0 0 0 78 78a12 12 0 0 0 12-12v-54.1A78.1 78.1 0 0 0 220 98ZM80 82.8l34.6 69.2H80Zm42 30.4L87.4 44H122ZM81.4 176H122v40.7A53.9 53.9 0 0 1 81.4 176Zm64.6-24.2V44.2a53.9 53.9 0 0 1 0 107.6Z"></path></svg>