<svg xmlns="http://www.w3.org/2000/svg" xmlns:xlink="http://www.w3.org/1999/xlink" aria-hidden="true" role="img" class="iconify iconify--ph" width="1em" height="1em" preserveAspectRatio="xMidYMid meet" viewBox="0 0 256 256"><path fill="currentColor" d="M208 36H48a12 12 0 0 0-12 12v160a12 12 0 0 0 12 12h160a12 12 0 0 0 12-12V48a12 12 0 0 0-12-12ZM76 44h32v96H76Zm36 104a4 4 0 0 0 4-4V44h24v100a4 4 0 0 0 4 4h16v64H96v-64Zm36-8V44h32v96ZM44 208V48a4 4 0 0 1 4-4h20v100a4 4 0 0 0 4 4h16v64H48a4 4 0 0 1-4-4Zm168 0a4 4 0 0 1-4 4h-40v-64h16a4 4 0 0 0 4-4V44h20a4 4 0 0 1 4 4Z"></path></svg>