<svg xmlns="http://www.w3.org/2000/svg" xmlns:xlink="http://www.w3.org/1999/xlink" aria-hidden="true" role="img" class="iconify iconify--ph" width="1em" height="1em" preserveAspectRatio="xMidYMid meet" viewBox="0 0 256 256"><path fill="currentColor" d="M184 40v104h-40V40ZM72 144h40V40H72Z" opacity=".2"></path><path fill="currentColor" d="M208 32H48a16 16 0 0 0-16 16v160a16 16 0 0 0 16 16h160a16 16 0 0 0 16-16V48a16 16 0 0 0-16-16ZM80 48h24v88H80Zm32 104a8 8 0 0 0 8-8V48h16v96a8 8 0 0 0 8 8h12v56h-56v-56Zm40-16V48h24v88ZM48 48h16v96a8 8 0 0 0 8 8h12v56H48Zm160 160h-36v-56h12a8 8 0 0 0 8-8V48h16v160Z"></path></svg>