<svg xmlns="http://www.w3.org/2000/svg" xmlns:xlink="http://www.w3.org/1999/xlink" aria-hidden="true" role="img" class="iconify iconify--ph" width="1em" height="1em" preserveAspectRatio="xMidYMid meet" viewBox="0 0 256 256"><path fill="currentColor" d="M208 28H48a20.1 20.1 0 0 0-20 20v160a20.1 20.1 0 0 0 20 20h160a20.1 20.1 0 0 0 20-20V48a20.1 20.1 0 0 0-20-20Zm-92 104H92V52h24Zm12 24h16v48h-32v-48Zm36-24h-24V52h24ZM52 52h16v92a12 12 0 0 0 12 12h8v48H52Zm152 152h-36v-48h8a12 12 0 0 0 12-12V52h16Z"></path></svg>