<svg xmlns="http://www.w3.org/2000/svg" xmlns:xlink="http://www.w3.org/1999/xlink" aria-hidden="true" role="img" class="iconify iconify--ph" width="1em" height="1em" preserveAspectRatio="xMidYMid meet" viewBox="0 0 256 256"><path fill="currentColor" d="M208 34H48a14 14 0 0 0-14 14v160a14 14 0 0 0 14 14h160a14 14 0 0 0 14-14V48a14 14 0 0 0-14-14ZM78 46h28v92H78Zm34 104a6 6 0 0 0 6-6V46h20v98a6 6 0 0 0 6 6h14v60H98v-60Zm38-12V46h28v92ZM46 208V48a2 2 0 0 1 2-2h18v98a6 6 0 0 0 6 6h14v60H48a2 2 0 0 1-2-2Zm164 0a2 2 0 0 1-2 2h-38v-60h14a6 6 0 0 0 6-6V46h18a2 2 0 0 1 2 2Z"></path></svg>