<svg xmlns="http://www.w3.org/2000/svg" xmlns:xlink="http://www.w3.org/1999/xlink" aria-hidden="true" role="img" class="iconify iconify--ph" width="1em" height="1em" preserveAspectRatio="xMidYMid meet" viewBox="0 0 256 256"><path fill="currentColor" d="M216 56H40a8 8 0 0 0-8 8v128a8 8 0 0 0 8 8h96v-64a8 8 0 0 1 8-8h80V64a8 8 0 0 0-8-8Z" opacity=".2"></path><path fill="currentColor" d="M216 48H40a16 16 0 0 0-16 16v128a16 16 0 0 0 16 16h176a16 16 0 0 0 16-16V64a16 16 0 0 0-16-16ZM40 64h176v56h-72a16 16 0 0 0-16 16v56H40Zm176 128h-72v-56h72v56Z"></path></svg>