<svg xmlns="http://www.w3.org/2000/svg" xmlns:xlink="http://www.w3.org/1999/xlink" aria-hidden="true" role="img" class="iconify iconify--ph" width="1em" height="1em" preserveAspectRatio="xMidYMid meet" viewBox="0 0 256 256"><path fill="currentColor" d="M190.2 82.9a7.9 7.9 0 0 1-.2 11.3l-24.4 23.6a7.9 7.9 0 0 1-11.3-.2a7.9 7.9 0 0 1 .2-11.3l24.4-23.6a8 8 0 0 1 11.3.2Zm23.5 34.8l-96 96a53.3 53.3 0 0 1-75.4-75.4l96-96a53.3 53.3 0 0 1 75.4 75.4Zm-11.4-64a36.9 36.9 0 0 0-52.6 0L107.3 96l52.7 52.7l42.3-42.4a37.1 37.1 0 0 0 0-52.6Z"></path></svg>