<svg xmlns="http://www.w3.org/2000/svg" xmlns:xlink="http://www.w3.org/1999/xlink" aria-hidden="true" role="img" class="iconify iconify--ph" width="1em" height="1em" preserveAspectRatio="xMidYMid meet" viewBox="0 0 256 256"><path fill="currentColor" d="M216.5 39.5a57.2 57.2 0 0 0-81 0l-96 96a57.3 57.3 0 1 0 81 81l96-96a57.4 57.4 0 0 0 0-81Zm-113 160a33.2 33.2 0 0 1-47-47L96 113l47 47Zm96-96L160 143l-47-47l39.5-39.5a33.2 33.2 0 0 1 47 47Zm-14.3-23.3a11.9 11.9 0 0 1-.5 17l-16.4 15.6a12 12 0 0 1-16.5-17.4l16.4-15.6a12 12 0 0 1 17 .4Z"></path></svg>