<svg xmlns="http://www.w3.org/2000/svg" xmlns:xlink="http://www.w3.org/1999/xlink" aria-hidden="true" role="img" class="iconify iconify--ph" width="1em" height="1em" preserveAspectRatio="xMidYMid meet" viewBox="0 0 256 256"><path fill="currentColor" d="M210.8 45.2a49 49 0 0 0-69.6 0l-96 96a49.2 49.2 0 1 0 69.6 69.6l96-96a49.3 49.3 0 0 0 0-69.6Zm-101.6 160a41.3 41.3 0 0 1-58.4-58.4L96 101.7l58.3 58.3Zm96-96L160 154.3L101.7 96l45.1-45.2a41.3 41.3 0 0 1 58.4 58.4Zm-17.8-23.5a4.1 4.1 0 0 1-.1 5.7l-24.5 23.5a3.6 3.6 0 0 1-2.7 1.2a3.7 3.7 0 0 1-2.9-1.3a4 4 0 0 1 .1-5.6l24.4-23.6a4.1 4.1 0 0 1 5.7.1Z"></path></svg>