<svg xmlns="http://www.w3.org/2000/svg" xmlns:xlink="http://www.w3.org/1999/xlink" aria-hidden="true" role="img" class="iconify iconify--ph" width="1em" height="1em" preserveAspectRatio="xMidYMid meet" viewBox="0 0 256 256"><path fill="currentColor" d="M213.7 42.3a53.4 53.4 0 0 0-75.4 0l-96 96a53.3 53.3 0 0 0 75.4 75.4l48-48l48-48a53.5 53.5 0 0 0 0-75.4Zm-107.4 160a36.9 36.9 0 0 1-52.6 0a37.1 37.1 0 0 1 0-52.6L96 107.3l52.7 52.7Zm96-96L160 148.7L107.3 96l42.4-42.3a36.9 36.9 0 0 1 52.6 0a37.1 37.1 0 0 1 0 52.6Zm-12.1-23.4a7.9 7.9 0 0 1-.2 11.3l-24.4 23.6a7.9 7.9 0 0 1-11.3-.2a7.9 7.9 0 0 1 .2-11.3l24.4-23.6a8.1 8.1 0 0 1 11.3.2Z"></path></svg>