<svg xmlns="http://www.w3.org/2000/svg" xmlns:xlink="http://www.w3.org/1999/xlink" aria-hidden="true" role="img" class="iconify iconify--ph" width="1em" height="1em" preserveAspectRatio="xMidYMid meet" viewBox="0 0 256 256"><path fill="currentColor" d="M212 112c0 21.5-7.5 41.2-21.1 55.3S161.2 188 144 188c-21.4 0-33.5-8.8-39.8-15.6l-12.3 52.5A3.9 3.9 0 0 1 88 228h-.9a4 4 0 0 1-3-4.8l32-136a4 4 0 0 1 7.8 1.8l-17.3 73.5c2.4 4 12.3 17.6 37.4 17.6c29.5 0 60-25.4 60-68a76 76 0 0 0-152 0a74.8 74.8 0 0 0 12.9 42.3a4 4 0 1 1-6.7 4.5A84 84 0 1 1 212 112Z"></path></svg>