<svg xmlns="http://www.w3.org/2000/svg" xmlns:xlink="http://www.w3.org/1999/xlink" aria-hidden="true" role="img" class="iconify iconify--ph" width="1em" height="1em" preserveAspectRatio="xMidYMid meet" viewBox="0 0 256 256"><path fill="currentColor" d="M216 112c0 22.6-7.9 43.2-22.2 58.1S162.2 192 144 192s-29.8-5.9-37.4-12l-10.8 45.8A8.1 8.1 0 0 1 88 232l-1.8-.2a8 8 0 0 1-6-9.6l32-136a8 8 0 1 1 15.6 3.6l-16.9 71.8C114 166 123.3 176 144 176c27.5 0 56-23.9 56-64a72 72 0 1 0-131.8 40.1a8 8 0 0 1-2.2 11.1a7.9 7.9 0 0 1-11.1-2.2A88 88 0 1 1 216 112Z"></path></svg>