<svg xmlns="http://www.w3.org/2000/svg" xmlns:xlink="http://www.w3.org/1999/xlink" aria-hidden="true" role="img" class="iconify iconify--ph" width="1em" height="1em" preserveAspectRatio="xMidYMid meet" viewBox="0 0 256 256"><path fill="currentColor" d="M220 112c0 23.6-8.3 45.2-23.4 60.9S163.3 196 144 196c-15.5 0-26.8-4.2-34.9-9.3l-9.4 40A12 12 0 0 1 88 236a12.4 12.4 0 0 1-2.7-.3a12 12 0 0 1-9-14.4l32-136a12 12 0 1 1 23.4 5.4l-16.5 70c3.5 4.2 12 11.3 28.8 11.3c25.6 0 52-22.4 52-60a68 68 0 1 0-124.5 37.9a12 12 0 1 1-19.9 13.3A92 92 0 1 1 220 112Z"></path></svg>