<svg xmlns="http://www.w3.org/2000/svg" xmlns:xlink="http://www.w3.org/1999/xlink" aria-hidden="true" role="img" class="iconify iconify--ph" width="1em" height="1em" preserveAspectRatio="xMidYMid meet" viewBox="0 0 256 256"><path fill="currentColor" d="m124.8 109.7l-97.7 35.6a52 52 0 0 1 97.7-35.6Zm88.1-15l-97.7 35.6a52 52 0 0 0 97.7-35.6Z" opacity=".2"></path><path fill="currentColor" d="m229.7 218.3l-48.4-48.4l3.3-1a59.6 59.6 0 0 0 33.9-31.1a60.4 60.4 0 0 0 2-45.9a8.4 8.4 0 0 0-4.2-4.5a7.6 7.6 0 0 0-6.1-.2l-44.4 16.1l1-2a60 60 0 0 0-74.9-81.8a8.4 8.4 0 0 0-4.5 4.2a7.6 7.6 0 0 0-.2 6.1l16.1 44.4l-2-1a60 60 0 0 0-81.8 74.9a8.4 8.4 0 0 0 4.2 4.5a7.7 7.7 0 0 0 3.4.7a6.5 6.5 0 0 0 2.7-.5l44.4-16.1l-1 2a60 60 0 0 0 54.3 85.4a61.2 61.2 0 0 0 20.6-3.6a8.4 8.4 0 0 0 4.5-4.2a7.6 7.6 0 0 0 .2-6.1l-16.1-44.4l2 1a59.6 59.6 0 0 0 22.4 5.6l57.2 57.3a8.2 8.2 0 0 0 11.4 0a8.1 8.1 0 0 0 0-11.4ZM131.1 36a44.2 44.2 0 0 1 3.7 77.9l-29.6-81.4a43.8 43.8 0 0 1 25.9 3.5ZM120 120Zm-87.5 14.8a44.2 44.2 0 0 1 43.4-51.3a43.2 43.2 0 0 1 18.6 4.2a43.9 43.9 0 0 1 19.4 17.5Zm76.4 69.2a44.2 44.2 0 0 1-3.7-77.9l29.6 81.4a43.8 43.8 0 0 1-25.9-3.5Zm55.6-47.5h-.2a44.4 44.4 0 0 1-18.8-4.2a43.9 43.9 0 0 1-19.4-17.5l81.4-29.6a43.8 43.8 0 0 1-28.4 48.6a45.4 45.4 0 0 1-14.6 2.7Z"></path></svg>