<svg xmlns="http://www.w3.org/2000/svg" xmlns:xlink="http://www.w3.org/1999/xlink" aria-hidden="true" role="img" class="iconify iconify--ph" width="1em" height="1em" preserveAspectRatio="xMidYMid meet" viewBox="0 0 256 256"><path fill="currentColor" d="m228.2 219.8l-50.8-50.9a48.4 48.4 0 0 0 6.5-1.9a58.2 58.2 0 0 0 34.7-74.4a6.5 6.5 0 0 0-3.1-3.4a6.6 6.6 0 0 0-4.6-.2l-49.5 18.1a61.9 61.9 0 0 0 3.6-6.7a58 58 0 0 0-72.4-79a6.5 6.5 0 0 0-3.4 3.1a6.6 6.6 0 0 0-.2 4.6l18.1 49.5a61.9 61.9 0 0 0-6.7-3.6a58 58 0 0 0-79 72.4a6.5 6.5 0 0 0 3.1 3.4a7.5 7.5 0 0 0 2.6.5l2-.3l49.5-18.1a61.9 61.9 0 0 0-3.6 6.7a58.1 58.1 0 0 0 52.5 82.5a59.6 59.6 0 0 0 19.9-3.5a6.5 6.5 0 0 0 3.4-3.1a6.6 6.6 0 0 0 .2-4.6l-18.1-49.5a61.9 61.9 0 0 0 6.7 3.6a55 55 0 0 0 22.4 5.4l57.8 57.8a5.9 5.9 0 0 0 8.4-8.4ZM131.9 34.2a45.9 45.9 0 0 1 1.8 82.5L102.5 31a45.9 45.9 0 0 1 29.4 3.2Zm-97.7 73.9a45.8 45.8 0 0 1 26-23.8a44.8 44.8 0 0 1 15.7-2.8a47.3 47.3 0 0 1 19.5 4.3a45.5 45.5 0 0 1 21.3 20.5L31 137.5a45.9 45.9 0 0 1 3.2-29.4Zm73.9 97.7a45.9 45.9 0 0 1-1.8-82.5l31.2 85.7a45.9 45.9 0 0 1-29.4-3.2Zm9.3-87l3.8-1.4l1.4 3.8l-3.8 1.4Zm5.9 14.9l85.7-31.2a46 46 0 0 1-29.2 53.2a47.5 47.5 0 0 1-15.3 2.8h-.1a47.4 47.4 0 0 1-19.8-4.3a45.5 45.5 0 0 1-21.3-20.5Z"></path></svg>