<svg xmlns="http://www.w3.org/2000/svg" xmlns:xlink="http://www.w3.org/1999/xlink" aria-hidden="true" role="img" class="iconify iconify--ph" width="1em" height="1em" preserveAspectRatio="xMidYMid meet" viewBox="0 0 256 256"><path fill="currentColor" d="m226.8 221.2l-53.4-53.5a56.7 56.7 0 0 0 9.8-2.6a56.1 56.1 0 0 0 33.5-71.8a3.8 3.8 0 0 0-2.1-2.2a3.9 3.9 0 0 0-3-.2L156 111.1a54.3 54.3 0 0 0 7.2-11.5a56 56 0 0 0-69.9-76.3a3.8 3.8 0 0 0-2.2 2.1a3.9 3.9 0 0 0-.2 3L111.1 84a54.3 54.3 0 0 0-11.5-7.2a56 56 0 0 0-76.3 69.9a3.8 3.8 0 0 0 2.1 2.2a3.3 3.3 0 0 0 1.7.4l1.3-.2L84 128.9a54.3 54.3 0 0 0-7.2 11.5a56 56 0 0 0 69.9 76.3a3.8 3.8 0 0 0 2.2-2.1a3.9 3.9 0 0 0 .2-3L128.9 156a54.3 54.3 0 0 0 11.5 7.2a55.7 55.7 0 0 0 22.4 5.3l58.4 58.3a3.9 3.9 0 0 0 5.6 0a3.9 3.9 0 0 0 0-5.6Zm-94-188.8a48 48 0 0 1-.2 87.1L99.9 29.6a48 48 0 0 1 32.9 2.8ZM32.4 107.2a47.9 47.9 0 0 1 27.1-24.8a49.3 49.3 0 0 1 16.4-2.9a48 48 0 0 1 43.6 27.9l-89.9 32.7a48 48 0 0 1 2.8-32.9Zm74.8 100.4a48 48 0 0 1 .2-87.1l32.7 89.9a48 48 0 0 1-32.9-2.8Zm7.7-90l7.5-2.7l2.7 7.5l-7.5 2.7Zm5.6 15l89.9-32.7a47.9 47.9 0 0 1-29.9 57.7a49.1 49.1 0 0 1-16 2.9h-.1a49.7 49.7 0 0 1-20.6-4.5a47.8 47.8 0 0 1-23.3-23.4Z"></path></svg>