<svg xmlns="http://www.w3.org/2000/svg" xmlns:xlink="http://www.w3.org/1999/xlink" aria-hidden="true" role="img" class="iconify iconify--ph" width="1em" height="1em" preserveAspectRatio="xMidYMid meet" viewBox="0 0 256 256"><path fill="currentColor" d="M239.3 80a16 16 0 0 0-4.2-21.6a183.9 183.9 0 0 0-214.2 0A16 16 0 0 0 16.7 80l97.8 153.7a16 16 0 0 0 27 0l58.4-91.8h.1ZM30.2 71.4a168 168 0 0 1 195.6 0l-8.6 13.5a152.1 152.1 0 0 0-178.4 0l-8.6-13.5Zm36.9 58A19.8 19.8 0 0 1 84 120a20 20 0 0 1 2.5 39.8Zm60.9 95.7l-32.5-51A36 36 0 0 0 84 104a35.6 35.6 0 0 0-26 11.1L47.4 98.5a135.8 135.8 0 0 1 161.2 0l-17.3 27.1a36 36 0 0 0-38.6 60.8Zm33.3-52.3A19.9 19.9 0 0 1 172 136a20.2 20.2 0 0 1 10.7 3.1Z"></path></svg>