<svg xmlns="http://www.w3.org/2000/svg" xmlns:xlink="http://www.w3.org/1999/xlink" aria-hidden="true" role="img" class="iconify iconify--ph" width="1em" height="1em" preserveAspectRatio="xMidYMid meet" viewBox="0 0 256 256"><path fill="currentColor" d="M242.7 82.1a20 20 0 0 0-5.3-27a188 188 0 0 0-218.8 0a20 20 0 0 0-5.3 27l65.4 102.8v.2l32.3 50.7a20 20 0 0 0 33.8 0l24.6-38.7h.1ZM152 164a16 16 0 0 1 16-16a17.5 17.5 0 0 1 4 .5l-16.3 25.7A15.6 15.6 0 0 1 152 164ZM128 44a162.6 162.6 0 0 1 92.4 28.5L211.8 86a148 148 0 0 0-167.6 0l-8.6-13.5A162.6 162.6 0 0 1 128 44ZM92.5 161.9l-16.2-25.5a22.1 22.1 0 0 1 3.7-.4a16 16 0 0 1 16 16a15.7 15.7 0 0 1-3.5 9.9Zm13.2 20.7A40 40 0 0 0 80 112a38.6 38.6 0 0 0-16.8 3.8l-6.1-9.5a123.9 123.9 0 0 1 141.8 0l-13.8 21.6a40 40 0 0 0-42.6 67L128 217.6Z"></path></svg>