<svg xmlns="http://www.w3.org/2000/svg" xmlns:xlink="http://www.w3.org/1999/xlink" aria-hidden="true" role="img" class="iconify iconify--ph" width="1em" height="1em" preserveAspectRatio="xMidYMid meet" viewBox="0 0 256 256"><path fill="currentColor" d="M235.1 58.4a183.9 183.9 0 0 0-214.2 0A16 16 0 0 0 16.7 80l97.8 153.7a16 16 0 0 0 27 0l58.4-91.8h.1L239.3 80a16 16 0 0 0-4.2-21.6Zm-43.8 67.2a36 36 0 0 0-38.6 60.8L128 225.1l-32.5-51A36 36 0 0 0 84 104a35.6 35.6 0 0 0-26 11.1L47.4 98.5a135.8 135.8 0 0 1 161.2 0Z"></path></svg>