<svg xmlns="http://www.w3.org/2000/svg" xmlns:xlink="http://www.w3.org/1999/xlink" aria-hidden="true" role="img" class="iconify iconify--ph" width="1em" height="1em" preserveAspectRatio="xMidYMid meet" viewBox="0 0 256 256"><path fill="currentColor" d="M232.8 61.6a180.2 180.2 0 0 0-209.6 0a11.9 11.9 0 0 0-3.1 16.2l97.8 153.7a11.9 11.9 0 0 0 20.2 0l97.8-153.7a11.9 11.9 0 0 0-3.1-16.2ZM62.4 129.5A23.8 23.8 0 0 1 84 116a24 24 0 0 1 .4 48Zm69 97.7a4 4 0 0 1-6.8 0l-35.4-55.6a32 32 0 1 0-31.6-49.7L42.1 97.5a139.8 139.8 0 0 1 171.8 0l-21.5 33.8a32 32 0 1 0-34.1 53.6Zm31.3-49.1a24 24 0 1 1 25.4-39.9Zm66.5-104.6l-10.9 17.2a148.2 148.2 0 0 0-180.6 0L26.8 73.5a4.1 4.1 0 0 1 1.1-5.4a172.1 172.1 0 0 1 200.2 0a4.1 4.1 0 0 1 1.1 5.4Z"></path></svg>