<svg xmlns="http://www.w3.org/2000/svg" xmlns:xlink="http://www.w3.org/1999/xlink" aria-hidden="true" role="img" class="iconify iconify--ph" width="1em" height="1em" preserveAspectRatio="xMidYMid meet" viewBox="0 0 256 256"><path fill="currentColor" d="M222 48a14 14 0 0 0-14-14H48a13.8 13.8 0 0 0-9.8 4a.1.1 0 0 1-.1.1a.1.1 0 0 1-.1.1a13.8 13.8 0 0 0-4 9.8v160a14 14 0 0 0 14 14h160a13.8 13.8 0 0 0 9.8-4h.2a13.8 13.8 0 0 0 4-9.8Zm-12 0v153.5L54.5 46H208a2 2 0 0 1 2 2ZM46 208V54.5L201.5 210H48a2 2 0 0 1-2-2Z"></path></svg>