<svg xmlns="http://www.w3.org/2000/svg" xmlns:xlink="http://www.w3.org/1999/xlink" aria-hidden="true" role="img" class="iconify iconify--ph" width="1em" height="1em" preserveAspectRatio="xMidYMid meet" viewBox="0 0 256 256"><path fill="currentColor" d="M220 48a12 12 0 0 0-12-12H48a12 12 0 0 0-8.4 3.4a.1.1 0 0 1-.1.1a.1.1 0 0 1-.1.1A12 12 0 0 0 36 48v160a12 12 0 0 0 12 12h160a12 12 0 0 0 8.4-3.4h.2a12 12 0 0 0 3.4-8.6Zm-8 0v158.3L49.7 44H208a4 4 0 0 1 4 4ZM44 208V49.7L206.3 212H48a4 4 0 0 1-4-4Z"></path></svg>