<svg xmlns="http://www.w3.org/2000/svg" xmlns:xlink="http://www.w3.org/1999/xlink" aria-hidden="true" role="img" class="iconify iconify--ph" width="1em" height="1em" preserveAspectRatio="xMidYMid meet" viewBox="0 0 256 256"><path fill="currentColor" d="M249.2 58c-6.4-11.1-23.3-21.4-67.5-9.5A95.9 95.9 0 0 0 32 128c0 2.3.1 4.6.2 6.8C-.1 167.1.4 186.9 6.8 198s19.3 14.7 33.3 14.7a127 127 0 0 0 26.3-3.2l7.8-2A96 96 0 0 0 224 128c0-2.3-.1-4.6-.2-6.8l5.6-5.8c14.8-16.2 30.3-39.2 19.8-57.4ZM128 56a72.2 72.2 0 0 1 70.3 56.3C183 126 163.6 139.8 142 152.2S98.8 174.6 79.3 181A72 72 0 0 1 128 56ZM27.5 186c-1-1.8.7-9.6 11.2-22.7a96.5 96.5 0 0 0 14.1 24.3c-18 2.9-24.6-.4-25.3-1.6ZM128 200a71.5 71.5 0 0 1-21.8-3.4A390.9 390.9 0 0 0 154 173a387.6 387.6 0 0 0 44.3-29.6A72.1 72.1 0 0 1 128 200Zm89.3-107.3a96.5 96.5 0 0 0-14.1-24.3c16.6-2.7 24.2-.2 25.3 1.6s.3 8.5-11.2 22.7Z"></path></svg>