<svg xmlns="http://www.w3.org/2000/svg" xmlns:xlink="http://www.w3.org/1999/xlink" aria-hidden="true" role="img" class="iconify iconify--ph" width="1em" height="1em" preserveAspectRatio="xMidYMid meet" viewBox="0 0 256 256"><path fill="currentColor" d="M223.3 116a117.3 117.3 0 0 1 .7 12a96 96 0 0 1-154 76.5c24.6-6.2 53.5-18.5 82-34.9s53.6-35.4 71.3-53.6Zm22.5-56c-5.5-9.5-20.3-18.4-59.8-8.5A96 96 0 0 0 32 128a117.3 117.3 0 0 0 .7 12c-28.3 29.2-27.9 46.5-22.5 56c3.7 6.4 11.9 12.8 29.8 12.8a121.7 121.7 0 0 0 25.5-3.2l4.5-1.1a105 105 0 0 1-14.2-13.3c-18.7 3.3-29.3 1-31.7-3.2c-1.5-2.6-.7-7.5 2.3-13.4A85.7 85.7 0 0 1 37.1 159a95.2 95.2 0 0 0 18.7 32.2l6.2-1.3c24-5.3 53.1-17.5 82-34.2s54-35.8 70.6-53.9a62 62 0 0 0 4.3-4.8a95.2 95.2 0 0 0-18.7-32.2a83.9 83.9 0 0 1 19-1.5c6.6.4 11.2 2.1 12.7 4.7c2.4 4.2-.9 14.5-13 29a107.3 107.3 0 0 1 4.4 19l3.1-3.3c25.3-27.5 24.5-43.8 19.4-52.7Z"></path></svg>