<svg xmlns="http://www.w3.org/2000/svg" xmlns:xlink="http://www.w3.org/1999/xlink" aria-hidden="true" role="img" class="iconify iconify--ph" width="1em" height="1em" preserveAspectRatio="xMidYMid meet" viewBox="0 0 256 256"><path fill="currentColor" d="M216 128a88 88 0 1 1-88-88a88 88 0 0 1 88 88Z" opacity=".2"></path><path fill="currentColor" d="M245.8 60c-5.5-9.5-20.3-18.4-59.8-8.5A96 96 0 0 0 32 128a117.3 117.3 0 0 0 .7 12c-28.3 29.2-27.9 46.5-22.5 56c3.7 6.4 11.9 12.8 29.8 12.8a121.7 121.7 0 0 0 25.5-3.2l4.5-1.1A96 96 0 0 0 224 128a117.3 117.3 0 0 0-.7-12l3.1-3.3c25.3-27.5 24.5-43.8 19.4-52.7ZM128 48a80.2 80.2 0 0 1 78.1 62.5c-16.2 15.4-37.8 31.2-62.1 45.2s-48.7 24.9-70.1 31.1A79.9 79.9 0 0 1 128 48ZM24.1 188c-1.5-2.6-.7-7.5 2.3-13.4A85.7 85.7 0 0 1 37.1 159a95.2 95.2 0 0 0 18.7 32.2c-18.7 3.3-29.3 1-31.7-3.2ZM128 208a79.6 79.6 0 0 1-37.9-9.6c19.6-6.8 40.8-16.7 61.9-28.8a373.3 373.3 0 0 0 55.9-39.2A80 80 0 0 1 128 208Zm72.2-143.2a83.9 83.9 0 0 1 19-1.5c6.6.4 11.2 2.1 12.7 4.7c2.4 4.2-.9 14.5-13 29a95.2 95.2 0 0 0-18.7-32.2Z"></path></svg>