<svg xmlns="http://www.w3.org/2000/svg" xmlns:xlink="http://www.w3.org/1999/xlink" aria-hidden="true" role="img" class="iconify iconify--ph" width="1em" height="1em" preserveAspectRatio="xMidYMid meet" viewBox="0 0 256 256"><path fill="currentColor" d="M80 230a14.1 14.1 0 0 1-14-14V40a14 14 0 0 1 21.3-11.9l144 88a13.9 13.9 0 0 1 0 23.8l-144 88A14 14 0 0 1 80 230Zm0-192a1.5 1.5 0 0 0-1 .3a1.8 1.8 0 0 0-1 1.7v176a1.8 1.8 0 0 0 1 1.7a2 2 0 0 0 2 0l144-88a1.9 1.9 0 0 0 0-3.4l-144-88a1.9 1.9 0 0 0-1-.3Z"></path></svg>