<svg xmlns="http://www.w3.org/2000/svg" xmlns:xlink="http://www.w3.org/1999/xlink" aria-hidden="true" role="img" class="iconify iconify--ph" width="1em" height="1em" preserveAspectRatio="xMidYMid meet" viewBox="0 0 256 256"><path fill="currentColor" d="M36 64a4 4 0 0 1 4-4h176a4 4 0 0 1 0 8H40a4 4 0 0 1-4-4Zm4 68h120a4 4 0 0 0 0-8H40a4 4 0 0 0 0 8Zm72 56H40a4 4 0 0 0 0 8h72a4 4 0 0 0 0-8Zm131.8-62.9a3.8 3.8 0 0 1-4.9 2.7L204 117.4V192a28 28 0 1 1-8-19.6V112a3.9 3.9 0 0 1 1.6-3.2a3.7 3.7 0 0 1 3.5-.6l40 12a3.8 3.8 0 0 1 2.7 4.9ZM196 192a20 20 0 1 0-20 20a20.1 20.1 0 0 0 20-20Z"></path></svg>