<svg xmlns="http://www.w3.org/2000/svg" xmlns:xlink="http://www.w3.org/1999/xlink" aria-hidden="true" role="img" class="iconify iconify--ph" width="1em" height="1em" preserveAspectRatio="xMidYMid meet" viewBox="0 0 256 256"><path fill="currentColor" d="M80 228a12.6 12.6 0 0 1-5.9-1.5A12 12 0 0 1 68 216V40a11.9 11.9 0 0 1 18.3-10.2l143.9 88a11.9 11.9 0 0 1 0 20.4l-143.9 88A12.1 12.1 0 0 1 80 228Zm0-192a4.4 4.4 0 0 0-2 .5a4.1 4.1 0 0 0-2 3.5v176a4.1 4.1 0 0 0 2 3.5a4.2 4.2 0 0 0 4.1-.1l144-88a4 4 0 0 0 0-6.8l-144-88A3.6 3.6 0 0 0 80 36Z"></path></svg>