<svg xmlns="http://www.w3.org/2000/svg" xmlns:xlink="http://www.w3.org/1999/xlink" aria-hidden="true" role="img" class="iconify iconify--ph" width="1em" height="1em" preserveAspectRatio="xMidYMid meet" viewBox="0 0 256 256"><path fill="currentColor" d="M34 64a6 6 0 0 1 6-6h176a6 6 0 0 1 0 12H40a6 6 0 0 1-6-6Zm6 70h120a6 6 0 0 0 0-12H40a6 6 0 0 0 0 12Zm72 52H40a6 6 0 0 0 0 12h72a6 6 0 0 0 0-12Zm133.7-60.3a5.9 5.9 0 0 1-7.4 4l-32.3-9.6V192a30 30 0 1 1-30-30a29.7 29.7 0 0 1 18 6v-56a6 6 0 0 1 2.4-4.8a5.9 5.9 0 0 1 5.3-.9l40 12a5.9 5.9 0 0 1 4 7.4ZM194 192a18 18 0 1 0-18 18a18.1 18.1 0 0 0 18-18Z"></path></svg>