<svg xmlns="http://www.w3.org/2000/svg" xmlns:xlink="http://www.w3.org/1999/xlink" aria-hidden="true" role="img" class="iconify iconify--ph" width="1em" height="1em" preserveAspectRatio="xMidYMid meet" viewBox="0 0 256 256"><path fill="currentColor" d="M28 64a12 12 0 0 1 12-12h176a12 12 0 0 1 0 24H40a12 12 0 0 1-12-12Zm12 76h120a12 12 0 0 0 0-24H40a12 12 0 0 0 0 24Zm72 40H40a12 12 0 0 0 0 24h72a12 12 0 0 0 0-24Zm139.5-52.6a12 12 0 0 1-14.9 8.1l-24.6-7.4V192a36 36 0 1 1-36-36a34.4 34.4 0 0 1 12 2.1V112a12 12 0 0 1 15.4-11.5l40 12a12 12 0 0 1 8.1 14.9ZM188 192a12 12 0 1 0-12 12a12 12 0 0 0 12-12Z"></path></svg>