<svg xmlns="http://www.w3.org/2000/svg" xmlns:xlink="http://www.w3.org/1999/xlink" aria-hidden="true" role="img" class="iconify iconify--ph" width="1em" height="1em" preserveAspectRatio="xMidYMid meet" viewBox="0 0 256 256"><path fill="currentColor" d="M200 192a24 24 0 1 1-24-24a23.9 23.9 0 0 1 24 24Z" opacity=".2"></path><path fill="currentColor" d="m242.3 116.3l-40-12a8.2 8.2 0 0 0-7.1 1.3a8.1 8.1 0 0 0-3.2 6.4v52.3a32 32 0 1 0 16 27.7v-69.2l29.7 8.9a8 8 0 1 0 4.6-15.4ZM176 208a16 16 0 1 1 16-16a16 16 0 0 1-16 16ZM32 64a8 8 0 0 1 8-8h176a8 8 0 0 1 0 16H40a8 8 0 0 1-8-8Zm0 64a8 8 0 0 1 8-8h120a8 8 0 0 1 0 16H40a8 8 0 0 1-8-8Zm88 64a8 8 0 0 1-8 8H40a8 8 0 0 1 0-16h72a8 8 0 0 1 8 8Z"></path></svg>