<svg xmlns="http://www.w3.org/2000/svg" xmlns:xlink="http://www.w3.org/1999/xlink" aria-hidden="true" role="img" class="iconify iconify--ph" width="1em" height="1em" preserveAspectRatio="xMidYMid meet" viewBox="0 0 256 256"><path fill="currentColor" d="M234.8 21.2a3.9 3.9 0 0 0-5.6 0L176 74.3l-8.2-8.2a28 28 0 0 0-39.6 0L100 94.3l-5.2-5.1a4 4 0 0 0-5.6 5.6l5.1 5.2l-28.2 28.2a28.1 28.1 0 0 0 0 39.6l8.2 8.2l-53.1 53.2a3.9 3.9 0 0 0 0 5.6a3.9 3.9 0 0 0 5.6 0L80 181.7l8.2 8.2a28 28 0 0 0 39.6 0l28.2-28.2l5.2 5.1a3.9 3.9 0 0 0 5.6 0a3.9 3.9 0 0 0 0-5.6l-5.1-5.2l28.2-28.2a28.1 28.1 0 0 0 0-39.6l-8.2-8.2l53.1-53.2a3.9 3.9 0 0 0 0-5.6Zm-112.7 163a19.9 19.9 0 0 1-28.2 0l-22.1-22.1a19.9 19.9 0 0 1 0-28.2l28.2-28.2l50.3 50.3Zm62.1-62.1L156 150.3L105.7 100l28.2-28.2a20 20 0 0 1 28.2 0l22.1 22.1a19.9 19.9 0 0 1 0 28.2Zm43.6 39.2a4.1 4.1 0 0 1-3.8 2.7l-1.3-.2l-24-8a4 4 0 1 1 2.6-7.6l24 8a4 4 0 0 1 2.5 5.1ZM28.2 94.7a4 4 0 0 1 5.1-2.5l24 8a4 4 0 0 1 2.5 5.1A4.1 4.1 0 0 1 56 108l-1.3-.2l-24-8a4 4 0 0 1-2.5-5.1Zm64-61.4a4 4 0 0 1 7.6-2.6l8 24a4 4 0 0 1-2.5 5.1l-1.3.2a4.1 4.1 0 0 1-3.8-2.7Zm71.6 189.4a4 4 0 0 1-2.5 5.1l-1.3.2a4.1 4.1 0 0 1-3.8-2.7l-8-24a4 4 0 1 1 7.6-2.6Z"></path></svg>