<svg xmlns="http://www.w3.org/2000/svg" xmlns:xlink="http://www.w3.org/1999/xlink" aria-hidden="true" role="img" class="iconify iconify--ph" width="1em" height="1em" preserveAspectRatio="xMidYMid meet" viewBox="0 0 256 256"><path fill="currentColor" d="M237.7 29.7L211.3 56l5.4 5.4a31.9 31.9 0 0 1 0 45.2L191.3 132l2.4 2.3a8.1 8.1 0 0 1 0 11.4a8.2 8.2 0 0 1-11.4 0l-8-8l-56-56l-8-8a8.1 8.1 0 0 1 11.4-11.4l2.3 2.4l25.4-25.4a31.9 31.9 0 0 1 45.2 0l5.4 5.4l26.3-26.4a8.1 8.1 0 0 1 11.4 11.4Zm-99.4 108.6L120 156.7L99.3 136l18.4-18.3a8.1 8.1 0 0 0-11.4-11.4L88 124.7l-6.3-6.4l-8-8a8.1 8.1 0 0 0-11.4 11.4l2.4 2.3l-25.4 25.4a31.9 31.9 0 0 0 0 45.2l5.4 5.4l-26.4 26.3a8.1 8.1 0 0 0 0 11.4a8.2 8.2 0 0 0 11.4 0L56 211.3l5.4 5.4a31.9 31.9 0 0 0 45.2 0l25.4-25.4l2.3 2.4a8.2 8.2 0 0 0 11.4 0a8.1 8.1 0 0 0 0-11.4l-8-8l-6.4-6.3l18.4-18.3a8.1 8.1 0 0 0-11.4-11.4Z"></path></svg>