<svg xmlns="http://www.w3.org/2000/svg" xmlns:xlink="http://www.w3.org/1999/xlink" aria-hidden="true" role="img" class="iconify iconify--ph" width="1em" height="1em" preserveAspectRatio="xMidYMid meet" viewBox="0 0 256 256"><path fill="currentColor" d="M236.2 19.8a5.8 5.8 0 0 0-8.4 0L200 47.5l-6.8-6.8a30 30 0 0 0-42.4 0L124 67.5l-3.8-3.7a5.9 5.9 0 0 0-8.4 8.4l72 72a5.9 5.9 0 0 0 8.4-8.4l-3.7-3.8l26.8-26.8a30 30 0 0 0 0-42.4l-6.8-6.8l27.7-27.8a5.8 5.8 0 0 0 0-8.4Zm-29.4 76.9L180 123.5L132.5 76l26.8-26.8a18 18 0 0 1 25.4 0l22.1 22.1a18 18 0 0 1 0 25.4Zm-67 43.1L120 159.5L96.5 136l19.7-19.8a5.9 5.9 0 0 0-8.4-8.4L88 127.5l-15.8-15.7a5.9 5.9 0 0 0-8.4 8.4l3.7 3.8l-26.8 26.8a30 30 0 0 0 0 42.4l6.8 6.8l-27.7 27.8a5.9 5.9 0 1 0 8.4 8.4L56 208.5l6.8 6.8a30.2 30.2 0 0 0 42.4 0l26.8-26.8l3.8 3.7a5.9 5.9 0 0 0 8.4-8.4L128.5 168l19.7-19.8a5.9 5.9 0 0 0-8.4-8.4Zm-43.1 67a18 18 0 0 1-25.4 0l-22.1-22.1a18 18 0 0 1 0-25.4L76 132.5l47.5 47.5Z"></path></svg>