<svg xmlns="http://www.w3.org/2000/svg" xmlns:xlink="http://www.w3.org/1999/xlink" aria-hidden="true" role="img" class="iconify iconify--ph" width="1em" height="1em" preserveAspectRatio="xMidYMid meet" viewBox="0 0 256 256"><path fill="currentColor" d="M236.2 19.8a5.8 5.8 0 0 0-8.4 0L176 71.5l-6.8-6.8a29.9 29.9 0 0 0-42.4 0L100 91.5l-3.8-3.7a5.9 5.9 0 0 0-8.4 8.4l3.7 3.8l-26.8 26.8a29.9 29.9 0 0 0 0 42.4l6.8 6.8l-51.7 51.8a5.9 5.9 0 1 0 8.4 8.4L80 184.5l6.8 6.8a30.2 30.2 0 0 0 42.4 0l26.8-26.8l3.8 3.7a5.9 5.9 0 0 0 8.4-8.4l-3.7-3.8l26.8-26.8a30 30 0 0 0 0-42.4l-6.8-6.8l51.7-51.8a5.8 5.8 0 0 0 0-8.4Zm-115.5 163a17.9 17.9 0 0 1-25.4 0l-22.1-22.1a17.9 17.9 0 0 1 0-25.4l26.8-26.8l47.5 47.5Zm62.1-62.1L156 147.5L108.5 100l26.8-26.8a17.9 17.9 0 0 1 25.4 0l22.1 22.1a17.9 17.9 0 0 1 0 25.4Zm46.9 41.2a6 6 0 0 1-5.7 4.1a6.3 6.3 0 0 1-1.9-.3l-24-8a6 6 0 0 1 3.8-11.4l24 8a6.1 6.1 0 0 1 3.8 7.6ZM26.3 94.1a6.1 6.1 0 0 1 7.6-3.8l24 8a6.1 6.1 0 0 1 3.8 7.6A6 6 0 0 1 56 110a6.3 6.3 0 0 1-1.9-.3l-24-8a6.1 6.1 0 0 1-3.8-7.6Zm64-60.2a6 6 0 0 1 11.4-3.8l8 24a6.1 6.1 0 0 1-3.8 7.6a6.3 6.3 0 0 1-1.9.3a6 6 0 0 1-5.7-4.1Zm75.4 188.2a6.1 6.1 0 0 1-3.8 7.6a6.3 6.3 0 0 1-1.9.3a6 6 0 0 1-5.7-4.1l-8-24a6 6 0 0 1 11.4-3.8Z"></path></svg>