<svg xmlns="http://www.w3.org/2000/svg" xmlns:xlink="http://www.w3.org/1999/xlink" aria-hidden="true" role="img" class="iconify iconify--ph" width="1em" height="1em" preserveAspectRatio="xMidYMid meet" viewBox="0 0 256 256"><path fill="currentColor" d="M234.8 69.2a3.9 3.9 0 0 0-5.6 0L192 106.3L149.7 64l37.1-37.2a4 4 0 0 0-5.6-5.6L144 58.3l-29.2-29.1a4 4 0 0 0-5.6 5.6l9.1 9.2l-54.5 54.5a36.2 36.2 0 0 0 0 51L82.3 168l-53.1 53.2a3.9 3.9 0 0 0 0 5.6a3.9 3.9 0 0 0 5.6 0L88 173.7l18.5 18.5a36.2 36.2 0 0 0 51 0l54.5-54.5l9.2 9.1a3.9 3.9 0 0 0 5.6 0a3.9 3.9 0 0 0 0-5.6L197.7 112l37.1-37.2a3.9 3.9 0 0 0 0-5.6Zm-83 117.3a27.9 27.9 0 0 1-39.6 0l-42.7-42.7a27.9 27.9 0 0 1 0-39.6L124 49.7l82.3 82.3Z"></path></svg>