<svg xmlns="http://www.w3.org/2000/svg" xmlns:xlink="http://www.w3.org/1999/xlink" aria-hidden="true" role="img" class="iconify iconify--ph" width="1em" height="1em" preserveAspectRatio="xMidYMid meet" viewBox="0 0 256 256"><path fill="currentColor" d="M237.7 18.3a8.1 8.1 0 0 0-11.4 0L200 44.7l-5.4-5.4a31.9 31.9 0 0 0-45.2 0L124 64.7l-2.3-2.4a8.1 8.1 0 0 0-11.4 11.4l72 72a8.2 8.2 0 0 0 11.4 0a8.1 8.1 0 0 0 0-11.4l-2.4-2.3l25.4-25.4a31.9 31.9 0 0 0 0-45.2l-5.4-5.4l26.4-26.3a8.1 8.1 0 0 0 0-11.4Zm-32.3 77L180 120.7L135.3 76l25.4-25.4a15.9 15.9 0 0 1 22.6 0l22.1 22.1a15.9 15.9 0 0 1 0 22.6Zm-67.1 43L120 156.7L99.3 136l18.4-18.3a8.1 8.1 0 0 0-11.4-11.4L88 124.7l-14.3-14.4a8.1 8.1 0 0 0-11.4 11.4l2.4 2.3l-25.4 25.4a31.9 31.9 0 0 0 0 45.2l5.4 5.4l-26.4 26.3a8.1 8.1 0 0 0 0 11.4a8.2 8.2 0 0 0 11.4 0L56 211.3l5.4 5.4a32.1 32.1 0 0 0 45.2 0l25.4-25.4l2.3 2.4a8.2 8.2 0 0 0 11.4 0a8.1 8.1 0 0 0 0-11.4L131.3 168l18.4-18.3a8.1 8.1 0 0 0-11.4-11.4Zm-43 67.1a16.1 16.1 0 0 1-22.6 0l-22.1-22.1a15.9 15.9 0 0 1 0-22.6L76 135.3l44.7 44.7Z"></path></svg>