<svg xmlns="http://www.w3.org/2000/svg" xmlns:xlink="http://www.w3.org/1999/xlink" aria-hidden="true" role="img" class="iconify iconify--ph" width="1em" height="1em" preserveAspectRatio="xMidYMid meet" viewBox="0 0 256 256"><path fill="currentColor" d="M237.7 77.7L203.3 112l26.4 26.3a8.1 8.1 0 0 1 0 11.4a8.2 8.2 0 0 1-11.4 0l-6.3-6.4l-51.7 51.7a40.1 40.1 0 0 1-56.6 0L88 179.3l-50.3 50.4a8.2 8.2 0 0 1-11.4 0a8.1 8.1 0 0 1 0-11.4L76.7 168L61 152.3a40.1 40.1 0 0 1 0-56.6L112.7 44l-6.4-6.3a8.1 8.1 0 0 1 11.4-11.4L144 52.7l34.3-34.4a8.1 8.1 0 0 1 11.4 11.4L155.3 64l36.7 36.7l34.3-34.4a8.1 8.1 0 0 1 11.4 11.4Z"></path></svg>