<svg xmlns="http://www.w3.org/2000/svg" xmlns:xlink="http://www.w3.org/1999/xlink" aria-hidden="true" role="img" class="iconify iconify--ph" width="1em" height="1em" preserveAspectRatio="xMidYMid meet" viewBox="0 0 256 256"><path fill="currentColor" d="m205.2 52.6l-.8-1l-1-.8a107.7 107.7 0 0 0-150.8 0l-1 .8l-.8 1a107.7 107.7 0 0 0 0 150.8l.8 1l1 .8a107.7 107.7 0 0 0 150.8 0l1-.8l.8-1a107.7 107.7 0 0 0 0-150.8Zm5.9 63.4h-24.3a60.6 60.6 0 0 0-8.8-21.1l17.2-17.2a82.7 82.7 0 0 1 15.9 38.3ZM140 44.9a82.7 82.7 0 0 1 38.3 15.9L161.1 78a60.6 60.6 0 0 0-21.1-8.8Zm-24 0v24.3A60.6 60.6 0 0 0 94.9 78L77.7 60.8A82.7 82.7 0 0 1 116 44.9ZM60.8 77.7L78 94.9a60.6 60.6 0 0 0-8.8 21.1H44.9a82.7 82.7 0 0 1 15.9-38.3ZM44.9 140h24.3a60.6 60.6 0 0 0 8.8 21.1l-17.2 17.2A82.7 82.7 0 0 1 44.9 140Zm71.1 71.1a82.7 82.7 0 0 1-38.3-15.9L94.9 178a60.6 60.6 0 0 0 21.1 8.8ZM92 128a36 36 0 1 1 36 36a36 36 0 0 1-36-36Zm48 83.1v-24.3a60.6 60.6 0 0 0 21.1-8.8l17.2 17.2a82.7 82.7 0 0 1-38.3 15.9Zm55.2-32.8L178 161.1a60.6 60.6 0 0 0 8.8-21.1h24.3a82.7 82.7 0 0 1-15.9 38.3Z"></path></svg>