<svg xmlns="http://www.w3.org/2000/svg" xmlns:xlink="http://www.w3.org/1999/xlink" aria-hidden="true" role="img" class="iconify iconify--ph" width="1em" height="1em" preserveAspectRatio="xMidYMid meet" viewBox="0 0 256 256"><path fill="currentColor" d="M199 198.3a99.7 99.7 0 0 0 0-140.6l-.3-.4l-.4-.3a99.7 99.7 0 0 0-140.6 0l-.4.3l-.3.4a99.7 99.7 0 0 0 0 140.6l.3.4l.4.3a99.7 99.7 0 0 0 140.6 0l.4-.3ZM36.1 132h32a59.5 59.5 0 0 0 14.8 35.5l-22.7 22.6A91.4 91.4 0 0 1 36.1 132Zm24.1-66.1l22.7 22.6A59.5 59.5 0 0 0 68.1 124h-32a91.4 91.4 0 0 1 24.1-58.1ZM219.9 124h-32a59.5 59.5 0 0 0-14.8-35.5l22.7-22.6a91.4 91.4 0 0 1 24.1 58.1ZM128 180a52 52 0 1 1 52-52a52 52 0 0 1-52 52Zm39.5-97.1A59.5 59.5 0 0 0 132 68.1v-32a91.4 91.4 0 0 1 58.1 24.1ZM124 68.1a59.5 59.5 0 0 0-35.5 14.8L65.9 60.2A91.4 91.4 0 0 1 124 36.1Zm-35.5 105a59.5 59.5 0 0 0 35.5 14.8v32a91.4 91.4 0 0 1-58.1-24.1Zm43.5 14.8a59.5 59.5 0 0 0 35.5-14.8l22.6 22.7a91.4 91.4 0 0 1-58.1 24.1Zm41.1-20.4a59.5 59.5 0 0 0 14.8-35.5h32a91.4 91.4 0 0 1-24.1 58.1Z"></path></svg>