<svg xmlns="http://www.w3.org/2000/svg" xmlns:xlink="http://www.w3.org/1999/xlink" aria-hidden="true" role="img" class="iconify iconify--ph" width="1em" height="1em" preserveAspectRatio="xMidYMid meet" viewBox="0 0 256 256"><path fill="currentColor" d="M200.5 199.7a101.9 101.9 0 0 0 0-143.4c-.2-.2-.2-.3-.4-.4s-.2-.2-.4-.4a101.9 101.9 0 0 0-143.4 0l-.4.4l-.4.4a101.9 101.9 0 0 0 0 143.4l.4.4c.1.2.2.2.4.4a101.9 101.9 0 0 0 143.4 0c.2-.2.3-.2.4-.4s.2-.2.4-.4ZM38.2 134h28.1a62 62 0 0 0 13.8 33.4l-19.8 19.8A89.5 89.5 0 0 1 38.2 134Zm22.1-65.2l19.8 19.8A62 62 0 0 0 66.3 122H38.2a89.5 89.5 0 0 1 22.1-53.2ZM217.8 122h-28.1a62 62 0 0 0-13.8-33.4l19.8-19.8a89.5 89.5 0 0 1 22.1 53.2ZM128 178a50 50 0 1 1 50-50a50 50 0 0 1-50 50Zm39.4-97.9A62 62 0 0 0 134 66.3V38.2a89.5 89.5 0 0 1 53.2 22.1ZM122 66.3a62 62 0 0 0-33.4 13.8L68.8 60.3A89.5 89.5 0 0 1 122 38.2ZM88.6 175.9a62 62 0 0 0 33.4 13.8v28.1a89.5 89.5 0 0 1-53.2-22.1Zm45.4 13.8a62 62 0 0 0 33.4-13.8l19.8 19.8a89.5 89.5 0 0 1-53.2 22.1Zm41.9-22.3a62 62 0 0 0 13.8-33.4h28.1a89.5 89.5 0 0 1-22.1 53.2Z"></path></svg>