<svg xmlns="http://www.w3.org/2000/svg" xmlns:xlink="http://www.w3.org/1999/xlink" aria-hidden="true" role="img" class="iconify iconify--ph" width="1em" height="1em" preserveAspectRatio="xMidYMid meet" viewBox="0 0 256 256"><path fill="currentColor" d="M96 32a8 8 0 0 1 8-8h48a8 8 0 0 1 0 16h-48a8 8 0 0 1-8-8Zm152 88a8 8 0 0 1-8 8h-8v80a16 16 0 0 1-16 16h-24a16 16 0 0 1-16-16v-16H80v16a16 16 0 0 1-16 16H40a16 16 0 0 1-16-16v-80h-8a8 8 0 0 1 0-16h11.4l27.4-47.9A15.9 15.9 0 0 1 68.6 56h118.8a15.9 15.9 0 0 1 13.8 8.1l27.4 47.9H240a8 8 0 0 1 8 8ZM88 152a8 8 0 0 0-8-8H64a8 8 0 0 0 0 16h16a8 8 0 0 0 8-8Zm112 0a8 8 0 0 0-8-8h-16a8 8 0 0 0 0 16h16a8 8 0 0 0 8-8Z"></path></svg>