<svg xmlns="http://www.w3.org/2000/svg" xmlns:xlink="http://www.w3.org/1999/xlink" aria-hidden="true" role="img" class="iconify iconify--ph" width="1em" height="1em" preserveAspectRatio="xMidYMid meet" viewBox="0 0 256 256"><path fill="currentColor" d="M244 112h-9.4l-30.1-46.8a19.9 19.9 0 0 0-16.9-9.2H68.4a19.9 19.9 0 0 0-16.9 9.2L21.4 112H12a12 12 0 0 0 0 24h4v68a20.1 20.1 0 0 0 20 20h24a20.1 20.1 0 0 0 20-20v-20h96v20a20.1 20.1 0 0 0 20 20h24a20.1 20.1 0 0 0 20-20v-68h4a12 12 0 0 0 0-24ZM70.6 80h114.8l20.6 32H50ZM56 200H40v-16h16Zm144 0v-16h16v16Zm16-40H40v-24h176ZM92 28a12 12 0 0 1 12-12h48a12 12 0 0 1 0 24h-48a12 12 0 0 1-12-12Z"></path></svg>