<svg xmlns="http://www.w3.org/2000/svg" xmlns:xlink="http://www.w3.org/1999/xlink" aria-hidden="true" role="img" class="iconify iconify--ph" width="1em" height="1em" preserveAspectRatio="xMidYMid meet" viewBox="0 0 256 256"><path fill="currentColor" d="M240 114h-12.5l-28-48.9a13.9 13.9 0 0 0-12.1-7.1H68.6a13.9 13.9 0 0 0-12.1 7.1l-28 48.9H16a6 6 0 0 0 0 12h10v82a14 14 0 0 0 14 14h24a14 14 0 0 0 14-14v-18h100v18a14 14 0 0 0 14 14h24a14 14 0 0 0 14-14v-82h10a6 6 0 0 0 0-12ZM66.9 71a2.1 2.1 0 0 1 1.7-1h118.8a2.1 2.1 0 0 1 1.7 1l24.6 43H42.3ZM66 208a2 2 0 0 1-2 2H40a2 2 0 0 1-2-2v-18h28Zm150 2h-24a2 2 0 0 1-2-2v-18h28v18a2 2 0 0 1-2 2Zm2-32H38v-52h180ZM58 152a6 6 0 0 1 6-6h16a6 6 0 0 1 0 12H64a6 6 0 0 1-6-6Zm112 0a6 6 0 0 1 6-6h16a6 6 0 0 1 0 12h-16a6 6 0 0 1-6-6ZM98 32a6 6 0 0 1 6-6h48a6 6 0 0 1 0 12h-48a6 6 0 0 1-6-6Z"></path></svg>