<svg xmlns="http://www.w3.org/2000/svg" xmlns:xlink="http://www.w3.org/1999/xlink" aria-hidden="true" role="img" class="iconify iconify--ph" width="1em" height="1em" preserveAspectRatio="xMidYMid meet" viewBox="0 0 256 256"><path fill="currentColor" d="M229.2 50.8a30 30 0 0 0-42.4 0a29.8 29.8 0 0 0-5.6 7.7l-31.3-8.6a29.7 29.7 0 0 0-8.7-23.1a30 30 0 0 0-42.4 0a30 30 0 0 0-4.7 36.4L57.8 95.9a30 30 0 0 0-39 2.9a30 30 0 0 0 0 42.4A29.6 29.6 0 0 0 40 150a30 30 0 0 0 20.2-7.8l72.5 53.3a30.2 30.2 0 0 0 6.1 33.7a29.9 29.9 0 0 0 42.4 0a30 30 0 0 0 0-42.4a27.4 27.4 0 0 0-5.8-4.5l28.5-80.6a27.3 27.3 0 0 0 4.1.3a29.6 29.6 0 0 0 21.2-8.8a30 30 0 0 0 0-42.4ZM107.3 35.3a18 18 0 1 1 0 25.4a18 18 0 0 1 0-25.4Zm-80 97.4a18 18 0 0 1 0-25.4a18 18 0 1 1 0 25.4Zm145.4 88a18 18 0 0 1-25.4-25.4a18 18 0 0 1 25.4 25.4Zm-8.6-42.4a29.9 29.9 0 0 0-24.3 7.5l-72.5-53.3a30.5 30.5 0 0 0-1.4-27.7l36.3-32.7a30 30 0 0 0 44.6-10.6l31.3 8.6a29.7 29.7 0 0 0 8.7 23.1a27.4 27.4 0 0 0 5.8 4.5Zm56.6-93.6a18 18 0 0 1-25.4-25.4a18 18 0 0 1 25.4 25.4Z"></path></svg>