<svg xmlns="http://www.w3.org/2000/svg" xmlns:xlink="http://www.w3.org/1999/xlink" aria-hidden="true" role="img" class="iconify iconify--ph" width="1em" height="1em" preserveAspectRatio="xMidYMid meet" viewBox="0 0 256 256"><path fill="currentColor" d="M233.5 97.5a36.1 36.1 0 0 0-51-51a47.2 47.2 0 0 0-4.1 5l-22.5-6.2a36 36 0 0 0-61.4-22.8a36.5 36.5 0 0 0-7.8 39.3L57.2 88.4a36.2 36.2 0 0 0-42.7 6.1A36 36 0 0 0 40 156a35.8 35.8 0 0 0 20.3-6.3l65.2 47.9a36.1 36.1 0 1 0 60-15.1l-2.9-2.5l25.4-72a36.2 36.2 0 0 0 25.5-10.5Zm-93.8 80.8l-65.2-47.9a37.2 37.2 0 0 0-1.2-24.2l29.5-26.6a36.1 36.1 0 0 0 42.7-6.1a47.2 47.2 0 0 0 4.1-5l22.5 6.2a36.1 36.1 0 0 0 10.4 22.8l2.9 2.5l-25.4 72a35.8 35.8 0 0 0-20.3 6.3Zm76.8-114.8a12 12 0 1 1-17 0a12 12 0 0 1 17 0Zm-105-24a12 12 0 1 1 0 17a12 12 0 0 1 0-17Zm-80 89a12 12 0 0 1 0-17a12 12 0 1 1 0 17Zm137 88a12 12 0 0 1-17-17a12 12 0 0 1 17 17Z"></path></svg>