<svg xmlns="http://www.w3.org/2000/svg" xmlns:xlink="http://www.w3.org/1999/xlink" aria-hidden="true" role="img" class="iconify iconify--ph" width="1em" height="1em" preserveAspectRatio="xMidYMid meet" viewBox="0 0 256 256"><path fill="currentColor" d="M230.6 49.4a31.9 31.9 0 0 0-45.2 0a30.2 30.2 0 0 0-5.2 6.7L152 48.4a32 32 0 0 0-54.6-23a32 32 0 0 0-5.8 37.4L57.7 93.3a32 32 0 0 0-40.3 4.1a31.9 31.9 0 0 0 0 45.2A31.6 31.6 0 0 0 40 152a32.1 32.1 0 0 0 20.3-7.2l70 51.3a32 32 0 0 0 7.1 34.5a31.9 31.9 0 0 0 45.2 0a31.9 31.9 0 0 0 0-45.2a43.3 43.3 0 0 0-4.7-4l27.3-77.5h2.8a31.6 31.6 0 0 0 22.6-9.4a31.9 31.9 0 0 0 0-45.1ZM108.7 36.7a16 16 0 1 1 0 22.6a15.9 15.9 0 0 1 0-22.6Zm-80 94.6a15.9 15.9 0 0 1 0-22.6a16 16 0 1 1 0 22.6Zm142.6 88a16 16 0 0 1-22.6-22.6a16 16 0 0 1 22.6 22.6Zm-8.5-43.2a32.4 32.4 0 0 0-23.1 7.1l-70-51.3a32.4 32.4 0 0 0-1.3-26.7l33.9-30.5A32.4 32.4 0 0 0 120 80a31.6 31.6 0 0 0 22.6-9.4a30.2 30.2 0 0 0 5.2-6.7l28.2 7.7a31.6 31.6 0 0 0 9.4 23a43.3 43.3 0 0 0 4.7 4Zm56.5-92.8a16 16 0 0 1-22.6-22.6a16 16 0 1 1 22.6 22.6Z"></path></svg>