<svg xmlns="http://www.w3.org/2000/svg" xmlns:xlink="http://www.w3.org/1999/xlink" aria-hidden="true" role="img" class="iconify iconify--ph" width="1em" height="1em" preserveAspectRatio="xMidYMid meet" viewBox="0 0 256 256"><path fill="currentColor" d="m224.1 79.9l-.3-.4A43.9 43.9 0 0 0 168 41.7a44 44 0 0 0-80 0a43.9 43.9 0 0 0-55.8 37.8l-.3.4a15.7 15.7 0 0 0-4.6 15.2l27.5 116.6A15.9 15.9 0 0 0 70.3 224h115.4a15.9 15.9 0 0 0 15.5-12.3l27.5-116.6a15.7 15.7 0 0 0-4.6-15.2ZM76 56a27.4 27.4 0 0 1 13.1 3.3a8.4 8.4 0 0 0 7.1.2a8.2 8.2 0 0 0 4.5-5.6a28 28 0 0 1 54.6 0a8.2 8.2 0 0 0 4.5 5.6a8.4 8.4 0 0 0 7.1-.2A27.4 27.4 0 0 1 180 56a28 28 0 0 1 27 20.5l-38.6 11.1l-34.5-13.8a15.1 15.1 0 0 0-11.8 0L87.6 87.6L49 76.5A28 28 0 0 1 76 56ZM42.9 91.4l37.9 10.9L94.9 208H70.3ZM185.7 208h-24.6l14.1-105.7l37.9-10.9Z"></path></svg>