<svg xmlns="http://www.w3.org/2000/svg" xmlns:xlink="http://www.w3.org/1999/xlink" aria-hidden="true" role="img" class="iconify iconify--ph" width="1em" height="1em" preserveAspectRatio="xMidYMid meet" viewBox="0 0 256 256"><path fill="currentColor" d="m221.4 82.8l-1.5-1.2A40 40 0 0 0 180 44a40.7 40.7 0 0 0-14.3 2.6a40 40 0 0 0-75.4 0A40.7 40.7 0 0 0 76 44a40 40 0 0 0-39.9 37.6l-1.5 1.2a11.8 11.8 0 0 0-3.4 11.4l27.5 116.5a11.8 11.8 0 0 0 11.6 9.3h115.4a11.8 11.8 0 0 0 11.6-9.3l27.5-116.5a11.8 11.8 0 0 0-3.4-11.4ZM76 52a32.6 32.6 0 0 1 15 3.7a4.1 4.1 0 0 0 5.8-2.6a31.9 31.9 0 0 1 62.4 0a4.1 4.1 0 0 0 5.8 2.6a32.6 32.6 0 0 1 15-3.7a32.1 32.1 0 0 1 31.7 27.5l-1.9.4l-41.6 11.9l-35.7-14.3a11.7 11.7 0 0 0-9 0L87.8 91.8L46.2 79.9l-1.9-.4A32.1 32.1 0 0 1 76 52Zm31.5 160L92.4 98.6l34.1-13.7a3.9 3.9 0 0 1 3 0l34.1 13.7L148.5 212Zm-41.1-3.1L39 92.4a4.2 4.2 0 0 1 1.1-3.9l1.3-.8c.1 0 .2 0 .2-.1a3.9 3.9 0 0 1 2.4 0l40.4 11.5l15 112.9H70.3a4.1 4.1 0 0 1-3.9-3.1ZM217 92.4l-27.4 116.5a4.1 4.1 0 0 1-3.9 3.1h-29.1l15-112.9L212 87.6a3.9 3.9 0 0 1 2.4 0c0 .1.1.1.2.1l1.3.8a4.2 4.2 0 0 1 1.1 3.9Z"></path></svg>