<svg xmlns="http://www.w3.org/2000/svg" xmlns:xlink="http://www.w3.org/1999/xlink" aria-hidden="true" role="img" class="iconify iconify--ph" width="1em" height="1em" preserveAspectRatio="xMidYMid meet" viewBox="0 0 256 256"><path fill="currentColor" d="m222.8 81.3l-1-.8A42 42 0 0 0 180 42a41.3 41.3 0 0 0-13.1 2.1a42 42 0 0 0-77.8 0A41.3 41.3 0 0 0 76 42a42 42 0 0 0-41.8 38.5l-1 .8a13.8 13.8 0 0 0-3.9 13.3l27.4 116.6A13.9 13.9 0 0 0 70.3 222h115.4a13.9 13.9 0 0 0 13.6-10.8l27.4-116.6a13.8 13.8 0 0 0-3.9-13.3ZM76 54a29.4 29.4 0 0 1 14 3.5a6 6 0 0 0 5.4.1a5.7 5.7 0 0 0 3.3-4.1a30 30 0 0 1 58.6 0a5.7 5.7 0 0 0 3.3 4.1a6 6 0 0 0 5.4-.1a29.4 29.4 0 0 1 14-3.5a30 30 0 0 1 29.4 23.9h-.2l-40.9 11.8l-35.1-14.1a14.4 14.4 0 0 0-10.4 0L87.7 89.7L46.8 78h-.2A30 30 0 0 1 76 54Zm85.4 45.8L146.7 210h-37.4L94.6 99.8l32.7-13a1.7 1.7 0 0 1 1.4 0Zm-93 108.7L41 91.9a1.8 1.8 0 0 1 .5-1.9l.5-.3l.4-.2h1.1l39.1 11.2L97.1 210H70.3a1.9 1.9 0 0 1-1.9-1.5ZM215 91.9l-27.4 116.6a1.9 1.9 0 0 1-1.9 1.5h-26.8l14.5-109.3l39.1-11.2h1.1l.4.2l.5.3a1.8 1.8 0 0 1 .5 1.9Z"></path></svg>