<svg xmlns="http://www.w3.org/2000/svg" xmlns:xlink="http://www.w3.org/1999/xlink" aria-hidden="true" role="img" class="iconify iconify--ph" width="1em" height="1em" preserveAspectRatio="xMidYMid meet" viewBox="0 0 256 256"><path fill="currentColor" d="M227.6 77.6A48.2 48.2 0 0 0 180 36a47.5 47.5 0 0 0-9.9 1a47.9 47.9 0 0 0-84.2 0a47.5 47.5 0 0 0-9.9-1a48.2 48.2 0 0 0-47.6 41.6a20.1 20.1 0 0 0-5 18.4l27.5 116.6A19.8 19.8 0 0 0 70.3 228h115.4a19.8 19.8 0 0 0 19.4-15.4L232.6 96a20.1 20.1 0 0 0-5-18.4ZM76 60a23 23 0 0 1 11.2 2.8a12 12 0 0 0 17.4-8a24 24 0 0 1 46.8 0a12 12 0 0 0 17.4 8A23 23 0 0 1 180 60a24.2 24.2 0 0 1 21.8 13.9l-33.2 9.4L135.4 70a19.9 19.9 0 0 0-14.8 0L87.4 83.3l-33.2-9.4A24.2 24.2 0 0 1 76 60Zm25.1 43.7L128 92.9l26.9 10.8L141.5 204h-27Zm-52.7-6.5l28.7 8.2L90.3 204H73.5ZM182.5 204h-16.8l13.2-98.6l28.7-8.2Z"></path></svg>