<svg xmlns="http://www.w3.org/2000/svg" xmlns:xlink="http://www.w3.org/1999/xlink" aria-hidden="true" role="img" class="iconify iconify--ph" width="1em" height="1em" preserveAspectRatio="xMidYMid meet" viewBox="0 0 256 256"><path fill="currentColor" d="m177.7 188l25.1-25.2a4 4 0 0 0-5.6-5.6L172 182.3L121.6 132a48 48 0 0 0-1.6-96H72a4 4 0 0 0-4 4v152a4 4 0 0 0 8 0v-60h34.3l56 56l-25.1 25.2a3.9 3.9 0 0 0 0 5.6a3.9 3.9 0 0 0 5.6 0l25.2-25.1l25.2 25.1a3.9 3.9 0 0 0 5.6 0a3.9 3.9 0 0 0 0-5.6ZM76 44h44a40 40 0 0 1 0 80H76Z"></path></svg>