<svg xmlns="http://www.w3.org/2000/svg" xmlns:xlink="http://www.w3.org/1999/xlink" aria-hidden="true" role="img" class="iconify iconify--ph" width="1em" height="1em" preserveAspectRatio="xMidYMid meet" viewBox="0 0 256 256"><path fill="currentColor" d="M164 84a44 44 0 0 1-44 44H72V40h48a44 44 0 0 1 44 44Z" opacity=".2"></path><path fill="currentColor" d="m183.3 188l22.4-22.3a8.1 8.1 0 0 0-11.4-11.4L172 176.7L130.3 135A52 52 0 0 0 120 32H72a8 8 0 0 0-8 8v152a8 8 0 0 0 16 0v-56h28.7l52 52l-22.4 22.3a8.1 8.1 0 0 0 0 11.4a8.2 8.2 0 0 0 11.4 0l22.3-22.4l22.3 22.4a8.2 8.2 0 0 0 11.4 0a8.1 8.1 0 0 0 0-11.4ZM80 48h40a36 36 0 0 1 0 72H80Z"></path></svg>