<svg xmlns="http://www.w3.org/2000/svg" xmlns:xlink="http://www.w3.org/1999/xlink" aria-hidden="true" role="img" class="iconify iconify--ph" width="1em" height="1em" preserveAspectRatio="xMidYMid meet" viewBox="0 0 256 256"><path fill="currentColor" d="M232 56v120a16 16 0 0 1-16 16h-39.4l21.6 27a8 8 0 0 1-6.2 13a7.8 7.8 0 0 1-6.2-3l-29.6-37H99.8l-29.6 37a7.8 7.8 0 0 1-6.2 3a8 8 0 0 1-6.2-13l21.6-27H40a16 16 0 0 1-16-16V56a16 16 0 0 1 16-16h80V24a8 8 0 0 1 16 0v16h80a16 16 0 0 1 16 16Z"></path></svg>