<svg xmlns="http://www.w3.org/2000/svg" xmlns:xlink="http://www.w3.org/1999/xlink" aria-hidden="true" role="img" class="iconify iconify--ph" width="1em" height="1em" preserveAspectRatio="xMidYMid meet" viewBox="0 0 256 256"><path fill="currentColor" d="M216 44h-84V24a4 4 0 0 0-8 0v20H40a12 12 0 0 0-12 12v120a12 12 0 0 0 12 12h47.7l-26.8 33.5a4 4 0 0 0 .6 5.6a3.8 3.8 0 0 0 2.5.9a3.9 3.9 0 0 0 3.1-1.5L97.9 188h60.2l30.8 38.5a3.9 3.9 0 0 0 3.1 1.5a3.8 3.8 0 0 0 2.5-.9a4 4 0 0 0 .6-5.6L168.3 188H216a12 12 0 0 0 12-12V56a12 12 0 0 0-12-12Zm4 132a4 4 0 0 1-4 4H40a4 4 0 0 1-4-4V56a4 4 0 0 1 4-4h176a4 4 0 0 1 4 4Z"></path></svg>