<svg xmlns="http://www.w3.org/2000/svg" xmlns:xlink="http://www.w3.org/1999/xlink" aria-hidden="true" role="img" class="iconify iconify--ph" width="1em" height="1em" preserveAspectRatio="xMidYMid meet" viewBox="0 0 256 256"><path fill="currentColor" d="M216 40h-80V24a8 8 0 0 0-16 0v16H40a16 16 0 0 0-16 16v120a16 16 0 0 0 16 16h39.4l-21.6 27a8 8 0 0 0 6.2 13a7.8 7.8 0 0 0 6.2-3l29.6-37h56.4l29.6 37a7.8 7.8 0 0 0 6.2 3a8 8 0 0 0 6.2-13l-21.6-27H216a16 16 0 0 0 16-16V56a16 16 0 0 0-16-16Zm0 136H40V56h176v120Z"></path></svg>