<svg xmlns="http://www.w3.org/2000/svg" xmlns:xlink="http://www.w3.org/1999/xlink" aria-hidden="true" role="img" class="iconify iconify--ph" width="1em" height="1em" preserveAspectRatio="xMidYMid meet" viewBox="0 0 256 256"><path fill="currentColor" d="m189 188l19.5-19.5a12 12 0 0 0-17-17L172 171l-34-34a56 56 0 0 0-18-109H72a12 12 0 0 0-12 12v152a12 12 0 0 0 24 0v-52h23l48 48l-19.5 19.5a12 12 0 0 0 0 17a12.1 12.1 0 0 0 17 0L172 205l19.5 19.5a12.1 12.1 0 0 0 17 0a12 12 0 0 0 0-17ZM84 52h36a32 32 0 0 1 0 64H84Z"></path></svg>