<svg xmlns="http://www.w3.org/2000/svg" xmlns:xlink="http://www.w3.org/1999/xlink" aria-hidden="true" role="img" class="iconify iconify--ph" width="1em" height="1em" preserveAspectRatio="xMidYMid meet" viewBox="0 0 256 256"><path fill="currentColor" d="M216 42h-82V24a6 6 0 0 0-12 0v18H40a14 14 0 0 0-14 14v120a14 14 0 0 0 14 14h43.5l-24.2 30.3a5.9 5.9 0 0 0 1 8.4A5.8 5.8 0 0 0 64 230a6 6 0 0 0 4.7-2.3L98.9 190h58.2l30.2 37.7a6 6 0 0 0 4.7 2.3a5.8 5.8 0 0 0 3.7-1.3a5.9 5.9 0 0 0 1-8.4L172.5 190H216a14 14 0 0 0 14-14V56a14 14 0 0 0-14-14Zm2 134a2 2 0 0 1-2 2H40a2 2 0 0 1-2-2V56a2 2 0 0 1 2-2h176a2 2 0 0 1 2 2Z"></path></svg>