<svg xmlns="http://www.w3.org/2000/svg" xmlns:xlink="http://www.w3.org/1999/xlink" aria-hidden="true" role="img" class="iconify iconify--ph" width="1em" height="1em" preserveAspectRatio="xMidYMid meet" viewBox="0 0 256 256"><path fill="currentColor" d="M216 36h-76V24a12 12 0 0 0-24 0v12H40a20.1 20.1 0 0 0-20 20v120a20.1 20.1 0 0 0 20 20h31l-16.4 20.5a12.1 12.1 0 0 0 1.9 16.9A12.4 12.4 0 0 0 64 236a12 12 0 0 0 9.4-4.5l28.4-35.5h52.4l28.4 35.5a12 12 0 0 0 9.4 4.5a12.4 12.4 0 0 0 7.5-2.6a12.1 12.1 0 0 0 1.9-16.9L185 196h31a20.1 20.1 0 0 0 20-20V56a20.1 20.1 0 0 0-20-20Zm-4 136H44V60h168Z"></path></svg>