<svg xmlns="http://www.w3.org/2000/svg" xmlns:xlink="http://www.w3.org/1999/xlink" aria-hidden="true" role="img" class="iconify iconify--ph" width="1em" height="1em" preserveAspectRatio="xMidYMid meet" viewBox="0 0 256 256"><path fill="currentColor" d="m180.5 188l23.7-23.8a5.9 5.9 0 0 0-8.4-8.4L172 179.5l-45.9-45.9A50 50 0 0 0 120 34H72a6 6 0 0 0-6 6v152a6 6 0 0 0 12 0v-58h31.5l54 54l-23.7 23.8a5.9 5.9 0 1 0 8.4 8.4l23.8-23.7l23.8 23.7a5.9 5.9 0 0 0 8.4-8.4ZM78 46h42a38 38 0 0 1 0 76H78Z"></path></svg>