<svg xmlns="http://www.w3.org/2000/svg" xmlns:xlink="http://www.w3.org/1999/xlink" aria-hidden="true" role="img" class="iconify iconify--ph" width="1em" height="1em" preserveAspectRatio="xMidYMid meet" viewBox="0 0 256 256"><path fill="currentColor" d="M210.7 72H200V40a8 8 0 0 0-8-8H64a8 8 0 0 0-8 8v32H45.3C31.4 72 20 82.8 20 96v80a8 8 0 0 0 8 8h28v36a8 8 0 0 0 8 8h128a8 8 0 0 0 8-8v-36h28a8 8 0 0 0 8-8V96c0-13.2-11.4-24-25.3-24ZM72 48h112v24H72Zm112 164H72v-52h112Zm4-84a12 12 0 1 1 12-12a12 12 0 0 1-12 12Z"></path></svg>