<svg xmlns="http://www.w3.org/2000/svg" xmlns:xlink="http://www.w3.org/1999/xlink" aria-hidden="true" role="img" class="iconify iconify--ph" width="1em" height="1em" preserveAspectRatio="xMidYMid meet" viewBox="0 0 256 256"><path fill="currentColor" d="M210.7 68H204V40a12 12 0 0 0-12-12H64a12 12 0 0 0-12 12v28h-6.7C29.2 68 16 80.6 16 96v80a12 12 0 0 0 12 12h24v32a12 12 0 0 0 12 12h128a12 12 0 0 0 12-12v-32h24a12 12 0 0 0 12-12V96c0-15.4-13.2-28-29.3-28ZM76 52h104v16H76Zm104 156H76v-40h104Zm36-44h-12v-8a12 12 0 0 0-12-12H64a12 12 0 0 0-12 12v8H40V96c0-2.2 2.4-4 5.3-4h165.4c2.9 0 5.3 1.8 5.3 4Zm-12-48a16 16 0 1 1-16-16a16 16 0 0 1 16 16Z"></path></svg>