<svg xmlns="http://www.w3.org/2000/svg" xmlns:xlink="http://www.w3.org/1999/xlink" aria-hidden="true" role="img" class="iconify iconify--ph" width="1em" height="1em" preserveAspectRatio="xMidYMid meet" viewBox="0 0 256 256"><path fill="currentColor" d="M210.7 74H198V40a6 6 0 0 0-6-6H64a6 6 0 0 0-6 6v34H45.3C32.5 74 22 83.9 22 96v80a6 6 0 0 0 6 6h30v38a6 6 0 0 0 6 6h128a6 6 0 0 0 6-6v-38h30a6 6 0 0 0 6-6V96c0-12.1-10.5-22-23.3-22ZM70 46h116v28H70Zm116 168H70v-56h116Zm36-44h-24v-18a6 6 0 0 0-6-6H64a6 6 0 0 0-6 6v18H34V96c0-5.5 5.1-10 11.3-10h165.4c6.2 0 11.3 4.5 11.3 10Zm-24-54a10 10 0 1 1-10-10a10 10 0 0 1 10 10Z"></path></svg>