<svg xmlns="http://www.w3.org/2000/svg" xmlns:xlink="http://www.w3.org/1999/xlink" aria-hidden="true" role="img" class="iconify iconify--ph" width="1em" height="1em" preserveAspectRatio="xMidYMid meet" viewBox="0 0 256 256"><path fill="currentColor" d="M210.7 76H196V40a4 4 0 0 0-4-4H64a4 4 0 0 0-4 4v36H45.3C33.6 76 24 85 24 96v80a4 4 0 0 0 4 4h32v40a4 4 0 0 0 4 4h128a4 4 0 0 0 4-4v-40h32a4 4 0 0 0 4-4V96c0-11-9.6-20-21.3-20ZM68 44h120v32H68Zm120 172H68v-60h120Zm36-44h-28v-20a4 4 0 0 0-4-4H64a4 4 0 0 0-4 4v20H32V96c0-6.6 6-12 13.3-12h165.4c7.3 0 13.3 5.4 13.3 12Zm-28-56a8 8 0 1 1-8-8a8 8 0 0 1 8 8Z"></path></svg>