<svg xmlns="http://www.w3.org/2000/svg" xmlns:xlink="http://www.w3.org/1999/xlink" aria-hidden="true" role="img" class="iconify iconify--ph" width="1em" height="1em" preserveAspectRatio="xMidYMid meet" viewBox="0 0 256 256"><path fill="currentColor" d="M200.5 199.7A102 102 0 0 0 56.3 55.5l-.4.4l-.4.4a102 102 0 0 0 144.2 144.2l.4-.4c.2-.1.2-.3.4-.4ZM218 128a89.3 89.3 0 0 1-22.3 59.2L68.8 60.3A89.9 89.9 0 0 1 218 128Zm-180 0a89.3 89.3 0 0 1 22.3-59.2l126.9 126.9A89.9 89.9 0 0 1 38 128Z"></path></svg>