<svg xmlns="http://www.w3.org/2000/svg" xmlns:xlink="http://www.w3.org/1999/xlink" aria-hidden="true" role="img" class="iconify iconify--ph" width="1em" height="1em" preserveAspectRatio="xMidYMid meet" viewBox="0 0 256 256"><path fill="currentColor" d="M200 128a71.3 71.3 0 0 1-15.8 44.9L83.1 71.8A71.3 71.3 0 0 1 128 56a72.1 72.1 0 0 1 72 72Zm-144 0a72.1 72.1 0 0 0 72 72a71.3 71.3 0 0 0 44.9-15.8L71.8 83.1A71.3 71.3 0 0 0 56 128Zm180 0A108 108 0 1 1 128 20a108.1 108.1 0 0 1 108 108Zm-20 0a88 88 0 1 0-88 88a88.1 88.1 0 0 0 88-88Z"></path></svg>