<svg xmlns="http://www.w3.org/2000/svg" xmlns:xlink="http://www.w3.org/1999/xlink" aria-hidden="true" role="img" class="iconify iconify--ph" width="1em" height="1em" preserveAspectRatio="xMidYMid meet" viewBox="0 0 256 256"><path fill="currentColor" d="M205.2 203.4A107.9 107.9 0 0 0 52.6 50.8a3.9 3.9 0 0 0-1 .8l-.8 1a107.9 107.9 0 0 0 152.6 152.6l1-.8ZM212 128a83.4 83.4 0 0 1-16.8 50.3L77.7 60.7A84 84 0 0 1 212 128Zm-168 0a83.1 83.1 0 0 1 16.8-50.3l117.5 117.5A83.1 83.1 0 0 1 128 212a84.1 84.1 0 0 1-84-84Z"></path></svg>