<svg xmlns="http://www.w3.org/2000/svg" xmlns:xlink="http://www.w3.org/1999/xlink" aria-hidden="true" role="img" class="iconify iconify--ph" width="1em" height="1em" preserveAspectRatio="xMidYMid meet" viewBox="0 0 256 256"><circle cx="128" cy="128" r="96" fill="currentColor" opacity=".2"></circle><path fill="currentColor" d="M202.2 200.8a103.9 103.9 0 0 0-147-147a2.3 2.3 0 0 0-.7.7a2.3 2.3 0 0 0-.7.7a103.9 103.9 0 0 0 147 147a2.3 2.3 0 0 0 .7-.7a2.3 2.3 0 0 0 .7-.7ZM216 128a87.9 87.9 0 0 1-20.4 56.3L71.7 60.4A88 88 0 0 1 216 128Zm-176 0a87.9 87.9 0 0 1 20.4-56.3l123.9 123.9A88 88 0 0 1 40 128Z"></path></svg>