<svg xmlns="http://www.w3.org/2000/svg" xmlns:xlink="http://www.w3.org/1999/xlink" aria-hidden="true" role="img" class="iconify iconify--ph" width="1em" height="1em" preserveAspectRatio="xMidYMid meet" viewBox="0 0 256 256"><path fill="currentColor" d="M104 128v8a12 12 0 0 1-24 0v-8a12 12 0 0 1 24 0Zm24-16a12 12 0 0 0-12 12v12a12 12 0 0 0 24 0v-12a12 12 0 0 0-12-12Zm36-4a12 12 0 0 0-12 12v16a12 12 0 0 0 24 0v-16a12 12 0 0 0-12-12Zm56-16.4V164h4a12 12 0 0 1 0 24h-84v23.2a24 24 0 1 1-24 0V188H32a12 12 0 0 1 0-24h4V91.6A20.1 20.1 0 0 1 20 72V48a20.1 20.1 0 0 1 20-20h176a20.1 20.1 0 0 1 20 20v24a20.1 20.1 0 0 1-16 19.6ZM44 68h168V52H44Zm152 96V92H60v72Z"></path></svg>