<svg xmlns="http://www.w3.org/2000/svg" xmlns:xlink="http://www.w3.org/1999/xlink" aria-hidden="true" role="img" class="iconify iconify--ph" width="1em" height="1em" preserveAspectRatio="xMidYMid meet" viewBox="0 0 256 256"><path fill="currentColor" d="M85.3 45.4a7.9 7.9 0 0 1-2-5.1a1.1 1.1 0 0 1 0-.8A8.3 8.3 0 0 1 85 35a9.4 9.4 0 0 1 1-1a8 8 0 0 1 5.2-2H192a8 8 0 0 1 0 16h-6.5l18.8 106.3a8.1 8.1 0 0 1-4.4 8.6a8.5 8.5 0 0 1-3.5.8a7.9 7.9 0 0 1-5.9-2.6Zm128.6 165.2l-36.3-40l-48.5-53.2l-75.2-82.8a8 8 0 0 0-11.8 10.8L66.2 72l-16.9 96H40a8 8 0 0 0 0 16h80v56a8 8 0 0 0 16 0v-56h32.1l34 37.4a8 8 0 0 0 5.9 2.6a8.2 8.2 0 0 0 5.4-2.1a7.9 7.9 0 0 0 .5-11.3Z"></path></svg>