<svg xmlns="http://www.w3.org/2000/svg" xmlns:xlink="http://www.w3.org/1999/xlink" aria-hidden="true" role="img" class="iconify iconify--ph" width="1em" height="1em" preserveAspectRatio="xMidYMid meet" viewBox="0 0 256 256"><path fill="currentColor" d="M240.7 96a19.7 19.7 0 0 0-5.9-14.1l-60.7-60.7a19.9 19.9 0 0 0-28.2 0l-57.1 57c-12.4-3.3-36.7-5.7-61.7 14.5a19.8 19.8 0 0 0-1.6 29.7L71 168l-31.5 31.5a12 12 0 0 0 0 17a12.1 12.1 0 0 0 17 0L88 185l45.4 45.3a19.7 19.7 0 0 0 14.1 5.9h1.4a19.8 19.8 0 0 0 14.6-7.9a88 88 0 0 0 14.4-27.9c3.4-11.7 3.5-22.9.2-33.4l56.7-56.8a19.7 19.7 0 0 0 5.9-14.2Zm-85.2 59.5a12.2 12.2 0 0 0-2.2 13.9c3.4 6.8 6.9 20.9-6.3 40.6l-50.5-50.5l-50.8-50.8c21.1-14.6 39.5-6.6 41-5.9a11.7 11.7 0 0 0 13.8-2.3L160 41l55 55Z"></path></svg>