<svg xmlns="http://www.w3.org/2000/svg" xmlns:xlink="http://www.w3.org/1999/xlink" aria-hidden="true" role="img" class="iconify iconify--ph" width="1em" height="1em" preserveAspectRatio="xMidYMid meet" viewBox="0 0 256 256"><path fill="currentColor" d="M226.3 101.7L164 164c11.5 22.9-1.7 45.9-10.1 57a8 8 0 0 1-12.1.8L34 114a8 8 0 0 1 .6-11.9C64.3 78.1 92 92 92 92l62.3-62.3a8 8 0 0 1 11.4 0l60.6 60.6a8 8 0 0 1 0 11.4Z" opacity=".2"></path><path fill="currentColor" d="M53.9 34.6a8 8 0 0 0-11.8 10.8L73.5 80c-12-.3-27.7 2.8-43.9 15.8a15.9 15.9 0 0 0-1.3 23.8L76.7 168l-34.4 34.3a8.1 8.1 0 0 0 0 11.4a8.2 8.2 0 0 0 11.4 0L88 179.3l48.2 48.2a16.1 16.1 0 0 0 11.3 4.7h1.1a16.3 16.3 0 0 0 11.7-6.4c5.5-7.3 12.9-19.3 15.4-33.5l26.4 29.1a8 8 0 0 0 5.9 2.6a8.2 8.2 0 0 0 5.4-2.1a7.9 7.9 0 0 0 .5-11.3Zm93.6 181.6L39.6 108.3c25.1-20.2 47.9-9.6 48.8-9.1a10 10 0 0 0 3.3.8l67.7 74.5c4.3 16.7-5.5 33.2-11.9 41.7ZM236.7 96a15.9 15.9 0 0 1-4.7 11.3l-41.4 41.4a8 8 0 0 1-5.7 2.4a7.7 7.7 0 0 1-5.6-2.4a8 8 0 0 1 0-11.3L220.7 96L160 35.3l-38 38A8 8 0 1 1 110.7 62l38-38a16.1 16.1 0 0 1 22.6 0L232 84.7a15.9 15.9 0 0 1 4.7 11.3Z"></path></svg>