<svg xmlns="http://www.w3.org/2000/svg" xmlns:xlink="http://www.w3.org/1999/xlink" aria-hidden="true" role="img" class="iconify iconify--ph" width="1em" height="1em" preserveAspectRatio="xMidYMid meet" viewBox="0 0 256 256"><path fill="currentColor" d="M87.2 40a4 4 0 0 1 4-4H192a4 4 0 0 1 0 8h-11.2l19.6 111a4 4 0 0 1-3.3 4.6h-.7a4 4 0 0 1-3.9-3.3L172.6 44H91.2a4 4 0 0 1-4-4Zm123.5 179a4.1 4.1 0 0 1-5.7-.3L169.9 180H132v60a4 4 0 0 1-8 0v-60H40a4 4 0 0 1 0-8h12.6L70.5 70.7L45 42.7a4 4 0 1 1 6-5.4l160 176a4.2 4.2 0 0 1-.3 5.7Zm-48.1-47L77.3 78.2L60.8 172Z"></path></svg>