<svg xmlns="http://www.w3.org/2000/svg" xmlns:xlink="http://www.w3.org/1999/xlink" aria-hidden="true" role="img" class="iconify iconify--ph" width="1em" height="1em" preserveAspectRatio="xMidYMid meet" viewBox="0 0 256 256"><path fill="currentColor" d="M234.7 96a14.1 14.1 0 0 0-4.1-9.9l-60.7-60.7a14.1 14.1 0 0 0-19.8 0L90.5 85c-9.5-3.3-33.9-8.4-59.7 12.4a14 14 0 0 0-1.1 20.8L79.5 168l-35.7 35.8a5.9 5.9 0 1 0 8.4 8.4L88 176.5l49.6 49.6a14.1 14.1 0 0 0 9.9 4.1h1a13.9 13.9 0 0 0 10.2-5.6c19.7-26.2 17.1-47.2 12.4-59.3l59.5-59.4a14.1 14.1 0 0 0 4.1-9.9Zm-12.6 1.4l-62.3 62.4a5.9 5.9 0 0 0-1.2 6.9c10 19.9-1.7 40.3-9.5 50.7a2 2 0 0 1-1.4.8a2 2 0 0 1-1.6-.6L38.2 109.7a1.8 1.8 0 0 1-.6-1.5a2.2 2.2 0 0 1 .8-1.5C50.9 96.6 62.9 94 72.1 94s16.7 3.1 17.2 3.4a5.9 5.9 0 0 0 6.9-1.2l62.4-62.3a1.9 1.9 0 0 1 2.8 0l60.7 60.7a1.9 1.9 0 0 1 0 2.8Z"></path></svg>