<svg xmlns="http://www.w3.org/2000/svg" xmlns:xlink="http://www.w3.org/1999/xlink" aria-hidden="true" role="img" class="iconify iconify--ph" width="1em" height="1em" preserveAspectRatio="xMidYMid meet" viewBox="0 0 256 256"><path fill="currentColor" d="m216.9 207.9l-160-176a12 12 0 0 0-17.8 16.2L62 73.2L45.9 164H40a12 12 0 0 0 0 24h76v52a12 12 0 0 0 24 0v-52h26.3l32.8 36.1a12.1 12.1 0 0 0 17 .8a12.1 12.1 0 0 0 .8-17ZM70.3 164l12.1-68.4l62.1 68.4ZM90.1 40a12 12 0 0 1 12-12H192a12 12 0 0 1 0 24h-1.7l15.3 86.8a11.9 11.9 0 0 1-9.7 13.9a7.5 7.5 0 0 1-2.1.2A12 12 0 0 1 182 143l-16.1-91h-63.8a12 12 0 0 1-12-12Z"></path></svg>