<svg xmlns="http://www.w3.org/2000/svg" xmlns:xlink="http://www.w3.org/1999/xlink" aria-hidden="true" role="img" class="iconify iconify--ph" width="1em" height="1em" preserveAspectRatio="xMidYMid meet" viewBox="0 0 256 256"><path fill="currentColor" d="M56.9 31.9a12 12 0 0 0-17.8 16.2l25.7 28.3c-11.2 1.2-24.3 5.5-37.7 16.3a19.8 19.8 0 0 0-1.6 29.7L71 168l-31.5 31.5a12 12 0 0 0 0 17a12.1 12.1 0 0 0 17 0L88 185l45.4 45.3a19.7 19.7 0 0 0 14.1 5.9h1.4a19.8 19.8 0 0 0 14.6-7.9a91.7 91.7 0 0 0 14.3-27.6l21.3 23.5a12.1 12.1 0 0 0 17 .8a12.1 12.1 0 0 0 .8-17ZM147 210L45.7 108.7c21.1-14.6 39.5-6.6 41-5.9a12.8 12.8 0 0 0 3.1 1.1l66 72.5c2.8 12.7-3.3 25.4-8.8 33.6Zm93.7-114a19.7 19.7 0 0 1-5.9 14.1l-35.7 35.8a12.1 12.1 0 0 1-17 0a12 12 0 0 1 0-17L215 96l-55-55l-29.5 29.5a12 12 0 0 1-17-17l32.4-32.3a19.9 19.9 0 0 1 28.2 0l60.7 60.7a19.7 19.7 0 0 1 5.9 14.1Z"></path></svg>