<svg xmlns="http://www.w3.org/2000/svg" xmlns:xlink="http://www.w3.org/1999/xlink" aria-hidden="true" role="img" class="iconify iconify--ph" width="1em" height="1em" preserveAspectRatio="xMidYMid meet" viewBox="0 0 256 256"><path fill="currentColor" d="M213.9 210.6a7.9 7.9 0 0 1-.5 11.3a8.2 8.2 0 0 1-5.4 2.1a8 8 0 0 1-5.9-2.6l-26.4-29.1c-2.5 14.2-9.9 26.2-15.4 33.5a16.3 16.3 0 0 1-11.7 6.4h-1.1a16.1 16.1 0 0 1-11.3-4.7L88 179.3l-34.3 34.4a8.2 8.2 0 0 1-11.4 0a8.1 8.1 0 0 1 0-11.4L76.7 168l-48.4-48.4a15.9 15.9 0 0 1 1.3-23.8c16.2-13 31.9-16.1 43.9-15.8L42.1 45.4a8 8 0 0 1 11.8-10.8ZM232 84.7L171.3 24a16.1 16.1 0 0 0-22.6 0l-38 38a8 8 0 0 0-.3 11l68.6 75.4a8.1 8.1 0 0 0 5.7 2.7h.2a8 8 0 0 0 5.7-2.4l41.4-41.4a15.9 15.9 0 0 0 0-22.6Z"></path></svg>