<svg xmlns="http://www.w3.org/2000/svg" xmlns:xlink="http://www.w3.org/1999/xlink" aria-hidden="true" role="img" class="iconify iconify--ph" width="1em" height="1em" preserveAspectRatio="xMidYMid meet" viewBox="0 0 256 256"><path fill="currentColor" d="M83.2 40a8 8 0 0 1 8-8H192a8 8 0 0 1 0 16h-6.5l18.8 106.3a8 8 0 0 1-6.5 9.3h-1.4a8 8 0 0 1-7.9-6.6L169.3 48H91.2a8 8 0 0 1-8-8Zm130.2 181.9a8.2 8.2 0 0 1-5.4 2.1a8 8 0 0 1-5.9-2.6l-34-37.4H136v56a8 8 0 0 1-16 0v-56H40a8 8 0 0 1 0-16h9.3l16.9-96l-24.1-26.6a8 8 0 0 1 11.8-10.8l160 176a7.9 7.9 0 0 1-.5 11.3ZM153.6 168L79.8 86.9L65.5 168Z"></path></svg>