<svg xmlns="http://www.w3.org/2000/svg" xmlns:xlink="http://www.w3.org/1999/xlink" aria-hidden="true" role="img" class="iconify iconify--ph" width="1em" height="1em" preserveAspectRatio="xMidYMid meet" viewBox="0 0 256 256"><path fill="currentColor" d="M85.2 40a6 6 0 0 1 6-6H192a6 6 0 0 1 0 12h-8.8l19.1 108.6a6 6 0 0 1-4.8 7h-1.1a6.1 6.1 0 0 1-5.9-5L171 46H91.2a6 6 0 0 1-6-6ZM212 220.4a5.7 5.7 0 0 1-4 1.6a5.9 5.9 0 0 1-4.4-2L169 182h-35v58a6 6 0 0 1-12 0v-58H40a6 6 0 0 1 0-12h11l17.4-98.7L43.6 44a5.9 5.9 0 0 1 8.8-8l160 176a5.8 5.8 0 0 1-.4 8.4ZM158.1 170L78.6 82.6L63.2 170Z"></path></svg>