<svg xmlns="http://www.w3.org/2000/svg" xmlns:xlink="http://www.w3.org/1999/xlink" aria-hidden="true" role="img" class="iconify iconify--ph" width="1em" height="1em" preserveAspectRatio="xMidYMid meet" viewBox="0 0 256 256"><path fill="currentColor" d="M52.4 36a5.9 5.9 0 0 0-8.8 8l34.7 38.3c-12-1.3-29.4.5-47.5 15.1a14 14 0 0 0-1.1 20.8L79.5 168l-35.7 35.8a5.9 5.9 0 1 0 8.4 8.4L88 176.5l49.6 49.6a14.1 14.1 0 0 0 9.9 4.1h1a13.9 13.9 0 0 0 10.2-5.6c5.9-7.8 14.1-21.2 15.6-36.8l29.3 32.2a5.9 5.9 0 0 0 4.4 2a5.7 5.7 0 0 0 4-1.6a5.8 5.8 0 0 0 .4-8.4Zm96.7 181.4a2 2 0 0 1-1.4.8a2 2 0 0 1-1.6-.6L38.2 109.7a1.8 1.8 0 0 1-.6-1.5a2.2 2.2 0 0 1 .8-1.5c26.1-21 49.9-9.8 50.9-9.3a6.5 6.5 0 0 0 3.3.6l68.6 75.5c4.8 17.7-5.4 35-12.1 43.9ZM234.7 96a14.1 14.1 0 0 1-4.1 9.9l-41.4 41.4a5.9 5.9 0 0 1-8.5 0a6.1 6.1 0 0 1 0-8.5l41.4-41.4a1.9 1.9 0 0 0 0-2.8l-60.7-60.7a1.9 1.9 0 0 0-2.8 0l-38 38a6 6 0 1 1-8.5-8.5l38-38a14.1 14.1 0 0 1 19.8 0l60.7 60.7a14.1 14.1 0 0 1 4.1 9.9Z"></path></svg>