<svg xmlns="http://www.w3.org/2000/svg" xmlns:xlink="http://www.w3.org/1999/xlink" aria-hidden="true" role="img" class="iconify iconify--ph" width="1em" height="1em" preserveAspectRatio="xMidYMid meet" viewBox="0 0 256 256"><path fill="currentColor" d="M200 176H56L80 40h96Z" opacity=".2"></path><path fill="currentColor" d="M216 168h-9.3L185.5 48h6.5a8 8 0 0 0 0-16H64a8 8 0 0 0 0 16h6.5L49.3 168H40a8 8 0 0 0 0 16h80v56a8 8 0 0 0 16 0v-56h80a8 8 0 0 0 0-16ZM86.7 48h82.6l21.2 120h-125Z"></path></svg>