<svg xmlns="http://www.w3.org/2000/svg" xmlns:xlink="http://www.w3.org/1999/xlink" aria-hidden="true" role="img" class="iconify iconify--ph" width="1em" height="1em" preserveAspectRatio="xMidYMid meet" viewBox="0 0 256 256"><path fill="currentColor" d="M236.7 96a15.9 15.9 0 0 0-4.7-11.3L171.3 24a16.1 16.1 0 0 0-22.6 0L90 82.7c-10.7-3.3-35-7.4-60.4 13.1a15.9 15.9 0 0 0-1.3 23.8L76.7 168l-34.4 34.3a8.1 8.1 0 0 0 0 11.4a8.2 8.2 0 0 0 11.4 0L88 179.3l48.2 48.2a16.1 16.1 0 0 0 11.3 4.7h1.1a16.3 16.3 0 0 0 11.7-6.4c19.6-26.1 17.7-47.3 13.2-60l58.5-58.5a15.9 15.9 0 0 0 4.7-11.3Zm-78.4 62.3a8.2 8.2 0 0 0-1.5 9.3c9.5 18.9-1.8 38.6-9.3 48.6L39.6 108.3C51.7 98.5 63.3 96 72.1 96s15.9 2.9 16.3 3.2a8.2 8.2 0 0 0 9.3-1.5L160 35.3L220.7 96Z"></path></svg>