<svg xmlns="http://www.w3.org/2000/svg" xmlns:xlink="http://www.w3.org/1999/xlink" aria-hidden="true" role="img" class="iconify iconify--ph" width="1em" height="1em" preserveAspectRatio="xMidYMid meet" viewBox="0 0 256 256"><path fill="currentColor" d="M222.4 155.2a11.8 11.8 0 0 0-11.5-.7a16.5 16.5 0 0 1-6.9 1.5a15.8 15.8 0 0 1-11.7-5.1a16 16 0 0 1 18.6-25.4a12 12 0 0 0 17.1-10.8V72a20.1 20.1 0 0 0-20-20h-32a40.4 40.4 0 0 0-12.6-29.2a40.1 40.1 0 0 0-67.3 26.3A28.1 28.1 0 0 0 96 52H64a20.1 20.1 0 0 0-20 20v28a40.4 40.4 0 0 0-29.2 12.6a40.1 40.1 0 0 0 26.3 67.3H44v28a20.1 20.1 0 0 0 20 20h144a20.1 20.1 0 0 0 20-20v-42.6a11.9 11.9 0 0 0-5.6-10.1ZM204 204H68v-38.7a12 12 0 0 0-17.1-10.8a16 16 0 0 1-18.6-25.4A15.8 15.8 0 0 1 44 124a16.5 16.5 0 0 1 6.9 1.5A12 12 0 0 0 68 114.7V76h42.7a12 12 0 0 0 10.8-17.1A16.1 16.1 0 0 1 134.9 36A16.1 16.1 0 0 1 152 52a16.5 16.5 0 0 1-1.5 6.9A12 12 0 0 0 161.3 76H204v24h-2.9a40.1 40.1 0 0 0-26.3 67.3A40.4 40.4 0 0 0 204 180Z"></path></svg>