<svg xmlns="http://www.w3.org/2000/svg" xmlns:xlink="http://www.w3.org/1999/xlink" aria-hidden="true" role="img" class="iconify iconify--ph" width="1em" height="1em" preserveAspectRatio="xMidYMid meet" viewBox="0 0 256 256"><path fill="currentColor" d="M218.1 161.9a3.9 3.9 0 0 0-3.8-.2A24.2 24.2 0 0 1 204 164a24 24 0 1 1 10.3-45.7a3.9 3.9 0 0 0 3.8-.2a4 4 0 0 0 1.9-3.4V72a12 12 0 0 0-12-12h-41a30.8 30.8 0 0 0 1-8a32.1 32.1 0 0 0-10.1-23.3a32 32 0 0 0-53.8 21A32.2 32.2 0 0 0 105 60H64a12 12 0 0 0-12 12v37a30.8 30.8 0 0 0-8-1a32.1 32.1 0 0 0-23.3 10.1a32 32 0 0 0 21 53.8A32.2 32.2 0 0 0 52 171v37a12 12 0 0 0 12 12h144a12 12 0 0 0 12-12v-42.7a4 4 0 0 0-1.9-3.4ZM212 208a4 4 0 0 1-4 4H64a4 4 0 0 1-4-4v-42.7a4 4 0 0 0-1.9-3.4a3.9 3.9 0 0 0-2.1-.6a3.3 3.3 0 0 0-1.7.4A24 24 0 1 1 44 116a24.2 24.2 0 0 1 10.3 2.3a3.9 3.9 0 0 0 3.8-.2a4 4 0 0 0 1.9-3.4V72a4 4 0 0 1 4-4h46.7a4 4 0 0 0 3.4-1.9a3.9 3.9 0 0 0 .2-3.8A24 24 0 1 1 160 52a24.2 24.2 0 0 1-2.3 10.3a3.9 3.9 0 0 0 .2 3.8a4 4 0 0 0 3.4 1.9H208a4 4 0 0 1 4 4v37a32.1 32.1 0 0 0-39.9 28.9a31.6 31.6 0 0 0 8.6 24A32.1 32.1 0 0 0 204 172a30.8 30.8 0 0 0 8-1Z"></path></svg>