<svg xmlns="http://www.w3.org/2000/svg" xmlns:xlink="http://www.w3.org/1999/xlink" aria-hidden="true" role="img" class="iconify iconify--ph" width="1em" height="1em" preserveAspectRatio="xMidYMid meet" viewBox="0 0 256 256"><path fill="currentColor" d="M219.2 160.2a6 6 0 0 0-5.8-.3a21.5 21.5 0 0 1-9.4 2.1a22 22 0 0 1-16-6.9a22.4 22.4 0 0 1-6-16.5a22.1 22.1 0 0 1 31.4-18.5a6 6 0 0 0 5.8-.3a6.1 6.1 0 0 0 2.8-5.1V72a14 14 0 0 0-14-14h-38.5a40.5 40.5 0 0 0 .5-6a34.3 34.3 0 0 0-10.7-24.8a34 34 0 0 0-57.2 22.3a34.4 34.4 0 0 0 .4 8.5H64a14 14 0 0 0-14 14v34.5a40.5 40.5 0 0 0-6-.5a34.3 34.3 0 0 0-24.8 10.7a34 34 0 0 0 22.3 57.2a34.4 34.4 0 0 0 8.5-.4V208a14 14 0 0 0 14 14h144a14 14 0 0 0 14-14v-42.7a6.1 6.1 0 0 0-2.8-5.1ZM210 208a2 2 0 0 1-2 2H64a2 2 0 0 1-2-2v-42.7a6.1 6.1 0 0 0-2.8-5.1a6.2 6.2 0 0 0-3.2-.9a5.8 5.8 0 0 0-2.6.6A22.1 22.1 0 0 1 22 141.4a22.4 22.4 0 0 1 6-16.5a22 22 0 0 1 16-6.9a21.5 21.5 0 0 1 9.4 2.1a6 6 0 0 0 5.8-.3a6.1 6.1 0 0 0 2.8-5.1V72a2 2 0 0 1 2-2h46.7a6.1 6.1 0 0 0 5.1-2.8a6 6 0 0 0 .3-5.8A22.1 22.1 0 0 1 134.6 30a22.4 22.4 0 0 1 16.5 6a22 22 0 0 1 6.9 16a21.5 21.5 0 0 1-2.1 9.4a6 6 0 0 0 .3 5.8a6.1 6.1 0 0 0 5.1 2.8H208a2 2 0 0 1 2 2v34.5a34.4 34.4 0 0 0-8.5-.4A34 34 0 0 0 204 174a40.5 40.5 0 0 0 6-.5Z"></path></svg>