<svg xmlns="http://www.w3.org/2000/svg" xmlns:xlink="http://www.w3.org/1999/xlink" aria-hidden="true" role="img" class="iconify iconify--ph" width="1em" height="1em" preserveAspectRatio="xMidYMid meet" viewBox="0 0 256 256"><path fill="currentColor" d="M100 36H56a20.1 20.1 0 0 0-20 20v44a20.1 20.1 0 0 0 20 20h44a20.1 20.1 0 0 0 20-20V56a20.1 20.1 0 0 0-20-20Zm-4 60H60V60h36Zm4 40H56a20.1 20.1 0 0 0-20 20v44a20.1 20.1 0 0 0 20 20h44a20.1 20.1 0 0 0 20-20v-44a20.1 20.1 0 0 0-20-20Zm-4 60H60v-36h36ZM200 36h-44a20.1 20.1 0 0 0-20 20v44a20.1 20.1 0 0 0 20 20h44a20.1 20.1 0 0 0 20-20V56a20.1 20.1 0 0 0-20-20Zm-4 60h-36V60h36Zm-48 88a12 12 0 0 0 12-12v-24a12 12 0 0 0-24 0v24a12 12 0 0 0 12 12Z"></path><path fill="currentColor" d="M208 152h-12v-4a12 12 0 0 0-24 0v48h-24a12 12 0 0 0 0 24h36a12 12 0 0 0 12-12v-32h12a12 12 0 0 0 0-24Z"></path></svg>