<svg xmlns="http://www.w3.org/2000/svg" xmlns:xlink="http://www.w3.org/1999/xlink" aria-hidden="true" role="img" class="iconify iconify--ph" width="1em" height="1em" preserveAspectRatio="xMidYMid meet" viewBox="0 0 256 256"><rect width="64" height="64" x="48" y="48" fill="currentColor" opacity=".2" rx="8"></rect><rect width="64" height="64" x="48" y="144" fill="currentColor" opacity=".2" rx="8"></rect><rect width="64" height="64" x="144" y="48" fill="currentColor" opacity=".2" rx="8"></rect><path fill="currentColor" d="M104 40H56a16 16 0 0 0-16 16v48a16 16 0 0 0 16 16h48a16 16 0 0 0 16-16V56a16 16 0 0 0-16-16Zm0 64H56V56h48v48Zm0 32H56a16 16 0 0 0-16 16v48a16 16 0 0 0 16 16h48a16 16 0 0 0 16-16v-48a16 16 0 0 0-16-16Zm0 64H56v-48h48v48Zm96-160h-48a16 16 0 0 0-16 16v48a16 16 0 0 0 16 16h48a16 16 0 0 0 16-16V56a16 16 0 0 0-16-16Zm0 64h-48V56h48v48Zm-56 80a8 8 0 0 0 8-8v-32a8 8 0 0 0-16 0v32a8 8 0 0 0 8 8Z"></path><path fill="currentColor" d="M208 152h-24v-8a8 8 0 0 0-16 0v56h-24a8 8 0 0 0 0 16h32a8 8 0 0 0 8-8v-40h24a8 8 0 0 0 0-16Zm0 32a8 8 0 0 0-8 8v16a8 8 0 0 0 16 0v-16a8 8 0 0 0-8-8Z"></path></svg>