<svg xmlns="http://www.w3.org/2000/svg" xmlns:xlink="http://www.w3.org/1999/xlink" aria-hidden="true" role="img" class="iconify iconify--ph" width="1em" height="1em" preserveAspectRatio="xMidYMid meet" viewBox="0 0 256 256"><path fill="currentColor" d="M128 28a100 100 0 1 0 100 100A100.2 100.2 0 0 0 128 28Zm0 192a92 92 0 1 1 92-92a92.1 92.1 0 0 1-92 92Zm8-40a8 8 0 1 1-8-8a8 8 0 0 1 8 8Zm24-72a32.1 32.1 0 0 1-28 31.8v4.2a4 4 0 0 1-8 0v-8a4 4 0 0 1 4-4a24 24 0 1 0-24-24a4 4 0 0 1-8 0a32 32 0 0 1 64 0Z"></path></svg>