<svg xmlns="http://www.w3.org/2000/svg" xmlns:xlink="http://www.w3.org/1999/xlink" aria-hidden="true" role="img" class="iconify iconify--ph" width="1em" height="1em" preserveAspectRatio="xMidYMid meet" viewBox="0 0 256 256"><path fill="currentColor" d="M34 64a6 6 0 0 1 6-6h176a6 6 0 0 1 0 12H40a6 6 0 0 1-6-6Zm102 58H40a6 6 0 0 0 0 12h96a6 6 0 0 0 0-12Zm0 64H40a6 6 0 0 0 0 12h96a6 6 0 0 0 0-12Zm110-26a6.1 6.1 0 0 1-2.8 5.1l-64 40a6.2 6.2 0 0 1-3.2.9a5.1 5.1 0 0 1-2.9-.8a5.9 5.9 0 0 1-3.1-5.2v-80a5.9 5.9 0 0 1 3.1-5.2a6.1 6.1 0 0 1 6.1.1l64 40a6.1 6.1 0 0 1 2.8 5.1Zm-17.3 0L182 130.8v58.4Z"></path></svg>