<svg xmlns="http://www.w3.org/2000/svg" xmlns:xlink="http://www.w3.org/1999/xlink" aria-hidden="true" role="img" class="iconify iconify--ph" width="1em" height="1em" preserveAspectRatio="xMidYMid meet" viewBox="0 0 256 256"><path fill="currentColor" d="M144 192a8 8 0 0 1-8 8H40a8 8 0 0 1 0-16h96a8 8 0 0 1 8 8ZM40 72h176a8 8 0 0 0 0-16H40a8 8 0 0 0 0 16Zm96 48H40a8 8 0 0 0 0 16h96a8 8 0 0 0 0-16Zm108.2 33.2l-64-40A8 8 0 0 0 168 120v80a8.1 8.1 0 0 0 4.1 7a8 8 0 0 0 8.1-.2l64-40a8 8 0 0 0 0-13.6Z"></path></svg>