<svg xmlns="http://www.w3.org/2000/svg" xmlns:xlink="http://www.w3.org/1999/xlink" aria-hidden="true" role="img" class="iconify iconify--ph" width="1em" height="1em" preserveAspectRatio="xMidYMid meet" viewBox="0 0 256 256"><path fill="currentColor" d="M32 64a8 8 0 0 1 8-8h176a8 8 0 0 1 0 16H40a8 8 0 0 1-8-8Zm104 56H40a8 8 0 0 0 0 16h96a8 8 0 0 0 0-16Zm0 64H40a8 8 0 0 0 0 16h96a8 8 0 0 0 0-16Zm112-24a7.9 7.9 0 0 1-3.8 6.8l-64 40a8 8 0 0 1-8.1.2a8.1 8.1 0 0 1-4.1-7v-80a8 8 0 0 1 12.2-6.8l64 40a7.9 7.9 0 0 1 3.8 6.8Zm-23.1 0L184 134.4v51.2Z"></path></svg>