<svg xmlns="http://www.w3.org/2000/svg" xmlns:xlink="http://www.w3.org/1999/xlink" aria-hidden="true" role="img" class="iconify iconify--ph" width="1em" height="1em" preserveAspectRatio="xMidYMid meet" viewBox="0 0 256 256"><path fill="currentColor" d="M36 64a4 4 0 0 1 4-4h176a4 4 0 0 1 0 8H40a4 4 0 0 1-4-4Zm100 60H40a4 4 0 0 0 0 8h96a4 4 0 0 0 0-8Zm0 64H40a4 4 0 0 0 0 8h96a4 4 0 0 0 0-8Zm108-28a3.9 3.9 0 0 1-1.9 3.4l-64 40a3.9 3.9 0 0 1-2.1.6a4.1 4.1 0 0 1-1.9-.5a3.9 3.9 0 0 1-2.1-3.5v-80a3.9 3.9 0 0 1 2.1-3.5a3.8 3.8 0 0 1 4 .1l64 40a3.9 3.9 0 0 1 1.9 3.4Zm-11.5 0L180 127.2v65.6Z"></path></svg>