<svg xmlns="http://www.w3.org/2000/svg" xmlns:xlink="http://www.w3.org/1999/xlink" aria-hidden="true" role="img" class="iconify iconify--ph" width="1em" height="1em" preserveAspectRatio="xMidYMid meet" viewBox="0 0 256 256"><path fill="currentColor" d="M148 192a12 12 0 0 1-12 12H40a12 12 0 0 1 0-24h96a12 12 0 0 1 12 12Zm104-32a12.1 12.1 0 0 1-5.6 10.2l-64 40a12.4 12.4 0 0 1-6.4 1.8a12 12 0 0 1-12-12v-80a12 12 0 0 1 18.4-10.2l64 40A12.1 12.1 0 0 1 252 160Zm-34.6 0L188 141.7v36.6ZM40 76h176a12 12 0 0 0 0-24H40a12 12 0 0 0 0 24Zm96 40H40a12 12 0 0 0 0 24h96a12 12 0 0 0 0-24Z"></path></svg>