<svg xmlns="http://www.w3.org/2000/svg" xmlns:xlink="http://www.w3.org/1999/xlink" aria-hidden="true" role="img" class="iconify iconify--ph" width="1em" height="1em" preserveAspectRatio="xMidYMid meet" viewBox="0 0 256 256"><path fill="currentColor" d="M100 56H40a16 16 0 0 0-16 16v64a16 16 0 0 0 16 16h60v8a32.1 32.1 0 0 1-32 32a8 8 0 0 0 0 16a48 48 0 0 0 48-48V72a16 16 0 0 0-16-16Zm0 80H40V72h60Zm116-80h-60a16 16 0 0 0-16 16v64a16 16 0 0 0 16 16h60v8a32.1 32.1 0 0 1-32 32a8 8 0 0 0 0 16a48 48 0 0 0 48-48V72a16 16 0 0 0-16-16Zm0 80h-60V72h60Z"></path></svg>