<svg xmlns="http://www.w3.org/2000/svg" xmlns:xlink="http://www.w3.org/1999/xlink" aria-hidden="true" role="img" class="iconify iconify--ph" width="1em" height="1em" preserveAspectRatio="xMidYMid meet" viewBox="0 0 256 256"><path fill="currentColor" d="M116 72v88a48 48 0 0 1-48 48a8 8 0 0 1 0-16a32.1 32.1 0 0 0 32-32v-8H40a16 16 0 0 1-16-16V72a16 16 0 0 1 16-16h60a16 16 0 0 1 16 16Zm100-16h-60a16 16 0 0 0-16 16v64a16 16 0 0 0 16 16h60v8a32.1 32.1 0 0 1-32 32a8 8 0 0 0 0 16a48 48 0 0 0 48-48V72a16 16 0 0 0-16-16Z"></path></svg>