<svg xmlns="http://www.w3.org/2000/svg" xmlns:xlink="http://www.w3.org/1999/xlink" aria-hidden="true" role="img" class="iconify iconify--ph" width="1em" height="1em" preserveAspectRatio="xMidYMid meet" viewBox="0 0 256 256"><path fill="currentColor" d="M108 72v72H40a8 8 0 0 1-8-8V72a8 8 0 0 1 8-8h60a8 8 0 0 1 8 8Zm108-8h-60a8 8 0 0 0-8 8v64a8 8 0 0 0 8 8h68V72a8 8 0 0 0-8-8Z" opacity=".2"></path><path fill="currentColor" d="M100 56H40a16 16 0 0 0-16 16v64a16 16 0 0 0 16 16h60v8a32.1 32.1 0 0 1-32 32a8 8 0 0 0 0 16a48 48 0 0 0 48-48V72a16 16 0 0 0-16-16Zm0 80H40V72h60Zm116-80h-60a16 16 0 0 0-16 16v64a16 16 0 0 0 16 16h60v8a32.1 32.1 0 0 1-32 32a8 8 0 0 0 0 16a48 48 0 0 0 48-48V72a16 16 0 0 0-16-16Zm0 80h-60V72h60Z"></path></svg>