<svg xmlns="http://www.w3.org/2000/svg" xmlns:xlink="http://www.w3.org/1999/xlink" aria-hidden="true" role="img" class="iconify iconify--ph" width="1em" height="1em" preserveAspectRatio="xMidYMid meet" viewBox="0 0 256 256"><path fill="currentColor" d="M216 74H72.9l120.8-36.3a5.9 5.9 0 0 0-3.4-11.4l-160 48h-.6l-.4.2H29a5.4 5.4 0 0 0-1.6 1.4l-.2.3l-.2.2h-.1a8.7 8.7 0 0 0-.7 1.7v.3a4.3 4.3 0 0 0-.1.5V200a14 14 0 0 0 14 14H216a14 14 0 0 0 14-14V88a14 14 0 0 0-14-14Zm2 126a2 2 0 0 1-2 2H40a2 2 0 0 1-2-2V86h178a2 2 0 0 1 2 2Zm-58-94a38 38 0 1 0 38 38a38 38 0 0 0-38-38Zm0 64a26 26 0 1 1 26-26a26.1 26.1 0 0 1-26 26Zm-58-58a6 6 0 0 1-6 6H64a6 6 0 0 1 0-12h32a6 6 0 0 1 6 6Zm0 32a6 6 0 0 1-6 6H64a6 6 0 0 1 0-12h32a6 6 0 0 1 6 6Zm0 32a6 6 0 0 1-6 6H64a6 6 0 0 1 0-12h32a6 6 0 0 1 6 6Z"></path></svg>