<svg xmlns="http://www.w3.org/2000/svg" xmlns:xlink="http://www.w3.org/1999/xlink" aria-hidden="true" role="img" class="iconify iconify--ph" width="1em" height="1em" preserveAspectRatio="xMidYMid meet" viewBox="0 0 256 256"><path fill="currentColor" d="M184 128a56 56 0 1 1-56-56a56 56 0 0 1 56 56Z" opacity=".2"></path><path fill="currentColor" d="M128 24a104 104 0 1 0 104 104A104.2 104.2 0 0 0 128 24Zm0 192a88 88 0 1 1 88-88a88.1 88.1 0 0 1-88 88Zm0-152a64 64 0 1 0 64 64a64.1 64.1 0 0 0-64-64Zm0 112a48 48 0 1 1 48-48a48 48 0 0 1-48 48Z"></path></svg>