<svg xmlns="http://www.w3.org/2000/svg" xmlns:xlink="http://www.w3.org/1999/xlink" aria-hidden="true" role="img" class="iconify iconify--ph" width="1em" height="1em" preserveAspectRatio="xMidYMid meet" viewBox="0 0 256 256"><path fill="currentColor" d="M216 68H113.8l81.6-24.5a12 12 0 1 0-6.8-23l-160 48h-.1l-1 .4h-.1l-.8.4h-.3l-.3.2a11.8 11.8 0 0 0-3.2 2.7h-.1l-.4.5l-.3.4c0 .1-.1.2-.1.3a10 10 0 0 0-1.5 3.5c-.1.1-.1.3-.2.5v.2c0 .3-.1.6-.1 1A3.7 3.7 0 0 0 20 80v120a20.1 20.1 0 0 0 20 20h176a20.1 20.1 0 0 0 20-20V88a20.1 20.1 0 0 0-20-20Zm-4 128H44V92h168Zm-52-16a36 36 0 1 0-36-36a36 36 0 0 0 36 36Zm0-48a12 12 0 1 1-12 12a12 12 0 0 1 12-12Zm-100-8a12 12 0 0 1 12-12h24a12 12 0 0 1 0 24H72a12 12 0 0 1-12-12Zm0 40a12 12 0 0 1 12-12h24a12 12 0 0 1 0 24H72a12 12 0 0 1-12-12Z"></path></svg>