<svg xmlns="http://www.w3.org/2000/svg" xmlns:xlink="http://www.w3.org/1999/xlink" aria-hidden="true" role="img" class="iconify iconify--ph" width="1em" height="1em" preserveAspectRatio="xMidYMid meet" viewBox="0 0 256 256"><path fill="currentColor" d="M216 76H59.3l133.8-40.2a4 4 0 0 0-2.2-7.6l-160 48h-.2l-.4.2l-.4.2l-.3.2l-.3.3l-.3.2c0 .1-.1.2-.2.3l-.2.3c-.1.1-.1.3-.2.4s-.1.2-.1.3s-.1.3-.2.4v.4a.6.6 0 0 0-.1.4V200a12 12 0 0 0 12 12h176a12 12 0 0 0 12-12V88a12 12 0 0 0-12-12Zm4 124a4 4 0 0 1-4 4H40a4 4 0 0 1-4-4V84h180a4 4 0 0 1 4 4Zm-60-92a36 36 0 1 0 36 36a36 36 0 0 0-36-36Zm0 64a28 28 0 1 1 28-28a28.1 28.1 0 0 1-28 28Zm-60-60a4 4 0 0 1-4 4H64a4 4 0 0 1 0-8h32a4 4 0 0 1 4 4Zm0 32a4 4 0 0 1-4 4H64a4 4 0 0 1 0-8h32a4 4 0 0 1 4 4Zm0 32a4 4 0 0 1-4 4H64a4 4 0 0 1 0-8h32a4 4 0 0 1 4 4Z"></path></svg>