<svg xmlns="http://www.w3.org/2000/svg" xmlns:xlink="http://www.w3.org/1999/xlink" aria-hidden="true" role="img" class="iconify iconify--ph" width="1em" height="1em" preserveAspectRatio="xMidYMid meet" viewBox="0 0 256 256"><path fill="currentColor" d="M216 72H86.5l107.8-32.3a8 8 0 1 0-4.6-15.4l-160 48l-.7.3h-.1l-.5.3H28a6.8 6.8 0 0 0-2.1 1.7a.1.1 0 0 1-.1.1c-.1.1-.1.2-.2.4l-.2.2a.3.3 0 0 0-.1.2a6.7 6.7 0 0 0-1 2.3c-.1.1-.1.2-.1.4h-.1a2 2 0 0 1-.1.7V200a16 16 0 0 0 16 16h176a16 16 0 0 0 16-16V88a16 16 0 0 0-16-16Zm0 128H40V88h176v112Zm-56-96a40 40 0 1 0 40 40a40 40 0 0 0-40-40Zm0 64a24 24 0 1 1 24-24a24.1 24.1 0 0 1-24 24Zm-56-56a8 8 0 0 1-8 8H64a8 8 0 0 1 0-16h32a8 8 0 0 1 8 8Zm0 32a8 8 0 0 1-8 8H64a8 8 0 0 1 0-16h32a8 8 0 0 1 8 8Zm0 32a8 8 0 0 1-8 8H64a8 8 0 0 1 0-16h32a8 8 0 0 1 8 8Z"></path></svg>