<svg xmlns="http://www.w3.org/2000/svg" xmlns:xlink="http://www.w3.org/1999/xlink" aria-hidden="true" role="img" class="iconify iconify--ph" width="1em" height="1em" preserveAspectRatio="xMidYMid meet" viewBox="0 0 256 256"><path fill="currentColor" d="M200 114a46.3 46.3 0 0 0-43.4 30.6a23.2 23.2 0 0 0-4.6-.4c-16.5 0-30 13.9-30 30.9s13.5 30.9 30 30.9h48a46 46 0 0 0 0-92Zm0 80h-48c-9.9 0-18-8.5-18-18.9s8.1-18.9 18-18.9a17.5 17.5 0 0 1 6.5 1.3a5.7 5.7 0 0 0 5.1-.3a6 6 0 0 0 3.1-4A34 34 0 1 1 200 194ZM22 160v16a6 6 0 0 1-12 0v-16a102 102 0 0 1 173.1-73.1a6 6 0 0 1 .1 8.5a6.1 6.1 0 0 1-8.5.1A88.9 88.9 0 0 0 112 70a90.1 90.1 0 0 0-90 90Zm90-58a58 58 0 0 0-58 58v16a6 6 0 0 1-12 0v-16a70.1 70.1 0 0 1 70-70a69.4 69.4 0 0 1 41.4 13.6a5.9 5.9 0 0 1 1.3 8.4a6 6 0 0 1-8.4 1.2A57.7 57.7 0 0 0 112 102Zm6 32.7a24 24 0 0 0-6-.7a26.1 26.1 0 0 0-26 26v16a6 6 0 0 1-12 0v-16a38 38 0 0 1 38-38a37.1 37.1 0 0 1 8.8 1a6.2 6.2 0 0 1 4.5 7.3a6 6 0 0 1-7.3 4.4Z"></path></svg>