<svg xmlns="http://www.w3.org/2000/svg" xmlns:xlink="http://www.w3.org/1999/xlink" aria-hidden="true" role="img" class="iconify iconify--ph" width="1em" height="1em" preserveAspectRatio="xMidYMid meet" viewBox="0 0 256 256"><path fill="currentColor" d="M200 116a44.2 44.2 0 0 0-42 30.9a24.6 24.6 0 0 0-6-.7c-15.4 0-28 13-28 28.9s12.6 28.9 28 28.9h48a44 44 0 0 0 0-88Zm0 80h-48c-11 0-20-9.4-20-20.9s9-20.9 20-20.9a18.3 18.3 0 0 1 7.3 1.5a4.5 4.5 0 0 0 3.4-.2a4.2 4.2 0 0 0 2-2.7A36 36 0 1 1 200 196ZM20 160v16a4 4 0 0 1-8 0v-16a100 100 0 0 1 169.7-71.7a4 4 0 1 1-5.6 5.7A91.2 91.2 0 0 0 112 68a92.1 92.1 0 0 0-92 92Zm92-60a60 60 0 0 0-60 60v16a4 4 0 0 1-8 0v-16a68 68 0 0 1 108.2-54.8a4 4 0 0 1 .9 5.6a4.1 4.1 0 0 1-5.6.8A59.4 59.4 0 0 0 112 100Zm11.3 29.8a4.1 4.1 0 0 1-4.8 3A27.9 27.9 0 0 0 84 160v16a4 4 0 0 1-8 0v-16a36 36 0 0 1 36-36a33.1 33.1 0 0 1 8.3 1a3.9 3.9 0 0 1 3 4.8Z"></path></svg>