<svg xmlns="http://www.w3.org/2000/svg" xmlns:xlink="http://www.w3.org/1999/xlink" aria-hidden="true" role="img" class="iconify iconify--ph" width="1em" height="1em" preserveAspectRatio="xMidYMid meet" viewBox="0 0 256 256"><path fill="currentColor" d="M204 108a52.2 52.2 0 0 0-47.2 30.2h-.8c-19.9 0-36 16.6-36 36.9s16.1 36.9 36 36.9h48a52 52 0 0 0 0-104Zm0 80h-48c-6.6 0-12-5.8-12-12.9s5.4-12.9 12-12.9a10.7 10.7 0 0 1 4.3.9a12.2 12.2 0 0 0 10.2-.6a11.8 11.8 0 0 0 6.1-8.1A28 28 0 1 1 204 188Zm-94.8-51.2a12.1 12.1 0 0 1-2.1 16.9a7.8 7.8 0 0 0-3.1 6.3v16a12 12 0 0 1-24 0v-16a31.7 31.7 0 0 1 12.4-25.3a12 12 0 0 1 16.8 2.1Zm27.5-18A48.8 48.8 0 0 0 112 112a48 48 0 0 0-48 48v16a12 12 0 0 1-24 0v-16a72 72 0 0 1 109-61.8a12 12 0 0 1-12.3 20.6ZM24 160v16a12 12 0 0 1-24 0v-16a112 112 0 0 1 185.5-84.5a12 12 0 0 1-15.8 18.1A88 88 0 0 0 24 160Z"></path></svg>