<svg xmlns="http://www.w3.org/2000/svg" xmlns:xlink="http://www.w3.org/1999/xlink" aria-hidden="true" role="img" class="iconify iconify--ph" width="1em" height="1em" preserveAspectRatio="xMidYMid meet" viewBox="0 0 256 256"><path fill="currentColor" d="M184 168v16a8 8 0 0 1-16 0v-16a40 40 0 0 0-80 0v16a8 8 0 0 1-16 0v-16a56 56 0 0 1 112 0ZM128 48A120.1 120.1 0 0 0 8 168v16a8 8 0 0 0 16 0v-16a104 104 0 0 1 208 0v16a8 8 0 0 0 16 0v-16A120.1 120.1 0 0 0 128 48Zm0 32a88.1 88.1 0 0 0-88 88v16a8 8 0 0 0 16 0v-16a72 72 0 0 1 144 0v16a8 8 0 0 0 16 0v-16a88.1 88.1 0 0 0-88-88Z"></path></svg>