<svg xmlns="http://www.w3.org/2000/svg" xmlns:xlink="http://www.w3.org/1999/xlink" aria-hidden="true" role="img" class="iconify iconify--ph" width="1em" height="1em" preserveAspectRatio="xMidYMid meet" viewBox="0 0 256 256"><path fill="currentColor" d="M24 160v16a8 8 0 0 1-16 0v-16a104 104 0 0 1 176.5-74.6a8 8 0 1 1-11.2 11.5A88 88 0 0 0 24 160Zm88-56a56 56 0 0 1 33.1 10.8a8 8 0 1 0 9.5-12.8A70.9 70.9 0 0 0 112 88a72.1 72.1 0 0 0-72 72v16a8 8 0 0 0 16 0v-16a56 56 0 0 1 56-56Zm15.2 26.7a7.9 7.9 0 0 0-5.9-9.6a42.2 42.2 0 0 0-9.3-1.1a40 40 0 0 0-40 40v16a8 8 0 0 0 16 0v-16a24.1 24.1 0 0 1 24-24a26 26 0 0 1 5.6.6a7.9 7.9 0 0 0 9.6-5.9ZM200 112a48.4 48.4 0 0 0-44.7 30.4l-3.3-.2c-17.6 0-32 14.8-32 32.9s14.4 32.9 32 32.9h48a48 48 0 0 0 0-96Z"></path></svg>