<svg xmlns="http://www.w3.org/2000/svg" xmlns:xlink="http://www.w3.org/1999/xlink" aria-hidden="true" role="img" class="iconify iconify--ph" width="1em" height="1em" preserveAspectRatio="xMidYMid meet" viewBox="0 0 256 256"><path fill="currentColor" d="M152 200c-13.3 0-24-11.1-24-24.9s10.7-24.9 24-24.9a21.6 21.6 0 0 1 8.8 1.8a40 40 0 1 1 39.2 48Z" opacity=".2"></path><path fill="currentColor" d="M200 112a48.4 48.4 0 0 0-44.7 30.4l-3.3-.2c-17.6 0-32 14.8-32 32.9s14.4 32.9 32 32.9h48a48 48 0 0 0 0-96Zm0 80h-48c-8.8 0-16-7.6-16-16.9s7.2-16.9 16-16.9a14.7 14.7 0 0 1 5.8 1.2a8.1 8.1 0 0 0 6.8-.4a7.6 7.6 0 0 0 4-5.4A32 32 0 1 1 200 192ZM24 160v16a8 8 0 0 1-16 0v-16a104 104 0 0 1 176.5-74.6a8 8 0 1 1-11.2 11.5A88 88 0 0 0 24 160Zm32 0v16a8 8 0 0 1-16 0v-16a72.1 72.1 0 0 1 72-72a70.9 70.9 0 0 1 42.6 14a8 8 0 1 1-9.5 12.8A56 56 0 0 0 56 160Zm61.6-23.4a26 26 0 0 0-5.6-.6a24.1 24.1 0 0 0-24 24v16a8 8 0 0 1-16 0v-16a40 40 0 0 1 40-40a42.2 42.2 0 0 1 9.3 1.1a8 8 0 0 1-3.7 15.5Z"></path></svg>