<svg xmlns="http://www.w3.org/2000/svg" xmlns:xlink="http://www.w3.org/1999/xlink" aria-hidden="true" role="img" class="iconify iconify--ph" width="1em" height="1em" preserveAspectRatio="xMidYMid meet" viewBox="0 0 256 256"><path fill="currentColor" d="M180 168v16a4 4 0 0 1-8 0v-16a44 44 0 0 0-88 0v16a4 4 0 0 1-8 0v-16a52 52 0 0 1 104 0Zm-52-84a84.1 84.1 0 0 0-84 84v16a4 4 0 0 0 8 0v-16a76 76 0 0 1 152 0v16a4 4 0 0 0 8 0v-16a84.1 84.1 0 0 0-84-84Zm0-32A116.1 116.1 0 0 0 12 168v16a4 4 0 0 0 8 0v-16a108 108 0 0 1 216 0v16a4 4 0 0 0 8 0v-16A116.1 116.1 0 0 0 128 52Z"></path></svg>