<svg xmlns="http://www.w3.org/2000/svg" xmlns:xlink="http://www.w3.org/1999/xlink" aria-hidden="true" role="img" class="iconify iconify--ph" width="1em" height="1em" preserveAspectRatio="xMidYMid meet" viewBox="0 0 256 256"><path fill="currentColor" d="M68 104a8 8 0 0 1 8-8h104a8 8 0 0 1 0 16H76a8 8 0 0 1-8-8Zm8 40h104a8 8 0 0 0 0-16H76a8 8 0 0 0 0 16Zm156-88v152a7.9 7.9 0 0 1-3.8 6.8a8 8 0 0 1-7.8.4L192 200.9l-28.4 14.3a8.5 8.5 0 0 1-7.2 0L128 200.9l-28.4 14.3a8.3 8.3 0 0 1-7.2 0L64 200.9l-28.4 14.3a8 8 0 0 1-7.8-.4A7.9 7.9 0 0 1 24 208V56a16 16 0 0 1 16-16h176a16 16 0 0 1 16 16Zm-16 0H40v139.1l20.4-10.3a8.3 8.3 0 0 1 7.2 0L96 199.1l28.4-14.3a8.5 8.5 0 0 1 7.2 0l28.4 14.3l28.4-14.3a8.3 8.3 0 0 1 7.2 0l20.4 10.3Z"></path></svg>