<svg xmlns="http://www.w3.org/2000/svg" xmlns:xlink="http://www.w3.org/1999/xlink" aria-hidden="true" role="img" class="iconify iconify--ph" width="1em" height="1em" preserveAspectRatio="xMidYMid meet" viewBox="0 0 256 256"><path fill="currentColor" d="M186 104a6 6 0 0 1-6 6H76a6 6 0 0 1 0-12h104a6 6 0 0 1 6 6Zm-6 26H76a6 6 0 0 0 0 12h104a6 6 0 0 0 0-12Zm50-74v152a6.1 6.1 0 0 1-2.8 5.1a6.2 6.2 0 0 1-3.2.9a6.6 6.6 0 0 1-2.7-.6L192 198.7l-29.3 14.7a6.4 6.4 0 0 1-5.4 0L128 198.7l-29.3 14.7a6.4 6.4 0 0 1-5.4 0L64 198.7l-29.3 14.7a6.2 6.2 0 0 1-5.9-.3A6.1 6.1 0 0 1 26 208V56a14 14 0 0 1 14-14h176a14 14 0 0 1 14 14Zm-12 0a2 2 0 0 0-2-2H40a2 2 0 0 0-2 2v142.3l23.3-11.7a6.4 6.4 0 0 1 5.4 0L96 201.3l29.3-14.7a6.4 6.4 0 0 1 5.4 0l29.3 14.7l29.3-14.7a6.4 6.4 0 0 1 5.4 0l23.3 11.7Z"></path></svg>