<svg xmlns="http://www.w3.org/2000/svg" xmlns:xlink="http://www.w3.org/1999/xlink" aria-hidden="true" role="img" class="iconify iconify--ph" width="1em" height="1em" preserveAspectRatio="xMidYMid meet" viewBox="0 0 256 256"><path fill="currentColor" d="M64 100a12 12 0 0 1 12-12h104a12 12 0 0 1 0 24H76a12 12 0 0 1-12-12Zm12 52h104a12 12 0 0 0 0-24H76a12 12 0 0 0 0 24Zm160-96v152a12 12 0 0 1-5.7 10.2a11.9 11.9 0 0 1-11.7.5L192 205.4l-26.6 13.3a11.9 11.9 0 0 1-10.8 0L128 205.4l-26.6 13.3a12.1 12.1 0 0 1-10.8 0L64 205.4l-26.6 13.3a11.9 11.9 0 0 1-11.7-.5A12 12 0 0 1 20 208V56a20.1 20.1 0 0 1 20-20h176a20.1 20.1 0 0 1 20 20Zm-24 4H44v128.6l14.6-7.3a12.1 12.1 0 0 1 10.8 0L96 194.6l26.6-13.3a11.9 11.9 0 0 1 10.8 0l26.6 13.3l26.6-13.3a12.1 12.1 0 0 1 10.8 0l14.6 7.3Z"></path></svg>