<svg xmlns="http://www.w3.org/2000/svg" xmlns:xlink="http://www.w3.org/1999/xlink" aria-hidden="true" role="img" class="iconify iconify--ph" width="1em" height="1em" preserveAspectRatio="xMidYMid meet" viewBox="0 0 256 256"><path fill="currentColor" d="M184 104a4 4 0 0 1-4 4H76a4 4 0 0 1 0-8h104a4 4 0 0 1 4 4Zm-4 28H76a4 4 0 0 0 0 8h104a4 4 0 0 0 0-8Zm48-76v152a4 4 0 0 1-5.8 3.6L192 196.5l-30.2 15.1a4.5 4.5 0 0 1-3.6 0L128 196.5l-30.2 15.1a4.5 4.5 0 0 1-3.6 0L64 196.5l-30.2 15.1a4.1 4.1 0 0 1-3.9-.2A3.9 3.9 0 0 1 28 208V56a12 12 0 0 1 12-12h176a12 12 0 0 1 12 12Zm-8 0a4 4 0 0 0-4-4H40a4 4 0 0 0-4 4v145.5l26.2-13.1a4.5 4.5 0 0 1 3.6 0L96 203.5l30.2-15.1a4.2 4.2 0 0 1 3.6 0l30.2 15.1l30.2-15.1a4.5 4.5 0 0 1 3.6 0l26.2 13.1Z"></path></svg>