<svg xmlns="http://www.w3.org/2000/svg" xmlns:xlink="http://www.w3.org/1999/xlink" aria-hidden="true" role="img" class="iconify iconify--ph" width="1em" height="1em" preserveAspectRatio="xMidYMid meet" viewBox="0 0 256 256"><path fill="currentColor" d="M235 203a21.6 21.6 0 0 1-19 11h-73.5l13.7 13.8a5.9 5.9 0 1 1-8.4 8.4l-24-24a5.6 5.6 0 0 1-1.8-4.2a6 6 0 0 1 1.8-4.3l24-23.9a5.9 5.9 0 0 1 8.4 8.4L142.5 202H216a10 10 0 0 0 8.6-15l-23.9-41.4a6 6 0 1 1 10.4-6L235 181a21.7 21.7 0 0 1 0 22Zm-147-1H40a10 10 0 0 1-8.6-15l36.7-63.5l5.1 18.8a6 6 0 0 0 5.8 4.5l1.5-.2a6.2 6.2 0 0 0 4.3-7.4L76 106.4a6.7 6.7 0 0 0-2.8-3.6a6.2 6.2 0 0 0-4.6-.6L35.8 111a5.9 5.9 0 0 0-4.2 7.3a6.1 6.1 0 0 0 7.3 4.3l18.8-5.1L21 181a22 22 0 0 0 19 33h48a6 6 0 0 0 0-12Zm48.7-167l36.7 63.4l-18.8-5a5.9 5.9 0 0 0-7.3 4.2a6 6 0 0 0 4.2 7.4l32.8 8.8l1.5.2a6 6 0 0 0 5.8-4.5l8.8-32.8a5.9 5.9 0 0 0-4.2-7.3a6 6 0 0 0-7.4 4.2l-5 18.9L147 29a21.9 21.9 0 0 0-38 0L85 70.4a6 6 0 0 0 2.2 8.2a6.1 6.1 0 0 0 8.2-2.2L119.3 35a10.1 10.1 0 0 1 17.4 0Z"></path></svg>