<svg xmlns="http://www.w3.org/2000/svg" xmlns:xlink="http://www.w3.org/1999/xlink" aria-hidden="true" role="img" class="iconify iconify--ph" width="1em" height="1em" preserveAspectRatio="xMidYMid meet" viewBox="0 0 256 256"><path fill="currentColor" d="M233.3 202a19.9 19.9 0 0 1-17.3 10h-78.3l17.1 17.2a3.9 3.9 0 0 1 0 5.6a3.9 3.9 0 0 1-5.6 0l-24-24a3.9 3.9 0 0 1 0-5.6l24-24a4 4 0 0 1 5.6 5.6L137.7 204H216a12.1 12.1 0 0 0 10.4-6a12.2 12.2 0 0 0 0-12l-24-41.4a4.1 4.1 0 0 1 1.5-5.5a4 4 0 0 1 5.4 1.5l24 41.4a19.9 19.9 0 0 1 0 20ZM88 204H40a12.1 12.1 0 0 1-10.4-6a12.2 12.2 0 0 1 0-12l39.2-67.7l6.3 23.5a4.1 4.1 0 0 0 3.9 3l1-.2a3.9 3.9 0 0 0 2.8-4.9L74 106.9a3.6 3.6 0 0 0-1.8-2.4a4.2 4.2 0 0 0-3.1-.4l-32.7 8.8a4.1 4.1 0 0 0-2.9 4.9a4 4 0 0 0 4.9 2.8l23.5-6.3L22.7 182A20 20 0 0 0 40 212h48a4 4 0 0 0 0-8Zm50.4-170l39.1 67.6l-23.4-6.3a4.1 4.1 0 0 0-4.9 2.9a4 4 0 0 0 2.8 4.9l32.8 8.7l1 .2a4.1 4.1 0 0 0 3.9-3l8.8-32.8a4 4 0 1 0-7.7-2l-6.3 23.4L145.3 30a20 20 0 0 0-34.6 0l-24 41.4a4 4 0 0 0 1.5 5.4a4 4 0 0 0 5.5-1.4L117.6 34a12 12 0 0 1 20.8 0Z"></path></svg>