<svg xmlns="http://www.w3.org/2000/svg" xmlns:xlink="http://www.w3.org/1999/xlink" aria-hidden="true" role="img" class="iconify iconify--ph" width="1em" height="1em" preserveAspectRatio="xMidYMid meet" viewBox="0 0 256 256"><path fill="currentColor" d="M236.8 204a23.9 23.9 0 0 1-20.8 12h-68.7l10.4 10.3a8.1 8.1 0 0 1 0 11.4a8.2 8.2 0 0 1-11.4 0l-24-24.1a7.9 7.9 0 0 1-2.3-5.6a8.1 8.1 0 0 1 2.3-5.7l24-24a8.1 8.1 0 0 1 11.4 11.4L147.3 200H216a7.9 7.9 0 0 0 6.9-4a7.8 7.8 0 0 0 0-8l-24-41.4a8 8 0 0 1 13.9-8l23.9 41.4a23.7 23.7 0 0 1 .1 24ZM88 200H40a7.9 7.9 0 0 1-6.9-4a7.8 7.8 0 0 1 0-8l34.3-59.3l3.8 14.1a8.1 8.1 0 0 0 7.8 6l2-.3a8 8 0 0 0 5.7-9.8l-8.8-32.8a8.1 8.1 0 0 0-3.7-4.8a7.7 7.7 0 0 0-6.1-.8L35.3 109a8 8 0 0 0 4.2 15.5l14-3.8L19.3 180A23.9 23.9 0 0 0 40 216h48a8 8 0 0 0 0-16Zm40-168a7.8 7.8 0 0 1 6.9 4l34.3 59.2l-14.1-3.7a8 8 0 1 0-4.1 15.4l32.8 8.8l2 .3a8.1 8.1 0 0 0 7.8-5.9l8.8-32.8a8 8 0 0 0-15.5-4.2l-3.8 14.2L148.8 28a24 24 0 0 0-41.6 0L83.3 69.4a8 8 0 1 0 13.8 8l24-41.4a7.8 7.8 0 0 1 6.9-4Z"></path></svg>