<svg xmlns="http://www.w3.org/2000/svg" xmlns:xlink="http://www.w3.org/1999/xlink" aria-hidden="true" role="img" class="iconify iconify--ph" width="1em" height="1em" preserveAspectRatio="xMidYMid meet" viewBox="0 0 256 256"><path fill="currentColor" d="M240.2 206a27.5 27.5 0 0 1-24.2 14h-59l3.5 3.5a12 12 0 0 1 0 17a12.1 12.1 0 0 1-17 0l-24-24a12.1 12.1 0 0 1 0-17l24-24a12 12 0 0 1 17 17L157 196h59a3.8 3.8 0 0 0 3.4-2a3.8 3.8 0 0 0 0-4l-19.9-34.5a12 12 0 1 1 20.8-12l19.9 34.5a27.5 27.5 0 0 1 0 28ZM128 36a4 4 0 0 1 3.5 2l29.4 50.9l-4.7-1.3a12 12 0 1 0-6.2 23.2l32.7 8.8a11.5 11.5 0 0 0 3.1.4a12.1 12.1 0 0 0 11.6-8.9l8.8-32.8a12 12 0 0 0-23.2-6.2l-1.3 4.8L152.2 26a27.9 27.9 0 0 0-48.4 0l-20 34.4a12 12 0 0 0 20.8 12.1L124.5 38a4 4 0 0 1 3.5-2ZM80 196H40a3.8 3.8 0 0 1-3.4-2a3.8 3.8 0 0 1 0-4l29.5-51l1.3 4.9a12 12 0 0 0 11.5 8.9a17.5 17.5 0 0 0 3.2-.4a11.9 11.9 0 0 0 8.4-14.7l-8.7-32.8a12.5 12.5 0 0 0-5.6-7.3a12.1 12.1 0 0 0-9.1-1.2l-32.8 8.8a12 12 0 0 0 6.2 23.2l4.7-1.3L15.8 178A28 28 0 0 0 40 220h40a12 12 0 0 0 0-24Z"></path></svg>