<svg xmlns="http://www.w3.org/2000/svg" xmlns:xlink="http://www.w3.org/1999/xlink" aria-hidden="true" role="img" class="iconify iconify--ph" width="1em" height="1em" preserveAspectRatio="xMidYMid meet" viewBox="0 0 256 256"><path fill="currentColor" d="M88 148a16 16 0 1 1 16-16a16 16 0 0 1-16 16Zm80-32a16 16 0 1 0 16 16a16 16 0 0 0-16-16Zm-12.5 45.3a60 60 0 0 1-55 0a12 12 0 1 0-11 21.4a84.3 84.3 0 0 0 77 0a12 12 0 0 0-11-21.4Zm86.6-32.5A60.3 60.3 0 0 1 244 144c0 23.3-12.7 44.9-35.6 60.8S158.2 228 128 228s-58.7-8.2-80.4-23.2S12 167.3 12 144a60.3 60.3 0 0 1 1.9-15.2A36 36 0 0 1 40 68a35.5 35.5 0 0 1 21.4 7.1c16.6-8.4 36.1-13.5 56.4-14.8l6.4-38.3a11.9 11.9 0 0 1 13.6-9.9l31.5 4.9A23.8 23.8 0 0 1 188 8a24 24 0 1 1-22.4 32.7l-19.7-3l-3.8 22.9c18.9 1.7 36.9 6.6 52.5 14.5A35.5 35.5 0 0 1 216 68a36 36 0 0 1 26.1 60.8ZM228 104a12 12 0 0 0-21.7-7.1a11.9 11.9 0 0 1-15.9 3.2h-.3C173.1 89.7 151 84 128 84s-45.1 5.7-62.1 16h-.3a11.9 11.9 0 0 1-15.9-3.2A12 12 0 0 0 28 104a11.7 11.7 0 0 0 5.9 10.3a12 12 0 0 1 4.9 15.1A40.7 40.7 0 0 0 36 144c0 15.2 9 29.8 25.3 41s41.3 19 66.7 19s49.1-6.7 66.7-19s25.3-25.8 25.3-41a39.7 39.7 0 0 0-2.9-14.7a12.1 12.1 0 0 1 5-15A11.7 11.7 0 0 0 228 104Z"></path></svg>