<svg xmlns="http://www.w3.org/2000/svg" xmlns:xlink="http://www.w3.org/1999/xlink" aria-hidden="true" role="img" class="iconify iconify--ph" width="1em" height="1em" preserveAspectRatio="xMidYMid meet" viewBox="0 0 256 256"><path fill="currentColor" d="M28 128a68.1 68.1 0 0 1 68-68h118.3l-17.1-17.2a4 4 0 0 1 5.6-5.6l24 24a3.9 3.9 0 0 1 0 5.6l-24 24a3.9 3.9 0 0 1-5.6 0a3.9 3.9 0 0 1 0-5.6L214.3 68H96a60 60 0 0 0-60 60a4 4 0 0 1-8 0Zm196-4a4 4 0 0 0-4 4a60 60 0 0 1-60 60H41.7l17.1-17.2a4 4 0 0 0-5.6-5.6l-24 24a3.9 3.9 0 0 0 0 5.6l24 24a3.9 3.9 0 0 0 5.6 0a3.9 3.9 0 0 0 0-5.6L41.7 196H160a68.1 68.1 0 0 0 68-68a4 4 0 0 0-4-4Zm-92 32a4 4 0 0 0 4-4v-48a3.9 3.9 0 0 0-1.9-3.4a4.1 4.1 0 0 0-3.9-.2l-16 8a4 4 0 0 0 3.6 7.2l10.2-5.1V152a4 4 0 0 0 4 4Z"></path></svg>