<svg xmlns="http://www.w3.org/2000/svg" xmlns:xlink="http://www.w3.org/1999/xlink" aria-hidden="true" role="img" class="iconify iconify--ph" width="1em" height="1em" preserveAspectRatio="xMidYMid meet" viewBox="0 0 256 256"><path fill="currentColor" d="M20 128a76.1 76.1 0 0 1 76-76h99l-3.5-3.5a12 12 0 0 1 17-17l24 24a12 12 0 0 1 0 17l-24 24a12.1 12.1 0 0 1-17 0a12 12 0 0 1 0-17L195 76H96a52 52 0 0 0-52 52a12 12 0 0 1-24 0Zm204-12a12 12 0 0 0-12 12a52 52 0 0 1-52 52H61l3.5-3.5a12 12 0 0 0-17-17l-24 24a12 12 0 0 0 0 17l24 24a12.1 12.1 0 0 0 17 0a12 12 0 0 0 0-17L61 204h99a76.1 76.1 0 0 0 76-76a12 12 0 0 0-12-12Zm-92 48a12 12 0 0 0 12-12v-48a12 12 0 0 0-5.7-10.2a11.9 11.9 0 0 0-11.7-.5l-16 8a12 12 0 0 0 9.4 22V152a12 12 0 0 0 12 12Z"></path></svg>