<svg xmlns="http://www.w3.org/2000/svg" xmlns:xlink="http://www.w3.org/1999/xlink" aria-hidden="true" role="img" class="iconify iconify--ph" width="1em" height="1em" preserveAspectRatio="xMidYMid meet" viewBox="0 0 256 256"><path fill="currentColor" d="M26 128a70.1 70.1 0 0 1 70-70h113.5l-13.7-13.8a5.9 5.9 0 0 1 8.4-8.4l24 24a5.8 5.8 0 0 1 0 8.4l-24 24a5.9 5.9 0 0 1-8.4-8.4L209.5 70H96a58 58 0 0 0-58 58a6 6 0 0 1-12 0Zm198-6a6 6 0 0 0-6 6a58 58 0 0 1-58 58H46.5l13.7-13.8a5.9 5.9 0 0 0-8.4-8.4l-24 24a5.8 5.8 0 0 0 0 8.4l24 24a5.9 5.9 0 0 0 8.4-8.4L46.5 198H160a70.1 70.1 0 0 0 70-70a6 6 0 0 0-6-6Z"></path></svg>