<svg xmlns="http://www.w3.org/2000/svg" xmlns:xlink="http://www.w3.org/1999/xlink" aria-hidden="true" role="img" class="iconify iconify--ph" width="1em" height="1em" preserveAspectRatio="xMidYMid meet" viewBox="0 0 256 256"><path fill="currentColor" d="M232 128a72.1 72.1 0 0 1-72 72H64v16a8 8 0 0 1-4.9 7.4a8.5 8.5 0 0 1-3.1.6a8.3 8.3 0 0 1-5.7-2.3l-24-24a8.1 8.1 0 0 1 0-11.4l24-24a8.4 8.4 0 0 1 8.8-1.7A8 8 0 0 1 64 168v16h96a56 56 0 0 0 56-56a8 8 0 0 1 16 0Zm-200 8a8 8 0 0 0 8-8a56 56 0 0 1 56-56h96v16a8 8 0 0 0 4.9 7.4a8.5 8.5 0 0 0 3.1.6a8.3 8.3 0 0 0 5.7-2.3l24-24a8.1 8.1 0 0 0 0-11.4l-24-24a8.4 8.4 0 0 0-8.8-1.7A8 8 0 0 0 192 40v16H96a72.1 72.1 0 0 0-72 72a8 8 0 0 0 8 8Zm100 24a8 8 0 0 0 8-8v-48a7.9 7.9 0 0 0-3.8-6.8a8 8 0 0 0-7.8-.4l-16 8a8.2 8.2 0 0 0-3.6 10.8a8.1 8.1 0 0 0 10.8 3.5l4.4-2.2V152a8 8 0 0 0 8 8Z"></path></svg>