<svg xmlns="http://www.w3.org/2000/svg" xmlns:xlink="http://www.w3.org/1999/xlink" aria-hidden="true" role="img" class="iconify iconify--ph" width="1em" height="1em" preserveAspectRatio="xMidYMid meet" viewBox="0 0 256 256"><path fill="currentColor" d="M229.6 53.1a20.1 20.1 0 0 0-20.4.7L132 103.4V70.7a20 20 0 0 0-30.8-16.9L12 111.2a19.9 19.9 0 0 0 0 33.6l89.2 57.4a19.9 19.9 0 0 0 10.8 3.1a20.4 20.4 0 0 0 9.6-2.4a20 20 0 0 0 10.4-17.6v-32.7l77.2 49.6a19.9 19.9 0 0 0 10.8 3.1a20.4 20.4 0 0 0 9.6-2.4a20 20 0 0 0 10.4-17.6V70.7a20 20 0 0 0-10.4-17.6ZM108 178l-77.8-50L108 78Zm108 0l-77.8-50L216 78Z"></path></svg>