<svg xmlns="http://www.w3.org/2000/svg" xmlns:xlink="http://www.w3.org/1999/xlink" aria-hidden="true" role="img" class="iconify iconify--ph" width="1em" height="1em" preserveAspectRatio="xMidYMid meet" viewBox="0 0 256 256"><path fill="currentColor" d="M128 32a96 96 0 1 0 96 96a96 96 0 0 0-96-96Zm-16 128l-48-32l48-32Zm64 0l-48-32l48-32Z" opacity=".2"></path><path fill="currentColor" d="M128 24a104 104 0 1 0 104 104A104.2 104.2 0 0 0 128 24Zm0 192a88 88 0 1 1 88-88a88.1 88.1 0 0 1-88 88Z"></path><path fill="currentColor" d="M179.8 88.9a8.3 8.3 0 0 0-8.2.4l-48 32a8 8 0 0 0 0 13.4l48 32a8.4 8.4 0 0 0 4.4 1.3a8.5 8.5 0 0 0 3.8-.9a8 8 0 0 0 4.2-7.1V96a8 8 0 0 0-4.2-7.1ZM168 145.1L142.4 128l25.6-17.1Z"></path><path fill="currentColor" d="M115.8 88.9a8.3 8.3 0 0 0-8.2.4l-48 32a8 8 0 0 0 0 13.4l48 32a8.4 8.4 0 0 0 4.4 1.3a8.5 8.5 0 0 0 3.8-.9a8 8 0 0 0 4.2-7.1V96a8 8 0 0 0-4.2-7.1ZM104 145.1L78.4 128l25.6-17.1Z"></path></svg>