<svg xmlns="http://www.w3.org/2000/svg" xmlns:xlink="http://www.w3.org/1999/xlink" aria-hidden="true" role="img" class="iconify iconify--ph" width="1em" height="1em" preserveAspectRatio="xMidYMid meet" viewBox="0 0 256 256"><path fill="currentColor" d="M24 128A104 104 0 1 0 128 24A104.2 104.2 0 0 0 24 128Zm44 0a8.2 8.2 0 0 1 3.4-6.6l40-28a8 8 0 0 1 8.3-.5a8.1 8.1 0 0 1 4.3 7.1v28a8.2 8.2 0 0 1 3.4-6.6l40-28a8 8 0 0 1 8.3-.5a8.1 8.1 0 0 1 4.3 7.1v56a8 8 0 0 1-8 8a8.6 8.6 0 0 1-4.6-1.4l-40-28a8.2 8.2 0 0 1-3.4-6.6v28a8 8 0 0 1-8 8a8.6 8.6 0 0 1-4.6-1.4l-40-28A8.2 8.2 0 0 1 68 128Z"></path></svg>