<svg xmlns="http://www.w3.org/2000/svg" xmlns:xlink="http://www.w3.org/1999/xlink" aria-hidden="true" role="img" class="iconify iconify--ph" width="1em" height="1em" preserveAspectRatio="xMidYMid meet" viewBox="0 0 256 256"><path fill="currentColor" d="M225.8 60.1a11.8 11.8 0 0 0-12.3.5l-89.2 57.3a11.3 11.3 0 0 0-4.3 4.9V70.7a11.9 11.9 0 0 0-18.5-10.1l-89.2 57.3a12 12 0 0 0 0 20.2l89.2 57.3a11.8 11.8 0 0 0 6.5 2a12.2 12.2 0 0 0 5.8-1.5a12 12 0 0 0 6.2-10.6v-52.1a11.3 11.3 0 0 0 4.3 4.9l89.2 57.3a11.8 11.8 0 0 0 6.5 2a12.2 12.2 0 0 0 5.8-1.5a12 12 0 0 0 6.2-10.6V70.7a12 12 0 0 0-6.2-10.6ZM112 185.3a4.2 4.2 0 0 1-2.1 3.6a4 4 0 0 1-4.1-.2l-89.2-57.3a4.1 4.1 0 0 1 0-6.8l89.2-57.3a4 4 0 0 1 2.2-.7a4 4 0 0 1 1.9.5a4.2 4.2 0 0 1 2.1 3.6Zm112 0a4.2 4.2 0 0 1-2.1 3.6a4 4 0 0 1-4.1-.2l-89.2-57.3a4.1 4.1 0 0 1 0-6.8l89.2-57.3a4 4 0 0 1 2.2-.7a4 4 0 0 1 1.9.5a4.2 4.2 0 0 1 2.1 3.6Z"></path></svg>