<svg xmlns="http://www.w3.org/2000/svg" xmlns:xlink="http://www.w3.org/1999/xlink" aria-hidden="true" role="img" class="iconify iconify--ph" width="1em" height="1em" preserveAspectRatio="xMidYMid meet" viewBox="0 0 256 256"><path fill="currentColor" d="M116 70.7v114.6a8 8 0 0 1-12.3 6.8l-89.2-57.4a7.9 7.9 0 0 1 0-13.4l89.2-57.4a8 8 0 0 1 12.3 6.8Zm99.7-6.8l-89.2 57.4a7.9 7.9 0 0 0 0 13.4l89.2 57.4a8 8 0 0 0 12.3-6.8V70.7a8 8 0 0 0-12.3-6.8Z" opacity=".2"></path><path fill="currentColor" d="M227.7 56.6a16.1 16.1 0 0 0-16.4.6L124 113.3V70.7a16 16 0 0 0-24.7-13.5l-89.2 57.3a16.1 16.1 0 0 0 0 27l89.2 57.3a16 16 0 0 0 24.7-13.5v-42.6l87.3 56.1a16 16 0 0 0 24.7-13.5V70.7a16.1 16.1 0 0 0-8.3-14.1ZM108 185.3L18.8 128L108 70.7Zm112 0L130.8 128L220 70.7Z"></path></svg>