<svg xmlns="http://www.w3.org/2000/svg" xmlns:xlink="http://www.w3.org/1999/xlink" aria-hidden="true" role="img" class="iconify iconify--ph" width="1em" height="1em" preserveAspectRatio="xMidYMid meet" viewBox="0 0 256 256"><path fill="currentColor" d="M200 44h-60V16a12 12 0 0 0-24 0v28H56a36 36 0 0 0-36 36v112a36 36 0 0 0 36 36h144a36 36 0 0 0 36-36V80a36 36 0 0 0-36-36Zm12 148a12 12 0 0 1-12 12H56a12 12 0 0 1-12-12V80a12 12 0 0 1 12-12h144a12 12 0 0 1 12 12Zm-40-60H84a28.1 28.1 0 0 0-28 28v4a28.1 28.1 0 0 0 28 28h88a28.1 28.1 0 0 0 28-28v-4a28.1 28.1 0 0 0-28-28Zm-36 24v12h-16v-12Zm-56 8v-4a4 4 0 0 1 4-4h12v12H84a4 4 0 0 1-4-4Zm96 0a4 4 0 0 1-4 4h-12v-12h12a4 4 0 0 1 4 4ZM68 104a16 16 0 1 1 16 16a16 16 0 0 1-16-16Zm88 0a16 16 0 1 1 16 16a16 16 0 0 1-16-16Z"></path></svg>