<svg xmlns="http://www.w3.org/2000/svg" xmlns:xlink="http://www.w3.org/1999/xlink" aria-hidden="true" role="img" class="iconify iconify--ph" width="1em" height="1em" preserveAspectRatio="xMidYMid meet" viewBox="0 0 256 256"><path fill="currentColor" d="M200 50h-66V16a6 6 0 0 0-12 0v34H56a30.1 30.1 0 0 0-30 30v112a30.1 30.1 0 0 0 30 30h144a30.1 30.1 0 0 0 30-30V80a30.1 30.1 0 0 0-30-30Zm18 142a18.1 18.1 0 0 1-18 18H56a18.1 18.1 0 0 1-18-18V80a18.1 18.1 0 0 1 18-18h144a18.1 18.1 0 0 1 18 18Zm-54-54H92a26 26 0 0 0 0 52h72a26 26 0 0 0 0-52Zm-22 12v28h-28v-28Zm-64 14a14 14 0 0 1 14-14h10v28H92a14 14 0 0 1-14-14Zm86 14h-10v-28h10a14 14 0 0 1 0 28Zm-90-70a10 10 0 1 1 10 10a10 10 0 0 1-10-10Zm88 0a10 10 0 1 1 10 10a10 10 0 0 1-10-10Z"></path></svg>