<svg xmlns="http://www.w3.org/2000/svg" xmlns:xlink="http://www.w3.org/1999/xlink" aria-hidden="true" role="img" class="iconify iconify--ph" width="1em" height="1em" preserveAspectRatio="xMidYMid meet" viewBox="0 0 256 256"><path fill="currentColor" d="M200 52h-68V16a4 4 0 0 0-8 0v36H56a28.1 28.1 0 0 0-28 28v112a28.1 28.1 0 0 0 28 28h144a28.1 28.1 0 0 0 28-28V80a28.1 28.1 0 0 0-28-28Zm20 140a20.1 20.1 0 0 1-20 20H56a20.1 20.1 0 0 1-20-20V80a20.1 20.1 0 0 1 20-20h144a20.1 20.1 0 0 1 20 20Zm-56-52H92a24 24 0 0 0 0 48h72a24 24 0 0 0 0-48Zm-20 8v32h-32v-32Zm-68 16a16 16 0 0 1 16-16h12v32H92a16 16 0 0 1-16-16Zm88 16h-12v-32h12a16 16 0 0 1 0 32Zm-88-72a8 8 0 1 1 8 8a8 8 0 0 1-8-8Zm88 0a8 8 0 1 1 8 8a8 8 0 0 1-8-8Z"></path></svg>