<svg xmlns="http://www.w3.org/2000/svg" xmlns:xlink="http://www.w3.org/1999/xlink" aria-hidden="true" role="img" class="iconify iconify--ph" width="1em" height="1em" preserveAspectRatio="xMidYMid meet" viewBox="0 0 256 256"><path fill="currentColor" d="M231.6 41.2a19.9 19.9 0 0 0-16.8-16.8c-11.9-1.7-42.8-2.6-72.7 27.2l-7.8 7.8H74.7a19.8 19.8 0 0 0-14.1 5.9L28.3 97.6a20 20 0 0 0 10.2 33.8l38.3 7.7l40.1 40.1l7.7 38.3a20 20 0 0 0 13.8 15.2a19.5 19.5 0 0 0 5.8.9a20.1 20.1 0 0 0 14.2-5.9l32.3-32.3a19.8 19.8 0 0 0 5.9-14.1v-59.6l7.8-7.8c29.8-29.9 28.9-60.8 27.2-72.7ZM76.4 83.4h33.9L78.8 115l-28.3-5.7Zm82.7-14.8c19.8-19.8 39.3-21.5 49.1-20.8c.7 9.8-1 29.3-20.8 49.1L128 156.3L99.7 128Zm13.5 111l-25.9 25.9l-5.7-28.3l31.6-31.5ZM101 198.4c-18.4 31.7-61.7 32.1-63.5 32.1a12 12 0 0 1-12-12c0-1.8.4-45.1 32.1-63.5a12 12 0 0 1 12 20.8c-11 6.4-16 19-18.2 28.9c9.8-2.3 22.4-7.3 28.8-18.3a12 12 0 1 1 20.8 12Z"></path></svg>