<svg xmlns="http://www.w3.org/2000/svg" xmlns:xlink="http://www.w3.org/1999/xlink" aria-hidden="true" role="img" class="iconify iconify--ph" width="1em" height="1em" preserveAspectRatio="xMidYMid meet" viewBox="0 0 256 256"><path fill="currentColor" d="M150 224a6 6 0 0 1-6 6h-32a6 6 0 0 1 0-12h32a6 6 0 0 1 6 6Zm71-66.9l-12.4 55.7a13.7 13.7 0 0 1-9 10.1a12.6 12.6 0 0 1-4.7.8a14.1 14.1 0 0 1-8.7-3L157.9 198H98.1l-28.3 22.7a14.1 14.1 0 0 1-8.7 3a12.6 12.6 0 0 1-4.7-.8a13.7 13.7 0 0 1-9-10.1L35 157.1a14.1 14.1 0 0 1 2.9-12l30-36a121.3 121.3 0 0 1 8-35.8c11.6-29.8 32.1-49.2 43.3-58.2a14.1 14.1 0 0 1 17.6 0c11 9 31.3 28.5 42.7 58.3a119.2 119.2 0 0 1 7.9 35l30.7 36.7a14.1 14.1 0 0 1 2.9 12ZM99.5 186h57c48.7-89.7-8.4-146.2-27.3-161.5a2.1 2.1 0 0 0-2.5-.1c-19.1 15.4-77 71.9-27.2 161.6Zm-11.2 4.5C76.6 169 69.8 148 68.1 127.6l-21 25.2a2.1 2.1 0 0 0-.4 1.7l12.4 55.7a1.8 1.8 0 0 0 1.3 1.4a1.8 1.8 0 0 0 1.9-.3Zm120.6-37.7l-21.5-25.7c-1.5 20.5-8.1 41.7-19.7 63.4l26 20.8a1.8 1.8 0 0 0 1.9.3a1.8 1.8 0 0 0 1.3-1.4l12.4-55.7a2.1 2.1 0 0 0-.4-1.7ZM128 106a10 10 0 1 0-10-10a10 10 0 0 0 10 10Z"></path></svg>