<svg xmlns="http://www.w3.org/2000/svg" xmlns:xlink="http://www.w3.org/1999/xlink" aria-hidden="true" role="img" class="iconify iconify--ph" width="1em" height="1em" preserveAspectRatio="xMidYMid meet" viewBox="0 0 256 256"><path fill="currentColor" d="M156 228a12 12 0 0 1-12 12h-32a12 12 0 0 1 0-24h32a12 12 0 0 1 12 12Zm70.9-69.6l-12.4 55.7a19.7 19.7 0 0 1-12.9 14.5a19.2 19.2 0 0 1-6.7 1.1a20.3 20.3 0 0 1-12.4-4.3L155.8 204h-55.6l-26.7 21.4a20.3 20.3 0 0 1-12.4 4.3a19.2 19.2 0 0 1-6.7-1.1a19.7 19.7 0 0 1-12.9-14.5l-12.4-55.7a20.3 20.3 0 0 1 4.2-17.1l28.8-34.5a126.9 126.9 0 0 1 8.2-35.6c12.1-31.1 33.5-51.5 45.2-60.8a20.1 20.1 0 0 1 25.1.1c11.5 9.3 32.6 29.7 44.5 60.8a128 128 0 0 1 8.2 34.7l29.4 35.3a20.3 20.3 0 0 1 4.2 17.1ZM92.7 79.8c-12 31-8.5 64.7 10.4 100.2h49.8c18.4-35.5 21.8-69.1 9.8-100.1c-9.3-24.3-25.9-41-34.8-48.7c-8.9 7.6-25.7 24.4-35.2 48.6ZM80.6 188.9A172.7 172.7 0 0 1 64 142l-11 13.2l10.5 47.4ZM203 155.2l-11.4-13.7c-2.7 15.5-8.2 31.3-16.3 47.4l17.2 13.7ZM128 112a16 16 0 1 0-16-16a16 16 0 0 0 16 16Z"></path></svg>