<svg xmlns="http://www.w3.org/2000/svg" xmlns:xlink="http://www.w3.org/1999/xlink" aria-hidden="true" role="img" class="iconify iconify--ph" width="1em" height="1em" preserveAspectRatio="xMidYMid meet" viewBox="0 0 256 256"><path fill="currentColor" d="M99.8 186.5c-5.3 15.7-17.9 27.3-36.4 33.5a89.2 89.2 0 0 1-25.9 4.5a6 6 0 0 1-6-6a89.2 89.2 0 0 1 4.5-25.9c6.2-18.5 17.8-31.1 33.5-36.4a6 6 0 0 1 7.6 3.8a5.9 5.9 0 0 1-3.8 7.6C51.1 175.1 45.4 200 44 212c11.9-1.5 37-7.1 44.4-29.3a5.9 5.9 0 0 1 7.6-3.8a6 6 0 0 1 3.8 7.6Zm100.3-76.9l-9.5 9.6v62.1a14.3 14.3 0 0 1-4.1 9.9l-32.4 32.3a13.7 13.7 0 0 1-9.9 4.1a14 14 0 0 1-13.7-11.3l-8-40.1l-42.7-42.7l-40.1-8a13.9 13.9 0 0 1-10.7-9.7a13.8 13.8 0 0 1 3.5-13.9l32.3-32.4a14.3 14.3 0 0 1 9.9-4.1h62.1l9.6-9.5c27.9-28 56.5-27.2 67.5-25.5a13.8 13.8 0 0 1 11.7 11.7c1.7 11 2.5 39.6-25.5 67.5ZM42 113.7l38.8 7.8l44-44.1H74.7a2 2 0 0 0-1.4.6L41 110.4a2 2 0 0 0-.5 2a1.8 1.8 0 0 0 1.5 1.3Zm136.6 17.5l-44.1 44l7.8 38.8a1.8 1.8 0 0 0 1.3 1.5a2 2 0 0 0 2-.5l32.4-32.3a2 2 0 0 0 .6-1.4Zm13-30.1c8.1-8 26.3-29.6 22.2-57.2a2.1 2.1 0 0 0-1.7-1.7c-27.6-4.1-49.2 14.1-57.2 22.2l-11.3 11.3L91.2 128l36.8 36.8l52.3-52.4l11.3-11.3Z"></path></svg>