<svg xmlns="http://www.w3.org/2000/svg" xmlns:xlink="http://www.w3.org/1999/xlink" aria-hidden="true" role="img" class="iconify iconify--ph" width="1em" height="1em" preserveAspectRatio="xMidYMid meet" viewBox="0 0 256 256"><path fill="currentColor" d="M152 224a8 8 0 0 1-8 8h-32a8 8 0 0 1 0-16h32a8 8 0 0 1 8 8Zm-24-116a12 12 0 1 0-12-12a12 12 0 0 0 12 12Zm95 49.6l-12.4 55.6a15.9 15.9 0 0 1-10.3 11.6a17 17 0 0 1-5.4.9a16 16 0 0 1-9.9-3.5L157.2 200H98.8L71 222.2a16 16 0 0 1-9.9 3.5a17 17 0 0 1-5.4-.9a15.9 15.9 0 0 1-10.3-11.6L33 157.6a16.1 16.1 0 0 1 3.4-13.7L66 108.3a121.5 121.5 0 0 1 8.1-35.7c11.7-30.2 32.5-50 43.9-59.1a15.9 15.9 0 0 1 20 .1c11.3 9.1 31.8 28.9 43.4 59.1a125.4 125.4 0 0 1 8 34.9l30.2 36.3a16.1 16.1 0 0 1 3.4 13.7ZM100.7 184h54.5c14.2-27 43.1-100.9-27.2-158c-18.8 15-75.3 70.3-27.3 158Zm-15 6q-15.6-29.4-19.1-57.4l-17.9 21.5L61 209.7Zm121.6-35.9l-18.3-22c-2.2 18.8-8.4 38.1-18.8 57.8l24.8 19.8Z"></path></svg>