<svg xmlns="http://www.w3.org/2000/svg" xmlns:xlink="http://www.w3.org/1999/xlink" aria-hidden="true" role="img" class="iconify iconify--ph" width="1em" height="1em" preserveAspectRatio="xMidYMid meet" viewBox="0 0 256 256"><path fill="currentColor" d="M97.9 185.8c-5.1 15.2-17.2 26.3-35.1 32.3a87.1 87.1 0 0 1-25.3 4.4a4 4 0 0 1-4-4a87.1 87.1 0 0 1 4.4-25.3c6-17.9 17.1-30 32.3-35.1a4 4 0 0 1 5 2.6a3.9 3.9 0 0 1-2.5 5c-24.9 8.3-29.9 37.5-31 48.6c11.1-1.1 40.3-6.1 48.6-31a3.9 3.9 0 0 1 5-2.5a4 4 0 0 1 2.6 5Zm100.8-77.6l-10.1 10.1v63a11.9 11.9 0 0 1-3.5 8.4l-32.4 32.4a11.9 11.9 0 0 1-8.5 3.5a14.8 14.8 0 0 1-3.5-.5a11.9 11.9 0 0 1-8.2-9.1l-8.2-40.8l-43.5-43.5l-40.7-8.2a11.9 11.9 0 0 1-9.2-8.2a12 12 0 0 1 3-12l32.4-32.4a11.9 11.9 0 0 1 8.4-3.5h63l10.1-10.1c27.3-27.3 55.1-26.6 65.8-25a12.1 12.1 0 0 1 10.1 10.1c1.6 10.7 2.3 38.5-25 65.8Zm-157.1 7.5l39.8 8l48.3-48.3h-55a3.9 3.9 0 0 0-2.8 1.2l-32.3 32.3a4.1 4.1 0 0 0 2 6.8Zm139 10.6l-48.3 48.3l8 39.8a4.1 4.1 0 0 0 6.8 2l32.3-32.3a3.9 3.9 0 0 0 1.2-2.8Zm12.5-23.8c24.7-24.7 24.1-49.4 22.6-58.9a3.8 3.8 0 0 0-3.3-3.3c-9.5-1.5-34.2-2.1-58.9 22.6l-11.4 11.4L88.4 128l39.6 39.6l53.7-53.7Z"></path></svg>