<svg xmlns="http://www.w3.org/2000/svg" xmlns:xlink="http://www.w3.org/1999/xlink" aria-hidden="true" role="img" class="iconify iconify--ph" width="1em" height="1em" preserveAspectRatio="xMidYMid meet" viewBox="0 0 256 256"><path fill="currentColor" d="M208 132H48a20.1 20.1 0 0 0-20 20v40a20.1 20.1 0 0 0 20 20h160a20.1 20.1 0 0 0 20-20v-40a20.1 20.1 0 0 0-20-20Zm-4 56H52v-32h152Zm4-144H48a20.1 20.1 0 0 0-20 20v40a20.1 20.1 0 0 0 20 20h160a20.1 20.1 0 0 0 20-20V64a20.1 20.1 0 0 0-20-20Zm-4 56H52V68h152Z"></path></svg>