<svg xmlns="http://www.w3.org/2000/svg" xmlns:xlink="http://www.w3.org/1999/xlink" aria-hidden="true" role="img" class="iconify iconify--ph" width="1em" height="1em" preserveAspectRatio="xMidYMid meet" viewBox="0 0 256 256"><path fill="currentColor" d="M96.1 159.9A67.8 67.8 0 0 1 116 208a4 4 0 0 1-8 0a60.1 60.1 0 0 0-60-60a4 4 0 0 1 0-8a67.8 67.8 0 0 1 48.1 19.9ZM48 92a4 4 0 0 0 0 8a107.9 107.9 0 0 1 108 108a4 4 0 0 0 8 0a115.2 115.2 0 0 0-34-82a115.2 115.2 0 0 0-82-34Zm116 0A163.3 163.3 0 0 0 48 44a4 4 0 0 0 0 8a154.8 154.8 0 0 1 110.3 45.7A154.7 154.7 0 0 1 204 208a4 4 0 0 0 8 0a163.3 163.3 0 0 0-48-116ZM52 196a8 8 0 1 0 8 8a8 8 0 0 0-8-8Z"></path></svg>