<svg xmlns="http://www.w3.org/2000/svg" xmlns:xlink="http://www.w3.org/1999/xlink" aria-hidden="true" role="img" class="iconify iconify--ph" width="1em" height="1em" preserveAspectRatio="xMidYMid meet" viewBox="0 0 256 256"><path fill="currentColor" d="M64 204a12 12 0 1 1-12-12a12 12 0 0 1 12 12ZM166.8 89.2A166.9 166.9 0 0 0 48 40a8 8 0 0 0 0 16a151.1 151.1 0 0 1 107.5 44.5A151.1 151.1 0 0 1 200 208a8 8 0 0 0 16 0a166.9 166.9 0 0 0-49.2-118.8ZM48 136a8 8 0 0 0 0 16a56 56 0 0 1 56 56a8 8 0 0 0 16 0a72 72 0 0 0-72-72Zm0-48a8 8 0 0 0 0 16a102.9 102.9 0 0 1 73.5 30.5A102.9 102.9 0 0 1 152 208a8 8 0 0 0 16 0A119.8 119.8 0 0 0 48 88Z"></path></svg>