<svg xmlns="http://www.w3.org/2000/svg" xmlns:xlink="http://www.w3.org/1999/xlink" aria-hidden="true" role="img" class="iconify iconify--ph" width="1em" height="1em" preserveAspectRatio="xMidYMid meet" viewBox="0 0 256 256"><path fill="currentColor" d="M101.7 154.3A75.2 75.2 0 0 1 124 208a12 12 0 0 1-24 0a51.9 51.9 0 0 0-52-52a12 12 0 0 1 0-24a75.2 75.2 0 0 1 53.7 22.3ZM48 84a12 12 0 0 0 0 24a100 100 0 0 1 100 100a12 12 0 0 0 24 0A123.9 123.9 0 0 0 48 84Zm121.6 2.4A170.9 170.9 0 0 0 48 36a12 12 0 0 0 0 24a147.8 147.8 0 0 1 148 148a12 12 0 0 0 24 0a170.7 170.7 0 0 0-50.4-121.6ZM52 188a16 16 0 1 0 16 16a16 16 0 0 0-16-16Z"></path></svg>