<svg xmlns="http://www.w3.org/2000/svg" xmlns:xlink="http://www.w3.org/1999/xlink" aria-hidden="true" role="img" class="iconify iconify--ph" width="1em" height="1em" preserveAspectRatio="xMidYMid meet" viewBox="0 0 256 256"><path fill="currentColor" d="M98.9 157.1A71.6 71.6 0 0 1 120 208a8 8 0 0 1-16 0a56 56 0 0 0-56-56a8 8 0 0 1 0-16a71.6 71.6 0 0 1 50.9 21.1ZM48 88a8 8 0 0 0 0 16a102.9 102.9 0 0 1 73.5 30.5A102.9 102.9 0 0 1 152 208a8 8 0 0 0 16 0A119.8 119.8 0 0 0 48 88Zm118.8 1.2A166.9 166.9 0 0 0 48 40a8 8 0 0 0 0 16a151.1 151.1 0 0 1 107.5 44.5A151.1 151.1 0 0 1 200 208a8 8 0 0 0 16 0a166.9 166.9 0 0 0-49.2-118.8ZM52 192a12 12 0 1 0 12 12a12 12 0 0 0-12-12Z"></path></svg>