<svg xmlns="http://www.w3.org/2000/svg" xmlns:xlink="http://www.w3.org/1999/xlink" aria-hidden="true" role="img" class="iconify iconify--ph" width="1em" height="1em" preserveAspectRatio="xMidYMid meet" viewBox="0 0 256 256"><path fill="currentColor" d="M97.5 158.5A69.6 69.6 0 0 1 118 208a6 6 0 0 1-12 0a58 58 0 0 0-58-58a6 6 0 0 1 0-12a69.6 69.6 0 0 1 49.5 20.5ZM48 90a6 6 0 0 0 0 12a105.8 105.8 0 0 1 106 106a6 6 0 0 0 12 0a117 117 0 0 0-34.6-83.4A117 117 0 0 0 48 90Zm117.4.6A165.3 165.3 0 0 0 48 42a6 6 0 0 0 0 12a153 153 0 0 1 108.9 45.1A153 153 0 0 1 202 208a6 6 0 0 0 12 0a165.3 165.3 0 0 0-48.6-117.4ZM52 194a10 10 0 1 0 10 10a10 10 0 0 0-10-10Z"></path></svg>