<svg xmlns="http://www.w3.org/2000/svg" xmlns:xlink="http://www.w3.org/1999/xlink" aria-hidden="true" role="img" class="iconify iconify--ph" width="1em" height="1em" preserveAspectRatio="xMidYMid meet" viewBox="0 0 256 256"><path fill="currentColor" d="M200 20a4 4 0 0 0-4 4v20h-40V24a4 4 0 0 0-8 0v20h-40V24a4 4 0 0 0-8 0v20H60V24a4 4 0 0 0-8 0v208a4 4 0 0 0 8 0v-20h40v20a4 4 0 0 0 8 0v-20h40v20a4 4 0 0 0 8 0v-20h40v20a4 4 0 0 0 8 0V24a4 4 0 0 0-4-4ZM60 52h136v152H60Zm68 120a3.9 3.9 0 0 0 3.4-1.9l24-40a4 4 0 0 0 0-4.2l-24-40a4 4 0 0 0-6.8 0l-24 40a4 4 0 0 0 0 4.2l24 40a3.9 3.9 0 0 0 3.4 1.9Zm0-76.2l19.3 32.2l-19.3 32.2l-19.3-32.2Z"></path></svg>