<svg xmlns="http://www.w3.org/2000/svg" xmlns:xlink="http://www.w3.org/1999/xlink" aria-hidden="true" role="img" class="iconify iconify--ph" width="1em" height="1em" preserveAspectRatio="xMidYMid meet" viewBox="0 0 256 256"><path fill="currentColor" d="M97.1 132.1a8 8 0 0 1 0-8.2l24-40a8.1 8.1 0 0 1 13.8 0l24 40a8 8 0 0 1 0 8.2l-24 40a8.1 8.1 0 0 1-13.8 0ZM208 24v208a8 8 0 0 1-16 0v-16h-32v16a8 8 0 0 1-16 0v-16h-32v16a8 8 0 0 1-16 0v-16H64v16a8 8 0 0 1-16 0V24a8 8 0 0 1 16 0v16h32V24a8 8 0 0 1 16 0v16h32V24a8 8 0 0 1 16 0v16h32V24a8 8 0 0 1 16 0Zm-16 32H64v144h128Z"></path></svg>