<svg xmlns="http://www.w3.org/2000/svg" xmlns:xlink="http://www.w3.org/1999/xlink" aria-hidden="true" role="img" class="iconify iconify--ph" width="1em" height="1em" preserveAspectRatio="xMidYMid meet" viewBox="0 0 256 256"><path fill="currentColor" d="M56 48v160h144V48Zm72 120l-24-40l24-40l24 40Z" opacity=".2"></path><path fill="currentColor" d="M200 16a8 8 0 0 0-8 8v16h-32V24a8 8 0 0 0-16 0v16h-32V24a8 8 0 0 0-16 0v16H64V24a8 8 0 0 0-16 0v208a8 8 0 0 0 16 0v-16h32v16a8 8 0 0 0 16 0v-16h32v16a8 8 0 0 0 16 0v-16h32v16a8 8 0 0 0 16 0V24a8 8 0 0 0-8-8ZM64 56h128v144H64Zm64 120a8.2 8.2 0 0 0 6.9-3.9l24-40a8 8 0 0 0 0-8.2l-24-40a8.1 8.1 0 0 0-13.8 0l-24 40a8 8 0 0 0 0 8.2l24 40a8.2 8.2 0 0 0 6.9 3.9Zm0-72.5l14.7 24.5l-14.7 24.5l-14.7-24.5Z"></path></svg>