<svg xmlns="http://www.w3.org/2000/svg" xmlns:xlink="http://www.w3.org/1999/xlink" aria-hidden="true" role="img" class="iconify iconify--ph" width="1em" height="1em" preserveAspectRatio="xMidYMid meet" viewBox="0 0 256 256"><path fill="currentColor" d="M200 18a6 6 0 0 0-6 6v18h-36V24a6 6 0 0 0-12 0v18h-36V24a6 6 0 0 0-12 0v18H62V24a6 6 0 0 0-12 0v208a6 6 0 0 0 12 0v-18h36v18a6 6 0 0 0 12 0v-18h36v18a6 6 0 0 0 12 0v-18h36v18a6 6 0 0 0 12 0V24a6 6 0 0 0-6-6ZM62 54h132v148H62Zm66 120a5.8 5.8 0 0 0 5.1-2.9l24-40a5.8 5.8 0 0 0 0-6.2l-24-40a5.9 5.9 0 0 0-10.2 0l-24 40a5.8 5.8 0 0 0 0 6.2l24 40a5.8 5.8 0 0 0 5.1 2.9Zm0-74.3l17 28.3l-17 28.3l-17-28.3Z"></path></svg>