<svg xmlns="http://www.w3.org/2000/svg" xmlns:xlink="http://www.w3.org/1999/xlink" aria-hidden="true" role="img" class="iconify iconify--ph" width="1em" height="1em" preserveAspectRatio="xMidYMid meet" viewBox="0 0 256 256"><path fill="currentColor" d="M200 12a12 12 0 0 0-12 12v12h-24V24a12 12 0 0 0-24 0v12h-24V24a12 12 0 0 0-24 0v12H68V24a12 12 0 0 0-24 0v208a12 12 0 0 0 24 0v-12h24v12a12 12 0 0 0 24 0v-12h24v12a12 12 0 0 0 24 0v-12h24v12a12 12 0 0 0 24 0V24a12 12 0 0 0-12-12ZM68 60h120v136H68Zm60 120a12.1 12.1 0 0 0 10.3-5.8l24-40a12 12 0 0 0 0-12.4l-24-40a12 12 0 0 0-20.6 0l-24 40a12 12 0 0 0 0 12.4l24 40A12.1 12.1 0 0 0 128 180Zm0-68.7l10 16.7l-10 16.7l-10-16.7Z"></path></svg>