<svg xmlns="http://www.w3.org/2000/svg" xmlns:xlink="http://www.w3.org/1999/xlink" aria-hidden="true" role="img" class="iconify iconify--ph" width="1em" height="1em" preserveAspectRatio="xMidYMid meet" viewBox="0 0 256 256"><path fill="currentColor" d="m234.8 73.9l-52.7-52.7a19.9 19.9 0 0 0-28.2 0L51.5 123.5l-30.3 30.4a19.8 19.8 0 0 0 0 28.2l52.7 52.7a19.8 19.8 0 0 0 28.2 0l132.7-132.7a19.8 19.8 0 0 0 0-28.2ZM88 215l-47-47l19-19l23.5 23.5a12.1 12.1 0 0 0 17 0a12 12 0 0 0 0-17L77 132l19-19l23.5 23.5a12.1 12.1 0 0 0 17 0a12 12 0 0 0 0-17L113 96l19-19l23.5 23.5a12.1 12.1 0 0 0 17 0a12 12 0 0 0 0-17L149 60l19-19l47 47Z"></path></svg>