<svg xmlns="http://www.w3.org/2000/svg" xmlns:xlink="http://www.w3.org/1999/xlink" aria-hidden="true" role="img" class="iconify iconify--ph" width="1em" height="1em" preserveAspectRatio="xMidYMid meet" viewBox="0 0 256 256"><path fill="currentColor" d="m229.2 79.5l-52.7-52.7a12.2 12.2 0 0 0-17 0L26.8 159.5a12.1 12.1 0 0 0 0 17l52.7 52.7a12.1 12.1 0 0 0 17 0L229.2 96.5a12.1 12.1 0 0 0 0-17Zm-5.7 11.3L90.8 223.5a3.9 3.9 0 0 1-5.6 0l-52.7-52.7a3.9 3.9 0 0 1 0-5.6L60 137.7l29.2 29.1a3.9 3.9 0 0 0 5.6 0a3.9 3.9 0 0 0 0-5.6L65.7 132L96 101.7l29.2 29.1a3.9 3.9 0 0 0 5.6 0a3.9 3.9 0 0 0 0-5.6L101.7 96L132 65.7l29.2 29.1a3.9 3.9 0 0 0 5.6 0a3.9 3.9 0 0 0 0-5.6L137.7 60l27.5-27.5a3.9 3.9 0 0 1 5.6 0l52.7 52.7a3.9 3.9 0 0 1 0 5.6Z"></path></svg>