<svg xmlns="http://www.w3.org/2000/svg" xmlns:xlink="http://www.w3.org/1999/xlink" aria-hidden="true" role="img" class="iconify iconify--ph" width="1em" height="1em" preserveAspectRatio="xMidYMid meet" viewBox="0 0 256 256"><path fill="currentColor" d="m235.7 134.5l-32-80c-.1 0-.1-.1-.1-.2l-.3-.4c0-.1-.1-.1-.1-.2s-.2-.3-.4-.4a.1.1 0 0 0-.1-.1a1 1 0 0 0-.5-.4h-.2l-.4-.3h-2.5L132 67V40a4 4 0 0 0-8 0v28.8L55.1 84.1H55l-.5.2h-.2l-.6.3h-.1l-.4.4H53l-.3.4c0 .1-.1.1-.1.2l-.3.6l-32 80a4 4 0 0 0-.3 1.8c0 20.4 22.1 28 36 28s36-7.6 36-28a4 4 0 0 0-.3-1.5L61.5 90.9L124 77v135h-20a4 4 0 0 0 0 8h48a4 4 0 0 0 0-8h-20V75.2l61.5-13.7l-29.2 73a4 4 0 0 0-.3 1.5c0 20.4 22.1 28 36 28s36-7.6 36-28a4 4 0 0 0-.3-1.5ZM56 188c-7.2 0-27.4-3.6-28-19.3l28-69.9l28 69.9c-.6 15.7-20.8 19.3-28 19.3Zm144-32c-7.2 0-27.4-3.6-28-19.3l28-69.9l28 69.9c-.6 15.7-20.8 19.3-28 19.3Z"></path></svg>