<svg xmlns="http://www.w3.org/2000/svg" xmlns:xlink="http://www.w3.org/1999/xlink" aria-hidden="true" role="img" class="iconify iconify--ph" width="1em" height="1em" preserveAspectRatio="xMidYMid meet" viewBox="0 0 256 256"><path fill="currentColor" d="m237.6 133.8l-32-80h-.1l-.3-.7a.1.1 0 0 0-.1-.1a2.1 2.1 0 0 0-.4-.6h-.1l-.5-.6a.1.1 0 0 1-.1-.1l-.5-.4h-.2l-.6-.4c-.1 0-.2 0-.2-.1l-.6-.2h-.2l-.7-.2h-2.3L134 64.5V40a6 6 0 0 0-12 0v27.2L54.7 82.1h-.5l-.8.3h-.1l-.6.4h-.1l-.6.4h-.1l-.5.6h-.1l-.4.6h-.1a4.3 4.3 0 0 1-.4.7l-32 80a5.4 5.4 0 0 0-.4 2.9c0 21.9 23.3 30 38 30s38-8.1 38-30a5.4 5.4 0 0 0-.4-2.2L64.2 92.3L122 79.5V210h-18a6 6 0 0 0 0 12h48a6 6 0 0 0 0-12h-18V76.8l56.2-12.5l-27.8 69.5a5.4 5.4 0 0 0-.4 2.2c0 21.9 23.3 30 38 30s38-8.1 38-30a5.4 5.4 0 0 0-.4-2.2ZM56 186a36.6 36.6 0 0 1-17.5-4.6c-5.3-3.1-8.1-7.1-8.5-12.3l26-64.9l26 64.9c-.9 13.8-19.4 16.9-26 16.9Zm144-32a36.6 36.6 0 0 1-17.5-4.6c-5.3-3.1-8.1-7.1-8.5-12.3l26-64.9l26 64.9c-.9 13.8-19.4 16.9-26 16.9Z"></path></svg>