<svg xmlns="http://www.w3.org/2000/svg" xmlns:xlink="http://www.w3.org/1999/xlink" aria-hidden="true" role="img" class="iconify iconify--ph" width="1em" height="1em" preserveAspectRatio="xMidYMid meet" viewBox="0 0 256 256"><path fill="currentColor" d="M32 80V40a8 8 0 0 1 8-8h40a8 8 0 0 1 0 16H48v32a8 8 0 0 1-16 0Zm184-48h-40a8 8 0 0 0 0 16h32v32a8 8 0 0 0 16 0V40a8 8 0 0 0-8-8ZM80 208H48v-32a8 8 0 0 0-16 0v40a8 8 0 0 0 8 8h40a8 8 0 0 0 0-16Zm104-40V88a16 16 0 0 0-16-16H88a16 16 0 0 0-16 16v80a16 16 0 0 0 16 16h80a16 16 0 0 0 16-16Zm32 0a8 8 0 0 0-8 8v32h-32a8 8 0 0 0 0 16h40a8 8 0 0 0 8-8v-40a8 8 0 0 0-8-8Z"></path></svg>