<svg xmlns="http://www.w3.org/2000/svg" xmlns:xlink="http://www.w3.org/1999/xlink" aria-hidden="true" role="img" class="iconify iconify--ph" width="1em" height="1em" preserveAspectRatio="xMidYMid meet" viewBox="0 0 256 256"><path fill="currentColor" d="M159.4 112a5.9 5.9 0 0 1 1.5-8.3l67.7-46.3a6.1 6.1 0 0 1 8.4 1.5a6.2 6.2 0 0 1-1.6 8.4l-67.7 46.3a5.9 5.9 0 0 1-3.4 1a5.8 5.8 0 0 1-4.9-2.6Zm77.6 85.1a6.1 6.1 0 0 1-5 2.6a6 6 0 0 1-3.4-1.1L136 135.3l-45 30.8a33.6 33.6 0 0 1 3 13.9a34 34 0 1 1-34-34a33.8 33.8 0 0 1 24.2 10.2l41.2-28.2l-41.2-28.2A33.8 33.8 0 0 1 60 110a34 34 0 1 1 34-34a33.6 33.6 0 0 1-3 13.9l144.4 98.8a6.2 6.2 0 0 1 1.6 8.4ZM82 76a22 22 0 1 0-22 22a22.1 22.1 0 0 0 22-22Zm0 104a22 22 0 1 0-22 22a22.1 22.1 0 0 0 22-22Z"></path></svg>