<svg xmlns="http://www.w3.org/2000/svg" xmlns:xlink="http://www.w3.org/1999/xlink" aria-hidden="true" role="img" class="iconify iconify--ph" width="1em" height="1em" preserveAspectRatio="xMidYMid meet" viewBox="0 0 256 256"><path fill="currentColor" d="M157.7 113.1a8 8 0 0 1 2.1-11.1l67.7-46.3a8 8 0 0 1 11.1 2.1a7.9 7.9 0 0 1-2.1 11.1l-67.6 46.3a7.8 7.8 0 0 1-4.6 1.4a8 8 0 0 1-6.6-3.5Zm80.9 85.1a7.9 7.9 0 0 1-6.6 3.5a8.2 8.2 0 0 1-4.5-1.4L136 137.7l-42.5 29.1A36.4 36.4 0 0 1 96 180a36.1 36.1 0 1 1-11.6-26.4l37.4-25.6l-37.4-25.6A35.5 35.5 0 0 1 60 112a36 36 0 1 1 33.5-22.8l143 97.9a7.9 7.9 0 0 1 2.1 11.1ZM80 180a19.7 19.7 0 0 0-5.9-14.1a19.8 19.8 0 0 0-28.2 0a19.8 19.8 0 0 0 0 28.2a19.9 19.9 0 0 0 28.2 0A19.7 19.7 0 0 0 80 180Zm-5.9-89.9a19.8 19.8 0 0 0 0-28.2a19.8 19.8 0 0 0-28.2 0a19.8 19.8 0 0 0 0 28.2a19.9 19.9 0 0 0 28.2 0Z"></path></svg>