<svg xmlns="http://www.w3.org/2000/svg" xmlns:xlink="http://www.w3.org/1999/xlink" aria-hidden="true" role="img" class="iconify iconify--ph" width="1em" height="1em" preserveAspectRatio="xMidYMid meet" viewBox="0 0 256 256"><path fill="currentColor" d="M238.8 183.8L98.3 87.7A41.9 41.9 0 0 0 100 76a40.1 40.1 0 1 0-15.3 31.4l30 20.6l-30 20.6A40 40 0 1 0 100 180a41.9 41.9 0 0 0-1.7-11.7l37.7-25.8l89.2 61.1a12.3 12.3 0 0 0 6.8 2.1a11.9 11.9 0 0 0 9.9-5.2a12.1 12.1 0 0 0-3.1-16.7Zm-167.5 7.5A15.9 15.9 0 1 1 76 180a15.9 15.9 0 0 1-4.7 11.3Zm-22.6-104a16 16 0 1 1 22.6 0a15.9 15.9 0 0 1-22.6 0Zm112.8 23.2a12 12 0 0 1 3.1-16.6l60.6-41.5a12 12 0 0 1 13.6 19.8l-60.6 41.5a12 12 0 0 1-16.7-3.2Z"></path></svg>