<svg xmlns="http://www.w3.org/2000/svg" xmlns:xlink="http://www.w3.org/1999/xlink" aria-hidden="true" role="img" class="iconify iconify--ph" width="1em" height="1em" preserveAspectRatio="xMidYMid meet" viewBox="0 0 256 256"><circle cx="60" cy="76" r="28" fill="currentColor" opacity=".2"></circle><circle cx="60" cy="180" r="28" fill="currentColor" opacity=".2"></circle><path fill="currentColor" d="M164.3 116.6a7.8 7.8 0 0 0 4.6-1.4l67.6-46.3a7.9 7.9 0 0 0 2.1-11.1a8 8 0 0 0-11.1-2.1L159.8 102a8 8 0 0 0 4.5 14.6Zm72.2 70.5l-143-97.9A36.4 36.4 0 0 0 96 76a35.9 35.9 0 0 0-10.5-25.5a36.2 36.2 0 0 0-51 0a36 36 0 0 0 49.9 51.9l37.4 25.6l-37.4 25.6A36 36 0 1 0 96 180a36.4 36.4 0 0 0-2.5-13.2l42.5-29.1l91.5 62.6a8.2 8.2 0 0 0 4.5 1.4a8 8 0 0 0 4.5-14.6Zm-162.4 7a19.9 19.9 0 0 1-28.2 0a19.8 19.8 0 0 1 0-28.2a19.8 19.8 0 0 1 28.2 0a19.8 19.8 0 0 1 0 28.2Zm-28.2-104a19.8 19.8 0 0 1 0-28.2a19.8 19.8 0 0 1 28.2 0a19.8 19.8 0 0 1 0 28.2a19.9 19.9 0 0 1-28.2 0Z"></path></svg>