<svg xmlns="http://www.w3.org/2000/svg" xmlns:xlink="http://www.w3.org/1999/xlink" aria-hidden="true" role="img" class="iconify iconify--ph" width="1em" height="1em" preserveAspectRatio="xMidYMid meet" viewBox="0 0 256 256"><path fill="currentColor" d="M228 56v144a12 12 0 0 1-12 12h-72a4 4 0 0 1 0-8h72a4 4 0 0 0 4-4V56a4 4 0 0 0-4-4H40a4 4 0 0 0-4 4v40a4 4 0 0 1-8 0V56a12 12 0 0 1 12-12h176a12 12 0 0 1 12 12ZM32 188a4 4 0 0 0 0 8a12 12 0 0 1 12 12a4 4 0 0 0 8 0a20.1 20.1 0 0 0-20-20Zm0-32a4 4 0 0 0 0 8a44 44 0 0 1 44 44a4 4 0 0 0 8 0a52 52 0 0 0-52-52Zm0-32a4 4 0 0 0 0 8a76.1 76.1 0 0 1 76 76a4 4 0 0 0 8 0a84.1 84.1 0 0 0-84-84Z"></path></svg>