<svg xmlns="http://www.w3.org/2000/svg" xmlns:xlink="http://www.w3.org/1999/xlink" aria-hidden="true" role="img" class="iconify iconify--ph" width="1em" height="1em" preserveAspectRatio="xMidYMid meet" viewBox="0 0 256 256"><path fill="currentColor" d="M216 48H40a8 8 0 0 0-8 8v136a16 16 0 0 1 16 16h168a8 8 0 0 0 8-8V56a8 8 0 0 0-8-8Z" opacity=".2"></path><path fill="currentColor" d="M216 40H40a16 16 0 0 0-16 16v40a8 8 0 0 0 16 0V56h176v144h-72a8 8 0 0 0 0 16h72a16 16 0 0 0 16-16V56a16 16 0 0 0-16-16ZM32 184a8 8 0 0 0 0 16a8 8 0 0 1 8 8a8 8 0 0 0 16 0a24.1 24.1 0 0 0-24-24Z"></path><path fill="currentColor" d="M32 152a8 8 0 0 0 0 16a40 40 0 0 1 40 40a8 8 0 0 0 16 0a56 56 0 0 0-56-56Z"></path><path fill="currentColor" d="M32 120a8 8 0 0 0 0 16a72.1 72.1 0 0 1 72 72a8 8 0 0 0 16 0a88.1 88.1 0 0 0-88-88Z"></path></svg>