<svg xmlns="http://www.w3.org/2000/svg" xmlns:xlink="http://www.w3.org/1999/xlink" aria-hidden="true" role="img" class="iconify iconify--ph" width="1em" height="1em" preserveAspectRatio="xMidYMid meet" viewBox="0 0 256 256"><path fill="currentColor" d="M232 60v136a20.1 20.1 0 0 1-20 20h-40a12 12 0 0 1 0-24h36V64H48v4a12 12 0 0 1-24 0v-8a20.1 20.1 0 0 1 20-20h168a20.1 20.1 0 0 1 20 20ZM36 176a12 12 0 0 0 0 24a4 4 0 0 1 4 4a12 12 0 0 0 24 0a28.1 28.1 0 0 0-28-28Zm0-40a12 12 0 0 0 0 24a44 44 0 0 1 44 44a12 12 0 0 0 24 0a68.1 68.1 0 0 0-68-68Zm0-40a12 12 0 0 0 0 24a84.1 84.1 0 0 1 84 84a12 12 0 0 0 24 0A108.1 108.1 0 0 0 36 96Z"></path></svg>