<svg xmlns="http://www.w3.org/2000/svg" xmlns:xlink="http://www.w3.org/1999/xlink" aria-hidden="true" role="img" class="iconify iconify--ph" width="1em" height="1em" preserveAspectRatio="xMidYMid meet" viewBox="0 0 256 256"><path fill="currentColor" d="M244.6 156.2c-1.2-1.5-23-27.2-60.1-41.2c-1.9-17.9-8.6-34.3-19.3-46.8C150.5 51.1 129.4 42 104 42c-50.5 0-83.5 45.4-84.9 47.3a6 6 0 0 0 9.8 7C29.2 95.9 59.7 54 104 54c21.8 0 39.8 7.6 52.1 22c8 9.4 13.4 21.5 15.7 34.8A134.7 134.7 0 0 0 136 106c-25.6 0-47 6.6-62 19.2c-13.1 11-20.6 26.4-20.6 42a45.5 45.5 0 0 0 13.3 32.7C76 209.1 88.9 214 104 214c24.6 0 45.5-9.7 60.5-28.1c12.5-15.4 19.9-36.2 20.5-57.7a149.2 149.2 0 0 1 50.4 35.6a6 6 0 0 0 9.2-7.6ZM104 202c-18.6 0-38.6-10.9-38.6-34.8S87.5 118 136 118a122.6 122.6 0 0 1 37 5.8v1.8c0 50.2-34.7 76.4-69 76.4Z"></path></svg>