<svg xmlns="http://www.w3.org/2000/svg" xmlns:xlink="http://www.w3.org/1999/xlink" aria-hidden="true" role="img" class="iconify iconify--ph" width="1em" height="1em" preserveAspectRatio="xMidYMid meet" viewBox="0 0 256 256"><path fill="currentColor" d="M246.1 154.9c-1.2-1.5-22.9-27.1-59.8-41.4c-2.1-17.8-8.9-34-19.6-46.6C151.7 49.3 130 40 104 40c-51.5 0-85.1 46.2-86.5 48.1a8 8 0 0 0 13 9.4C30.8 97 60.8 56 104 56c21.2 0 38.6 7.4 50.5 21.3a68 68 0 0 1 14.7 30.8A134.2 134.2 0 0 0 136 104c-26.1 0-47.9 6.8-63.3 19.7c-13.5 11.4-21.3 27.3-21.3 43.5a47.4 47.4 0 0 0 13.9 34.1c9.6 9.6 23 14.7 38.7 14.7c25.2 0 46.7-10 62.1-28.8c12.2-15 19.6-35.1 20.8-56a146.3 146.3 0 0 1 47 33.9a8 8 0 1 0 12.2-10.2ZM104 200c-25.3 0-36.6-16.4-36.6-32.8c0-22.7 21.5-47.2 68.6-47.2a117.3 117.3 0 0 1 35 5.3v.3c0 37-23 74.4-67 74.4Z"></path></svg>