<svg xmlns="http://www.w3.org/2000/svg" xmlns:xlink="http://www.w3.org/1999/xlink" aria-hidden="true" role="img" class="iconify iconify--ph" width="1em" height="1em" preserveAspectRatio="xMidYMid meet" viewBox="0 0 256 256"><path fill="currentColor" d="M249.2 152.3c-1.2-1.5-22.7-26.7-59.2-41.6c-2.5-17.7-9.5-33.8-20.2-46.4C153.9 45.8 131.2 36 104 36c-53.6 0-88.3 47.8-89.8 49.8a12 12 0 0 0 19.6 14C34 99.4 62.7 60 104 60c20 0 36.4 6.9 47.5 19.9a64 64 0 0 1 12.3 22.9A137.2 137.2 0 0 0 136 100c-27 0-49.8 7.1-65.8 20.6c-14.5 12.2-22.8 29.2-22.8 46.6c0 26.3 19.4 52.8 56.6 52.8c26.5 0 49-10.5 65.2-30.3c11.6-14.2 19-32.8 21.2-52.3c25.3 12.7 40.2 30 40.4 30.3a12 12 0 1 0 18.4-15.4ZM104 196c-22.5 0-32.6-14.4-32.6-28.8c0-20.8 20.2-43.2 64.6-43.2a113.3 113.3 0 0 1 31 4.3c-1.1 34.1-22.7 67.7-63 67.7Z"></path></svg>