<svg xmlns="http://www.w3.org/2000/svg" xmlns:xlink="http://www.w3.org/1999/xlink" aria-hidden="true" role="img" class="iconify iconify--ph" width="1em" height="1em" preserveAspectRatio="xMidYMid meet" viewBox="0 0 256 256"><path fill="currentColor" d="M96 104a8 8 0 0 1 8-8h64a8 8 0 0 1 0 16h-64a8 8 0 0 1-8-8Zm72 40a8 8 0 0 0 0-16h-64a8 8 0 0 0 0 16Zm64 48a32.1 32.1 0 0 1-32 32H88a32.1 32.1 0 0 1-32-32V64a16 16 0 1 0-27.9 10.7a8 8 0 0 1-.7 11.3a7.9 7.9 0 0 1-11.2-.7A31.5 31.5 0 0 1 8 64a32.1 32.1 0 0 1 32-32h136a32.1 32.1 0 0 1 32 32v104h9.9a7.8 7.8 0 0 1 5.9 2.7A31.5 31.5 0 0 1 232 192ZM98.6 172.7a8.1 8.1 0 0 1 7.3-4.7H192V64a16 16 0 0 0-16-16H67.7A32.2 32.2 0 0 1 72 64v128a16 16 0 1 0 27.9-10.7a8 8 0 0 1-1.3-8.6ZM216 192a15.9 15.9 0 0 0-2.1-8H119a30.8 30.8 0 0 1 1 8a32.2 32.2 0 0 1-4.3 16H200a16 16 0 0 0 16-16Z"></path></svg>