<svg xmlns="http://www.w3.org/2000/svg" xmlns:xlink="http://www.w3.org/1999/xlink" aria-hidden="true" role="img" class="iconify iconify--ph" width="1em" height="1em" preserveAspectRatio="xMidYMid meet" viewBox="0 0 256 256"><path fill="currentColor" d="M92 100a12 12 0 0 1 12-12h64a12 12 0 0 1 0 24h-64a12 12 0 0 1-12-12Zm12 52h64a12 12 0 0 0 0-24h-64a12 12 0 0 0 0 24Zm132 40a36 36 0 0 1-36 36H88a36 36 0 0 1-36-36V64a12 12 0 0 0-24 0a11.8 11.8 0 0 0 3.1 8a12 12 0 0 1-17.9 16A36 36 0 0 1 40 28h136a36 36 0 0 1 36 36v100h5.9a12 12 0 0 1 8.9 4a36 36 0 0 1 9.2 24ZM94.9 171.1a12.2 12.2 0 0 1 11-7.1H188V64a12 12 0 0 0-12-12H73.9A34.4 34.4 0 0 1 76 64v128a12 12 0 0 0 24 0a11.8 11.8 0 0 0-3.1-8a12.2 12.2 0 0 1-2-12.9ZM212 192a10.9 10.9 0 0 0-.7-4h-87.5c.1 1.3.2 2.7.2 4a34.4 34.4 0 0 1-2.1 12H200a12 12 0 0 0 12-12Z"></path></svg>