<svg xmlns="http://www.w3.org/2000/svg" xmlns:xlink="http://www.w3.org/1999/xlink" aria-hidden="true" role="img" class="iconify iconify--ph" width="1em" height="1em" preserveAspectRatio="xMidYMid meet" viewBox="0 0 256 256"><path fill="currentColor" d="M98 104a6 6 0 0 1 6-6h64a6 6 0 0 1 0 12h-64a6 6 0 0 1-6-6Zm70 38a6 6 0 0 0 0-12h-64a6 6 0 0 0 0 12Zm62 50a30.1 30.1 0 0 1-30 30H88a30.1 30.1 0 0 1-30-30V64a18 18 0 0 0-36 0a17.8 17.8 0 0 0 4.6 12a6 6 0 1 1-9 8A30 30 0 0 1 40 34h136a30.1 30.1 0 0 1 30 30v106h11.9a6.1 6.1 0 0 1 4.5 2a30 30 0 0 1 7.6 20Zm-124 0a17.8 17.8 0 0 0-4.6-12a5.8 5.8 0 0 1-1-6.4a6 6 0 0 1 5.5-3.6H194V64a18.1 18.1 0 0 0-18-18H64a29.7 29.7 0 0 1 6 18v128a18 18 0 0 0 36 0Zm112 0a18.4 18.4 0 0 0-3-10h-98.7a30.9 30.9 0 0 1 1.7 10a29.7 29.7 0 0 1-6 18h88a18.1 18.1 0 0 0 18-18Z"></path></svg>