<svg xmlns="http://www.w3.org/2000/svg" xmlns:xlink="http://www.w3.org/1999/xlink" aria-hidden="true" role="img" class="iconify iconify--ph" width="1em" height="1em" preserveAspectRatio="xMidYMid meet" viewBox="0 0 256 256"><path fill="currentColor" d="M68 216a12 12 0 0 1-12 12h-8a20.1 20.1 0 0 1-20-20v-8a12 12 0 0 1 24 0v4h4a12 12 0 0 1 12 12Zm44-12H96a12 12 0 0 0 0 24h16a12 12 0 0 0 0-24Zm-72-32a12 12 0 0 0 12-12v-16a12 12 0 0 0-24 0v16a12 12 0 0 0 12 12Zm128 16a12 12 0 0 0-12 12v4h-4a12 12 0 0 0 0 24h8a20.1 20.1 0 0 0 20-20v-8a12 12 0 0 0-12-12Zm0-72a12 12 0 0 0 12-12v-8a20.1 20.1 0 0 0-20-20h-8a12 12 0 0 0 0 24h4v4a12 12 0 0 0 12 12ZM56 76h-8a20.1 20.1 0 0 0-20 20v8a12 12 0 0 0 24 0v-4h4a12 12 0 0 0 0-24Zm152.2-48H99.8A19.8 19.8 0 0 0 80 47.7V88a12 12 0 0 0 12 12h20a12 12 0 0 0 0-24h-8V52h100v100h-24v-8a12 12 0 0 0-24 0v20a12 12 0 0 0 12 12h40.2a19.8 19.8 0 0 0 19.8-19.8V47.7A19.8 19.8 0 0 0 208.2 28Z"></path></svg>