<svg xmlns="http://www.w3.org/2000/svg" xmlns:xlink="http://www.w3.org/1999/xlink" aria-hidden="true" role="img" class="iconify iconify--ph" width="1em" height="1em" preserveAspectRatio="xMidYMid meet" viewBox="0 0 256 256"><path fill="currentColor" d="M156.2 80H47.7A19.8 19.8 0 0 0 28 99.7v108.5A19.8 19.8 0 0 0 47.7 228h108.5a19.8 19.8 0 0 0 19.8-19.8V99.7A19.8 19.8 0 0 0 156.2 80ZM152 204H52V104h100ZM132 40a12 12 0 0 1 12-12h16a12 12 0 0 1 0 24h-16a12 12 0 0 1-12-12Zm96 8v8a12 12 0 0 1-24 0v-4h-4a12 12 0 0 1 0-24h8a20.1 20.1 0 0 1 20 20Zm0 48v16a12 12 0 0 1-24 0V96a12 12 0 0 1 24 0Zm0 56v8a20.1 20.1 0 0 1-20 20h-8a12 12 0 0 1 0-24h4v-4a12 12 0 0 1 24 0ZM76 56v-8a20.1 20.1 0 0 1 20-20h8a12 12 0 0 1 0 24h-4v4a12 12 0 0 1-24 0Z"></path></svg>