<svg xmlns="http://www.w3.org/2000/svg" xmlns:xlink="http://www.w3.org/1999/xlink" aria-hidden="true" role="img" class="iconify iconify--ph" width="1em" height="1em" preserveAspectRatio="xMidYMid meet" viewBox="0 0 256 256"><path fill="currentColor" d="M64 88a8 8 0 0 1-8 8h-8v8a8 8 0 0 1-16 0v-8a16 16 0 0 1 16-16h8a8 8 0 0 1 8 8Zm48 120H96a8 8 0 0 0 0 16h16a8 8 0 0 0 0-16Zm-72-40a8 8 0 0 0 8-8v-16a8 8 0 0 0-16 0v16a8 8 0 0 0 8 8Zm16 40h-8v-8a8 8 0 0 0-16 0v8a16 16 0 0 0 16 16h8a8 8 0 0 0 0-16ZM208 32H96a16 16 0 0 0-16 16v40a8 8 0 0 0 8 8h24a8 8 0 0 0 0-16H96V48h112v112h-32v-16a8 8 0 0 0-16 0v24a8 8 0 0 0 8 8h40a16 16 0 0 0 16-16V48a16 16 0 0 0-16-16Zm-40 160a8 8 0 0 0-8 8v8h-8a8 8 0 0 0 0 16h8a16 16 0 0 0 16-16v-8a8 8 0 0 0-8-8Zm0-80a8 8 0 0 0 8-8v-8a16 16 0 0 0-16-16h-8a8 8 0 0 0 0 16h8v8a8 8 0 0 0 8 8Z"></path></svg>