<svg xmlns="http://www.w3.org/2000/svg" xmlns:xlink="http://www.w3.org/1999/xlink" aria-hidden="true" role="img" class="iconify iconify--ph" width="1em" height="1em" preserveAspectRatio="xMidYMid meet" viewBox="0 0 256 256"><path fill="currentColor" d="M150 216a6 6 0 0 1-6 6h-32a6 6 0 0 1 0-12h32a6 6 0 0 1 6 6ZM40 150a6 6 0 0 0 6-6v-32a6 6 0 0 0-12 0v32a6 6 0 0 0 6 6Zm32 60H48a2 2 0 0 1-2-2v-24a6 6 0 0 0-12 0v24a14 14 0 0 0 14 14h24a6 6 0 0 0 0-12Zm150-2a13.8 13.8 0 0 1-4 9.8h-.2a13.8 13.8 0 0 1-9.8 4h-24a6 6 0 0 1 0-12h17.5L46 54.5V72a6 6 0 0 1-12 0V48a13.8 13.8 0 0 1 4-9.8a.1.1 0 0 0 .1-.1a.1.1 0 0 0 .1-.1a13.8 13.8 0 0 1 9.8-4h160a14 14 0 0 1 14 14ZM208 46H54.5L210 201.5V48a2 2 0 0 0-2-2Z"></path></svg>