<svg xmlns="http://www.w3.org/2000/svg" xmlns:xlink="http://www.w3.org/1999/xlink" aria-hidden="true" role="img" class="iconify iconify--ph" width="1em" height="1em" preserveAspectRatio="xMidYMid meet" viewBox="0 0 256 256"><path fill="currentColor" d="M148 48a8 8 0 0 1-8 8h-24a8 8 0 0 1 0-16h24a8 8 0 0 1 8 8Zm-8 152h-24a8 8 0 0 0 0 16h24a8 8 0 0 0 0-16Zm40-144h20v20a8 8 0 0 0 16 0V56a16 16 0 0 0-16-16h-20a8 8 0 0 0 0 16Zm28 52a8 8 0 0 0-8 8v24a8 8 0 0 0 16 0v-24a8 8 0 0 0-8-8ZM48 148a8 8 0 0 0 8-8v-24a8 8 0 0 0-16 0v24a8 8 0 0 0 8 8Zm28 52H56v-20a8 8 0 0 0-16 0v20a16 16 0 0 0 16 16h20a8 8 0 0 0 0-16Zm0-160H56a16 16 0 0 0-16 16v20a8 8 0 0 0 16 0V56h20a8 8 0 0 0 0-16Zm160 160h-20v-20a8 8 0 0 0-16 0v20h-20a8 8 0 0 0 0 16h20v20a8 8 0 0 0 16 0v-20h20a8 8 0 0 0 0-16Z"></path></svg>