<svg xmlns="http://www.w3.org/2000/svg" xmlns:xlink="http://www.w3.org/1999/xlink" aria-hidden="true" role="img" class="iconify iconify--ph" width="1em" height="1em" preserveAspectRatio="xMidYMid meet" viewBox="0 0 256 256"><path fill="currentColor" d="M144 48a4 4 0 0 1-4 4h-24a4 4 0 0 1 0-8h24a4 4 0 0 1 4 4Zm-4 156h-24a4 4 0 0 0 0 8h24a4 4 0 0 0 0-8Zm40-152h20a4 4 0 0 1 4 4v20a4 4 0 0 0 8 0V56a12 12 0 0 0-12-12h-20a4 4 0 0 0 0 8Zm28 60a4 4 0 0 0-4 4v24a4 4 0 0 0 8 0v-24a4 4 0 0 0-4-4ZM48 144a4 4 0 0 0 4-4v-24a4 4 0 0 0-8 0v24a4 4 0 0 0 4 4Zm28 60H56a4 4 0 0 1-4-4v-20a4 4 0 0 0-8 0v20a12 12 0 0 0 12 12h20a4 4 0 0 0 0-8Zm0-160H56a12 12 0 0 0-12 12v20a4 4 0 0 0 8 0V56a4 4 0 0 1 4-4h20a4 4 0 0 0 0-8Zm160 160h-24v-24a4 4 0 0 0-8 0v24h-24a4 4 0 0 0 0 8h24v24a4 4 0 0 0 8 0v-24h24a4 4 0 0 0 0-8Z"></path></svg>