<svg xmlns="http://www.w3.org/2000/svg" xmlns:xlink="http://www.w3.org/1999/xlink" aria-hidden="true" role="img" class="iconify iconify--ph" width="1em" height="1em" preserveAspectRatio="xMidYMid meet" viewBox="0 0 256 256"><path fill="currentColor" d="M32 144v-32a8 8 0 0 1 16 0v32a8 8 0 0 1-16 0ZM72 32H48a16 16 0 0 0-16 16v24a8 8 0 0 0 16 0V48h24a8 8 0 0 0 0-16Zm0 176H48v-24a8 8 0 0 0-16 0v24a16 16 0 0 0 16 16h24a8 8 0 0 0 0-16Zm72 0h-32a8 8 0 0 0 0 16h32a8 8 0 0 0 0-16Zm72-104a8 8 0 0 0-8 8v32a8 8 0 0 0 16 0v-32a8 8 0 0 0-8-8Zm-8-72h-24a8 8 0 0 0 0 16h24v24a8 8 0 0 0 16 0V48a16 16 0 0 0-16-16Zm-64 0h-32a8 8 0 0 0 0 16h32a8 8 0 0 0 0-16Zm72 144a8 8 0 0 0-8 8v24h-24a8 8 0 0 0 0 16h24a16 16 0 0 0 16-16v-24a8 8 0 0 0-8-8Z"></path></svg>