<svg xmlns="http://www.w3.org/2000/svg" xmlns:xlink="http://www.w3.org/1999/xlink" aria-hidden="true" role="img" class="iconify iconify--ph" width="1em" height="1em" preserveAspectRatio="xMidYMid meet" viewBox="0 0 256 256"><path fill="currentColor" d="M32 144v-32a8 8 0 0 1 16 0v32a8 8 0 0 1-16 0Zm80-96h32a8 8 0 0 0 0-16h-32a8 8 0 0 0 0 16ZM72 208H48v-24a8 8 0 0 0-16 0v24a16 16 0 0 0 16 16h24a8 8 0 0 0 0-16Zm144-104a8 8 0 0 0-8 8v32a8 8 0 0 0 16 0v-32a8 8 0 0 0-8-8Zm-8-72h-24a8 8 0 0 0 0 16h24v24a8 8 0 0 0 16 0V48a16 16 0 0 0-16-16ZM53.9 34.6a8 8 0 0 0-11.8 10.8l160 176a8 8 0 0 0 5.9 2.6a8.2 8.2 0 0 0 5.4-2.1a7.9 7.9 0 0 0 .5-11.3ZM144 208h-32a8 8 0 0 0 0 16h32a8 8 0 0 0 0-16Z"></path></svg>