<svg xmlns="http://www.w3.org/2000/svg" xmlns:xlink="http://www.w3.org/1999/xlink" aria-hidden="true" role="img" class="iconify iconify--ph" width="1em" height="1em" preserveAspectRatio="xMidYMid meet" viewBox="0 0 256 256"><path fill="currentColor" d="M146 48a6 6 0 0 1-6 6h-24a6 6 0 0 1 0-12h24a6 6 0 0 1 6 6Zm-6 154h-24a6 6 0 0 0 0 12h24a6 6 0 0 0 0-12Zm40-148h20a2 2 0 0 1 2 2v20a6 6 0 0 0 12 0V56a14 14 0 0 0-14-14h-20a6 6 0 0 0 0 12Zm28 56a6 6 0 0 0-6 6v24a6 6 0 0 0 12 0v-24a6 6 0 0 0-6-6ZM48 146a6 6 0 0 0 6-6v-24a6 6 0 0 0-12 0v24a6 6 0 0 0 6 6Zm28 56H56a2 2 0 0 1-2-2v-20a6 6 0 0 0-12 0v20a14 14 0 0 0 14 14h20a6 6 0 0 0 0-12Zm0-160H56a14 14 0 0 0-14 14v20a6 6 0 0 0 12 0V56a2 2 0 0 1 2-2h20a6 6 0 0 0 0-12Zm160 160h-22v-22a6 6 0 0 0-12 0v22h-22a6 6 0 0 0 0 12h22v22a6 6 0 0 0 12 0v-22h22a6 6 0 0 0 0-12Z"></path></svg>