<svg xmlns="http://www.w3.org/2000/svg" xmlns:xlink="http://www.w3.org/1999/xlink" aria-hidden="true" role="img" class="iconify iconify--ph" width="1em" height="1em" preserveAspectRatio="xMidYMid meet" viewBox="0 0 256 256"><path fill="currentColor" d="M80 56v-8a16 16 0 0 1 16-16h8a8 8 0 0 1 0 16h-8v8a8 8 0 0 1-16 0Zm64-8h16a8 8 0 0 0 0-16h-16a8 8 0 0 0 0 16Zm72 40a8 8 0 0 0-8 8v16a8 8 0 0 0 16 0V96a8 8 0 0 0-8-8Zm-8-56h-8a8 8 0 0 0 0 16h8v8a8 8 0 0 0 16 0v-8a16 16 0 0 0-16-16Zm-32 64v112a16 16 0 0 1-16 16H48a16 16 0 0 1-16-16V96a16 16 0 0 1 16-16h112a16 16 0 0 1 16 16Zm-16 0H48v112h112Zm56 48a8 8 0 0 0-8 8v8h-8a8 8 0 0 0 0 16h8a16 16 0 0 0 16-16v-8a8 8 0 0 0-8-8Z"></path></svg>