<svg xmlns="http://www.w3.org/2000/svg" xmlns:xlink="http://www.w3.org/1999/xlink" aria-hidden="true" role="img" class="iconify iconify--ph" width="1em" height="1em" preserveAspectRatio="xMidYMid meet" viewBox="0 0 256 256"><path fill="currentColor" d="M148 216a4 4 0 0 1-4 4h-32a4 4 0 0 1 0-8h32a4 4 0 0 1 4 4ZM40 148a4 4 0 0 0 4-4v-32a4 4 0 0 0-8 0v32a4 4 0 0 0 4 4Zm32 64H48a4 4 0 0 1-4-4v-24a4 4 0 0 0-8 0v24a12 12 0 0 0 12 12h24a4 4 0 0 0 0-8Zm148-4a12 12 0 0 1-3.4 8.4h-.2a12 12 0 0 1-8.4 3.6h-24a4 4 0 0 1 0-8h22.3L44 49.7V72a4 4 0 0 1-8 0V48a12 12 0 0 1 3.4-8.4a.1.1 0 0 0 .1-.1a.1.1 0 0 0 .1-.1A12 12 0 0 1 48 36h160a12 12 0 0 1 12 12ZM208 44H49.7L212 206.3V48a4 4 0 0 0-4-4Z"></path></svg>