<svg xmlns="http://www.w3.org/2000/svg" xmlns:xlink="http://www.w3.org/1999/xlink" aria-hidden="true" role="img" class="iconify iconify--ph" width="1em" height="1em" preserveAspectRatio="xMidYMid meet" viewBox="0 0 256 256"><path fill="currentColor" d="M80 216a8 8 0 0 1-8 8H48a16 16 0 0 1-16-16v-24a8 8 0 0 1 16 0v24h24a8 8 0 0 1 8 8Zm-40-64a8 8 0 0 0 8-8v-32a8 8 0 0 0-16 0v32a8 8 0 0 0 8 8ZM208 32H48a16.4 16.4 0 0 0-10.7 4.1l-.6.6l-.6.6A16.4 16.4 0 0 0 32 48v24a8 8 0 0 0 16 0V59.3L196.7 208H184a8 8 0 0 0 0 16h24a16.4 16.4 0 0 0 10.7-4.1l.6-.6l.6-.6A16.4 16.4 0 0 0 224 208V48a16 16 0 0 0-16-16Zm-64 176h-32a8 8 0 0 0 0 16h32a8 8 0 0 0 0-16Z"></path></svg>