<svg xmlns="http://www.w3.org/2000/svg" xmlns:xlink="http://www.w3.org/1999/xlink" aria-hidden="true" role="img" class="iconify iconify--ph" width="1em" height="1em" preserveAspectRatio="xMidYMid meet" viewBox="0 0 256 256"><path fill="currentColor" d="M152 48a12 12 0 0 1-12 12h-24a12 12 0 0 1 0-24h24a12 12 0 0 1 12 12Zm-12 148h-24a12 12 0 0 0 0 24h24a12 12 0 0 0 0-24Zm40-136h16v16a12 12 0 0 0 24 0V56a20.1 20.1 0 0 0-20-20h-20a12 12 0 0 0 0 24Zm28 44a12 12 0 0 0-12 12v24a12 12 0 0 0 24 0v-24a12 12 0 0 0-12-12ZM48 152a12 12 0 0 0 12-12v-24a12 12 0 0 0-24 0v24a12 12 0 0 0 12 12Zm28 44H60v-16a12 12 0 0 0-24 0v20a20.1 20.1 0 0 0 20 20h20a12 12 0 0 0 0-24Zm0-160H56a20.1 20.1 0 0 0-20 20v20a12 12 0 0 0 24 0V60h16a12 12 0 0 0 0-24Zm160 160h-16v-16a12 12 0 0 0-24 0v16h-16a12 12 0 0 0 0 24h16v16a12 12 0 0 0 24 0v-16h16a12 12 0 0 0 0-24Z"></path></svg>