<svg xmlns="http://www.w3.org/2000/svg" xmlns:xlink="http://www.w3.org/1999/xlink" aria-hidden="true" role="img" class="iconify iconify--ph" width="1em" height="1em" preserveAspectRatio="xMidYMid meet" viewBox="0 0 256 256"><path fill="currentColor" d="M100 40a12 12 0 0 1 12-12h32a12 12 0 0 1 0 24h-32a12 12 0 0 1-12-12Zm44 164h-32a12 12 0 0 0 0 24h32a12 12 0 0 0 0-24Zm64-176h-24a12 12 0 0 0 0 24h20v20a12 12 0 0 0 24 0V48a20.1 20.1 0 0 0-20-20Zm8 72a12 12 0 0 0-12 12v32a12 12 0 0 0 24 0v-32a12 12 0 0 0-12-12ZM40 156a12 12 0 0 0 12-12v-32a12 12 0 0 0-24 0v32a12 12 0 0 0 12 12Zm32 48H52v-20a12 12 0 0 0-24 0v24a20.1 20.1 0 0 0 20 20h24a12 12 0 0 0 0-24ZM56.9 31.9a12 12 0 0 0-17.8 16.2l160 176a12.1 12.1 0 0 0 17 .8a12.1 12.1 0 0 0 .8-17Z"></path></svg>