<svg xmlns="http://www.w3.org/2000/svg" xmlns:xlink="http://www.w3.org/1999/xlink" aria-hidden="true" role="img" class="iconify iconify--ph" width="1em" height="1em" preserveAspectRatio="xMidYMid meet" viewBox="0 0 256 256"><path fill="currentColor" d="M216 48v160a8.4 8.4 0 0 1-2.3 5.7L42.3 42.3A8.4 8.4 0 0 1 48 40h160a8 8 0 0 1 8 8Z" opacity=".2"></path><path fill="currentColor" d="M152 216a8 8 0 0 1-8 8h-32a8 8 0 0 1 0-16h32a8 8 0 0 1 8 8ZM40 152a8 8 0 0 0 8-8v-32a8 8 0 0 0-16 0v32a8 8 0 0 0 8 8Zm32 56H48v-24a8 8 0 0 0-16 0v24a16 16 0 0 0 16 16h24a8 8 0 0 0 0-16Zm152 0a16.4 16.4 0 0 1-4.1 10.7l-.6.6l-.6.6A16.4 16.4 0 0 1 208 224h-24a8 8 0 0 1 0-16h12.7L48 59.3V72a8 8 0 0 1-16 0V48a16.4 16.4 0 0 1 4.1-10.7l.6-.6l.6-.6A16.4 16.4 0 0 1 48 32h160a16 16 0 0 1 16 16ZM208 48H59.3L208 196.7Z"></path></svg>