<svg xmlns="http://www.w3.org/2000/svg" xmlns:xlink="http://www.w3.org/1999/xlink" aria-hidden="true" role="img" class="iconify iconify--ph" width="1em" height="1em" preserveAspectRatio="xMidYMid meet" viewBox="0 0 256 256"><path fill="currentColor" d="M176 164a35.9 35.9 0 0 0-27.9 13.3L96.2 144a35.6 35.6 0 0 0 0-32l51.9-33.3a36.4 36.4 0 1 0-4.3-6.7l-51.9 33.3a36 36 0 1 0 0 45.4l51.9 33.3a36 36 0 1 0 32.2-20Zm0-136a28 28 0 1 1-28 28a28.1 28.1 0 0 1 28-28ZM64 156a28 28 0 1 1 28-28a28.1 28.1 0 0 1-28 28Zm112 72a28 28 0 1 1 28-28a28.1 28.1 0 0 1-28 28Z"></path></svg>