<svg xmlns="http://www.w3.org/2000/svg" xmlns:xlink="http://www.w3.org/1999/xlink" aria-hidden="true" role="img" class="iconify iconify--ph" width="1em" height="1em" preserveAspectRatio="xMidYMid meet" viewBox="0 0 256 256"><path fill="currentColor" d="M196 216a4 4 0 0 1-4 4H40a12 12 0 0 1-12-12V88a4 4 0 0 1 8 0v120a4 4 0 0 0 4 4h152a4 4 0 0 1 4 4Zm31.3-109.8l.2-.3l.2-.4c0-.1.1-.2.1-.4a.4.4 0 0 0 .1-.3a4.3 4.3 0 0 0 0-1.6a.4.4 0 0 0-.1-.3c0-.2-.1-.3-.1-.4l-.2-.4l-.2-.3l-.5-.6l-48-48a4 4 0 0 0-5.6 5.6l41.1 41.2H168a99.7 99.7 0 0 0-96.8 75a4 4 0 0 0 2.8 4.9h1a4.1 4.1 0 0 0 3.9-3A92 92 0 0 1 168 108h46.3l-41.1 41.2a3.9 3.9 0 0 0 0 5.6a3.9 3.9 0 0 0 5.6 0l48-48Z"></path></svg>