<svg xmlns="http://www.w3.org/2000/svg" xmlns:xlink="http://www.w3.org/1999/xlink" aria-hidden="true" role="img" class="iconify iconify--ph" width="1em" height="1em" preserveAspectRatio="xMidYMid meet" viewBox="0 0 256 256"><path fill="currentColor" d="M204 216a12 12 0 0 1-12 12H40a20.1 20.1 0 0 1-20-20V88a12 12 0 0 1 24 0v116h148a12 12 0 0 1 12 12Zm29.3-104.4l.3-.5l.4-.4l.3-.6l.3-.4l.3-.6c0-.2.1-.3.2-.5s.1-.4.2-.6s.1-.3.2-.5s.1-.4.1-.6s.1-.4.2-.6a1.3 1.3 0 0 1 .1-.6v-.5a9.6 9.6 0 0 0 0-2.4v-.5a1.3 1.3 0 0 1-.1-.6c-.1-.2-.1-.4-.2-.6s-.1-.4-.1-.6s-.1-.4-.2-.5s-.1-.4-.2-.6s-.2-.3-.2-.5l-.3-.6l-.3-.4l-.3-.6l-.4-.4l-.3-.5l-.7-.8h-.1l-48-48a12 12 0 0 0-17 17L195 92h-27a108 108 0 0 0-104.6 81a12 12 0 0 0 8.6 14.6a10.3 10.3 0 0 0 3 .4a11.9 11.9 0 0 0 11.6-9a84 84 0 0 1 81.4-63h27l-27.5 27.5a12 12 0 0 0 0 17a12.1 12.1 0 0 0 17 0l48-48h.1Z"></path></svg>