<svg xmlns="http://www.w3.org/2000/svg" xmlns:xlink="http://www.w3.org/1999/xlink" aria-hidden="true" role="img" class="iconify iconify--ph" width="1em" height="1em" preserveAspectRatio="xMidYMid meet" viewBox="0 0 256 256"><path fill="currentColor" d="m229.7 109.7l-48 48a8.3 8.3 0 0 1-5.7 2.3a8.5 8.5 0 0 1-3.1-.6a8 8 0 0 1-4.9-7.4v-40a87.9 87.9 0 0 0-85.2 66a8.1 8.1 0 0 1-7.8 6l-2-.3a8 8 0 0 1-5.7-9.7A103.9 103.9 0 0 1 168 96V56a8 8 0 0 1 4.9-7.4a8.4 8.4 0 0 1 8.8 1.7l48 48a8.1 8.1 0 0 1 0 11.4ZM192 208H40V88a8 8 0 0 0-16 0v120a16 16 0 0 0 16 16h152a8 8 0 0 0 0-16Z"></path></svg>