<svg xmlns="http://www.w3.org/2000/svg" xmlns:xlink="http://www.w3.org/1999/xlink" aria-hidden="true" role="img" class="iconify iconify--ph" width="1em" height="1em" preserveAspectRatio="xMidYMid meet" viewBox="0 0 256 256"><path fill="currentColor" d="M176 162a37.9 37.9 0 0 0-28.3 12.7l-48.9-31.5a37.7 37.7 0 0 0 0-30.4l48.9-31.5A38 38 0 1 0 138 56a36.6 36.6 0 0 0 3.2 15.2l-48.9 31.5a38 38 0 1 0 0 50.6l48.9 31.5A36.6 36.6 0 0 0 138 200a38 38 0 1 0 38-38Zm0-132a26 26 0 1 1-26 26a26.1 26.1 0 0 1 26-26ZM64 154a26 26 0 1 1 26-26a26.1 26.1 0 0 1-26 26Zm112 72a26 26 0 1 1 26-26a26.1 26.1 0 0 1-26 26Z"></path></svg>