<svg xmlns="http://www.w3.org/2000/svg" xmlns:xlink="http://www.w3.org/1999/xlink" aria-hidden="true" role="img" class="iconify iconify--ph" width="1em" height="1em" preserveAspectRatio="xMidYMid meet" viewBox="0 0 256 256"><path fill="currentColor" d="M128 243.6a18.7 18.7 0 0 1-6.2-1C106.1 237.4 28 206.9 28 114.7V56a20.1 20.1 0 0 1 20-20h160a20.1 20.1 0 0 1 20 20v58.7c0 92.2-78.1 122.7-93.8 127.9a18.7 18.7 0 0 1-6.2 1Zm1.3-23.8ZM52 60v54.7c0 73.4 60.5 99.3 76 104.7c15.5-5.4 76-31.3 76-104.7V60Z"></path></svg>