<svg xmlns="http://www.w3.org/2000/svg" xmlns:xlink="http://www.w3.org/1999/xlink" aria-hidden="true" role="img" class="iconify iconify--ph" width="1em" height="1em" preserveAspectRatio="xMidYMid meet" viewBox="0 0 256 256"><path fill="currentColor" d="M208 44H48a12 12 0 0 0-12 12v58.7c0 86.7 73.5 115.4 88.3 120.3a11.7 11.7 0 0 0 7.4 0c14.8-4.9 88.3-33.6 88.3-120.3V56a12 12 0 0 0-12-12Zm-78.8 183.4a3.3 3.3 0 0 1-2.4 0c-9.7-3.2-46.8-17.5-67.9-54.1l69.1-48.4l69.1 48.4c-21.1 36.6-58.2 50.9-67.9 54.1ZM212 114.7c0 20.4-4.4 37.4-11.1 51.4l-70.6-49.4a4.3 4.3 0 0 0-4.6 0l-70.6 49.4c-6.7-14-11.1-31-11.1-51.4V56a4 4 0 0 1 4-4h160a4 4 0 0 1 4 4Z"></path></svg>