<svg xmlns="http://www.w3.org/2000/svg" xmlns:xlink="http://www.w3.org/1999/xlink" aria-hidden="true" role="img" class="iconify iconify--ph" width="1em" height="1em" preserveAspectRatio="xMidYMid meet" viewBox="0 0 256 256"><path fill="currentColor" d="M222 56a14 14 0 0 0-14-14H48a14 14 0 0 0-14 14v58.7c0 88 74.7 117.3 89.7 122.2a13.6 13.6 0 0 0 8.6 0c15-4.9 89.7-34.2 89.7-122.2Zm-93.4 169.5a1.3 1.3 0 0 1-1.2 0C113.8 221 46 194.5 46 114.7V56a2 2 0 0 1 2-2h160a2 2 0 0 1 2 2v58.7c0 79.8-67.8 106.3-81.4 110.8Zm47.7-125.6a5.9 5.9 0 0 1-.2 8.4l-58.6 56a6.3 6.3 0 0 1-4.2 1.7a5.8 5.8 0 0 1-4.1-1.7l-29.3-28a5.9 5.9 0 0 1 8.2-8.6l25.2 24l54.6-52a5.9 5.9 0 0 1 8.4.2Z"></path></svg>