<svg xmlns="http://www.w3.org/2000/svg" xmlns:xlink="http://www.w3.org/1999/xlink" aria-hidden="true" role="img" class="iconify iconify--ph" width="1em" height="1em" preserveAspectRatio="xMidYMid meet" viewBox="0 0 256 256"><path fill="currentColor" d="M92.6 53.4a8 8 0 0 1-1.4-8.6a8.1 8.1 0 0 1 7.3-4.8H208a16 16 0 0 1 16 16v58.7c0 19.7-3.8 38-11.2 54.3a7.9 7.9 0 0 1-6 4.6h-1.3a7.9 7.9 0 0 1-5.9-2.6Zm135.8 173.2l-34.9-38.4L61.2 42.6l-21.8-24a8 8 0 0 0-11.3-.5a7.9 7.9 0 0 0-.5 11.3l11.9 13.1A15.9 15.9 0 0 0 32 56v58.7c0 89.4 75.8 119.1 91 124.1a14.3 14.3 0 0 0 10 0a146.4 146.4 0 0 0 54.4-33.5l29.2 32.1a8 8 0 0 0 5.9 2.6a8.2 8.2 0 0 0 5.4-2.1a7.9 7.9 0 0 0 .5-11.3Z"></path></svg>