<svg xmlns="http://www.w3.org/2000/svg" xmlns:xlink="http://www.w3.org/1999/xlink" aria-hidden="true" role="img" class="iconify iconify--ph" width="1em" height="1em" preserveAspectRatio="xMidYMid meet" viewBox="0 0 256 256"><path fill="currentColor" d="M208 36H48a20.1 20.1 0 0 0-20 20v58.7c0 92.2 78.1 122.7 93.8 127.9a19.7 19.7 0 0 0 12.4 0c15.7-5.2 93.8-35.7 93.8-127.9V56a20.1 20.1 0 0 0-20-20ZM52 60h152v54.7a111.6 111.6 0 0 1-6.7 39.2l-62.4-43.7a12 12 0 0 0-13.8 0l-62.4 43.7a111.6 111.6 0 0 1-6.7-39.2Zm76 159.4c-10-3.5-39.1-15.7-58.3-44l58.3-40.8l58.3 40.8c-19.2 28.3-48.3 40.5-58.3 44Z"></path></svg>