<svg xmlns="http://www.w3.org/2000/svg" xmlns:xlink="http://www.w3.org/1999/xlink" aria-hidden="true" role="img" class="iconify iconify--ph" width="1em" height="1em" preserveAspectRatio="xMidYMid meet" viewBox="0 0 256 256"><path fill="currentColor" d="M226.9 228L192 189.5h-.1L37.9 20a5.9 5.9 0 1 0-8.8 8l13.6 15A14.1 14.1 0 0 0 34 56v58.7c0 88 74.7 117.3 89.7 122.2a13.6 13.6 0 0 0 8.6 0a144 144 0 0 0 55.2-34.5l30.6 33.6a5.9 5.9 0 0 0 4.4 2a5.7 5.7 0 0 0 4-1.6a5.8 5.8 0 0 0 .4-8.4Zm-98.3-2.5a1.3 1.3 0 0 1-1.2 0C113.8 221 46 194.5 46 114.7V56a2 2 0 0 1 2-2h4.7l126.7 139.5a130.8 130.8 0 0 1-50.8 32ZM92.5 48a6 6 0 0 1 6-6H208a14 14 0 0 1 14 14v58.7c0 19.4-3.7 37.4-11 53.5a6 6 0 0 1-5.5 3.5a5.2 5.2 0 0 1-2.4-.5a5.9 5.9 0 0 1-3-7.9c6.6-14.6 9.9-30.9 9.9-48.6V56a2 2 0 0 0-2-2H98.5a6 6 0 0 1-6-6Z"></path></svg>