<svg xmlns="http://www.w3.org/2000/svg" xmlns:xlink="http://www.w3.org/1999/xlink" aria-hidden="true" role="img" class="iconify iconify--ph" width="1em" height="1em" preserveAspectRatio="xMidYMid meet" viewBox="0 0 256 256"><path fill="currentColor" d="M208 36H48a20.1 20.1 0 0 0-20 20v58.7c0 92.2 78.1 122.7 93.8 127.9a19.7 19.7 0 0 0 12.4 0c15.7-5.2 93.8-35.7 93.8-127.9V56a20.1 20.1 0 0 0-20-20Zm-4 78.7c0 73.4-60.5 99.3-76 104.7c-15.5-5.4-76-31.3-76-104.7V60h152ZM116 132V92a12 12 0 0 1 24 0v40a12 12 0 0 1-24 0Zm.7 51.3A15.9 15.9 0 0 1 112 172a16 16 0 0 1 32 0a16 16 0 0 1-16 16a15.9 15.9 0 0 1-11.3-4.7Z"></path></svg>