<svg xmlns="http://www.w3.org/2000/svg" xmlns:xlink="http://www.w3.org/1999/xlink" aria-hidden="true" role="img" class="iconify iconify--ph" width="1em" height="1em" preserveAspectRatio="xMidYMid meet" viewBox="0 0 256 256"><path fill="currentColor" d="M208 42H48a14 14 0 0 0-14 14v58.7c0 88 74.7 117.3 89.7 122.2a13.6 13.6 0 0 0 8.6 0c15-4.9 89.7-34.2 89.7-122.2V56a14 14 0 0 0-14-14Zm2 72.7c0 79.8-67.8 106.3-81.4 110.8a1.3 1.3 0 0 1-1.2 0C113.8 221 46 194.5 46 114.7V56a2 2 0 0 1 2-2h160a2 2 0 0 1 2 2ZM122 136V96a6 6 0 0 1 12 0v40a6 6 0 0 1-12 0Zm16 36a10 10 0 0 1-10 10a9.9 9.9 0 0 1-10-10a10 10 0 0 1 20 0Z"></path></svg>