<svg xmlns="http://www.w3.org/2000/svg" xmlns:xlink="http://www.w3.org/1999/xlink" aria-hidden="true" role="img" class="iconify iconify--ph" width="1em" height="1em" preserveAspectRatio="xMidYMid meet" viewBox="0 0 256 256"><path fill="currentColor" d="M222 114.7V56a14 14 0 0 0-14-14H48a14 14 0 0 0-14 14v58.7q0 7 .6 13.8v.2c7.4 77.2 74.8 103.5 88.9 108.2a13.5 13.5 0 0 0 4.4.7a12.9 12.9 0 0 0 4.3-.7c14.2-4.7 81.6-31 89-108.2v-.3a121.9 121.9 0 0 0 .8-13.7ZM210 56v58.7c0 2.5-.1 4.9-.2 7.3H134V54h74a2 2 0 0 1 2 2ZM46 56a2 2 0 0 1 2-2h74v68H46.2c-.1-2.4-.2-4.8-.2-7.3Zm1.4 78H122v89.6c-18.8-7.5-65.8-31.7-74.6-89.6Zm86.6 89.5V134h74.6c-8.8 57.9-55.8 82.1-74.6 89.5Z"></path></svg>