<svg xmlns="http://www.w3.org/2000/svg" xmlns:xlink="http://www.w3.org/1999/xlink" aria-hidden="true" role="img" class="iconify iconify--ph" width="1em" height="1em" preserveAspectRatio="xMidYMid meet" viewBox="0 0 256 256"><path fill="currentColor" d="M208 44H48a12 12 0 0 0-12 12v58.7c0 86.7 73.5 115.4 88.3 120.3a11.5 11.5 0 0 0 3.7.6a11.5 11.5 0 0 0 3.7-.6c14.8-4.9 88.3-33.6 88.3-120.3V56a12 12 0 0 0-12-12Zm4 12v58.7q0 4.8-.3 9.3H132V52h76a4 4 0 0 1 4 4ZM44 56a4 4 0 0 1 4-4h76v72H44.3q-.3-4.5-.3-9.3Zm1.1 76H124v94.5c-17-6.3-70.5-30.8-78.9-94.5Zm86.9 94.5V132h78.9c-8.4 63.7-61.9 88.2-78.9 94.5Z"></path></svg>