<svg xmlns="http://www.w3.org/2000/svg" xmlns:xlink="http://www.w3.org/1999/xlink" aria-hidden="true" role="img" class="iconify iconify--ph" width="1em" height="1em" preserveAspectRatio="xMidYMid meet" viewBox="0 0 256 256"><path fill="currentColor" d="M208 40H48a16 16 0 0 0-16 16v58.7c0 89.4 75.8 119.1 91 124.1a14.3 14.3 0 0 0 10 0c15.2-5 91-34.7 91-124.1V56a16 16 0 0 0-16-16Zm0 74.7c0 78.2-66.4 104.4-80 108.9c-13.5-4.5-80-30.6-80-108.9V56h160ZM120 136V96a8 8 0 0 1 16 0v40a8 8 0 0 1-16 0Zm-.5 44.5a11.9 11.9 0 0 1-3.5-8.5a12 12 0 0 1 24 0a12 12 0 0 1-12 12a11.9 11.9 0 0 1-8.5-3.5Z"></path></svg>