<svg xmlns="http://www.w3.org/2000/svg" xmlns:xlink="http://www.w3.org/1999/xlink" aria-hidden="true" role="img" class="iconify iconify--ph" width="1em" height="1em" preserveAspectRatio="xMidYMid meet" viewBox="0 0 256 256"><path fill="currentColor" d="M208 40H48a16 16 0 0 0-16 16v58.7c0 89.4 75.8 119.1 91 124.1a16 16 0 0 0 10 0c15.2-5 91-34.7 91-124.1V56a16 16 0 0 0-16-16Zm-30.5 69.8l-58.6 56a8.1 8.1 0 0 1-5.6 2.2a7.9 7.9 0 0 1-5.5-2.2l-29.3-28a8 8 0 1 1 11-11.6l23.8 22.7l53.2-50.7a8 8 0 0 1 11 11.6Z"></path></svg>