<svg xmlns="http://www.w3.org/2000/svg" xmlns:xlink="http://www.w3.org/1999/xlink" aria-hidden="true" role="img" class="iconify iconify--ph" width="1em" height="1em" preserveAspectRatio="xMidYMid meet" viewBox="0 0 256 256"><path fill="currentColor" d="M228 114.7V56a20.1 20.1 0 0 0-20-20H48a20.1 20.1 0 0 0-20 20v58.7a136.8 136.8 0 0 0 .7 14.5c7.7 80.8 78.3 108.4 93.1 113.3a21.3 21.3 0 0 0 5.5 1h1.4a20.5 20.5 0 0 0 5.5-1c14.8-4.9 85.4-32.5 93.1-113.3v-.2a133.6 133.6 0 0 0 .7-14.3Zm-24 0v1.3h-64V60h64ZM52 60h64v56H52V60Zm2.6 80H116v74.4c-19.6-9.5-52-31.2-61.4-74.4Zm85.4 74.4V140h61.4c-9.4 43.2-41.8 64.9-61.4 74.4Z"></path></svg>