<svg xmlns="http://www.w3.org/2000/svg" xmlns:xlink="http://www.w3.org/1999/xlink" aria-hidden="true" role="img" class="iconify iconify--ph" width="1em" height="1em" preserveAspectRatio="xMidYMid meet" viewBox="0 0 256 256"><path fill="currentColor" d="M222 56a14 14 0 0 0-14-14H48a14 14 0 0 0-14 14v58.7c0 88 74.7 117.3 89.7 122.2a13.6 13.6 0 0 0 8.6 0c15-4.9 89.7-34.2 89.7-122.2Zm-93.4 169.5a1.3 1.3 0 0 1-1.2 0c-9.4-3.1-45-16.8-65.9-51.7l66.5-46.5l66.5 46.5c-20.9 34.9-56.5 48.6-65.9 51.7Zm71.5-62.4l-68.7-48a5.7 5.7 0 0 0-6.8 0l-68.7 48c-6-13.4-9.9-29.4-9.9-48.4V56a2 2 0 0 1 2-2h160a2 2 0 0 1 2 2v58.7c0 19-3.9 35-9.9 48.4Z"></path></svg>