<svg xmlns="http://www.w3.org/2000/svg" xmlns:xlink="http://www.w3.org/1999/xlink" aria-hidden="true" role="img" class="iconify iconify--ph" width="1em" height="1em" preserveAspectRatio="xMidYMid meet" viewBox="0 0 256 256"><path fill="currentColor" d="M208 42H48a14 14 0 0 0-14 14v58.7c0 88 74.7 117.3 89.6 122.2a13.5 13.5 0 0 0 4.4.7a12.9 12.9 0 0 0 4.3-.7c15-4.9 89.7-34.2 89.7-122.2V56a14 14 0 0 0-14-14Zm2 72.7c0 79.8-67.8 106.3-81.4 110.8a1.3 1.3 0 0 1-1.2 0C113.8 221 46 194.5 46 114.7V56a2 2 0 0 1 2-2h160a2 2 0 0 1 2 2ZM166 128a6 6 0 0 1-6 6h-26v26a6 6 0 0 1-12 0v-26H96a6 6 0 0 1 0-12h26V96a6 6 0 0 1 12 0v26h26a6 6 0 0 1 6 6Z"></path></svg>