<svg xmlns="http://www.w3.org/2000/svg" xmlns:xlink="http://www.w3.org/1999/xlink" aria-hidden="true" role="img" class="iconify iconify--ph" width="1em" height="1em" preserveAspectRatio="xMidYMid meet" viewBox="0 0 256 256"><path fill="currentColor" d="M208 36H48a20.1 20.1 0 0 0-20 20v58.7c0 92.2 78.1 122.7 93.8 127.9a19.7 19.7 0 0 0 12.4 0c15.7-5.2 93.8-35.7 93.8-127.9V56a20.1 20.1 0 0 0-20-20Zm-4 78.7c0 73.4-60.5 99.3-76 104.7c-15.5-5.4-76-31.3-76-104.7V60h152Zm-125.5 1.2a12.1 12.1 0 0 1 15.2-7.7l22.3 7.3V92a12 12 0 0 1 24 0v23.5l22.3-7.3a12 12 0 1 1 7.5 22.9l-22.4 7.2l13.8 19a12.1 12.1 0 0 1-2.6 16.8a12.5 12.5 0 0 1-7.1 2.3a12.2 12.2 0 0 1-9.7-5l-13.8-19l-13.8 19a12.2 12.2 0 0 1-9.7 5a12.5 12.5 0 0 1-7.1-2.3a12.1 12.1 0 0 1-2.6-16.8l13.8-19l-22.4-7.2a12.1 12.1 0 0 1-7.7-15.2Z"></path></svg>