<svg xmlns="http://www.w3.org/2000/svg" xmlns:xlink="http://www.w3.org/1999/xlink" aria-hidden="true" role="img" class="iconify iconify--ph" width="1em" height="1em" preserveAspectRatio="xMidYMid meet" viewBox="0 0 256 256"><path fill="currentColor" d="m228.4 226.6l-35-38.5l-154-169.5a8 8 0 0 0-11.3-.5a7.9 7.9 0 0 0-.5 11.3l11.9 13.1A15.9 15.9 0 0 0 32 56v58.7c0 89.4 75.8 119.1 91 124.1a14.3 14.3 0 0 0 10 0a146.4 146.4 0 0 0 54.4-33.5l29.2 32.1a8 8 0 0 0 5.9 2.6a8.2 8.2 0 0 0 5.4-2.1a7.9 7.9 0 0 0 .5-11.3Zm-100.4-3c-13.5-4.5-80-30.6-80-108.9V56h3.8l124.8 137.4a129.4 129.4 0 0 1-48.6 30.2ZM90.5 48a8 8 0 0 1 8-8H208a16 16 0 0 1 16 16v58.7c0 19.7-3.8 38-11.2 54.3a8 8 0 0 1-10.6 4a8 8 0 0 1-4-10.6c6.5-14.3 9.8-30.3 9.8-47.7V56H98.5a8 8 0 0 1-8-8Z"></path></svg>