<svg xmlns="http://www.w3.org/2000/svg" xmlns:xlink="http://www.w3.org/1999/xlink" aria-hidden="true" role="img" class="iconify iconify--ph" width="1em" height="1em" preserveAspectRatio="xMidYMid meet" viewBox="0 0 256 256"><path fill="currentColor" d="m225.5 229.3l-189-208a4 4 0 1 0-6 5.4l15.9 17.4A12 12 0 0 0 36 56v58.7c0 86.7 73.5 115.4 88.3 120.3a11.7 11.7 0 0 0 7.4 0c7.8-2.6 34.1-12.5 55.8-35.5l32 35.2a4.1 4.1 0 0 0 5.7.3a4.2 4.2 0 0 0 .3-5.7Zm-96.3-1.9a3.3 3.3 0 0 1-2.4 0C113 222.9 44 195.9 44 114.7V56a4 4 0 0 1 4-4h5.5l128.6 141.5c-20.5 22-45.5 31.5-52.9 33.9ZM94.5 48a4 4 0 0 1 4-4H208a12 12 0 0 1 12 12v58.7c0 19.1-3.6 36.8-10.8 52.7a4 4 0 0 1-3.7 2.3a4.5 4.5 0 0 1-1.6-.3a4 4 0 0 1-2-5.3c6.7-14.8 10.1-31.4 10.1-49.4V56a4 4 0 0 0-4-4H98.5a4 4 0 0 1-4-4Z"></path></svg>