<svg xmlns="http://www.w3.org/2000/svg" xmlns:xlink="http://www.w3.org/1999/xlink" aria-hidden="true" role="img" class="iconify iconify--ph" width="1em" height="1em" preserveAspectRatio="xMidYMid meet" viewBox="0 0 256 256"><path fill="currentColor" d="M208 44H48a12 12 0 0 0-12 12v58.7c0 86.7 73.5 115.4 88.3 120.3a11.7 11.7 0 0 0 7.4 0c14.8-4.9 88.3-33.6 88.3-120.3V56a12 12 0 0 0-12-12Zm4 70.7c0 81.2-69 108.2-82.8 112.7a3.3 3.3 0 0 1-2.4 0C113 222.9 44 195.9 44 114.7V56a4 4 0 0 1 4-4h160a4 4 0 0 1 4 4ZM124 136V96a4 4 0 0 1 8 0v40a4 4 0 0 1-8 0Zm12 36a8 8 0 0 1-8 8a7.9 7.9 0 0 1-8-8a8 8 0 0 1 16 0Z"></path></svg>