<svg xmlns="http://www.w3.org/2000/svg" xmlns:xlink="http://www.w3.org/1999/xlink" aria-hidden="true" role="img" class="iconify iconify--ph" width="1em" height="1em" preserveAspectRatio="xMidYMid meet" viewBox="0 0 256 256"><path fill="currentColor" d="M128 235.6a11.9 11.9 0 0 1-3.7-.6C109.5 230.1 36 201.4 36 114.7V56a12 12 0 0 1 12-12h160a12 12 0 0 1 12 12v58.7c0 86.7-73.5 115.4-88.3 120.3a11.9 11.9 0 0 1-3.7.6ZM48 52a4 4 0 0 0-4 4v58.7c0 81.2 69 108.2 82.8 112.7a3.3 3.3 0 0 0 2.4 0c13.8-4.5 82.8-31.5 82.8-112.7V56a4 4 0 0 0-4-4Z"></path></svg>