<svg xmlns="http://www.w3.org/2000/svg" xmlns:xlink="http://www.w3.org/1999/xlink" aria-hidden="true" role="img" class="iconify iconify--ph" width="1em" height="1em" preserveAspectRatio="xMidYMid meet" viewBox="0 0 256 256"><rect width="192" height="160" x="32" y="48" fill="currentColor" opacity=".2" rx="8"></rect><path fill="currentColor" d="M216 40H40a16 16 0 0 0-16 16v144a16 16 0 0 0 16 16h176a16 16 0 0 0 16-16V56a16 16 0 0 0-16-16Zm0 160H40V56h176v144Z"></path><path fill="currentColor" d="M168 80a8 8 0 0 0-8 8a32 32 0 0 1-64 0a8 8 0 0 0-16 0a48 48 0 0 0 96 0a8 8 0 0 0-8-8Z"></path></svg>