<svg xmlns="http://www.w3.org/2000/svg" xmlns:xlink="http://www.w3.org/1999/xlink" aria-hidden="true" role="img" class="iconify iconify--ph" width="1em" height="1em" preserveAspectRatio="xMidYMid meet" viewBox="0 0 256 256"><path fill="currentColor" d="M96 216a16 16 0 1 1-16-16a16 16 0 0 1 16 16Zm88-16a16 16 0 1 0 16 16a16 16 0 0 0-16-16Zm45.4-125.8L203 166.6a24.1 24.1 0 0 1-23.1 17.4H84.1A24.1 24.1 0 0 1 61 166.6L34.6 74.3v-.2L24.8 40H8a8 8 0 0 1 0-16h16.8a16.1 16.1 0 0 1 15.4 11.6L48.3 64h173.4a8 8 0 0 1 7.7 10.2ZM211.1 80H52.9l23.5 82.2a8 8 0 0 0 7.7 5.8h95.8a8 8 0 0 0 7.7-5.8Z"></path></svg>