<svg xmlns="http://www.w3.org/2000/svg" xmlns:xlink="http://www.w3.org/1999/xlink" aria-hidden="true" role="img" class="iconify iconify--ph" width="1em" height="1em" preserveAspectRatio="xMidYMid meet" viewBox="0 0 256 256"><path fill="currentColor" d="M92 216a12 12 0 1 1-12-12a12 12 0 0 1 12 12Zm92-12a12 12 0 1 0 12 12a12 12 0 0 0-12-12Zm41.6-130.9l-26.4 92.4a20.3 20.3 0 0 1-19.3 14.5H84.1a20.3 20.3 0 0 1-19.3-14.5L38.5 73.2V73l-9.8-34.1a4.1 4.1 0 0 0-3.9-2.9H8a4 4 0 0 1 0-8h16.8a12.1 12.1 0 0 1 11.6 8.7L45.3 68h176.4a3.9 3.9 0 0 1 3.2 1.6a4 4 0 0 1 .7 3.5Zm-9.2 2.9H47.6l24.9 87.3a12.1 12.1 0 0 0 11.6 8.7h95.8a12.1 12.1 0 0 0 11.6-8.7Z"></path></svg>