<svg xmlns="http://www.w3.org/2000/svg" xmlns:xlink="http://www.w3.org/1999/xlink" aria-hidden="true" role="img" class="iconify iconify--ph" width="1em" height="1em" preserveAspectRatio="xMidYMid meet" viewBox="0 0 256 256"><path fill="currentColor" d="m207.8 131.6l12.1-66.9a4.2 4.2 0 0 0-.8-3.3A4.1 4.1 0 0 0 216 60H51.3l-5.4-30.1A12 12 0 0 0 34.1 20H16a4 4 0 0 0 0 8h18.1a4 4 0 0 1 3.9 3.3l27.9 153.3a24 24 0 1 0 32 3.4h68.2a24 24 0 1 0 17.9-8H73.2l-5.9-32h120.8a20 20 0 0 0 19.7-16.4ZM96 204a16 16 0 1 1-16-16a16 16 0 0 1 16 16Zm104 0a16 16 0 1 1-16-16a16 16 0 0 1 16 16ZM52.8 68h158.4l-11.3 62.1a11.9 11.9 0 0 1-11.8 9.9H65.9Z"></path></svg>