<svg xmlns="http://www.w3.org/2000/svg" xmlns:xlink="http://www.w3.org/1999/xlink" aria-hidden="true" role="img" class="iconify iconify--ph" width="1em" height="1em" preserveAspectRatio="xMidYMid meet" viewBox="0 0 256 256"><path fill="currentColor" d="m209.7 131.9l12.2-66.8a6.1 6.1 0 0 0-1.3-4.9A5.8 5.8 0 0 0 216 58H53l-5.2-28.5A13.9 13.9 0 0 0 34.1 18H16a6 6 0 0 0 0 12h18.1a2 2 0 0 1 1.9 1.6l27.7 152.2A26 26 0 1 0 106 204a25.6 25.6 0 0 0-4.1-14h60.2a25.6 25.6 0 0 0-4.1 14a26 26 0 1 0 26-26H74.8l-5.1-28h118.4a22 22 0 0 0 21.6-18.1ZM94 204a14 14 0 1 1-14-14a14 14 0 0 1 14 14Zm104 0a14 14 0 1 1-14-14a14 14 0 0 1 14 14ZM55.2 70h153.6l-10.9 59.8a10 10 0 0 1-9.8 8.2H67.6Z"></path></svg>