<svg xmlns="http://www.w3.org/2000/svg" xmlns:xlink="http://www.w3.org/1999/xlink" aria-hidden="true" role="img" class="iconify iconify--ph" width="1em" height="1em" preserveAspectRatio="xMidYMid meet" viewBox="0 0 256 256"><path fill="currentColor" d="M70 228a10 10 0 1 1-10-10a10 10 0 0 1 10 10Zm18-38a10 10 0 1 0 10 10a10 10 0 0 0-10-10Zm-60-4a10 10 0 1 0 10 10a10 10 0 0 0-10-10Zm38-18a10 10 0 1 0-10 10a10 10 0 0 0 10-10ZM254 40a6 6 0 0 1-6 6h-28.7a2 2 0 0 0-1.4.6l-28.3 28.3l-21.1 126.8a14 14 0 0 1-9.6 11a15.5 15.5 0 0 1-4.3.7a13.7 13.7 0 0 1-9.8-4.2l-98.1-98a13.9 13.9 0 0 1-3.4-14.1a14 14 0 0 1 11-9.6l126.8-21.1l28.3-28.3a14.3 14.3 0 0 1 9.9-4.1H248a6 6 0 0 1 6 6Zm-77.3 39.3L56.3 99.4a2 2 0 0 0-1.6 1.3a2.3 2.3 0 0 0 .5 2.1l98.1 98a2 2 0 0 0 2 .5a2 2 0 0 0 1.3-1.6Z"></path></svg>