<svg xmlns="http://www.w3.org/2000/svg" xmlns:xlink="http://www.w3.org/1999/xlink" aria-hidden="true" role="img" class="iconify iconify--ph" width="1em" height="1em" preserveAspectRatio="xMidYMid meet" viewBox="0 0 256 256"><path fill="currentColor" d="M72 228a12 12 0 1 1-12-12a12 12 0 0 1 12 12Zm16-40a12 12 0 1 0 12 12a12 12 0 0 0-12-12Zm-60-4a12 12 0 1 0 12 12a12 12 0 0 0-12-12Zm40-16a12 12 0 1 0-12 12a12 12 0 0 0 12-12ZM256 40a8 8 0 0 1-8 8h-28.7l-27.8 27.8L170.4 202a15.7 15.7 0 0 1-10.9 12.6a16.2 16.2 0 0 1-4.9.8a16 16 0 0 1-11.2-4.7l-98.1-98.1a16 16 0 0 1-3.9-16.1A15.7 15.7 0 0 1 54 85.6l126.2-21.1L208 36.7a15.9 15.9 0 0 1 11.3-4.7H248a8 8 0 0 1 8 8Zm-81.7 41.7L56.6 101.3l98.1 98.1Z"></path></svg>