<svg xmlns="http://www.w3.org/2000/svg" xmlns:xlink="http://www.w3.org/1999/xlink" aria-hidden="true" role="img" class="iconify iconify--ph" width="1em" height="1em" preserveAspectRatio="xMidYMid meet" viewBox="0 0 256 256"><path fill="currentColor" d="M56 180a12 12 0 1 1 12-12a12 12 0 0 1-12 12Zm4 36a12 12 0 1 0 12 12a12 12 0 0 0-12-12Zm-32-32a12 12 0 1 0 12 12a12 12 0 0 0-12-12Zm60 4a12 12 0 1 0 12 12a12 12 0 0 0-12-12ZM248 32h-28.7a15.9 15.9 0 0 0-11.3 4.7l-27.8 27.8L54 85.6a15.7 15.7 0 0 0-12.6 10.9a16 16 0 0 0 3.9 16.1l98.1 98.1a16 16 0 0 0 11.2 4.7a16.2 16.2 0 0 0 4.9-.8a15.7 15.7 0 0 0 10.9-12.6l21.1-126.2L219.3 48H248a8 8 0 0 0 0-16Z"></path></svg>