<svg xmlns="http://www.w3.org/2000/svg" xmlns:xlink="http://www.w3.org/1999/xlink" aria-hidden="true" role="img" class="iconify iconify--ph" width="1em" height="1em" preserveAspectRatio="xMidYMid meet" viewBox="0 0 256 256"><path fill="currentColor" d="M76 228a16 16 0 1 1-16-16a16 16 0 0 1 16 16Zm16-48a16 16 0 1 0 16 16a16 16 0 0 0-16-16Zm-64 0a16 16 0 1 0 16 16a16 16 0 0 0-16-16Zm32 0a16 16 0 1 0-16-16a16 16 0 0 0 16 16ZM256 40a12 12 0 0 1-12 12h-23l-25.6 25.5L181.8 193a20 20 0 0 1-13.3 16.6a21.2 21.2 0 0 1-6.6 1.1a20.2 20.2 0 0 1-14.1-5.9l-96.6-96.6a20 20 0 0 1 11.8-34l115.5-13.6l26.7-26.7a19.7 19.7 0 0 1 14.1-5.9H244a12 12 0 0 1 12 12Zm-85.7 45.7L74 97l85 85Z"></path></svg>