<svg xmlns="http://www.w3.org/2000/svg" xmlns:xlink="http://www.w3.org/1999/xlink" aria-hidden="true" role="img" class="iconify iconify--ph" width="1em" height="1em" preserveAspectRatio="xMidYMid meet" viewBox="0 0 256 256"><path fill="currentColor" d="M68 228a8 8 0 1 1-8-8a8 8 0 0 1 8 8Zm20-36a8 8 0 1 0 8 8a8 8 0 0 0-8-8Zm-60-4a8 8 0 1 0 8 8a8 8 0 0 0-8-8Zm36-20a8 8 0 1 0-8 8a8 8 0 0 0 8-8ZM252 40a4 4 0 0 1-4 4h-28.7a3.6 3.6 0 0 0-2.8 1.2l-28.8 28.7l-21.2 127.4a11.9 11.9 0 0 1-8.2 9.5a11.5 11.5 0 0 1-3.7.6a11.9 11.9 0 0 1-8.4-3.6l-98-98a11.9 11.9 0 0 1 6.5-20.3l127.4-21.2l28.7-28.8a11.9 11.9 0 0 1 8.5-3.5H248a4 4 0 0 1 4 4Zm-72.9 36.9L56 97.4a4 4 0 0 0-3.2 2.7a4.1 4.1 0 0 0 1 4.1l98 98a4.1 4.1 0 0 0 4.1 1a4 4 0 0 0 2.7-3.2Z"></path></svg>