<svg xmlns="http://www.w3.org/2000/svg" xmlns:xlink="http://www.w3.org/1999/xlink" aria-hidden="true" role="img" class="iconify iconify--ph" width="1em" height="1em" preserveAspectRatio="xMidYMid meet" viewBox="0 0 256 256"><path fill="currentColor" d="M240.5 175.5a12 12 0 0 1 0 17l-24 24a12.1 12.1 0 0 1-17 0a12 12 0 0 1 0-17l3.5-3.5h-2.1a76.1 76.1 0 0 1-61.8-31.8l-41.7-58.4A52.1 52.1 0 0 0 55.1 84H32a12 12 0 0 1 0-24h23.1a76.1 76.1 0 0 1 61.8 31.8l41.7 58.4a52.1 52.1 0 0 0 42.3 21.8h2.1l-3.5-3.5a12 12 0 0 1 17-17Zm-95.6-72.6a11.8 11.8 0 0 0 7.9 3a12 12 0 0 0 9-4.1A51.9 51.9 0 0 1 200.9 84h2.1l-3.5 3.5a12 12 0 0 0 0 17a12.1 12.1 0 0 0 17 0l24-24a12 12 0 0 0 0-17l-24-24a12 12 0 0 0-17 17L203 60h-2.1a76.2 76.2 0 0 0-57.2 26a12 12 0 0 0 1.2 16.9Zm-33.8 50.2a12 12 0 0 0-16.9 1.1A51.9 51.9 0 0 1 55.1 172H32a12 12 0 0 0 0 24h23.1a76.2 76.2 0 0 0 57.2-26a12 12 0 0 0-1.2-16.9Z"></path></svg>