<svg xmlns="http://www.w3.org/2000/svg" xmlns:xlink="http://www.w3.org/1999/xlink" aria-hidden="true" role="img" class="iconify iconify--ph" width="1em" height="1em" preserveAspectRatio="xMidYMid meet" viewBox="0 0 256 256"><path fill="currentColor" d="M240.5 175.5a12 12 0 0 1 0 17l-24 24a12.1 12.1 0 0 1-17 0a12 12 0 0 1 0-17l3.5-3.5h-30.9a20.1 20.1 0 0 1-16.3-8.4L81.8 84H32a12 12 0 0 1 0-24h51.9a20.1 20.1 0 0 1 16.3 8.4l74 103.6H203l-3.5-3.5a12 12 0 0 1 17-17Zm-130.1-22.9a12 12 0 0 0-16.7 2.8L81.8 172H32a12 12 0 0 0 0 24h51.9a20.1 20.1 0 0 0 16.3-8.4l13-18.2a12.1 12.1 0 0 0-2.8-16.8Zm35.2-49.2a12 12 0 0 0 16.7-2.8L174.2 84H203l-3.5 3.5a12 12 0 0 0 0 17a12.1 12.1 0 0 0 17 0l24-24a12 12 0 0 0 0-17l-24-24a12 12 0 0 0-17 17L203 60h-30.9a20.1 20.1 0 0 0-16.3 8.4l-13 18.2a12.1 12.1 0 0 0 2.8 16.8Z"></path></svg>