<svg xmlns="http://www.w3.org/2000/svg" xmlns:xlink="http://www.w3.org/1999/xlink" aria-hidden="true" role="img" class="iconify iconify--ph" width="1em" height="1em" preserveAspectRatio="xMidYMid meet" viewBox="0 0 256 256"><path fill="currentColor" d="M234.8 181.2a3.9 3.9 0 0 1 0 5.6l-24 24a3.9 3.9 0 0 1-5.6 0a3.9 3.9 0 0 1 0-5.6l17.1-17.2h-50.2a11.9 11.9 0 0 1-9.7-5L87.1 77.7a3.7 3.7 0 0 0-3.2-1.7H32a4 4 0 0 1 0-8h51.9a12 12 0 0 1 9.7 5l75.3 105.3a3.7 3.7 0 0 0 3.2 1.7h50.2l-17.1-17.2a4 4 0 0 1 5.6-5.6Zm-89.5-77.5a4.3 4.3 0 0 0 2.4.8a4 4 0 0 0 3.2-1.7l18-25.1a3.7 3.7 0 0 1 3.2-1.7h50.2l-17.1 17.2a3.9 3.9 0 0 0 0 5.6a3.9 3.9 0 0 0 5.6 0l24-24a3.9 3.9 0 0 0 0-5.6l-24-24a4 4 0 0 0-5.6 5.6L222.3 68h-50.2a11.9 11.9 0 0 0-9.7 5l-18 25.1a4 4 0 0 0 .9 5.6Zm-34.6 48.6a4 4 0 0 0-5.6.9l-18 25.1a3.7 3.7 0 0 1-3.2 1.7H32a4 4 0 0 0 0 8h51.9a12 12 0 0 0 9.7-5l18-25.1a4 4 0 0 0-.9-5.6Z"></path></svg>