<svg xmlns="http://www.w3.org/2000/svg" xmlns:xlink="http://www.w3.org/1999/xlink" aria-hidden="true" role="img" class="iconify iconify--ph" width="1em" height="1em" preserveAspectRatio="xMidYMid meet" viewBox="0 0 256 256"><path fill="currentColor" d="M212 168v40a2.2 2.2 0 0 1-.1.8a.4.4 0 0 1-.1.3c0 .2-.1.3-.1.4s-.1.3-.2.4l-.2.3a2.9 2.9 0 0 1-1.1 1.1l-.3.2l-.4.2H168a4 4 0 0 1 0-8h30.3L45.2 50.8a4 4 0 0 1 5.6-5.6L204 198.3V168a4 4 0 0 1 8 0Zm-.1-120.8a.4.4 0 0 0-.1-.3c0-.2-.1-.3-.1-.4l-.2-.4l-.2-.3a2.9 2.9 0 0 0-1.1-1.1l-.3-.2l-.4-.2H168a4 4 0 0 0 0 8h30.3l-50.5 50.5a4 4 0 1 0 5.7 5.7L204 57.7V88a4 4 0 0 0 8 0V48a2.2 2.2 0 0 0-.1-.8ZM102.5 147.8l-57.3 57.4a3.9 3.9 0 0 0 0 5.6a3.9 3.9 0 0 0 5.6 0l57.4-57.3a4 4 0 0 0-5.7-5.7Z"></path></svg>