<svg xmlns="http://www.w3.org/2000/svg" xmlns:xlink="http://www.w3.org/1999/xlink" aria-hidden="true" role="img" class="iconify iconify--ph" width="1em" height="1em" preserveAspectRatio="xMidYMid meet" viewBox="0 0 256 256"><path fill="currentColor" d="m114.8 160.2l-17.9 25.1a16.1 16.1 0 0 1-13 6.7H32a8 8 0 0 1 0-16h51.9l17.9-25.1a8 8 0 1 1 13 9.3ZM143 107a8 8 0 0 0 11.2-1.9L172.1 80H200v16a8 8 0 0 0 4.9 7.4a8.5 8.5 0 0 0 3.1.6a8.3 8.3 0 0 0 5.7-2.3l24-24a8.1 8.1 0 0 0 0-11.4l-24-24a8.4 8.4 0 0 0-8.8-1.7A8 8 0 0 0 200 48v16h-27.9a16.1 16.1 0 0 0-13 6.7l-17.9 25.1A8 8 0 0 0 143 107Zm70.7 47.3a8.4 8.4 0 0 0-8.8-1.7a8 8 0 0 0-4.9 7.4v16h-27.9L96.9 70.7a16.1 16.1 0 0 0-13-6.7H32a8 8 0 0 0 0 16h51.9l75.2 105.3a16.1 16.1 0 0 0 13 6.7H200v16a8 8 0 0 0 4.9 7.4a8.5 8.5 0 0 0 3.1.6a8.3 8.3 0 0 0 5.7-2.3l24-24a8.1 8.1 0 0 0 0-11.4Z"></path></svg>