<svg xmlns="http://www.w3.org/2000/svg" xmlns:xlink="http://www.w3.org/1999/xlink" aria-hidden="true" role="img" class="iconify iconify--ph" width="1em" height="1em" preserveAspectRatio="xMidYMid meet" viewBox="0 0 256 256"><path fill="currentColor" d="m217.3 215.6l-.8.8h-.1l-.8.8l-.4.3l-.5.4l-.6.3l-.4.3l-.6.2l-.5.3l-.6.2l-.5.2h-.6l-.6.2H168a12 12 0 0 1 0-24h11L39.5 56.5a12 12 0 0 1 17-17L196 179v-11a12 12 0 0 1 24 0v40a4.9 4.9 0 0 1-.1 1.2v.5a1.3 1.3 0 0 0-.1.6c-.1.2-.1.4-.2.6s-.1.4-.1.6s-.1.4-.2.5s-.1.4-.2.6s-.2.3-.2.5l-.3.6l-.3.4l-.3.6l-.4.5Zm-61-103.9a12.2 12.2 0 0 0 8.5-3.5L196 77v11a12 12 0 0 0 24 0V48a4.9 4.9 0 0 0-.1-1.2v-.5a1.3 1.3 0 0 1-.1-.6c-.1-.2-.1-.4-.2-.6s-.1-.4-.1-.6s-.1-.4-.2-.5s-.1-.4-.2-.6s-.2-.3-.2-.5l-.3-.6l-.3-.4l-.3-.6l-.4-.5l-.3-.4a6 6 0 0 0-.8-.8h-.1l-.8-.8l-.4-.3l-.5-.4l-.6-.3l-.4-.3l-.6-.3l-.5-.2l-.6-.2l-.5-.2h-.6l-.6-.2H168a12 12 0 0 0 0 24h11l-31.2 30.8a12 12 0 0 0 8.5 20.5Zm-65.1 36.1l-51.7 51.7a12 12 0 0 0 0 17a12.1 12.1 0 0 0 17 0l51.7-51.7a12 12 0 0 0-17-17Z"></path></svg>