<svg xmlns="http://www.w3.org/2000/svg" xmlns:xlink="http://www.w3.org/1999/xlink" aria-hidden="true" role="img" class="iconify iconify--ph" width="1em" height="1em" preserveAspectRatio="xMidYMid meet" viewBox="0 0 256 256"><path fill="currentColor" d="m214.2 213.1l-.5.5h-.1l-.5.5l-.3.2l-.4.3l-.3.2l-.3.2h-.4l-.3.2h-.4l-.4.2H168a8 8 0 0 1 0-16h20.7L42.3 53.7a8.1 8.1 0 0 1 11.4-11.4L200 188.7V168a8 8 0 0 1 16 0v40.8a.4.4 0 0 0-.1.3a.9.9 0 0 1-.1.5v.3a.8.8 0 0 0-.1.4l-.2.4c0 .1-.1.2-.1.4l-.2.3c0 .1-.1.2-.1.4l-.2.3l-.2.3l-.3.4Zm-63.6-99.7a8 8 0 0 0 5.7-2.4L200 67.3V88a8 8 0 0 0 16 0V47.2a.4.4 0 0 1-.1-.3a.9.9 0 0 0-.1-.5v-.3a.8.8 0 0 1-.1-.4c-.1-.1-.1-.3-.2-.4s-.1-.2-.1-.4l-.2-.3c0-.1-.1-.2-.1-.4s-.2-.2-.2-.3s-.2-.2-.2-.3l-.3-.4l-.2-.3l-.5-.5h-.1c-.2-.2-.4-.3-.5-.5l-.4-.2l-.3-.2l-.3-.3l-.3-.2h-.4l-.3-.2h-.4l-.4-.2H168a8 8 0 0 0 0 16h20.7L145 99.7a7.9 7.9 0 0 0 0 11.3a7.7 7.7 0 0 0 5.6 2.4ZM99.7 145l-57.4 57.3a8.1 8.1 0 0 0 0 11.4a8.2 8.2 0 0 0 11.4 0l57.3-57.4A8 8 0 0 0 99.7 145Z"></path></svg>