<svg xmlns="http://www.w3.org/2000/svg" xmlns:xlink="http://www.w3.org/1999/xlink" aria-hidden="true" role="img" class="iconify iconify--ph" width="1em" height="1em" preserveAspectRatio="xMidYMid meet" viewBox="0 0 256 256"><path fill="currentColor" d="M216 48v40a8 8 0 0 1-4.9 7.4a8.5 8.5 0 0 1-3.1.6a8.3 8.3 0 0 1-5.7-2.3L188 79.3L156.3 111a8 8 0 0 1-5.7 2.4a7.7 7.7 0 0 1-5.6-2.4a7.9 7.9 0 0 1 0-11.3L176.7 68l-14.4-14.3a8.4 8.4 0 0 1-1.7-8.8A8 8 0 0 1 168 40h40a8 8 0 0 1 8 8Zm-4.9 112.6a8.4 8.4 0 0 0-8.8 1.7L188 176.7L53.7 42.3a8.1 8.1 0 0 0-11.4 11.4L176.7 188l-14.4 14.3a8.4 8.4 0 0 0-1.7 8.8a8 8 0 0 0 7.4 4.9h40a8 8 0 0 0 8-8v-40a8 8 0 0 0-4.9-7.4ZM99.7 145l-57.4 57.3a8.1 8.1 0 0 0 0 11.4a8.2 8.2 0 0 0 11.4 0l57.3-57.4A8 8 0 0 0 99.7 145Z"></path></svg>