<svg xmlns="http://www.w3.org/2000/svg" xmlns:xlink="http://www.w3.org/1999/xlink" aria-hidden="true" role="img" class="iconify iconify--ph" width="1em" height="1em" preserveAspectRatio="xMidYMid meet" viewBox="0 0 256 256"><path fill="currentColor" d="M237.7 178.3a8.1 8.1 0 0 1 0 11.4l-24 24a8.2 8.2 0 0 1-11.4 0a8.1 8.1 0 0 1 0-11.4l10.4-10.3h-40.6a16.1 16.1 0 0 1-13-6.7L83.9 80H32a8 8 0 0 1 0-16h51.9a16.1 16.1 0 0 1 13 6.7L172.1 176h40.6l-10.4-10.3a8.1 8.1 0 0 1 11.4-11.4ZM143 107a8 8 0 0 0 11.2-1.9L172.1 80h40.6l-10.4 10.3a8.1 8.1 0 0 0 0 11.4a8.2 8.2 0 0 0 11.4 0l24-24a8.1 8.1 0 0 0 0-11.4l-24-24a8.1 8.1 0 0 0-11.4 11.4L212.7 64h-40.6a16.1 16.1 0 0 0-13 6.7l-17.9 25.1A8 8 0 0 0 143 107Zm-30 42a8 8 0 0 0-11.2 1.9L83.9 176H32a8 8 0 0 0 0 16h51.9a16.1 16.1 0 0 0 13-6.7l17.9-25.1A8 8 0 0 0 113 149Z"></path></svg>