<svg xmlns="http://www.w3.org/2000/svg" xmlns:xlink="http://www.w3.org/1999/xlink" aria-hidden="true" role="img" class="iconify iconify--ph" width="1em" height="1em" preserveAspectRatio="xMidYMid meet" viewBox="0 0 256 256"><path fill="currentColor" d="m138.8 130.8l-42 42A3.8 3.8 0 0 1 94 174a3.9 3.9 0 0 1-2.8-1.2a3.9 3.9 0 0 1 0-5.6l35.1-35.2H24a4 4 0 0 1 0-8h102.3L91.2 88.8a4 4 0 0 1 5.6-5.6l42 42a3.9 3.9 0 0 1 0 5.6ZM192 36h-56a4 4 0 0 0 0 8h56a4 4 0 0 1 4 4v160a4 4 0 0 1-4 4h-56a4 4 0 0 0 0 8h56a12 12 0 0 0 12-12V48a12 12 0 0 0-12-12Z"></path></svg>