<svg xmlns="http://www.w3.org/2000/svg" xmlns:xlink="http://www.w3.org/1999/xlink" aria-hidden="true" role="img" class="iconify iconify--ph" width="1em" height="1em" preserveAspectRatio="xMidYMid meet" viewBox="0 0 256 256"><path fill="currentColor" d="m140.2 132.2l-41.9 42A6.1 6.1 0 0 1 94 176a6 6 0 0 1-4.2-10.2l31.7-31.8H24a6 6 0 0 1 0-12h97.5L89.8 90.2a5.8 5.8 0 0 1 0-8.4a5.9 5.9 0 0 1 8.5 0l41.9 42l.3.3l.2.2a3.5 3.5 0 0 1 .5.8h.1a6.1 6.1 0 0 1 0 5.6h-.1a3.5 3.5 0 0 1-.5.8l-.2.2ZM192 34h-56a6 6 0 0 0 0 12h56a2 2 0 0 1 2 2v160a2 2 0 0 1-2 2h-56a6 6 0 0 0 0 12h56a14 14 0 0 0 14-14V48a14 14 0 0 0-14-14Z"></path></svg>