<svg xmlns="http://www.w3.org/2000/svg" xmlns:xlink="http://www.w3.org/1999/xlink" aria-hidden="true" role="img" class="iconify iconify--ph" width="1em" height="1em" preserveAspectRatio="xMidYMid meet" viewBox="0 0 256 256"><path fill="currentColor" d="m218.8 130.8l-42 42a3.8 3.8 0 0 1-2.8 1.2a3.9 3.9 0 0 1-2.8-1.2a3.9 3.9 0 0 1 0-5.6l35.1-35.2H104a4 4 0 0 1 0-8h102.3l-35.1-35.2a4 4 0 0 1 5.6-5.6l42 42a3.9 3.9 0 0 1 0 5.6ZM104 212H48a4 4 0 0 1-4-4V48a4 4 0 0 1 4-4h56a4 4 0 0 0 0-8H48a12 12 0 0 0-12 12v160a12 12 0 0 0 12 12h56a4 4 0 0 0 0-8Z"></path></svg>