<svg xmlns="http://www.w3.org/2000/svg" xmlns:xlink="http://www.w3.org/1999/xlink" aria-hidden="true" role="img" class="iconify iconify--ph" width="1em" height="1em" preserveAspectRatio="xMidYMid meet" viewBox="0 0 256 256"><path fill="currentColor" d="m244.5 108l-36-40a6.1 6.1 0 0 0-4.5-2h-70V32a6 6 0 0 0-12 0v34H40a14 14 0 0 0-14 14v64a14 14 0 0 0 14 14h82v66a6 6 0 0 0 12 0v-66h70a6.1 6.1 0 0 0 4.5-2l36-40a6.1 6.1 0 0 0 0-8Zm-43.2 38H40a2 2 0 0 1-2-2V80a2 2 0 0 1 2-2h161.3l30.6 34Z"></path></svg>