<svg xmlns="http://www.w3.org/2000/svg" xmlns:xlink="http://www.w3.org/1999/xlink" aria-hidden="true" role="img" class="iconify iconify--ph" width="1em" height="1em" preserveAspectRatio="xMidYMid meet" viewBox="0 0 256 256"><path fill="currentColor" d="m210.8 85.2l-56-56A3.6 3.6 0 0 0 152 28H56a12 12 0 0 0-12 12v176a12 12 0 0 0 12 12h144a12 12 0 0 0 12-12V88a3.6 3.6 0 0 0-1.2-2.8ZM204 216a4 4 0 0 1-4 4H56a4 4 0 0 1-4-4V40a4 4 0 0 1 4-4h94.3L204 89.7ZM76 120v72a4 4 0 0 0 4 4h96a4 4 0 0 0 4-4v-72a4 4 0 0 0-4-4H80a4 4 0 0 0-4 4Zm8 4h88v64h-24v-36a4 4 0 0 0-8 0v36h-24v-36a4 4 0 0 0-8 0v36H84Z"></path></svg>