<svg xmlns="http://www.w3.org/2000/svg" xmlns:xlink="http://www.w3.org/1999/xlink" aria-hidden="true" role="img" class="iconify iconify--ph" width="1em" height="1em" preserveAspectRatio="xMidYMid meet" viewBox="0 0 256 256"><path fill="currentColor" d="m212.2 83.8l-56-56A5.6 5.6 0 0 0 152 26H56a14 14 0 0 0-14 14v176a14 14 0 0 0 14 14h144a14 14 0 0 0 14-14V88a5.6 5.6 0 0 0-1.8-4.2ZM202 216a2 2 0 0 1-2 2H56a2 2 0 0 1-2-2V40a2 2 0 0 1 2-2h93.5L202 90.5ZM74 120v72a6 6 0 0 0 6 6h96a6 6 0 0 0 6-6v-72a6 6 0 0 0-6-6H80a6 6 0 0 0-6 6Zm12 6h84v60h-20v-34a6 6 0 0 0-12 0v34h-20v-34a6 6 0 0 0-12 0v34H86Z"></path></svg>