<svg xmlns="http://www.w3.org/2000/svg" xmlns:xlink="http://www.w3.org/1999/xlink" aria-hidden="true" role="img" class="iconify iconify--ph" width="1em" height="1em" preserveAspectRatio="xMidYMid meet" viewBox="0 0 256 256"><path fill="currentColor" d="m216.5 79.5l-56-56A12.3 12.3 0 0 0 152 20H56a20.1 20.1 0 0 0-20 20v176a20.1 20.1 0 0 0 20 20h144a20.1 20.1 0 0 0 20-20V88a12.3 12.3 0 0 0-3.5-8.5ZM196 212H60V44h87l49 49ZM76 124v64a12 12 0 0 0 12 12h80a12 12 0 0 0 12-12v-64a12 12 0 0 0-12-12H88a12 12 0 0 0-12 12Zm24 12h56v40h-16v-12a12 12 0 0 0-24 0v12h-16Z"></path></svg>