<svg xmlns="http://www.w3.org/2000/svg" xmlns:xlink="http://www.w3.org/1999/xlink" aria-hidden="true" role="img" class="iconify iconify--ph" width="1em" height="1em" preserveAspectRatio="xMidYMid meet" viewBox="0 0 256 256"><path fill="currentColor" d="m244.5 100l-56-64a5.9 5.9 0 0 0-4.5-2H72a5.9 5.9 0 0 0-4.5 2l-56 64a6.1 6.1 0 0 0 .1 8.1l112 120a6 6 0 0 0 8.8 0l112-120a6.1 6.1 0 0 0 .1-8.1ZM74.7 46h41.1L75.9 98H29.2Zm53.3 3.9L164.9 98H91.1ZM29.8 110h45.1l35.2 86Zm98.2 98.2L87.8 110h80.4Zm17.9-12.2l35.2-86h45.1Zm34.2-98l-39.9-52h41.1l45.5 52Z"></path></svg>