<svg xmlns="http://www.w3.org/2000/svg" xmlns:xlink="http://www.w3.org/1999/xlink" aria-hidden="true" role="img" class="iconify iconify--ph" width="1em" height="1em" preserveAspectRatio="xMidYMid meet" viewBox="0 0 256 256"><path fill="currentColor" d="m249 96.1l-56-64a11.8 11.8 0 0 0-9-4.1H72a11.8 11.8 0 0 0-9 4.1l-56 64a12 12 0 0 0 .2 16.1l112 120a12.1 12.1 0 0 0 17.6 0l112-120a12 12 0 0 0 .2-16.1ZM213.6 92H183l-30.7-40h26.3ZM70.9 116l21.2 52l-48.5-52Zm88.3 0L128 192.3L96.8 116Zm-56-24L128 59.7L152.8 92Zm81.9 24h27.3l-48.5 52ZM77.4 52h26.3L73 92H42.4Z"></path></svg>