<svg xmlns="http://www.w3.org/2000/svg" xmlns:xlink="http://www.w3.org/1999/xlink" aria-hidden="true" role="img" class="iconify iconify--ph" width="1em" height="1em" preserveAspectRatio="xMidYMid meet" viewBox="0 0 256 256"><path fill="currentColor" d="m243 101.4l-56-64a3.7 3.7 0 0 0-3-1.4H72a3.7 3.7 0 0 0-3 1.4l-56 64a3.9 3.9 0 0 0 .1 5.3l112 120a3.9 3.9 0 0 0 5.8 0l112-120a3.9 3.9 0 0 0 .1-5.3Zm-11.8-1.4h-52.1l-43-56h46.1Zm-155 8l39.8 97.3L25.2 108Zm94.9 0L128 213.4L84.9 108ZM87 100l41-53.4l41 53.4Zm92.8 8h51L140 205.3Zm-106-64h46.1l-43 56H24.8Z"></path></svg>