<svg xmlns="http://www.w3.org/2000/svg" xmlns:xlink="http://www.w3.org/1999/xlink" aria-hidden="true" role="img" class="iconify iconify--ph" width="1em" height="1em" preserveAspectRatio="xMidYMid meet" viewBox="0 0 256 256"><path fill="currentColor" d="m67.2 121.2l120.6-73.8a8 8 0 0 1 12.2 6.9v147.4a8 8 0 0 1-12.2 6.9L67.2 134.8a8 8 0 0 1 0-13.6Z" opacity=".2"></path><path fill="currentColor" d="M199.8 40.3a16 16 0 0 0-16.1.3L64 113.7V40a8 8 0 0 0-16 0v176a8 8 0 0 0 16 0v-73.7l119.7 73.1a16.2 16.2 0 0 0 8.3 2.3a15.4 15.4 0 0 0 7.8-2a15.9 15.9 0 0 0 8.2-14V54.3a15.9 15.9 0 0 0-8.2-14ZM192 201.7L71.3 128L192 54.3Z"></path></svg>