<svg xmlns="http://www.w3.org/2000/svg" xmlns:xlink="http://www.w3.org/1999/xlink" aria-hidden="true" role="img" class="iconify iconify--ph" width="1em" height="1em" preserveAspectRatio="xMidYMid meet" viewBox="0 0 256 256"><path fill="currentColor" d="M128 26a102 102 0 1 0 102 102A102.2 102.2 0 0 0 128 26Zm0 192a90 90 0 1 1 90-90a90.1 90.1 0 0 1-90 90Zm30.8-127.3a6.1 6.1 0 0 0-6.1.3L106 122.1V96a6 6 0 0 0-12 0v64a6 6 0 0 0 12 0v-26.1l46.7 31.1a5.9 5.9 0 0 0 6.1.3a6 6 0 0 0 3.2-5.3V96a6 6 0 0 0-3.2-5.3Zm-8.8 58.1L118.8 128l31.2-20.8Z"></path></svg>