<svg xmlns="http://www.w3.org/2000/svg" xmlns:xlink="http://www.w3.org/1999/xlink" aria-hidden="true" role="img" class="iconify iconify--ph" width="1em" height="1em" preserveAspectRatio="xMidYMid meet" viewBox="0 0 256 256"><path fill="currentColor" d="M128 28a100 100 0 1 0 100 100A100.2 100.2 0 0 0 128 28Zm0 192a92 92 0 1 1 92-92a92.1 92.1 0 0 1-92 92Zm29.9-127.5a4 4 0 0 0-4.1.2l-48 32a3.9 3.9 0 0 0 0 6.6l48 32a3.6 3.6 0 0 0 2.2.7a4.5 4.5 0 0 0 1.9-.5a3.9 3.9 0 0 0 2.1-3.5V96a3.9 3.9 0 0 0-2.1-3.5Zm-5.9 60L115.2 128l36.8-24.5ZM104 96v64a4 4 0 0 1-8 0V96a4 4 0 0 1 8 0Z"></path></svg>