<svg xmlns="http://www.w3.org/2000/svg" xmlns:xlink="http://www.w3.org/1999/xlink" aria-hidden="true" role="img" class="iconify iconify--ph" width="1em" height="1em" preserveAspectRatio="xMidYMid meet" viewBox="0 0 256 256"><path fill="currentColor" d="M197.9 43.8a11.9 11.9 0 0 0-12.2.2L65.1 117.8a11.7 11.7 0 0 0-5.1 6.3V40a4 4 0 0 0-8 0v176a4 4 0 0 0 8 0v-84.1a11.7 11.7 0 0 0 5.1 6.3L185.7 212a12.1 12.1 0 0 0 6.3 1.8a12.7 12.7 0 0 0 5.9-1.6a12 12 0 0 0 6.1-10.5V54.3a12 12 0 0 0-6.1-10.5ZM196 201.7a4 4 0 0 1-6.1 3.4L69.3 131.4a3.9 3.9 0 0 1 0-6.8l120.6-73.7a3.7 3.7 0 0 1 2.1-.7a4.3 4.3 0 0 1 2 .6a3.9 3.9 0 0 1 2 3.5Z"></path></svg>