<svg xmlns="http://www.w3.org/2000/svg" xmlns:xlink="http://www.w3.org/1999/xlink" aria-hidden="true" role="img" class="iconify iconify--ph" width="1em" height="1em" preserveAspectRatio="xMidYMid meet" viewBox="0 0 256 256"><path fill="currentColor" d="M198.8 42.1a13.5 13.5 0 0 0-14.1.2L64 116.1a9.5 9.5 0 0 0-2 1.5V40a6 6 0 0 0-12 0v176a6 6 0 0 0 12 0v-77.6a9.5 9.5 0 0 0 2 1.5l120.7 73.8a14 14 0 0 0 7.3 2.1a13 13 0 0 0 6.8-1.9a13.7 13.7 0 0 0 7.2-12.2V54.3a13.7 13.7 0 0 0-7.2-12.2ZM194 201.7a1.9 1.9 0 0 1-1 1.8a1.8 1.8 0 0 1-2-.1L70.3 129.7a1.9 1.9 0 0 1 0-3.4L191 52.6a1.3 1.3 0 0 1 1-.3l1 .2a1.9 1.9 0 0 1 1 1.8Z"></path></svg>