<svg xmlns="http://www.w3.org/2000/svg" xmlns:xlink="http://www.w3.org/1999/xlink" aria-hidden="true" role="img" class="iconify iconify--ph" width="1em" height="1em" preserveAspectRatio="xMidYMid meet" viewBox="0 0 256 256"><path fill="currentColor" d="M128 20a108 108 0 1 0 108 108A108.1 108.1 0 0 0 128 20Zm0 192a84 84 0 1 1 84-84a84.1 84.1 0 0 1-84 84Zm40-112v56a12 12 0 0 1-24 0v-19.1l-.6.6l-36 28a12.7 12.7 0 0 1-7.4 2.5a12.4 12.4 0 0 1-5.3-1.2A12 12 0 0 1 88 156v-56a12 12 0 0 1 6.7-10.8a12.2 12.2 0 0 1 12.7 1.3l36 28l.6.6V100a12 12 0 0 1 24 0Z"></path></svg>