<svg xmlns="http://www.w3.org/2000/svg" xmlns:xlink="http://www.w3.org/1999/xlink" aria-hidden="true" role="img" class="iconify iconify--ph" width="1em" height="1em" preserveAspectRatio="xMidYMid meet" viewBox="0 0 256 256"><path fill="currentColor" d="M128 24a92 92 0 0 0-48 170.5V216a8 8 0 0 0 8 8h80a8 8 0 0 0 8-8v-21.5A92 92 0 0 0 128 24ZM92 152a20 20 0 1 1 20-20a20.1 20.1 0 0 1-20 20Zm72 0a20 20 0 1 1 20-20a20.1 20.1 0 0 1-20 20Z" opacity=".2"></path><path fill="currentColor" d="M92 104a28 28 0 1 0 28 28a28.1 28.1 0 0 0-28-28Zm0 40a12 12 0 1 1 12-12a12 12 0 0 1-12 12Zm72-40a28 28 0 1 0 28 28a28.1 28.1 0 0 0-28-28Zm0 40a12 12 0 1 1 12-12a12 12 0 0 1-12 12ZM128 16a100 100 0 0 0-56 182.9V216a16 16 0 0 0 16 16h80a16 16 0 0 0 16-16v-17.1A100 100 0 0 0 128 16Zm43.8 171.7a7.8 7.8 0 0 0-3.8 6.8V216h-16v-24a8 8 0 0 0-16 0v24h-16v-24a8 8 0 0 0-16 0v24H88v-21.5a7.8 7.8 0 0 0-3.8-6.8a84 84 0 1 1 87.6 0Z"></path></svg>