<svg xmlns="http://www.w3.org/2000/svg" xmlns:xlink="http://www.w3.org/1999/xlink" aria-hidden="true" role="img" class="iconify iconify--ph" width="1em" height="1em" preserveAspectRatio="xMidYMid meet" viewBox="0 0 256 256"><path fill="currentColor" d="M124.1 16.1c-51.6 1.9-93.7 43.6-96 95.3A99.4 99.4 0 0 0 72 198.9V216a16 16 0 0 0 16 16h8a4 4 0 0 0 4-4v-23.7a8.2 8.2 0 0 1 7.5-8.3a8 8 0 0 1 8.5 8v24a4 4 0 0 0 4 4h16a4 4 0 0 0 4-4v-23.7a8.2 8.2 0 0 1 7.5-8.3a8 8 0 0 1 8.5 8v24a4 4 0 0 0 4 4h8a16 16 0 0 0 16-16v-17.1a100 100 0 0 0-59.9-182.8ZM92 152a20 20 0 1 1 20-20a20.1 20.1 0 0 1-20 20Zm72 0a20 20 0 1 1 20-20a20.1 20.1 0 0 1-20 20Z"></path></svg>