<svg xmlns="http://www.w3.org/2000/svg" xmlns:xlink="http://www.w3.org/1999/xlink" aria-hidden="true" role="img" class="iconify iconify--ph" width="1em" height="1em" preserveAspectRatio="xMidYMid meet" viewBox="0 0 256 256"><path fill="currentColor" d="M92 104a28 28 0 1 0 28 28a28.1 28.1 0 0 0-28-28Zm0 40a12 12 0 1 1 12-12a12 12 0 0 1-12 12Zm72-40a28 28 0 1 0 28 28a28.1 28.1 0 0 0-28-28Zm0 40a12 12 0 1 1 12-12a12 12 0 0 1-12 12ZM128 16a100 100 0 0 0-56 182.9V216a16 16 0 0 0 16 16h80a16 16 0 0 0 16-16v-17.1A100 100 0 0 0 128 16Zm43.8 171.7a7.8 7.8 0 0 0-3.8 6.8V216h-16v-24a8 8 0 0 0-16 0v24h-16v-24a8 8 0 0 0-16 0v24H88v-21.5a7.8 7.8 0 0 0-3.8-6.8a84 84 0 1 1 87.6 0Z"></path></svg>