<svg xmlns="http://www.w3.org/2000/svg" xmlns:xlink="http://www.w3.org/1999/xlink" aria-hidden="true" role="img" class="iconify iconify--ph" width="1em" height="1em" preserveAspectRatio="xMidYMid meet" viewBox="0 0 256 256"><path fill="currentColor" d="M116 132a24 24 0 1 1-24-24a24.1 24.1 0 0 1 24 24Zm48-24a24 24 0 1 0 24 24a24.1 24.1 0 0 0-24-24Zm68 8a103.8 103.8 0 0 1-32 75v25a20.1 20.1 0 0 1-20 20H76a20.1 20.1 0 0 1-20-20v-25a104.1 104.1 0 0 1-32-74.8C23.9 59.5 69.9 12.8 126.5 12A104 104 0 0 1 232 116Zm-24 0a79.9 79.9 0 0 0-80-80h-1.1c-43.6.6-79 36.6-78.9 80.2a79.7 79.7 0 0 0 27.8 60.4a11.9 11.9 0 0 1 4.2 9.1V212h16v-20a12 12 0 0 1 24 0v20h16v-20a12 12 0 0 1 24 0v20h16v-26.3a11.5 11.5 0 0 1 4.2-9A80.1 80.1 0 0 0 208 116Z"></path></svg>