<svg xmlns="http://www.w3.org/2000/svg" xmlns:xlink="http://www.w3.org/1999/xlink" aria-hidden="true" role="img" class="iconify iconify--ph" width="1em" height="1em" preserveAspectRatio="xMidYMid meet" viewBox="0 0 256 256"><path fill="currentColor" d="M92 108a24 24 0 1 0 24 24a24.1 24.1 0 0 0-24-24Zm0 40a16 16 0 1 1 16-16a16 16 0 0 1-16 16Zm72-40a24 24 0 1 0 24 24a24.1 24.1 0 0 0-24-24Zm0 40a16 16 0 1 1 16-16a16 16 0 0 1-16 16ZM128 20a96 96 0 0 0-52 176.7V216a12 12 0 0 0 12 12h80a12 12 0 0 0 12-12v-19.3A96 96 0 0 0 128 20Zm45.9 171.1a3.9 3.9 0 0 0-1.9 3.4V216a4 4 0 0 1-4 4h-20v-28a4 4 0 0 0-8 0v28h-24v-28a4 4 0 0 0-8 0v28H88a4 4 0 0 1-4-4v-21.5a3.9 3.9 0 0 0-1.9-3.4a88 88 0 1 1 91.8 0Z"></path></svg>