<svg xmlns="http://www.w3.org/2000/svg" xmlns:xlink="http://www.w3.org/1999/xlink" aria-hidden="true" role="img" class="iconify iconify--ph" width="1em" height="1em" preserveAspectRatio="xMidYMid meet" viewBox="0 0 256 256"><path fill="currentColor" d="M128 152v-24h72a24 24 0 0 1 24 24a24 24 0 0 1-24 24h-48a24 24 0 0 1-24-24Z" opacity=".2"></path><path fill="currentColor" d="M128 176h24a23.9 23.9 0 0 1 24 24a23.9 23.9 0 0 1-24 24a23.9 23.9 0 0 1-24-24Zm0-72v24H56a24 24 0 0 1-24-24a24 24 0 0 1 24-24h48a24 24 0 0 1 24 24Z" opacity=".2"></path><path fill="currentColor" d="M128 80h-24a23.9 23.9 0 0 1-24-24a23.9 23.9 0 0 1 24-24a23.9 23.9 0 0 1 24 24Z" opacity=".2"></path><path fill="currentColor" d="M221.1 128A32 32 0 0 0 200 72a32.2 32.2 0 0 0-16 4.3V56a32 32 0 0 0-56-21.1A32 32 0 0 0 72 56a32.2 32.2 0 0 0 4.3 16H56a32 32 0 0 0-21.1 56A32 32 0 0 0 56 184a32.2 32.2 0 0 0 16-4.3V200a32 32 0 0 0 56 21.1a32 32 0 0 0 56-21.1a32.2 32.2 0 0 0-4.3-16H200a32 32 0 0 0 21.1-56ZM200 88a16 16 0 0 1 0 32h-16v-16a16 16 0 0 1 16-16Zm-48-48a16 16 0 0 1 16 16v48a16 16 0 0 1-16 16h-16V56a16 16 0 0 1 16-16ZM88 56a16 16 0 0 1 32 0v16h-16a16 16 0 0 1-16-16Zm-48 48a16 16 0 0 1 16-16h48a16 16 0 0 1 16 16v16H56a16 16 0 0 1-16-16Zm16 64a16 16 0 0 1 0-32h16v16a16 16 0 0 1-16 16Zm48 48a16 16 0 0 1-16-16v-48a16 16 0 0 1 16-16h16v64a16 16 0 0 1-16 16Zm64-16a16 16 0 0 1-32 0v-16h16a16 16 0 0 1 16 16Zm32-32h-48a16 16 0 0 1-16-16v-16h64a16 16 0 0 1 0 32Z"></path></svg>