<svg xmlns="http://www.w3.org/2000/svg" xmlns:xlink="http://www.w3.org/1999/xlink" aria-hidden="true" role="img" class="iconify iconify--ph" width="1em" height="1em" preserveAspectRatio="xMidYMid meet" viewBox="0 0 256 256"><path fill="currentColor" d="M214.4 128A28 28 0 1 0 180 84.4V56a28 28 0 0 0-52-14.4A28 28 0 1 0 84.4 76H56a28 28 0 0 0-14.4 52A28 28 0 1 0 76 171.6V200a28 28 0 0 0 52 14.4a28 28 0 1 0 43.6-34.4H200a28 28 0 0 0 14.4-52ZM200 84a20 20 0 0 1 0 40h-20v-20a20.1 20.1 0 0 1 20-20Zm-28.4 40l.4-.4v.4ZM152 36a20.1 20.1 0 0 1 20 20v48a20.1 20.1 0 0 1-20 20h-20V56a20.1 20.1 0 0 1 20-20Zm-20 135.6l.4.4h-.4Zm-8-87.2l-.4-.4h.4ZM84 56a20 20 0 0 1 40 0v20h-20a20.1 20.1 0 0 1-20-20Zm-48 48a20.1 20.1 0 0 1 20-20h48a20.1 20.1 0 0 1 20 20v20H56a20.1 20.1 0 0 1-20-20Zm48.4 28l-.4.4v-.4ZM56 172a20 20 0 0 1 0-40h20v20a20.1 20.1 0 0 1-20 20Zm48 48a20.1 20.1 0 0 1-20-20v-48a20.1 20.1 0 0 1 20-20h20v68a20.1 20.1 0 0 1-20 20Zm68-20a20 20 0 0 1-40 0v-20h20a20.1 20.1 0 0 1 20 20Zm28-28h-48a20.1 20.1 0 0 1-20-20v-20h68a20 20 0 0 1 0 40Z"></path></svg>