<svg xmlns="http://www.w3.org/2000/svg" xmlns:xlink="http://www.w3.org/1999/xlink" aria-hidden="true" role="img" class="iconify iconify--ph" width="1em" height="1em" preserveAspectRatio="xMidYMid meet" viewBox="0 0 256 256"><path fill="currentColor" d="M152 88a24 24 0 0 1-16 22.6V216a8 8 0 0 1-16 0V110.6a24 24 0 0 1 0-45.2V40a8 8 0 0 1 16 0v25.4A24 24 0 0 1 152 88Zm72 80a24 24 0 0 0-16-22.6V40a8 8 0 0 0-16 0v105.4a24 24 0 0 0 0 45.2V216a8 8 0 0 0 16 0v-25.4a24 24 0 0 0 16-22.6ZM64 113.4V40a8 8 0 0 0-16 0v73.4a24 24 0 0 0 0 45.2V216a8 8 0 0 0 16 0v-57.4a24 24 0 0 0 0-45.2Z"></path></svg>