<svg xmlns="http://www.w3.org/2000/svg" xmlns:xlink="http://www.w3.org/1999/xlink" aria-hidden="true" role="img" class="iconify iconify--ph" width="1em" height="1em" preserveAspectRatio="xMidYMid meet" viewBox="0 0 256 256"><circle cx="56" cy="136" r="20" fill="currentColor" opacity=".2"></circle><path fill="currentColor" d="M136 61.2V40a8 8 0 0 0-16 0v21.2a28 28 0 0 0 0 53.6V216a8 8 0 0 0 16 0V114.8a28 28 0 0 0 0-53.6Zm-8 38.8a12 12 0 1 1 12-12a12 12 0 0 1-12 12Zm100 68a28 28 0 0 0-20-26.8V40a8 8 0 0 0-16 0v101.2a28 28 0 0 0 0 53.6V216a8 8 0 0 0 16 0v-21.2a28 28 0 0 0 20-26.8Zm-28 12a12 12 0 1 1 12-12a12 12 0 0 1-12 12ZM64 109.2V40a8 8 0 0 0-16 0v69.2a28 28 0 0 0 0 53.6V216a8 8 0 0 0 16 0v-53.2a28 28 0 0 0 0-53.6ZM56 148a12 12 0 1 1 12-12a12 12 0 0 1-12 12Z"></path></svg>