<svg xmlns="http://www.w3.org/2000/svg" xmlns:xlink="http://www.w3.org/1999/xlink" aria-hidden="true" role="img" class="iconify iconify--ph" width="1em" height="1em" preserveAspectRatio="xMidYMid meet" viewBox="0 0 256 256"><path fill="currentColor" d="M84 88H40a4 4 0 0 1 0-8h44a4 4 0 0 1 0 8Zm136 84a4 4 0 0 1-4 4h-24.3a24 24 0 0 1-47.4 0H40a4 4 0 0 1 0-8h104.3a24 24 0 0 1 47.4 0H216a4 4 0 0 1 4 4Zm-36 0a16 16 0 1 0-16 16a16 16 0 0 0 16-16ZM80 84a24 24 0 0 1 47.7-4H216a4 4 0 0 1 0 8h-88.3A24 24 0 0 1 80 84Zm8 0a16 16 0 1 0 16-16a16 16 0 0 0-16 16Z"></path></svg>