<svg xmlns="http://www.w3.org/2000/svg" xmlns:xlink="http://www.w3.org/1999/xlink" aria-hidden="true" role="img" class="iconify iconify--ph" width="1em" height="1em" preserveAspectRatio="xMidYMid meet" viewBox="0 0 256 256"><path fill="currentColor" d="M216 166h-22.7a26 26 0 0 0-50.6 0H40a6 6 0 0 0 0 12h102.7a26 26 0 0 0 50.6 0H216a6 6 0 0 0 0-12Zm-48 20a14 14 0 1 1 14-14a14 14 0 0 1-14 14ZM40 90h38.7a26 26 0 0 0 50.6 0H216a6 6 0 0 0 0-12h-86.7a26 26 0 0 0-50.6 0H40a6 6 0 0 0 0 12Zm64-20a14 14 0 1 1-14 14a14 14 0 0 1 14-14Z"></path></svg>