<svg xmlns="http://www.w3.org/2000/svg" xmlns:xlink="http://www.w3.org/1999/xlink" aria-hidden="true" role="img" class="iconify iconify--ph" width="1em" height="1em" preserveAspectRatio="xMidYMid meet" viewBox="0 0 256 256"><path fill="currentColor" d="M134 62.7V40a6 6 0 0 0-12 0v22.7a26 26 0 0 0 0 50.6V216a6 6 0 0 0 12 0V113.3a26 26 0 0 0 0-50.6Zm-6 39.3a14 14 0 1 1 14-14a14 14 0 0 1-14 14Zm98 66a26 26 0 0 0-20-25.3V40a6 6 0 0 0-12 0v102.7a26 26 0 0 0 0 50.6V216a6 6 0 0 0 12 0v-22.7a26 26 0 0 0 20-25.3Zm-26 14a14 14 0 1 1 14-14a14 14 0 0 1-14 14ZM62 110.7V40a6 6 0 0 0-12 0v70.7a26 26 0 0 0 0 50.6V216a6 6 0 0 0 6 6a6 6 0 0 0 6-6v-54.7a26 26 0 0 0 0-50.6ZM56 150a14 14 0 1 1 14-14a14 14 0 0 1-14 14Z"></path></svg>