<svg xmlns="http://www.w3.org/2000/svg" xmlns:xlink="http://www.w3.org/1999/xlink" aria-hidden="true" role="img" class="iconify iconify--ph" width="1em" height="1em" preserveAspectRatio="xMidYMid meet" viewBox="0 0 256 256"><path fill="currentColor" d="M216 164h-21.2a28 28 0 0 0-53.6 0H40a8 8 0 0 0 0 16h101.2a28 28 0 0 0 53.6 0H216a8 8 0 0 0 0-16Zm-48 20a12 12 0 1 1 12-12a12 12 0 0 1-12 12ZM40 92h37.2a28 28 0 0 0 53.6 0H216a8 8 0 0 0 0-16h-85.2a28 28 0 0 0-53.6 0H40a8 8 0 0 0 0 16Zm64-20a12 12 0 1 1-12 12a12 12 0 0 1 12-12Z"></path></svg>