<svg xmlns="http://www.w3.org/2000/svg" xmlns:xlink="http://www.w3.org/1999/xlink" aria-hidden="true" role="img" class="iconify iconify--ph" width="1em" height="1em" preserveAspectRatio="xMidYMid meet" viewBox="0 0 256 256"><path fill="currentColor" d="M132 64.3V40a4 4 0 0 0-8 0v24.3a24 24 0 0 0 0 47.4V216a4 4 0 0 0 8 0V111.7a24 24 0 0 0 0-47.4Zm-4 39.7a16 16 0 1 1 16-16a16 16 0 0 1-16 16Zm96 64a24.2 24.2 0 0 0-20-23.7V40a4 4 0 0 0-8 0v104.3a24 24 0 0 0 0 47.4V216a4 4 0 0 0 8 0v-24.3a24.1 24.1 0 0 0 20-23.7Zm-24 16a16 16 0 1 1 16-16a16 16 0 0 1-16 16ZM60 112.3V40a4 4 0 0 0-8 0v72.3a24 24 0 0 0 0 47.4V216a4 4 0 0 0 8 0v-56.3a24 24 0 0 0 0-47.4ZM56 152a16 16 0 1 1 16-16a16 16 0 0 1-16 16Z"></path></svg>