<svg xmlns="http://www.w3.org/2000/svg" xmlns:xlink="http://www.w3.org/1999/xlink" aria-hidden="true" role="img" class="iconify iconify--ph" width="1em" height="1em" preserveAspectRatio="xMidYMid meet" viewBox="0 0 256 256"><path fill="currentColor" d="M128 28a100 100 0 1 0 100 100A100.2 100.2 0 0 0 128 28Zm0 192a92 92 0 1 1 92-92a92.1 92.1 0 0 1-92 92Zm58.8-121.2L173.7 112l13.1 13.2a3.9 3.9 0 0 1 0 5.6a3.9 3.9 0 0 1-5.6 0L168 117.7l-13.2 13.1a3.9 3.9 0 0 1-5.6 0a3.9 3.9 0 0 1 0-5.6l13.1-13.2l-13.1-13.2a4 4 0 0 1 5.6-5.6l13.2 13.1l13.2-13.1a4 4 0 1 1 5.6 5.6Zm-80 0L93.7 112l13.1 13.2a3.9 3.9 0 0 1 0 5.6a3.9 3.9 0 0 1-5.6 0L88 117.7l-13.2 13.1a3.9 3.9 0 0 1-5.6 0a3.9 3.9 0 0 1 0-5.6L82.3 112L69.2 98.8a4 4 0 0 1 5.6-5.6L88 106.3l13.2-13.1a4 4 0 0 1 5.6 5.6ZM136 180a8 8 0 1 1-8-8a8 8 0 0 1 8 8Z"></path></svg>