<svg xmlns="http://www.w3.org/2000/svg" xmlns:xlink="http://www.w3.org/1999/xlink" aria-hidden="true" role="img" class="iconify iconify--ph" width="1em" height="1em" preserveAspectRatio="xMidYMid meet" viewBox="0 0 256 256"><circle cx="128" cy="128" r="96" fill="currentColor" opacity=".2"></circle><circle cx="92" cy="108" r="12" fill="currentColor"></circle><circle cx="164" cy="108" r="12" fill="currentColor"></circle><path fill="currentColor" d="M128 24a104 104 0 1 0 104 104A104.2 104.2 0 0 0 128 24Zm0 192a88 88 0 1 1 88-88a88.1 88.1 0 0 1-88 88Z"></path><path fill="currentColor" d="M168 152H88a8 8 0 0 0 0 16h80a8 8 0 0 0 0-16Z"></path></svg>