<svg xmlns="http://www.w3.org/2000/svg" xmlns:xlink="http://www.w3.org/1999/xlink" aria-hidden="true" role="img" class="iconify iconify--ph" width="1em" height="1em" preserveAspectRatio="xMidYMid meet" viewBox="0 0 256 256"><path fill="currentColor" d="M128 24a104 104 0 0 0 0 208a102.2 102.2 0 0 0 30.6-4.6a6.7 6.7 0 0 0 3.3-2l63.5-63.5a7.2 7.2 0 0 0 2-3.3A102.2 102.2 0 0 0 232 128A104.2 104.2 0 0 0 128 24Zm36 72a12 12 0 1 1-12 12a12 12 0 0 1 12-12Zm-72 0a12 12 0 1 1-12 12a12 12 0 0 1 12-12Zm84.5 60a56 56 0 0 1-97 0a8 8 0 1 1 13.8-8a40.1 40.1 0 0 0 69.4 0a8 8 0 0 1 13.8 8Z"></path></svg>