<svg xmlns="http://www.w3.org/2000/svg" xmlns:xlink="http://www.w3.org/1999/xlink" aria-hidden="true" role="img" class="iconify iconify--ph" width="1em" height="1em" preserveAspectRatio="xMidYMid meet" viewBox="0 0 256 256"><path fill="currentColor" d="M128 26a102 102 0 1 0 102 102A102.2 102.2 0 0 0 128 26Zm0 192a90 90 0 1 1 90-90a90.1 90.1 0 0 1-90 90ZM82 108a10 10 0 1 1 10 10a10 10 0 0 1-10-10Zm100 0a6 6 0 0 1-6 6h-24a6 6 0 0 1 0-12h24a6 6 0 0 1 6 6Zm-7.2 47a54.1 54.1 0 0 1-93.6 0a6 6 0 0 1 2.2-8.2a5.9 5.9 0 0 1 8.2 2.2a42 42 0 0 0 72.8 0a5.9 5.9 0 0 1 8.2-2.2a6 6 0 0 1 2.2 8.2Z"></path></svg>