<svg xmlns="http://www.w3.org/2000/svg" xmlns:xlink="http://www.w3.org/1999/xlink" aria-hidden="true" role="img" class="iconify iconify--ph" width="1em" height="1em" preserveAspectRatio="xMidYMid meet" viewBox="0 0 256 256"><path fill="currentColor" d="M128 20a108 108 0 1 0 31.7 211.3a12.2 12.2 0 0 0 5-3l63.6-63.6a12.2 12.2 0 0 0 3-5A108.2 108.2 0 0 0 128 20Zm81.1 129.9l-59.2 59.2a84 84 0 1 1 59.2-59.2ZM76 108a16 16 0 1 1 16 16a16 16 0 0 1-16-16Zm72 0a16 16 0 1 1 16 16a16 16 0 0 1-16-16Zm32 50a60.1 60.1 0 0 1-104 0a12 12 0 0 1 20.8-12a36 36 0 0 0 62.4 0a12 12 0 1 1 20.8 12Z"></path></svg>