<svg xmlns="http://www.w3.org/2000/svg" xmlns:xlink="http://www.w3.org/1999/xlink" aria-hidden="true" role="img" class="iconify iconify--ph" width="1em" height="1em" preserveAspectRatio="xMidYMid meet" viewBox="0 0 256 256"><path fill="currentColor" d="M128 28a100 100 0 1 0 100 100A100.2 100.2 0 0 0 128 28Zm0 192a92 92 0 1 1 92-92a92.1 92.1 0 0 1-92 92Zm51.1-50.5a4 4 0 0 1-.6 5.6a3.8 3.8 0 0 1-2.5.9a3.9 3.9 0 0 1-3.1-1.5L160 158.4l-12.9 16.1a4 4 0 0 1-6.2 0L128 158.4l-12.9 16.1a4 4 0 0 1-6.2 0L96 158.4l-12.9 16.1a4 4 0 0 1-6.2-5l16-20a4 4 0 0 1 6.2 0l12.9 16.1l12.9-16.1a4 4 0 0 1 6.2 0l12.9 16.1l12.9-16.1a4 4 0 0 1 6.2 0ZM84 108a8 8 0 1 1 8 8a8 8 0 0 1-8-8Zm72 0a8 8 0 1 1 8 8a8 8 0 0 1-8-8Z"></path></svg>