<svg xmlns="http://www.w3.org/2000/svg" xmlns:xlink="http://www.w3.org/1999/xlink" aria-hidden="true" role="img" class="iconify iconify--ph" width="1em" height="1em" preserveAspectRatio="xMidYMid meet" viewBox="0 0 256 256"><circle cx="128" cy="128" r="96" fill="currentColor" opacity=".2"></circle><path fill="currentColor" d="M128 24a104 104 0 1 0 104 104A104.2 104.2 0 0 0 128 24Zm0 192a88 88 0 1 1 88-88a88.1 88.1 0 0 1-88 88Z"></path><circle cx="128" cy="180" r="12" fill="currentColor"></circle><path fill="currentColor" d="m179.3 112l10.4-10.3a8.1 8.1 0 0 0-11.4-11.4L168 100.7l-10.3-10.4a8.1 8.1 0 0 0-11.4 11.4l10.4 10.3l-10.4 10.3a8.1 8.1 0 0 0 0 11.4a8.2 8.2 0 0 0 11.4 0l10.3-10.4l10.3 10.4a8.2 8.2 0 0 0 11.4 0a8.1 8.1 0 0 0 0-11.4Zm-69.6-21.7a8.1 8.1 0 0 0-11.4 0L88 100.7L77.7 90.3a8.1 8.1 0 0 0-11.4 11.4L76.7 112l-10.4 10.3a8.1 8.1 0 0 0 0 11.4a8.2 8.2 0 0 0 11.4 0L88 123.3l10.3 10.4a8.2 8.2 0 0 0 11.4 0a8.1 8.1 0 0 0 0-11.4L99.3 112l10.4-10.3a8.1 8.1 0 0 0 0-11.4Z"></path></svg>