<svg xmlns="http://www.w3.org/2000/svg" xmlns:xlink="http://www.w3.org/1999/xlink" aria-hidden="true" role="img" class="iconify iconify--ph" width="1em" height="1em" preserveAspectRatio="xMidYMid meet" viewBox="0 0 256 256"><path fill="currentColor" d="M128 20a108 108 0 1 0 108 108A108.1 108.1 0 0 0 128 20Zm0 192a84 84 0 1 1 84-84a84.1 84.1 0 0 1-84 84ZM76 108a16 16 0 1 1 16 16a16 16 0 0 1-16-16Zm72 0a16 16 0 1 1 16 16a16 16 0 0 1-16-16Zm31.6 49.3a12 12 0 0 1-18.8 15l-.8-1.1l-6.6 8.3a12.1 12.1 0 0 1-18.8 0l-6.6-8.3l-6.6 8.3a12.1 12.1 0 0 1-18.8 0l-6.6-8.3l-.8 1.1a12 12 0 0 1-18.8-15l10.2-12.8a12.1 12.1 0 0 1 18.8 0l6.6 8.3l6.6-8.3a12.1 12.1 0 0 1 18.8 0l6.6 8.3l6.6-8.3a12.1 12.1 0 0 1 18.8 0Z"></path></svg>