<svg xmlns="http://www.w3.org/2000/svg" xmlns:xlink="http://www.w3.org/1999/xlink" aria-hidden="true" role="img" class="iconify iconify--ph" width="1em" height="1em" preserveAspectRatio="xMidYMid meet" viewBox="0 0 256 256"><path fill="currentColor" d="M128 20a108 108 0 1 0 108 108A108.1 108.1 0 0 0 128 20Zm0 192a84 84 0 1 1 84-84a84.1 84.1 0 0 1-84 84Zm60.5-92.5a12 12 0 0 1 0 17a12.1 12.1 0 0 1-17 0L164 129l-7.5 7.5a12.1 12.1 0 0 1-17 0a12 12 0 0 1 0-17l7.5-7.5l-7.5-7.5a12 12 0 0 1 17-17L164 95l7.5-7.5a12 12 0 0 1 17 17L181 112Zm-72 17a12.1 12.1 0 0 1-17 0L92 129l-7.5 7.5a12.1 12.1 0 0 1-17 0a12 12 0 0 1 0-17L75 112l-7.5-7.5a12 12 0 0 1 17-17L92 95l7.5-7.5a12 12 0 0 1 17 17L109 112l7.5 7.5a12 12 0 0 1 0 17ZM144 180a16 16 0 1 1-16-16a16 16 0 0 1 16 16Z"></path></svg>