<svg xmlns="http://www.w3.org/2000/svg" xmlns:xlink="http://www.w3.org/1999/xlink" aria-hidden="true" role="img" class="iconify iconify--ph" width="1em" height="1em" preserveAspectRatio="xMidYMid meet" viewBox="0 0 256 256"><path fill="currentColor" d="M128 26a102 102 0 1 0 102 102A102.2 102.2 0 0 0 128 26Zm0 192a90 90 0 1 1 90-90a90.1 90.1 0 0 1-90 90Zm60.2-117.8L176.5 112l11.7 11.8a5.9 5.9 0 1 1-8.4 8.4L168 120.5l-11.8 11.7a5.9 5.9 0 1 1-8.4-8.4l11.7-11.8l-11.7-11.8a5.9 5.9 0 0 1 8.4-8.4l11.8 11.7l11.8-11.7a5.9 5.9 0 0 1 8.4 8.4Zm-80 0L96.5 112l11.7 11.8a5.9 5.9 0 1 1-8.4 8.4L88 120.5l-11.8 11.7a5.9 5.9 0 1 1-8.4-8.4L79.5 112l-11.7-11.8a5.9 5.9 0 0 1 8.4-8.4L88 103.5l11.8-11.7a5.9 5.9 0 0 1 8.4 8.4ZM138 180a10 10 0 1 1-10-10a10 10 0 0 1 10 10Z"></path></svg>