<svg xmlns="http://www.w3.org/2000/svg" xmlns:xlink="http://www.w3.org/1999/xlink" aria-hidden="true" role="img" class="iconify iconify--ph" width="1em" height="1em" preserveAspectRatio="xMidYMid meet" viewBox="0 0 256 256"><path fill="currentColor" d="M76 108a16 16 0 1 1 16 16a16 16 0 0 1-16-16Zm88-16a16 16 0 1 0 16 16a16 16 0 0 0-16-16Zm72 36A108 108 0 1 1 128 20a108.1 108.1 0 0 1 108 108Zm-24 0a84 84 0 1 0-84 84a84.1 84.1 0 0 0 84-84Zm-44 20H88a12 12 0 0 0 0 24h80a12 12 0 0 0 0-24Z"></path></svg>