<svg xmlns="http://www.w3.org/2000/svg" xmlns:xlink="http://www.w3.org/1999/xlink" aria-hidden="true" role="img" class="iconify iconify--ph" width="1em" height="1em" preserveAspectRatio="xMidYMid meet" viewBox="0 0 256 256"><path fill="currentColor" d="M80 108a12 12 0 1 1 12 12a12 12 0 0 1-12-12Zm84 12a12 12 0 1 0-12-12a12 12 0 0 0 12 12Zm68 8A104 104 0 1 1 128 24a104.2 104.2 0 0 1 104 104Zm-16 0a88 88 0 1 0-88 88a88.1 88.1 0 0 0 88-88Zm-49.8 19a7.9 7.9 0 0 0-12.4 0l-9.8 12.2l-9.8-12.2a7.9 7.9 0 0 0-12.4 0l-9.8 12.2l-9.8-12.2a7.9 7.9 0 0 0-12.4 0l-16 20a8 8 0 0 0 12.4 10l9.8-12.2l9.8 12.2a7.9 7.9 0 0 0 12.4 0l9.8-12.2l9.8 12.2a7.9 7.9 0 0 0 12.4 0l9.8-12.2l9.8 12.2a7.8 7.8 0 0 0 6.2 3a8 8 0 0 0 6.2-13Z"></path></svg>