<svg xmlns="http://www.w3.org/2000/svg" xmlns:xlink="http://www.w3.org/1999/xlink" aria-hidden="true" role="img" class="iconify iconify--ph" width="1em" height="1em" preserveAspectRatio="xMidYMid meet" viewBox="0 0 256 256"><path fill="currentColor" d="M128 20a108 108 0 1 0 108 108A108.1 108.1 0 0 0 128 20Zm0 192a84 84 0 1 1 84-84a84.1 84.1 0 0 1-84 84ZM76 108a16 16 0 1 1 16 16a16 16 0 0 1-16-16Zm104 0a16 16 0 1 1-16-16a16 16 0 0 1 16 16Zm-5.4 54.2a12 12 0 1 1-18.6 15.1a36.1 36.1 0 0 0-56 0a12 12 0 1 1-18.6-15.1a60 60 0 0 1 93.2 0Z"></path></svg>