<svg xmlns="http://www.w3.org/2000/svg" xmlns:xlink="http://www.w3.org/1999/xlink" aria-hidden="true" role="img" class="iconify iconify--ph" width="1em" height="1em" preserveAspectRatio="xMidYMid meet" viewBox="0 0 256 256"><path fill="currentColor" d="M128 26a102 102 0 1 0 102 102A102.2 102.2 0 0 0 128 26Zm0 192a90 90 0 1 1 90-90a90.1 90.1 0 0 1-90 90Zm52.7-49.7a5.9 5.9 0 0 1-1 8.4a5.8 5.8 0 0 1-3.7 1.3a6 6 0 0 1-4.7-2.3L160 161.6l-11.3 14.1a6 6 0 0 1-9.4 0L128 161.6l-11.3 14.1a6 6 0 0 1-9.4 0L96 161.6l-11.3 14.1a6 6 0 1 1-9.4-7.4l16-20a6 6 0 0 1 9.4 0l11.3 14.1l11.3-14.1a6 6 0 0 1 9.4 0l11.3 14.1l11.3-14.1a6 6 0 0 1 9.4 0ZM82 108a10 10 0 1 1 10 10a10 10 0 0 1-10-10Zm72 0a10 10 0 1 1 10 10a10 10 0 0 1-10-10Z"></path></svg>