<svg xmlns="http://www.w3.org/2000/svg" xmlns:xlink="http://www.w3.org/1999/xlink" aria-hidden="true" role="img" class="iconify iconify--ph" width="1em" height="1em" preserveAspectRatio="xMidYMid meet" viewBox="0 0 256 256"><path fill="currentColor" d="M128 28a100 100 0 1 0 100 100A100.2 100.2 0 0 0 128 28Zm0 192a92 92 0 1 1 92-92a92.1 92.1 0 0 1-92 92ZM84 108a8 8 0 1 1 8 8a8 8 0 0 1-8-8Zm96 0a4 4 0 0 1-4 4h-24a4 4 0 0 1 0-8h24a4 4 0 0 1 4 4Zm-7 46a51.9 51.9 0 0 1-90 0a4 4 0 1 1 6.9-4a44 44 0 0 0 76.2 0a4 4 0 1 1 6.9 4Z"></path></svg>