<svg xmlns="http://www.w3.org/2000/svg" xmlns:xlink="http://www.w3.org/1999/xlink" aria-hidden="true" role="img" class="iconify iconify--ph" width="1em" height="1em" preserveAspectRatio="xMidYMid meet" viewBox="0 0 256 256"><path fill="currentColor" d="M128 24a104 104 0 1 0 104 104A104.2 104.2 0 0 0 128 24Zm36 72a12 12 0 1 1-12 12a12 12 0 0 1 12-12Zm-72 0a12 12 0 1 1-12 12a12 12 0 0 1 12-12Zm89 82.2a7.9 7.9 0 0 1-5 1.8a7.8 7.8 0 0 1-6.2-3l-9.8-12.2l-9.8 12.2a7.9 7.9 0 0 1-12.4 0l-9.8-12.2l-9.8 12.2a7.9 7.9 0 0 1-12.4 0L96 164.8L86.2 177a8 8 0 0 1-12.4-10l16-20a7.9 7.9 0 0 1 12.4 0l9.8 12.2l9.8-12.2a7.9 7.9 0 0 1 12.4 0l9.8 12.2l9.8-12.2a7.9 7.9 0 0 1 12.4 0l16 20a7.9 7.9 0 0 1-1.2 11.2Z"></path></svg>