<svg xmlns="http://www.w3.org/2000/svg" xmlns:xlink="http://www.w3.org/1999/xlink" aria-hidden="true" role="img" class="iconify iconify--ph" width="1em" height="1em" preserveAspectRatio="xMidYMid meet" viewBox="0 0 256 256"><path fill="currentColor" d="M231.8 134.8a4.8 4.8 0 0 0 0-1.2c.1-1.9.2-3.7.2-5.6a103.2 103.2 0 0 0-23-65.1a5.5 5.5 0 0 0-1.4-1.7a103.9 103.9 0 0 0-41.1-29.8l-1.1-.4a103.4 103.4 0 0 0-74.8 0l-1.1.4a103.9 103.9 0 0 0-41.1 29.8a5.5 5.5 0 0 0-1.4 1.7A103.2 103.2 0 0 0 24 128c0 1.9.1 3.7.2 5.6a4.8 4.8 0 0 0 0 1.2a104.2 104.2 0 0 0 15.7 48.4a9.9 9.9 0 0 0 1.1 1.7a104.3 104.3 0 0 0 60.3 43.6h.3a104.2 104.2 0 0 0 52.8 0h.3a104.3 104.3 0 0 0 60.3-43.6a9.9 9.9 0 0 0 1.1-1.7a104.2 104.2 0 0 0 15.7-48.4Zm-191.3 2.7l28-20.4l13.2 4.3l12.7 39.2l-8.1 11.2H51.7a86.2 86.2 0 0 1-11.2-34.3Zm10.7-52.4l6.5 20.1l-17.1 12.4a87.6 87.6 0 0 1 10.6-32.5Zm57.9 68.9l-11.6-35.9L128 95.9l30.5 22.2l-11.6 35.9Zm60.6 17.8l-8.1-11.2l12.7-39.2l13.2-4.3l28 20.4a86.2 86.2 0 0 1-11.2 34.3Zm45.7-54.2l-17.1-12.4l6.5-20.1a87.6 87.6 0 0 1 10.6 32.5ZM193.2 69l-10.7 32.9l-13.2 4.3L136 81.9V68.1l28-20.4A87 87 0 0 1 193.2 69Zm-48.1-27.3L128 54.1l-17.1-12.4a86.9 86.9 0 0 1 34.2 0Zm-53.1 6l28 20.4v13.8l-33.3 24.3l-13.2-4.3L62.8 69A87 87 0 0 1 92 47.7ZM63.5 187.8h21.1l6.5 20.1a89.2 89.2 0 0 1-27.6-20.1Zm46.5 26.3l-10.7-32.9l8.1-11.2h41.2l8.1 11.2l-10.7 32.9a86.2 86.2 0 0 1-36 0Zm54.9-6.2l6.5-20.1h21.1a89.2 89.2 0 0 1-27.6 20.1Z"></path></svg>