<svg xmlns="http://www.w3.org/2000/svg" xmlns:xlink="http://www.w3.org/1999/xlink" aria-hidden="true" role="img" class="iconify iconify--ph" width="1em" height="1em" preserveAspectRatio="xMidYMid meet" viewBox="0 0 256 256"><path fill="currentColor" d="M236 128a108 108 0 1 0-172.2 86.8l.7.6l.9.5a107.5 107.5 0 0 0 125.2 0l.9-.5l.7-.6A107.8 107.8 0 0 0 236 128Zm-49.5 60.2L173 169.5l15.8-48.7l22-7.1a84.1 84.1 0 0 1-24.3 74.5ZM105 159.7l-14.2-43.8l37.2-27l37.2 27l-14.2 43.8Zm98.3-68.8L181.4 98L140 67.9v-23a84.2 84.2 0 0 1 63.3 46Zm-87.3-46v23L74.6 98l-21.9-7.1a84.2 84.2 0 0 1 63.3-46ZM44 128a84.5 84.5 0 0 1 1.2-14.3l22 7.1L83 169.5l-13.5 18.7A83.8 83.8 0 0 1 44 128Zm44.9 74.3l13.5-18.6h51.2l13.5 18.6a83.7 83.7 0 0 1-78.2 0Z"></path></svg>