<svg xmlns="http://www.w3.org/2000/svg" xmlns:xlink="http://www.w3.org/1999/xlink" aria-hidden="true" role="img" class="iconify iconify--ph" width="1em" height="1em" preserveAspectRatio="xMidYMid meet" viewBox="0 0 256 256"><path fill="currentColor" d="M229.8 134.6a4.1 4.1 0 0 0 0-1.1c.1-1.8.2-3.6.2-5.5a101.8 101.8 0 0 0-22.6-64a5.3 5.3 0 0 0-1.2-1.4a102.4 102.4 0 0 0-40.5-29.4l-1-.4a102.4 102.4 0 0 0-73.4 0l-1 .4a102.4 102.4 0 0 0-40.5 29.4a5.3 5.3 0 0 0-1.2 1.4A101.8 101.8 0 0 0 26 128c0 1.9.1 3.7.2 5.5a4.1 4.1 0 0 0 0 1.1a101.7 101.7 0 0 0 15.5 47.7a5.5 5.5 0 0 0 .9 1.4a102.1 102.1 0 0 0 59.3 42.9h.4a101.7 101.7 0 0 0 51.4 0h.4a102.1 102.1 0 0 0 59.3-42.9a5.5 5.5 0 0 0 .9-1.4a101.7 101.7 0 0 0 15.5-47.7Zm-61.1 39.2l-9.4-12.9l13.4-41.1l15.1-4.9l29.8 21.6a89.7 89.7 0 0 1-12.1 37.3Zm-81.4 0H50.5a89.7 89.7 0 0 1-12.1-37.3l29.8-21.6l15.1 4.9l13.4 41.1ZM51.7 80.2l8.4 25.7l-21.9 15.9a90.2 90.2 0 0 1 13.5-41.6Zm56 75.8l-12.6-38.7L128 93.4l32.9 23.9l-12.6 38.7Zm96.5-75.8a89.2 89.2 0 0 1 13.6 41.6l-21.9-15.9Zm-8.8-11.7l-11.3 35l-15.1 4.9l-35-25.5V67.1l29.8-21.7a89.8 89.8 0 0 1 31.6 23.1Zm-45.5-27.8L128 56.6l-21.9-15.9a90.2 90.2 0 0 1 43.8 0Zm-57.7 4.7L122 67.1v15.8l-35 25.5l-15.1-4.9l-11.3-35a89.8 89.8 0 0 1 31.6-23.1ZM59 185.8h27l8.4 25.7A91.7 91.7 0 0 1 59 185.8Zm49.4 30.1L97 180.8l9.4-12.8h43.2l9.4 12.8l-11.4 35.1a92.5 92.5 0 0 1-39.2 0Zm53.2-4.4l8.4-25.7h27a91.7 91.7 0 0 1-35.4 25.7Z"></path></svg>