<svg xmlns="http://www.w3.org/2000/svg" xmlns:xlink="http://www.w3.org/1999/xlink" aria-hidden="true" role="img" class="iconify iconify--ph" width="1em" height="1em" preserveAspectRatio="xMidYMid meet" viewBox="0 0 256 256"><path fill="currentColor" d="M231.8 134.8a4.8 4.8 0 0 0 0-1.2c.1-1.9.2-3.7.2-5.6a103.2 103.2 0 0 0-23-65.1a5.5 5.5 0 0 0-1.4-1.7a103.9 103.9 0 0 0-41.1-29.8l-1.1-.4a103.4 103.4 0 0 0-74.8 0l-1.1.4a103.9 103.9 0 0 0-41.1 29.8a5.5 5.5 0 0 0-1.4 1.7A103.2 103.2 0 0 0 24 128c0 1.9.1 3.7.2 5.6a4.8 4.8 0 0 0 0 1.2a104.2 104.2 0 0 0 15.7 48.4a9.9 9.9 0 0 0 1.1 1.7a104.3 104.3 0 0 0 60.3 43.6h.3a104.2 104.2 0 0 0 52.8 0h.3a104.3 104.3 0 0 0 60.3-43.6a9.9 9.9 0 0 0 1.1-1.7a104.2 104.2 0 0 0 15.7-48.4ZM68.5 117.1l13.2 4.3l12.7 39.2l-8.1 11.2H51.7a86.2 86.2 0 0 1-11.2-34.3Zm119 0l28 20.4a86.2 86.2 0 0 1-11.2 34.3h-34.6l-8.1-11.2l12.7-39.2Zm5.7-48.1l-10.7 32.9l-13.2 4.3L136 81.9V68.1l28-20.4A87 87 0 0 1 193.2 69ZM92 47.7l28 20.4v13.8l-33.3 24.3l-13.2-4.3L62.8 69A87 87 0 0 1 92 47.7Zm18 166.4l-10.7-32.9l8.1-11.2h41.2l8.1 11.2l-10.7 32.9a86.2 86.2 0 0 1-36 0Z"></path></svg>