<svg xmlns="http://www.w3.org/2000/svg" xmlns:xlink="http://www.w3.org/1999/xlink" aria-hidden="true" role="img" class="iconify iconify--ph" width="1em" height="1em" preserveAspectRatio="xMidYMid meet" viewBox="0 0 256 256"><path fill="currentColor" d="M227.8 134.2v-.6c.1-1.9.2-3.7.2-5.6a99.8 99.8 0 0 0-22.3-62.9a3.1 3.1 0 0 0-.9-1.1a100.2 100.2 0 0 0-40.1-29l-.5-.2a99.8 99.8 0 0 0-72.4 0l-.5.2a100.2 100.2 0 0 0-40.1 29a3.1 3.1 0 0 0-.9 1.1A99.8 99.8 0 0 0 28 128c0 1.9.1 3.7.2 5.6v.6a99.8 99.8 0 0 0 15.2 47.1a4.1 4.1 0 0 0 .7 1.1a100.6 100.6 0 0 0 58.4 42.3h.5a99.3 99.3 0 0 0 50 0h.5a100.6 100.6 0 0 0 58.4-42.3a4.1 4.1 0 0 0 .7-1.1a99.8 99.8 0 0 0 15.2-47.1Zm-60.1 41.6l-10.6-14.5l14-43.1l17.1-5.5l31.5 22.9a91 91 0 0 1-13.1 40.2Zm-79.4 0H49.4a91 91 0 0 1-13.1-40.2l31.5-22.9l17.1 5.5l14 43.1ZM52.4 75.7l10 31L36 125.9a90.8 90.8 0 0 1 16.4-50.2Zm53.8 82.3l-13.4-41.5L128 90.9l35.2 25.6l-13.4 41.5ZM220 125.9l-26.4-19.2l10-31a90.8 90.8 0 0 1 16.4 50.2ZM197.7 68l-12 37l-17.1 5.6L132 84V66l31.5-22.9A92.5 92.5 0 0 1 197.7 68Zm-43.3-28.1L128 59.1l-26.4-19.2a91.3 91.3 0 0 1 52.8 0Zm-61.9 3.2L124 66v18l-36.6 26.6l-17.1-5.6l-12-37a92.5 92.5 0 0 1 34.2-24.9ZM54.9 183.8h32.6l10.1 31a92.4 92.4 0 0 1-42.7-31Zm52 33.8l-12.1-37.1l10.6-14.5h45.2l10.6 14.5l-12.1 37.1a94 94 0 0 1-42.2 0Zm51.5-2.8l10.1-31h32.6a92.4 92.4 0 0 1-42.7 31Z"></path></svg>