<svg xmlns="http://www.w3.org/2000/svg" xmlns:xlink="http://www.w3.org/1999/xlink" aria-hidden="true" role="img" class="iconify iconify--ph" width="1em" height="1em" preserveAspectRatio="xMidYMid meet" viewBox="0 0 256 256"><path fill="currentColor" d="M228.2 92.2a5.8 5.8 0 0 1-8.4 0L190 62.5V144a6 6 0 0 1-12 0V62.5l-29.8 29.7a5.9 5.9 0 0 1-8.4-8.4l40-40a2.4 2.4 0 0 1 .9-.8l1-.5a.1.1 0 0 1 .1-.1l1-.3h2.4l1 .3a.1.1 0 0 1 .1.1l1 .5a2.4 2.4 0 0 1 .9.8l40 40a5.8 5.8 0 0 1 0 8.4ZM48 134h72a6 6 0 0 0 0-12H48a6 6 0 0 0 0 12Zm0-64h56a6 6 0 0 0 0-12H48a6 6 0 0 0 0 12Zm136 116H48a6 6 0 0 0 0 12h136a6 6 0 0 0 0-12Z"></path></svg>