<svg xmlns="http://www.w3.org/2000/svg" xmlns:xlink="http://www.w3.org/1999/xlink" aria-hidden="true" role="img" class="iconify iconify--ph" width="1em" height="1em" preserveAspectRatio="xMidYMid meet" viewBox="0 0 256 256"><path fill="currentColor" d="m229.7 173.7l-40 40a8.2 8.2 0 0 1-11.4 0l-40-40a8.4 8.4 0 0 1-1.7-8.8a8 8 0 0 1 7.4-4.9h32v-48a8 8 0 0 1 16 0v48h32a8.1 8.1 0 0 1 7.4 4.9a8.4 8.4 0 0 1-1.7 8.8ZM120 120H48a8 8 0 0 0 0 16h72a8 8 0 0 0 0-16ZM48 72h136a8 8 0 0 0 0-16H48a8 8 0 0 0 0 16Zm56 112H48a8 8 0 0 0 0 16h56a8 8 0 0 0 0-16Z"></path></svg>