<svg xmlns="http://www.w3.org/2000/svg" xmlns:xlink="http://www.w3.org/1999/xlink" aria-hidden="true" role="img" class="iconify iconify--ph" width="1em" height="1em" preserveAspectRatio="xMidYMid meet" viewBox="0 0 256 256"><path fill="currentColor" d="M229.7 93.6a8.1 8.1 0 0 1-11.4.1L192 67.3V144a8 8 0 0 1-16 0V67.3l-26.3 26.4a8.2 8.2 0 0 1-11.4 0a8.1 8.1 0 0 1 0-11.4l40-40h.1c.2-.2.4-.3.5-.5l.3-.2l.4-.3l.3-.2l.3-.2h.4l.3-.2h.4l.4-.2h4.6l.4.2h.4l.3.2h.4l.3.2l.3.2l.4.3l.3.2c.2.2.4.3.5.5h.1l40 40a8 8 0 0 1 0 11.3ZM48 136h72a8 8 0 0 0 0-16H48a8 8 0 0 0 0 16Zm0-64h56a8 8 0 0 0 0-16H48a8 8 0 0 0 0 16Zm136 112H48a8 8 0 0 0 0 16h136a8 8 0 0 0 0-16Z"></path></svg>