<svg xmlns="http://www.w3.org/2000/svg" xmlns:xlink="http://www.w3.org/1999/xlink" aria-hidden="true" role="img" class="iconify iconify--ph" width="1em" height="1em" preserveAspectRatio="xMidYMid meet" viewBox="0 0 256 256"><path fill="currentColor" d="m228.2 172.3l-40 39.9a2.4 2.4 0 0 1-.9.8l-1 .5h-.1l-1 .3h-2.4l-1-.3h-.1l-1-.5a2.4 2.4 0 0 1-.9-.8l-40-40a5.9 5.9 0 0 1 8.4-8.4l29.8 29.7V112a6 6 0 0 1 12 0v81.5l29.8-29.7a5.8 5.8 0 0 1 8.4 0a5.9 5.9 0 0 1 0 8.5ZM120 122H48a6 6 0 0 0 0 12h72a6 6 0 0 0 0-12ZM48 70h136a6 6 0 0 0 0-12H48a6 6 0 0 0 0 12Zm56 116H48a6 6 0 0 0 0 12h56a6 6 0 0 0 0-12Z"></path></svg>