<svg xmlns="http://www.w3.org/2000/svg" xmlns:xlink="http://www.w3.org/1999/xlink" aria-hidden="true" role="img" class="iconify iconify--ph" width="1em" height="1em" preserveAspectRatio="xMidYMid meet" viewBox="0 0 256 256"><path fill="currentColor" d="M226.8 90.8a3.9 3.9 0 0 1-5.6 0L188 57.7V144a4 4 0 0 1-8 0V57.7l-33.2 33.1a3.9 3.9 0 0 1-5.6 0a3.9 3.9 0 0 1 0-5.6l40-40l.6-.5l.3-.2l.4-.2h3l.4.2l.3.2l.6.4l40 40a3.9 3.9 0 0 1 0 5.7ZM48 132h72a4 4 0 0 0 0-8H48a4 4 0 0 0 0 8Zm0-64h56a4 4 0 0 0 0-8H48a4 4 0 0 0 0 8Zm136 120H48a4 4 0 0 0 0 8h136a4 4 0 0 0 0-8Z"></path></svg>