<svg xmlns="http://www.w3.org/2000/svg" xmlns:xlink="http://www.w3.org/1999/xlink" aria-hidden="true" role="img" class="iconify iconify--ph" width="1em" height="1em" preserveAspectRatio="xMidYMid meet" viewBox="0 0 256 256"><path fill="currentColor" d="m226.8 170.8l-40 40l-.6.4l-.3.2l-.4.2h-3l-.4-.2l-.3-.2l-.6-.5l-40-40a4 4 0 0 1 5.6-5.6l33.2 33.2V112a4 4 0 0 1 8 0v86.3l33.2-33.1a4 4 0 0 1 5.6 5.6ZM120 124H48a4 4 0 0 0 0 8h72a4 4 0 0 0 0-8ZM48 68h136a4 4 0 0 0 0-8H48a4 4 0 0 0 0 8Zm56 120H48a4 4 0 0 0 0 8h56a4 4 0 0 0 0-8Z"></path></svg>