<svg xmlns="http://www.w3.org/2000/svg" xmlns:xlink="http://www.w3.org/1999/xlink" aria-hidden="true" role="img" class="iconify iconify--ph" width="1em" height="1em" preserveAspectRatio="xMidYMid meet" viewBox="0 0 256 256"><path fill="currentColor" d="m232.5 176.5l-40 40h-.1l-.8.7l-.4.3l-.5.4l-.6.3l-.4.3l-.6.2l-.5.3l-.5.2l-.6.2h-.6l-.6.2h-4.6l-.6-.2h-.6l-.6-.2l-.5-.2l-.5-.3l-.6-.2l-.4-.3l-.6-.3l-.5-.4l-.4-.3l-.8-.8h-.1l-40-40a12 12 0 0 1 17-17L172 179v-67a12 12 0 0 1 24 0v67l19.5-19.5a12 12 0 0 1 17 17ZM120 116H48a12 12 0 0 0 0 24h72a12 12 0 0 0 0-24ZM48 76h136a12 12 0 0 0 0-24H48a12 12 0 0 0 0 24Zm56 104H48a12 12 0 0 0 0 24h56a12 12 0 0 0 0-24Z"></path></svg>