<svg xmlns="http://www.w3.org/2000/svg" xmlns:xlink="http://www.w3.org/1999/xlink" aria-hidden="true" role="img" class="iconify iconify--ph" width="1em" height="1em" preserveAspectRatio="xMidYMid meet" viewBox="0 0 256 256"><path fill="currentColor" d="M232.5 96.5a12 12 0 0 1-17 0L196 77v67a12 12 0 0 1-24 0V77l-19.5 19.5a12.1 12.1 0 0 1-17 0a12 12 0 0 1 0-17l40-40h.1l.8-.8l.4-.3l.5-.4l.6-.3l.4-.3l.6-.2l.5-.3l.5-.2l.6-.2h.6l.6-.2h4.6l.6.2h.6l.5.2l.6.2l.5.2l.6.3l.4.3l.6.3l.4.4l.5.3l.8.7a.1.1 0 0 0 .1.1l40 40a12 12 0 0 1 0 17ZM48 140h72a12 12 0 0 0 0-24H48a12 12 0 0 0 0 24Zm0-64h56a12 12 0 0 0 0-24H48a12 12 0 0 0 0 24Zm136 104H48a12 12 0 0 0 0 24h136a12 12 0 0 0 0-24Z"></path></svg>