<svg xmlns="http://www.w3.org/2000/svg" xmlns:xlink="http://www.w3.org/1999/xlink" aria-hidden="true" role="img" class="iconify iconify--ph" width="1em" height="1em" preserveAspectRatio="xMidYMid meet" viewBox="0 0 256 256"><path fill="currentColor" d="M231.4 91.1A8.1 8.1 0 0 1 224 96h-32v48a8 8 0 0 1-16 0V96h-32a8 8 0 0 1-7.4-4.9a8.4 8.4 0 0 1 1.7-8.8l40-40a8.1 8.1 0 0 1 11.4 0l40 40a8.4 8.4 0 0 1 1.7 8.8ZM48 136h72a8 8 0 0 0 0-16H48a8 8 0 0 0 0 16Zm0-64h56a8 8 0 0 0 0-16H48a8 8 0 0 0 0 16Zm136 112H48a8 8 0 0 0 0 16h136a8 8 0 0 0 0-16Z"></path></svg>