<svg xmlns="http://www.w3.org/2000/svg" xmlns:xlink="http://www.w3.org/1999/xlink" aria-hidden="true" role="img" class="iconify iconify--ph" width="1em" height="1em" preserveAspectRatio="xMidYMid meet" viewBox="0 0 256 256"><path fill="currentColor" d="M186 53.6a450.1 450.1 0 0 0-51.5-39.7a12.2 12.2 0 0 0-13 0A450.1 450.1 0 0 0 70 53.6C34.2 85.8 16 114.9 16 140a64.1 64.1 0 0 0 64 64a57 57 0 0 0 9.2-.7l-5 26.5A12 12 0 0 0 96 244h64a12 12 0 0 0 11.8-14.2l-5-26.5a57 57 0 0 0 9.2.7a64.1 64.1 0 0 0 64-64c0-25.1-18.2-54.2-54-86.4ZM176 180a39.4 39.4 0 0 1-19-4.8a12.1 12.1 0 0 0-17.5 12.8l6 32h-35l6-32A12.1 12.1 0 0 0 99 175.2a39.4 39.4 0 0 1-19 4.8a40 40 0 0 1-40-40c0-17.5 16.3-41.7 45.8-68.4A430.5 430.5 0 0 1 128 38.5a424.4 424.4 0 0 1 42 32.9c29.7 26.7 46 51.1 46 68.6a40 40 0 0 1-40 40Z"></path></svg>