<svg xmlns="http://www.w3.org/2000/svg" xmlns:xlink="http://www.w3.org/1999/xlink" aria-hidden="true" role="img" class="iconify iconify--ph" width="1em" height="1em" preserveAspectRatio="xMidYMid meet" viewBox="0 0 256 256"><path fill="currentColor" d="M232 140a56 56 0 0 1-56 56a55.2 55.2 0 0 1-25.9-6.4l11.9 35.9a7.8 7.8 0 0 1-1.1 7.2a7.9 7.9 0 0 1-6.4 3.3h-53a7.9 7.9 0 0 1-6.4-3.3a7.8 7.8 0 0 1-1.1-7.2l11.9-35.9A55.2 55.2 0 0 1 80 196a56 56 0 0 1-56-56c0-53.6 97.7-116.7 101.8-119.4a4.3 4.3 0 0 1 4.4 0C134.3 23.3 232 86.4 232 140Z"></path></svg>