<svg xmlns="http://www.w3.org/2000/svg" xmlns:xlink="http://www.w3.org/1999/xlink" aria-hidden="true" role="img" class="iconify iconify--ph" width="1em" height="1em" preserveAspectRatio="xMidYMid meet" viewBox="0 0 256 256"><path fill="currentColor" d="M160 240H96a7.9 7.9 0 0 1-6.5-3.3a8.1 8.1 0 0 1-1.1-7.2l10.9-32.7A60 60 0 0 1 20 140c0-23.9 17.7-52 52.6-83.4a420.5 420.5 0 0 1 51.1-39.3a7.9 7.9 0 0 1 8.6 0a420.5 420.5 0 0 1 51.1 39.3C218.3 88 236 116.1 236 140a60 60 0 0 1-79.3 56.8l10.9 32.7a8.1 8.1 0 0 1-1.1 7.2a7.9 7.9 0 0 1-6.5 3.3Zm-52.9-16h41.8L135 182.4a8.1 8.1 0 0 1 3.1-9.1a8 8 0 0 1 9.7.4A43.6 43.6 0 0 0 176 184a44 44 0 0 0 44-44c0-37.1-62.8-86.8-92-106.4C98.8 53.2 36 102.9 36 140a44 44 0 0 0 44 44a43.6 43.6 0 0 0 28.2-10.3a8.1 8.1 0 0 1 12.8 8.7Z"></path></svg>