<svg xmlns="http://www.w3.org/2000/svg" xmlns:xlink="http://www.w3.org/1999/xlink" aria-hidden="true" role="img" class="iconify iconify--ph" width="1em" height="1em" preserveAspectRatio="xMidYMid meet" viewBox="0 0 256 256"><path fill="currentColor" d="M160 238H96a6 6 0 0 1-5.7-7.9l12.2-36.7A57.9 57.9 0 0 1 22 140c0-54.7 98.6-118.4 102.8-121.1a6.1 6.1 0 0 1 6.4 0C135.4 21.6 234 85.3 234 140a57.9 57.9 0 0 1-80.5 53.4l12.2 36.7a6 6 0 0 1-5.7 7.9Zm-55.7-12h47.4l-14.8-44.2a6 6 0 0 1 9.6-6.5A46 46 0 0 0 222 140c0-19.5-16.6-44.7-47.9-72.9A431.8 431.8 0 0 0 128 31.2a431.8 431.8 0 0 0-46.1 35.9C50.6 95.3 34 120.5 34 140a46 46 0 0 0 75.5 35.3a6 6 0 0 1 9.6 6.5Z"></path></svg>