<svg xmlns="http://www.w3.org/2000/svg" xmlns:xlink="http://www.w3.org/1999/xlink" aria-hidden="true" role="img" class="iconify iconify--ph" width="1em" height="1em" preserveAspectRatio="xMidYMid meet" viewBox="0 0 256 256"><path fill="currentColor" d="M160 236H96a3.7 3.7 0 0 1-3.2-1.7a3.8 3.8 0 0 1-.6-3.6l13.7-41.1A55.2 55.2 0 0 1 80 196a56 56 0 0 1-56-56c0-53.6 97.7-116.7 101.8-119.4a4.3 4.3 0 0 1 4.4 0C134.3 23.3 232 86.4 232 140a56 56 0 0 1-56 56a55.2 55.2 0 0 1-25.9-6.4l13.7 41.1a3.8 3.8 0 0 1-.6 3.6a3.7 3.7 0 0 1-3.2 1.7Zm-58.5-8h53l-15.7-46.9a4 4 0 0 1 1.6-4.5a4.1 4.1 0 0 1 4.8.2A48 48 0 0 0 224 140c0-45.1-81.6-101.6-96-111.2c-14.4 9.6-96 66.1-96 111.2a48 48 0 0 0 78.8 36.8a4.1 4.1 0 0 1 4.8-.2a4 4 0 0 1 1.6 4.5Z"></path></svg>