<svg xmlns="http://www.w3.org/2000/svg" xmlns:xlink="http://www.w3.org/1999/xlink" aria-hidden="true" role="img" class="iconify iconify--ph" width="1em" height="1em" preserveAspectRatio="xMidYMid meet" viewBox="0 0 256 256"><path fill="currentColor" d="m197.7 130.9l-52.2-19.3a2 2 0 0 1-1.1-1.1l-19.3-52.2a13.9 13.9 0 0 0-26.2 0l-19.3 52.2a2 2 0 0 1-1.1 1.1l-52.2 19.3a13.9 13.9 0 0 0 0 26.2l52.2 19.3a2 2 0 0 1 1.1 1.1l19.3 52.2a13.9 13.9 0 0 0 26.2 0l19.3-52.2a2 2 0 0 1 1.1-1.1l52.2-19.3a13.9 13.9 0 0 0 0-26.2Zm-4.1 15l-52.2 19.2a13.7 13.7 0 0 0-8.3 8.3l-19.2 52.2a2 2 0 0 1-3.8 0l-19.2-52.2a13.7 13.7 0 0 0-8.3-8.3l-52.2-19.2a2 2 0 0 1 0-3.8l52.2-19.2a13.7 13.7 0 0 0 8.3-8.3l19.2-52.2a2 2 0 0 1 3.8 0l19.2 52.2a13.7 13.7 0 0 0 8.3 8.3l52.2 19.2a2 2 0 0 1 0 3.8ZM146 40a6 6 0 0 1 6-6h18V16a6 6 0 0 1 12 0v18h18a6 6 0 0 1 0 12h-18v18a6 6 0 0 1-12 0V46h-18a6 6 0 0 1-6-6Zm100 48a6 6 0 0 1-6 6h-10v10a6 6 0 0 1-12 0V94h-10a6 6 0 0 1 0-12h10V72a6 6 0 0 1 12 0v10h10a6 6 0 0 1 6 6Z"></path></svg>