<svg xmlns="http://www.w3.org/2000/svg" xmlns:xlink="http://www.w3.org/1999/xlink" aria-hidden="true" role="img" class="iconify iconify--ph" width="1em" height="1em" preserveAspectRatio="xMidYMid meet" viewBox="0 0 256 256"><path fill="currentColor" d="m199.8 125.2l-50.5-18.5l-18.5-50.5a20 20 0 0 0-37.6 0l-18.5 50.5l-50.5 18.5a20 20 0 0 0 0 37.6l50.5 18.5l18.5 50.5a20 20 0 0 0 37.6 0l18.5-50.5l50.5-18.5a20 20 0 0 0 0-37.6Zm-60.5 34.3a19.7 19.7 0 0 0-11.8 11.8l-15.5 42l-15.5-42a19.7 19.7 0 0 0-11.8-11.8l-42-15.5l42-15.5a19.7 19.7 0 0 0 11.8-11.8l15.5-42l15.5 42a19.7 19.7 0 0 0 11.8 11.8l42 15.5ZM140 40a12 12 0 0 1 12-12h12V16a12 12 0 0 1 24 0v12h12a12 12 0 0 1 0 24h-12v12a12 12 0 0 1-24 0V52h-12a12 12 0 0 1-12-12Zm112 48a12 12 0 0 1-12 12h-4v4a12 12 0 0 1-24 0v-4h-4a12 12 0 0 1 0-24h4v-4a12 12 0 0 1 24 0v4h4a12 12 0 0 1 12 12Z"></path></svg>