<svg xmlns="http://www.w3.org/2000/svg" xmlns:xlink="http://www.w3.org/1999/xlink" aria-hidden="true" role="img" class="iconify iconify--ph" width="1em" height="1em" preserveAspectRatio="xMidYMid meet" viewBox="0 0 256 256"><path fill="currentColor" d="m197 132.7l-52.2-19.2a3.7 3.7 0 0 1-2.3-2.3L123.3 59a12 12 0 0 0-22.6 0l-19.2 52.2a3.7 3.7 0 0 1-2.3 2.3L27 132.7a12 12 0 0 0 0 22.6l52.2 19.2a3.7 3.7 0 0 1 2.3 2.3l19.2 52.2a12 12 0 0 0 22.6 0l19.2-52.2a3.7 3.7 0 0 1 2.3-2.3l52.2-19.2a12 12 0 0 0 0-22.6Zm-2.8 15.1L142.1 167a11.9 11.9 0 0 0-7.1 7.1l-19.2 52.1a4 4 0 0 1-7.6 0L89 174.1a11.9 11.9 0 0 0-7.1-7.1l-52.1-19.2a4 4 0 0 1 0-7.6L81.9 121a11.9 11.9 0 0 0 7.1-7.1l19.2-52.1a4 4 0 0 1 7.6 0l19.2 52.1a11.9 11.9 0 0 0 7.1 7.1l52.1 19.2a4 4 0 0 1 0 7.6ZM148 40a4 4 0 0 1 4-4h20V16a4 4 0 0 1 8 0v20h20a4 4 0 0 1 0 8h-20v20a4 4 0 0 1-8 0V44h-20a4 4 0 0 1-4-4Zm96 48a4 4 0 0 1-4 4h-12v12a4 4 0 0 1-8 0V92h-12a4 4 0 0 1 0-8h12V72a4 4 0 0 1 8 0v12h12a4 4 0 0 1 4 4Z"></path></svg>