<svg xmlns="http://www.w3.org/2000/svg" xmlns:xlink="http://www.w3.org/1999/xlink" aria-hidden="true" role="img" class="iconify iconify--ph" width="1em" height="1em" preserveAspectRatio="xMidYMid meet" viewBox="0 0 256 256"><path fill="currentColor" d="m195.6 151.5l-52.1 19.2a8.1 8.1 0 0 0-4.8 4.8l-19.2 52.1a8 8 0 0 1-15 0l-19.2-52.1a8.1 8.1 0 0 0-4.8-4.8l-52.1-19.2a8 8 0 0 1 0-15l52.1-19.2a8.1 8.1 0 0 0 4.8-4.8l19.2-52.1a8 8 0 0 1 15 0l19.2 52.1a8.1 8.1 0 0 0 4.8 4.8l52.1 19.2a8 8 0 0 1 0 15Z" opacity=".2"></path><path fill="currentColor" d="m198.4 129l-52.2-19.2L127 57.6a16 16 0 0 0-30 0l-19.2 52.2L25.6 129a16 16 0 0 0 0 30l52.2 19.2L97 230.4a16 16 0 0 0 30 0l19.2-52.2l52.2-19.2a16 16 0 0 0 0-30Zm-57.7 34.2a15.9 15.9 0 0 0-9.5 9.5L112 224.9l-19.2-52.2a15.9 15.9 0 0 0-9.5-9.5L31.1 144l52.2-19.2a15.9 15.9 0 0 0 9.5-9.5L112 63.1l19.2 52.2a15.9 15.9 0 0 0 9.5 9.5l52.2 19.2ZM144 40a8 8 0 0 1 8-8h16V16a8 8 0 0 1 16 0v16h16a8 8 0 0 1 0 16h-16v16a8 8 0 0 1-16 0V48h-16a8 8 0 0 1-8-8Zm104 48a8 8 0 0 1-8 8h-8v8a8 8 0 0 1-16 0v-8h-8a8 8 0 0 1 0-16h8v-8a8 8 0 0 1 16 0v8h8a8 8 0 0 1 8 8Z"></path></svg>