<svg xmlns="http://www.w3.org/2000/svg" xmlns:xlink="http://www.w3.org/1999/xlink" aria-hidden="true" role="img" class="iconify iconify--ph" width="1em" height="1em" preserveAspectRatio="xMidYMid meet" viewBox="0 0 256 256"><path fill="currentColor" d="M155.5 24.8a8 8 0 0 0-8.4.9L77.3 80H32a16 16 0 0 0-16 16v64a16 16 0 0 0 16 16h45.3l69.8 54.3a8.1 8.1 0 0 0 4.9 1.7a8.5 8.5 0 0 0 3.5-.8a8 8 0 0 0 4.5-7.2V32a8 8 0 0 0-4.5-7.2ZM144 207.6l-59.1-45.9A7.9 7.9 0 0 0 80 160H32V96h48a7.9 7.9 0 0 0 4.9-1.7L144 48.4ZM200 104v48a8 8 0 0 1-16 0v-48a8 8 0 0 1 16 0Zm32-16v80a8 8 0 0 1-16 0V88a8 8 0 0 1 16 0Z"></path></svg>