<svg xmlns="http://www.w3.org/2000/svg" xmlns:xlink="http://www.w3.org/1999/xlink" aria-hidden="true" role="img" class="iconify iconify--ph" width="1em" height="1em" preserveAspectRatio="xMidYMid meet" viewBox="0 0 256 256"><path fill="currentColor" d="M56.9 31.9a12 12 0 0 0-17.8 16.2L64.5 76H32a20.1 20.1 0 0 0-20 20v64a20.1 20.1 0 0 0 20 20h43.9l68.7 53.5a12 12 0 0 0 7.4 2.5a12.4 12.4 0 0 0 5.3-1.2A12 12 0 0 0 164 224v-38.6l35.1 38.7a12.1 12.1 0 0 0 17 .8a12.1 12.1 0 0 0 .8-17ZM36 100h32v56H36Zm104 99.5l-48-37.4v-55.9l48 52.8ZM109 65.4a12 12 0 0 1 2.1-16.8l33.5-26.1a12.2 12.2 0 0 1 12.7-1.3A12 12 0 0 1 164 32v62.9a12 12 0 0 1-24 0V56.5l-14.1 11a12 12 0 0 1-16.9-2.1Zm73.1 48.5a12 12 0 0 1 17-17A43.8 43.8 0 0 1 212 128a45.1 45.1 0 0 1-5.3 21a12.1 12.1 0 0 1-10.6 6.3a11.8 11.8 0 0 1-5.7-1.5a12 12 0 0 1-4.8-16.3a19.4 19.4 0 0 0 2.4-9.5a19.7 19.7 0 0 0-5.9-14.1ZM252 128a84 84 0 0 1-19.1 53.3a12 12 0 1 1-18.6-15.2a59.9 59.9 0 0 0-3.9-80.5a12 12 0 0 1 17-17A83.9 83.9 0 0 1 252 128Z"></path></svg>