<svg xmlns="http://www.w3.org/2000/svg" xmlns:xlink="http://www.w3.org/1999/xlink" aria-hidden="true" role="img" class="iconify iconify--ph" width="1em" height="1em" preserveAspectRatio="xMidYMid meet" viewBox="0 0 256 256"><path fill="currentColor" d="M53.9 34.6a8 8 0 0 0-11.8 10.8L73.6 80H32a16 16 0 0 0-16 16v64a16 16 0 0 0 16 16h45.3l69.8 54.3a7.9 7.9 0 0 0 4.9 1.7a8.5 8.5 0 0 0 3.5-.8a8.1 8.1 0 0 0 4.5-7.2v-48.9l42.1 46.3a8 8 0 0 0 5.9 2.6a8.2 8.2 0 0 0 5.4-2.1a7.9 7.9 0 0 0 .5-11.3ZM72 160H32V96h40Zm34.2-91.6a8.1 8.1 0 0 1-2-6.1a8.2 8.2 0 0 1 3-5.6l39.9-31A8 8 0 0 1 160 32v74.8a8 8 0 0 1-5.1 7.5a7.4 7.4 0 0 1-2.9.5a7.9 7.9 0 0 1-5.9-2.6ZM248 128a79.2 79.2 0 0 1-23.5 56.6a8 8 0 0 1-5.6 2.3a8.3 8.3 0 0 1-5.7-2.3a8 8 0 0 1 0-11.3a63.9 63.9 0 0 0 0-90.5a8.1 8.1 0 0 1 0-11.4a8 8 0 0 1 11.3 0A79.2 79.2 0 0 1 248 128Zm-63.1-17a8 8 0 0 1 0-11.3a8.1 8.1 0 0 1 11.4 0a40.1 40.1 0 0 1 0 56.6a7.8 7.8 0 0 1-5.7 2.3a8 8 0 0 1-5.7-13.6a23.9 23.9 0 0 0 0-34Z"></path></svg>