<svg xmlns="http://www.w3.org/2000/svg" xmlns:xlink="http://www.w3.org/1999/xlink" aria-hidden="true" role="img" class="iconify iconify--ph" width="1em" height="1em" preserveAspectRatio="xMidYMid meet" viewBox="0 0 256 256"><path fill="currentColor" d="M244 128a75.2 75.2 0 0 1-22.3 53.7a3.9 3.9 0 0 1-2.8 1.2a3.8 3.8 0 0 1-2.8-1.2a3.9 3.9 0 0 1 0-5.6a68.1 68.1 0 0 0 0-96.2a4 4 0 1 1 5.6-5.6A75.2 75.2 0 0 1 244 128Zm-88-96v192a4.2 4.2 0 0 1-2.2 3.6a3.9 3.9 0 0 1-1.8.4a4.6 4.6 0 0 1-2.5-.8L78.6 172H32a12 12 0 0 1-12-12V96a12 12 0 0 1 12-12h46.6l70.9-55.2A4 4 0 0 1 156 32ZM32 164h44V92H32a4 4 0 0 0-4 4v64a4 4 0 0 0 4 4ZM148 40.2L84 90v76l64 49.8Zm39.8 62.3a4 4 0 0 0 0 5.7a28 28 0 0 1 0 39.6a4 4 0 0 0 0 5.7a4.3 4.3 0 0 0 2.8 1.1a4.1 4.1 0 0 0 2.8-1.1a36 36 0 0 0 0-51a4 4 0 0 0-5.6 0Z"></path></svg>