<svg xmlns="http://www.w3.org/2000/svg" xmlns:xlink="http://www.w3.org/1999/xlink" aria-hidden="true" role="img" class="iconify iconify--ph" width="1em" height="1em" preserveAspectRatio="xMidYMid meet" viewBox="0 0 256 256"><path fill="currentColor" d="M80 168H32a8 8 0 0 1-8-8V96a8 8 0 0 1 8-8h48l72-56v192Z" opacity=".2"></path><path fill="currentColor" d="M192 160a8 8 0 0 0 8-8v-48a8 8 0 0 0-16 0v48a8 8 0 0 0 8 8Zm32-80a8 8 0 0 0-8 8v80a8 8 0 0 0 16 0V88a8 8 0 0 0-8-8ZM53.9 34.6a8 8 0 0 0-11.8 10.8L73.6 80H32a16 16 0 0 0-16 16v64a16 16 0 0 0 16 16h45.3l69.8 54.3a8.1 8.1 0 0 0 4.9 1.7a8.5 8.5 0 0 0 3.5-.8a8 8 0 0 0 4.5-7.2v-48.9l42.1 46.3a8 8 0 0 0 5.9 2.6a8.2 8.2 0 0 0 5.4-2.1a7.9 7.9 0 0 0 .5-11.3Zm90.1 173l-59.1-45.9A7.9 7.9 0 0 0 80 160H32V96h56.1l55.9 61.5ZM117.1 69.3L144 48.4v58.4a8 8 0 1 0 16 0V32a8 8 0 0 0-12.9-6.3l-39.9 31a8 8 0 1 0 9.9 12.6Z"></path></svg>