<svg xmlns="http://www.w3.org/2000/svg" xmlns:xlink="http://www.w3.org/1999/xlink" aria-hidden="true" role="img" class="iconify iconify--ph" width="1em" height="1em" preserveAspectRatio="xMidYMid meet" viewBox="0 0 256 256"><path fill="currentColor" d="M240 88v80a12 12 0 0 1-24 0V88a12 12 0 0 1 24 0Zm-23.1 119.9a12.1 12.1 0 0 1-.8 17a12.1 12.1 0 0 1-17-.8L164 185.4V224a12 12 0 0 1-6.7 10.8a12.4 12.4 0 0 1-5.3 1.2a12.7 12.7 0 0 1-7.4-2.5L75.9 180H32a20.1 20.1 0 0 1-20-20V96a20.1 20.1 0 0 1 20-20h32.5L39.1 48.1a12 12 0 0 1 17.8-16.2ZM140 159l-53.7-59H36v56h44a12.2 12.2 0 0 1 7.4 2.5l52.6 41Zm-14.1-91.5l14.1-11v38.4a12 12 0 0 0 24 0V32a12 12 0 0 0-6.7-10.8a12.2 12.2 0 0 0-12.7 1.3l-33.5 26.1a12 12 0 1 0 14.8 18.9Zm66.1 83.4a12 12 0 0 0 12-12V104a12 12 0 0 0-24 0v34.9a12 12 0 0 0 12 12Z"></path></svg>