<svg xmlns="http://www.w3.org/2000/svg" xmlns:xlink="http://www.w3.org/1999/xlink" aria-hidden="true" role="img" class="iconify iconify--ph" width="1em" height="1em" preserveAspectRatio="xMidYMid meet" viewBox="0 0 256 256"><path fill="currentColor" d="M160 32v192a8 8 0 0 1-4.5 7.2a8.5 8.5 0 0 1-3.5.8a7.9 7.9 0 0 1-4.9-1.7L77.2 176H32a16 16 0 0 1-16-16V96a16 16 0 0 1 16-16h45.2l69.9-54.3A8 8 0 0 1 160 32Zm67.3 96l18.4-18.3a8.1 8.1 0 0 0-11.4-11.4L216 116.7l-18.3-18.4a8.1 8.1 0 0 0-11.4 11.4l18.4 18.3l-18.4 18.3a8.1 8.1 0 0 0 0 11.4a8.3 8.3 0 0 0 5.7 2.3a8.5 8.5 0 0 0 5.7-2.3l18.3-18.4l18.3 18.4a8.3 8.3 0 0 0 5.7 2.3a8.5 8.5 0 0 0 5.7-2.3a8.1 8.1 0 0 0 0-11.4Z"></path></svg>