<svg xmlns="http://www.w3.org/2000/svg" xmlns:xlink="http://www.w3.org/1999/xlink" aria-hidden="true" role="img" class="iconify iconify--ph" width="1em" height="1em" preserveAspectRatio="xMidYMid meet" viewBox="0 0 256 256"><path fill="currentColor" d="M152 236a12.7 12.7 0 0 1-7.4-2.5L75.9 180H32a20.1 20.1 0 0 1-20-20V96a20.1 20.1 0 0 1 20-20h43.9l68.7-53.5a12.2 12.2 0 0 1 12.7-1.3A12 12 0 0 1 164 32v192a12 12 0 0 1-6.7 10.8a12.4 12.4 0 0 1-5.3 1.2ZM36 156h44a12.2 12.2 0 0 1 7.4 2.5l52.6 41v-143l-52.6 41A12.2 12.2 0 0 1 80 100H36Z"></path></svg>