<svg xmlns="http://www.w3.org/2000/svg" xmlns:xlink="http://www.w3.org/1999/xlink" aria-hidden="true" role="img" class="iconify iconify--ph" width="1em" height="1em" preserveAspectRatio="xMidYMid meet" viewBox="0 0 256 256"><path fill="currentColor" d="M80 168H32a8 8 0 0 1-8-8V96a8 8 0 0 1 8-8h48Z" opacity=".2"></path><path fill="currentColor" d="M155.5 24.8a8 8 0 0 0-8.4.9L77.3 80H32a16 16 0 0 0-16 16v64a16 16 0 0 0 16 16h45.3l69.8 54.3a8.1 8.1 0 0 0 4.9 1.7a8.5 8.5 0 0 0 3.5-.8a8 8 0 0 0 4.5-7.2V32a8 8 0 0 0-4.5-7.2ZM32 96h40v64H32Zm112 111.6l-56-43.5V91.9l56-43.5Zm83.3-79.6l18.4-18.3a8.1 8.1 0 0 0-11.4-11.4L216 116.7l-18.3-18.4a8.1 8.1 0 0 0-11.4 11.4l18.4 18.3l-18.4 18.3a8.1 8.1 0 0 0 0 11.4a8.2 8.2 0 0 0 11.4 0l18.3-18.4l18.3 18.4a8.2 8.2 0 0 0 11.4 0a8.1 8.1 0 0 0 0-11.4Z"></path></svg>