<svg xmlns="http://www.w3.org/2000/svg" xmlns:xlink="http://www.w3.org/1999/xlink" aria-hidden="true" role="img" class="iconify iconify--ph" width="1em" height="1em" preserveAspectRatio="xMidYMid meet" viewBox="0 0 256 256"><path fill="currentColor" d="M186 152v-48a6 6 0 0 1 12 0v48a6 6 0 0 1-12 0Zm38-70a6 6 0 0 0-6 6v80a6 6 0 0 0 12 0V88a6 6 0 0 0-6-6Zm-11.6 130a5.8 5.8 0 0 1-.4 8.4a5.7 5.7 0 0 1-4 1.6a5.9 5.9 0 0 1-4.4-2L158 169.9V224a6 6 0 0 1-3.4 5.4a5.8 5.8 0 0 1-2.6.6a5.8 5.8 0 0 1-3.7-1.3L77.9 174H32a14 14 0 0 1-14-14V96a14 14 0 0 1 14-14h46.1L43.6 44a5.9 5.9 0 0 1 8.8-8ZM146 156.7L89 94H32a2 2 0 0 0-2 2v64a2 2 0 0 0 2 2h48a5.8 5.8 0 0 1 3.7 1.3l62.3 48.4Zm-30.2-89L146 44.3v62.5a6 6 0 1 0 12 0V32a6 6 0 0 0-9.7-4.7l-39.8 31a6 6 0 0 0-1.1 8.4a5.9 5.9 0 0 0 8.4 1Z"></path></svg>