<svg xmlns="http://www.w3.org/2000/svg" xmlns:xlink="http://www.w3.org/1999/xlink" aria-hidden="true" role="img" class="iconify iconify--ph" width="1em" height="1em" preserveAspectRatio="xMidYMid meet" viewBox="0 0 256 256"><path fill="currentColor" d="M184 152v-48a8 8 0 0 1 16 0v48a8 8 0 0 1-16 0Zm40-72a8 8 0 0 0-8 8v80a8 8 0 0 0 16 0V88a8 8 0 0 0-8-8Zm-10.1 130.6a7.9 7.9 0 0 1-.5 11.3a8.2 8.2 0 0 1-5.4 2.1a8 8 0 0 1-5.9-2.6L160 175.1V224a8 8 0 0 1-4.5 7.2a8.5 8.5 0 0 1-3.5.8a8.1 8.1 0 0 1-4.9-1.7L77.3 176H32a16 16 0 0 1-16-16V96a16 16 0 0 1 16-16h41.6L42.1 45.4a8 8 0 0 1 11.8-10.8ZM144 157.5L88.1 96H32v64h48a7.9 7.9 0 0 1 4.9 1.7l59.1 45.9Zm-26.9-88.2L144 48.4v58.4a8 8 0 1 0 16 0V32a8 8 0 0 0-12.9-6.3l-39.9 31a8 8 0 1 0 9.9 12.6Z"></path></svg>