<svg xmlns="http://www.w3.org/2000/svg" xmlns:xlink="http://www.w3.org/1999/xlink" aria-hidden="true" role="img" class="iconify iconify--ph" width="1em" height="1em" preserveAspectRatio="xMidYMid meet" viewBox="0 0 256 256"><path fill="currentColor" d="M248 128a79.5 79.5 0 0 1-23.4 56.6a8.3 8.3 0 0 1-5.7 2.3a8 8 0 0 1-5.6-2.3a7.9 7.9 0 0 1 0-11.3a64.2 64.2 0 0 0 0-90.6a7.9 7.9 0 0 1 0-11.3a8 8 0 0 1 11.3 0A79.5 79.5 0 0 1 248 128Zm-88-96v192a8 8 0 0 1-4.5 7.2a8.5 8.5 0 0 1-3.5.8a8.1 8.1 0 0 1-4.9-1.7L77.3 176H32a16 16 0 0 1-16-16V96a16 16 0 0 1 16-16h45.3l69.8-54.3A8 8 0 0 1 160 32ZM32 160h40V96H32Zm153-60.3a7.9 7.9 0 0 0 0 11.3a24.1 24.1 0 0 1 0 34a7.9 7.9 0 0 0 0 11.3a8 8 0 0 0 5.6 2.3a8.3 8.3 0 0 0 5.7-2.3a40.1 40.1 0 0 0 0-56.6a8 8 0 0 0-11.3 0Z"></path></svg>