<svg xmlns="http://www.w3.org/2000/svg" xmlns:xlink="http://www.w3.org/1999/xlink" aria-hidden="true" role="img" class="iconify iconify--ph" width="1em" height="1em" preserveAspectRatio="xMidYMid meet" viewBox="0 0 256 256"><path fill="currentColor" d="M80 168H32a8 8 0 0 1-8-8V96a8 8 0 0 1 8-8h48Z" opacity=".2"></path><path fill="currentColor" d="M224.6 71.4a8 8 0 0 0-11.3 0a7.9 7.9 0 0 0 0 11.3a64.2 64.2 0 0 1 0 90.6a7.9 7.9 0 0 0 0 11.3a8 8 0 0 0 5.6 2.3a8.3 8.3 0 0 0 5.7-2.3a80.2 80.2 0 0 0 0-113.2Zm-69.1-46.6a8 8 0 0 0-8.4.9L77.3 80H32a16 16 0 0 0-16 16v64a16 16 0 0 0 16 16h45.3l69.8 54.3a8.1 8.1 0 0 0 4.9 1.7a8.5 8.5 0 0 0 3.5-.8a8 8 0 0 0 4.5-7.2V32a8 8 0 0 0-4.5-7.2ZM32 96h40v64H32Zm112 111.6l-56-43.5V91.9l56-43.5Z"></path><path fill="currentColor" d="M185 99.7a7.9 7.9 0 0 0 0 11.3a24.1 24.1 0 0 1 0 34a7.9 7.9 0 0 0 0 11.3a8 8 0 0 0 5.6 2.3a8.3 8.3 0 0 0 5.7-2.3a40.1 40.1 0 0 0 0-56.6a8 8 0 0 0-11.3 0Z"></path></svg>