<svg xmlns="http://www.w3.org/2000/svg" xmlns:xlink="http://www.w3.org/1999/xlink" aria-hidden="true" role="img" class="iconify iconify--ph" width="1em" height="1em" preserveAspectRatio="xMidYMid meet" viewBox="0 0 256 256"><path fill="currentColor" d="M246 128a77.5 77.5 0 0 1-22.9 55.2a6 6 0 0 1-8.4 0a5.9 5.9 0 0 1 0-8.5a66.1 66.1 0 0 0 0-93.4a6 6 0 1 1 8.4-8.5A77.5 77.5 0 0 1 246 128Zm-88-96v192a6 6 0 0 1-3.4 5.4a5.8 5.8 0 0 1-2.6.6a5.8 5.8 0 0 1-3.7-1.3L77.9 174H32a14 14 0 0 1-14-14V96a14 14 0 0 1 14-14h45.9l70.4-54.7A6 6 0 0 1 158 32ZM32 162h42V94H32a2 2 0 0 0-2 2v64a2 2 0 0 0 2 2ZM146 44.3L86 90.9v74.2l60 46.6Zm40.4 56.8a5.9 5.9 0 0 0 0 8.5a26.1 26.1 0 0 1 0 36.8a5.9 5.9 0 0 0 0 8.5a6.1 6.1 0 0 0 4.2 1.7a6.5 6.5 0 0 0 4.3-1.7a38.1 38.1 0 0 0 0-53.8a6.1 6.1 0 0 0-8.5 0Z"></path></svg>