<svg xmlns="http://www.w3.org/2000/svg" xmlns:xlink="http://www.w3.org/1999/xlink" aria-hidden="true" role="img" class="iconify iconify--ph" width="1em" height="1em" preserveAspectRatio="xMidYMid meet" viewBox="0 0 256 256"><path fill="currentColor" d="M157.3 21.2a12.2 12.2 0 0 0-12.7 1.3L75.9 76H32a20.1 20.1 0 0 0-20 20v64a20.1 20.1 0 0 0 20 20h43.9l68.7 53.5a12.7 12.7 0 0 0 7.4 2.5a12.4 12.4 0 0 0 5.3-1.2A12 12 0 0 0 164 224V32a12 12 0 0 0-6.7-10.8ZM140 199.5l-52.6-41A12.2 12.2 0 0 0 80 156H36v-56h44a12.2 12.2 0 0 0 7.4-2.5l52.6-41Zm64-95.5v48a12 12 0 0 1-24 0v-48a12 12 0 0 1 24 0Zm36-16v80a12 12 0 0 1-24 0V88a12 12 0 0 1 24 0Z"></path></svg>