<svg xmlns="http://www.w3.org/2000/svg" xmlns:xlink="http://www.w3.org/1999/xlink" aria-hidden="true" role="img" class="iconify iconify--ph" width="1em" height="1em" preserveAspectRatio="xMidYMid meet" viewBox="0 0 256 256"><path fill="currentColor" d="M157.3 21.2a12.2 12.2 0 0 0-12.7 1.3L75.9 76H32a20.1 20.1 0 0 0-20 20v64a20.1 20.1 0 0 0 20 20h43.9l68.7 53.5a12.7 12.7 0 0 0 7.4 2.5a12.4 12.4 0 0 0 5.3-1.2A12 12 0 0 0 164 224V32a12 12 0 0 0-6.7-10.8ZM36 100h32v56H36Zm104 99.5l-48-37.4V93.9l48-37.4Zm72-71.5a43.6 43.6 0 0 1-12.9 31.1a11.6 11.6 0 0 1-8.5 3.5a11.8 11.8 0 0 1-8.5-3.5a12 12 0 0 1 0-17a19.8 19.8 0 0 0 0-28.2a12 12 0 0 1 17-17A43.6 43.6 0 0 1 212 128Z"></path></svg>