<svg xmlns="http://www.w3.org/2000/svg" xmlns:xlink="http://www.w3.org/1999/xlink" aria-hidden="true" role="img" class="iconify iconify--ph" width="1em" height="1em" preserveAspectRatio="xMidYMid meet" viewBox="0 0 256 256"><path fill="currentColor" d="M246 128a77.5 77.5 0 0 1-22.9 55.2a6.1 6.1 0 0 1-4.2 1.7a6.5 6.5 0 0 1-4.3-1.7a6.1 6.1 0 0 1 0-8.5a65.9 65.9 0 0 0 0-93.4a6 6 0 1 1 8.5-8.4A77.1 77.1 0 0 1 246 128Zm-59.6 26.9a6 6 0 0 0 8.4 0a37.9 37.9 0 0 0 0-53.8a6 6 0 0 0-8.4 8.5a26.1 26.1 0 0 1 0 36.8a5.9 5.9 0 0 0 0 8.5Zm26 57.1a5.8 5.8 0 0 1-.4 8.4a5.7 5.7 0 0 1-4 1.6a5.9 5.9 0 0 1-4.4-2L158 169.9V224a6 6 0 0 1-3.4 5.4a5.8 5.8 0 0 1-2.6.6a5.8 5.8 0 0 1-3.7-1.3L77.9 174H32a14 14 0 0 1-14-14V96a14 14 0 0 1 14-14h46L43.6 44a5.9 5.9 0 0 1 8.8-8ZM32 162h42V94H32a2 2 0 0 0-2 2v64a2 2 0 0 0 2 2Zm114-5.3L86.1 90.8H86V165l60 46.6Zm-30.2-89L146 44.3v62.5a6 6 0 1 0 12 0V32a6 6 0 0 0-9.7-4.7l-39.8 31a6 6 0 0 0-1.1 8.4a5.9 5.9 0 0 0 8.4 1Z"></path></svg>