<svg xmlns="http://www.w3.org/2000/svg" xmlns:xlink="http://www.w3.org/1999/xlink" aria-hidden="true" role="img" class="iconify iconify--ph" width="1em" height="1em" preserveAspectRatio="xMidYMid meet" viewBox="0 0 256 256"><path fill="currentColor" d="M152 228a4.6 4.6 0 0 1-2.5-.8L78.6 172H32a12 12 0 0 1-12-12V96a12 12 0 0 1 12-12h46.6l70.9-55.2A4 4 0 0 1 156 32v192a4.2 4.2 0 0 1-2.2 3.6a3.9 3.9 0 0 1-1.8.4ZM32 92a4 4 0 0 0-4 4v64a4 4 0 0 0 4 4h48a4.4 4.4 0 0 1 2.5.8l65.5 51V40.2l-65.5 51a4.4 4.4 0 0 1-2.5.8Z"></path></svg>