<svg xmlns="http://www.w3.org/2000/svg" xmlns:xlink="http://www.w3.org/1999/xlink" aria-hidden="true" role="img" class="iconify iconify--ph" width="1em" height="1em" preserveAspectRatio="xMidYMid meet" viewBox="0 0 256 256"><path fill="currentColor" d="M80 168H32a8 8 0 0 1-8-8V96a8 8 0 0 1 8-8h48Z" opacity=".2"></path><path fill="currentColor" d="M224.5 71.4a8 8 0 0 0-11.3 0a8.1 8.1 0 0 0 0 11.4a63.9 63.9 0 0 1 0 90.5a8 8 0 0 0 0 11.3a8.3 8.3 0 0 0 5.7 2.3a8 8 0 0 0 5.6-2.3a79.9 79.9 0 0 0 0-113.2Z"></path><path fill="currentColor" d="M192 128a23.8 23.8 0 0 1-7.1 17a8 8 0 0 0 5.7 13.6a7.8 7.8 0 0 0 5.7-2.3a40.1 40.1 0 0 0 0-56.6a8.1 8.1 0 0 0-11.4 0a8 8 0 0 0 0 11.3a23.8 23.8 0 0 1 7.1 17ZM53.9 34.6a8 8 0 0 0-11.8 10.8L73.6 80H32a16 16 0 0 0-16 16v64a16 16 0 0 0 16 16h45.3l69.8 54.3a8.1 8.1 0 0 0 4.9 1.7a8.5 8.5 0 0 0 3.5-.8a7.8 7.8 0 0 0 4.5-7.2v-48.9l42.1 46.3a8 8 0 0 0 5.9 2.6a8.2 8.2 0 0 0 5.4-2.1a7.9 7.9 0 0 0 .5-11.3ZM32 96h40v64H32Zm112 111.7l-56-43.6V95.9l56 61.6ZM117.1 69.3L144 48.4v58.4a8 8 0 1 0 16 0V32a8 8 0 0 0-12.9-6.3l-39.9 31a8 8 0 1 0 9.9 12.6Z"></path></svg>