<svg xmlns="http://www.w3.org/2000/svg" xmlns:xlink="http://www.w3.org/1999/xlink" aria-hidden="true" role="img" class="iconify iconify--ph" width="1em" height="1em" preserveAspectRatio="xMidYMid meet" viewBox="0 0 256 256"><path fill="currentColor" d="M152 230a5.8 5.8 0 0 1-3.7-1.3L77.9 174H32a14 14 0 0 1-14-14V96a14 14 0 0 1 14-14h45.9l70.4-54.7A6 6 0 0 1 158 32v192a6 6 0 0 1-3.4 5.4a5.8 5.8 0 0 1-2.6.6ZM32 94a2 2 0 0 0-2 2v64a2 2 0 0 0 2 2h48a5.8 5.8 0 0 1 3.7 1.3l62.3 48.4V44.3L83.7 92.7A5.8 5.8 0 0 1 80 94Z"></path></svg>