<svg xmlns="http://www.w3.org/2000/svg" xmlns:xlink="http://www.w3.org/1999/xlink" aria-hidden="true" role="img" class="iconify iconify--ph" width="1em" height="1em" preserveAspectRatio="xMidYMid meet" viewBox="0 0 256 256"><path fill="currentColor" d="M154.6 26.6a6 6 0 0 0-6.3.7L77.9 82H32a14 14 0 0 0-14 14v64a14 14 0 0 0 14 14h45.9l70.4 54.7a5.8 5.8 0 0 0 3.7 1.3a5.8 5.8 0 0 0 2.6-.6a6 6 0 0 0 3.4-5.4V32a6 6 0 0 0-3.4-5.4ZM146 211.7l-62.3-48.4A5.8 5.8 0 0 0 80 162H32a2 2 0 0 1-2-2V96a2 2 0 0 1 2-2h48a5.8 5.8 0 0 0 3.7-1.3L146 44.3Zm98.2-63.9a5.9 5.9 0 1 1-8.4 8.4L216 136.5l-19.8 19.7a5.9 5.9 0 0 1-8.4-8.4l19.7-19.8l-19.7-19.8a5.9 5.9 0 0 1 8.4-8.4l19.8 19.7l19.8-19.7a5.9 5.9 0 0 1 8.4 8.4L224.5 128Z"></path></svg>