<svg xmlns="http://www.w3.org/2000/svg" xmlns:xlink="http://www.w3.org/1999/xlink" aria-hidden="true" role="img" class="iconify iconify--ph" width="1em" height="1em" preserveAspectRatio="xMidYMid meet" viewBox="0 0 256 256"><path fill="currentColor" d="M153.8 28.4a4.2 4.2 0 0 0-4.3.4L78.6 84H32a12 12 0 0 0-12 12v64a12 12 0 0 0 12 12h46.6l70.9 55.2a4.6 4.6 0 0 0 2.5.8a3.9 3.9 0 0 0 1.8-.4a4.2 4.2 0 0 0 2.2-3.6V32a4.2 4.2 0 0 0-2.2-3.6ZM28 160V96a4 4 0 0 1 4-4h44v72H32a4 4 0 0 1-4-4Zm120 55.8L84 166V90l64-49.8Z"></path></svg>