<svg xmlns="http://www.w3.org/2000/svg" xmlns:xlink="http://www.w3.org/1999/xlink" aria-hidden="true" role="img" class="iconify iconify--ph" width="1em" height="1em" preserveAspectRatio="xMidYMid meet" viewBox="0 0 256 256"><path fill="currentColor" d="M152 232a8.1 8.1 0 0 1-4.9-1.7L77.3 176H32a16 16 0 0 1-16-16V96a16 16 0 0 1 16-16h45.3l69.8-54.3A8 8 0 0 1 160 32v192a8 8 0 0 1-4.5 7.2a8.5 8.5 0 0 1-3.5.8ZM32 96v64h48a7.9 7.9 0 0 1 4.9 1.7l59.1 45.9V48.4L84.9 94.3A7.9 7.9 0 0 1 80 96Z"></path></svg>