<svg xmlns="http://www.w3.org/2000/svg" xmlns:xlink="http://www.w3.org/1999/xlink" aria-hidden="true" role="img" class="iconify iconify--ph" width="1em" height="1em" preserveAspectRatio="xMidYMid meet" viewBox="0 0 256 256"><path fill="currentColor" d="M188 152v-48a4 4 0 0 1 8 0v48a4 4 0 0 1-8 0Zm36-68a4 4 0 0 0-4 4v80a4 4 0 0 0 8 0V88a4 4 0 0 0-4-4Zm-13 129.3a4.2 4.2 0 0 1-.3 5.7a4.1 4.1 0 0 1-5.7-.3l-49-54V224a4.2 4.2 0 0 1-2.2 3.6a3.9 3.9 0 0 1-1.8.4a4.6 4.6 0 0 1-2.5-.8L78.6 172H32a12 12 0 0 1-12-12V96a12 12 0 0 1 12-12h50.6L45 42.7a4 4 0 1 1 6-5.4Zm-63-57.4L89.9 92H32a4 4 0 0 0-4 4v64a4 4 0 0 0 4 4h48a4.4 4.4 0 0 1 2.5.8l65.5 51Zm-33.4-89.8L148 40.2v66.6a4 4 0 1 0 8 0V32a4 4 0 0 0-6.5-3.2l-39.8 31a4 4 0 0 0-.7 5.6a3.9 3.9 0 0 0 5.6.7Z"></path></svg>