<svg xmlns="http://www.w3.org/2000/svg" xmlns:xlink="http://www.w3.org/1999/xlink" aria-hidden="true" role="img" class="iconify iconify--ph" width="1em" height="1em" preserveAspectRatio="xMidYMid meet" viewBox="0 0 256 256"><path fill="currentColor" d="M252 128a83.4 83.4 0 0 1-24.6 59.4a12.1 12.1 0 0 1-17 0a12 12 0 0 1 0-17a59.9 59.9 0 0 0 0-84.8a12 12 0 0 1 17-17A83.4 83.4 0 0 1 252 128Zm-88-96v192a12 12 0 0 1-6.7 10.8a12.4 12.4 0 0 1-5.3 1.2a12.7 12.7 0 0 1-7.4-2.5L75.9 180H32a20.1 20.1 0 0 1-20-20V96a20.1 20.1 0 0 1 20-20h43.9l68.7-53.5a12.2 12.2 0 0 1 12.7-1.3A12 12 0 0 1 164 32ZM36 156h32v-56H36Zm104-99.5L92 93.9v68.2l48 37.4Zm59.1 40.4a12 12 0 0 0-17 17a19.8 19.8 0 0 1 0 28.2a12 12 0 0 0 0 17a11.8 11.8 0 0 0 8.5 3.5a11.6 11.6 0 0 0 8.5-3.5a43.9 43.9 0 0 0 0-62.2Z"></path></svg>