<svg xmlns="http://www.w3.org/2000/svg" xmlns:xlink="http://www.w3.org/1999/xlink" aria-hidden="true" role="img" class="iconify iconify--ph" width="1em" height="1em" preserveAspectRatio="xMidYMid meet" viewBox="0 0 256 256"><path fill="currentColor" d="M244 128a75.2 75.2 0 0 1-22.3 53.7a3.9 3.9 0 0 1-2.8 1.2a3.8 3.8 0 0 1-2.8-1.2a3.9 3.9 0 0 1 0-5.6a68.1 68.1 0 0 0 0-96.2a4 4 0 1 1 5.6-5.6A75.2 75.2 0 0 1 244 128Zm-56.2 25.5a4.3 4.3 0 0 0 2.8 1.1a4.1 4.1 0 0 0 2.8-1.1a35.9 35.9 0 0 0 0-50.9a4 4 0 0 0-5.6 5.6a28 28 0 0 1 0 39.6a4 4 0 0 0 0 5.7Zm23.2 59.8a4.2 4.2 0 0 1-.3 5.7a4.1 4.1 0 0 1-5.7-.3l-49-54V224a4.2 4.2 0 0 1-2.2 3.6a3.9 3.9 0 0 1-1.8.4a4.6 4.6 0 0 1-2.5-.8L78.6 172H32a12 12 0 0 1-12-12V96a12 12 0 0 1 12-12h46.6l2.4-1.8l-36-39.5a4 4 0 1 1 6-5.4ZM32 164h44V92H32a4 4 0 0 0-4 4v64a4 4 0 0 0 4 4Zm116-8.1L86.4 88.1L84 90v76l64 49.8Zm-33.4-89.7l33.4-26v66.6a4 4 0 1 0 8 0V32a4.2 4.2 0 0 0-2.2-3.6a4 4 0 0 0-4.3.5l-39.8 30.9a4 4 0 0 0 4.9 6.4Z"></path></svg>