<svg xmlns="http://www.w3.org/2000/svg" xmlns:xlink="http://www.w3.org/1999/xlink" aria-hidden="true" role="img" class="iconify iconify--ph" width="1em" height="1em" preserveAspectRatio="xMidYMid meet" viewBox="0 0 256 256"><path fill="currentColor" d="M140 32v32a12 12 0 0 1-24 0V32a12 12 0 0 1 24 0Zm33.3 62.7a11.6 11.6 0 0 0 8.4-3.5l22.7-22.6a12 12 0 1 0-17-17l-22.6 22.7a11.9 11.9 0 0 0 0 16.9a11.6 11.6 0 0 0 8.5 3.5ZM224 116h-32a12 12 0 0 0 0 24h32a12 12 0 0 0 0-24Zm-42.3 48.8a12 12 0 0 0-16.9 16.9l22.6 22.7a12 12 0 0 0 8.5 3.5a12.2 12.2 0 0 0 8.5-3.5a12 12 0 0 0 0-17ZM128 180a12 12 0 0 0-12 12v32a12 12 0 0 0 24 0v-32a12 12 0 0 0-12-12Zm-53.7-15.2l-22.7 22.6a12 12 0 0 0 0 17a12.2 12.2 0 0 0 8.5 3.5a12 12 0 0 0 8.5-3.5l22.6-22.7a12 12 0 0 0-16.9-16.9ZM76 128a12 12 0 0 0-12-12H32a12 12 0 0 0 0 24h32a12 12 0 0 0 12-12Zm-7.4-76.4a12 12 0 1 0-17 17l22.7 22.6a12 12 0 0 0 16.9 0a11.9 11.9 0 0 0 0-16.9Z"></path></svg>