<svg xmlns="http://www.w3.org/2000/svg" xmlns:xlink="http://www.w3.org/1999/xlink" aria-hidden="true" role="img" class="iconify iconify--ph" width="1em" height="1em" preserveAspectRatio="xMidYMid meet" viewBox="0 0 256 256"><path fill="currentColor" d="M134 32v32a6 6 0 0 1-12 0V32a6 6 0 0 1 12 0Zm90 90h-32a6 6 0 0 0 0 12h32a6 6 0 0 0 0-12Zm-46.5 47a6 6 0 0 0-8.5 8.5l22.6 22.6a6 6 0 0 0 4.3 1.8a5.8 5.8 0 0 0 4.2-1.8a5.9 5.9 0 0 0 0-8.5ZM128 186a6 6 0 0 0-6 6v32a6 6 0 0 0 12 0v-32a6 6 0 0 0-6-6Zm-49.5-17l-22.6 22.6a5.9 5.9 0 0 0 0 8.5a5.8 5.8 0 0 0 4.2 1.8a6 6 0 0 0 4.3-1.8L87 177.5a6 6 0 0 0-8.5-8.5ZM70 128a6 6 0 0 0-6-6H32a6 6 0 0 0 0 12h32a6 6 0 0 0 6-6Zm-5.6-72.1a6 6 0 0 0-8.5 8.5L78.5 87a5.8 5.8 0 0 0 4.2 1.7A5.9 5.9 0 0 0 87 87a6.1 6.1 0 0 0 0-8.5Z"></path></svg>