<svg xmlns="http://www.w3.org/2000/svg" xmlns:xlink="http://www.w3.org/1999/xlink" aria-hidden="true" role="img" class="iconify iconify--ph" width="1em" height="1em" preserveAspectRatio="xMidYMid meet" viewBox="0 0 256 256"><path fill="currentColor" d="M64 136H32a8 8 0 0 1 0-16h32a8 8 0 0 1 0 16Zm109.3-45.3a7.8 7.8 0 0 0 5.6-2.3l22.6-22.6a8 8 0 1 0-11.3-11.3l-22.6 22.6a8 8 0 0 0 0 11.3a7.8 7.8 0 0 0 5.7 2.3ZM65.8 54.5a8 8 0 0 0-11.3 11.3l22.6 22.6a8.1 8.1 0 0 0 11.3 0a8 8 0 0 0 0-11.3Zm11.3 113.1l-22.6 22.6a7.9 7.9 0 0 0 0 11.3a7.7 7.7 0 0 0 5.6 2.4a8 8 0 0 0 5.7-2.4l22.6-22.6a8 8 0 0 0-11.3-11.3ZM224 120h-32a8 8 0 0 0 0 16h32a8 8 0 0 0 0-16Zm-45.1 47.6a8 8 0 0 0-11.3 11.3l22.6 22.6a8 8 0 0 0 5.7 2.4a7.7 7.7 0 0 0 5.6-2.4a7.9 7.9 0 0 0 0-11.3ZM128 184a8 8 0 0 0-8 8v32a8 8 0 0 0 16 0v-32a8 8 0 0 0-8-8Zm0-160a8 8 0 0 0-8 8v32a8 8 0 0 0 16 0V32a8 8 0 0 0-8-8Z"></path></svg>