<svg xmlns="http://www.w3.org/2000/svg" xmlns:xlink="http://www.w3.org/1999/xlink" aria-hidden="true" role="img" class="iconify iconify--ph" width="1em" height="1em" preserveAspectRatio="xMidYMid meet" viewBox="0 0 256 256"><path fill="currentColor" d="M132 32v32a4 4 0 0 1-8 0V32a4 4 0 0 1 8 0Zm41.3 54.7a3.8 3.8 0 0 0 2.8-1.1l22.6-22.7a4 4 0 0 0-5.6-5.6l-22.7 22.6a4.2 4.2 0 0 0 0 5.7a3.9 3.9 0 0 0 2.9 1.1ZM224 124h-32a4 4 0 0 0 0 8h32a4 4 0 0 0 0-8Zm-47.9 46.4a4 4 0 0 0-5.7 5.7l22.7 22.6a3.8 3.8 0 0 0 2.8 1.2a3.9 3.9 0 0 0 2.8-1.2a3.9 3.9 0 0 0 0-5.6ZM128 188a4 4 0 0 0-4 4v32a4 4 0 0 0 8 0v-32a4 4 0 0 0-4-4Zm-48.1-17.6l-22.6 22.7a3.9 3.9 0 0 0 0 5.6a3.9 3.9 0 0 0 2.8 1.2a3.8 3.8 0 0 0 2.8-1.2l22.7-22.6a4 4 0 0 0-5.7-5.7ZM68 128a4 4 0 0 0-4-4H32a4 4 0 0 0 0 8h32a4 4 0 0 0 4-4Zm-5.1-70.7a4 4 0 1 0-5.6 5.6l22.6 22.7a3.8 3.8 0 0 0 2.8 1.1a3.9 3.9 0 0 0 2.9-1.1a4.2 4.2 0 0 0 0-5.7Z"></path></svg>