<svg xmlns="http://www.w3.org/2000/svg" xmlns:xlink="http://www.w3.org/1999/xlink" aria-hidden="true" role="img" class="iconify iconify--ph" width="1em" height="1em" preserveAspectRatio="xMidYMid meet" viewBox="0 0 256 256"><path fill="currentColor" d="M250 138a12 12 0 0 1-24 0a94.1 94.1 0 0 0-94-94a84.1 84.1 0 0 0-84 84a74.1 74.1 0 0 0 74 74a64.1 64.1 0 0 0 64-64a54 54 0 0 0-54-54a44 44 0 0 0-44 44a34.1 34.1 0 0 0 34 34a24.1 24.1 0 0 0 24-24a14 14 0 0 0-14-14a3.6 3.6 0 0 0-2.8 1.2A12 12 0 0 1 124 148a20.1 20.1 0 0 1-20-20a28.1 28.1 0 0 1 28-28a38 38 0 0 1 38 38a48 48 0 0 1-48 48a58 58 0 0 1-58-58a68.1 68.1 0 0 1 68-68a78.1 78.1 0 0 1 78 78a88.1 88.1 0 0 1-88 88a98.2 98.2 0 0 1-98-98A108.1 108.1 0 0 1 132 20a118.1 118.1 0 0 1 118 118Z"></path></svg>