<svg xmlns="http://www.w3.org/2000/svg" xmlns:xlink="http://www.w3.org/1999/xlink" aria-hidden="true" role="img" class="iconify iconify--ph" width="1em" height="1em" preserveAspectRatio="xMidYMid meet" viewBox="0 0 256 256"><path fill="currentColor" d="M246 144a6 6 0 0 1-12 0a98.2 98.2 0 0 0-98-98a90.1 90.1 0 0 0-90 90a82.1 82.1 0 0 0 82 82a74.1 74.1 0 0 0 74-74a66.1 66.1 0 0 0-66-66a58 58 0 0 0-58 58a50 50 0 0 0 50 50a42 42 0 0 0 42-42a34.1 34.1 0 0 0-34-34a26.1 26.1 0 0 0-26 26a18.1 18.1 0 0 0 18 18a10 10 0 0 0 10-10a2 2 0 0 0-2-2a6 6 0 0 1 0-12a14 14 0 0 1 14 14a22.1 22.1 0 0 1-22 22a30.1 30.1 0 0 1-30-30a38 38 0 0 1 38-38a46 46 0 0 1 46 46a54 54 0 0 1-54 54a62.1 62.1 0 0 1-62-62a70.1 70.1 0 0 1 70-70a78.1 78.1 0 0 1 78 78a86.1 86.1 0 0 1-86 86a94.1 94.1 0 0 1-94-94A102.2 102.2 0 0 1 136 34a110.1 110.1 0 0 1 110 110Z"></path></svg>