<svg xmlns="http://www.w3.org/2000/svg" xmlns:xlink="http://www.w3.org/1999/xlink" aria-hidden="true" role="img" class="iconify iconify--ph" width="1em" height="1em" preserveAspectRatio="xMidYMid meet" viewBox="0 0 256 256"><path fill="currentColor" d="M244 144a4 4 0 0 1-8 0A100.2 100.2 0 0 0 136 44a92.1 92.1 0 0 0-92 92a84.1 84.1 0 0 0 84 84a76.1 76.1 0 0 0 76-76a68.1 68.1 0 0 0-68-68a60 60 0 0 0-60 60a52 52 0 0 0 52 52a44 44 0 0 0 44-44a36 36 0 0 0-36-36a28.1 28.1 0 0 0-28 28a20.1 20.1 0 0 0 20 20a12 12 0 0 0 12-12a4 4 0 0 0-4-4a4 4 0 0 1 0-8a12 12 0 0 1 12 12a20.1 20.1 0 0 1-20 20a28.1 28.1 0 0 1-28-28a36 36 0 0 1 36-36a44 44 0 0 1 44 44a52 52 0 0 1-52 52a60 60 0 0 1-60-60a68.1 68.1 0 0 1 68-68a76.1 76.1 0 0 1 76 76a84.1 84.1 0 0 1-84 84a92.1 92.1 0 0 1-92-92A100.2 100.2 0 0 1 136 36a108.1 108.1 0 0 1 108 108Z"></path></svg>