<svg xmlns="http://www.w3.org/2000/svg" xmlns:xlink="http://www.w3.org/1999/xlink" aria-hidden="true" role="img" class="iconify iconify--ph" width="1em" height="1em" preserveAspectRatio="xMidYMid meet" viewBox="0 0 256 256"><path fill="currentColor" d="M128.1 24a104 104 0 1 0 104 104a104.1 104.1 0 0 0-104-104Zm28.6 144.7a8.1 8.1 0 0 1-10.8 3.5a39.8 39.8 0 0 0-35.8.1a9.4 9.4 0 0 1-3.6.8a8 8 0 0 1-3.6-15.1a55 55 0 0 1 25.2-6a55.7 55.7 0 0 1 25 5.9a8 8 0 0 1 3.6 10.8Zm14.8-28.4a8 8 0 0 1-10.8 3.5a72 72 0 0 0-65.4.1a8 8 0 0 1-3.6.9a8 8 0 0 1-3.7-15.2a88.1 88.1 0 0 1 80 0a8 8 0 0 1 3.5 10.7Zm14.8-28.3a7.9 7.9 0 0 1-10.8 3.4a104.3 104.3 0 0 0-95 .1a8.1 8.1 0 0 1-3.7.9a8 8 0 0 1-3.6-15.1a119.9 119.9 0 0 1 109.6-.1a8 8 0 0 1 3.5 10.8Z"></path></svg>