<svg xmlns="http://www.w3.org/2000/svg" xmlns:xlink="http://www.w3.org/1999/xlink" aria-hidden="true" role="img" class="iconify iconify--ph" width="1em" height="1em" preserveAspectRatio="xMidYMid meet" viewBox="0 0 256 256"><path fill="currentColor" d="M128.1 26a102 102 0 1 0 102 102a102.1 102.1 0 0 0-102-102Zm0 192a90 90 0 1 1 90-90a90.1 90.1 0 0 1-90 90Zm56.4-106.9a6.1 6.1 0 0 1-8.1 2.6a106 106 0 0 0-96.8 0a5.5 5.5 0 0 1-2.8.7a6 6 0 0 1-2.7-11.4a118.5 118.5 0 0 1 54-13a116.7 116.7 0 0 1 53.8 13a6 6 0 0 1 2.6 8.1Zm-14.8 28.3a6 6 0 0 1-8.1 2.7a73.7 73.7 0 0 0-67.2 0a6.8 6.8 0 0 1-2.7.7a6 6 0 0 1-2.8-11.4a86 86 0 0 1 78.2 0a6 6 0 0 1 2.6 8Zm-14.8 28.4a6.1 6.1 0 0 1-8.1 2.6a41.8 41.8 0 0 0-18.7-4.4a41.1 41.1 0 0 0-18.9 4.5a6.6 6.6 0 0 1-2.7.6a6.1 6.1 0 0 1-5.4-3.3a5.9 5.9 0 0 1 2.7-8a52.4 52.4 0 0 1 24.3-5.8a53.1 53.1 0 0 1 24.1 5.7a6 6 0 0 1 2.7 8.1Z"></path></svg>