<svg xmlns="http://www.w3.org/2000/svg" xmlns:xlink="http://www.w3.org/1999/xlink" aria-hidden="true" role="img" class="iconify iconify--ph" width="1em" height="1em" preserveAspectRatio="xMidYMid meet" viewBox="0 0 256 256"><path fill="currentColor" d="M128.1 28a100 100 0 1 0 100 100a100.1 100.1 0 0 0-100-100Zm0 192a92 92 0 1 1 92-92a92.1 92.1 0 0 1-92 92Zm54.6-109.8a4 4 0 0 1-5.3 1.7a108.3 108.3 0 0 0-98.7 0a4.1 4.1 0 0 1-1.9.5a4 4 0 0 1-1.8-7.6a116.1 116.1 0 0 1 106 0a3.9 3.9 0 0 1 1.7 5.4Zm-14.8 28.3a4 4 0 0 1-5.4 1.8a74.6 74.6 0 0 0-34.4-8.3a75.4 75.4 0 0 0-34.6 8.3a4.1 4.1 0 0 1-1.8.5a4 4 0 0 1-3.6-2.2a4.1 4.1 0 0 1 1.7-5.4a83.9 83.9 0 0 1 76.4 0a4 4 0 0 1 1.7 5.3Zm-14.8 28.4a4.1 4.1 0 0 1-5.4 1.7a44.1 44.1 0 0 0-39.4.1a3.9 3.9 0 0 1-1.8.4a4 4 0 0 1-1.8-7.6a52.6 52.6 0 0 1 23.4-5.5a50.8 50.8 0 0 1 23.2 5.5a4 4 0 0 1 1.8 5.4Z"></path></svg>