<svg xmlns="http://www.w3.org/2000/svg" xmlns:xlink="http://www.w3.org/1999/xlink" aria-hidden="true" role="img" class="iconify iconify--ph" width="1em" height="1em" preserveAspectRatio="xMidYMid meet" viewBox="0 0 256 256"><path fill="currentColor" d="M48 48h64v64H48zm96 0h64v64h-64zm-96 96h64v64H48zm96 0h64v64h-64z" opacity=".2"></path><path fill="currentColor" d="M208 136h-64a8 8 0 0 0-8 8v64a8 8 0 0 0 8 8h64a8 8 0 0 0 8-8v-64a8 8 0 0 0-8-8Zm-8 64h-48v-48h48ZM112 40H48a8 8 0 0 0-8 8v64a8 8 0 0 0 8 8h64a8 8 0 0 0 8-8V48a8 8 0 0 0-8-8Zm-8 64H56V56h48Zm104-64h-64a8 8 0 0 0-8 8v64a8 8 0 0 0 8 8h64a8 8 0 0 0 8-8V48a8 8 0 0 0-8-8Zm-8 64h-48V56h48Zm-88 32H48a8 8 0 0 0-8 8v64a8 8 0 0 0 8 8h64a8 8 0 0 0 8-8v-64a8 8 0 0 0-8-8Zm-8 64H56v-48h48Z"></path></svg>