<svg xmlns="http://www.w3.org/2000/svg" xmlns:xlink="http://www.w3.org/1999/xlink" aria-hidden="true" role="img" class="iconify iconify--ph" width="1em" height="1em" preserveAspectRatio="xMidYMid meet" viewBox="0 0 256 256"><path fill="currentColor" d="M112 44H48a4 4 0 0 0-4 4v64a4 4 0 0 0 4 4h64a4 4 0 0 0 4-4V48a4 4 0 0 0-4-4Zm-4 64H52V52h56Zm100-64h-64a4 4 0 0 0-4 4v64a4 4 0 0 0 4 4h64a4 4 0 0 0 4-4V48a4 4 0 0 0-4-4Zm-4 64h-56V52h56Zm-92 32H48a4 4 0 0 0-4 4v64a4 4 0 0 0 4 4h64a4 4 0 0 0 4-4v-64a4 4 0 0 0-4-4Zm-4 64H52v-56h56Zm100-64h-64a4 4 0 0 0-4 4v64a4 4 0 0 0 4 4h64a4 4 0 0 0 4-4v-64a4 4 0 0 0-4-4Zm-4 64h-56v-56h56Z"></path></svg>