<svg xmlns="http://www.w3.org/2000/svg" xmlns:xlink="http://www.w3.org/1999/xlink" aria-hidden="true" role="img" class="iconify iconify--ph" width="1em" height="1em" preserveAspectRatio="xMidYMid meet" viewBox="0 0 256 256"><path fill="currentColor" d="M204 40H52a12 12 0 0 0-12 12v152a12 12 0 0 0 12 12h152a12 12 0 0 0 12-12V52a12 12 0 0 0-12-12Zm-72 76h76v24h-76Zm0-8V84h76v24Zm0 40h76v24h-76Zm76-96v24h-76V48h72a4 4 0 0 1 4 4ZM48 204V52a4 4 0 0 1 4-4h72v160H52a4 4 0 0 1-4-4Zm156 4h-72v-28h76v24a4 4 0 0 1-4 4Z"></path></svg>