<svg xmlns="http://www.w3.org/2000/svg" xmlns:xlink="http://www.w3.org/1999/xlink" aria-hidden="true" role="img" class="iconify iconify--ph" width="1em" height="1em" preserveAspectRatio="xMidYMid meet" viewBox="0 0 256 256"><path fill="currentColor" d="M204 40H52a12 12 0 0 0-12 12v152a12 12 0 0 0 12 12h152a12 12 0 0 0 12-12V52a12 12 0 0 0-12-12ZM52 48h152a4 4 0 0 1 4 4v72H48V52a4 4 0 0 1 4-4Zm56 84v76H84v-76Zm8 0h24v76h-24Zm32 0h24v76h-24ZM48 204v-72h28v76H52a4 4 0 0 1-4-4Zm156 4h-24v-76h28v72a4 4 0 0 1-4 4Z"></path></svg>