<svg xmlns="http://www.w3.org/2000/svg" xmlns:xlink="http://www.w3.org/1999/xlink" aria-hidden="true" role="img" class="iconify iconify--ph" width="1em" height="1em" preserveAspectRatio="xMidYMid meet" viewBox="0 0 256 256"><path fill="currentColor" d="M112 42H48a6 6 0 0 0-6 6v64a6 6 0 0 0 6 6h64a6 6 0 0 0 6-6V48a6 6 0 0 0-6-6Zm-6 64H54V54h52Zm102-64h-64a6 6 0 0 0-6 6v64a6 6 0 0 0 6 6h64a6 6 0 0 0 6-6V48a6 6 0 0 0-6-6Zm-6 64h-52V54h52Zm-90 32H48a6 6 0 0 0-6 6v64a6 6 0 0 0 6 6h64a6 6 0 0 0 6-6v-64a6 6 0 0 0-6-6Zm-6 64H54v-52h52Zm102-64h-64a6 6 0 0 0-6 6v64a6 6 0 0 0 6 6h64a6 6 0 0 0 6-6v-64a6 6 0 0 0-6-6Zm-6 64h-52v-52h52Z"></path></svg>