<svg xmlns="http://www.w3.org/2000/svg" xmlns:xlink="http://www.w3.org/1999/xlink" aria-hidden="true" role="img" class="iconify iconify--ph" width="1em" height="1em" preserveAspectRatio="xMidYMid meet" viewBox="0 0 256 256"><path fill="currentColor" d="M108 36H48a12 12 0 0 0-12 12v60a12 12 0 0 0 12 12h60a12 12 0 0 0 12-12V48a12 12 0 0 0-12-12ZM96 96H60V60h36Zm112-60h-60a12 12 0 0 0-12 12v60a12 12 0 0 0 12 12h60a12 12 0 0 0 12-12V48a12 12 0 0 0-12-12Zm-12 60h-36V60h36Zm-88 40H48a12 12 0 0 0-12 12v60a12 12 0 0 0 12 12h60a12 12 0 0 0 12-12v-60a12 12 0 0 0-12-12Zm-12 60H60v-36h36Zm112-60h-60a12 12 0 0 0-12 12v60a12 12 0 0 0 12 12h60a12 12 0 0 0 12-12v-60a12 12 0 0 0-12-12Zm-12 60h-36v-36h36Z"></path></svg>