<svg xmlns="http://www.w3.org/2000/svg" xmlns:xlink="http://www.w3.org/1999/xlink" aria-hidden="true" role="img" class="iconify iconify--ph" width="1em" height="1em" preserveAspectRatio="xMidYMid meet" viewBox="0 0 256 256"><path fill="currentColor" d="M204 38H52a14 14 0 0 0-14 14v152a14 14 0 0 0 14 14h152a14 14 0 0 0 14-14V52a14 14 0 0 0-14-14Zm-70 80h72v20h-72Zm0-12V86h72v20Zm0 44h72v20h-72Zm72-98v22h-72V50h70a2 2 0 0 1 2 2ZM50 204V52a2 2 0 0 1 2-2h70v156H52a2 2 0 0 1-2-2Zm154 2h-70v-24h72v22a2 2 0 0 1-2 2Z"></path></svg>