<svg xmlns="http://www.w3.org/2000/svg" xmlns:xlink="http://www.w3.org/1999/xlink" aria-hidden="true" role="img" class="iconify iconify--ph" width="1em" height="1em" preserveAspectRatio="xMidYMid meet" viewBox="0 0 256 256"><path fill="currentColor" d="M212 152v64a4 4 0 0 1-4 4H48a4 4 0 0 1-4-4v-64a4 4 0 0 1 8 0v60h152v-60a4 4 0 0 1 8 0ZM88 180h80a4 4 0 0 0 0-8H88a4 4 0 0 0 0 8Zm5.9-52.9l77.3 20.7h1a4 4 0 0 0 1.1-7.9L96 119.3a4.1 4.1 0 0 0-4.9 2.9a4 4 0 0 0 2.8 4.9Zm19.4-49.6l69.3 40a4.6 4.6 0 0 0 2 .5a4 4 0 0 0 2-7.5l-69.3-40a4 4 0 0 0-5.4 1.5a4 4 0 0 0 1.4 5.5Zm88.2 13.6a3.9 3.9 0 0 0 2.8 1.2a3.8 3.8 0 0 0 2.8-1.2a3.9 3.9 0 0 0 0-5.6l-56.5-56.6a4 4 0 0 0-5.7 5.7Z"></path></svg>