<svg xmlns="http://www.w3.org/2000/svg" xmlns:xlink="http://www.w3.org/1999/xlink" aria-hidden="true" role="img" class="iconify iconify--ph" width="1em" height="1em" preserveAspectRatio="xMidYMid meet" viewBox="0 0 256 256"><path fill="currentColor" d="M227.5 174a4.1 4.1 0 0 1-1.5 5.5l-96 56a4.3 4.3 0 0 1-4 0l-96-56a4 4 0 1 1 4-7l94 54.9l94-54.9a4.1 4.1 0 0 1 5.5 1.5Zm-5.5-49.5l-94 54.9l-94-54.9a4 4 0 1 0-4 7l96 56a4.3 4.3 0 0 0 4 0l96-56a4 4 0 1 0-4-7ZM28 80a4.3 4.3 0 0 1 2-3.5l96-56a4.1 4.1 0 0 1 4 0l96 56a4.1 4.1 0 0 1 0 7l-96 56a4.3 4.3 0 0 1-4 0l-96-56a4.3 4.3 0 0 1-2-3.5Zm11.9 0l88.1 51.4L216.1 80L128 28.6Z"></path></svg>