<svg xmlns="http://www.w3.org/2000/svg" xmlns:xlink="http://www.w3.org/1999/xlink" aria-hidden="true" role="img" class="iconify iconify--ph" width="1em" height="1em" preserveAspectRatio="xMidYMid meet" viewBox="0 0 256 256"><path fill="currentColor" d="m14 107.5l112 64a4.3 4.3 0 0 0 4 0l112-64a4.1 4.1 0 0 0 0-7l-112-64a4.1 4.1 0 0 0-4 0l-112 64a4.1 4.1 0 0 0 0 7Zm114-62.9L231.9 104L128 163.4L24.1 104ZM243.5 142a4.1 4.1 0 0 1-1.5 5.5l-112 64a4.3 4.3 0 0 1-4 0l-112-64a4 4 0 1 1 4-7l110 62.9l110-62.9a4.1 4.1 0 0 1 5.5 1.5Z"></path></svg>