<svg xmlns="http://www.w3.org/2000/svg" xmlns:xlink="http://www.w3.org/1999/xlink" aria-hidden="true" role="img" class="iconify iconify--ph" width="1em" height="1em" preserveAspectRatio="xMidYMid meet" viewBox="0 0 256 256"><path fill="currentColor" d="M234.4 170a12 12 0 0 1-4.4 16.4l-96 56a12 12 0 0 1-12 0l-96-56a12 12 0 1 1 12-20.8l90 52.5l90-52.5a12 12 0 0 1 16.4 4.4ZM218 117.6l-90 52.5l-90-52.5a12 12 0 1 0-12 20.8l96 56a12.1 12.1 0 0 0 12 0l96-56a12 12 0 0 0-12-20.8ZM20 80a12.1 12.1 0 0 1 6-10.4l96-56a12.2 12.2 0 0 1 12 0l96 56a12 12 0 0 1 0 20.8l-96 56a12 12 0 0 1-12 0l-96-56A12.1 12.1 0 0 1 20 80Zm35.8 0l72.2 42.1L200.2 80L128 37.9Z"></path></svg>