<svg xmlns="http://www.w3.org/2000/svg" xmlns:xlink="http://www.w3.org/1999/xlink" aria-hidden="true" role="img" class="iconify iconify--ph" width="1em" height="1em" preserveAspectRatio="xMidYMid meet" viewBox="0 0 256 256"><path fill="currentColor" d="M216 152v64a8 8 0 0 1-8 8H48a8 8 0 0 1-8-8v-64a8 8 0 0 1 16 0v56h144v-56a8 8 0 0 1 16 0ZM88 184h80a8 8 0 0 0 0-16H88a8 8 0 0 0 0 16Zm4.9-53.1l77.3 20.7a6.4 6.4 0 0 0 2 .3a8 8 0 0 0 2.1-15.7L97 115.5a8 8 0 1 0-4.1 15.4Zm18.4-50l69.3 40a7.3 7.3 0 0 0 4 1.1a7.7 7.7 0 0 0 6.9-4a7.9 7.9 0 0 0-2.9-10.9l-69.3-40a8 8 0 0 0-8 13.8ZM198.7 94a8 8 0 0 0 5.6 2.3A8.3 8.3 0 0 0 210 94a8 8 0 0 0 0-11.3l-56.6-56.6a8 8 0 0 0-11.3 11.3Z"></path></svg>