<svg xmlns="http://www.w3.org/2000/svg" xmlns:xlink="http://www.w3.org/1999/xlink" aria-hidden="true" role="img" class="iconify iconify--ph" width="1em" height="1em" preserveAspectRatio="xMidYMid meet" viewBox="0 0 256 256"><path fill="currentColor" d="m10 110.4l112 64a12.1 12.1 0 0 0 12 0l112-64a12 12 0 0 0 0-20.8l-112-64a12.2 12.2 0 0 0-12 0l-112 64a12 12 0 0 0 0 20.8Zm118-60.6l87.8 50.2l-87.8 50.2L40.2 100ZM250.4 142a12 12 0 0 1-4.4 16.4l-112 64a12 12 0 0 1-12 0l-112-64a12 12 0 1 1 12-20.8l106 60.6l106-60.6a12 12 0 0 1 16.4 4.4Z"></path></svg>