<svg xmlns="http://www.w3.org/2000/svg" xmlns:xlink="http://www.w3.org/1999/xlink" aria-hidden="true" role="img" class="iconify iconify--ph" width="1em" height="1em" preserveAspectRatio="xMidYMid meet" viewBox="0 0 256 256"><path fill="currentColor" d="M229.2 173a6 6 0 0 1-2.2 8.2l-96 56a6 6 0 0 1-6 0l-96-56a6 6 0 1 1 6-10.4l93 54.3l93-54.3a6 6 0 0 1 8.2 2.2Zm-8.2-50.2l-93 54.3l-93-54.3a6 6 0 1 0-6 10.4l96 56a6 6 0 0 0 6 0l96-56a6 6 0 0 0-6-10.4ZM26 80a6 6 0 0 1 3-5.2l96-56a5.9 5.9 0 0 1 6 0l96 56a6 6 0 0 1 0 10.4l-96 56a6 6 0 0 1-6 0l-96-56a6 6 0 0 1-3-5.2Zm17.9 0l84.1 49.1L212.1 80L128 30.9Z"></path></svg>