<svg xmlns="http://www.w3.org/2000/svg" xmlns:xlink="http://www.w3.org/1999/xlink" aria-hidden="true" role="img" class="iconify iconify--ph" width="1em" height="1em" preserveAspectRatio="xMidYMid meet" viewBox="0 0 256 256"><path fill="currentColor" d="m13 109.2l112 64a6 6 0 0 0 6 0l112-64a6 6 0 0 0 0-10.4l-112-64a5.9 5.9 0 0 0-6 0l-112 64a6 6 0 0 0 0 10.4Zm115-62.3l99.9 57.1l-99.9 57.1L28.1 104ZM245.2 141a5.9 5.9 0 0 1-2.2 8.2l-112 64a6 6 0 0 1-6 0l-112-64a6 6 0 1 1 6-10.4l109 62.3l109-62.3a5.9 5.9 0 0 1 8.2 2.2Z"></path></svg>