<svg xmlns="http://www.w3.org/2000/svg" xmlns:xlink="http://www.w3.org/1999/xlink" aria-hidden="true" role="img" class="iconify iconify--ph" width="1em" height="1em" preserveAspectRatio="xMidYMid meet" viewBox="0 0 256 256"><path fill="currentColor" d="M214 152v64a6 6 0 0 1-6 6H48a6 6 0 0 1-6-6v-64a6 6 0 0 1 12 0v58h148v-58a6 6 0 0 1 12 0ZM88 182h80a6 6 0 0 0 0-12H88a6 6 0 0 0 0 12Zm5.4-53l77.3 20.7l1.5.2a6 6 0 0 0 1.6-11.8l-77.3-20.7a5.9 5.9 0 0 0-7.3 4.2a6 6 0 0 0 4.2 7.4Zm18.9-49.8l69.3 40a6.7 6.7 0 0 0 3 .8a6 6 0 0 0 3-11.2l-69.3-40a6 6 0 0 0-8.2 2.2a6.1 6.1 0 0 0 2.2 8.2Zm87.8 13.4a6.1 6.1 0 0 0 4.2 1.7a6.3 6.3 0 0 0 4.3-1.7a6.1 6.1 0 0 0 0-8.5L152 27.5a6 6 0 0 0-8.5 8.5Z"></path></svg>