<svg xmlns="http://www.w3.org/2000/svg" xmlns:xlink="http://www.w3.org/1999/xlink" aria-hidden="true" role="img" class="iconify iconify--ph" width="1em" height="1em" preserveAspectRatio="xMidYMid meet" viewBox="0 0 256 256"><path fill="currentColor" d="m16 104l112 64l112-64l-112-64l-112 64z" opacity=".2"></path><path fill="currentColor" d="m12 110.9l112 64a7.8 7.8 0 0 0 8 0l112-64a8 8 0 0 0 0-13.8l-112-64a7.7 7.7 0 0 0-8 0l-112 64a8 8 0 0 0 0 13.8Zm116-61.7l95.9 54.8l-95.9 54.8L32.1 104Z"></path><path fill="currentColor" d="m236 137.1l-108 61.7l-108-61.7a8 8 0 0 0-8 13.8l112 64a7.8 7.8 0 0 0 8 0l112-64a8 8 0 1 0-8-13.8Z"></path></svg>