<svg xmlns="http://www.w3.org/2000/svg" xmlns:xlink="http://www.w3.org/1999/xlink" aria-hidden="true" role="img" class="iconify iconify--ph" width="1em" height="1em" preserveAspectRatio="xMidYMid meet" viewBox="0 0 256 256"><path fill="currentColor" d="m32 80l96 56l96-56l-96-56l-96 56z" opacity=".2"></path><path fill="currentColor" d="m220 169.1l-92 53.6l-92-53.6a8 8 0 0 0-8 13.8l96 56a7.8 7.8 0 0 0 8 0l96-56a8 8 0 1 0-8-13.8Z"></path><path fill="currentColor" d="m220 121.1l-92 53.6l-92-53.6a8 8 0 0 0-8 13.8l96 56a7.8 7.8 0 0 0 8 0l96-56a8 8 0 1 0-8-13.8Z"></path><path fill="currentColor" d="m28 86.9l96 56a7.8 7.8 0 0 0 8 0l96-56a8 8 0 0 0 0-13.8l-96-56a7.7 7.7 0 0 0-8 0l-96 56a8 8 0 0 0 0 13.8Zm100-53.6L208.1 80L128 126.7L47.9 80Z"></path></svg>