<svg xmlns="http://www.w3.org/2000/svg" xmlns:xlink="http://www.w3.org/1999/xlink" aria-hidden="true" role="img" class="iconify iconify--ph" width="1em" height="1em" preserveAspectRatio="xMidYMid meet" viewBox="0 0 256 256"><path fill="currentColor" d="M228 224a12 12 0 0 1-12 12H40a12 12 0 0 1 0-24h176a12 12 0 0 1 12 12Zm0-80v32a20.1 20.1 0 0 1-20 20H48a20.1 20.1 0 0 1-20-20v-32a20.1 20.1 0 0 1 20-20h49.2L82.5 55.5A36 36 0 0 1 117.7 12h20.6a36 36 0 0 1 35.2 43.5L158.8 124H208a20.1 20.1 0 0 1 20 20Zm-106.3-20h12.6L150 50.5a11.7 11.7 0 0 0-2.4-10a11.5 11.5 0 0 0-9.3-4.5h-20.6a11.5 11.5 0 0 0-9.3 4.5a11.7 11.7 0 0 0-2.4 10Zm82.3 24H52v24h152Z"></path></svg>