<svg xmlns="http://www.w3.org/2000/svg" xmlns:xlink="http://www.w3.org/1999/xlink" aria-hidden="true" role="img" class="iconify iconify--ph" width="1em" height="1em" preserveAspectRatio="xMidYMid meet" viewBox="0 0 256 256"><path fill="currentColor" d="M161.8 53L144 136h-32L94.2 53a24 24 0 0 1 23.5-29h20.6a24 24 0 0 1 23.5 29Z" opacity=".2"></path><path fill="currentColor" d="M224 224a8 8 0 0 1-8 8H40a8 8 0 0 1 0-16h176a8 8 0 0 1 8 8Zm0-80v40a16 16 0 0 1-16 16H48a16 16 0 0 1-16-16v-40a16 16 0 0 1 16-16h54.1L86.4 54.7A32 32 0 0 1 117.7 16h20.6a32 32 0 0 1 31.3 38.7L153.9 128H208a16 16 0 0 1 16 16Zm-105.5-16h19L154 51.4A16 16 0 0 0 138.3 32h-20.6A16 16 0 0 0 102 51.4Zm89.5 56v-40H48v40Z"></path></svg>