<svg xmlns="http://www.w3.org/2000/svg" xmlns:xlink="http://www.w3.org/1999/xlink" aria-hidden="true" role="img" class="iconify iconify--ph" width="1em" height="1em" preserveAspectRatio="xMidYMid meet" viewBox="0 0 256 256"><path fill="currentColor" d="M220 224a4 4 0 0 1-4 4H40a4 4 0 0 1 0-8h176a4 4 0 0 1 4 4Zm0-80v40a12 12 0 0 1-12 12H48a12 12 0 0 1-12-12v-40a12 12 0 0 1 12-12h59.1L90.3 53.9A28 28 0 0 1 117.7 20h20.6a28 28 0 0 1 27.4 33.9L148.9 132H208a12 12 0 0 1 12 12Zm-104.8-12h25.6l17.1-79.8a20.3 20.3 0 0 0-4-16.8a20 20 0 0 0-15.6-7.4h-20.6a20 20 0 0 0-15.6 7.4a20.3 20.3 0 0 0-4 16.8Zm96.8 12a4 4 0 0 0-4-4H48a4 4 0 0 0-4 4v40a4 4 0 0 0 4 4h160a4 4 0 0 0 4-4Z"></path></svg>