<svg xmlns="http://www.w3.org/2000/svg" xmlns:xlink="http://www.w3.org/1999/xlink" aria-hidden="true" role="img" class="iconify iconify--ph" width="1em" height="1em" preserveAspectRatio="xMidYMid meet" viewBox="0 0 256 256"><path fill="currentColor" d="M187.3 228a12.3 12.3 0 0 1-6.6-1.9l-50.4-32a4.3 4.3 0 0 0-4.6 0l-46.8 29.7a13.7 13.7 0 0 1-15.6-.5a14.4 14.4 0 0 1-5.5-15.3l13.5-53.1a4.8 4.8 0 0 0-1.5-4.9l-45.2-37.6a12.7 12.7 0 0 1-4-13.7a12.5 12.5 0 0 1 11-8.7l59.1-3.8a4.6 4.6 0 0 0 3.8-2.8l22-55.5a12.3 12.3 0 0 1 23 0l22 55.5a4.6 4.6 0 0 0 3.8 2.8l59.1 3.8a12.5 12.5 0 0 1 11 8.7a12.7 12.7 0 0 1-4 13.7L186.2 150a4.8 4.8 0 0 0-1.5 4.9l14.6 57.3a12.5 12.5 0 0 1-4.9 13.4a11.7 11.7 0 0 1-7.1 2.4ZM128 185.4a12.4 12.4 0 0 1 6.6 2l50.4 31.9a4 4 0 0 0 4.7-.1a4.6 4.6 0 0 0 1.8-5l-14.6-57.4a12.9 12.9 0 0 1 4.2-12.9l45.2-37.6a4.7 4.7 0 0 0 1.4-5.2a4.2 4.2 0 0 0-3.8-3.1l-59.1-3.8a12.5 12.5 0 0 1-10.7-7.9l-22-55.5a4.4 4.4 0 0 0-8.2 0l-22 55.5a12.5 12.5 0 0 1-10.7 7.9L32.1 98a4.5 4.5 0 0 0-3.9 3.1a5 5 0 0 0 1.5 5.2l45.2 37.6a12.9 12.9 0 0 1 4.2 12.9L65.6 210a6.1 6.1 0 0 0 2.4 6.8a5.6 5.6 0 0 0 6.6.2l46.8-29.6a12.4 12.4 0 0 1 6.6-2Z"></path></svg>