<svg xmlns="http://www.w3.org/2000/svg" xmlns:xlink="http://www.w3.org/1999/xlink" aria-hidden="true" role="img" class="iconify iconify--ph" width="1em" height="1em" preserveAspectRatio="xMidYMid meet" viewBox="0 0 256 256"><path fill="currentColor" d="m236.6 118.6l-8.8 7.2a11.5 11.5 0 0 1-7.6 2.8a12.2 12.2 0 0 1-9.3-4.3a12 12 0 0 1 1.6-16.9l2.3-2l-3-.2a12 12 0 1 1 1.5-23.9l11.6.7A20.5 20.5 0 0 1 243 96.2a20.9 20.9 0 0 1-6.4 22.4Zm-32.4 80.7a12 12 0 1 0-23.2 5.9l.6 2.5l-2.2-1.4a12 12 0 0 0-12.8 20.3l9.8 6.2a20.6 20.6 0 0 0 10.9 3.2a19.9 19.9 0 0 0 11.8-3.9a20.6 20.6 0 0 0 7.9-21.9ZM176 137.7a20.9 20.9 0 0 0-6.8 21.1l1.2 4.7a12 12 0 0 0 11.6 9a15.3 15.3 0 0 0 3-.3a12 12 0 0 0 8.6-14.6l-.7-2.7l1.8-1.5a12 12 0 1 0-15.3-18.5Zm-36-65.2v108.8l3.1 2a12 12 0 0 1 3.7 16.5a12.1 12.1 0 0 1-16.6 3.8l-2.2-1.5l-44.9 28.5a21.7 21.7 0 0 1-24.5-.8a22.4 22.4 0 0 1-8.6-23.7l13.1-51.2l-43.7-36.3A20.9 20.9 0 0 1 13 96.2A20.5 20.5 0 0 1 31.1 82l56.8-3.6l21.2-53.5a20.3 20.3 0 0 1 37.8 0l21.2 53.5h2.3a12 12 0 1 1-1.6 24l-4.5-.3a20.5 20.5 0 0 1-17.6-12.9Zm-24 108.8V72.5l-6.7 16.8a20.5 20.5 0 0 1-17.6 12.9l-50.5 3.2L80 137.7a20.9 20.9 0 0 1 6.8 21.1l-12.4 48.9Z"></path></svg>