<svg xmlns="http://www.w3.org/2000/svg" xmlns:xlink="http://www.w3.org/1999/xlink" aria-hidden="true" role="img" class="iconify iconify--ph" width="1em" height="1em" preserveAspectRatio="xMidYMid meet" viewBox="0 0 256 256"><path fill="currentColor" d="M187.3 230a15.2 15.2 0 0 1-7.7-2.2l-50.4-32a2.1 2.1 0 0 0-2.4 0l-46.9 29.7a15.5 15.5 0 0 1-17.8-.6a16.2 16.2 0 0 1-6.2-17.4l13.5-53.1a2.8 2.8 0 0 0-.9-2.8l-45.2-37.7A14.7 14.7 0 0 1 18.7 98a14.5 14.5 0 0 1 12.8-10l59.1-3.8a2.4 2.4 0 0 0 2-1.6l22-55.4a14.4 14.4 0 0 1 26.8 0l22 55.4a2.4 2.4 0 0 0 2 1.6l59.1 3.8a14.5 14.5 0 0 1 12.8 10a14.7 14.7 0 0 1-4.6 15.9l-45.2 37.7a2.8 2.8 0 0 0-.9 2.8l14.6 57.3a14.7 14.7 0 0 1-5.6 15.6a14.2 14.2 0 0 1-8.3 2.7ZM128 183.5a13.7 13.7 0 0 1 7.6 2.2l50.5 31.9a2.1 2.1 0 0 0 2.5-.1a2.7 2.7 0 0 0 1-2.9L175 157.3a14.7 14.7 0 0 1 4.8-14.9l45.2-37.7a2.5 2.5 0 0 0 .8-2.9a2.3 2.3 0 0 0-2.1-1.8l-59-3.8a14.8 14.8 0 0 1-12.5-9.1l-22-55.5a2.3 2.3 0 0 0-4.4 0l-22 55.5a14.8 14.8 0 0 1-12.5 9.1l-59 3.8a2.3 2.3 0 0 0-2.1 1.8a2.5 2.5 0 0 0 .8 2.9l45.2 37.7a14.7 14.7 0 0 1 4.8 14.9l-13.5 53.2a4.4 4.4 0 0 0 1.6 4.7a3.9 3.9 0 0 0 4.4.2l46.9-29.7a13.7 13.7 0 0 1 7.6-2.2Z"></path></svg>