<svg xmlns="http://www.w3.org/2000/svg" xmlns:xlink="http://www.w3.org/1999/xlink" aria-hidden="true" role="img" class="iconify iconify--ph" width="1em" height="1em" preserveAspectRatio="xMidYMid meet" viewBox="0 0 256 256"><path fill="currentColor" d="m234 115.5l-8.7 7.2a7.7 7.7 0 0 1-5.1 1.9a8 8 0 0 1-5.2-14.2l8.8-7.2c.1-.1.3-.3.1-.8s-.2-.4-.3-.4l-11.5-.7a8 8 0 0 1 1-16l11.5.7a16.4 16.4 0 0 1 14.6 11.4a16.8 16.8 0 0 1-5.2 18.1Zm-60.9 42.3l3.3 13.1a7.9 7.9 0 0 0 7.7 6a6.9 6.9 0 0 0 2-.3a8 8 0 0 0 5.8-9.7l-3.3-13a.8.8 0 0 1 .2-.8l10-8.3a8 8 0 0 0 1-11.3a7.8 7.8 0 0 0-11.2-1l-10.1 8.3a16.8 16.8 0 0 0-5.4 17Zm4.6-58.8l-13.2-.8a16.4 16.4 0 0 1-14.1-10.4L136 51.6v132l.7.4l11.5 7.3a8 8 0 1 1-8.6 13.5l-11.5-7.3h-.2L81 227.2a17.6 17.6 0 0 1-9.6 2.8a18.2 18.2 0 0 1-17.5-23l13.5-53.1a.8.8 0 0 0-.2-.8L22 115.5a16.8 16.8 0 0 1-5.2-18.1A16.4 16.4 0 0 1 31.4 86l59-3.8a.5.5 0 0 0 .4-.3l22-55.5a16.3 16.3 0 0 1 30.4 0l22 55.5a.5.5 0 0 0 .4.3l13.1.9a8 8 0 1 1-1 15.9Zm-58.4 85l.7-.4v-132l-14.4 36.2a16.4 16.4 0 0 1-14.1 10.4L32.4 102c-.1 0-.2 0-.3.4s0 .7.1.8l45.3 37.6a16.8 16.8 0 0 1 5.4 17L69.4 211a2.5 2.5 0 0 0 .9 2.6a1.6 1.6 0 0 0 2.1.1Zm81.1 16.3a8.1 8.1 0 0 0-9.8-5.8a8 8 0 0 0-5.7 9.7l2.7 10.9c.1.4.1.5 0 .6a.7.7 0 0 1-.3.3h-.2l-9.8-6.2a8 8 0 0 0-8.6 13.5l9.9 6.2a16.1 16.1 0 0 0 8.7 2.6a16.8 16.8 0 0 0 9.5-3.1a16.6 16.6 0 0 0 6.3-17.7Z"></path></svg>