<svg xmlns="http://www.w3.org/2000/svg" xmlns:xlink="http://www.w3.org/1999/xlink" aria-hidden="true" role="img" class="iconify iconify--ph" width="1em" height="1em" preserveAspectRatio="xMidYMid meet" viewBox="0 0 256 256"><path fill="currentColor" d="M128 24v165.4a8.7 8.7 0 0 0-4.4 1.3l-46.9 29.7c-7.7 4.9-17.3-2.4-15-11.4l13.5-53.2a8.7 8.7 0 0 0-2.9-8.8l-45.2-37.7c-5.9-4.9-2.9-14.8 4.8-15.3l59-3.8a8.3 8.3 0 0 0 7.3-5.4l22-55.4A8.3 8.3 0 0 1 128 24Zm0 0Z" opacity=".2"></path><path fill="currentColor" d="M239.2 97.4A16.4 16.4 0 0 0 224.6 86l-59-3.8a.5.5 0 0 1-.4-.3l-22-55.5a16.3 16.3 0 0 0-30.4 0l-22 55.5a.5.5 0 0 1-.4.3l-59 3.8a16.4 16.4 0 0 0-14.6 11.4a16.8 16.8 0 0 0 5.2 18.1l45.2 37.6a.8.8 0 0 1 .2.8L53.9 207a18.6 18.6 0 0 0 7 19.6a18 18 0 0 0 20.1.6l46.9-29.7h.2l50.5 31.9a16.1 16.1 0 0 0 8.7 2.6a16.8 16.8 0 0 0 9.5-3.1a16.6 16.6 0 0 0 6.3-17.7l-14.5-57.3a.8.8 0 0 1 .2-.8l45.2-37.6a16.8 16.8 0 0 0 5.2-18.1ZM72.4 213.7a1.6 1.6 0 0 1-2.1-.1a2.5 2.5 0 0 1-.9-2.6l13.5-53.2a16.8 16.8 0 0 0-5.4-17l-45.3-37.6c-.1-.1-.3-.3-.1-.8s.2-.4.3-.4l59.1-3.8a16.4 16.4 0 0 0 14.1-10.4L120 51.6v132l-.7.4Zm151.4-110.5l-45.3 37.6a16.8 16.8 0 0 0-5.4 17l14.5 57.3c.1.4.1.5 0 .6a.7.7 0 0 1-.3.3h-.2l-50.4-32l-.7-.4v-132l14.4 36.2a16.4 16.4 0 0 0 14.1 10.4l59.1 3.8c.1 0 .2 0 .3.4s0 .7-.1.8Z"></path></svg>