<svg xmlns="http://www.w3.org/2000/svg" xmlns:xlink="http://www.w3.org/1999/xlink" aria-hidden="true" role="img" class="iconify iconify--ph" width="1em" height="1em" preserveAspectRatio="xMidYMid meet" viewBox="0 0 256 256"><path fill="currentColor" d="m231.4 109.2l-62-22.6l-22.6-62a20 20 0 0 0-37.6 0l-22.6 62l-62 22.6a20 20 0 0 0 0 37.6l62 22.6l22.6 62a20 20 0 0 0 37.6 0l22.6-62l62-22.6a20 20 0 0 0 0-37.6Zm-72 38.2a20.3 20.3 0 0 0-12 12L128 212.9l-19.4-53.5a20.3 20.3 0 0 0-12-12L43.1 128l53.5-19.4a20.3 20.3 0 0 0 12-12L128 43.1l19.4 53.5a20.3 20.3 0 0 0 12 12l53.5 19.4Z"></path></svg>