<svg xmlns="http://www.w3.org/2000/svg" xmlns:xlink="http://www.w3.org/1999/xlink" aria-hidden="true" role="img" class="iconify iconify--ph" width="1em" height="1em" preserveAspectRatio="xMidYMid meet" viewBox="0 0 256 256"><path fill="currentColor" d="m230.1 113l-63.9-23.2L143 25.9a16 16 0 0 0-30 0L89.8 89.8L25.9 113a16 16 0 0 0 0 30l63.9 23.2l23.2 63.9a16 16 0 0 0 30 0l23.2-63.9l63.9-23.2a16 16 0 0 0 0-30Zm-69.3 38.2a15.7 15.7 0 0 0-9.6 9.6L128 224.6l-23.2-63.8a15.7 15.7 0 0 0-9.6-9.6L31.4 128l63.8-23.2a15.7 15.7 0 0 0 9.6-9.6L128 31.4l23.2 63.8a15.7 15.7 0 0 0 9.6 9.6l63.8 23.2Z"></path></svg>