<svg xmlns="http://www.w3.org/2000/svg" xmlns:xlink="http://www.w3.org/1999/xlink" aria-hidden="true" role="img" class="iconify iconify--ph" width="1em" height="1em" preserveAspectRatio="xMidYMid meet" viewBox="0 0 256 256"><path fill="currentColor" d="M220 136V88a52 52 0 0 0-52-52H88a52 52 0 0 0-52 52v80a52 52 0 0 0 52 52h49.3c25.4-8.5 74-57.1 82.5-82.5a.4.4 0 0 1 .1-.3v-.3a1.7 1.7 0 0 0 .1-.9ZM44 168V88a44 44 0 0 1 44-44h80a44 44 0 0 1 44 44v44h-28a52 52 0 0 0-52 52v28H88a44 44 0 0 1-44-44Zm96 42v-26a44 44 0 0 1 44-44h26c-11.1 22.2-47.8 58.9-70 70Z"></path></svg>