<svg xmlns="http://www.w3.org/2000/svg" xmlns:xlink="http://www.w3.org/1999/xlink" aria-hidden="true" role="img" class="iconify iconify--ph" width="1em" height="1em" preserveAspectRatio="xMidYMid meet" viewBox="0 0 256 256"><path fill="currentColor" d="M223.9 137.2a4.9 4.9 0 0 0 .1-1.2V88a56 56 0 0 0-56-56H88a56 56 0 0 0-56 56v80a56 56 0 0 0 56 56h49.4l1.1-.3c26.3-8.8 76.3-58.8 85.1-85.1l.3-1.1ZM48 168V88a40 40 0 0 1 40-40h80a40 40 0 0 1 40 40v40h-24a56 56 0 0 0-56 56v24H88a40 40 0 0 1-40-40Zm96 35.1V184a40 40 0 0 1 40-40h19.1c-12.1 19.5-39.6 47-59.1 59.1Z"></path></svg>