<svg xmlns="http://www.w3.org/2000/svg" xmlns:xlink="http://www.w3.org/1999/xlink" aria-hidden="true" role="img" class="iconify iconify--ph" width="1em" height="1em" preserveAspectRatio="xMidYMid meet" viewBox="0 0 256 256"><path fill="currentColor" d="M221.9 136.9a2.8 2.8 0 0 0 .1-.9V88a54 54 0 0 0-54-54H88a54 54 0 0 0-54 54v80a54 54 0 0 0 54 54h49l.9-.2c25.8-8.6 75.2-58 83.8-83.8a2.9 2.9 0 0 0 .2-.9ZM46 168V88a42 42 0 0 1 42-42h80a42 42 0 0 1 42 42v42h-26a54 54 0 0 0-54 54v26H88a42 42 0 0 1-42-42Zm96 38.7V184a42 42 0 0 1 42-42h22.7c-11.9 21.1-43.6 52.8-64.7 64.7Z"></path></svg>