<svg xmlns="http://www.w3.org/2000/svg" xmlns:xlink="http://www.w3.org/1999/xlink" aria-hidden="true" role="img" class="iconify iconify--ph" width="1em" height="1em" preserveAspectRatio="xMidYMid meet" viewBox="0 0 256 256"><path fill="currentColor" d="M227.7 138.7a4.3 4.3 0 0 1 .1-.5c0-.2.1-.5.1-.7v-.4a4.1 4.1 0 0 0 .1-1.1V88a60 60 0 0 0-60-60H88a60 60 0 0 0-60 60v80a60 60 0 0 0 60 60h50.6l.6-.2h.6c27.6-9.2 78.4-60 87.6-87.6a.7.7 0 0 0 .1-.5a1.7 1.7 0 0 0 .2-1ZM52 168V88a36 36 0 0 1 36-36h80a36 36 0 0 1 36 36v36h-20a60 60 0 0 0-60 60v20H88a36 36 0 0 1-36-36Zm96 27.6V184a36 36 0 0 1 36-36h11.6c-11.6 16.1-31.5 36-47.6 47.6Z"></path></svg>