<svg xmlns="http://www.w3.org/2000/svg" xmlns:xlink="http://www.w3.org/1999/xlink" aria-hidden="true" role="img" class="iconify iconify--ph" width="1em" height="1em" preserveAspectRatio="xMidYMid meet" viewBox="0 0 256 256"><path fill="currentColor" d="M197.1 208H58.9A10.9 10.9 0 0 1 48 197.1V58.9A10.9 10.9 0 0 1 58.9 48h138.2A10.9 10.9 0 0 1 208 58.9v138.2a10.9 10.9 0 0 1-10.9 10.9ZM58.9 56a2.9 2.9 0 0 0-2.9 2.9v138.2a2.9 2.9 0 0 0 2.9 2.9h138.2a2.9 2.9 0 0 0 2.9-2.9V58.9a2.9 2.9 0 0 0-2.9-2.9Z"></path></svg>