<svg xmlns="http://www.w3.org/2000/svg" xmlns:xlink="http://www.w3.org/1999/xlink" aria-hidden="true" role="img" class="iconify iconify--ph" width="1em" height="1em" preserveAspectRatio="xMidYMid meet" viewBox="0 0 256 256"><path fill="currentColor" d="M230 95.8v-.2c0-.2 0-.3-.1-.4v-.3c0-.1-.1-.3-.1-.4l-14.4-50.3A14 14 0 0 0 202 34H54a14 14 0 0 0-13.4 10.2L26.2 94.4c0 .1-.1.3-.1.4v.3c-.1.1-.1.2-.1.4V112a37.9 37.9 0 0 0 16 31v65a14 14 0 0 0 14 14h144a14 14 0 0 0 14-14v-65a37.9 37.9 0 0 0 16-31V95.8ZM52.1 47.5A2 2 0 0 1 54 46h148a2 2 0 0 1 1.9 1.5L216 90H40ZM102 102h52v10a26 26 0 0 1-52 0Zm-64 0h52v10a26.1 26.1 0 0 1-26 26a26.5 26.5 0 0 1-12.2-3a5.4 5.4 0 0 0-1.6-1A26 26 0 0 1 38 112Zm164 106a2 2 0 0 1-2 2H56a2 2 0 0 1-2-2v-59.3a40.9 40.9 0 0 0 10 1.3a38.1 38.1 0 0 0 32-17.5a38 38 0 0 0 64 0a38.1 38.1 0 0 0 32 17.5a40.9 40.9 0 0 0 10-1.3Zm3.8-74a5.4 5.4 0 0 0-1.6 1a26.5 26.5 0 0 1-12.2 3a26.1 26.1 0 0 1-26-26v-10h52v10a26 26 0 0 1-12.2 22Z"></path></svg>