<svg xmlns="http://www.w3.org/2000/svg" xmlns:xlink="http://www.w3.org/1999/xlink" aria-hidden="true" role="img" class="iconify iconify--ph" width="1em" height="1em" preserveAspectRatio="xMidYMid meet" viewBox="0 0 256 256"><path fill="currentColor" d="M228 95.9v-.3a1.3 1.3 0 0 1-.1-.6h-.1l-14.3-50.3A12.1 12.1 0 0 0 202 36H54a12.1 12.1 0 0 0-11.5 8.7L28.2 94.9h-.1a1.3 1.3 0 0 1-.1.6v16.3a35.9 35.9 0 0 0 16 29.9V208a12 12 0 0 0 12 12h144a12 12 0 0 0 12-12v-66.1a35.9 35.9 0 0 0 16-29.9V96Zm-177.8-49A4.1 4.1 0 0 1 54 44h148a4.1 4.1 0 0 1 3.8 2.9L218.7 92H37.3ZM100 100h56v12a28 28 0 0 1-56 0Zm-64 12v-12h56v12a28.1 28.1 0 0 1-28 28a27.8 27.8 0 0 1-13.4-3.4a5.7 5.7 0 0 0-1.3-.8A27.8 27.8 0 0 1 36 112Zm168 96a4 4 0 0 1-4 4H56a4 4 0 0 1-4-4v-62.1a34.4 34.4 0 0 0 12 2.1a36 36 0 0 0 32-19.5a36 36 0 0 0 64 0a36 36 0 0 0 32 19.5a34.4 34.4 0 0 0 12-2.1Zm2.7-72.2a5.7 5.7 0 0 0-1.3.8A27.8 27.8 0 0 1 192 140a28.1 28.1 0 0 1-28-28v-12h56v12a27.8 27.8 0 0 1-13.3 23.8Z"></path></svg>