<svg xmlns="http://www.w3.org/2000/svg" xmlns:xlink="http://www.w3.org/1999/xlink" aria-hidden="true" role="img" class="iconify iconify--ph" width="1em" height="1em" preserveAspectRatio="xMidYMid meet" viewBox="0 0 256 256"><path fill="currentColor" d="M236 95.7v-.5a2.8 2.8 0 0 1-.1-.9v-.4c-.1-.3-.1-.7-.2-1a.3.3 0 0 0-.1-.2v-.3l-14.4-49.9A20.1 20.1 0 0 0 202 28H54a20.1 20.1 0 0 0-19.2 14.5L20.5 92.4v.3a.3.3 0 0 0-.1.2c-.1.3-.1.7-.2 1v.4a2.8 2.8 0 0 1-.1.9V112a43.9 43.9 0 0 0 16 33.9V208a20.1 20.1 0 0 0 20 20H200a20.1 20.1 0 0 0 20-20v-62.1a43.9 43.9 0 0 0 16-33.9V95.7ZM212 112a20 20 0 0 1-9 16.7a11.8 11.8 0 0 0-1.9 1.1a19.7 19.7 0 0 1-9.1 2.2a20.1 20.1 0 0 1-20-20v-4h40ZM54.9 129.8a11.8 11.8 0 0 0-1.9-1.1a20 20 0 0 1-9-16.7v-4h40v4a20 20 0 0 1-29.1 17.8ZM108 108h40v4a20 20 0 0 1-40 0ZM57.1 52h141.8l9.2 32H47.9ZM196 204H60v-48.2l4 .2a43.8 43.8 0 0 0 32-13.8a44 44 0 0 0 64 0a43.8 43.8 0 0 0 32 13.8l4-.2Z"></path></svg>