<svg xmlns="http://www.w3.org/2000/svg" xmlns:xlink="http://www.w3.org/1999/xlink" aria-hidden="true" role="img" class="iconify iconify--ph" width="1em" height="1em" preserveAspectRatio="xMidYMid meet" viewBox="0 0 256 256"><path fill="currentColor" d="M232 95.8v-.4a4.3 4.3 0 0 1-.1-.5v-.3c-.1-.2-.1-.4-.2-.6v-.2l-14.3-50.2A16.2 16.2 0 0 0 202 32H54a16.2 16.2 0 0 0-15.4 11.6L24.3 93.8v.2c-.1.2-.1.4-.2.6v.3a4.3 4.3 0 0 1-.1.5V112a40 40 0 0 0 16 32v64a16 16 0 0 0 16 16h144a16 16 0 0 0 16-16v-64a40 40 0 0 0 16-32V95.8ZM40 104h48v8a24 24 0 0 1-35.1 21.3a8.7 8.7 0 0 0-1.8-1.1A23.9 23.9 0 0 1 40 112Zm112 8a24 24 0 0 1-48 0v-8h48Zm52.9 20.2a8.7 8.7 0 0 0-1.8 1.1A24 24 0 0 1 168 112v-8h48v8a23.9 23.9 0 0 1-11.1 20.2Z"></path></svg>