<svg xmlns="http://www.w3.org/2000/svg" xmlns:xlink="http://www.w3.org/1999/xlink" aria-hidden="true" role="img" class="iconify iconify--ph" width="1em" height="1em" preserveAspectRatio="xMidYMid meet" viewBox="0 0 256 256"><path fill="currentColor" d="M96 96v16a32 32 0 0 1-64 0V96m192 0v16a32 32 0 0 1-64 0V96" opacity=".2"></path><path fill="currentColor" d="M232 95.8v-.4a4.3 4.3 0 0 1-.1-.5v-.3c-.1-.2-.1-.4-.2-.6v-.2l-14.3-50.2A16.2 16.2 0 0 0 202 32H54a16.2 16.2 0 0 0-15.4 11.6L24.3 93.8v.2c-.1.2-.1.4-.2.6v.3a4.3 4.3 0 0 1-.1.5V112a40 40 0 0 0 16 32v64a16 16 0 0 0 16 16h144a16 16 0 0 0 16-16v-64a40 40 0 0 0 16-32V95.8ZM54 48h148l11.4 40H42.6Zm50 56h48v8a24 24 0 0 1-48 0Zm-16 0v8a24 24 0 0 1-35.1 21.3a8.7 8.7 0 0 0-1.8-1.1A23.9 23.9 0 0 1 40 112v-8Zm112 104H56v-56.8a42.6 42.6 0 0 0 8 .8a40 40 0 0 0 32-16a40 40 0 0 0 64 0a40 40 0 0 0 32 16a42.6 42.6 0 0 0 8-.8Zm4.9-75.8a8.7 8.7 0 0 0-1.8 1.1A24 24 0 0 1 168 112v-8h48v8a23.9 23.9 0 0 1-11.1 20.2Z"></path></svg>