<svg xmlns="http://www.w3.org/2000/svg" xmlns:xlink="http://www.w3.org/1999/xlink" aria-hidden="true" role="img" class="iconify iconify--ph" width="1em" height="1em" preserveAspectRatio="xMidYMid meet" viewBox="0 0 256 256"><path fill="currentColor" d="M96 188a28 28 0 1 1-28-28a28 28 0 0 1 28 28Z" opacity=".2"></path><path fill="currentColor" d="M68 152a36 36 0 1 0 36 36a36 36 0 0 0-36-36Zm0 56a20 20 0 1 1 20-20a20.1 20.1 0 0 1-20 20ZM34.3 106.3L48.7 92L34.3 77.7a8.1 8.1 0 0 1 11.4-11.4L60 80.7l14.3-14.4a8.1 8.1 0 0 1 11.4 11.4L71.3 92l14.4 14.3a8.1 8.1 0 0 1 0 11.4a8.2 8.2 0 0 1-11.4 0L60 103.3l-14.3 14.4a8.2 8.2 0 0 1-11.4 0a8.1 8.1 0 0 1 0-11.4Zm187.4 96a8.1 8.1 0 0 1 0 11.4a8.2 8.2 0 0 1-11.4 0L196 199.3l-14.3 14.4a8.2 8.2 0 0 1-11.4 0a8.1 8.1 0 0 1 0-11.4l14.4-14.3l-14.4-14.3a8.1 8.1 0 0 1 11.4-11.4l14.3 14.4l14.3-14.4a8.1 8.1 0 0 1 11.4 11.4L207.3 188Zm-45.2-89.5c-6.2 22.4-25.3 41.7-46.6 47l-1.9.2a8 8 0 0 1-7.8-6.1a8.1 8.1 0 0 1 5.9-9.7c15.6-3.9 30.3-18.9 35-35.6c3.1-11.5 3.2-29-14.8-46.9l-2.3-2.4V80a8 8 0 0 1-16 0V40a8 8 0 0 1 8-8h40a8 8 0 0 1 0 16h-20.7l2.4 2.3c18.2 18.3 24.9 40.5 18.8 62.5Z"></path></svg>