<svg xmlns="http://www.w3.org/2000/svg" xmlns:xlink="http://www.w3.org/1999/xlink" aria-hidden="true" role="img" class="iconify iconify--ph" width="1em" height="1em" preserveAspectRatio="xMidYMid meet" viewBox="0 0 256 256"><path fill="currentColor" d="M104 188a36 36 0 1 1-36-36a36 36 0 0 1 36 36Zm-69.7-70.3a8.2 8.2 0 0 0 11.4 0L60 103.3l14.3 14.4a8.2 8.2 0 0 0 11.4 0a8.1 8.1 0 0 0 0-11.4L71.3 92l14.4-14.3a8.1 8.1 0 0 0-11.4-11.4L60 80.7L45.7 66.3a8.1 8.1 0 0 0-11.4 11.4L48.7 92l-14.4 14.3a8.1 8.1 0 0 0 0 11.4Zm173 70.3l14.4-14.3a8.1 8.1 0 0 0-11.4-11.4L196 176.7l-14.3-14.4a8.1 8.1 0 0 0-11.4 11.4l14.4 14.3l-14.4 14.3a8.1 8.1 0 0 0 0 11.4a8.2 8.2 0 0 0 11.4 0l14.3-14.4l14.3 14.4a8.2 8.2 0 0 0 11.4 0a8.1 8.1 0 0 0 0-11.4ZM157.7 50.3l-2.4-2.3H176a8 8 0 0 0 0-16h-40a8 8 0 0 0-8 8v40a8 8 0 0 0 16 0V59.3l2.3 2.4c18 17.9 17.9 35.4 14.8 46.9c-4.7 16.7-19.4 31.7-35 35.6a8.1 8.1 0 0 0-5.9 9.7a8 8 0 0 0 7.8 6.1l1.9-.2c21.3-5.3 40.4-24.6 46.6-47s-.6-44.2-18.8-62.5Z"></path></svg>