<svg xmlns="http://www.w3.org/2000/svg" xmlns:xlink="http://www.w3.org/1999/xlink" aria-hidden="true" role="img" class="iconify iconify--ph" width="1em" height="1em" preserveAspectRatio="xMidYMid meet" viewBox="0 0 256 256"><path fill="currentColor" d="M68 156a32 32 0 1 0 32 32a32.1 32.1 0 0 0-32-32Zm0 56a24 24 0 1 1 24-24a24.1 24.1 0 0 1-24 24ZM37.2 109.2L54.3 92L37.2 74.8a4 4 0 0 1 5.6-5.6L60 86.3l17.2-17.1a4 4 0 0 1 5.6 5.6L65.7 92l17.1 17.2a3.9 3.9 0 0 1 0 5.6a3.9 3.9 0 0 1-5.6 0L60 97.7l-17.2 17.1a3.9 3.9 0 0 1-5.6 0a3.9 3.9 0 0 1 0-5.6Zm181.6 96a3.9 3.9 0 0 1 0 5.6a3.9 3.9 0 0 1-5.6 0L196 193.7l-17.2 17.1a3.9 3.9 0 0 1-5.6 0a3.9 3.9 0 0 1 0-5.6l17.1-17.2l-17.1-17.2a4 4 0 0 1 5.6-5.6l17.2 17.1l17.2-17.1a4 4 0 0 1 5.6 5.6L201.7 188Zm-46.2-93.4c-5.8 21-23.7 39.1-43.6 44.1h-1a4.1 4.1 0 0 1-3.9-3a4.1 4.1 0 0 1 2.9-4.9c17-4.2 32.9-20.4 37.9-38.5c3.5-12.5 3.6-31.5-15.7-50.8l-9.2-9V80a4 4 0 0 1-8 0V40a4 4 0 0 1 4-4h40a4 4 0 0 1 0 8h-30.3l9.1 9.2c17.2 17.2 23.5 38 17.8 58.6Z"></path></svg>