<svg xmlns="http://www.w3.org/2000/svg" xmlns:xlink="http://www.w3.org/1999/xlink" aria-hidden="true" role="img" class="iconify iconify--ph" width="1em" height="1em" preserveAspectRatio="xMidYMid meet" viewBox="0 0 256 256"><path fill="currentColor" d="M68 154a34 34 0 1 0 34 34a34.1 34.1 0 0 0-34-34Zm0 56a22 22 0 1 1 22-22a22.1 22.1 0 0 1-22 22ZM35.8 107.8L51.5 92L35.8 76.2a5.9 5.9 0 0 1 8.4-8.4L60 83.5l15.8-15.7a5.9 5.9 0 0 1 8.4 8.4L68.5 92l15.7 15.8a5.9 5.9 0 1 1-8.4 8.4L60 100.5l-15.8 15.7a5.9 5.9 0 0 1-8.4-8.4Zm184.4 96a5.9 5.9 0 1 1-8.4 8.4L196 196.5l-15.8 15.7a5.9 5.9 0 0 1-8.4-8.4l15.7-15.8l-15.7-15.8a5.9 5.9 0 0 1 8.4-8.4l15.8 15.7l15.8-15.7a5.9 5.9 0 0 1 8.4 8.4L204.5 188Zm-45.7-91.5c-6 21.7-24.5 40.4-45 45.5l-1.5.2a6 6 0 0 1-1.5-11.8c16.3-4.1 31.7-19.7 36.5-37.1c3.3-12 3.4-30.2-15.2-48.9l-5.8-5.7V80a6 6 0 0 1-12 0V40a6 6 0 0 1 6-6h40a6 6 0 0 1 0 12h-25.5l5.7 5.8c17.8 17.7 24.3 39.2 18.3 60.5Z"></path></svg>