<svg xmlns="http://www.w3.org/2000/svg" xmlns:xlink="http://www.w3.org/1999/xlink" aria-hidden="true" role="img" class="iconify iconify--ph" width="1em" height="1em" preserveAspectRatio="xMidYMid meet" viewBox="0 0 256 256"><path fill="currentColor" d="M168.1 152c0 15.7-17.6 28-40.1 28s-40.1-12.3-40.1-28a4 4 0 0 1 8 0c0 10.8 14.7 20 32.1 20s32.1-9.2 32.1-20c0-12.5-13.4-16.9-33.8-22.1c-17.9-4.5-36.4-9.3-36.4-25.9s16.4-28 38.1-28c15.7 0 29.2 6.4 35 16.7a4 4 0 0 1-1.5 5.4a3.9 3.9 0 0 1-5.4-1.5C151.6 88.8 140.9 84 128 84c-17.1 0-30.1 8.6-30.1 20c0 9.7 12 13.5 30.3 18.2s39.9 10.2 39.9 29.8ZM220 48v160a12 12 0 0 1-12 12H48a12 12 0 0 1-12-12V48a12 12 0 0 1 12-12h160a12 12 0 0 1 12 12Zm-8 0a4 4 0 0 0-4-4H48a4 4 0 0 0-4 4v160a4 4 0 0 0 4 4h160a4 4 0 0 0 4-4Z"></path></svg>