<svg xmlns="http://www.w3.org/2000/svg" xmlns:xlink="http://www.w3.org/1999/xlink" aria-hidden="true" role="img" class="iconify iconify--ph" width="1em" height="1em" preserveAspectRatio="xMidYMid meet" viewBox="0 0 256 256"><path fill="currentColor" d="M170.1 152c0 16.8-18.5 30-42.1 30s-42.1-13.2-42.1-30a6 6 0 0 1 12 0c0 9.8 13.8 18 30.1 18s30.1-8.2 30.1-18s-12.8-15.1-32.3-20.1c-17.8-4.6-37.9-9.7-37.9-27.9s17.3-30 40.1-30c16.5 0 30.5 6.8 36.8 17.7a6 6 0 0 1-10.5 5.9c-4-7-14.3-11.6-26.3-11.6c-15.7 0-28.1 7.9-28.1 18c0 8.3 11.4 11.8 28.8 16.2s41.4 10.6 41.4 31.8ZM222 48v160a14 14 0 0 1-14 14H48a14 14 0 0 1-14-14V48a14 14 0 0 1 14-14h160a14 14 0 0 1 14 14Zm-12 0a2 2 0 0 0-2-2H48a2 2 0 0 0-2 2v160a2 2 0 0 0 2 2h160a2 2 0 0 0 2-2Z"></path></svg>