<svg xmlns="http://www.w3.org/2000/svg" xmlns:xlink="http://www.w3.org/1999/xlink" aria-hidden="true" role="img" class="iconify iconify--ph" width="1em" height="1em" preserveAspectRatio="xMidYMid meet" viewBox="0 0 256 256"><path fill="currentColor" d="m225.9 58.3l-96-32a6.2 6.2 0 0 0-3.8 0l-95.9 32H30l-.7.4h-.1l-.7.4a.1.1 0 0 1-.1.1l-.7.6l-.5.6a.1.1 0 0 1-.1.1l-.4.7c0 .1-.1.1-.1.2l-.3.7a1.9 1.9 0 0 0-.2.8a2.8 2.8 0 0 0-.1.9v80a6 6 0 0 0 12 0V72.3l38.7 12.9A61.4 61.4 0 0 0 66 120a62 62 0 0 0 32.7 54.6a94.2 94.2 0 0 0-49.5 38.1a6 6 0 0 0 10.1 6.6a81.9 81.9 0 0 1 137.4 0a6.3 6.3 0 0 0 5.1 2.7a5.5 5.5 0 0 0 3.2-1a6 6 0 0 0 1.8-8.3a94.2 94.2 0 0 0-49.5-38.1A62 62 0 0 0 190 120a61.4 61.4 0 0 0-10.7-34.8l46.6-15.5a6 6 0 0 0 0-11.4ZM178 120a50 50 0 1 1-89.4-30.8l37.5 12.5a6.2 6.2 0 0 0 3.8 0l37.5-12.5A50.4 50.4 0 0 1 178 120Zm-10.7-43.4L128 89.7L88.7 76.6L51 64l77-25.7L205 64Z"></path></svg>