<svg xmlns="http://www.w3.org/2000/svg" xmlns:xlink="http://www.w3.org/1999/xlink" aria-hidden="true" role="img" class="iconify iconify--ph" width="1em" height="1em" preserveAspectRatio="xMidYMid meet" viewBox="0 0 256 256"><path fill="currentColor" d="m225.3 60.2l-96-32a3.9 3.9 0 0 0-2.6 0l-96 32h-.4l-.4.2h-.2l-.5.4c-.2.1-.3.3-.5.5s-.1.1-.1.2l-.2.4a.4.4 0 0 0-.1.3c-.1.1-.1.3-.2.4v.3a1.7 1.7 0 0 0-.1.7v80a4 4 0 0 0 8 0v-74l43.9 14.6a59.9 59.9 0 0 0 24.4 90.9a91.7 91.7 0 0 0-53.4 38.7a4 4 0 0 0 6.7 4.4a84 84 0 0 1 140.8 0a4.1 4.1 0 0 0 3.4 1.8a3.8 3.8 0 0 0 2.2-.7a4 4 0 0 0 1.1-5.5a91.7 91.7 0 0 0-53.4-38.7a59.9 59.9 0 0 0 24.4-90.9l49.2-16.4a4 4 0 0 0 0-7.6ZM180 120a52 52 0 1 1-92.1-33.1l38.8 12.9l1.3.2l1.3-.2l38.8-12.9A51.7 51.7 0 0 1 180 120Zm-12-41.6l-40 13.4L44.6 64L128 36.2L211.4 64Z"></path></svg>