<svg xmlns="http://www.w3.org/2000/svg" xmlns:xlink="http://www.w3.org/1999/xlink" aria-hidden="true" role="img" class="iconify iconify--ph" width="1em" height="1em" preserveAspectRatio="xMidYMid meet" viewBox="0 0 256 256"><path fill="currentColor" d="M216 56h-36v-8a28.1 28.1 0 0 0-28-28h-48a28.1 28.1 0 0 0-28 28v8H40a20.1 20.1 0 0 0-20 20v128a20.1 20.1 0 0 0 20 20h176a20.1 20.1 0 0 0 20-20V76a20.1 20.1 0 0 0-20-20Zm-116-8a4 4 0 0 1 4-4h48a4 4 0 0 1 4 4v8h-56Zm56 32v120h-56V80ZM44 80h32v120H44Zm168 120h-32V80h32Z"></path></svg>