<svg xmlns="http://www.w3.org/2000/svg" xmlns:xlink="http://www.w3.org/1999/xlink" aria-hidden="true" role="img" class="iconify iconify--ph" width="1em" height="1em" preserveAspectRatio="xMidYMid meet" viewBox="0 0 256 256"><path fill="currentColor" d="M216 66h-42V56a22.1 22.1 0 0 0-22-22h-48a22.1 22.1 0 0 0-22 22v10H40a14 14 0 0 0-14 14v128a14 14 0 0 0 14 14h176a14 14 0 0 0 14-14V80a14 14 0 0 0-14-14ZM94 56a10 10 0 0 1 10-10h48a10 10 0 0 1 10 10v10H94ZM40 78h176a2 2 0 0 1 2 2v74H38V80a2 2 0 0 1 2-2Zm176 132H40a2 2 0 0 1-2-2v-42h180v42a2 2 0 0 1-2 2Z"></path></svg>