<svg xmlns="http://www.w3.org/2000/svg" xmlns:xlink="http://www.w3.org/1999/xlink" aria-hidden="true" role="img" class="iconify iconify--ph" width="1em" height="1em" preserveAspectRatio="xMidYMid meet" viewBox="0 0 256 256"><path fill="currentColor" d="M216 68h-44V56a20.1 20.1 0 0 0-20-20h-48a20.1 20.1 0 0 0-20 20v12H40a12 12 0 0 0-12 12v128a12 12 0 0 0 12 12h176a12 12 0 0 0 12-12V80a12 12 0 0 0-12-12ZM92 56a12 12 0 0 1 12-12h48a12 12 0 0 1 12 12v12H92Zm72 20v136H92V76ZM36 208V80a4 4 0 0 1 4-4h44v136H40a4 4 0 0 1-4-4Zm184 0a4 4 0 0 1-4 4h-44V76h44a4 4 0 0 1 4 4Z"></path></svg>