<svg xmlns="http://www.w3.org/2000/svg" xmlns:xlink="http://www.w3.org/1999/xlink" aria-hidden="true" role="img" class="iconify iconify--ph" width="1em" height="1em" preserveAspectRatio="xMidYMid meet" viewBox="0 0 256 256"><path fill="currentColor" d="M128 64a64 64 0 1 0 64 64a64.1 64.1 0 0 0-64-64Zm0 120a56 56 0 1 1 56-56a56 56 0 0 1-56 56Zm-4-148v-8a4 4 0 0 1 8 0v8a4 4 0 0 1-8 0ZM54.5 60.1a4 4 0 1 1 5.6-5.6l5.7 5.6a4.2 4.2 0 0 1 0 5.7a3.9 3.9 0 0 1-2.9 1.1a3.8 3.8 0 0 1-2.8-1.1ZM40 128a4 4 0 0 1-4 4h-8a4 4 0 0 1 0-8h8a4 4 0 0 1 4 4Zm25.8 62.2a4.2 4.2 0 0 1 0 5.7l-5.7 5.6a3.9 3.9 0 0 1-2.8 1.2a3.8 3.8 0 0 1-2.8-1.2a3.9 3.9 0 0 1 0-5.6l5.6-5.7a4.2 4.2 0 0 1 5.7 0ZM132 220v8a4 4 0 0 1-8 0v-8a4 4 0 0 1 8 0Zm69.5-24.1a3.9 3.9 0 0 1 0 5.6a3.8 3.8 0 0 1-2.8 1.2a3.9 3.9 0 0 1-2.8-1.2l-5.7-5.6a4 4 0 0 1 5.7-5.7ZM232 128a4 4 0 0 1-4 4h-8a4 4 0 0 1 0-8h8a4 4 0 0 1 4 4Zm-41.8-62.2a4.2 4.2 0 0 1 0-5.7l5.7-5.6a4 4 0 0 1 5.6 5.6l-5.6 5.7a3.8 3.8 0 0 1-2.8 1.1a3.9 3.9 0 0 1-2.9-1.1Z"></path></svg>