<svg xmlns="http://www.w3.org/2000/svg" xmlns:xlink="http://www.w3.org/1999/xlink" aria-hidden="true" role="img" class="iconify iconify--ph" width="1em" height="1em" preserveAspectRatio="xMidYMid meet" viewBox="0 0 256 256"><path fill="currentColor" d="M79.6 42.8a6 6 0 0 1 3.2-7.8a6.1 6.1 0 0 1 7.9 3.2l7.6 18.5a5.8 5.8 0 0 1-3.2 7.8a4.8 4.8 0 0 1-2.3.5a6.1 6.1 0 0 1-5.6-3.7Zm-57.4 63.9l18.5 7.6a6.4 6.4 0 0 0 2.3.5a6 6 0 0 0 2.3-11.5l-18.5-7.7a6 6 0 0 0-7.8 3.2a6.1 6.1 0 0 0 3.2 7.9Zm190.8 8.1a6.4 6.4 0 0 0 2.3-.5l18.5-7.6a6.1 6.1 0 0 0 3.2-7.9a6 6 0 0 0-7.8-3.2l-18.5 7.7a6 6 0 0 0 2.3 11.5Zm-52.1-50.3a4.8 4.8 0 0 0 2.3.5a6.1 6.1 0 0 0 5.6-3.7l7.6-18.5a6 6 0 0 0-3.2-7.8a6.1 6.1 0 0 0-7.9 3.2l-7.6 18.5a5.8 5.8 0 0 0 3.2 7.8ZM246 160a6 6 0 0 1-6 6H16a6 6 0 0 1 0-12h46.8a66 66 0 1 1 130.4 0H240a6 6 0 0 1 6 6Zm-171.1-6h106.2a55.5 55.5 0 0 0 .9-10a54 54 0 0 0-108 0a55.5 55.5 0 0 0 .9 10ZM208 194H48a6 6 0 0 0 0 12h160a6 6 0 0 0 0-12Z"></path></svg>