<svg xmlns="http://www.w3.org/2000/svg" xmlns:xlink="http://www.w3.org/1999/xlink" aria-hidden="true" role="img" class="iconify iconify--ph" width="1em" height="1em" preserveAspectRatio="xMidYMid meet" viewBox="0 0 256 256"><path fill="currentColor" d="M128 62a66 66 0 1 0 66 66a66.1 66.1 0 0 0-66-66Zm0 120a54 54 0 1 1 54-54a54 54 0 0 1-54 54Zm-6-146v-8a6 6 0 0 1 12 0v8a6 6 0 0 1-12 0ZM53 61.5a6 6 0 0 1 8.5-8.5l5.7 5.7a6.1 6.1 0 0 1 0 8.5a5.9 5.9 0 0 1-4.3 1.7a5.8 5.8 0 0 1-4.2-1.7ZM42 128a6 6 0 0 1-6 6h-8a6 6 0 0 1 0-12h8a6 6 0 0 1 6 6Zm25.2 60.8a6.1 6.1 0 0 1 0 8.5l-5.7 5.7a6.1 6.1 0 0 1-4.2 1.7A6.5 6.5 0 0 1 53 203a6.1 6.1 0 0 1 0-8.5l5.7-5.7a6.1 6.1 0 0 1 8.5 0ZM134 220v8a6 6 0 0 1-12 0v-8a6 6 0 0 1 12 0Zm69-25.5a6.1 6.1 0 0 1 0 8.5a6.5 6.5 0 0 1-4.3 1.7a6.1 6.1 0 0 1-4.2-1.7l-5.7-5.7a6 6 0 0 1 8.5-8.5Zm31-66.5a6 6 0 0 1-6 6h-8a6 6 0 0 1 0-12h8a6 6 0 0 1 6 6Zm-31-75a6.1 6.1 0 0 1 0 8.5l-5.7 5.7a5.8 5.8 0 0 1-4.2 1.7a5.9 5.9 0 0 1-4.3-1.7a6.1 6.1 0 0 1 0-8.5l5.7-5.7a6.1 6.1 0 0 1 8.5 0Z"></path></svg>