<svg xmlns="http://www.w3.org/2000/svg" xmlns:xlink="http://www.w3.org/1999/xlink" aria-hidden="true" role="img" class="iconify iconify--ph" width="1em" height="1em" preserveAspectRatio="xMidYMid meet" viewBox="0 0 256 256"><path fill="currentColor" d="M74.1 45.1a12 12 0 1 1 22.1-9.2l7.7 18.5a12.1 12.1 0 0 1-6.5 15.7a12.5 12.5 0 0 1-4.6.9a12 12 0 0 1-11.1-7.4Zm-54.2 67.1l18.5 7.7a12.5 12.5 0 0 0 4.6.9a12 12 0 0 0 4.6-23.1l-18.5-7.6a12 12 0 1 0-9.2 22.1Zm193.1 8.6a12.5 12.5 0 0 0 4.6-.9l18.5-7.7a12 12 0 1 0-9.2-22.1l-18.5 7.6a12 12 0 0 0 4.6 23.1Zm-54.4-50.7a12.5 12.5 0 0 0 4.6.9a12 12 0 0 0 11.1-7.4l7.6-18.5a12 12 0 1 0-22.1-9.2l-7.7 18.5a12.1 12.1 0 0 0 6.5 15.7ZM252 160a12 12 0 0 1-12 12H16a12 12 0 0 1 0-24h48a64 64 0 0 1 128 0h48a12 12 0 0 1 12 12ZM88 148h80a40 40 0 0 0-80 0Zm120 40H48a12 12 0 0 0 0 24h160a12 12 0 0 0 0-24Z"></path></svg>