<svg xmlns="http://www.w3.org/2000/svg" xmlns:xlink="http://www.w3.org/1999/xlink" aria-hidden="true" role="img" class="iconify iconify--ph" width="1em" height="1em" preserveAspectRatio="xMidYMid meet" viewBox="0 0 256 256"><path fill="currentColor" d="M81.4 42.1a4.2 4.2 0 0 1 2.2-5.3a4.1 4.1 0 0 1 5.2 2.2l7.7 18.5a4 4 0 0 1-3.7 5.5a3.9 3.9 0 0 1-3.7-2.5ZM23 104.8l18.5 7.7a4 4 0 0 0 1.5.3a3.9 3.9 0 0 0 3.7-2.5a4 4 0 0 0-2.2-5.2l-18.4-7.7a4.2 4.2 0 0 0-5.3 2.2a4 4 0 0 0 2.2 5.2Zm190 8a4 4 0 0 0 1.5-.3l18.5-7.7a4 4 0 0 0 2.2-5.2a4.2 4.2 0 0 0-5.3-2.2l-18.4 7.7a4 4 0 0 0-2.2 5.2a3.9 3.9 0 0 0 3.7 2.5Zm-51.3-50.1a4 4 0 0 0 1.5.3a3.9 3.9 0 0 0 3.7-2.5l7.7-18.4a4.2 4.2 0 0 0-2.2-5.3a4.1 4.1 0 0 0-5.2 2.2l-7.7 18.5a4 4 0 0 0 2.2 5.2ZM244 160a4 4 0 0 1-4 4H16a4 4 0 0 1 0-8h49.1a68.7 68.7 0 0 1-1.1-12a64 64 0 0 1 128 0a68.7 68.7 0 0 1-1.1 12H240a4 4 0 0 1 4 4Zm-170.7-4h109.4a53.2 53.2 0 0 0 1.3-12a56 56 0 0 0-112 0a53.2 53.2 0 0 0 1.3 12ZM208 196H48a4 4 0 0 0 0 8h160a4 4 0 0 0 0-8Z"></path></svg>