<svg xmlns="http://www.w3.org/2000/svg" xmlns:xlink="http://www.w3.org/1999/xlink" aria-hidden="true" role="img" class="iconify iconify--ph" width="1em" height="1em" preserveAspectRatio="xMidYMid meet" viewBox="0 0 256 256"><path fill="currentColor" d="M200 42a6 6 0 0 0 0 12a18.1 18.1 0 0 1 18 18v62H38V72a18.1 18.1 0 0 1 18-18a6 6 0 0 0 0-12a30.1 30.1 0 0 0-30 30v92a42 42 0 0 0 84 0v-18h36v18a42 42 0 0 0 84 0V72a30.1 30.1 0 0 0-30-30Zm14.5 136l-32-32H218v18a29.9 29.9 0 0 1-3.5 14ZM38 164v-18h7.5l41.3 41.3A29.6 29.6 0 0 1 68 194a30.1 30.1 0 0 1-30-30Zm60 0a29.9 29.9 0 0 1-3.5 14l-32-32H98Zm60 0v-18h7.5l41.3 41.3A29.6 29.6 0 0 1 188 194a30.1 30.1 0 0 1-30-30Z"></path></svg>