<svg xmlns="http://www.w3.org/2000/svg" xmlns:xlink="http://www.w3.org/1999/xlink" aria-hidden="true" role="img" class="iconify iconify--ph" width="1em" height="1em" preserveAspectRatio="xMidYMid meet" viewBox="0 0 256 256"><path fill="currentColor" d="M200 36a12 12 0 0 0 0 24a12 12 0 0 1 12 12v56H44V72a12 12 0 0 1 12-12a12 12 0 0 0 0-24a36 36 0 0 0-36 36v92a48 48 0 0 0 96 0v-12h24v12a48 48 0 0 0 96 0V72a36 36 0 0 0-36-36Zm11.2 134.2L193 152h19v12a25.7 25.7 0 0 1-.8 6.2ZM44 164v-7l30.2 30.2a25.7 25.7 0 0 1-6.2.8a24.1 24.1 0 0 1-24-24Zm48 0a25.7 25.7 0 0 1-.8 6.2L73 152h19Zm72 0v-7l30.2 30.2a25.7 25.7 0 0 1-6.2.8a24.1 24.1 0 0 1-24-24Z"></path></svg>