<svg xmlns="http://www.w3.org/2000/svg" xmlns:xlink="http://www.w3.org/1999/xlink" aria-hidden="true" role="img" class="iconify iconify--ph" width="1em" height="1em" preserveAspectRatio="xMidYMid meet" viewBox="0 0 256 256"><path fill="currentColor" d="M200 40a8 8 0 0 0 0 16a16 16 0 0 1 16 16v60H40V72a16 16 0 0 1 16-16a8 8 0 0 0 0-16a32.1 32.1 0 0 0-32 32v92a44 44 0 0 0 88 0v-16h32v16a44 44 0 0 0 88 0V72a32.1 32.1 0 0 0-32-32Zm13.9 134.6L187.3 148H216v16a27.1 27.1 0 0 1-2.1 10.6ZM40 164v-16h4.7l39.1 39.1A27.6 27.6 0 0 1 68 192a28.1 28.1 0 0 1-28-28Zm56 0a27.1 27.1 0 0 1-2.1 10.6L67.3 148H96Zm64 0v-16h4.7l39.1 39.1A27.6 27.6 0 0 1 188 192a28.1 28.1 0 0 1-28-28Z"></path></svg>