<svg xmlns="http://www.w3.org/2000/svg" xmlns:xlink="http://www.w3.org/1999/xlink" aria-hidden="true" role="img" class="iconify iconify--ph" width="1em" height="1em" preserveAspectRatio="xMidYMid meet" viewBox="0 0 256 256"><path fill="currentColor" d="M200 40a8 8 0 0 0 0 16a16 16 0 0 1 16 16v60H40V72a16 16 0 0 1 16-16a8 8 0 0 0 0-16a32.1 32.1 0 0 0-32 32v92a44 44 0 0 0 88 0v-16h32v16a44 44 0 0 0 88 0V72a32.1 32.1 0 0 0-32-32ZM85 177a7.7 7.7 0 0 1-5.6 2.4a8 8 0 0 1-5.7-2.4l-15.4-15.3a8.1 8.1 0 0 1 11.4-11.4L85 165.7a7.9 7.9 0 0 1 0 11.3Zm120 0a7.7 7.7 0 0 1-5.6 2.4a8 8 0 0 1-5.7-2.4l-15.4-15.3a8.1 8.1 0 0 1 11.4-11.4l15.3 15.4a7.9 7.9 0 0 1 0 11.3Z"></path></svg>