<svg xmlns="http://www.w3.org/2000/svg" xmlns:xlink="http://www.w3.org/1999/xlink" aria-hidden="true" role="img" class="iconify iconify--ph" width="1em" height="1em" preserveAspectRatio="xMidYMid meet" viewBox="0 0 256 256"><path fill="currentColor" d="M200 44a4 4 0 0 0 0 8a20.1 20.1 0 0 1 20 20v64H36V72a20.1 20.1 0 0 1 20-20a4 4 0 0 0 0-8a28.1 28.1 0 0 0-28 28v92a40 40 0 0 0 80 0v-20h40v20a40 40 0 0 0 80 0V72a28.1 28.1 0 0 0-28-28ZM36 164v-20h10.3l43.5 43.4A32 32 0 0 1 36 164Zm64 0a31.9 31.9 0 0 1-5.1 17.3L57.7 144H100Zm56 0v-20h10.3l43.5 43.4A32 32 0 0 1 156 164Zm58.9 17.3L177.7 144H220v20a31.9 31.9 0 0 1-5.1 17.3Z"></path></svg>