<svg xmlns="http://www.w3.org/2000/svg" xmlns:xlink="http://www.w3.org/1999/xlink" aria-hidden="true" role="img" class="iconify iconify--ph" width="1em" height="1em" preserveAspectRatio="xMidYMid meet" viewBox="0 0 256 256"><path fill="currentColor" d="M222 48v104a14 14 0 0 1-14 14H94.5l13.7 13.8a5.9 5.9 0 1 1-8.4 8.4l-24-24a5.8 5.8 0 0 1 0-8.4l24-24a5.9 5.9 0 0 1 8.4 8.4L94.5 154H208a2 2 0 0 0 2-2V48a2 2 0 0 0-2-2H96a2 2 0 0 0-2 2v8a6 6 0 0 1-12 0v-8a14 14 0 0 1 14-14h112a14 14 0 0 1 14 14Zm-54 146a6 6 0 0 0-6 6v8a2 2 0 0 1-2 2H48a2 2 0 0 1-2-2V104a2 2 0 0 1 2-2h113.5l-13.7 13.8a5.9 5.9 0 1 0 8.4 8.4l24-24a5.8 5.8 0 0 0 0-8.4l-24-24a5.9 5.9 0 0 0-8.4 8.4L161.5 90H48a14 14 0 0 0-14 14v104a14 14 0 0 0 14 14h112a14 14 0 0 0 14-14v-8a6 6 0 0 0-6-6Z"></path></svg>