<svg xmlns="http://www.w3.org/2000/svg" xmlns:xlink="http://www.w3.org/1999/xlink" aria-hidden="true" role="img" class="iconify iconify--ph" width="1em" height="1em" preserveAspectRatio="xMidYMid meet" viewBox="0 0 256 256"><path fill="currentColor" d="M216 48v104a8 8 0 0 1-8 8h-40v48a8 8 0 0 1-8 8H48a8 8 0 0 1-8-8V104a8 8 0 0 1 8-8h40V48a8 8 0 0 1 8-8h112a8 8 0 0 1 8 8Z" opacity=".2"></path><path fill="currentColor" d="M224 48v104a16 16 0 0 1-16 16H99.3l10.4 10.3a8.1 8.1 0 0 1 0 11.4a8.2 8.2 0 0 1-11.4 0l-24-24a8.1 8.1 0 0 1 0-11.4l24-24a8.1 8.1 0 0 1 11.4 11.4L99.3 152H208V48H96v8a8 8 0 0 1-16 0v-8a16 16 0 0 1 16-16h112a16 16 0 0 1 16 16Zm-56 144a8 8 0 0 0-8 8v8H48V104h108.7l-10.4 10.3a8.1 8.1 0 0 0 0 11.4a8.2 8.2 0 0 0 11.4 0l24-24a8.1 8.1 0 0 0 0-11.4l-24-24a8.1 8.1 0 0 0-11.4 11.4L156.7 88H48a16 16 0 0 0-16 16v104a16 16 0 0 0 16 16h112a16 16 0 0 0 16-16v-8a8 8 0 0 0-8-8Z"></path></svg>