<svg xmlns="http://www.w3.org/2000/svg" xmlns:xlink="http://www.w3.org/1999/xlink" aria-hidden="true" role="img" class="iconify iconify--ph" width="1em" height="1em" preserveAspectRatio="xMidYMid meet" viewBox="0 0 256 256"><path fill="currentColor" d="M228 48v104a20.1 20.1 0 0 1-20 20h-99l3.5 3.5a12 12 0 0 1 0 17a12.1 12.1 0 0 1-17 0l-24-24a12 12 0 0 1 0-17l24-24a12 12 0 0 1 17 17L109 148h95V52H100v4a12 12 0 0 1-24 0v-8a20.1 20.1 0 0 1 20-20h112a20.1 20.1 0 0 1 20 20Zm-60 140a12 12 0 0 0-12 12v4H52v-96h95l-3.5 3.5a12 12 0 0 0 0 17a12.1 12.1 0 0 0 17 0l24-24a12 12 0 0 0 0-17l-24-24a12 12 0 0 0-17 17L147 84H48a20.1 20.1 0 0 0-20 20v104a20.1 20.1 0 0 0 20 20h112a20.1 20.1 0 0 0 20-20v-8a12 12 0 0 0-12-12Z"></path></svg>