<svg xmlns="http://www.w3.org/2000/svg" xmlns:xlink="http://www.w3.org/1999/xlink" aria-hidden="true" role="img" class="iconify iconify--ph" width="1em" height="1em" preserveAspectRatio="xMidYMid meet" viewBox="0 0 256 256"><path fill="currentColor" d="M224 48v104a16 16 0 0 1-16 16h-96v16a8 8 0 0 1-4.9 7.4a8.5 8.5 0 0 1-3.1.6a8.3 8.3 0 0 1-5.7-2.3l-24-24a8.1 8.1 0 0 1 0-11.4l24-24a8.4 8.4 0 0 1 8.8-1.7a8 8 0 0 1 4.9 7.4v16h96V48H96v8a8 8 0 0 1-16 0v-8a16 16 0 0 1 16-16h112a16 16 0 0 1 16 16Zm-56 144a8 8 0 0 0-8 8v8H48V104h96v16a8.1 8.1 0 0 0 4.9 7.4a8.5 8.5 0 0 0 3.1.6a8.3 8.3 0 0 0 5.7-2.3l24-24a8.1 8.1 0 0 0 0-11.4l-24-24a8.2 8.2 0 0 0-8.8-1.7A8 8 0 0 0 144 72v16H48a16 16 0 0 0-16 16v104a16 16 0 0 0 16 16h112a16 16 0 0 0 16-16v-8a8 8 0 0 0-8-8Z"></path></svg>