<svg xmlns="http://www.w3.org/2000/svg" xmlns:xlink="http://www.w3.org/1999/xlink" aria-hidden="true" role="img" class="iconify iconify--ph" width="1em" height="1em" preserveAspectRatio="xMidYMid meet" viewBox="0 0 256 256"><path fill="currentColor" d="M231.9 151.6L212.8 99a20.1 20.1 0 0 0-25.7-12l-53.4 19.5l9.9-56a20.4 20.4 0 0 0-3.3-15a19.9 19.9 0 0 0-12.9-8.2l-55.2-9.7A20 20 0 0 0 49 33.8L24.9 171a49.3 49.3 0 0 0 8.4 37a47.2 47.2 0 0 0 31.3 19.4a44.9 44.9 0 0 0 7.3.6H212a20.1 20.1 0 0 0 20-20v-43a19.3 19.3 0 0 0-.1-13.4Zm-40.3-40.7L208 156l-88.7 32.3l9.6-54.5ZM52.8 194a24.9 24.9 0 0 1-4.3-18.9L72 41.9l47.3 8.3l-23.7 134a24 24 0 0 1-27.3 19.5a23.6 23.6 0 0 1-15.5-9.7Zm93.6 10l61.6-22.4V204Zm-76.5-12.2a11.9 11.9 0 0 1-9.7-13.9l2.1-11.8a12 12 0 0 1 23.6 4.2l-2.1 11.8A12 12 0 0 1 72 192Z"></path></svg>