<svg xmlns="http://www.w3.org/2000/svg" xmlns:xlink="http://www.w3.org/1999/xlink" aria-hidden="true" role="img" class="iconify iconify--ph" width="1em" height="1em" preserveAspectRatio="xMidYMid meet" viewBox="0 0 256 256"><path fill="currentColor" d="M72 190a10 10 0 1 1 10-10a10 10 0 0 1-10 10Zm154-26.1V208a14 14 0 0 1-14 14H71.9a47.2 47.2 0 0 1-6.4-.5a41.3 41.3 0 0 1-27.3-17a43.3 43.3 0 0 1-7.4-32.5L54.9 34.8a14.1 14.1 0 0 1 16.3-11.3l55.1 9.7a14.2 14.2 0 0 1 9.1 5.8a14.1 14.1 0 0 1 2.3 10.4L126 115.7l63.2-23a13.9 13.9 0 0 1 17.9 8.3l19.2 52.6a14.6 14.6 0 0 1-.3 10.3Zm-102.4-34.6l-10.2 58a42.7 42.7 0 0 1-3.5 10.8l103.9-37.8a2 2 0 0 0 1.2-2.6l-19.1-52.6a2.1 2.1 0 0 0-2.6-1.2Zm-56.2 80.3a30 30 0 0 0 34.1-24.4l24.4-137.9a2.1 2.1 0 0 0-.4-1.5a2.2 2.2 0 0 0-1.3-.8l-55.1-9.7h-.4a1.8 1.8 0 0 0-1.9 1.6L42.6 174.1a31 31 0 0 0 5.3 23.4a29.2 29.2 0 0 0 19.5 12.1ZM214 208v-35l-101.6 37H212a2 2 0 0 0 2-2Z"></path></svg>