<svg xmlns="http://www.w3.org/2000/svg" xmlns:xlink="http://www.w3.org/1999/xlink" aria-hidden="true" role="img" class="iconify iconify--ph" width="1em" height="1em" preserveAspectRatio="xMidYMid meet" viewBox="0 0 256 256"><path fill="currentColor" d="M72 188a8 8 0 1 1 8-8a8 8 0 0 1-8 8Zm152-24.5V208a12 12 0 0 1-12 12H71.9a43 43 0 0 1-6.1-.5a39.1 39.1 0 0 1-26-16.2a41 41 0 0 1-7.1-30.9L56.9 35.2a12 12 0 0 1 5-7.8a12.2 12.2 0 0 1 8.9-2l55.2 9.8a11.7 11.7 0 0 1 7.7 4.9a11.5 11.5 0 0 1 2 9l-12.3 69.6l66.5-24.2a12.1 12.1 0 0 1 15.4 7.2l19.1 52.6a12.2 12.2 0 0 1-.4 9.2Zm-102.2-35.7l-10.4 59.1a40.4 40.4 0 0 1-6 15l109.1-39.7a4 4 0 0 0 2.4-5.1l-19.2-52.7a4.1 4.1 0 0 0-5.1-2.4Zm-54.7 83.8a32.1 32.1 0 0 0 36.4-26l24.3-137.9a3.9 3.9 0 0 0-.6-3a4.4 4.4 0 0 0-2.6-1.7l-55.2-9.7h-.7a3.9 3.9 0 0 0-3.9 3.3L40.6 173.7a33.6 33.6 0 0 0 5.7 25a31.3 31.3 0 0 0 20.8 12.9ZM216 208v-37.8L101 212h111a4 4 0 0 0 4-4Z"></path></svg>