<svg xmlns="http://www.w3.org/2000/svg" xmlns:xlink="http://www.w3.org/1999/xlink" aria-hidden="true" role="img" class="iconify iconify--ph" width="1em" height="1em" preserveAspectRatio="xMidYMid meet" viewBox="0 0 256 256"><path fill="currentColor" d="M72 192a12 12 0 1 1 12-12a12 12 0 0 1-12 12Zm156-27.7V208a16 16 0 0 1-16 16H71.9a51.6 51.6 0 0 1-6.7-.5a43.4 43.4 0 0 1-28.7-17.9a45 45 0 0 1-7.7-33.9L53 34.5a16.1 16.1 0 0 1 18.5-13l55.2 9.7a16.2 16.2 0 0 1 10.3 6.6a16 16 0 0 1 2.6 12l-11 62.8l59.9-21.8a16 16 0 0 1 20.5 9.5l19.2 52.7a15.7 15.7 0 0 1-.2 11.3Zm-102.6-33.5l-10.1 56.8a41 41 0 0 1-1.8 7.1l99.6-36.3l-19.1-52.6Zm-57.7 76.9a28.3 28.3 0 0 0 31.9-22.8L123.9 47l-55.2-9.7l-24.2 137.1a29 29 0 0 0 5.1 21.9a27.5 27.5 0 0 0 18.1 11.4Zm144.3.3v-32.1L123.7 208Z"></path></svg>