<svg xmlns="http://www.w3.org/2000/svg" xmlns:xlink="http://www.w3.org/1999/xlink" aria-hidden="true" role="img" class="iconify iconify--ph" width="1em" height="1em" preserveAspectRatio="xMidYMid meet" viewBox="0 0 256 256"><path fill="currentColor" d="m82.1 197.5l-29.9 29.9a8 8 0 0 1-11.3 0l-12.3-12.3a8 8 0 0 1 0-11.3l29.9-29.9a8 8 0 0 0 0-11.4l-20.8-20.8a8 8 0 0 1 0-11.4l12.6-12.6a8 8 0 0 1 11.4 0l76.6 76.6a8 8 0 0 1 0 11.4l-12.6 12.6a8 8 0 0 1-11.4 0l-20.8-20.8a8 8 0 0 0-11.4 0Z" opacity=".2"></path><path fill="currentColor" d="M221.7 34.3A8.1 8.1 0 0 0 216 32l-63.8.2a8.1 8.1 0 0 0-6.2 2.9l-70.4 85.2l-8.3-8.3a16.1 16.1 0 0 0-22.6 0L32 124.7a15.9 15.9 0 0 0 0 22.6l20.9 20.9l-30 29.9a16.2 16.2 0 0 0 0 22.7l12.3 12.3a16.3 16.3 0 0 0 22.7 0l29.9-30l20.9 20.9a16.1 16.1 0 0 0 22.6 0l12.7-12.7a15.9 15.9 0 0 0 0-22.6l-8.3-8.3l85.2-70.4a8.1 8.1 0 0 0 2.9-6.2L224 40a8.1 8.1 0 0 0-2.3-5.7ZM120 212.7l-20.9-20.9a15.9 15.9 0 0 0-22.6 0l-30 29.9l-12.2-12.2l29.9-30a16.1 16.1 0 0 0 0-22.6L43.3 136L56 123.3l14.5 14.5l23.8 23.9l38.4 38.3ZM207.8 100l-83.5 69l-13-13l54.4-54.3a8.1 8.1 0 0 0-11.4-11.4L100 144.7l-13-13l69-83.5l52-.2Z"></path></svg>