<svg xmlns="http://www.w3.org/2000/svg" xmlns:xlink="http://www.w3.org/1999/xlink" aria-hidden="true" role="img" class="iconify iconify--ph" width="1em" height="1em" preserveAspectRatio="xMidYMid meet" viewBox="0 0 256 256"><path fill="currentColor" d="M218.8 37.2A3.6 3.6 0 0 0 216 36l-63.8.2a3.9 3.9 0 0 0-3.1 1.5l-73.2 88.6l-11.4-11.5a12.2 12.2 0 0 0-17 0l-12.7 12.7a12.1 12.1 0 0 0 0 17l20.9 20.9a3.9 3.9 0 0 1 0 5.6l-29.9 30a11.9 11.9 0 0 0 0 16.9l12.3 12.3a12 12 0 0 0 16.9 0l30-29.9a3.9 3.9 0 0 1 5.6 0l20.9 20.9a12.2 12.2 0 0 0 17 0l12.7-12.7a12.1 12.1 0 0 0 0-17l-11.5-11.4l88.6-73.2a3.9 3.9 0 0 0 1.5-3.1L220 40a3.6 3.6 0 0 0-1.2-2.8ZM136.7 200a3.6 3.6 0 0 1-1.2 2.8l-12.7 12.7a3.9 3.9 0 0 1-5.6 0l-20.9-20.9a12.1 12.1 0 0 0-17 0l-29.9 30a4.4 4.4 0 0 1-2.9 1.1a4.3 4.3 0 0 1-2.8-1.1l-12.3-12.3a4.2 4.2 0 0 1 0-5.7l30-29.9a12 12 0 0 0 0-17l-20.9-20.9a3.9 3.9 0 0 1 0-5.6l12.7-12.7a3.9 3.9 0 0 1 5.6 0l76.7 76.7a3.6 3.6 0 0 1 1.2 2.8Zm75.1-98.1l-87.7 72.5l-18.4-18.4l57.1-57.2a4 4 0 1 0-5.6-5.6L100 150.3l-18.4-18.4l72.5-87.7L212 44Z"></path></svg>