<svg xmlns="http://www.w3.org/2000/svg" xmlns:xlink="http://www.w3.org/1999/xlink" aria-hidden="true" role="img" class="iconify iconify--ph" width="1em" height="1em" preserveAspectRatio="xMidYMid meet" viewBox="0 0 256 256"><path fill="currentColor" d="M220.2 35.8A5.6 5.6 0 0 0 216 34l-63.8.2a5.8 5.8 0 0 0-4.6 2.2l-71.8 86.9l-9.9-9.9a14.1 14.1 0 0 0-19.8 0l-12.7 12.7a14 14 0 0 0 0 19.8l20.9 20.9a1.9 1.9 0 0 1 0 2.8l-29.9 30a13.9 13.9 0 0 0 0 19.8l12.2 12.2a13.8 13.8 0 0 0 9.9 4.1a13.5 13.5 0 0 0 9.9-4.1l30-29.9a1.9 1.9 0 0 1 2.8 0l20.9 20.9a14.1 14.1 0 0 0 19.8 0l12.7-12.7a14 14 0 0 0 0-19.8l-9.9-9.9l86.9-71.8a5.8 5.8 0 0 0 2.2-4.6L222 40a5.6 5.6 0 0 0-1.8-4.2Zm-86.1 162.8a1.9 1.9 0 0 1 0 2.8l-12.7 12.7a1.9 1.9 0 0 1-2.8 0l-20.9-20.9a14 14 0 0 0-19.8 0l-29.9 30a2.1 2.1 0 0 1-1.5.5a1.8 1.8 0 0 1-1.4-.5l-12.3-12.3a2.3 2.3 0 0 1 0-2.9l30-29.9a14.1 14.1 0 0 0 0-19.8l-20.9-20.9a1.9 1.9 0 0 1 0-2.8l12.7-12.7a1.9 1.9 0 0 1 2.8 0l14.5 14.5Zm75.7-97.6l-85.6 70.7l-15.7-15.7l55.7-55.8a5.9 5.9 0 0 0-8.4-8.4L100 147.5l-15.7-15.7L155 46.2l55-.2Z"></path></svg>