<svg xmlns="http://www.w3.org/2000/svg" xmlns:xlink="http://www.w3.org/1999/xlink" aria-hidden="true" role="img" class="iconify iconify--ph" width="1em" height="1em" preserveAspectRatio="xMidYMid meet" viewBox="0 0 256 256"><path fill="currentColor" d="M224.5 31.5A12.3 12.3 0 0 0 216 28l-63.8.2a12 12 0 0 0-8.9 3.9l-71.5 78.7l-1.7-1.6a19.9 19.9 0 0 0-28.2 0l-16.7 16.7a19.8 19.8 0 0 0 0 28.2l14 14.1l-19.1 19.1a20 20 0 0 0 0 28.3l20.3 20.3a20.2 20.2 0 0 0 28.3 0l19.1-19.1l14.1 14a19.9 19.9 0 0 0 28.2 0l16.7-16.7a19.8 19.8 0 0 0 0-28.2l-1.6-1.7l78.7-71.5a12 12 0 0 0 3.9-8.9L228 40a12.3 12.3 0 0 0-3.5-8.5ZM116 211l-14.1-14a19.8 19.8 0 0 0-28.2 0l-19.2 19.1l-14.6-14.6L59 182.3a19.9 19.9 0 0 0 0-28.2L45 140l11-11l35.5 35.5L127 200Zm87.8-112.5l-75.6 68.7L117 156l51.5-51.5a12 12 0 0 0-17-17L100 139l-11.2-11.2l68.7-75.6L204 52Z"></path></svg>