<svg xmlns="http://www.w3.org/2000/svg" xmlns:xlink="http://www.w3.org/1999/xlink" aria-hidden="true" role="img" class="iconify iconify--ph" width="1em" height="1em" preserveAspectRatio="xMidYMid meet" viewBox="0 0 256 256"><path fill="currentColor" d="m240.5 63.5l-48-48a12 12 0 0 0-17 17L191 48l-23 23l-31.5-31.5a12 12 0 0 0-17 17L123 60l-81.1 81.2a19.7 19.7 0 0 0-5.9 14.1V203l-20.5 20.5a12 12 0 0 0 0 17a12.1 12.1 0 0 0 17 0L53 220h47.7a19.7 19.7 0 0 0 14.1-5.9L196 133l3.5 3.5a12.1 12.1 0 0 0 17 0a12 12 0 0 0 0-17L185 88l23-23l15.5 15.5a12.1 12.1 0 0 0 17 0a12 12 0 0 0 0-17ZM99 196H60v-39l14-14l17.5 17.5a12.1 12.1 0 0 0 17 0a12 12 0 0 0 0-17L91 126l11-11l17.5 17.5a12.1 12.1 0 0 0 17 0a12 12 0 0 0 0-17L119 98l21-21l39 39Z"></path></svg>