<svg xmlns="http://www.w3.org/2000/svg" xmlns:xlink="http://www.w3.org/1999/xlink" aria-hidden="true" role="img" class="iconify iconify--ph" width="1em" height="1em" preserveAspectRatio="xMidYMid meet" viewBox="0 0 256 256"><path fill="currentColor" d="m236.2 67.8l-48-48a5.9 5.9 0 0 0-8.4 8.4L199.5 48L168 79.5l-35.8-35.7a5.9 5.9 0 0 0-8.4 8.4l7.7 7.8l-85.4 85.4a14.3 14.3 0 0 0-4.1 9.9v50.2l-22.2 22.3a5.9 5.9 0 1 0 8.4 8.4L50.5 214h50.2a14.3 14.3 0 0 0 9.9-4.1l85.4-85.4l7.8 7.7a5.9 5.9 0 1 0 8.4-8.4L176.5 88L208 56.5l19.8 19.7a5.9 5.9 0 1 0 8.4-8.4ZM102.1 201.4a2 2 0 0 1-1.4.6H54v-46.7a2 2 0 0 1 .6-1.4L74 134.5l21.8 21.7a5.9 5.9 0 0 0 8.4-8.4L82.5 126l19.5-19.5l21.8 21.7a5.9 5.9 0 1 0 8.4-8.4L110.5 98L140 68.5l47.5 47.5Z"></path></svg>