<svg xmlns="http://www.w3.org/2000/svg" xmlns:xlink="http://www.w3.org/1999/xlink" aria-hidden="true" role="img" class="iconify iconify--ph" width="1em" height="1em" preserveAspectRatio="xMidYMid meet" viewBox="0 0 256 256"><path fill="currentColor" d="m237.7 66.3l-48-48a8.1 8.1 0 0 0-11.4 11.4L196.7 48L168 76.7l-34.3-34.4a8.1 8.1 0 0 0-11.4 11.4l6.4 6.3l-84 84a15.9 15.9 0 0 0-4.7 11.3v49.4l-21.7 21.6a8.1 8.1 0 0 0 0 11.4a8.2 8.2 0 0 0 11.4 0L51.3 216h49.4a15.9 15.9 0 0 0 11.3-4.7l84-84l6.3 6.4a8.2 8.2 0 0 0 11.4 0a8.1 8.1 0 0 0 0-11.4L179.3 88L208 59.3l18.3 18.4a8.2 8.2 0 0 0 11.4 0a8.1 8.1 0 0 0 0-11.4ZM100.7 200H56v-44.7l18-18l20.3 20.4a8.2 8.2 0 0 0 11.4 0a8.1 8.1 0 0 0 0-11.4L85.3 126l16.7-16.7l20.3 20.4a8.2 8.2 0 0 0 11.4 0a8.1 8.1 0 0 0 0-11.4L113.3 98L140 71.3l44.7 44.7Z"></path></svg>