<svg xmlns="http://www.w3.org/2000/svg" xmlns:xlink="http://www.w3.org/1999/xlink" aria-hidden="true" role="img" class="iconify iconify--ph" width="1em" height="1em" preserveAspectRatio="xMidYMid meet" viewBox="0 0 256 256"><path fill="currentColor" d="m234.8 69.2l-48-48a4 4 0 0 0-5.6 5.6L202.3 48L168 82.3l-37.2-37.1a4 4 0 1 0-5.6 5.6l9.1 9.2l-86.8 86.8a11.9 11.9 0 0 0-3.5 8.5v51l-22.8 22.9a3.9 3.9 0 0 0 0 5.6a3.9 3.9 0 0 0 5.6 0L49.7 212h51a11.9 11.9 0 0 0 8.5-3.5l86.8-86.8l9.2 9.1a3.9 3.9 0 0 0 5.6 0a3.9 3.9 0 0 0 0-5.6L173.7 88L208 53.7l21.2 21.1a3.9 3.9 0 0 0 5.6 0a3.9 3.9 0 0 0 0-5.6ZM103.5 202.8a3.6 3.6 0 0 1-2.8 1.2H52v-48.7a3.6 3.6 0 0 1 1.2-2.8L74 131.7l23.2 23.1a3.9 3.9 0 0 0 5.6 0a3.9 3.9 0 0 0 0-5.6L79.7 126l22.3-22.3l23.2 23.1a3.9 3.9 0 0 0 5.6 0a3.9 3.9 0 0 0 0-5.6L107.7 98L140 65.7l25.2 25.1l25.1 25.2Z"></path></svg>