<svg xmlns="http://www.w3.org/2000/svg" xmlns:xlink="http://www.w3.org/1999/xlink" aria-hidden="true" role="img" class="iconify iconify--ph" width="1em" height="1em" preserveAspectRatio="xMidYMid meet" viewBox="0 0 256 256"><path fill="currentColor" d="m244.5 58.2l-46.2-28.4h-.2l-.7-.4l-.4-.2l-.7-.3l-.4-.2h-.6l-.6-.2H160a12 12 0 0 0-12 12a20 20 0 0 1-40 0A12 12 0 0 0 96 28H61.3l-.6.2h-.5l-.6.2l-.6.3l-.4.2l-.7.4h-.2L11.5 58.2a19.8 19.8 0 0 0-7.9 24.7l15.3 36.8A19.8 19.8 0 0 0 37.3 132H52v76a20.1 20.1 0 0 0 20 20h112a20.1 20.1 0 0 0 20-20v-76h14.7a19.8 19.8 0 0 0 18.4-12.3l15.3-36.8a19.8 19.8 0 0 0-7.9-24.7ZM40 108L27 76.8l25-15.3V108Zm140 96H76V52h9.7a44 44 0 0 0 84.6 0h9.7Zm36-96h-12V61.5l25 15.3Z"></path></svg>