<svg xmlns="http://www.w3.org/2000/svg" xmlns:xlink="http://www.w3.org/1999/xlink" aria-hidden="true" role="img" class="iconify iconify--ph" width="1em" height="1em" preserveAspectRatio="xMidYMid meet" viewBox="0 0 256 256"><path fill="currentColor" d="M245.4 61.3L196 33.1a8 8 0 0 0-4-1.1h-32a8 8 0 0 0-8 8a24 24 0 0 1-48 0a8 8 0 0 0-8-8H64a8 8 0 0 0-4 1.1L10.6 61.3a15.9 15.9 0 0 0-6.4 21l18.4 36.9a16 16 0 0 0 14.3 8.8H56v80a16 16 0 0 0 16 16h112a16 16 0 0 0 16-16v-80h19.1a16 16 0 0 0 14.3-8.8l18.4-36.9a15.9 15.9 0 0 0-6.4-21ZM36.9 112L18.5 75.2L56 53.8V112Zm182.2 0H200V53.8l37.5 21.4Z"></path></svg>