<svg xmlns="http://www.w3.org/2000/svg" xmlns:xlink="http://www.w3.org/1999/xlink" aria-hidden="true" role="img" class="iconify iconify--ph" width="1em" height="1em" preserveAspectRatio="xMidYMid meet" viewBox="0 0 256 256"><path fill="currentColor" d="M243.4 64.8L194 36.5h-.6l-.4-.2h-33a4 4 0 0 0-4 4a28 28 0 0 1-56 0a4 4 0 0 0-4-4H63l-.4.2H62L12.6 64.8a12.1 12.1 0 0 0-4.8 15.8l18.4 36.8a12 12 0 0 0 10.7 6.6H60v84a12 12 0 0 0 12 12h112a12 12 0 0 0 12-12v-84h23.1a12 12 0 0 0 10.7-6.6l18.4-36.8a12.1 12.1 0 0 0-4.8-15.8ZM36.9 116a3.7 3.7 0 0 1-3.5-2.2L15 77a4 4 0 0 1 1.6-5.3L60 46.9V116ZM188 208a4 4 0 0 1-4 4H72a4 4 0 0 1-4-4V44h24.2a36 36 0 0 0 71.6 0H188Zm53-131l-18.4 36.8a3.7 3.7 0 0 1-3.5 2.2H196V46.9l43.4 24.8A4 4 0 0 1 241 77Z"></path></svg>