<svg xmlns="http://www.w3.org/2000/svg" xmlns:xlink="http://www.w3.org/1999/xlink" aria-hidden="true" role="img" class="iconify iconify--ph" width="1em" height="1em" preserveAspectRatio="xMidYMid meet" viewBox="0 0 256 256"><path fill="currentColor" d="M244.4 63L195 34.8h-.1l-.3-.2h-.6c0-.1-.1-.1-.2-.1H160a6 6 0 0 0-6 6a26 26 0 0 1-52 0a6 6 0 0 0-6-6H62.2c-.1 0-.2 0-.2.1h-.6l-.3.2H61L11.6 63A14.1 14.1 0 0 0 6 81.5l18.4 36.8a14 14 0 0 0 12.5 7.7H58v82a14 14 0 0 0 14 14h112a14 14 0 0 0 14-14v-82h21.1a14 14 0 0 0 12.5-7.7L250 81.5a14.1 14.1 0 0 0-5.6-18.5ZM36.9 114a1.8 1.8 0 0 1-1.7-1.1L16.8 76.1a1.9 1.9 0 0 1 .7-2.6L58 50.3V114ZM186 208a2 2 0 0 1-2 2H72a2 2 0 0 1-2-2V46h20.5a38 38 0 0 0 75 0H186Zm53.2-131.9l-18.4 36.8a1.8 1.8 0 0 1-1.7 1.1H198V50.3l40.5 23.2a1.9 1.9 0 0 1 .7 2.6Z"></path></svg>