<svg xmlns="http://www.w3.org/2000/svg" xmlns:xlink="http://www.w3.org/1999/xlink" aria-hidden="true" role="img" class="iconify iconify--ph" width="1em" height="1em" preserveAspectRatio="xMidYMid meet" viewBox="0 0 256 256"><path fill="currentColor" d="M32 104h56v96H32z" opacity=".2"></path><path fill="currentColor" d="M224 48H32a8 8 0 0 0-8 8v136a16 16 0 0 0 16 16h176a16 16 0 0 0 16-16V56a8 8 0 0 0-8-8ZM40 112h40v32H40Zm56 0h120v32H96Zm120-48v32H40V64ZM40 160h40v32H40Zm176 32H96v-32h120v32Z"></path></svg>