<svg xmlns="http://www.w3.org/2000/svg" xmlns:xlink="http://www.w3.org/1999/xlink" aria-hidden="true" role="img" class="iconify iconify--ph" width="1em" height="1em" preserveAspectRatio="xMidYMid meet" viewBox="0 0 256 256"><path fill="currentColor" d="M255.7 165.7h-.1l-22.2-74.3A16 16 0 0 0 218 80h-10a8 8 0 0 0 0 16h10l19.2 64H206l-20.6-68.6A16 16 0 0 0 170 80h-10a8 8 0 0 0 0 16h10l19.2 64H158l-20.6-68.6A16 16 0 0 0 122 80H38a16 16 0 0 0-15.4 11.4L.4 165.6H.3A8.5 8.5 0 0 0 0 168a8 8 0 0 0 8 8h240a8 8 0 0 0 8-8a8.5 8.5 0 0 0-.3-2.3ZM38 96h84l19.2 64H18.8Z"></path></svg>