<svg xmlns="http://www.w3.org/2000/svg" xmlns:xlink="http://www.w3.org/1999/xlink" aria-hidden="true" role="img" class="iconify iconify--ph" width="1em" height="1em" preserveAspectRatio="xMidYMid meet" viewBox="0 0 256 256"><path fill="currentColor" d="m251.8 166.9l-22.3-74.3A11.8 11.8 0 0 0 218 84h-10a4 4 0 0 0 0 8h10a4 4 0 0 1 3.9 2.9l20.7 69.1H203l-21.5-71.4A11.8 11.8 0 0 0 170 84h-10a4 4 0 0 0 0 8h10a4 4 0 0 1 3.9 2.9l20.7 69.1H155l-21.5-71.4A11.8 11.8 0 0 0 122 84H38a11.8 11.8 0 0 0-11.5 8.6L4.2 166.9A3.6 3.6 0 0 0 4 168a4 4 0 0 0 4 4h240a4 4 0 0 0 4-4a3.6 3.6 0 0 0-.2-1.1ZM34.1 94.8A4 4 0 0 1 38 92h84a4 4 0 0 1 3.9 2.9l20.7 69.1H13.4Z"></path></svg>