<svg xmlns="http://www.w3.org/2000/svg" xmlns:xlink="http://www.w3.org/1999/xlink" aria-hidden="true" role="img" class="iconify iconify--ph" width="1em" height="1em" preserveAspectRatio="xMidYMid meet" viewBox="0 0 256 256"><path fill="currentColor" d="M255.5 164.6h-.1l-22.2-74.3A19.9 19.9 0 0 0 214 76h-10a12 12 0 0 0 0 24h7.1l16.8 56h-31l-19.7-65.7A19.9 19.9 0 0 0 158 76h-10a12 12 0 0 0 0 24h7.1l16.8 56h-31l-19.7-65.7A19.9 19.9 0 0 0 102 76H42a19.9 19.9 0 0 0-19.2 14.3L.6 164.4H.5A12 12 0 0 0 12 180h232a12 12 0 0 0 11.5-15.4ZM44.9 100h54.2l16.8 56H28.1Z"></path></svg>