<svg xmlns="http://www.w3.org/2000/svg" xmlns:xlink="http://www.w3.org/1999/xlink" aria-hidden="true" role="img" class="iconify iconify--ph" width="1em" height="1em" preserveAspectRatio="xMidYMid meet" viewBox="0 0 256 256"><path fill="currentColor" d="M256 168a8 8 0 0 1-8 8H8a8 8 0 0 1-8-8a8.5 8.5 0 0 1 .3-2.3h.1l22.2-74.3A16 16 0 0 1 38 80h84a16 16 0 0 1 15.4 11.4L158 160h31.2L170 96h-10a8 8 0 0 1 0-16h10a16 16 0 0 1 15.4 11.4L206 160h31.2L218 96h-10a8 8 0 0 1 0-16h10a16 16 0 0 1 15.4 11.4l22.2 74.2h.1a8.5 8.5 0 0 1 .3 2.4Z"></path></svg>