<svg xmlns="http://www.w3.org/2000/svg" xmlns:xlink="http://www.w3.org/1999/xlink" aria-hidden="true" role="img" class="iconify iconify--ph" width="1em" height="1em" preserveAspectRatio="xMidYMid meet" viewBox="0 0 256 256"><path fill="currentColor" d="M253.7 166.3L231.5 92A14 14 0 0 0 218 82h-10a6 6 0 0 0 0 12h10a2.2 2.2 0 0 1 2 1.4l19.9 66.6h-35.4l-21-70A14 14 0 0 0 170 82h-10a6 6 0 0 0 0 12h10a2.2 2.2 0 0 1 2 1.4l19.9 66.6h-35.4l-21-70A14 14 0 0 0 122 82H38a14 14 0 0 0-13.5 10L2.3 166.2A4.7 4.7 0 0 0 2 168a6 6 0 0 0 6 6h240a6 6 0 0 0 6-6a4.7 4.7 0 0 0-.3-1.7ZM36 95.4a2.2 2.2 0 0 1 2-1.4h84a2.2 2.2 0 0 1 2 1.4l19.9 66.6H16.1Z"></path></svg>