<svg xmlns="http://www.w3.org/2000/svg" xmlns:xlink="http://www.w3.org/1999/xlink" aria-hidden="true" role="img" class="iconify iconify--ph" width="1em" height="1em" preserveAspectRatio="xMidYMid meet" viewBox="0 0 256 256"><path fill="currentColor" d="m229 132.4l-42.6 64a7.9 7.9 0 0 1-6.7 3.6H24l45-67.6a7.8 7.8 0 0 0 0-8.8L24 56h155.7a7.9 7.9 0 0 1 6.7 3.6l42.6 64a7.8 7.8 0 0 1 0 8.8Z" opacity=".2"></path><path fill="currentColor" d="m235.7 119.1l-42.7-64a15.9 15.9 0 0 0-13.3-7.1H24a7.8 7.8 0 0 0-7 4.2a8 8 0 0 0 .3 8.2L62.4 128l-45.1 67.6a8 8 0 0 0-.3 8.2a7.8 7.8 0 0 0 7 4.2h155.7a15.9 15.9 0 0 0 13.3-7.1l42.7-64a16 16 0 0 0 0-17.8Zm-56 72.9H39l36.7-55.1a16 16 0 0 0 0-17.8L39 64h140.7l42.7 64Z"></path></svg>