<svg xmlns="http://www.w3.org/2000/svg" xmlns:xlink="http://www.w3.org/1999/xlink" aria-hidden="true" role="img" class="iconify iconify--ph" width="1em" height="1em" preserveAspectRatio="xMidYMid meet" viewBox="0 0 256 256"><path fill="currentColor" d="M194.4 196.4L240 128l-45.6-68.4a7.9 7.9 0 0 0-6.7-3.6H40a8 8 0 0 0-8 8v128a8 8 0 0 0 8 8h147.7a7.9 7.9 0 0 0 6.7-3.6Z" opacity=".2"></path><path fill="currentColor" d="M187.7 208H40a16 16 0 0 1-16-16V64a16 16 0 0 1 16-16h147.7a15.9 15.9 0 0 1 13.3 7.1l45.7 68.5a7.8 7.8 0 0 1 0 8.8L201 200.9a15.9 15.9 0 0 1-13.3 7.1Zm0-16l42.7-64l-42.7-64H40v128Z"></path></svg>