<svg xmlns="http://www.w3.org/2000/svg" xmlns:xlink="http://www.w3.org/1999/xlink" aria-hidden="true" role="img" class="iconify iconify--ph" width="1em" height="1em" preserveAspectRatio="xMidYMid meet" viewBox="0 0 256 256"><path fill="currentColor" d="M238.6 128.3L134.1 23.8a14 14 0 0 0-12.6-3.8L40.8 36.1a6.3 6.3 0 0 0-4.7 4.7L20 121.5a14 14 0 0 0 3.8 12.6l104.5 104.5a13.9 13.9 0 0 0 9.9 4.1a14.3 14.3 0 0 0 9.9-4.1l90.5-90.5a14.3 14.3 0 0 0 4.1-9.9a13.9 13.9 0 0 0-4.1-9.9Zm-8.5 11.3l-90.5 90.5a1.9 1.9 0 0 1-2.8 0L32.3 125.6a1.7 1.7 0 0 1-.5-1.8l15.3-76.7l76.7-15.3a1.9 1.9 0 0 1 1.9.5l104.4 104.5a1.9 1.9 0 0 1 0 2.8ZM94 84a10 10 0 1 1-10-10a10 10 0 0 1 10 10Z"></path></svg>