<svg xmlns="http://www.w3.org/2000/svg" xmlns:xlink="http://www.w3.org/1999/xlink" aria-hidden="true" role="img" class="iconify iconify--ph" width="1em" height="1em" preserveAspectRatio="xMidYMid meet" viewBox="0 0 256 256"><path fill="currentColor" d="M242.8 124L138.4 19.6a19.9 19.9 0 0 0-18.1-5.5L39.7 30.2a12.2 12.2 0 0 0-9.5 9.5l-16.1 80.6a19.9 19.9 0 0 0 5.5 18.1L124 242.8a19.9 19.9 0 0 0 28.3 0l90.5-90.5a19.9 19.9 0 0 0 0-28.3Zm-104.6 99L38.1 122.9l14.1-70.7l70.7-14.1L223 138.2ZM100 84a16 16 0 1 1-16-16a16 16 0 0 1 16 16Z"></path></svg>