<svg xmlns="http://www.w3.org/2000/svg" xmlns:xlink="http://www.w3.org/1999/xlink" aria-hidden="true" role="img" class="iconify iconify--ph" width="1em" height="1em" preserveAspectRatio="xMidYMid meet" viewBox="0 0 256 256"><path fill="currentColor" d="M237.2 129.7L132.7 25.2a11.9 11.9 0 0 0-10.8-3.2L41.2 38.1a3.8 3.8 0 0 0-3.1 3.1L22 121.9a11.9 11.9 0 0 0 3.2 10.8l104.5 104.5a12.1 12.1 0 0 0 17 0l90.5-90.5a12.1 12.1 0 0 0 0-17Zm-5.7 11.3L141 231.5a3.9 3.9 0 0 1-5.6 0L30.9 127.1a4.2 4.2 0 0 1-1.1-3.7l15.6-78l78.1-15.6a3.8 3.8 0 0 1 3.6 1.1l104.4 104.4a4 4 0 0 1 1.2 2.9a3.9 3.9 0 0 1-1.2 2.8ZM92 84a8 8 0 1 1-8-8a8 8 0 0 1 8 8Z"></path></svg>