<svg xmlns="http://www.w3.org/2000/svg" xmlns:xlink="http://www.w3.org/1999/xlink" aria-hidden="true" role="img" class="iconify iconify--ph" width="1em" height="1em" preserveAspectRatio="xMidYMid meet" viewBox="0 0 256 256"><path fill="currentColor" d="m234 120.2l-42.6-64a14 14 0 0 0-11.7-6.2H24a6 6 0 0 0-5 9.3l45.1 67.6a2.2 2.2 0 0 1 0 2.2L19 196.7a6 6 0 0 0 5 9.3h155.7a14 14 0 0 0 11.7-6.2l42.6-64a13.9 13.9 0 0 0 0-15.6Zm-9.9 8.9l-42.7 64a2 2 0 0 1-1.7.9H35.2L74 135.8a13.9 13.9 0 0 0 0-15.6L35.2 62h144.5a2 2 0 0 1 1.7.9l42.7 64a2.2 2.2 0 0 1 0 2.2Z"></path></svg>