<svg xmlns="http://www.w3.org/2000/svg" xmlns:xlink="http://www.w3.org/1999/xlink" aria-hidden="true" role="img" class="iconify iconify--ph" width="1em" height="1em" preserveAspectRatio="xMidYMid meet" viewBox="0 0 256 256"><path fill="currentColor" d="M187.7 206H40a14 14 0 0 1-14-14V64a14 14 0 0 1 14-14h147.7a14 14 0 0 1 11.7 6.2l45.6 68.5a6.1 6.1 0 0 1 0 6.6l-45.6 68.5a14 14 0 0 1-11.7 6.2ZM40 62a2 2 0 0 0-2 2v128a2 2 0 0 0 2 2h147.7a2 2 0 0 0 1.7-.9l43.4-65.1l-43.4-65.1a2 2 0 0 0-1.7-.9Z"></path></svg>