<svg xmlns="http://www.w3.org/2000/svg" xmlns:xlink="http://www.w3.org/1999/xlink" aria-hidden="true" role="img" class="iconify iconify--ph" width="1em" height="1em" preserveAspectRatio="xMidYMid meet" viewBox="0 0 256 256"><path fill="currentColor" d="m239 116.9l-42.6-64a20.1 20.1 0 0 0-16.7-8.9H24a12 12 0 0 0-10 18.6L57.6 128L14 193.3a12.2 12.2 0 0 0-.6 12.4A12 12 0 0 0 24 212h155.7a20.1 20.1 0 0 0 16.7-8.9l42.6-64a19.9 19.9 0 0 0 0-22.2ZM177.6 188H46.4L79 139.1a19.9 19.9 0 0 0 0-22.2L46.4 68h131.2l40 60Z"></path></svg>