<svg xmlns="http://www.w3.org/2000/svg" xmlns:xlink="http://www.w3.org/1999/xlink" aria-hidden="true" role="img" class="iconify iconify--ph" width="1em" height="1em" preserveAspectRatio="xMidYMid meet" viewBox="0 0 256 256"><path fill="currentColor" d="M187.7 204H40a12 12 0 0 1-12-12V64a12 12 0 0 1 12-12h147.7a12.1 12.1 0 0 1 10 5.3l45.6 68.5a3.9 3.9 0 0 1 0 4.4l-45.6 68.4a11.9 11.9 0 0 1-10 5.4ZM40 60a4 4 0 0 0-4 4v128a4 4 0 0 0 4 4h147.7a4.2 4.2 0 0 0 3.4-1.8l44.1-66.2l-44.1-66.2a4.2 4.2 0 0 0-3.4-1.8Z"></path></svg>