<svg xmlns="http://www.w3.org/2000/svg" xmlns:xlink="http://www.w3.org/1999/xlink" aria-hidden="true" role="img" class="iconify iconify--ph" width="1em" height="1em" preserveAspectRatio="xMidYMid meet" viewBox="0 0 256 256"><path fill="currentColor" d="M221.9 83.2a104 104 0 0 1-20.4 118.3a103.8 103.8 0 0 1-147 0a103.8 103.8 0 0 1 0-147A104 104 0 0 1 195.7 49l22.6-22.7a8.1 8.1 0 0 1 11.4 11.4l-62.1 62l-33.9 34a8.2 8.2 0 0 1-11.4 0a8.1 8.1 0 0 1 0-11.4l27.8-27.7a40.2 40.2 0 1 0 17.8 31.1a8 8 0 0 1 7.6-8.4a7.9 7.9 0 0 1 8.4 7.5a56 56 0 1 1-22.4-41.6l22.8-22.8a87.9 87.9 0 1 0 23.1 29.7a8 8 0 0 1 14.5-6.9Z"></path></svg>