<svg xmlns="http://www.w3.org/2000/svg" xmlns:xlink="http://www.w3.org/1999/xlink" aria-hidden="true" role="img" class="iconify iconify--ph" width="1em" height="1em" preserveAspectRatio="xMidYMid meet" viewBox="0 0 256 256"><circle cx="128" cy="128" r="48" fill="currentColor" opacity=".2"></circle><path fill="currentColor" d="M211.2 79.4a8 8 0 0 0-3.8 10.7a88 88 0 1 1-23.1-29.7l-22.8 22.8a55.9 55.9 0 1 0 22.4 41.6a7.9 7.9 0 0 0-8.4-7.5a8 8 0 0 0-7.6 8.4a39.8 39.8 0 1 1-17.8-31.1l-27.8 27.7a8.1 8.1 0 0 0 0 11.4a8.2 8.2 0 0 0 11.4 0l33.9-34l62.1-62a8.1 8.1 0 0 0-11.4-11.4L195.7 49a104 104 0 0 0-141.2 5.5a103.8 103.8 0 0 0 0 147a103.8 103.8 0 0 0 147 0a104 104 0 0 0 20.4-118.3a8 8 0 0 0-10.7-3.8Z"></path></svg>