<svg xmlns="http://www.w3.org/2000/svg" xmlns:xlink="http://www.w3.org/1999/xlink" aria-hidden="true" role="img" class="iconify iconify--ph" width="1em" height="1em" preserveAspectRatio="xMidYMid meet" viewBox="0 0 256 256"><path fill="currentColor" d="M220.1 84A102 102 0 0 1 55.9 200.1a101.9 101.9 0 0 1 0-144.2c38.3-38.4 99.8-39.7 139.9-4.1l24-24a5.9 5.9 0 1 1 8.4 8.4l-62 62.1l-34 33.9a5.9 5.9 0 0 1-8.4-8.4l29.3-29.4a42 42 0 1 0 16.8 31.2a6 6 0 0 1 5.7-6.3a5.9 5.9 0 0 1 6.3 5.6a54 54 0 1 1-20.2-39.1l25.5-25.5a89.8 89.8 0 1 0 22 28.9a6 6 0 0 1 10.9-5.2Z"></path></svg>