<svg xmlns="http://www.w3.org/2000/svg" xmlns:xlink="http://www.w3.org/1999/xlink" aria-hidden="true" role="img" class="iconify iconify--ph" width="1em" height="1em" preserveAspectRatio="xMidYMid meet" viewBox="0 0 256 256"><path fill="currentColor" d="M240 116h-13.7l-28.5-50a12.1 12.1 0 0 0-10.4-6h-24.7l-13-32.5a12 12 0 0 0-11.1-7.5h-21.2a12 12 0 0 0-11.1 7.5L93.3 60H68.6a12.1 12.1 0 0 0-10.4 6l-28.5 50H16a4 4 0 0 0 0 8h12v84a12 12 0 0 0 12 12h24a12 12 0 0 0 12-12v-20h104v20a12 12 0 0 0 12 12h24a12 12 0 0 0 12-12v-84h12a4 4 0 0 0 0-8ZM113.7 30.5a4 4 0 0 1 3.7-2.5h21.2a4 4 0 0 1 3.7 2.5L154.1 60h-52.2ZM65.2 70a4 4 0 0 1 3.4-2h118.8a4 4 0 0 1 3.4 2l26.3 46H38.9ZM68 208a4 4 0 0 1-4 4H40a4 4 0 0 1-4-4v-20h32Zm148 4h-24a4 4 0 0 1-4-4v-20h32v20a4 4 0 0 1-4 4Zm4-32H36v-56h184ZM60 152a4 4 0 0 1 4-4h16a4 4 0 0 1 0 8H64a4 4 0 0 1-4-4Zm112 0a4 4 0 0 1 4-4h16a4 4 0 0 1 0 8h-16a4 4 0 0 1-4-4Z"></path></svg>