<svg xmlns="http://www.w3.org/2000/svg" xmlns:xlink="http://www.w3.org/1999/xlink" aria-hidden="true" role="img" class="iconify iconify--ph" width="1em" height="1em" preserveAspectRatio="xMidYMid meet" viewBox="0 0 256 256"><path fill="currentColor" d="M240 112h-11.4l-27.4-47.9a15.9 15.9 0 0 0-13.8-8.1h-22l-12-29.9A15.7 15.7 0 0 0 138.6 16h-21.2a15.7 15.7 0 0 0-14.8 10.1L90.6 56h-22a15.9 15.9 0 0 0-13.8 8.1L27.4 112H16a8 8 0 0 0 0 16h8v80a16 16 0 0 0 16 16h24a16 16 0 0 0 16-16v-16h96v16a16 16 0 0 0 16 16h24a16 16 0 0 0 16-16v-80h8a8 8 0 0 0 0-16ZM117.4 32h21.2l9.6 24h-40.4ZM80 160H64a8 8 0 0 1 0-16h16a8 8 0 0 1 0 16Zm112 0h-16a8 8 0 0 1 0-16h16a8 8 0 0 1 0 16Z"></path></svg>