<svg xmlns="http://www.w3.org/2000/svg" xmlns:xlink="http://www.w3.org/1999/xlink" aria-hidden="true" role="img" class="iconify iconify--ph" width="1em" height="1em" preserveAspectRatio="xMidYMid meet" viewBox="0 0 256 256"><path fill="currentColor" d="M184 184h40v24a8 8 0 0 1-8 8h-24a8 8 0 0 1-8-8ZM32 208a8 8 0 0 0 8 8h24a8 8 0 0 0 8-8v-24H32ZM194.3 68a7.9 7.9 0 0 0-6.9-4H68.6a7.9 7.9 0 0 0-6.9 4L32 120h192Z" opacity=".2"></path><path fill="currentColor" d="M240 112h-11.4l-27.4-47.9a15.9 15.9 0 0 0-13.8-8.1h-22l-12-29.9A15.7 15.7 0 0 0 138.6 16h-21.2a15.7 15.7 0 0 0-14.8 10.1L90.6 56h-22a15.9 15.9 0 0 0-13.8 8.1L27.4 112H16a8 8 0 0 0 0 16h8v80a16 16 0 0 0 16 16h24a16 16 0 0 0 16-16v-16h96v16a16 16 0 0 0 16 16h24a16 16 0 0 0 16-16v-80h8a8 8 0 0 0 0-16ZM117.4 32h21.2l9.6 24h-40.4ZM68.6 72h118.8l22.8 40H45.8ZM64 208H40v-16h24Zm128 0v-16h24v16Zm24-32H40v-48h176ZM56 152a8 8 0 0 1 8-8h16a8 8 0 0 1 0 16H64a8 8 0 0 1-8-8Zm112 0a8 8 0 0 1 8-8h16a8 8 0 0 1 0 16h-16a8 8 0 0 1-8-8Z"></path></svg>