<svg xmlns="http://www.w3.org/2000/svg" xmlns:xlink="http://www.w3.org/1999/xlink" aria-hidden="true" role="img" class="iconify iconify--ph" width="1em" height="1em" preserveAspectRatio="xMidYMid meet" viewBox="0 0 256 256"><path fill="currentColor" d="M231.3 31.7A16.1 16.1 0 0 0 215 29L30.4 101.5a15.8 15.8 0 0 0-10.1 16.3a16 16 0 0 0 12.8 14.3l46.9 9.3V200a16 16 0 0 0 9.9 14.8A16.6 16.6 0 0 0 96 216a15.8 15.8 0 0 0 11.3-4.7l26-25.9l39.3 34.6a16 16 0 0 0 10.5 4a14.2 14.2 0 0 0 5-.8a15.9 15.9 0 0 0 10.7-11.6l37.6-164.2a16 16 0 0 0-5.1-15.7ZM183.2 208l-82.4-72.5l118.7-85.7Z"></path></svg>