<svg xmlns="http://www.w3.org/2000/svg" xmlns:xlink="http://www.w3.org/1999/xlink" aria-hidden="true" role="img" class="iconify iconify--ph" width="1em" height="1em" preserveAspectRatio="xMidYMid meet" viewBox="0 0 256 256"><path fill="currentColor" d="M216 68h-78.3l41.1-41.2a4 4 0 0 0-5.6-5.6L128 66.3L82.8 21.2a4 4 0 0 0-5.6 5.6L118.3 68H40a12 12 0 0 0-12 12v120a12 12 0 0 0 12 12h176a12 12 0 0 0 12-12V80a12 12 0 0 0-12-12Zm4 132a4 4 0 0 1-4 4H40a4 4 0 0 1-4-4V80a4 4 0 0 1 4-4h176a4 4 0 0 1 4 4Z"></path></svg>