<svg xmlns="http://www.w3.org/2000/svg" xmlns:xlink="http://www.w3.org/1999/xlink" aria-hidden="true" role="img" class="iconify iconify--ph" width="1em" height="1em" preserveAspectRatio="xMidYMid meet" viewBox="0 0 256 256"><path fill="currentColor" d="M216 68h-78.3l41.1-41.2a4 4 0 0 0-5.6-5.6L128 66.3L82.8 21.2a4 4 0 0 0-5.6 5.6L118.3 68H40a12 12 0 0 0-12 12v120a12 12 0 0 0 12 12h176a12 12 0 0 0 12-12V80a12 12 0 0 0-12-12ZM36 200V80a4 4 0 0 1 4-4h108v128H40a4 4 0 0 1-4-4Zm184 0a4 4 0 0 1-4 4h-60V76h60a4 4 0 0 1 4 4Zm-24-84a8 8 0 1 1-8-8a8 8 0 0 1 8 8Zm0 48a8 8 0 1 1-8-8a8 8 0 0 1 8 8Z"></path></svg>