<svg xmlns="http://www.w3.org/2000/svg" xmlns:xlink="http://www.w3.org/1999/xlink" aria-hidden="true" role="img" class="iconify iconify--ph" width="1em" height="1em" preserveAspectRatio="xMidYMid meet" viewBox="0 0 256 256"><path fill="currentColor" d="M228.6 34.8a12 12 0 0 0-12.2-2.1L31.9 105.2a12 12 0 0 0 2 22.9L84 138.2V200a11.8 11.8 0 0 0 7.4 11.1a12.7 12.7 0 0 0 4.7.9a11.8 11.8 0 0 0 8.4-3.5l28.6-28.6l42.2 37.1a11.6 11.6 0 0 0 7.9 3a11.9 11.9 0 0 0 3.7-.6a12.1 12.1 0 0 0 8-8.7l37.6-164.2a11.8 11.8 0 0 0-3.9-11.7ZM32.3 116.7a3.8 3.8 0 0 1 2.5-4.1L204 46.2L87.1 130.6l-51.6-10.3a3.9 3.9 0 0 1-3.2-3.6Zm66.5 86.1a3.9 3.9 0 0 1-4.3.9A4 4 0 0 1 92 200v-56.3l35.1 30.9Zm125.9-158l-37.6 164.1a3.9 3.9 0 0 1-2.7 2.9a3.7 3.7 0 0 1-3.8-.8l-86.2-75.8l129.7-93.7a4.1 4.1 0 0 1 .6 3.3Z"></path></svg>