<svg xmlns="http://www.w3.org/2000/svg" xmlns:xlink="http://www.w3.org/1999/xlink" aria-hidden="true" role="img" class="iconify iconify--ph" width="1em" height="1em" preserveAspectRatio="xMidYMid meet" viewBox="0 0 256 256"><path fill="currentColor" d="M216 66h-73.5l37.7-37.8a5.9 5.9 0 0 0-8.4-8.4L128 63.5L84.2 19.8a5.9 5.9 0 0 0-8.4 8.4L113.5 66H40a14 14 0 0 0-14 14v120a14 14 0 0 0 14 14h176a14 14 0 0 0 14-14V80a14 14 0 0 0-14-14Zm2 134a2 2 0 0 1-2 2H40a2 2 0 0 1-2-2V80a2 2 0 0 1 2-2h176a2 2 0 0 1 2 2Z"></path></svg>