<svg xmlns="http://www.w3.org/2000/svg" xmlns:xlink="http://www.w3.org/1999/xlink" aria-hidden="true" role="img" class="iconify iconify--ph" width="1em" height="1em" preserveAspectRatio="xMidYMid meet" viewBox="0 0 256 256"><path fill="currentColor" d="M229.9 129a2.5 2.5 0 0 0 .1-.8a1.9 1.9 0 0 0-.1-.8A101.9 101.9 0 0 0 128 26h-.2A101.9 101.9 0 0 0 26.1 127a2.5 2.5 0 0 0-.1.8a1.9 1.9 0 0 0 .1.8A101.9 101.9 0 0 0 128 230h.2a101.9 101.9 0 0 0 101.7-101ZM64.4 64.4a89.1 89.1 0 0 1 57.2-26.1a89.9 89.9 0 0 1-83.3 83.3a89.1 89.1 0 0 1 26.1-57.2Zm-26.2 69.2a101.7 101.7 0 0 0 95.4-95.4a90.1 90.1 0 0 1 84.2 84.2a101.7 101.7 0 0 0-95.4 95.4a90.1 90.1 0 0 1-84.2-84.2Zm96.2 84.1a89.9 89.9 0 0 1 83.3-83.3a89.9 89.9 0 0 1-83.3 83.3Z"></path></svg>