<svg xmlns="http://www.w3.org/2000/svg" xmlns:xlink="http://www.w3.org/1999/xlink" aria-hidden="true" role="img" class="iconify iconify--ph" width="1em" height="1em" preserveAspectRatio="xMidYMid meet" viewBox="0 0 256 256"><path fill="currentColor" d="M227.9 128.7a.9.9 0 0 0 .1-.5a.7.7 0 0 0-.1-.5A99.9 99.9 0 0 0 128 28h-.2a99.9 99.9 0 0 0-99.7 99.3a1.1 1.1 0 0 0-.1.5a.7.7 0 0 0 .1.5A99.9 99.9 0 0 0 128 228h.2a99.9 99.9 0 0 0 99.7-99.3Zm-165-65.8a91.7 91.7 0 0 1 60.8-26.8a91.8 91.8 0 0 1-87.6 87.6a92.4 92.4 0 0 1 26.8-60.8Zm-26.8 68.8a98.7 98.7 0 0 0 66.4-29.2a98.7 98.7 0 0 0 29.2-66.4a91.7 91.7 0 0 1 88.2 88.2a100 100 0 0 0-95.6 95.6a91.7 91.7 0 0 1-88.2-88.2Zm96.2 88.2a91.8 91.8 0 0 1 87.6-87.6a91.8 91.8 0 0 1-87.6 87.6Z"></path></svg>