<svg xmlns="http://www.w3.org/2000/svg" xmlns:xlink="http://www.w3.org/1999/xlink" aria-hidden="true" role="img" class="iconify iconify--ph" width="1em" height="1em" preserveAspectRatio="xMidYMid meet" viewBox="0 0 256 256"><path fill="currentColor" d="M235.9 129.4a5.3 5.3 0 0 0 .1-1.3a4.9 4.9 0 0 0-.1-1.2A107.6 107.6 0 0 0 129.1 20.1h-2.5A107.6 107.6 0 0 0 20.1 126.6a5.3 5.3 0 0 0-.1 1.3a3.7 3.7 0 0 0 .1 1.1A107.6 107.6 0 0 0 127 235.9h2.4a107.6 107.6 0 0 0 106.5-106.5ZM68.6 68.6a83.8 83.8 0 0 1 46.2-23.5a84.3 84.3 0 0 1-69.7 69.7a83.8 83.8 0 0 1 23.5-46.2Zm-23.8 70.5a108.2 108.2 0 0 0 94.3-94.3a83.7 83.7 0 0 1 72.1 72.1a108.2 108.2 0 0 0-94.3 94.3a83.7 83.7 0 0 1-72.1-72.1Zm96.4 71.8a84.3 84.3 0 0 1 69.7-69.7a83.7 83.7 0 0 1-69.7 69.7Z"></path></svg>