<svg xmlns="http://www.w3.org/2000/svg" xmlns:xlink="http://www.w3.org/1999/xlink" aria-hidden="true" role="img" class="iconify iconify--ph" width="1em" height="1em" preserveAspectRatio="xMidYMid meet" viewBox="0 0 256 256"><path fill="currentColor" d="M231.9 129.1a2.8 2.8 0 0 0 .1-.9a3.1 3.1 0 0 0-.1-1A104 104 0 0 0 128 24h-.2A104 104 0 0 0 24.1 126.9a2.8 2.8 0 0 0-.1.9a3.1 3.1 0 0 0 .1 1A104 104 0 0 0 128 232h.2a104 104 0 0 0 103.7-102.9ZM65.8 65.8a87.4 87.4 0 0 1 53.6-25.3a87.8 87.8 0 0 1-78.9 78.9a87.1 87.1 0 0 1 25.3-53.6Zm-25.4 69.7a104 104 0 0 0 95.1-95.1a87.8 87.8 0 0 1 80.1 80.1a104 104 0 0 0-95.1 95.1a87.8 87.8 0 0 1-80.1-80.1Zm96.2 80a87.8 87.8 0 0 1 78.9-78.9a87.8 87.8 0 0 1-78.9 78.9Z"></path></svg>