<svg xmlns="http://www.w3.org/2000/svg" xmlns:xlink="http://www.w3.org/1999/xlink" aria-hidden="true" role="img" class="iconify iconify--ph" width="1em" height="1em" preserveAspectRatio="xMidYMid meet" viewBox="0 0 256 256"><path fill="currentColor" d="M122.5 124.9a4 4 0 0 1 0 6.2l-40 32a3.8 3.8 0 0 1-2.5.9a3.9 3.9 0 0 1-3.1-1.5a4 4 0 0 1 .6-5.6l36.1-28.9l-36.1-28.9a4 4 0 1 1 5-6.2ZM176 156h-40a4 4 0 0 0 0 8h40a4 4 0 0 0 0-8Zm52-99.5v143a12.5 12.5 0 0 1-12.5 12.5h-175A12.5 12.5 0 0 1 28 199.5v-143A12.5 12.5 0 0 1 40.5 44h175A12.5 12.5 0 0 1 228 56.5Zm-8 0a4.5 4.5 0 0 0-4.5-4.5h-175a4.5 4.5 0 0 0-4.5 4.5v143a4.5 4.5 0 0 0 4.5 4.5h175a4.5 4.5 0 0 0 4.5-4.5Z"></path></svg>