<svg xmlns="http://www.w3.org/2000/svg" xmlns:xlink="http://www.w3.org/1999/xlink" aria-hidden="true" role="img" class="iconify iconify--ph" width="1em" height="1em" preserveAspectRatio="xMidYMid meet" viewBox="0 0 256 256"><path fill="currentColor" d="M126 128a6 6 0 0 1-2.3 4.7l-40 32A5.8 5.8 0 0 1 80 166a6 6 0 0 1-3.7-10.7l34.1-27.3l-34.1-27.3a6 6 0 0 1 7.4-9.4l40 32a6 6 0 0 1 2.3 4.7Zm50 26h-40a6 6 0 0 0 0 12h40a6 6 0 0 0 0-12Zm54-97.5v143a14.5 14.5 0 0 1-14.5 14.5h-175A14.5 14.5 0 0 1 26 199.5v-143A14.5 14.5 0 0 1 40.5 42h175A14.5 14.5 0 0 1 230 56.5Zm-12 0a2.5 2.5 0 0 0-2.5-2.5h-175a2.5 2.5 0 0 0-2.5 2.5v143a2.5 2.5 0 0 0 2.5 2.5h175a2.5 2.5 0 0 0 2.5-2.5Z"></path></svg>