<svg xmlns="http://www.w3.org/2000/svg" xmlns:xlink="http://www.w3.org/1999/xlink" aria-hidden="true" role="img" class="iconify iconify--ph" width="1em" height="1em" preserveAspectRatio="xMidYMid meet" viewBox="0 0 256 256"><path fill="currentColor" d="M224 56.5v143a8.5 8.5 0 0 1-8.5 8.5h-175a8.5 8.5 0 0 1-8.5-8.5v-143a8.5 8.5 0 0 1 8.5-8.5h175a8.5 8.5 0 0 1 8.5 8.5Z" opacity=".2"></path><path fill="currentColor" d="M128 128a7.9 7.9 0 0 1-3 6.2l-40 32a7.9 7.9 0 0 1-5 1.8a7.8 7.8 0 0 1-6.2-3a7.9 7.9 0 0 1 1.2-11.2l32.2-25.8L75 102.2a8 8 0 1 1 10-12.4l40 32a7.9 7.9 0 0 1 3 6.2Zm48 24h-40a8 8 0 0 0 0 16h40a8 8 0 0 0 0-16Zm56.5-95.5v143a17 17 0 0 1-17 17h-175a17 17 0 0 1-17-17v-143a17 17 0 0 1 17-17h175a17 17 0 0 1 17 17Zm-17 143v-143h-175v143Z"></path></svg>