<svg xmlns="http://www.w3.org/2000/svg" xmlns:xlink="http://www.w3.org/1999/xlink" aria-hidden="true" role="img" class="iconify iconify--ph" width="1em" height="1em" preserveAspectRatio="xMidYMid meet" viewBox="0 0 256 256"><path fill="currentColor" d="M86.9 50.9a12.1 12.1 0 0 0-21.8 0l-64 136a12 12 0 0 0 21.8 10.2L38.4 164h75.2l15.5 33.1A12 12 0 0 0 140 204a13 13 0 0 0 5.1-1.1a12.1 12.1 0 0 0 5.8-16ZM49.7 140L76 84.2l26.3 55.8ZM204 90.9a47 47 0 0 0-26.9 8.3a12 12 0 0 0 13.8 19.7a22.6 22.6 0 0 1 13.1-4c11 0 20 7.2 20 16v1.4a48.8 48.8 0 0 0-20-4.3c-24.3 0-44 17.5-44 39s19.7 39 44 39a48.4 48.4 0 0 0 23.2-5.9a11.9 11.9 0 0 0 8.8 3.9a12 12 0 0 0 12-12v-61.1c0-22.1-19.7-40-44-40Zm0 91.1c-10.8 0-20-6.9-20-15s9.2-15 20-15s20 6.9 20 15s-9.2 15-20 15Z"></path></svg>