<svg xmlns="http://www.w3.org/2000/svg" xmlns:xlink="http://www.w3.org/1999/xlink" aria-hidden="true" role="img" class="iconify iconify--ph" width="1em" height="1em" preserveAspectRatio="xMidYMid meet" viewBox="0 0 256 256"><path fill="currentColor" d="M152 56v120a8 8 0 0 1-16 0v-52H48v52a8 8 0 0 1-16 0V56a8 8 0 0 1 16 0v52h88V56a8 8 0 0 1 16 0Zm100 112a36 36 0 1 1-67.4-17.5l.3-.6l32.2-54a8 8 0 0 1 13.8 8.2L214.2 132h1.8a36 36 0 0 1 36 36Zm-16 0a20 20 0 1 0-20 20a20.1 20.1 0 0 0 20-20Z"></path></svg>