<svg xmlns="http://www.w3.org/2000/svg" xmlns:xlink="http://www.w3.org/1999/xlink" aria-hidden="true" role="img" class="iconify iconify--ph" width="1em" height="1em" preserveAspectRatio="xMidYMid meet" viewBox="0 0 256 256"><path fill="currentColor" d="M148 56v120a4 4 0 0 1-8 0v-56H44v56a4 4 0 0 1-8 0V56a4 4 0 0 1 8 0v56h96V56a4 4 0 0 1 8 0Zm86.6 97.4a30.7 30.7 0 0 0-15.5-8.6l24.2-34.5a4.2 4.2 0 0 0 .2-4.2a3.8 3.8 0 0 0-3.5-2.1h-48a4 4 0 0 0 0 8h40.3l-23.6 33.7a4 4 0 0 0-.2 4.1a3.7 3.7 0 0 0 3.5 2.2a24 24 0 1 1-17 41a4 4 0 0 0-5.6 5.6a32 32 0 1 0 45.2-45.2Z"></path></svg>