<svg xmlns="http://www.w3.org/2000/svg" xmlns:xlink="http://www.w3.org/1999/xlink" aria-hidden="true" role="img" class="iconify iconify--ph" width="1em" height="1em" preserveAspectRatio="xMidYMid meet" viewBox="0 0 256 256"><path fill="currentColor" d="M148 56v120a4 4 0 0 1-8 0v-56H44v56a4 4 0 0 1-8 0V56a4 4 0 0 1 8 0v56h96V56a4 4 0 0 1 8 0Zm100 112a32 32 0 0 1-64 0a31.1 31.1 0 0 1 4.2-15.8a.4.4 0 0 0 .1-.3l32.3-54a4 4 0 1 1 6.8 4.2l-21.2 35.4A32.1 32.1 0 0 1 248 168Zm-8 0a24 24 0 1 0-24 24a24.1 24.1 0 0 0 24-24Z"></path></svg>