<svg xmlns="http://www.w3.org/2000/svg" xmlns:xlink="http://www.w3.org/1999/xlink" aria-hidden="true" role="img" class="iconify iconify--ph" width="1em" height="1em" preserveAspectRatio="xMidYMid meet" viewBox="0 0 256 256"><path fill="currentColor" d="M112 36a12 12 0 0 0-12 12v12H24A20.1 20.1 0 0 0 4 80v96a20.1 20.1 0 0 0 20 20h76v12a12 12 0 0 0 24 0V48a12 12 0 0 0-12-12ZM28 172V84h72v88Zm224-92v96a20.1 20.1 0 0 1-20 20h-80a12 12 0 0 1 0-24h76V84h-76a12 12 0 0 1 0-24h80a20.1 20.1 0 0 1 20 20ZM90 112a12 12 0 0 1-12 12h-2v24a12 12 0 0 1-24 0v-24h-2a12 12 0 0 1 0-24h28a12 12 0 0 1 12 12Z"></path></svg>