<svg xmlns="http://www.w3.org/2000/svg" xmlns:xlink="http://www.w3.org/1999/xlink" aria-hidden="true" role="img" class="iconify iconify--ph" width="1em" height="1em" preserveAspectRatio="xMidYMid meet" viewBox="0 0 256 256"><path fill="currentColor" d="M83.5 54.1a4 4 0 0 0-7 0l-72 136a4 4 0 0 0 7 3.8L31.6 156h96.8l20.1 37.9a4 4 0 0 0 3.5 2.1a3.4 3.4 0 0 0 1.9-.5a3.9 3.9 0 0 0 1.6-5.4ZM35.8 148L80 64.5l44.2 83.5ZM208 98.9a38.4 38.4 0 0 0-26.8 10.6a4 4 0 0 0 0 5.7a3.9 3.9 0 0 0 5.6 0c5.3-5.3 13.1-8.3 21.2-8.3c15.4 0 28 10.8 28 24v15.9a38 38 0 0 0-28-11.9c-19.9 0-36 14.4-36 32s16.1 32 36 32a38 38 0 0 0 28-11.9v5a4 4 0 0 0 8 0v-61.1c0-17.6-16.1-32-36-32Zm0 92c-15.4 0-28-10.8-28-24s12.6-24 28-24s28 10.8 28 24s-12.6 24-28 24Z"></path></svg>