<svg xmlns="http://www.w3.org/2000/svg" xmlns:xlink="http://www.w3.org/1999/xlink" aria-hidden="true" role="img" class="iconify iconify--ph" width="1em" height="1em" preserveAspectRatio="xMidYMid meet" viewBox="0 0 256 256"><path fill="currentColor" d="M150 56v120a6 6 0 0 1-12 0v-54H46v54a6 6 0 0 1-12 0V56a6 6 0 0 1 12 0v54h92V56a6 6 0 0 1 12 0Zm100 112a34 34 0 1 1-63.7-16.5l.3-.6l32.2-54a6.1 6.1 0 0 1 10.4 6.2l-18.8 31.4A33.8 33.8 0 0 1 250 168Zm-12 0a22 22 0 1 0-22 22a22.1 22.1 0 0 0 22-22Z"></path></svg>