<svg xmlns="http://www.w3.org/2000/svg" xmlns:xlink="http://www.w3.org/1999/xlink" aria-hidden="true" role="img" class="iconify iconify--ph" width="1em" height="1em" preserveAspectRatio="xMidYMid meet" viewBox="0 0 256 256"><path fill="currentColor" d="M156 56v120a12 12 0 0 1-24 0v-48H52v48a12 12 0 0 1-24 0V56a12 12 0 0 1 24 0v48h80V56a12 12 0 0 1 24 0Zm84.3 91.7a39.7 39.7 0 0 0-8.8-6.6l18.3-26.2A12 12 0 0 0 240 96h-48a12 12 0 0 0 0 24h25l-14.8 21.1A12 12 0 0 0 212 160a16 16 0 1 1-11.3 27.3a12 12 0 0 0-17 17a40 40 0 0 0 56.6-56.6Z"></path></svg>