<svg xmlns="http://www.w3.org/2000/svg" xmlns:xlink="http://www.w3.org/1999/xlink" aria-hidden="true" role="img" class="iconify iconify--ph" width="1em" height="1em" preserveAspectRatio="xMidYMid meet" viewBox="0 0 256 256"><path fill="currentColor" d="M150 56v120a6 6 0 0 1-12 0v-54H46v54a6 6 0 0 1-12 0V56a6 6 0 0 1 12 0v54h92V56a6 6 0 0 1 12 0Zm86 74a6 6 0 0 0-6 6v26h-33.5l21.2-60a6 6 0 1 0-11.4-4l-24 68a6.3 6.3 0 0 0 .8 5.5a6 6 0 0 0 4.9 2.5h42v26a6 6 0 0 0 12 0v-64a6 6 0 0 0-6-6Z"></path></svg>