<svg xmlns="http://www.w3.org/2000/svg" xmlns:xlink="http://www.w3.org/1999/xlink" aria-hidden="true" role="img" class="iconify iconify--ph" width="1em" height="1em" preserveAspectRatio="xMidYMid meet" viewBox="0 0 256 256"><path fill="currentColor" d="M224 128a8 8 0 0 1-8 8H112a8 8 0 0 1 0-16h104a8 8 0 0 1 8 8ZM112 72h104a8 8 0 0 0 0-16H112a8 8 0 0 0 0 16Zm104 112H40a8 8 0 0 0 0 16h176a8 8 0 0 0 0-16ZM72 144a8.5 8.5 0 0 0 5.7-2.3a8.1 8.1 0 0 0 0-11.4L43.3 96l34.4-34.3a8.1 8.1 0 0 0-11.4-11.4l-40 40a8.1 8.1 0 0 0 0 11.4l40 40A8.5 8.5 0 0 0 72 144Z"></path></svg>