<svg xmlns="http://www.w3.org/2000/svg" xmlns:xlink="http://www.w3.org/1999/xlink" aria-hidden="true" role="img" class="iconify iconify--ph" width="1em" height="1em" preserveAspectRatio="xMidYMid meet" viewBox="0 0 256 256"><path fill="currentColor" d="M156 56v120a12 12 0 0 1-24 0v-48H52v48a12 12 0 0 1-24 0V56a12 12 0 0 1 24 0v48h80V56a12 12 0 0 1 24 0Zm100 112a40 40 0 0 1-80 0a40.6 40.6 0 0 1 5.1-19.6l.3-.6l32.3-54a12 12 0 1 1 20.6 12.4l-13.2 22.1A40.1 40.1 0 0 1 256 168Zm-24 0a16 16 0 1 0-16 16a16 16 0 0 0 16-16Z"></path></svg>