<svg xmlns="http://www.w3.org/2000/svg" xmlns:xlink="http://www.w3.org/1999/xlink" aria-hidden="true" role="img" class="iconify iconify--ph" width="1em" height="1em" preserveAspectRatio="xMidYMid meet" viewBox="0 0 256 256"><path fill="currentColor" d="M112 44a4 4 0 0 0-4 4v20H24a12 12 0 0 0-12 12v96a12 12 0 0 0 12 12h84v20a4 4 0 0 0 8 0V48a4 4 0 0 0-4-4ZM24 180a4 4 0 0 1-4-4V80a4 4 0 0 1 4-4h84v104ZM244 80v96a12 12 0 0 1-12 12h-88a4 4 0 0 1 0-8h88a4 4 0 0 0 4-4V80a4 4 0 0 0-4-4h-88a4 4 0 0 1 0-8h88a12 12 0 0 1 12 12ZM82 112a4 4 0 0 1-4 4H68v32a4 4 0 0 1-8 0v-32H50a4 4 0 0 1 0-8h28a4 4 0 0 1 4 4Z"></path></svg>