<svg xmlns="http://www.w3.org/2000/svg" xmlns:xlink="http://www.w3.org/1999/xlink" aria-hidden="true" role="img" class="iconify iconify--ph" width="1em" height="1em" preserveAspectRatio="xMidYMid meet" viewBox="0 0 256 256"><path fill="currentColor" d="M228 128a12 12 0 0 1-12 12h-96a12 12 0 0 1 0-24h96a12 12 0 0 1 12 12ZM120 76h96a12 12 0 0 0 0-24h-96a12 12 0 0 0 0 24Zm96 104H40a12 12 0 0 0 0 24h176a12 12 0 0 0 0-24ZM72 148a12.2 12.2 0 0 0 8.5-3.5a12 12 0 0 0 0-17L49 96l31.5-31.5a12 12 0 0 0-17-17l-40 40a12 12 0 0 0 0 17l40 40A12.2 12.2 0 0 0 72 148Z"></path></svg>