<svg xmlns="http://www.w3.org/2000/svg" xmlns:xlink="http://www.w3.org/1999/xlink" aria-hidden="true" role="img" class="iconify iconify--ph" width="1em" height="1em" preserveAspectRatio="xMidYMid meet" viewBox="0 0 256 256"><path fill="currentColor" d="M136.1 149.1L85.3 53.2a6 6 0 0 0-10.6 0l-50.8 95.9l-21.2 40.1a6 6 0 1 0 10.6 5.6L32.8 158h94.4l19.5 36.8a6.1 6.1 0 0 0 5.3 3.2a5.5 5.5 0 0 0 2.8-.7a6 6 0 0 0 2.5-8.1Zm-97-3.1L80 68.8l40.9 77.2ZM208 96.9a40.2 40.2 0 0 0-28.2 11.2a6 6 0 0 0-.1 8.5a5.9 5.9 0 0 0 8.5 0a28.3 28.3 0 0 1 19.8-7.7c14.3 0 26 9.9 26 22v11.2a40.3 40.3 0 0 0-26-9.2c-21 0-38 15.3-38 34s17 34 38 34a40.3 40.3 0 0 0 26-9.2v.3a6 6 0 0 0 12 0v-61.1c0-18.7-17-34-38-34Zm0 92c-14.3 0-26-9.9-26-22s11.7-22 26-22s26 9.9 26 22s-11.7 22-26 22Z"></path></svg>