<svg xmlns="http://www.w3.org/2000/svg" xmlns:xlink="http://www.w3.org/1999/xlink" aria-hidden="true" role="img" class="iconify iconify--ph" width="1em" height="1em" preserveAspectRatio="xMidYMid meet" viewBox="0 0 256 256"><path fill="currentColor" d="M148 56v120a4 4 0 0 1-8 0v-56H44v56a4 4 0 0 1-8 0V56a4 4 0 0 1 8 0v56h96V56a4 4 0 0 1 8 0Zm88 76a4 4 0 0 0-4 4v28h-38.3l22.1-62.7a4 4 0 1 0-7.6-2.6l-24 68a4.2 4.2 0 0 0 .5 3.6a4 4 0 0 0 3.3 1.7h44v28a4 4 0 0 0 8 0v-64a4 4 0 0 0-4-4Z"></path></svg>