<svg xmlns="http://www.w3.org/2000/svg" xmlns:xlink="http://www.w3.org/1999/xlink" aria-hidden="true" role="img" class="iconify iconify--ph" width="1em" height="1em" preserveAspectRatio="xMidYMid meet" viewBox="0 0 256 256"><path fill="currentColor" d="M220 128a4 4 0 0 1-4 4H112a4 4 0 0 1 0-8h104a4 4 0 0 1 4 4ZM112 68h104a4 4 0 0 0 0-8H112a4 4 0 0 0 0 8Zm104 120H40a4 4 0 0 0 0 8h176a4 4 0 0 0 0-8ZM37.2 138.8a3.9 3.9 0 0 0 5.6 0l40-40a3.9 3.9 0 0 0 0-5.6l-40-40a4 4 0 0 0-5.6 5.6L74.3 96l-37.1 37.2a3.9 3.9 0 0 0 0 5.6Z"></path></svg>