<svg xmlns="http://www.w3.org/2000/svg" xmlns:xlink="http://www.w3.org/1999/xlink" aria-hidden="true" role="img" class="iconify iconify--ph" width="1em" height="1em" preserveAspectRatio="xMidYMid meet" viewBox="0 0 256 256"><path fill="currentColor" d="M224 128a8 8 0 0 1-8 8h-96a8 8 0 0 1 0-16h96a8 8 0 0 1 8 8ZM120 72h96a8 8 0 0 0 0-16h-96a8 8 0 0 0 0 16Zm96 112H40a8 8 0 0 0 0 16h176a8 8 0 0 0 0-16ZM36.9 143.4a8.5 8.5 0 0 0 3.1.6a8.3 8.3 0 0 0 5.7-2.3l40-40a8.1 8.1 0 0 0 0-11.4l-40-40a8.4 8.4 0 0 0-8.8-1.7A8 8 0 0 0 32 56v80a8 8 0 0 0 4.9 7.4Z"></path></svg>