<svg xmlns="http://www.w3.org/2000/svg" xmlns:xlink="http://www.w3.org/1999/xlink" aria-hidden="true" role="img" class="iconify iconify--ph" width="1em" height="1em" preserveAspectRatio="xMidYMid meet" viewBox="0 0 256 256"><path fill="currentColor" d="M237.4 150.5a36.1 36.1 0 0 1-51 51a8 8 0 1 1 11.2-11.4a20.1 20.1 0 0 0 14.3 5.9a19.9 19.9 0 0 0 14.2-5.9a19.8 19.8 0 0 0 0-28.2a19.9 19.9 0 0 0-14.2-5.9a20.1 20.1 0 0 0-14.3 5.9a8 8 0 0 1-13.5-7l7.8-48.2a8 8 0 0 1 7.9-6.7H240a8 8 0 0 1 0 16h-33.4l-4.1 25.2a37.3 37.3 0 0 1 9.4-1.2a35.9 35.9 0 0 1 25.5 10.5ZM144 48a8 8 0 0 0-8 8v52H48V56a8 8 0 0 0-16 0v120a8 8 0 0 0 16 0v-52h88v52a8 8 0 0 0 16 0V56a8 8 0 0 0-8-8Z"></path></svg>