<svg xmlns="http://www.w3.org/2000/svg" xmlns:xlink="http://www.w3.org/1999/xlink" aria-hidden="true" role="img" class="iconify iconify--ph" width="1em" height="1em" preserveAspectRatio="xMidYMid meet" viewBox="0 0 256 256"><path fill="currentColor" d="M240 80v96a8 8 0 0 1-8 8H24a8 8 0 0 1-8-8V80a8 8 0 0 1 8-8h208a8 8 0 0 1 8 8Z" opacity=".2"></path><path fill="currentColor" d="M112 40a8 8 0 0 0-8 8v16H24A16 16 0 0 0 8 80v96a16 16 0 0 0 16 16h80v16a8 8 0 0 0 16 0V48a8 8 0 0 0-8-8ZM24 176V80h80v96Zm224-96v96a16 16 0 0 1-16 16h-88a8 8 0 0 1 0-16h88V80h-88a8 8 0 0 1 0-16h88a16 16 0 0 1 16 16ZM86 112a8 8 0 0 1-8 8h-6v28a8 8 0 0 1-16 0v-28h-6a8 8 0 0 1 0-16h28a8 8 0 0 1 8 8Z"></path></svg>