<svg xmlns="http://www.w3.org/2000/svg" xmlns:xlink="http://www.w3.org/1999/xlink" aria-hidden="true" role="img" class="iconify iconify--ph" width="1em" height="1em" preserveAspectRatio="xMidYMid meet" viewBox="0 0 256 256"><path fill="currentColor" d="M152 56v120a8 8 0 0 1-16 0v-52H48v52a8 8 0 0 1-16 0V56a8 8 0 0 1 16 0v52h88V56a8 8 0 0 1 16 0Zm85.5 94.5a37.9 37.9 0 0 0-12-7.9l21.1-30a8 8 0 0 0 .5-8.3a8.1 8.1 0 0 0-7.1-4.3h-48a8 8 0 0 0 0 16h32.6l-19.2 27.4a8 8 0 0 0-.5 8.3a8.1 8.1 0 0 0 7.1 4.3a20 20 0 1 1-14.1 34.1a8.1 8.1 0 0 0-11.4 11.4a36.1 36.1 0 0 0 51-51Z"></path></svg>