<svg xmlns="http://www.w3.org/2000/svg" xmlns:xlink="http://www.w3.org/1999/xlink" aria-hidden="true" role="img" class="iconify iconify--ph" width="1em" height="1em" preserveAspectRatio="xMidYMid meet" viewBox="0 0 256 256"><path fill="currentColor" d="M156 56v120a12 12 0 0 1-24 0v-48H52v48a12 12 0 0 1-24 0V56a12 12 0 0 1 24 0v48h80V56a12 12 0 0 1 24 0Zm80 68a12 12 0 0 0-12 12v20h-19l18.3-52a12 12 0 0 0-22.6-8l-24 68a12 12 0 0 0 11.3 16h36v20a12 12 0 0 0 24 0v-64a12 12 0 0 0-12-12Z"></path></svg>