<svg xmlns="http://www.w3.org/2000/svg" xmlns:xlink="http://www.w3.org/1999/xlink" aria-hidden="true" role="img" class="iconify iconify--ph" width="1em" height="1em" preserveAspectRatio="xMidYMid meet" viewBox="0 0 256 256"><path fill="currentColor" d="M152 56v120a8 8 0 0 1-16 0v-52H48v52a8 8 0 0 1-16 0V56a8 8 0 0 1 16 0v52h88V56a8 8 0 0 1 16 0Zm59.9 84a37.3 37.3 0 0 0-9.4 1.2l4.1-25.2H240a8 8 0 0 0 0-16h-40.2a8 8 0 0 0-7.9 6.7l-7.8 48.2a8 8 0 0 0 13.5 7a20.1 20.1 0 0 1 14.3-5.9a19.9 19.9 0 0 1 14.2 5.9a19.8 19.8 0 0 1 0 28.2a19.9 19.9 0 0 1-14.2 5.9a20.1 20.1 0 0 1-14.3-5.9a8 8 0 1 0-11.2 11.4a36.1 36.1 0 1 0 25.5-61.5Z"></path></svg>