<svg xmlns="http://www.w3.org/2000/svg" xmlns:xlink="http://www.w3.org/1999/xlink" aria-hidden="true" role="img" class="iconify iconify--ph" width="1em" height="1em" preserveAspectRatio="xMidYMid meet" viewBox="0 0 256 256"><path fill="currentColor" d="M152 56v120a8 8 0 0 1-16 0v-52H48v52a8 8 0 0 1-16 0V56a8 8 0 0 1 16 0v52h88V56a8 8 0 0 1 16 0Zm84 72a8 8 0 0 0-8 8v24h-28.7l20.2-57.3a8 8 0 0 0-15-5.4l-24 68a7.9 7.9 0 0 0 1 7.3a8 8 0 0 0 6.5 3.4h40v24a8 8 0 0 0 16 0v-64a8 8 0 0 0-8-8Z"></path></svg>