<svg xmlns="http://www.w3.org/2000/svg" xmlns:xlink="http://www.w3.org/1999/xlink" aria-hidden="true" role="img" class="iconify iconify--ph" width="1em" height="1em" preserveAspectRatio="xMidYMid meet" viewBox="0 0 256 256"><path fill="currentColor" d="M112 42a6 6 0 0 0-6 6v18H24a14 14 0 0 0-14 14v96a14 14 0 0 0 14 14h82v18a6 6 0 0 0 12 0V48a6 6 0 0 0-6-6ZM24 178a2 2 0 0 1-2-2V80a2 2 0 0 1 2-2h82v100Zm222-98v96a14 14 0 0 1-14 14h-88a6 6 0 0 1 0-12h88a2 2 0 0 0 2-2V80a2 2 0 0 0-2-2h-88a6 6 0 0 1 0-12h88a14 14 0 0 1 14 14ZM84 112a6 6 0 0 1-6 6h-8v30a6 6 0 0 1-12 0v-30h-8a6 6 0 0 1 0-12h28a6 6 0 0 1 6 6Z"></path></svg>