<svg xmlns="http://www.w3.org/2000/svg" xmlns:xlink="http://www.w3.org/1999/xlink" aria-hidden="true" role="img" class="iconify iconify--ph" width="1em" height="1em" preserveAspectRatio="xMidYMid meet" viewBox="0 0 256 256"><path fill="currentColor" d="M156 56v120a12 12 0 0 1-24 0v-48H52v48a12 12 0 0 1-24 0V56a12 12 0 0 1 24 0v48h80V56a12 12 0 0 1 24 0Zm55.9 80l-4.5.2L210 120h30a12 12 0 0 0 0-24h-40.2a12 12 0 0 0-11.8 10.1l-7.8 48.2a12 12 0 0 0 20.3 10.4a16.2 16.2 0 0 1 22.8 0a15.9 15.9 0 0 1 0 22.6a16.2 16.2 0 0 1-22.8 0a12 12 0 0 0-17 17a40.3 40.3 0 0 0 28.4 11.7a40 40 0 1 0 0-80Z"></path></svg>