<svg xmlns="http://www.w3.org/2000/svg" xmlns:xlink="http://www.w3.org/1999/xlink" aria-hidden="true" role="img" class="iconify iconify--ph" width="1em" height="1em" preserveAspectRatio="xMidYMid meet" viewBox="0 0 256 256"><path fill="currentColor" d="M148 56v120a4 4 0 0 1-8 0v-56H44v56a4 4 0 0 1-8 0V56a4 4 0 0 1 8 0v56h96V56a4 4 0 0 1 8 0Zm92 140h-40l39.1-52.2h.1A28.4 28.4 0 0 0 244 128a28 28 0 0 0-53.8-10.9a3.9 3.9 0 0 0 2.1 5.2a4 4 0 0 0 5.3-2.1a20 20 0 1 1 35 18.9l-43.7 58.4a3.8 3.8 0 0 0-.9 2.5a4 4 0 0 0 2.7 3.8l1.3.2h48a4 4 0 0 0 0-8Z"></path></svg>