<svg xmlns="http://www.w3.org/2000/svg" xmlns:xlink="http://www.w3.org/1999/xlink" aria-hidden="true" role="img" class="iconify iconify--ph" width="1em" height="1em" preserveAspectRatio="xMidYMid meet" viewBox="0 0 256 256"><path fill="currentColor" d="M112 64a8 8 0 0 1 8-8h96a8 8 0 0 1 0 16h-96a8 8 0 0 1-8-8Zm-40 80a8.5 8.5 0 0 0 3.1-.6A8 8 0 0 0 80 136V56a8 8 0 0 0-4.9-7.4a8.4 8.4 0 0 0-8.8 1.7l-40 40a8.1 8.1 0 0 0 0 11.4l40 40A8.3 8.3 0 0 0 72 144Zm144 40H40a8 8 0 0 0 0 16h176a8 8 0 0 0 0-16Zm0-64h-96a8 8 0 0 0 0 16h96a8 8 0 0 0 0-16Z"></path></svg>