<svg xmlns="http://www.w3.org/2000/svg" xmlns:xlink="http://www.w3.org/1999/xlink" aria-hidden="true" role="img" class="iconify iconify--ph" width="1em" height="1em" preserveAspectRatio="xMidYMid meet" viewBox="0 0 256 256"><path fill="currentColor" d="M150 56v120a6 6 0 0 1-12 0v-54H46v54a6 6 0 0 1-12 0V56a6 6 0 0 1 12 0v54h92V56a6 6 0 0 1 12 0Zm90 138h-36l36.7-49l.2-.2A30.4 30.4 0 0 0 246 128a30 30 0 0 0-57.6-11.7a6 6 0 1 0 11 4.7a18 18 0 0 1 34.6 7a17.2 17.2 0 0 1-3 9.9l-43.7 58.4a5.9 5.9 0 0 0-1.3 3.7a6 6 0 0 0 4.1 5.7a6.3 6.3 0 0 0 1.9.3h48a6 6 0 0 0 0-12Z"></path></svg>