<svg xmlns="http://www.w3.org/2000/svg" xmlns:xlink="http://www.w3.org/1999/xlink" aria-hidden="true" role="img" class="iconify iconify--ph" width="1em" height="1em" preserveAspectRatio="xMidYMid meet" viewBox="0 0 256 256"><path fill="currentColor" d="M222 128a6 6 0 0 1-6 6H112a6 6 0 0 1 0-12h104a6 6 0 0 1 6 6ZM112 70h104a6 6 0 0 0 0-12H112a6 6 0 0 0 0 12Zm104 116H40a6 6 0 0 0 0 12h176a6 6 0 0 0 0-12ZM72 142a6 6 0 0 0 4.2-10.2L40.5 96l35.7-35.8a5.9 5.9 0 0 0-8.4-8.4l-40 40a5.8 5.8 0 0 0 0 8.4l40 40A5.8 5.8 0 0 0 72 142Z"></path></svg>