<svg xmlns="http://www.w3.org/2000/svg" xmlns:xlink="http://www.w3.org/1999/xlink" aria-hidden="true" role="img" class="iconify iconify--ph" width="1em" height="1em" preserveAspectRatio="xMidYMid meet" viewBox="0 0 256 256"><path fill="currentColor" d="M228 128a12 12 0 0 1-12 12h-96a12 12 0 0 1 0-24h96a12 12 0 0 1 12 12ZM120 76h96a12 12 0 0 0 0-24h-96a12 12 0 0 0 0 24Zm96 104H40a12 12 0 0 0 0 24h176a12 12 0 0 0 0-24ZM31.5 144.5a12.1 12.1 0 0 0 17 0l40-40a12 12 0 0 0 0-17l-40-40a12 12 0 0 0-17 17L63 96l-31.5 31.5a12 12 0 0 0 0 17Z"></path></svg>