<svg xmlns="http://www.w3.org/2000/svg" xmlns:xlink="http://www.w3.org/1999/xlink" aria-hidden="true" role="img" class="iconify iconify--ph" width="1em" height="1em" preserveAspectRatio="xMidYMid meet" viewBox="0 0 256 256"><path fill="currentColor" d="M150 56v120a6 6 0 0 1-12 0v-54H46v54a6 6 0 0 1-12 0V56a6 6 0 0 1 12 0v54h92V56a6 6 0 0 1 12 0Zm86 96a32.8 32.8 0 0 0-13.6-8.4l22.5-32.2a5.8 5.8 0 0 0 .4-6.2a5.9 5.9 0 0 0-5.3-3.2h-48a6 6 0 0 0 0 12h36.5l-21.4 30.6a5.8 5.8 0 0 0-.4 6.2a5.9 5.9 0 0 0 5.3 3.2a22 22 0 1 1-15.6 37.6a5.9 5.9 0 0 0-8.4 8.4a33.9 33.9 0 1 0 48-48Z"></path></svg>