<svg xmlns="http://www.w3.org/2000/svg" xmlns:xlink="http://www.w3.org/1999/xlink" aria-hidden="true" role="img" class="iconify iconify--ph" width="1em" height="1em" preserveAspectRatio="xMidYMid meet" viewBox="0 0 256 256"><path fill="currentColor" d="M208 94.9a42 42 0 0 0-29.6 11.8a8 8 0 1 0 11.2 11.4a26 26 0 0 1 18.4-7.2c13.2 0 24 9 24 20v7.2a43 43 0 0 0-24-7.2c-22.1 0-40 16.1-40 36s17.9 36 40 36a42.9 42.9 0 0 0 24.7-7.7a7.9 7.9 0 0 0 7.3 4.8a8 8 0 0 0 8-8v-61.1c0-19.9-17.9-36-40-36Zm0 92c-13.2 0-24-9-24-20s10.8-20 24-20s24 9 24 20s-10.8 20-24 20Zm-70.1-38.7L87.1 52.3a8 8 0 0 0-14.2 0l-50.8 95.9L.9 188.3a8.1 8.1 0 0 0 3.4 10.8a8.1 8.1 0 0 0 10.8-3.4L34 160h92l18.9 35.7a7.9 7.9 0 0 0 7.1 4.3a8 8 0 0 0 7.1-11.7ZM42.5 144L80 73.1l37.5 70.9Z"></path></svg>