<svg xmlns="http://www.w3.org/2000/svg" xmlns:xlink="http://www.w3.org/1999/xlink" aria-hidden="true" role="img" class="iconify iconify--ph" width="1em" height="1em" preserveAspectRatio="xMidYMid meet" viewBox="0 0 256 256"><path fill="currentColor" d="M248 80v96a16 16 0 0 1-16 16h-88a8 8 0 0 1-8-8V72a8 8 0 0 1 8-8h88a16 16 0 0 1 16 16ZM120 48v160a8 8 0 0 1-16 0v-16H24a16 16 0 0 1-16-16V80a16 16 0 0 1 16-16h80V48a8 8 0 0 1 16 0Zm-34 64a8 8 0 0 0-8-8H50a8 8 0 0 0 0 16h6v28a8 8 0 0 0 16 0v-28h6a8 8 0 0 0 8-8Z"></path></svg>