<svg xmlns="http://www.w3.org/2000/svg" xmlns:xlink="http://www.w3.org/1999/xlink" aria-hidden="true" role="img" class="iconify iconify--ph" width="1em" height="1em" preserveAspectRatio="xMidYMid meet" viewBox="0 0 256 256"><path fill="currentColor" d="M228 128a12 12 0 0 1-12 12h-30.1a41.8 41.8 0 0 1 10.1 28c0 14.5-7.8 28.3-21.4 38s-29.2 14-46.6 14s-34-5-46.6-14S60 182.5 60 168a12 12 0 0 1 24 0c0 15.2 20.1 28 44 28s44-12.8 44-28c0-12.8-9.3-20.2-35.3-28H40a12 12 0 0 1 0-24h176a12 12 0 0 1 12 12ZM75.1 100a12 12 0 0 0 12-12c0-16 17.6-28 40.9-28c18 0 33.2 7.4 38.7 18.8a12 12 0 0 0 21.6-10.5C178.6 48.4 155.5 36 128 36c-37 0-64.9 22.4-64.9 52a12 12 0 0 0 12 12Z"></path></svg>