<svg xmlns="http://www.w3.org/2000/svg" xmlns:xlink="http://www.w3.org/1999/xlink" aria-hidden="true" role="img" class="iconify iconify--ph" width="1em" height="1em" preserveAspectRatio="xMidYMid meet" viewBox="0 0 256 256"><path fill="currentColor" d="M156 56v120a12 12 0 0 1-24 0v-48H52v48a12 12 0 0 1-24 0V56a12 12 0 0 1 24 0v48h80V56a12 12 0 0 1 24 0Zm84 132h-24l29.5-39.4l.3-.5A35.1 35.1 0 0 0 252 128a36 36 0 0 0-69.2-14a12 12 0 1 0 22.1 9.3A12 12 0 0 1 228 128a12.3 12.3 0 0 1-1.9 6.5l-43.6 58.1a12.1 12.1 0 0 0 5.7 18.8a12.6 12.6 0 0 0 3.8.6h48a12 12 0 0 0 0-24Z"></path></svg>