<svg xmlns="http://www.w3.org/2000/svg" xmlns:xlink="http://www.w3.org/1999/xlink" aria-hidden="true" role="img" class="iconify iconify--ph" width="1em" height="1em" preserveAspectRatio="xMidYMid meet" viewBox="0 0 256 256"><path fill="currentColor" d="M132 188a24 24 0 1 1-36-20.8V120a12 12 0 0 1 24 0v47.2a24 24 0 0 1 12 20.8ZM253.8 66.4a12 12 0 0 0-15.1-7.7L224 63.5V48a12 12 0 0 0-24 0v15.5l-14.7-4.8a12 12 0 1 0-7.4 22.8l14.7 4.8l-9.1 12.5a12.1 12.1 0 0 0 2.6 16.8a12.5 12.5 0 0 0 7.1 2.3a11.8 11.8 0 0 0 9.7-5l9.1-12.5l9.1 12.5a11.8 11.8 0 0 0 9.7 5a12.5 12.5 0 0 0 7.1-2.3a12.1 12.1 0 0 0 2.6-16.8l-9.1-12.5l14.7-4.8a11.9 11.9 0 0 0 7.7-15.1ZM160 150.7a64 64 0 1 1-104 0V56a52 52 0 0 1 104 0ZM148 188a40.6 40.6 0 0 0-9.2-25.6a11.7 11.7 0 0 1-2.8-7.6V56a28 28 0 0 0-56 0v98.8a12.1 12.1 0 0 1-2.9 7.8A40 40 0 1 0 148 188Z"></path></svg>