<svg xmlns="http://www.w3.org/2000/svg" xmlns:xlink="http://www.w3.org/1999/xlink" aria-hidden="true" role="img" class="iconify iconify--ph" width="1em" height="1em" preserveAspectRatio="xMidYMid meet" viewBox="0 0 256 256"><path fill="currentColor" d="M164 145.1V48a36 36 0 0 0-72 0v97.1a56 56 0 1 0 72 0ZM128 236a48 48 0 0 1-48-48a47.4 47.4 0 0 1 18.2-37.6a4.2 4.2 0 0 0 1.8-3.4V48a28 28 0 0 1 56 0v99a4 4 0 0 0 1.7 3.3A48 48 0 0 1 128 236Zm4-71.7V88a4 4 0 0 0-8 0v76.3a24 24 0 1 0 8 0Zm-4 39.7a16 16 0 1 1 16-16a16 16 0 0 1-16 16Z"></path></svg>