<svg xmlns="http://www.w3.org/2000/svg" xmlns:xlink="http://www.w3.org/1999/xlink" aria-hidden="true" role="img" class="iconify iconify--ph" width="1em" height="1em" preserveAspectRatio="xMidYMid meet" viewBox="0 0 256 256"><path fill="currentColor" d="M160 143.3V48a40 40 0 0 0-80 0v95.3A59.4 59.4 0 0 0 60 188a60 60 0 0 0 120 0a59.4 59.4 0 0 0-20-44.7ZM120 24a24.1 24.1 0 0 1 24 24v8H96v-8a24.1 24.1 0 0 1 24-24Zm58.1 61.7a8 8 0 0 1 0-11.4a28 28 0 0 1 19.8-8.2a28.4 28.4 0 0 1 19.8 8.2a11.9 11.9 0 0 0 16.9 0a8 8 0 0 1 11.3 11.4a28 28 0 0 1-19.8 8.2a28.4 28.4 0 0 1-19.8-8.2a11.9 11.9 0 0 0-16.9 0a8 8 0 0 1-11.3 0Zm67.8 28.6a8 8 0 0 1 0 11.4a28 28 0 0 1-19.8 8.2a28.4 28.4 0 0 1-19.8-8.2a11.9 11.9 0 0 0-16.9 0a8 8 0 0 1-11.3-11.4a28 28 0 0 1 19.8-8.2a28.4 28.4 0 0 1 19.8 8.2a11.9 11.9 0 0 0 16.9 0a8 8 0 0 1 11.3 0Z"></path></svg>