<svg xmlns="http://www.w3.org/2000/svg" xmlns:xlink="http://www.w3.org/1999/xlink" aria-hidden="true" role="img" class="iconify iconify--ph" width="1em" height="1em" preserveAspectRatio="xMidYMid meet" viewBox="0 0 256 256"><path fill="currentColor" d="M212 52a28 28 0 1 0 28 28a28.1 28.1 0 0 0-28-28Zm0 40a12 12 0 1 1 12-12a12 12 0 0 1-12 12Zm-52 51.3V48a40 40 0 0 0-80 0v95.3A59.4 59.4 0 0 0 60 188a60 60 0 0 0 120 0a59.4 59.4 0 0 0-20-44.7ZM120 24a24.1 24.1 0 0 1 24 24v32H96V48a24.1 24.1 0 0 1 24-24Z"></path></svg>