<svg xmlns="http://www.w3.org/2000/svg" xmlns:xlink="http://www.w3.org/1999/xlink" aria-hidden="true" role="img" class="iconify iconify--ph" width="1em" height="1em" preserveAspectRatio="xMidYMid meet" viewBox="0 0 256 256"><path fill="currentColor" d="M132 188a24 24 0 1 1-36-20.8V56a12 12 0 0 1 24 0v111.2a24 24 0 0 1 12 20.8Zm60.2-99.5a7.9 7.9 0 0 1 11.3 0a32.2 32.2 0 0 0 45.3 0a12 12 0 0 0-17-17a7.9 7.9 0 0 1-11.3 0a32 32 0 0 0-45.3 0a12 12 0 0 0 17 17Zm39.6 23a7.9 7.9 0 0 1-11.3 0a32 32 0 0 0-45.3 0a12 12 0 0 0 17 17a7.9 7.9 0 0 1 11.3 0a32.2 32.2 0 0 0 45.3 0a12 12 0 0 0-17-17ZM160 150.7a64 64 0 1 1-104 0V56a52 52 0 0 1 104 0ZM148 188a40.6 40.6 0 0 0-9.2-25.6a11.7 11.7 0 0 1-2.8-7.6V56a28 28 0 0 0-56 0v98.8a12.1 12.1 0 0 1-2.9 7.8A40 40 0 1 0 148 188Z"></path></svg>