<svg xmlns="http://www.w3.org/2000/svg" xmlns:xlink="http://www.w3.org/1999/xlink" aria-hidden="true" role="img" class="iconify iconify--ph" width="1em" height="1em" preserveAspectRatio="xMidYMid meet" viewBox="0 0 256 256"><path fill="currentColor" d="m244.9 77.7l-20 6.5l12.4 17a8 8 0 0 1-1.8 11.2a8.1 8.1 0 0 1-11.2-1.8l-12.3-17l-12.3 17a8.1 8.1 0 0 1-11.2 1.8a8 8 0 0 1-1.8-11.2l12.4-17l-20-6.5a7.9 7.9 0 0 1-5.1-10.1a7.8 7.8 0 0 1 10-5.1l20 6.5V48a8 8 0 0 1 16 0v21l20-6.5a7.8 7.8 0 0 1 10 5.1a7.9 7.9 0 0 1-5.1 10.1ZM180 188a60 60 0 0 1-120 0a59.4 59.4 0 0 1 20-44.7V48a40 40 0 0 1 80 0v95.3a59.4 59.4 0 0 1 20 44.7ZM96 48v56h48V48a24 24 0 0 0-48 0Z"></path></svg>