<svg xmlns="http://www.w3.org/2000/svg" xmlns:xlink="http://www.w3.org/1999/xlink" aria-hidden="true" role="img" class="iconify iconify--ph" width="1em" height="1em" preserveAspectRatio="xMidYMid meet" viewBox="0 0 256 256"><path fill="currentColor" d="M212 54a26 26 0 1 0 26 26a26.1 26.1 0 0 0-26-26Zm0 40a14 14 0 1 1 14-14a14 14 0 0 1-14 14Zm-54 50.2V48a38 38 0 0 0-76 0v96.2a58 58 0 1 0 76 0ZM120 234a46 46 0 0 1-28.6-82a6.1 6.1 0 0 0 2.6-5V48a26 26 0 0 1 52 0v99a6.1 6.1 0 0 0 2.5 4.9A46 46 0 0 1 120 234Zm6-71.3V88a6 6 0 0 0-12 0v74.7a26 26 0 1 0 12 0Zm-6 39.3a14 14 0 1 1 14-14a14 14 0 0 1-14 14Z"></path></svg>