<svg xmlns="http://www.w3.org/2000/svg" xmlns:xlink="http://www.w3.org/1999/xlink" aria-hidden="true" role="img" class="iconify iconify--ph" width="1em" height="1em" preserveAspectRatio="xMidYMid meet" viewBox="0 0 256 256"><path fill="currentColor" d="M124 164.3V120a4 4 0 0 0-8 0v44.3a24 24 0 1 0 8 0Zm-4 39.7a16 16 0 1 1 16-16a16 16 0 0 1-16 16ZM243.7 73.9l-25.2 8.2l15.5 21.4a4.1 4.1 0 0 1-.8 5.6a4.3 4.3 0 0 1-2.4.8a4 4 0 0 1-3.2-1.7L212 86.8l-15.6 21.4a4 4 0 0 1-3.2 1.7a4.3 4.3 0 0 1-2.4-.8a4.1 4.1 0 0 1-.8-5.6l15.5-21.4l-25.2-8.2a4 4 0 0 1 2.5-7.6l25.2 8.2V48a4 4 0 0 1 8 0v26.5l25.2-8.2a4 4 0 0 1 2.5 7.6ZM156 145.1V48a36 36 0 0 0-72 0v97.1a56 56 0 1 0 72 0ZM120 236a48 48 0 0 1-48-48a47.4 47.4 0 0 1 18.2-37.6A4.2 4.2 0 0 0 92 147V48a28 28 0 0 1 56 0v99a4 4 0 0 0 1.7 3.3A48 48 0 0 1 120 236Z"></path></svg>