<svg xmlns="http://www.w3.org/2000/svg" xmlns:xlink="http://www.w3.org/1999/xlink" aria-hidden="true" role="img" class="iconify iconify--ph" width="1em" height="1em" preserveAspectRatio="xMidYMid meet" viewBox="0 0 256 256"><path fill="currentColor" d="M216 48a32 32 0 1 0 32 32a32.1 32.1 0 0 0-32-32Zm0 40a8 8 0 1 1 8-8a8 8 0 0 1-8 8Zm-84 100a24 24 0 1 1-36-20.8V92a12 12 0 0 1 24 0v75.2a24 24 0 0 1 12 20.8Zm28-132a52 52 0 0 0-104 0v94.7a64 64 0 1 0 104 0Zm-52 172a40 40 0 0 1-30.9-65.4a12.1 12.1 0 0 0 2.9-7.8V56a28 28 0 0 1 56 0v98.8a11.7 11.7 0 0 0 2.8 7.6A40.6 40.6 0 0 1 148 188a40 40 0 0 1-40 40Z"></path></svg>