<svg xmlns="http://www.w3.org/2000/svg" xmlns:xlink="http://www.w3.org/1999/xlink" aria-hidden="true" role="img" class="iconify iconify--ph" width="1em" height="1em" preserveAspectRatio="xMidYMid meet" viewBox="0 0 256 256"><path fill="currentColor" d="M126 162.7V48a6 6 0 0 0-12 0v114.7a26 26 0 1 0 12 0Zm-6 39.3a14 14 0 1 1 14-14a14 14 0 0 1-14 14Zm59.5-117.8a5.8 5.8 0 0 1 0-8.4a25.8 25.8 0 0 1 36.7 0a14.1 14.1 0 0 0 19.8 0a5.9 5.9 0 0 1 8.5 0a5.8 5.8 0 0 1 0 8.4a26 26 0 0 1-36.7 0a14.1 14.1 0 0 0-19.8 0a5.9 5.9 0 0 1-8.5 0Zm65 31.6a5.8 5.8 0 0 1 0 8.4a26 26 0 0 1-36.7 0a14.1 14.1 0 0 0-19.8 0a5.9 5.9 0 0 1-8.5 0a5.8 5.8 0 0 1 0-8.4a25.8 25.8 0 0 1 36.7 0a14.1 14.1 0 0 0 19.8 0a5.9 5.9 0 0 1 8.5 0ZM158 144.2V48a38 38 0 0 0-76 0v96.2a58 58 0 1 0 76 0ZM120 234a46 46 0 0 1-28.6-82a6.1 6.1 0 0 0 2.6-5V48a26 26 0 0 1 52 0v99a6.1 6.1 0 0 0 2.5 4.9A46 46 0 0 1 120 234Z"></path></svg>