<svg xmlns="http://www.w3.org/2000/svg" xmlns:xlink="http://www.w3.org/1999/xlink" aria-hidden="true" role="img" class="iconify iconify--ph" width="1em" height="1em" preserveAspectRatio="xMidYMid meet" viewBox="0 0 256 256"><path fill="currentColor" d="M128 161.2V120a8 8 0 0 0-16 0v41.2a28 28 0 1 0 16 0Zm-8 38.8a12 12 0 1 1 12-12a12 12 0 0 1-12 12ZM244.9 77.7l-20 6.5l12.4 17a8 8 0 0 1-1.8 11.2a8.1 8.1 0 0 1-11.2-1.8l-12.3-17l-12.3 17a8.1 8.1 0 0 1-11.2 1.8a8 8 0 0 1-1.8-11.2l12.4-17l-20-6.5a7.9 7.9 0 0 1-5.1-10.1a7.8 7.8 0 0 1 10-5.1l20 6.5V48a8 8 0 0 1 16 0v21l20-6.5a7.8 7.8 0 0 1 10 5.1a7.9 7.9 0 0 1-5.1 10.1ZM160 143.3V48a40 40 0 0 0-80 0v95.3A59.4 59.4 0 0 0 60 188a60 60 0 0 0 120 0a59.4 59.4 0 0 0-20-44.7ZM120 232a44 44 0 0 1-44-44a43.5 43.5 0 0 1 16.6-34.4A8.1 8.1 0 0 0 96 147V48a24 24 0 0 1 48 0v99a8.2 8.2 0 0 0 3.3 6.5A44 44 0 0 1 120 232Z"></path></svg>