<svg xmlns="http://www.w3.org/2000/svg" xmlns:xlink="http://www.w3.org/1999/xlink" aria-hidden="true" role="img" class="iconify iconify--ph" width="1em" height="1em" preserveAspectRatio="xMidYMid meet" viewBox="0 0 256 256"><path fill="currentColor" d="m244.9 77.7l-20 6.5l12.4 17a8 8 0 0 1-1.8 11.2a8.1 8.1 0 0 1-11.2-1.8l-12.3-17l-12.3 17a8.1 8.1 0 0 1-11.2 1.8a8 8 0 0 1-1.8-11.2l12.4-17l-20-6.5a7.9 7.9 0 0 1-5.1-10.1a7.8 7.8 0 0 1 10-5.1l20 6.5V48a8 8 0 0 1 16 0v21l20-6.5a7.8 7.8 0 0 1 10 5.1a7.9 7.9 0 0 1-5.1 10.1ZM148 188a28 28 0 1 1-36-26.8V120a8 8 0 0 1 16 0v41.2a27.9 27.9 0 0 1 20 26.8Zm-16 0a12 12 0 1 0-12 12a12 12 0 0 0 12-12Zm48 0a60 60 0 0 1-120 0a59.4 59.4 0 0 1 20-44.7V48a40 40 0 0 1 80 0v95.3a59.4 59.4 0 0 1 20 44.7Zm-16 0a43.8 43.8 0 0 0-16.7-34.5a8.2 8.2 0 0 1-3.3-6.5V48a24 24 0 0 0-48 0v99a8.1 8.1 0 0 1-3.4 6.6A43.5 43.5 0 0 0 76 188a44 44 0 0 0 88 0Z"></path><path fill="currentColor" d="M152 147V48a32 32 0 0 0-64 0v99a52 52 0 1 0 64 0Zm-32 61a20 20 0 1 1 20-20a20.1 20.1 0 0 1-20 20Z" opacity=".2"></path></svg>