<svg xmlns="http://www.w3.org/2000/svg" xmlns:xlink="http://www.w3.org/1999/xlink" aria-hidden="true" role="img" class="iconify iconify--ph" width="1em" height="1em" preserveAspectRatio="xMidYMid meet" viewBox="0 0 256 256"><path fill="currentColor" d="m233.7 157.5l-12-96A20 20 0 0 0 201.9 44H32a12 12 0 0 0-12 12v88a12 12 0 0 0 12 12h45.5l38.9 77.8a4.2 4.2 0 0 0 3.6 2.2a36 36 0 0 0 36-36v-20h57.9a20 20 0 0 0 19.8-22.5ZM76 148H32a4 4 0 0 1-4-4V56a4 4 0 0 1 4-4h44Zm146.9 19.9a12.1 12.1 0 0 1-9 4.1H152a4 4 0 0 0-4 4v24a28.1 28.1 0 0 1-25.6 27.9L84 151.1V52h117.9a12.1 12.1 0 0 1 11.9 10.5l12 96a12.2 12.2 0 0 1-2.9 9.4Z"></path></svg>