<svg xmlns="http://www.w3.org/2000/svg" xmlns:xlink="http://www.w3.org/1999/xlink" aria-hidden="true" role="img" class="iconify iconify--ph" width="1em" height="1em" preserveAspectRatio="xMidYMid meet" viewBox="0 0 256 256"><path fill="currentColor" d="M32 104h48v104H32a8 8 0 0 1-8-8v-88a8 8 0 0 1 8-8Z" opacity=".2"></path><path fill="currentColor" d="M231.9 80.1a24.4 24.4 0 0 0-18-8.1H160V56a40.1 40.1 0 0 0-40-40a8.2 8.2 0 0 0-7.2 4.4L75 96H32a16 16 0 0 0-16 16v88a16 16 0 0 0 16 16h169.9a24.1 24.1 0 0 0 23.8-21l12-96a24.5 24.5 0 0 0-5.8-18.9ZM32 112h40v88H32Zm189.8-15l-12 96a8 8 0 0 1-7.9 7H88v-94.1l36.7-73.4A24 24 0 0 1 144 56v24a8 8 0 0 0 8 8h61.9a8.2 8.2 0 0 1 6 2.7a8.1 8.1 0 0 1 1.9 6.3Z"></path></svg>