<svg xmlns="http://www.w3.org/2000/svg" xmlns:xlink="http://www.w3.org/1999/xlink" aria-hidden="true" role="img" class="iconify iconify--ph" width="1em" height="1em" preserveAspectRatio="xMidYMid meet" viewBox="0 0 256 256"><path fill="currentColor" d="M228.9 82.8a20.1 20.1 0 0 0-15-6.8H156V56a36 36 0 0 0-36-36a4.2 4.2 0 0 0-3.6 2.2L77.5 100H32a12 12 0 0 0-12 12v88a12 12 0 0 0 12 12h169.9a20 20 0 0 0 19.8-17.5l12-96a19.9 19.9 0 0 0-4.8-15.7ZM28 200v-88a4 4 0 0 1 4-4h44v96H32a4 4 0 0 1-4-4ZM225.8 97.5l-12 96a12.1 12.1 0 0 1-11.9 10.5H84v-99.1l38.4-76.8A28.1 28.1 0 0 1 148 56v24a4 4 0 0 0 4 4h61.9a12.1 12.1 0 0 1 9 4.1a12.2 12.2 0 0 1 2.9 9.4Z"></path></svg>