<svg xmlns="http://www.w3.org/2000/svg" xmlns:xlink="http://www.w3.org/1999/xlink" aria-hidden="true" role="img" class="iconify iconify--ph" width="1em" height="1em" preserveAspectRatio="xMidYMid meet" viewBox="0 0 256 256"><path fill="currentColor" d="M234.9 77.5a28.3 28.3 0 0 0-21-9.5H164V56a44 44 0 0 0-44-44a11.9 11.9 0 0 0-10.7 6.6L72.6 92H32a20.1 20.1 0 0 0-20 20v88a20.1 20.1 0 0 0 20 20h169.9a28.1 28.1 0 0 0 27.8-24.5l12-96a28.4 28.4 0 0 0-6.8-22ZM36 116h32v80H36Zm181.8-19.5l-12 96a3.9 3.9 0 0 1-3.9 3.5H92v-89.2l34.8-69.6A20.1 20.1 0 0 1 140 56v24a12 12 0 0 0 12 12h61.9a3.9 3.9 0 0 1 3 1.4a3.9 3.9 0 0 1 .9 3.1Z"></path></svg>