<svg xmlns="http://www.w3.org/2000/svg" xmlns:xlink="http://www.w3.org/1999/xlink" aria-hidden="true" role="img" class="iconify iconify--ph" width="1em" height="1em" preserveAspectRatio="xMidYMid meet" viewBox="0 0 256 256"><path fill="currentColor" d="M32 48h48v104H32a8 8 0 0 1-8-8V56a8 8 0 0 1 8-8Z" opacity=".2"></path><path fill="currentColor" d="m237.7 157l-12-96a24.1 24.1 0 0 0-23.8-21H32a16 16 0 0 0-16 16v88a16 16 0 0 0 16 16h43l37.8 75.6a8.2 8.2 0 0 0 7.2 4.4a40.1 40.1 0 0 0 40-40v-16h53.9a23.9 23.9 0 0 0 23.8-27ZM72 144H32V56h40Zm147.9 21.3a8.2 8.2 0 0 1-6 2.7H152a8 8 0 0 0-8 8v24a24 24 0 0 1-19.3 23.5L88 150.1V56h113.9a8 8 0 0 1 7.9 7l12 96a8.1 8.1 0 0 1-1.9 6.3Z"></path></svg>