<svg xmlns="http://www.w3.org/2000/svg" xmlns:xlink="http://www.w3.org/1999/xlink" aria-hidden="true" role="img" class="iconify iconify--ph" width="1em" height="1em" preserveAspectRatio="xMidYMid meet" viewBox="0 0 256 256"><path fill="currentColor" d="m241.7 156.5l-12-96A28.1 28.1 0 0 0 201.9 36H32a20.1 20.1 0 0 0-20 20v88a20.1 20.1 0 0 0 20 20h40.6l36.7 73.4A11.9 11.9 0 0 0 120 244a44 44 0 0 0 44-44v-12h49.9a28.1 28.1 0 0 0 27.8-31.5ZM68 140H36V60h32Zm148.9 22.6a3.9 3.9 0 0 1-3 1.4H152a12 12 0 0 0-12 12v24a20.1 20.1 0 0 1-13.2 18.8L92 149.2V60h109.9a3.9 3.9 0 0 1 3.9 3.5l12 96a3.9 3.9 0 0 1-.9 3.1Z"></path></svg>