<svg xmlns="http://www.w3.org/2000/svg" xmlns:xlink="http://www.w3.org/1999/xlink" aria-hidden="true" role="img" class="iconify iconify--ph" width="1em" height="1em" preserveAspectRatio="xMidYMid meet" viewBox="0 0 256 256"><path fill="currentColor" d="m235.7 157.3l-12-96A22.1 22.1 0 0 0 201.9 42H32a14 14 0 0 0-14 14v88a14 14 0 0 0 14 14h44.3l38.3 76.7a6 6 0 0 0 5.4 3.3a38 38 0 0 0 38-38v-18h55.9a22.1 22.1 0 0 0 16.5-7.4a22.4 22.4 0 0 0 5.3-17.3ZM74 146H32a2 2 0 0 1-2-2V56a2 2 0 0 1 2-2h42Zm147.4 20.6a10 10 0 0 1-7.5 3.4H152a6 6 0 0 0-6 6v24a26.2 26.2 0 0 1-22.4 25.8L86 150.6V54h115.9a10 10 0 0 1 9.9 8.8l12 96a9.8 9.8 0 0 1-2.4 7.8Z"></path></svg>