<svg xmlns="http://www.w3.org/2000/svg" xmlns:xlink="http://www.w3.org/1999/xlink" aria-hidden="true" role="img" class="iconify iconify--ph" width="1em" height="1em" preserveAspectRatio="xMidYMid meet" viewBox="0 0 256 256"><path fill="currentColor" d="M230.4 81.4a22.1 22.1 0 0 0-16.5-7.4H158V56a38 38 0 0 0-38-38a6 6 0 0 0-5.4 3.3L76.3 98H32a14 14 0 0 0-14 14v88a14 14 0 0 0 14 14h169.9a22.1 22.1 0 0 0 21.8-19.3l12-96a22.4 22.4 0 0 0-5.3-17.3ZM30 200v-88a2 2 0 0 1 2-2h42v92H32a2 2 0 0 1-2-2ZM223.8 97.2l-12 96a10 10 0 0 1-9.9 8.8H86v-96.6l37.6-75.2A26.2 26.2 0 0 1 146 56v24a6 6 0 0 0 6 6h61.9a10 10 0 0 1 7.5 3.4a9.8 9.8 0 0 1 2.4 7.8Z"></path></svg>