<svg xmlns="http://www.w3.org/2000/svg" xmlns:xlink="http://www.w3.org/1999/xlink" aria-hidden="true" role="img" class="iconify iconify--ph" width="1em" height="1em" preserveAspectRatio="xMidYMid meet" viewBox="0 0 256 256"><path fill="currentColor" d="M226.4 100.6a12.1 12.1 0 0 0 9.6-11.8V64a12 12 0 0 0-12-12H32a12 12 0 0 0-12 12v24.8a12.1 12.1 0 0 0 9.6 11.8a28 28 0 0 1 0 54.8a12.1 12.1 0 0 0-9.6 11.8V192a12 12 0 0 0 12 12h192a12 12 0 0 0 12-12v-24.8a12.1 12.1 0 0 0-9.6-11.8a28 28 0 0 1 0-54.8ZM28 192v-24.8a4 4 0 0 1 3.2-3.9a36 36 0 0 0 0-70.6a4 4 0 0 1-3.2-3.9V64a4 4 0 0 1 4-4h60v136H32a4 4 0 0 1-4-4Zm168-64a36.1 36.1 0 0 0 28.8 35.3a4 4 0 0 1 3.2 3.9V192a4 4 0 0 1-4 4H100V60h124a4 4 0 0 1 4 4v24.8a4 4 0 0 1-3.2 3.9A36.1 36.1 0 0 0 196 128Z"></path></svg>