<svg xmlns="http://www.w3.org/2000/svg" xmlns:xlink="http://www.w3.org/1999/xlink" aria-hidden="true" role="img" class="iconify iconify--ph" width="1em" height="1em" preserveAspectRatio="xMidYMid meet" viewBox="0 0 256 256"><path fill="currentColor" d="M226.8 102.5A14 14 0 0 0 238 88.8V64a14 14 0 0 0-14-14H32a14 14 0 0 0-14 14v24.8a14 14 0 0 0 11.2 13.7a26 26 0 0 1 0 51A14 14 0 0 0 18 167.2V192a14 14 0 0 0 14 14h192a14 14 0 0 0 14-14v-24.8a14 14 0 0 0-11.2-13.7a26 26 0 0 1 0-51ZM30 192v-24.8a2 2 0 0 1 1.6-2a38 38 0 0 0 0-74.4a2 2 0 0 1-1.6-2V64a2 2 0 0 1 2-2h58v132H32a2 2 0 0 1-2-2Zm194.4-26.8a2 2 0 0 1 1.6 2V192a2 2 0 0 1-2 2H102V62h122a2 2 0 0 1 2 2v24.8a2 2 0 0 1-1.6 2a38 38 0 0 0 0 74.4Z"></path></svg>