<svg xmlns="http://www.w3.org/2000/svg" xmlns:xlink="http://www.w3.org/1999/xlink" aria-hidden="true" role="img" class="iconify iconify--ph" width="1em" height="1em" preserveAspectRatio="xMidYMid meet" viewBox="0 0 256 256"><path fill="currentColor" d="M227.2 104.5A16.1 16.1 0 0 0 240 88.8V64a16 16 0 0 0-16-16H32a16 16 0 0 0-16 16v24.8a16.1 16.1 0 0 0 12.8 15.7a24 24 0 0 1 0 47A16.1 16.1 0 0 0 16 167.2V192a16 16 0 0 0 16 16h192a16 16 0 0 0 16-16v-24.8a16.1 16.1 0 0 0-12.8-15.7a24 24 0 0 1 0-47ZM32 167.2a40 40 0 0 0 0-78.4V64h56v128H32Zm192 0V192H104V64h120v24.8a40 40 0 0 0 0 78.4Z"></path></svg>