<svg xmlns="http://www.w3.org/2000/svg" xmlns:xlink="http://www.w3.org/1999/xlink" aria-hidden="true" role="img" class="iconify iconify--ph" width="1em" height="1em" preserveAspectRatio="xMidYMid meet" viewBox="0 0 256 256"><path fill="currentColor" d="M228 108.4a20 20 0 0 0 16-19.6V64a20.1 20.1 0 0 0-20-20H32a20.1 20.1 0 0 0-20 20v24.8a20 20 0 0 0 16 19.6a20 20 0 0 1 0 39.2a20 20 0 0 0-16 19.6V192a20.1 20.1 0 0 0 20 20h192a20.1 20.1 0 0 0 20-20v-24.8a20 20 0 0 0-16-19.6a20 20 0 0 1 0-39.2ZM36 170.3a44 44 0 0 0 0-84.6V68h48v120H36Zm184 0V188H108V68h112v17.7a44 44 0 0 0 0 84.6Z"></path></svg>