<svg xmlns="http://www.w3.org/2000/svg" xmlns:xlink="http://www.w3.org/1999/xlink" aria-hidden="true" role="img" class="iconify iconify--ph" width="1em" height="1em" preserveAspectRatio="xMidYMid meet" viewBox="0 0 256 256"><path fill="currentColor" d="M224 78a50 50 0 0 1-50-50a6 6 0 0 0-6-6h-40a6 6 0 0 0-6 6v128a22 22 0 1 1-31.4-19.9a6 6 0 0 0 3.4-5.4V89.1a6.1 6.1 0 0 0-7.1-6A74 74 0 1 0 174 156v-39.1a101.1 101.1 0 0 0 50 13.1a6 6 0 0 0 6-6V84a6 6 0 0 0-6-6Zm-6 39.8a89 89 0 0 1-46.5-16.7a6 6 0 0 0-6.2-.5a6.2 6.2 0 0 0-3.3 5.4v50a62 62 0 1 1-80-59.4v30.6a34 34 0 1 0 52 28.8V34h28.3A62 62 0 0 0 218 89.7Z"></path></svg>