<svg xmlns="http://www.w3.org/2000/svg" xmlns:xlink="http://www.w3.org/1999/xlink" aria-hidden="true" role="img" class="iconify iconify--ph" width="1em" height="1em" preserveAspectRatio="xMidYMid meet" viewBox="0 0 256 256"><path fill="currentColor" d="M224 72a44 44 0 0 1-44-44a12 12 0 0 0-12-12h-40a12 12 0 0 0-12 12v128a16 16 0 0 1-32 0a16.3 16.3 0 0 1 9.1-14.5a12 12 0 0 0 6.9-10.8V89.1a11.9 11.9 0 0 0-4.3-9.2a12 12 0 0 0-9.8-2.7A80 80 0 1 0 180 156v-29.3a107.9 107.9 0 0 0 44 9.3a12 12 0 0 0 12-12V84a12 12 0 0 0-12-12Zm-12 39.2a83.2 83.2 0 0 1-37-15a12.2 12.2 0 0 0-12.5-.9A12.1 12.1 0 0 0 156 106v50a56 56 0 1 1-80-50.6V124a40 40 0 1 0 64 32V40h17.1A67.9 67.9 0 0 0 212 94.9Z"></path></svg>