<svg xmlns="http://www.w3.org/2000/svg" xmlns:xlink="http://www.w3.org/1999/xlink" aria-hidden="true" role="img" class="iconify iconify--ph" width="1em" height="1em" preserveAspectRatio="xMidYMid meet" viewBox="0 0 256 256"><path fill="currentColor" d="M128 36a92 92 0 1 0 92 92a92.1 92.1 0 0 0-92-92Zm0 176a84 84 0 1 1 84-84a84.1 84.1 0 0 1-84 84Zm42.4-126.4a3.9 3.9 0 0 1 0 5.6l-39.6 39.6a3.9 3.9 0 0 1-5.6 0a3.9 3.9 0 0 1 0-5.6l39.6-39.6a3.9 3.9 0 0 1 5.6 0ZM100 8a4 4 0 0 1 4-4h48a4 4 0 0 1 0 8h-48a4 4 0 0 1-4-4Z"></path></svg>