<svg xmlns="http://www.w3.org/2000/svg" xmlns:xlink="http://www.w3.org/1999/xlink" aria-hidden="true" role="img" class="iconify iconify--ph" width="1em" height="1em" preserveAspectRatio="xMidYMid meet" viewBox="0 0 256 256"><path fill="currentColor" d="M128 34a94 94 0 1 0 94 94a94.1 94.1 0 0 0-94-94Zm0 176a82 82 0 1 1 82-82a82.1 82.1 0 0 1-82 82Zm43.8-125.8a5.8 5.8 0 0 1 0 8.4l-39.6 39.6a5.9 5.9 0 0 1-8.4-8.4l39.6-39.6a5.8 5.8 0 0 1 8.4 0ZM98 8a6 6 0 0 1 6-6h48a6 6 0 0 1 0 12h-48a6 6 0 0 1-6-6Z"></path></svg>