<svg xmlns="http://www.w3.org/2000/svg" xmlns:xlink="http://www.w3.org/1999/xlink" aria-hidden="true" role="img" class="iconify iconify--ph" width="1em" height="1em" preserveAspectRatio="xMidYMid meet" viewBox="0 0 256 256"><path fill="currentColor" d="M128 40a100 100 0 1 0 100 100A100.2 100.2 0 0 0 128 40Zm0 176a76 76 0 1 1 76-76a76.1 76.1 0 0 1-76 76Zm42.4-118.4a11.9 11.9 0 0 1 0 16.9l-33.9 34a12.1 12.1 0 0 1-17 0a12 12 0 0 1 0-17l34-33.9a11.9 11.9 0 0 1 16.9 0ZM92 12a12 12 0 0 1 12-12h48a12 12 0 0 1 0 24h-48a12 12 0 0 1-12-12Z"></path></svg>