<svg xmlns="http://www.w3.org/2000/svg" xmlns:xlink="http://www.w3.org/1999/xlink" aria-hidden="true" role="img" class="iconify iconify--ph" width="1em" height="1em" preserveAspectRatio="xMidYMid meet" viewBox="0 0 256 256"><path fill="currentColor" d="M128 32a96 96 0 1 0 96 96a96.2 96.2 0 0 0-96-96Zm0 176a80 80 0 1 1 80-80a80.1 80.1 0 0 1-80 80Zm45.3-125.3a8.1 8.1 0 0 1 0 11.4l-39.6 39.6a8.2 8.2 0 0 1-11.4 0a8.1 8.1 0 0 1 0-11.4l39.6-39.6a8.1 8.1 0 0 1 11.4 0ZM96 8a8 8 0 0 1 8-8h48a8 8 0 0 1 0 16h-48a8 8 0 0 1-8-8Z"></path></svg>