<svg xmlns="http://www.w3.org/2000/svg" xmlns:xlink="http://www.w3.org/1999/xlink" aria-hidden="true" role="img" class="iconify iconify--ph" width="1em" height="1em" preserveAspectRatio="xMidYMid meet" viewBox="0 0 256 256"><path fill="currentColor" d="M208 128a32 32 0 1 1-32-32a32 32 0 0 1 32 32Z" opacity=".2"></path><path fill="currentColor" d="M176 56H80a72 72 0 0 0 0 144h96a72 72 0 0 0 0-144Zm0 128H80a56 56 0 0 1 0-112h96a56 56 0 0 1 0 112Zm0-96a40 40 0 1 0 40 40a40 40 0 0 0-40-40Zm0 64a24 24 0 1 1 24-24a24.1 24.1 0 0 1-24 24Z"></path></svg>