<svg xmlns="http://www.w3.org/2000/svg" xmlns:xlink="http://www.w3.org/1999/xlink" aria-hidden="true" role="img" class="iconify iconify--ph" width="1em" height="1em" preserveAspectRatio="xMidYMid meet" viewBox="0 0 256 256"><path fill="currentColor" d="M120 64a8 8 0 0 1-8 8H96a8 8 0 0 1 0-16h16a8 8 0 0 1 8 8Zm51.2 133.7l3.4 24a15.9 15.9 0 0 1-15.8 18.3H97.2a15.9 15.9 0 0 1-15.8-18.3l3.4-24A96 96 0 0 1 32 112a8 8 0 0 1 8-8h16V40a16 16 0 0 1 16-16h112a16 16 0 0 1 16 16v64h16a8 8 0 0 1 8 8a96 96 0 0 1-52.8 85.7ZM72 104h112V40H72Zm83.9 99.9a97 97 0 0 1-55.8 0L97.2 224h61.6Zm51.7-83.9H48.4a80 80 0 0 0 159.2 0Z"></path></svg>