<svg xmlns="http://www.w3.org/2000/svg" xmlns:xlink="http://www.w3.org/1999/xlink" aria-hidden="true" role="img" class="iconify iconify--ph" width="1em" height="1em" preserveAspectRatio="xMidYMid meet" viewBox="0 0 256 256"><path fill="currentColor" d="M76 120a12 12 0 1 1-12-12a12 12 0 0 1 12 12Zm164 0v88a16 16 0 0 1-16 16H112a16 16 0 0 1-16-16v-21.7C87.4 200.4 76.2 208 64 208c-13.9 0-26.5-9.9-35.4-27.9C20.5 163.9 16 142.6 16 120s4.5-43.9 12.6-60.1C37.5 41.9 50.1 32 64 32h128c13.9 0 26.5 9.9 35.4 27.9C235.5 76.1 240 97.4 240 120Zm-144 0c0-42.4-16.9-72-32-72s-32 29.6-32 72s16.9 72 32 72s32-29.6 32-72Zm128 88v-80h-16a8 8 0 0 1 0-16h15.8c-2-38.1-17.6-64-31.8-64H92.1a65 65 0 0 1 7.3 11.9c7.2 14.2 11.5 32.5 12.4 52.1H128a8 8 0 0 1 0 16h-16v80Zm-48-96h-16a8 8 0 0 0 0 16h16a8 8 0 0 0 0-16Z"></path></svg>