<svg xmlns="http://www.w3.org/2000/svg" xmlns:xlink="http://www.w3.org/1999/xlink" aria-hidden="true" role="img" class="iconify iconify--ph" width="1em" height="1em" preserveAspectRatio="xMidYMid meet" viewBox="0 0 256 256"><path fill="currentColor" d="M118 64a6 6 0 0 1-6 6H96a6 6 0 0 1 0-12h16a6 6 0 0 1 6 6Zm51 132.6l3.6 25.4a14.2 14.2 0 0 1-3.2 11.2a14.4 14.4 0 0 1-10.6 4.8H97.2a14.4 14.4 0 0 1-10.6-4.8a14.2 14.2 0 0 1-3.2-11.2l3.6-25.4A94.3 94.3 0 0 1 34 112a6 6 0 0 1 6-6h18V40a14 14 0 0 1 14-14h112a14 14 0 0 1 14 14v66h18a6 6 0 0 1 6 6a94.3 94.3 0 0 1-53 84.6ZM70 106h116V40a2 2 0 0 0-2-2H72a2 2 0 0 0-2 2Zm87.5 95.2a93.1 93.1 0 0 1-59 0l-3.3 22.5a2 2 0 0 0 .5 1.6a1.8 1.8 0 0 0 1.5.7h61.6a1.8 1.8 0 0 0 1.5-.7a2 2 0 0 0 .5-1.6Zm52.3-83.2H46.2a82 82 0 0 0 163.6 0Z"></path></svg>