<svg xmlns="http://www.w3.org/2000/svg" xmlns:xlink="http://www.w3.org/1999/xlink" aria-hidden="true" role="img" class="iconify iconify--ph" width="1em" height="1em" preserveAspectRatio="xMidYMid meet" viewBox="0 0 256 256"><path fill="currentColor" d="M72 120a8 8 0 1 1-8-8a8 8 0 0 1 8 8Zm164 0v88a12 12 0 0 1-12 12H112a12 12 0 0 1-12-12v-39.1C92.1 190.3 79.1 204 64 204c-24.7 0-44-36.9-44-84s19.3-84 44-84h128c24.7 0 44 36.9 44 84Zm-136 0c0-41.2-16.5-76-36-76s-36 34.8-36 76s16.5 76 36 76s36-34.8 36-76Zm128 88v-84h-20a4 4 0 0 1 0-8h19.9c-1-39.4-17-72-35.9-72H83c14.3 12.8 24.2 39.8 24.9 72H128a4 4 0 0 1 0 8h-20v84a4 4 0 0 0 4 4h112a4 4 0 0 0 4-4Zm-52-92h-16a4 4 0 0 0 0 8h16a4 4 0 0 0 0-8Z"></path></svg>