<svg xmlns="http://www.w3.org/2000/svg" xmlns:xlink="http://www.w3.org/1999/xlink" aria-hidden="true" role="img" class="iconify iconify--ph" width="1em" height="1em" preserveAspectRatio="xMidYMid meet" viewBox="0 0 256 256"><path fill="currentColor" d="M128 68a12 12 0 0 1-12 12h-16a12 12 0 0 1 0-24h16a12 12 0 0 1 12 12Zm47 128.2l3.6 25a20 20 0 0 1-19.8 22.8H97.2a20 20 0 0 1-19.8-22.8l3.6-25A99.9 99.9 0 0 1 28 108a12 12 0 0 1 12-12h12V40a20.1 20.1 0 0 1 20-20h112a20.1 20.1 0 0 1 20 20v56h12a12 12 0 0 1 12 12a99.9 99.9 0 0 1-53 88.2ZM76 96h104V44H76Zm76 109.1a100.8 100.8 0 0 1-48 0l-2.2 14.9h52.4Zm51.1-85.1H52.9a76.1 76.1 0 0 0 150.2 0Z"></path></svg>