<svg xmlns="http://www.w3.org/2000/svg" xmlns:xlink="http://www.w3.org/1999/xlink" aria-hidden="true" role="img" class="iconify iconify--ph" width="1em" height="1em" preserveAspectRatio="xMidYMid meet" viewBox="0 0 256 256"><path fill="currentColor" d="M80 120a16 16 0 1 1-16-16a16 16 0 0 1 16 16Zm164 0v88a20.1 20.1 0 0 1-20 20H112a20.1 20.1 0 0 1-20-20v-9.6c-8 8.7-17.5 13.6-28 13.6c-29.6 0-52-39.6-52-92s22.4-92 52-92h128c29.6 0 52 39.6 52 92Zm-152 0c0-19.3-3.8-37.9-10.4-51.2C76.3 58.3 69.7 52 64 52s-12.3 6.3-17.6 16.8C39.8 82.1 36 100.7 36 120s3.8 37.9 10.4 51.2C51.7 181.7 58.3 188 64 188s12.3-6.3 17.6-16.8C88.2 157.9 92 139.3 92 120Zm128 84v-72h-8a12 12 0 0 1 0-24h7.5c-1.2-14.9-4.7-28.7-9.9-39.2S197.7 52 192 52H99.7c8.7 14.1 14.4 33.6 15.9 56h8.4a12 12 0 0 1 0 24h-8v72Zm-48-96h-8a12 12 0 0 0 0 24h8a12 12 0 0 0 0-24Z"></path></svg>