<svg xmlns="http://www.w3.org/2000/svg" xmlns:xlink="http://www.w3.org/1999/xlink" aria-hidden="true" role="img" class="iconify iconify--ph" width="1em" height="1em" preserveAspectRatio="xMidYMid meet" viewBox="0 0 256 256"><path fill="currentColor" d="M116 64a4 4 0 0 1-4 4H96a4 4 0 0 1 0-8h16a4 4 0 0 1 4 4Zm50.8 131.4l3.9 26.9a12.5 12.5 0 0 1-2.9 9.6a11.8 11.8 0 0 1-9 4.1H97.2a11.8 11.8 0 0 1-9-4.1a12.5 12.5 0 0 1-2.9-9.6l3.9-26.9A92.1 92.1 0 0 1 36 112a4 4 0 0 1 4-4h20V40a12 12 0 0 1 12-12h112a12 12 0 0 1 12 12v68h20a4 4 0 0 1 4 4a92.1 92.1 0 0 1-53.2 83.4ZM68 108h120V40a4 4 0 0 0-4-4H72a4 4 0 0 0-4 4Zm91.2 90.6a92.8 92.8 0 0 1-62.4 0l-3.5 24.8a3.7 3.7 0 0 0 .9 3.2a3.9 3.9 0 0 0 3 1.4h61.6a3.9 3.9 0 0 0 3-1.4a3.7 3.7 0 0 0 .9-3.2Zm52.7-82.6H44.1a84 84 0 0 0 167.8 0Z"></path></svg>