<svg xmlns="http://www.w3.org/2000/svg" xmlns:xlink="http://www.w3.org/1999/xlink" aria-hidden="true" role="img" class="iconify iconify--ph" width="1em" height="1em" preserveAspectRatio="xMidYMid meet" viewBox="0 0 256 256"><path fill="currentColor" d="M74 120a10 10 0 1 1-10-10a10 10 0 0 1 10 10Zm164 0v88a14 14 0 0 1-14 14H112a14 14 0 0 1-14-14v-29.5c-8.4 17-20.4 27.5-34 27.5c-25.8 0-46-37.8-46-86s20.2-86 46-86h128c25.8 0 46 37.8 46 86Zm-140 0c0-44.3-17.6-74-34-74s-34 29.7-34 74s17.6 74 34 74s34-29.7 34-74Zm128 88v-82h-18a6 6 0 0 1 0-12h17.9c-1.5-40.9-18.2-68-33.9-68H87.8c12.5 13.9 21 38.7 22.1 68H128a6 6 0 0 1 0 12h-18v82a2 2 0 0 0 2 2h112a2 2 0 0 0 2-2Zm-50-94h-16a6 6 0 0 0 0 12h16a6 6 0 0 0 0-12Z"></path></svg>