<svg xmlns="http://www.w3.org/2000/svg" xmlns:xlink="http://www.w3.org/1999/xlink" aria-hidden="true" role="img" class="iconify iconify--ph" width="1em" height="1em" preserveAspectRatio="xMidYMid meet" viewBox="0 0 256 256"><path fill="currentColor" d="M224 112a8 8 0 0 0-8-8H40a8 8 0 0 0-8 8a96 96 0 0 0 52.8 85.7l-3.4 24A15.9 15.9 0 0 0 97.2 240h61.6a15.9 15.9 0 0 0 15.8-18.3l-3.4-24A96 96 0 0 0 224 112ZM97.2 224l2.9-20.1a97 97 0 0 0 55.8 0l2.9 20.1ZM60 88h136a4 4 0 0 0 4-4V40a16 16 0 0 0-16-16H72a16 16 0 0 0-16 16v44a4 4 0 0 0 4 4Zm28-40h16a8 8 0 0 1 0 16H88a8 8 0 0 1 0-16Z"></path></svg>