<svg xmlns="http://www.w3.org/2000/svg" xmlns:xlink="http://www.w3.org/1999/xlink" aria-hidden="true" role="img" class="iconify iconify--ph" width="1em" height="1em" preserveAspectRatio="xMidYMid meet" viewBox="0 0 256 256"><path fill="currentColor" d="M208.8 216H47.2a8.1 8.1 0 0 1-8-7.1L25 80.9a8 8 0 0 1 7.9-8.9h190.2a8 8 0 0 1 7.9 8.9l-14.2 128a8.1 8.1 0 0 1-8 7.1Z" opacity=".2"></path><path fill="currentColor" d="M235 69.3a15.9 15.9 0 0 0-11.9-5.3h-47.8a48 48 0 0 0-94.6 0H32.9A15.9 15.9 0 0 0 21 69.3a16.2 16.2 0 0 0-4 12.5l14.3 128A15.9 15.9 0 0 0 47.2 224h161.6a15.9 15.9 0 0 0 15.9-14.2l14.3-128a16.2 16.2 0 0 0-4-12.5ZM128 40a32.1 32.1 0 0 1 31 24H97a32.1 32.1 0 0 1 31-24Zm80.8 168H47.2L32.9 80h190.2Z"></path></svg>