<svg xmlns="http://www.w3.org/2000/svg" xmlns:xlink="http://www.w3.org/1999/xlink" aria-hidden="true" role="img" class="iconify iconify--ph" width="1em" height="1em" preserveAspectRatio="xMidYMid meet" viewBox="0 0 256 256"><path fill="currentColor" d="M232 72a12.1 12.1 0 0 0-8.9-4h-51.3a44 44 0 0 0-87.6 0H32.9a12.1 12.1 0 0 0-8.9 4a11.7 11.7 0 0 0-3 9.3l14.2 128a12 12 0 0 0 12 10.7h161.6a12 12 0 0 0 12-10.7l14.2-128a11.7 11.7 0 0 0-3-9.3ZM128 36a36.1 36.1 0 0 1 35.8 32H92.2A36.1 36.1 0 0 1 128 36Zm99 44.4l-14.2 128a3.9 3.9 0 0 1-4 3.6H47.2a3.9 3.9 0 0 1-4-3.6L29 80.4a3.7 3.7 0 0 1 1-3.1a3.9 3.9 0 0 1 2.9-1.3h190.2a3.9 3.9 0 0 1 2.9 1.3a3.7 3.7 0 0 1 1 3.1Z"></path></svg>