<svg xmlns="http://www.w3.org/2000/svg" xmlns:xlink="http://www.w3.org/1999/xlink" aria-hidden="true" role="img" class="iconify iconify--ph" width="1em" height="1em" preserveAspectRatio="xMidYMid meet" viewBox="0 0 256 256"><path fill="currentColor" d="M238 66.7a20 20 0 0 0-14.9-6.7h-44.5a52 52 0 0 0-101.2 0H32.9A20 20 0 0 0 18 66.7a19.6 19.6 0 0 0-4.9 15.5l14.2 128A19.9 19.9 0 0 0 47.2 228h161.6a19.9 19.9 0 0 0 19.9-17.8l14.2-128a19.6 19.6 0 0 0-4.9-15.5ZM128 44a28 28 0 0 1 25.3 16h-50.6A28 28 0 0 1 128 44Zm77.3 160H50.7L37.4 84H76v20a12 12 0 0 0 24 0V84h56v20a12 12 0 0 0 24 0V84h38.6Z"></path></svg>