<svg xmlns="http://www.w3.org/2000/svg" xmlns:xlink="http://www.w3.org/1999/xlink" aria-hidden="true" role="img" class="iconify iconify--ph" width="1em" height="1em" preserveAspectRatio="xMidYMid meet" viewBox="0 0 256 256"><path fill="currentColor" d="M233.5 70.7a14.1 14.1 0 0 0-10.4-4.7h-49.5a46 46 0 0 0-91.2 0H32.9A14.1 14.1 0 0 0 19 81.5l14.2 128a14.1 14.1 0 0 0 14 12.5h161.6a14.1 14.1 0 0 0 14-12.5l14.2-128a14.2 14.2 0 0 0-3.5-10.8ZM128 38a34.1 34.1 0 0 1 33.5 28h-67A34.1 34.1 0 0 1 128 38Zm82.8 170.2a2 2 0 0 1-2 1.8H47.2a2 2 0 0 1-2-1.8L31 80.2a1.8 1.8 0 0 1 .4-1.5a2.1 2.1 0 0 1 1.5-.7h190.2a2.1 2.1 0 0 1 1.5.7a1.8 1.8 0 0 1 .4 1.5Z"></path></svg>