<svg xmlns="http://www.w3.org/2000/svg" xmlns:xlink="http://www.w3.org/1999/xlink" aria-hidden="true" role="img" class="iconify iconify--ph" width="1em" height="1em" preserveAspectRatio="xMidYMid meet" viewBox="0 0 256 256"><path fill="currentColor" d="M128 56a72 72 0 1 0 72 72a72.1 72.1 0 0 0-72-72Zm28.5 110.6a8.2 8.2 0 0 1-4.5 1.4a8 8 0 0 1-6.6-3.5L131.3 144H116v16a8 8 0 0 1-16 0V96a8 8 0 0 1 8-8h24a28 28 0 0 1 15.5 51.3l11.1 16.2a7.9 7.9 0 0 1-2.1 11.1ZM144 116a12 12 0 0 1-12 12h-16v-24h16a12 12 0 0 1 12 12Zm-16-96a108 108 0 1 0 108 108A108.1 108.1 0 0 0 128 20Zm0 196a88 88 0 1 1 88-88a88.1 88.1 0 0 1-88 88Z"></path></svg>