<svg xmlns="http://www.w3.org/2000/svg" xmlns:xlink="http://www.w3.org/1999/xlink" aria-hidden="true" role="img" class="iconify iconify--ph" width="1em" height="1em" preserveAspectRatio="xMidYMid meet" viewBox="0 0 256 256"><path fill="currentColor" d="M128 20a108 108 0 1 0 108 108A108.1 108.1 0 0 0 128 20Zm0 192a84 84 0 1 1 84-84a84.1 84.1 0 0 1-84 84Zm44-100a36 36 0 0 0-36-36h-32a12 12 0 0 0-12 12v80a12 12 0 0 0 24 0v-20h15.4l18.8 26.9a11.9 11.9 0 0 0 9.8 5.1a11.8 11.8 0 0 0 6.9-2.2a12 12 0 0 0 2.9-16.7l-13.5-19.4A35.9 35.9 0 0 0 172 112Zm-56-12h20a12 12 0 0 1 0 24h-20Z"></path></svg>