<svg xmlns="http://www.w3.org/2000/svg" xmlns:xlink="http://www.w3.org/1999/xlink" aria-hidden="true" role="img" class="iconify iconify--ph" width="1em" height="1em" preserveAspectRatio="xMidYMid meet" viewBox="0 0 256 256"><path fill="currentColor" d="M128 28a100 100 0 1 0 100 100A100.2 100.2 0 0 0 128 28Zm0 192a92 92 0 1 1 92-92a92.1 92.1 0 0 1-92 92Zm36-108a28.1 28.1 0 0 0-28-28h-32a4 4 0 0 0-4 4v80a4 4 0 0 0 8 0v-28h27.5l21.2 30.3a4 4 0 0 0 3.3 1.7a3.9 3.9 0 0 0 2.3-.7a4.1 4.1 0 0 0 1-5.6l-18.9-27A28.1 28.1 0 0 0 164 112Zm-28 20h-28V92h28a20 20 0 0 1 0 40Z"></path></svg>