<svg xmlns="http://www.w3.org/2000/svg" xmlns:xlink="http://www.w3.org/1999/xlink" aria-hidden="true" role="img" class="iconify iconify--ph" width="1em" height="1em" preserveAspectRatio="xMidYMid meet" viewBox="0 0 256 256"><path fill="currentColor" d="M128 24a104 104 0 1 0 104 104A104.2 104.2 0 0 0 128 24Zm0 192a88 88 0 1 1 88-88a88.1 88.1 0 0 1-88 88Zm40-104a32.1 32.1 0 0 0-32-32h-32a8 8 0 0 0-8 8v80a8 8 0 0 0 16 0v-24h21.4l20 28.6a8.2 8.2 0 0 0 6.6 3.4a8.6 8.6 0 0 0 4.6-1.4a8.1 8.1 0 0 0 2-11.2l-16.1-22.9A32 32 0 0 0 168 112Zm-32 16h-24V96h24a16 16 0 0 1 0 32Z"></path></svg>