<svg xmlns="http://www.w3.org/2000/svg" xmlns:xlink="http://www.w3.org/1999/xlink" aria-hidden="true" role="img" class="iconify iconify--ph" width="1em" height="1em" preserveAspectRatio="xMidYMid meet" viewBox="0 0 256 256"><path fill="currentColor" d="M128 26a102 102 0 1 0 102 102A102.2 102.2 0 0 0 128 26Zm0 192a90 90 0 1 1 90-90a90.1 90.1 0 0 1-90 90Zm38-106a30.1 30.1 0 0 0-30-30h-32a6 6 0 0 0-6 6v80a6 6 0 0 0 12 0v-26h24.5l20.6 29.4a5.9 5.9 0 0 0 8.3 1.5a5.9 5.9 0 0 0 1.5-8.3l-17.4-24.9A29.9 29.9 0 0 0 166 112Zm-30 18h-26V94h26a18 18 0 0 1 0 36Z"></path></svg>