<svg xmlns="http://www.w3.org/2000/svg" xmlns:xlink="http://www.w3.org/1999/xlink" aria-hidden="true" role="img" class="iconify iconify--ph" width="1em" height="1em" preserveAspectRatio="xMidYMid meet" viewBox="0 0 256 256"><path fill="currentColor" d="M188.5 160h-121l22.2-64h76.6Z" opacity=".2"></path><path fill="currentColor" d="M232 208h-18.3L153.4 34.7A16 16 0 0 0 138.3 24h-20.6a16 16 0 0 0-15.1 10.7L42.3 208H24a8 8 0 0 0 0 16h208a8 8 0 0 0 0-16ZM95.4 104h65.2l16.7 48H78.7Zm22.3-64h20.6L155 88h-54ZM73.2 168h109.6l13.9 40H59.3Z"></path></svg>