<svg xmlns="http://www.w3.org/2000/svg" xmlns:xlink="http://www.w3.org/1999/xlink" aria-hidden="true" role="img" class="iconify iconify--ph" width="1em" height="1em" preserveAspectRatio="xMidYMid meet" viewBox="0 0 256 256"><path fill="currentColor" d="M241.2 119.5L136.5 14.8a12.1 12.1 0 0 0-17 0L14.8 119.5a12.2 12.2 0 0 0 0 17l104.7 104.7a12.1 12.1 0 0 0 17 0l104.7-104.7a12.2 12.2 0 0 0 0-17Zm-5.7 11.3L130.8 235.5a4 4 0 0 1-5.6 0L20.5 130.8a3.9 3.9 0 0 1 0-5.6L125.2 20.5a3.9 3.9 0 0 1 5.6 0l104.7 104.7a3.9 3.9 0 0 1 0 5.6Zm-64-8.9l-.2.3l-.5.6l-24 24a3.9 3.9 0 0 1-5.6 0a3.9 3.9 0 0 1 0-5.6l17.1-17.2H112a20.1 20.1 0 0 0-20 20v8a4 4 0 0 1-8 0v-8a28.1 28.1 0 0 1 28-28h46.3l-17.1-17.2a4 4 0 0 1 5.6-5.6l24 24l.5.6l.2.3l.2.4c0 .1.1.2.1.4a.4.4 0 0 1 .1.3a4.3 4.3 0 0 1 0 1.6a.4.4 0 0 1-.1.3c0 .2-.1.3-.1.4Z"></path></svg>