<svg xmlns="http://www.w3.org/2000/svg" xmlns:xlink="http://www.w3.org/1999/xlink" aria-hidden="true" role="img" class="iconify iconify--ph" width="1em" height="1em" preserveAspectRatio="xMidYMid meet" viewBox="0 0 256 256"><path fill="currentColor" d="M232 212h-21.2L149.6 36.1a11.8 11.8 0 0 0-11.3-8.1h-20.6a11.8 11.8 0 0 0-11.3 8.1L45.2 212H24a4 4 0 0 0 0 8h208a4 4 0 0 0 0-8ZM92.6 100h70.8l19.5 56H73.1Zm21.3-61.3a4.1 4.1 0 0 1 3.8-2.7h20.6a4.1 4.1 0 0 1 3.8 2.7L160.6 92H95.4ZM70.3 164h115.4l16.7 48H53.6Z"></path></svg>