<svg xmlns="http://www.w3.org/2000/svg" xmlns:xlink="http://www.w3.org/1999/xlink" aria-hidden="true" role="img" class="iconify iconify--ph" width="1em" height="1em" preserveAspectRatio="xMidYMid meet" viewBox="0 0 256 256"><path fill="currentColor" d="M242.6 118.1L137.9 13.4a14 14 0 0 0-19.8 0L13.4 118.1a14.1 14.1 0 0 0 0 19.8l104.7 104.7a14 14 0 0 0 19.8 0l104.7-104.7a14.1 14.1 0 0 0 0-19.8Zm-8.5 11.3L129.4 234.1a1.9 1.9 0 0 1-2.8 0L21.9 129.4a1.9 1.9 0 0 1 0-2.8L126.6 21.9a1.9 1.9 0 0 1 2.8 0l104.7 104.7a1.9 1.9 0 0 1 0 2.8Zm-61.1-6.1a2.4 2.4 0 0 1-.8.9l-24 24a5.9 5.9 0 0 1-8.4-8.4l13.7-13.8H112a18.1 18.1 0 0 0-18 18v8a6 6 0 0 1-12 0v-8a30.1 30.1 0 0 1 30-30h41.5l-13.7-13.8a5.9 5.9 0 0 1 8.4-8.4l24 24a2.4 2.4 0 0 1 .8.9a9.3 9.3 0 0 1 .5 1h.1l.3 1a6.1 6.1 0 0 1 0 2.2l-.3 1h-.1a9.3 9.3 0 0 1-.5 1.4Z"></path></svg>