<svg xmlns="http://www.w3.org/2000/svg" xmlns:xlink="http://www.w3.org/1999/xlink" aria-hidden="true" role="img" class="iconify iconify--ph" width="1em" height="1em" preserveAspectRatio="xMidYMid meet" viewBox="0 0 256 256"><path fill="currentColor" d="M238.3 133.7L133.7 238.3a8 8 0 0 1-11.4 0L17.7 133.7a8 8 0 0 1 0-11.4L122.3 17.7a8 8 0 0 1 11.4 0l104.6 104.6a8 8 0 0 1 0 11.4Z" opacity=".2"></path><path fill="currentColor" d="M138.3 101.7a8.1 8.1 0 0 1 11.4-11.4l24 24l.5.5l.2.3l.3.4c0 .1.1.2.2.3l.2.3v.4l.2.3c0 .2.1.3.1.4l.2.4v.3a.8.8 0 0 1 .1.4a.9.9 0 0 1 .1.5a.4.4 0 0 0 .1.3v1.6a.4.4 0 0 0-.1.3a.9.9 0 0 1-.1.5a.8.8 0 0 1-.1.4v.3l-.2.4c0 .1-.1.2-.1.4l-.2.3v.4l-.2.3c-.1.1-.2.2-.2.3l-.3.4l-.2.3l-.5.5l-24 24a8.2 8.2 0 0 1-11.4 0a8.1 8.1 0 0 1 0-11.4l10.4-10.1H112a16 16 0 0 0-16 16v8a8 8 0 0 1-16 0v-8a32.1 32.1 0 0 1 32-32h36.7ZM244 139.3L139.3 244a15.9 15.9 0 0 1-22.6 0L12 139.3a16.1 16.1 0 0 1 0-22.6L116.7 12a15.9 15.9 0 0 1 22.6 0L244 116.7a16.1 16.1 0 0 1 0 22.6ZM232.7 128L128 23.3L23.3 128L128 232.7Z"></path></svg>