<svg xmlns="http://www.w3.org/2000/svg" xmlns:xlink="http://www.w3.org/1999/xlink" aria-hidden="true" role="img" class="iconify iconify--ph" width="1em" height="1em" preserveAspectRatio="xMidYMid meet" viewBox="0 0 256 256"><path fill="currentColor" d="M135.5 104.5a12 12 0 0 1 17-17l24 24a6 6 0 0 1 .8.8l.3.4l.4.5l.3.6l.3.4a1.4 1.4 0 0 1 .2.6l.3.5c.1.2.1.4.2.6s.1.3.2.5s.1.4.1.6s.1.4.2.6a1.3 1.3 0 0 0 .1.6v.5a9.6 9.6 0 0 1 0 2.4v.5a1.3 1.3 0 0 0-.1.6c-.1.2-.1.4-.2.6s-.1.4-.1.6s-.1.4-.2.5s-.1.4-.2.6l-.3.5a1.4 1.4 0 0 1-.2.6l-.3.4l-.3.6l-.4.5l-.3.4l-.8.8l-24 24a12.1 12.1 0 0 1-17 0a12 12 0 0 1 0-17l3.5-3.3h-27a12 12 0 0 0-12 12v4a12 12 0 0 1-24 0v-4a36 36 0 0 1 36-36h27Zm111.3 37.6L142.1 246.8a19.8 19.8 0 0 1-28.2 0L9.2 142.1a19.9 19.9 0 0 1 0-28.2L113.9 9.2a19.8 19.8 0 0 1 28.2 0l104.7 104.7a19.9 19.9 0 0 1 0 28.2ZM227 128l-99-99l-99 99l99 99Z"></path></svg>