<svg xmlns="http://www.w3.org/2000/svg" xmlns:xlink="http://www.w3.org/1999/xlink" aria-hidden="true" role="img" class="iconify iconify--ph" width="1em" height="1em" preserveAspectRatio="xMidYMid meet" viewBox="0 0 256 256"><path fill="currentColor" d="M188 24H68a32.1 32.1 0 0 0-32 32v128a32.1 32.1 0 0 0 32 32h12l-14.4 19.2a8 8 0 0 0 1.6 11.2A7.7 7.7 0 0 0 72 248a8 8 0 0 0 6.4-3.2L100 216h56l21.6 28.8a8 8 0 0 0 6.4 3.2a7.7 7.7 0 0 0 4.8-1.6a8 8 0 0 0 1.6-11.2L176 216h12a32.1 32.1 0 0 0 32-32V56a32.1 32.1 0 0 0-32-32ZM84 184a12 12 0 1 1 12-12a12 12 0 0 1-12 12Zm36-64H52V80h68Zm52 64a12 12 0 1 1 12-12a12 12 0 0 1-12 12Zm32-64h-68V80h68Z"></path></svg>