<svg xmlns="http://www.w3.org/2000/svg" xmlns:xlink="http://www.w3.org/1999/xlink" aria-hidden="true" role="img" class="iconify iconify--ph" width="1em" height="1em" preserveAspectRatio="xMidYMid meet" viewBox="0 0 256 256"><path fill="currentColor" d="M221.9 120.8a2.2 2.2 0 0 0 .1-.8v-.6c-.1-.1-.1-.1-.1-.2v-.2c0-.1-.1-.2-.1-.4l-22.4-82A14 14 0 0 0 185.9 26H70.1a14 14 0 0 0-13.5 10.3l-22.4 82c0 .2-.1.3-.1.4v.2c0 .1 0 .1-.1.2v.6a2.2 2.2 0 0 0 .1.8a1.5 1.5 0 0 0 .1.7l22.4 82.1A14 14 0 0 0 70.1 214H84l-16.8 22.4a6 6 0 1 0 9.6 7.2L99 214h58l22.2 29.6a6 6 0 0 0 9.6-7.2L172 214h13.9a14 14 0 0 0 13.5-10.3l22.4-82.1a1.5 1.5 0 0 0 .1-.7ZM68.2 39.5a1.9 1.9 0 0 1 1.9-1.5h115.8a1.9 1.9 0 0 1 1.9 1.5l20.7 75.8l-80.5 14.6l-80.5-14.6Zm0 161l-19.9-72.9L122 141v61H70.1a1.9 1.9 0 0 1-1.9-1.5Zm119.6 0a1.9 1.9 0 0 1-1.9 1.5H134v-61l73.7-13.4ZM90 88a6 6 0 0 1 6-6h64a6 6 0 0 1 0 12H96a6 6 0 0 1-6-6Z"></path></svg>