<svg xmlns="http://www.w3.org/2000/svg" xmlns:xlink="http://www.w3.org/1999/xlink" aria-hidden="true" role="img" class="iconify iconify--ph" width="1em" height="1em" preserveAspectRatio="xMidYMid meet" viewBox="0 0 256 256"><path fill="currentColor" d="m40 120l88 16l88-16l-22.4 82.1a7.9 7.9 0 0 1-7.7 5.9H70.1a7.9 7.9 0 0 1-7.7-5.9Z" opacity=".2"></path><path fill="currentColor" d="M223.9 121a2.8 2.8 0 0 0 .1-.9v-.2a2.2 2.2 0 0 0-.1-.8v-.5c-.1-.2-.1-.4-.2-.6l-22.4-82a15.9 15.9 0 0 0-15.4-12H70.1a15.9 15.9 0 0 0-15.4 11.8l-22.4 82c-.1.2-.1.4-.2.6v.5a2.2 2.2 0 0 0-.1.8v.2a2.8 2.8 0 0 0 .1.9a2.9 2.9 0 0 0 .2.9l22.4 82.1A15.9 15.9 0 0 0 70.1 216H80l-14.4 19.2a8 8 0 0 0 1.6 11.2A7.7 7.7 0 0 0 72 248a8 8 0 0 0 6.4-3.2L100 216h56l21.6 28.8a8 8 0 0 0 6.4 3.2a7.7 7.7 0 0 0 4.8-1.6a8 8 0 0 0 1.6-11.2L176 216h9.9a15.9 15.9 0 0 0 15.4-11.8l22.4-82.1a2.9 2.9 0 0 0 .2-.9ZM70.1 40h115.8l20.1 73.7l-78 14.2l-78-14.2Zm-19 90.1l68.9 12.6V200H70.1ZM185.9 200H136v-57.3l68.9-12.6Z"></path><path fill="currentColor" d="M96 96h64a8 8 0 0 0 0-16H96a8 8 0 0 0 0 16Z"></path></svg>