<svg xmlns="http://www.w3.org/2000/svg" xmlns:xlink="http://www.w3.org/1999/xlink" aria-hidden="true" role="img" class="iconify iconify--ph" width="1em" height="1em" preserveAspectRatio="xMidYMid meet" viewBox="0 0 256 256"><path fill="currentColor" d="M220 120.2a1.5 1.5 0 0 0-.1-.7v-.3l-22.4-82.4a12.1 12.1 0 0 0-11.6-8.8H70.1a12.1 12.1 0 0 0-11.6 8.8l-22.4 82.1v.3a1.5 1.5 0 0 0-.1.7a1.3 1.3 0 0 0 .1.6v.2l22.4 82.1a12.1 12.1 0 0 0 11.6 9.2H88l-19.2 25.6a4 4 0 0 0 .8 5.6a4.3 4.3 0 0 0 2.4.8a4.2 4.2 0 0 0 3.2-1.6L98 212h60l22.8 30.4a4.2 4.2 0 0 0 3.2 1.6a4.3 4.3 0 0 0 2.4-.8a4 4 0 0 0 .8-5.6L168 212h17.9a12.1 12.1 0 0 0 11.6-8.8l22.4-82.1v-.2a1.3 1.3 0 0 0 .1-.7ZM66.3 38.9a3.9 3.9 0 0 1 3.8-2.9h115.8a3.9 3.9 0 0 1 3.8 2.9l21.3 77.9l-83 15.1l-83-15.1Zm0 162.2l-20.8-76l78.5 14.2V204H70.1a3.9 3.9 0 0 1-3.8-2.9Zm123.4 0a3.9 3.9 0 0 1-3.8 2.9H132v-64.7l78.5-14.2ZM92 88a4 4 0 0 1 4-4h64a4 4 0 0 1 0 8H96a4 4 0 0 1-4-4Z"></path></svg>