<svg xmlns="http://www.w3.org/2000/svg" xmlns:xlink="http://www.w3.org/1999/xlink" aria-hidden="true" role="img" class="iconify iconify--ph" width="1em" height="1em" preserveAspectRatio="xMidYMid meet" viewBox="0 0 256 256"><path fill="currentColor" d="M188 28H68a28.1 28.1 0 0 0-28 28v128a28.1 28.1 0 0 0 28 28h20l-19.2 25.6a4 4 0 0 0 .8 5.6a4.3 4.3 0 0 0 2.4.8a4.2 4.2 0 0 0 3.2-1.6L98 212h60l22.8 30.4a4.2 4.2 0 0 0 3.2 1.6a4.3 4.3 0 0 0 2.4-.8a4 4 0 0 0 .8-5.6L168 212h20a28.1 28.1 0 0 0 28-28V56a28.1 28.1 0 0 0-28-28ZM68 36h120a20.1 20.1 0 0 1 20 20v68H48V56a20.1 20.1 0 0 1 20-20Zm120 168H68a20.1 20.1 0 0 1-20-20v-52h160v52a20.1 20.1 0 0 1-20 20Zm-96-32a8 8 0 1 1-8-8a8 8 0 0 1 8 8Zm88 0a8 8 0 1 1-8-8a8 8 0 0 1 8 8Z"></path></svg>