<svg xmlns="http://www.w3.org/2000/svg" xmlns:xlink="http://www.w3.org/1999/xlink" aria-hidden="true" role="img" class="iconify iconify--ph" width="1em" height="1em" preserveAspectRatio="xMidYMid meet" viewBox="0 0 256 256"><path fill="currentColor" d="M212 56a23.9 23.9 0 0 0-24-24H68a23.9 23.9 0 0 0-24 24v72h168Z" opacity=".2"></path><path fill="currentColor" d="M188 24H68a32.1 32.1 0 0 0-32 32v128a32.1 32.1 0 0 0 32 32h12l-14.4 19.2a8 8 0 0 0 1.6 11.2A7.7 7.7 0 0 0 72 248a8 8 0 0 0 6.4-3.2L100 216h56l21.6 28.8a8 8 0 0 0 6.4 3.2a7.7 7.7 0 0 0 4.8-1.6a8 8 0 0 0 1.6-11.2L176 216h12a32.1 32.1 0 0 0 32-32V56a32.1 32.1 0 0 0-32-32ZM68 40h120a16 16 0 0 1 16 16v64H52V56a16 16 0 0 1 16-16Zm120 160H68a16 16 0 0 1-16-16v-48h152v48a16 16 0 0 1-16 16Z"></path><circle cx="84" cy="172" r="12" fill="currentColor"></circle><circle cx="172" cy="172" r="12" fill="currentColor"></circle></svg>