<svg xmlns="http://www.w3.org/2000/svg" xmlns:xlink="http://www.w3.org/1999/xlink" aria-hidden="true" role="img" class="iconify iconify--ph" width="1em" height="1em" preserveAspectRatio="xMidYMid meet" viewBox="0 0 256 256"><path fill="currentColor" d="M188 20H68a36 36 0 0 0-36 36v128a36 36 0 0 0 36 36h4l-9.6 12.8a12 12 0 0 0 2.4 16.8a12 12 0 0 0 16.8-2.4L102 220h52l20.4 27.2a12 12 0 0 0 16.8 2.4a12 12 0 0 0 2.4-16.8L184 220h4a36 36 0 0 0 36-36V56a36 36 0 0 0-36-36ZM56 116V84h60v32Zm84-32h60v32h-60ZM68 44h120a12 12 0 0 1 12 12v4H56v-4a12 12 0 0 1 12-12Zm120 152H68a12 12 0 0 1-12-12v-44h144v44a12 12 0 0 1-12 12Zm-84-28a16 16 0 1 1-16-16a16 16 0 0 1 16 16Zm80 0a16 16 0 1 1-16-16a16 16 0 0 1 16 16Z"></path></svg>