<svg xmlns="http://www.w3.org/2000/svg" xmlns:xlink="http://www.w3.org/1999/xlink" aria-hidden="true" role="img" class="iconify iconify--ph" width="1em" height="1em" preserveAspectRatio="xMidYMid meet" viewBox="0 0 256 256"><path fill="currentColor" d="M227.9 121.6a7.6 7.6 0 0 0 .1-1.5v-.3a4.9 4.9 0 0 0-.1-1.2v-.4a.4.4 0 0 1-.1-.3a1.9 1.9 0 0 0-.2-.8v-.3l-22.4-82.1A20.1 20.1 0 0 0 185.9 20H70.1a20.1 20.1 0 0 0-19.3 14.7l-22.4 82.1v.3a1.9 1.9 0 0 0-.2.8a.4.4 0 0 1-.1.3v.4a4.9 4.9 0 0 0-.1 1.2v.3a7.6 7.6 0 0 0 .1 1.5l.3 1.3v.2l22.4 82.1A20.1 20.1 0 0 0 70.1 220H72l-9.6 12.8a12 12 0 0 0 2.4 16.8a12 12 0 0 0 16.8-2.4L102 220h52l20.4 27.2a12 12 0 0 0 16.8 2.4a12 12 0 0 0 2.4-16.8L184 220h1.9a20.1 20.1 0 0 0 19.3-14.7l22.4-82.1v-.2l.3-1.3ZM73.2 44h109.6l18.2 66.5l-73 13.3l-73-13.3Zm-16.6 91.2L116 146v50H73.2ZM182.8 196H140v-50l59.4-10.8ZM84 88a12 12 0 0 1 12-12h64a12 12 0 0 1 0 24H96a12 12 0 0 1-12-12Z"></path></svg>