<svg xmlns="http://www.w3.org/2000/svg" xmlns:xlink="http://www.w3.org/1999/xlink" aria-hidden="true" role="img" class="iconify iconify--ph" width="1em" height="1em" preserveAspectRatio="xMidYMid meet" viewBox="0 0 256 256"><path fill="currentColor" d="M168 88a8 8 0 0 1-8 8H96a8 8 0 0 1 0-16h64a8 8 0 0 1 8 8Zm56 32.1a2.8 2.8 0 0 1-.1.9a2.9 2.9 0 0 1-.2.9L201.3 204a15.9 15.9 0 0 1-15.4 12H176l14.4 19.2a8 8 0 0 1-1.6 11.2a7.7 7.7 0 0 1-4.8 1.6a8 8 0 0 1-6.4-3.2L156 216h-56l-21.6 28.8A8 8 0 0 1 72 248a7.7 7.7 0 0 1-4.8-1.6a8 8 0 0 1-1.6-11.2L80 216h-9.9a15.9 15.9 0 0 1-15.4-11.8l-22.4-82.1a2.9 2.9 0 0 1-.2-.9a2.8 2.8 0 0 1-.1-.9v-.2a2.2 2.2 0 0 1 .1-.8v-.5c.1-.2.1-.4.2-.6l22.4-82A15.9 15.9 0 0 1 70.1 24h115.8a15.9 15.9 0 0 1 15.4 11.8l22.4 82c.1.2.1.4.2.6v.5a2.2 2.2 0 0 1 .1.8ZM136 152a8 8 0 0 0-16 0v40a8 8 0 0 0 16 0Zm70-38.3L185.9 40H70.1L50 113.7l78 14.2Z"></path></svg>