<svg xmlns="http://www.w3.org/2000/svg" xmlns:xlink="http://www.w3.org/1999/xlink" aria-hidden="true" role="img" class="iconify iconify--ph" width="1em" height="1em" preserveAspectRatio="xMidYMid meet" viewBox="0 0 256 256"><path fill="currentColor" d="m239.1 212.4l-56-112A7.9 7.9 0 0 0 176 96a8 8 0 0 0-7.2 4.4l-21.7 43.4a87.4 87.4 0 0 1-47.1-16.9A104.1 104.1 0 0 0 127.7 64H152a8 8 0 0 0 0-16H96V32a8 8 0 0 0-16 0v16H24a8 8 0 0 0 0 16h87.6A87.5 87.5 0 0 1 88 116.3a87.1 87.1 0 0 1-19-31a8 8 0 0 0-10.2-4.8a7.9 7.9 0 0 0-4.9 10.2A103.8 103.8 0 0 0 76 126.9A87.1 87.1 0 0 1 24 144a8 8 0 0 0 0 16a103.8 103.8 0 0 0 64-22.1a103.6 103.6 0 0 0 51.4 21.3l-26.6 53.2a8 8 0 1 0 14.3 7.2l13.8-27.6H211l13.8 27.6a8 8 0 0 0 7.2 4.4a9.4 9.4 0 0 0 3.6-.8a8.1 8.1 0 0 0 3.5-10.8ZM148.9 176l27.1-54.1l27 54.1Z"></path></svg>