<svg xmlns="http://www.w3.org/2000/svg" xmlns:xlink="http://www.w3.org/1999/xlink" aria-hidden="true" role="img" class="iconify iconify--ph" width="1em" height="1em" preserveAspectRatio="xMidYMid meet" viewBox="0 0 256 256"><path fill="currentColor" d="m235.6 214.2l-56-112a4 4 0 0 0-7.2 0l-22.8 45.7A91.3 91.3 0 0 1 94 127.3A99.3 99.3 0 0 0 123.9 60H152a4 4 0 0 0 0-8H92V32a4 4 0 0 0-8 0v20H24a4 4 0 0 0 0 8h91.9A91.2 91.2 0 0 1 88 122a91.6 91.6 0 0 1-22.8-35.3a4 4 0 0 0-5.1-2.5a4.1 4.1 0 0 0-2.4 5.1A100 100 0 0 0 82 127.4A91.4 91.4 0 0 1 24 148a4 4 0 0 0 0 8a99.6 99.6 0 0 0 64-23.2a99.6 99.6 0 0 0 57.7 22.9l-29.3 58.5a4 4 0 0 0 7.2 3.6l14.9-29.8h75l14.9 29.8a4 4 0 0 0 3.6 2.2a3.9 3.9 0 0 0 1.8-.4a4 4 0 0 0 1.8-5.4ZM142.5 180l33.5-67.1l33.5 67.1Z"></path></svg>