<svg xmlns="http://www.w3.org/2000/svg" xmlns:xlink="http://www.w3.org/1999/xlink" aria-hidden="true" role="img" class="iconify iconify--ph" width="1em" height="1em" preserveAspectRatio="xMidYMid meet" viewBox="0 0 256 256"><path fill="currentColor" d="M208 36H48a12 12 0 0 0-12 12v160a12 12 0 0 0 12 12h160a12 12 0 0 0 12-12V48a12 12 0 0 0-12-12ZM48 44h160a4 4 0 0 1 4 4v108h-32.7a11.9 11.9 0 0 0-8.5 3.5l-19.3 19.3a3.8 3.8 0 0 1-2.8 1.2h-41.4a3.6 3.6 0 0 1-2.8-1.2l-19.3-19.3a11.9 11.9 0 0 0-8.5-3.5H44V48a4 4 0 0 1 4-4Zm160 168H48a4 4 0 0 1-4-4v-44h32.7a3.8 3.8 0 0 1 2.8 1.2l19.3 19.3a11.9 11.9 0 0 0 8.5 3.5h41.4a11.9 11.9 0 0 0 8.5-3.5l19.3-19.3a3.6 3.6 0 0 1 2.8-1.2H212v44a4 4 0 0 1-4 4Z"></path></svg>