<svg xmlns="http://www.w3.org/2000/svg" xmlns:xlink="http://www.w3.org/1999/xlink" aria-hidden="true" role="img" class="iconify iconify--ph" width="1em" height="1em" preserveAspectRatio="xMidYMid meet" viewBox="0 0 256 256"><path fill="currentColor" d="M208 32H48a16 16 0 0 0-16 16v160a16 16 0 0 0 16 16h160a16 16 0 0 0 16-16V48a16 16 0 0 0-16-16Zm0 16v104h-28.7a15.9 15.9 0 0 0-11.3 4.7L148.7 176h-41.4L88 156.7a15.9 15.9 0 0 0-11.3-4.7H48V48Zm0 160H48v-40h28.7L96 187.3a15.9 15.9 0 0 0 11.3 4.7h41.4a15.9 15.9 0 0 0 11.3-4.7l19.3-19.3H208v40Z"></path></svg>