<svg xmlns="http://www.w3.org/2000/svg" xmlns:xlink="http://www.w3.org/1999/xlink" aria-hidden="true" role="img" class="iconify iconify--ph" width="1em" height="1em" preserveAspectRatio="xMidYMid meet" viewBox="0 0 256 256"><path fill="currentColor" d="M208 28H48a20.1 20.1 0 0 0-20 20v160a20.1 20.1 0 0 0 20 20h160a20.1 20.1 0 0 0 20-20V48a20.1 20.1 0 0 0-20-20Zm-4 24v92h-24.7a19.7 19.7 0 0 0-14.1 5.9L147 168h-38l-18.2-18.1a19.8 19.8 0 0 0-14.1-5.9H52V52ZM52 204v-36h23l18.2 18.1a19.7 19.7 0 0 0 14.1 5.9h41.4a19.8 19.8 0 0 0 14.1-5.9L181 168h23v36Z"></path></svg>