<svg xmlns="http://www.w3.org/2000/svg" xmlns:xlink="http://www.w3.org/1999/xlink" aria-hidden="true" role="img" class="iconify iconify--ph" width="1em" height="1em" preserveAspectRatio="xMidYMid meet" viewBox="0 0 256 256"><path fill="currentColor" d="M168 116h48a20.1 20.1 0 0 0 20-20V48a20.1 20.1 0 0 0-20-20h-48a20.1 20.1 0 0 0-20 20v12h-4a36 36 0 0 0-36 36v20H92v-8a20.1 20.1 0 0 0-20-20H32a20.1 20.1 0 0 0-20 20v40a20.1 20.1 0 0 0 20 20h40a20.1 20.1 0 0 0 20-20v-8h16v20a36 36 0 0 0 36 36h4v12a20.1 20.1 0 0 0 20 20h48a20.1 20.1 0 0 0 20-20v-48a20.1 20.1 0 0 0-20-20h-48a20.1 20.1 0 0 0-20 20v12h-4a12 12 0 0 1-12-12V96a12 12 0 0 1 12-12h4v12a20.1 20.1 0 0 0 20 20ZM68 144H36v-32h32Zm104 20h40v40h-40Zm0-112h40v40h-40Z"></path></svg>