<svg xmlns="http://www.w3.org/2000/svg" xmlns:xlink="http://www.w3.org/1999/xlink" aria-hidden="true" role="img" class="iconify iconify--ph" width="1em" height="1em" preserveAspectRatio="xMidYMid meet" viewBox="0 0 256 256"><path fill="currentColor" d="M201.2 59.6a80.1 80.1 0 0 0-146.4 0A76.4 76.4 0 0 0 12 127.8c-.1 41 33.1 75.1 74 76.2a77.8 77.8 0 0 0 30-5.3V232a12 12 0 0 0 24 0v-33.3a75.7 75.7 0 0 0 28 5.3h2c40.9-1.1 74.1-35.2 74-76.2a76.4 76.4 0 0 0-42.8-68.2ZM169.4 180a51.7 51.7 0 0 1-29.4-8.2v-36.4l41.4-20.7a12 12 0 0 0-10.8-21.4L140 108.6V88a12 12 0 0 0-24 0v44.6l-30.6-15.3a12 12 0 0 0-10.8 21.4l41.4 20.7v12.4a52 52 0 1 1-49.7-91a19.8 19.8 0 0 0 10-10.5a56.1 56.1 0 0 1 103.4 0a19.8 19.8 0 0 0 10 10.5a52 52 0 0 1-20.3 99.2Z"></path></svg>