<svg xmlns="http://www.w3.org/2000/svg" xmlns:xlink="http://www.w3.org/1999/xlink" aria-hidden="true" role="img" class="iconify iconify--ph" width="1em" height="1em" preserveAspectRatio="xMidYMid meet" viewBox="0 0 256 256"><path fill="currentColor" d="M196.4 66.2a3.8 3.8 0 0 1-2-2.1a72 72 0 0 0-132.8 0a3.8 3.8 0 0 1-2 2.1A68.3 68.3 0 0 0 20 127.8c-.1 36.7 29.6 67.3 66.2 68.2a67.7 67.7 0 0 0 37.8-10.3V232a4 4 0 0 0 8 0v-46.3a68.2 68.2 0 0 0 36 10.3h1.8c36.6-.9 66.3-31.5 66.2-68.2a68.3 68.3 0 0 0-39.6-61.6ZM169.6 188a59.9 59.9 0 0 1-34.9-10.1a11.1 11.1 0 0 0-2.7-1.3v-46.1l45.8-22.9a4 4 0 1 0-3.6-7.2L132 121.5V88a4 4 0 0 0-8 0v57.5l-42.2-21.1a4 4 0 1 0-3.6 7.2l45.8 22.9v22.1a11.1 11.1 0 0 0-2.7 1.3A59.9 59.9 0 0 1 86.4 188c-32.3-.8-58.5-27.8-58.4-60.2a60.3 60.3 0 0 1 34.9-54.3a12.1 12.1 0 0 0 6.1-6.3a64 64 0 0 1 118 0a12.1 12.1 0 0 0 6.1 6.3a60.3 60.3 0 0 1 34.9 54.3c.1 32.4-26.1 59.4-58.4 60.2Z"></path></svg>