<svg xmlns="http://www.w3.org/2000/svg" xmlns:xlink="http://www.w3.org/1999/xlink" aria-hidden="true" role="img" class="iconify iconify--ph" width="1em" height="1em" preserveAspectRatio="xMidYMid meet" viewBox="0 0 256 256"><path fill="currentColor" d="M128 187.9a91.6 91.6 0 0 0 8 4.6V232a8 8 0 0 1-16 0v-39.5a91.6 91.6 0 0 0 8-4.6Zm70.1-125.3a76 76 0 0 0-140.2 0A72.3 72.3 0 0 0 16 127.8c-.1 38.8 31.4 71.2 70.1 72.2a71.9 71.9 0 0 0 33.9-7.5v-35.6l-43.6-21.7a8 8 0 1 1 7.2-14.4l36.4 18.3V88a8 8 0 0 1 16 0v27.1l36.4-18.3a8 8 0 0 1 7.2 14.4L136 132.9v59.6a72 72 0 0 0 32 7.5h1.9c38.7-1 70.2-33.4 70.1-72.2a72.3 72.3 0 0 0-41.9-65.2Z"></path></svg>