<svg xmlns="http://www.w3.org/2000/svg" xmlns:xlink="http://www.w3.org/1999/xlink" aria-hidden="true" role="img" class="iconify iconify--ph" width="1em" height="1em" preserveAspectRatio="xMidYMid meet" viewBox="0 0 256 256"><path fill="currentColor" d="m227.2 189.5l-51-65.5H208a4.2 4.2 0 0 0 3.6-2.2a4 4 0 0 0-.4-4.2l-80-104a4 4 0 0 0-6.4 0l-80 104a4 4 0 0 0-.4 4.2A4.2 4.2 0 0 0 48 124h31.8l-51 65.5A4 4 0 0 0 32 196h92v44a4 4 0 0 0 8 0v-44h92a4 4 0 0 0 3.2-6.5Zm-187-1.5l51-65.5A4 4 0 0 0 88 116H56.1L128 22.6l71.9 93.4H168a4 4 0 0 0-3.2 6.5l51 65.5Z"></path></svg>