<svg xmlns="http://www.w3.org/2000/svg" xmlns:xlink="http://www.w3.org/1999/xlink" aria-hidden="true" role="img" class="iconify iconify--ph" width="1em" height="1em" preserveAspectRatio="xMidYMid meet" viewBox="0 0 256 256"><path fill="currentColor" d="M168 108h48a12 12 0 0 0 12-12V48a12 12 0 0 0-12-12h-48a12 12 0 0 0-12 12v20h-12a28.1 28.1 0 0 0-28 28v28H84v-16a12 12 0 0 0-12-12H32a12 12 0 0 0-12 12v40a12 12 0 0 0 12 12h40a12 12 0 0 0 12-12v-16h32v28a28.1 28.1 0 0 0 28 28h12v20a12 12 0 0 0 12 12h48a12 12 0 0 0 12-12v-48a12 12 0 0 0-12-12h-48a12 12 0 0 0-12 12v20h-12a20.1 20.1 0 0 1-20-20V96a20.1 20.1 0 0 1 20-20h12v20a12 12 0 0 0 12 12Zm-92 40a4 4 0 0 1-4 4H32a4 4 0 0 1-4-4v-40a4 4 0 0 1 4-4h40a4 4 0 0 1 4 4Zm88 12a4 4 0 0 1 4-4h48a4 4 0 0 1 4 4v48a4 4 0 0 1-4 4h-48a4 4 0 0 1-4-4Zm0-112a4 4 0 0 1 4-4h48a4 4 0 0 1 4 4v48a4 4 0 0 1-4 4h-48a4 4 0 0 1-4-4Z"></path></svg>