<svg xmlns="http://www.w3.org/2000/svg" xmlns:xlink="http://www.w3.org/1999/xlink" aria-hidden="true" role="img" class="iconify iconify--ph" width="1em" height="1em" preserveAspectRatio="xMidYMid meet" viewBox="0 0 256 256"><path fill="currentColor" d="M80 108v40a8 8 0 0 1-8 8H32a8 8 0 0 1-8-8v-40a8 8 0 0 1 8-8h40a8 8 0 0 1 8 8Zm136-68h-48a8 8 0 0 0-8 8v48a8 8 0 0 0 8 8h48a8 8 0 0 0 8-8V48a8 8 0 0 0-8-8Zm0 112h-48a8 8 0 0 0-8 8v48a8 8 0 0 0 8 8h48a8 8 0 0 0 8-8v-48a8 8 0 0 0-8-8Z" opacity=".2"></path><path fill="currentColor" d="M168 112h48a16 16 0 0 0 16-16V48a16 16 0 0 0-16-16h-48a16 16 0 0 0-16 16v16h-8a32.1 32.1 0 0 0-32 32v24H88v-12a16 16 0 0 0-16-16H32a16 16 0 0 0-16 16v40a16 16 0 0 0 16 16h40a16 16 0 0 0 16-16v-12h24v24a32.1 32.1 0 0 0 32 32h8v16a16 16 0 0 0 16 16h48a16 16 0 0 0 16-16v-48a16 16 0 0 0-16-16h-48a16 16 0 0 0-16 16v16h-8a16 16 0 0 1-16-16V96a16 16 0 0 1 16-16h8v16a16 16 0 0 0 16 16Zm-96 36H32v-40h40v40Zm96 12h48v48h-48Zm0-112h48v48h-48Z"></path></svg>