<svg xmlns="http://www.w3.org/2000/svg" xmlns:xlink="http://www.w3.org/1999/xlink" aria-hidden="true" role="img" class="iconify iconify--ph" width="1em" height="1em" preserveAspectRatio="xMidYMid meet" viewBox="0 0 256 256"><path fill="currentColor" d="m233.5 184.6l-41-52.6H208a12.1 12.1 0 0 0 10.8-6.7a12 12 0 0 0-1.3-12.6l-80-104a12 12 0 0 0-19 0l-80 104a12 12 0 0 0-1.3 12.6A12.1 12.1 0 0 0 48 132h15.5l-41 52.6a12.2 12.2 0 0 0-1.3 12.7A12 12 0 0 0 32 204h84v36a12 12 0 0 0 24 0v-36h84a12 12 0 0 0 10.8-6.7a12.2 12.2 0 0 0-1.3-12.7Zm-177-4.6l41-52.6a12.2 12.2 0 0 0 1.3-12.7A12 12 0 0 0 88 108H72.4L128 35.7l55.6 72.3H168a12 12 0 0 0-10.8 6.7a12.2 12.2 0 0 0 1.3 12.7l41 52.6Z"></path></svg>