<svg xmlns="http://www.w3.org/2000/svg" xmlns:xlink="http://www.w3.org/1999/xlink" aria-hidden="true" role="img" class="iconify iconify--ph" width="1em" height="1em" preserveAspectRatio="xMidYMid meet" viewBox="0 0 256 256"><path fill="currentColor" d="M228.7 188.3L180.3 126H208a6 6 0 0 0 5.4-3.3a6.4 6.4 0 0 0-.6-6.4l-80-104a6.2 6.2 0 0 0-9.6 0l-80 104a6.4 6.4 0 0 0-.6 6.4A6 6 0 0 0 48 126h27.7l-48.4 62.3A6 6 0 0 0 32 198h90v42a6 6 0 0 0 12 0v-42h90a6 6 0 0 0 4.7-9.7ZM44.3 186l48.4-62.3A6 6 0 0 0 88 114H60.2L128 25.8l67.8 88.2H168a6 6 0 0 0-4.7 9.7l48.4 62.3Z"></path></svg>