<svg xmlns="http://www.w3.org/2000/svg" xmlns:xlink="http://www.w3.org/1999/xlink" aria-hidden="true" role="img" class="iconify iconify--ph" width="1em" height="1em" preserveAspectRatio="xMidYMid meet" viewBox="0 0 256 256"><path fill="currentColor" d="M168 110h48a14 14 0 0 0 14-14V48a14 14 0 0 0-14-14h-48a14 14 0 0 0-14 14v18h-10a30.1 30.1 0 0 0-30 30v26H86v-14a14 14 0 0 0-14-14H32a14 14 0 0 0-14 14v40a14 14 0 0 0 14 14h40a14 14 0 0 0 14-14v-14h28v26a30.1 30.1 0 0 0 30 30h10v18a14 14 0 0 0 14 14h48a14 14 0 0 0 14-14v-48a14 14 0 0 0-14-14h-48a14 14 0 0 0-14 14v18h-10a18.1 18.1 0 0 1-18-18V96a18.1 18.1 0 0 1 18-18h10v18a14 14 0 0 0 14 14Zm-94 38a2 2 0 0 1-2 2H32a2 2 0 0 1-2-2v-40a2 2 0 0 1 2-2h40a2 2 0 0 1 2 2Zm92 12a2 2 0 0 1 2-2h48a2 2 0 0 1 2 2v48a2 2 0 0 1-2 2h-48a2 2 0 0 1-2-2Zm0-112a2 2 0 0 1 2-2h48a2 2 0 0 1 2 2v48a2 2 0 0 1-2 2h-48a2 2 0 0 1-2-2Z"></path></svg>