<svg xmlns="http://www.w3.org/2000/svg" xmlns:xlink="http://www.w3.org/1999/xlink" aria-hidden="true" role="img" class="iconify iconify--ph" width="1em" height="1em" preserveAspectRatio="xMidYMid meet" viewBox="0 0 256 256"><path fill="currentColor" d="M156 92V80h-12a16 16 0 0 0-16 16v64a16 16 0 0 0 16 16h12v-12a16 16 0 0 1 16-16h40a16 16 0 0 1 16 16v40a16 16 0 0 1-16 16h-40a16 16 0 0 1-16-16v-12h-12a32.1 32.1 0 0 1-32-32v-24H84v8a16 16 0 0 1-16 16H36a16 16 0 0 1-16-16v-32a16 16 0 0 1 16-16h32a16 16 0 0 1 16 16v8h28V96a32.1 32.1 0 0 1 32-32h12V52a16 16 0 0 1 16-16h40a16 16 0 0 1 16 16v40a16 16 0 0 1-16 16h-40a16 16 0 0 1-16-16Z"></path></svg>