<svg xmlns="http://www.w3.org/2000/svg" xmlns:xlink="http://www.w3.org/1999/xlink" aria-hidden="true" role="img" class="iconify iconify--ph" width="1em" height="1em" preserveAspectRatio="xMidYMid meet" viewBox="0 0 256 256"><path fill="currentColor" d="m32 192l56-72H48l80-104l80 104h-40l56 72Z" opacity=".2"></path><path fill="currentColor" d="M230.3 187.1L184.4 128H208a8 8 0 0 0 6.3-12.9l-80-104a8 8 0 0 0-12.6 0l-80 104A8 8 0 0 0 48 128h23.6l-45.9 59.1A8 8 0 0 0 32 200h88v40a8 8 0 0 0 16 0v-40h88a8 8 0 0 0 6.3-12.9ZM48.4 184l45.9-59.1A8 8 0 0 0 88 112H64.2L128 29.1l63.8 82.9H168a8 8 0 0 0-6.3 12.9l45.9 59.1Z"></path></svg>