<svg xmlns="http://www.w3.org/2000/svg" xmlns:xlink="http://www.w3.org/1999/xlink" aria-hidden="true" role="img" class="iconify iconify--ph" width="1em" height="1em" preserveAspectRatio="xMidYMid meet" viewBox="0 0 256 256"><path fill="currentColor" d="M240 136v64a8 8 0 0 1-8 8h-64a8.1 8.1 0 0 1-7.4-4.9a8.4 8.4 0 0 1 1.7-8.8l26.4-26.3l-52.7-52.7l-34.3 34.4a8.1 8.1 0 0 1-11.4 0l-72-72a8.1 8.1 0 0 1 11.4-11.4L96 132.7l34.3-34.4a8.1 8.1 0 0 1 11.4 0l58.3 58.4l26.3-26.4a8.4 8.4 0 0 1 8.8-1.7a8 8 0 0 1 4.9 7.4Z"></path></svg>