<svg xmlns="http://www.w3.org/2000/svg" xmlns:xlink="http://www.w3.org/1999/xlink" aria-hidden="true" role="img" class="iconify iconify--ph" width="1em" height="1em" preserveAspectRatio="xMidYMid meet" viewBox="0 0 256 256"><path fill="currentColor" d="M240 56v64a8 8 0 0 1-4.9 7.4a8.5 8.5 0 0 1-3.1.6a8.3 8.3 0 0 1-5.7-2.3L200 99.3l-58.3 58.4a8.1 8.1 0 0 1-11.4 0L96 123.3l-66.3 66.4A8.3 8.3 0 0 1 24 192a8.5 8.5 0 0 1-5.7-2.3a8.1 8.1 0 0 1 0-11.4l72-72a8.1 8.1 0 0 1 11.4 0l34.3 34.4L188.7 88l-26.4-26.3a8.4 8.4 0 0 1-1.7-8.8A8.1 8.1 0 0 1 168 48h64a8 8 0 0 1 8 8Z"></path></svg>