<svg xmlns="http://www.w3.org/2000/svg" xmlns:xlink="http://www.w3.org/1999/xlink" aria-hidden="true" role="img" class="iconify iconify--ph" width="1em" height="1em" preserveAspectRatio="xMidYMid meet" viewBox="0 0 256 256"><path fill="currentColor" d="M248.1 119.9v-.2a1.7 1.7 0 0 0-.1-.7v-.3c0-.2-.1-.4-.1-.6v-.2c-.1-.3-.1-.5-.2-.8h-.1l-14-35A15.9 15.9 0 0 0 218.7 72h-34.6v-8a8 8 0 0 0-8-8h-152a16 16 0 0 0-16 16v112a16 16 0 0 0 16 16h13a32 32 0 0 0 62 0h58a32 32 0 0 0 62 0h13a16 16 0 0 0 16-16v-64Zm-64-31.9h34.6l9.6 24h-44.2Zm-160-16h144v64h-144Zm44 136a16 16 0 1 1 16-16a16 16 0 0 1-16 16Zm120 0a16 16 0 1 1 16-16a16 16 0 0 1-16 16Z"></path></svg>