<svg xmlns="http://www.w3.org/2000/svg" xmlns:xlink="http://www.w3.org/1999/xlink" aria-hidden="true" role="img" class="iconify iconify--ph" width="1em" height="1em" preserveAspectRatio="xMidYMid meet" viewBox="0 0 256 256"><path fill="currentColor" d="M252.1 119.9v-.4a3.8 3.8 0 0 0-.1-1v-.4a2.9 2.9 0 0 1-.2-.9a.8.8 0 0 1-.1-.4c-.1-.4-.3-.7-.4-1.1v-.2h-.1l-13.9-34.9A19.9 19.9 0 0 0 218.7 68h-30.6v-4a12 12 0 0 0-12-12h-152a20.1 20.1 0 0 0-20 20v112a20.1 20.1 0 0 0 20 20h18.1a35.9 35.9 0 0 0 67.8 0h36.2a35.9 35.9 0 0 0 67.8 0h18.1a20.1 20.1 0 0 0 20-20v-64ZM216 92l6.4 16h-34.3V92Zm-51.9-16v56h-136V76Zm-136 80h136v3.8a36 36 0 0 0-17.9 20.2H110a35.9 35.9 0 0 0-67.8 0H28.1Zm48 48a12 12 0 1 1 12-12a12 12 0 0 1-12 12Zm104 0a12 12 0 1 1 12-12a12 12 0 0 1-12 12Zm48-24H214a36 36 0 0 0-25.9-23.1V132h40Z"></path></svg>