<svg xmlns="http://www.w3.org/2000/svg" xmlns:xlink="http://www.w3.org/1999/xlink" aria-hidden="true" role="img" class="iconify iconify--ph" width="1em" height="1em" preserveAspectRatio="xMidYMid meet" viewBox="0 0 256 256"><path fill="currentColor" d="M244.1 120a1.5 1.5 0 0 0-.1-.7v-.2a1.4 1.4 0 0 0-.2-.6l-14-34.9a12 12 0 0 0-11.1-7.6h-38.6V64a4 4 0 0 0-4-4h-152a12 12 0 0 0-12 12v112a12 12 0 0 0 12 12h16.3a28 28 0 0 0 55.4 0h64.6a28 28 0 0 0 55.4 0h16.3a12 12 0 0 0 12-12v-64Zm-25.4-36a4 4 0 0 1 3.7 2.5l11.8 29.5h-54.1V84ZM24.1 68h148v72h-152V72a4 4 0 0 1 4-4Zm-4 116v-36h152v21a28.2 28.2 0 0 0-11.7 19H95.8a28 28 0 0 0-55.4 0H24.1a4 4 0 0 1-4-4Zm48 28a20 20 0 1 1 20-20a20.1 20.1 0 0 1-20 20Zm120 0a20 20 0 1 1 20-20a20.1 20.1 0 0 1-20 20Zm48-28a4 4 0 0 1-4 4h-16.3a27.9 27.9 0 0 0-27.7-24a26.3 26.3 0 0 0-8 1.2V124h56Z"></path></svg>