<svg xmlns="http://www.w3.org/2000/svg" xmlns:xlink="http://www.w3.org/1999/xlink" aria-hidden="true" role="img" class="iconify iconify--ph" width="1em" height="1em" preserveAspectRatio="xMidYMid meet" viewBox="0 0 256 256"><path fill="currentColor" d="M246.1 120v-.9a.7.7 0 0 0-.1-.5v-.2c-.1-.2-.1-.4-.2-.5h-.1l-14-35.1a13.9 13.9 0 0 0-13-8.8h-36.6V64a6 6 0 0 0-6-6h-152a14 14 0 0 0-14 14v112a14 14 0 0 0 14 14h14.6a30 30 0 0 0 58.8 0h61.2a30 30 0 0 0 58.8 0h14.6a14 14 0 0 0 14-14v-64Zm-27.4-34a2.2 2.2 0 0 1 1.9 1.3l10.6 26.7h-49.1V86ZM24.1 70h146v68h-148V72a2 2 0 0 1 2-2Zm-2 114v-34h148v18a30.3 30.3 0 0 0-11.4 18H97.5a30 30 0 0 0-58.8 0H24.1a2 2 0 0 1-2-2Zm46 26a18 18 0 1 1 18-18a18.1 18.1 0 0 1-18 18Zm120 0a18 18 0 1 1 18-18a18.1 18.1 0 0 1-18 18Zm46-26a2 2 0 0 1-2 2h-14.6a30 30 0 0 0-29.4-24a30.5 30.5 0 0 0-6 .6V126h52Z"></path></svg>