<svg xmlns="http://www.w3.org/2000/svg" xmlns:xlink="http://www.w3.org/1999/xlink" aria-hidden="true" role="img" class="iconify iconify--ph" width="1em" height="1em" preserveAspectRatio="xMidYMid meet" viewBox="0 0 256 256"><path fill="currentColor" d="M72 248a6.8 6.8 0 0 1-3.4-.8A7.9 7.9 0 0 1 64 240v-32H48a16 16 0 0 1-16-16V48a16 16 0 0 1 16-16h160a16 16 0 0 1 16 16v108.3a15.7 15.7 0 0 1-5.8 12.2l-42.9 35.8a15.8 15.8 0 0 1-10.2 3.7h-42.2l-45.8 38.1A7.5 7.5 0 0 1 72 248ZM48 48v144h24a8 8 0 0 1 8 8v22.9l32.7-27.2a15.8 15.8 0 0 1 10.2-3.7h42.2l42.9-35.7V48Z"></path><path fill="currentColor" d="M168 144a8 8 0 0 1-8-8V88a8 8 0 0 1 16 0v48a8 8 0 0 1-8 8Zm-48 0a8 8 0 0 1-8-8V88a8 8 0 0 1 16 0v48a8 8 0 0 1-8 8Z"></path></svg>