<svg xmlns="http://www.w3.org/2000/svg" xmlns:xlink="http://www.w3.org/1999/xlink" aria-hidden="true" role="img" class="iconify iconify--ph" width="1em" height="1em" preserveAspectRatio="xMidYMid meet" viewBox="0 0 256 256"><path fill="currentColor" d="M165.1 200h-42.2a7.8 7.8 0 0 0-5.1 1.9L72 240v-40H48a8 8 0 0 1-8-8V48a8 8 0 0 1 8-8h160a8 8 0 0 1 8 8v108.3a8.1 8.1 0 0 1-2.9 6.1l-42.9 35.7a7.8 7.8 0 0 1-5.1 1.9Z" opacity=".2"></path><path fill="currentColor" d="M208 32H48a16 16 0 0 0-16 16v144a16 16 0 0 0 16 16h16v32a7.9 7.9 0 0 0 4.6 7.2a6.8 6.8 0 0 0 3.4.8a7.5 7.5 0 0 0 5.1-1.9l45.8-38.1h42.2a15.8 15.8 0 0 0 10.2-3.7l42.9-35.8a15.7 15.7 0 0 0 5.8-12.2V48a16 16 0 0 0-16-16Zm0 124.3L165.1 192h-42.2a15.8 15.8 0 0 0-10.2 3.7L80 222.9V200a8 8 0 0 0-8-8H48V48h160ZM160 136V88a8 8 0 0 1 16 0v48a8 8 0 0 1-16 0Zm-48 0V88a8 8 0 0 1 16 0v48a8 8 0 0 1-16 0Z"></path></svg>