<svg xmlns="http://www.w3.org/2000/svg" xmlns:xlink="http://www.w3.org/1999/xlink" aria-hidden="true" role="img" class="iconify iconify--ph" width="1em" height="1em" preserveAspectRatio="xMidYMid meet" viewBox="0 0 256 256"><path fill="currentColor" d="M208 32H48a16 16 0 0 0-16 16v144a16 16 0 0 0 16 16h16v32a7.9 7.9 0 0 0 4.6 7.2a6.8 6.8 0 0 0 3.4.8a7.5 7.5 0 0 0 5.1-1.9l45.8-38.1h42.2a15.8 15.8 0 0 0 10.2-3.7l42.9-35.8a15.7 15.7 0 0 0 5.8-12.2V48a16 16 0 0 0-16-16Zm-80 104a8 8 0 0 1-16 0V88a8 8 0 0 1 16 0Zm48 0a8 8 0 0 1-16 0V88a8 8 0 0 1 16 0Z"></path></svg>