<svg xmlns="http://www.w3.org/2000/svg" xmlns:xlink="http://www.w3.org/1999/xlink" aria-hidden="true" role="img" class="iconify iconify--ph" width="1em" height="1em" preserveAspectRatio="xMidYMid meet" viewBox="0 0 256 256"><path fill="currentColor" d="M72 244a3.3 3.3 0 0 1-1.7-.4A3.9 3.9 0 0 1 68 240v-36H48a12 12 0 0 1-12-12V48a12 12 0 0 1 12-12h160a12 12 0 0 1 12 12v108.3a12.2 12.2 0 0 1-4.3 9.2l-42.9 35.7a12.2 12.2 0 0 1-7.7 2.8h-42.2a4.3 4.3 0 0 0-2.6.9l-45.7 38.2a4.3 4.3 0 0 1-2.6.9ZM48 44a4 4 0 0 0-4 4v144a4 4 0 0 0 4 4h24a4 4 0 0 1 4 4v31.5l39.2-32.7a12.2 12.2 0 0 1 7.7-2.8h42.2a4.3 4.3 0 0 0 2.6-.9l42.9-35.8a3.9 3.9 0 0 0 1.4-3V48a4 4 0 0 0-4-4Z"></path><path fill="currentColor" d="M168 140a4 4 0 0 1-4-4V88a4 4 0 0 1 8 0v48a4 4 0 0 1-4 4Zm-48 0a4 4 0 0 1-4-4V88a4 4 0 0 1 8 0v48a4 4 0 0 1-4 4Z"></path></svg>