<svg xmlns="http://www.w3.org/2000/svg" xmlns:xlink="http://www.w3.org/1999/xlink" aria-hidden="true" role="img" class="iconify iconify--ph" width="1em" height="1em" preserveAspectRatio="xMidYMid meet" viewBox="0 0 256 256"><path fill="currentColor" d="M72 246a5.4 5.4 0 0 1-2.5-.6A5.9 5.9 0 0 1 66 240v-34H48a14 14 0 0 1-14-14V48a14 14 0 0 1 14-14h160a14 14 0 0 1 14 14v108.3a14 14 0 0 1-5 10.7l-42.9 35.8a14.5 14.5 0 0 1-9 3.2h-42.2a2.1 2.1 0 0 0-1.3.5l-45.8 38.1A5.9 5.9 0 0 1 72 246ZM48 46a2 2 0 0 0-2 2v144a2 2 0 0 0 2 2h24a6 6 0 0 1 6 6v27.2l35.9-30a14.5 14.5 0 0 1 9-3.2h42.2a2.1 2.1 0 0 0 1.3-.5l42.9-35.7a2.3 2.3 0 0 0 .7-1.5V48a2 2 0 0 0-2-2Z"></path><path fill="currentColor" d="M168 142a6 6 0 0 1-6-6V88a6 6 0 0 1 12 0v48a6 6 0 0 1-6 6Zm-48 0a6 6 0 0 1-6-6V88a6 6 0 0 1 12 0v48a6 6 0 0 1-6 6Z"></path></svg>