<svg xmlns="http://www.w3.org/2000/svg" xmlns:xlink="http://www.w3.org/1999/xlink" aria-hidden="true" role="img" class="iconify iconify--ph" width="1em" height="1em" preserveAspectRatio="xMidYMid meet" viewBox="0 0 256 256"><path fill="currentColor" d="M239.6 126.6A112.1 112.1 0 0 0 128 24A112.1 112.1 0 0 0 16.4 126.6a15.7 15.7 0 0 0 4.2 12.2a15.9 15.9 0 0 0 11.7 5.2H120v56a32 32 0 0 0 64 0a8 8 0 0 0-16 0a16 16 0 0 1-32 0v-56h87.7a15.9 15.9 0 0 0 11.7-5.2a15.7 15.7 0 0 0 4.2-12.2ZM80.2 128H32.3a95.9 95.9 0 0 1 75.9-85.9c-11.7 16-26.4 44-28 85.9Zm95.6 0c-1.6-41.9-16.3-69.9-28-85.9a95.9 95.9 0 0 1 75.9 85.9Z"></path></svg>