<svg xmlns="http://www.w3.org/2000/svg" xmlns:xlink="http://www.w3.org/1999/xlink" aria-hidden="true" role="img" class="iconify iconify--ph" width="1em" height="1em" preserveAspectRatio="xMidYMid meet" viewBox="0 0 256 256"><path fill="currentColor" d="M235.4 138.8a15.9 15.9 0 0 1-11.7 5.2H136v56a16 16 0 0 0 32 0a8 8 0 0 1 16 0a32 32 0 0 1-64 0v-56H32.3a15.9 15.9 0 0 1-11.7-5.2a15.7 15.7 0 0 1-4.2-12.2A111.9 111.9 0 0 1 204 53.8a110.9 110.9 0 0 1 35.6 72.8a15.7 15.7 0 0 1-4.2 12.2Z"></path></svg>