<svg xmlns="http://www.w3.org/2000/svg" xmlns:xlink="http://www.w3.org/1999/xlink" aria-hidden="true" role="img" class="iconify iconify--ph" width="1em" height="1em" preserveAspectRatio="xMidYMid meet" viewBox="0 0 256 256"><path fill="currentColor" d="M243.6 126.3a116 116 0 0 0-231.2 0a19.7 19.7 0 0 0 5.2 15.2a20.2 20.2 0 0 0 14.7 6.5H116v52a36 36 0 0 0 72 0a12 12 0 0 0-24 0a12 12 0 0 1-24 0v-52h83.7a20.2 20.2 0 0 0 14.7-6.5a19.7 19.7 0 0 0 5.2-15.2ZM100.4 124c2.7-39.3 18.1-63.5 27.6-74.9c9.5 11.4 24.9 35.6 27.6 74.9ZM65.5 68.4A92.7 92.7 0 0 1 99 48.7C88.8 65.3 78.4 90.1 76.4 124H36.8a91.7 91.7 0 0 1 28.7-55.6ZM179.6 124c-2-33.9-12.4-58.7-22.6-75.3a92.7 92.7 0 0 1 33.5 19.7a91.7 91.7 0 0 1 28.7 55.6Z"></path></svg>