<svg xmlns="http://www.w3.org/2000/svg" xmlns:xlink="http://www.w3.org/1999/xlink" aria-hidden="true" role="img" class="iconify iconify--ph" width="1em" height="1em" preserveAspectRatio="xMidYMid meet" viewBox="0 0 256 256"><path fill="currentColor" d="M243.6 126.3a116 116 0 0 0-231.2 0a19.7 19.7 0 0 0 5.2 15.2a20.2 20.2 0 0 0 14.7 6.5H116v52a36 36 0 0 0 72 0a12 12 0 0 0-24 0a12 12 0 0 1-24 0v-52h83.7a20.2 20.2 0 0 0 14.7-6.5a19.7 19.7 0 0 0 5.2-15.2ZM36.8 124a92 92 0 0 1 182.4 0Z"></path></svg>