<svg xmlns="http://www.w3.org/2000/svg" xmlns:xlink="http://www.w3.org/1999/xlink" aria-hidden="true" role="img" class="iconify iconify--ph" width="1em" height="1em" preserveAspectRatio="xMidYMid meet" viewBox="0 0 256 256"><path fill="currentColor" d="M235.6 127a108 108 0 0 0-215.2 0a11.7 11.7 0 0 0 3.1 9.1a12 12 0 0 0 8.8 3.9H124v60a28 28 0 0 0 56 0a4 4 0 0 0-8 0a20 20 0 0 1-40 0v-60h91.7a12 12 0 0 0 8.8-3.9a11.7 11.7 0 0 0 3.1-9.1Zm-9 3.7a4.1 4.1 0 0 1-2.9 1.3H32.3a4.1 4.1 0 0 1-2.9-1.3a4.2 4.2 0 0 1-1.1-3.1a100.1 100.1 0 0 1 199.4 0a4.2 4.2 0 0 1-1.1 3.1Z"></path></svg>