<svg xmlns="http://www.w3.org/2000/svg" xmlns:xlink="http://www.w3.org/1999/xlink" aria-hidden="true" role="img" class="iconify iconify--ph" width="1em" height="1em" preserveAspectRatio="xMidYMid meet" viewBox="0 0 256 256"><path fill="currentColor" d="M237.6 126.8a110 110 0 0 0-219.2 0a14.4 14.4 0 0 0 3.6 10.7a14 14 0 0 0 10.3 4.5H122v58a30 30 0 0 0 60 0a6 6 0 0 0-12 0a18 18 0 0 1-36 0v-58h89.7a14 14 0 0 0 10.3-4.5a14.4 14.4 0 0 0 3.6-10.7Zm-12.5 2.6a1.7 1.7 0 0 1-1.4.6H32.3a1.7 1.7 0 0 1-1.4-.6a2.2 2.2 0 0 1-.6-1.6a98 98 0 0 1 195.4 0a2.2 2.2 0 0 1-.6 1.6Z"></path></svg>