<svg xmlns="http://www.w3.org/2000/svg" xmlns:xlink="http://www.w3.org/1999/xlink" aria-hidden="true" role="img" class="iconify iconify--ph" width="1em" height="1em" preserveAspectRatio="xMidYMid meet" viewBox="0 0 256 256"><path fill="currentColor" d="M223.7 136H168c0-72-40-104-40-104a103.9 103.9 0 0 1 103.6 95.3a7.9 7.9 0 0 1-7.9 8.7Zm-199.3-8.7a7.9 7.9 0 0 0 7.9 8.7H88c0-72 40-104 40-104a103.9 103.9 0 0 0-103.6 95.3Z" opacity=".2"></path><path fill="currentColor" d="M239.6 126.6A112.1 112.1 0 0 0 128 24A112.1 112.1 0 0 0 16.4 126.6a15.7 15.7 0 0 0 4.2 12.2a15.9 15.9 0 0 0 11.7 5.2H120v56a32 32 0 0 0 64 0a8 8 0 0 0-16 0a16 16 0 0 1-32 0v-56h87.7a15.9 15.9 0 0 0 11.7-5.2a15.7 15.7 0 0 0 4.2-12.2ZM96.2 128c1.4-30.8 10.5-52.8 18.3-66.2A97.7 97.7 0 0 1 128 43.2a97.7 97.7 0 0 1 13.5 18.6c13.3 22.9 17.5 47.5 18.3 66.2Zm-63.9 0a95.9 95.9 0 0 1 75.9-85.9c-11.7 16-26.4 44-28 85.9Zm143.5 0c-1.6-41.9-16.3-69.9-28-85.9a95.9 95.9 0 0 1 75.9 85.9Z"></path></svg>