<svg xmlns="http://www.w3.org/2000/svg" xmlns:xlink="http://www.w3.org/1999/xlink" aria-hidden="true" role="img" class="iconify iconify--ph" width="1em" height="1em" preserveAspectRatio="xMidYMid meet" viewBox="0 0 256 256"><path fill="currentColor" d="M223.7 136H32.3a7.9 7.9 0 0 1-7.9-8.7a104 104 0 0 1 207.2 0a7.9 7.9 0 0 1-7.9 8.7Z" opacity=".2"></path><path fill="currentColor" d="M239.6 126.6A111.9 111.9 0 0 0 52 53.8a110.9 110.9 0 0 0-35.6 72.8a15.7 15.7 0 0 0 4.2 12.2a15.9 15.9 0 0 0 11.7 5.2H120v56a32 32 0 0 0 64 0a8 8 0 0 0-16 0a16 16 0 0 1-32 0v-56h87.7a15.9 15.9 0 0 0 11.7-5.2a15.7 15.7 0 0 0 4.2-12.2ZM32.3 128a96 96 0 0 1 191.4 0Z"></path></svg>