<svg xmlns="http://www.w3.org/2000/svg" xmlns:xlink="http://www.w3.org/1999/xlink" aria-hidden="true" role="img" class="iconify iconify--ph" width="1em" height="1em" preserveAspectRatio="xMidYMid meet" viewBox="0 0 256 256"><path fill="currentColor" d="M237.6 126.8a110 110 0 0 0-219.2 0a14.4 14.4 0 0 0 3.6 10.7a14 14 0 0 0 10.3 4.5H122v58a30 30 0 0 0 60 0a6 6 0 0 0-12 0a18 18 0 0 1-36 0v-58h89.7a14 14 0 0 0 10.3-4.5a14.4 14.4 0 0 0 3.6-10.7ZM94.1 130c1.7-51.2 24.7-80.2 33.9-89.7c9.2 9.6 32.2 38.5 33.9 89.7Zm-63.2-.6a2.2 2.2 0 0 1-.6-1.6a98 98 0 0 1 82.6-88.6c-12 14.9-29.4 44.4-30.8 90.8H32.3a1.7 1.7 0 0 1-1.4-.6Zm194.2 0a1.7 1.7 0 0 1-1.4.6h-49.8c-1.4-46.4-18.8-75.9-30.8-90.8a98 98 0 0 1 82.6 88.6a2.2 2.2 0 0 1-.6 1.6Z"></path></svg>