<svg xmlns="http://www.w3.org/2000/svg" xmlns:xlink="http://www.w3.org/1999/xlink" aria-hidden="true" role="img" class="iconify iconify--ph" width="1em" height="1em" preserveAspectRatio="xMidYMid meet" viewBox="0 0 256 256"><path fill="currentColor" d="M235.6 127A108 108 0 0 0 128 28a108 108 0 0 0-107.6 99a11.7 11.7 0 0 0 3.1 9.1a12 12 0 0 0 8.8 3.9H124v60a28 28 0 0 0 56 0a4 4 0 0 0-8 0a20 20 0 0 1-40 0v-60h91.7a12 12 0 0 0 8.8-3.9a11.7 11.7 0 0 0 3.1-9.1Zm-143.5 5c1.2-56 27.6-86.4 35.9-94.6c8.3 8.2 34.7 38.6 35.9 94.6Zm-62.7-1.3a4.2 4.2 0 0 1-1.1-3.1a100.2 100.2 0 0 1 89.4-91.1C106 49.8 85.1 80.5 84 132H32.3a4.1 4.1 0 0 1-2.9-1.3Zm197.2 0a4.1 4.1 0 0 1-2.9 1.3H172c-1.1-51.5-22-82.2-33.7-95.5a100.2 100.2 0 0 1 89.4 91.1a4.2 4.2 0 0 1-1.1 3.1Z"></path></svg>