<svg xmlns="http://www.w3.org/2000/svg" xmlns:xlink="http://www.w3.org/1999/xlink" aria-hidden="true" role="img" class="iconify iconify--ph" width="1em" height="1em" preserveAspectRatio="xMidYMid meet" viewBox="0 0 256 256"><path fill="currentColor" d="M236 136v64a12 12 0 0 1-12 12H32a12 12 0 0 1-12-12v-64a12 12 0 0 1 12-12h48a4 4 0 0 1 0 8H32a4 4 0 0 0-4 4v64a4 4 0 0 0 4 4h192a4 4 0 0 0 4-4v-64a4 4 0 0 0-4-4h-48a4 4 0 0 1 0-8h48a12 12 0 0 1 12 12ZM82.8 74.8L124 33.7V128a4 4 0 0 0 8 0V33.7l41.2 41.1a3.9 3.9 0 0 0 5.6 0a3.9 3.9 0 0 0 0-5.6l-48-48a3.9 3.9 0 0 0-5.6 0l-48 48a4 4 0 0 0 5.6 5.6ZM196 168a8 8 0 1 0-8 8a8 8 0 0 0 8-8Z"></path></svg>