<svg xmlns="http://www.w3.org/2000/svg" xmlns:xlink="http://www.w3.org/1999/xlink" aria-hidden="true" role="img" class="iconify iconify--ph" width="1em" height="1em" preserveAspectRatio="xMidYMid meet" viewBox="0 0 256 256"><path fill="currentColor" d="M238 136v64a14 14 0 0 1-14 14H32a14 14 0 0 1-14-14v-64a14 14 0 0 1 14-14h48a6 6 0 0 1 0 12H32a2 2 0 0 0-2 2v64a2 2 0 0 0 2 2h192a2 2 0 0 0 2-2v-64a2 2 0 0 0-2-2h-48a6 6 0 0 1 0-12h48a14 14 0 0 1 14 14ZM84.2 76.2L122 38.5V128a6 6 0 0 0 12 0V38.5l37.8 37.7a5.9 5.9 0 1 0 8.4-8.4l-48-48a5.8 5.8 0 0 0-8.4 0l-48 48a5.9 5.9 0 0 0 8.4 8.4ZM198 168a10 10 0 1 0-10 10a10 10 0 0 0 10-10Z"></path></svg>