<svg xmlns="http://www.w3.org/2000/svg" xmlns:xlink="http://www.w3.org/1999/xlink" aria-hidden="true" role="img" class="iconify iconify--ph" width="1em" height="1em" preserveAspectRatio="xMidYMid meet" viewBox="0 0 256 256"><path fill="currentColor" d="M83.2 84.8a3.9 3.9 0 0 1 0-5.6l42-42a3.9 3.9 0 0 1 5.6 0l42 42a3.9 3.9 0 0 1 0 5.6a3.9 3.9 0 0 1-5.6 0L132 49.7V152a4 4 0 0 1-8 0V49.7L88.8 84.8a3.9 3.9 0 0 1-5.6 0ZM216 148a4 4 0 0 0-4 4v56a4 4 0 0 1-4 4H48a4 4 0 0 1-4-4v-56a4 4 0 0 0-8 0v56a12 12 0 0 0 12 12h160a12 12 0 0 0 12-12v-56a4 4 0 0 0-4-4Z"></path></svg>