<svg xmlns="http://www.w3.org/2000/svg" xmlns:xlink="http://www.w3.org/1999/xlink" aria-hidden="true" role="img" class="iconify iconify--ph" width="1em" height="1em" preserveAspectRatio="xMidYMid meet" viewBox="0 0 256 256"><path fill="currentColor" d="M240 136v64a16 16 0 0 1-16 16H32a16 16 0 0 1-16-16v-64a16 16 0 0 1 16-16h48a8 8 0 0 1 0 16H32v64h192v-64h-48a8 8 0 0 1 0-16h48a16 16 0 0 1 16 16ZM85.7 77.7L120 43.3V128a8 8 0 0 0 16 0V43.3l34.3 34.4a8.2 8.2 0 0 0 11.4 0a8.1 8.1 0 0 0 0-11.4l-48-48a8.1 8.1 0 0 0-11.4 0l-48 48a8.1 8.1 0 0 0 11.4 11.4ZM200 168a12 12 0 1 0-12 12a12 12 0 0 0 12-12Z"></path></svg>