<svg xmlns="http://www.w3.org/2000/svg" xmlns:xlink="http://www.w3.org/1999/xlink" aria-hidden="true" role="img" class="iconify iconify--ph" width="1em" height="1em" preserveAspectRatio="xMidYMid meet" viewBox="0 0 256 256"><path fill="currentColor" d="M78.6 85a8.2 8.2 0 0 1 1.7-8.7l42-42a8.1 8.1 0 0 1 11.4 0l42 42a8.2 8.2 0 0 1 1.7 8.7a8 8 0 0 1-7.4 5h-34v62a8 8 0 0 1-16 0V90H86a8 8 0 0 1-7.4-5ZM216 144a8 8 0 0 0-8 8v56H48v-56a8 8 0 0 0-16 0v56a16 16 0 0 0 16 16h160a16 16 0 0 0 16-16v-56a8 8 0 0 0-8-8Z"></path></svg>