<svg xmlns="http://www.w3.org/2000/svg" xmlns:xlink="http://www.w3.org/1999/xlink" aria-hidden="true" role="img" class="iconify iconify--ph" width="1em" height="1em" preserveAspectRatio="xMidYMid meet" viewBox="0 0 256 256"><path fill="currentColor" d="M244 136v64a20.1 20.1 0 0 1-20 20H32a20.1 20.1 0 0 1-20-20v-64a20.1 20.1 0 0 1 20-20h52a12 12 0 0 1 0 24H36v56h184v-56h-48a12 12 0 0 1 0-24h52a20.1 20.1 0 0 1 20 20ZM88.5 80.5L116 53v75a12 12 0 0 0 24 0V53l27.5 27.5a12.1 12.1 0 0 0 17 0a12 12 0 0 0 0-17l-48-48a12 12 0 0 0-17 0l-48 48a12 12 0 0 0 17 17ZM204 168a16 16 0 1 0-16 16a16 16 0 0 0 16-16Z"></path></svg>