<svg xmlns="http://www.w3.org/2000/svg" xmlns:xlink="http://www.w3.org/1999/xlink" aria-hidden="true" role="img" class="iconify iconify--ph" width="1em" height="1em" preserveAspectRatio="xMidYMid meet" viewBox="0 0 256 256"><path fill="currentColor" d="M172 120a44 44 0 1 1-44-44a44 44 0 0 1 44 44Zm60-64v144a16 16 0 0 1-16 16H40a16 16 0 0 1-16-16V56a16 16 0 0 1 16-16h176a16 16 0 0 1 16 16Zm-16 144V56H40v144h14.7a80.2 80.2 0 0 1 32-36.5a59.9 59.9 0 0 0 82.6 0a80.2 80.2 0 0 1 32 36.5Z"></path></svg>