<svg xmlns="http://www.w3.org/2000/svg" xmlns:xlink="http://www.w3.org/1999/xlink" aria-hidden="true" role="img" class="iconify iconify--ph" width="1em" height="1em" preserveAspectRatio="xMidYMid meet" viewBox="0 0 256 256"><path fill="currentColor" d="M140 80a12 12 0 0 1 12-12h92a12 12 0 0 1 0 24h-92a12 12 0 0 1-12-12Zm104 36h-92a12 12 0 0 0 0 24h92a12 12 0 0 0 0-24Zm0 48h-68a12 12 0 0 0 0 24h68a12 12 0 0 0 0-24Zm-90.4 25a11.9 11.9 0 0 1-8.6 14.6a10.3 10.3 0 0 1-3 .4a12 12 0 0 1-11.6-9a52.1 52.1 0 0 0-100.8 0a12 12 0 0 1-23.2-6a75.7 75.7 0 0 1 37.3-47.8a52 52 0 1 1 72.6 0a75.7 75.7 0 0 1 37.3 47.8ZM80 132a28 28 0 1 0-28-28a28.1 28.1 0 0 0 28 28Z"></path></svg>