<svg xmlns="http://www.w3.org/2000/svg" xmlns:xlink="http://www.w3.org/1999/xlink" aria-hidden="true" role="img" class="iconify iconify--ph" width="1em" height="1em" preserveAspectRatio="xMidYMid meet" viewBox="0 0 256 256"><path fill="currentColor" d="M216 36H40a20.1 20.1 0 0 0-20 20v144a20.1 20.1 0 0 0 20 20h176a20.1 20.1 0 0 0 20-20V56a20.1 20.1 0 0 0-20-20Zm-116 92a28 28 0 1 1 28 28a28.1 28.1 0 0 1-28-28Zm28 52a60.1 60.1 0 0 1 40.9 16H87.1a60.1 60.1 0 0 1 40.9-16Zm84 16h-12.4a83.9 83.9 0 0 0-34.6-31.5a52 52 0 1 0-74 0A83.9 83.9 0 0 0 56.4 196H44V60h168Z"></path></svg>