<svg xmlns="http://www.w3.org/2000/svg" xmlns:xlink="http://www.w3.org/1999/xlink" aria-hidden="true" role="img" class="iconify iconify--ph" width="1em" height="1em" preserveAspectRatio="xMidYMid meet" viewBox="0 0 256 256"><path fill="currentColor" d="M169.6 46.1a12 12 0 0 1 15.1-7.7l3.3 1.1V36a12 12 0 0 1 24 0v3.5l3.3-1.1a12 12 0 0 1 7.4 22.8l-3.3 1.1l2.1 2.8a12 12 0 0 1-2.7 16.8a12 12 0 0 1-16.8-2.7l-2-2.8l-2 2.8a12 12 0 0 1-19.5-14.1l2.1-2.8l-3.3-1.1a11.9 11.9 0 0 1-7.7-15.1ZM201 207.5a11.4 11.4 0 0 1-1.6 1.5a107.9 107.9 0 0 1-142.8 0a11.4 11.4 0 0 1-1.6-1.5A107.9 107.9 0 0 1 128 20c3.3 0 6.7.2 10 .5a12 12 0 0 1 10.9 13a12.1 12.1 0 0 1-13.1 10.9a67.9 67.9 0 0 0-7.8-.4a83.9 83.9 0 0 0-65.9 135.9A84 84 0 0 1 91 156.5a52 52 0 1 1 74 0a84 84 0 0 1 28.9 23.4A83.4 83.4 0 0 0 212 128a84.3 84.3 0 0 0-.6-10.1a12 12 0 0 1 23.8-2.8a110.3 110.3 0 0 1 .8 12.9a107.7 107.7 0 0 1-35 79.5ZM128 148a28 28 0 1 0-28-28a28.1 28.1 0 0 0 28 28Zm0 64a83.5 83.5 0 0 0 48.4-15.4a59.9 59.9 0 0 0-96.8 0A83.5 83.5 0 0 0 128 212Z"></path></svg>