<svg xmlns="http://www.w3.org/2000/svg" xmlns:xlink="http://www.w3.org/1999/xlink" aria-hidden="true" role="img" class="iconify iconify--ph" width="1em" height="1em" preserveAspectRatio="xMidYMid meet" viewBox="0 0 256 256"><path fill="currentColor" d="M216 40H40a16 16 0 0 0-16 16v144a16 16 0 0 0 16 16h176a16 16 0 0 0 16-16V56a16 16 0 0 0-16-16ZM96 120a32 32 0 1 1 32 32a32.1 32.1 0 0 1-32-32Zm-23.4 80a64 64 0 0 1 110.8 0Zm143.4 0h-14.7a80.1 80.1 0 0 0-43.7-42.3a48 48 0 1 0-59.2 0A80.1 80.1 0 0 0 54.7 200H40V56h176v144Z"></path></svg>