<svg xmlns="http://www.w3.org/2000/svg" xmlns:xlink="http://www.w3.org/1999/xlink" aria-hidden="true" role="img" class="iconify iconify--ph" width="1em" height="1em" preserveAspectRatio="xMidYMid meet" viewBox="0 0 256 256"><path fill="currentColor" d="M216 44H40a12 12 0 0 0-12 12v144a12 12 0 0 0 12 12h176a12 12 0 0 0 12-12V56a12 12 0 0 0-12-12ZM66 204a68 68 0 0 1 124 0Zm154-4a4 4 0 0 1-4 4h-17.3a76.1 76.1 0 0 0-50.1-45.1a44 44 0 1 0-41.2 0A76.1 76.1 0 0 0 57.3 204H40a4 4 0 0 1-4-4V56a4 4 0 0 1 4-4h176a4 4 0 0 1 4 4Zm-92-44a36 36 0 1 1 36-36a36 36 0 0 1-36 36Z"></path></svg>