<svg xmlns="http://www.w3.org/2000/svg" xmlns:xlink="http://www.w3.org/1999/xlink" aria-hidden="true" role="img" class="iconify iconify--ph" width="1em" height="1em" preserveAspectRatio="xMidYMid meet" viewBox="0 0 256 256"><path fill="currentColor" d="M111.1 159a56 56 0 1 0-46.2 0a92.2 92.2 0 0 0-52.2 36.1a4.1 4.1 0 0 0 1 5.6a3.9 3.9 0 0 0 2.3.7a4.2 4.2 0 0 0 3.3-1.7a84 84 0 0 1 137.4 0a4 4 0 1 0 6.6-4.6a92.2 92.2 0 0 0-52.2-36.1ZM40 108a48 48 0 1 1 48 48a48 48 0 0 1-48-48Zm203.8 92.7a4 4 0 0 1-5.5-1a84.3 84.3 0 0 0-68.8-35.7a4 4 0 0 1 0-8a48 48 0 0 0 0-96a47.4 47.4 0 0 0-13 1.8a4 4 0 0 1-4.9-2.8a4 4 0 0 1 2.7-4.9A56 56 0 0 1 192.7 159a92.3 92.3 0 0 1 52.1 36.1a4 4 0 0 1-1 5.6Z"></path></svg>