<svg xmlns="http://www.w3.org/2000/svg" xmlns:xlink="http://www.w3.org/1999/xlink" aria-hidden="true" role="img" class="iconify iconify--ph" width="1em" height="1em" preserveAspectRatio="xMidYMid meet" viewBox="0 0 256 256"><path fill="currentColor" d="M133.3 158.8a64 64 0 1 0-50.6 0a116.3 116.3 0 0 0-63.6 38.6a4 4 0 0 0 6.2 5.2a107.9 107.9 0 0 1 165.4 0a4.3 4.3 0 0 0 3.1 1.4a4.3 4.3 0 0 0 2.6-.9a4.1 4.1 0 0 0 .5-5.7a116.3 116.3 0 0 0-63.6-38.6ZM52 100a56 56 0 1 1 56 56a56 56 0 0 1-56-56Zm194.2 46.5l-7.2-4.2a20.3 20.3 0 0 0 0-12.6l7.2-4.2a4 4 0 0 0 1.5-5.5a4 4 0 0 0-5.5-1.5l-7.3 4.3a19.9 19.9 0 0 0-10.9-6.4V108a4 4 0 0 0-8 0v8.4a19.9 19.9 0 0 0-10.9 6.4l-7.3-4.3a4 4 0 0 0-5.5 1.5a4 4 0 0 0 1.5 5.5l7.2 4.2a20.3 20.3 0 0 0 0 12.6l-7.2 4.2a4 4 0 0 0 2 7.5a5.3 5.3 0 0 0 2-.5l7.3-4.3a19.9 19.9 0 0 0 10.9 6.4v8.4a4 4 0 0 0 8 0v-8.4a19.9 19.9 0 0 0 10.9-6.4l7.3 4.3a5.3 5.3 0 0 0 2 .5a4 4 0 0 0 2-7.5ZM220 148a12 12 0 1 1 12-12a12 12 0 0 1-12 12Z"></path></svg>