<svg xmlns="http://www.w3.org/2000/svg" xmlns:xlink="http://www.w3.org/1999/xlink" aria-hidden="true" role="img" class="iconify iconify--ph" width="1em" height="1em" preserveAspectRatio="xMidYMid meet" viewBox="0 0 256 256"><path fill="currentColor" d="M254 136a6 6 0 0 1-6 6h-18v18a6 6 0 0 1-12 0v-18h-18a6 6 0 0 1 0-12h18v-18a6 6 0 0 1 12 0v18h18a6 6 0 0 1 6 6Zm-55.6 60.1a6.1 6.1 0 0 1-.7 8.5a6.4 6.4 0 0 1-3.9 1.4a6 6 0 0 1-4.6-2.1a105.9 105.9 0 0 0-162.4 0a6 6 0 0 1-9.2-7.8a117.9 117.9 0 0 1 59.3-37.9a66 66 0 1 1 62.2 0a117.9 117.9 0 0 1 59.3 37.9ZM108 154a54 54 0 1 0-54-54a54 54 0 0 0 54 54Z"></path></svg>