<svg xmlns="http://www.w3.org/2000/svg" xmlns:xlink="http://www.w3.org/1999/xlink" aria-hidden="true" role="img" class="iconify iconify--ph" width="1em" height="1em" preserveAspectRatio="xMidYMid meet" viewBox="0 0 256 256"><path fill="currentColor" d="m246.7 141.2l-3.3 1.1l2.1 2.8a12 12 0 0 1-2.7 16.8a12 12 0 0 1-16.8-2.7l-2-2.8l-2 2.8a12 12 0 1 1-19.5-14.1l2.1-2.8l-3.3-1.1a12 12 0 1 1 7.4-22.8l3.3 1.1V116a12 12 0 0 1 24 0v3.5l3.3-1.1a12 12 0 0 1 7.4 22.8ZM203 192.3a12 12 0 0 1-1.5 16.9a11.8 11.8 0 0 1-7.7 2.8a12.2 12.2 0 0 1-9.2-4.3a100 100 0 0 0-153.2 0A12 12 0 1 1 13 192.3a124.4 124.4 0 0 1 50.3-36a72 72 0 1 1 89.4 0a124.4 124.4 0 0 1 50.3 36ZM108 148a48 48 0 1 0-48-48a48 48 0 0 0 48 48Z"></path></svg>