<svg xmlns="http://www.w3.org/2000/svg" xmlns:xlink="http://www.w3.org/1999/xlink" aria-hidden="true" role="img" class="iconify iconify--ph" width="1em" height="1em" preserveAspectRatio="xMidYMid meet" viewBox="0 0 256 256"><path fill="currentColor" d="M170 56a6 6 0 0 1 6-6h48a6 6 0 0 1 0 12h-48a6 6 0 0 1-6-6Zm54.2 38a102.9 102.9 0 0 1 5.8 34a101.8 101.8 0 0 1-33.2 75.3l-1.2 1a101.8 101.8 0 0 1-135.2 0l-1.2-1A102 102 0 0 1 128 26a96.3 96.3 0 0 1 16.1 1.3a6 6 0 0 1 5 6.8a6.1 6.1 0 0 1-6.9 5A96 96 0 0 0 128 38a89.9 89.9 0 0 0-65.5 151.6a77.7 77.7 0 0 1 40-31.3a46 46 0 1 1 51 0a77.7 77.7 0 0 1 40 31.3A90 90 0 0 0 212.9 98a6 6 0 1 1 11.3-4ZM128 154a34 34 0 1 0-34-34a34.1 34.1 0 0 0 34 34Zm0 64a89.9 89.9 0 0 0 56.6-20a66.1 66.1 0 0 0-113.2 0a89.9 89.9 0 0 0 56.6 20Z"></path></svg>