<svg xmlns="http://www.w3.org/2000/svg" xmlns:xlink="http://www.w3.org/1999/xlink" aria-hidden="true" role="img" class="iconify iconify--ph" width="1em" height="1em" preserveAspectRatio="xMidYMid meet" viewBox="0 0 256 256"><path fill="currentColor" d="M205.3 71.1a15.5 15.5 0 0 1-5.3.9a16 16 0 0 1-16-16a15.5 15.5 0 0 1 .9-5.3A96 96 0 0 0 63.8 199.4A72 72 0 0 1 128 160a40 40 0 1 1 40-40a40 40 0 0 1-40 40a72 72 0 0 1 64.2 39.4a96 96 0 0 0 13.1-128.3Z" opacity=".2"></path><path fill="currentColor" d="m228.2 63.1l-4.6-2.7a21.2 21.2 0 0 0 .4-4.4a21.2 21.2 0 0 0-.4-4.4l4.6-2.7a7.9 7.9 0 0 0 3-10.9a8.1 8.1 0 0 0-11-2.9l-4.6 2.7a24 24 0 0 0-7.6-4.4V28a8 8 0 0 0-16 0v5.4a24 24 0 0 0-7.6 4.4l-4.6-2.7a8.1 8.1 0 0 0-11 2.9a7.9 7.9 0 0 0 3 10.9l4.6 2.7a21.2 21.2 0 0 0-.4 4.4a21.2 21.2 0 0 0 .4 4.4l-4.6 2.7a8 8 0 0 0 4 14.9a7.6 7.6 0 0 0 4-1.1l4.6-2.7a24 24 0 0 0 7.6 4.4V84a8 8 0 0 0 16 0v-5.4a24 24 0 0 0 7.6-4.4l4.6 2.7a7.6 7.6 0 0 0 4 1.1a8 8 0 0 0 4-14.9ZM192 56a8 8 0 1 1 8 8a8 8 0 0 1-8-8Zm30.4 52.6a8 8 0 0 0-7 8.8a94.2 94.2 0 0 1 .6 10.6a87.6 87.6 0 0 1-22.2 58.4a79.2 79.2 0 0 0-36.1-28.7a48 48 0 1 0-59.4 0a79.2 79.2 0 0 0-36.1 28.7A88 88 0 0 1 128 40a75 75 0 0 1 8.2.4a8 8 0 1 0 1.4-16c-3.1-.3-6.4-.4-9.6-.4a104 104 0 0 0-70.2 180.7l1.3 1.2a104 104 0 0 0 137.8 0l1.3-1.2A103.7 103.7 0 0 0 232 128a101.9 101.9 0 0 0-.7-12.4a8 8 0 0 0-8.9-7ZM96 120a32 32 0 1 1 32 32a32.1 32.1 0 0 1-32-32Zm-21.9 77.5a64 64 0 0 1 107.8 0a87.8 87.8 0 0 1-107.8 0Z"></path></svg>