<svg xmlns="http://www.w3.org/2000/svg" xmlns:xlink="http://www.w3.org/1999/xlink" aria-hidden="true" role="img" class="iconify iconify--ph" width="1em" height="1em" preserveAspectRatio="xMidYMid meet" viewBox="0 0 256 256"><path fill="currentColor" d="M224 48v28a8 8 0 0 1-16 0V48h-28a8 8 0 0 1 0-16h28a16 16 0 0 1 16 16Zm-8 124a8 8 0 0 0-8 8v28h-28a8 8 0 0 0 0 16h28a16 16 0 0 0 16-16v-28a8 8 0 0 0-8-8ZM76 208H48v-28a8 8 0 0 0-16 0v28a16 16 0 0 0 16 16h28a8 8 0 0 0 0-16ZM40 84a8 8 0 0 0 8-8V48h28a8 8 0 0 0 0-16H48a16 16 0 0 0-16 16v28a8 8 0 0 0 8 8Zm134 95.7a52 52 0 0 0-92 0a8 8 0 1 1-14.2-7.4a69.1 69.1 0 0 1 33.3-30.8A39.5 39.5 0 0 1 88 112a40 40 0 0 1 80 0a39.5 39.5 0 0 1-13.1 29.5a69.1 69.1 0 0 1 33.3 30.8a8.1 8.1 0 0 1-3.4 10.8a8.4 8.4 0 0 1-3.7.9a7.8 7.8 0 0 1-7.1-4.3ZM128 136a24 24 0 1 0-24-24a24.1 24.1 0 0 0 24 24Z"></path></svg>