<svg xmlns="http://www.w3.org/2000/svg" xmlns:xlink="http://www.w3.org/1999/xlink" aria-hidden="true" role="img" class="iconify iconify--ph" width="1em" height="1em" preserveAspectRatio="xMidYMid meet" viewBox="0 0 256 256"><path fill="currentColor" d="M208 32H48a16 16 0 0 0-16 16v160a16 16 0 0 0 16 16h160a16 16 0 0 0 16-16V48a16 16 0 0 0-16-16ZM96 120a32 32 0 1 1 32 32a32.1 32.1 0 0 1-32-32Zm-27.3 88a63.9 63.9 0 0 1 19.1-25.8a64 64 0 0 1 80.4 0a63.9 63.9 0 0 1 19.1 25.8Zm139.3 0h-3.7a79.9 79.9 0 0 0-46.7-50.3a48 48 0 1 0-59.2 0A79.9 79.9 0 0 0 51.7 208H48V48h160v160Z"></path></svg>