<svg xmlns="http://www.w3.org/2000/svg" xmlns:xlink="http://www.w3.org/1999/xlink" aria-hidden="true" role="img" class="iconify iconify--ph" width="1em" height="1em" preserveAspectRatio="xMidYMid meet" viewBox="0 0 256 256"><path fill="currentColor" d="M208 34H48a14 14 0 0 0-14 14v160a14 14 0 0 0 14 14h160a14 14 0 0 0 14-14V48a14 14 0 0 0-14-14ZM94 120a34 34 0 1 1 34 34a34.1 34.1 0 0 1-34-34Zm-28.2 90a65.9 65.9 0 0 1 124.4 0Zm144.2-2a2 2 0 0 1-2 2h-5.2a78.5 78.5 0 0 0-25.8-38.7a77.5 77.5 0 0 0-23.5-13a46 46 0 1 0-51 0a77.5 77.5 0 0 0-23.5 13A78.5 78.5 0 0 0 53.2 210H48a2 2 0 0 1-2-2V48a2 2 0 0 1 2-2h160a2 2 0 0 1 2 2Z"></path></svg>