<svg xmlns="http://www.w3.org/2000/svg" xmlns:xlink="http://www.w3.org/1999/xlink" aria-hidden="true" role="img" class="iconify iconify--ph" width="1em" height="1em" preserveAspectRatio="xMidYMid meet" viewBox="0 0 256 256"><path fill="currentColor" d="M226.1 93.3a104.2 104.2 0 0 1-27.9 111.4l-1.3 1.2a104 104 0 0 1-137.8 0l-1.3-1.2A104 104 0 0 1 128 24a99.8 99.8 0 0 1 16.4 1.3a8 8 0 0 1-2.5 15.8A92 92 0 0 0 128 40a88 88 0 0 0-65.8 146.4a81.3 81.3 0 0 1 24.5-23a59.7 59.7 0 0 0 82.6 0a81.3 81.3 0 0 1 24.5 23A88 88 0 0 0 211 98.7a7.9 7.9 0 0 1 4.9-10.2a8 8 0 0 1 10.2 4.8ZM176 64h48a8 8 0 0 0 0-16h-48a8 8 0 0 0 0 16Zm-92 56a44 44 0 1 0 44-44a44 44 0 0 0-44 44Z"></path></svg>