<svg xmlns="http://www.w3.org/2000/svg" xmlns:xlink="http://www.w3.org/1999/xlink" aria-hidden="true" role="img" class="iconify iconify--ph" width="1em" height="1em" preserveAspectRatio="xMidYMid meet" viewBox="0 0 256 256"><path fill="currentColor" d="M164 56a12 12 0 0 1 12-12h12V32a12 12 0 0 1 24 0v12h12a12 12 0 0 1 0 24h-12v12a12 12 0 0 1-24 0V68h-12a12 12 0 0 1-12-12Zm70.7 55a108.4 108.4 0 0 1-33.7 96.5a11.4 11.4 0 0 1-1.6 1.5a107.9 107.9 0 0 1-142.8 0a11.4 11.4 0 0 1-1.6-1.5a108.1 108.1 0 0 1 90-186.2a12.1 12.1 0 0 1 10 13.8a11.9 11.9 0 0 1-13.7 9.9a85.1 85.1 0 0 0-13.3-1a83.9 83.9 0 0 0-65.9 135.9A84 84 0 0 1 91 156.5a52 52 0 1 1 74 0a84 84 0 0 1 28.9 23.4A83.4 83.4 0 0 0 212 128a85.1 85.1 0 0 0-1-13.3a11.9 11.9 0 0 1 9.9-13.7a12.1 12.1 0 0 1 13.8 10ZM128 148a28 28 0 1 0-28-28a28.1 28.1 0 0 0 28 28Zm0 64a83.5 83.5 0 0 0 48.4-15.4a59.9 59.9 0 0 0-96.8 0A83.5 83.5 0 0 0 128 212Z"></path></svg>