<svg xmlns="http://www.w3.org/2000/svg" xmlns:xlink="http://www.w3.org/1999/xlink" aria-hidden="true" role="img" class="iconify iconify--ph" width="1em" height="1em" preserveAspectRatio="xMidYMid meet" viewBox="0 0 256 256"><path fill="currentColor" d="M148 80a4 4 0 0 1 4-4h96a4 4 0 0 1 0 8h-96a4 4 0 0 1-4-4Zm100 44h-96a4 4 0 0 0 0 8h96a4 4 0 0 0 0-8Zm0 48h-72a4 4 0 0 0 0 8h72a4 4 0 0 0 0-8Zm-102.1 19a4.2 4.2 0 0 1-2.9 4.9h-1a4.1 4.1 0 0 1-3.9-3a60 60 0 0 0-116.2 0a4.1 4.1 0 0 1-4.9 2.9a4.2 4.2 0 0 1-2.9-4.9A67.7 67.7 0 0 1 59.8 143a44 44 0 1 1 40.4 0a67.7 67.7 0 0 1 45.7 48ZM80 140a36 36 0 1 0-36-36a36 36 0 0 0 36 36Z"></path></svg>