<svg xmlns="http://www.w3.org/2000/svg" xmlns:xlink="http://www.w3.org/1999/xlink" aria-hidden="true" role="img" class="iconify iconify--ph" width="1em" height="1em" preserveAspectRatio="xMidYMid meet" viewBox="0 0 256 256"><path fill="currentColor" d="M256 136a8 8 0 0 1-8 8h-48a8 8 0 0 1 0-16h48a8 8 0 0 1 8 8Zm-111.9 21.6a68 68 0 1 0-72.2 0a118.4 118.4 0 0 0-55.8 37.3a7.8 7.8 0 0 0-1.1 8.5a7.9 7.9 0 0 0 7.2 4.6h171.6a7.9 7.9 0 0 0 7.2-4.6a7.8 7.8 0 0 0-1.1-8.5a118.4 118.4 0 0 0-55.8-37.3Z"></path></svg>