<svg xmlns="http://www.w3.org/2000/svg" xmlns:xlink="http://www.w3.org/1999/xlink" aria-hidden="true" role="img" class="iconify iconify--ph" width="1em" height="1em" preserveAspectRatio="xMidYMid meet" viewBox="0 0 256 256"><path fill="currentColor" d="M139.1 158.2a66 66 0 1 0-62.2 0a117.9 117.9 0 0 0-59.3 37.9a6 6 0 0 0 9.2 7.8a105.9 105.9 0 0 1 162.4 0a6 6 0 0 0 4.6 2.1a6.4 6.4 0 0 0 3.9-1.4a6.1 6.1 0 0 0 .7-8.5a117.9 117.9 0 0 0-59.3-37.9ZM54 100a54 54 0 1 1 54 54a54 54 0 0 1-54-54Zm193.2 44.8l-5.9-3.4a21.2 21.2 0 0 0 0-10.8l5.9-3.4a6 6 0 0 0-6-10.4l-5.9 3.4a21.8 21.8 0 0 0-9.3-5.4V108a6 6 0 0 0-12 0v6.8a21.8 21.8 0 0 0-9.3 5.4l-5.9-3.4a6 6 0 1 0-6 10.4l5.9 3.4a21.2 21.2 0 0 0 0 10.8l-5.9 3.4a6 6 0 0 0 3 11.2a6.7 6.7 0 0 0 3-.8l5.9-3.4a21.8 21.8 0 0 0 9.3 5.4v6.8a6 6 0 0 0 12 0v-6.8a21.8 21.8 0 0 0 9.3-5.4l5.9 3.4a6.7 6.7 0 0 0 3 .8a6 6 0 0 0 3-11.2ZM220 146a10 10 0 1 1 10-10a10 10 0 0 1-10 10Z"></path></svg>