<svg xmlns="http://www.w3.org/2000/svg" xmlns:xlink="http://www.w3.org/1999/xlink" aria-hidden="true" role="img" class="iconify iconify--ph" width="1em" height="1em" preserveAspectRatio="xMidYMid meet" viewBox="0 0 256 256"><path fill="currentColor" d="M228 48v28a12 12 0 0 1-24 0V52h-24a12 12 0 0 1 0-24h28a20.1 20.1 0 0 1 20 20Zm-12 120a12 12 0 0 0-12 12v24h-24a12 12 0 0 0 0 24h28a20.1 20.1 0 0 0 20-20v-28a12 12 0 0 0-12-12ZM76 204H52v-24a12 12 0 0 0-24 0v28a20.1 20.1 0 0 0 20 20h28a12 12 0 0 0 0-24ZM40 88a12 12 0 0 0 12-12V52h24a12 12 0 0 0 0-24H48a20.1 20.1 0 0 0-20 20v28a12 12 0 0 0 12 12Zm126.4 87.2a48 48 0 0 0-76.8 0a12 12 0 0 1-16.8 2.4a12 12 0 0 1-2.4-16.8a72.1 72.1 0 0 1 23.9-20.5a44 44 0 1 1 67.4 0a72.1 72.1 0 0 1 23.9 20.5a12 12 0 0 1-19.2 14.4ZM108 112a20 20 0 1 0 20-20a20.1 20.1 0 0 0-20 20Z"></path></svg>