<svg xmlns="http://www.w3.org/2000/svg" xmlns:xlink="http://www.w3.org/1999/xlink" aria-hidden="true" role="img" class="iconify iconify--ph" width="1em" height="1em" preserveAspectRatio="xMidYMid meet" viewBox="0 0 256 256"><path fill="currentColor" d="M172 120a44 44 0 1 1-44-44a44 44 0 0 1 44 44Zm52-72v160a16 16 0 0 1-16 16H48a16 16 0 0 1-16-16V48a16 16 0 0 1 16-16h160a16 16 0 0 1 16 16Zm-16 160V48H48v160h3.7a80.7 80.7 0 0 1 26-38.2a76.8 76.8 0 0 1 9-6.3a59.9 59.9 0 0 0 82.6 0a76.8 76.8 0 0 1 9 6.3a80.7 80.7 0 0 1 26 38.2Z"></path></svg>