<svg xmlns="http://www.w3.org/2000/svg" xmlns:xlink="http://www.w3.org/1999/xlink" aria-hidden="true" role="img" class="iconify iconify--ph" width="1em" height="1em" preserveAspectRatio="xMidYMid meet" viewBox="0 0 256 256"><path fill="currentColor" d="M246.4 143.2a4.3 4.3 0 0 1-2.4.8a4.2 4.2 0 0 1-3.2-1.6A55.7 55.7 0 0 0 196 120a4 4 0 0 1 0-8a28 28 0 1 0-27.5-33.3a4 4 0 1 1-7.9-1.5a36 36 0 1 1 54.1 37.6a63 63 0 0 1 32.5 22.8a4 4 0 0 1-.8 5.6Zm-57.2 71a4.1 4.1 0 0 1-1.9 5.4a3.3 3.3 0 0 1-1.7.4a4 4 0 0 1-3.6-2.2a60 60 0 0 0-108 0a3.9 3.9 0 0 1-5.3 1.8a4.1 4.1 0 0 1-1.9-5.4a68.3 68.3 0 0 1 40.9-35.2a44 44 0 1 1 40.6 0a68.3 68.3 0 0 1 40.9 35.2ZM128 176a36 36 0 1 0-36-36a36 36 0 0 0 36 36Zm-68-64a28 28 0 1 1 27.5-33.3a4 4 0 1 0 7.9-1.5a36 36 0 1 0-54.1 37.6a63 63 0 0 0-32.5 22.8a4 4 0 0 0 .8 5.6a4.3 4.3 0 0 0 2.4.8a4.2 4.2 0 0 0 3.2-1.6A55.7 55.7 0 0 1 60 120a4 4 0 0 0 0-8Z"></path></svg>