<svg xmlns="http://www.w3.org/2000/svg" xmlns:xlink="http://www.w3.org/1999/xlink" aria-hidden="true" role="img" class="iconify iconify--ph" width="1em" height="1em" preserveAspectRatio="xMidYMid meet" viewBox="0 0 256 256"><path fill="currentColor" d="M230 128a102 102 0 1 0-170.8 75.3l1.2 1a101.8 101.8 0 0 0 135.2 0l1.2-1A101.8 101.8 0 0 0 230 128Zm-192 0a90 90 0 1 1 155.5 61.6a77.7 77.7 0 0 0-40-31.3a46 46 0 1 0-51 0a77.7 77.7 0 0 0-40 31.3A89.5 89.5 0 0 1 38 128Zm56-8a34 34 0 1 1 34 34a34.1 34.1 0 0 1-34-34Zm-22.6 78a66.1 66.1 0 0 1 113.2 0a90.1 90.1 0 0 1-113.2 0Z"></path></svg>