<svg xmlns="http://www.w3.org/2000/svg" xmlns:xlink="http://www.w3.org/1999/xlink" aria-hidden="true" role="img" class="iconify iconify--ph" width="1em" height="1em" preserveAspectRatio="xMidYMid meet" viewBox="0 0 256 256"><path fill="currentColor" d="M28.4 124.8a6 6 0 0 0 8.4-1.2a54 54 0 0 1 86.3-.1l.5.6l.4.4h.1l.3.2l.7.5h.3l.7.3h.2l.6.2h3.1l.6-.3h.2l.4-.2l.2-.2h.3c.1 0 .1-.1.2-.2l.3-.3h.2l.4-.5a54 54 0 0 1 86.4 0a6 6 0 0 0 8.4 1.2a6 6 0 0 0 1.2-8.4a66.4 66.4 0 0 0-29.7-22.3A37.6 37.6 0 0 0 214 64a38 38 0 0 0-76 0a37.6 37.6 0 0 0 14.9 30.1a64.9 64.9 0 0 0-24.9 16.6a64.9 64.9 0 0 0-24.9-16.6A37.6 37.6 0 0 0 118 64a38 38 0 0 0-76 0a37.6 37.6 0 0 0 14.9 30.1a66.4 66.4 0 0 0-29.7 22.3a6 6 0 0 0 1.2 8.4ZM150 64a26 26 0 1 1 26 26a26.1 26.1 0 0 1-26-26Zm-96 0a26 26 0 1 1 26 26a26.1 26.1 0 0 1-26-26Zm145.1 134.1A37.6 37.6 0 0 0 214 168a38 38 0 0 0-76 0a37.6 37.6 0 0 0 14.9 30.1a64.9 64.9 0 0 0-24.9 16.6a64.9 64.9 0 0 0-24.9-16.6A37.6 37.6 0 0 0 118 168a38 38 0 0 0-76 0a37.6 37.6 0 0 0 14.9 30.1a66.4 66.4 0 0 0-29.7 22.3a6 6 0 1 0 9.6 7.2a54 54 0 0 1 86.3-.1l.5.6l.4.4h.1l.3.2l.7.5h.3l.7.3h.2l.6.2h3.1l.6-.3h.2l.4-.2l.2-.2h.3c.1 0 .1-.1.2-.2l.3-.3h.2l.4-.5a54 54 0 0 1 86.4 0a6 6 0 0 0 8.4 1.2a6 6 0 0 0 1.2-8.4a66.4 66.4 0 0 0-29.7-22.7ZM54 168a26 26 0 1 1 26 26a26.1 26.1 0 0 1-26-26Zm96 0a26 26 0 1 1 26 26a26.1 26.1 0 0 1-26-26Z"></path></svg>