<svg xmlns="http://www.w3.org/2000/svg" xmlns:xlink="http://www.w3.org/1999/xlink" aria-hidden="true" role="img" class="iconify iconify--ph" width="1em" height="1em" preserveAspectRatio="xMidYMid meet" viewBox="0 0 256 256"><path fill="currentColor" d="m227.2 64.8l-5.9-3.4a21.2 21.2 0 0 0 0-10.8l5.9-3.4a6 6 0 0 0-6-10.4l-5.9 3.4a21.8 21.8 0 0 0-9.3-5.4V28a6 6 0 0 0-12 0v6.8a21.8 21.8 0 0 0-9.3 5.4l-5.9-3.4a6 6 0 1 0-6 10.4l5.9 3.4a21.2 21.2 0 0 0 0 10.8l-5.9 3.4a6 6 0 0 0 3 11.2a6.7 6.7 0 0 0 3-.8l5.9-3.4a21.8 21.8 0 0 0 9.3 5.4V84a6 6 0 0 0 12 0v-6.8a21.8 21.8 0 0 0 9.3-5.4l5.9 3.4a6.7 6.7 0 0 0 3 .8a6 6 0 0 0 3-11.2ZM200 66a10 10 0 1 1 10-10a10 10 0 0 1-10 10Zm22.6 44.5a6 6 0 0 0-5.2 6.7a97.7 97.7 0 0 1 .6 10.8a89.5 89.5 0 0 1-24.5 61.6a77.7 77.7 0 0 0-40-31.3a46 46 0 1 0-51 0a77.7 77.7 0 0 0-40 31.3A89.9 89.9 0 0 1 128 38a78.7 78.7 0 0 1 8.4.4a6 6 0 0 0 6.5-5.4a6.1 6.1 0 0 0-5.4-6.6c-3.2-.3-6.3-.4-9.5-.4a102 102 0 0 0-68.8 177.3l1.2 1a101.8 101.8 0 0 0 135.2 0l1.2-1A101.8 101.8 0 0 0 230 128a98.7 98.7 0 0 0-.7-12.2a6.1 6.1 0 0 0-6.7-5.3ZM94 120a34 34 0 1 1 34 34a34.1 34.1 0 0 1-34-34Zm-22.6 78a66.1 66.1 0 0 1 113.2 0a90.1 90.1 0 0 1-113.2 0Z"></path></svg>