<svg xmlns="http://www.w3.org/2000/svg" xmlns:xlink="http://www.w3.org/1999/xlink" aria-hidden="true" role="img" class="iconify iconify--ph" width="1em" height="1em" preserveAspectRatio="xMidYMid meet" viewBox="0 0 256 256"><path fill="currentColor" d="M172 56a4 4 0 0 1 4-4h20V32a4 4 0 0 1 8 0v20h20a4 4 0 0 1 0 8h-20v20a4 4 0 0 1-8 0V60h-20a4 4 0 0 1-4-4Zm54.8 56.2A104.1 104.1 0 0 1 228 128a99.6 99.6 0 0 1-32.7 73.9l-.8.8a99.9 99.9 0 0 1-132.9 0a3.6 3.6 0 0 1-.9-.8A100 100 0 0 1 128 28a104.1 104.1 0 0 1 15.8 1.2a4 4 0 0 1 3.3 4.6a4 4 0 0 1-4.6 3.3A100 100 0 0 0 128 36a92 92 0 0 0-65.2 156.9a75.8 75.8 0 0 1 44.5-34.1a44 44 0 1 1 41.4 0a75.8 75.8 0 0 1 44.5 34.1A92.1 92.1 0 0 0 220 128a99 99 0 0 0-1.1-14.5a4 4 0 0 1 3.3-4.6a4 4 0 0 1 4.6 3.3ZM128 156a36 36 0 1 0-36-36a36 36 0 0 0 36 36Zm0 64a91.3 91.3 0 0 0 59.1-21.6a68 68 0 0 0-118.2 0A91.3 91.3 0 0 0 128 220Z"></path></svg>