<svg xmlns="http://www.w3.org/2000/svg" xmlns:xlink="http://www.w3.org/1999/xlink" aria-hidden="true" role="img" class="iconify iconify--ph" width="1em" height="1em" preserveAspectRatio="xMidYMid meet" viewBox="0 0 256 256"><path fill="currentColor" d="M252 136a4 4 0 0 1-4 4h-48a4 4 0 0 1 0-8h48a4 4 0 0 1 4 4Zm-55.1 61.4a4.1 4.1 0 0 1-.5 5.7a4.3 4.3 0 0 1-2.6.9a4.3 4.3 0 0 1-3.1-1.4a107.9 107.9 0 0 0-165.4 0a4 4 0 0 1-6.2-5.2a116.3 116.3 0 0 1 63.6-38.6a64 64 0 1 1 50.6 0a116.3 116.3 0 0 1 63.6 38.6ZM108 156a56 56 0 1 0-56-56a56 56 0 0 0 56 56Z"></path></svg>