<svg xmlns="http://www.w3.org/2000/svg" xmlns:xlink="http://www.w3.org/1999/xlink" aria-hidden="true" role="img" class="iconify iconify--ph" width="1em" height="1em" preserveAspectRatio="xMidYMid meet" viewBox="0 0 256 256"><path fill="currentColor" d="M172 56a4 4 0 0 1 4-4h48a4 4 0 0 1 0 8h-48a4 4 0 0 1-4-4Zm50.3 38.7a99.9 99.9 0 0 1-27 107.2l-.8.8a99.9 99.9 0 0 1-132.9 0a3.6 3.6 0 0 1-.9-.8A100 100 0 0 1 128 28a104.1 104.1 0 0 1 15.8 1.2a4.1 4.1 0 0 1 3.3 4.6a4 4 0 0 1-4.6 3.3A100 100 0 0 0 128 36a92 92 0 0 0-65.2 156.9a75.8 75.8 0 0 1 44.5-34.1a44 44 0 1 1 41.4 0a75.8 75.8 0 0 1 44.5 34.1A92.1 92.1 0 0 0 220 128a94.3 94.3 0 0 0-5.2-30.7a3.9 3.9 0 0 1 2.4-5.1a4 4 0 0 1 5.1 2.5ZM128 156a36 36 0 1 0-36-36a36 36 0 0 0 36 36Zm0 64a91.3 91.3 0 0 0 59.1-21.6a68 68 0 0 0-118.2 0A91.3 91.3 0 0 0 128 220Z"></path></svg>