<svg xmlns="http://www.w3.org/2000/svg" xmlns:xlink="http://www.w3.org/1999/xlink" aria-hidden="true" role="img" class="iconify iconify--ph" width="1em" height="1em" preserveAspectRatio="xMidYMid meet" viewBox="0 0 256 256"><path fill="currentColor" d="M168 100a60 60 0 1 1-60-60a60 60 0 0 1 60 60Z" opacity=".2"></path><path fill="currentColor" d="M144.1 157.6a68 68 0 1 0-72.2 0a118.4 118.4 0 0 0-55.8 37.3a8 8 0 0 0 12.2 10.2a104.2 104.2 0 0 1 159.4 0a7.8 7.8 0 0 0 11.2 1a7.9 7.9 0 0 0 1-11.2a118.4 118.4 0 0 0-55.8-37.3ZM56 100a52 52 0 1 1 52 52a52 52 0 0 1-52-52Zm192.2 43.1l-4.6-2.7a24.4 24.4 0 0 0 0-8.8l4.6-2.7a7.9 7.9 0 0 0 3-10.9a8.1 8.1 0 0 0-11-2.9l-4.6 2.7a24 24 0 0 0-7.6-4.4V108a8 8 0 0 0-16 0v5.4a24 24 0 0 0-7.6 4.4l-4.6-2.7a8.1 8.1 0 0 0-11 2.9a7.9 7.9 0 0 0 3 10.9l4.6 2.7a24.4 24.4 0 0 0 0 8.8l-4.6 2.7a8 8 0 0 0 4 14.9a7.6 7.6 0 0 0 4-1.1l4.6-2.7a24 24 0 0 0 7.6 4.4v5.4a8 8 0 0 0 16 0v-5.4a24 24 0 0 0 7.6-4.4l4.6 2.7a7.6 7.6 0 0 0 4 1.1a8 8 0 0 0 4-14.9ZM212 136a8 8 0 1 1 8 8a8 8 0 0 1-8-8Z"></path></svg>