<svg xmlns="http://www.w3.org/2000/svg" xmlns:xlink="http://www.w3.org/1999/xlink" aria-hidden="true" role="img" class="iconify iconify--ph" width="1em" height="1em" preserveAspectRatio="xMidYMid meet" viewBox="0 0 256 256"><path fill="currentColor" d="m250.8 130.8l-24 24a3.9 3.9 0 0 1-5.6 0l-24-24a4 4 0 1 1 5.6-5.6l17.2 17.1V128A92 92 0 0 0 50.7 78.1a4 4 0 1 1-6.7-4.4A100 100 0 0 1 228 128v14.3l17.2-17.1a4 4 0 1 1 5.6 5.6ZM212 182.3A100 100 0 0 1 28 128v-14.3l-17.2 17.1a3.9 3.9 0 0 1-5.6 0a3.9 3.9 0 0 1 0-5.6l24-24a3.9 3.9 0 0 1 5.6 0l24 24a3.9 3.9 0 0 1 0 5.6a3.9 3.9 0 0 1-5.6 0L36 113.7V128a92.1 92.1 0 0 0 26.8 64.9a75.8 75.8 0 0 1 44.5-34.1a44 44 0 1 1 41.4 0a76.2 76.2 0 0 1 44.5 34.1a93.4 93.4 0 0 0 12.1-15a4 4 0 1 1 6.7 4.4ZM128 156a36 36 0 1 0-36-36a36 36 0 0 0 36 36Zm0 64a92.2 92.2 0 0 0 59.2-21.5a68 68 0 0 0-118.3-.1A91.3 91.3 0 0 0 128 220Z"></path></svg>