<svg xmlns="http://www.w3.org/2000/svg" xmlns:xlink="http://www.w3.org/1999/xlink" aria-hidden="true" role="img" class="iconify iconify--ph" width="1em" height="1em" preserveAspectRatio="xMidYMid meet" viewBox="0 0 256 256"><path fill="currentColor" d="M24.8 125.6A12 12 0 0 0 32 128a12.2 12.2 0 0 0 9.6-4.8a48 48 0 0 1 76.8 0h.1l.7.8c0 .1.1.1.2.2l.6.6l.4.4l.4.3a.1.1 0 0 1 .1.1l.3.2l.6.4l.3.2l.8.3c0 .1.1.1.2.1l.9.4h.1a7.9 7.9 0 0 0 2.2.6h3.2l.9-.2h.4a11.7 11.7 0 0 0 2.4-.9l.4-.2l.7-.4l.5-.3l.4-.3l.2-.2l.4-.3l.7-.6l.3-.3l.7-.9h.1a48 48 0 0 1 76.8 0a12 12 0 0 0 19.2-14.4a72.4 72.4 0 0 0-25.3-21.2a40 40 0 1 0-64.6 0A71.5 71.5 0 0 0 128 98.3a71.5 71.5 0 0 0-15.7-10.7a40 40 0 1 0-64.6 0a72.4 72.4 0 0 0-25.3 21.2a12 12 0 0 0 2.4 16.8ZM160 64a16 16 0 1 1 16 16a16 16 0 0 1-16-16Zm-96 0a16 16 0 1 1 16 16a16 16 0 0 1-16-16Zm144.3 131.6a40 40 0 1 0-64.6 0a71.5 71.5 0 0 0-15.7 10.7a71.5 71.5 0 0 0-15.7-10.7a40 40 0 1 0-64.6 0a72.4 72.4 0 0 0-25.3 21.2A12 12 0 0 0 32 236a12.2 12.2 0 0 0 9.6-4.8a48 48 0 0 1 76.8 0h.1l.7.8a.2.2 0 0 0 .2.2l.6.6l.4.4l.4.3h.1l.3.2l.6.4l.3.2l.8.3l.2.2l.9.3h.1a7.9 7.9 0 0 0 2.2.6h3.2l.9-.2h.4l2.4-.9l.4-.2l.7-.4l.5-.3l.4-.3l.2-.2l.4-.3l.7-.6l.3-.3l.7-.9h.1a48 48 0 0 1 76.8 0a12 12 0 0 0 19.2-14.4a72.4 72.4 0 0 0-25.3-21.1ZM64 172a16 16 0 1 1 16 16a16 16 0 0 1-16-16Zm96 0a16 16 0 1 1 16 16a16 16 0 0 1-16-16Z"></path></svg>