<svg xmlns="http://www.w3.org/2000/svg" xmlns:xlink="http://www.w3.org/1999/xlink" aria-hidden="true" role="img" class="iconify iconify--ph" width="1em" height="1em" preserveAspectRatio="xMidYMid meet" viewBox="0 0 256 256"><path fill="currentColor" d="m252.2 132.2l-24 24a5.8 5.8 0 0 1-8.4 0l-24-24a5.9 5.9 0 0 1 8.4-8.4l13.8 13.7V128A90 90 0 0 0 52.4 79.2a6 6 0 0 1-8.3 1.7a5.9 5.9 0 0 1-1.8-8.2A102 102 0 0 1 230 128v9.5l13.8-13.7a5.9 5.9 0 0 1 8.4 8.4Zm-38.5 51.1A102 102 0 0 1 26 128v-9.5l-13.8 13.7a5.8 5.8 0 0 1-8.4 0a5.8 5.8 0 0 1 0-8.4l24-24a5.8 5.8 0 0 1 8.4 0l24 24a5.9 5.9 0 1 1-8.4 8.4L38 118.5v9.5a89.5 89.5 0 0 0 24.5 61.6a77.7 77.7 0 0 1 40-31.3a46 46 0 1 1 51 0a77 77 0 0 1 40 31.4a85.9 85.9 0 0 0 10.1-12.9a6 6 0 0 1 8.3-1.7a5.9 5.9 0 0 1 1.8 8.2ZM128 154a34 34 0 1 0-34-34a34.1 34.1 0 0 0 34 34Zm0 64a89.6 89.6 0 0 0 56.6-20a66.1 66.1 0 0 0-113.2 0a89.9 89.9 0 0 0 56.6 20Z"></path></svg>