<svg xmlns="http://www.w3.org/2000/svg" xmlns:xlink="http://www.w3.org/1999/xlink" aria-hidden="true" role="img" class="iconify iconify--ph" width="1em" height="1em" preserveAspectRatio="xMidYMid meet" viewBox="0 0 256 256"><path fill="currentColor" d="M168 100a60 60 0 1 1-60-60a60 60 0 0 1 60 60Z" opacity=".2"></path><path fill="currentColor" d="M256 136a8 8 0 0 1-8 8h-48a8 8 0 0 1 0-16h48a8 8 0 0 1 8 8Zm-56.1 58.9a7.9 7.9 0 0 1-1 11.2a7.8 7.8 0 0 1-11.2-1a104.2 104.2 0 0 0-159.4 0a8 8 0 0 1-12.2-10.2a118.4 118.4 0 0 1 55.8-37.3a68 68 0 1 1 72.2 0a118.4 118.4 0 0 1 55.8 37.3ZM108 152a52 52 0 1 0-52-52a52 52 0 0 0 52 52Z"></path></svg>