<svg xmlns="http://www.w3.org/2000/svg" xmlns:xlink="http://www.w3.org/1999/xlink" aria-hidden="true" role="img" class="iconify iconify--ph" width="1em" height="1em" preserveAspectRatio="xMidYMid meet" viewBox="0 0 256 256"><path fill="currentColor" d="M208 28H48a20.1 20.1 0 0 0-20 20v160a20.1 20.1 0 0 0 20 20h160a20.1 20.1 0 0 0 20-20V48a20.1 20.1 0 0 0-20-20Zm-4 24v144.2a82.4 82.4 0 0 0-39.1-39.6a52 52 0 1 0-73.8 0A82.4 82.4 0 0 0 52 196.2V52Zm-104 68a28 28 0 1 1 28 28a28.1 28.1 0 0 1-28-28Zm28 52a59.4 59.4 0 0 1 37.7 13.3a61.7 61.7 0 0 1 15.4 18.7H74.9a61.7 61.7 0 0 1 15.4-18.7A59.4 59.4 0 0 1 128 172Z"></path></svg>