<svg xmlns="http://www.w3.org/2000/svg" xmlns:xlink="http://www.w3.org/1999/xlink" aria-hidden="true" role="img" class="iconify iconify--ph" width="1em" height="1em" preserveAspectRatio="xMidYMid meet" viewBox="0 0 256 256"><path fill="currentColor" d="m252.5 140.5l-20 20a12.1 12.1 0 0 1-17 0l-20-20a12 12 0 0 1 16.3-17.6A84 84 0 0 0 61.5 76.7a12 12 0 0 1-19-14.7a108 108 0 0 1 193.4 61.2a12 12 0 0 1 16.6 17.3Zm-39 53.5a108 108 0 0 1-193.4-61.2a12 12 0 0 1-16.6-17.3l20-20a12 12 0 0 1 17 0l20 20a12 12 0 0 1 0 17A12.2 12.2 0 0 1 52 136a12 12 0 0 1-7.8-2.9a82.2 82.2 0 0 0 17.9 46.8A84 84 0 0 1 91 156.5a52 52 0 1 1 74 0a84.4 84.4 0 0 1 29 23.5l.5-.7a12 12 0 0 1 19 14.7ZM128 148a28 28 0 1 0-28-28a28.1 28.1 0 0 0 28 28Zm0 64a83 83 0 0 0 48.5-15.4a60 60 0 0 0-96.9 0A83.5 83.5 0 0 0 128 212Z"></path></svg>