<svg xmlns="http://www.w3.org/2000/svg" xmlns:xlink="http://www.w3.org/1999/xlink" aria-hidden="true" role="img" class="iconify iconify--ph" width="1em" height="1em" preserveAspectRatio="xMidYMid meet" viewBox="0 0 256 256"><circle cx="88" cy="108" r="52" fill="currentColor" opacity=".2"></circle><path fill="currentColor" d="M121.2 157.9a60 60 0 1 0-66.4 0a95.5 95.5 0 0 0-45.3 34.9a8 8 0 1 0 13 9.2a80.1 80.1 0 0 1 131 0a8 8 0 1 0 13-9.2a95.5 95.5 0 0 0-45.3-34.9ZM44 108a44 44 0 1 1 44 44a44 44 0 0 1-44-44Z"></path><path fill="currentColor" d="M248.1 192.8a96.3 96.3 0 0 0-45.4-34.9A59.9 59.9 0 0 0 169.5 48a64 64 0 0 0-16.3 2.2a8.1 8.1 0 0 0-5.5 9.9a8 8 0 0 0 9.9 5.5a47.4 47.4 0 0 1 11.9-1.6a44 44 0 0 1 0 88a8 8 0 0 0 0 16a80.2 80.2 0 0 1 65.5 34a7.9 7.9 0 0 0 11.1 1.9a8 8 0 0 0 2-11.1Z"></path></svg>