<svg xmlns="http://www.w3.org/2000/svg" xmlns:xlink="http://www.w3.org/1999/xlink" aria-hidden="true" role="img" class="iconify iconify--ph" width="1em" height="1em" preserveAspectRatio="xMidYMid meet" viewBox="0 0 256 256"><path fill="currentColor" d="M128 76a44 44 0 1 1-44 44a44 44 0 0 1 44-44Zm103.2-2a8 8 0 0 1-7 4a7.6 7.6 0 0 1-4-1.1l-4.6-2.7a24 24 0 0 1-7.6 4.4V84a8 8 0 0 1-16 0v-5.4a24 24 0 0 1-7.6-4.4l-4.6 2.7a7.6 7.6 0 0 1-4 1.1a8 8 0 0 1-4-14.9l4.6-2.7a21.2 21.2 0 0 1-.4-4.4a21.2 21.2 0 0 1 .4-4.4l-4.6-2.7a7.9 7.9 0 0 1-3-10.9a8.1 8.1 0 0 1 11-2.9l4.6 2.7a24 24 0 0 1 7.6-4.4V28a8 8 0 0 1 16 0v5.4a24 24 0 0 1 7.6 4.4l4.6-2.7a8.1 8.1 0 0 1 11 2.9a7.9 7.9 0 0 1-3 10.9l-4.6 2.7a21.2 21.2 0 0 1 .4 4.4a21.2 21.2 0 0 1-.4 4.4l4.6 2.7a7.9 7.9 0 0 1 3 10.9ZM200 64a8 8 0 1 0-8-8a8 8 0 0 0 8 8Zm22.4 44.6a8 8 0 0 0-7 8.8a94.2 94.2 0 0 1 .6 10.6a87.6 87.6 0 0 1-22.2 58.4a81.3 81.3 0 0 0-24.5-23a59.7 59.7 0 0 1-82.6 0a81.3 81.3 0 0 0-24.5 23A88 88 0 0 1 128 40a75 75 0 0 1 8.2.4a8 8 0 1 0 1.4-16c-3.1-.3-6.4-.4-9.6-.4a104 104 0 0 0-70.2 180.7l1.3 1.2a104 104 0 0 0 137.8 0l1.3-1.2A103.7 103.7 0 0 0 232 128a101.9 101.9 0 0 0-.7-12.4a8 8 0 0 0-8.9-7Z"></path></svg>