<svg xmlns="http://www.w3.org/2000/svg" xmlns:xlink="http://www.w3.org/1999/xlink" aria-hidden="true" role="img" class="iconify iconify--ph" width="1em" height="1em" preserveAspectRatio="xMidYMid meet" viewBox="0 0 256 256"><path fill="currentColor" d="M146 80a6 6 0 0 1 6-6h96a6 6 0 0 1 0 12h-96a6 6 0 0 1-6-6Zm102 42h-96a6 6 0 0 0 0 12h96a6 6 0 0 0 0-12Zm0 48h-72a6 6 0 0 0 0 12h72a6 6 0 0 0 0-12Zm-100.2 20.5a6 6 0 0 1-4.3 7.3l-1.5.2a6 6 0 0 1-5.8-4.5a58.1 58.1 0 0 0-112.4 0a6 6 0 0 1-11.6-3A69.9 69.9 0 0 1 55 142.6a46 46 0 1 1 50 0a69.9 69.9 0 0 1 42.8 47.9ZM80 138a34 34 0 1 0-34-34a34.1 34.1 0 0 0 34 34Z"></path></svg>