<svg xmlns="http://www.w3.org/2000/svg" xmlns:xlink="http://www.w3.org/1999/xlink" aria-hidden="true" role="img" class="iconify iconify--ph" width="1em" height="1em" preserveAspectRatio="xMidYMid meet" viewBox="0 0 256 256"><path fill="currentColor" d="M220 48v28a4 4 0 0 1-8 0V48a4 4 0 0 0-4-4h-28a4 4 0 0 1 0-8h28a12 12 0 0 1 12 12Zm-4 128a4 4 0 0 0-4 4v28a4 4 0 0 1-4 4h-28a4 4 0 0 0 0 8h28a12 12 0 0 0 12-12v-28a4 4 0 0 0-4-4ZM76 212H48a4 4 0 0 1-4-4v-28a4 4 0 0 0-8 0v28a12 12 0 0 0 12 12h28a4 4 0 0 0 0-8ZM40 80a4 4 0 0 0 4-4V48a4 4 0 0 1 4-4h28a4 4 0 0 0 0-8H48a12 12 0 0 0-12 12v28a4 4 0 0 0 4 4Zm137.5 97.9a55.9 55.9 0 0 0-99 0a4 4 0 0 1-7.1-3.8a64.2 64.2 0 0 1 37.9-31.3a36 36 0 1 1 37.4 0a64.2 64.2 0 0 1 37.9 31.3a4 4 0 0 1-1.7 5.4a2.9 2.9 0 0 1-1.8.5a4.2 4.2 0 0 1-3.6-2.1ZM128 140a28 28 0 1 0-28-28a28.1 28.1 0 0 0 28 28Z"></path></svg>