<svg xmlns="http://www.w3.org/2000/svg" xmlns:xlink="http://www.w3.org/1999/xlink" aria-hidden="true" role="img" class="iconify iconify--ph" width="1em" height="1em" preserveAspectRatio="xMidYMid meet" viewBox="0 0 256 256"><path fill="currentColor" d="M128 32a96 96 0 0 0-64.2 167.4A72 72 0 0 1 128 160a40 40 0 1 1 40-40a40 40 0 0 1-40 40a72 72 0 0 1 64.2 39.4A96 96 0 0 0 128 32Z" opacity=".2"></path><path fill="currentColor" d="M168 56a8 8 0 0 1 8-8h48a8 8 0 0 1 0 16h-48a8 8 0 0 1-8-8Zm58.1 37.3a104.2 104.2 0 0 1-27.9 111.4l-1.3 1.2a104 104 0 0 1-137.8 0l-1.3-1.2A104 104 0 0 1 128 24a99.8 99.8 0 0 1 16.4 1.3a8 8 0 0 1-2.5 15.8A92 92 0 0 0 128 40a88 88 0 0 0-65.8 146.4a79.2 79.2 0 0 1 36.1-28.7a48 48 0 1 1 59.4 0a79.2 79.2 0 0 1 36.1 28.7A88 88 0 0 0 211 98.7a7.9 7.9 0 0 1 4.9-10.2a8 8 0 0 1 10.2 4.8ZM128 152a32 32 0 1 0-32-32a32.1 32.1 0 0 0 32 32Zm0 64a87.4 87.4 0 0 0 53.9-18.5a64 64 0 0 0-107.8 0A87.4 87.4 0 0 0 128 216Z"></path></svg>