<svg xmlns="http://www.w3.org/2000/svg" xmlns:xlink="http://www.w3.org/1999/xlink" aria-hidden="true" role="img" class="iconify iconify--ph" width="1em" height="1em" preserveAspectRatio="xMidYMid meet" viewBox="0 0 256 256"><path fill="currentColor" d="m226.2 66.5l-7.2-4.2a20.3 20.3 0 0 0 0-12.6l7.2-4.2a4 4 0 0 0 1.5-5.5a4 4 0 0 0-5.5-1.5l-7.3 4.3a19.9 19.9 0 0 0-10.9-6.4V28a4 4 0 0 0-8 0v8.4a19.9 19.9 0 0 0-10.9 6.4l-7.3-4.3a4 4 0 0 0-5.5 1.5a4 4 0 0 0 1.5 5.5l7.2 4.2a20.3 20.3 0 0 0 0 12.6l-7.2 4.2a4 4 0 0 0 2 7.5a5.3 5.3 0 0 0 2-.5l7.3-4.3a19.9 19.9 0 0 0 10.9 6.4V84a4 4 0 0 0 8 0v-8.4a19.9 19.9 0 0 0 10.9-6.4l7.3 4.3a5.3 5.3 0 0 0 2 .5a4 4 0 0 0 2-7.5ZM200 68a12 12 0 1 1 12-12a12 12 0 0 1-12 12Zm22.8 44.5a4.2 4.2 0 0 0-3.5 4.5a80.2 80.2 0 0 1 .7 11a92.1 92.1 0 0 1-26.8 64.9a75.8 75.8 0 0 0-44.5-34.1a44 44 0 1 0-41.4 0a75.8 75.8 0 0 0-44.5 34.1A92 92 0 0 1 128 36a80.6 80.6 0 0 1 8.5.4a4 4 0 0 0 .8-8c-3.1-.3-6.2-.4-9.3-.4a100 100 0 0 0-67.3 173.9a3.6 3.6 0 0 0 .9.8a99.8 99.8 0 0 0 132.8 0a3.6 3.6 0 0 0 .9-.8A99.6 99.6 0 0 0 228 128a96.6 96.6 0 0 0-.7-12a4.1 4.1 0 0 0-4.5-3.5ZM92 120a36 36 0 1 1 36 36a36 36 0 0 1-36-36Zm-23.1 78.4a68 68 0 0 1 118.2 0a91.7 91.7 0 0 1-118.2 0Z"></path></svg>