<svg xmlns="http://www.w3.org/2000/svg" xmlns:xlink="http://www.w3.org/1999/xlink" aria-hidden="true" role="img" class="iconify iconify--ph" width="1em" height="1em" preserveAspectRatio="xMidYMid meet" viewBox="0 0 256 256"><path fill="currentColor" d="M116.5 158.5a58 58 0 1 0-57 0a93.6 93.6 0 0 0-48.4 35.4a6 6 0 0 0 1.4 8.4a6.6 6.6 0 0 0 3.5 1.1a6.1 6.1 0 0 0 4.9-2.5a82 82 0 0 1 134.2-.1a6 6 0 0 0 8.4 1.5a6.1 6.1 0 0 0 1.4-8.4a94.4 94.4 0 0 0-48.4-35.4ZM42 108a46 46 0 1 1 46 46a46 46 0 0 1-46-46Zm203 94.3a6.6 6.6 0 0 1-3.5 1.1a5.9 5.9 0 0 1-4.9-2.6a82 82 0 0 0-67.1-34.8a6 6 0 0 1 0-12a46 46 0 0 0 0-92a48.3 48.3 0 0 0-12.5 1.7a6 6 0 1 1-3.2-11.5a55.6 55.6 0 0 1 15.7-2.2a58 58 0 0 1 28.6 108.5a93.8 93.8 0 0 1 48.3 35.4a6.1 6.1 0 0 1-1.4 8.4Z"></path></svg>