<svg xmlns="http://www.w3.org/2000/svg" xmlns:xlink="http://www.w3.org/1999/xlink" aria-hidden="true" role="img" class="iconify iconify--ph" width="1em" height="1em" preserveAspectRatio="xMidYMid meet" viewBox="0 0 256 256"><path fill="currentColor" d="M222 48v28a6 6 0 0 1-12 0V48a2 2 0 0 0-2-2h-28a6 6 0 0 1 0-12h28a14 14 0 0 1 14 14Zm-6 126a6 6 0 0 0-6 6v28a2 2 0 0 1-2 2h-28a6 6 0 0 0 0 12h28a14 14 0 0 0 14-14v-28a6 6 0 0 0-6-6ZM76 210H48a2 2 0 0 1-2-2v-28a6 6 0 0 0-12 0v28a14 14 0 0 0 14 14h28a6 6 0 0 0 0-12ZM40 82a6 6 0 0 0 6-6V48a2 2 0 0 1 2-2h28a6 6 0 0 0 0-12H48a14 14 0 0 0-14 14v28a6 6 0 0 0 6 6Zm135.8 96.8a54.1 54.1 0 0 0-95.6 0a6 6 0 0 1-8.1 2.5a6.1 6.1 0 0 1-2.5-8.1a65.7 65.7 0 0 1 35.3-31a38 38 0 1 1 46.2 0a65.7 65.7 0 0 1 35.3 31a6.1 6.1 0 0 1-2.5 8.1a5.8 5.8 0 0 1-2.8.7a6 6 0 0 1-5.3-3.2ZM128 138a26 26 0 1 0-26-26a26.1 26.1 0 0 0 26 26Z"></path></svg>