<svg xmlns="http://www.w3.org/2000/svg" xmlns:xlink="http://www.w3.org/1999/xlink" aria-hidden="true" role="img" class="iconify iconify--ph" width="1em" height="1em" preserveAspectRatio="xMidYMid meet" viewBox="0 0 256 256"><path fill="currentColor" d="M216 48H40a8 8 0 0 0-8 8v136a8 8 0 0 0 8 8h176a8 8 0 0 0 8-8V56a8 8 0 0 0-8-8Zm-64 120a40 40 0 1 1 40-40a40 40 0 0 1-40 40Z" opacity=".2"></path><path fill="currentColor" d="M216 40H40a16 16 0 0 0-16 16v136a16 16 0 0 0 16 16h16v16a8 8 0 0 0 16 0v-16h112v16a8 8 0 0 0 16 0v-16h16a16 16 0 0 0 16-16V56a16 16 0 0 0-16-16Zm0 152H40V56h176v64h-16.7a48 48 0 1 0 0 16H216v56Zm-50.2-72a15.8 15.8 0 0 0-13.8-8a16 16 0 0 0 0 32a15.8 15.8 0 0 0 13.8-8H183a32 32 0 1 1 0-16Z"></path></svg>