<svg xmlns="http://www.w3.org/2000/svg" xmlns:xlink="http://www.w3.org/1999/xlink" aria-hidden="true" role="img" class="iconify iconify--ph" width="1em" height="1em" preserveAspectRatio="xMidYMid meet" viewBox="0 0 256 256"><path fill="currentColor" d="M216 44H40a12 12 0 0 0-12 12v136a12 12 0 0 0 12 12h20v20a4 4 0 0 0 8 0v-20h120v20a4 4 0 0 0 8 0v-20h20a12 12 0 0 0 12-12V56a12 12 0 0 0-12-12Zm0 152H40a4 4 0 0 1-4-4V56a4 4 0 0 1 4-4h176a4 4 0 0 1 4 4v68h-24.2a44 44 0 1 0 0 8H220v60a4 4 0 0 1-4 4Zm-52.7-72a11.9 11.9 0 0 0-11.3-8a12 12 0 0 0 0 24a11.9 11.9 0 0 0 11.3-8h24.5a36 36 0 1 1 0-8Z"></path></svg>