<svg xmlns="http://www.w3.org/2000/svg" xmlns:xlink="http://www.w3.org/1999/xlink" aria-hidden="true" role="img" class="iconify iconify--ph" width="1em" height="1em" preserveAspectRatio="xMidYMid meet" viewBox="0 0 256 256"><path fill="currentColor" d="M216 42H40a14 14 0 0 0-14 14v136a14 14 0 0 0 14 14h18v18a6 6 0 0 0 12 0v-18h116v18a6 6 0 0 0 12 0v-18h18a14 14 0 0 0 14-14V56a14 14 0 0 0-14-14Zm0 152H40a2 2 0 0 1-2-2V56a2 2 0 0 1 2-2h176a2 2 0 0 1 2 2v66h-20.4a46 46 0 1 0 0 12H218v58a2 2 0 0 1-2 2Zm-51.4-72a14 14 0 1 0 0 12h20.9a34 34 0 1 1 0-12Z"></path></svg>