<svg xmlns="http://www.w3.org/2000/svg" xmlns:xlink="http://www.w3.org/1999/xlink" aria-hidden="true" role="img" class="iconify iconify--ph" width="1em" height="1em" preserveAspectRatio="xMidYMid meet" viewBox="0 0 256 256"><path fill="currentColor" d="M216 40H40a16 16 0 0 0-16 16v136a16 16 0 0 0 16 16h16v16a8 8 0 0 0 16 0v-16h112v16a8 8 0 0 0 16 0v-16h16a16 16 0 0 0 16-16V56a16 16 0 0 0-16-16Zm-8 96h-28.9a36 36 0 1 1 0-16H208a8 8 0 0 1 0 16Zm-44-8a20 20 0 1 1-20-20a20.1 20.1 0 0 1 20 20Z"></path></svg>