<svg xmlns="http://www.w3.org/2000/svg" xmlns:xlink="http://www.w3.org/1999/xlink" aria-hidden="true" role="img" class="iconify iconify--ph" width="1em" height="1em" preserveAspectRatio="xMidYMid meet" viewBox="0 0 256 256"><path fill="currentColor" d="M216 36H40a20.1 20.1 0 0 0-20 20v136a20.1 20.1 0 0 0 20 20h12v12a12 12 0 0 0 24 0v-12h104v12a12 12 0 0 0 24 0v-12h12a20.1 20.1 0 0 0 20-20V56a20.1 20.1 0 0 0-20-20ZM44 188V60h168v56h-21.7a44 44 0 1 0 0 24H212v48Zm124-60a20 20 0 1 1-20-20a20.1 20.1 0 0 1 20 20Z"></path></svg>