<svg xmlns="http://www.w3.org/2000/svg" xmlns:xlink="http://www.w3.org/1999/xlink" aria-hidden="true" role="img" class="iconify iconify--ph" width="1em" height="1em" preserveAspectRatio="xMidYMid meet" viewBox="0 0 256 256"><path fill="currentColor" d="M160 32H96a24.1 24.1 0 0 0-24 24v144a24.1 24.1 0 0 0 24 24h64a24.1 24.1 0 0 0 24-24V56a24.1 24.1 0 0 0-24-24Zm8 168a8 8 0 0 1-8 8H96a8 8 0 0 1-8-8V56a8 8 0 0 1 8-8h64a8 8 0 0 1 8 8Zm48-112v80a8 8 0 0 1-16 0V88a8 8 0 0 1 16 0Zm32 16v48a8 8 0 0 1-16 0v-48a8 8 0 0 1 16 0ZM56 88v80a8 8 0 0 1-16 0V88a8 8 0 0 1 16 0Zm-32 16v48a8 8 0 0 1-16 0v-48a8 8 0 0 1 16 0Z"></path></svg>