<svg xmlns="http://www.w3.org/2000/svg" xmlns:xlink="http://www.w3.org/1999/xlink" aria-hidden="true" role="img" class="iconify iconify--ph" width="1em" height="1em" preserveAspectRatio="xMidYMid meet" viewBox="0 0 256 256"><path fill="currentColor" d="M164 28H92a28.1 28.1 0 0 0-28 28v144a28.1 28.1 0 0 0 28 28h72a28.1 28.1 0 0 0 28-28V56a28.1 28.1 0 0 0-28-28Zm4 172a4 4 0 0 1-4 4H92a4 4 0 0 1-4-4V56a4 4 0 0 1 4-4h72a4 4 0 0 1 4 4Zm64-100v56a12 12 0 0 1-24 0v-56a12 12 0 0 1 24 0Zm-184 0v56a12 12 0 0 1-24 0v-56a12 12 0 0 1 24 0Z"></path></svg>