<svg xmlns="http://www.w3.org/2000/svg" xmlns:xlink="http://www.w3.org/1999/xlink" aria-hidden="true" role="img" class="iconify iconify--ph" width="1em" height="1em" preserveAspectRatio="xMidYMid meet" viewBox="0 0 256 256"><rect width="176" height="96" x="40" y="80" fill="currentColor" opacity=".2" rx="16" transform="rotate(90 128 128)"></rect><path fill="currentColor" d="M160 32H96a24.1 24.1 0 0 0-24 24v144a24.1 24.1 0 0 0 24 24h64a24.1 24.1 0 0 0 24-24V56a24.1 24.1 0 0 0-24-24Zm8 168a8 8 0 0 1-8 8H96a8 8 0 0 1-8-8V56a8 8 0 0 1 8-8h64a8 8 0 0 1 8 8Zm40-120a8 8 0 0 0-8 8v80a8 8 0 0 0 16 0V88a8 8 0 0 0-8-8Zm32 16a8 8 0 0 0-8 8v48a8 8 0 0 0 16 0v-48a8 8 0 0 0-8-8ZM48 80a8 8 0 0 0-8 8v80a8 8 0 0 0 16 0V88a8 8 0 0 0-8-8ZM16 96a8 8 0 0 0-8 8v48a8 8 0 0 0 16 0v-48a8 8 0 0 0-8-8Z"></path></svg>