<svg xmlns="http://www.w3.org/2000/svg" xmlns:xlink="http://www.w3.org/1999/xlink" aria-hidden="true" role="img" class="iconify iconify--ph" width="1em" height="1em" preserveAspectRatio="xMidYMid meet" viewBox="0 0 256 256"><path fill="currentColor" d="M160 34H96a22.1 22.1 0 0 0-22 22v144a22.1 22.1 0 0 0 22 22h64a22.1 22.1 0 0 0 22-22V56a22.1 22.1 0 0 0-22-22Zm10 166a10 10 0 0 1-10 10H96a10 10 0 0 1-10-10V56a10 10 0 0 1 10-10h64a10 10 0 0 1 10 10Zm44-112v80a6 6 0 0 1-12 0V88a6 6 0 0 1 12 0Zm32 16v48a6 6 0 0 1-12 0v-48a6 6 0 0 1 12 0ZM54 88v80a6 6 0 0 1-12 0V88a6 6 0 0 1 12 0Zm-32 16v48a6 6 0 0 1-12 0v-48a6 6 0 0 1 12 0Z"></path></svg>