<svg xmlns="http://www.w3.org/2000/svg" xmlns:xlink="http://www.w3.org/1999/xlink" aria-hidden="true" role="img" class="iconify iconify--ph" width="1em" height="1em" preserveAspectRatio="xMidYMid meet" viewBox="0 0 256 256"><path fill="currentColor" d="M246 69.6a12.2 12.2 0 0 0-12 0l-38 21.7V68a20.1 20.1 0 0 0-20-20h-54.3a12 12 0 1 0 0 24H172v85L43.8 15.9A12 12 0 1 0 26 32.1L40.5 48H24A20.1 20.1 0 0 0 4 68v120a20.1 20.1 0 0 0 20 20h152a20.6 20.6 0 0 0 8.3-1.8l30.8 33.9a12.1 12.1 0 0 0 17 .8a12.1 12.1 0 0 0 .8-17L196 183.4v-18.7l38 21.7a11.7 11.7 0 0 0 6 1.6a11.5 11.5 0 0 0 6-1.6a12.1 12.1 0 0 0 6-10.4V80a12.1 12.1 0 0 0-6-10.4ZM28 184V72h34.3l101.8 112Zm200-28.7L196 137v-18l32-18.3Z"></path></svg>