<svg xmlns="http://www.w3.org/2000/svg" xmlns:xlink="http://www.w3.org/1999/xlink" aria-hidden="true" role="img" class="iconify iconify--ph" width="1em" height="1em" preserveAspectRatio="xMidYMid meet" viewBox="0 0 256 256"><path fill="currentColor" d="M176 92v96a16 16 0 0 1-16 16H48a40 40 0 0 1-40-40V68a16 16 0 0 1 16-16h112a40 40 0 0 1 40 40Zm68-18.9a7.7 7.7 0 0 0-8 0l-40 22.8a8 8 0 0 0-4 7v50.2a8 8 0 0 0 4 7l40 22.8a8.3 8.3 0 0 0 4 1.1a8 8 0 0 0 4-1.1a7.8 7.8 0 0 0 4-6.9V80a7.8 7.8 0 0 0-4-6.9Z"></path></svg>