<svg xmlns="http://www.w3.org/2000/svg" xmlns:xlink="http://www.w3.org/1999/xlink" aria-hidden="true" role="img" class="iconify iconify--ph" width="1em" height="1em" preserveAspectRatio="xMidYMid meet" viewBox="0 0 256 256"><path fill="currentColor" d="M246 69.6a12.2 12.2 0 0 0-12 0l-38 21.7A44.1 44.1 0 0 0 152 48H24A20.1 20.1 0 0 0 4 68v96a44 44 0 0 0 44 44h128a20.1 20.1 0 0 0 20-20v-23.3l38 21.7a11.7 11.7 0 0 0 6 1.6a11.5 11.5 0 0 0 6-1.6a12.1 12.1 0 0 0 6-10.4V80a12.1 12.1 0 0 0-6-10.4ZM172 184H48a20.1 20.1 0 0 1-20-20V72h124a20.1 20.1 0 0 1 20 20Zm56-28.7L196 137v-18l32-18.3Z"></path></svg>