<svg xmlns="http://www.w3.org/2000/svg" xmlns:xlink="http://www.w3.org/1999/xlink" aria-hidden="true" role="img" class="iconify iconify--ph" width="1em" height="1em" preserveAspectRatio="xMidYMid meet" viewBox="0 0 256 256"><path fill="currentColor" d="M24 60h128a32 32 0 0 1 32 32v96a8 8 0 0 1-8 8H48a32 32 0 0 1-32-32V68a8 8 0 0 1 8-8Z" opacity=".2"></path><path fill="currentColor" d="M244 73.1a7.7 7.7 0 0 0-8 0l-44 25.1V92a40 40 0 0 0-40-40H24A16 16 0 0 0 8 68v96a40 40 0 0 0 40 40h128a16 16 0 0 0 16-16v-30.2l44 25.1a8.3 8.3 0 0 0 4 1.1a8 8 0 0 0 4-1.1a7.8 7.8 0 0 0 4-6.9V80a7.8 7.8 0 0 0-4-6.9ZM176 188H48a24.1 24.1 0 0 1-24-24V68h128a24.1 24.1 0 0 1 24 24v96Zm56-25.8l-40-22.8v-22.8l40-22.8Z"></path></svg>