<svg xmlns="http://www.w3.org/2000/svg" xmlns:xlink="http://www.w3.org/1999/xlink" aria-hidden="true" role="img" class="iconify iconify--ph" width="1em" height="1em" preserveAspectRatio="xMidYMid meet" viewBox="0 0 256 256"><path fill="currentColor" d="M242 76.5a4.1 4.1 0 0 0-4 0l-50 28.6V92a36 36 0 0 0-36-36H24a12 12 0 0 0-12 12v96a36 36 0 0 0 36 36h128a12 12 0 0 0 12-12v-37.1l50 28.6a4.3 4.3 0 0 0 4 0a4.3 4.3 0 0 0 2-3.5V80a4.3 4.3 0 0 0-2-3.5ZM180 188a4 4 0 0 1-4 4H48a28.1 28.1 0 0 1-28-28V68a4 4 0 0 1 4-4h128a28.1 28.1 0 0 1 28 28Zm56-18.9l-48-27.4v-27.4l48-27.4Z"></path></svg>