<svg xmlns="http://www.w3.org/2000/svg" xmlns:xlink="http://www.w3.org/1999/xlink" aria-hidden="true" role="img" class="iconify iconify--ph" width="1em" height="1em" preserveAspectRatio="xMidYMid meet" viewBox="0 0 256 256"><path fill="currentColor" d="M242 76.5a4.1 4.1 0 0 0-4 0l-50 28.6V68a12 12 0 0 0-12-12h-65.1a4 4 0 0 0 0 8H176a4 4 0 0 1 4 4v76a4.2 4.2 0 0 0 2 3.5l56 32a4.3 4.3 0 0 0 4 0a4.3 4.3 0 0 0 2-3.5V80a4.3 4.3 0 0 0-2-3.5Zm-6 92.6l-48-27.4v-27.4l48-27.4ZM37.9 21.3a4 4 0 0 0-6 5.4L58.6 56H24a12 12 0 0 0-12 12v120a12 12 0 0 0 12 12h152a12.2 12.2 0 0 0 9.4-4.5l35.6 39.2a4.1 4.1 0 0 0 5.7.3a4.2 4.2 0 0 0 .3-5.7ZM176 192H24a4 4 0 0 1-4-4V68a4 4 0 0 1 4-4h41.9l113.9 125.3a4 4 0 0 1-3.8 2.7Z"></path></svg>