<svg xmlns="http://www.w3.org/2000/svg" xmlns:xlink="http://www.w3.org/1999/xlink" aria-hidden="true" role="img" class="iconify iconify--ph" width="1em" height="1em" preserveAspectRatio="xMidYMid meet" viewBox="0 0 256 256"><path fill="currentColor" d="M244 73.1a7.7 7.7 0 0 0-8 0l-44 25.1V68a16 16 0 0 0-16-16h-65.1a8 8 0 0 0 0 16H176v76a7.8 7.8 0 0 0 4 6.9l56 32a8.3 8.3 0 0 0 4 1.1a8 8 0 0 0 4-1.1a7.8 7.8 0 0 0 4-6.9V80a7.8 7.8 0 0 0-4-6.9Zm-12 89.1l-40-22.8v-22.8l40-22.8ZM40.8 18.6a7.9 7.9 0 0 0-11.3-.5a8 8 0 0 0-.5 11.3L49.6 52H24A16 16 0 0 0 8 68v120a16 16 0 0 0 16 16h152a15.9 15.9 0 0 0 9.1-2.9l33 36.3a8 8 0 0 0 5.9 2.6a8.2 8.2 0 0 0 5.4-2.1a7.9 7.9 0 0 0 .5-11.3ZM24 188V68h40.1l109.1 120Z"></path></svg>