<svg xmlns="http://www.w3.org/2000/svg" xmlns:xlink="http://www.w3.org/1999/xlink" aria-hidden="true" role="img" class="iconify iconify--ph" width="1em" height="1em" preserveAspectRatio="xMidYMid meet" viewBox="0 0 256 256"><path fill="currentColor" d="M243 74.8a5.9 5.9 0 0 0-6 0l-47 26.9V68a14 14 0 0 0-14-14h-65.1a6 6 0 0 0 0 12H176a2 2 0 0 1 2 2v76a6.1 6.1 0 0 0 3 5.2l56 32a6 6 0 0 0 6 0a6 6 0 0 0 3-5.2V80a6 6 0 0 0-3-5.2Zm-9 90.9l-44-25.2v-25l44-25.2ZM39.3 20a5.9 5.9 0 1 0-8.8 8l23.6 26H24a14 14 0 0 0-14 14v120a14 14 0 0 0 14 14h152a13.8 13.8 0 0 0 9.3-3.6l34.3 37.6a5.9 5.9 0 0 0 4.4 2a5.7 5.7 0 0 0 4-1.6a5.8 5.8 0 0 0 .4-8.4ZM176 190H24a2 2 0 0 1-2-2V68a2 2 0 0 1 2-2h41l112.3 123.5a2.1 2.1 0 0 1-1.3.5Z"></path></svg>