<svg xmlns="http://www.w3.org/2000/svg" xmlns:xlink="http://www.w3.org/1999/xlink" aria-hidden="true" role="img" class="iconify iconify--ph" width="1em" height="1em" preserveAspectRatio="xMidYMid meet" viewBox="0 0 256 256"><path fill="currentColor" d="M243 74.8a5.9 5.9 0 0 0-6 0l-47 26.9V92a38 38 0 0 0-38-38H24a14 14 0 0 0-14 14v96a38 38 0 0 0 38 38h128a14 14 0 0 0 14-14v-33.7l47 26.9a6 6 0 0 0 6 0a6 6 0 0 0 3-5.2V80a6 6 0 0 0-3-5.2ZM178 188a2 2 0 0 1-2 2H48a26.1 26.1 0 0 1-26-26V68a2 2 0 0 1 2-2h128a26.1 26.1 0 0 1 26 26Zm56-22.3l-44-25.2v-25l44-25.2Z"></path></svg>