<svg xmlns="http://www.w3.org/2000/svg" xmlns:xlink="http://www.w3.org/1999/xlink" aria-hidden="true" role="img" class="iconify iconify--ph" width="1em" height="1em" preserveAspectRatio="xMidYMid meet" viewBox="0 0 256 256"><path fill="currentColor" d="M216 36H40a20.1 20.1 0 0 0-20 20v144a20.1 20.1 0 0 0 20 20h176a20.1 20.1 0 0 0 20-20V56a20.1 20.1 0 0 0-20-20Zm-4 160H44V60h168ZM81.4 166c12.6 9 29.2 14 46.6 14s34-5 46.6-14s21.4-23.5 21.4-38s-7.8-28.3-21.4-38s-29.2-14-46.6-14s-34 5-46.6 14S60 113.5 60 128s7.8 28.3 21.4 38Zm46.6-66c23.9 0 44 12.8 44 28s-20.1 28-44 28s-44-12.8-44-28s20.1-28 44-28Z"></path></svg>