<svg xmlns="http://www.w3.org/2000/svg" xmlns:xlink="http://www.w3.org/1999/xlink" aria-hidden="true" role="img" class="iconify iconify--ph" width="1em" height="1em" preserveAspectRatio="xMidYMid meet" viewBox="0 0 256 256"><circle cx="56" cy="128" r="48" fill="currentColor" opacity=".2"></circle><circle cx="200" cy="128" r="48" fill="currentColor" opacity=".2"></circle><path fill="currentColor" d="M200 72a55.9 55.9 0 0 0-39.1 96H95.1A55.9 55.9 0 1 0 56 184h144a56 56 0 0 0 0-112ZM16 128a40 40 0 1 1 40 40a40 40 0 0 1-40-40Zm184 40a40 40 0 1 1 40-40a40 40 0 0 1-40 40Z"></path></svg>