<svg xmlns="http://www.w3.org/2000/svg" xmlns:xlink="http://www.w3.org/1999/xlink" aria-hidden="true" role="img" class="iconify iconify--ph" width="1em" height="1em" preserveAspectRatio="xMidYMid meet" viewBox="0 0 256 256"><path fill="currentColor" d="M224 167.9a105.7 105.7 0 0 0 8-39.3v-1A104 104 0 1 0 37.9 180c2 3.4 4.2 6.7 6.5 9.9l.5.7a103.9 103.9 0 0 0 178.2-20.7a7.2 7.2 0 0 0 .9-2ZM91.1 48.1a89.1 89.1 0 0 1 24.3-7.2a88.1 88.1 0 0 1 50 79.1h-32.8Zm41.5 87.9h83a89.3 89.3 0 0 1-5.9 24.6a88.2 88.2 0 0 1-93.5 3.8Zm71.6-52a87.2 87.2 0 0 1 11.4 36h-34.2a105 105 0 0 0-35.7-78.2A88 88 0 0 1 204.2 84ZM77.3 56.1l17.1 29.7a104.4 104.4 0 0 0-49.9 70.1a88.2 88.2 0 0 1 32.8-99.8ZM58.9 182.5a88 88 0 0 1 43.5-82.9l16.4 28.4l-41.5 71.9a84.2 84.2 0 0 1-18.4-17.4ZM172 204.2a87.9 87.9 0 0 1-80.9 3.6l17.1-29.6a104.4 104.4 0 0 0 85.6 8.2a88.4 88.4 0 0 1-21.8 17.8Z"></path></svg>