<svg xmlns="http://www.w3.org/2000/svg" xmlns:xlink="http://www.w3.org/1999/xlink" aria-hidden="true" role="img" class="iconify iconify--ph" width="1em" height="1em" preserveAspectRatio="xMidYMid meet" viewBox="0 0 256 256"><path fill="currentColor" d="M222.1 167.2a102 102 0 0 0 7.9-38.6v-1A102.1 102.1 0 0 0 216.3 77A102 102 0 1 0 39.7 179a97.3 97.3 0 0 0 6.6 10.1l.2.2a101.9 101.9 0 0 0 132.5 27a101.3 101.3 0 0 0 42.4-47.3a13.4 13.4 0 0 0 .7-1.8ZM88.3 47.2a88.4 88.4 0 0 1 27.4-8.3a89.3 89.3 0 0 1 39.6 36.4a88.3 88.3 0 0 1 12 46.7h-35.8Zm43.2 86.8h86.3a92.3 92.3 0 0 1-6.5 27.9a90 90 0 0 1-97.8 3.2Zm74.4-51a88.9 88.9 0 0 1 11.9 39h-38.5a100.7 100.7 0 0 0-13.6-52.7a102.2 102.2 0 0 0-27.1-30.6A89.6 89.6 0 0 1 205.9 83Zm-128-29.8l19.2 33.3a102.4 102.4 0 0 0-51.8 77.1A90.3 90.3 0 0 1 77.9 53.2ZM57 183.3a89 89 0 0 1 11.7-52.6a90 90 0 0 1 34.4-33.8l18 31.1l-43.2 74.8A91.9 91.9 0 0 1 57 183.3Zm116 22.6a89.7 89.7 0 0 1-84.7 2.8l19.2-33.2a102.2 102.2 0 0 0 92.6 6.3a88.9 88.9 0 0 1-27.1 24.1Z"></path></svg>