<svg xmlns="http://www.w3.org/2000/svg" xmlns:xlink="http://www.w3.org/1999/xlink" aria-hidden="true" role="img" class="iconify iconify--ph" width="1em" height="1em" preserveAspectRatio="xMidYMid meet" viewBox="0 0 256 256"><path fill="currentColor" d="M227.7 169.3a107.3 107.3 0 0 0 8.3-40.7v-1.1a108 108 0 0 0-162-93C22.4 64.2 4.7 130.4 34.5 182a101 101 0 0 0 6.7 10.3l.6.8a106.9 106.9 0 0 0 58.2 39.2a109.2 109.2 0 0 0 28.2 3.7a108 108 0 0 0 98.5-64.3a8.2 8.2 0 0 0 1-2.4ZM114.7 45a84.4 84.4 0 0 1 46.6 71h-26.4L96.8 50a86.6 86.6 0 0 1 17.9-5Zm20.2 95h76.2a85.1 85.1 0 0 1-4.7 18a83.9 83.9 0 0 1-84.6 4.8Zm65.8-54a82 82 0 0 1 10.4 30h-25.8a108.3 108.3 0 0 0-14.4-49.7a109.5 109.5 0 0 0-11.4-16.2A83.4 83.4 0 0 1 200.7 86ZM76 62l13 22.4a107.8 107.8 0 0 0-35.9 37.3a115.6 115.6 0 0 0-8.3 17.9A84.5 84.5 0 0 1 76 62ZM62.8 181a82.7 82.7 0 0 1 11.1-47.3a84 84 0 0 1 27.1-28.5l13.1 22.8L76 194a85.4 85.4 0 0 1-13.2-13Zm43.5 28.1a75.3 75.3 0 0 1-9.5-3.1l12.9-22.4a108.4 108.4 0 0 0 70 10.6a78.1 78.1 0 0 1-9.7 6.5a83 83 0 0 1-63.7 8.4Z"></path></svg>