<svg xmlns="http://www.w3.org/2000/svg" xmlns:xlink="http://www.w3.org/1999/xlink" aria-hidden="true" role="img" class="iconify iconify--ph" width="1em" height="1em" preserveAspectRatio="xMidYMid meet" viewBox="0 0 256 256"><path fill="currentColor" d="M232 127.6A104 104 0 1 0 37.9 180c2 3.4 4.2 6.7 6.5 9.9l.5.7a103.9 103.9 0 0 0 178.2-20.7a7.2 7.2 0 0 0 .9-2a105.7 105.7 0 0 0 8-39.3v-1ZM44.5 155.9a88.2 88.2 0 0 1 32.8-99.8l17.1 29.7a104.4 104.4 0 0 0-49.9 70.1Zm32.8 44a84.2 84.2 0 0 1-18.4-17.4a88 88 0 0 1 43.5-82.9l16.4 28.4Zm132.4-39.3a88.2 88.2 0 0 1-93.5 3.8l16.4-28.4h83a89.3 89.3 0 0 1-5.9 24.6ZM181.4 120a105 105 0 0 0-35.7-78.2a87.9 87.9 0 0 1 69.9 78.2Z"></path></svg>