<svg xmlns="http://www.w3.org/2000/svg" xmlns:xlink="http://www.w3.org/1999/xlink" aria-hidden="true" role="img" class="iconify iconify--ph" width="1em" height="1em" preserveAspectRatio="xMidYMid meet" viewBox="0 0 256 256"><path fill="currentColor" d="M216 72H56a8 8 0 0 1 0-16h136a8 8 0 0 0 0-16H56a24.1 24.1 0 0 0-24 24v128a24.1 24.1 0 0 0 24 24h160a16 16 0 0 0 16-16V88a16 16 0 0 0-16-16Zm0 128H56a8 8 0 0 1-8-8V86.6a23.6 23.6 0 0 0 8 1.4h160Zm-48-56a12 12 0 1 1 12 12a12 12 0 0 1-12-12Z"></path></svg>