<svg xmlns="http://www.w3.org/2000/svg" xmlns:xlink="http://www.w3.org/1999/xlink" aria-hidden="true" role="img" class="iconify iconify--ph" width="1em" height="1em" preserveAspectRatio="xMidYMid meet" viewBox="0 0 256 256"><path fill="currentColor" d="M216 76H56a12 12 0 0 1 0-24h136a4 4 0 0 0 0-8H56a20.1 20.1 0 0 0-20 20v128a20.1 20.1 0 0 0 20 20h160a12 12 0 0 0 12-12V88a12 12 0 0 0-12-12Zm4 124a4 4 0 0 1-4 4H56a12 12 0 0 1-12-12V80a19.9 19.9 0 0 0 12 4h160a4 4 0 0 1 4 4Zm-32-56a8 8 0 1 1-8-8a8 8 0 0 1 8 8Z"></path></svg>