<svg xmlns="http://www.w3.org/2000/svg" xmlns:xlink="http://www.w3.org/1999/xlink" aria-hidden="true" role="img" class="iconify iconify--ph" width="1em" height="1em" preserveAspectRatio="xMidYMid meet" viewBox="0 0 256 256"><path fill="currentColor" d="M216 74H56a10 10 0 0 1 0-20h136a6 6 0 0 0 0-12H56a22.1 22.1 0 0 0-22 22v128a22.1 22.1 0 0 0 22 22h160a14 14 0 0 0 14-14V88a14 14 0 0 0-14-14Zm2 126a2 2 0 0 1-2 2H56a10 10 0 0 1-10-10V83.6A22.3 22.3 0 0 0 56 86h160a2 2 0 0 1 2 2Zm-28-56a10 10 0 1 1-10-10a10 10 0 0 1 10 10Z"></path></svg>