<svg xmlns="http://www.w3.org/2000/svg" xmlns:xlink="http://www.w3.org/1999/xlink" aria-hidden="true" role="img" class="iconify iconify--ph" width="1em" height="1em" preserveAspectRatio="xMidYMid meet" viewBox="0 0 256 256"><path fill="currentColor" d="M122 144v-40a6 6 0 0 1 12 0v40a6 6 0 0 1-12 0Zm113 67a21.6 21.6 0 0 1-19 11H40a22 22 0 0 1-19-33l88-152a21.9 21.9 0 0 1 38 0l88 152a21.7 21.7 0 0 1 0 22Zm-10.4-16L136.7 43a10.1 10.1 0 0 0-17.4 0L31.4 195a10 10 0 0 0 8.6 15h176a10 10 0 0 0 8.6-15ZM128 170a10 10 0 1 0 10 10a10 10 0 0 0-10-10Z"></path></svg>