<svg xmlns="http://www.w3.org/2000/svg" xmlns:xlink="http://www.w3.org/1999/xlink" aria-hidden="true" role="img" class="iconify iconify--ph" width="1em" height="1em" preserveAspectRatio="xMidYMid meet" viewBox="0 0 256 256"><path fill="currentColor" d="M120 144v-40a8 8 0 0 1 16 0v40a8 8 0 0 1-16 0Zm116.8 68a23.9 23.9 0 0 1-20.8 12H40a23.9 23.9 0 0 1-20.7-36l87.9-152a24 24 0 0 1 41.6 0l87.9 152a23.7 23.7 0 0 1 .1 24Zm-13.9-16l-88-152a8 8 0 0 0-13.8 0l-88 152a7.8 7.8 0 0 0 0 8a7.9 7.9 0 0 0 6.9 4h176a7.9 7.9 0 0 0 6.9-4a7.8 7.8 0 0 0 0-8ZM128 168a12 12 0 1 0 12 12a12 12 0 0 0-12-12Z"></path></svg>