<svg xmlns="http://www.w3.org/2000/svg" xmlns:xlink="http://www.w3.org/1999/xlink" aria-hidden="true" role="img" class="iconify iconify--ph" width="1em" height="1em" preserveAspectRatio="xMidYMid meet" viewBox="0 0 256 256"><path fill="currentColor" d="M122 136V80a6 6 0 0 1 12 0v56a6 6 0 0 1-12 0Zm108-44.5v72.9a13.9 13.9 0 0 1-4.1 9.9l-51.6 51.6a13.9 13.9 0 0 1-9.8 4.1h-73a14.3 14.3 0 0 1-9.9-4.1l-51.5-51.6a13.9 13.9 0 0 1-4.1-9.9V91.5a14.3 14.3 0 0 1 4.1-9.9l51.6-51.5a13.9 13.9 0 0 1 9.8-4.1h73a14.3 14.3 0 0 1 9.9 4.1l51.5 51.5a14.3 14.3 0 0 1 4.1 9.9Zm-12 0a2 2 0 0 0-.6-1.4l-51.5-51.5a2 2 0 0 0-1.4-.6h-73a2 2 0 0 0-1.4.6L38.6 90.1a2 2 0 0 0-.6 1.4v72.9a2 2 0 0 0 .6 1.5l51.5 51.5a2 2 0 0 0 1.4.6h73a2 2 0 0 0 1.4-.6l51.5-51.5a2 2 0 0 0 .6-1.5ZM128 162a10 10 0 1 0 10 10a10 10 0 0 0-10-10Z"></path></svg>