<svg xmlns="http://www.w3.org/2000/svg" xmlns:xlink="http://www.w3.org/1999/xlink" aria-hidden="true" role="img" class="iconify iconify--ph" width="1em" height="1em" preserveAspectRatio="xMidYMid meet" viewBox="0 0 256 256"><path fill="currentColor" d="M124 144v-40a4 4 0 0 1 8 0v40a4 4 0 0 1-8 0Zm109.3 66a19.7 19.7 0 0 1-17.3 10H40a20 20 0 0 1-17.3-30l88-152a20 20 0 0 1 34.6 0l88 152a19.9 19.9 0 0 1 0 20Zm-6.9-16l-88-152a12 12 0 0 0-20.8 0l-88 152a12.2 12.2 0 0 0 0 12a12.1 12.1 0 0 0 10.4 6h176a12.1 12.1 0 0 0 10.4-6a12.2 12.2 0 0 0 0-12ZM128 172a8 8 0 1 0 8 8a8 8 0 0 0-8-8Z"></path></svg>