<svg xmlns="http://www.w3.org/2000/svg" xmlns:xlink="http://www.w3.org/1999/xlink" aria-hidden="true" role="img" class="iconify iconify--ph" width="1em" height="1em" preserveAspectRatio="xMidYMid meet" viewBox="0 0 256 256"><path fill="currentColor" d="M120 136V80a8 8 0 0 1 16 0v56a8 8 0 0 1-16 0Zm112-44.5v72.9a16.3 16.3 0 0 1-4.7 11.4l-51.5 51.5a16.2 16.2 0 0 1-11.3 4.7h-73a16.2 16.2 0 0 1-11.3-4.7l-51.5-51.5a16.3 16.3 0 0 1-4.7-11.4V91.5a16.2 16.2 0 0 1 4.7-11.3l51.5-51.5A16.2 16.2 0 0 1 91.5 24h73a16.2 16.2 0 0 1 11.3 4.7l51.5 51.5a16.2 16.2 0 0 1 4.7 11.3Zm-16 0L164.5 40h-73L40 91.5v72.9L91.5 216h73l51.5-51.6ZM128 160a12 12 0 1 0 12 12a12 12 0 0 0-12-12Z"></path></svg>