<svg xmlns="http://www.w3.org/2000/svg" xmlns:xlink="http://www.w3.org/1999/xlink" aria-hidden="true" role="img" class="iconify iconify--ph" width="1em" height="1em" preserveAspectRatio="xMidYMid meet" viewBox="0 0 256 256"><path fill="currentColor" d="m175.3 63.5l-6.2-34.4A16 16 0 0 0 153.3 16h-50.6a16 16 0 0 0-15.8 13.1l-6.2 34.4a80 80 0 0 0 0 129l6.2 34.4a16 16 0 0 0 15.8 13.1h50.6a16 16 0 0 0 15.8-13.1l6.2-34.4a80 80 0 0 0 0-129ZM102.7 32h50.6l3.9 21.6a78.9 78.9 0 0 0-58.4 0Zm50.6 192h-50.6l-3.9-21.6a78.9 78.9 0 0 0 58.4 0Zm14.7-88h-40a8 8 0 0 1-8-8V88a8 8 0 0 1 16 0v32h32a8 8 0 0 1 0 16Z"></path></svg>