<svg xmlns="http://www.w3.org/2000/svg" xmlns:xlink="http://www.w3.org/1999/xlink" aria-hidden="true" role="img" class="iconify iconify--ph" width="1em" height="1em" preserveAspectRatio="xMidYMid meet" viewBox="0 0 256 256"><circle cx="128" cy="128" r="72" fill="currentColor" opacity=".2"></circle><path fill="currentColor" d="M208 128a80.1 80.1 0 0 0-32.7-64.5l-6.2-34.4A16 16 0 0 0 153.3 16h-50.6a16 16 0 0 0-15.8 13.1l-6.2 34.4a80 80 0 0 0 0 129l6.2 34.4a16 16 0 0 0 15.8 13.1h50.6a16 16 0 0 0 15.8-13.1l6.2-34.4A80.1 80.1 0 0 0 208 128ZM102.7 32h50.6l3.9 21.6a78.9 78.9 0 0 0-58.4 0ZM64 128a64 64 0 1 1 64 64a64.1 64.1 0 0 1-64-64Zm89.3 96h-50.6l-3.9-21.6a78.9 78.9 0 0 0 58.4 0Z"></path><path fill="currentColor" d="M128 136h40a8 8 0 0 0 0-16h-32V88a8 8 0 0 0-16 0v40a8 8 0 0 0 8 8Z"></path></svg>