<svg xmlns="http://www.w3.org/2000/svg" xmlns:xlink="http://www.w3.org/1999/xlink" aria-hidden="true" role="img" class="iconify iconify--ph" width="1em" height="1em" preserveAspectRatio="xMidYMid meet" viewBox="0 0 256 256"><path fill="currentColor" d="M212 128a83.9 83.9 0 0 0-32.9-66.6L172.9 21a19.8 19.8 0 0 0-19.8-17h-50.2a19.8 19.8 0 0 0-19.8 17l-6.2 40.4a83.9 83.9 0 0 0 0 133.2l6.2 40.4a19.8 19.8 0 0 0 19.8 17h50.2a19.8 19.8 0 0 0 19.8-17l6.2-40.4A83.9 83.9 0 0 0 212 128ZM106.3 28h43.4l3 19.7a84.3 84.3 0 0 0-49.4 0ZM68 128a60 60 0 1 1 60 60a60 60 0 0 1-60-60Zm81.7 100h-43.4l-3-19.7a84.3 84.3 0 0 0 49.4 0ZM116 128V96a12 12 0 0 1 24 0v20h20a12 12 0 0 1 0 24h-32a12 12 0 0 1-12-12Z"></path></svg>