<svg xmlns="http://www.w3.org/2000/svg" xmlns:xlink="http://www.w3.org/1999/xlink" aria-hidden="true" role="img" class="iconify iconify--ph" width="1em" height="1em" preserveAspectRatio="xMidYMid meet" viewBox="0 0 256 256"><path fill="currentColor" d="M242.9 133.1c-23 49.5-43 71.6-64.9 71.6c-27.6 0-43.8-34.8-60.9-71.6c-7.2-15.5-14.6-31.5-22.2-42.9c-6.4-9.6-12.5-14.9-16.9-14.9s-18.3 4.2-43.1 57.8a12 12 0 0 1-21.8-10.2c23-49.5 43-71.6 64.9-71.6c27.6 0 43.8 34.8 60.9 71.6c7.2 15.5 14.6 31.5 22.2 42.9c6.4 9.6 12.5 14.9 16.9 14.9s18.3-4.2 43.1-57.8a12 12 0 1 1 21.8 10.2Z"></path></svg>