<svg xmlns="http://www.w3.org/2000/svg" xmlns:xlink="http://www.w3.org/1999/xlink" aria-hidden="true" role="img" class="iconify iconify--ph" width="1em" height="1em" preserveAspectRatio="xMidYMid meet" viewBox="0 0 256 256"><path fill="currentColor" d="M35.3 75.7a6 6 0 0 1 1-8.4a79 79 0 0 1 28.2-13.1c15.8-4 40.2-4.9 66.8 12.8c43.6 29.1 79.5 1.5 81 .3a6 6 0 0 1 7.4 9.4a79 79 0 0 1-28.2 13.1a78.2 78.2 0 0 1-19.3 2.4c-13.7 0-30.1-3.6-47.5-15.2c-43.6-29.1-79.5-1.5-81-.3a6 6 0 0 1-8.4-1Zm177 47.6c-1.5 1.2-37.4 28.8-81-.3c-26.6-17.7-51-16.8-66.8-12.8a79 79 0 0 0-28.2 13.1a6 6 0 0 0 7.4 9.4c1.5-1.2 37.4-28.8 81 .3c17.4 11.6 33.8 15.2 47.5 15.2a78.2 78.2 0 0 0 19.3-2.4a79 79 0 0 0 28.2-13.1a6 6 0 0 0-7.4-9.4Zm0 56c-1.5 1.2-37.4 28.8-81-.3c-26.6-17.7-51-16.8-66.8-12.8a79 79 0 0 0-28.2 13.1a6 6 0 0 0 7.4 9.4c1.5-1.2 37.4-28.8 81 .3c17.4 11.6 33.8 15.2 47.5 15.2a81.6 81.6 0 0 0 47.5-15.5a6 6 0 0 0-7.4-9.4Z"></path></svg>