<svg xmlns="http://www.w3.org/2000/svg" xmlns:xlink="http://www.w3.org/1999/xlink" aria-hidden="true" role="img" class="iconify iconify--ph" width="1em" height="1em" preserveAspectRatio="xMidYMid meet" viewBox="0 0 256 256"><path fill="currentColor" d="M33.7 77A8 8 0 0 1 35 65.8a81.8 81.8 0 0 1 29.1-13.6c16.1-4 41.1-5 68.3 13.1c42.4 28.3 77.2 1.6 78.6.4a8.2 8.2 0 0 1 11.3 1.3a8 8 0 0 1-1.3 11.2a81.8 81.8 0 0 1-29.1 13.6a81 81 0 0 1-19.7 2.4c-14 0-30.8-3.7-48.6-15.5c-42.4-28.3-77.2-1.6-78.6-.4A8.2 8.2 0 0 1 33.7 77ZM211 121.7c-1.4 1.2-36.2 27.9-78.6-.4c-27.2-18.1-52.2-17.1-68.3-13.1A81.8 81.8 0 0 0 35 121.8a8 8 0 0 0-1.3 11.2a8.2 8.2 0 0 0 11.3 1.3c1.4-1.2 36.2-27.9 78.6.4c17.8 11.8 34.6 15.5 48.6 15.5a81 81 0 0 0 19.7-2.4a81.8 81.8 0 0 0 29.1-13.6a8 8 0 0 0 1.3-11.2a8.2 8.2 0 0 0-11.3-1.3Zm0 56c-1.4 1.2-36.2 27.9-78.6-.4c-27.2-18.1-52.2-17.1-68.3-13.1A81.8 81.8 0 0 0 35 177.8a8 8 0 0 0-1.3 11.2a8.2 8.2 0 0 0 11.3 1.3c1.4-1.2 36.2-27.9 78.6.4c17.8 11.8 34.6 15.5 48.6 15.5a82.6 82.6 0 0 0 48.8-16a8 8 0 0 0 1.3-11.2a8.2 8.2 0 0 0-11.3-1.3Z"></path></svg>