<svg xmlns="http://www.w3.org/2000/svg" xmlns:xlink="http://www.w3.org/1999/xlink" aria-hidden="true" role="img" class="iconify iconify--ph" width="1em" height="1em" preserveAspectRatio="xMidYMid meet" viewBox="0 0 256 256"><path fill="currentColor" d="M128 24a104 104 0 0 0-91.2 154l-8.5 30A15.9 15.9 0 0 0 48 227.7l30-8.5A104 104 0 1 0 128 24Zm24.1 168h-.1a88.1 88.1 0 0 1-88-88.1A36 36 0 0 1 100 68a14.9 14.9 0 0 1 12.9 7.5L124.6 96a15.8 15.8 0 0 1-.2 16.1l-7.1 11.9a41.4 41.4 0 0 0 14.7 14.7l11.9-7.1a15.8 15.8 0 0 1 16.1-.2l20.5 11.7A14.9 14.9 0 0 1 188 156a36 36 0 0 1-35.9 36Z"></path><path fill="currentColor" d="M136.5 154.7a8.1 8.1 0 0 1-7.4.4a55.4 55.4 0 0 1-28.2-28.2a8.1 8.1 0 0 1 .4-7.4l9.4-15.6L99.4 84A19.9 19.9 0 0 0 80 103.9a72 72 0 0 0 72 72.1h.1a19.9 19.9 0 0 0 19.9-19.4l-19.9-11.3Z"></path></svg>