<svg xmlns="http://www.w3.org/2000/svg" xmlns:xlink="http://www.w3.org/1999/xlink" aria-hidden="true" role="img" class="iconify iconify--ph" width="1em" height="1em" preserveAspectRatio="xMidYMid meet" viewBox="0 0 256 256"><path fill="currentColor" d="M128 28a100 100 0 0 0-86.9 149.5l-9 31.6a12 12 0 0 0 14.8 14.8l31.6-9A100 100 0 1 0 128 28Zm0 192a91.3 91.3 0 0 1-47-12.9a4.6 4.6 0 0 0-2-.5h-1.1l-33.2 9.5a4 4 0 0 1-4.9-4.9l9.5-33.2a4.1 4.1 0 0 0-.4-3.1A92 92 0 1 1 128 220Zm50.5-73.5l-20.4-11.6a12.1 12.1 0 0 0-12.2.1l-13.8 8.3a45.4 45.4 0 0 1-19.4-19.4l8.3-13.8a12.1 12.1 0 0 0 .1-12.2l-11.6-20.4A11 11 0 0 0 100 72a32 32 0 0 0-32 31.9a84 84 0 0 0 84 84.1h.1a32 32 0 0 0 31.9-32a11 11 0 0 0-5.5-9.5ZM152.1 180h-.1a76.1 76.1 0 0 1-76-76.1A24 24 0 0 1 100 80a2.9 2.9 0 0 1 2.5 1.5l11.7 20.4a4.3 4.3 0 0 1 0 4.1l-9.4 15.6a3.8 3.8 0 0 0-.2 3.7a51.9 51.9 0 0 0 26.1 26.1a3.8 3.8 0 0 0 3.7-.2l15.6-9.4a4.3 4.3 0 0 1 4.1 0l20.4 11.7a2.9 2.9 0 0 1 1.5 2.5a24 24 0 0 1-23.9 24Z"></path></svg>