<svg xmlns="http://www.w3.org/2000/svg" xmlns:xlink="http://www.w3.org/1999/xlink" aria-hidden="true" role="img" class="iconify iconify--ph" width="1em" height="1em" preserveAspectRatio="xMidYMid meet" viewBox="0 0 256 256"><path fill="currentColor" d="M128 24a104 104 0 0 0-91.2 154l-8.5 30A15.9 15.9 0 0 0 48 227.7l30-8.5A104 104 0 1 0 128 24Zm0 192a88.4 88.4 0 0 1-44.9-12.3a8.7 8.7 0 0 0-4.1-1.1a8.3 8.3 0 0 0-2.2.3l-33.2 9.5l9.5-33.2a8.2 8.2 0 0 0-.8-6.3A88 88 0 1 1 128 216Zm52.5-72.9L160 131.4a15.8 15.8 0 0 0-16.1.2l-11.9 7.1a41.4 41.4 0 0 1-14.7-14.7l7.1-11.9a15.8 15.8 0 0 0 .2-16.1l-11.7-20.5A14.9 14.9 0 0 0 100 68a36 36 0 0 0-36 35.9a88.1 88.1 0 0 0 88 88.1h.1a36 36 0 0 0 35.9-36a14.9 14.9 0 0 0-7.5-12.9ZM152.1 176A72 72 0 0 1 80 103.9A19.9 19.9 0 0 1 99.4 84l11.3 19.9l-9.4 15.6a8.1 8.1 0 0 0-.4 7.4a55.4 55.4 0 0 0 28.2 28.2a8.1 8.1 0 0 0 7.4-.4l15.6-9.4l19.9 11.3a19.9 19.9 0 0 1-19.9 19.4Z"></path></svg>