<svg xmlns="http://www.w3.org/2000/svg" xmlns:xlink="http://www.w3.org/1999/xlink" aria-hidden="true" role="img" class="iconify iconify--ph" width="1em" height="1em" preserveAspectRatio="xMidYMid meet" viewBox="0 0 256 256"><path fill="currentColor" d="M251.4 188.2a12 12 0 0 0-15.2-7.6l-14.1 4.7l-27.4-54.7A12.1 12.1 0 0 0 184 124h-76v-16h52a12 12 0 0 0 0-24h-52V69.7a32 32 0 1 0-24 0v17a76 76 0 1 0 90.4 101.9a12 12 0 1 0-22.2-9A52 52 0 1 1 84 112v24a12 12 0 0 0 12 12h80.6l28.7 57.4A12 12 0 0 0 216 212a12.6 12.6 0 0 0 3.8-.6l24-8a12 12 0 0 0 7.6-15.2ZM96 32a8 8 0 1 1-8 8a8 8 0 0 1 8-8Z"></path></svg>