<svg xmlns="http://www.w3.org/2000/svg" xmlns:xlink="http://www.w3.org/1999/xlink" aria-hidden="true" role="img" class="iconify iconify--ph" width="1em" height="1em" preserveAspectRatio="xMidYMid meet" viewBox="0 0 256 256"><path fill="currentColor" d="M245.7 186.1a6.1 6.1 0 0 0-7.6-3.8l-19.1 6.4l-29.6-59.4a6 6 0 0 0-5.4-3.3h-82v-23.9h58a6 6 0 0 0 0-12h-58V65.3a26 26 0 1 0-12 0v26.1a70 70 0 1 0 83.9 73a6 6 0 0 0-5.7-6.4a5.9 5.9 0 0 0-6.3 5.6A58 58 0 1 1 90 103.7V132a6 6 0 0 0 6 6h84.3l30.3 60.7a6.1 6.1 0 0 0 5.4 3.3a6.3 6.3 0 0 0 1.9-.3l24-8a6.1 6.1 0 0 0 3.8-7.6ZM82 40a14 14 0 1 1 14 14a14 14 0 0 1-14-14Z"></path></svg>