<svg xmlns="http://www.w3.org/2000/svg" xmlns:xlink="http://www.w3.org/1999/xlink" aria-hidden="true" role="img" class="iconify iconify--ph" width="1em" height="1em" preserveAspectRatio="xMidYMid meet" viewBox="0 0 256 256"><path fill="currentColor" d="m242.5 195.6l-24 8a7.3 7.3 0 0 1-2.5.4a8 8 0 0 1-7.2-4.4L179.1 140H96a8 8 0 0 1-8-8v-25.7a56 56 0 1 0 71.9 57.2a8 8 0 0 1 16 1A72 72 0 1 1 88 89.8V62.6a24 24 0 1 1 16 0V88h56a8 8 0 0 1 0 16h-56v20h80a8.2 8.2 0 0 1 7.2 4.4l28.9 57.8l17.4-5.8a8 8 0 0 1 5 15.2Z"></path></svg>