<svg xmlns="http://www.w3.org/2000/svg" xmlns:xlink="http://www.w3.org/1999/xlink" aria-hidden="true" role="img" class="iconify iconify--ph" width="1em" height="1em" preserveAspectRatio="xMidYMid meet" viewBox="0 0 256 256"><path fill="currentColor" d="M243.8 186.7a4 4 0 0 0-5.1-2.5l-20.7 6.9l-30.4-60.9a4.2 4.2 0 0 0-3.6-2.2h-84v-27.9h60a4 4 0 0 0 0-8h-60V63.7a24 24 0 1 0-8 0v29.4a68 68 0 1 0 79.9 71.1a4 4 0 0 0-3.8-4.2a4 4 0 0 0-4.2 3.8A60 60 0 1 1 92 101.2V132a4 4 0 0 0 4 4h85.5l30.9 61.8a4 4 0 0 0 3.6 2.2l1.3-.2l24-8a4 4 0 0 0 2.5-5.1ZM80 40a16 16 0 1 1 16 16a16 16 0 0 1-16-16Z"></path></svg>