<svg xmlns="http://www.w3.org/2000/svg" xmlns:xlink="http://www.w3.org/1999/xlink" aria-hidden="true" role="img" class="iconify iconify--ph" width="1em" height="1em" preserveAspectRatio="xMidYMid meet" viewBox="0 0 256 256"><path fill="currentColor" d="M211 213.3a4.1 4.1 0 0 1-.3 5.7a4.1 4.1 0 0 1-5.7-.3l-47.3-52a46.7 46.7 0 0 0-62 2.2a3.9 3.9 0 0 1-2.8 1.2a3.5 3.5 0 0 1-2.8-1.3a4 4 0 0 1 0-5.6a54.7 54.7 0 0 1 52.5-13.2l-36-39.6A94 94 0 0 0 61.8 135a4.3 4.3 0 0 1-2.8 1.1a4 4 0 0 1-2.9-1.2a4 4 0 0 1 .1-5.6a101.6 101.6 0 0 1 44.3-25.6l-29.1-32A139.6 139.6 0 0 0 27.9 101a3.9 3.9 0 0 1-2.8 1.2a4 4 0 0 1-2.9-1.2a4.1 4.1 0 0 1 .1-5.7a147.6 147.6 0 0 1 43.4-29.9L45 42.7a4 4 0 1 1 6-5.4Zm22.7-118A149.4 149.4 0 0 0 128 52a151.8 151.8 0 0 0-21.4 1.5a4 4 0 0 0 1.1 7.9A152.7 152.7 0 0 1 128 60a141.6 141.6 0 0 1 100.1 41a3.9 3.9 0 0 0 2.8 1.2a4 4 0 0 0 2.9-1.2a4.1 4.1 0 0 0-.1-5.7ZM194.2 135a4.3 4.3 0 0 0 2.8 1.1a4.2 4.2 0 0 0 2.9-1.2a4 4 0 0 0-.1-5.6a101.1 101.1 0 0 0-46.7-26.2a4 4 0 1 0-1.9 7.7a93.7 93.7 0 0 1 43 24.2ZM128 192a8 8 0 1 0 8 8a8 8 0 0 0-8-8Z"></path></svg>