<svg xmlns="http://www.w3.org/2000/svg" xmlns:xlink="http://www.w3.org/1999/xlink" aria-hidden="true" role="img" class="iconify iconify--ph" width="1em" height="1em" preserveAspectRatio="xMidYMid meet" viewBox="0 0 256 256"><path fill="currentColor" d="M240.6 69.6c-66.3-50.1-158.9-50.1-225.2-.1a16.1 16.1 0 0 0-6.2 11A16.3 16.3 0 0 0 13 92.8L115.8 214a16.1 16.1 0 0 0 12.2 5.7a16 16 0 0 0 12.1-5.6l103-121.4a16 16 0 0 0 3.7-12.2a15.6 15.6 0 0 0-6.2-10.9ZM25 82.3Zm179.5 31.2a131 131 0 0 0-17-10.7l-.8-.4a125.8 125.8 0 0 0-17.7-7.6l-1.6-.4a115.2 115.2 0 0 0-18.4-4.6l-1.6-.2a118.4 118.4 0 0 0-38.8 0l-1.6.2a115.2 115.2 0 0 0-18.4 4.6l-1.5.4a127 127 0 0 0-17.8 7.6l-.8.4a123.5 123.5 0 0 0-16.9 10.7L25.1 82.3c60.6-45.7 145.3-45.7 205.8.1Z"></path></svg>