<svg xmlns="http://www.w3.org/2000/svg" xmlns:xlink="http://www.w3.org/1999/xlink" aria-hidden="true" role="img" class="iconify iconify--ph" width="1em" height="1em" preserveAspectRatio="xMidYMid meet" viewBox="0 0 256 256"><path fill="currentColor" d="M20.2 75.9C83.7 28 172.3 28 235.8 75.9a8 8 0 0 1 1.2 11.6L134 208.9a7.8 7.8 0 0 1-12.1-.1L19 87.6a8.1 8.1 0 0 1 1.2-11.7Z" opacity=".2"></path><path fill="currentColor" d="M229.7 98.3a8.1 8.1 0 0 1 0 11.4a8.2 8.2 0 0 1-11.4 0L200 91.3l-18.3 18.4a8.2 8.2 0 0 1-11.4 0a8.1 8.1 0 0 1 0-11.4L188.7 80l-18.4-18.3a8.1 8.1 0 0 1 11.4-11.4L200 68.7l18.3-18.4a8.1 8.1 0 0 1 11.4 11.4L211.3 80Zm-21.8 23.5a8.1 8.1 0 0 0-11.3.9L128 203.6L25.1 82.4A170.9 170.9 0 0 1 146.8 49a8 8 0 0 0 1.7-15.9A186.1 186.1 0 0 0 15.4 69.6a15.6 15.6 0 0 0-6.2 10.9a16.6 16.6 0 0 0 3.7 12.3L115.8 214a15.9 15.9 0 0 0 24.3.1l68.7-81a8 8 0 0 0-.9-11.3Z"></path></svg>