<svg xmlns="http://www.w3.org/2000/svg" xmlns:xlink="http://www.w3.org/1999/xlink" aria-hidden="true" role="img" class="iconify iconify--ph" width="1em" height="1em" preserveAspectRatio="xMidYMid meet" viewBox="0 0 256 256"><path fill="currentColor" d="M128 219.7a16 16 0 0 1-12.1-5.6L12.9 92.7a16.1 16.1 0 0 1 2.5-23.2c66.3-50 158.9-50 225.2 0a16.3 16.3 0 0 1 6.2 11a16 16 0 0 1-3.7 12.2l-103 121.4a16 16 0 0 1-12.1 5.6ZM25.1 82.3L128 203.6L230.9 82.4v-.2c-60.5-45.6-145.2-45.6-205.8.1Zm-.1 0Zm-4.8-6.4Z"></path></svg>