<svg xmlns="http://www.w3.org/2000/svg" xmlns:xlink="http://www.w3.org/1999/xlink" aria-hidden="true" role="img" class="iconify iconify--ph" width="1em" height="1em" preserveAspectRatio="xMidYMid meet" viewBox="0 0 256 256"><path fill="currentColor" d="M71.1 148.9a87.9 87.9 0 0 1 113.8 0l-50.9 60a7.9 7.9 0 0 1-12.1-.1Z" opacity=".2"></path><path fill="currentColor" d="M246.8 80.5a15.7 15.7 0 0 0-6.2-11c-66.3-50-158.9-50-225.2 0a16.1 16.1 0 0 0-6.2 11a16.6 16.6 0 0 0 3.7 12.3L115.8 214a15.9 15.9 0 0 0 24.3.1l103-121.4a16 16 0 0 0 3.7-12.2ZM25 82.3l-4.8-6.4l4.8 6.4Zm103 121.3l-45.4-53.5a80.1 80.1 0 0 1 90.8 0ZM230.9 82.4l-47.1 55.5a95.9 95.9 0 0 0-111.6 0L25.1 82.4c60.6-45.7 145.3-45.7 205.8 0Z"></path></svg>