<svg xmlns="http://www.w3.org/2000/svg" xmlns:xlink="http://www.w3.org/1999/xlink" aria-hidden="true" role="img" class="iconify iconify--ph" width="1em" height="1em" preserveAspectRatio="xMidYMid meet" viewBox="0 0 256 256"><path fill="currentColor" d="M168.6 160.3a7.9 7.9 0 0 1 .2 11.3a8.1 8.1 0 0 1-5.7 2.5a8.2 8.2 0 0 1-5.6-2.3a42.8 42.8 0 0 0-59 0a8 8 0 1 1-11.1-11.5a58.7 58.7 0 0 1 81.2 0ZM211.3 80l18.4-18.3a8.1 8.1 0 0 0-11.4-11.4L200 68.7l-18.3-18.4a8.1 8.1 0 0 0-11.4 11.4L188.7 80l-18.4 18.3a8.1 8.1 0 0 0 0 11.4a8.2 8.2 0 0 0 11.4 0L200 91.3l18.3 18.4a8.2 8.2 0 0 0 11.4 0a8.1 8.1 0 0 0 0-11.4Zm-68.2-15.2a8 8 0 1 0 1.8-15.9A159.5 159.5 0 0 0 128 48A153.4 153.4 0 0 0 19.4 92.5a8 8 0 0 0 0 11.3a7.8 7.8 0 0 0 5.7 2.4a8.2 8.2 0 0 0 5.6-2.3A137.5 137.5 0 0 1 128 64a149.6 149.6 0 0 1 15.1.8Zm-.4 48.4a8 8 0 1 0 2.6-15.8A111.1 111.1 0 0 0 128 96a105.6 105.6 0 0 0-74.6 30.4a7.9 7.9 0 0 0-.1 11.3a8 8 0 0 0 11.3.1a90.8 90.8 0 0 1 78.1-24.6ZM128 188a12 12 0 1 0 12 12a12 12 0 0 0-12-12Z"></path></svg>