<svg xmlns="http://www.w3.org/2000/svg" xmlns:xlink="http://www.w3.org/1999/xlink" aria-hidden="true" role="img" class="iconify iconify--ph" width="1em" height="1em" preserveAspectRatio="xMidYMid meet" viewBox="0 0 256 256"><path fill="currentColor" d="M212.4 212a5.8 5.8 0 0 1-.4 8.4a5.7 5.7 0 0 1-4 1.6a6 6 0 0 1-4.4-2l-47.2-51.9A44.8 44.8 0 0 0 128 158a44 44 0 0 0-30.9 12.4a6.3 6.3 0 0 1-4.2 1.7a6 6 0 0 1-4.1-10.3A55.7 55.7 0 0 1 128 146a65.4 65.4 0 0 1 8.9.7l-31-34.1a92.5 92.5 0 0 0-42.7 23.8a6.3 6.3 0 0 1-4.2 1.7a6 6 0 0 1-4.2-10.3a104.8 104.8 0 0 1 42.1-25.1l-26-28.6a138.8 138.8 0 0 0-41.6 28.3a5.9 5.9 0 0 1-8.5 0a6 6 0 0 1 .1-8.5a148.1 148.1 0 0 1 41.5-29.1L43.6 44a5.9 5.9 0 0 1 8.8-8Zm22.7-118.1A151.2 151.2 0 0 0 128 50a156.1 156.1 0 0 0-21.7 1.5a6 6 0 1 0 1.7 11.9a148.3 148.3 0 0 1 20-1.4a139.8 139.8 0 0 1 98.7 40.4a5.9 5.9 0 0 0 8.5 0a6 6 0 0 0-.1-8.5Zm-42.3 42.5a6.3 6.3 0 0 0 4.2 1.7a6 6 0 0 0 4.2-10.3a104.4 104.4 0 0 0-47.6-26.7a6 6 0 1 0-2.9 11.7a91.9 91.9 0 0 1 42.1 23.6ZM128 190a10 10 0 1 0 10 10a10 10 0 0 0-10-10Z"></path></svg>