<svg xmlns="http://www.w3.org/2000/svg" xmlns:xlink="http://www.w3.org/1999/xlink" aria-hidden="true" role="img" class="iconify iconify--ph" width="1em" height="1em" preserveAspectRatio="xMidYMid meet" viewBox="0 0 256 256"><path fill="currentColor" d="M134 208.9a7.9 7.9 0 0 1-12.1-.1l-71.5-84.3a119.9 119.9 0 0 1 155.2 0Z" opacity=".2"></path><path fill="currentColor" d="M246.8 80.5a15.7 15.7 0 0 0-6.2-11c-66.3-50-158.9-50-225.2 0a16.1 16.1 0 0 0-6.2 11a16.6 16.6 0 0 0 3.7 12.3L115.8 214a16.1 16.1 0 0 0 12.2 5.7a16 16 0 0 0 12.1-5.6l103-121.4a16 16 0 0 0 3.7-12.2ZM25 82.3l-4.8-6.4l4.8 6.4Zm103 121.3l-66.2-77.9a111.8 111.8 0 0 1 132.4 0ZM230.9 82.4l-26.3 31a128.1 128.1 0 0 0-153.1 0l-26.4-31c60.6-45.7 145.3-45.7 205.8 0Z"></path></svg>