<svg xmlns="http://www.w3.org/2000/svg" xmlns:xlink="http://www.w3.org/1999/xlink" aria-hidden="true" role="img" class="iconify iconify--ph" width="1em" height="1em" preserveAspectRatio="xMidYMid meet" viewBox="0 0 256 256"><path fill="currentColor" d="M167.2 161.8a6 6 0 0 1-4.1 10.3a6.3 6.3 0 0 1-4.2-1.7a44.7 44.7 0 0 0-61.8 0a6 6 0 0 1-8.4-8.6a56.7 56.7 0 0 1 78.5 0ZM208.5 80l19.7-19.8a5.9 5.9 0 0 0-8.4-8.4L200 71.5l-19.8-19.7a5.9 5.9 0 0 0-8.4 8.4L191.5 80l-19.7 19.8a5.9 5.9 0 1 0 8.4 8.4L200 88.5l19.8 19.7a5.9 5.9 0 1 0 8.4-8.4Zm-65.1-17.2a6 6 0 0 0 6.6-5.3a6.1 6.1 0 0 0-5.3-6.6A154.3 154.3 0 0 0 128 50A151.6 151.6 0 0 0 20.8 93.9a6.1 6.1 0 0 0 0 8.5a5.9 5.9 0 0 0 8.5 0A139.6 139.6 0 0 1 128 62c5.1 0 10.3.3 15.4.8Zm-.3 48.4a6 6 0 0 0 1.9-11.8a107.3 107.3 0 0 0-17-1.4a103.7 103.7 0 0 0-73.2 29.8a6 6 0 0 0 4.2 10.3a6.3 6.3 0 0 0 4.2-1.7A91.9 91.9 0 0 1 128 110a96.1 96.1 0 0 1 15.1 1.2ZM128 190a10 10 0 1 0 10 10a10 10 0 0 0-10-10Z"></path></svg>