<svg xmlns="http://www.w3.org/2000/svg" xmlns:xlink="http://www.w3.org/1999/xlink" aria-hidden="true" role="img" class="iconify iconify--ph" width="1em" height="1em" preserveAspectRatio="xMidYMid meet" viewBox="0 0 256 256"><path fill="currentColor" d="M171.4 157.4a12 12 0 0 1 .3 17a12 12 0 0 1-17 .3a38.7 38.7 0 0 0-53.4 0a12 12 0 1 1-16.7-17.3a62.8 62.8 0 0 1 86.8 0ZM217 80l15.5-15.5a12 12 0 0 0-17-17L200 63l-15.5-15.5a12 12 0 0 0-17 17L183 80l-15.5 15.5a12 12 0 0 0 0 17a12.1 12.1 0 0 0 17 0L200 97l15.5 15.5a12.1 12.1 0 0 0 17 0a12 12 0 0 0 0-17Zm-89 104a16 16 0 1 0 16 16a16 16 0 0 0-16-16Zm7.4-115.8a12 12 0 1 0 1.2-24L128 44A157.5 157.5 0 0 0 16.6 89.6a12 12 0 1 0 16.9 17.1A133.7 133.7 0 0 1 128 68Zm-.4 48.1a12.1 12.1 0 0 0 13-11a12 12 0 0 0-11-12.9c-3-.3-6-.4-9-.4a109.6 109.6 0 0 0-77.4 31.6a11.9 11.9 0 0 0-.2 16.9a12.1 12.1 0 0 0 8.6 3.6a11.9 11.9 0 0 0 8.4-3.4A86 86 0 0 1 128 116c2.3 0 4.7.1 7 .3Z"></path></svg>