<svg xmlns="http://www.w3.org/2000/svg" xmlns:xlink="http://www.w3.org/1999/xlink" aria-hidden="true" role="img" class="iconify iconify--ph" width="1em" height="1em" preserveAspectRatio="xMidYMid meet" viewBox="0 0 256 256"><path fill="currentColor" d="M167.2 161.8a6 6 0 0 1-4.1 10.3a6.3 6.3 0 0 1-4.2-1.7a44.7 44.7 0 0 0-61.8 0a6 6 0 0 1-8.5-.2a5.9 5.9 0 0 1 .2-8.4a56.5 56.5 0 0 1 78.4 0Zm34-34a104.8 104.8 0 0 0-146.4 0a6 6 0 0 0 8.4 8.6a92.7 92.7 0 0 1 129.6 0a6.3 6.3 0 0 0 4.2 1.7a6 6 0 0 0 4.2-10.3ZM128 190a10 10 0 1 0 10 10a10 10 0 0 0-10-10Z"></path></svg>