<svg xmlns="http://www.w3.org/2000/svg" xmlns:xlink="http://www.w3.org/1999/xlink" aria-hidden="true" role="img" class="iconify iconify--ph" width="1em" height="1em" preserveAspectRatio="xMidYMid meet" viewBox="0 0 256 256"><path fill="currentColor" d="M20.2 75.9C83.7 28 172.3 28 235.8 75.9a8 8 0 0 1 1.2 11.6L134 208.9a7.8 7.8 0 0 1-12.1-.1L19 87.6a8.1 8.1 0 0 1 1.2-11.7Z" opacity=".2"></path><path fill="currentColor" d="M172.4 165L53.9 34.6a8 8 0 0 0-11.3-.5a7.9 7.9 0 0 0-.5 11.3l4.6 5.1a185.8 185.8 0 0 0-31.3 19.1a15.6 15.6 0 0 0-6.2 10.9a16.6 16.6 0 0 0 3.7 12.3L115.8 214a15.9 15.9 0 0 0 24.3.1l26.7-31.5l35.3 38.8a8 8 0 0 0 5.9 2.6a8.2 8.2 0 0 0 5.4-2.1a8 8 0 0 0 .5-11.3ZM128 203.6L25.1 82.4A167.3 167.3 0 0 1 58 62.9l98 107.8ZM243.1 92.7l-49.5 58.4a8.1 8.1 0 0 1-6.1 2.8a8 8 0 0 1-5.2-1.9a8.1 8.1 0 0 1-.9-11.3l49.5-58.3A171.4 171.4 0 0 0 95.7 51.1a8 8 0 0 1-3-15.8a187.6 187.6 0 0 1 147.9 34.3a15.3 15.3 0 0 1 6.2 10.9a16 16 0 0 1-3.7 12.2Z"></path></svg>