<svg xmlns="http://www.w3.org/2000/svg" xmlns:xlink="http://www.w3.org/1999/xlink" aria-hidden="true" role="img" class="iconify iconify--ph" width="1em" height="1em" preserveAspectRatio="xMidYMid meet" viewBox="0 0 256 256"><path fill="currentColor" d="M214 210.6a8 8 0 0 1-.6 11.3a7.8 7.8 0 0 1-5.4 2.1a8.2 8.2 0 0 1-5.9-2.6l-35.2-38.8l-26.8 31.5a15.9 15.9 0 0 1-24.3-.1L12.9 92.8a16.3 16.3 0 0 1-3.8-12.3a15.6 15.6 0 0 1 6.2-10.9a182.8 182.8 0 0 1 31.4-19.1L42 45.4a8 8 0 0 1 11.9-10.8Zm32.9-130.1a15.6 15.6 0 0 0-6.2-10.9A188 188 0 0 0 92.6 35.3a8.3 8.3 0 0 0-6.1 5.4a8.2 8.2 0 0 0 1.7 7.9l93.4 102.7a8.3 8.3 0 0 0 5.9 2.6h.2a8.3 8.3 0 0 0 5.9-2.8l49.6-58.4a16.4 16.4 0 0 0 3.7-12.2Z"></path></svg>