<svg xmlns="http://www.w3.org/2000/svg" xmlns:xlink="http://www.w3.org/1999/xlink" aria-hidden="true" role="img" class="iconify iconify--ph" width="1em" height="1em" preserveAspectRatio="xMidYMid meet" viewBox="0 0 256 256"><path fill="currentColor" d="M171.4 157.4a12 12 0 0 1 .3 17a12.2 12.2 0 0 1-8.6 3.7a12.5 12.5 0 0 1-8.4-3.4a38.7 38.7 0 0 0-53.4 0a12 12 0 1 1-16.7-17.3a62.8 62.8 0 0 1 86.8 0ZM128 92a109.6 109.6 0 0 0-77.4 31.6a11.9 11.9 0 0 0-.2 16.9a12 12 0 0 0 17 .2a86.7 86.7 0 0 1 121.2 0a11.9 11.9 0 0 0 8.4 3.4a12.1 12.1 0 0 0 8.6-3.6a11.9 11.9 0 0 0-.2-16.9A109.6 109.6 0 0 0 128 92Zm111.4-2.4a158.9 158.9 0 0 0-222.8 0a12 12 0 0 0 16.9 17.1a134.7 134.7 0 0 1 189 0a12 12 0 0 0 8.4 3.5a12 12 0 0 0 8.5-20.6ZM128 184a16 16 0 1 0 16 16a16 16 0 0 0-16-16Z"></path></svg>