<svg xmlns="http://www.w3.org/2000/svg" xmlns:xlink="http://www.w3.org/1999/xlink" aria-hidden="true" role="img" class="iconify iconify--ph" width="1em" height="1em" preserveAspectRatio="xMidYMid meet" viewBox="0 0 256 256"><path fill="currentColor" d="M216.9 207.9a12.1 12.1 0 0 1-.8 17a12.1 12.1 0 0 1-17-.8l-46.9-51.6a38.7 38.7 0 0 0-50.9 2.2a12.5 12.5 0 0 1-8.4 3.4a12.2 12.2 0 0 1-8.6-3.7a12 12 0 0 1 .3-17a62.3 62.3 0 0 1 38.3-17.2l-19-20.8a85.5 85.5 0 0 0-36.5 21.3a11.9 11.9 0 0 1-8.4 3.4a12.1 12.1 0 0 1-8.6-3.6a11.9 11.9 0 0 1 .2-16.9a107.5 107.5 0 0 1 35.8-23.5l-17-18.7a134.2 134.2 0 0 0-35.9 25.3a12 12 0 0 1-8.4 3.5a12 12 0 0 1-8.5-20.6A158.8 158.8 0 0 1 52.7 63L39.1 48.1a12 12 0 0 1 17.8-16.2ZM128 184a16 16 0 1 0 16 16a16 16 0 0 0-16-16Zm111.4-94.4A157.5 157.5 0 0 0 128 44c-4 0-8 .2-11.9.4a12 12 0 0 0 1.8 24c3.3-.3 6.7-.4 10.1-.4a133.7 133.7 0 0 1 94.5 38.7a12 12 0 0 0 8.4 3.5a12 12 0 0 0 8.5-20.6Zm-50.8 51.1a11.9 11.9 0 0 0 8.4 3.4a12.1 12.1 0 0 0 8.6-3.6a11.9 11.9 0 0 0-.2-16.9a109.1 109.1 0 0 0-32.7-22.3a12 12 0 1 0-9.7 22a86 86 0 0 1 25.6 17.4Z"></path></svg>