<svg xmlns="http://www.w3.org/2000/svg" xmlns:xlink="http://www.w3.org/1999/xlink" aria-hidden="true" role="img" class="iconify iconify--ph" width="1em" height="1em" preserveAspectRatio="xMidYMid meet" viewBox="0 0 256 256"><path fill="currentColor" d="M112 144v51.6a8.1 8.1 0 0 1-2.9 6.2a7.8 7.8 0 0 1-5.1 1.8h-1.4l-64-11.6a8 8 0 0 1-6.6-8v-40a8 8 0 0 1 8-8h64a8 8 0 0 1 8 8Zm-2.9-89.8a8 8 0 0 0-6.5-1.7l-64 11.6A8 8 0 0 0 32 72v40a8 8 0 0 0 8 8h64a8 8 0 0 0 8-8V60.4a8.1 8.1 0 0 0-2.9-6.2Zm112-20.3a7.7 7.7 0 0 0-6.5-1.8l-80 14.6a8 8 0 0 0-6.6 7.8V112a8 8 0 0 0 8 8h80a8 8 0 0 0 8-8V40a7.9 7.9 0 0 0-2.9-6.1ZM216 136h-80a8 8 0 0 0-8 8v57.5a8 8 0 0 0 6.6 7.8l80 14.6h1.4a7.4 7.4 0 0 0 5.1-1.9a7.9 7.9 0 0 0 2.9-6v-72a8 8 0 0 0-8-8Z"></path></svg>