<svg xmlns="http://www.w3.org/2000/svg" xmlns:xlink="http://www.w3.org/1999/xlink" aria-hidden="true" role="img" class="iconify iconify--ph" width="1em" height="1em" preserveAspectRatio="xMidYMid meet" viewBox="0 0 256 256"><path fill="currentColor" d="M216 140h-80a4 4 0 0 0-4 4v57.5a4 4 0 0 0 3.3 3.9l80 14.5h.7a4.3 4.3 0 0 0 2.6-.9a4.1 4.1 0 0 0 1.4-3v-72a4 4 0 0 0-4-4Zm-4 71.2l-72-13.1V148h72ZM104 140H40a4 4 0 0 0-4 4v40a4 4 0 0 0 3.3 3.9l64 11.7h.7a4.3 4.3 0 0 0 2.6-.9a4.1 4.1 0 0 0 1.4-3.1V144a4 4 0 0 0-4-4Zm-4 50.8l-56-10.1V148h56ZM218.6 36.9a4.2 4.2 0 0 0-3.3-.8l-80 14.5a4 4 0 0 0-3.3 3.9V112a4 4 0 0 0 4 4h80a4 4 0 0 0 4-4V40a4.1 4.1 0 0 0-1.4-3.1ZM212 108h-72V57.9l72-13.1ZM103.3 56.4l-64 11.7A4 4 0 0 0 36 72v40a4 4 0 0 0 4 4h64a4 4 0 0 0 4-4V60.4a4.1 4.1 0 0 0-1.4-3.1a3.9 3.9 0 0 0-3.3-.9ZM100 108H44V75.3l56-10.1Z"></path></svg>