<svg xmlns="http://www.w3.org/2000/svg" xmlns:xlink="http://www.w3.org/1999/xlink" aria-hidden="true" role="img" class="iconify iconify--ph" width="1em" height="1em" preserveAspectRatio="xMidYMid meet" viewBox="0 0 256 256"><path fill="currentColor" d="M136 144h80v72l-80-14.5Zm-96 40l64 11.6V144H40Zm96-129.5V112h80V40ZM40 112h64V60.4L40 72Z" opacity=".2"></path><path fill="currentColor" d="M216 136h-80a8 8 0 0 0-8 8v57.5a8 8 0 0 0 6.6 7.8l80 14.6h1.4a7.4 7.4 0 0 0 5.1-1.9a7.9 7.9 0 0 0 2.9-6v-72a8 8 0 0 0-8-8Zm-8 70.4l-64-11.6V152h64ZM104 136H40a8 8 0 0 0-8 8v40a8 8 0 0 0 6.6 7.9l64 11.6h1.4a7.8 7.8 0 0 0 5.1-1.8a8.1 8.1 0 0 0 2.9-6.2V144a8 8 0 0 0-8-8Zm-8 50.1l-48-8.8V152h48ZM221.1 33.9a7.7 7.7 0 0 0-6.5-1.8l-80 14.6a8 8 0 0 0-6.6 7.8V112a8 8 0 0 0 8 8h80a8 8 0 0 0 8-8V40a7.9 7.9 0 0 0-2.9-6.1ZM208 104h-64V61.2l64-11.6Zm-98.9-49.8a8 8 0 0 0-6.5-1.7l-64 11.6A8 8 0 0 0 32 72v40a8 8 0 0 0 8 8h64a8 8 0 0 0 8-8V60.4a8.1 8.1 0 0 0-2.9-6.2ZM96 104H48V78.7l48-8.8Z"></path></svg>