<svg xmlns="http://www.w3.org/2000/svg" xmlns:xlink="http://www.w3.org/1999/xlink" aria-hidden="true" role="img" class="iconify iconify--ph" width="1em" height="1em" preserveAspectRatio="xMidYMid meet" viewBox="0 0 256 256"><path fill="currentColor" d="M184 184a32 32 0 0 1-62 11.1a8 8 0 1 1 15-5.5a16 16 0 1 0 15-21.6H40a8 8 0 0 1 0-16h112a32.1 32.1 0 0 1 32 32Zm-64-80a32 32 0 1 0-30-43.1a8 8 0 1 0 15 5.5A16 16 0 1 1 120 88H24a8 8 0 0 0 0 16Zm88-32a32.1 32.1 0 0 0-30 20.9a8 8 0 1 0 15 5.5a16 16 0 1 1 15 21.6H32a8 8 0 0 0 0 16h176a32 32 0 0 0 0-64Z"></path></svg>