<svg xmlns="http://www.w3.org/2000/svg" xmlns:xlink="http://www.w3.org/1999/xlink" aria-hidden="true" role="img" class="iconify iconify--ph" width="1em" height="1em" preserveAspectRatio="xMidYMid meet" viewBox="0 0 256 256"><path fill="currentColor" d="M107.7 51.9a11.6 11.6 0 0 0-9.8-2.6l-60 10.9A11.9 11.9 0 0 0 28 72v36a12 12 0 0 0 12 12h60a12 12 0 0 0 12-12V61.1a12 12 0 0 0-4.3-9.2ZM88 96H52V82l36-6.5Zm135.7-65.2a12 12 0 0 0-9.8-2.6l-76 13.8a11.9 11.9 0 0 0-9.9 11.8V108a12 12 0 0 0 12 12h76a12 12 0 0 0 12-12V40a12 12 0 0 0-4.3-9.2ZM204 96h-52V63.8l52-9.4Zm-104 40H40a12 12 0 0 0-12 12v36a11.9 11.9 0 0 0 9.9 11.8l60 10.9l2.1.2a12 12 0 0 0 12-12V148a12 12 0 0 0-12-12Zm-12 44.5L52 174v-14h36ZM216 136h-76a12 12 0 0 0-12 12v54.2a11.9 11.9 0 0 0 9.9 11.8l76 13.8l2.1.2a12 12 0 0 0 12-12v-68a12 12 0 0 0-12-12Zm-12 65.6l-52-9.4V160h52Z"></path></svg>