<svg xmlns="http://www.w3.org/2000/svg" xmlns:xlink="http://www.w3.org/1999/xlink" aria-hidden="true" role="img" class="iconify iconify--ph" width="1em" height="1em" preserveAspectRatio="xMidYMid meet" viewBox="0 0 256 256"><path fill="currentColor" d="M216 138h-80a6 6 0 0 0-6 6v57.5a6.1 6.1 0 0 0 4.9 5.9l80 14.5h1.1a5.7 5.7 0 0 0 3.8-1.4a5.8 5.8 0 0 0 2.2-4.5v-72a6 6 0 0 0-6-6Zm-6 70.8l-68-12.4V150h68ZM104 138H40a6 6 0 0 0-6 6v40a6 6 0 0 0 4.9 5.9l64 11.6h1.1a5.3 5.3 0 0 0 3.8-1.4a5.8 5.8 0 0 0 2.2-4.6V144a6 6 0 0 0-6-6Zm-6 50.4L46 179v-29h52Zm121.8-153a6.1 6.1 0 0 0-4.9-1.3l-80 14.5a6.1 6.1 0 0 0-4.9 5.9V112a6 6 0 0 0 6 6h80a6 6 0 0 0 6-6V40a5.8 5.8 0 0 0-2.2-4.6ZM210 106h-68V59.6l68-12.4ZM107.8 55.8a5.4 5.4 0 0 0-4.9-1.3l-64 11.6A6 6 0 0 0 34 72v40a6 6 0 0 0 6 6h64a6 6 0 0 0 6-6V60.4a5.8 5.8 0 0 0-2.2-4.6ZM98 106H46V77l52-9.4Z"></path></svg>