<svg xmlns="http://www.w3.org/2000/svg" xmlns:xlink="http://www.w3.org/1999/xlink" aria-hidden="true" role="img" class="iconify iconify--ph" width="1em" height="1em" preserveAspectRatio="xMidYMid meet" viewBox="0 0 256 256"><path fill="currentColor" d="M180 184a28 28 0 0 1-54.3 9.7a4 4 0 0 1 2.4-5.1a3.9 3.9 0 0 1 5.1 2.3A20 20 0 1 0 152 164H40a4 4 0 0 1 0-8h112a28.1 28.1 0 0 1 28 28ZM148 72a28 28 0 0 0-54.3-9.7a4 4 0 0 0 2.4 5.1a3.9 3.9 0 0 0 5.1-2.3A20 20 0 1 1 120 92H24a4 4 0 0 0 0 8h96a28.1 28.1 0 0 0 28-28Zm60 4a28.1 28.1 0 0 0-26.3 18.3a4 4 0 0 0 2.4 5.1a3.9 3.9 0 0 0 5.1-2.3A20 20 0 1 1 208 124H32a4 4 0 0 0 0 8h176a28 28 0 0 0 0-56Z"></path></svg>