<svg xmlns="http://www.w3.org/2000/svg" xmlns:xlink="http://www.w3.org/1999/xlink" aria-hidden="true" role="img" class="iconify iconify--ph" width="1em" height="1em" preserveAspectRatio="xMidYMid meet" viewBox="0 0 256 256"><path fill="currentColor" d="m207.8 110.6l-26-88.3A6.1 6.1 0 0 0 176 18H80a6.1 6.1 0 0 0-5.8 4.3l-26 88.3a29.8 29.8 0 0 0 1.4 20.8a86.3 86.3 0 0 0 72.4 50.4V226H88a6 6 0 0 0 0 12h80a6 6 0 0 0 0-12h-34v-44.2a86.3 86.3 0 0 0 72.4-50.4a29.8 29.8 0 0 0 1.4-20.8ZM84.5 30h87l21.8 73.6c-10.7 4.9-32.3 10.2-62.6-5c-27.8-13.8-49.5-12.7-64-8.5Zm111 96.5a74.1 74.1 0 0 1-135 0a18.5 18.5 0 0 1-.8-12.5l2.8-9.5c11.2-5.3 32.6-10.2 62.8 4.9c16.9 8.4 31.7 11.3 43.8 11.3a71.3 71.3 0 0 0 27.5-5.4a18.7 18.7 0 0 1-1.1 11.2Z"></path></svg>