<svg xmlns="http://www.w3.org/2000/svg" xmlns:xlink="http://www.w3.org/1999/xlink" aria-hidden="true" role="img" class="iconify iconify--ph" width="1em" height="1em" preserveAspectRatio="xMidYMid meet" viewBox="0 0 256 256"><path fill="currentColor" d="m213.6 108.9l-26.1-88.3A12 12 0 0 0 176 12H80a12 12 0 0 0-11.5 8.6l-26.1 88.3a36.5 36.5 0 0 0 1.7 25a92.4 92.4 0 0 0 71.9 53.3V220H88a12 12 0 0 0 0 24h80a12 12 0 0 0 0-24h-28v-32.8a92.4 92.4 0 0 0 71.9-53.3a36.5 36.5 0 0 0 1.7-25ZM89 36h78l18.9 64.1c-10.6 3.5-28.4 5.2-52.5-6.8s-43.2-13.4-58-11.2Zm39 128a68.1 68.1 0 0 1-62-40a11.4 11.4 0 0 1-.5-8.3l2-6.8c10.6-4.3 29.2-7.1 55.1 5.8c17.9 9 33.5 12 46.5 12a78.9 78.9 0 0 0 20.9-2.8a68.1 68.1 0 0 1-62 40.1Z"></path></svg>