<svg xmlns="http://www.w3.org/2000/svg" xmlns:xlink="http://www.w3.org/1999/xlink" aria-hidden="true" role="img" class="iconify iconify--ph" width="1em" height="1em" preserveAspectRatio="xMidYMid meet" viewBox="0 0 256 256"><path fill="currentColor" d="m209.7 110l-26-88.3A8 8 0 0 0 176 16H80a8 8 0 0 0-7.7 5.7l-26 88.3a31.5 31.5 0 0 0 1.5 22.2a88.1 88.1 0 0 0 72.2 51.4V224H88a8 8 0 0 0 0 16h80a8 8 0 0 0 0-16h-32v-40.4a88.1 88.1 0 0 0 72.2-51.4a31.5 31.5 0 0 0 1.5-22.2ZM86 32h84l20.8 70.5c-10.7 4.5-31 8.4-59.2-5.7c-26.2-13-47.2-13-61.9-9.5Zm107.6 93.7a72 72 0 0 1-131.2 0a16 16 0 0 1-.8-11.2l2.6-8.6c11-4.9 31.4-9.1 60.2 5.3c17.3 8.6 32.3 11.5 44.7 11.5a74.7 74.7 0 0 0 25.9-4.6a15.4 15.4 0 0 1-1.4 7.6Z"></path></svg>