<svg xmlns="http://www.w3.org/2000/svg" xmlns:xlink="http://www.w3.org/1999/xlink" aria-hidden="true" role="img" class="iconify iconify--ph" width="1em" height="1em" preserveAspectRatio="xMidYMid meet" viewBox="0 0 256 256"><path fill="currentColor" d="m205.9 111.1l-26.1-88.2A4 4 0 0 0 176 20H80a4 4 0 0 0-3.8 2.9l-26.1 88.2a28.4 28.4 0 0 0 1.3 19.5a84.4 84.4 0 0 0 72.6 49.3V228H88a4 4 0 0 0 0 8h80a4 4 0 0 0 0-8h-36v-48.1a84.4 84.4 0 0 0 72.6-49.3a28.4 28.4 0 0 0 1.3-19.5ZM83 28h90l22.7 76.7c-10.4 5.2-33.3 12-65.9-4.3c-29.6-14.8-52.2-12.2-66-7.2Zm114.3 99.3a76.1 76.1 0 0 1-138.6 0a20.1 20.1 0 0 1-.9-13.9l3-10.3c11.3-5.6 33.7-11.4 65.4 4.5c16.6 8.3 31 11.1 42.9 11.1a67 67 0 0 0 28.8-6.2l.3.9a20.1 20.1 0 0 1-.9 13.9Z"></path></svg>