<svg xmlns="http://www.w3.org/2000/svg" xmlns:xlink="http://www.w3.org/1999/xlink" aria-hidden="true" role="img" class="iconify iconify--ph" width="1em" height="1em" preserveAspectRatio="xMidYMid meet" viewBox="0 0 256 256"><path fill="currentColor" d="M224.5 68.7a6 6 0 0 0-3.5-3.3a6.2 6.2 0 0 0-4.8.2a5.7 5.7 0 0 0-1.5 1.2L175 106.5l-21.2-4.3l-4.3-21.2l39.7-39.7a4.8 4.8 0 0 0 1.2-1.6a5.9 5.9 0 0 0 .2-4.7a6 6 0 0 0-3.3-3.5a70 70 0 0 0-90.8 94l-61.4 53l-.3.3a30 30 0 0 0 0 42.4a29.9 29.9 0 0 0 42.4 0l.3-.3l53-61.4a70 70 0 0 0 94-90.8ZM201 137a58.3 58.3 0 0 1-68.9 9.9a6 6 0 0 0-7.6 1.2l-55.9 64.8a18 18 0 0 1-25.5-25.5l64.8-55.9a6.1 6.1 0 0 0 1.3-7.5a58 58 0 0 1 64.7-84.3l-35.1 35.1a6.3 6.3 0 0 0-1.7 5.4l5.7 28.3a6 6 0 0 0 4.7 4.7l28.3 5.7a6.3 6.3 0 0 0 5.4-1.7l35.1-35.1A57.6 57.6 0 0 1 201 137Z"></path></svg>