<svg xmlns="http://www.w3.org/2000/svg" xmlns:xlink="http://www.w3.org/1999/xlink" aria-hidden="true" role="img" class="iconify iconify--ph" width="1em" height="1em" preserveAspectRatio="xMidYMid meet" viewBox="0 0 256 256"><path fill="currentColor" d="M230 66.3a12.4 12.4 0 0 0-6.9-6.6a12.1 12.1 0 0 0-9.5.6a14 14 0 0 0-3.2 2.2L173 99.9l-14.1-2.8l-2.8-14.1l37.4-37.4a14 14 0 0 0 2.2-3.2a12.1 12.1 0 0 0 .6-9.5a12.4 12.4 0 0 0-6.6-6.9a76 76 0 0 0-100.4 97.8l-58.1 50.1l-.7.6a36.1 36.1 0 0 0 51 51l.6-.7l50.1-58.1A76 76 0 0 0 230 66.3Zm-33.2 66.5a52.5 52.5 0 0 1-61.7 8.9a11.9 11.9 0 0 0-15.1 2.5l-55.8 64.5a12 12 0 0 1-16.9-16.9l64.5-55.8a12.1 12.1 0 0 0 2.7-14.9A51.9 51.9 0 0 1 161.1 44l-26.6 26.5a12.1 12.1 0 0 0-3.2 10.9l5.6 28.3a12.2 12.2 0 0 0 9.4 9.4l28.3 5.6a12.1 12.1 0 0 0 10.9-3.2L212 94.9a51.8 51.8 0 0 1-15.2 37.9Z"></path></svg>