<svg xmlns="http://www.w3.org/2000/svg" xmlns:xlink="http://www.w3.org/1999/xlink" aria-hidden="true" role="img" class="iconify iconify--ph" width="1em" height="1em" preserveAspectRatio="xMidYMid meet" viewBox="0 0 256 256"><path fill="currentColor" d="M210.9 146.9a72.2 72.2 0 0 1-79.8 15L79 222.2c-.1.1-.2.3-.4.4a31.9 31.9 0 0 1-45.2 0a31.9 31.9 0 0 1 0-45.2c.1-.2.3-.3.4-.4l60.3-52.1a72 72 0 0 1 94-95.2a8.3 8.3 0 0 1 4.4 4.6a7.7 7.7 0 0 1-.4 6.3a5.1 5.1 0 0 1-1.5 2.1l-38.9 39l3.8 18.8l18.8 3.8l39-38.9a5.1 5.1 0 0 1 2.1-1.5a7.7 7.7 0 0 1 6.3-.4a8.3 8.3 0 0 1 4.6 4.4a71.6 71.6 0 0 1-15.4 79Z"></path></svg>