<svg xmlns="http://www.w3.org/2000/svg" xmlns:xlink="http://www.w3.org/1999/xlink" aria-hidden="true" role="img" class="iconify iconify--ph" width="1em" height="1em" preserveAspectRatio="xMidYMid meet" viewBox="0 0 256 256"><path fill="currentColor" d="M222.6 69.4a3.5 3.5 0 0 0-2.3-2.1a4 4 0 0 0-3.2.1l-1 .8l-40.4 40.4l-23.6-4.7l-4.7-23.6l40.4-40.4l.8-1a4 4 0 0 0 .1-3.2a3.5 3.5 0 0 0-2.1-2.3a67.7 67.7 0 0 0-74.7 14.5A68.4 68.4 0 0 0 99 126l-62.6 54l-.2.2a28.1 28.1 0 0 0 0 39.6a28 28 0 0 0 39.6 0l.2-.2l54-62.5a68.6 68.6 0 0 0 78.1-13a67.7 67.7 0 0 0 14.5-74.7Zm-20.2 69a60.1 60.1 0 0 1-71.3 10.2a4 4 0 0 0-5.1.8l-56 64.8A19.9 19.9 0 0 1 41.8 186l64.8-56a4.1 4.1 0 0 0 .9-5a60.2 60.2 0 0 1 10.1-71.4a59.5 59.5 0 0 1 60.1-14.9l-37.5 37.5a4 4 0 0 0-1.1 3.6l5.7 28.3a3.8 3.8 0 0 0 3.1 3.1l28.3 5.7a4 4 0 0 0 3.6-1.1l37.5-37.5a59.5 59.5 0 0 1-14.9 60.1Z"></path></svg>