<svg xmlns="http://www.w3.org/2000/svg" xmlns:xlink="http://www.w3.org/1999/xlink" aria-hidden="true" role="img" class="iconify iconify--ph" width="1em" height="1em" preserveAspectRatio="xMidYMid meet" viewBox="0 0 256 256"><path fill="currentColor" d="M128 28a100 100 0 1 0 100 100A100.2 100.2 0 0 0 128 28Zm0 192a92 92 0 1 1 92-92a92.1 92.1 0 0 1-92 92Zm34.8-121.2L133.7 128l29.1 29.2a3.9 3.9 0 0 1 0 5.6a3.9 3.9 0 0 1-5.6 0L128 133.7l-29.2 29.1a3.9 3.9 0 0 1-5.6 0a3.9 3.9 0 0 1 0-5.6l29.1-29.2l-29.1-29.2a4 4 0 0 1 5.6-5.6l29.2 29.1l29.2-29.1a4 4 0 1 1 5.6 5.6Z"></path></svg>