<svg xmlns="http://www.w3.org/2000/svg" xmlns:xlink="http://www.w3.org/1999/xlink" aria-hidden="true" role="img" class="iconify iconify--ph" width="1em" height="1em" preserveAspectRatio="xMidYMid meet" viewBox="0 0 256 256"><path fill="currentColor" d="M87.5 151.5L111 128l-23.5-23.5a12 12 0 0 1 17-17L128 111l23.5-23.5a12 12 0 0 1 17 17L145 128l23.5 23.5a12 12 0 0 1 0 17a12.1 12.1 0 0 1-17 0L128 145l-23.5 23.5a12.1 12.1 0 0 1-17 0a12 12 0 0 1 0-17ZM228 48v160a20.1 20.1 0 0 1-20 20H48a20.1 20.1 0 0 1-20-20V48a20.1 20.1 0 0 1 20-20h160a20.1 20.1 0 0 1 20 20Zm-24 4H52v152h152Z"></path></svg>