<svg xmlns="http://www.w3.org/2000/svg" xmlns:xlink="http://www.w3.org/1999/xlink" aria-hidden="true" role="img" class="iconify iconify--ph" width="1em" height="1em" preserveAspectRatio="xMidYMid meet" viewBox="0 0 256 256"><path fill="currentColor" d="M165.7 154.3a8.1 8.1 0 0 1 0 11.4a8.2 8.2 0 0 1-11.4 0L128 139.3l-26.3 26.4a8.2 8.2 0 0 1-11.4 0a8.1 8.1 0 0 1 0-11.4l26.4-26.3l-26.4-26.3a8.1 8.1 0 0 1 11.4-11.4l26.3 26.4l26.3-26.4a8.1 8.1 0 0 1 11.4 11.4L139.3 128ZM224 48v160a16 16 0 0 1-16 16H48a16 16 0 0 1-16-16V48a16 16 0 0 1 16-16h160a16 16 0 0 1 16 16Zm-16 160V48H48v160Z"></path></svg>