<svg xmlns="http://www.w3.org/2000/svg" xmlns:xlink="http://www.w3.org/1999/xlink" aria-hidden="true" role="img" class="iconify iconify--ph" width="1em" height="1em" preserveAspectRatio="xMidYMid meet" viewBox="0 0 256 256"><path fill="currentColor" d="M164.2 100.2L136.5 128l27.7 27.8a5.9 5.9 0 1 1-8.4 8.4L128 136.5l-27.8 27.7a5.9 5.9 0 0 1-8.4-8.4l27.7-27.8l-27.7-27.8a5.9 5.9 0 0 1 8.4-8.4l27.8 27.7l27.8-27.7a5.9 5.9 0 0 1 8.4 8.4ZM222 48v160a14 14 0 0 1-14 14H48a14 14 0 0 1-14-14V48a14 14 0 0 1 14-14h160a14 14 0 0 1 14 14Zm-12 0a2 2 0 0 0-2-2H48a2 2 0 0 0-2 2v160a2 2 0 0 0 2 2h160a2 2 0 0 0 2-2Z"></path></svg>