<svg xmlns="http://www.w3.org/2000/svg" xmlns:xlink="http://www.w3.org/1999/xlink" aria-hidden="true" role="img" class="iconify iconify--ph" width="1em" height="1em" preserveAspectRatio="xMidYMid meet" viewBox="0 0 256 256"><path fill="currentColor" d="M162.8 98.8L133.7 128l29.1 29.2a3.9 3.9 0 0 1 0 5.6a3.9 3.9 0 0 1-5.6 0L128 133.7l-29.2 29.1a3.9 3.9 0 0 1-5.6 0a3.9 3.9 0 0 1 0-5.6l29.1-29.2l-29.1-29.2a4 4 0 0 1 5.6-5.6l29.2 29.1l29.2-29.1a4 4 0 1 1 5.6 5.6ZM220 48v160a12 12 0 0 1-12 12H48a12 12 0 0 1-12-12V48a12 12 0 0 1 12-12h160a12 12 0 0 1 12 12Zm-8 0a4 4 0 0 0-4-4H48a4 4 0 0 0-4 4v160a4 4 0 0 0 4 4h160a4 4 0 0 0 4-4Z"></path></svg>