<svg xmlns="http://www.w3.org/2000/svg" xmlns:xlink="http://www.w3.org/1999/xlink" aria-hidden="true" role="img" class="iconify iconify--ph" width="1em" height="1em" preserveAspectRatio="xMidYMid meet" viewBox="0 0 256 256"><path fill="currentColor" d="M128 28a100 100 0 1 0 100 100A100.2 100.2 0 0 0 128 28ZM36 128a92.1 92.1 0 0 1 92-92a44 44 0 0 1 0 88a51.9 51.9 0 0 0-37.4 88A91.9 91.9 0 0 1 36 128Zm92 92a44 44 0 0 1 0-88a51.9 51.9 0 0 0 37.4-88A92 92 0 0 1 128 220Zm8-44a8 8 0 1 1-8-8a8 8 0 0 1 8 8Zm-16-96a8 8 0 1 1 8 8a8 8 0 0 1-8-8Z"></path></svg>