<svg xmlns="http://www.w3.org/2000/svg" xmlns:xlink="http://www.w3.org/1999/xlink" aria-hidden="true" role="img" class="iconify iconify--ph" width="1em" height="1em" preserveAspectRatio="xMidYMid meet" viewBox="0 0 256 256"><path fill="currentColor" d="M128 20a108 108 0 1 0 108 108A108.1 108.1 0 0 0 128 20ZM44 128a84.1 84.1 0 0 1 84-84a36 36 0 0 1 0 72a60 60 0 0 0-60 60a57.9 57.9 0 0 0 1.2 11.9A83.8 83.8 0 0 1 44 128Zm84 84a36 36 0 0 1 0-72a60 60 0 0 0 60-60a57.9 57.9 0 0 0-1.2-11.9A83.9 83.9 0 0 1 128 212Zm16-36a16 16 0 1 1-16-16a16 16 0 0 1 16 16Zm-32-96a16 16 0 1 1 16 16a16 16 0 0 1-16-16Z"></path></svg>