<svg xmlns="http://www.w3.org/2000/svg" xmlns:xlink="http://www.w3.org/1999/xlink" aria-hidden="true" role="img" class="iconify iconify--ph" width="1em" height="1em" preserveAspectRatio="xMidYMid meet" viewBox="0 0 256 256"><path fill="currentColor" d="M224 128a96 96 0 0 1-96 96a48 48 0 0 1 0-96a48 48 0 0 0 0-96a96 96 0 0 1 96 96Z" opacity=".2"></path><path fill="currentColor" d="M128 24a104 104 0 1 0 104 104A104.2 104.2 0 0 0 128 24ZM40 128a88.1 88.1 0 0 1 88-88a40 40 0 0 1 0 80a56 56 0 0 0-56 56a55.2 55.2 0 0 0 5.4 24A88.1 88.1 0 0 1 40 128Zm88 88a40 40 0 0 1 0-80a56 56 0 0 0 56-56a55.2 55.2 0 0 0-5.4-24A88 88 0 0 1 128 216Zm12-40a12 12 0 1 1-12-12a12 12 0 0 1 12 12Zm-24-96a12 12 0 1 1 12 12a12 12 0 0 1-12-12Z"></path></svg>