<svg xmlns="http://www.w3.org/2000/svg" xmlns:xlink="http://www.w3.org/1999/xlink" aria-hidden="true" role="img" class="iconify iconify--ci" width="1em" height="1em" preserveAspectRatio="xMidYMid meet" viewBox="0 0 24 24"><path fill="currentColor" d="M14 4v8.101a7.018 7.018 0 0 0-2-1.427V4a2 2 0 0 1 2-2h4a2 2 0 0 1 2 2v16a2 2 0 0 1-2 2h-4c-.033 0-.066 0-.099-.002A7.017 7.017 0 0 0 15.326 20H18V4h-4Z"></path><path fill="currentColor" d="M14 17a5 5 0 1 1-10 0a5 5 0 0 1 10 0Zm-4 3v-2h2v-2h-2v-2H8v2H6v2h2v2h2Z"></path></svg>