<svg xmlns="http://www.w3.org/2000/svg" xmlns:xlink="http://www.w3.org/1999/xlink" aria-hidden="true" role="img" class="iconify iconify--ci" width="1em" height="1em" preserveAspectRatio="xMidYMid meet" viewBox="0 0 24 24"><path fill="currentColor" d="M7 14A5 5 0 1 1 7 4a5 5 0 0 1 0 10Zm-3-4h2v2h2v-2h2V8H8V6H6v2H4v2Z"></path><path fill="currentColor" d="M20 14h-8.101a7.018 7.018 0 0 0 1.427-2H20a2 2 0 0 1 2 2v4a2 2 0 0 1-2 2H4a2 2 0 0 1-2-2v-4c0-.033 0-.066.002-.099A7.018 7.018 0 0 0 4 15.326V18h16v-4Z"></path></svg>