<svg xmlns="http://www.w3.org/2000/svg" xmlns:xlink="http://www.w3.org/1999/xlink" aria-hidden="true" role="img" class="iconify iconify--ci" width="1em" height="1em" preserveAspectRatio="xMidYMid meet" viewBox="0 0 24 24"><path fill="currentColor" d="M11.999 22a9.121 9.121 0 0 1-9-9a9.121 9.121 0 0 1 9-9a9.121 9.121 0 0 1 9 9a9.121 9.121 0 0 1-9 9Zm0-16a7.094 7.094 0 0 0-7 7a7.094 7.094 0 0 0 7 7a7.094 7.094 0 0 0 7-7a7.094 7.094 0 0 0-7-7Zm5 8h-6V8h2v4h4v2Zm3.292-7.292l-3.009-3l1.409-1.417l3.01 3l-1.41 1.416v.001Zm-16.585 0L2.291 5.291l2.991-3l1.415 1.417l-2.989 3h-.002Z"></path></svg>