<svg xmlns="http://www.w3.org/2000/svg" xmlns:xlink="http://www.w3.org/1999/xlink" aria-hidden="true" role="img" class="iconify iconify--ci" width="1em" height="1em" preserveAspectRatio="xMidYMid meet" viewBox="0 0 24 24" data-icon="ci:cloud-off"><g fill="none"><g clip-path="url(#IconifyId17f5a20feb65a9b894)"><path fill="currentColor" d="M18.97 21.971L17 20H6a6 6 0 0 1-.974-11.921l.019-.034L2 5l1.415-1.414l16.97 16.97l-1.414 1.414l-.001.001ZM6.813 9.814l-1.465.239A4 4 0 0 0 6 18h9L6.813 9.814Zm14.987 9.33l-1.46-1.458a3 3 0 0 0-.88-5.649l-1.316-.2l-.322-1.291A6 6 0 0 0 9.3 6.642L7.829 5.173a8 8 0 0 1 11.933 4.885a5 5 0 0 1 2.038 9.085v.001Z"></path></g><defs><clipPath id="IconifyId17f5a20feb65a9b894"><path fill="#fff" d="M0 0h24v24H0z"></path></clipPath></defs></g></svg>