<svg xmlns="http://www.w3.org/2000/svg" xmlns:xlink="http://www.w3.org/1999/xlink" aria-hidden="true" role="img" class="iconify iconify--ci" width="1em" height="1em" preserveAspectRatio="xMidYMid meet" viewBox="0 0 24 24" data-icon="ci:cloud-check"><g fill="none"><g clip-path="url(#IconifyId17f5a20feb65a9b891)"><path fill="currentColor" d="M19 20H6a6 6 0 0 1-.974-11.921A8.018 8.018 0 0 1 12 3.999a7.916 7.916 0 0 1 4.962 1.725a8.041 8.041 0 0 1 2.8 4.334A5 5 0 0 1 19 20ZM12 6a6.014 6.014 0 0 0-5.232 3.061L6.3 9.9l-.95.155A4 4 0 0 0 6 18h13a3 3 0 0 0 .46-5.965l-1.316-.2l-.322-1.292A5.988 5.988 0 0 0 12 6Zm-1.472 10.71l-3.5-3.5l1.41-1.41l2.09 2.09l4.6-4.6l1.41 1.41l-6.01 6.009v.001Z"></path></g><defs><clipPath id="IconifyId17f5a20feb65a9b891"><path fill="#fff" d="M0 0h24v24H0z"></path></clipPath></defs></g></svg>