<svg xmlns="http://www.w3.org/2000/svg" xmlns:xlink="http://www.w3.org/1999/xlink" aria-hidden="true" role="img" class="iconify iconify--ci" width="1em" height="1em" preserveAspectRatio="xMidYMid meet" viewBox="0 0 24 24" data-icon="ci:cloud-close"><g fill="none"><g clip-path="url(#IconifyId17f5a20feb65a9b892)"><path fill="currentColor" d="M19 20H6a6 6 0 0 1-.974-11.921A8.018 8.018 0 0 1 12 3.999a7.916 7.916 0 0 1 4.96 1.725a8.041 8.041 0 0 1 2.8 4.333A5 5 0 0 1 19 20ZM12 6a6.014 6.014 0 0 0-5.232 3.061L6.3 9.9l-.95.155A4 4 0 0 0 6 18h13a3 3 0 0 0 .46-5.965l-1.316-.2l-.322-1.292A5.988 5.988 0 0 0 12 6ZM9.413 16.414L8 15l2.293-2.293L8 10.414L9.414 9l2.293 2.292L14 9l1.414 1.414l-2.293 2.293L15.414 15L14 16.413l-2.294-2.292l-2.292 2.293h-.001Z"></path></g><defs><clipPath id="IconifyId17f5a20feb65a9b892"><path fill="#fff" d="M0 0h24v24H0z"></path></clipPath></defs></g></svg>