<svg xmlns="http://www.w3.org/2000/svg" xmlns:xlink="http://www.w3.org/1999/xlink" aria-hidden="true" role="img" class="iconify iconify--ci" width="1em" height="1em" preserveAspectRatio="xMidYMid meet" viewBox="0 0 24 24" data-icon="ci:command"><path fill="currentColor" d="M18 22a4.01 4.01 0 0 1-4-3.961V16h-4v2.02A4 4 0 1 1 6 14h2v-4H6a4 4 0 1 1 4-4.02V8h4V6a4 4 0 1 1 4 4h-2v4h2a4 4 0 0 1 0 8Zm-2-6v2a2 2 0 1 0 2-2h-2ZM6 16a2 2 0 1 0 0 4a1.979 1.979 0 0 0 2-2v-2H6Zm4-6v4h4v-4h-4Zm8-6a1.979 1.979 0 0 0-2 2v2h2a1.979 1.979 0 0 0 2-2a1.98 1.98 0 0 0-2-2ZM6 4a1.979 1.979 0 0 0-2 2a1.979 1.979 0 0 0 2 2h2V6a1.979 1.979 0 0 0-2-2Z"></path></svg>