<svg xmlns="http://www.w3.org/2000/svg" xmlns:xlink="http://www.w3.org/1999/xlink" aria-hidden="true" role="img" class="iconify iconify--ci" width="1em" height="1em" preserveAspectRatio="xMidYMid meet" viewBox="0 0 24 24" data-icon="ci:delete-row"><path fill="currentColor" d="M20 6H4v4h8.101a7.018 7.018 0 0 0-1.427 2H4a2 2 0 0 1-2-2V6a2 2 0 0 1 2-2h16a2 2 0 0 1 2 2v4c0 .033 0 .066-.002.099A7.017 7.017 0 0 0 20 8.674V6Z"></path><path fill="currentColor" d="M20.85 11.81A4.99 4.99 0 0 0 17 10a4.993 4.993 0 0 0-4 2a5 5 0 1 0 7.851-.19ZM20 14v2h-6v-2h6Z"></path></svg>