<svg xmlns="http://www.w3.org/2000/svg" xmlns:xlink="http://www.w3.org/1999/xlink" aria-hidden="true" role="img" class="iconify iconify--ci" width="1em" height="1em" preserveAspectRatio="xMidYMid meet" viewBox="0 0 24 24" data-icon="ci:delete-column"><path fill="currentColor" d="M6 4v16h2.674c.355.749.84 1.424 1.425 1.998A2.015 2.015 0 0 1 10 22H6a2 2 0 0 1-2-2V4a2 2 0 0 1 2-2h4a2 2 0 0 1 2 2v6.674a7.018 7.018 0 0 0-2 1.427V4H6Z"></path><path fill="currentColor" d="M10 17c0-1.636.786-3.088 2-4a5 5 0 1 1-2 4Zm2 1h6v-2h-6v2Z"></path></svg>