<svg xmlns="http://www.w3.org/2000/svg" xmlns:xlink="http://www.w3.org/1999/xlink" aria-hidden="true" role="img" class="iconify iconify--ci" width="1em" height="1em" preserveAspectRatio="xMidYMid meet" viewBox="0 0 24 24" data-icon="ci:filter"><path fill="currentColor" d="M13.447 20.905A.988.988 0 0 0 14 20.02V14.7c0-.262.105-.514.293-.7l6.121-6.054a1.97 1.97 0 0 0 .586-1.4V3.99A.994.994 0 0 0 20 3H4c-.553 0-1 .442-1 .99v2.556c0 .525.211 1.029.586 1.4L9.707 14a.984.984 0 0 1 .293.7v6.31c0 .735.782 1.213 1.447.884l2-.989Z"></path></svg>