<svg xmlns="http://www.w3.org/2000/svg" xmlns:xlink="http://www.w3.org/1999/xlink" aria-hidden="true" role="img" class="iconify iconify--ci" width="1em" height="1em" preserveAspectRatio="xMidYMid meet" viewBox="0 0 24 24" data-icon="ci:folder-open"><path fill="currentColor" d="M18 20H3a.984.984 0 0 1-.993-1H2V5a2 2 0 0 1 2-2h6a1 1 0 0 1 .616.213L12.9 5H18a2 2 0 0 1 2 2v4h1a1 1 0 0 1 .919 1.394l-3 7A1 1 0 0 1 18 20ZM6.66 13l-2.143 5h12.824l2.143-5H6.66ZM4 7v7.13l1.081-2.524A1 1 0 0 1 6 11h12V7H4Z"></path></svg>