<svg xmlns="http://www.w3.org/2000/svg" xmlns:xlink="http://www.w3.org/1999/xlink" aria-hidden="true" role="img" class="iconify iconify--ci" width="1em" height="1em" preserveAspectRatio="xMidYMid meet" viewBox="0 0 24 24" data-icon="ci:grid-round"><path fill="currentColor" d="M18 20a2 2 0 1 1 0-4a2 2 0 0 1 0 4Zm-6 0a2 2 0 1 1 0-4a2 2 0 0 1 0 4Zm-6 0a2 2 0 1 1 0-4a2 2 0 0 1 0 4Zm12-6a2 2 0 1 1 0-4a2 2 0 0 1 0 4Zm-6 0a2 2 0 1 1 0-4a2 2 0 0 1 0 4Zm-6 0a2 2 0 1 1 0-4a2 2 0 0 1 0 4Zm12-6a2 2 0 1 1 0-4a2 2 0 0 1 0 4Zm-6 0a2 2 0 1 1 0-4a2 2 0 0 1 0 4ZM6 8a2 2 0 1 1 0-4a2 2 0 0 1 0 4Z"></path></svg>