<svg xmlns="http://www.w3.org/2000/svg" xmlns:xlink="http://www.w3.org/1999/xlink" aria-hidden="true" role="img" class="iconify iconify--ci" width="1em" height="1em" preserveAspectRatio="xMidYMid meet" viewBox="0 0 24 24" data-icon="ci:heading-h5"><path fill="currentColor" d="M10 4v7H4V4H2v16h2v-7h6v7h2V4h-2Zm11.745 5.92V8h-6.118l-1.142 6.09l1.846.868a2.087 2.087 0 0 1 1.59-.718c1.127 0 2.04.86 2.04 1.92s-.913 1.92-2.04 1.92c-.93 0-1.715-.587-1.96-1.39L14 17.219C14.488 18.825 16.059 20 17.922 20C20.175 20 22 18.282 22 16.16s-1.825-3.84-4.078-3.84c-.367 0-.721.045-1.058.13l.473-2.53h4.408Z"></path></svg>