<svg xmlns="http://www.w3.org/2000/svg" xmlns:xlink="http://www.w3.org/1999/xlink" aria-hidden="true" role="img" class="iconify iconify--ci" width="1em" height="1em" preserveAspectRatio="xMidYMid meet" viewBox="0 0 24 24"><path fill="currentColor" fill-rule="evenodd" d="M18.248 16.997A10.76 10.76 0 0 1 18 17C11.925 17 7 12.075 7 6c0-.083 0-.166.003-.248a8 8 0 1 0 11.245 11.245Zm1.218-2.116A9 9 0 0 1 9.822 2.238A9.999 9.999 0 0 0 2 12c0 5.523 4.477 10 10 10a10 10 0 0 0 9.762-7.822a8.92 8.92 0 0 1-2.296.703Z" clip-rule="evenodd"></path></svg>