<svg xmlns="http://www.w3.org/2000/svg" xmlns:xlink="http://www.w3.org/1999/xlink" aria-hidden="true" role="img" class="iconify iconify--ci" width="1em" height="1em" preserveAspectRatio="xMidYMid meet" viewBox="0 0 24 24"><path fill="currentColor" d="M13 21H5a2 2 0 0 1-2-2V5a2 2 0 0 1 2-2h14a2 2 0 0 1 2 2v8a.126.126 0 0 1-.006.034a.149.149 0 0 0-.006.028a1.017 1.017 0 0 1-.051.259l-.009.027a.988.988 0 0 1-.225.359l-7 7A1 1 0 0 1 13 21ZM5 5v14h7v-6a1 1 0 0 1 1-1h6V5H5Zm9 9v3.587L17.586 14H14Z"></path></svg>