<svg xmlns="http://www.w3.org/2000/svg" xmlns:xlink="http://www.w3.org/1999/xlink" aria-hidden="true" role="img" class="iconify iconify--ci" width="1em" height="1em" preserveAspectRatio="xMidYMid meet" viewBox="0 0 24 24"><path fill="currentColor" d="M12.998 22h-2v-3h2v3Zm5.364-2.222l-2.121-2.121l1.414-1.414l2.122 2.122l-1.413 1.413h-.002Zm-12.728 0L4.22 18.364l2.12-2.122l1.415 1.414l-2.12 2.121v.001Zm6.364-2.771a5.007 5.007 0 1 1 .004-10.014a5.007 5.007 0 0 1-.004 10.014Zm0-8.014a3.007 3.007 0 1 0 .004 6.014a3.007 3.007 0 0 0-.004-6.014Zm10 4.007h-3v-2h3v2Zm-17 0h-3v-2h3v2Zm12.656-5.242l-1.413-1.415l2.121-2.122l1.415 1.415l-2.122 2.121l-.001.001Zm-11.313 0l-2.12-2.121l1.415-1.414l2.12 2.122l-1.414 1.412v.001ZM12.998 5h-2V2h2v3Z"></path></svg>