<svg xmlns="http://www.w3.org/2000/svg" xmlns:xlink="http://www.w3.org/1999/xlink" aria-hidden="true" role="img" class="iconify iconify--ci" width="1em" height="1em" preserveAspectRatio="xMidYMid meet" viewBox="0 0 24 24"><path fill="currentColor" d="M4 19H2a6 6 0 0 1 12 0h-2a4 4 0 0 0-8 0Zm16.294-3.294L18 13.413l-2.293 2.293l-1.414-1.414L16.585 12l-2.292-2.293l1.414-1.414L18 10.586l2.293-2.293l1.414 1.414L19.414 12l2.293 2.293l-1.413 1.413ZM8 12a4 4 0 1 1 0-8a4 4 0 0 1 0 8Zm0-6a2 2 0 1 0 2 2.09v.4V8a2 2 0 0 0-2-2Z"></path></svg>