<svg xmlns="http://www.w3.org/2000/svg" xmlns:xlink="http://www.w3.org/1999/xlink" aria-hidden="true" role="img" class="iconify iconify--ci" width="1em" height="1em" preserveAspectRatio="xMidYMid meet" viewBox="0 0 24 24"><path fill="currentColor" d="M12 22a9.9 9.9 0 0 1-4.364-1a10.053 10.053 0 0 1-1.425-.845l-.137-.1a10.09 10.09 0 0 1-2.964-3.471A9.89 9.89 0 0 1 2 12C2 6.477 6.477 2 12 2s10 4.477 10 10a9.891 9.891 0 0 1-1.109 4.582a10.09 10.09 0 0 1-2.96 3.47c-.467.342-.963.643-1.482.9l-.08.04A9.9 9.9 0 0 1 12 22Zm0-5a3.99 3.99 0 0 0-3.557 2.167a8.014 8.014 0 0 0 7.114 0v-.005A3.987 3.987 0 0 0 12 17Zm0-2a6.015 6.015 0 0 1 5.23 3.056l.014-.013l.014-.012l-.017.015l-.01.008a8 8 0 1 0-10.46 0A6.016 6.016 0 0 1 12.001 15Zm0-1a4 4 0 1 1 0-8a4 4 0 0 1 0 8Zm0-6a2 2 0 1 0 0 4a2 2 0 0 0 0-4Z"></path></svg>