<svg xmlns="http://www.w3.org/2000/svg" xmlns:xlink="http://www.w3.org/1999/xlink" aria-hidden="true" role="img" class="iconify iconify--ci" width="1em" height="1em" preserveAspectRatio="xMidYMid meet" viewBox="0 0 24 24"><path fill="currentColor" d="M20 21H4a2 2 0 0 1-2-2V5a2 2 0 0 1 2-2h16a2 2 0 0 1 2 2v14a2 2 0 0 1-2 2ZM4 7v12h16V7H4Zm10.707 9.707l-1.413-1.413L15.586 13l-2.293-2.293l1.414-1.414L18.414 13l-3.706 3.706l-.001.001Zm-5.414 0L5.586 13l3.707-3.707l1.414 1.414L8.414 13l2.292 2.293l-1.413 1.413v.001Z"></path></svg>