<svg xmlns="http://www.w3.org/2000/svg" xmlns:xlink="http://www.w3.org/1999/xlink" aria-hidden="true" role="img" class="iconify iconify--ci" width="1em" height="1em" preserveAspectRatio="xMidYMid meet" viewBox="0 0 24 24"><path fill="currentColor" d="M20 21H4a2 2 0 0 1-2-2V5a2 2 0 0 1 2-2h16a2 2 0 0 1 2 2v14a2 2 0 0 1-2 2ZM4 7v12h16V7H4Zm5.706 9.708l-1.413-1.415L10.586 13l-2.293-2.293l1.414-1.414L12 11.586l2.293-2.293l1.414 1.414L13.414 13l2.293 2.293l-1.413 1.413L12 14.414l-2.293 2.293l-.001.001Z"></path></svg>