<svg xmlns="http://www.w3.org/2000/svg" xmlns:xlink="http://www.w3.org/1999/xlink" aria-hidden="true" role="img" class="iconify iconify--uil" width="1em" height="1em" preserveAspectRatio="xMidYMid meet" viewBox="0 0 24 24" data-icon="uil:angle-double-right"><path fill="currentColor" d="M8.46 8.29A1 1 0 1 0 7 9.71L9.34 12L7 14.29a1 1 0 0 0 0 1.42a1 1 0 0 0 1.42 0l3-3a1 1 0 0 0 0-1.42Zm8.5 3l-3-3a1 1 0 0 0-1.42 1.42l2.3 2.29l-2.3 2.29a1 1 0 0 0 0 1.42a1 1 0 0 0 1.42 0l3-3a1 1 0 0 0 .04-1.42Z"></path></svg>