<svg xmlns="http://www.w3.org/2000/svg" xmlns:xlink="http://www.w3.org/1999/xlink" aria-hidden="true" role="img" class="iconify iconify--uil" width="1em" height="1em" preserveAspectRatio="xMidYMid meet" viewBox="0 0 24 24" data-icon="uil:arrow-growth"><path fill="currentColor" d="M21.92 6.62a1 1 0 0 0-.54-.54A1 1 0 0 0 21 6h-5a1 1 0 0 0 0 2h2.59L13 13.59l-3.29-3.3a1 1 0 0 0-1.42 0l-6 6a1 1 0 0 0 0 1.42a1 1 0 0 0 1.42 0L9 12.41l3.29 3.3a1 1 0 0 0 1.42 0L20 9.41V12a1 1 0 0 0 2 0V7a1 1 0 0 0-.08-.38Z"></path></svg>