<svg xmlns="http://www.w3.org/2000/svg" xmlns:xlink="http://www.w3.org/1999/xlink" aria-hidden="true" role="img" class="iconify iconify--uil" width="1em" height="1em" preserveAspectRatio="xMidYMid meet" viewBox="0 0 24 24" data-icon="uil:arrow"><path fill="currentColor" d="M9.71 6.29a1 1 0 0 0-1.42 0l-5 5a1 1 0 0 0 0 1.42l5 5a1 1 0 0 0 1.42 0a1 1 0 0 0 0-1.42L5.41 12l4.3-4.29a1 1 0 0 0 0-1.42Zm11 5l-5-5a1 1 0 0 0-1.42 1.42l4.3 4.29l-4.3 4.29a1 1 0 0 0 0 1.42a1 1 0 0 0 1.42 0l5-5a1 1 0 0 0 0-1.42Z"></path></svg>