<svg xmlns="http://www.w3.org/2000/svg" xmlns:xlink="http://www.w3.org/1999/xlink" aria-hidden="true" role="img" class="iconify iconify--uil" width="1em" height="1em" preserveAspectRatio="xMidYMid meet" viewBox="0 0 24 24" data-icon="uil:arrow-from-right"><path fill="currentColor" d="M3 4a1 1 0 0 0-1 1v14a1 1 0 0 0 2 0V5a1 1 0 0 0-1-1Zm18.92 7.62a1 1 0 0 0-.21-.33l-4-4a1 1 0 1 0-1.42 1.42l2.3 2.29H7a1 1 0 0 0 0 2h11.59l-2.3 2.29a1 1 0 0 0 0 1.42a1 1 0 0 0 1.42 0l4-4a1 1 0 0 0 .21-.33a1 1 0 0 0 0-.76Z"></path></svg>