<svg xmlns="http://www.w3.org/2000/svg" xmlns:xlink="http://www.w3.org/1999/xlink" aria-hidden="true" role="img" class="iconify iconify--uil" width="1em" height="1em" preserveAspectRatio="xMidYMid meet" viewBox="0 0 24 24" data-icon="uil:border-alt"><path fill="currentColor" d="M11.5 18.5a1 1 0 1 0 1 1a1 1 0 0 0-1-1Zm9-15a1 1 0 0 0-1-1h-16a1 1 0 0 0-1 1v16a1 1 0 0 0 2 0v-15h15a1 1 0 0 0 1-1Zm-5 15a1 1 0 1 0 1 1a1 1 0 0 0-1-1Zm-8 0a1 1 0 1 0 1 1a1 1 0 0 0-1-1Zm12-12a1 1 0 1 0 1 1a1 1 0 0 0-1-1Zm0 4a1 1 0 1 0 1 1a1 1 0 0 0-1-1Zm0 4a1 1 0 1 0 1 1a1 1 0 0 0-1-1Zm0 4a1 1 0 1 0 1 1a1 1 0 0 0-1-1Z"></path></svg>