<svg xmlns="http://www.w3.org/2000/svg" xmlns:xlink="http://www.w3.org/1999/xlink" aria-hidden="true" role="img" class="iconify iconify--uil" width="1em" height="1em" preserveAspectRatio="xMidYMid meet" viewBox="0 0 24 24" data-icon="uil:border-vertical"><path fill="currentColor" d="M3 3a1 1 0 1 0 1 1a1 1 0 0 0-1-1Zm0 4a1 1 0 1 0 1 1a1 1 0 0 0-1-1Zm16-2a1 1 0 1 0-1-1a1 1 0 0 0 1 1ZM7 11a1 1 0 1 0 1 1a1 1 0 0 0-1-1Zm0 8a1 1 0 1 0 1 1a1 1 0 0 0-1-1ZM7 3a1 1 0 1 0 1 1a1 1 0 0 0-1-1ZM3 15a1 1 0 1 0 1 1a1 1 0 0 0-1-1Zm0-4a1 1 0 1 0 1 1a1 1 0 0 0-1-1Zm0 8a1 1 0 1 0 1 1a1 1 0 0 0-1-1Zm16-4a1 1 0 1 0 1 1a1 1 0 0 0-1-1Zm0-4a1 1 0 1 0 1 1a1 1 0 0 0-1-1Zm0 8a1 1 0 1 0 1 1a1 1 0 0 0-1-1Zm0-12a1 1 0 1 0 1 1a1 1 0 0 0-1-1Zm-4-4a1 1 0 1 0 1 1a1 1 0 0 0-1-1Zm-4 0a1 1 0 0 0-1 1v16a1 1 0 0 0 2 0V4a1 1 0 0 0-1-1Zm4 16a1 1 0 1 0 1 1a1 1 0 0 0-1-1Zm0-8a1 1 0 1 0 1 1a1 1 0 0 0-1-1Z"></path></svg>