<svg xmlns="http://www.w3.org/2000/svg" xmlns:xlink="http://www.w3.org/1999/xlink" aria-hidden="true" role="img" class="iconify iconify--uil" width="1em" height="1em" preserveAspectRatio="xMidYMid meet" viewBox="0 0 24 24" data-icon="uil:border-out"><path fill="currentColor" d="M12 9a1 1 0 1 0-1-1a1 1 0 0 0 1 1Zm0 4a1 1 0 1 0-1-1a1 1 0 0 0 1 1Zm4 0a1 1 0 1 0-1-1a1 1 0 0 0 1 1Zm-4 4a1 1 0 1 0-1-1a1 1 0 0 0 1 1Zm8-14H4a1 1 0 0 0-1 1v16a1 1 0 0 0 1 1h16a1 1 0 0 0 1-1V4a1 1 0 0 0-1-1Zm-1 16H5V5h14ZM8 13a1 1 0 1 0-1-1a1 1 0 0 0 1 1Z"></path></svg>