<svg xmlns="http://www.w3.org/2000/svg" xmlns:xlink="http://www.w3.org/1999/xlink" aria-hidden="true" role="img" class="iconify iconify--uil" width="1em" height="1em" preserveAspectRatio="xMidYMid meet" viewBox="0 0 24 24" data-icon="uil:border-clear"><path fill="currentColor" d="M8 11a1 1 0 1 0 1 1a1 1 0 0 0-1-1Zm0 8a1 1 0 1 0 1 1a1 1 0 0 0-1-1Zm4 0a1 1 0 1 0 1 1a1 1 0 0 0-1-1ZM4 3a1 1 0 1 0 1 1a1 1 0 0 0-1-1Zm0 8a1 1 0 1 0 1 1a1 1 0 0 0-1-1Zm16-6a1 1 0 1 0-1-1a1 1 0 0 0 1 1ZM4 19a1 1 0 1 0 1 1a1 1 0 0 0-1-1Zm8-4a1 1 0 1 0 1 1a1 1 0 0 0-1-1Zm-8 0a1 1 0 1 0 1 1a1 1 0 0 0-1-1Zm0-8a1 1 0 1 0 1 1a1 1 0 0 0-1-1Zm4-4a1 1 0 1 0 1 1a1 1 0 0 0-1-1Zm12 12a1 1 0 1 0 1 1a1 1 0 0 0-1-1Zm0 4a1 1 0 1 0 1 1a1 1 0 0 0-1-1Zm0-12a1 1 0 1 0 1 1a1 1 0 0 0-1-1Zm-8 4a1 1 0 1 0 1 1a1 1 0 0 0-1-1Zm8 0a1 1 0 1 0 1 1a1 1 0 0 0-1-1Zm-4-8a1 1 0 1 0 1 1a1 1 0 0 0-1-1Zm-4 0a1 1 0 1 0 1 1a1 1 0 0 0-1-1Zm0 4a1 1 0 1 0 1 1a1 1 0 0 0-1-1Zm4 12a1 1 0 1 0 1 1a1 1 0 0 0-1-1Zm0-8a1 1 0 1 0 1 1a1 1 0 0 0-1-1Z"></path></svg>