<svg xmlns="http://www.w3.org/2000/svg" xmlns:xlink="http://www.w3.org/1999/xlink" aria-hidden="true" role="img" class="iconify iconify--uil" width="1em" height="1em" preserveAspectRatio="xMidYMid meet" viewBox="0 0 24 24" data-icon="uil:border-left"><path fill="currentColor" d="M11.5 19a1 1 0 1 0 1 1a1 1 0 0 0-1-1Zm0-4a1 1 0 1 0 1 1a1 1 0 0 0-1-1Zm0-4a1 1 0 1 0 1 1a1 1 0 0 0-1-1Zm-8-8a1 1 0 0 0-1 1v16a1 1 0 0 0 2 0V4a1 1 0 0 0-1-1Zm16 2a1 1 0 1 0-1-1a1 1 0 0 0 1 1Zm-8 2a1 1 0 1 0 1 1a1 1 0 0 0-1-1Zm-4 4a1 1 0 1 0 1 1a1 1 0 0 0-1-1Zm0 8a1 1 0 1 0 1 1a1 1 0 0 0-1-1Zm0-16a1 1 0 1 0 1 1a1 1 0 0 0-1-1Zm12 8a1 1 0 1 0 1 1a1 1 0 0 0-1-1Zm0 4a1 1 0 1 0 1 1a1 1 0 0 0-1-1Zm-8-12a1 1 0 1 0 1 1a1 1 0 0 0-1-1Zm8 16a1 1 0 1 0 1 1a1 1 0 0 0-1-1Zm0-12a1 1 0 1 0 1 1a1 1 0 0 0-1-1Zm-4-4a1 1 0 1 0 1 1a1 1 0 0 0-1-1Zm0 16a1 1 0 1 0 1 1a1 1 0 0 0-1-1Zm0-8a1 1 0 1 0 1 1a1 1 0 0 0-1-1Z"></path></svg>