<svg xmlns="http://www.w3.org/2000/svg" xmlns:xlink="http://www.w3.org/1999/xlink" aria-hidden="true" role="img" class="iconify iconify--uil" width="1em" height="1em" preserveAspectRatio="xMidYMid meet" viewBox="0 0 24 24" data-icon="uil:border-right"><path fill="currentColor" d="M4.5 7a1 1 0 1 0 1 1a1 1 0 0 0-1-1Zm0-4a1 1 0 1 0 1 1a1 1 0 0 0-1-1Zm4 16a1 1 0 1 0 1 1a1 1 0 0 0-1-1Zm-4 0a1 1 0 1 0 1 1a1 1 0 0 0-1-1Zm4-8a1 1 0 1 0 1 1a1 1 0 0 0-1-1Zm0-8a1 1 0 1 0 1 1a1 1 0 0 0-1-1Zm-4 8a1 1 0 1 0 1 1a1 1 0 0 0-1-1Zm0 4a1 1 0 1 0 1 1a1 1 0 0 0-1-1Zm12-12a1 1 0 1 0 1 1a1 1 0 0 0-1-1Zm0 8a1 1 0 1 0 1 1a1 1 0 0 0-1-1Zm-4 8a1 1 0 1 0 1 1a1 1 0 0 0-1-1Zm0-16a1 1 0 1 0 1 1a1 1 0 0 0-1-1Zm8 0a1 1 0 0 0-1 1v16a1 1 0 0 0 2 0V4a1 1 0 0 0-1-1Zm-4 16a1 1 0 1 0 1 1a1 1 0 0 0-1-1Zm-4-12a1 1 0 1 0 1 1a1 1 0 0 0-1-1Zm0 8a1 1 0 1 0 1 1a1 1 0 0 0-1-1Zm0-4a1 1 0 1 0 1 1a1 1 0 0 0-1-1Z"></path></svg>