<svg xmlns="http://www.w3.org/2000/svg" xmlns:xlink="http://www.w3.org/1999/xlink" aria-hidden="true" role="img" class="iconify iconify--flat-color-icons" width="1em" height="1em" preserveAspectRatio="xMidYMid meet" viewBox="0 0 48 48"><path fill="#D1C4E9" d="M38 7H10c-1.1 0-2 .9-2 2v6c0 1.1.9 2 2 2h28c1.1 0 2-.9 2-2V9c0-1.1-.9-2-2-2zm0 12H10c-1.1 0-2 .9-2 2v6c0 1.1.9 2 2 2h28c1.1 0 2-.9 2-2v-6c0-1.1-.9-2-2-2zm0 12H10c-1.1 0-2 .9-2 2v6c0 1.1.9 2 2 2h28c1.1 0 2-.9 2-2v-6c0-1.1-.9-2-2-2z"></path><circle cx="38" cy="38" r="10" fill="#43A047"></circle><g fill="#fff"><path d="M36 32h4v12h-4z"></path><path d="M32 36h12v4H32z"></path></g></svg>