<svg xmlns="http://www.w3.org/2000/svg" xmlns:xlink="http://www.w3.org/1999/xlink" aria-hidden="true" role="img" class="iconify iconify--flat-color-icons" width="1em" height="1em" preserveAspectRatio="xMidYMid meet" viewBox="0 0 48 48" data-icon="flat-color-icons:capacitor"><path fill="#FF9800" d="M0 27h25v4H0zm0-10h25v4H0z"></path><path fill="#3F51B5" d="M46 35c1.1 0 2-.9 2-2V15c0-1.1-.9-2-2-2H27v22h19zM21 13c-1.1 0-2 .9-2 2v18c0 1.1.9 2 2 2h2V13h-2z"></path><path fill="#303F9F" d="M25 33c1.1 0 2 .9 2 2V13c0 1.1-.9 2-2 2s-2-.9-2-2v22c0-1.1.9-2 2-2z"></path></svg>