<svg xmlns="http://www.w3.org/2000/svg" xmlns:xlink="http://www.w3.org/1999/xlink" aria-hidden="true" role="img" class="iconify iconify--flat-color-icons" width="1em" height="1em" preserveAspectRatio="xMidYMid meet" viewBox="0 0 48 48" data-icon="flat-color-icons:data-sheet"><path fill="#90CAF9" d="M39 16v7h-6v-7h-2v7h-6v-7h-2v7h-7v2h7v6h-7v2h7v6h-7v2h25V16h-2zm0 9v6h-6v-6h6zm-14 0h6v6h-6v-6zm0 8h6v6h-6v-6zm8 6v-6h6v6h-6z"></path><path fill="#00BCD4" d="M40 8H8v32h8V16h24z"></path><path fill="#0097A7" d="M7 7v34h10V17h24V7H7zm2 16v-6h6v6H9zm6 2v6H9v-6h6zm2-16h6v6h-6V9zm8 0h6v6h-6V9zM15 9v6H9V9h6zM9 39v-6h6v6H9zm30-24h-6V9h6v6z"></path></svg>