<svg xmlns="http://www.w3.org/2000/svg" xmlns:xlink="http://www.w3.org/1999/xlink" aria-hidden="true" role="img" class="iconify iconify--flat-color-icons" width="1em" height="1em" preserveAspectRatio="xMidYMid meet" viewBox="0 0 48 48" data-icon="flat-color-icons:department"><path fill="#C5CAE9" d="M42 42H6V9l18-7l18 7z"></path><path fill="#9FA8DA" d="M6 42h36v2H6z"></path><path fill="#BF360C" d="M20 35h8v9h-8z"></path><path fill="#1565C0" d="M31 27h6v5h-6zm-10 0h6v5h-6zm-10 0h6v5h-6zm20 8h6v5h-6zm-20 0h6v5h-6zm20-16h6v5h-6zm-10 0h6v5h-6zm-10 0h6v5h-6zm20-8h6v5h-6zm-10 0h6v5h-6zm-10 0h6v5h-6z"></path></svg>