<svg xmlns="http://www.w3.org/2000/svg" xmlns:xlink="http://www.w3.org/1999/xlink" aria-hidden="true" role="img" class="iconify iconify--flat-color-icons" width="1em" height="1em" preserveAspectRatio="xMidYMid meet" viewBox="0 0 48 48" data-icon="flat-color-icons:expired"><circle cx="17" cy="17" r="14" fill="#00ACC1"></circle><circle cx="17" cy="17" r="11" fill="#eee"></circle><path d="M16 8h2v9h-2z"></path><path d="m22.655 20.954l-1.697 1.697l-4.808-4.807l1.697-1.697z"></path><circle cx="17" cy="17" r="2"></circle><circle cx="17" cy="17" r="1" fill="#00ACC1"></circle><path fill="#FFC107" d="m11.9 42l14.4-24.1c.8-1.3 2.7-1.3 3.4 0L44.1 42c.8 1.3-.2 3-1.7 3H13.6c-1.5 0-2.5-1.7-1.7-3z"></path><path fill="#263238" d="M26.4 39.9c0-.2 0-.4.1-.6s.2-.3.3-.5s.3-.2.5-.3s.4-.1.6-.1s.5 0 .7.1s.4.2.5.3s.2.3.3.5s.1.4.1.6s0 .4-.1.6s-.2.3-.3.5s-.3.2-.5.3s-.4.1-.7.1s-.5 0-.6-.1s-.4-.2-.5-.3s-.2-.3-.3-.5s-.1-.4-.1-.6zm2.8-3.1h-2.3l-.4-9.8h3l-.3 9.8z"></path></svg>