<svg xmlns="http://www.w3.org/2000/svg" xmlns:xlink="http://www.w3.org/1999/xlink" aria-hidden="true" role="img" class="iconify iconify--flat-color-icons" width="1em" height="1em" preserveAspectRatio="xMidYMid meet" viewBox="0 0 48 48" data-icon="flat-color-icons:full-trash"><path fill="#FF8A65" d="M24 21.3L12.7 10L26 1.7L38.3 10z"></path><path fill="#FFAB91" d="M24 21.3L12.7 10L17 4.7L38.3 10z"></path><path fill="#B39DDB" d="M30.6 44H17.4c-2 0-3.7-1.4-4-3.4L9 11h30l-4.5 29.6c-.3 2-2 3.4-3.9 3.4z"></path><path fill="#7E57C2" d="M38 13H10c-1.1 0-2-.9-2-2s.9-2 2-2h28c1.1 0 2 .9 2 2s-.9 2-2 2z"></path></svg>