<svg xmlns="http://www.w3.org/2000/svg" xmlns:xlink="http://www.w3.org/1999/xlink" aria-hidden="true" role="img" class="iconify iconify--flat-color-icons" width="1em" height="1em" preserveAspectRatio="xMidYMid meet" viewBox="0 0 48 48"><path fill="#42A5F5" d="M39 45H9s-3-.1-3-8h36c0 7.9-3 8-3 8z"></path><path fill="#90CAF9" d="M8 3h32v34H8z"></path><path fill="#1976D2" d="M18 15h16v2H18zm0 4h16v2H18zm0 4h16v2H18zm0 4h16v2H18zm0 4h16v2H18zm-4-16h2v2h-2zm0 4h2v2h-2zm0 4h2v2h-2zm0 4h2v2h-2zm0 4h2v2h-2z"></path></svg>