<svg xmlns="http://www.w3.org/2000/svg" xmlns:xlink="http://www.w3.org/1999/xlink" aria-hidden="true" role="img" class="iconify iconify--quill" width="1em" height="1em" preserveAspectRatio="xMidYMid meet" viewBox="0 0 32 32"><path fill="currentColor" d="M25.9 7.1a1 1 0 1 0 1.414-1.415L25.899 7.1Zm-5.76-5.557a1 1 0 1 0-.517 1.932l.517-1.932Zm-7.764 1.932a1 1 0 1 0-.518-1.932l.518 1.932Zm-7.69 2.21A1 1 0 1 0 6.1 7.098L4.686 5.685ZM17 9a1 1 0 1 0-2 0h2Zm-1 8l.707.707A1 1 0 0 0 17 17h-1Zm-4.707 3.293a1 1 0 0 0 1.414 1.414l-1.414-1.414ZM26 17c0 5.523-4.477 10-10 10v2c6.627 0 12-5.373 12-12h-2ZM16 27c-5.523 0-10-4.477-10-10H4c0 6.627 5.373 12 12 12v-2ZM6 17c0-5.523 4.477-10 10-10V5C9.373 5 4 10.373 4 17h2ZM16 7c5.523 0 10 4.477 10 10h2c0-6.627-5.373-12-12-12v2Zm11.314-1.315a16 16 0 0 0-7.173-4.14l-.517 1.93A14 14 0 0 1 25.9 7.1l1.414-1.414Zm-15.455-4.14a16 16 0 0 0-7.173 4.14L6.101 7.1a14 14 0 0 1 6.276-3.623l-.518-1.932ZM15 9v8h2V9h-2Zm.293 7.293l-4 4l1.414 1.414l4-4l-1.414-1.414Z"></path></svg>