<svg xmlns="http://www.w3.org/2000/svg" xmlns:xlink="http://www.w3.org/1999/xlink" aria-hidden="true" role="img" class="iconify iconify--quill" width="1em" height="1em" preserveAspectRatio="xMidYMid meet" viewBox="0 0 32 32" data-icon="quill:arrow-up"><path fill="currentColor" d="M15 27a1 1 0 1 0 2 0h-2Zm2-21a1 1 0 1 0-2 0h2Zm-1-1l.707-.707a1 1 0 0 0-1.414 0L16 5Zm7.293 8.707a1 1 0 0 0 1.414-1.414l-1.414 1.414Zm-16-1.414a1 1 0 1 0 1.414 1.414l-1.414-1.414ZM17 27V6h-2v21h2ZM15.293 5.707l8 8l1.414-1.414l-8-8l-1.414 1.414Zm0-1.414l-8 8l1.414 1.414l8-8l-1.414-1.414Z"></path></svg>