<svg xmlns="http://www.w3.org/2000/svg" xmlns:xlink="http://www.w3.org/1999/xlink" aria-hidden="true" role="img" class="iconify iconify--quill" width="1em" height="1em" preserveAspectRatio="xMidYMid meet" viewBox="0 0 32 32"><path fill="currentColor" d="M6 15a1 1 0 1 0 0 2v-2Zm21 2a1 1 0 1 0 0-2v2ZM5 16l-.707-.707a1 1 0 0 0 0 1.414L5 16Zm8.707-7.293a1 1 0 0 0-1.414-1.414l1.414 1.414Zm-1.414 16a1 1 0 0 0 1.414-1.414l-1.414 1.414ZM6 17h21v-2H6v2Zm-.293-.293l8-8l-1.414-1.414l-8 8l1.414 1.414Zm-1.414 0l8 8l1.414-1.414l-8-8l-1.414 1.414Z"></path></svg>