<svg xmlns="http://www.w3.org/2000/svg" xmlns:xlink="http://www.w3.org/1999/xlink" aria-hidden="true" role="img" class="iconify iconify--quill" width="1em" height="1em" preserveAspectRatio="xMidYMid meet" viewBox="0 0 32 32" data-icon="quill:calendar-more"><defs><path id="IconifyId17f5a19078576f9260" fill-rule="evenodd" d="M12.5 19.5a1.5 1.5 0 1 1-3 0a1.5 1.5 0 0 1 3 0Zm5 0a1.5 1.5 0 1 1-3 0a1.5 1.5 0 0 1 3 0ZM21 21a1.5 1.5 0 1 0 0-3a1.5 1.5 0 0 0 0 3Z" clip-rule="evenodd"></path></defs><mask id="IconifyId17f5a19078576f9261" fill="#fff"><use xlink:href="#IconifyId17f5a19078576f9260" fill-rule="evenodd" clip-rule="evenodd"></use></mask><g fill="currentColor"><path d="M5 11a1 1 0 1 0 0 2v-2Zm22 2a1 1 0 1 0 0-2v2Zm-7-5a1 1 0 1 0 2 0h-2Zm2-4a1 1 0 1 0-2 0h2ZM10 8a1 1 0 1 0 2 0h-2Zm2-4a1 1 0 1 0-2 0h2ZM7 7h18V5H7v2Zm19 1v18h2V8h-2Zm-1 19H7v2h18v-2ZM6 26V8H4v18h2Zm1 1a1 1 0 0 1-1-1H4a3 3 0 0 0 3 3v-2Zm19-1a1 1 0 0 1-1 1v2a3 3 0 0 0 3-3h-2ZM25 7a1 1 0 0 1 1 1h2a3 3 0 0 0-3-3v2ZM7 5a3 3 0 0 0-3 3h2a1 1 0 0 1 1-1V5Zm-2 8h22v-2H5v2Zm17-5V4h-2v4h2ZM12 8V4h-2v4h2Z"></path><use xlink:href="#IconifyId17f5a19078576f9260" fill-rule="evenodd" clip-rule="evenodd"></use><path d="M11 22a2.5 2.5 0 0 0 2.5-2.5h-2a.5.5 0 0 1-.5.5v2Zm-2.5-2.5A2.5 2.5 0 0 0 11 22v-2a.5.5 0 0 1-.5-.5h-2ZM11 17a2.5 2.5 0 0 0-2.5 2.5h2a.5.5 0 0 1 .5-.5v-2Zm2.5 2.5A2.5 2.5 0 0 0 11 17v2a.5.5 0 0 1 .5.5h2ZM16 22a2.5 2.5 0 0 0 2.5-2.5h-2a.5.5 0 0 1-.5.5v2Zm-2.5-2.5A2.5 2.5 0 0 0 16 22v-2a.5.5 0 0 1-.5-.5h-2ZM16 17a2.5 2.5 0 0 0-2.5 2.5h2a.5.5 0 0 1 .5-.5v-2Zm2.5 2.5A2.5 2.5 0 0 0 16 17v2a.5.5 0 0 1 .5.5h2Zm3 0a.5.5 0 0 1-.5.5v2a2.5 2.5 0 0 0 2.5-2.5h-2ZM21 19a.5.5 0 0 1 .5.5h2A2.5 2.5 0 0 0 21 17v2Zm-.5.5a.5.5 0 0 1 .5-.5v-2a2.5 2.5 0 0 0-2.5 2.5h2Zm.5.5a.5.5 0 0 1-.5-.5h-2A2.5 2.5 0 0 0 21 22v-2Z" mask="url(#IconifyId17f5a19078576f9261)"></path></g></svg>