<svg xmlns="http://www.w3.org/2000/svg" xmlns:xlink="http://www.w3.org/1999/xlink" aria-hidden="true" role="img" class="iconify iconify--quill" width="1em" height="1em" preserveAspectRatio="xMidYMid meet" viewBox="0 0 32 32" data-icon="quill:calendar-add"><path fill="currentColor" d="M15 23.5a1 1 0 1 0 2 0h-2Zm2-7a1 1 0 1 0-2 0h2ZM12.5 19a1 1 0 1 0 0 2v-2Zm7 2a1 1 0 1 0 0-2v2ZM5 11a1 1 0 1 0 0 2v-2Zm22 2a1 1 0 1 0 0-2v2Zm-7-5a1 1 0 1 0 2 0h-2Zm2-4a1 1 0 1 0-2 0h2ZM10 8a1 1 0 1 0 2 0h-2Zm2-4a1 1 0 1 0-2 0h2Zm5 19.5V20h-2v3.5h2Zm0-3.5v-3.5h-2V20h2Zm-4.5 1H16v-2h-3.5v2Zm3.5 0h3.5v-2H16v2ZM7 7h18V5H7v2Zm19 1v18h2V8h-2Zm-1 19H7v2h18v-2ZM6 26V8H4v18h2Zm1 1a1 1 0 0 1-1-1H4a3 3 0 0 0 3 3v-2Zm19-1a1 1 0 0 1-1 1v2a3 3 0 0 0 3-3h-2ZM25 7a1 1 0 0 1 1 1h2a3 3 0 0 0-3-3v2ZM7 5a3 3 0 0 0-3 3h2a1 1 0 0 1 1-1V5Zm-2 8h22v-2H5v2Zm17-5V4h-2v4h2ZM12 8V4h-2v4h2Z"></path></svg>