<svg xmlns="http://www.w3.org/2000/svg" xmlns:xlink="http://www.w3.org/1999/xlink" aria-hidden="true" role="img" class="iconify iconify--quill" width="1em" height="1em" preserveAspectRatio="xMidYMid meet" viewBox="0 0 32 32" data-icon="quill:calendar-someday"><g fill="currentColor"><path stroke="currentColor" d="M16.75 23.75a.75.75 0 1 1-1.5 0a.75.75 0 0 1 1.5 0Z"></path><path d="M16 19.462v-1a1 1 0 0 0-1 1h1Zm1.962-2.39l-.981.195l.98-.196Zm-2.727-1.458l.382.924l-.382-.924ZM13 17.462a1 1 0 1 0 2 0h-2Zm2 3.038a1 1 0 1 0 2 0h-2ZM5 11a1 1 0 1 0 0 2v-2Zm22 2a1 1 0 1 0 0-2v2Zm-7-5a1 1 0 1 0 2 0h-2Zm2-4a1 1 0 1 0-2 0h2ZM10 8a1 1 0 1 0 2 0h-2Zm2-4a1 1 0 1 0-2 0h2Zm4 16.462a3 3 0 0 0 1.667-.506l-1.111-1.663a1 1 0 0 1-.556.169v2Zm1.667-.506a3 3 0 0 0 1.105-1.346l-1.848-.766a1 1 0 0 1-.368.449l1.11 1.663Zm1.105-1.346a3 3 0 0 0 .17-1.734l-1.961.39a1 1 0 0 1-.057.578l1.848.766Zm.17-1.734a3 3 0 0 0-.82-1.536l-1.415 1.414a1 1 0 0 1 .274.512l1.961-.39Zm-.82-1.536a3 3 0 0 0-1.537-.82l-.39 1.96a1 1 0 0 1 .512.274l1.414-1.414Zm-1.537-.82a3 3 0 0 0-1.733.17l.765 1.848a1 1 0 0 1 .578-.057l.39-1.962Zm-1.733.17a3 3 0 0 0-1.346 1.105l1.662 1.111a1 1 0 0 1 .45-.368l-.766-1.848Zm-1.346 1.105A3 3 0 0 0 13 17.462h2a1 1 0 0 1 .168-.556l-1.662-1.111ZM15 19.462V20.5h2v-1.038h-2ZM7 7h18V5H7v2Zm19 1v18h2V8h-2Zm-1 19H7v2h18v-2ZM6 26V8H4v18h2Zm1 1a1 1 0 0 1-1-1H4a3 3 0 0 0 3 3v-2Zm19-1a1 1 0 0 1-1 1v2a3 3 0 0 0 3-3h-2ZM25 7a1 1 0 0 1 1 1h2a3 3 0 0 0-3-3v2ZM7 5a3 3 0 0 0-3 3h2a1 1 0 0 1 1-1V5Zm-2 8h22v-2H5v2Zm17-5V4h-2v4h2ZM12 8V4h-2v4h2Z"></path></g></svg>