<svg xmlns="http://www.w3.org/2000/svg" xmlns:xlink="http://www.w3.org/1999/xlink" aria-hidden="true" role="img" class="iconify iconify--quill" width="1em" height="1em" preserveAspectRatio="xMidYMid meet" viewBox="0 0 32 32" data-icon="quill:cog"><path fill="currentColor" d="m12.874 6.498l.313.95l-.313-.95Zm.342-.362l-.97-.242l.97.242Zm-2.222.921l-.514.857l.514-.857Zm.498.014l.451.893l-.451-.893ZM7.946 5.67l-.707-.707l.707.707Zm.61-.075l.515-.857l-.514.857ZM5.595 8.557l-.857.514l.857-.514Zm.075-.611l.708.707l-.708-.707Zm1.402 3.546l-.892-.451l.892.451Zm-.014-.498l.857-.514l-.857.514Zm-.92 2.222l-.243-.97l.242.97Zm.361-.341l.95.312l-.95-.313Zm-3.12 1.03l.243.97l-.242-.97Zm0 4.19l.243-.97l-.242.97Zm3.12 1.03l-.95.313l.95-.313Zm-.362-.341l-.242.97l.242-.97Zm.921 2.222l.857.514l-.857-.514Zm.014-.498l.893-.451l-.893.451ZM5.67 24.054l-.707.707l.707-.707Zm-.075-.61l-.857-.515l.857.514Zm2.963 2.962l-.515-.858l.515.858Zm-.611-.075l.707-.708l-.707.708Zm3.546-1.402l.451-.893l-.451.893Zm-.498.014l.515.857l-.515-.857Zm1.914.78l-.949.317l.949-.316Zm-.315-.318l-.34.94l.34-.94Zm1.293 3.253l.949-.316l-.949.316Zm4.228 0l-.949-.316l.949.316Zm1.293-3.253l.34.94l-.34-.94Zm-.315.319l.949.316l-.949-.316Zm1.597-.662l.447-.895l-.447.895Zm-.449-.003l-.424-.905l.424.905Zm3.216 1.386l-.447.895l.447-.895Zm2.99-2.99l-.895.448l.894-.447ZM25.06 20.24l.905.425l-.905-.425Zm.003.449l.894-.447l-.894.447Zm.662-1.597l.316.949l-.316-.949Zm-.32.315l-.94-.34l.94.34Zm3.254-1.293l-.316-.949l.316.949Zm0-4.228l.316-.949l-.316.949Zm-3.253-1.293l.94-.34l-.94.34Zm.319.315l-.317.949l.317-.95Zm-.662-1.597l.894.447l-.894-.447Zm-.003.449l.905-.425l-.905.425Zm1.293-3.793l-.707.707l.707-.707Zm.093.577l-.894-.447l.894.447Zm-2.99-2.99l-.446-.894l.447.895Zm.578.094l.707-.707l-.707.707ZM20.24 6.941l.425-.906l-.425.906Zm.449-.003l.447.894l-.447-.894Zm-1.905-.802l.97-.242l-.97.242Zm.341.362l-.312.95l.313-.95Zm-5.22-3.12l.97.243l-.97-.242Zm4.19 0l-.97.243l.97-.242ZM17.61 2h-3.22v2h3.22V2Zm2.144 3.894l-.69-2.758l-1.94.485l.69 2.758l1.94-.485Zm-.94 1.554c.343.113.678.246 1.002.398l.849-1.81a10.933 10.933 0 0 0-1.227-.488l-.625 1.9Zm4.195-2.788l-2.767 1.384l.894 1.788l2.767-1.383l-.894-1.789Zm4.05 2.6L24.74 4.94l-1.414 1.414l2.319 2.32l1.414-1.415Zm-1.103 4.498l1.384-2.767l-1.789-.894l-1.383 2.767l1.788.894Zm-1.802.426c.114.244.218.494.31.75l1.88-.682a10.95 10.95 0 0 0-.38-.917l-1.81.85Zm4.82.753l-2.934-.978l-.633 1.898l2.935.978l.632-1.898ZM30 17.64v-3.28h-2v3.28h2Zm-3.96 2.4l2.934-.977l-.632-1.898l-2.934.978l.632 1.898Zm-1.576-.974a8.94 8.94 0 0 1-.31.75l1.81.849c.14-.299.268-.605.38-.917l-1.88-.682Zm2.876 3.943l-1.384-2.767l-1.788.894l1.383 2.767l1.789-.894Zm-2.6 4.05l2.319-2.319l-1.414-1.414l-2.32 2.319l1.415 1.414Zm-4.498-1.103l2.767 1.384l.894-1.789l-2.767-1.383l-.894 1.788Zm-.426-1.802a8.94 8.94 0 0 1-.75.31l.682 1.88c.312-.113.618-.24.917-.38l-.85-1.81Zm-.753 4.82l.978-2.934l-1.898-.633l-.978 2.935l1.898.632ZM14.36 30h3.28v-2h-3.28v2Zm-2.4-3.96l.977 2.934l1.898-.632l-.978-2.934l-1.898.632Zm.974-1.576a8.922 8.922 0 0 1-.99-.428l-.903 1.785c.39.198.795.373 1.211.524l.682-1.88Zm-3.863 2.8L11.51 25.8l-1.03-1.715l-2.437 1.462l1.03 1.715ZM4.962 24.76l2.277 2.277l1.414-1.415l-2.276-2.276l-1.415 1.414Zm1.237-4.27l-1.462 2.44l1.715 1.029l1.462-2.438l-1.714-1.03Zm1.765-.434a8.938 8.938 0 0 1-.516-1.244l-1.9.625c.173.526.384 1.034.631 1.521l1.785-.902Zm-4.828-.992l2.758.69l.485-1.941l-2.758-.69l-.485 1.94ZM2 14.39v3.22h2v-3.22H2Zm3.894-2.144l-2.758.69l.485 1.94l2.758-.69l-.485-1.94Zm1.554.94c.141-.429.314-.844.516-1.243l-1.785-.902c-.247.487-.458.995-.63 1.521l1.9.625ZM4.737 9.072l1.462 2.438l1.715-1.03l-1.462-2.437l-1.715 1.03Zm2.502-4.109L4.962 7.24l1.415 1.414l2.276-2.276l-1.414-1.415Zm4.27 1.237L9.07 4.737L8.042 6.452l2.438 1.462L11.509 6.2Zm.434 1.765a8.938 8.938 0 0 1 1.244-.516l-.625-1.9c-.526.173-1.034.384-1.521.631l.902 1.785Zm.992-4.828l-.69 2.758l1.941.485l.69-2.758l-1.94-.485Zm.252 4.312c.479-.157.87-.55 1-1.07l-1.941-.484a.485.485 0 0 1 .316-.346l.625 1.9Zm-2.707.466c.46.276 1.013.277 1.463.05l-.902-1.785a.485.485 0 0 1 .468.02l-1.03 1.715ZM8.653 6.377a.5.5 0 0 1-.61.075L9.07 4.737a1.5 1.5 0 0 0-1.832.225l1.414 1.415ZM6.452 8.042a.5.5 0 0 1-.075.61L4.962 7.24a1.5 1.5 0 0 0-.225 1.832l1.715-1.029Zm1.512 3.901a1.515 1.515 0 0 0-.05-1.463L6.2 11.509a.485.485 0 0 1-.02-.468l1.785.902Zm-1.585 2.243c.52-.13.912-.52 1.07-1l-1.9-.624a.485.485 0 0 1 .345-.316l.485 1.94ZM4 14.39a.5.5 0 0 1-.379.486l-.485-1.94A1.5 1.5 0 0 0 2 14.39h2Zm-.379 2.735A.5.5 0 0 1 4 17.61H2a1.5 1.5 0 0 0 1.136 1.455l.485-1.94Zm3.827 1.688a1.515 1.515 0 0 0-1.07-1l-.484 1.941a.485.485 0 0 1-.346-.316l1.9-.625Zm.466 2.707c.276-.46.277-1.013.05-1.463l-1.785.902a.485.485 0 0 1 .02-.468l1.715 1.03Zm-1.537 1.827a.5.5 0 0 1 .075.61L4.737 22.93a1.5 1.5 0 0 0 .225 1.832l1.415-1.414Zm1.665 2.201a.5.5 0 0 1 .61.075L7.24 27.038a1.5 1.5 0 0 0 1.832.225l-1.029-1.715Zm3.901-1.512a1.515 1.515 0 0 0-1.463.05l1.029 1.715a.485.485 0 0 1-.468.02l.902-1.785Zm1.914 1.371a1.519 1.519 0 0 0-.923-.943l-.682 1.88a.485.485 0 0 1-.293-.304l1.898-.633ZM14.36 28a.5.5 0 0 1 .475.342l-1.898.632A1.5 1.5 0 0 0 14.36 30v-2Zm2.805.342A.5.5 0 0 1 17.64 28v2a1.5 1.5 0 0 0 1.423-1.026l-1.898-.632Zm1.901-3.878a1.515 1.515 0 0 0-.923.944l1.898.632a.485.485 0 0 1-.293.305l-.682-1.88Zm2.07-.296a1.514 1.514 0 0 0-1.32-.014l.849 1.81a.485.485 0 0 1-.423-.008l.894-1.788Zm2.19 1.477a.5.5 0 0 1 .577-.094l-.894 1.789a1.5 1.5 0 0 0 1.731-.281l-1.414-1.414Zm2.225-1.742a.5.5 0 0 1 .094-.577l1.414 1.414a1.5 1.5 0 0 0 .28-1.731l-1.788.894Zm-1.397-4.087c-.191.407-.2.894.014 1.32l1.788-.894a.485.485 0 0 1 .009.423l-1.811-.85Zm1.253-1.673c-.451.151-.79.501-.943.923l1.88.682a.485.485 0 0 1-.304.293l-.633-1.898ZM28 17.64a.5.5 0 0 1 .342-.475l.632 1.898A1.5 1.5 0 0 0 30 17.64h-2Zm.342-2.805A.5.5 0 0 1 28 14.36h2a1.5 1.5 0 0 0-1.026-1.423l-.632 1.898Zm-3.878-1.901c.154.422.492.772.944.923l.632-1.898a.485.485 0 0 1 .305.293l-1.88.682Zm-.296-2.07a1.514 1.514 0 0 0-.014 1.32l1.81-.849a.485.485 0 0 1-.008.423l-1.788-.894Zm1.477-2.19a.5.5 0 0 1-.094-.577l1.789.894a1.5 1.5 0 0 0-.281-1.731l-1.414 1.414ZM23.903 6.45a.5.5 0 0 1-.577-.094l1.414-1.414a1.5 1.5 0 0 0-1.731-.28l.894 1.788Zm-4.087 1.397c.407.191.894.2 1.32-.014l-.894-1.788a.486.486 0 0 1 .423-.009l-.85 1.811ZM17.814 6.38c.13.52.52.912 1 1.07l.624-1.9a.485.485 0 0 1 .316.345l-1.94.485ZM14.39 2a1.5 1.5 0 0 0-1.455 1.136l1.94.485A.5.5 0 0 1 14.39 4V2Zm3.22 2a.5.5 0 0 1-.485-.379l1.94-.485A1.5 1.5 0 0 0 17.61 2v2ZM20 16a4 4 0 0 1-4 4v2a6 6 0 0 0 6-6h-2Zm-4 4a4 4 0 0 1-4-4h-2a6 6 0 0 0 6 6v-2Zm-4-4a4 4 0 0 1 4-4v-2a6 6 0 0 0-6 6h2Zm4-4a4 4 0 0 1 4 4h2a6 6 0 0 0-6-6v2Z"></path></svg>