<svg xmlns="http://www.w3.org/2000/svg" xmlns:xlink="http://www.w3.org/1999/xlink" aria-hidden="true" role="img" class="iconify iconify--quill" width="1em" height="1em" preserveAspectRatio="xMidYMid meet" viewBox="0 0 32 32" data-icon="quill:creditcard"><path fill="currentColor" d="M3 23h1h-1Zm8-4a1 1 0 1 0 0 2v-2Zm8 2a1 1 0 1 0 0-2v2ZM3 12a1 1 0 1 0 0 2v-2Zm26 2a1 1 0 1 0 0-2v2Zm-6 5a1 1 0 1 0 0 2v-2Zm2 2a1 1 0 1 0 0-2v2Zm3-12v14h2V9h-2ZM5 24c-.175 0-.433-.098-.668-.332C4.097 23.433 4 23.175 4 23H2c0 .825.403 1.567.918 2.082C3.433 25.597 4.175 26 5 26v-2Zm23-1c0 .175-.098.433-.332.668c-.235.235-.493.332-.668.332v2c.825 0 1.567-.402 2.082-.918c.515-.515.918-1.257.918-2.082h-2ZM4 23V9H2v14h2ZM4 9c0-.175.097-.433.332-.668C4.567 8.097 4.825 8 5 8V6c-.825 0-1.567.403-2.082.918C2.403 7.433 2 8.175 2 9h2Zm1-1h22V6H5v2Zm22 0c.175 0 .433.097.668.332c.235.235.332.493.332.668h2c0-.825-.402-1.567-.918-2.082C28.567 6.403 27.825 6 27 6v2ZM11 21h8v-2h-8v2Zm-8-7h26v-2H3v2Zm20 7h2v-2h-2v2Zm4 3H5v2h22v-2Z"></path></svg>