<svg xmlns="http://www.w3.org/2000/svg" xmlns:xlink="http://www.w3.org/1999/xlink" aria-hidden="true" role="img" class="iconify iconify--quill" width="1em" height="1em" preserveAspectRatio="xMidYMid meet" viewBox="0 0 32 32" data-icon="quill:download"><path fill="currentColor" d="M15 22a1 1 0 1 0 2 0h-2Zm2-17a1 1 0 1 0-2 0h2Zm-1 18l-.707.707a1 1 0 0 0 1.414 0L16 23Zm-6.293-7.707a1 1 0 0 0-1.414 1.414l1.414-1.414Zm14 1.414a1 1 0 0 0-1.414-1.414l1.414 1.414ZM9 26a1 1 0 1 0 0 2v-2Zm14 2a1 1 0 1 0 0-2v2Zm-6-6V5h-2v17h2Zm-.293.293l-7-7l-1.414 1.414l7 7l1.414-1.414Zm0 1.414l7-7l-1.414-1.414l-7 7l1.414 1.414ZM9 28h14v-2H9v2Z"></path></svg>