<svg xmlns="http://www.w3.org/2000/svg" xmlns:xlink="http://www.w3.org/1999/xlink" aria-hidden="true" role="img" class="iconify iconify--quill" width="1em" height="1em" preserveAspectRatio="xMidYMid meet" viewBox="0 0 32 32" data-icon="quill:folder-archive"><path fill="currentColor" d="M5 11H4a1 1 0 0 0 1 1v-1Zm2 0h1a1 1 0 0 0-1-1v1Zm18 0v-1a1 1 0 0 0-1 1h1Zm2 0v1a1 1 0 0 0 1-1h-1ZM6 10a1 1 0 1 0 0 2v-2Zm20 2a1 1 0 1 0 0-2v2Zm-14 3a1 1 0 1 0 0 2v-2Zm8 2a1 1 0 1 0 0-2v2ZM4 7v4h2V7H4Zm1 5h2v-2H5v2Zm1-1v14.002h2V11H6Zm20 14.002V11h-2v14.002h2ZM25 12h2v-2h-2v2Zm3-1V7h-2v4h2Zm-5 15H9v2h14v-2Zm2-22H7v2h18V4Zm3 3a3 3 0 0 0-3-3v2a1 1 0 0 1 1 1h2Zm-4 18.002A.999.999 0 0 1 23 26v2c1.656 0 3-1.34 3-2.998h-2Zm-18 0A2.999 2.999 0 0 0 9 28v-2c-.553 0-1-.447-1-.998H6ZM6 6.998A1 1 0 0 1 7 6V4a3 3 0 0 0-3 3h2ZM6 12h20v-2H6v2Zm6 5h8v-2h-8v2Z"></path></svg>