<svg xmlns="http://www.w3.org/2000/svg" xmlns:xlink="http://www.w3.org/1999/xlink" aria-hidden="true" role="img" class="iconify iconify--quill" width="1em" height="1em" preserveAspectRatio="xMidYMid meet" viewBox="0 0 32 32" data-icon="quill:folder-trash"><path fill="currentColor" d="m8 26l-.986.164a1 1 0 0 0 .092.283L8 26Zm16 0l.894.447a1 1 0 0 0 .092-.283L24 26Zm-4.793-8.793a1 1 0 0 0-1.414-1.414l1.414 1.414Zm-6.414 3.586a1 1 0 0 0 1.414 1.414l-1.414-1.414Zm1.414-5a1 1 0 0 0-1.414 1.414l1.414-1.414Zm3.586 6.414a1 1 0 0 0 1.414-1.414l-1.414 1.414ZM26 8c0-.115.073.018-.406.327c-.435.28-1.13.57-2.079.83C21.632 9.67 18.975 10 16 10v2c3.1 0 5.943-.342 8.041-.914c1.042-.284 1.958-.64 2.636-1.078C27.311 9.6 28 8.944 28 8h-2Zm-10 2c-2.975 0-5.632-.33-7.515-.843c-.949-.26-1.644-.55-2.079-.83C5.926 8.018 6 7.885 6 8H4c0 .944.689 1.6 1.323 2.008c.678.438 1.594.794 2.636 1.078c2.098.572 4.94.914 8.041.914v-2ZM6 8c0 .115-.073-.018.406-.327c.435-.28 1.13-.57 2.079-.83C10.368 6.33 13.025 6 16 6V4c-3.1 0-5.943.342-8.041.914c-1.042.284-1.958.64-2.636 1.078C4.689 6.4 4 7.056 4 8h2Zm10-2c2.975 0 5.632.33 7.515.843c.949.26 1.644.55 2.079.83c.48.309.406.442.406.327h2c0-.944-.689-1.6-1.323-2.008c-.678-.438-1.594-.794-2.636-1.078C21.943 4.342 19.101 4 16 4v2ZM4.014 8.164l3 18l1.972-.328l-3-18l-1.972.328Zm20.972 18l3-18l-1.972-.328l-3 18l1.972.328ZM8 26c-.894.447-.894.448-.893.45l.001.002a.858.858 0 0 0 .054.095c.025.04.056.087.095.139c.077.104.185.227.33.361c.292.27.73.577 1.382.867C10.264 28.489 12.415 29 16 29v-2c-3.415 0-5.264-.49-6.219-.914c-.474-.21-.723-.403-.837-.508a.742.742 0 0 1-.087-.092c-.003-.003 0 0 .007.012a.509.509 0 0 1 .026.045l.002.005l.001.002c0 .002.001.003-.893.45Zm8 3c3.585 0 5.736-.51 7.031-1.086c.651-.29 1.09-.597 1.382-.867a2.64 2.64 0 0 0 .33-.361a1.826 1.826 0 0 0 .146-.229l.003-.005l.001-.002c0-.002.001-.003-.893-.45a36.234 36.234 0 0 1-.893-.45l.001-.002l.002-.005l.005-.008a.47.47 0 0 1 .02-.037l.008-.012a.75.75 0 0 1-.087.092c-.114.105-.363.298-.837.508c-.955.425-2.804.914-6.219.914v2Zm1.793-13.207l-5 5l1.414 1.414l5-5l-1.414-1.414Zm-5 1.414l5 5l1.414-1.414l-5-5l-1.414 1.414Z"></path></svg>