<svg xmlns="http://www.w3.org/2000/svg" xmlns:xlink="http://www.w3.org/1999/xlink" aria-hidden="true" role="img" class="iconify iconify--quill" width="1em" height="1em" preserveAspectRatio="xMidYMid meet" viewBox="0 0 32 32" data-icon="quill:gift"><path fill="currentColor" d="M5 15H4a1 1 0 0 0 1 1v-1Zm22 0v1a1 1 0 0 0 1-1h-1ZM15 27a1 1 0 1 0 2 0h-2Zm7.5-23.5l.707-.707l-.707.707ZM7 8c-.825 0-1.567.403-2.082.918C4.403 9.433 4 10.175 4 11h2c0-.175.097-.433.332-.668c.235-.235.493-.332.668-.332V8Zm-3 3v4h2v-4H4Zm1 5h2v-2H5v2Zm1-1v10h2V15H6Zm0 10c0 .825.403 1.567.918 2.082C7.433 27.597 8.175 28 9 28v-2c-.175 0-.433-.097-.668-.332C8.097 25.433 8 25.175 8 25H6Zm3 3h14v-2H9v2Zm14 0c.825 0 1.567-.402 2.082-.918c.515-.515.918-1.257.918-2.082h-2c0 .175-.098.433-.332.668c-.235.235-.493.332-.668.332v2Zm3-3V15h-2v10h2Zm-1-9h2v-2h-2v2Zm3-1v-4h-2v4h2Zm0-4c0-.825-.402-1.567-.918-2.082C26.567 8.403 25.825 8 25 8v2c.175 0 .433.098.668.332c.235.235.332.493.332.668h2Zm-3-3H7v2h18V8ZM7 16h18v-2H7v2Zm8-7v18h2V9h-2Zm1.905-.426c-.678-1.44-1.76-3.413-3.037-4.732c-.633-.654-1.414-1.252-2.314-1.449c-.99-.216-1.95.088-2.761.9l1.414 1.414c.389-.388.674-.413.92-.36c.335.073.78.344 1.305.886c1.039 1.073 2.007 2.799 2.663 4.193l1.81-.852ZM8.793 3.293c-.398.398-.688.854-.816 1.368a2.46 2.46 0 0 0 .1 1.492c.338.876 1.11 1.571 1.922 2.09C11.647 9.295 14.06 10 16 10V8c-1.559 0-3.597-.595-4.924-1.443c-.676-.431-1.022-.836-1.132-1.122a.456.456 0 0 1-.027-.289c.022-.087.088-.237.29-.439L8.793 3.293ZM17 9c0-1.914.96-3.507 2.111-4.396c1.227-.948 2.223-.856 2.682-.397l1.414-1.414c-1.541-1.541-3.795-.949-5.319.228C16.29 4.257 15 6.414 15 9h2Zm4.793-4.793c.405.405.414.697.347.934c-.094.33-.412.773-1.047 1.242C19.834 7.313 17.794 8 16 8v2c2.206 0 4.666-.814 6.282-2.008c.802-.593 1.516-1.369 1.782-2.305c.292-1.028-.012-2.05-.857-2.894l-1.414 1.414Z"></path></svg>