<svg xmlns="http://www.w3.org/2000/svg" xmlns:xlink="http://www.w3.org/1999/xlink" aria-hidden="true" role="img" class="iconify iconify--quill" width="1em" height="1em" preserveAspectRatio="xMidYMid meet" viewBox="0 0 32 32" data-icon="quill:inbox-newsletter"><path fill="currentColor" d="m5 16l-.98-.196A1 1 0 0 0 4 16h1Zm22 0h1a1 1 0 0 0-.02-.196L27 16Zm-5.5 0v-1a1 1 0 0 0-.962.725L21.5 16Zm-11 0l.961-.275A1 1 0 0 0 10.5 15v1Zm16.48-5.196a1 1 0 0 0-1.96.392l1.96-.392ZM4 19.5a1 1 0 1 0 2 0H4Zm2.98-8.304a1 1 0 0 0-1.96-.392l1.96.392ZM13.5 8a1 1 0 1 0 0 2V8Zm5 2a1 1 0 1 0 0-2v2Zm-5 2a1 1 0 1 0 0 2v-2Zm5 2a1 1 0 1 0 0-2v2Zm-10-1a1 1 0 1 0 2 0h-2Zm1-8V4a1 1 0 0 0-1 1h1Zm13 0h1a1 1 0 0 0-1-1v1Zm-1 8a1 1 0 1 0 2 0h-2Zm5.5 3h-1v8h2v-7.999L27 16Zm-1 8c0 .425-.223.933-.645 1.355c-.422.422-.93.645-1.355.645v2c1.075 0 2.067-.527 2.77-1.23c.703-.703 1.23-1.695 1.23-2.77h-2ZM8 26c-.425 0-.933-.223-1.355-.645C6.222 24.933 6 24.425 6 24H4c0 1.075.528 2.067 1.23 2.77C5.933 27.473 6.925 28 8 28v-2Zm-2-2v-8H4v8h2Zm10-3.5c2.547 0 4.182-1.005 5.17-2.07c.484-.52.8-1.041.998-1.436a5.28 5.28 0 0 0 .285-.691a1.307 1.307 0 0 0 .007-.023v-.003l.001-.001L21.5 16a87.01 87.01 0 0 1-.961-.276v-.003l.001-.002v-.002l-.002.01a3.259 3.259 0 0 1-.159.372c-.13.262-.346.616-.674.97c-.637.686-1.752 1.431-3.705 1.431v2Zm5.5-3.5H27v-2h-5.5v2ZM5 17h5.5v-2H5v2Zm5.5-1a78.07 78.07 0 0 0-.961.276v.004l.003.006a1.573 1.573 0 0 0 .02.066c.013.038.03.09.054.152c.047.124.117.292.216.49a6.2 6.2 0 0 0 .998 1.436c.988 1.065 2.623 2.07 5.17 2.07v-2c-1.953 0-3.068-.745-3.705-1.43a4.196 4.196 0 0 1-.674-.97a3.259 3.259 0 0 1-.162-.383v.002l.001.002v.002l.001.001L10.5 16ZM24 26H8v2h16v-2Zm1.02-14.804l1 5l1.96-.392l-1-5l-1.96.392ZM4 16v3.5h2V16H4Zm1.02-5.196l-1 5l1.96.392l1-5l-1.96-.392ZM13.5 10h5V8h-5v2Zm0 4h5v-2h-5v2Zm-3-1V5h-2v8h2Zm-1-7h13V4h-13v2Zm12-1v8h2V5h-2Z"></path></svg>