<svg xmlns="http://www.w3.org/2000/svg" xmlns:xlink="http://www.w3.org/1999/xlink" aria-hidden="true" role="img" class="iconify iconify--quill" width="1em" height="1em" preserveAspectRatio="xMidYMid meet" viewBox="0 0 32 32" data-icon="quill:inbox"><path fill="currentColor" d="m5 16l-.94-.342A1 1 0 0 0 4 16h1Zm22 0h1a1 1 0 0 0-.06-.342L27 16Zm-5.5 0v-1a1 1 0 0 0-.92.606l.92.394Zm-11 0l.92-.394A1 1 0 0 0 10.5 15v1ZM23 5l.94-.342A1 1 0 0 0 23 4v1Zm3 14.5a1 1 0 1 0 2 0h-2ZM9 5V4a1 1 0 0 0-.94.658L9 5ZM4 19.5a1 1 0 1 0 2 0H4ZM27 16h-1v8h2v-7.999L27 16Zm-1 8c0 .425-.223.933-.645 1.355c-.422.422-.93.645-1.355.645v2c1.075 0 2.067-.527 2.77-1.23c.703-.703 1.23-1.695 1.23-2.77h-2ZM8 26c-.425 0-.933-.223-1.355-.645C6.222 24.933 6 24.425 6 24H4c0 1.075.528 2.067 1.23 2.77C5.933 27.473 6.925 28 8 28v-2Zm-2-2v-8H4v8h2Zm10-3.5a6.85 6.85 0 0 0 4.957-2.043a7.718 7.718 0 0 0 1.096-1.384a6.57 6.57 0 0 0 .355-.655l.007-.014l.002-.006l.001-.002v-.001c.001 0 .001-.001-.918-.395c-.92-.394-.919-.394-.919-.395l.001-.002v-.001c.001-.001.001 0 0 0l-.006.014l-.039.08a4.591 4.591 0 0 1-.184.324a5.72 5.72 0 0 1-.81 1.023c-.735.735-1.868 1.457-3.543 1.457v2Zm5.5-3.5H27v-2h-5.5v2ZM5 17h5.5v-2H5v2Zm5.5-1c-.92.394-.919.394-.919.395l.002.003l.002.006l.006.014a2.994 2.994 0 0 0 .09.187a7.718 7.718 0 0 0 1.361 1.852C12.059 19.472 13.676 20.5 16 20.5v-2c-1.675 0-2.808-.723-3.543-1.457a5.718 5.718 0 0 1-.81-1.023a4.591 4.591 0 0 1-.223-.404l-.007-.014s0-.001 0 0v.001l.002.002L10.5 16ZM24 26H8v2h16v-2ZM22.06 5.342l4 11l1.88-.684l-4-11l-1.88.684ZM26 16v3.5h2V16h-2ZM8.06 4.658l-4 11l1.88.684l4-11l-1.88-.684ZM4 16v3.5h2V16H4ZM9 6h14V4H9v2Z"></path></svg>