<svg xmlns="http://www.w3.org/2000/svg" xmlns:xlink="http://www.w3.org/1999/xlink" aria-hidden="true" role="img" class="iconify iconify--quill" width="1em" height="1em" preserveAspectRatio="xMidYMid meet" viewBox="0 0 32 32" data-icon="quill:jump-alt"><path fill="currentColor" d="M25.657 19.707a1 1 0 0 0-1.414-1.414l1.414 1.414ZM18.95 25l-.707.707a1 1 0 0 0 1.414 0L18.95 25Zm-5.293-6.707a1 1 0 0 0-1.414 1.414l1.414-1.414ZM18 24.5a1 1 0 1 0 2 0h-2ZM9 6a1 1 0 0 0 0 2V6Zm1-1a1 1 0 0 0-2 0h2ZM8 9a1 1 0 0 0 2 0H8Zm16.243 9.293l-6 6l1.414 1.414l6-6l-1.414-1.414Zm-4.586 6l-6-6l-1.414 1.414l6 6l1.414-1.414ZM20 24.5V9h-2v15.5h2ZM17 6H9v2h8V6Zm3 3a3 3 0 0 0-3-3v2a1 1 0 0 1 1 1h2ZM8 5v4h2V5H8Z"></path></svg>