<svg xmlns="http://www.w3.org/2000/svg" xmlns:xlink="http://www.w3.org/1999/xlink" aria-hidden="true" role="img" class="iconify iconify--quill" width="1em" height="1em" preserveAspectRatio="xMidYMid meet" viewBox="0 0 32 32" data-icon="quill:list"><path fill="currentColor" d="M12 7a1 1 0 1 0 0 2V7Zm15 2a1 1 0 1 0 0-2v2Zm-15 6a1 1 0 1 0 0 2v-2Zm9 2a1 1 0 1 0 0-2v2Zm-9 6a1 1 0 1 0 0 2v-2Zm15 2a1 1 0 1 0 0-2v2ZM12 9h15V7H12v2Zm0 8h9v-2h-9v2Zm0 8h15v-2H12v2Zm-6-1v2a2 2 0 0 0 2-2H6Zm0 0H4a2 2 0 0 0 2 2v-2Zm0 0v-2a2 2 0 0 0-2 2h2Zm0 0h2a2 2 0 0 0-2-2v2Zm0-8v2a2 2 0 0 0 2-2H6Zm0 0H4a2 2 0 0 0 2 2v-2Zm0 0v-2a2 2 0 0 0-2 2h2Zm0 0h2a2 2 0 0 0-2-2v2Zm0-8v2a2 2 0 0 0 2-2H6Zm0 0H4a2 2 0 0 0 2 2V8Zm0 0V6a2 2 0 0 0-2 2h2Zm0 0h2a2 2 0 0 0-2-2v2Z"></path></svg>