<svg xmlns="http://www.w3.org/2000/svg" xmlns:xlink="http://www.w3.org/1999/xlink" aria-hidden="true" role="img" class="iconify iconify--quill" width="1em" height="1em" preserveAspectRatio="xMidYMid meet" viewBox="0 0 32 32" data-icon="quill:mail-open"><path fill="currentColor" d="m15.118 3.271l-.294-.955l.294.955Zm1.764 0l-.294.956l.294-.956Zm11.412 3.512l.294-.956l-.294.956Zm-24.588 0l-.294-.956l.294.956Zm.908.428a1 1 0 1 0-1.228 1.578l1.228-1.578ZM13 15l-.614.79A1 1 0 0 0 13 16v-1Zm6 0v1a1 1 0 0 0 .614-.21L19 15Zm9.614-6.21a1 1 0 1 0-1.228-1.58l1.228 1.58ZM28 7.738V23h2V7.739h-2ZM27 24H5v2h22v-2ZM4 23V7.739H2V23h2ZM4 7.739l11.412-3.512l-.588-1.911L3.412 5.827L4 7.739Zm12.588-3.512L28 7.74l.588-1.912l-11.412-3.511l-.588 1.911Zm-1.176 0a2 2 0 0 1 1.176 0l.588-1.911a4 4 0 0 0-2.352 0l.588 1.911ZM5 24a1 1 0 0 1-1-1H2a3 3 0 0 0 3 3v-2Zm23-1a1 1 0 0 1-1 1v2a3 3 0 0 0 3-3h-2Zm2-15.261a2 2 0 0 0-1.412-1.912L28 7.739h2Zm-26 0l-.588-1.912A2 2 0 0 0 2 7.739h2Zm-.614 1.05l9 7l1.228-1.578l-9-7l-1.228 1.578ZM13 16h6v-2h-6v2Zm6.614-.21l9-7l-1.228-1.58l-9 7l1.228 1.58Z"></path></svg>