<svg xmlns="http://www.w3.org/2000/svg" xmlns:xlink="http://www.w3.org/1999/xlink" aria-hidden="true" role="img" class="iconify iconify--quill" width="1em" height="1em" preserveAspectRatio="xMidYMid meet" viewBox="0 0 32 32" data-icon="quill:mail"><path fill="currentColor" d="m14.862 17.212l-.57.822l.57-.822Zm2.276 0l.57.822l-.57-.822ZM5 8h22V6H5v2Zm23 1v14h2V9h-2Zm-1 15H5v2h22v-2ZM4 23V9H2v14h2Zm1 1a1 1 0 0 1-1-1H2a3 3 0 0 0 3 3v-2Zm23-1a1 1 0 0 1-1 1v2a3 3 0 0 0 3-3h-2ZM27 8a1 1 0 0 1 1 1h2a3 3 0 0 0-3-3v2ZM5 6a3 3 0 0 0-3 3h2a1 1 0 0 1 1-1V6ZM2.43 9.822l11.862 8.212l1.139-1.644L3.569 8.178L2.431 9.822Zm15.278 8.212l11.861-8.212l-1.138-1.644l-11.862 8.212l1.139 1.644Zm-3.416 0a3 3 0 0 0 3.416 0l-1.139-1.644a1 1 0 0 1-1.138 0l-1.139 1.644Z"></path></svg>