<svg xmlns="http://www.w3.org/2000/svg" xmlns:xlink="http://www.w3.org/1999/xlink" aria-hidden="true" role="img" class="iconify iconify--quill" width="1em" height="1em" preserveAspectRatio="xMidYMid meet" viewBox="0 0 32 32" data-icon="quill:outbox"><path fill="currentColor" d="m5 16l-.923-.385A1 1 0 0 0 4 16h1Zm22 0h1a1 1 0 0 0-.077-.385L27 16Zm-5.5 0v-1a1 1 0 0 0-.962.725L21.5 16Zm-11 0l.961-.275A1 1 0 0 0 10.5 15v1Zm14-6l.923-.385A1 1 0 0 0 24.5 9v1Zm1.5 9.5a1 1 0 1 0 2 0h-2Zm-22 0a1 1 0 1 0 2 0H4ZM22.5 9a1 1 0 1 0 0 2V9Zm-15 1V9a1 1 0 0 0-.923.615L7.5 10Zm2 1a1 1 0 1 0 0-2v2Zm5.5 4a1 1 0 1 0 2 0h-2Zm2-11a1 1 0 1 0-2 0h2Zm-1-1l.707-.707a1 1 0 0 0-1.414 0L16 3Zm3.293 4.707a1 1 0 1 0 1.414-1.414l-1.414 1.414Zm-8-1.414a1 1 0 0 0 1.414 1.414l-1.414-1.414ZM27 16h-1v8h2v-7.999L27 16Zm-1 8c0 .425-.223.933-.645 1.355c-.422.422-.93.645-1.355.645v2c1.075 0 2.067-.527 2.77-1.23c.703-.703 1.23-1.695 1.23-2.77h-2ZM8 26c-.425 0-.933-.223-1.355-.645C6.222 24.933 6 24.425 6 24H4c0 1.075.528 2.067 1.23 2.77C5.933 27.473 6.925 28 8 28v-2Zm-2-2v-8H4v8h2Zm10-3.5c2.547 0 4.182-1.005 5.17-2.07c.484-.52.8-1.041.998-1.436a5.28 5.28 0 0 0 .285-.691a1.307 1.307 0 0 0 .007-.023v-.003l.001-.001L21.5 16a87.01 87.01 0 0 1-.961-.276v-.003l.001-.002v-.002l-.002.01a3.259 3.259 0 0 1-.159.372c-.13.262-.346.616-.674.97c-.637.686-1.752 1.431-3.705 1.431v2Zm5.5-3.5H27v-2h-5.5v2ZM5 17h5.5v-2H5v2Zm5.5-1a78.07 78.07 0 0 0-.961.276v.004l.003.006a1.573 1.573 0 0 0 .02.066c.013.038.03.09.054.152c.047.124.117.292.216.49a6.2 6.2 0 0 0 .998 1.436c.988 1.065 2.623 2.07 5.17 2.07v-2c-1.953 0-3.068-.745-3.705-1.43a4.196 4.196 0 0 1-.674-.97a3.259 3.259 0 0 1-.162-.383v.002l.001.002v.002l.001.001L10.5 16ZM24 26H8v2h16v-2Zm-.423-15.615l2.5 6l1.846-.77l-2.5-6l-1.846.77ZM26 16v3.5h2V16h-2ZM4 16v3.5h2V16H4Zm18.5-5h2V9h-2v2Zm-15 0h2V9h-2v2Zm-.923-1.385l-2.5 6l1.846.77l2.5-6l-1.846-.77ZM17 15V4h-2v11h2ZM15.293 3.707l4 4l1.414-1.414l-4-4l-1.414 1.414Zm0-1.414l-4 4l1.414 1.414l4-4l-1.414-1.414Z"></path></svg>