<svg xmlns="http://www.w3.org/2000/svg" xmlns:xlink="http://www.w3.org/1999/xlink" aria-hidden="true" role="img" class="iconify iconify--quill" width="1em" height="1em" preserveAspectRatio="xMidYMid meet" viewBox="0 0 32 32" data-icon="quill:printer"><path fill="currentColor" d="M27 12h1h-1Zm0 10h-1h1ZM5 22h1h-1Zm0-10H4h1Zm17 11a1 1 0 1 0 0 2v-2Zm-12 2a1 1 0 1 0 0-2v2ZM9 10a1 1 0 1 0 2 0H9Zm1-5V4a1 1 0 0 0-1 1h1Zm12 0h1a1 1 0 0 0-1-1v1Zm-1 5a1 1 0 1 0 2 0h-2ZM9 16a1 1 0 1 0 0 2v-2Zm14 2a1 1 0 1 0 0-2v2Zm-12-1a1 1 0 1 0-2 0h2Zm-1 10H9a1 1 0 0 0 1 1v-1Zm12 0v1a1 1 0 0 0 1-1h-1Zm1-10a1 1 0 1 0-2 0h2Zm3-5v10h2V12h-2ZM6 22V12H4v10h2Zm1-11h18V9H7v2Zm18 12h-3v2h3v-2Zm-15 0H7v2h3v-2Zm-6-1a3 3 0 0 0 3 3v-2a1 1 0 0 1-1-1H4Zm22 0a1 1 0 0 1-1 1v2a3 3 0 0 0 3-3h-2Zm2-10a3 3 0 0 0-3-3v2a1 1 0 0 1 1 1h2ZM6 12a1 1 0 0 1 1-1V9a3 3 0 0 0-3 3h2Zm5-2V5H9v5h2Zm-1-4h12V4H10v2Zm11-1v5h2V5h-2ZM9 18h14v-2H9v2Zm0-1v10h2V17H9Zm1 11h12v-2H10v2Zm13-1V17h-2v10h2Z"></path></svg>