<svg xmlns="http://www.w3.org/2000/svg" xmlns:xlink="http://www.w3.org/1999/xlink" aria-hidden="true" role="img" class="iconify iconify--quill" width="1em" height="1em" preserveAspectRatio="xMidYMid meet" viewBox="0 0 32 32" data-icon="quill:queue"><path fill="currentColor" d="m9.83 8.465l.69-.724l-.69.724Zm7.632 7.269l.69-.724l-.69.724Zm0 2.532l-.69-.724l.69.724ZM9.83 25.535l.69.724l-.69-.724ZM24 5a1 1 0 1 0-2 0h2Zm-2 8a1 1 0 1 0 2 0h-2Zm-3-5a1 1 0 1 0 0 2V8Zm8 2a1 1 0 1 0 0-2v2ZM6 9.731V24.27h2V9.73H6Zm3.14-.542l7.632 7.269l1.38-1.448l-7.632-7.27l-1.38 1.449Zm7.632 8.353l-7.631 7.269l1.38 1.448l7.63-7.269l-1.379-1.448Zm0-1.084a.758.758 0 0 1 0 1.084l1.38 1.448a2.758 2.758 0 0 0 0-3.98l-1.38 1.448ZM6 24.268c0 2.335 2.767 3.66 4.52 1.991l-1.38-1.448c-.402.383-1.14.14-1.14-.542H6ZM8 9.732c0-.683.738-.925 1.14-.542l1.38-1.448C8.767 6.071 6 7.397 6 9.731h2ZM22 5v8h2V5h-2Zm-3 5h8V8h-8v2Z"></path></svg>