<svg xmlns="http://www.w3.org/2000/svg" xmlns:xlink="http://www.w3.org/1999/xlink" aria-hidden="true" role="img" class="iconify iconify--quill" width="1em" height="1em" preserveAspectRatio="xMidYMid meet" viewBox="0 0 32 32" data-icon="quill:warning"><g fill="currentColor"><path d="m4.6 24.047l-.88-.476l.88.476Zm22.8 0l-.879.477l.88-.477Zm-9.641-17.8l.879-.477l-.88.477Zm-3.518 0l.88.476l-.88-.476ZM15 18a1 1 0 1 0 2 0h-2Zm2-6a1 1 0 1 0-2 0h2Zm-.12-5.277l9.641 17.8l1.759-.952l-9.642-17.8l-1.759.952ZM25.641 26H6.358v2h19.284v-2ZM5.48 24.524l9.64-17.801l-1.759-.953L3.72 23.571l1.759.953ZM6.358 26a1 1 0 0 1-.88-1.476L3.72 23.57C2.637 25.571 4.085 28 6.358 28v-2Zm20.163-1.476A1 1 0 0 1 25.642 26v2c2.273 0 3.72-2.43 2.638-4.429l-1.759.953ZM18.638 5.77c-1.135-2.095-4.141-2.095-5.276 0l1.759.953a1 1 0 0 1 1.758 0l1.759-.953ZM17 18v-6h-2v6h2Z"></path><path stroke="currentColor" d="M17 21.5a1 1 0 1 1-2 0a1 1 0 0 1 2 0Z"></path></g></svg>