<svg xmlns="http://www.w3.org/2000/svg" xmlns:xlink="http://www.w3.org/1999/xlink" aria-hidden="true" role="img" class="iconify iconify--iwwa" width="1em" height="1em" preserveAspectRatio="xMidYMid meet" viewBox="0 0 40 40" data-icon="iwwa:middle-o"><path fill="currentColor" d="M20.001 2.683C10.452 2.683 2.684 10.451 2.684 20s7.769 17.317 17.317 17.317S37.316 29.548 37.316 20S29.549 2.683 20.001 2.683zm0 33.134c-8.722 0-15.817-7.096-15.817-15.817S11.279 4.183 20.001 4.183c8.721 0 15.815 7.096 15.815 15.817s-7.094 15.817-15.815 15.817z"></path><circle cx="15.431" cy="16.424" r="1.044" fill="currentColor"></circle><circle cx="24.569" cy="16.424" r="1.044" fill="currentColor"></circle><path fill="currentColor" d="M24.828 25.312h-9.656a.75.75 0 0 0 0 1.5h9.656a.75.75 0 0 0 0-1.5z"></path></svg>