<svg xmlns="http://www.w3.org/2000/svg" xmlns:xlink="http://www.w3.org/1999/xlink" aria-hidden="true" role="img" class="iconify iconify--ep" width="1em" height="1em" preserveAspectRatio="xMidYMid meet" viewBox="0 0 1024 1024" data-icon="ep:more"><path fill="currentColor" d="M176 416a112 112 0 1 0 0 224a112 112 0 0 0 0-224m0 64a48 48 0 1 1 0 96a48 48 0 0 1 0-96zm336-64a112 112 0 1 1 0 224a112 112 0 0 1 0-224zm0 64a48 48 0 1 0 0 96a48 48 0 0 0 0-96zm336-64a112 112 0 1 1 0 224a112 112 0 0 1 0-224zm0 64a48 48 0 1 0 0 96a48 48 0 0 0 0-96z"></path></svg>