<svg xmlns="http://www.w3.org/2000/svg" xmlns:xlink="http://www.w3.org/1999/xlink" aria-hidden="true" role="img" class="iconify iconify--teenyicons" width="1em" height="1em" preserveAspectRatio="xMidYMid meet" viewBox="0 0 15 15" data-icon="teenyicons:airplay-solid"><path fill="currentColor" d="M.5 1a.5.5 0 0 0-.5.5v10a.5.5 0 0 0 .5.5H3v-1H1V2h13v9h-2v1h2.5a.5.5 0 0 0 .5-.5v-10a.5.5 0 0 0-.5-.5H.5Z"></path><path fill="currentColor" d="M7.854 9.146a.5.5 0 0 0-.708 0l-4 4A.5.5 0 0 0 3.5 14h8a.5.5 0 0 0 .354-.854l-4-4Z"></path></svg>