<svg xmlns="http://www.w3.org/2000/svg" xmlns:xlink="http://www.w3.org/1999/xlink" aria-hidden="true" role="img" class="iconify iconify--teenyicons" width="1em" height="1em" preserveAspectRatio="xMidYMid meet" viewBox="0 0 15 15" data-icon="teenyicons:arrow-outline"><path fill="currentColor" d="M.5.5V0a.5.5 0 0 0-.5.5h.5Zm0 4H0a.5.5 0 0 0 .854.354L.5 4.5Zm4-4l.354.354A.5.5 0 0 0 4.5 0v.5ZM2.146 2.854l12 12l.708-.708l-12-12l-.708.708ZM0 .5v4h1v-4H0Zm.854 4.354l4-4l-.708-.708l-4 4l.708.708ZM4.5 0h-4v1h4V0Z"></path></svg>