<svg xmlns="http://www.w3.org/2000/svg" xmlns:xlink="http://www.w3.org/1999/xlink" aria-hidden="true" role="img" class="iconify iconify--teenyicons" width="1em" height="1em" preserveAspectRatio="xMidYMid meet" viewBox="0 0 15 15" data-icon="teenyicons:border-bottom-solid"><path fill="currentColor" fill-rule="evenodd" d="M2 2H1V1h1v1Zm3 0H4V1h1v1Zm3 0H7V1h1v1Zm3 0h-1V1h1v1Zm3 0h-1V1h1v1ZM2 5H1V4h1v1Zm6 0H7V4h1v1Zm6 0h-1V4h1v1ZM2 8H1V7h1v1Zm3 0H4V7h1v1Zm3 0H7V7h1v1Zm3 0h-1V7h1v1Zm3 0h-1V7h1v1ZM2 11H1v-1h1v1Zm6 0H7v-1h1v1Zm6 0h-1v-1h1v1Zm0 3H1v-1h13v1Z" clip-rule="evenodd"></path></svg>