<svg xmlns="http://www.w3.org/2000/svg" xmlns:xlink="http://www.w3.org/1999/xlink" aria-hidden="true" role="img" class="iconify iconify--teenyicons" width="1em" height="1em" preserveAspectRatio="xMidYMid meet" viewBox="0 0 15 15"><path fill="currentColor" d="m7.5 13l-.332.374l.332.295l.332-.295L7.5 13Zm0-11l.34-.367l-.333-.308l-.34.301L7.5 2Zm.332 11.374l4.5-4l-.664-.748l-4.5 4l.664.748Zm0-.748l-4.5-4l-.664.748l4.5 4l.664-.748Zm-.664-11l-4.5 4l.664.748l4.5-4l-.664-.748Zm-.008.74l4.313 4l.68-.733l-4.313-4l-.68.734Z"></path></svg>