<svg xmlns="http://www.w3.org/2000/svg" xmlns:xlink="http://www.w3.org/1999/xlink" aria-hidden="true" role="img" class="iconify iconify--teenyicons" width="1em" height="1em" preserveAspectRatio="xMidYMid meet" viewBox="0 0 15 15"><path fill="currentColor" d="m5.618 9.382l1.255-2.51l2.509-1.254l-1.255 2.51l-2.509 1.254Z"></path><path fill="currentColor" fill-rule="evenodd" d="M0 7.5a7.5 7.5 0 1 1 15 0a7.5 7.5 0 0 1-15 0Zm10.947-2.776a.5.5 0 0 0-.67-.671l-4 2a.5.5 0 0 0-.224.223l-2 4a.5.5 0 0 0 .67.671l4-2a.5.5 0 0 0 .224-.223l2-4Z" clip-rule="evenodd"></path></svg>