<svg xmlns="http://www.w3.org/2000/svg" xmlns:xlink="http://www.w3.org/1999/xlink" aria-hidden="true" role="img" class="iconify iconify--teenyicons" width="1em" height="1em" preserveAspectRatio="xMidYMid meet" viewBox="0 0 15 15"><path fill="currentColor" fill-rule="evenodd" d="M7.5 0a.5.5 0 0 1 .384.18l5 6a.5.5 0 0 1 .04.585l-5 8a.5.5 0 0 1-.848 0l-5-8a.5.5 0 0 1 .04-.585l5-6A.5.5 0 0 1 7.5 0ZM3.241 6.742L7.5 5.04l4.259 1.703L7.5 13.557L3.241 6.742Zm7.61-1.44L7.5 3.962l-3.35 1.34L7.5 1.28l3.35 4.02Z" clip-rule="evenodd"></path></svg>