<svg xmlns="http://www.w3.org/2000/svg" xmlns:xlink="http://www.w3.org/1999/xlink" aria-hidden="true" role="img" class="iconify iconify--teenyicons" width="1em" height="1em" preserveAspectRatio="xMidYMid meet" viewBox="0 0 15 15"><path fill="currentColor" fill-rule="evenodd" d="M7.79.093a.5.5 0 0 0-.58 0l-7 5A.5.5 0 0 0 0 5.5v9a.5.5 0 0 0 .5.5H2V8h5v7h7.5a.5.5 0 0 0 .5-.5v-9a.5.5 0 0 0-.21-.407L14 4.528V2h-1v1.814L7.79.094ZM11 12V8h1v4h-1Z" clip-rule="evenodd"></path><path fill="currentColor" d="M6 15v-3H5v-1h1V9H3v6h3Z"></path></svg>