<svg xmlns="http://www.w3.org/2000/svg" xmlns:xlink="http://www.w3.org/1999/xlink" aria-hidden="true" role="img" class="iconify iconify--teenyicons" width="1em" height="1em" preserveAspectRatio="xMidYMid meet" viewBox="0 0 15 15"><path fill="currentColor" d="M3.5 4a.5.5 0 1 0 0 1a.5.5 0 0 0 0-1Z"></path><path fill="currentColor" fill-rule="evenodd" d="M7 .5v12a.5.5 0 0 1-.5.5h-3A3.5 3.5 0 0 1 0 9.5v-6A3.5 3.5 0 0 1 3.5 0h3a.5.5 0 0 1 .5.5Zm-5 4a1.5 1.5 0 1 1 3 0a1.5 1.5 0 0 1-3 0Z" clip-rule="evenodd"></path><path fill="currentColor" d="M11.5 10a.5.5 0 1 0 0 1a.5.5 0 0 0 0-1Z"></path><path fill="currentColor" fill-rule="evenodd" d="M15 5.5v6a3.5 3.5 0 0 1-3.5 3.5h-3a.5.5 0 0 1-.5-.5v-12a.5.5 0 0 1 .5-.5h3A3.5 3.5 0 0 1 15 5.5Zm-5 5a1.5 1.5 0 1 1 3 0a1.5 1.5 0 0 1-3 0Z" clip-rule="evenodd"></path></svg>