<svg xmlns="http://www.w3.org/2000/svg" xmlns:xlink="http://www.w3.org/1999/xlink" aria-hidden="true" role="img" class="iconify iconify--teenyicons" width="1em" height="1em" preserveAspectRatio="xMidYMid meet" viewBox="0 0 15 15"><path fill="currentColor" fill-rule="evenodd" d="M1 .5a.5.5 0 0 1 .5-.5h12a.5.5 0 0 1 .5.5v14a.5.5 0 0 1-.724.447L11.5 14.06l-1.776.888a.5.5 0 0 1-.448 0L7.5 14.06l-1.776.888a.5.5 0 0 1-.448 0L3.5 14.06l-1.776.888A.5.5 0 0 1 1 14.5V.5ZM4 5h2V4H4v1Zm4 0h3V4H8v1ZM6 8H4V7h2v1Zm2 0h3V7H8v1Zm3 3H8v-1h3v1Z" clip-rule="evenodd"></path></svg>