<svg xmlns="http://www.w3.org/2000/svg" xmlns:xlink="http://www.w3.org/1999/xlink" aria-hidden="true" role="img" class="iconify iconify--teenyicons" width="1em" height="1em" preserveAspectRatio="xMidYMid meet" viewBox="0 0 15 15"><path fill="currentColor" d="m4.958 10.042l1.906-3.178l3.178-1.906l-1.906 3.178l-3.178 1.906Z"></path><path fill="currentColor" fill-rule="evenodd" d="M0 7.5A7.5 7.5 0 0 1 7.5 0A7.5 7.5 0 0 1 15 7.5A7.5 7.5 0 0 1 7.5 15A7.5 7.5 0 0 1 0 7.5Zm11.929-3.743a.5.5 0 0 0-.686-.686L6.136 6.136L3.07 11.243a.5.5 0 0 0 .686.686l5.107-3.065l3.065-5.107Z" clip-rule="evenodd"></path></svg>