<svg xmlns="http://www.w3.org/2000/svg" xmlns:xlink="http://www.w3.org/1999/xlink" aria-hidden="true" role="img" class="iconify iconify--iconoir" width="1em" height="1em" preserveAspectRatio="xMidYMid meet" viewBox="0 0 24 24"><g fill="none" stroke="currentColor" stroke-width="1.5"><path d="M3 19V5a2 2 0 0 1 2-2h14a2 2 0 0 1 2 2v14a2 2 0 0 1-2 2H5a2 2 0 0 1-2-2Z"></path><path stroke-linecap="round" stroke-linejoin="round" d="M9.72 11.786a3 3 0 1 0 3.576 4.646M12 14h2.5l1 1.5h1m-4.5-6V11m0 3v-3m0 0h2.5"></path><path fill="currentColor" stroke-linecap="round" stroke-linejoin="round" d="M12 7.5a.5.5 0 1 1 0-1a.5.5 0 0 1 0 1Z"></path></g></svg>