<svg xmlns="http://www.w3.org/2000/svg" xmlns:xlink="http://www.w3.org/1999/xlink" aria-hidden="true" role="img" class="iconify iconify--iconoir" width="1em" height="1em" preserveAspectRatio="xMidYMid meet" viewBox="0 0 24 24" data-icon="iconoir:add-media-video"><g fill="none" stroke="currentColor" stroke-linecap="round" stroke-linejoin="round" stroke-width="1.5"><path d="M13 21H3.6a.6.6 0 0 1-.6-.6V3.6a.6.6 0 0 1 .6-.6h16.8a.6.6 0 0 1 .6.6V13m-5 6h3m3 0h-3m0 0v-3m0 3v3"></path><path d="M9.898 8.513a.6.6 0 0 0-.898.52v5.933a.6.6 0 0 0 .898.521l5.19-2.966a.6.6 0 0 0 0-1.042l-5.19-2.966Z"></path></g></svg>