<svg xmlns="http://www.w3.org/2000/svg" xmlns:xlink="http://www.w3.org/1999/xlink" aria-hidden="true" role="img" class="iconify iconify--iconoir" width="1em" height="1em" preserveAspectRatio="xMidYMid meet" viewBox="0 0 24 24" data-icon="iconoir:album"><g fill="none" stroke-width="1.5"><path stroke="currentColor" d="M3 20.4V3.6a.6.6 0 0 1 .6-.6h16.8a.6.6 0 0 1 .6.6v16.8a.6.6 0 0 1-.6.6H3.6a.6.6 0 0 1-.6-.6Z"></path><path fill="currentColor" d="M12 15.5a1.5 1.5 0 1 1-3 0a1.5 1.5 0 0 1 3 0Z"></path><path stroke="currentColor" stroke-linecap="round" d="M12 15.5a1.5 1.5 0 1 1-3 0a1.5 1.5 0 0 1 3 0Zm0 0V7.6a.6.6 0 0 1 .6-.6H15"></path></g></svg>