<svg xmlns="http://www.w3.org/2000/svg" xmlns:xlink="http://www.w3.org/1999/xlink" aria-hidden="true" role="img" class="iconify iconify--iconoir" width="1em" height="1em" preserveAspectRatio="xMidYMid meet" viewBox="0 0 24 24" data-icon="iconoir:album-list"><g fill="none" stroke-width="1.5"><path stroke="currentColor" d="M2 17.4V2.6a.6.6 0 0 1 .6-.6h14.8a.6.6 0 0 1 .6.6v14.8a.6.6 0 0 1-.6.6H2.6a.6.6 0 0 1-.6-.6Z"></path><path stroke="currentColor" stroke-linecap="round" d="M8 22h13.4a.6.6 0 0 0 .6-.6V8"></path><path fill="currentColor" d="M11 12.5a1.5 1.5 0 1 1-3 0a1.5 1.5 0 0 1 3 0Z"></path><path stroke="currentColor" stroke-linecap="round" d="M11 12.5a1.5 1.5 0 1 1-3 0a1.5 1.5 0 0 1 3 0Zm0 0V6.6a.6.6 0 0 1 .6-.6H13"></path></g></svg>