<svg xmlns="http://www.w3.org/2000/svg" xmlns:xlink="http://www.w3.org/1999/xlink" aria-hidden="true" role="img" class="iconify iconify--iconoir" width="1em" height="1em" preserveAspectRatio="xMidYMid meet" viewBox="0 0 24 24" data-icon="iconoir:auto-flash"><path fill="none" stroke="currentColor" stroke-linecap="round" stroke-linejoin="round" stroke-width="1.5" d="M3.426 13.006c-.057 0-.057 0-.115-.006c-.633-.07-1.095-.698-1.032-1.402l.61-7.445C2.95 3.5 3.445 3 4.037 3H8.5c.128 0 .254.023.375.07c.602.23.922.958.715 1.627L8.1 8.802h2.748c.203 0 .402.06.578.173c.55.356.738 1.14.418 1.75c-.414.816-4.58 7.816-5.926 10.075c-.107.18-.381.092-.37-.117L6 13l-2.573.006ZM16 9.5l.692-1.5M22 9.5L21.308 8m0 0L19 3l-2.308 5m4.616 0h-4.616"></path></svg>