<svg xmlns="http://www.w3.org/2000/svg" xmlns:xlink="http://www.w3.org/1999/xlink" aria-hidden="true" role="img" class="iconify iconify--iconoir" width="1em" height="1em" preserveAspectRatio="xMidYMid meet" viewBox="0 0 24 24" data-icon="iconoir:beach-bag"><g fill="none" stroke="currentColor" stroke-width="1.5"><path d="m2.77 13l-.633-3.287A.6.6 0 0 1 2.727 9h18.547a.6.6 0 0 1 .589.713L21.23 13M2.769 13h18.462M2.769 13l.616 4m17.846-4l-.616 4m0 0l-.537 3.491a.6.6 0 0 1-.593.509H4.515a.6.6 0 0 1-.593-.509L3.385 17m17.23 0H3.385"></path><path d="M8 9V5a2 2 0 0 1 2-2h4a2 2 0 0 1 2 2v4"></path></g></svg>