<svg xmlns="http://www.w3.org/2000/svg" xmlns:xlink="http://www.w3.org/1999/xlink" aria-hidden="true" role="img" class="iconify iconify--iconoir" width="1em" height="1em" preserveAspectRatio="xMidYMid meet" viewBox="0 0 24 24" data-icon="iconoir:bus-outline"><g fill="none" stroke-width="1.5"><path stroke="currentColor" stroke-linecap="round" stroke-linejoin="round" d="m7 16.01l.01-.011m9.99.011l.01-.011M3 12h18v7a1 1 0 0 1-1 1H4a1 1 0 0 1-1-1v-7Zm18-4V6a4 4 0 0 0-4-4H7a4 4 0 0 0-4 4v2m4 0h10"></path><path fill="currentColor" d="M4 20h4v2a1 1 0 0 1-1 1H5a1 1 0 0 1-1-1v-2Zm12 0h4v2a1 1 0 0 1-1 1h-2a1 1 0 0 1-1-1v-2Z"></path></g></svg>