<svg xmlns="http://www.w3.org/2000/svg" xmlns:xlink="http://www.w3.org/1999/xlink" aria-hidden="true" role="img" class="iconify iconify--iconoir" width="1em" height="1em" preserveAspectRatio="xMidYMid meet" viewBox="0 0 24 24" data-icon="iconoir:bus-stop"><g fill="none" stroke="currentColor" stroke-linecap="round" stroke-linejoin="round" stroke-width="1.5"><path d="m16 16.01l.01-.011M6 16.01l.01-.011M20 22V8m0 0h-2V2h4v6h-2Z"></path><path fill="currentColor" d="M4 20v2h2v-2H4Zm10 0v2h2v-2h-2Z"></path><path d="M16 20H2.6a.6.6 0 0 1-.6-.6v-6.8a.6.6 0 0 1 .6-.6H16m-2-4H6m8-6H6a4 4 0 0 0-4 4v2"></path></g></svg>