<svg xmlns="http://www.w3.org/2000/svg" xmlns:xlink="http://www.w3.org/1999/xlink" aria-hidden="true" role="img" class="iconify iconify--iconoir" width="1em" height="1em" preserveAspectRatio="xMidYMid meet" viewBox="0 0 24 24" data-icon="iconoir:cinema-old"><g fill="none" stroke="currentColor" stroke-linecap="round" stroke-linejoin="round" stroke-width="1.5"><path d="M7 14a2 2 0 1 0 0-4a2 2 0 0 0 0 4Zm10 0a2 2 0 1 0 0-4a2 2 0 0 0 0 4Zm-5-5a2 2 0 1 0 0-4a2 2 0 0 0 0 4Zm0 10a2 2 0 1 0 0-4a2 2 0 0 0 0 4Z"></path><path d="M2 12c0 5.523 4.477 10 10 10s10-4.477 10-10S17.523 2 12 2S2 6.477 2 12Zm0 0v10"></path></g></svg>