<svg xmlns="http://www.w3.org/2000/svg" xmlns:xlink="http://www.w3.org/1999/xlink" aria-hidden="true" role="img" class="iconify iconify--iconoir" width="1em" height="1em" preserveAspectRatio="xMidYMid meet" viewBox="0 0 24 24"><path fill="currentColor" stroke="currentColor" stroke-linecap="round" stroke-linejoin="round" stroke-width="1.5" d="M6 7a1 1 0 1 1 0-2a1 1 0 0 1 0 2Zm6 0a1 1 0 1 1 0-2a1 1 0 0 1 0 2Zm6 0a1 1 0 1 1 0-2a1 1 0 0 1 0 2ZM6 13a1 1 0 1 1 0-2a1 1 0 0 1 0 2Zm6 0a1 1 0 1 1 0-2a1 1 0 0 1 0 2Zm6 0a1 1 0 1 1 0-2a1 1 0 0 1 0 2Zm-6 6a1 1 0 1 1 0-2a1 1 0 0 1 0 2Z"></path></svg>