<svg xmlns="http://www.w3.org/2000/svg" xmlns:xlink="http://www.w3.org/1999/xlink" aria-hidden="true" role="img" class="iconify iconify--iconoir" width="1em" height="1em" preserveAspectRatio="xMidYMid meet" viewBox="0 0 24 24"><g fill="none" stroke="currentColor" stroke-linecap="round" stroke-linejoin="round" stroke-width="1.5"><path d="M3 15V9a6 6 0 0 1 6-6h6a6 6 0 0 1 6 6v6a6 6 0 0 1-6 6H9a6 6 0 0 1-6-6Z"></path><path d="M15 3s-4.5 0-4.5 9H13c0 9 2 9 2 9"></path><path d="M16.5 14.5s-1.5 2-4.5 2s-4.5-2-4.5-2M7 9v2m10-2v2"></path></g></svg>