<svg xmlns="http://www.w3.org/2000/svg" xmlns:xlink="http://www.w3.org/1999/xlink" aria-hidden="true" role="img" class="iconify iconify--iconoir" width="1em" height="1em" preserveAspectRatio="xMidYMid meet" viewBox="0 0 24 24"><path fill="none" stroke="currentColor" stroke-linecap="round" stroke-linejoin="round" stroke-width="1.5" d="m7.585 7.876l-.305 3.722c-.063.704.399 1.332 1.032 1.402c.058.005.058.005.115.006L11 13l-.451 7.683c-.012.209.264.294.37.114a1645.18 1645.18 0 0 0 3.328-5.604M8.5 3h5c.127 0 .254.023.375.07c.602.23.922.958.715 1.627L13.1 8.802h2.748c.203 0 .402.06.578.173c.55.356.738 1.14.418 1.75c-.069.137-.242.444-.49.873M4 4l16 16"></path></svg>