<svg xmlns="http://www.w3.org/2000/svg" xmlns:xlink="http://www.w3.org/1999/xlink" aria-hidden="true" role="img" class="iconify iconify--iconoir" width="1em" height="1em" preserveAspectRatio="xMidYMid meet" viewBox="0 0 24 24"><g fill="none" stroke="currentColor" stroke-linecap="round" stroke-linejoin="round" stroke-miterlimit="1.5" stroke-width="1.5"><path stroke-width="1.499" d="M4.998 2.001H2v2.998h2.998V2.001Zm0 8.501H2V13.5h2.998v-2.998Z"></path><path stroke-width="1.473" d="M20.498 5v5.503M3.5 5v5.503m16.998 2.999v5.502M3.5 13.502v5.502"></path><path stroke-width="1.22" d="M4.999 20.502h5.5m-5.5-16.999h5.5m2.999 16.996h5.5m-5.5-16.998h5.5"></path><path stroke-width="1.499" d="M4.998 19.001H2v2.998h2.998v-2.998ZM21.997 2.002H19V5h2.998V2.002ZM13.497 2H10.5v2.998h2.998V2Zm8.5 8.503H19V13.5h2.998v-2.998Zm0 8.499H19V22h2.998v-2.998Zm-8.5-.002H10.5v2.998h2.998V19Z"></path></g></svg>