<svg xmlns="http://www.w3.org/2000/svg" xmlns:xlink="http://www.w3.org/1999/xlink" aria-hidden="true" role="img" class="iconify iconify--iconoir" width="1em" height="1em" preserveAspectRatio="xMidYMid meet" viewBox="0 0 24 24"><g fill="none" stroke-width="1.5"><g clip-path="url(#IconifyId17f5a2922c5ea8fe73)"><path stroke="currentColor" stroke-linecap="round" stroke-linejoin="round" d="M6.327 2.774a.6.6 0 0 1 .52-.3h10.307a.6.6 0 0 1 .52.3l5.153 8.926a.6.6 0 0 1 0 .6l-5.154 8.926a.6.6 0 0 1-.52.3H6.847a.6.6 0 0 1-.52-.3L1.174 12.3a.6.6 0 0 1 0-.6l5.154-8.926Z"></path></g><defs><clipPath id="IconifyId17f5a2922c5ea8fe73"><path fill="#fff" d="M0 0h24v24H0z"></path></clipPath></defs></g></svg>