<svg xmlns="http://www.w3.org/2000/svg" xmlns:xlink="http://www.w3.org/1999/xlink" aria-hidden="true" role="img" class="iconify iconify--iconoir" width="1em" height="1em" preserveAspectRatio="xMidYMid meet" viewBox="0 0 24 24"><g fill="none" stroke="currentColor" stroke-linecap="round" stroke-linejoin="round" stroke-width="1.5"><path d="M2.871 21.121L4.993 19m2.121-2.121L4.993 19m0 0L2.87 16.879M4.993 19l2.121 2.121M7 2h9.5L21 6.5V19"></path><path d="M11 22h5.5a1.5 1.5 0 0 0 1.5-1.5V8.749a.6.6 0 0 0-.176-.425l-3.148-3.148A.6.6 0 0 0 14.25 5H4.5A1.5 1.5 0 0 0 3 6.5V13"></path><path fill="currentColor" d="M14 8.4V5.354a.354.354 0 0 1 .604-.25l3.292 3.292a.353.353 0 0 1-.25.604H14.6a.6.6 0 0 1-.6-.6Z"></path></g></svg>