<svg xmlns="http://www.w3.org/2000/svg" xmlns:xlink="http://www.w3.org/1999/xlink" aria-hidden="true" role="img" class="iconify iconify--iconoir" width="1em" height="1em" preserveAspectRatio="xMidYMid meet" viewBox="0 0 24 24"><g fill="none" stroke="currentColor" stroke-linecap="round" stroke-linejoin="round" stroke-width="1.5"><path d="m3 3l18 18"></path><path fill="currentColor" d="M7 15a1 1 0 1 0 0-2a1 1 0 0 0 0 2Z"></path><path d="M18.5 19H2.6a.6.6 0 0 1-.6-.6V9h6.5M2 9V5.6a.6.6 0 0 1 .6-.6h1.9M14 9h8v8m0-8V5.6a.6.6 0 0 0-.6-.6H10"></path></g></svg>