<svg xmlns="http://www.w3.org/2000/svg" xmlns:xlink="http://www.w3.org/1999/xlink" aria-hidden="true" role="img" class="iconify iconify--iconoir" width="1em" height="1em" preserveAspectRatio="xMidYMid meet" viewBox="0 0 24 24"><g fill="none" stroke="currentColor" stroke-width="1.5"><path d="M1 15V9a6 6 0 0 1 6-6h10a6 6 0 0 1 6 6v6a6 6 0 0 1-6 6H7a6 6 0 0 1-6-6Z"></path><path d="M7 9a3 3 0 1 1 0 6a3 3 0 0 1 0-6Z"></path><path stroke-linecap="round" stroke-linejoin="round" d="M12 15V9h3m2 6V9h3m-8 3h2.572M17 12h2.572"></path></g></svg>