<svg xmlns="http://www.w3.org/2000/svg" xmlns:xlink="http://www.w3.org/1999/xlink" aria-hidden="true" role="img" class="iconify iconify--iconoir" width="1em" height="1em" preserveAspectRatio="xMidYMid meet" viewBox="0 0 24 24"><g fill="none" stroke="currentColor" stroke-linecap="round" stroke-linejoin="round" stroke-width="1.5"><path d="M20 12V5.749a.6.6 0 0 0-.176-.425l-3.148-3.148A.6.6 0 0 0 16.252 2H4.6a.6.6 0 0 0-.6.6v18.8a.6.6 0 0 0 .6.6H11M8 10h8M8 6h4m-4 8h3"></path><path fill="currentColor" d="M16 5.4V2.354a.354.354 0 0 1 .604-.25l3.292 3.292a.353.353 0 0 1-.25.604H16.6a.6.6 0 0 1-.6-.6Z"></path><path d="m17.954 16.94l1-1a1.121 1.121 0 0 1 1.586 0v0a1.121 1.121 0 0 1 0 1.585l-1 1m-1.586-1.586l-2.991 2.991a1 1 0 0 0-.28.553l-.244 1.557l1.557-.243a1 1 0 0 0 .553-.28l2.99-2.992m-1.585-1.586l1.586 1.586"></path></g></svg>