<svg xmlns="http://www.w3.org/2000/svg" xmlns:xlink="http://www.w3.org/1999/xlink" aria-hidden="true" role="img" class="iconify iconify--iconoir" width="1em" height="1em" preserveAspectRatio="xMidYMid meet" viewBox="0 0 24 24"><g fill="none" stroke="currentColor" stroke-width="1.5"><path d="M3 16V8a5 5 0 0 1 5-5h8a5 5 0 0 1 5 5v8a5 5 0 0 1-5 5H8a5 5 0 0 1-5-5Z"></path><path stroke-linecap="round" stroke-linejoin="round" d="M16.5 14.5s-1.5 2-4.5 2s-4.5-2-4.5-2"></path><path fill="currentColor" stroke-linecap="round" stroke-linejoin="round" d="M8.5 10a.5.5 0 1 1 0-1a.5.5 0 0 1 0 1Zm7 0a.5.5 0 1 1 0-1a.5.5 0 0 1 0 1Z"></path></g></svg>