<svg xmlns="http://www.w3.org/2000/svg" xmlns:xlink="http://www.w3.org/1999/xlink" aria-hidden="true" role="img" class="iconify iconify--iconoir" width="1em" height="1em" preserveAspectRatio="xMidYMid meet" viewBox="0 0 24 24"><g fill="none" stroke="currentColor" stroke-width="1.5"><path stroke-linecap="round" stroke-linejoin="round" d="m17 14l2-2m2-2l-2 2m0 0l-2-2m2 2l2 2"></path><path d="M3 14v-4a1 1 0 0 1 1-1h2.697a1 1 0 0 0 .555-.168l4.193-2.796A1 1 0 0 1 13 6.87v10.26a1 1 0 0 1-1.555.832l-4.193-2.795A1 1 0 0 0 6.697 15H4a1 1 0 0 1-1-1Z"></path></g></svg>