<svg xmlns="http://www.w3.org/2000/svg" xmlns:xlink="http://www.w3.org/1999/xlink" aria-hidden="true" role="img" class="iconify iconify--iconoir" width="1em" height="1em" preserveAspectRatio="xMidYMid meet" viewBox="0 0 24 24"><g fill="none" stroke="currentColor" stroke-width="1.5"><path d="M2 14v-4a1 1 0 0 1 1-1h2.697a1 1 0 0 0 .555-.168l4.193-2.796A1 1 0 0 1 12 6.87v10.26a1 1 0 0 1-1.555.832l-4.193-2.795A1 1 0 0 0 5.697 15H3a1 1 0 0 1-1-1Z"></path><path stroke-linecap="round" stroke-linejoin="round" d="M16.5 7.5S18 9 18 11.5s-1.5 4-1.5 4m3-11S22 7 22 11.5s-2.5 7-2.5 7"></path></g></svg>