<svg xmlns="http://www.w3.org/2000/svg" xmlns:xlink="http://www.w3.org/1999/xlink" aria-hidden="true" role="img" class="iconify iconify--iconoir" width="1em" height="1em" preserveAspectRatio="xMidYMid meet" viewBox="0 0 24 24"><g fill="none" stroke-width="1.5"><g stroke="currentColor" stroke-linecap="round" stroke-linejoin="round" clip-path="url(#IconifyId17f5a2922c5ea8fe78)"><path d="M11.5 3a8.5 8.5 0 0 0-7.212 13m14.424 0A8.46 8.46 0 0 0 20 11.5v-2h2.5M8 21a2 2 0 1 1 0-4a2 2 0 0 1 0 4Zm7 0a2 2 0 1 1 0-4a2 2 0 0 1 0 4ZM11.5 3v9m-8 0h16"></path></g><defs><clipPath id="IconifyId17f5a2922c5ea8fe78"><path fill="#fff" d="M0 0h24v24H0z"></path></clipPath></defs></g></svg>