<svg xmlns="http://www.w3.org/2000/svg" xmlns:xlink="http://www.w3.org/1999/xlink" aria-hidden="true" role="img" class="iconify iconify--iconoir" width="1em" height="1em" preserveAspectRatio="xMidYMid meet" viewBox="0 0 24 24"><g fill="none" stroke-width="1.5"><path stroke="currentColor" stroke-linecap="round" stroke-linejoin="round" d="M9.609 7h4.782A2.609 2.609 0 0 1 17 9.609a.391.391 0 0 1-.391.391H7.39A.391.391 0 0 1 7 9.609A2.609 2.609 0 0 1 9.609 7Z"></path><path fill="currentColor" d="M7 19h3l-1.724 3.447a1 1 0 0 1-.894.553h-.764a1 1 0 0 1-.894-1.447L7 19Zm10 0h-3l1.724 3.447a1 1 0 0 0 .894.553h.764a1 1 0 0 0 .894-1.447L17 19Z"></path><path stroke="currentColor" stroke-linecap="round" stroke-linejoin="round" d="M9 3h6a6 6 0 0 1 6 6v4a6 6 0 0 1-6 6H9a6 6 0 0 1-6-6V9a6 6 0 0 1 6-6Zm7 12.01l.01-.011M8 15.01l.01-.011"></path></g></svg>