<svg xmlns="http://www.w3.org/2000/svg" xmlns:xlink="http://www.w3.org/1999/xlink" aria-hidden="true" role="img" class="iconify iconify--iconoir" width="1em" height="1em" preserveAspectRatio="xMidYMid meet" viewBox="0 0 24 24"><g fill="none" stroke="currentColor" stroke-linecap="round" stroke-linejoin="round" stroke-width="1.5"><path d="M11.672 20.786a.6.6 0 0 0 .656 0l9.284-6.062a.6.6 0 0 0 .24-.694L18.285 3.41a.6.6 0 0 0-.569-.41H6.221a.6.6 0 0 0-.57.412l-3.506 10.62a.6.6 0 0 0 .241.69l9.286 6.064Z"></path><path d="M14.5 6H10l-.5 5a3 3 0 1 1 0 3"></path></g></svg>