<svg xmlns="http://www.w3.org/2000/svg" xmlns:xlink="http://www.w3.org/1999/xlink" aria-hidden="true" role="img" class="iconify iconify--flag" width="1em" height="1em" preserveAspectRatio="xMidYMid meet" viewBox="0 0 512 512" data-icon="flag:ag-1x1"><defs><clipPath id="IconifyId17f59e8e9255819236"><path fill="#25ff01" d="M109 47.6h464.8v464.9H109z"></path></clipPath></defs><g fill-rule="evenodd" clip-path="url(#IconifyId17f59e8e9255819236)" transform="translate(-120 -52.4) scale(1.1014)"><path fill="#fff" d="M0 47.6h693V512H0z"></path><path d="M1.5 48.2h690.9v196.2H1.5z"></path><path fill="#0061ff" d="M128.3 232.1h458.5v103.4H128.3z"></path><path fill="#e20000" d="M692.5 49.2v463.3H347L692.5 49.2zm-691.3 0v463.3h345.7L1.2 49.2z"></path><path fill="#ffd600" d="m508.8 232.2l-69.3-17.6l59-44.4l-72.5 10.3l37.3-63l-64.1 37.2l11.3-73.5l-43.4 58l-17.6-67.3l-19.6 69.3l-43.4-59l12.4 75.6l-64.1-39.3l37.2 63l-70.3-11.3l57.9 43.4l-72.4 18.6h321.6z"></path></g></svg>