<svg xmlns="http://www.w3.org/2000/svg" xmlns:xlink="http://www.w3.org/1999/xlink" aria-hidden="true" role="img" class="iconify iconify--flag" width="1.34em" height="1em" preserveAspectRatio="xMidYMid meet" viewBox="0 0 640 480" data-icon="flag:ag-4x3"><defs><clipPath id="IconifyId17f59e8e9255819237"><path fill-opacity=".7" d="M-79.7 0H603v512H-79.7z"></path></clipPath></defs><g fill-rule="evenodd" clip-path="url(#IconifyId17f59e8e9255819237)" transform="translate(74.7) scale(.9375)"><path fill="#fff" d="M-120 0h763.3v511.5H-120z"></path><path d="M-118.3.6h760.9v216.1h-761z"></path><path fill="#0061ff" d="M21.3 203.2h505V317h-505z"></path><path fill="#e20000" d="M642.8 1.8V512H262L642.8 1.7zm-761.5 0V512H262L-118.7 1.7z"></path><path fill="#ffd600" d="M440.4 203.3L364 184l64.9-49l-79.7 11.4l41-69.5l-70.7 41L332.3 37l-47.9 63.8l-19.3-74l-21.7 76.3l-47.8-65l13.7 83.2L138.5 78l41 69.5l-77.4-12.5l63.8 47.8L86 203.3h354.3z"></path></g></svg>