<svg xmlns="http://www.w3.org/2000/svg" xmlns:xlink="http://www.w3.org/1999/xlink" aria-hidden="true" role="img" class="iconify iconify--flag" width="1em" height="1em" preserveAspectRatio="xMidYMid meet" viewBox="0 0 512 512" data-icon="flag:as-1x1"><path fill="#006" d="M0 0h512v512H0Z"></path><path fill="#bd1021" d="M0 256L512 0v512Z"></path><path fill="#fff" d="m41.4 256l470-228.6v457.2"></path><path d="M334.892 288.512c5.392.327 5.229 5.719 5.229 5.719l19.28.49c2.45-6.78 5.065-5.964 9.721-2.614a35.047 35.047 0 0 0 9.314 4.493c1.879-9.64 15.522-7.68 15.522-7.68c5.882-13.888 6.372-13.724 2.859-15.521a11.437 11.437 0 0 1-4.902-4.739c-3.268-4.003-4.983-9.721-5.392-13.234c-.408-3.513-4.493 1.715-5.228.653c-.735-1.144-6.78-.49-6.78-.49c1.47 1.634-3.595.654-3.595.654c.49.408 0 1.879 0 1.879c-.49-.654-4.412-1.308-4.412-1.308c-.327.817-1.225 1.716-1.225 1.716c-2.124-.817-6.29-.735-6.29-.735a21.404 21.404 0 0 0-11.683 2.94c-1.716.981-7.925 4.086-13.071 9.069c-5.065 4.902-7.925 4.33-7.925 4.33c-1.47 5.555-13.643 12.254-13.643 12.254c-1.96 1.716-8.088 2.533-11.192 0c-3.104-2.614 0-7.353 0-7.353c1.225-2.124 2.287-2.042 2.45-9.558c.082-5.065 5.31-9.15 10.703-15.032c6.617-7.27 15.849-19.198 15.849-19.198c0 3.676 2.042 4.248 2.042 4.248c1.797-3.676 4.412-6.699 4.412-6.699c.163.327.571.49.571.49c2.043-2.777 3.268-3.84 3.268-3.84c-.653-.326-6.454 0-11.764 4.657c-5.392 4.657-8.986 3.105-8.986 3.105c-3.758-1.226-4.085-4.085-4.085-4.085c-2.696-11.682 7.924-20.015 7.924-20.015c-14.296-3.432-4.003-21.65 13.807-29.41c17.728-7.68 17.564-11.193 17.564-11.193c1.062 1.226 1.88 3.268 1.88 3.268c.163-.082 1.47-2.042 11.763-6.536c10.212-4.575 15.114-8.496 15.114-8.496c1.307 2.533 1.062 4.33 1.062 4.33c28.021-9.803 55.553-32.351 55.553-32.351c.816 1.879.408 4.738.408 4.738c4.575-4.248 21.077-14.051 21.077-14.051c.245 6.29-4.901 8.66-4.901 8.66c.571.898.817 2.532.817 2.532a383.966 383.966 0 0 0 15.358-10.212c4.657 4.003.49 10.457.49 10.457c1.634-.245 2.778-1.634 2.778-1.634c1.225 6.78-6.29 12.744-6.29 12.744c1.307 0 3.512-1.307 3.512-1.307c-1.47 7.353-15.44 15.522-15.44 15.522c2.042 1.88.082 4.248-1.634 5.392c-1.634 1.062-4.575 3.431-3.676 4.412c.898.98 7.107-3.432 7.107-3.432c1.062 3.105-6.862 9.232-6.862 9.232c5.555.735 20.914-6.29 20.914-6.29c-1.226 5.963-7.026 10.62-14.215 13.316c-7.19 2.696-6.78 3.104-6.78 3.104c1.225.98 11.11-1.879 11.11-1.879c-2.941 6.617-13.235 11.192-13.235 11.192c2.778 2.451 6.7-.408 10.539-3.022a62.088 62.088 0 0 1 14.95-6.863c5.719-1.96 9.885-.49 9.885-.49c4.902-1.552 8.987.654 8.987.654c9.231.735 10.211 4.084 10.211 4.084c.98.246 1.798.654 4.167 2.451c2.369 1.716 2.206 7.108 2.124 9.804c-.082 2.614-.817 2.614-1.307 3.268c-.409.816-.49 1.633-.49 2.614c0 1.062-2.37 7.352-16.748 7.352h-21.73c-1.226 0-2.615.736-2.615.736c-6.045 3.022-2.86-2.043-10.048 3.84c-7.19 5.963-10.866 4.9-10.866 4.9a96.155 96.155 0 0 1-13.071 11.275c-4.248 2.777-3.513 2.45.245 4.085s9.395 0 9.395 0c-3.595 2.45-1.062 3.594-1.062 3.594c4.738-2.94 7.68-1.879 7.68-1.879c1.47 4.167-4.004 10.784-4.004 10.784c2.124.245 6.127 0 6.127 0c-.98 2.778-4.901 5.882-7.842 6.78c-2.941.98-2.451 1.39-1.553 3.105c.817 1.797.164 3.595.164 3.595c-5.147-3.513-5.31-.409-5.31-.409c-.572 4.167-.49 10.212-.49 10.212c-3.595-1.797-3.759.572-3.759.572c-.98 3.84-5.391 8.17-5.391 8.17c-.164-2.288-2.37-2.942-2.37-2.942c-2.287 4.412-6.535 7.108-6.535 7.108c-.49 3.758.572 9.15.572 9.15c-2.778-.572-3.758-.572-4.167.081c-.408.654.572.98.572.98l35.62.9c.49 0 2.613.326 2.613 4.084c.082 3.921-3.104 4.085-3.104 4.085l-38.887-.899s.164 1.062-1.879 2.124s-1.307-1.225-1.879 3.595c-.572 4.738-8.333-.409-8.333-.409c-1.225 1.88-4.248 4.33-4.248 4.33c-1.797-5.31-3.594-6.944-6.372-2.369c-2.778 4.575 5.065 3.758 5.065 3.758s45.668-6.699 48.2-6.944c2.45-.245 5.147-.082 6.29 3.35c1.063 3.512-5.555 4.084-5.555 4.084l-46.893 5.065c-.98 2.778-4.901 2.614-4.901 2.614c.326 2.615-2.451 4.33-3.84 5.229c-1.47.98-5.964.572-5.964.572c-5.392 3.676-8.087.817-8.087.817c-3.513 1.47-5.72.817-8.66-.409c-2.941-1.307-2.696-4.82-2.696-4.82l-29.574 3.105a7.19 7.19 0 0 0-2.369 1.389c1.062 1.388-2.124 4.493-2.124 4.493c.899.572 2.614 2.287 2.86 5.963c.244 3.922-4.82 4.575-2.288 7.353c2.45 2.696 7.107.409 12.254-2.042c5.065-2.451 10.13-2.124 12.254-2.124c2.206 0 8.333 1.633 12.091 2.94c3.84 1.308 5.147.49 5.392-1.47c.245-1.879 1.96-2.45 1.96-2.45c-.49 1.878.573 2.777.573 2.777c1.47 0 4.003-1.389 4.003-1.389c-.245 1.47-2.124 2.37-2.124 2.37c-3.677 2.45 1.389 1.551 1.389 1.551c10.211-2.124 13.888-1.879 16.502-1.633a130.712 130.712 0 0 1 15.195 5.636c.409-1.307.164-4.411.164-4.411c3.186.899 4.493 2.778 4.493 2.778c1.225-1.308.408-3.595.408-3.595c10.294 5.8-2.124 8.415-5.473 9.558c-3.268 1.062-3.268 2.451-3.268 2.451c2.778-.817 4.657-1.225 6.944-1.389c2.287-.163 1.47 0 6.944-1.062c5.474-1.143 8.251 1.226 8.251 1.226c-4.575.245-5.882 1.634-5.882 1.634c2.86 1.879.082 3.594.082 3.594c-4.085-5.228-7.68.164-7.68.164a16.339 16.339 0 0 1 6.781 1.47c.899.572 3.105 1.634 5.719 2.86c3.84 1.715 3.104.653 6.045 1.715c2.941 1.144 1.798 3.921 1.798 3.921c-1.226-2.287-3.922-3.104-3.922-3.104c-.245 3.104-3.35 3.676-3.35 3.676c3.84-4.248-4.41-6.127-8.332-6.045c-3.84 0-6.7 2.532-6.7 2.532c7.762 7.353 13.154 4.902 13.154 4.902c-.98 2.696-7.353 1.634-7.353 1.634c2.941 2.287 2.614 3.84 2.614 3.84c-1.633-1.553-4.166-.817-9.803-4.33c-5.555-3.676-10.539-2.451-10.539-2.451c5.474 5.719-1.96 9.232-1.96 9.232c-2.778 1.633 1.143 3.676 1.143 3.676c-3.43.653-3.92-2.778-3.92-2.778c-1.798-.408-4.412 1.797-4.412 1.797c.163-3.512 4.82-1.715 4.901-5.473c.164-3.676-4.248-6.536-17.4-4.738c-13.235 1.879-17.075-2.37-17.075-2.37c-1.144 0-1.307 1.144-1.307 1.144c2.124 2.124 3.104 2.941 2.778 4.412c-.409 1.47.653 1.96.653 1.96c-2.45-.163-2.614-3.022-2.614-3.022c0 1.225-.49 1.307-1.307 2.532s0 2.86 0 2.86c-1.062-.9-2.941-1.961-1.144-4.575c1.307-1.961-2.86-4.494-2.86-4.494c-1.633-1.634-5.963-.081-5.963-.081c-8.987 1.715-14.215-3.922-14.215-3.922c-1.062 0-3.023-.572-3.023-.572c-9.476 4.249-17.81-4.901-17.81-4.901c-7.188 1.307-10.456-2.124-12.58-5.556a12.254 12.254 0 0 0-5.556-5.391c-2.859-1.634-5.555-6.618-2.859-9.232c2.288-2.287 1.634-2.778 1.634-2.778c-3.758-6.29 6.536-8.25 6.78-9.803c.246-2.124 2.452-3.513 4.739-3.676c2.37-.164 2.37 0 3.921-1.47c1.47-1.635 4.412.326 4.412.326c.653-.408 5.719-4.411 10.294-2.37c4.574 2.043 8.332.654 8.332.654c3.268-.735 29.9-4.33 29.9-4.33c1.635-2.614 2.942-5.718 10.294-7.352s12.826-6.372 12.826-6.372c-1.307-1.389-3.512-1.307-4.574-1.47c-1.144-.082-3.432-2.125-3.432-2.125c-1.388.654-2.042.327-11.682 6.21c-8.66 5.228-8.905-5.148-8.905-5.148h-18.79c-.326 4.003-3.267 5.556-3.267 5.556l-6.945.326c-3.757-1.96-3.84-8.741-3.84-8.741c-20.668.327-32.105 7.68-32.105 7.68c-23.447-11.928-41.746-14.706-41.746-14.706c28.43-3.023 43.461-10.947 43.461-10.947a67.48 67.48 0 0 0 30.39 9.64c.573-5.719 4.412-7.107 4.412-7.107z"></path><path fill="#ffc221" d="M300.989 335.65c-5.882 3.431-4.82 5.392-4.248 6.454c.49 1.062.571 2.124-1.062 3.758c-1.634 1.634-1.47 2.206-1.47 2.206c.244 5.718 4.329 6.944 6.044 8.414c1.471 1.144 3.84 4.902 3.84 4.902c3.105 4.33 6.29 4.412 8.66 4.412c2.45 0 2.206-.246.98-1.308l-3.513-2.94a18.79 18.79 0 0 1 6.21 4.411c6.045 6.617 11.6 5.719 14.05 5.474c2.451-.327 2.043-1.798 2.043-1.798c-.163-.245-2.45-.408-2.45-.408c-9.15-.817-11.847-6.78-11.847-6.78a25.734 25.734 0 0 0 16.666 6.371c2.614-.163 2.451.654 1.88.817c-.573.082-1.308 0-2.533-.163c-1.226 0-1.226.245-.98.817c.326.408 1.47.49 2.859.408c1.47 0 .326.164 4.084 3.023c3.758 2.941 13.072.572 13.072.572c-6.046-1.47-6.863-4.248-6.863-4.248c-8.17.98-11.519-3.922-11.519-3.922c-1.47-1.47-5.882-3.758-5.882-3.758c-4.575-1.96-5.31-6.127-5.31-6.127c1.307 1.88 3.84 4.003 7.026 4.902c3.268.817 4.084 1.307 4.084 1.307a4.085 4.085 0 0 1-2.45-.245c-3.186-.98-1.39.327-1.39.327c3.595 2.86 4.576 2.614 4.576 2.614c9.231.98 4.656-2.778 4.656-2.778c6.536 1.634 7.68-.817 7.68-.817c1.388 2.86 6.372 1.798 6.372 1.798c-6.617 3.268-1.634 2.287-1.634 2.287c6.78-1.225 8.17.49 8.17.49c1.715 1.634 3.594 1.47 3.594 1.47s1.225 0 3.758.491c2.533.49 6.536 2.696 10.212 2.287c3.676-.49 4.33.654 4.33.654c-.736-.245-2.37-.49-5.229.817c-2.86 1.307-7.842 1.634-15.113 0s-7.843-1.47-7.843-1.47c1.716 1.225 3.268 3.104 3.595 4.33c.326 1.225 1.633 1.306 1.633 1.306c.49-1.633 2.615-2.287 2.615-2.287c1.47 1.307 5.31 3.023 5.31 3.023c.408-.817 0-1.47 0-1.47c2.777 2.695 6.045 1.878 6.045 1.878c.817-.572.572-2.124.572-2.124c1.144 0 1.307.654 2.124 1.226c.817.49 3.268.163 3.268.163c-.899-.409-1.634-1.797-1.634-1.797c3.758-2.533 11.683-1.47 11.683-1.47c5.718 1.061 5.065 4.82 5.065 4.82c1.143.49 2.696 2.287 2.696 2.287c.49-1.308 0-2.696 0-2.696c2.695 1.225 3.267 4.33 3.267 4.33c3.023-3.513-2.94-7.353-2.94-7.353c2.859-.409 6.045-.163 8.005.082c1.961.326 4.657 1.307 6.945 3.267c2.287 1.798 6.29 2.696 6.29 2.696c-.082-.817-2.287-2.124-2.778-2.369c-.49-.245-.653-.98-.653-.98c1.96.408 3.268.163 3.268.163c-6.863-4.248-8.66-6.209-8.66-6.209c2.614.327 4.085-1.307 4.085-1.307c-5.474.082-5.719-1.307-5.719-1.307c.735.164 3.268.817 6.536.164s7.76 0 7.76 0c-2.368-3.84-11.518-3.187-14.46-3.023c-2.94.163-4.084-.245-4.084-.245c.49-.164.98-.654 3.268-.735c2.287 0 4.575.245 7.189-1.634c2.532-1.716 6.127-1.144 6.127-1.144c-.817-1.716-4.983-2.37-8.578 0c-3.676 2.287-6.944 1.634-6.944 1.634c5.719-.817 7.353-2.86 7.353-2.86c-1.634-.49-2.615.082-6.128.817c-3.43.654-4.33-.571-4.33-.571c3.759-2.206 6.454-3.105 6.454-3.105c-3.267-.735-6.208-2.124-6.208-2.124c-3.35 3.186-5.964 4.902-12.418 1.634c-6.454-3.431-9.803-3.023-9.803-3.023c5.718-3.268 11.437-1.879 15.685.654c4.248 2.45 5.474.49 5.474.49c-1.39-.817-1.144-1.634-1.144-1.634c10.212 5.229 14.705 2.042 16.91.49c2.288-1.552-1.061-3.594-1.061-3.594c-.164 3.267-4.33 4.901-7.68 3.758c-3.267-1.144-6.29-2.533-11.028-4.575c-4.739-1.96-10.62-.899-16.176.245c-5.555 1.144-6.209.572-6.78.163c-.49-.408-.736-1.797-3.595-.653c-2.778 1.225-9.395-1.88-13.48-2.86c-4.085-.98-10.784-.49-16.584 2.696c-5.719 3.268-8.66 2.451-10.375 1.634c-1.716-.817-2.86-2.94-.98-4.902s2.042-2.45 1.878-5.31c-.163-2.777-2.94-4.493-2.94-4.493c2.532-2.614 3.185-3.268 2.287-4.33c-.817-1.143.49-1.143 1.96-1.797c1.47-.654.817-.735.49-1.634c-.326-.817-1.225-.654-1.225-.654c-3.35.164-5.228-.816-5.228-.816c-5.556-2.533-10.784 2.45-10.784 2.45c-3.186-2.45-3.921-.817-4.493-.245c-.49.572-1.634.98-3.105 1.144c-1.389.163-3.43.654-4.084 1.96c0 0-.654.981.081 2.125c0 0 .817 1.307-.653 2.86c-1.634 1.633-2.206 1.96-1.634 3.512c.408 1.47.327 2.614-.327 3.595c0 0-.735-.817-.49-1.88c.163-.98.163-1.633-.082-2.123c0 0-1.552 1.47-1.797 2.614c0 0-.654-1.716 1.634-4.003c2.206-2.206 3.268-3.35 2.614-4.248c-.49-.654-2.124.408-2.533.653z"></path><path d="M307.524 360.567s-2.859-2.124-2.532-5.147c.327-2.94.327-3.267 0-4.003c0 0-.572.327-.49 1.47c0 1.144-.164 2.288-.245 2.452c0 0-1.471-2.451-2.125-2.941c0 0 .572-2.615-.245-3.677c-.817-1.143-1.634-1.225-2.532-.817c-1.307.409-2.288 1.634 2.042 5.147c0 0 1.634 1.307 2.696 4.085c1.144 2.86 3.023 3.268 3.35 3.431zm13.888-8.251s-.163-1.634 1.39-4.657a6.536 6.536 0 0 0 .244-5.963c-.326-.817-.571-.49.98-1.798c1.88-1.634-.735-3.594 2.452-6.372c0 0 1.96-1.716 2.45-2.45c0 0-3.267 1.715-5.473 2.613c-2.124.9-10.294 4.902-8.496 7.598c1.797 2.696 1.633 2.86 1.307 4.003c0 0-4.902-2.614-3.105-6.78c0 0 .736-1.634 2.778-3.595c1.879-1.716.817.408 4.575-1.797c0 0 2.94-1.798 4.575-4.167c0 0-2.043 1.226-2.696 1.47c0 0-4.412.818-6.209 2.615c-1.716 1.879-5.474 5.065-4.248 8.66c0 0-4.33-.49-5.31-5.066c0 0-8.17 9.967 8.904 14.706c0 0 3.105.817 5.964.98z"></path><path fill="#ffc221" d="M396.245 318.903c6.372-.899 43.135-6.536 46.566-6.863c3.595-.327 4.984-.817 6.21 2.124c1.388 3.268-5.066 3.35-5.066 3.35l-43.87 4.983c-2.124.245-2.614-.572-2.614-.572l-1.634-2.205s-.572-.654.408-.817z"></path><path fill="#5a3719" d="M306.38 338.918s-4.738 9.967 13.889 12.418c0 0 .081-1.062.817-2.696c.817-1.553 2.45-4.739.817-6.781c-1.47-2.042 1.307-.98 1.634-3.676c.49-2.615-.246-2.288 1.062-4.003c0 0-5.8 2.124-8.088 4.738c-2.206 2.532 3.023 4.493 0 7.352c0 0-2.696-.98-4.248-3.84c0 0-3.595.082-5.882-3.512z"></path><path d="M324.68 351.172s4.575 4.003 10.049 3.84c5.473-.245 7.843-1.634 9.231-3.84c0 0 1.062 1.634 1.062 2.778c0 0 4.739-3.922 12.908-.49s5.719 2.45 7.516 2.696c0 0-3.513-.572-11.437 3.022c-8.17 3.758-29.574 2.451-29.41-8.006z"></path><path fill="#5a3719" d="M317.001 333.526s2.042.327 4.085-2.042c0 0-2.778.572-4.085 2.042zm-15.685 18.545s-3.84-3.023-1.39-3.595c0 0 1.798-.327 1.39 3.595z"></path><path d="M385.135 371.024s2.124-3.676 8.006-3.676s6.535 2.777 14.051 3.268c0 0-8.986 2.45-15.195.245c-3.268-1.226-6.209-.245-6.862.163z"></path><path fill="#5a3719" d="M326.641 353.868s8.905 5.31 16.747-.49c0 0 .654.653 1.226 2.042c0 0 5.964-5.718 16.584.49c0 0-1.307-.163-6.29 1.961c-6.536 2.86-22.875 4.738-28.267-4.085z"></path><path d="M360.79 359.26s8.496.98 15.603.572c4.412-.245 9.232-1.062 6.863.408c-2.451 1.47-1.226 1.634 8.904.736c10.13-.98-.081 1.879 6.863 2.777c0 0-16.911 8.66-38.234-4.493z"></path><path fill="#5a3719" d="M383.01 353.868s4.984-1.797 9.64.327c4.575 2.206 3.84 2.369 6.945 2.696c0 0-2.124 3.023-7.19.572c-5.065-2.451-6.453-2.941-9.394-3.595zm5.556 15.277s4.901-2.45 10.293.082c.654.327 2.124.98 3.513 1.225c0 0-4.085 1.307-8.333 0c-1.797-.572-3.186-.98-5.473-1.307zm-24.182-8.741s10.947.98 16.83-.164c0 0-6.863 3.268 10.375 1.798c0 0 3.757-.409 3.267.163c-.408.572-.735 1.062 1.144 1.634c0 0-12.744 5.719-31.616-3.431z"></path><path d="M309.975 351.172s.164.817 2.533 1.88c2.45 1.143 3.758 3.022 4.248 4.084a5.964 5.964 0 0 0 3.758 3.104s-8.578 1.798-12.336-2.696c0 0-2.941-3.186 1.716-6.372"></path><path fill="#5a3719" d="M377.21 370.86s-3.35-.244-8.006-1.797c-4.575-1.634-5.8-.245-8.415-2.205c-2.614-1.961-7.842-.736-8.823-.572c-.98.081-3.758 0-.326-2.288c0 0-2.778 0-3.84-1.47c0 0-1.225 1.225-5.964.817c0 0 2.124 3.268-6.29 2.287a10.947 10.947 0 0 0 11.764 3.268c0 .082-.572 2.614 3.268 3.595c4.003.98 4.738 1.715 6.78 2.532c0 0 .245-1.634-4.901-5.392c0 0 2.777-.163 6.78.817s13.071 3.268 17.973.409zm2.124 3.922s.817 1.96 3.431 1.47c2.533-.408 6.781-1.143 10.866.9c0 0 .735-3.432-7.516-3.677c0 0-5.147.245-6.78 1.307zm-69.604-22.384s-3.186 2.614-.327 5.31c2.615 2.45 6.7 2.287 8.66 2.206c0 0-1.225-.654-2.206-2.206c-1.062-1.552-1.062-2.614-3.268-3.595c-2.205-.98-2.45-1.225-2.859-1.715zm-3.268-13.48s-4.82 9.967 13.888 12.418c0 0 0-1.062.817-2.696c.654-1.553 2.288-4.739.817-6.781c-1.634-2.042 1.226-.98 1.634-3.676c.409-2.615-.327-2.288.98-4.003c0 0-5.8 2.124-8.087 4.738c-2.206 2.532 3.023 4.493 0 7.352c0 0-2.696-.98-4.248-3.758c0 0-3.595 0-5.882-3.594z"></path><path d="M355.398 361.956s3.921-.654 13.888 3.104c9.967 3.677 14.133 2.778 15.604 2.696c0 0-5.637 2.941-14.297-.898c-7.68-3.432-8.17-2.124-15.195-4.902z"></path><path fill="#ffc221" d="M417.813 359.75s2.205-.082 3.594.49c0 0 .817-.735 2.941-.98c0 0-1.389-1.307-6.535.49zm-6.863-5.555s2.288-.082 3.023-1.226c0 0-1.225-1.388-2.941-2.124c0 0 .327 1.634 0 3.35zm-76.466-25.407s-.49-1.144 1.96-1.47l33.332-4.82s1.634 0 1.879 1.061c.245 1.226-.163 2.043-7.68 2.941c-7.434.817-27.286 3.35-27.286 3.35s-2.042.327-2.205-1.062z"></path><path fill="#ffc221" d="M364.71 327.399s0 4.411 4.494 5.065c4.33.654 5.8-.245 6.944-2.533c.327-.653 1.634-5.228-.245-5.555c-.817-.163-2.124 0-3.104.327c-1.47.654-2.86 1.389-2.451 2.124c1.144 1.634 1.307 2.042.98 2.124c-1.144.327-1.879-.653-2.124-1.307c-.245-.817.572-1.307-2.287-.817c-1.226.082-2.206.082-2.206.572z"></path><path fill="#ffc221" d="M383.337 324.05c2.206.245 2.043 5.065-.653 7.27c-2.941 2.37-5.719 1.47-5.719 1.47c-1.552-.571-1.307-.408-.163-2.123c1.062-1.634 1.634-3.84.98-5.392c-.163-.49.327-.899 1.062-1.062c0 0 2.124-.409 4.493-.164z"></path><path fill="#ffc221" d="M385.298 324.458s1.634 2.042-.408 5.8c0 0-.9 1.144 1.143.98c1.96-.163 6.536-2.287 6.046-5.065c0 0-.164-.653-1.39-.653c-1.143.082-.163-.572.328-.817c.49 0 2.042-.654-1.961-3.268c0 0-.654-.572-1.47-.327c-.572.245-2.696 1.062-2.696 2.37c0 .49.408.98.408.98z"></path><path fill="#ffc221" d="M389.628 321.027s3.268 2.287 3.186 2.94c0 .654-.327 1.635.572 1.471c.817 0 4.248-.817 3.268-3.022c-.9-2.288-1.88-3.105-3.432-3.677c-1.633-.572-2.042.164-3.43 1.226c0 0-.981.653-.164 1.062zm-17.156 3.186s.49-1.634-2.37-2.288c0 0 1.226-1.062 3.677-.49c2.37.49 2.124 2.124 2.124 2.288c0 0-1.879 0-3.431.49zm6.209-.409s3.267-.572 4.738-.408c0 0-1.634-3.595-6.045-2.451c0 0 1.633 1.879 1.307 2.86zm5.637-.817s0-1.225 2.777-2.287c0 0-1.307-1.307-3.268-1.144c-2.124.082-2.614.817-2.614.817s2.451.899 3.105 2.533zm1.062-3.921s1.797.49 2.859 1.389c0 0 1.634-1.797 3.023-2.124c0 0-2.696-1.47-5.882.817z"></path><path fill="#5a3719" d="M294.045 310.325s7.679-6.536 12.009-5.719c4.248.817 2.124.245 6.78-.49c4.739-.735 9.559-1.226 11.52-.98c0 0-5.72-4.085-15.85-4.004c0 0-7.107 2.451-12.09 5.72c0 0-9.477-5.23-19.28-2.125c0 0 10.62 3.921 16.91 7.598z"></path><path fill="#ffc221" d="m375.576 321.599l1.307-.246s2.124 2.696.572 2.696c-1.225 0-.817-.326-.98-1.143a2.45 2.45 0 0 0-.899-1.307zm-9.64.163s-.817.98.654.817c1.797-.327 1.47 0 3.35-1.307c0 0 1.225-1.226 3.43-.49c0 0 1.88.653 3.35-.082c1.552-.817 1.879-.735 2.696-.654c.817.082.817.245 1.797-.571c1.144-.817 3.023-.164 4.167-1.144c1.225-.98 2.696-.164 0-2.043c0 0-.572-.571-.49-1.062c0 0 1.062.327 1.878 1.062c.817.736 2.125.49 2.37.327c0 0 .163-2.369 2.45-4.575c2.451-2.206 2.451-2.369 1.063-2.369s-3.758-.572-4.575 0s-7.68 5.147-11.764 5.882c-4.085.817-7.761 1.96-10.376 6.209zm-108-24.917s12.417 3.186 15.195 4.493c0 0 .653-2.042-4.984-3.676c0 0 13.725-.409 28.185 6.209c0 0 7.026-6.046 29.574-4.167c0 0 0-1.96.163-3.513c0 0-15.767-.49-30.309-9.313c0 0-13.07 6.454-37.825 9.967zm69.032 5.964c-.817-12.663 4.003-13.888 4.003-13.888s2.287.081 4.738.49c0 0-3.84 4.575-2.778 13.643c0 0 .409 1.47-2.859 1.47s-3.104-1.634-3.104-1.634z"></path><path fill="#5a3719" d="M330.317 311.223s-2.45-2.45-2.614-5.228c0 0-.082-.654 2.287-.654c2.451.082 2.696-.163 3.268 1.226c.572 1.307 2.124 4.166 2.451 4.493z"></path><path fill="#ffc221" d="M335.382 304.851a30.227 30.227 0 0 1-.245-4.82c.164-7.026 1.307-6.454 1.798-5.555h2.45s-1.797-7.925-3.921-3.268a20.342 20.342 0 0 0-1.634 11.192c.164 2.124.409 3.431.654 4.167z"></path><path fill="#5a3719" d="M362.75 304.851s4.657.817-2.45 2.45c0 0 .326 8.66 8.74 2.615c0 0 5.066-3.186 8.497-4.493c0 0 1.716-.572 1.552-1.879c0 0 .164-1.634-1.634-1.225c0 0-1.47 0-2.45-.327c0 0-.98-1.226-1.634-.817c-.654.49-2.288.245-.98 1.797c1.225 1.47 1.633 1.062 2.205.654c.572-.409 3.268-1.47.817.735s-4.412-1.225-5.229-1.88zm-23.446 1.062h-2.043s-1.143 1.634-1.879-1.062l-.817 1.716s2.451 9.313 4.739-.654z"></path><path fill="#ffc221" d="M336.363 295.13s-1.062 6.127.326 9.803l22.467.49s-.245-4.33 0-10.294h-3.105s-.49 4.902 0 7.925h-.572s-.408-4.167 0-7.925h-2.614s-.408 4.575-.082 8.007h-.49s-.408-4.004 0-8.007h-2.532s-.49 4.085 0 7.925h-.654s-.49-4.085 0-7.925h-2.86s-.653 3.84 0 8.007h-.571s-.654-3.922 0-8.007h-2.86s-.653 4.412 0 8.007h-.653s-.408-4.249.163-8.007h-2.696s-.735 3.677-.081 8.007h-.654s-.408-3.268.164-8.007h-2.696zm23.773 11.11s-.572-10.947 1.47-13.888c2.125-2.778 2.615-2.206 6.21 0c3.594 2.369 8.169 4.82 8.986 5.065c.735.327 1.797.572 1.797 2.614c0 1.96.327 2.533-2.778 0c-.408-.327-1.879-1.634-2.94-1.96c-2.778-.9.653.571 1.633 2.042c.817 1.144 1.552 1.062-.653 1.634a233.648 233.648 0 0 0-13.725 4.493z"></path><path d="M367.979 298.315s-1.634-1.96.49-2.45c2.042-.49 2.206 3.267 2.614 5.473c.327 2.288-2.614-2.287-3.023-2.94zm-2.941 9.64s-2.451.9-.817 1.634c1.552.817 5.963-2.859 4.493-2.614c-1.634.245-3.676.98-3.676.98zm3.267-3.349s2.124-.245 1.634.654c-.326.98-1.143.408-1.47.163c-.327-.163-1.797-.735-.164-.817z"></path><path fill="#ffc221" d="M379.661 301.665s.572 4.248 4.166 5.31c0 0 2.125.49 1.634-1.307c0 0-.326-1.634-.571-2.206c-.327-.653-1.798-1.062-1.961-1.143c-.164 0-.327-.49.653-.164c.98.327 1.144.409 1.062-.327c0-.735-.653-.408-1.552-.817c-.327-.245 0-.49.409-.408c.408.082 1.307.408 1.307-1.062c0 0 .163-.817-.899-.817c-1.225-.082-1.144-.654-.817-.735c.409 0 1.634.817 2.043-.654c.326-1.389-1.716-.572-1.47-1.307c.326-.817 1.796.409 1.878-.49c.163-.817 1.307-1.226-.735-1.552c-.899-.082 0-.572 1.062-.409c1.144.164 1.797-1.225 2.45-1.715c.736-.49 4.494-2.696-.571-1.961c-4.984.735-6.536 3.186-6.78 3.676a13.888 13.888 0 0 0-1.308 8.17z"></path><path fill="#ffc221" d="M391.425 304.933c.654-.082 1.226 0 1.47.49c.818 1.716-1.061 1.144-2.123 2.37s-1.144.98-2.615.571c-1.47-.49-2.042-2.696-2.042-2.696c-.163-.735.49-.817 1.225-.654c0 0 2.451.246 4.085 0zm-5.473-.817s.081.408.98.49c.817.082 3.268.327 4.82-.163c0 0 .49-.082.245-1.062c0 0 0-.654-1.307-.409c-1.389.245-3.268 0-3.922-.082c-.653-.163-1.143 0-.816 1.144zm-.164-3.105s-.082 1.308 1.226 1.47c1.388.164 3.022.164 3.676 0c.572 0 1.552-.244 1.634-1.061c0-.817.245-1.307-1.39-.899s-3.594.082-3.839 0c-.163 0-1.307-.327-1.307.49zm.572-2.696s-.327.654-.245 1.226c0 .572.98.817 2.696.817c1.715 0 3.268-.245 3.431-.817c.082-.654.49-1.307-.817-1.062c-1.389.163-3.104.245-3.84 0c-.653-.327-1.143-.409-1.225-.164z"></path><path fill="#5a3719" d="M450.164 305.096s0 1.144.898 2.37l-48.2-1.39s.654-.408.817-2.287z"></path><path fill="#ffc221" d="M386.768 296.355s-.408 1.225.409 1.47c.817.245 2.37.49 4.33.164c0 0 .98 0 1.307-.98c.408-1.063.327-.49-2.45-.981c0 0-.818-.327 1.633-.327c0 0 1.47 0 1.634-.163c.245-.245 2.124-1.797-.327-1.634c-2.45 0-1.225-.49 0-.49c1.307 0 1.634.327 2.042-.082s0-.163-.653-.817s-.163-.49.327-.082c.49.327.817.49 1.307 0c.572-.49-.409-1.225 0-1.143c.408.081.653.898 2.206.163c1.633-.817 3.758-.408 4.33 0c.571.49 2.205 1.062 3.267 0c.98-.98-1.225-1.879-.327-1.96c.98-.164 1.634.163 1.961-.572c.409-.817-1.47-1.47.327-1.961c1.715-.49.245-5.392-.327-5.8c0 0-1.96 1.143-4.085 4.574c-2.205 3.513-3.43 5.556-6.372 4.494c-4.085-1.634-6.29.653-6.944 1.062c-.98.572 2.124.817.245.898c-1.797 0-1.797.245-1.96.49c-.164.246 0 .49.326.572c.327 0 .98.654-.081.654c-1.144 0-1.961-.245-1.634.98c0 0 0 .245.653.327c.654 0 .899.817-.327.817c-.816 0-.816.245-.816.327zm4.412 12.09s-.817.573.327.654c1.225 0 1.797.327 2.206-.327s1.96-.408.898-1.307c-1.062-.817-1.797-.326-3.431.98z"></path><path fill="#ffc221" d="M396.163 293.904s4.085-3.758 7.353-1.225c3.431 2.614 3.676 2.94 3.758 3.022c0 0 .408.327-.49 1.144c-.899.817 0 .817.98.245c.98-.49 1.062 0 1.552.572c.49.49 1.144.817-.408.817h-4.902s-2.206.245-1.062-.735c1.062-.899.899-1.961.327-2.043c-.572-.081 0 .572-.327.98c-.408.41-1.144.818-1.96.818s-1.471.571-.246.98c1.226.49-.163.817-.817.817s-3.758.163-.571.572c3.186.408-.327.326 2.042 1.634c2.614 1.47.735 4.575-.245 4.901c0 0-1.062.572.245.409c1.389-.164 2.124-.327 1.144.408c-.899.736-2.86 3.105-5.474 1.307c0 0-1.225-.571.899-.735c2.205-.082-1.716-.572-2.451-.98c-.572-.409-3.105-2.941-1.552-2.696c1.634.327 1.062-.572.081-.899c-.898-.327-1.062-1.715 0-1.47c.98.326 2.206.898 3.105.817c.817 0 .572-.327-1.226-.817c-1.797-.654-2.532-.736-2.124-2.206c.409-1.552 2.451.572 1.96-.572c-.49-1.144-2.205-.572-1.306-2.042s1.144-.817 1.552-.654c.409.164 1.062 0-.082-.817c-.817-.572 0-1.389.245-1.552z"></path><path d="M399.023 294.966s0-.49.817-.408c.653 0 .49-.246.653-.409c.245 0 2.043.572.327 1.144c-.572.245-1.634.081-1.716-.327z"></path><path fill="#ffc221" d="M402.944 299.214s-1.389.735-.163 2.124c1.062 1.226 1.062 1.634.98 2.451c-.082.817 46.403 1.307 46.403 1.307s-.082-3.023 1.879-4.738l-49.099-1.144z"></path><path fill="#5a3719" d="M450.9 304.28s.244-2.533 1.633-3.35c.817-.49 1.797-.245 2.206 1.797c.653 2.86-1.798 5.392-2.941 4.248c-1.062-1.062-.817-2.696-.817-2.696z"></path><path fill="#7b3c20" d="M397.634 315.145s3.104-2.696 3.595-3.84c0 0 8.332 5.964 7.842.49c0 0 0-1.47.245-2.86c0 0 3.023.328 3.513-2.123l-7.843-.245s-.816-.164-2.042 1.143c-1.144 1.308-3.676 2.696-5.964 1.47c0 0-.98-.816-1.96-.08c-1.062.653-1.062.816-.245 1.633s2.532 3.105 2.859 4.412zm17.973-16.421l-4.575-.163s-1.634-2.37-4.902-4.902c0 0-.98-.49.817-1.96c1.88-1.471 2.451-3.024 2.451-3.759c.082-.653 0-1.797.654-.98c.653.817 5.391 5.147 6.127 3.921c.653-1.307.817-1.879.817-2.287c.163-.409.326-1.552.98-.327c.735 1.225 1.144.899 1.225 4.085c0 0 .082 3.268.572 4.33c0 0-5.963-1.88-4.084 2.042zm-19.852-9.803s3.513 2.042 5.228-.654c1.634-2.614 2.86-3.023 1.553-5.637c-1.307-2.45 0-3.676.98-4.738c1.062-1.062 1.879-.817 1.96-4.902c.164-4.085 2.942-5.392 4.249-6.699c1.225-1.225 4.411-3.104-.409-3.921c-4.738-.817-14.296-3.268-16.747-6.944c-2.451-3.758-3.595-1.553-3.595-1.39c0 .164-.817 2.86 1.634 7.762s4.493 8.088 6.944 9.64c2.37 1.634 4.493 2.45 3.268 5.718s-3.268 9.15-5.065 11.846z"></path><path fill="#5a3719" d="M408.663 278.545s.572 8.415 6.699 11.438c0 0 1.389-3.268.817-6.536c0 0 2.042.163 2.614 1.062c0 0 0-2.45-2.778-3.35c-2.94-.816-1.552-6.372-.49-6.944c.98-.653.654-1.797 0-2.777c-.735-.98-.817-2.451 1.552-1.797c2.451.571 2.043-.654.572-1.88c-1.47-1.143-1.389-2.614.654-2.614s5.473-2.042 3.431-2.614c-2.042-.653-2.696-1.307 0-2.124c2.86-.817 4.248-1.797 2.124-2.042c-2.124-.245-3.513-.98-1.47-1.307c2.042-.409-.327-2.451-2.696-2.533c-2.451-.163-7.516.817-3.513-2.45c4.084-3.187-5.719-.818-1.716-2.942c4.085-2.124-1.389-1.225-2.124-1.225c-.735 0-.735 0-.408-1.062c.245-1.062-.572-1.634-1.798-.899c-1.143.654-1.143.654-1.062-.817c0-1.552-1.389-.408-2.287 0c-.899.327-3.105 2.042-4.085 1.144c-.817-.98-1.307-1.88-4.085-.245c-2.777 1.634-2.124.245-2.042-.49c0-.817 1.062-3.677-2.696-.572s-.735-3.268-3.676-1.144c-2.941 2.206-3.268 2.614-3.758 1.634c-.49-.98-1.062-1.797-4.33.327c-3.268 2.042-.817-1.308-.409-2.043c.49-.735 1.88-5.473-.98-1.715c0 0-1.389 2.532-4.493-2.043c0 0-3.268 4.575-4.167 2.533c-.817-2.043-1.633-2.206-2.777-.899c-1.062 1.307-.245-.082-.735-1.225c-.49-1.062-.736-3.105-6.21.817c-5.473 4.084 1.88 1.143-2.287 2.94s-14.296 7.517-5.065 6.21c9.313-1.308-4.493 3.594-1.307 4.493c3.268.898 2.206 3.758 14.297.408c12.009-3.268 10.048-.49 16.257-3.186c6.127-2.614-1.47.899 6.78.817c8.252-.245 1.39 0 3.023 1.634c1.634 1.716 8.578 5.719 15.032 6.454c6.536.653 8.17-1.797 6.29 1.062c-1.878 2.778-2.532 3.84-3.676 4.902c-1.062.898-4.166 3.186-4.248 7.025c0 3.922-5.065 4.575-3.267 8.905l4.493-4.33z"></path><path fill="#5a3719" d="M419.365 287.94s-1.47-1.062-1.47-2.94c0 0 1.061.163 1.47.816c0 0 3.758-4.166-.817-5.718c-4.412-1.553-2.206-5.637-.654-5.637s1.798-.409.49-2.125c-1.307-1.633-1.143-1.797 1.39-2.205c2.45-.409 2.205-.98 1.061-1.634a8.17 8.17 0 0 1-2.042-1.634s7.19-3.104 4.902-4.575c-2.37-1.389 0-1.062 2.042-2.533c2.124-1.47 2.45-1.797 2.696-2.369c0 0-2.042.245-3.595 0c0 0 1.798-.98 0-2.45s-2.45-2.778-5.392-2.125c-2.859.736-1.878-.245-.816-1.388c1.143-1.226.653-1.88-1.39-2.206c0 0 .246-1.226 1.798-2.696c0 0-3.921.245-5.228-.409c0 0 1.633-1.062 1.633-2.369c0 0-2.124.735-4.82.49c0 0 1.634-1.388 1.634-2.614c0 0-4.738 1.062-6.862 2.696c0 0-.49-.082-.817-.572c-.408-.49-.654-1.062-5.882.572c0 0 .572-2.287 1.879-3.268c1.225-.817 1.062-2.696-7.026 2.37c0 0-1.062-.654-1.96-3.105c0 0-1.798 2.45-3.105 3.268c0 0-1.144.49-.98-1.062c.163-1.634-.817-.49-1.634 0c-.817.408-1.389 1.552-.98-1.634s-1.144-3.84-1.144-3.84s-2.451 3.595-3.922 4.003c0 0-2.614-2.614-3.594-4.33c-.899-1.633-.899-2.287-1.88.654c-.898 2.941-2.042 3.186-2.042 3.186s-1.633-1.389-1.797-2.124c0 0-.245.817-.817 1.144c0 0-1.389-1.634-1.307-4.003c0 0-8.66 4.82-9.803 7.68c0 0-8.17-.491-11.52.162c0 0 .818-2.614 2.942-4.003c0 0-2.124-.245-2.206-2.45c0 0 1.716.245 2.778 0c1.062-.246-1.47-3.35 1.225-3.432c2.696-.081 4.412 1.307 3.268-2.287c-1.226-3.595-.735-3.595-.735-3.595s4.738 2.778 5.473 2.043c.817-.654-.572-2.124 3.595-1.47c4.166.734 3.022-1.635 4.656-1.798c1.634-.082 2.451 1.062 1.47-6.536s5.066 3.758.9-7.679c0 0-.98-3.513-3.513-4.983c0 0-.572 2.45-3.35.326c-2.86-2.205-8.333-3.022-6.045-4.738c2.369-1.797 3.43-4.085 2.777-5.555c0 0-2.777 2.86-7.516.817c-3.758-1.634-4.575 1.307-8.414.49c0 0 0-.98 3.268-3.595c3.267-2.532-1.88.817-3.84 1.307c-2.042.49-2.614.082 1.634-3.267c4.248-3.268 12.744-9.069 11.6-13.889c0 0 1.961 2.533 7.271.654c5.229-1.797 9.15-2.45 10.702-5.228c1.634-2.696 5.72-5.392 6.781-6.046c1.144-.572 2.533-.98.899 1.634c-1.634 2.533-4.248 6.944-11.52 9.967c-7.27 3.023-10.048 5.147-11.355 6.78c-1.307 1.553-7.924 5.066-3.594 4.494c4.248-.654 11.682 0 8.17-.98c-3.432-.98-7.353.653-4.167-2.288c3.186-2.86 3.758-3.84 8.414-5.8c4.657-1.961 9.804-6.454 9.313-1.634c-.571 4.656-9.231 9.721-11.355 11.274c-2.124 1.552-1.307 1.307-1.307 1.879c0 .653-.327 1.96-1.226 2.45c-.817.654-.572 1.308-.326 2.615c.245 1.388-.246 1.879.408 2.124c.654.163 1.307.245 1.47 1.225c.246.98.736 1.062 1.961.98c1.226-.163 2.043 0 2.124.736c.082.735 1.307 1.715 1.39-.49c.162-2.288.98-2.696-1.308-1.634c-2.288.98-2.778.653-2.696-.409c0-1.062-.245-.817-1.144-.898c-.98-.082-1.307-1.47.409-2.37c1.634-.817 1.634 0 3.758-1.715c2.124-1.797 2.124-2.206 2.45-3.105c.327-.817-3.022 2.451-4.656 3.187c-1.634.735-1.144-.572-.817-2.37c.245-1.797 4.248-4.248 6.045-4.248c1.88 0 5.964 1.062 4.249 3.595c-1.798 2.45-6.863 5.473-4.739 5.718c2.206.164 2.533-.653 3.84.409c1.225 1.144 0 3.431-.49 4.657a8.986 8.986 0 0 1-2.37 2.94s-2.287-4.084-2.205-.816c0 3.267-.49 4.411 0 4.493c.49.163 3.023 1.879 3.84 1.879s-4.412 2.45-2.206 2.614c2.206.163 5.718-.98 6.862-3.268c0 0-4.493-1.062-6.209-2.696c0 0 5.147-1.225 3.677-6.208c0 0 5.228 1.388 2.94 3.757c-2.205 2.288-3.594 1.961-1.633 2.615c1.96.653 2.859 1.225 2.859 1.225s1.389.654.572 1.716c-.817 1.143-.817 2.777-.082 2.696c.572 0 2.778-1.062.98-2.124c-1.878-1.144 2.043-.899.409-1.88c-1.634-.98-2.124-1.143-2.533-1.633c-.49-.409 20.996-13.071 10.13-8.333c0 0 2.288-4.902 5.474-4.902c3.105 0 3.35 2.451 1.634 4.412c-1.879 1.879-3.023 4.901-7.19 5.555c0 0 5.965 2.94-1.143 7.761c0 0-1.552.735-.98 1.225c.572.572 4.82-1.797 5.392-3.186c.572-1.307 1.47-2.45 3.104-3.186c1.634-.817 9.558-6.209 11.928-10.293c2.45-4.085 3.022-4.167 7.679-7.925s3.84-3.023 4.493-3.921c.572-.899.817-2.451 2.941-3.595c2.124-1.225 10.457-5.8 13.071-7.68c2.615-1.878 7.925-5.391 10.212-8.332c2.288-2.86 8.497-6.617 10.049-5.964c1.552.736-.164 2.941-3.758 5.719c-3.676 2.696-12.663 9.967-14.133 11.11a47.71 47.71 0 0 1-11.928 7.026c-2.86.409-2.532 1.389-4.248 3.268s-5.719 5.719-7.026 6.78c-1.307 1.144-4.493 3.269-4.656 4.82c-.164 1.553.571 1.716-1.961 4.085c-2.533 2.451-9.967 7.843-12.745 8.66c0 0 4.82 1.634 1.961 4.902c-2.86 3.186-2.696 2.696-2.86 2.94c0 0 7.19-1.143 2.125 4.576c0 0-1.062 1.634 1.225-.082c2.451-1.879 1.47-4.33 1.144-4.657c0 0 3.84-2.45 8.333-2.45c4.411-.082 4.248-.409.245-1.553c0 0 2.86-3.43 5.228-1.715c2.451 1.634 1.634 2.696-.816 4.085c-2.615 1.307-6.291 1.797-9.069 3.35c0 0 5.229 1.061 8.088-1.145c2.778-2.124 2.941-1.062 3.268-.653c.408.408.735 1.062-.49 2.86c-1.307 1.796-1.389 1.878-1.307 2.287c0 .408-.164 1.633-2.696 2.042c-2.451.408-3.676 1.47-2.778 2.696c.817 1.225.817 4.166-1.307 3.921c-2.124-.327-1.634-2.042-2.45-2.696c-.818-.653-1.962-1.634-5.72.245c-3.84 1.961-4.084-.326-3.92-1.634c0 0-2.452 2.206-4.494.246c-2.042-2.043-.245-2.778.98-3.758c1.144-.98 5.964-3.105 3.105-2.696c-2.941.326-7.19.49-8.17-1.634c-1.062-2.288 2.124-2.043 2.614-1.798c.49.164 2.451 1.798 2.615-.326c0-2.206 3.267-2.451 2.124-2.86c-1.062-.408-2.614.98-3.023 1.47c0 0-2.206-3.104-5.8-2.123c-3.595 1.062 1.143.653 2.042.817c.98.163.409 1.96-2.778 4.901c-3.267 2.86-1.797 1.961.572 1.961c2.451 0 8.333 0 4.902 2.778c-3.431 2.86-4.82 4.248-6.536 3.758c-1.797-.49.164-1.634.98-2.206c.818-.49 1.226-1.307-.49-.654c-1.633.572-2.205.736-3.594-1.633c-1.307-2.451-.817-1.634-.163-3.268c.571-1.552 1.879-3.186.326-2.615c-1.634.572-1.47.654-1.307-1.143c.082-1.798-1.797-2.206-1.797-2.206s.817 1.797.082 2.941c-.654 1.144-.736 1.552.408 1.797c1.144.327 2.206 1.307.654 2.37c-1.553.98-1.307.816-.409 1.47c.98.654 2.451 1.389.899 2.86c-1.47 1.47-.245.98.49.98c.817 0 2.45.653 2.45 2.124c0 1.388-.08 1.715 2.37.408c2.45-1.389 7.19-1.225 7.19.654c-.082 1.879-.654 2.45 1.96.817c2.532-1.634 3.676 1.47 5.473 0c1.716-1.553 2.86-3.023 4.902-.409c2.043 2.533 1.389 3.268-1.062 5.147c-2.45 1.797 1.226.408 3.105-.572s7.189-1.634 10.211-.245c3.023 1.307 3.922 1.062 6.128.082c2.287-.899 3.43-1.144 6.78 1.143c3.431 2.288 6.046 2.696 7.843 2.615c0 0-3.758 1.47-8.006 1.715c-4.248.327-6.372 1.062-7.19 1.716c0 0 2.533 1.634 3.023 3.431c0 0 2.778-.327 4.085.163c0 0-.653 2.043 1.062 3.105c1.716 1.062 2.86 1.47 1.634 2.94c-1.307 1.471 1.96.818.082 2.86c-1.798 2.124-2.288 3.105-2.37 4.82c0 1.634.41 1.88-1.225 2.043c-1.634.163.245 2.042-.49 4.248c-.735 2.124-5.31 1.879-5.147 7.76c0 0 1.307-2.859 4.085-5.391c2.696-2.451 2.778-2.696 2.696-4.248c0-1.47-.163-1.144 1.307-2.288c1.389-1.143-.654-2.205.817-3.84c1.389-1.633.163-1.306 1.879-2.94c1.634-1.634-1.552-1.798.245-3.513c1.634-1.634-4.248-3.677-2.45-4.739c1.633-1.062 4.574-2.614-5.311-2.45c0 0 2.37-3.922 10.702-3.105c0 0-2.124 1.634-2.37 3.105c0 0 .981.49 1.635.653c0 0-.409 1.144-1.96 2.451c0 0 4.41 2.45 5.146 4.003c0 0-2.696.817-3.431 1.96c0 0 1.225 1.39 1.634 3.105c0 0-3.023-.327-3.432 1.88c-.408 2.287-1.307.734-1.307 2.041s.082 1.88-.98 2.125c-1.062.163-.163 1.307 0 2.042c.163.735.572 2.45.408 2.94c0 0-1.552 0-2.287.246c0 0 .49 3.268-1.307 3.676c-1.797.49.98 1.144-.98 1.47c-1.88.328-1.634.491-4.004 4.74c0 0 2.043-1.145 4.085-2.533c2.124-1.39-.163-.98 3.268-4.33c3.431-3.431 2.86-3.677 2.533-5.392c-.246-1.716-.327-3.105.898-4.738c1.307-1.634 1.634-3.513 6.127-3.268c0 0-1.307-2.941-2.94-3.677c0 0 2.123-1.47 4.33-1.633c0 0-1.962-2.451-5.965-4.657c0 0 3.268-2.86 4.085-4.166c0 0-1.552.245-2.777 0c0 0 .571-1.39 3.594-3.35c0 0 1.634 1.552 1.47 3.104c0 0 5.147-2.859 8.007-2.532c0 0 1.47 3.594-5.637 10.539c0 0 4.411.408 6.29.163c0 0-1.062 3.35-6.372 5.31c-5.31 2.042 1.144 4.412-4.33 4.003c-5.392-.408-3.758 1.389-3.594 4.167c.163 2.777.326 5.637.245 6.372c0 0-4.33-1.389-4.248 2.777c.081 4.249-2.288 5.147-2.696 5.474c0 0-1.307-1.062-3.186-1.797c0 0-2.696 5.147-7.026 8.17z"></path><path fill="#7b3c20" d="M413.156 235.247s1.47-.245 4.003 1.307c2.45 1.634 4.902-1.634 2.206-2.45c-2.86-.818 0-1.88 2.45.163c2.615 2.042 3.595.98 4.494.326c.899-.735 2.042-1.143.327-2.287c-1.716-1.225 1.143-.654 2.45.245c1.308.817.817 1.634.654 1.879c-.245.245-.327 3.023 2.206.49c2.532-2.614 3.84-5.147 3.758-6.372c0 0 1.389.817 1.634 2.45c.163 1.635 2.124-.816 2.777-1.715c.654-.817 1.716-3.104 1.634-4.738c0 0 1.634 2.696 4.248 0c2.533-2.614 1.47-.98 4.494-1.797c3.104-.817 6.944-3.023 8.986-5.556c2.124-2.614 2.288-.817 4.983-1.47s8.17-4.412 8.66-6.536c.49-1.96.409-3.268-.327-2.532c-.817.653-.49.081-1.634-.572c-1.225-.817-2.94.898-2.94.898s1.715 1.308.408 1.88c-1.307.571-2.451 2.45-4.984 1.633c-2.45-.653-5.065 2.37-5.065 2.37s2.206 1.715-.735 2.859c-2.86 1.144-2.45 1.47-4.166.245c0 0-3.105 3.921-4.902 4.738c0 0-.817 0-1.307-.817c0 0-2.042 2.288-3.023 2.696c0 0-1.307-1.143-2.45-1.634c0 0-2.452 3.105-4.494 4.003c0 0-.572-1.143-1.879-1.879c0 0-.653 3.922-4.902 6.21c0 0 .245-.981-1.879-2.452c0 0-5.31 4.575-7.352 5.065c-2.124.409-.245-.98 0-1.633c.327-.572 1.634-2.451-.899-3.268s-2.124.572-2.696.817c-.572.245-.572-.49-2.369-.245c-1.634.245-1.389.98-2.124 1.307c-.817.245-3.758-.49-3.595 1.47c.164 1.96 1.553 3.35-1.062 4.493c-2.614 1.144.98.9 4.412.409z"></path><path fill="#5a3719" d="M423.858 229.692s.654-2.615-1.552-3.758c0 0 14.051-2.206 3.431-7.598c0 0 12.663-2.532 9.64-6.536c-2.941-4.084-5.882-3.267-6.29-3.104c-.409 0 2.695-2.37 3.512-2.042c.817.326 10.948 4.166 8.333.817c-2.532-3.268-2.369-3.105-2.777-4.085c0 0 3.35 0 8.414 4.902c0 0 1.062-1.062.98-3.105c0 0 3.595 1.062 4.739 2.124c0 0 .572-1.225.327-1.96c0 0 3.186 1.633 4.248 3.43c0 0 1.389-1.225 1.634-2.695c0 0 3.104 1.307 3.921 2.287c0 0 1.062-1.389.654-3.267c0 0 5.146 1.47 5.882-1.634c0 0 5.146 1.062 1.797 3.104c-4.33 2.614-.409-.654-4.902 2.45c-3.43 2.452-5.392 5.23-7.026 4.657c-1.225-.49-2.695 3.105-4.33 1.39c-1.633-1.798-1.633-.981-2.859.816c-1.143 1.798-3.022 3.677-3.022 3.677s-.817-.49-1.634-1.226c0 0-.899 1.634-2.206 2.941c0 0-1.062-1.389-2.696-2.206c0 0-2.533 2.941-4.085 4.003c0 0-1.552-1.47-3.104-1.96c0 0-.245 4.003-3.35 6.045c0 0-.653-1.307-2.696-2.124c0 0-1.552 2.45-4.901 4.575z"></path><path fill="#5a3719" d="M416.505 223.483s-1.715 1.307-.653 2.696c1.144 1.47 1.225-.245 2.614-.327c1.389-.163 18.627-3.104 3.023-7.761c0 0 .653-.654 3.268-.817c2.777-.327 12.58-2.941 8.006-6.454c-4.575-3.431-8.415 1.226-4.575-2.94c3.104-3.35.653-4.984.653-4.984s-9.068 6.045-11.11 7.189c-1.96 1.062-4.902 3.268-1.47 4.33c3.43 1.062 5.718-3.677 6.045-2.615c.327 1.063-6.863 5.066-5.8 6.863c.98 1.879.816 3.431 2.532 3.023c1.797-.327 6.536.898 2.696.817c-3.921-.164-5.229.98-5.229.98z"></path><path d="M422.714 214.823s-1.634 1.144.49.572s6.291-1.47 5.556-2.532c-.817-1.144-3.595.163-6.046 1.96z"></path><path fill="#7b3c20" d="M450.409 196.85s8.006-.245 11.274 2.043c3.268 2.205 4.902 3.676 5.882 4.003c0 0-.164 3.022-5.31.817c0 0 .326 1.47-.245 2.94c0 0-1.88-1.306-4.085-1.797c0 0-.409 1.144-1.062 1.798c0 0-2.288-2.288-4.902-3.023c0 0-.49 1.144-.899 1.634c0 0-2.777-1.634-4.901-1.634c0 0 .408 1.716 0 2.45c0 0-5.719-4.656-10.947-4.084c0 0 2.45 3.676 4.084 5.474c0 0-10.457-.817-8.66-6.454c1.635-5.637-.163-4.248 6.7-4.167h13.07z"></path><path fill="#5a3719" d="M401.31 212.454s-1.225.98 0 1.797c1.144.817 5.31-2.124 5.882-2.532c.572-.49 2.043-.409 0 1.144s-4.085 3.267-5.473 4.901c0 0 6.944-1.879 11.437-5.8c4.575-3.921-.163-1.389 7.516-5.065c7.68-3.758 11.764-9.722 7.598-9.068c-4.085.653-7.843 5.392-11.111 7.189c-3.186 1.797-4.983 2.042-4.493.98c.49-1.062 2.86-.653 7.352-4.166c4.412-3.595 3.432-3.268 3.432-4.575c0-1.226-1.634-4.33 4.983-7.843c6.699-3.513 27.368-15.522 29.165-19.77c0 0-6.045.653-14.051 6.535a74.342 74.342 0 0 1-14.297 9.395c-2.206.817-1.96.245-3.35 1.961c-1.47 1.716-9.313 9.313-10.783 10.457c-1.39 1.062-1.88 1.797-1.961 4.085c0 1.062-8.986 7.843-11.764 10.375z"></path><path fill="#5a3719" d="M428.678 196.687s-1.634.653-3.104 0c-1.47-.817-.98-3.921 2.614-5.882a53.265 53.265 0 0 1 13.398-5.147s-.49 4.085-10.784 7.598c0 0 .654 2.124-2.124 3.43z"></path><path fill="#aa5323" d="M432.273 193.991s.326.98 0 1.879c0 0 19.116 1.879 29.001-9.803c0 0-13.561 1.307-18.953 4.574c0 0 3.431-4.248 13.561-7.76c10.13-3.513 14.297-7.925 15.196-10.294c0 0-12.908 4.493-18.953 4.493c0 0-1.226 0-2.451.572c-1.144.735-9.314 6.617-11.438 7.68c0 0 4.575-.41 6.21-1.88c0 0-3.269 8.578-12.173 10.539z"></path><path fill="#5a3719" d="M395.673 204.856s-2.45 1.798-1.47 2.615c1.062.898 2.777 1.062 6.535-2.043c3.758-3.186 12.826-10.947 7.108-11.274c0 0-7.353-.408-7.108 4.085c.245 4.493-4.738 6.372-5.065 6.617zm-16.992-2.614s4.901 2.86 3.022 5.147c0 0 14.869-12.581 10.62-15.359c-4.084-2.696-7.352 2.451-6.371 2.941c.98.572 3.186-.408 2.45.572c-.817.98-8.741 6.29-9.721 6.7zm-3.84-4.085s3.268.98 3.431 2.451c.082 1.307 9.804-6.862 7.271-10.375c-1.225-1.552-6.536-2.206-6.862.899c-.245 3.104 4.901-.327 3.104 1.879c-2.287 2.94-6.209 4.656-6.944 5.146zm34.802-6.862s-2.042 1.47-.163 2.45c1.879.818 3.022-.571 4.003-1.388c.898-.817 5.555-4.248 6.535-6.372c1.144-2.206 2.696-2.86 4.412-3.921c1.634-1.144 13.48-7.026 20.75-13.562c7.271-6.535 4.249-4.82 11.765-8.986s12.499-8.006 14.051-12.581c0 0-3.513 1.143-6.536 3.186c-3.104 1.96-10.048 6.29-11.437 6.944c-1.389.572-3.268.653-4.33 1.715c-1.062 1.144-.98 2.451-4.575 5.392c-3.676 3.023-22.384 16.258-24.672 18.137c-2.287 1.879-9.803 8.986-9.803 8.986z"></path><path fill="#aa5323" d="M394.611 195.707s2.043-1.144 5.882-.817c3.84.163 19.035-14.542 23.447-17.483c4.411-3.023 18.218-12.908 20.015-14.705c1.879-1.88 2.206-3.84 3.84-4.902c1.634-1.062 3.104-.899 6.78-3.023c3.758-2.124 21.65-12.826 20.587-19.035c0 0-26.632 15.931-32.76 21.16a400.06 400.06 0 0 1-26.305 18.871c-3.023 1.96-5.392 5.228-10.539 9.395c-5.065 4.085-10.13 7.598-10.947 10.539z"></path><path fill="#aa5323" d="M388.974 189.988s4.902-.49 5.637 1.96c0 0 10.539-7.27 12.908-10.211c2.45-3.023-.817-1.307 5.229-5.229a633.953 633.953 0 0 0 28.838-20.423c2.86-2.451 8.333-5.8 12.663-8.742c4.33-2.94 21.24-11.274 19.361-18.054l-15.195 10.13c-2.86 1.879-4.085.817-6.862 3.022c-2.86 2.288-9.15 6.7-10.212 8.17c-1.144 1.307-10.702 8.66-15.359 11.764c-4.657 3.104-15.032 9.15-20.097 13.561c-5.065 4.33-14.705 12.418-16.91 14.052z"></path><path fill="#aa5323" d="M373.697 188.6s2.451 0 3.268.98c0 0 4.575-4.085 9.477 0c0 0 17.973-12.255 19.77-15.278c1.797-3.022 4.738-3.104 11.682-8.169c7.026-5.147 11.438-7.353 16.094-10.865c4.657-3.677 8.578-7.761 11.928-9.886c3.267-2.205 11.764-7.76 10.375-12.499c0 0-6.862 3.84-11.274 8.741c-4.493 4.902-4.085.736-8.66 4.82a88.23 88.23 0 0 1-17.4 12.5c-5.801 2.86-2.288 2.532-6.536 5.228c-4.167 2.696-3.84 2.288-5.392 2.696c-1.634.327-3.921 1.47-5.474 3.268c-1.634 1.797-5.718 4.248-10.212 6.862a113.556 113.556 0 0 0-17.727 11.601z"></path><path fill="#aa5323" d="M379.09 179.286s-.981-2.042.734-3.513c1.716-1.389 4.902-5.147 5.392-7.516c.49-2.45.082-1.96 5.065-4.085a200.725 200.725 0 0 0 40.766-23.038c1.96-1.552 6.863-4.901 8.823-6.535c0 0 .899 2.614-1.225 4.493a236.915 236.915 0 0 1-22.956 15.849c-2.37 1.225-8.17 4.166-10.212 5.882c-2.043 1.715-1.716 2.206-10.866 6.699c-9.15 4.411-9.558 4.902-9.313 5.228c.327.409 4.412-1.389 6.372-2.532c1.96-1.144 9.395-4.575 11.683-6.372c2.205-1.798 5.963-4.575 7.597-5.474c1.634-.817 15.114-8.986 19.035-11.846c3.84-2.86 4.902-3.758 5.719-3.268c.817.49 2.206.49.49 2.124s-7.19 6.536-9.313 7.843c-2.124 1.389-8.66 5.31-10.457 6.209c-1.798.98-2.533 2.696-3.595 3.431c-.98.817-4.003 2.86-7.597 3.676s-4.249 3.595-6.618 5.147c-2.45 1.47-19.28 10.62-19.77 11.03c0 0 .98-1.063.245-3.432z"></path><path fill="#aa5323" d="M437.501 141.298s-.899.817-.408 1.307c.653.653 3.022 2.287 5.963-.654a113.556 113.556 0 0 1 13.398-10.702c2.451-1.552 3.758-2.94 3.677-4.983c0 0-12.173 6.454-22.63 15.032zm16.666-1.062s1.879-3.105 6.454-6.046c4.575-2.94 11.437-7.189 12.254-8.17c0 0 1.634 1.798-1.879 4.085a332.499 332.499 0 0 0-11.437 7.516c-.817.654-2.206 1.634-5.392 2.615z"></path><path fill="#7b3c20" d="M361.443 173.976s-5.065 2.696-3.268 4.411c1.798 1.634 4.493 1.144 5.719.654c1.062-.409 3.186-.98 3.513-1.062c.327-.082 4.738-1.39 5.882-3.431c1.062-2.043 4.085-4.412 6.454-6.128c2.369-1.633 3.268-3.43 2.86-4.656c0 0-19.935 9.476-21.16 10.212zm-30.227 23.446s3.594-2.124 8.496-.817c0 0-.245-1.144-.98-1.797c0 0 5.964-1.552 7.27-4.167c1.308-2.695 1.635-2.124 2.697-2.859c1.225-.817 9.231-7.27 8.333-8.66c-.98-1.388-1.144-3.267-1.798-3.92c0 0-1.634 2.287-9.558 6.045c-7.761 3.84-16.502 6.699-22.875 15.195c-6.29 8.578-5.637 13.48 2.124 15.685c0 0 5.392-3.43 18.709-2.287c13.234 1.225 17.727 6.209 18.626 7.107c.817.899 3.513 4.167.899 9.722c0 0 2.696 1.144 2.859-1.389c.245-2.532.408-1.96.98-1.634c.654.409 1.39.49 1.062-1.47c-.245-1.96-1.143-6.29-2.45-7.761c-1.144-1.552.245-.817.98-.572c.817.327 3.594 2.614 1.96-1.634c-1.633-4.085-2.124-2.042-2.205-1.879c0 .245-.327 1.307-4.003-1.47a28.593 28.593 0 0 0-9.395-4.739c-2.451-.653-.735-.653.735-1.144c1.47-.571 3.35-.817 4.085-2.45c0 0-1.47.326-4.085-.654a14.052 14.052 0 0 0-12.254 2.206s1.307-4.902-2.614-4.657c-3.922.245-6.618.164-10.784 3.431c0 0-.245-4.983 3.676-7.597c3.921-2.533 3.431-.98 5.555-1.634c2.206-.654 2.451-2.86 1.47-3.595c0 0 5.148.899 13.726-6.209c0 0-4.657 6.046-10.212 7.271c0 0-.899 3.268-6.046 3.922c-5.065.735-4.901 3.676-4.901 4.411z"></path><path fill="#5a3719" d="M316.592 226.914s2.451-15.032 16.585-16.094c12.254-.98 16.175.572 18.626 1.389s8.496 2.533 6.127 4.493c-2.287 1.88-3.676 1.552-3.676 1.552s2.696-3.022.245-3.512c-2.45-.49-2.614.98-2.941 2.205c-.409 1.307-.49 2.778-1.716 3.758c0 0-1.225-1.389-3.022-.163s-.245 1.307.49 1.062c.653-.163 1.634-.572 1.389.572c-.164 1.062-1.144 2.94-4.085 4.493c-2.86 1.47-2.778 1.389-6.209 1.96c-3.513.573-6.699 1.961-11.11 5.72c-4.494 3.839-9.314 2.532-10.294-1.635c-.817-3.676-.409-5.718-.409-5.718z"></path><path d="M332.686 226.424s1.308-2.941-1.062-4.33c0 0-7.352 1.307-9.64-.899c0 0 8.088-.49 13.072-2.45c4.901-1.88 3.512-3.268 1.797-3.595c-1.716-.327-4.902.49-5.229 2.042c0 0-.98-1.634.245-2.777c1.308-1.144 3.268-1.307 4.984-.817c1.797.49 3.35 1.307 9.15-1.716c0 0 3.35.817 3.513 3.023c0 2.287-.246 3.186-.572 3.513c-.245.408-.654 1.062-1.39.98c-.653-.082-1.633-.245-2.45 1.307c-.817 1.634-1.389 2.941-2.86 4.003c0 0 1.635-4.901-2.614-6.045c0 0-3.512 2.042-6.208 2.206c0 0 3.43 3.186-.817 5.555z"></path><path fill="#5a3719" d="M340.447 217.437s-1.633-1.715.49-1.96c2.125-.164 4.902 1.389 4.412 2.777c-.572 1.308-3.104 1.226-4.902-.817z"></path><path fill="#fff" d="M461.356 193.746s-3.921 1.062-.245 3.513c3.595 2.45 5.392 4.493 8.006 5.147c2.696.735 5.392 1.633 5.392 4.33c0 2.614-.572 3.676-2.042 5.473c-1.471 1.879.817 2.614 2.695 1.634c1.961-1.062 3.513-1.634 4.82-2.37c1.226-.735 3.268-.653 1.471.327c-1.96.98-3.921 1.634-1.47 1.634c2.45.082 17.319.409 20.423-.653c3.105-.98 7.19-1.307 7.516-5.31c0 0 .164-1.798 1.307-2.615c1.144-.735 1.961-2.45.245-1.307c-1.634 1.226-2.94 1.798-3.267 1.47c-.327-.408-.49-.653.817-1.225c1.225-.571 1.879 0 3.022-1.634c1.144-1.715 1.062-1.47.409-2.124c-.572-.653-1.88-1.062-1.226-1.879c.654-.817 1.226-3.267-1.47-1.879c-2.696 1.471-8.088 5.147-10.62 5.72c-2.451.571-4.33 1.306-7.68 1.96c-3.268.735-5.392 1.47-8.986 3.431c-3.595 1.96-3.268-1.144-2.696-1.552c0 0 1.389 2.45 4.983-.735c3.595-3.105 2.451-.164 11.356-3.105c8.823-2.86 6.699-3.35 10.13-5.147c3.513-1.797 6.78-1.879 4.33-4.33c-2.451-2.45-2.696-2.614-5.8 0a36.763 36.763 0 0 1-16.993 6.945s20.015-8.578 17.973-9.804a22.14 22.14 0 0 0-5.637-2.696c-1.389-.327-1.798-.653-4.984.817c-3.267 1.389-3.758 1.716-4.656 1.797c-.98.082-3.677.654-7.516 2.615c-3.758 1.96-5.8 2.777-8.415 4.33c0 0 1.798-3.595 9.722-5.964c7.843-2.37 11.846-4.493 11.029-4.902s-2.86-.817-4.33-.49c-1.47.245-1.062-.163-5.882 1.797c-4.82 1.88-2.778 1.47-6.617 2.288c-3.922.817-5.474 1.634-7.353 2.45c0 0 .817-.98 3.35-1.96c1.388-.49-1.471-.98 2.287-1.144h1.062a34.312 34.312 0 0 0 9.232-3.431c-.817-.163-5.474-.654-10.212 1.634c-4.739 2.124-2.615 1.389-4.248 1.634c-1.634.408-5.229 2.614-6.373 3.594c-1.225.98-2.859 1.634-2.859 1.634z"></path><path fill="#5a3719" d="M344.124 215.313s1.879.572 2.369 1.88c.49 1.306 1.634-.573 1.634-1.144c-.082-.572-1.226-3.268-3.268-1.961c-2.042 1.144-.98 1.144-.735 1.225z"></path><path fill="#7b3c20" d="M338.977 241.129s3.921-1.879 7.352-1.634c0 0-1.388-4.657.98-3.921c2.288.817 1.635.49 2.125.49c0 0 .163-3.104-.49-4.33c0 0 2.45.572 4.82.572c0 0-2.288-4.412.245-7.516c0 0 1.389 2.941 4.493 3.676v-2.532s1.797-.245 3.268.49c1.47.817 2.614-8.088-1.634-9.967c0 0-1.062 1.634-5.065 2.451s-3.922 1.634-5.555 4.657s-3.105 3.022-6.536 5.228c-3.268 2.124-5.31 6.536-5.474 6.944c0 0 1.716 2.124 1.47 5.392z"></path><path fill="#999" d="M472.548 189.743c1.39-.245-1.552-.98 2.206-1.144h1.062a34.312 34.312 0 0 0 9.232-3.431c-.817-.163-5.474-.654-10.212 1.552s-2.615 1.47-4.248 1.797c-1.634.327-5.229 2.533-6.373 3.513c-1.225.98-2.859 1.634-2.859 1.634s-3.921 1.144-.245 3.595c3.595 2.45 5.392 4.493 8.006 5.147c2.696.735 5.392 1.633 5.392 4.33c-.082 2.614-.572 3.676-2.042 5.473c-1.471 1.879.817 2.614 2.695 1.634c1.961-1.062 3.513-1.634 4.82-2.37c1.226-.735 3.268-.653 1.39.327c-1.88.98-3.84 1.634-1.39 1.634c2.451.082 17.32.409 20.424-.653c3.105-.98 7.19-1.307 7.516-5.31c0 0 .164-1.798 1.307-2.615c1.144-.735 1.961-2.45.245-1.307c-1.634 1.226-3.022 1.798-3.267 1.47c-.327-.408-.49-.653.817-1.225c1.225-.571 1.879 0 3.022-1.634c1.144-1.715 1.062-1.47.409-2.124c-.327-.326-.817-.571-1.062-.898c0 0-.899-.817-1.961-.164c-1.062.736-5.637 2.615-7.434 2.86c-1.798.163-3.758.98-7.026 2.614s-8.741 4.902-9.64 1.797c0 0-2.37.817-2.86 1.144c-3.676 1.879-3.349-.817-2.695-1.552c0 0-1.961 2.206-1.88.245c.082-1.96 1.308-1.634 3.514-2.288c2.124-.653 5.473-2.042 4.084-3.186c-1.388-1.143-2.859 1.144-4.411 1.88c-1.552.735-4.657 1.306-5.147-.9c-.49-2.287-.49-3.839-4.657-4.084c-4.166-.245-4.084-2.86-2.94-4.003c1.225-1.144 2.205-3.023 6.127-3.758z"></path><path d="M485.865 210.085s6.535-2.941 12.499-4.412c6.045-1.388 1.307.245.327.49c-1.062.327-10.376 3.432-12.581 4.494c-2.206.98-1.798.163-.245-.49zm1.47 1.389s7.353-2.451 8.741-1.47c1.39 1.061.245.571-1.388.816c-1.634.164-6.046.899-7.19.899c-1.225 0-.163-.245-.163-.245zm11.846-2.615s1.389-.245 1.552.327c.082.49-.654.572-1.47.49c-.736-.163-1.39-.571-.082-.817z"></path><path fill="#fff" d="M304.91 272.99s-.245-6.536 3.023-9.803s19.035-19.689 21.486-24.264c0 0 2.042 1.389 2.124 4.003c0 0 2.696-4.575 4.738-6.29c0 0 1.879 1.879 1.634 5.718c0 0 3.758-2.042 9.64-2.042c0 0-2.206 2.533-2.288 4.085c0 0 8.17-.98 12.5-.245c0 0-11.274 6.29-8.17 6.862c3.268.572 6.536 0 6.536 0s-3.595 3.595-9.313 4.33c0 0 7.27-.082 8.741 1.552c0 0-7.107 1.062-12.744 5.392c0 0-.572-.245-.572-1.879c0 0-.245 1.47-1.88 2.86c-1.633 1.306-5.473 4.247-6.943 5.718c-1.47 1.389-4.085 4.33-7.026 4.166c0 0 .653-2.205-1.47-2.94a6.045 6.045 0 0 0-6.373 1.633s-7.597.164-10.048.49c0 0 1.715-2.777 3.267-2.695c1.634 0 8.007.98 8.578-3.432c.572-4.33-4.084-3.186-2.369-5.718c1.798-2.615 1.39-2.451 1.47-2.778c0 0-1.47.817-2.287 3.104c-.817 2.288-1.47 4.085-4.493 6.373a16.094 16.094 0 0 0-5.147 5.31s-1.388.163-2.614.49z"></path><path fill="#fff" d="M312.263 269.069s.245-.817 2.45-1.226c2.288-.408 2.451-1.47 2.125-1.96c-.327-.409-1.634-.409.49-2.941c0 0 .817.245 1.307.817c.572.653 3.023 5.882-6.372 5.31z"></path><path fill="#999" d="M306.952 264.494c.082 4.33 5.72 2.696 5.72 2.696a22.875 22.875 0 0 0-4.086 3.758c.409-2.124-3.186-2.615-3.186-2.615c.327-1.307.817-2.696 1.552-3.84zm20.67-22.957c.816-1.062 1.47-1.96 1.797-2.614c0 0 2.042 1.389 2.124 4.003c0 0 2.696-4.575 4.738-6.29c0 0 1.879 1.879 1.634 5.718c0 0 3.758-2.042 9.64-2.042c0 0-2.206 2.533-2.288 4.085c0 0 8.17-.98 12.5-.245c0 0-11.274 6.29-8.17 6.862c3.268.572 6.536 0 6.536 0s-3.595 3.595-9.313 4.33c0 0 7.27-.082 8.741 1.552c0 0-2.124.327-4.902 1.307c0 0-2.042-1.96-8.17-1.634c0 0 4.74-2.696 8.497-3.594c0 0-1.634-2.124-4.248-.164c0 0-5.147-3.512-.817-6.535c0 0-3.023-.572-4.983.817c0 0 0-2.451 2.205-3.513c0 0-5.718-.98-7.107 3.268c0 0-1.144-1.716-.572-3.677c0 0-3.513 1.961-5.065 4.249c0 0-.572-4.33-2.778-5.883m-11.11 27.287c-.98.245-2.451.326-4.248.245c0 0 .163-.572 1.388-.98c0 0 .327.735 2.86.735"></path><path d="M326.968 252.566s2.614 2.043 3.513 3.268c0 0 2.45-1.634 3.267-3.023c0 0 1.88 1.226 2.451 3.023c0 0 1.39-.817 1.634-2.124c0 0 3.268.654 4.412 1.716c0 0 .49-3.105 0-5.147c0 0 2.287.245 3.676.817c0 0-1.307-2.124 5.31-4.82c0 0-4.983 1.144-6.944 3.268c0 0-2.124.163-3.023-.49v4.738s-1.307-.572-3.758-1.144c0 0-.653 1.062-1.062 1.307c0 0-1.634-1.307-2.287-2.86c0 0-2.45 2.207-3.268 3.105c0 0-2.369-1.634-3.921-1.634z"></path><path fill="#ffc221" d="M311.936 285.163s1.062.49 3.513-1.47s9.231-6.291 9.803-9.804c.735-3.513-2.124-3.677-4.33-2.696c-2.287 1.062-1.307 2.94-1.225 3.594c.082.654.163 3.105-3.513 6.454l-4.248 3.922z"></path><path fill="#ffc221" d="M311.2 286.225s-5.473-2.288-.571-4.739s7.107-3.104 7.68-5.228c.571-2.043.244-1.634-1.635-.817c-1.797.817-8.741 4.085-9.803 1.062c0 0 2.86 1.144 6.454-.572c3.594-1.797 6.535-2.287 4.248-3.023c-2.288-.735-10.539.164-11.846.572c-1.389.409-1.062.327-1.307 1.634c-.245 1.389-1.716 4.248-2.288 5.065c-.571.817-1.96 4.33.572 5.882c2.451 1.552 6.536 1.39 8.497.164z"></path><path d="M309.077 274.297s-1.308.164-1.062.654c.245.49.571.408 1.062.408c.408 0 1.143-.245 1.225-.49c.082-.327-.817-.735-1.225-.572z"></path><path fill="#fff" d="M310.792 285s-2.532-1.226.409-2.778c2.94-1.634 6.045-3.187 6.535-3.84c0 0-1.47 1.96-6.862 6.617z"></path></svg>