<svg xmlns="http://www.w3.org/2000/svg" xmlns:xlink="http://www.w3.org/1999/xlink" aria-hidden="true" role="img" class="iconify iconify--flag" width="1.34em" height="1em" preserveAspectRatio="xMidYMid meet" viewBox="0 0 640 480" data-icon="flag:as-4x3"><path fill="#006" d="M0 0h640v480H0Z"></path><path fill="#bd1021" d="m-.6 240l640-240v480Z"></path><path fill="#fff" d="m59.7 240l580-214.3v428.6"></path><path d="M474.062 270.42c5.055.307 4.902 5.362 4.902 5.362l18.075.459c2.298-6.357 4.749-5.591 9.115-2.45a32.857 32.857 0 0 0 8.73 4.212c1.762-9.038 14.553-7.2 14.553-7.2c5.514-13.02 5.974-12.867 2.68-14.552a10.723 10.723 0 0 1-4.595-4.442c-3.063-3.753-4.672-9.114-5.055-12.408c-.383-3.293-4.212 1.609-4.902.613c-.689-1.072-6.356-.46-6.356-.46c1.378 1.532-3.37.613-3.37.613c.46.383 0 1.762 0 1.762c-.46-.613-4.136-1.226-4.136-1.226c-.307.766-1.15 1.609-1.15 1.609c-1.99-.766-5.897-.69-5.897-.69a20.067 20.067 0 0 0-10.952 2.758c-1.608.919-7.43 3.83-12.254 8.501c-4.749 4.595-7.43 4.06-7.43 4.06c-1.378 5.207-12.79 11.488-12.79 11.488c-1.838 1.608-7.583 2.374-10.493 0c-2.91-2.451 0-6.893 0-6.893c1.149-1.992 2.145-1.915 2.298-8.961c.076-4.749 4.978-8.578 10.033-14.093c6.204-6.816 14.858-17.998 14.858-17.998c0 3.446 1.915 3.982 1.915 3.982c1.685-3.446 4.136-6.28 4.136-6.28c.153.306.536.46.536.46c1.915-2.605 3.064-3.6 3.064-3.6c-.613-.307-6.05 0-11.03 4.365c-5.054 4.366-8.424 2.91-8.424 2.91c-3.523-1.148-3.83-3.829-3.83-3.829c-2.527-10.952 7.43-18.764 7.43-18.764c-13.404-3.217-3.753-20.297 12.943-27.573c16.62-7.2 16.467-10.493 16.467-10.493c.996 1.15 1.762 3.064 1.762 3.064c.153-.077 1.378-1.915 11.029-6.127c9.574-4.29 14.169-7.966 14.169-7.966c1.225 2.375.996 4.06.996 4.06c26.27-9.191 52.08-30.33 52.08-30.33c.767 1.762.384 4.442.384 4.442c4.289-3.982 19.76-13.173 19.76-13.173c.23 5.897-4.595 8.118-4.595 8.118c.536.843.765 2.375.765 2.375a359.973 359.973 0 0 0 14.4-9.574c4.365 3.753.459 9.803.459 9.803c1.532-.23 2.604-1.531 2.604-1.531c1.149 6.357-5.897 11.948-5.897 11.948c1.225 0 3.293-1.226 3.293-1.226c-1.379 6.893-14.476 14.552-14.476 14.552c1.915 1.762.077 3.983-1.531 5.055c-1.532.996-4.29 3.217-3.447 4.136c.843.92 6.663-3.217 6.663-3.217c.996 2.91-6.433 8.655-6.433 8.655c5.208.69 19.607-5.897 19.607-5.897c-1.149 5.59-6.587 9.956-13.327 12.484c-6.74 2.527-6.357 2.91-6.357 2.91c1.15.92 10.416-1.761 10.416-1.761c-2.757 6.203-12.407 10.492-12.407 10.492c2.604 2.298 6.28-.383 9.88-2.833a58.208 58.208 0 0 1 14.016-6.434c5.361-1.838 9.267-.46 9.267-.46c4.596-1.455 8.425.613 8.425.613c8.655.69 9.574 3.83 9.574 3.83c.92.23 1.685.612 3.906 2.297c2.221 1.609 2.068 6.664 1.991 9.191c-.076 2.451-.765 2.451-1.225 3.064c-.383.766-.46 1.532-.46 2.45c0 .996-2.22 6.894-15.7 6.894H602.35c-1.15 0-2.451.69-2.451.69c-5.668 2.833-2.68-1.916-9.42 3.599c-6.74 5.59-10.187 4.595-10.187 4.595a90.146 90.146 0 0 1-12.255 10.57c-3.982 2.604-3.293 2.297.23 3.83s8.808 0 8.808 0c-3.37 2.297-.996 3.37-.996 3.37c4.442-2.758 7.2-1.762 7.2-1.762c1.378 3.906-3.753 10.11-3.753 10.11c1.991.23 5.744 0 5.744 0c-.919 2.603-4.595 5.514-7.353 6.356c-2.757.92-2.297 1.302-1.455 2.91c.766 1.686.153 3.37.153 3.37c-4.825-3.293-4.978-.382-4.978-.382c-.536 3.906-.46 9.574-.46 9.574c-3.37-1.685-3.523.536-3.523.536c-.919 3.6-5.055 7.659-5.055 7.659c-.153-2.145-2.22-2.758-2.22-2.758c-2.145 4.136-6.128 6.664-6.128 6.664c-.46 3.523.536 8.578.536 8.578c-2.604-.536-3.523-.536-3.906.076c-.383.613.536.92.536.92l33.393.842c.46 0 2.451.306 2.451 3.83c.077 3.676-2.91 3.829-2.91 3.829l-36.457-.842s.153.995-1.761 1.99s-1.226-1.148-1.762 3.37c-.536 4.443-7.812-.382-7.812-.382c-1.15 1.761-3.983 4.06-3.983 4.06c-1.685-4.98-3.37-6.511-5.974-2.222c-2.604 4.29 4.749 3.523 4.749 3.523s42.813-6.28 45.188-6.51c2.297-.23 4.825-.077 5.897 3.14c.996 3.294-5.208 3.83-5.208 3.83l-43.963 4.748c-.919 2.604-4.595 2.451-4.595 2.451c.306 2.451-2.298 4.06-3.6 4.902c-1.378.919-5.59.536-5.59.536c-5.056 3.447-7.583.766-7.583.766c-3.294 1.379-5.361.766-8.119-.383c-2.757-1.225-2.527-4.519-2.527-4.519l-27.726 2.91a6.74 6.74 0 0 0-2.22 1.303c.995 1.302-1.992 4.212-1.992 4.212c.842.536 2.45 2.145 2.68 5.591c.23 3.677-4.518 4.29-2.144 6.893c2.298 2.528 6.663.383 11.488-1.914c4.749-2.298 9.498-1.992 11.489-1.992c2.068 0 7.812 1.532 11.335 2.757c3.6 1.226 4.825.46 5.055-1.378c.23-1.762 1.838-2.298 1.838-2.298c-.46 1.762.536 2.604.536 2.604c1.38 0 3.753-1.302 3.753-1.302c-.23 1.379-1.991 2.221-1.991 2.221c-3.447 2.298 1.302 1.455 1.302 1.455c9.574-1.99 13.02-1.761 15.471-1.531a122.544 122.544 0 0 1 14.246 5.284c.383-1.225.153-4.135.153-4.135c2.987.842 4.213 2.604 4.213 2.604c1.148-1.226.383-3.37.383-3.37c9.65 5.438-1.992 7.888-5.132 8.96c-3.064.996-3.064 2.298-3.064 2.298c2.604-.766 4.366-1.148 6.51-1.302c2.145-.153 1.38 0 6.51-.995c5.132-1.073 7.736 1.149 7.736 1.149c-4.289.23-5.514 1.531-5.514 1.531c2.68 1.762.076 3.37.076 3.37c-3.83-4.901-7.199.153-7.199.153a15.318 15.318 0 0 1 6.357 1.38c.842.535 2.91 1.53 5.361 2.68c3.6 1.608 2.91.612 5.668 1.608c2.757 1.072 1.685 3.676 1.685 3.676c-1.149-2.144-3.676-2.91-3.676-2.91c-.23 2.91-3.14 3.447-3.14 3.447c3.6-3.983-4.136-5.745-7.813-5.668c-3.6 0-6.28 2.374-6.28 2.374c7.276 6.893 12.33 4.596 12.33 4.596c-.918 2.527-6.892 1.531-6.892 1.531c2.757 2.145 2.45 3.6 2.45 3.6c-1.531-1.455-3.906-.766-9.19-4.06c-5.208-3.446-9.88-2.297-9.88-2.297c5.131 5.361-1.838 8.655-1.838 8.655c-2.605 1.532 1.072 3.446 1.072 3.446c-3.217.613-3.677-2.604-3.677-2.604c-1.685-.383-4.135 1.685-4.135 1.685c.153-3.293 4.518-1.608 4.595-5.131c.153-3.447-3.983-6.127-16.314-4.442c-12.407 1.761-16.007-2.222-16.007-2.222c-1.072 0-1.225 1.073-1.225 1.073c1.99 1.991 2.91 2.757 2.604 4.136c-.383 1.378.612 1.838.612 1.838c-2.297-.153-2.45-2.834-2.45-2.834c0 1.149-.46 1.225-1.226 2.374s0 2.68 0 2.68c-.996-.842-2.757-1.837-1.072-4.288c1.225-1.838-2.68-4.213-2.68-4.213c-1.533-1.531-5.592-.076-5.592-.076c-8.425 1.608-13.327-3.677-13.327-3.677c-.995 0-2.833-.536-2.833-.536c-8.885 3.983-16.697-4.595-16.697-4.595c-6.74 1.225-9.804-1.991-11.795-5.208a11.489 11.489 0 0 0-5.208-5.055c-2.68-1.532-5.208-6.204-2.68-8.655c2.144-2.144 1.531-2.604 1.531-2.604c-3.523-5.897 6.127-7.736 6.357-9.19c.23-1.992 2.298-3.294 4.442-3.447c2.221-.153 2.221 0 3.677-1.379c1.378-1.532 4.135.306 4.135.306c.613-.382 5.362-4.135 9.65-2.22c4.29 1.914 7.813.612 7.813.612c3.064-.69 28.032-4.06 28.032-4.06c1.532-2.45 2.757-5.36 9.65-6.892s12.025-5.974 12.025-5.974c-1.226-1.302-3.293-1.226-4.29-1.379c-1.071-.077-3.216-1.991-3.216-1.991c-1.302.612-1.915.306-10.952 5.82c-8.119 4.902-8.349-4.825-8.349-4.825H479.04c-.307 3.753-3.064 5.209-3.064 5.209l-6.51.306c-3.523-1.838-3.6-8.195-3.6-8.195c-19.377.306-30.1 7.2-30.1 7.2c-21.981-11.183-39.137-13.787-39.137-13.787c26.653-2.834 40.746-10.263 40.746-10.263a63.263 63.263 0 0 0 28.491 9.038c.536-5.362 4.136-6.664 4.136-6.664z"></path><path fill="#ffc221" d="M442.278 314.613c-5.515 3.216-4.52 5.055-3.983 6.05c.46.996.536 1.992-.996 3.523c-1.532 1.532-1.378 2.068-1.378 2.068c.23 5.362 4.059 6.51 5.667 7.89c1.379 1.071 3.6 4.594 3.6 4.594c2.91 4.06 5.897 4.136 8.118 4.136c2.298 0 2.068-.23.92-1.225l-3.294-2.757a17.616 17.616 0 0 1 5.821 4.136c5.668 6.203 10.876 5.36 13.173 5.131c2.298-.306 1.915-1.685 1.915-1.685c-.153-.23-2.297-.383-2.297-.383c-8.579-.766-11.106-6.357-11.106-6.357a24.126 24.126 0 0 0 15.624 5.974c2.451-.153 2.298.613 1.762.766c-.536.077-1.226 0-2.374-.153c-1.15 0-1.15.23-.92.766c.307.383 1.38.46 2.681.383c1.379 0 .307.153 3.83 2.834c3.523 2.757 12.254.536 12.254.536c-5.668-1.379-6.433-3.983-6.433-3.983c-7.66.92-10.8-3.676-10.8-3.676c-1.378-1.379-5.514-3.523-5.514-3.523c-4.29-1.839-4.978-5.745-4.978-5.745c1.225 1.762 3.6 3.753 6.586 4.596c3.064.766 3.83 1.225 3.83 1.225a3.83 3.83 0 0 1-2.298-.23c-2.987-.919-1.302.307-1.302.307c3.37 2.68 4.29 2.45 4.29 2.45c8.654.92 4.365-2.603 4.365-2.603c6.127 1.531 7.2-.766 7.2-.766c1.301 2.68 5.973 1.685 5.973 1.685c-6.204 3.063-1.532 2.144-1.532 2.144c6.357-1.149 7.66.46 7.66.46c1.608 1.531 3.37 1.378 3.37 1.378s1.148 0 3.522.46c2.375.46 6.128 2.527 9.574 2.144c3.447-.46 4.06.613 4.06.613c-.69-.23-2.222-.46-4.902.766c-2.68 1.225-7.353 1.532-14.17 0s-7.352-1.379-7.352-1.379c1.608 1.15 3.064 2.91 3.37 4.06c.306 1.148 1.532 1.225 1.532 1.225c.46-1.532 2.45-2.144 2.45-2.144c1.38 1.225 4.979 2.833 4.979 2.833c.383-.766 0-1.378 0-1.378c2.604 2.527 5.668 1.761 5.668 1.761c.766-.536.536-1.991.536-1.991c1.072 0 1.225.613 1.991 1.149c.766.46 3.064.153 3.064.153c-.843-.383-1.532-1.685-1.532-1.685c3.523-2.374 10.952-1.379 10.952-1.379c5.362.996 4.749 4.52 4.749 4.52c1.072.459 2.527 2.144 2.527 2.144c.46-1.226 0-2.528 0-2.528c2.528 1.15 3.064 4.06 3.064 4.06c2.834-3.294-2.757-6.894-2.757-6.894c2.68-.382 5.667-.153 7.505.077c1.839.306 4.366 1.225 6.51 3.064c2.145 1.685 5.898 2.527 5.898 2.527c-.077-.766-2.144-1.991-2.604-2.221c-.46-.23-.613-.92-.613-.92c1.838.384 3.064.154 3.064.154c-6.434-3.983-8.119-5.82-8.119-5.82c2.451.306 3.83-1.226 3.83-1.226c-5.132.076-5.361-1.226-5.361-1.226c.689.154 3.063.766 6.127.154s7.276 0 7.276 0c-2.221-3.6-10.8-2.987-13.557-2.834c-2.757.153-3.83-.23-3.83-.23c.46-.153.92-.613 3.064-.69c2.145 0 4.29.23 6.74-1.531c2.375-1.609 5.745-1.072 5.745-1.072c-.766-1.609-4.672-2.221-8.042 0c-3.447 2.144-6.51 1.531-6.51 1.531c5.36-.765 6.893-2.68 6.893-2.68c-1.532-.46-2.451.076-5.745.766c-3.216.612-4.059-.536-4.059-.536c3.523-2.068 6.05-2.91 6.05-2.91c-3.063-.69-5.82-1.992-5.82-1.992c-3.14 2.987-5.591 4.595-11.642 1.532c-6.05-3.217-9.19-2.834-9.19-2.834c5.36-3.064 10.722-1.762 14.705.612c3.982 2.298 5.131.46 5.131.46c-1.302-.766-1.072-1.532-1.072-1.532c9.574 4.902 13.786 1.915 15.854.46c2.145-1.455-.996-3.37-.996-3.37c-.153 3.063-4.059 4.595-7.2 3.523c-3.063-1.072-5.896-2.374-10.339-4.29c-4.442-1.837-9.956-.842-15.165.23c-5.208 1.073-5.82.537-6.357.154c-.459-.383-.689-1.685-3.37-.613c-2.604 1.149-8.807-1.761-12.637-2.68c-3.83-.92-10.11-.46-15.548 2.527c-5.36 3.064-8.118 2.298-9.727 1.532c-1.608-.766-2.68-2.758-.919-4.596s1.915-2.297 1.762-4.978c-.153-2.604-2.757-4.212-2.757-4.212c2.374-2.451 2.987-3.064 2.144-4.06c-.766-1.072.46-1.072 1.838-1.685c1.379-.612.766-.689.46-1.532c-.306-.765-1.149-.612-1.149-.612c-3.14.153-4.902-.766-4.902-.766c-5.208-2.374-10.11 2.298-10.11 2.298c-2.987-2.298-3.676-.766-4.212-.23c-.46.536-1.532.919-2.91 1.072c-1.302.153-3.217.613-3.83 1.838c0 0-.613.92.077 1.992c0 0 .766 1.225-.613 2.68c-1.532 1.532-2.068 1.838-1.532 3.294c.383 1.378.307 2.45-.306 3.37c0 0-.69-.766-.46-1.762c.153-.92.153-1.532-.076-1.991c0 0-1.456 1.378-1.685 2.45c0 0-.613-1.608 1.531-3.752c2.068-2.068 3.064-3.14 2.451-3.983c-.46-.613-1.991.383-2.374.613z"></path><path d="M448.405 337.973s-2.68-1.992-2.375-4.826c.307-2.757.307-3.063 0-3.753c0 0-.536.307-.46 1.38c0 1.071-.152 2.144-.229 2.297c0 0-1.379-2.298-1.991-2.757c0 0 .536-2.451-.23-3.447c-.766-1.072-1.532-1.149-2.374-.766c-1.226.383-2.145 1.532 1.914 4.825c0 0 1.532 1.226 2.528 3.83c1.072 2.68 2.834 3.063 3.14 3.217zm13.02-7.736s-.153-1.532 1.302-4.366a6.127 6.127 0 0 0 .23-5.59c-.307-.767-.536-.46.919-1.686c1.761-1.531-.69-3.37 2.298-5.974c0 0 1.838-1.608 2.297-2.297c0 0-3.063 1.608-5.131 2.45c-1.992.843-9.65 4.596-7.966 7.123c1.685 2.528 1.532 2.681 1.226 3.753c0 0-4.596-2.45-2.91-6.357c0 0 .689-1.532 2.603-3.37c1.762-1.608.766.383 4.29-1.685c0 0 2.757-1.685 4.289-3.906c0 0-1.915 1.15-2.528 1.379c0 0-4.136.766-5.82 2.45c-1.61 1.762-5.132 4.75-3.983 8.12c0 0-4.06-.46-4.979-4.75c0 0-7.659 9.345 8.349 13.787c0 0 2.91.766 5.59.919z"></path><path fill="#ffc221" d="M531.581 298.912c5.974-.843 40.44-6.128 43.657-6.434c3.37-.306 4.672-.766 5.82 1.991c1.303 3.064-4.748 3.14-4.748 3.14l-41.129 4.673c-1.991.23-2.45-.536-2.45-.536l-1.533-2.068s-.536-.613.383-.766z"></path><path fill="#5a3719" d="M447.332 317.676s-4.442 9.344 13.02 11.642c0 0 .077-.996.767-2.528c.766-1.455 2.297-4.442.766-6.357c-1.38-1.914 1.225-.919 1.531-3.446c.46-2.451-.23-2.145.996-3.753c0 0-5.438 1.991-7.582 4.442c-2.068 2.375 2.833 4.213 0 6.893c0 0-2.528-.919-3.983-3.6c0 0-3.37.077-5.515-3.293z"></path><path d="M464.489 329.165s4.289 3.753 9.42 3.6c5.132-.23 7.353-1.532 8.655-3.6c0 0 .996 1.532.996 2.604c0 0 4.442-3.677 12.1-.46s5.362 2.298 7.047 2.528c0 0-3.293-.536-10.723 2.834c-7.659 3.523-27.725 2.297-27.572-7.506z"></path><path fill="#5a3719" d="M457.29 312.621s1.914.307 3.829-1.914c0 0-2.604.536-3.83 1.914zm-14.706 17.386s-3.6-2.834-1.302-3.37c0 0 1.685-.306 1.302 3.37z"></path><path d="M521.165 347.776s1.992-3.446 7.506-3.446s6.127 2.604 13.173 3.063c0 0-8.424 2.298-14.245.23c-3.064-1.149-5.821-.23-6.434.153z"></path><path fill="#5a3719" d="M466.327 331.692s8.348 4.979 15.7-.46c0 0 .613.613 1.15 1.915c0 0 5.59-5.36 15.547.46c0 0-1.225-.153-5.897 1.838c-6.127 2.68-21.445 4.442-26.5-3.83z"></path><path d="M498.341 336.747s7.966.92 14.63.536c4.135-.23 8.654-.995 6.433.383c-2.298 1.379-1.15 1.532 8.348.69c9.497-.92-.077 1.761 6.434 2.604c0 0-15.855 8.118-35.845-4.213z"></path><path fill="#5a3719" d="M519.174 331.692s4.672-1.685 9.037.307c4.29 2.067 3.6 2.22 6.51 2.527c0 0-1.99 2.834-6.74.536c-4.748-2.298-6.05-2.757-8.807-3.37zm5.208 14.323s4.595-2.298 9.65.076c.613.306 1.992.92 3.294 1.149c0 0-3.83 1.225-7.812 0c-1.685-.536-2.988-.92-5.132-1.225zm-22.67-8.196s10.262.92 15.777-.153c0 0-6.434 3.064 9.727 1.685c0 0 3.523-.383 3.063.153c-.383.537-.689.996 1.073 1.532c0 0-11.948 5.361-29.64-3.217z"></path><path d="M450.702 329.165s.154.766 2.375 1.761c2.297 1.073 3.523 2.834 3.982 3.83a5.591 5.591 0 0 0 3.524 2.91s-8.042 1.685-11.566-2.527c0 0-2.757-2.987 1.609-5.974"></path><path fill="#5a3719" d="M513.736 347.623s-3.14-.23-7.506-1.685c-4.289-1.532-5.438-.23-7.889-2.068c-2.45-1.838-7.352-.69-8.271-.536c-.92.076-3.523 0-.307-2.145c0 0-2.604 0-3.6-1.378c0 0-1.148 1.149-5.59.766c0 0 1.99 3.063-5.898 2.144a10.263 10.263 0 0 0 11.029 3.064c0 .076-.536 2.45 3.064 3.37c3.753.919 4.442 1.608 6.357 2.374c0 0 .23-1.532-4.596-5.055c0 0 2.604-.153 6.357.766s12.255 3.064 16.85.383zm1.991 3.676s.766 1.838 3.217 1.379c2.374-.383 6.357-1.072 10.187.842c0 0 .689-3.216-7.047-3.446c0 0-4.825.23-6.357 1.225zm-65.254-20.985s-2.987 2.45-.307 4.978c2.451 2.298 6.28 2.144 8.119 2.068c0 0-1.149-.613-2.068-2.068c-.996-1.455-.996-2.45-3.064-3.37c-2.068-.92-2.297-1.149-2.68-1.608zm-3.064-12.638s-4.519 9.344 13.02 11.642c0 0 0-.996.766-2.528c.613-1.455 2.145-4.442.766-6.357c-1.532-1.914 1.149-.919 1.532-3.446c.383-2.451-.306-2.145.919-3.753c0 0-5.438 1.991-7.582 4.442c-2.068 2.375 2.833 4.213 0 6.893c0 0-2.528-.919-3.983-3.523c0 0-3.37 0-5.515-3.37z"></path><path d="M493.286 339.275s3.677-.613 13.02 2.91c9.345 3.447 13.25 2.604 14.63 2.527c0 0-5.285 2.758-13.404-.842c-7.2-3.217-7.659-1.991-14.246-4.595z"></path><path fill="#ffc221" d="M551.801 337.207s2.068-.077 3.37.46c0 0 .766-.69 2.757-.92c0 0-1.302-1.225-6.127.46zm-6.433-5.208s2.144-.077 2.833-1.15c0 0-1.148-1.301-2.757-1.99c0 0 .307 1.531 0 3.14zm-71.689-23.82s-.46-1.072 1.839-1.379l31.248-4.518s1.532 0 1.762.995c.23 1.15-.153 1.915-7.2 2.758c-6.97.765-25.58 3.14-25.58 3.14s-1.915.306-2.069-.996z"></path><path fill="#ffc221" d="M502.018 306.877s0 4.136 4.212 4.749c4.06.612 5.438-.23 6.51-2.375c.307-.612 1.532-4.901-.23-5.208c-.765-.153-1.99 0-2.91.307c-1.379.612-2.68 1.302-2.298 1.99c1.073 1.533 1.226 1.916.92 1.992c-1.073.307-1.762-.612-1.992-1.225c-.23-.766.536-1.226-2.144-.766c-1.15.076-2.068.076-2.068.536z"></path><path fill="#ffc221" d="M519.48 303.737c2.068.23 1.915 4.748-.612 6.816c-2.758 2.221-5.362 1.379-5.362 1.379c-1.455-.536-1.225-.383-.153-1.991c.996-1.532 1.532-3.6.92-5.055c-.154-.46.305-.843.995-.996c0 0 1.991-.383 4.212-.153z"></path><path fill="#ffc221" d="M521.318 304.12s1.532 1.915-.383 5.438c0 0-.842 1.072 1.073.919c1.838-.153 6.127-2.145 5.667-4.749c0 0-.153-.613-1.302-.613c-1.072.077-.153-.536.307-.765c.46 0 1.914-.613-1.838-3.064c0 0-.613-.536-1.38-.306c-.535.23-2.527.995-2.527 2.22c0 .46.383.92.383.92z"></path><path fill="#ffc221" d="M525.378 300.903s3.063 2.145 2.987 2.757c0 .613-.307 1.532.536 1.379c.766 0 3.982-.766 3.063-2.834c-.842-2.144-1.761-2.91-3.216-3.446c-1.532-.537-1.915.153-3.217 1.148c0 0-.92.613-.153.996zm-16.084 2.987s.46-1.532-2.221-2.144c0 0 1.148-.996 3.446-.46c2.221.46 1.992 1.991 1.992 2.144c0 0-1.762 0-3.217.46zm5.82-.383s3.064-.536 4.443-.383c0 0-1.532-3.37-5.668-2.298c0 0 1.532 1.762 1.226 2.681zm5.285-.766s0-1.149 2.604-2.144c0 0-1.225-1.226-3.063-1.073c-1.992.077-2.451.766-2.451.766s2.298.843 2.91 2.375zm.996-3.676s1.685.46 2.68 1.302c0 0 1.532-1.685 2.834-1.991c0 0-2.527-1.38-5.514.765z"></path><path fill="#5a3719" d="M435.767 290.87s7.2-6.127 11.26-5.362c3.982.766 1.99.23 6.356-.46c4.442-.688 8.961-1.148 10.8-.918c0 0-5.362-3.83-14.86-3.753c0 0-6.663 2.298-11.335 5.361c0 0-8.884-4.902-18.075-1.991c0 0 9.957 3.676 15.854 7.123z"></path><path fill="#ffc221" d="m512.204 301.44l1.226-.23s1.991 2.527.536 2.527c-1.15 0-.766-.307-.92-1.072a2.298 2.298 0 0 0-.842-1.226zm-9.037.152s-.766.92.612.766c1.685-.306 1.379 0 3.14-1.225c0 0 1.15-1.15 3.217-.46c0 0 1.762.613 3.14-.076c1.456-.766 1.762-.69 2.528-.613c.766.077.766.23 1.685-.536c1.072-.766 2.834-.153 3.906-1.072c1.149-.92 2.527-.154 0-1.915c0 0-.536-.536-.46-.996c0 0 .996.306 1.762.996s1.991.46 2.221.306c0 0 .153-2.221 2.298-4.289c2.298-2.068 2.298-2.221.995-2.221s-3.523-.536-4.289 0s-7.199 4.825-11.029 5.514c-3.829.766-7.276 1.839-9.726 5.821zm-101.252-23.36s11.641 2.987 14.245 4.213c0 0 .613-1.915-4.672-3.447c0 0 12.867-.383 26.424 5.821c0 0 6.587-5.668 27.725-3.906c0 0 0-1.838.154-3.293c0 0-14.782-.46-28.415-8.732c0 0-12.255 6.051-35.461 9.344zm64.718 5.591c-.766-11.871 3.753-13.02 3.753-13.02s2.145.077 4.442.46c0 0-3.6 4.289-2.604 12.79c0 0 .383 1.379-2.68 1.379s-2.91-1.532-2.91-1.532z"></path><path fill="#5a3719" d="M469.773 291.712s-2.297-2.297-2.45-4.902c0 0-.077-.612 2.144-.612c2.298.076 2.527-.153 3.064 1.149c.536 1.225 1.99 3.906 2.297 4.212z"></path><path fill="#ffc221" d="M474.522 285.738a28.338 28.338 0 0 1-.23-4.519c.153-6.586 1.226-6.05 1.685-5.208h2.298s-1.685-7.429-3.677-3.063a19.07 19.07 0 0 0-1.531 10.493c.153 1.99.383 3.216.612 3.906z"></path><path fill="#5a3719" d="M500.18 285.738s4.365.766-2.298 2.298c0 0 .306 8.118 8.195 2.45c0 0 4.749-2.986 7.965-4.212c0 0 1.609-.536 1.456-1.761c0 0 .153-1.532-1.532-1.15c0 0-1.379 0-2.298-.305c0 0-.919-1.15-1.532-.766c-.612.46-2.144.23-.919 1.685c1.149 1.378 1.532.995 2.068.612s3.064-1.378.766.69s-4.136-1.15-4.902-1.762zm-21.982.996h-1.915s-1.072 1.532-1.761-.996l-.766 1.609s2.298 8.73 4.442-.613z"></path><path fill="#ffc221" d="M475.441 276.624s-.996 5.744.306 9.19l21.063.46s-.23-4.059 0-9.65h-2.91s-.46 4.595 0 7.43h-.537s-.383-3.907 0-7.43h-2.45s-.384 4.289-.077 7.506h-.46s-.383-3.753 0-7.506h-2.374s-.46 3.83 0 7.43h-.613s-.46-3.83 0-7.43h-2.68s-.613 3.6 0 7.506h-.537s-.612-3.677 0-7.506h-2.68s-.613 4.136 0 7.506h-.613s-.383-3.983.153-7.506h-2.527s-.69 3.447-.077 7.506h-.613s-.383-3.064.153-7.506h-2.527zm22.288 10.416s-.536-10.263 1.378-13.02c1.992-2.604 2.451-2.068 5.821 0c3.37 2.221 7.66 4.519 8.425 4.749c.69.306 1.685.536 1.685 2.45c0 1.839.306 2.375-2.604 0c-.383-.306-1.762-1.531-2.757-1.838c-2.604-.842.612.536 1.531 1.915c.766 1.072 1.456.996-.612 1.532a219.047 219.047 0 0 0-12.867 4.212z"></path><path d="M505.081 279.611s-1.531-1.838.46-2.298c1.915-.46 2.068 3.064 2.45 5.132c.307 2.144-2.45-2.145-2.833-2.757zm-2.757 9.038s-2.298.842-.766 1.531c1.455.766 5.591-2.68 4.213-2.45c-1.532.23-3.447.919-3.447.919zm3.064-3.14s1.991-.23 1.531.612c-.306.92-1.072.383-1.378.153c-.307-.153-1.685-.689-.153-.766z"></path><path fill="#ffc221" d="M516.034 282.751s.536 3.983 3.906 4.979c0 0 1.991.46 1.532-1.226c0 0-.307-1.532-.537-2.068c-.306-.613-1.685-.995-1.838-1.072c-.153 0-.306-.46.613-.153c.92.306 1.072.383.996-.307c0-.689-.613-.383-1.456-.766c-.306-.23 0-.46.383-.382c.383.076 1.226.382 1.226-.996c0 0 .153-.766-.843-.766c-1.148-.077-1.072-.613-.766-.69c.383 0 1.532.767 1.915-.612c.307-1.302-1.608-.536-1.378-1.226c.306-.765 1.685.383 1.761-.46c.153-.765 1.226-1.148-.69-1.454c-.842-.077 0-.536.997-.383c1.072.153 1.684-1.15 2.297-1.609c.69-.46 4.213-2.527-.536-1.838c-4.672.69-6.127 2.987-6.357 3.447a13.02 13.02 0 0 0-1.225 7.659z"></path><path fill="#ffc221" d="M527.063 285.815c.612-.077 1.148 0 1.378.46c.766 1.608-.995 1.072-1.991 2.22s-1.072.92-2.451.537c-1.379-.46-1.915-2.528-1.915-2.528c-.153-.69.46-.766 1.15-.613c0 0 2.297.23 3.829 0zm-5.132-.766s.077.383.92.46c.765.076 3.063.306 4.518-.154c0 0 .46-.076.23-.995c0 0 0-.613-1.226-.383c-1.302.23-3.063 0-3.676-.077c-.613-.153-1.072 0-.766 1.072zm-.153-2.91s-.077 1.225 1.149 1.378c1.302.153 2.834.153 3.446 0c.536 0 1.456-.23 1.532-.996c0-.765.23-1.225-1.302-.842s-3.37.077-3.6 0c-.153 0-1.225-.306-1.225.46zm.536-2.528s-.306.613-.23 1.149c0 .536.92.766 2.528.766s3.063-.23 3.217-.766c.076-.613.46-1.226-.766-.996c-1.302.153-2.91.23-3.6 0c-.613-.306-1.072-.383-1.149-.153z"></path><path fill="#5a3719" d="M582.13 285.968s0 1.072.843 2.221l-45.188-1.302s.613-.383.766-2.144z"></path><path fill="#ffc221" d="M522.697 277.773s-.383 1.149.383 1.378c.766.23 2.221.46 4.06.154c0 0 .918 0 1.225-.92c.383-.995.306-.459-2.298-.919c0 0-.766-.306 1.532-.306c0 0 1.378 0 1.532-.153c.23-.23 1.99-1.685-.307-1.532c-2.297 0-1.149-.46 0-.46c1.226 0 1.532.307 1.915-.076s0-.153-.613-.766s-.153-.46.307-.076c.46.306.765.46 1.225 0c.536-.46-.383-1.15 0-1.073c.383.077.613.843 2.068.153c1.532-.765 3.523-.383 4.06 0c.535.46 2.067.996 3.063 0c.919-.919-1.149-1.761-.307-1.838c.92-.153 1.532.153 1.839-.536c.383-.766-1.379-1.378.306-1.838c1.608-.46.23-5.055-.306-5.438c0 0-1.839 1.072-3.83 4.29c-2.068 3.293-3.217 5.207-5.974 4.212c-3.83-1.532-5.897.612-6.51.995c-.92.536 1.991.766.23.843c-1.685 0-1.685.23-1.838.46c-.154.23 0 .459.306.535c.306 0 .919.613-.077.613c-1.072 0-1.838-.23-1.531.92c0 0 0 .229.612.306c.613 0 .843.765-.306.765c-.766 0-.766.23-.766.307zm4.136 11.335s-.766.536.306.613c1.15 0 1.685.306 2.068-.306s1.838-.383.843-1.226c-.996-.766-1.685-.306-3.217.92z"></path><path fill="#ffc221" d="M531.505 275.475s3.83-3.523 6.893-1.149c3.217 2.451 3.447 2.758 3.523 2.834c0 0 .383.306-.46 1.072c-.842.766 0 .766.92.23c.919-.46.995 0 1.455.536c.46.46 1.072.766-.383.766h-4.596s-2.067.23-.995-.69c.995-.842.842-1.837.306-1.914c-.536-.076 0 .536-.306.92c-.383.382-1.072.765-1.838.765s-1.379.536-.23.92c1.149.459-.153.765-.766.765s-3.523.153-.536.536s-.306.307 1.915 1.532c2.45 1.379.689 4.289-.23 4.595c0 0-.996.537.23.383c1.302-.153 1.99-.306 1.072.383c-.843.69-2.68 2.91-5.132 1.226c0 0-1.149-.536.843-.69c2.068-.076-1.609-.536-2.298-.919c-.536-.383-2.91-2.757-1.455-2.527c1.532.306.996-.536.077-.843c-.843-.306-.996-1.608 0-1.378c.919.306 2.067.842 2.91.766c.766 0 .536-.307-1.149-.766c-1.685-.613-2.374-.69-1.991-2.068c.383-1.455 2.297.536 1.838-.536c-.46-1.073-2.068-.536-1.226-1.915s1.073-.766 1.456-.613c.383.153.995 0-.077-.766c-.766-.536 0-1.302.23-1.455z"></path><path d="M534.186 276.47s0-.459.765-.382c.613 0 .46-.23.613-.383c.23 0 1.915.536.306 1.072c-.536.23-1.531.077-1.608-.306z"></path><path fill="#ffc221" d="M537.862 280.453s-1.302.69-.153 1.992c.995 1.149.995 1.532.919 2.298c-.077.765 43.503 1.225 43.503 1.225s-.077-2.834 1.761-4.442l-46.03-1.073z"></path><path fill="#5a3719" d="M582.82 285.202s.23-2.374 1.532-3.14c.766-.46 1.685-.23 2.068 1.685c.613 2.68-1.685 5.055-2.757 3.983c-.996-.996-.766-2.528-.766-2.528z"></path><path fill="#7b3c20" d="M532.883 295.389s2.91-2.528 3.37-3.6c0 0 7.813 5.59 7.353.46c0 0 0-1.38.23-2.681c0 0 2.834.306 3.293-1.992l-7.352-.23s-.766-.153-1.915 1.073c-1.072 1.225-3.447 2.527-5.591 1.378c0 0-.92-.765-1.838-.076c-.996.613-.996.766-.23 1.532s2.374 2.91 2.68 4.136zm16.85-15.395l-4.289-.153s-1.532-2.221-4.595-4.596c0 0-.92-.46.766-1.838c1.761-1.378 2.297-2.834 2.297-3.523c.077-.613 0-1.685.613-.919s5.055 4.825 5.744 3.676c.613-1.225.766-1.761.766-2.144c.153-.383.307-1.455.92-.307c.689 1.15 1.072.843 1.148 3.83c0 0 .077 3.064.536 4.06c0 0-5.59-1.762-3.83 1.914zm-18.611-9.19s3.293 1.914 4.902-.614c1.531-2.45 2.68-2.833 1.455-5.284c-1.226-2.298 0-3.447.919-4.443c.996-.995 1.762-.765 1.838-4.595c.153-3.83 2.757-5.055 3.983-6.28c1.149-1.15 4.136-2.91-.383-3.677c-4.442-.766-13.403-3.063-15.701-6.51c-2.298-3.523-3.37-1.455-3.37-1.302c0 .153-.766 2.68 1.532 7.276s4.212 7.583 6.51 9.038c2.221 1.532 4.212 2.298 3.063 5.361s-3.063 8.578-4.748 11.106z"></path><path fill="#5a3719" d="M543.223 261.076s.536 7.889 6.28 10.723c0 0 1.303-3.064.766-6.127c0 0 1.915.153 2.451.995c0 0 0-2.297-2.604-3.14c-2.757-.766-1.455-5.974-.46-6.51c.92-.613.613-1.685 0-2.604c-.689-.92-.765-2.298 1.456-1.685c2.298.536 1.915-.613.536-1.762c-1.379-1.072-1.302-2.45.613-2.45s5.131-1.915 3.217-2.451c-1.915-.613-2.528-1.226 0-1.992c2.68-.766 3.982-1.685 1.99-1.915c-1.99-.23-3.293-.919-1.378-1.225c1.915-.383-.306-2.298-2.527-2.374c-2.298-.153-7.047.766-3.294-2.298c3.83-2.987-5.36-.766-1.608-2.757c3.83-1.992-1.302-1.149-1.991-1.149c-.69 0-.69 0-.383-.996c.23-.995-.536-1.532-1.685-.842c-1.073.613-1.073.613-.996-.766c0-1.455-1.302-.383-2.144 0c-.843.306-2.91 1.915-3.83 1.072c-.766-.919-1.225-1.761-3.83-.23c-2.604 1.532-1.99.23-1.914-.46c0-.765.995-3.446-2.528-.535s-.689-3.064-3.446-1.073c-2.757 2.068-3.064 2.451-3.523 1.532c-.46-.919-.996-1.685-4.06.307c-3.063 1.914-.766-1.226-.383-1.915c.46-.69 1.762-5.132-.919-1.609c0 0-1.302 2.375-4.212-1.914c0 0-3.064 4.289-3.906 2.374c-.766-1.915-1.532-2.068-2.604-.842c-.996 1.225-.23-.077-.69-1.15c-.46-.995-.689-2.91-5.82.767c-5.132 3.83 1.761 1.072-2.145 2.757s-13.403 7.046-4.749 5.82c8.732-1.225-4.212 3.37-1.225 4.213c3.064.843 2.068 3.523 13.403.383c11.259-3.064 9.42-.46 15.242-2.987c5.744-2.45-1.379.843 6.357.766c7.735-.23 1.302 0 2.834 1.532c1.531 1.608 8.041 5.361 14.092 6.05c6.127.613 7.66-1.685 5.898.996c-1.762 2.604-2.375 3.6-3.447 4.595c-.996.843-3.906 2.987-3.983 6.587c0 3.677-4.748 4.29-3.063 8.348l4.212-4.059z"></path><path fill="#5a3719" d="M553.256 269.884s-1.378-.996-1.378-2.757c0 0 .995.153 1.378.766c0 0 3.524-3.906-.765-5.362c-4.136-1.455-2.068-5.284-.613-5.284s1.685-.383.46-1.992c-1.226-1.531-1.073-1.685 1.301-2.068c2.298-.383 2.068-.919.996-1.531a7.659 7.659 0 0 1-1.915-1.532s6.74-2.91 4.596-4.29c-2.221-1.301 0-.995 1.914-2.373c1.992-1.38 2.298-1.685 2.528-2.222c0 0-1.915.23-3.37 0c0 0 1.685-.919 0-2.297s-2.298-2.604-5.055-1.992c-2.68.69-1.762-.23-.766-1.302c1.072-1.149.613-1.761-1.302-2.068c0 0 .23-1.148 1.685-2.527c0 0-3.676.23-4.902-.383c0 0 1.532-.996 1.532-2.221c0 0-1.991.69-4.519.46c0 0 1.532-1.303 1.532-2.451c0 0-4.442.995-6.433 2.527c0 0-.46-.077-.766-.536c-.383-.46-.613-.996-5.515.536c0 0 .536-2.145 1.762-3.064c1.149-.765.995-2.527-6.587 2.222c0 0-.996-.613-1.838-2.91c0 0-1.685 2.297-2.91 3.063c0 0-1.073.46-.92-.996c.153-1.532-.766-.46-1.531 0c-.766.383-1.303 1.455-.92-1.532s-1.072-3.6-1.072-3.6s-2.298 3.37-3.676 3.753c0 0-2.451-2.45-3.37-4.059c-.843-1.532-.843-2.144-1.762.613c-.842 2.757-1.914 2.987-1.914 2.987s-1.532-1.302-1.685-1.991c0 0-.23.765-.766 1.072c0 0-1.302-1.532-1.226-3.753c0 0-8.118 4.519-9.19 7.2c0 0-7.66-.46-10.8.153c0 0 .766-2.451 2.757-3.753c0 0-1.99-.23-2.067-2.298c0 0 1.608.23 2.604 0c.995-.23-1.379-3.14 1.148-3.217c2.528-.076 4.136 1.226 3.064-2.144c-1.149-3.37-.69-3.37-.69-3.37s4.443 2.604 5.132 1.914c.766-.612-.536-1.99 3.37-1.378c3.906.69 2.834-1.532 4.366-1.685c1.532-.077 2.298.995 1.379-6.127s4.748 3.523.842-7.2c0 0-.92-3.293-3.293-4.672c0 0-.537 2.298-3.14.307c-2.681-2.068-7.813-2.834-5.668-4.443c2.22-1.685 3.217-3.83 2.604-5.208c0 0-2.604 2.68-7.046.766c-3.524-1.532-4.29 1.226-7.89.46c0 0 0-.92 3.064-3.37c3.064-2.375-1.761.766-3.6 1.225c-1.914.46-2.45.077 1.532-3.064c3.983-3.063 11.948-8.501 10.876-13.02c0 0 1.838 2.374 6.817.613c4.902-1.685 8.578-2.298 10.033-4.902c1.532-2.527 5.361-5.055 6.357-5.668c1.072-.536 2.374-.919.842 1.532c-1.531 2.375-3.982 6.51-10.799 9.344c-6.816 2.834-9.42 4.825-10.646 6.357c-1.225 1.455-7.429 4.749-3.37 4.213c3.983-.613 10.953 0 7.66-.92c-3.217-.918-6.894.613-3.907-2.144c2.987-2.68 3.523-3.6 7.889-5.438c4.366-1.838 9.19-6.05 8.731-1.532c-.536 4.366-8.654 9.115-10.646 10.57c-1.991 1.455-1.225 1.225-1.225 1.761c0 .613-.307 1.839-1.149 2.298c-.766.613-.536 1.226-.306 2.451c.23 1.302-.23 1.762.383 1.991c.612.153 1.225.23 1.378 1.15c.23.918.69.995 1.838.918c1.15-.153 1.915 0 1.992.69c.076.689 1.225 1.608 1.302-.46c.153-2.145.919-2.527-1.226-1.532c-2.144.92-2.604.613-2.527-.383c0-.995-.23-.766-1.072-.842c-.92-.077-1.226-1.379.382-2.221c1.532-.766 1.532 0 3.524-1.609c1.991-1.685 1.991-2.068 2.297-2.91c.307-.766-2.833 2.298-4.365 2.987c-1.532.69-1.073-.536-.766-2.221c.23-1.685 3.982-3.983 5.667-3.983c1.762 0 5.592.996 3.983 3.37c-1.685 2.298-6.433 5.132-4.442 5.361c2.068.154 2.374-.612 3.6.383c1.149 1.073 0 3.217-.46 4.366a8.425 8.425 0 0 1-2.221 2.757s-2.145-3.83-2.068-.766c0 3.064-.46 4.136 0 4.213c.46.153 2.834 1.761 3.6 1.761s-4.136 2.298-2.068 2.451c2.068.153 5.361-.919 6.433-3.063c0 0-4.212-.996-5.82-2.528c0 0 4.825-1.149 3.446-5.82c0 0 4.902 1.301 2.757 3.522c-2.068 2.145-3.37 1.839-1.531 2.451c1.838.613 2.68 1.15 2.68 1.15s1.302.612.536 1.608c-.766 1.072-.766 2.604-.076 2.527c.536 0 2.604-.996.919-1.991c-1.762-1.073 1.915-.843.383-1.762s-1.992-1.072-2.374-1.532c-.46-.383 19.683-12.254 9.497-7.812c0 0 2.144-4.595 5.131-4.595c2.91 0 3.14 2.297 1.532 4.136c-1.762 1.761-2.834 4.595-6.74 5.208c0 0 5.591 2.757-1.072 7.276c0 0-1.455.689-.92 1.149c.537.536 4.52-1.685 5.056-2.987c.536-1.226 1.378-2.298 2.91-2.987c1.532-.766 8.961-5.821 11.182-9.65c2.298-3.83 2.834-3.907 7.2-7.43s3.6-2.834 4.212-3.676c.536-.843.766-2.298 2.757-3.37c1.992-1.15 9.804-5.438 12.255-7.2c2.45-1.761 7.429-5.055 9.574-7.812c2.144-2.68 7.965-6.204 9.42-5.591c1.455.69-.153 2.757-3.523 5.361c-3.447 2.528-11.871 9.344-13.25 10.417a44.729 44.729 0 0 1-11.182 6.586c-2.68.383-2.375 1.302-3.983 3.064s-5.361 5.361-6.587 6.357c-1.225 1.072-4.212 3.063-4.365 4.519c-.153 1.455.536 1.608-1.838 3.83c-2.375 2.297-9.344 7.352-11.948 8.118c0 0 4.518 1.531 1.838 4.595c-2.681 2.987-2.528 2.528-2.681 2.757c0 0 6.74-1.072 1.991 4.29c0 0-.995 1.531 1.15-.077c2.297-1.762 1.378-4.06 1.071-4.366c0 0 3.6-2.298 7.813-2.298c4.136-.076 3.982-.383.23-1.455c0 0 2.68-3.217 4.901-1.608c2.298 1.532 1.532 2.527-.766 3.83c-2.45 1.225-5.897 1.684-8.501 3.14c0 0 4.902.995 7.582-1.073c2.604-1.991 2.757-.995 3.064-.612c.383.382.69.995-.46 2.68c-1.225 1.685-1.302 1.762-1.225 2.145c0 .383-.153 1.532-2.528 1.914c-2.297.383-3.446 1.38-2.604 2.528c.766 1.149.766 3.906-1.225 3.676c-1.991-.306-1.532-1.914-2.298-2.527c-.766-.613-1.838-1.532-5.361.23c-3.6 1.838-3.83-.307-3.676-1.532c0 0-2.298 2.068-4.213.23c-1.915-1.915-.23-2.605.92-3.524c1.071-.919 5.59-2.91 2.91-2.527c-2.758.306-6.74.46-7.66-1.532c-.995-2.144 1.992-1.915 2.451-1.685c.46.153 2.298 1.685 2.451-.306c0-2.068 3.064-2.298 1.992-2.68c-.996-.384-2.451.918-2.834 1.378c0 0-2.068-2.91-5.438-1.992c-3.37.996 1.072.613 1.915.766c.919.153.383 1.838-2.604 4.596c-3.064 2.68-1.685 1.838.536 1.838c2.297 0 7.812 0 4.595 2.604c-3.217 2.68-4.519 3.983-6.127 3.523c-1.685-.46.153-1.532.92-2.068c.765-.46 1.148-1.225-.46-.613c-1.532.537-2.068.69-3.37-1.531c-1.226-2.298-.766-1.532-.154-3.064c.537-1.455 1.762-2.987.307-2.45c-1.532.535-1.379.612-1.226-1.073c.077-1.685-1.685-2.068-1.685-2.068s.766 1.685.077 2.757c-.613 1.072-.69 1.455.383 1.685c1.072.307 2.068 1.226.613 2.221c-1.456.92-1.226.766-.383 1.379c.919.613 2.297 1.302.842 2.68c-1.378 1.38-.23.92.46.92c.766 0 2.297.612 2.297 1.991c0 1.302-.076 1.608 2.221.383c2.298-1.302 6.74-1.149 6.74.613c-.076 1.761-.612 2.297 1.839.766c2.374-1.532 3.446 1.378 5.131 0c1.608-1.456 2.68-2.834 4.595-.383c1.915 2.374 1.303 3.063-.995 4.825c-2.298 1.685 1.149.383 2.91-.536s6.74-1.532 9.574-.23c2.834 1.225 3.676.996 5.744.076c2.145-.842 3.217-1.072 6.357 1.073c3.217 2.144 5.668 2.527 7.353 2.45c0 0-3.523 1.38-7.506 1.609c-3.983.306-5.974.996-6.74 1.608c0 0 2.374 1.532 2.834 3.217c0 0 2.604-.306 3.83.153c0 0-.613 1.915.995 2.91c1.609.996 2.68 1.38 1.532 2.758c-1.226 1.379 1.838.766.077 2.68c-1.685 1.992-2.145 2.911-2.222 4.52c0 1.531.383 1.761-1.148 1.914c-1.532.153.23 1.915-.46 3.983c-.69 1.991-4.978 1.761-4.825 7.276c0 0 1.225-2.68 3.83-5.055c2.527-2.298 2.603-2.527 2.527-3.983c0-1.378-.153-1.072 1.225-2.144c1.302-1.072-.612-2.068.766-3.6c1.302-1.532.153-1.225 1.762-2.757c1.532-1.532-1.455-1.685.23-3.294c1.531-1.531-3.983-3.446-2.298-4.442c1.532-.995 4.289-2.45-4.979-2.297c0 0 2.222-3.677 10.034-2.91c0 0-1.992 1.53-2.221 2.91c0 0 .919.46 1.531.612c0 0-.383 1.073-1.838 2.298c0 0 4.136 2.298 4.825 3.753c0 0-2.527.766-3.216 1.838c0 0 1.148 1.302 1.531 2.91c0 0-2.833-.306-3.216 1.762c-.383 2.145-1.226.69-1.226 1.915s.077 1.761-.919 1.991c-.996.153-.153 1.226 0 1.915c.153.69.536 2.298.383 2.757c0 0-1.455 0-2.144.23c0 0 .46 3.063-1.226 3.446c-1.685.46.92 1.073-.919 1.379c-1.762.306-1.532.46-3.753 4.442c0 0 1.915-1.072 3.83-2.374c1.991-1.302-.154-.92 3.063-4.06c3.217-3.216 2.68-3.446 2.375-5.054c-.23-1.609-.307-2.91.842-4.442c1.225-1.532 1.532-3.294 5.744-3.064c0 0-1.225-2.757-2.757-3.447c0 0 1.991-1.378 4.06-1.531c0 0-1.839-2.298-5.592-4.366c0 0 3.064-2.68 3.83-3.906c0 0-1.455.23-2.604 0c0 0 .536-1.302 3.37-3.14c0 0 1.531 1.455 1.378 2.91c0 0 4.825-2.68 7.506-2.374c0 0 1.379 3.37-5.285 9.88c0 0 4.136.383 5.898.153c0 0-.996 3.14-5.974 4.978c-4.979 1.915 1.072 4.136-4.06 3.753c-5.054-.383-3.523 1.302-3.37 3.906c.154 2.605.307 5.285.23 5.974c0 0-4.059-1.302-3.982 2.605c.076 3.982-2.145 4.825-2.528 5.131c0 0-1.225-.996-2.987-1.685c0 0-2.527 4.825-6.587 7.66z"></path><path fill="#7b3c20" d="M547.436 220.484s1.378-.23 3.752 1.225c2.298 1.532 4.596-1.532 2.068-2.298c-2.68-.766 0-1.761 2.298.153c2.451 1.915 3.37.92 4.213.307c.842-.69 1.914-1.072.306-2.145c-1.608-1.149 1.072-.612 2.298.23c1.225.766.766 1.532.612 1.762c-.23.23-.306 2.833 2.068.46c2.375-2.452 3.6-4.826 3.523-5.975c0 0 1.302.766 1.532 2.298c.153 1.532 1.992-.766 2.604-1.609c.613-.765 1.609-2.91 1.532-4.442c0 0 1.532 2.528 3.983 0c2.374-2.45 1.378-.919 4.212-1.685c2.91-.766 6.51-2.834 8.425-5.208c1.991-2.45 2.145-.766 4.672-1.378s7.66-4.136 8.119-6.128c.46-1.838.383-3.063-.307-2.374c-.766.613-.46.077-1.532-.536c-1.148-.766-2.757.842-2.757.842s1.609 1.226.383 1.762c-1.225.536-2.298 2.298-4.672 1.532c-2.298-.613-4.748 2.22-4.748 2.22s2.068 1.61-.69 2.682c-2.68 1.072-2.297 1.378-3.906.23c0 0-2.91 3.676-4.595 4.442c0 0-.766 0-1.226-.766c0 0-1.914 2.144-2.833 2.527c0 0-1.226-1.072-2.298-1.532c0 0-2.298 2.91-4.213 3.753c0 0-.536-1.072-1.761-1.761c0 0-.613 3.676-4.596 5.82c0 0 .23-.919-1.761-2.297c0 0-4.978 4.289-6.893 4.748c-1.992.383-.23-.919 0-1.531c.306-.537 1.532-2.298-.843-3.064s-1.991.536-2.527.766c-.536.23-.536-.46-2.221-.23c-1.532.23-1.302.92-1.992 1.226c-.766.23-3.523-.46-3.37 1.378c.154 1.838 1.456 3.14-.995 4.213c-2.451 1.072.919.842 4.136.383z"></path><path fill="#5a3719" d="M557.469 215.275s.613-2.45-1.455-3.523c0 0 13.173-2.068 3.216-7.123c0 0 11.872-2.374 9.038-6.127c-2.757-3.83-5.514-3.063-5.897-2.91c-.383 0 2.527-2.221 3.293-1.915c.766.306 10.263 3.906 7.812.766c-2.374-3.064-2.22-2.91-2.604-3.83c0 0 3.14 0 7.889 4.596c0 0 .996-.996.919-2.91c0 0 3.37.995 4.442 1.99c0 0 .536-1.148.307-1.837c0 0 2.987 1.531 3.982 3.216c0 0 1.302-1.148 1.532-2.527c0 0 2.91 1.225 3.676 2.144c0 0 .996-1.302.613-3.063c0 0 4.825 1.378 5.515-1.532c0 0 4.825.996 1.685 2.91c-4.06 2.451-.383-.612-4.596 2.298c-3.217 2.298-5.055 4.902-6.587 4.366c-1.148-.46-2.527 2.91-4.059 1.302c-1.532-1.685-1.532-.92-2.68.766c-1.073 1.685-2.834 3.446-2.834 3.446s-.766-.46-1.532-1.149c0 0-.843 1.532-2.068 2.758c0 0-.996-1.302-2.528-2.068c0 0-2.374 2.757-3.83 3.753c0 0-1.454-1.379-2.91-1.839c0 0-.23 3.753-3.14 5.668c0 0-.612-1.225-2.527-1.991c0 0-1.455 2.297-4.596 4.289z"></path><path fill="#5a3719" d="M550.576 209.455s-1.609 1.225-.613 2.527c1.072 1.379 1.149-.23 2.45-.306c1.303-.154 17.463-2.91 2.835-7.276c0 0 .612-.613 3.063-.766c2.604-.307 11.795-2.758 7.506-6.05c-4.289-3.218-7.889 1.148-4.289-2.758c2.91-3.14.613-4.672.613-4.672s-8.502 5.668-10.416 6.74c-1.839.995-4.596 3.063-1.379 4.06c3.217.995 5.361-3.447 5.668-2.452c.306.996-6.434 4.749-5.438 6.434c.919 1.761.766 3.217 2.374 2.834c1.685-.307 6.127.842 2.528.765c-3.677-.153-4.902.92-4.902.92z"></path><path d="M556.397 201.336s-1.532 1.072.46.536s5.897-1.378 5.207-2.374c-.766-1.072-3.37.153-5.667 1.838z"></path><path fill="#7b3c20" d="M582.36 184.486s7.506-.23 10.57 1.915c3.064 2.068 4.595 3.447 5.515 3.753c0 0-.154 2.834-4.979.766c0 0 .307 1.378-.23 2.757c0 0-1.761-1.225-3.83-1.685c0 0-.382 1.072-.995 1.685c0 0-2.144-2.144-4.595-2.834c0 0-.46 1.072-.843 1.532c0 0-2.604-1.532-4.595-1.532c0 0 .383 1.609 0 2.298c0 0-5.361-4.366-10.263-3.83c0 0 2.298 3.447 3.83 5.132c0 0-9.804-.766-8.12-6.05c1.533-5.285-.152-3.983 6.281-3.907h12.255z"></path><path fill="#5a3719" d="M536.33 199.115s-1.149.919 0 1.685c1.072.766 4.978-1.991 5.514-2.374c.537-.46 1.915-.383 0 1.072s-3.829 3.063-5.131 4.595c0 0 6.51-1.761 10.723-5.438c4.289-3.676-.154-1.302 7.046-4.748c7.2-3.523 11.029-9.114 7.123-8.502c-3.83.613-7.353 5.055-10.417 6.74c-2.987 1.685-4.672 1.915-4.212.92c.46-.996 2.68-.613 6.893-3.907c4.136-3.37 3.217-3.063 3.217-4.289c0-1.149-1.532-4.06 4.672-7.352c6.28-3.294 25.658-14.553 27.343-18.535c0 0-5.668.612-13.174 6.127a69.697 69.697 0 0 1-13.403 8.808c-2.068.766-1.838.23-3.14 1.838c-1.379 1.608-8.732 8.731-10.11 9.803c-1.302.996-1.762 1.685-1.838 3.83c0 .996-8.425 7.353-11.03 9.727z"></path><path fill="#5a3719" d="M561.988 184.333s-1.532.613-2.91 0c-1.38-.766-.92-3.676 2.45-5.514a49.937 49.937 0 0 1 12.56-4.826s-.459 3.83-10.109 7.123c0 0 .613 1.992-1.991 3.217z"></path><path fill="#aa5323" d="M565.358 181.806s.306.919 0 1.761c0 0 17.922 1.762 27.19-9.19c0 0-12.715 1.225-17.77 4.288c0 0 3.217-3.982 12.714-7.276c9.497-3.293 13.403-7.429 14.246-9.65c0 0-12.101 4.212-17.769 4.212c0 0-1.149 0-2.298.537c-1.072.689-8.731 6.203-10.722 7.199c0 0 4.289-.383 5.82-1.762c0 0-3.063 8.042-11.411 9.88z"></path><path fill="#5a3719" d="M531.045 191.992s-2.297 1.685-1.378 2.45c.995.843 2.604.997 6.127-1.914c3.523-2.987 12.025-10.263 6.663-10.57c0 0-6.893-.382-6.663 3.83c.23 4.213-4.442 5.974-4.749 6.204zm-15.93-2.45s4.595 2.68 2.833 4.824c0 0 13.94-11.795 9.957-14.399c-3.83-2.527-6.893 2.298-5.974 2.758c.92.536 2.987-.383 2.298.536c-.766.919-8.195 5.897-9.114 6.28zm-3.6-3.83s3.063.919 3.217 2.297c.076 1.226 9.19-6.433 6.816-9.727c-1.149-1.455-6.127-2.068-6.433.843c-.23 2.91 4.595-.306 2.91 1.761c-2.145 2.758-5.82 4.366-6.51 4.826zm32.627-6.434s-1.915 1.379-.153 2.298c1.762.766 2.834-.536 3.753-1.302c.842-.766 5.208-3.983 6.127-5.974c1.072-2.068 2.528-2.68 4.136-3.677c1.532-1.072 12.637-6.586 19.454-12.714c6.816-6.127 3.983-4.518 11.029-8.424s11.718-7.506 13.173-11.795c0 0-3.293 1.072-6.127 2.987c-2.91 1.838-9.42 5.897-10.723 6.51c-1.302.536-3.063.613-4.059 1.608c-.995 1.073-.919 2.298-4.289 5.055c-3.446 2.834-20.985 15.242-23.13 17.003c-2.145 1.762-9.19 8.425-9.19 8.425z"></path><path fill="#aa5323" d="M530.05 183.414s1.914-1.072 5.514-.766c3.6.153 17.846-13.633 21.981-16.39c4.136-2.834 17.08-12.101 18.765-13.786c1.762-1.762 2.068-3.6 3.6-4.596c1.532-.995 2.91-.842 6.357-2.834c3.523-1.991 20.296-12.024 19.3-17.845c0 0-24.968 14.935-30.712 19.837a375.061 375.061 0 0 1-24.662 17.692c-2.834 1.838-5.055 4.902-9.88 8.808c-4.749 3.83-9.497 7.123-10.263 9.88z"></path><path fill="#aa5323" d="M524.765 178.053s4.595-.46 5.285 1.838c0 0 9.88-6.817 12.1-9.574c2.299-2.834-.765-1.225 4.903-4.902a594.338 594.338 0 0 0 27.036-19.147c2.68-2.298 7.812-5.438 11.871-8.195c4.06-2.758 19.914-10.57 18.152-16.927l-14.246 9.497c-2.68 1.762-3.83.766-6.433 2.834c-2.68 2.145-8.578 6.28-9.574 7.66c-1.072 1.225-10.033 8.118-14.399 11.028c-4.365 2.91-14.092 8.578-18.84 12.714c-4.75 4.06-13.787 11.642-15.855 13.174z"></path><path fill="#aa5323" d="M510.443 176.75s2.297 0 3.063.92c0 0 4.29-3.83 8.885 0c0 0 16.85-11.489 18.534-14.323c1.685-2.833 4.443-2.91 10.953-7.659c6.587-4.825 10.722-6.893 15.088-10.186c4.366-3.447 8.042-7.276 11.182-9.267c3.064-2.068 11.03-7.277 9.727-11.719c0 0-6.433 3.6-10.57 8.195c-4.212 4.596-3.829.69-8.118 4.52a82.717 82.717 0 0 1-16.314 11.717c-5.437 2.681-2.144 2.375-6.127 4.902c-3.906 2.528-3.6 2.145-5.055 2.528c-1.531.306-3.676 1.378-5.131 3.063c-1.532 1.685-5.362 3.983-9.574 6.434a106.46 106.46 0 0 0-16.62 10.876z"></path><path fill="#aa5323" d="M515.498 168.02s-.92-1.915.689-3.294c1.608-1.302 4.595-4.825 5.055-7.046c.46-2.298.076-1.838 4.748-3.83a188.182 188.182 0 0 0 38.219-21.598c1.838-1.455 6.433-4.596 8.271-6.127c0 0 .843 2.45-1.148 4.212a222.111 222.111 0 0 1-21.522 14.859c-2.221 1.148-7.66 3.906-9.574 5.514c-1.915 1.608-1.608 2.068-10.186 6.28c-8.578 4.136-8.961 4.596-8.732 4.902c.307.383 4.136-1.302 5.974-2.374c1.839-1.072 8.808-4.29 10.953-5.974c2.068-1.685 5.59-4.29 7.123-5.132c1.531-.766 14.169-8.425 17.845-11.105c3.6-2.68 4.596-3.523 5.361-3.064c.766.46 2.068.46.46 1.992s-6.74 6.127-8.731 7.352c-1.992 1.302-8.119 4.979-9.804 5.821c-1.685.92-2.374 2.527-3.37 3.217c-.919.766-3.753 2.68-7.123 3.446s-3.982 3.37-6.203 4.826c-2.298 1.378-18.076 9.956-18.535 10.34c0 0 .919-.997.23-3.218z"></path><path fill="#aa5323" d="M570.26 132.405s-.843.766-.384 1.225c.613.613 2.834 2.145 5.592-.612a106.46 106.46 0 0 1 12.56-10.034c2.298-1.455 3.523-2.757 3.447-4.672c0 0-11.412 6.051-21.216 14.093zm15.624-.996s1.761-2.91 6.05-5.667c4.29-2.758 10.723-6.74 11.489-7.66c0 0 1.532 1.686-1.762 3.83a311.721 311.721 0 0 0-10.722 7.046c-.766.613-2.068 1.532-5.055 2.451z"></path><path fill="#7b3c20" d="M498.954 163.041s-4.748 2.527-3.063 4.136c1.684 1.532 4.212 1.072 5.36.613c.996-.383 2.988-.92 3.294-.996c.307-.077 4.442-1.302 5.515-3.217c.995-1.915 3.83-4.136 6.05-5.744c2.221-1.532 3.064-3.217 2.68-4.366c0 0-18.687 8.885-19.836 9.574zm-28.338 21.981s3.37-1.991 7.965-.766c0 0-.23-1.072-.919-1.685c0 0 5.591-1.455 6.817-3.906c1.225-2.527 1.531-1.991 2.527-2.68c1.149-.766 8.655-6.817 7.812-8.119c-.919-1.302-1.072-3.063-1.685-3.676c0 0-1.532 2.144-8.96 5.668c-7.277 3.6-15.472 6.28-21.446 14.245c-5.897 8.042-5.285 12.638 1.991 14.706c0 0 5.055-3.217 17.54-2.145c12.407 1.149 16.62 5.82 17.462 6.663c.766.843 3.293 3.906.842 9.115c0 0 2.528 1.072 2.681-1.302c.23-2.375.383-1.839.92-1.532c.612.383 1.301.46.995-1.379c-.23-1.838-1.072-5.897-2.298-7.276c-1.072-1.455.23-.766.92-.536c.765.306 3.37 2.45 1.837-1.532c-1.531-3.83-1.99-1.915-2.068-1.761c0 .23-.306 1.225-3.752-1.379a26.806 26.806 0 0 0-8.808-4.442c-2.298-.613-.69-.613.69-1.073c1.378-.536 3.14-.765 3.829-2.297c0 0-1.38.306-3.83-.613a13.173 13.173 0 0 0-11.488 2.068s1.225-4.595-2.451-4.366c-3.677.23-6.204.154-10.11 3.217c0 0-.23-4.672 3.446-7.123c3.677-2.374 3.217-.919 5.208-1.532c2.068-.612 2.298-2.68 1.38-3.37c0 0 4.824.843 12.866-5.82c0 0-4.365 5.667-9.574 6.816c0 0-.842 3.064-5.667 3.676c-4.749.69-4.596 3.447-4.596 4.136z"></path><path fill="#5a3719" d="M456.906 212.671s2.298-14.092 15.548-15.088c11.488-.919 15.165.536 17.462 1.302s7.966 2.374 5.745 4.213c-2.145 1.761-3.447 1.455-3.447 1.455s2.528-2.834.23-3.294c-2.298-.46-2.45.92-2.757 2.068c-.383 1.226-.46 2.604-1.609 3.523c0 0-1.149-1.302-2.834-.153s-.23 1.226.46.996c.613-.153 1.532-.536 1.302.536c-.153.996-1.072 2.757-3.83 4.213c-2.68 1.378-2.603 1.302-5.82 1.838c-3.294.536-6.28 1.838-10.417 5.361c-4.212 3.6-8.73 2.374-9.65-1.532c-.766-3.446-.383-5.361-.383-5.361z"></path><path d="M471.994 212.212s1.226-2.757-.995-4.06c0 0-6.893 1.226-9.038-.842c0 0 7.583-.46 12.255-2.298c4.595-1.761 3.293-3.063 1.685-3.37c-1.609-.306-4.596.46-4.902 1.915c0 0-.92-1.532.23-2.604c1.225-1.072 3.063-1.225 4.672-.766c1.684.46 3.14 1.226 8.578-1.608c0 0 3.14.766 3.293 2.834c0 2.144-.23 2.987-.536 3.293c-.23.383-.613.996-1.302.92c-.613-.078-1.532-.23-2.298 1.225c-.766 1.531-1.302 2.757-2.68 3.752c0 0 1.531-4.595-2.451-5.667c0 0-3.294 1.915-5.821 2.068c0 0 3.217 2.987-.766 5.208z"></path><path fill="#5a3719" d="M479.27 203.787s-1.531-1.608.46-1.838c1.991-.153 4.595 1.302 4.136 2.604c-.536 1.225-2.91 1.149-4.596-.766z"></path><path fill="#fff" d="M592.624 181.576s-3.677.995-.23 3.293c3.37 2.298 5.055 4.213 7.506 4.825c2.527.69 5.055 1.532 5.055 4.06c0 2.45-.536 3.446-1.915 5.131c-1.379 1.762.766 2.451 2.527 1.532c1.839-.996 3.294-1.532 4.52-2.221c1.148-.69 3.063-.613 1.378.306c-1.838.92-3.677 1.532-1.379 1.532c2.298.077 16.237.383 19.148-.613c2.91-.919 6.74-1.225 7.046-4.978c0 0 .153-1.685 1.225-2.451c1.073-.69 1.839-2.298.23-1.225c-1.532 1.148-2.757 1.685-3.063 1.378c-.307-.383-.46-.612.765-1.149c1.15-.536 1.762 0 2.834-1.531c1.073-1.609.996-1.379.383-1.992c-.536-.612-1.761-.995-1.149-1.761c.613-.766 1.15-3.064-1.378-1.762c-2.528 1.379-7.583 4.825-9.957 5.361c-2.298.537-4.06 1.226-7.2 1.839c-3.063.689-5.054 1.378-8.424 3.216c-3.37 1.838-3.064-1.072-2.528-1.455c0 0 1.302 2.298 4.672-.69c3.37-2.91 2.298-.152 10.646-2.91c8.272-2.68 6.28-3.14 9.497-4.825c3.294-1.685 6.357-1.761 4.06-4.059c-2.298-2.298-2.528-2.45-5.438 0a34.465 34.465 0 0 1-15.93 6.51s18.764-8.042 16.849-9.19a20.756 20.756 0 0 0-5.285-2.528c-1.302-.307-1.685-.613-4.672.766c-3.063 1.302-3.523 1.608-4.365 1.685c-.92.076-3.447.612-7.047 2.45c-3.523 1.839-5.438 2.605-7.888 4.06c0 0 1.684-3.37 9.114-5.591c7.352-2.221 11.105-4.213 10.34-4.596s-2.681-.766-4.06-.46c-1.379.23-.996-.152-5.514 1.686c-4.52 1.761-2.604 1.378-6.204 2.144c-3.677.766-5.132 1.532-6.893 2.298c0 0 .766-.919 3.14-1.838c1.302-.46-1.379-.92 2.144-1.072h.996a32.168 32.168 0 0 0 8.655-3.217c-.766-.153-5.132-.613-9.574 1.532c-4.442 1.991-2.45 1.302-3.983 1.531c-1.531.383-4.901 2.451-5.974 3.37c-1.149.92-2.68 1.532-2.68 1.532z"></path><path fill="#5a3719" d="M482.717 201.796s1.762.536 2.221 1.761c.46 1.226 1.532-.536 1.532-1.072c-.077-.536-1.149-3.064-3.064-1.838c-1.914 1.072-.919 1.072-.689 1.149z"></path><path fill="#7b3c20" d="M477.892 225.998s3.676-1.762 6.893-1.532c0 0-1.302-4.365.919-3.676c2.145.766 1.532.46 1.991.46c0 0 .154-2.911-.46-4.06c0 0 2.299.536 4.52.536c0 0-2.145-4.136.23-7.046c0 0 1.301 2.757 4.212 3.447v-2.375s1.685-.23 3.063.46c1.38.766 2.451-7.583-1.531-9.344c0 0-.996 1.532-4.749 2.298s-3.676 1.531-5.208 4.365s-2.91 2.834-6.127 4.902c-3.064 1.991-4.979 6.127-5.132 6.51c0 0 1.609 1.991 1.379 5.055z"></path><path fill="#999" d="M603.116 177.823c1.303-.23-1.455-.92 2.068-1.072h.996a32.168 32.168 0 0 0 8.655-3.217c-.766-.153-5.132-.613-9.574 1.455s-2.45 1.379-3.983 1.685c-1.531.306-4.901 2.374-5.974 3.293c-1.149.92-2.68 1.532-2.68 1.532s-3.677 1.072-.23 3.37c3.37 2.298 5.055 4.213 7.506 4.825c2.527.69 5.055 1.532 5.055 4.06c-.077 2.45-.536 3.446-1.915 5.131c-1.379 1.762.766 2.451 2.527 1.532c1.839-.996 3.294-1.532 4.52-2.221c1.148-.69 3.063-.613 1.301.306c-1.761.92-3.6 1.532-1.302 1.532c2.298.077 16.237.383 19.148-.613c2.91-.919 6.74-1.225 7.046-4.978c0 0 .153-1.685 1.225-2.451c1.073-.69 1.839-2.298.23-1.225c-1.532 1.148-2.834 1.685-3.063 1.378c-.307-.383-.46-.612.765-1.149c1.15-.536 1.762 0 2.834-1.531c1.073-1.609.996-1.379.383-1.992c-.306-.306-.766-.536-.995-.842c0 0-.843-.766-1.839-.153c-.995.689-5.284 2.45-6.97 2.68c-1.684.153-3.522.92-6.586 2.451s-8.195 4.595-9.038 1.685c0 0-2.22.766-2.68 1.072c-3.447 1.762-3.14-.766-2.528-1.455c0 0-1.838 2.068-1.761.23c.076-1.838 1.225-1.532 3.293-2.145c1.991-.612 5.132-1.914 3.83-2.987c-1.302-1.072-2.681 1.073-4.136 1.762c-1.456.69-4.366 1.225-4.825-.843c-.46-2.144-.46-3.6-4.366-3.83c-3.906-.229-3.83-2.68-2.757-3.752c1.149-1.072 2.068-2.834 5.744-3.523z"></path><path d="M615.6 196.894s6.128-2.757 11.719-4.136c5.668-1.302 1.225.23.306.46c-.995.306-9.727 3.216-11.795 4.212c-2.067.919-1.685.153-.23-.46zm1.38 1.302s6.892-2.298 8.194-1.379c1.302.996.23.536-1.302.766c-1.531.153-5.667.843-6.74.843c-1.148 0-.153-.23-.153-.23zm11.105-2.451s1.302-.23 1.455.306c.077.46-.613.536-1.379.46c-.689-.153-1.302-.536-.076-.766z"></path><path fill="#fff" d="M445.954 255.868s-.23-6.127 2.834-9.19s17.845-18.459 20.143-22.748c0 0 1.915 1.302 1.991 3.753c0 0 2.528-4.29 4.442-5.897c0 0 1.762 1.761 1.532 5.36c0 0 3.523-1.914 9.038-1.914c0 0-2.068 2.374-2.145 3.83c0 0 7.66-.92 11.719-.23c0 0-10.57 5.897-7.66 6.433c3.064.537 6.128 0 6.128 0s-3.37 3.37-8.732 4.06c0 0 6.817-.077 8.196 1.455c0 0-6.664.996-11.948 5.055c0 0-.537-.23-.537-1.762c0 0-.23 1.379-1.761 2.68c-1.532 1.226-5.132 3.984-6.51 5.362c-1.379 1.302-3.83 4.06-6.587 3.906c0 0 .613-2.068-1.379-2.757a5.668 5.668 0 0 0-5.974 1.532s-7.123.153-9.42.46c0 0 1.608-2.605 3.063-2.528c1.532 0 7.506.919 8.042-3.217c.536-4.06-3.83-2.987-2.22-5.361c1.684-2.451 1.301-2.298 1.378-2.604c0 0-1.379.766-2.145 2.91c-.766 2.145-1.378 3.83-4.212 5.974a15.088 15.088 0 0 0-4.825 4.979s-1.302.153-2.451.46z"></path><path fill="#fff" d="M452.847 252.192s.23-.766 2.298-1.15c2.144-.382 2.297-1.378 1.991-1.837c-.306-.383-1.532-.383.46-2.757c0 0 .765.23 1.225.765c.536.613 2.834 5.515-5.974 4.979z"></path><path fill="#999" d="M447.869 247.903c.076 4.059 5.36 2.527 5.36 2.527a21.445 21.445 0 0 0-3.829 3.523c.383-1.991-2.987-2.45-2.987-2.45c.307-1.226.766-2.528 1.456-3.6zm19.377-21.522c.766-.996 1.378-1.838 1.685-2.45c0 0 1.915 1.301 1.991 3.752c0 0 2.528-4.29 4.442-5.897c0 0 1.762 1.761 1.532 5.36c0 0 3.523-1.914 9.038-1.914c0 0-2.068 2.374-2.145 3.83c0 0 7.66-.92 11.719-.23c0 0-10.57 5.897-7.66 6.433c3.064.537 6.128 0 6.128 0s-3.37 3.37-8.732 4.06c0 0 6.817-.077 8.196 1.455c0 0-1.992.306-4.596 1.225c0 0-1.915-1.838-7.659-1.531c0 0 4.442-2.528 7.966-3.37c0 0-1.532-1.992-3.983-.154c0 0-4.825-3.293-.766-6.127c0 0-2.834-.536-4.672.766c0 0 0-2.298 2.068-3.293c0 0-5.361-.92-6.663 3.063c0 0-1.073-1.608-.537-3.446c0 0-3.293 1.838-4.748 3.982c0 0-.536-4.059-2.604-5.514m-10.416 25.581c-.92.23-2.298.306-3.983.23c0 0 .153-.536 1.302-.92c0 0 .306.69 2.68.69"></path><path d="M466.633 236.72s2.451 1.915 3.293 3.064c0 0 2.298-1.532 3.064-2.834c0 0 1.762 1.15 2.298 2.834c0 0 1.302-.766 1.532-1.991c0 0 3.063.613 4.135 1.608c0 0 .46-2.91 0-4.825c0 0 2.145.23 3.447.766c0 0-1.225-1.991 4.978-4.519c0 0-4.672 1.072-6.51 3.064c0 0-1.991.153-2.834-.46v4.442s-1.225-.536-3.523-1.072c0 0-.612.996-.995 1.226c0 0-1.532-1.226-2.145-2.681c0 0-2.298 2.068-3.064 2.91c0 0-2.22-1.531-3.676-1.531z"></path><path fill="#ffc221" d="M452.54 267.28s.996.46 3.294-1.379s8.655-5.897 9.19-9.19c.69-3.294-1.99-3.447-4.059-2.528c-2.144.996-1.225 2.757-1.148 3.37c.076.613.153 2.91-3.294 6.05l-3.982 3.677z"></path><path fill="#ffc221" d="M451.851 268.276s-5.131-2.145-.536-4.443s6.663-2.91 7.2-4.901c.536-1.915.23-1.532-1.532-.766c-1.685.766-8.195 3.83-9.191.995c0 0 2.68 1.073 6.05-.536c3.37-1.685 6.128-2.144 3.983-2.833c-2.144-.69-9.88.153-11.105.536c-1.302.383-.996.306-1.226 1.531c-.23 1.302-1.608 3.983-2.144 4.749c-.536.766-1.838 4.06.536 5.514c2.298 1.456 6.127 1.303 7.965.154z"></path><path d="M449.86 257.094s-1.226.153-.996.612c.23.46.536.383.996.383c.383 0 1.072-.23 1.149-.46c.076-.306-.766-.689-1.15-.535z"></path><path fill="#fff" d="M451.468 267.127s-2.374-1.149.383-2.604c2.757-1.532 5.668-2.987 6.127-3.6c0 0-1.378 1.838-6.433 6.204z"></path></svg>