<svg xmlns="http://www.w3.org/2000/svg" xmlns:xlink="http://www.w3.org/1999/xlink" aria-hidden="true" role="img" class="iconify iconify--flag" width="1.34em" height="1em" preserveAspectRatio="xMidYMid meet" viewBox="0 0 640 480" data-icon="flag:dg-4x3"><defs><path id="IconifyId17f59e8e92558192397" fill="#fff" d="M478.4 549.2a17.8 17.8 0 1 1-35.5 0a17.8 17.8 0 0 1 35.5 0z"></path><path id="IconifyId17f59e8e92558192398" fill="#fff" stroke="#000" stroke-width="1pt" d="M478.4 549.2a17.8 17.8 0 1 1-35.5 0a17.8 17.8 0 0 1 35.5 0z"></path><path id="IconifyId17f59e8e92558192399" fill="#fff100" stroke="#000" stroke-width="3" d="M1240.2 531.5s15.3-35.4 70.9-35.4c37.8 0 70.8 35.4 70.8 70.8v70.9h35.5v-70.9c0-35.4 35.4-70.8 70.8-70.8c53.2 0 70.9 35.4 70.9 35.4s0-106.3-70.9-106.3c-53.1 0-70.8 35.4-70.8 35.4s17.7-53.1 17.7-106.3c0-53.2-35.4-88.6-35.4-88.6c0 6.8-35.5 35.5-35.5 88.6c0 53.1 17.7 106.3 17.7 106.3s-17.7-35.4-70.8-35.4c-70.9 0-70.9 106.3-70.9 106.3z"></path><path id="IconifyId17f59e8e925581923100" fill="#fff100" stroke="#000" stroke-width="1pt" d="M708.7 832.7v-124S815 744 815 832.7z"></path><path id="IconifyId17f59e8e925581923101" fill="#fff100" stroke="#000" stroke-width="1pt" d="M602.4 832.7C602.4 744 708.7 688 708.7 688S815 744 815 832.7z"></path><path id="IconifyId17f59e8e925581923102" fill="#fff100" stroke="#000" stroke-width="2.2" d="M1257.9 496s35.4-53 70.9-53h35.4v35.3c0 53.2-53.1 71-53.1 71h141.7s-53.2-17.8-53.2-71V443h35.5c35.4 0 70.8 53.2 70.8 53.2V354.3s-35.4 53.2-70.8 53.2h-35.5V372c0-53.1 53.2-70.8 53.2-70.8H1311s53.1 17.7 53.1 70.8v35.5h-35.4c-35.5 0-70.9-53.2-70.9-53.2v141.8z"></path><path id="IconifyId17f59e8e925581923103" fill="#fff100" stroke="#000" stroke-width="3.3" d="M1381.9 549.2h70.9s-53.2-17.7-53.2-70.9V443h35.4c35.5 0 71 53.2 71 53.2V354.3s-35.5 53.2-71 53.2h-35.4V372c0-53.1 53.2-70.8 53.2-70.8h-70.9z"></path><path id="IconifyId17f59e8e925581923104" fill="#fff" stroke="#000" stroke-width="1pt" d="M903.5 602.4a17.7 17.7 0 1 1-35.4 0a17.7 17.7 0 0 1 35.4 0z"></path></defs><path fill="#000063" fill-rule="evenodd" d="M640 416.2c-7.2 6.7-13.3 22-32.4 22c-38.1 0-47.6-32.5-76.2-32.5c-19 0-28.5 32.5-47.6 32.5c-38.1 0-47.6-32.5-76.2-32.5c-19 0-28.5 32.5-47.5 32.5c-38.2 0-47.7-32.5-76.3-32.5c-19 0-28.6 32.5-47.6 32.5c-38.1 0-47.6-32.5-76.2-32.5c-19 0-28.6 32.5-47.6 32.5c-38.2 0-47.7-32.5-76.2-32.5c-19 0-24.8 23.2-36.2 23.2v41.7c11.4 0 17.1-23 36.3-23c28.5 0 38 32.4 76 32.4c19.1 0 28.6-32.5 47.7-32.5c28.6 0 38.1 32.5 76.3 32.5c19 0 28.4-32.5 47.5-32.5c28.6 0 38.1 32.5 76.2 32.5c19 0 28.6-32.5 47.6-32.5c28.6 0 38.1 32.5 76.2 32.5c19 0 28.6-32.5 47.6-32.5c28.6 0 38.2 32.5 76.2 32.5c19 0 25.2-9.2 32.4-15.8zm0-81.2c-7.2 6.7-13.3 22-32.4 22c-38.1 0-47.6-32.5-76.2-32.5c-19 0-28.5 32.5-47.6 32.5c-38.1 0-47.6-32.5-76.2-32.5c-19 0-28.5 32.5-47.5 32.5c-38.2 0-47.7-32.5-76.3-32.5c-19 0-28.6 32.5-47.6 32.5c-38.1 0-47.6-32.5-76.2-32.5c-19 0-28.6 32.5-47.6 32.5c-38.2 0-47.7-32.5-76.2-32.5c-19 0-24.8 23.2-36.2 23.2v41.8c11.4 0 17.1-23.1 36.3-23.1c28.5 0 38 32.5 76 32.5c19.1 0 28.6-32.5 47.7-32.5c28.6 0 38.1 32.5 76.3 32.5c19 0 28.4-32.5 47.5-32.5c28.6 0 38.1 32.5 76.3 32.5c19 0 28.5-32.5 47.5-32.5c28.6 0 38.1 32.5 76.2 32.5c19 0 28.6-32.5 47.6-32.5c28.6 0 38.2 32.5 76.2 32.5c19 0 25.2-9.2 32.4-15.8zm0-81.1c-7.2 6.7-13.3 22-32.4 22c-38.1 0-47.6-32.5-76.2-32.5c-19 0-28.5 32.5-47.6 32.5c-38.1 0-47.6-32.5-76.2-32.5c-19 0-28.5 32.5-47.5 32.5c-38.2 0-47.7-32.5-76.3-32.5c-19 0-28.6 32.5-47.6 32.5c-38.1 0-47.6-32.5-76.2-32.5c-19 0-28.6 32.5-47.6 32.5c-38.2 0-47.7-32.5-76.2-32.5c-19 0-24.8 23.2-36.2 23.2v41.8c11.4 0 17.1-23.2 36.3-23.2c28.5 0 38 32.5 76 32.5c19.1 0 28.6-32.5 47.7-32.5c28.6 0 38.1 32.5 76.3 32.5c19 0 28.4-32.5 47.5-32.5c28.6 0 38.1 32.5 76.3 32.5c19 0 28.5-32.5 47.5-32.5c28.6 0 38.1 32.5 76.2 32.5c19 0 28.6-32.5 47.6-32.5c28.6 0 38.2 32.5 76.2 32.5c19 0 25.2-9.2 32.4-15.8zm0-81.1c-7.2 6.6-13.3 22-32.4 22c-38.1 0-47.6-32.5-76.2-32.5c-19 0-28.5 32.5-47.6 32.5c-38.1 0-47.6-32.5-76.2-32.5c-19 0-28.5 32.5-47.5 32.5c-38.2 0-47.7-32.5-76.3-32.5c-19 0-28.6 32.5-47.6 32.5c-38.1 0-47.6-32.5-76.2-32.5c-19 0-28.6 32.5-47.6 32.5c-38.2 0-47.7-32.5-76.2-32.5c-19 0-24.8 23.2-36.2 23.2v41.7c11.4 0 17.1-23 36.3-23c28.5 0 38 32.4 76 32.4c19.1 0 28.6-32.5 47.7-32.5c28.6 0 38.1 32.5 76.3 32.5c19 0 28.4-32.5 47.5-32.5c28.6 0 38.1 32.5 76.3 32.5c19 0 28.5-32.5 47.5-32.5c28.6 0 38.1 32.5 76.2 32.5c19 0 28.6-32.5 47.6-32.5c28.6 0 38.2 32.5 76.2 32.5c19 0 25.2-9.3 32.4-15.9zm0-81.3c-7.2 6.7-13.3 22.1-32.4 22.1c-38.1 0-47.6-32.5-76.2-32.5c-19 0-28.5 32.5-47.6 32.5c-38.1 0-47.6-32.5-76.2-32.5c-19 0-28.5 32.5-47.5 32.5c-38.2 0-47.7-32.5-76.3-32.5c-19 0-28.6 32.5-47.6 32.5c-38.1 0-47.6-32.5-76.2-32.5c-19 0-28.6 32.5-47.6 32.5c-38.2 0-47.7-32.5-76.2-32.5c-19 .1-24.8 23.3-36.2 23.3v41.8c11.4 0 17.1-23.1 36.2-23.1c28.5 0 38.1 32.5 76.2 32.5c19 0 28.5-32.5 47.6-32.5c28.6 0 38.1 32.5 76.3 32.5c19 0 28.4-32.5 47.4-32.5c28.7 0 38.2 32.5 76.3 32.5c19 0 28.6-32.5 47.6-32.5c28.6 0 38.1 32.5 76.2 32.5c19 0 28.6-32.5 47.6-32.5c28.6 0 38.2 32.5 76.2 32.5c19 0 25.2-9.3 32.4-15.9v-48Zm0-81c-7.2 6.6-13.3 22-32.4 22C569.5 32.5 560 0 531.4 0c-19 0-28.5 32.5-47.6 32.5c-38.1 0-47.6-32.5-76.2-32.5c-19 0-28.5 32.5-47.5 32.5c-38.2 0-47.7-32.5-76.3-32.5c-19 0-28.6 32.5-47.6 32.5C198 32.5 188.6 0 160 0c-19 0-28.6 32.5-47.6 32.5C74.2 32.5 64.7 0 36.2 0C17.2 0 11.4 23.2 0 23.2v41.9C11.4 65 17.1 42 36.2 42c28.5 0 38.1 32.4 76.2 32.4c19 0 28.5-32.4 47.6-32.4c28.6 0 38.1 32.4 76.3 32.4c19 0 28.4-32.4 47.4-32.4c28.7 0 38.2 32.4 76.3 32.4c19 0 28.6-32.4 47.6-32.4c28.6 0 38.1 32.4 76.2 32.4c19 0 28.6-32.4 47.6-32.4c28.6 0 38.2 32.4 76.2 32.4c19 0 25.2-9.2 32.4-15.8z"></path><path fill="#a24300" fill-rule="evenodd" stroke="#fff" stroke-width="2.1" d="m474.8 131.7l-3.5 329c0 17.3 15.7 17.3 17.4 0l-3.5-329Z"></path><path fill="#006d00" fill-rule="evenodd" stroke="#fff" stroke-width="1.8" d="m510.7 254l-11-11.9l-2.6 12.1l-4.7-17.5l-4.5 8.8l-.8-18.6l-4.4 8.8l-.8-18.6l-4.4 8.8L475 204l-4.4 8.8L468 191l-4.5 8.8l-2.5-21.9l-1.3-11l2.2-4.3l5.8 2.1l9.1 8.7l18.3 17.4l-11.3-4.3l18.3 17.4l-11.4-4.3l18.3 17.3l-11.4-4.2l16.6 14l-11.3-4.2l16.5 14l-11.3-4.2l12.6 15.2l-13.1-7.6l3 14.3z"></path><path fill="none" stroke="#000" stroke-width=".3" d="M510.7 254L462 162.6m33.1 28.2L469 175.6l-5.4 24.1"></path><path fill="none" stroke="#000" stroke-width=".3" d="m502.2 203.8l-26.3-15.1l-5.3 24.1"></path><path fill="none" stroke="#000" stroke-width=".3" d="m509.1 216.8l-26.2-15l-5.4 24"></path><path fill="none" stroke="#000" stroke-width=".3" d="m514.3 226.7l-24.5-11.9l-7 21"></path><path fill="none" stroke="#000" stroke-width=".3" d="M519.5 236.5L495 224.6l-7 21"></path><path fill="none" stroke="#000" stroke-width=".3" d="m520.8 247.4l-22.3-16.2l-1.4 23"></path><path fill="#006d00" fill-rule="evenodd" stroke="#fff" stroke-width="2" d="m383 97.9l17.8 6.8l-5.2-13.5l15.6 15.3l-1.5-11l12.6 18.4l-1.5-11l12.6 18.4l-1.5-11l16.3 20.8l-1.5-11l16.3 20.8l-1.4-11l16.2 20.8l8.2 10.4l.7 5.5l-6.7.6l-14-4.3l-28.2-8.7l13.3-1.1l-28.1-8.7l13.3-1.1l-28.1-8.7l13.3-1.2l-24.4-6.2l13.3-1.1l-24.4-6.2l13.3-1.2l-21.5-9.3l17.1 1.3L383.1 98z"></path><path fill="none" stroke="#000" stroke-width=".3" d="m383 97.9l103.7 68.7m-48.9-12.4l34.1 2.6l-10.3-26.9"></path><path fill="none" stroke="#000" stroke-width=".3" d="m423 144.4l34 2.6l-10.3-27"></path><path fill="none" stroke="#000" stroke-width=".3" d="m408.2 134.6l34 2.6l-10.3-27"></path><path fill="none" stroke="#000" stroke-width=".3" d="m397 127.2l30.5.1l-6.7-24.4"></path><path fill="none" stroke="#000" stroke-width=".3" d="m386 119.8l30.4.2l-6.7-24.5"></path><path fill="none" stroke="#000" stroke-width=".3" d="m377.8 109.4l31.1 5.7l-13.2-23.9"></path><path fill="#006d00" fill-rule="evenodd" stroke="#fff" stroke-width="2" d="M589.8 120.8L575 131.7l16.4 1.8l-22.9 5.4l12.2 3.6l-24.7 1.8l12.2 3.6l-24.7 1.8l12.1 3.7l-28.9 3.6l12.2 3.6l-28.9 3.6l12.2 3.6l-28.9 3.6l-14.5 1.8l-6-1.8l2.2-5.4l10.7-9l21.3-18.1l-4.6 10.8l21.3-18l-4.6 10.8l21.3-18l-4.6 10.8L553 119l-4.5 10.9l17-16.3l-4.5 10.8l19-12.6l-8.7 12.7l18.6-3.6z"></path><path fill="none" stroke="#000" stroke-width=".3" d="m589.8 120.8l-117 50.6m34.1-32.5l-17.4 25.3l32.7 3.6"></path><path fill="none" stroke="#000" stroke-width=".3" d="M523.7 131.7L506.2 157l32.7 3.6"></path><path fill="none" stroke="#000" stroke-width=".3" d="m540.4 124.4l-17.5 25.3l32.7 3.7"></path><path fill="none" stroke="#000" stroke-width=".3" d="m553 119l-13.3 23.5l28.5 5.4"></path><path fill="none" stroke="#000" stroke-width=".3" d="m565.5 113.6l-13.3 23.5l28.5 5.4"></path><path fill="none" stroke="#000" stroke-width=".3" d="m580 111.8l-19.4 21.7h30.7"></path><path fill="#006d00" fill-rule="evenodd" stroke="#fff" stroke-width="2" d="M587.4 230.3L569 225l6.6 13l-17.1-14l2.6 10.7l-14.5-17.2l2.7 10.8l-14.5-17.3l2.6 10.8l-18.5-19.4l2.7 10.8l-18.5-19.4l2.7 10.8l-18.5-19.4l-9.2-9.7l-1.3-5.4l6.6-1.2l14.5 3.2l29 6.4l-13.2 2.2l29 6.4l-13.2 2.2l29 6.4l-13.2 2.3l25 4.2l-13.2 2.2l25 4.2L569 211l22.3 7.5h-17l13 12z"></path><path fill="none" stroke="#000" stroke-width=".3" d="m587.4 230.3l-110.6-60.2m50 8.4l-34.2.2l13.2 26"></path><path fill="none" stroke="#000" stroke-width=".3" d="m542.6 187.1l-34.2.2l13.2 26"></path><path fill="none" stroke="#000" stroke-width=".3" d="m558.4 195.7l-34.2.2l13.2 26"></path><path fill="none" stroke="#000" stroke-width=".3" d="m570.3 202.2l-30.3 2.3l9.3 23.8"></path><path fill="none" stroke="#000" stroke-width=".3" d="m582.2 208.7l-30.3 2.2l9.2 23.8"></path><path fill="none" stroke="#000" stroke-width=".3" d="m591.3 218.4l-31.5-3.2l15.8 22.8"></path><path fill="#006d00" fill-rule="evenodd" stroke="#fff" stroke-width="1.8" d="m395.2 236.6l9.3-13l-14.1 2.1l17.4-9.9l-11.1-.5l20-7l-11.1-.6l20-7l-11.1-.6l23-9.6l-11.2-.5l23-9.7l-11.1-.5l23-9.6l11.5-4.9l5.6.3l-.4 5.3l-6.3 10.4l-12.6 20.8l.8-10.6l-12.6 20.8l.7-10.7l-12.6 20.8l.7-10.6l-9.6 18.2l.7-10.6l-9.6 18.2l.7-10.6l-12.2 15.4l3.7-13.2l-14.5 7.4z"></path><path fill="none" stroke="#000" stroke-width=".3" d="m395.2 236.6l83-71m-19.1 36.5l7.3-26.4l-28.2 4.1"></path><path fill="none" stroke="#000" stroke-width=".3" d="m447.2 212.3l7.3-26.4l-28.2 4"></path><path fill="none" stroke="#000" stroke-width=".3" d="m435.3 222.4l7.4-26.4l-28.2 4.1"></path><path fill="none" stroke="#000" stroke-width=".3" d="m426.4 230l4.4-23.8l-25.2 1.5"></path><path fill="none" stroke="#000" stroke-width=".3" d="m417.5 237.6l4.4-23.8l-25.2 1.5"></path><path fill="none" stroke="#000" stroke-width=".3" d="m406 242.4l10-23.5l-25.6 6.8"></path><path fill="#006d00" fill-rule="evenodd" stroke="#fff" stroke-width="2" d="m563 66.2l-17.9 12l-2.9-12.9l-10.5 17.8l-2-8.5l-8.6 18.2l-1.2-8.4l-6.7 18.7l-3.8-9l-6.7 22.7l-3.8-9l-6.7 22.7l-3.9-9l-6.7 22.7l-3.3 11.4l1.9 4.5l7.2-2.4l12.4-9.2l25-18.4l-14.4 4.7l24.9-18.5l-14.4 4.8l24.9-18.5l-14.4 4.8l25-14.4l-17 4L566 83.3l-16.3 4.2l19.7-15.6l-17 8.1z"></path><path fill="none" stroke="#000" stroke-width=".3" d="m556 72.7l-25.8 22.2l-50 65.2"></path><path fill="none" stroke="#000" stroke-width=".3" d="m519.3 132.8l-28.6 13.5l-2.4-20.8"></path><path fill="none" stroke="#000" stroke-width=".3" d="m530.2 119.2l-29 13.4l-2.3-20.8"></path><path fill="none" stroke="#000" stroke-width=".3" d="m540.5 105.5l-28.7 13.4l-2.2-20.7"></path><path fill="none" stroke="#000" stroke-width=".3" d="m549.1 95.3l-26.8 9.9l-3-17"></path><path fill="none" stroke="#000" stroke-width=".3" d="M559 85.5L530.2 95l-1-16.4"></path><path fill="none" stroke="#000" stroke-width=".3" d="m562.8 76.2l-26.6 13.6l5.2-20.6"></path><path fill="#006d00" fill-rule="evenodd" stroke="#fff" stroke-width="2" d="m466.1 43.8l8 18.2l10.3-9.6l-1.7 19.8l6.8-6.4l-3.7 19.4l6-6.6l-5.5 19l8.7-6l-8 22.3l8.6-6l-8 22.5l8.7-6l-8 22.4l-4 11.2l-4.4 3l-4.8-5.3l-5-13.4l-10-26.9l9.4 10.5l-10.1-27l9.4 10.6l-10-27L468 93l-12.5-23.4l12 11.1l-14.4-23.9l11.3 11l-7.3-22.2l9.6 14.6z"></path><path fill="none" stroke="#000" stroke-width=".3" d="m468.2 52.4l8.5 30.5l3.2 78"></path><path fill="none" stroke="#000" stroke-width=".3" d="m463 120.2l16.2 24.3l14.7-16.7"></path><path fill="none" stroke="#000" stroke-width=".3" d="m462 103.7l16.5 24.4l14.7-16.7"></path><path fill="none" stroke="#000" stroke-width=".3" d="m461.5 87.3l16.4 24.4L492.3 95"></path><path fill="none" stroke="#000" stroke-width=".3" d="m460.4 74.9l16.8 20.4l13-13"></path><path fill="none" stroke="#000" stroke-width=".3" d="m458 62l18.7 21l11-13.6"></path><path fill="none" stroke="#000" stroke-width=".3" d="m460.3 52.4l14.4 23.5l8.1-19.9"></path><path fill="#006d00" fill-rule="evenodd" stroke="#fff" stroke-width="1.9" d="m359 178l23.3-16.2l-11.7-6l20.5 3.4l-7-9.3l19.8 7.5l-7-9.3l19.9 7.4l-7-9.2l24 8.1l-7-9.3l23.3 12.1l-7-9.3l24 8.2l11.7 6l3.5 4.6l-4.7 3.3l-12.9 1.8l-20.7 8.6l3.8-7.4l-25.7 3.6l9.3-6.4l-26.3 7.6l9.4-6.5l-22.2 8.3l9.9-10.4l-22.8 12.2l10-10.4l-18.8 13l10.5-14.4z"></path><path fill="none" stroke="#000" stroke-width=".3" d="m366.3 173.6l24.2-10.5l12.9-1.8l10.7-.2l18.5 1.2l16.7.7l33 3.7"></path><path fill="none" stroke="#000" stroke-width=".3" d="m447.2 176.9l18.5-11.4l-18.8-14.7"></path><path fill="none" stroke="#000" stroke-width=".3" d="m426.5 175.2l22.7-12.2l-18.7-14.8"></path><path fill="none" stroke="#000" stroke-width=".3" d="m411.7 174.8l20.9-12.5l-19-13.7m-29.5 29.6l19.3-16.9l-15.6-8.5"></path><path fill="none" stroke="#000" stroke-width=".3" d="m375.5 179.3l15-16.1l-12-4.5m18.4 17.7l19-15.2l-15.2-10.4"></path><g fill-rule="evenodd"><path fill="#c00" stroke="#000" stroke-width="1pt" d="m541.5 1173.3l-1.7-229.1l-61.1-107c-15.3-52.6-7.8-78 17-79.8c24.7-1.6 49.2 13.6 84.8 15.3c35.6 1.7 28.9-59.4 81.5-57.7c52.6 1.7 144.3 32.3 222.3 37.4c78.1 5 118.8-27.2 208.8-30.6c90-3.4 113.7 42.4 118.8 42.4c5.1 0 30.6-18.6 56-22c25.5-3.4 34 10.2 34 10.2s-1.7 57.7-13.6 91.6c-11.9 34-54.3 90-56 90c-1.7 0-15.3 249.5-15.3 251.2c0 1.7-675.5-6.8-675.5-11.9z" transform="matrix(.12934 0 0 .11906 367.462 215.45)"></path><g stroke="#000" stroke-width="1pt"><path fill="#fff100" d="M531.5 584.6s-68-52-69.8-177.1c-1-72 34.4-124 123-124c124 0 301.1 53.1 301.1 53.1v17.7s-141.7-53.1-301.2-53.1c-70.8 0-106.3 52-106.3 105.2c0 88.6 71 178.3 71 178.3v141.7h-17.8z" transform="matrix(-.12934 0 0 .11906 596.62 257.59)"></path><use xlink:href="#IconifyId17f59e8e92558192397" transform="matrix(-.12934 0 0 .11906 594.536 257.4)"></use><use xlink:href="#IconifyId17f59e8e92558192397" transform="matrix(-.12934 0 0 .11906 596.809 252.57)"></use><use xlink:href="#IconifyId17f59e8e92558192397" transform="matrix(-.12934 0 0 .11906 598.04 247.646)"></use><use xlink:href="#IconifyId17f59e8e92558192397" transform="matrix(-.12934 0 0 .11906 598.892 242.438)"></use><use xlink:href="#IconifyId17f59e8e92558192397" transform="matrix(-.12934 0 0 .11906 598.702 236.757)"></use><use xlink:href="#IconifyId17f59e8e92558192397" transform="matrix(-.12934 0 0 .11906 591.222 261.661)"></use><use xlink:href="#IconifyId17f59e8e92558192397" transform="matrix(-.12934 0 0 .11906 596.714 231.36)"></use><use xlink:href="#IconifyId17f59e8e92558192397" transform="matrix(-.12934 0 0 .11906 592.453 227.098)"></use><use xlink:href="#IconifyId17f59e8e92558192397" transform="matrix(-.12934 0 0 .11906 586.771 224.257)"></use><use xlink:href="#IconifyId17f59e8e92558192397" transform="matrix(-.12934 0 0 .11906 581.09 223.879)"></use><use xlink:href="#IconifyId17f59e8e92558192397" transform="matrix(-.12934 0 0 .11906 574.935 224.068)"></use><use xlink:href="#IconifyId17f59e8e92558192397" transform="matrix(-.12934 0 0 .11906 568.78 224.92)"></use><use xlink:href="#IconifyId17f59e8e92558192397" transform="matrix(-.12934 0 0 .11906 562.72 225.678)"></use><use xlink:href="#IconifyId17f59e8e92558192397" transform="matrix(-.12934 0 0 .11906 556.09 226.625)"></use><use xlink:href="#IconifyId17f59e8e92558192397" transform="matrix(-.12934 0 0 .11906 550.409 228.14)"></use></g><use xlink:href="#IconifyId17f59e8e92558192398" stroke-width="1pt" transform="matrix(.12934 0 0 .11906 369.545 257.4)"></use><use xlink:href="#IconifyId17f59e8e92558192398" stroke-width="1pt" transform="matrix(.12934 0 0 .11906 367.178 252.57)"></use><use xlink:href="#IconifyId17f59e8e92558192398" stroke-width="1pt" transform="matrix(.12934 0 0 .11906 366.042 247.646)"></use><use xlink:href="#IconifyId17f59e8e92558192398" stroke-width="1pt" transform="matrix(.12934 0 0 .11906 365.19 242.438)"></use><use xlink:href="#IconifyId17f59e8e92558192398" stroke-width="1pt" transform="matrix(.12934 0 0 .11906 365.379 236.757)"></use><use xlink:href="#IconifyId17f59e8e92558192398" stroke-width="1pt" transform="matrix(.12934 0 0 .11906 367.273 231.36)"></use><use xlink:href="#IconifyId17f59e8e92558192398" stroke-width="1pt" transform="matrix(.12934 0 0 .11906 371.44 227.098)"></use><use xlink:href="#IconifyId17f59e8e92558192398" stroke-width="1pt" transform="matrix(.12934 0 0 .11906 377.216 224.257)"></use><use xlink:href="#IconifyId17f59e8e92558192398" stroke-width="1pt" transform="matrix(.12934 0 0 .11906 382.897 223.879)"></use><use xlink:href="#IconifyId17f59e8e92558192398" stroke-width="1pt" transform="matrix(.12934 0 0 .11906 389.052 224.068)"></use><use xlink:href="#IconifyId17f59e8e92558192398" stroke-width="1pt" transform="matrix(.12934 0 0 .11906 395.207 224.92)"></use><use xlink:href="#IconifyId17f59e8e92558192398" stroke-width="1pt" transform="matrix(.12934 0 0 .11906 401.362 225.678)"></use><use xlink:href="#IconifyId17f59e8e92558192398" stroke-width="1pt" transform="matrix(.12934 0 0 .11906 407.896 226.625)"></use><use xlink:href="#IconifyId17f59e8e92558192398" stroke-width="1pt" transform="matrix(.12934 0 0 .11906 413.578 228.14)"></use><use xlink:href="#IconifyId17f59e8e92558192398" stroke-width="1pt" transform="matrix(.12934 0 0 .11906 372.765 261.661)"></use><path fill="#fff100" stroke="#000" stroke-width="1pt" d="M531.5 584.6s-68-52-69.8-177.1c-1-72 34.4-124 123-124c124 0 301.1 53.1 301.1 53.1v17.7s-141.7-53.1-301.2-53.1c-70.8 0-106.3 52-106.3 105.2c0 88.6 71 178.3 71 178.3v141.7h-17.8z" transform="matrix(.12934 0 0 .11906 367.462 257.59)"></path><use xlink:href="#IconifyId17f59e8e92558192399" stroke-width="3" transform="matrix(.04311 0 0 .04536 398.71 310.901)"></use><use xlink:href="#IconifyId17f59e8e92558192399" stroke-width="3" transform="matrix(.04311 0 0 .04536 444.542 310.901)"></use><path fill="#fff100" stroke="#000" stroke-width="1pt" d="M531.5 832.7V673.2s35.4 53.2 88.6 53.2c43.5 0 88.6-70.9 88.6-70.9s41.5 53.2 88.6 53.2c42 0 88.5-68.6 88.5-68.6s43.2 68.6 88.6 68.6c45.5 0 88.6-53.2 88.6-53.2s46.3 70.9 106.3 70.9c53.1 0 70.9-53.2 70.9-53.2v159.5z" transform="matrix(.12934 0 0 .11906 367.462 257.59)"></path><use xlink:href="#IconifyId17f59e8e925581923100" stroke-width="1pt" transform="matrix(.12934 0 0 .11906 344.546 257.59)"></use><use xlink:href="#IconifyId17f59e8e925581923100" stroke-width="1pt" transform="matrix(-.12934 0 0 .11906 619.44 257.59)"></use><use xlink:href="#IconifyId17f59e8e925581923101" stroke-width="1pt" transform="matrix(.12934 0 0 .11906 367.462 257.59)"></use><use xlink:href="#IconifyId17f59e8e925581923101" stroke-width="1pt" transform="matrix(.12934 0 0 .11906 413.294 257.59)"></use><path fill="#fff100" stroke="#000" stroke-width="1pt" d="M584.6 847.5c0-88.6 124.1-159.4 124.1-159.4s124 70.8 124 159.4h-248z" transform="matrix(.12934 0 0 .11906 390.378 255.885)"></path><path fill="#fff" stroke="#000" stroke-width="1pt" d="M1275.6 655.5c-35.4-17.7-166-35.4-376.3-35.4s-350 17.7-385.5 35.4c-35.4 17.7-35.4 53.2 0 70.9c35.4 17.7 175.3 35.4 385.5 35.4s340.9-17.7 376.3-35.4c35.4-17.7 35.4-53.2 0-70.9z" transform="matrix(.12788 0 0 .11906 366.989 278.706)"></path><path fill="gray" d="M527.872 365.16c0 4.262-38.161 4.262-45.831 4.262c-8.333 0-45.832 1.136-45.832-4.262c0-4.166 37.783-4.166 45.832-4.166c7.954 0 45.831.852 45.831 4.166z"></path><path fill="#c00" d="M440.755 350.01c0 1.42-.947 2.556-2.273 2.556s-2.273-1.136-2.273-2.556c0-1.42.947-2.462 2.273-2.462c1.23 0 2.273 1.136 2.273 2.462zm87.117 0c0 1.42-1.042 2.556-2.367 2.556c-1.231 0-2.273-1.136-2.273-2.556c0-1.42 1.042-2.462 2.273-2.462c1.325 0 2.272 1.136 2.272 2.462z"></path><path d="M486.586 348.779c0 1.325-2.083 2.462-4.545 2.462c-2.462 0-4.64-1.137-4.64-2.557s2.083-2.462 4.64-2.462s4.545 1.136 4.545 2.462z"></path><path fill="#006300" d="M508.555 348.779c0 1.325-1.515 2.462-3.41 2.462s-3.408-1.137-3.408-2.557s1.515-2.462 3.409-2.462s3.409 1.136 3.409 2.462zm-47.157 0c0 1.325-1.515 2.462-3.41 2.462s-3.503-1.137-3.503-2.557s1.515-2.462 3.504-2.462c1.894 0 3.409 1.136 3.409 2.462z"></path><use xlink:href="#IconifyId17f59e8e925581923102" stroke-width="2.2" transform="matrix(.0739 0 0 .06804 379.867 300.485)"></use><use xlink:href="#IconifyId17f59e8e925581923103" stroke-width="3.3" transform="matrix(.03696 0 0 .05953 385.075 309.292)"></use><use xlink:href="#IconifyId17f59e8e925581923103" stroke-width="3.3" transform="matrix(-.03696 0 0 .05953 578.912 309.292)"></use><use xlink:href="#IconifyId17f59e8e925581923104" stroke-width="1pt" transform="matrix(.12934 0 0 .11906 367.462 257.59)"></use><use xlink:href="#IconifyId17f59e8e925581923102" stroke-width="2.2" transform="matrix(.0739 0 0 .06804 379.867 256.169)"></use><use xlink:href="#IconifyId17f59e8e925581923104" stroke-width="1pt" transform="matrix(.12934 0 0 .11906 367.652 213.652)"></use><path fill="#fff100" stroke="#000" stroke-width="1pt" d="M850.4 655.5h70.9v53.2h-71z" transform="matrix(.12934 0 0 .11906 367.462 215.45)"></path><path fill="#fff100" stroke="#000" stroke-width="1pt" d="M850.4 683.3h70.9v202.5h-71z" transform="matrix(.12934 0 0 .11906 367.462 215.45)"></path><use xlink:href="#IconifyId17f59e8e92558192398" stroke-width="1pt" transform="matrix(.12934 0 0 .11906 422.384 251.245)"></use><use xlink:href="#IconifyId17f59e8e92558192398" stroke-width="1pt" transform="matrix(.12934 0 0 .11906 422.384 245.847)"></use><use xlink:href="#IconifyId17f59e8e92558192398" stroke-width="1pt" transform="matrix(.12934 0 0 .11906 422.384 240.829)"></use><use xlink:href="#IconifyId17f59e8e92558192398" stroke-width="1pt" transform="matrix(.12934 0 0 .11906 422.384 235.526)"></use><path d="M486.87 356.827c0 .947-2.083 1.705-4.735 1.705s-4.545-.758-4.545-1.705s2.083-1.704 4.64-1.704s4.64.758 4.64 1.704zm42.233 4.167c-.284.663-2.557.758-5.113.095c-2.557-.568-4.356-1.515-4.167-2.178c.284-.663 2.557-.758 5.114-.095c2.556.568 4.355 1.515 4.166 2.178zm-17.707-2.84c0 .851-2.273 1.325-4.925 1.23c-2.556-.19-4.64-1.041-4.545-1.894c.095-.852 2.368-1.325 4.924-1.136c2.652.19 4.735.947 4.546 1.8zm-77.46 2.84c.19.663 2.463.758 5.02.095c2.556-.568 4.45-1.515 4.166-2.178c-.284-.663-2.557-.758-5.114-.095c-2.462.568-4.355 1.515-4.071 2.178zm18.466-3.22c.094.853 2.367 1.326 4.924 1.137c2.651-.19 4.734-.947 4.545-1.894c0-.758-2.273-1.326-4.924-1.136c-2.557.189-4.64.946-4.545 1.893z"></path></g><path fill="#012169" d="M0 0h320v240H0Z"></path><path fill="#fff" d="m37.5 0l122 90.5L281 0h39v31l-120 89.5l120 89V240h-40l-120-89.5L40.5 240H0v-30l119.5-89L0 32V0Z"></path><path fill="#c8102e" d="M212 140.5L320 220v20l-135.5-99.5Zm-92 10l3 17.5l-96 72H0ZM320 0v1.5l-124.5 94l1-22L295 0ZM0 0l119.5 88h-30L0 21Z"></path><path fill="#fff" d="M120.5 0v240h80V0ZM0 80v80h320V80Z"></path><path fill="#c8102e" d="M0 96.5v48h320v-48zM136.5 0v240h48V0Z"></path></svg>