<svg xmlns="http://www.w3.org/2000/svg" xmlns:xlink="http://www.w3.org/1999/xlink" aria-hidden="true" role="img" class="iconify iconify--flag" width="1em" height="1em" preserveAspectRatio="xMidYMid meet" viewBox="0 0 512 512" data-icon="flag:gd-1x1"><defs><g id="IconifyId17f59e8e925581923223"><g id="IconifyId17f59e8e925581923224"><path id="IconifyId17f59e8e925581923225" fill="#fcd116" d="M0-1v1h.5" transform="rotate(18 0 -1)"></path><use width="100%" height="100%" href="#IconifyId17f59e8e925581923225" transform="scale(-1 1)"></use></g><use width="100%" height="100%" href="#IconifyId17f59e8e925581923224" transform="rotate(72)"></use><use width="100%" height="100%" href="#IconifyId17f59e8e925581923224" transform="rotate(144)"></use><use width="100%" height="100%" href="#IconifyId17f59e8e925581923224" transform="rotate(-144)"></use><use width="100%" height="100%" href="#IconifyId17f59e8e925581923224" transform="rotate(-72)"></use></g></defs><path fill="#ce1126" d="M0 0h512v512H0z"></path><path fill="#007a5e" d="M71.7 71.7h368.6v368.6H71.7z"></path><path fill="#fcd116" d="M71.7 71.7h368.6L71.7 440.4h368.6z"></path><circle cx="255.9" cy="256.1" r="61.4" fill="#ce1126"></circle><use width="100%" height="100%" href="#IconifyId17f59e8e925581923223" transform="translate(256 256) scale(56.32)"></use><use width="100%" height="100%" x="-100" href="#IconifyId17f59e8e925581923226" transform="translate(-16.4 -.1)"></use><use id="IconifyId17f59e8e925581923226" width="100%" height="100%" href="#IconifyId17f59e8e925581923223" transform="translate(256 35.9) scale(33.28)"></use><use width="100%" height="100%" x="100" href="#IconifyId17f59e8e925581923226" transform="translate(16.4)"></use><path fill="#ce1126" d="M99.8 256.8c7.7 14.3 22.6 29.8 35.7 35.3c.2-14.5-5-33.2-12-48l-23.7 12.7z"></path><path fill="#fcd116" d="M86.8 207.6c11.1 23.3-29 78.7 37.8 91.7a67.5 67.5 0 0 1-11.5-44.7a75.5 75.5 0 0 1 34.6 32.8c17.5-63.4-44.8-59.5-61-79.8z"></path><use width="100%" height="100%" x="-100" href="#IconifyId17f59e8e925581923226" transform="translate(-16.4 442)"></use><use width="100%" height="100%" href="#IconifyId17f59e8e925581923223" transform="translate(256 478) scale(33.28)"></use><use width="100%" height="100%" x="100" href="#IconifyId17f59e8e925581923226" transform="translate(16.4 442.2)"></use></svg>