<svg xmlns="http://www.w3.org/2000/svg" xmlns:xlink="http://www.w3.org/1999/xlink" aria-hidden="true" role="img" class="iconify iconify--flag" width="1.34em" height="1em" preserveAspectRatio="xMidYMid meet" viewBox="0 0 640 480" data-icon="flag:gd-4x3"><defs><g id="IconifyId17f59e8e925581923227"><g id="IconifyId17f59e8e925581923228"><path id="IconifyId17f59e8e925581923229" fill="#fcd116" d="M0-1v1h.5" transform="rotate(18 0 -1)"></path><use href="#IconifyId17f59e8e925581923229" transform="scale(-1 1)"></use></g><use href="#IconifyId17f59e8e925581923228" transform="rotate(72)"></use><use href="#IconifyId17f59e8e925581923228" transform="rotate(144)"></use><use href="#IconifyId17f59e8e925581923228" transform="rotate(216)"></use><use href="#IconifyId17f59e8e925581923228" transform="rotate(288)"></use></g></defs><path fill="#ce1126" d="M0 0h640v480H0z"></path><path fill="#007a5e" d="M67.2 67.2h505.6v345.6H67.2z"></path><path fill="#fcd116" d="M67.2 67.3h505.6L67.2 412.9h505.6z"></path><circle cx="319.9" cy="240.1" r="57.6" fill="#ce1126"></circle><use width="100%" height="100%" href="#IconifyId17f59e8e925581923227" transform="matrix(52.8 0 0 52.8 320 240)"></use><use width="100%" height="100%" x="-100" href="#IconifyId17f59e8e925581923230" transform="translate(-30.3)"></use><use id="IconifyId17f59e8e925581923230" width="100%" height="100%" href="#IconifyId17f59e8e925581923227" transform="matrix(31.2 0 0 31.2 320 33.6)"></use><use width="100%" height="100%" x="100" href="#IconifyId17f59e8e925581923230" transform="translate(30.3)"></use><path fill="#ce1126" d="M102.3 240.7a80.4 80.4 0 0 0 33.5 33.2a111 111 0 0 0-11.3-45l-22.2 11.8z"></path><path fill="#fcd116" d="M90.1 194.7c10.4 21.7-27.1 73.7 35.5 85.9a63.2 63.2 0 0 1-10.9-41.9a70 70 0 0 1 32.5 30.8c16.4-59.5-42-55.8-57.1-74.8z"></path><use width="100%" height="100%" x="-100" href="#IconifyId17f59e8e925581923230" transform="translate(-30.3 414.6)"></use><use width="100%" height="100%" href="#IconifyId17f59e8e925581923227" transform="matrix(31.2 0 0 31.2 320 448.2)"></use><use width="100%" height="100%" x="100" href="#IconifyId17f59e8e925581923230" transform="translate(30.3 414.6)"></use></svg>