<svg xmlns="http://www.w3.org/2000/svg" xmlns:xlink="http://www.w3.org/1999/xlink" aria-hidden="true" role="img" class="iconify iconify--flag" width="1em" height="1em" preserveAspectRatio="xMidYMid meet" viewBox="0 0 512 512" data-icon="flag:gr-1x1"><path fill="#005bae" fill-rule="evenodd" d="M0 0h512v57H0z"></path><path fill="#fff" fill-rule="evenodd" d="M0 57h512v57H0z"></path><path fill="#005bae" fill-rule="evenodd" d="M0 114h512v57H0z"></path><path fill="#fff" fill-rule="evenodd" d="M0 171h512v57H0z"></path><path fill="#005bae" fill-rule="evenodd" d="M0 228h512v56.9H0z"></path><path fill="#fff" fill-rule="evenodd" d="M0 284.9h512v57H0z"></path><path fill="#005bae" fill-rule="evenodd" d="M0 341.9h512v57H0z"></path><path fill="#fff" fill-rule="evenodd" d="M0 398.9h512v57H0z"></path><path fill="#005bae" d="M0 0h284.9v284.9H0z"></path><g fill="#fff" fill-rule="evenodd" stroke-width="1.3"><path d="M113.96 0h56.98v284.9h-56.98z"></path><path d="M0 113.96h284.9v56.98H0z"></path></g><path fill="#005bae" fill-rule="evenodd" d="M0 455h512v57H0z"></path></svg>