<svg xmlns="http://www.w3.org/2000/svg" xmlns:xlink="http://www.w3.org/1999/xlink" aria-hidden="true" role="img" class="iconify iconify--flag" width="1em" height="1em" preserveAspectRatio="xMidYMid meet" viewBox="0 0 512 512"><path fill="#006" d="M0 0h512v512H0z"></path><path fill="#fff" fill-rule="evenodd" d="M54.9 368.6L95.5 384l13.4-41.4l13.3 41.4l40.7-15.4l-24.1 36.3l37.4 22.2l-43.3 3.7l6 43.1l-30-31.5l-30 31.5l6-43l-43.4-3.8L79 404.9m325 71.5l-19 1.6l2.7 18.8l-13-13.7l-13 13.7L364 478l-18.8-1.6l16.3-9.6L351 451l17.7 6.7l5.8-18l5.7 18L398 451l-10.4 15.8m16.2-270.4L385 198l2.6 18.8l-13-13.7l-13 13.7L364 198l-18.8-1.6l16.3-9.6L351 171l17.7 6.7l5.8-18l5.7 18L398 171l-10.4 15.8m-88.8 123.4l-18.8 1.6l2.6 18.7l-13-13.7l-13 13.7l2.5-18.7l-18.8-1.6l16.3-9.7l-10.5-15.7l17.7 6.7l5.8-18l5.7 18l17.7-6.7l-10.4 15.7M497 282.2l-18.8 1.6l2.6 18.7l-13-13.7l-13 13.7l2.5-18.7l-18.8-1.6l16.3-9.7l-10.5-15.7l17.7 6.7l5.8-18l5.8 18l17.6-6.7l-10.4 15.7M416.6 355l-10.3 6.4l2.9-11.8l-9.3-7.8l12-.9l4.7-11.2L421 341l12.1 1l-9.2 7.7l2.9 11.8"></path><path fill="#006" d="M0 0h256v256H0z"></path><path fill="#fff" d="M256 0v32l-95 96l95 93.5V256h-33.5L127 162l-93 94H0v-34l93-93.5L0 37V0h31l96 94l93-94z"></path><path fill="#c8102e" d="m92 162l5.5 17L21 256H0v-1.5zm62-6l27 4l75 73.5V256zM256 0l-96 98l-2-22l75-76zM0 .5L96.5 95L67 91L0 24.5z"></path><path fill="#fff" d="M88 0v256h80V0zM0 88v80h256V88z"></path><path fill="#c8102e" d="M0 104v48h256v-48zM104 0v256h48V0z"></path></svg>