<svg xmlns="http://www.w3.org/2000/svg" xmlns:xlink="http://www.w3.org/1999/xlink" aria-hidden="true" role="img" class="iconify iconify--flag" width="1.34em" height="1em" preserveAspectRatio="xMidYMid meet" viewBox="0 0 640 480"><path fill="#006" d="M0 0h640v480H0z"></path><path fill="#fff" fill-rule="evenodd" d="m299.8 392.5l-43.7 3.8l6 43.4L232 408l-30.1 31.7l6-43.4l-43.7-3.8l37.7-22.3l-24.3-36.5l41 15.5l13.4-41.7l13.5 41.7l41-15.5l-24.3 36.5m224.4 62.3L476 416.7l17.8 6.7l5.8-18.1l5.8 18.1l17.8-6.7l-10.5 15.8l16.4 9.7l-19 1.7l2.6 18.9l-13-13.9l-13.2 13.9l2.6-18.9l-19-1.6m16.4-291.9L476 134.6l17.8 6.7l5.8-18.1l5.8 18.1l17.8-6.7l-10.5 15.8l16.4 9.8l-19 1.6l2.6 18.9l-13-13.8l-13.2 13.7l2.6-18.8l-19-1.6M380.8 265l-10.5-15.8l17.8 6.7l5.8-18.1l5.9 18.1l17.8-6.7L407 265l16.4 9.7l-19 1.7l2.7 18.9l-13.2-13.9l-13 13.9l2.5-18.9l-19-1.6m216.3-38L570 221l17.8 6.7l5.8-18.1l5.9 18.1l17.8-6.7l-10.5 15.8l16.3 9.7l-19 1.7l2.6 18.8l-13-13.8l-13.2 13.8l2.6-18.8l-19-1.7M542 320l-10.3 6.5l2.9-11.9l-9.3-7.8l12.1-1l4.6-11.2l4.7 11.3l12.1.9l-9.3 7.8l2.9 11.9"></path><path fill="#006" d="M0 0h320v240H0z"></path><path fill="#fff" d="m37.5 0l122 90.5L281 0h39v31l-120 89.5l120 89V240h-40l-120-89.5L40.5 240H0v-30l119.5-89L0 32V0z"></path><path fill="#c8102e" d="M212 140.5L320 220v20l-135.5-99.5zm-92 10l3 17.5l-96 72H0zM320 0v1.5l-124.5 94l1-22L295 0zM0 0l119.5 88h-30L0 21z"></path><path fill="#fff" d="M120.5 0v240h80V0zM0 80v80h320V80z"></path><path fill="#c8102e" d="M0 96.5v48h320v-48zM136.5 0v240h48V0z"></path></svg>