<svg xmlns="http://www.w3.org/2000/svg" xmlns:xlink="http://www.w3.org/1999/xlink" aria-hidden="true" role="img" class="iconify iconify--flag" width="1.34em" height="1em" preserveAspectRatio="xMidYMid meet" viewBox="0 0 640 480"><defs><clipPath id="IconifyId17f59e8e925581923303"><path fill-opacity=".7" d="M-87.6 0H595v512H-87.6z"></path></clipPath></defs><g fill-rule="evenodd" clip-path="url(#IconifyId17f59e8e925581923303)" transform="translate(82.1) scale(.94)"><path fill="#fff" d="M619.4 512H-112V0h731.4z"></path><path fill="#00c" d="M619.4 115.2H-112V48h731.4zm0 350.5H-112v-67.2h731.4zm-483-275l110.1 191.6L359 191.6l-222.6-.8z"></path><path fill="#fff" d="m225.8 317.8l20.9 35.5l21.4-35.3l-42.4-.2z"></path><path fill="#00c" d="M136 320.6L246.2 129l112.4 190.8l-222.6.8z"></path><path fill="#fff" d="m225.8 191.6l20.9-35.5l21.4 35.4l-42.4.1zM182 271.1l-21.7 36l41-.1l-19.3-36zm-21.3-66.5l41.2.3l-19.8 36.3l-21.4-36.6zm151.2 67l20.9 35.5l-41.7-.5l20.8-35zm20.5-67l-41.2.3l19.8 36.3l21.4-36.6zm-114.3 0L189.7 256l28.8 50.3l52.8 1.2l32-51.5l-29.6-52l-55.6.5z"></path></g></svg>