<svg xmlns="http://www.w3.org/2000/svg" xmlns:xlink="http://www.w3.org/1999/xlink" aria-hidden="true" role="img" class="iconify iconify--flag" width="1em" height="1em" preserveAspectRatio="xMidYMid meet" viewBox="0 0 512 512"><defs><path id="IconifyId17f59e8e925581923314" fill="#fff" d="M478.4 549.2a17.8 17.8 0 1 1-35.5 0a17.8 17.8 0 0 1 35.5 0z"></path><path id="IconifyId17f59e8e925581923315" fill="#fff" stroke="#000" stroke-width="1pt" d="M478.4 549.2a17.8 17.8 0 1 1-35.5 0a17.8 17.8 0 0 1 35.5 0z"></path><path id="IconifyId17f59e8e925581923316" fill="#fff100" stroke="#000" stroke-width="3" d="M1240.2 531.5s15.3-35.4 70.9-35.4c37.8 0 70.8 35.4 70.8 70.8v70.9h35.5v-70.9c0-35.4 35.4-70.8 70.8-70.8c53.2 0 70.9 35.4 70.9 35.4s0-106.3-70.9-106.3c-53.1 0-70.8 35.4-70.8 35.4s17.7-53.1 17.7-106.3c0-53.2-35.4-88.6-35.4-88.6c0 6.8-35.5 35.5-35.5 88.6c0 53.1 17.7 106.3 17.7 106.3s-17.7-35.4-70.8-35.4c-70.9 0-70.9 106.3-70.9 106.3z"></path><path id="IconifyId17f59e8e925581923317" fill="#fff100" stroke="#000" stroke-width="1pt" d="M708.7 832.7v-124S815 744 815 832.7z"></path><path id="IconifyId17f59e8e925581923318" fill="#fff100" stroke="#000" stroke-width="1pt" d="M602.4 832.7C602.4 744 708.7 688 708.7 688S815 744 815 832.7z"></path><path id="IconifyId17f59e8e925581923319" fill="#fff100" stroke="#000" stroke-width="2.2" d="M1257.9 496s35.4-53 70.9-53h35.4v35.3c0 53.2-53.1 71-53.1 71h141.7s-53.2-17.8-53.2-71V443h35.5c35.4 0 70.8 53.2 70.8 53.2V354.3s-35.4 53.2-70.8 53.2h-35.5V372c0-53.1 53.2-70.8 53.2-70.8H1311s53.1 17.7 53.1 70.8v35.5h-35.4c-35.5 0-70.9-53.2-70.9-53.2v141.8z"></path><path id="IconifyId17f59e8e925581923320" fill="#fff100" stroke="#000" stroke-width="3.3" d="M1381.9 549.2h70.9s-53.2-17.7-53.2-70.9V443h35.4c35.5 0 71 53.2 71 53.2V354.3s-35.5 53.2-71 53.2h-35.4V372c0-53.1 53.2-70.8 53.2-70.8h-70.9z"></path><path id="IconifyId17f59e8e925581923321" fill="#fff" stroke="#000" stroke-width="1pt" d="M903.5 602.4a17.7 17.7 0 1 1-35.4 0a17.7 17.7 0 0 1 35.4 0z"></path></defs><path fill="#000063" fill-rule="evenodd" d="M512 444c-5.7 7-10.6 23.4-25.9 23.4c-30.5 0-38.1-34.6-61-34.6c-15.2 0-22.8 34.7-38 34.7c-30.6 0-38.2-34.7-61-34.7c-15.3 0-22.9 34.7-38 34.7c-30.6 0-38.2-34.7-61-34.7c-15.3 0-22.9 34.7-38.1 34.7c-30.5 0-38.1-34.7-61-34.7c-15.3 0-22.9 34.7-38.1 34.7c-30.5 0-38.1-34.7-61-34.7c-15.2 0-19.7 24.7-28.9 24.7V502c9.2 0 13.7-24.7 29-24.7c22.8 0 30.5 34.7 60.9 34.7c15.3 0 22.9-34.7 38.1-34.7c22.9 0 30.5 34.7 61 34.7c15.2 0 22.8-34.7 38-34.7c22.9 0 30.6 34.7 61 34.7c15.3 0 22.9-34.7 38.1-34.7c22.9 0 30.5 34.7 61 34.7c15.2 0 22.8-34.7 38-34.7c22.9 0 30.6 34.7 61 34.7c15.3 0 20.2-9.8 25.9-16.8zm0-86.6c-5.7 7.1-10.6 23.4-25.9 23.4c-30.5 0-38.1-34.6-61-34.6c-15.2 0-22.8 34.6-38 34.6c-30.6 0-38.2-34.6-61-34.6c-15.3 0-22.9 34.6-38 34.6c-30.6 0-38.2-34.6-61-34.6c-15.3 0-22.9 34.6-38.1 34.6c-30.5 0-38.1-34.6-61-34.6c-15.3 0-22.9 34.6-38.1 34.6c-30.5 0-38.1-34.6-61-34.6c-15.2 0-19.7 24.7-28.9 24.7v44.6c9.2 0 13.7-24.7 29-24.7c22.8 0 30.5 34.7 60.9 34.7c15.3 0 22.9-34.7 38.1-34.7c22.9 0 30.5 34.7 61 34.7c15.2 0 22.8-34.7 38-34.7c22.9 0 30.6 34.7 61 34.7c15.3 0 22.9-34.7 38.1-34.7c22.9 0 30.5 34.7 61 34.7c15.2 0 22.8-34.7 38-34.7c22.9 0 30.6 34.7 61 34.7c15.3 0 20.2-9.8 25.9-16.9zm0-86.6c-5.7 7.2-10.6 23.5-25.9 23.5c-30.5 0-38.1-34.7-61-34.7c-15.2 0-22.8 34.7-38 34.7c-30.6 0-38.2-34.7-61-34.7c-15.3 0-22.9 34.7-38 34.7c-30.6 0-38.2-34.7-61-34.7c-15.3 0-22.9 34.7-38.1 34.7c-30.5 0-38.1-34.7-61-34.7c-15.3 0-22.9 34.7-38.1 34.7c-30.5 0-38.1-34.7-61-34.7c-15.2 0-19.7 24.8-28.9 24.8v44.5c9.2 0 13.7-24.6 29-24.6c22.8 0 30.5 34.6 60.9 34.6c15.3 0 22.9-34.6 38.1-34.6c22.9 0 30.5 34.6 61 34.6c15.2 0 22.8-34.6 38-34.6c22.9 0 30.6 34.6 61 34.6c15.3 0 22.9-34.6 38.1-34.6c22.9 0 30.5 34.6 61 34.6c15.2 0 22.8-34.6 38-34.6c22.9 0 30.6 34.6 61 34.6c15.3 0 20.2-9.9 25.9-16.9zm0-86.5c-5.7 7-10.6 23.4-25.9 23.4c-30.5 0-38.1-34.6-61-34.6c-15.2 0-22.8 34.6-38 34.6c-30.6 0-38.2-34.6-61-34.6c-15.3 0-22.9 34.6-38 34.6c-30.6 0-38.2-34.6-61-34.6c-15.3 0-22.9 34.6-38.1 34.6c-30.5 0-38.1-34.6-61-34.6c-15.3 0-22.9 34.6-38.1 34.6c-30.5 0-38.1-34.6-61-34.6c-15.2 0-19.7 24.7-28.9 24.7v44.6c9.2 0 13.7-24.7 29-24.7c22.8 0 30.5 34.7 60.9 34.7c15.3 0 22.9-34.7 38.1-34.7c22.9 0 30.5 34.7 61 34.7c15.2 0 22.8-34.7 38-34.7c22.9 0 30.6 34.7 61 34.7c15.3 0 22.9-34.7 38.1-34.7c22.9 0 30.5 34.7 61 34.7c15.2 0 22.8-34.7 38-34.7c22.9 0 30.6 34.7 61 34.7c15.3 0 20.2-10 25.9-17zm0-86.6c-5.7 7-10.6 23.5-25.9 23.5c-30.5 0-38.1-34.7-61-34.7c-15.2 0-22.8 34.7-38 34.7c-30.6 0-38.2-34.7-61-34.7c-15.3 0-22.9 34.7-38 34.7c-30.6 0-38.2-34.7-61-34.7c-15.3 0-22.9 34.7-38.1 34.7c-30.5 0-38.1-34.7-61-34.7c-15.3 0-22.9 34.7-38.1 34.7c-30.5 0-38.1-34.7-61-34.7c-15.2.1-19.8 25-28.9 25V156c9.2 0 13.7-24.7 29-24.7c22.8 0 30.4 34.6 61 34.6c15.2 0 22.8-34.6 38-34.6c22.9 0 30.5 34.6 61 34.6c15.2 0 22.8-34.6 38-34.6c22.9 0 30.5 34.6 61 34.6c15.3 0 22.9-34.6 38.1-34.6c22.9 0 30.5 34.6 61 34.6c15.2 0 22.8-34.6 38-34.6c22.9 0 30.6 34.6 61 34.6c15.2 0 20.2-9.8 25.9-16.9V98Zm0-86.5c-5.7 7-10.6 23.5-25.9 23.5c-30.5 0-38.1-34.7-61-34.7c-15.2 0-22.8 34.7-38 34.7c-30.6 0-38.2-34.7-61-34.7c-15.3 0-22.9 34.7-38 34.7c-30.6 0-38.2-34.7-61-34.7c-15.3 0-22.9 34.7-38.2 34.7C158.4 34.7 151 0 128 0c-15.3 0-22.8 34.7-38.1 34.7C59.4 34.7 51.8 0 28.9 0C13.8 0 9.2 24.8 0 24.8v44.6c9.2 0 13.7-24.7 29-24.7c22.8 0 30.4 34.7 61 34.7c15.2 0 22.8-34.7 38-34.7c22.9 0 30.5 34.7 61 34.7c15.2 0 22.8-34.7 38-34.7c22.9 0 30.5 34.7 61 34.7c15.3 0 22.9-34.7 38.1-34.7c22.9 0 30.5 34.7 61 34.7c15.2 0 22.8-34.7 38-34.7c22.9 0 30.6 34.7 61 34.7c15.2 0 20.2-9.9 25.9-17z"></path><path fill="#a24300" fill-rule="evenodd" stroke="#fff" stroke-width="1.9" d="M377.3 169L374 470.2c0 15.9 14.3 15.9 15.8 0l-3.1-301z"></path><path fill="#006d00" fill-rule="evenodd" stroke="#fff" stroke-width="1.7" d="m410.1 281l-10-11l-2.4 11.1l-4.4-16l-4 8l-.7-17l-4 8.1l-.8-17l-4 8l-2.4-20l-4 8l-2.3-20l-4 8l-2.4-20l-1.1-10l2-4l5.2 2l8.4 7.9l16.7 15.9l-10.4-4l16.8 16l-10.4-4l16.8 16l-10.4-4l15.1 13l-10.4-4l15.2 12.9l-10.4-4l11.5 14l-12-7l2.8 13.1z"></path><path fill="none" stroke="#000" stroke-width=".3" d="m410.1 281l-44.5-83.8M396 223l-24-13.8l-4.9 22"></path><path fill="none" stroke="#000" stroke-width=".3" d="m402.3 235l-24-13.9l-4.9 22.2"></path><path fill="none" stroke="#000" stroke-width=".3" d="m408.7 247l-24-13.9l-5 22.1"></path><path fill="none" stroke="#000" stroke-width=".3" d="M413.4 256L391 245l-6.5 19.1"></path><path fill="none" stroke="#000" stroke-width=".3" d="m418.2 265l-22.4-11l-6.5 19.2"></path><path fill="none" stroke="#000" stroke-width=".3" d="M419.3 275L399 260l-1.4 21.1"></path><path fill="#006d00" fill-rule="evenodd" stroke="#fff" stroke-width="1.8" d="m293.2 138l16.3 6.3l-4.7-12.4l14.2 14l-1.3-10l11.5 16.8l-1.4-10l11.6 16.8l-1.4-10.1l15 19l-1.4-10l14.9 19l-1.4-10l15 19l7.4 9.6l.7 5l-6.1.5l-13-4l-25.7-7.9l12.2-1l-25.8-8l12.3-1l-25.8-8l12.2-1l-22.4-5.7l12.2-1l-22.4-5.7l12.2-1.1l-19.6-8.5l15.6 1.2l-10.8-11.8z"></path><path fill="none" stroke="#000" stroke-width=".3" d="m293.2 138l95 63m-44.8-11.4l31.2 2.4l-9.5-24.6"></path><path fill="none" stroke="#000" stroke-width=".3" d="M329.8 180.6L361 183l-9.4-24.6"></path><path fill="none" stroke="#000" stroke-width=".3" d="m316.3 171.7l31.2 2.3l-9.5-24.6"></path><path fill="none" stroke="#000" stroke-width=".3" d="M306.1 165h27.8l-6-22.4"></path><path fill="none" stroke="#000" stroke-width=".3" d="M296 158.2h27.8l-6.1-22.3"></path><path fill="none" stroke="#000" stroke-width=".3" d="m288.5 148.6l28.5 5.2l-12.2-21.9"></path><path fill="#006d00" fill-rule="evenodd" stroke="#fff" stroke-width="1.8" d="M482.5 159L469 169l15 1.7l-21 5l11.2 3.2l-22.6 1.7l11.1 3.3l-22.6 1.6l11.1 3.3l-26.4 3.3l11.1 3.3l-26.4 3.3l11.1 3.4l-26.4 3.3L381 207l-5.6-1.6l2-5l9.8-8.3l19.5-16.5l-4.2 9.9L422 169l-4.2 9.9l19.5-16.5l-4.2 9.9l15.7-14.9l-4.2 10l15.6-15l-4.1 10l17.4-11.6l-8 11.6l17-3.3z"></path><path fill="none" stroke="#000" stroke-width=".3" d="m482.5 159l-107 46.3m31.2-29.7l-16 23.1l30 3.4"></path><path fill="none" stroke="#000" stroke-width=".3" d="m422 169l-16 23l30 3.3"></path><path fill="none" stroke="#000" stroke-width=".3" d="m437.3 162.4l-16 23.1l30 3.3"></path><path fill="none" stroke="#000" stroke-width=".3" d="m448.8 157.4l-12.2 21.5l26.1 5"></path><path fill="none" stroke="#000" stroke-width=".3" d="M460.3 152.4L448 174l26 5"></path><path fill="none" stroke="#000" stroke-width=".3" d="m473.5 150.8l-17.8 19.8H484"></path><path fill="#006d00" fill-rule="evenodd" stroke="#fff" stroke-width="1.8" d="m480.4 259.3l-17-5l6.1 12l-15.7-12.9l2.4 10l-13.2-15.9l2.4 10l-13.3-15.9l2.4 10l-16.8-17.9l2.4 10l-16.9-17.8l2.4 9.9l-16.9-17.8l-8.4-9l-1.2-4.9l6-1l13.3 3l26.5 5.8l-12 2l26.4 5.9l-12 2l26.5 5.8l-12 2l22.9 4l-12 2l22.8 3.8l-12 2l20.4 7h-15.6l12 10.9z"></path><path fill="none" stroke="#000" stroke-width=".3" d="M480.4 259.3L379 204m45.8 7.8l-31.4.1l12.1 23.8"></path><path fill="none" stroke="#000" stroke-width=".3" d="M439.3 219.8H408l12 23.8"></path><path fill="none" stroke="#000" stroke-width=".3" d="m453.8 227.6l-31.3.2l12 23.7"></path><path fill="none" stroke="#000" stroke-width=".3" d="m464.7 233.5l-27.8 2.1l8.5 21.8"></path><path fill="none" stroke="#000" stroke-width=".3" d="m475.5 239.4l-27.7 2.1l8.4 21.8"></path><path fill="none" stroke="#000" stroke-width=".3" d="m484 248.3l-29-2.8l14.5 20.8"></path><path fill="#006d00" fill-rule="evenodd" stroke="#fff" stroke-width="1.7" d="m304.4 265l8.5-11.8l-13 1.9l16-9l-10.2-.5l18.4-6.6l-10.2-.4l18.3-6.5l-10.2-.5l21-8.8l-10.1-.5l21-8.8l-10.2-.4l21.1-8.9l10.5-4.4l5.1.2l-.3 5l-5.7 9.4l-11.6 19l.7-9.7l-11.5 19l.6-9.7l-11.5 19l.7-9.7L333 259l.6-9.7l-8.8 16.7l.7-9.8l-11.2 14.2l3.4-12.1l-13.3 6.7z"></path><path fill="none" stroke="#000" stroke-width=".3" d="m304.4 265l76-65M363 233.5l6.7-24l-25.9 3.7"></path><path fill="none" stroke="#000" stroke-width=".3" d="m352 242.8l6.7-24.2l-25.8 3.7"></path><path fill="none" stroke="#000" stroke-width=".3" d="m341.1 252l6.9-24l-25.9 3.7"></path><path fill="none" stroke="#000" stroke-width=".3" d="m333 259l4-21.8l-23.1 1.4"></path><path fill="none" stroke="#000" stroke-width=".3" d="m324.8 266l4-21.9l-23 1.5"></path><path fill="none" stroke="#000" stroke-width=".3" d="m314.3 270.4l9.1-21.6l-23.4 6.3"></path><path fill="#006d00" fill-rule="evenodd" stroke="#fff" stroke-width="1.8" d="m458 109l-16.4 11l-2.6-11.7l-9.7 16.2l-1.8-7.8l-7.8 16.7l-1.1-7.7l-6.2 17.1l-3.5-8.2l-6.1 20.8l-3.5-8.3l-6.1 20.8l-3.5-8.2l-6.2 20.7l-3 10.4l1.7 4.2l6.6-2.2l11.4-8.4l22.7-16.9l-13 4.3l22.7-16.8l-13.2 4.3l22.8-16.9l-13.1 4.3l22.8-13.1l-15.6 3.7l24.6-12.7l-15 3.9l18-14.3l-15.5 7.4z"></path><path fill="none" stroke="#000" stroke-width=".3" d="M451.7 115L428 135.3L382.2 195"></path><path fill="none" stroke="#000" stroke-width=".3" d="m418 170l-26.2 12.4l-2.2-19"></path><path fill="none" stroke="#000" stroke-width=".3" d="m428 157.6l-26.5 12.3l-2.2-19"></path><path fill="none" stroke="#000" stroke-width=".3" d="m437.4 145l-26.3 12.3l-2-19"></path><path fill="none" stroke="#000" stroke-width=".3" d="m445.3 135.7l-24.5 9l-2.9-15.4"></path><path fill="none" stroke="#000" stroke-width=".3" d="m454.3 126.7l-26.3 8.7l-1-15.1"></path><path fill="none" stroke="#000" stroke-width=".3" d="m457.8 118.2l-24.3 12.5l4.7-18.9"></path><path fill="#006d00" fill-rule="evenodd" stroke="#fff" stroke-width="1.8" d="m369.3 88.5l7.4 16.7l9.4-8.8l-1.7 18.2l6.3-5.9l-3.4 17.8l5.6-6.1l-5.2 17.3l8-5.4l-7.3 20.5l8-5.5l-7.4 20.5l8-5.5l-7.4 20.5l-3.7 10.3l-4 2.7l-4.3-4.8l-4.6-12.3l-9.2-24.6l8.6 9.6l-9.2-24.6l8.6 9.5l-9.2-24.6l8.5 9.6l-11.4-21.4l11 10.1l-13.2-21.8l10.4 10l-6.7-20.3l8.7 13.4z"></path><path fill="none" stroke="#000" stroke-width=".3" d="m371.2 96.4l7.8 28l2.9 71.4"></path><path fill="none" stroke="#000" stroke-width=".3" d="m366.5 158.5l14.8 22.3l13.4-15.3"></path><path fill="none" stroke="#000" stroke-width=".3" d="m365.5 143.4l15.2 22.3l13.4-15.2"></path><path fill="none" stroke="#000" stroke-width=".3" d="m365.1 128.4l15 22.3l13.2-15.3"></path><path fill="none" stroke="#000" stroke-width=".3" d="m364 117l15.5 18.7l11.8-12"></path><path fill="none" stroke="#000" stroke-width=".3" d="m361.8 105.3l17.2 19.1l10-12.4"></path><path fill="none" stroke="#000" stroke-width=".3" d="m364 96.4l13.2 21.6l7.4-18.3"></path><path fill="#006d00" fill-rule="evenodd" stroke="#fff" stroke-width="1.7" d="m271.2 211.3l21.4-14.8l-10.7-5.5l18.7 3.2l-6.4-8.5l18.2 6.8l-6.5-8.5l18.3 6.8l-6.5-8.4l22 7.4l-6.4-8.5l21.4 11l-6.5-8.4l22 7.4l10.7 5.5l3.2 4.3l-4.3 3l-11.7 1.6l-19 7.8l3.5-6.7L329 210l8.6-5.9l-24.1 7l8.5-6l-20.3 7.7l9.1-9.6l-20.9 11.2l9.1-9.5l-17 11.9l9.5-13.2z"></path><path fill="none" stroke="#000" stroke-width=".3" d="m278 207.3l22-9.5l12-1.8l9.8-.1l17 1l15.2.7l30 3.4"></path><path fill="none" stroke="#000" stroke-width=".3" d="m352 210.4l17-10.4l-17.3-13.5"></path><path fill="none" stroke="#000" stroke-width=".3" d="m333 208.8l20.9-11.1l-17.2-13.5"></path><path fill="none" stroke="#000" stroke-width=".3" d="m319.5 208.5l19.1-11.5l-17.3-12.5m-27 27l17.6-15.4l-14.3-7.8"></path><path fill="none" stroke="#000" stroke-width=".3" d="m286.4 212.6l13.7-14.8l-11-4m16.9 16l17.4-13.8l-14-9.5"></path><g fill-rule="evenodd"><path fill="#c00" stroke="#000" stroke-width="1pt" d="m541.5 1173.3l-1.7-229.1l-61.1-107c-15.3-52.6-7.8-78 17-79.8c24.7-1.6 49.2 13.6 84.8 15.3c35.6 1.7 28.9-59.4 81.5-57.7c52.6 1.7 144.3 32.3 222.3 37.4c78.1 5 118.8-27.2 208.8-30.6c90-3.4 113.7 42.4 118.8 42.4c5.1 0 30.6-18.6 56-22c25.5-3.4 34 10.2 34 10.2s-1.7 57.7-13.6 91.6c-11.9 34-54.3 90-56 90c-1.7 0-15.3 249.5-15.3 251.2c0 1.7-675.5-6.8-675.5-11.9z" transform="matrix(.11838 0 0 .10897 278.98 245.74)"></path><g stroke="#000" stroke-width="1pt"><path fill="#fff100" d="M531.5 584.6s-68-52-69.8-177.1c-1-72 34.4-124 123-124c124 0 301.1 53.1 301.1 53.1v17.7s-141.7-53.1-301.2-53.1c-70.8 0-106.3 52-106.3 105.2c0 88.6 71 178.3 71 178.3v141.7h-17.8z" transform="matrix(-.11838 0 0 .10897 488.715 284.308)"></path><use xlink:href="#IconifyId17f59e8e925581923314" transform="matrix(-.11838 0 0 .10897 486.808 284.134)"></use><use xlink:href="#IconifyId17f59e8e925581923314" transform="matrix(-.11838 0 0 .10897 488.888 279.714)"></use><use xlink:href="#IconifyId17f59e8e925581923314" transform="matrix(-.11838 0 0 .10897 490.015 275.207)"></use><use xlink:href="#IconifyId17f59e8e925581923314" transform="matrix(-.11838 0 0 .10897 490.795 270.44)"></use><use xlink:href="#IconifyId17f59e8e925581923314" transform="matrix(-.11838 0 0 .10897 490.622 265.24)"></use><use xlink:href="#IconifyId17f59e8e925581923314" transform="matrix(-.11838 0 0 .10897 483.775 288.034)"></use><use xlink:href="#IconifyId17f59e8e925581923314" transform="matrix(-.11838 0 0 .10897 488.802 260.3)"></use><use xlink:href="#IconifyId17f59e8e925581923314" transform="matrix(-.11838 0 0 .10897 484.902 256.4)"></use><use xlink:href="#IconifyId17f59e8e925581923314" transform="matrix(-.11838 0 0 .10897 479.702 253.8)"></use><use xlink:href="#IconifyId17f59e8e925581923314" transform="matrix(-.11838 0 0 .10897 474.502 253.454)"></use><use xlink:href="#IconifyId17f59e8e925581923314" transform="matrix(-.11838 0 0 .10897 468.868 253.627)"></use><use xlink:href="#IconifyId17f59e8e925581923314" transform="matrix(-.11838 0 0 .10897 463.235 254.407)"></use><use xlink:href="#IconifyId17f59e8e925581923314" transform="matrix(-.11838 0 0 .10897 457.688 255.1)"></use><use xlink:href="#IconifyId17f59e8e925581923314" transform="matrix(-.11838 0 0 .10897 451.622 255.967)"></use><use xlink:href="#IconifyId17f59e8e925581923314" transform="matrix(-.11838 0 0 .10897 446.422 257.354)"></use></g><use xlink:href="#IconifyId17f59e8e925581923315" stroke-width="1pt" transform="matrix(.11838 0 0 .10897 280.888 284.134)"></use><use xlink:href="#IconifyId17f59e8e925581923315" stroke-width="1pt" transform="matrix(.11838 0 0 .10897 278.72 279.714)"></use><use xlink:href="#IconifyId17f59e8e925581923315" stroke-width="1pt" transform="matrix(.11838 0 0 .10897 277.68 275.207)"></use><use xlink:href="#IconifyId17f59e8e925581923315" stroke-width="1pt" transform="matrix(.11838 0 0 .10897 276.9 270.44)"></use><use xlink:href="#IconifyId17f59e8e925581923315" stroke-width="1pt" transform="matrix(.11838 0 0 .10897 277.074 265.24)"></use><use xlink:href="#IconifyId17f59e8e925581923315" stroke-width="1pt" transform="matrix(.11838 0 0 .10897 278.808 260.3)"></use><use xlink:href="#IconifyId17f59e8e925581923315" stroke-width="1pt" transform="matrix(.11838 0 0 .10897 282.62 256.4)"></use><use xlink:href="#IconifyId17f59e8e925581923315" stroke-width="1pt" transform="matrix(.11838 0 0 .10897 287.908 253.8)"></use><use xlink:href="#IconifyId17f59e8e925581923315" stroke-width="1pt" transform="matrix(.11838 0 0 .10897 293.108 253.454)"></use><use xlink:href="#IconifyId17f59e8e925581923315" stroke-width="1pt" transform="matrix(.11838 0 0 .10897 298.741 253.627)"></use><use xlink:href="#IconifyId17f59e8e925581923315" stroke-width="1pt" transform="matrix(.11838 0 0 .10897 304.374 254.407)"></use><use xlink:href="#IconifyId17f59e8e925581923315" stroke-width="1pt" transform="matrix(.11838 0 0 .10897 310.008 255.1)"></use><use xlink:href="#IconifyId17f59e8e925581923315" stroke-width="1pt" transform="matrix(.11838 0 0 .10897 315.988 255.967)"></use><use xlink:href="#IconifyId17f59e8e925581923315" stroke-width="1pt" transform="matrix(.11838 0 0 .10897 321.188 257.354)"></use><use xlink:href="#IconifyId17f59e8e925581923315" stroke-width="1pt" transform="matrix(.11838 0 0 .10897 283.834 288.034)"></use><path fill="#fff100" stroke="#000" stroke-width="1pt" d="M531.5 584.6s-68-52-69.8-177.1c-1-72 34.4-124 123-124c124 0 301.1 53.1 301.1 53.1v17.7s-141.7-53.1-301.2-53.1c-70.8 0-106.3 52-106.3 105.2c0 88.6 71 178.3 71 178.3v141.7h-17.8z" transform="matrix(.11838 0 0 .10897 278.98 284.308)"></path><use xlink:href="#IconifyId17f59e8e925581923316" stroke-width="3" transform="matrix(.03946 0 0 .04151 307.581 333.101)"></use><use xlink:href="#IconifyId17f59e8e925581923316" stroke-width="3" transform="matrix(.03946 0 0 .04151 349.528 333.101)"></use><path fill="#fff100" stroke="#000" stroke-width="1pt" d="M531.5 832.7V673.2s35.4 53.2 88.6 53.2c43.5 0 88.6-70.9 88.6-70.9s41.5 53.2 88.6 53.2c42 0 88.5-68.6 88.5-68.6s43.2 68.6 88.6 68.6c45.5 0 88.6-53.2 88.6-53.2s46.3 70.9 106.3 70.9c53.1 0 70.9-53.2 70.9-53.2v159.5z" transform="matrix(.11838 0 0 .10897 278.98 284.308)"></path><use xlink:href="#IconifyId17f59e8e925581923317" stroke-width="1pt" transform="matrix(.11838 0 0 .10897 258.007 284.308)"></use><use xlink:href="#IconifyId17f59e8e925581923317" stroke-width="1pt" transform="matrix(-.11838 0 0 .10897 509.602 284.308)"></use><use xlink:href="#IconifyId17f59e8e925581923318" stroke-width="1pt" transform="matrix(.11838 0 0 .10897 278.98 284.308)"></use><use xlink:href="#IconifyId17f59e8e925581923318" stroke-width="1pt" transform="matrix(.11838 0 0 .10897 320.928 284.308)"></use><path fill="#fff100" stroke="#000" stroke-width="1pt" d="M584.6 847.5c0-88.6 124.1-159.4 124.1-159.4s124 70.8 124 159.4h-248z" transform="matrix(.11838 0 0 .10897 299.954 282.748)"></path><path fill="#fff" stroke="#000" stroke-width="1pt" d="M1275.6 655.5c-35.4-17.7-166-35.4-376.3-35.4s-350 17.7-385.5 35.4c-35.4 17.7-35.4 53.2 0 70.9c35.4 17.7 175.3 35.4 385.5 35.4s340.9-17.7 376.3-35.4c35.4-17.7 35.4-53.2 0-70.9z" transform="matrix(.11704 0 0 .10897 278.548 303.634)"></path><path fill="gray" d="M425.795 382.761c0 3.9-34.927 3.9-41.947 3.9c-7.627 0-41.947 1.04-41.947-3.9c0-3.813 34.58-3.813 41.947-3.813c7.28 0 41.947.78 41.947 3.813z"></path><path fill="#c00" d="M346.061 368.895c0 1.3-.867 2.34-2.08 2.34s-2.08-1.04-2.08-2.34c0-1.3.867-2.254 2.08-2.254c1.127 0 2.08 1.04 2.08 2.254zm79.734 0c0 1.3-.954 2.34-2.167 2.34c-1.127 0-2.08-1.04-2.08-2.34c0-1.3.953-2.254 2.08-2.254c1.213 0 2.08 1.04 2.08 2.254z"></path><path d="M388.008 367.768c0 1.213-1.907 2.253-4.16 2.253s-4.247-1.04-4.247-2.34c0-1.3 1.907-2.253 4.247-2.253s4.16 1.04 4.16 2.253z"></path><path fill="#006300" d="M408.115 367.768c0 1.213-1.387 2.253-3.12 2.253s-3.12-1.04-3.12-2.34c0-1.3 1.386-2.253 3.12-2.253s3.12 1.04 3.12 2.253zm-43.16 0c0 1.213-1.387 2.253-3.12 2.253s-3.207-1.04-3.207-2.34c0-1.3 1.387-2.253 3.207-2.253c1.733 0 3.12 1.04 3.12 2.253z"></path><use xlink:href="#IconifyId17f59e8e925581923319" stroke-width="2.2" transform="matrix(.06764 0 0 .06227 290.334 323.568)"></use><use xlink:href="#IconifyId17f59e8e925581923320" stroke-width="3.3" transform="matrix(.03383 0 0 .05449 295.1 331.628)"></use><use xlink:href="#IconifyId17f59e8e925581923320" stroke-width="3.3" transform="matrix(-.03383 0 0 .05449 472.508 331.628)"></use><use xlink:href="#IconifyId17f59e8e925581923321" stroke-width="1pt" transform="matrix(.11838 0 0 .10897 278.98 284.308)"></use><use xlink:href="#IconifyId17f59e8e925581923319" stroke-width="2.2" transform="matrix(.06764 0 0 .06227 290.334 283.008)"></use><use xlink:href="#IconifyId17f59e8e925581923321" stroke-width="1pt" transform="matrix(.11838 0 0 .10897 279.154 244.094)"></use><path fill="#fff100" stroke="#000" stroke-width="1pt" d="M850.4 655.5h70.9v53.2h-71z" transform="matrix(.11838 0 0 .10897 278.98 245.74)"></path><path fill="#fff100" stroke="#000" stroke-width="1pt" d="M850.4 683.3h70.9v202.5h-71z" transform="matrix(.11838 0 0 .10897 278.98 245.74)"></path><use xlink:href="#IconifyId17f59e8e925581923315" stroke-width="1pt" transform="matrix(.11838 0 0 .10897 329.248 278.5)"></use><use xlink:href="#IconifyId17f59e8e925581923315" stroke-width="1pt" transform="matrix(.11838 0 0 .10897 329.248 273.56)"></use><use xlink:href="#IconifyId17f59e8e925581923315" stroke-width="1pt" transform="matrix(.11838 0 0 .10897 329.248 268.967)"></use><use xlink:href="#IconifyId17f59e8e925581923315" stroke-width="1pt" transform="matrix(.11838 0 0 .10897 329.248 264.114)"></use><path d="M388.268 375.135c0 .866-1.907 1.56-4.333 1.56s-4.16-.694-4.16-1.56s1.906-1.56 4.246-1.56s4.247.693 4.247 1.56zm38.653 3.813c-.26.607-2.34.693-4.68.087c-2.34-.52-3.986-1.387-3.813-1.994c.26-.606 2.34-.693 4.68-.086c2.34.52 3.987 1.386 3.813 1.993zm-16.206-2.6c0 .78-2.08 1.213-4.507 1.127c-2.34-.174-4.247-.954-4.16-1.734c.087-.78 2.167-1.213 4.507-1.04c2.426.174 4.333.867 4.16 1.647zm-70.894 2.6c.173.607 2.253.693 4.593.087c2.34-.52 4.074-1.387 3.814-1.994c-.26-.606-2.34-.693-4.68-.086c-2.254.52-3.987 1.386-3.727 1.993zm16.9-2.947c.087.78 2.167 1.214 4.507 1.04c2.427-.173 4.333-.866 4.16-1.733c0-.693-2.08-1.213-4.507-1.04c-2.34.173-4.246.867-4.16 1.733z"></path></g><path fill="#012169" d="M0 0h256v256H0Z"></path><path fill="#fff" d="M256 0v32l-95 96l95 93.5V256h-33.5L127 162l-93 94H0v-34l93-93.5L0 37V0h31l96 94l93-94z"></path><path fill="#c8102e" d="m92 162l5.5 17L21 256H0v-1.5zm62-6l27 4l75 73.5V256ZM256 0l-96 98l-2-22l75-76ZM0 .5L96.5 95L67 91L0 24.5Z"></path><path fill="#fff" d="M88 0v256h80V0ZM0 88v80h256V88Z"></path><path fill="#c8102e" d="M0 104v48h256v-48ZM104 0v256h48V0Z"></path></svg>