<svg xmlns="http://www.w3.org/2000/svg" xmlns:xlink="http://www.w3.org/1999/xlink" aria-hidden="true" role="img" class="iconify iconify--flag" width="1em" height="1em" preserveAspectRatio="xMidYMid meet" viewBox="0 0 512 512"><defs><clipPath id="IconifyId17f59e8e925581923378"><path fill-opacity=".7" d="M6.2 0h18v18h-18z"></path></clipPath></defs><g clip-path="url(#IconifyId17f59e8e925581923378)" transform="translate(-176.4) scale(28.44445)"><path fill="#fff" d="M0 0h30v18H0z"></path><path fill="#df112d" fill-rule="evenodd" d="M0 0v1.2L13 9L0 16.8V18h2l13-7.8L28 18h2v-1.2L17 9l13-7.8V0h-2L15 7.8L2 0H0z"></path><g stroke="#000"><path fill="#e8112d" stroke-width=".012" d="M16.612 2.712c.379 1.564.171 3.494-1.576 4.57c-1.735-1.076-1.955-3.006-1.564-4.57c.416-.366 2.273-.598 3.14 0z"></path><path fill="#f9dd16" stroke-width=".012" d="M15.048 2.395c.55-.013 1.1.122 1.576.39a3.42 3.42 0 0 1 .599-1.478c-.306 0-.44.159-.44.318c-.073-.208-.367-.196-.464-.086c.33.22.073.611-.22.538c-.135-.037-.208-.134-.244-.281a.159.159 0 1 0-.062 0c-.085.122-.232.195-.378.159c-.16-.037-.232-.184-.232-.306c0-.33.317-.378.415-.317c0-.22-.354-.404-.464-.22c.122-.232.097-.526-.098-.709a.586.586 0 0 0-.098.697c-.11-.184-.452 0-.452.22c.086-.062.403-.013.403.317c0 .122-.073.269-.22.306a.367.367 0 0 1-.39-.16c.024 0 .048-.024.073-.048a.159.159 0 1 0-.135.049a.327.327 0 0 1-.244.28a.293.293 0 0 1-.22-.537c-.098-.122-.39-.122-.464.086c0-.16-.134-.318-.44-.318a3.42 3.42 0 0 1 .611 1.478a3.176 3.176 0 0 1 1.588-.378z"></path><g fill="#f9dd16" stroke-width=".012"><path d="M16.368 3.934c-.05 0-.05.061-.061.061c.097 0 .146-.037.17-.086v.074c.074-.025.098-.086.074-.122l.085.024c-.048-.037-.012-.122-.097-.171c.024 0 .073.024.097.061c-.012-.085-.024-.134-.097-.183h.06a.11.11 0 0 1-.048-.098c0-.049-.025-.049-.073-.037l-.22.013c-.123 0-.245 0-.342-.074c.158.074.366-.073.366-.183c0-.122-.17-.244-.489-.171c-.317.073-.708.049-.708-.061s.28-.122.427-.098c.147.025.245.037.514-.06c-.062.024-.281.036-.452-.013s-.587-.049-.587.17c0 .233.44.209.83.148c.22-.025.343 0 .343.06c0 .074-.208.098-.367.086a1.222 1.222 0 0 0-.5.037c-.16.049-.27 0-.44.036c-.086 0-.293 0-.391-.17c-.061.048-.245.134-.281.232c-.037.073 0 .158.049.244c.073.098-.037.085-.123.085c-.097 0-.244 0-.317-.097c-.073-.074-.159-.135-.232-.086c-.037.037 0 .073.024.061l.098.025a.122.122 0 0 0-.122.012c-.037.024 0 .073.036.061c.025-.012.086-.024.123 0c-.037 0-.086 0-.098.024s0 .05.036.05c.074 0 .086.048.16.036a.11.11 0 0 0-.086.049c.073-.037.134.049.22.024c-.025.012-.086.05-.086.074c.049-.062.391.048.391-.086l-.012.098c.037-.025.17-.037.22-.122c0 .024 0 .06-.025.073c.037 0 .098-.025.16-.11c.024-.037.024-.061.024-.086a.213.213 0 0 0 .146-.048c.05-.037.098.036.183-.025c.074-.049.147 0 .196-.024c.037-.025.098 0 .147-.025s.122.012.195-.049c.122.05.281.123.635.061c.196-.036.27.037.27.123c0 .073-.05.073-.074.073c-.122.012-.16-.037-.208-.025c-.024.013-.049.062 0 .086c-.037.012-.037.049-.012.061s.06 0 .098-.012c-.05.012-.086.049-.062.085c.013.025.05.037.086 0c.037-.048.098-.085.147-.085zm-2.273-.977c-.097-.037-.122-.037-.11.048c0 .037.037.086.061.11c0-.036.013-.122.05-.146z"></path><path d="M14.425 2.969c.098-.05.135-.05.11.036c0 .037-.037.086-.061.11c0-.036 0-.122-.049-.146z"></path><path d="M14.266 2.908c.196 0 .22.097.208.207c0 .123-.061.074-.098.245c-.012.049-.06.06-.122.06c-.037 0-.085 0-.11-.073c-.037-.158-.098-.122-.098-.244c0-.098.025-.195.22-.195z"></path><path d="M13.765 3.36c-.048-.025-.085 0-.11 0c.074.012.074.097.22.122c-.036 0-.049.024-.085 0c.06.049.122.11.269.11c.085 0 .024.036-.025.012c.049.061.159.012.232.122c0-.085-.122-.208-.06-.293c-.208-.012-.22-.122-.33-.208c-.098-.073-.11-.146-.147-.28c-.012-.062-.086-.098-.122-.086c-.037 0-.062.036-.025.06c.025.025.073.025.073.086c-.036-.048-.097-.06-.122-.036c-.012.024 0 .06.025.06c.06 0 .024.074.085.123c-.06-.061-.11-.073-.146-.037c-.013.025 0 .061.048.061c.062 0 .123.147.22.184zm1.589.562c-.025 0-.013.06-.061.06c.097 0 .158-.024.195-.06l-.024.06c.048-.036.183-.048.244-.036s.073-.012.098-.049c.024-.049 0-.073-.037-.098c-.037-.036-.049-.085-.037-.158c-.17-.245-.488-.123-.488-.025c.11.135.122.122.22.135c.085.024.146.024.085.073c-.024.024-.122 0-.183.012c-.159 0-.245-.11-.281-.049c-.037.05 0 .074.073.074c-.049 0-.122 0-.11.048c.025.086.098-.012.135.013c-.025 0-.074.012-.074.036c0 .025.061.061.122 0a.195.195 0 0 1 .123-.036z"></path></g><path fill="none" stroke-width=".012" d="M15.488 3.567a.269.269 0 0 0-.171-.024m-.684 0c-.05.098-.025.147-.012.195m-.49-.684c.025.025.05-.024.099.025c-.013-.013-.037.036-.074 0m.245-.013c-.037 0-.061-.036-.11.013c.012-.013.036.036.073 0m-.073 0v.036c.012.086.036.123-.037.123c-.061 0-.037-.037-.024-.123V3.08"></path><path fill="#ff0016" stroke-width=".012" d="M14.266 3.384c.05 0 .074 0 .074-.073c0-.025.036-.037.012-.086c.024.05-.086.05-.086.025c0 .024-.122.024-.097-.025c-.013.05.024.061.012.086c0 .073.024.073.085.073z"></path><path stroke-width=".012" d="m14.205 3.238l-.122-.037m.122.037h-.122m.122.012l-.11.036m.208-.048l.122-.037m-.122.037h.147m-.147.012l.122.036"></path><path fill="#0051ba" stroke="none" d="M13.607 2.859c-.037-.05-.123 0-.123.049c.025-.037.074.012.11 0c.013 0 .037-.025.013-.05zm-.037.11c-.037-.05-.134 0-.134.049c.024-.037.073.012.11 0c.012 0 .036-.037.024-.05zm-.025.146c-.048-.049-.134 0-.122.061c.025-.036.074 0 .098 0c.024-.012.037-.048.012-.06zm.037.452c-.049-.049-.122.013-.122.074c.024-.05.085 0 .122-.025c0 0 .025-.036 0-.06zm0 .086c-.06-.012-.122.073-.085.122c0-.061.073-.037.097-.061l-.012-.061zm.073.085c-.06-.024-.122.05-.085.098c0-.037.073-.024.085-.049v-.06zm1.43.135c-.061-.012-.122.06-.086.122c0-.061.074-.037.098-.061l-.012-.061zm.073.073c-.06-.012-.11.073-.073.122c0-.06.073-.049.085-.073c.013-.012.013-.049 0-.049zm-.049-.17c-.049-.025-.122.048-.11.097c.025-.05.086-.012.11-.037v-.049zm1.014.121c-.049-.012-.097.074-.073.122c0-.048.073-.036.098-.06c0-.025 0-.062-.025-.062zm0-.085c-.049-.037-.122.036-.097.085c.024-.036.085-.012.11-.036v-.062zm.05.159c-.062 0-.11.085-.074.122c0-.05.073-.037.085-.061c.013-.025 0-.05-.012-.061zm-1.907-.636c.037 0 .05.012.05.086c0 .122 0 .195-.05.195c-.036 0-.036-.06-.036-.159c0-.048 0-.085-.013-.073c0-.037.013-.049.05-.049z"></path><g fill="#f9dd16" stroke-width=".012"><path d="M16.184 5.217c-.036 0-.036.049-.049.049c.086 0 .123-.025.147-.074v.061c.073-.012.098-.073.073-.11l.074.025c-.037-.025 0-.11-.086-.147c.025 0 .061.012.086.05c0-.074-.025-.123-.086-.16h.05a.098.098 0 0 1-.038-.098c0-.036-.024-.036-.073-.024h-.195c-.11 0-.22 0-.306-.061c.147.073.33-.061.33-.159c0-.122-.159-.22-.44-.159c-.28.074-.635.05-.635-.049s.244-.122.379-.097c.134.024.22.036.464-.05c-.049.025-.244.038-.403-.011s-.526-.05-.526.158c0 .208.391.184.733.123c.208-.013.318 0 .318.06s-.183.086-.33.074a1.1 1.1 0 0 0-.452.037c-.146.049-.244 0-.39.036c-.086 0-.27 0-.367-.158c-.05.048-.208.122-.245.207c-.024.073 0 .147.05.22c.06.086-.037.073-.123.073c-.073 0-.208 0-.28-.085c-.062-.061-.135-.122-.209-.073c-.024.036 0 .06.025.048l.085.025a.11.11 0 0 0-.11.012c-.024.025 0 .073.037.061c.025-.012.073-.024.11 0l-.085.012c-.013.013 0 .05.036.05c.061 0 .073.048.135.036a.098.098 0 0 0-.074.037c.061-.025.122.048.196.024c-.025.012-.074.049-.074.073c.037-.06.355.037.355-.085l-.012.085c.024-.012.146-.024.195-.11c0 .025 0 .061-.024.074c.036 0 .085-.025.146-.098c.025-.037.025-.061.025-.086c.048 0 .085 0 .122-.036c.049-.037.097.036.17-.025c.062-.049.123 0 .172-.024c.036-.025.098 0 .134-.025s.122.013.183-.036c.11.036.245.11.562.049c.184-.025.245.036.245.122c0 .06-.037.06-.061.06c-.122 0-.147-.036-.196-.024c-.012 0-.036.05 0 .074c-.024.012-.024.049 0 .06s.05 0 .086-.011c-.05 0-.086.036-.061.073c.012.024.049.037.085 0c.025-.037.086-.073.122-.073zm-2.04-.88c-.085-.037-.122-.037-.098.037c0 .036.037.085.05.11c0-.037.011-.123.048-.135z"></path><path d="M14.45 4.35c.073-.05.122-.05.085.024a.182.182 0 0 1-.049.11c0-.037 0-.123-.049-.135z"></path><path d="M14.303 4.288c.171 0 .195.086.183.196c0 .11-.06.06-.085.22c-.013.036-.061.048-.122.048c-.025 0-.074 0-.086-.06c-.037-.147-.098-.123-.098-.22s.025-.184.208-.184z"></path><path d="M13.839 4.704c-.037-.025-.074 0-.086 0c.061 0 .061.085.196.11h-.086c.061.036.122.097.244.097c.086 0 .025.025-.024 0c.049.061.147.012.22.122c0-.085-.122-.195-.061-.268c-.183-.013-.196-.123-.293-.184c-.086-.073-.098-.134-.135-.256c-.012-.061-.073-.086-.122-.073c-.024 0-.049.024 0 .048c0 .025.061.025.061.074c-.036-.037-.098-.05-.122-.025c0 .025 0 .05.024.05c.062 0 .025.072.086.121c-.061-.06-.098-.073-.134-.036c-.013.012 0 .049.036.049c.061 0 .122.122.208.17zm1.441.488c-.024 0-.012.061-.06.061c.085 0 .146-.012.182-.049l-.024.05c.037-.025.159-.037.22-.025s.061-.012.085-.049c.025-.037 0-.061-.036-.086c-.025-.036-.037-.073-.025-.146c-.158-.22-.44-.11-.44-.025c.098.123.11.123.196.123c.073.024.122.024.073.073c-.024.024-.11 0-.158 0c-.147 0-.22-.086-.257-.037c-.037.05 0 .061.061.061c-.037 0-.11 0-.098.05c.025.073.086 0 .122 0c-.024 0-.06.024-.06.048c0 .012.048.049.11 0a.171.171 0 0 1 .11-.037z"></path></g><path fill="none" stroke-width=".012" d="M15.402 4.887a.244.244 0 0 0-.158-.025m-.611 0c-.05.086-.025.123-.012.171m-.44-.61c.012.024.036-.025.085.024c-.012-.012-.036.037-.073 0m.22-.012c-.025 0-.049-.037-.098 0c.012 0 .037.049.073 0m-.073 0v.049c.012.073.037.11-.024.11s-.037-.037-.025-.123v-.024"></path><path fill="#ff0016" stroke-width=".012" d="M14.303 4.716c.037 0 .061 0 .061-.061c0-.025.037-.037 0-.074c.037.037-.061.037-.061.013c0 .024-.122.024-.098-.013c0 .037.025.05.012.074c0 .06.025.06.086.06z"></path><path stroke-width=".012" d="m14.242 4.594l-.11-.037m.11.037h-.11m.11 0l-.098.036m.183-.036l.123-.037m-.123.037h.135m-.122 0l.097.036"></path><path fill="#0051ba" stroke="none" d="M13.704 4.252c-.036-.05-.122 0-.122.036c.037-.024.073.012.11 0c0 0 .037-.024 0-.036zm-.036.097c-.025-.049-.123 0-.123.037c.025-.025.074.012.098 0c.012 0 .037-.025.025-.037zm-.025.122c-.036-.036-.122 0-.11.062c.025-.037.074 0 .098 0c.012 0 .024-.05 0-.05zm.037.416c-.037-.05-.11 0-.11.06c.024-.036.073 0 .122-.024v-.036zm0 .073c-.049 0-.11.073-.073.122c0-.06.06-.049.085-.06V4.96zm.073.073c-.06-.012-.122.05-.085.098c0-.037.073-.024.085-.049v-.049zm1.283.123c-.061 0-.122.06-.073.122c0-.061.06-.037.085-.061l-.012-.061zm.061.073c-.049-.012-.098.061-.061.11c0-.061.061-.049.073-.073v-.037zm-.037-.159c-.048-.024-.122.049-.097.086c.012-.037.073 0 .097-.025v-.049zm.904.122c-.036-.024-.085.061-.06.098c0-.037.06-.037.085-.049c0-.024 0-.061-.025-.061zm0-.085c-.036-.037-.11.036-.085.073c.024-.037.073 0 .098-.037v-.049zm.05.146c-.062 0-.098.074-.062.11c0-.049.061-.036.074-.06l-.013-.05zm-1.711-.574c.024 0 .037 0 .037.073c0 .11 0 .171-.037.171s-.037-.048-.037-.134c0-.049 0-.085-.012-.073c0-.025 0-.037.049-.037z"></path><g fill="#f9dd16" stroke-width=".1"><path d="M130.7 32.2c-.4 0-.4.5-.5.5c.8 0 1.2-.3 1.4-.7v.6c.6-.2.8-.7.6-1l.7.2c-.4-.3-.1-1-.8-1.4c.2 0 .6.2.8.5c-.1-.7-.2-1.1-.8-1.5h.5a.9.9 0 0 1-.4-.8c0-.4-.2-.4-.6-.3l-1.8.1c-1 0-2 0-2.8-.6c1.3.6 3-.6 3-1.5c0-1-1.4-2-4-1.4c-2.6.6-5.8.4-5.8-.5s2.3-1 3.5-.8c1.2.2 2 .3 4.2-.5c-.5.2-2.3.3-3.7-.1s-4.8-.4-4.8 1.4c0 1.9 3.6 1.7 6.8 1.2c1.8-.2 2.8 0 2.8.5c0 .6-1.7.8-3 .7a10 10 0 0 0-4.1.3c-1.3.4-2.2 0-3.6.3c-.7 0-2.4 0-3.2-1.4c-.5.4-2 1.1-2.3 1.9c-.3.6 0 1.3.4 2c.6.8-.3.7-1 .7c-.8 0-2 0-2.6-.8c-.6-.6-1.3-1.1-1.9-.7c-.3.3 0 .6.2.5l.8.2a1 1 0 0 0-1 .1c-.3.2 0 .6.3.5c.2-.1.7-.2 1 0c-.3 0-.7 0-.8.2s0 .4.3.4c.6 0 .7.4 1.3.3a.9.9 0 0 0-.7.4c.6-.3 1.1.4 1.8.2c-.2.1-.7.4-.7.6c.4-.5 3.2.4 3.2-.7l-.1.8c.3-.2 1.4-.3 1.8-1c0 .2 0 .5-.2.6c.3 0 .8-.2 1.3-.9c.2-.3.2-.5.2-.7c.5 0 .8-.1 1.2-.4c.4-.3.8.3 1.5-.2c.6-.4 1.2 0 1.6-.2c.3-.2.8 0 1.2-.2s1 .1 1.6-.4c1 .4 2.3 1 5.2.5c1.6-.3 2.2.3 2.2 1c0 .6-.4.6-.6.6c-1 .1-1.3-.3-1.7-.2c-.2.1-.4.5 0 .7c-.3.1-.3.4-.1.5s.5 0 .8-.1c-.4.1-.7.4-.5.7c.1.2.4.3.7 0c.3-.4.8-.7 1.2-.7zm-18.6-8c-.8-.3-1-.3-.9.4c0 .3.3.7.5.9c0-.3.1-1 .4-1.2z" transform="matrix(.08 0 0 .1 5.19 3.36)"></path><path d="M114.8 24.3c.8-.4 1.1-.4.9.3c0 .3-.3.7-.5.9c0-.3 0-1-.4-1.2z" transform="matrix(.08 0 0 .1 5.19 3.36)"></path><path d="M113.5 23.8c1.6 0 1.8.8 1.7 1.7c0 1-.5.6-.8 2c-.1.4-.5.5-1 .5c-.3 0-.7 0-.9-.6c-.3-1.3-.8-1-.8-2c0-.8.2-1.6 1.8-1.6z" transform="matrix(.08 0 0 .1 5.19 3.36)"></path><path d="M109.4 27.5c-.4-.2-.7 0-.9 0c.6.1.6.8 1.8 1c-.3 0-.4.2-.7 0c.5.4 1 .9 2.2.9c.7 0 .2.3-.2.1c.4.5 1.3.1 1.9 1c0-.7-1-1.7-.5-2.4c-1.7-.1-1.8-1-2.7-1.7c-.8-.6-.9-1.2-1.2-2.3c-.1-.5-.7-.8-1-.7c-.3 0-.5.3-.2.5c.2.2.6.2.6.7c-.3-.4-.8-.5-1-.3c-.1.2 0 .5.2.5c.5 0 .2.6.7 1c-.5-.5-.9-.6-1.2-.3c-.1.2 0 .5.4.5c.5 0 1 1.2 1.8 1.5zm13 4.6c-.2 0-.1.5-.5.5c.8 0 1.3-.2 1.6-.5l-.2.5c.4-.3 1.5-.4 2-.3s.6-.1.8-.4c.2-.4 0-.6-.3-.8c-.3-.3-.4-.7-.3-1.3c-1.4-2-4-1-4-.2c.9 1.1 1 1 1.8 1.1c.7.2 1.2.2.7.6c-.2.2-1 0-1.5.1c-1.3 0-2-.9-2.3-.4c-.3.4 0 .6.6.6c-.4 0-1 0-.9.4c.2.7.8-.1 1.1.1c-.2 0-.6.1-.6.3c0 .2.5.5 1 0a1.6 1.6 0 0 1 1-.3z" transform="matrix(.08 0 0 .1 5.19 3.36)"></path></g><path fill="none" stroke-width=".1" d="M123.5 29.2c-.4-.2-.9-.3-1.4-.2m-5.6 0c-.4.8-.2 1.2-.1 1.6m-4-5.6c.2.2.4-.2.8.2c-.1-.1-.3.3-.6 0m2-.1c-.3 0-.5-.3-.9.1c.1-.1.3.3.6 0m-.6 0v.3c.1.7.3 1-.3 1c-.5 0-.3-.3-.2-1v-.3" transform="matrix(.08 0 0 .1 5.19 3.36)"></path><path fill="#ff0016" stroke-width=".1" d="M113.5 27.7c.4 0 .6 0 .6-.6c0-.2.3-.3.1-.7c.2.4-.7.4-.7.2c0 .2-1 .2-.8-.2c-.1.4.2.5.1.7c0 .6.2.6.7.6z" transform="matrix(.08 0 0 .1 5.19 3.36)"></path><path stroke-width=".1" d="m113 26.5l-1-.3m1 .3h-1m1 .1l-.9.3m1.7-.4l1-.3m-1 .3h1.2m-1.2.1l1 .3" transform="matrix(.08 0 0 .1 5.19 3.36)"></path><path fill="#0051ba" stroke="none" d="M13.838 5.7c-.024-.04-.08 0-.08.04c.016-.03.048.01.072 0c.008 0 .024-.02.008-.04zm-.024.09c-.024-.04-.088 0-.088.04c.016-.03.048.01.072 0c.008 0 .024-.03.016-.04zm-.016.12c-.032-.04-.088 0-.08.05c.016-.03.048 0 .064 0c.016-.01.024-.04.008-.05zm.024.37c-.032-.04-.08.01-.08.06c.016-.04.056 0 .08-.02c0 0 .016-.03 0-.05zm0 .07c-.04-.01-.08.06-.056.1c0-.05.048-.03.064-.05l-.008-.05zm.048.07c-.04-.02-.08.04-.056.08c0-.03.048-.02.056-.04v-.05zm.936.11c-.04-.01-.08.05-.056.1c0-.05.048-.03.064-.05l-.008-.05zm.048.06c-.04-.01-.072.06-.048.1c0-.05.048-.04.056-.06c.008-.01.008-.04 0-.04zm-.032-.14c-.032-.02-.08.04-.072.08c.016-.04.056-.01.072-.03v-.04zm.664.1c-.032-.01-.064.06-.048.1c0-.04.048-.03.064-.05c0-.02 0-.05-.016-.05zm0-.07c-.032-.03-.08.03-.064.07c.016-.03.056-.01.072-.03v-.05zm.032.13c-.04 0-.072.07-.048.1c0-.04.048-.03.056-.05c.008-.02 0-.04-.008-.05zm-1.248-.52c.024 0 .032.01.032.07c0 .1 0 .16-.032.16c-.024 0-.024-.05-.024-.13c0-.04 0-.07-.008-.06c0-.03.008-.04.032-.04z"></path></g></g></svg>