<svg xmlns="http://www.w3.org/2000/svg" xmlns:xlink="http://www.w3.org/1999/xlink" aria-hidden="true" role="img" class="iconify iconify--flag" width="1em" height="1em" preserveAspectRatio="xMidYMid meet" viewBox="0 0 512 512"><defs><path id="IconifyId17f59e8e925581923384" fill="#000" stroke-miterlimit="10" d="m-28.6 47.5l1.8 1l46.7-81c2.7-.6 4.2-3.2 5.7-5.8c1-1.8 5-8.7 6.7-17.7a58 58 0 0 0-11.9 14.7c-1.5 2.6-3 5.2-2.3 7.9z"></path></defs><path fill="#fff" d="M0 0h512v512H0z"></path><path d="M0 0h512v153.6H0z"></path><path fill="#060" d="M0 358.4h512V512H0z"></path><g id="IconifyId17f59e8e925581923385" transform="matrix(3.2 0 0 3.2 255.8 256)"><use width="100%" height="100%" stroke="#000" href="#IconifyId17f59e8e925581923384"></use><use width="100%" height="100%" fill="#fff" href="#IconifyId17f59e8e925581923384"></use></g><use width="100%" height="100%" href="#IconifyId17f59e8e925581923385" transform="matrix(-1 0 0 1 511.7 0)"></use><path fill="#b00" d="M255.8 102.4c-19.2 0-51.2 51.2-60.8 76.8H0v153.6h195c9.7 25.6 41.7 76.8 60.9 76.8c19.2 0 51.2-51.2 60.8-76.8H512V179.2H316.6c-9.6-25.6-41.6-76.8-60.8-76.8z"></path><path id="IconifyId17f59e8e925581923386" fill="#000" d="M316.6 332.8a220 220 0 0 0 16-76.8a220 220 0 0 0-16-76.8a220 220 0 0 0-16 76.8a220 220 0 0 0 16 76.8"></path><use width="100%" height="100%" href="#IconifyId17f59e8e925581923386" transform="matrix(-1 0 0 1 511.7 0)"></use><g fill="#fff" transform="matrix(3.2 0 0 3.2 255.8 256)"><ellipse rx="4" ry="6"></ellipse><path id="IconifyId17f59e8e925581923387" d="M1 5.8s4 8 4 21s-4 21-4 21z"></path><use width="100%" height="100%" href="#IconifyId17f59e8e925581923387" transform="scale(-1)"></use><use width="100%" height="100%" href="#IconifyId17f59e8e925581923387" transform="scale(-1 1)"></use><use width="100%" height="100%" href="#IconifyId17f59e8e925581923387" transform="scale(1 -1)"></use></g></svg>