<svg xmlns="http://www.w3.org/2000/svg" xmlns:xlink="http://www.w3.org/1999/xlink" aria-hidden="true" role="img" class="iconify iconify--flag" width="1.34em" height="1em" preserveAspectRatio="xMidYMid meet" viewBox="0 0 640 480"><defs><clipPath id="IconifyId17f59e8e925581923406"><path fill-opacity=".7" d="M-95.8-.4h682.7v512H-95.8z"></path></clipPath></defs><g fill-rule="evenodd" clip-path="url(#IconifyId17f59e8e925581923406)" transform="translate(89.8 .4) scale(.9375)"><path fill="#fff" d="M-95.8-.4H587v512H-95.8Z"></path><g transform="rotate(-56.3 361.6 -101.333) scale(10.66667)"><g id="IconifyId17f59e8e925581923407"><path id="IconifyId17f59e8e925581923408" fill="#000" d="M-6-26H6v2H-6Zm0 3H6v2H-6Zm0 3H6v2H-6Z"></path><use width="100%" height="100%" y="44" href="#IconifyId17f59e8e925581923408"></use></g><path stroke="#fff" d="M0 17v10"></path><path fill="#cd2e3a" d="M0-12a12 12 0 0 1 0 24Z"></path><path fill="#0047a0" d="M0-12a12 12 0 0 0 0 24A6 6 0 0 0 0 0Z"></path><circle cy="-6" r="6" fill="#cd2e3a"></circle></g><g transform="rotate(-123.7 191.2 62.211) scale(10.66667)"><use width="100%" height="100%" href="#IconifyId17f59e8e925581923407"></use><path stroke="#fff" d="M0-23.5v3M0 17v3.5m0 3v3"></path></g></g></svg>