<svg xmlns="http://www.w3.org/2000/svg" xmlns:xlink="http://www.w3.org/1999/xlink" aria-hidden="true" role="img" class="iconify iconify--flag" width="1em" height="1em" preserveAspectRatio="xMidYMid meet" viewBox="0 0 512 512"><path fill="#c00" d="M0 0h512v512H0z"></path><path fill="#fff" d="M.4 42.5h511.2v41H.4zm0 84h511.2v41H.4zm0 84.1h511.2v41H.4z"></path><path fill="#006" d="M0 0h256v298.7H0Z"></path><path fill="#fc0" d="m172.5 86.8l5.6 38.2l21.6-32l-11.6 36.8l33.3-19.4l-26.4 28.1l38.5-3l-36 13.8l36 14l-38.5-3.1l26.4 28L188 169l11.6 36.7l-21.6-31.9l-5.6 38.1l-5.6-38l-21.5 31.8l11.5-36.7l-33.2 19.4l26.3-28.1l-38.4 3l36-13.9l-36-13.9l38.4 3.1l-26.3-28.1l33.2 19.4L145.4 93l21.5 32zm-31.2 1.6a66.7 66.7 0 1 0 0 121.9a75 75 0 1 1 0-121.9z"></path><path fill="#fff" d="M.4 294.6h511.2v41H.4zm0 83.5h511.2v41H.4zM0 471h511.2v41H0z"></path></svg>