<svg xmlns="http://www.w3.org/2000/svg" xmlns:xlink="http://www.w3.org/1999/xlink" aria-hidden="true" role="img" class="iconify iconify--flag" width="1.34em" height="1em" preserveAspectRatio="xMidYMid meet" viewBox="0 0 640 480"><path fill="#c00" d="M0 0h640v480H0z"></path><path fill="#fff" d="M.5 39.9h639v38.4H.5zm0 78.7h639V157H.5zm0 78.8h639v38.4H.5z"></path><path fill="#006" d="M0 .5h320v280H0Z"></path><path fill="#fc0" d="m207.5 73.8l6 40.7l23-34l-12.4 39.2l35.5-20.8l-28.1 30l41-3.2l-38.3 14.8l38.3 14.8l-41-3.2l28.1 30l-35.5-20.8l12.3 39.3l-23-34.1l-6 40.7l-5.9-40.7l-23 34l12.4-39.2l-35.5 20.8l28-30l-41 3.2l38.4-14.8l-38.3-14.8l41 3.2l-28.1-30l35.5 20.8l-12.4-39.3l23 34.1zm-33.3 1.7a71.1 71.1 0 1 0 0 130a80 80 0 1 1 0-130z"></path><path fill="#fff" d="M.5 276.2h639v38.4H.5zm0 78.2h639v38.4H.5zM0 441.6h639V480H0z"></path></svg>