<svg xmlns="http://www.w3.org/2000/svg" xmlns:xlink="http://www.w3.org/1999/xlink" aria-hidden="true" role="img" class="iconify iconify--flag" width="1em" height="1em" preserveAspectRatio="xMidYMid meet" viewBox="0 0 512 512"><defs><clipPath id="IconifyId17f59e8e925581923734"><path fill-opacity=".7" d="M124 0h496v496H124z"></path></clipPath></defs><g fill-rule="evenodd" clip-path="url(#IconifyId17f59e8e925581923734)" transform="translate(-128) scale(1.0321)"><path fill="#e70013" d="M0 0h744v496H0z"></path><path fill="#fff" d="M497.8 247.8a125.1 125.1 0 1 1-250.2 0a125.1 125.1 0 0 1 250.2 0z"></path><path fill="#e70013" d="M372.7 330.8a83 83 0 0 1-83-83a83 83 0 0 1 83-83c11.4 0 24.5 2.7 33.3 9.2c-60.6 2.3-76 53.7-76 74.5s9.8 67 76 73.8a70.4 70.4 0 0 1-33.3 8.5z"></path><path fill="#e70013" d="M445.8 282.7L408.1 269l-24.9 31.4l1.4-40l-37.6-14l38.6-11.1l1.7-40l22.4 33.2l38.6-10.8l-24.7 31.6z"></path></g></svg>