<svg xmlns="http://www.w3.org/2000/svg" xmlns:xlink="http://www.w3.org/1999/xlink" aria-hidden="true" role="img" class="iconify iconify--flag" width="1.34em" height="1em" preserveAspectRatio="xMidYMid meet" viewBox="0 0 640 480"><defs><clipPath id="IconifyId17f59e8e925581923735"><path fill-opacity=".7" d="M-85.3 0h682.6v512H-85.3z"></path></clipPath></defs><g fill-rule="evenodd" clip-path="url(#IconifyId17f59e8e925581923735)" transform="translate(80) scale(.9375)"><path fill="#e70013" d="M-128 0h768v512h-768z"></path><path fill="#fff" d="M385.8 255.8a129.1 129.1 0 1 1-258.2 0a129.1 129.1 0 0 1 258.2 0z"></path><path fill="#e70013" d="M256.7 341.4a85.7 85.7 0 0 1 0-171.3c11.8 0 25.3 2.8 34.4 9.5c-62.6 2.3-78.5 55.5-78.5 76.9s10.1 69.1 78.5 76.2c-7.8 5-22.6 8.7-34.4 8.7z"></path><path fill="#e70013" d="m332.1 291.8l-38.9-14.2l-25.7 32.4l1.5-41.3l-38.8-14.5l39.8-11.4l1.7-41.3l23.2 34.3l39.8-11l-25.5 32.5z"></path></g></svg>