<svg xmlns="http://www.w3.org/2000/svg" xmlns:xlink="http://www.w3.org/1999/xlink" aria-hidden="true" role="img" class="iconify iconify--flag" width="1em" height="1em" preserveAspectRatio="xMidYMid meet" viewBox="0 0 512 512"><g fill-rule="evenodd"><g stroke-width="1pt"><path fill="#bd3d44" d="M0 0h972.81v39.385H0zm0 78.77h972.81v39.385H0zm0 78.77h972.81v39.385H0zm0 78.77h972.81v39.385H0zm0 78.77h972.81v39.385H0zm0 78.77h972.81v39.385H0zm0 78.77h972.81v39.385H0z"></path><path fill="#fff" d="M0 39.385h972.81V78.77H0zm0 78.77h972.81v39.385H0zm0 78.77h972.81v39.385H0zm0 78.77h972.81v39.385H0zm0 78.77h972.81v39.385H0zm0 78.77h972.81v39.385H0z"></path></g><path fill="#192f5d" d="M0 0h389.124v275.695H0z"></path><path fill="#fff" d="m32.296 11.816l3.938 11.027h11.028l-9.059 6.696l3.545 10.634l-9.452-6.696l-8.665 6.696l3.545-10.634l-9.453-6.696H29.54zm64.985 0l3.545 11.027h11.421l-9.452 6.696l3.938 10.634l-9.452-6.696l-9.452 6.696l3.938-10.634l-9.452-6.696h11.421zm64.985 0l3.545 11.027h11.421l-9.452 6.696l3.939 10.634l-9.453-6.696l-9.452 6.696l3.938-10.634l-9.452-6.696h11.422zm64.592 0l3.938 11.027h11.028l-9.059 6.696l3.545 10.634l-9.452-6.696l-9.059 6.696l3.545-10.634l-9.453-6.696h11.816zm64.985 0l3.544 11.027h11.422l-9.452 6.696l3.938 10.634l-9.846-6.696l-9.059 6.696l3.545-10.634l-9.452-6.696h11.421zm64.985 0l3.545 11.027h11.421l-9.452 6.696l3.938 10.634l-9.452-6.696l-9.452 6.696l3.938-10.634l-9.452-6.696h11.421zM64.985 39.385l3.545 11.028h11.422l-9.453 6.695l3.939 10.634l-9.453-6.695l-9.452 6.695l3.938-10.634l-9.452-6.695h11.422zm64.592 0l3.938 11.028h11.028l-9.059 6.695l3.545 10.634l-9.452-6.695l-9.059 6.695l3.545-10.634l-9.453-6.695h11.816zm64.985 0l3.545 11.028h11.421l-9.452 6.695l3.938 10.634l-9.452-6.695l-9.453 6.695l3.939-10.634l-9.452-6.695h11.421zm64.985 0l3.545 11.028h11.421l-9.452 6.695L269 67.742l-9.453-6.695l-9.452 6.695l3.938-10.634l-9.452-6.695h11.422zm64.592 0l3.938 11.028h10.634l-9.059 6.695l3.545 10.634l-9.452-6.695l-9.059 6.695l3.545-10.634l-9.453-6.695h11.816zm-291.45 27.57l3.151 11.027h11.816l-9.453 6.696l3.545 10.634l-9.452-6.696l-8.665 6.696l3.545-10.634l-9.453-6.696H29.54zm64.592 0l3.545 11.027h11.421l-9.058 6.696l3.544 10.634l-9.452-6.696l-9.059 6.696l3.545-10.634l-9.452-6.696h11.421zm64.985 0l3.545 11.027h11.421l-9.452 6.696l3.939 10.634l-9.453-6.696l-9.452 6.696l3.938-10.634l-9.452-6.696h11.422zm64.592 0l3.938 11.027h11.028l-9.059 6.696l3.545 10.634l-9.452-6.696l-9.059 6.696l3.545-10.634l-9.453-6.696h11.816zm64.985 0l3.544 11.027h11.422l-9.058 6.696l3.544 10.634l-9.452-6.696l-9.059 6.696l3.545-10.634l-9.452-6.696h11.421zm64.985 0l3.545 11.027h11.421l-9.452 6.696l3.938 10.634l-9.452-6.696l-9.452 6.696l3.938-10.634l-9.452-6.696h11.421zM64.985 94.523l3.545 11.028h11.422l-9.453 6.695l3.939 10.634l-9.453-6.695l-9.452 6.695l3.938-10.634l-9.452-6.695h11.422zm64.592 0l3.938 11.028h11.028l-9.059 6.695l3.545 10.634l-9.452-6.695l-9.059 6.695l3.545-10.634l-9.453-6.695h11.816zm64.985 0l3.545 11.028h11.421l-9.058 6.695l3.544 10.634l-9.452-6.695l-9.059 6.695l3.545-10.634l-9.452-6.695h11.421zm64.985 0l3.545 11.028h11.421l-9.452 6.695L269 122.881l-9.453-6.695l-9.452 6.695l3.938-10.634l-9.452-6.695h11.422zm64.592 0l3.938 11.028h10.634l-9.059 6.695l3.545 10.634l-9.452-6.695l-9.059 6.695l3.545-10.634l-9.453-6.695h11.816zm-291.45 27.57l3.151 11.027h11.816l-9.453 6.696l3.545 10.634l-9.452-6.696l-8.665 6.696l3.545-10.634l-9.453-6.696H29.54zm64.592 0l3.545 11.027h11.421l-9.058 6.696l3.544 10.634l-9.452-6.696l-9.059 6.696l3.545-10.634l-9.452-6.696h11.421zm64.985 0l3.545 11.027h11.421l-9.452 6.696l3.939 10.634l-9.453-6.696l-9.452 6.696l3.938-10.634l-9.452-6.696h11.422zm64.592 0l3.938 11.027h11.028l-9.059 6.696l3.545 10.634l-9.452-6.696l-9.059 6.696l3.545-10.634l-9.453-6.696h11.816zm64.985 0l3.544 11.027h11.422l-9.058 6.696l3.544 10.634l-9.452-6.696l-9.059 6.696l3.545-10.634l-9.452-6.696h11.421zm64.985 0l3.545 11.027h11.421l-9.452 6.696l3.938 10.634l-9.452-6.696l-9.452 6.696l3.938-10.634l-9.452-6.696h11.421zM64.985 149.662l3.545 11.028h11.422l-9.453 6.695l3.939 10.634l-9.453-6.695l-9.452 6.695l3.938-10.634l-9.452-6.695h11.422zm64.592 0l3.938 11.028h11.028l-9.059 6.695l3.545 10.634l-9.452-6.695l-9.059 6.695l3.545-10.634l-9.453-6.695h11.816zm64.985 0l3.545 11.028h11.421l-9.058 6.695l3.544 10.634l-9.452-6.695l-9.059 6.695l3.545-10.634l-9.452-6.695h11.421zm64.985 0l3.545 11.028h11.421l-9.452 6.695L269 178.02l-9.453-6.695l-9.452 6.695l3.938-10.634l-9.452-6.695h11.422zm64.592 0l3.938 11.028h10.634l-9.059 6.695l3.545 10.634l-9.452-6.695l-9.059 6.695l3.545-10.634l-9.453-6.695h11.816zm-291.45 27.57l3.151 11.027h11.816l-9.453 6.696l3.545 10.634l-9.452-6.696l-8.665 6.696l3.545-10.634l-9.453-6.696H29.54zm64.592 0l3.545 11.027h11.421l-9.058 6.696l3.544 10.634l-9.452-6.696l-9.059 6.696l3.545-10.634l-9.452-6.696h11.421zm64.985 0l3.545 11.027h11.421l-9.452 6.696l3.939 10.634l-9.453-6.696l-9.452 6.696l3.938-10.634l-9.452-6.696h11.422zm64.592 0l3.938 11.027h11.028l-9.059 6.696l3.545 10.634l-9.452-6.696l-9.059 6.696l3.545-10.634l-9.453-6.696h11.816zm64.985 0l3.544 11.027h11.422l-9.058 6.696l3.544 10.634l-9.452-6.696l-9.059 6.696l3.545-10.634l-9.452-6.696h11.421zm64.985 0l3.545 11.027h11.421l-9.452 6.696l3.938 10.634l-9.452-6.696l-9.452 6.696l3.938-10.634l-9.452-6.696h11.421zm-291.843 27.57l3.545 11.028h11.422l-9.453 6.695l3.939 10.634l-9.453-6.695l-9.452 6.695l3.938-10.634l-9.452-6.695h11.422zm64.592 0l3.938 11.028h11.028l-9.059 6.695l3.545 10.634l-9.452-6.695l-9.059 6.695l3.545-10.634l-9.453-6.695h11.816zm64.985 0l3.545 11.028h11.421l-9.058 6.695l3.544 10.634l-9.452-6.695l-9.059 6.695l3.545-10.634l-9.452-6.695h11.421zm64.985 0l3.545 11.028h11.421l-9.452 6.695L269 233.16l-9.453-6.695l-9.452 6.695l3.938-10.634l-9.452-6.695h11.422zm64.592 0l3.938 11.028h10.634l-9.059 6.695l3.545 10.634l-9.452-6.695l-9.059 6.695l3.545-10.634l-9.453-6.695h11.816zm-291.45 27.57l3.151 11.027h11.816l-9.453 6.696l3.545 10.634l-9.452-6.696l-8.665 6.696l3.545-10.634l-9.453-6.696H29.54zm64.592 0l3.545 11.027h11.421l-9.058 6.696l3.544 10.634l-9.452-6.696l-9.059 6.696l3.545-10.634l-9.452-6.696h11.421zm64.985 0l3.545 11.027h11.421l-9.452 6.696l3.939 10.634l-9.453-6.696l-9.452 6.696l3.938-10.634l-9.452-6.696h11.422zm64.592 0l3.938 11.027h11.028l-9.059 6.696l3.545 10.634l-9.452-6.696l-9.059 6.696l3.545-10.634l-9.453-6.696h11.816zm64.985 0l3.544 11.027h11.422l-9.058 6.696l3.544 10.634l-9.452-6.696l-9.059 6.696l3.545-10.634l-9.452-6.696h11.421zm64.985 0l3.545 11.027h11.421l-9.452 6.696l3.938 10.634l-9.452-6.696l-9.452 6.696l3.938-10.634l-9.452-6.696h11.421z"></path></g></svg>