<svg xmlns="http://www.w3.org/2000/svg" xmlns:xlink="http://www.w3.org/1999/xlink" aria-hidden="true" role="img" class="iconify iconify--flag" width="1em" height="1em" preserveAspectRatio="xMidYMid meet" viewBox="0 0 512 512"><path fill="#1eb53a" d="M0 341.3h512V512H0z"></path><path fill="#0099b5" d="M0 0h512v170.7H0z"></path><path fill="#ce1126" d="M0 163.8h512v184.4H0z"></path><path fill="#fff" d="M0 174h512v164H0z"></path><circle cx="143.4" cy="81.9" r="61.4" fill="#fff"></circle><circle cx="163.8" cy="81.9" r="61.4" fill="#0099b5"></circle><g fill="#fff" transform="translate(278.5 131) scale(2.048)"><g id="IconifyId17f59e8e925581923754"><g id="IconifyId17f59e8e925581923755"><g id="IconifyId17f59e8e925581923756"><g id="IconifyId17f59e8e925581923757"><path id="IconifyId17f59e8e925581923758" d="M0-6L-1.9-.3L1 .7"></path><use width="100%" height="100%" href="#IconifyId17f59e8e925581923758" transform="scale(-1 1)"></use></g><use width="100%" height="100%" href="#IconifyId17f59e8e925581923757" transform="rotate(72)"></use></g><use width="100%" height="100%" href="#IconifyId17f59e8e925581923757" transform="rotate(-72)"></use><use width="100%" height="100%" href="#IconifyId17f59e8e925581923756" transform="rotate(144)"></use></g><use width="100%" height="100%" y="-24" href="#IconifyId17f59e8e925581923755"></use><use width="100%" height="100%" y="-48" href="#IconifyId17f59e8e925581923755"></use></g><use width="100%" height="100%" x="24" href="#IconifyId17f59e8e925581923754"></use><use width="100%" height="100%" x="48" href="#IconifyId17f59e8e925581923754"></use><use width="100%" height="100%" x="-48" href="#IconifyId17f59e8e925581923755"></use><use width="100%" height="100%" x="-24" href="#IconifyId17f59e8e925581923755"></use><use width="100%" height="100%" x="-24" y="-24" href="#IconifyId17f59e8e925581923755"></use></g></svg>