<svg xmlns="http://www.w3.org/2000/svg" xmlns:xlink="http://www.w3.org/1999/xlink" aria-hidden="true" role="img" class="iconify iconify--flag" width="1.34em" height="1em" preserveAspectRatio="xMidYMid meet" viewBox="0 0 640 480"><path fill="#1eb53a" d="M0 320h640v160H0z"></path><path fill="#0099b5" d="M0 0h640v160H0z"></path><path fill="#ce1126" d="M0 153.6h640v172.8H0z"></path><path fill="#fff" d="M0 163.2h640v153.6H0z"></path><circle cx="134.4" cy="76.8" r="57.6" fill="#fff"></circle><circle cx="153.6" cy="76.8" r="57.6" fill="#0099b5"></circle><g fill="#fff" transform="matrix(1.92 0 0 1.92 261.1 122.9)"><g id="IconifyId17f59e8e925581923759"><g id="IconifyId17f59e8e925581923760"><g id="IconifyId17f59e8e925581923761"><g id="IconifyId17f59e8e925581923762"><path id="IconifyId17f59e8e925581923763" d="M0-6L-1.9-.3L1 .7"></path><use width="100%" height="100%" href="#IconifyId17f59e8e925581923763" transform="scale(-1 1)"></use></g><use width="100%" height="100%" href="#IconifyId17f59e8e925581923762" transform="rotate(72)"></use></g><use width="100%" height="100%" href="#IconifyId17f59e8e925581923762" transform="rotate(-72)"></use><use width="100%" height="100%" href="#IconifyId17f59e8e925581923761" transform="rotate(144)"></use></g><use width="100%" height="100%" y="-24" href="#IconifyId17f59e8e925581923760"></use><use width="100%" height="100%" y="-48" href="#IconifyId17f59e8e925581923760"></use></g><use width="100%" height="100%" x="24" href="#IconifyId17f59e8e925581923759"></use><use width="100%" height="100%" x="48" href="#IconifyId17f59e8e925581923759"></use><use width="100%" height="100%" x="-48" href="#IconifyId17f59e8e925581923760"></use><use width="100%" height="100%" x="-24" href="#IconifyId17f59e8e925581923760"></use><use width="100%" height="100%" x="-24" y="-24" href="#IconifyId17f59e8e925581923760"></use></g></svg>