<svg xmlns="http://www.w3.org/2000/svg" xmlns:xlink="http://www.w3.org/1999/xlink" aria-hidden="true" role="img" class="iconify iconify--flag" width="1em" height="1em" preserveAspectRatio="xMidYMid meet" viewBox="0 0 512 512"><defs><clipPath id="IconifyId17f59e8e925581923856"><path fill-opacity=".7" d="M0 0h496v496H0z"></path></clipPath></defs><g clip-path="url(#IconifyId17f59e8e925581923856)" transform="scale(1.0321)"><g fill-rule="evenodd"><path d="m0 0l336.6 212.6h407.5v70.9H336.6L0 496V0z"></path><path fill="#ff0" d="m0 478.4l343.7-219.7h400.4v-21.3H343.7L0 17.7v32L322.4 248L0 446.5v31.8z"></path><path fill="#40aa40" d="m0 496l343.7-219.6h400.4V496H0z"></path><path fill="#ce0000" d="m0 0l343.7 219.7h400.4V0H0z"></path><path fill="#ff0" d="M92.8 258.3c1.2.3 1.5.6 2.7-1.1c.3-.9 1-2 1.6-3.2c.9-1.4 1.3-2 2-.9c.6.6 2.7-.5 3.6.1c1.3 1 .5.8 1.6-.2c.8-1.8 0-1.6-1.1-2.4c-.8-.5-3 .6-3.8 0c.3-1.7.9-2 1.9-2.3c.8.6 3-.4 3.8-.4c1 .2 1.8.3 2.1-1.1c.5-1 .3-.3 0-1c-1-.6-3 .5-3.9 0c-1-.9-.9-1.2-.2-2.5c.8-.5 1.4-.3 2.5.4c1 .7 2.7-.7 3.7-.8c.8-1 1.8-1.3 1.2-2.4c-.3-1-.6-1-1.8-1.3c-1.2-.8-2.7.7-3.2-.5c1-1.3 1.3-1 2.5-.3c.7.3 3-1 3.6-1.1c1.1-.3.6.9 1.3-1.8c-.2-1-2.1.7-3.2.4c-1 .2-1.9-.2-2-1.3c0-1.5.8-1.6 1.8-1.4c1 .2 3.1-1 3.9-1c1.1.6 1.5.4 2.4-1c.6-1.6-.1-1-1.2-1.8c-.9-.5-3 .6-3.8 0c.1-.5.4-1.3 1-1.6c.8.2 1.5.1 2.5.8c1 .4 2.7-1.5 3.6-2.2c-.2-1-1.9.4-2.9-.3c-.6-.4-1.4-.9-1.6-1.4c.6-1.7.3-1.6 1.9-1c.8-.3 2.2-.3 1.3-1.8c-.2-.3-1-.2-1.7-.5c-1-.6-1.8-1.2-2.7-1.5c-.6-.1-1.6-.3-2.1-.2c-.1 1 .2 1.6 0 2.8c.5.7 1.3.7 1.5 1c-.9.7-1.3.3-2.2.4c-1.1-.8-.5-3.1-1.8-2.6c.3.7.2 3.3.7 3.8c.6.4 1.4.8 1.5 1.4c-1 1.4-1.3 1.3-2.4.6c-1-.6-.6-2.7-1.4-2.6c-1 .7-1 .7-.8 1.8c0 1.3-.5 3.2.6 4c1.3 1 1.5.8.4 2.6c-.7.9-1.1.7-2 .3c-.8-.6-.6-2.8-1.3-3.6c-1.3-.7-.6-.7-1.6.2c-.4 1.3-.1 1.6.4 2.7c.4.6.4 3 1.2 3c1.2.8 1.2.6-.2 2c-1 0-1.5.3-2.3-.7c-1-.7-.4-3-1.7-3.1c-1.2.1-1.4.1-1.3 1.7c.2 1.5-.3 3.7.8 4.6c1.1.5 1.8.4 2.1 1l-1.3 1.5c-.7 0-1.5-.5-2.4-.7c-1-.4-.5-1.3-1.3-1.9c-1 .3-1-1-1.5.3c.2 1.1-.2 2.5.9 3.2c.8.6 1.5 1.8 2.4 2.3c1 1.2.5 1.4 0 3c-.8 0-1.8-.5-2.6-1.1c-.9-.6-.7-2.8-1.6-3.4c-.7-.7-.5-1.3-1.6.2c0 1.1.1 1.2.4 2c0 1-.3 3 .7 3.7l3 1c.7 1 0 .8-.8 2.2c-.6 1.4-.6 1.6-1.4 2.3c-.8 1-1 1.4-.4 2.7z"></path><path fill="#ff0" d="M117.2 259.5c.7-1.1 1.1-1.3 0-3.3c-.7-.6-1.5-1.9-2.3-3c-1-1.5-1.3-2 0-2.5c.8-.3.6-3 1.5-3.7c1.3-1 .9-.2.4-1.8c-1.3-1.6-1.4-.7-2.6.2c-.9.7-.6 3.4-1.5 4c-1.5-1-1.4-1.6-1.4-2.9c.8-.6.9-3.4 1.2-4.1c.6-1 1-1.9-.2-2.8c-.8-1-.2-.4-1-.3c-.9.7-.6 3.4-1.5 4c-1.2.9-1.4.5-2.4-.7c0-1 .4-1.6 1.4-2.5c1-.8.4-3.2.8-4.2c-.6-1.3-.5-2.5-1.8-2.3c-1 0-1.2.3-1.8 1.4c-1.3 1-.5 3.2-1.8 3.2c-.9-1.6-.5-1.8.7-2.7c.5-.7.2-3.6.4-4.4c.2-1.2 1-.2-1-2c-1.2-.2-.3 2.6-1 3.6c-.3 1.1-1 1.9-2 1.5c-1.4-.6-1.2-1.4-.5-2.5c.5-.9.3-3.6.6-4.5c1-.9 1-1.4 0-2.9c-1.2-1.3-.9-.3-2.1.6c-.9.6-.6 3.4-1.5 4c-.5-.4-1-1-1.1-1.7c.5-.8.7-1.6 1.7-2.4c.8-.9-.3-3.5-.6-4.6c-.9-.2-.3 2-1.4 2.9c-.6.5-1.4 1.1-2 1.1c-1.2-1.2-1.3-1-.2-2.4c.2-1 .7-2.5-1-2c-.4 0-.6 1-1.2 1.6c-.9.6-1.8 1.3-2.4 2.2c-.4.6-1 1.6-1 2.2c.8.4 1.5.4 2.5 1c.9-.2 1.2-1 1.5-1.2c.4 1.3-.2 1.6-.5 2.6c-1.1.9-3-.7-3 .8c.7 0 3 1.2 3.8.8c.6-.5 1.2-1.1 1.8-1c1 1.5.7 1.9-.4 2.8c-1 .7-2.8-.4-3 .4c.3 1.4.3 1.4 1.3 1.6c1.3.5 2.8 1.8 4 1c1.4-1 1.3-1.3 2.6.5c.5 1.1.2 1.5-.5 2.2c-1 .7-3-.4-3.9 0c-1.2 1.1-.9.3-.4 1.9c1 .8 1.3.7 2.5.5c.8-.2 3 .8 3.4 0c1-1 1-1 1.7 1c-.4 1.1-.4 1.7-1.6 2.2c-1 .8-3-.8-3.5.5c-.4 1.3-.5 1.6 1 2c1.5.4 3.3 1.9 4.6 1c.8-1 1-1.6 1.8-1.8l.8 2c-.3.8-1 1.4-1.6 2.3c-.8.9-1.5 0-2.3.7c0 1-1.3.6-.3 1.6c1.1.3 2.3 1.2 3.3.4c.9-.6 2.2-1 3-1.6c1.5-.6 1.5 0 2.8 1.2a7 7 0 0 1-2 2.3c-1 .6-2.9-.4-3.7.3c-1 .4-1.4 0-.5 1.8c1 .5 1.1.3 1.9.3c1 .4 2.7 1.6 3.8.8c.6-1 1.5-2 2-2.7c1.2-.5.8.2 1.7 1.6c1 1.2 1.3 1.3 1.6 2.4c.6 1.2.9 1.7 2.4 1.5z"></path><path fill="#ff0" d="M95 304.7c0-5.1-.8-10.3 0-10.3c45.3 0 56.6-31 56.6-51.5c0-20.6-15.7-41.3-45.3-41.3c-34 0-45.4 20.2-45.4 41.3c0 20.6 17 36 34 36c22.7 0 28.4-5.1 45.4-25.7c-5.7 25.7-34 36-45.3 36A44 44 0 0 1 49.6 243c0-25.8 17-51.6 56.7-51.6c34 0 56.7 25.8 56.7 51.6c0 36-28.4 61.8-68 61.8z"></path></g></g></svg>