<svg xmlns="http://www.w3.org/2000/svg" xmlns:xlink="http://www.w3.org/1999/xlink" aria-hidden="true" role="img" class="iconify iconify--flag" width="1.34em" height="1em" preserveAspectRatio="xMidYMid meet" viewBox="0 0 640 480"><defs><clipPath id="IconifyId17f59e8e925581923857"><path fill-opacity=".7" d="M0 0h682.7v512H0z"></path></clipPath></defs><g clip-path="url(#IconifyId17f59e8e925581923857)" transform="scale(.9375)"><g fill-rule="evenodd"><path d="m0 0l347.4 219.4H768v73.2H347.4L0 512V0z"></path><path fill="#ff0" d="M0 493.7L354.7 267H768v-22H354.7L0 18.3v32.9L332.8 256L0 460.8v32.9z"></path><path fill="#40aa40" d="m0 512l354.7-226.7H768V512H0z"></path><path fill="#ce0000" d="m0 0l354.7 226.7H768V0H0z"></path><path fill="#ff0" d="M95.8 266.6c1.2.3 1.6.6 2.8-1.1c.2-1 1-2.2 1.7-3.3c.8-1.5 1.2-2 2-1c.6.7 2.8-.5 3.6.1c1.4 1 .6.8 1.7-.2c.9-1.8.1-1.6-1-2.4c-1-.6-3.1.6-4 0c.3-1.8.9-2 2-2.4c.8.5 3.1-.4 3.8-.4c1 .2 2 .3 2.3-1.2c.5-1 .3-.3-.2-1c-.8-.7-3 .5-3.9 0c-1-.9-.9-1.2-.2-2.6c.8-.5 1.5-.3 2.6.4c1 .8 2.8-.7 3.8-.8c.9-1 1.9-1.3 1.2-2.5c-.3-1-.6-1-1.8-1.3c-1.2-.8-2.8.7-3.3-.5c1-1.4 1.3-1.1 2.5-.3c.8.2 3-1.1 3.8-1.2c1.1-.3.6 1 1.4-1.8c-.3-1.2-2.3.7-3.4.4c-1 .2-2-.2-2-1.4c0-1.5.8-1.6 1.9-1.4c1 .2 3.1-1 4-1c1 .6 1.5.4 2.4-1c.6-1.7-.1-1-1.3-2c-.8-.5-3 .7-3.9.1c.2-.6.5-1.4 1-1.7c.9.2 1.6.2 2.7.8c1 .5 2.8-1.5 3.7-2.2c-.2-1-2 .4-3-.3c-.6-.5-1.5-1-1.7-1.5c.6-1.7.3-1.6 2-1c.8-.3 2.3-.3 1.3-1.9c-.2-.2-1-.2-1.8-.5c-.9-.6-1.7-1.3-2.7-1.5c-.7-.1-1.7-.4-2.2-.2c0 1 .2 1.6.1 2.8c.5.7 1.3.7 1.5 1c-.9.8-1.4.4-2.3.4c-1.2-.7-.5-3.1-1.9-2.6c.3.7.2 3.4.8 4c.6.4 1.4.8 1.5 1.3c-1 1.5-1.3 1.4-2.5.7c-1-.6-.6-2.8-1.5-2.7c-1 .8-1 .7-.8 1.8c0 1.4-.5 3.4.7 4.2c1.3 1 1.5.8.4 2.7c-.7.9-1.1.7-2 .3c-.9-.6-.7-3-1.4-3.7c-1.4-.8-.6-.8-1.7.2c-.3 1.3 0 1.6.5 2.7c.4.7.4 3 1.2 3.2c1.2.7 1.3.6-.2 2c-1 0-1.6.3-2.4-.7c-1-.8-.4-3.2-1.7-3.2c-1.2.1-1.5.1-1.4 1.8c.3 1.5-.3 3.8.9 4.7c1.1.5 1.8.4 2.2 1.1c-.4.3-1 1.3-1.4 1.5c-.8 0-1.6-.5-2.5-.7c-1-.5-.5-1.4-1.4-2c-1 .3-1-1-1.5.3c.2 1.2-.2 2.6 1 3.4c.8.5 1.5 1.7 2.4 2.3c1 1.2.6 1.4 0 3c-.9.1-1.8-.5-2.7-1c-.9-.7-.7-3-1.6-3.5c-.7-.8-.5-1.4-1.7.2c0 1 .1 1.2.4 2c0 1-.2 3.2.8 3.9c1 .2 2.2.7 3 1c.8 1 .1.8-.8 2.2c-.5 1.4-.5 1.7-1.4 2.4c-.8 1-1 1.5-.4 2.8z"></path><path fill="#ff0" d="M121 267.9c.7-1.2 1.1-1.4 0-3.4c-.8-.7-1.6-2-2.4-3.1c-1-1.6-1.3-2.2 0-2.7c.8-.3.6-3 1.5-3.7c1.4-1.1 1-.3.5-1.9c-1.4-1.7-1.5-.8-2.7.2c-1 .7-.7 3.5-1.5 4.2c-1.6-1-1.6-1.8-1.5-3c.9-.7.9-3.6 1.2-4.3c.6-1 1-2-.2-2.9c-.8-1-.2-.4-1-.3c-1 .7-.7 3.5-1.6 4.2c-1.2.8-1.4.5-2.4-.8c-.1-1 .3-1.7 1.4-2.6c1.1-.8.5-3.3.8-4.3c-.6-1.4-.5-2.6-1.8-2.4c-1 0-1.2.3-2 1.5c-1.2 1-.4 3.2-1.8 3.2c-.9-1.6-.4-1.8.8-2.8c.5-.7.2-3.7.4-4.5c.2-1.2 1-.2-1.1-2c-1.2-.3-.2 2.6-1 3.6c-.3 1.2-1 2-2 1.6c-1.5-.6-1.2-1.5-.6-2.5s.3-3.8.7-4.7c1-1 1-1.4 0-3c-1.3-1.4-1-.3-2.2.6c-1 .7-.7 3.5-1.6 4.2c-.5-.5-1-1-1.1-1.8c.5-.8.7-1.6 1.8-2.5c.8-.9-.4-3.5-.6-4.8c-1-.2-.4 2.2-1.5 3c-.7.5-1.4 1.2-2 1.2c-1.3-1.3-1.4-1-.2-2.5c.1-1 .7-2.5-1.2-2c-.3 0-.5 1-1.1 1.6c-1 .7-1.9 1.3-2.5 2.2c-.4.7-1 1.7-1 2.3c.8.5 1.5.5 2.6 1c.8-.2 1.2-1 1.5-1.1c.3 1.2-.2 1.6-.5 2.6c-1.2 1-3.2-.7-3.2 1c.8-.1 3.2 1 4 .7c.6-.5 1.3-1.2 1.8-1c1 1.5.8 1.9-.3 2.8c-1 .8-3-.4-3.1.5c.3 1.4.2 1.4 1.3 1.6c1.3.5 2.9 1.9 4 1c1.5-1 1.5-1.3 2.7.6c.6 1.1.3 1.5-.5 2.2c-.9.8-3-.4-4 0c-1.2 1.2-.9.4-.4 2c1 .8 1.4.7 2.7.5c.8-.2 3 .8 3.4 0c1.1-1 1-1.1 1.7 1c-.4 1.2-.3 1.8-1.6 2.3c-1.1.8-3-.9-3.6.5c-.4 1.4-.5 1.7 1.1 2.2c1.5.3 3.4 1.8 4.7 1c.9-1 1-1.8 1.9-2c.1.6.7 1.6.7 2.1c-.2.9-1 1.5-1.6 2.4c-.8.9-1.5 0-2.3.7c-.1 1.1-1.4.6-.3 1.7c1 .2 2.3 1.2 3.4.4c.9-.7 2.3-1 3.1-1.7c1.5-.6 1.5 0 2.8 1.2c-.3 1-1.2 1.7-2 2.4c-1 .7-3-.4-3.9.3c-1 .5-1.4 0-.5 1.9c1 .5 1.2.3 2 .3c1 .5 2.8 1.6 3.9.8c.6-1 1.6-2 2.2-2.8c1.1-.4.7.2 1.6 1.7c1.1 1.2 1.4 1.3 1.7 2.5c.6 1.2 1 1.7 2.4 1.5z"></path><path fill="#ff0" d="M98 314.5c0-5.3-.8-10.6 0-10.6c46.8 0 58.5-32 58.5-53.2S140.3 208 109.7 208c-35 0-46.8 20.8-46.8 42.6A37 37 0 0 0 98 287.9c23.4 0 29.3-5.3 46.8-26.6c-5.8 26.6-35 37.2-46.8 37.2c-23.4 0-46.8-16-46.8-47.8c0-26.6 17.5-53.2 58.5-53.2c35.1 0 58.5 26.6 58.5 53.2c0 37.2-29.2 63.8-70.2 63.8z"></path></g></g></svg>