<svg xmlns="http://www.w3.org/2000/svg" xmlns:xlink="http://www.w3.org/1999/xlink" aria-hidden="true" role="img" class="iconify iconify--mdi-light" width="1em" height="1em" preserveAspectRatio="xMidYMid meet" viewBox="0 0 24 24" data-icon="mdi-light:border-inside"><path fill="currentColor" d="M17 4v1h-2V4h2Zm-4 16v1h-3v-1h1v-7H4v1H3v-3h1v1h7V5h-1V4h3v1h-1v7h7v-1h1v3h-1v-1h-7v7h1Zm4 0v1h-2v-1h2ZM4 21H3v-1h1v1Zm2 0v-1h2v1H6ZM4 9H3V7h1v2Zm0 9H3v-2h1v2ZM8 4v1H6V4h2ZM4 5H3V4h1v1Zm15 16v-1h1v1h-1Zm0-12V7h1v2h-1Zm0 9v-2h1v2h-1Zm0-13V4h1v1h-1Z"></path></svg>