<svg xmlns="http://www.w3.org/2000/svg" xmlns:xlink="http://www.w3.org/1999/xlink" aria-hidden="true" role="img" class="iconify iconify--mdi-light" width="1em" height="1em" preserveAspectRatio="xMidYMid meet" viewBox="0 0 24 24" data-icon="mdi-light:border-horizontal"><path fill="currentColor" d="M20 18h-1v-2h1v2ZM4 14H3v-3h1v1h15v-1h1v3h-1v-1H4v1Zm0 4H3v-2h1v2ZM3 5V4h1v1H3Zm0 2h1v2H3V7Zm12-2V4h2v1h-2ZM6 5V4h2v1H6Zm4 0V4h3v1h-1v1h-1V5h-1Zm10 4h-1V7h1v2Zm-1-4V4h1v1h-1Zm-7 12h-1v-2h1v2Zm0-7h-1V8h1v2ZM3 20h1v1H3v-1Zm12 0h2v1h-2v-1Zm-9 0h2v1H6v-1Zm4 0h1v-1h1v1h1v1h-3v-1Zm9 0h1v1h-1v-1Z"></path></svg>