<svg xmlns="http://www.w3.org/2000/svg" xmlns:xlink="http://www.w3.org/1999/xlink" aria-hidden="true" role="img" class="iconify iconify--mdi-light" width="1em" height="1em" preserveAspectRatio="xMidYMid meet" viewBox="0 0 24 24" data-icon="mdi-light:camera"><path fill="currentColor" d="M11.5 8a4.5 4.5 0 1 1 0 9a4.5 4.5 0 0 1 0-9Zm0 1a3.5 3.5 0 1 0 0 7a3.5 3.5 0 0 0 0-7ZM5 5h2l2-2h5l2 2h2a3 3 0 0 1 3 3v9a3 3 0 0 1-3 3H5a3 3 0 0 1-3-3V8a3 3 0 0 1 3-3Zm4.414-1l-2 2H5a2 2 0 0 0-2 2v9a2 2 0 0 0 2 2h13a2 2 0 0 0 2-2V8a2 2 0 0 0-2-2h-2.414l-2-2H9.414Z"></path></svg>