<svg xmlns="http://www.w3.org/2000/svg" xmlns:xlink="http://www.w3.org/1999/xlink" aria-hidden="true" role="img" class="iconify iconify--mdi-light" width="1em" height="1em" preserveAspectRatio="xMidYMid meet" viewBox="0 0 24 24" data-icon="mdi-light:clipboard-plus"><path fill="currentColor" d="M6 5h2.5a3 3 0 1 1 6 0H17a3 3 0 0 1 3 3v11a3 3 0 0 1-3 3H6a3 3 0 0 1-3-3V8a3 3 0 0 1 3-3Zm0 1a2 2 0 0 0-2 2v11a2 2 0 0 0 2 2h11a2 2 0 0 0 2-2V8a2 2 0 0 0-2-2h-1v3H7V6H6Zm2 2h7V6H8v2Zm3.5-5a2 2 0 0 0-2 2h4a2 2 0 0 0-2-2ZM8 19v-2H6v-1h2v-2h1v2h2v1H9v2H8Z"></path></svg>