<svg xmlns="http://www.w3.org/2000/svg" xmlns:xlink="http://www.w3.org/1999/xlink" aria-hidden="true" role="img" class="iconify iconify--mdi-light" width="1em" height="1em" preserveAspectRatio="xMidYMid meet" viewBox="0 0 24 24" data-icon="mdi-light:closed-caption"><path fill="currentColor" d="M4 5h15a3 3 0 0 1 3 3v9a3 3 0 0 1-3 3H4a3 3 0 0 1-3-3V8a3 3 0 0 1 3-3Zm0 1a2 2 0 0 0-2 2v9a2 2 0 0 0 2 2h15a2 2 0 0 0 2-2V8a2 2 0 0 0-2-2H4Zm4.5 2c.99 0 1.904.32 2.647.86l-.588.81a3.5 3.5 0 1 0 0 5.662l.588.808A4.5 4.5 0 1 1 8.5 8Zm7.853 0c.99 0 1.904.32 2.647.86l-.588.81a3.5 3.5 0 1 0 0 5.662l.588.808A4.5 4.5 0 1 1 16.353 8Z"></path></svg>