<svg xmlns="http://www.w3.org/2000/svg" xmlns:xlink="http://www.w3.org/1999/xlink" aria-hidden="true" role="img" class="iconify iconify--mdi-light" width="1em" height="1em" preserveAspectRatio="xMidYMid meet" viewBox="0 0 24 24" data-icon="mdi-light:cloud-download"><path fill="currentColor" d="M5.5 20a5.5 5.5 0 0 1-.002-11a6.502 6.502 0 0 1 12.485 2.03L18.5 11a4.5 4.5 0 1 1 0 9h-13Zm0-10a4.5 4.5 0 1 0 0 9h13a3.5 3.5 0 1 0-1.569-6.63L17 11.5a5.5 5.5 0 0 0-10.808-1.447L5.5 10Zm6.5 0v5.25L14.25 13l.75.664l-3.5 3.5l-3.5-3.5l.75-.664L11 15.25V10h1Z"></path></svg>