<svg xmlns="http://www.w3.org/2000/svg" xmlns:xlink="http://www.w3.org/1999/xlink" aria-hidden="true" role="img" class="iconify iconify--mdi-light" width="1em" height="1em" preserveAspectRatio="xMidYMid meet" viewBox="0 0 24 24" data-icon="mdi-light:console"><path fill="currentColor" d="M5 4h13a3 3 0 0 1 3 3v11a3 3 0 0 1-3 3H5a3 3 0 0 1-3-3V7a3 3 0 0 1 3-3Zm0 1a2 2 0 0 0-2 2h17a2 2 0 0 0-2-2H5ZM3 18a2 2 0 0 0 2 2h13a2 2 0 0 0 2-2V8H3v10Zm14 0h-5v-1h5v1ZM6 10.5l.707-.707L10.914 14l-4.207 4.207L6 17.5L9.5 14L6 10.5Z"></path></svg>