<svg xmlns="http://www.w3.org/2000/svg" xmlns:xlink="http://www.w3.org/1999/xlink" aria-hidden="true" role="img" class="iconify iconify--mdi-light" width="1em" height="1em" preserveAspectRatio="xMidYMid meet" viewBox="0 0 24 24" data-icon="mdi-light:content-save"><path fill="currentColor" d="M6 4h10.586L20 7.414V18a3 3 0 0 1-3 3H6a3 3 0 0 1-3-3V7a3 3 0 0 1 3-3Zm0 1a2 2 0 0 0-2 2v11a2 2 0 0 0 2 2h11a2 2 0 0 0 2-2V7.914L16.086 5H15v5H6V5Zm1 0v4h7V5H7Zm5 7a3 3 0 1 1 0 6a3 3 0 0 1 0-6Zm0 1a2 2 0 1 0 0 4a2 2 0 0 0 0-4Z"></path></svg>