<svg xmlns="http://www.w3.org/2000/svg" xmlns:xlink="http://www.w3.org/1999/xlink" aria-hidden="true" role="img" class="iconify iconify--mdi-light" width="1em" height="1em" preserveAspectRatio="xMidYMid meet" viewBox="0 0 24 24" data-icon="mdi-light:content-cut"><path fill="currentColor" d="M9 6.5c0 .786-.26 1.512-.697 2.096L20 20.293V21h-.707L11.5 13.207l-3.197 3.197a3.5 3.5 0 1 1-.707-.707l3.197-3.197l-3.197-3.197A3.5 3.5 0 1 1 9 6.5Zm-1 0a2.5 2.5 0 1 0-5 0a2.5 2.5 0 0 0 5 0ZM19.293 4H20v.707l-7.146 7.147l-.708-.707L19.293 4ZM5.5 16a2.5 2.5 0 1 0 0 5a2.5 2.5 0 0 0 0-5Z"></path></svg>