<svg xmlns="http://www.w3.org/2000/svg" xmlns:xlink="http://www.w3.org/1999/xlink" aria-hidden="true" role="img" class="iconify iconify--mdi-light" width="1em" height="1em" preserveAspectRatio="xMidYMid meet" viewBox="0 0 24 24" data-icon="mdi-light:credit-card"><path fill="currentColor" d="M5 5h13a3 3 0 0 1 3 3v9a3 3 0 0 1-3 3H5a3 3 0 0 1-3-3V8a3 3 0 0 1 3-3Zm0 1a2 2 0 0 0-2 2v1h17V8a2 2 0 0 0-2-2H5ZM3 17a2 2 0 0 0 2 2h13a2 2 0 0 0 2-2v-5H3v5Zm2-1h4v1H5v-1Zm6 0h3v1h-3v-1Zm-8-6v1h17v-1H3Z"></path></svg>