<svg xmlns="http://www.w3.org/2000/svg" xmlns:xlink="http://www.w3.org/1999/xlink" aria-hidden="true" role="img" class="iconify iconify--mdi-light" width="1em" height="1em" preserveAspectRatio="xMidYMid meet" viewBox="0 0 24 24" data-icon="mdi-light:currency-eur"><path fill="currentColor" d="m2 11l.5-1h2.874a8.504 8.504 0 0 1 13.695-3.922l-.397.99A7.503 7.503 0 0 0 6.426 10l11.074.001l-.4 1H6.15a7.535 7.535 0 0 0 0 3h9.75l-.4 1H6.427A7.503 7.503 0 0 0 19 17.6v1.381A8.504 8.504 0 0 1 5.374 15H2l.5-1h2.632a8.552 8.552 0 0 1 0-3H2Z"></path></svg>