<svg xmlns="http://www.w3.org/2000/svg" xmlns:xlink="http://www.w3.org/1999/xlink" aria-hidden="true" role="img" class="iconify iconify--mdi-light" width="1em" height="1em" preserveAspectRatio="xMidYMid meet" viewBox="0 0 24 24" data-icon="mdi-light:dots-vertical"><path fill="currentColor" d="M12 16a2 2 0 1 1 0 4a2 2 0 0 1 0-4Zm0-6a2 2 0 1 1 0 4a2 2 0 0 1 0-4Zm0-6a2 2 0 1 1 0 4a2 2 0 0 1 0-4Zm0 1a1 1 0 1 0 0 2a1 1 0 0 0 0-2Zm0 6a1 1 0 1 0 0 2a1 1 0 0 0 0-2Zm0 6a1 1 0 1 0 0 2a1 1 0 0 0 0-2Z"></path></svg>