<svg xmlns="http://www.w3.org/2000/svg" xmlns:xlink="http://www.w3.org/1999/xlink" aria-hidden="true" role="img" class="iconify iconify--mdi-light" width="1em" height="1em" preserveAspectRatio="xMidYMid meet" viewBox="0 0 24 24" data-icon="mdi-light:dots-horizontal"><path fill="currentColor" d="M16 12a2 2 0 1 1 4 0a2 2 0 0 1-4 0Zm-6 0a2 2 0 1 1 4 0a2 2 0 0 1-4 0Zm-6 0a2 2 0 1 1 4 0a2 2 0 0 1-4 0Zm2-1a1 1 0 1 0 0 2a1 1 0 0 0 0-2Zm6 0a1 1 0 1 0 0 2a1 1 0 0 0 0-2Zm6 0a1 1 0 1 0 0 2a1 1 0 0 0 0-2Z"></path></svg>