<svg xmlns="http://www.w3.org/2000/svg" xmlns:xlink="http://www.w3.org/1999/xlink" aria-hidden="true" role="img" class="iconify iconify--mdi-light" width="1em" height="1em" preserveAspectRatio="xMidYMid meet" viewBox="0 0 24 24" data-icon="mdi-light:email"><path fill="currentColor" d="M5 5h13a3 3 0 0 1 3 3v9a3 3 0 0 1-3 3H5a3 3 0 0 1-3-3V8a3 3 0 0 1 3-3Zm0 1a1.99 1.99 0 0 0-1.283.466L11.5 11.52l7.783-5.054A1.992 1.992 0 0 0 18 6H5Zm6.5 6.712L3.134 7.28A1.995 1.995 0 0 0 3 8v9a2 2 0 0 0 2 2h13a2 2 0 0 0 2-2V8c0-.254-.047-.497-.134-.72L11.5 12.711Z"></path></svg>