<svg xmlns="http://www.w3.org/2000/svg" xmlns:xlink="http://www.w3.org/1999/xlink" aria-hidden="true" role="img" class="iconify iconify--mdi-light" width="1em" height="1em" preserveAspectRatio="xMidYMid meet" viewBox="0 0 24 24" data-icon="mdi-light:grid"><path fill="currentColor" d="M5 3h13a3 3 0 0 1 3 3v13a3 3 0 0 1-3 3H5a3 3 0 0 1-3-3V6a3 3 0 0 1 3-3Zm0 1a2 2 0 0 0-2 2v3h5V4H5ZM3 19a2 2 0 0 0 2 2h3v-5H3v3Zm5-9H3v5h5v-5Zm10 11a2 2 0 0 0 2-2v-3h-5v5h3Zm2-11h-5v5h5v-5Zm0-4a2 2 0 0 0-2-2h-3v5h5V6ZM9 4v5h5V4H9Zm0 17h5v-5H9v5Zm5-11H9v5h5v-5Z"></path></svg>