<svg xmlns="http://www.w3.org/2000/svg" xmlns:xlink="http://www.w3.org/1999/xlink" aria-hidden="true" role="img" class="iconify iconify--mdi-light" width="1em" height="1em" preserveAspectRatio="xMidYMid meet" viewBox="0 0 24 24" data-icon="mdi-light:inbox"><path fill="currentColor" d="M6 4h11a3 3 0 0 1 3 3v11a3 3 0 0 1-3 3H6a3 3 0 0 1-3-3V7a3 3 0 0 1 3-3Zm0 1a2 2 0 0 0-2 2v8h5v.5a2.5 2.5 0 0 0 5 0V15h5V7a2 2 0 0 0-2-2H6ZM4 18a2 2 0 0 0 2 2h11a2 2 0 0 0 2-2v-2h-4.035a3.501 3.501 0 0 1-6.93 0H4v2Z"></path></svg>