<svg xmlns="http://www.w3.org/2000/svg" xmlns:xlink="http://www.w3.org/1999/xlink" aria-hidden="true" role="img" class="iconify iconify--mdi-light" width="1em" height="1em" preserveAspectRatio="xMidYMid meet" viewBox="0 0 24 24" data-icon="mdi-light:lightbulb"><path fill="currentColor" d="M14 20a2 2 0 0 1-2 2h-1a2 2 0 0 1-2-2h1a1 1 0 0 0 1 1h1a1 1 0 0 0 1-1h1Zm1-3a2 2 0 0 1-2 2h-3a2 2 0 0 1-2-2v-2.022a6.5 6.5 0 1 1 7 0V17Zm-6 0a1 1 0 0 0 1 1h3a1 1 0 0 0 1-1v-2.6a5.5 5.5 0 1 0-5 0V17Z"></path></svg>