<svg xmlns="http://www.w3.org/2000/svg" xmlns:xlink="http://www.w3.org/1999/xlink" aria-hidden="true" role="img" class="iconify iconify--mdi-light" width="1em" height="1em" preserveAspectRatio="xMidYMid meet" viewBox="0 0 24 24" data-icon="mdi-light:map-marker"><path fill="currentColor" d="M11.5 7a2.5 2.5 0 1 1 0 5a2.5 2.5 0 0 1 0-5Zm0 1a1.5 1.5 0 1 0 0 3a1.5 1.5 0 0 0 0-3Zm-4.7 4.357l4.7 7.73l4.7-7.73a5.5 5.5 0 1 0-9.4 0Zm10.254.52L11.5 22.012l-5.554-9.135a6.5 6.5 0 1 1 11.11 0h-.002Z"></path></svg>