<svg xmlns="http://www.w3.org/2000/svg" xmlns:xlink="http://www.w3.org/1999/xlink" aria-hidden="true" role="img" class="iconify iconify--mdi-light" width="1em" height="1em" preserveAspectRatio="xMidYMid meet" viewBox="0 0 24 24" data-icon="mdi-light:microphone"><path fill="currentColor" d="M11 21v-3.019A6.5 6.5 0 0 1 5 11.5V11h1v.5a5.5 5.5 0 1 0 11 0V11h1v.5a6.5 6.5 0 0 1-6 6.481V21h-1Zm.5-18A2.5 2.5 0 0 1 14 5.5v6a2.5 2.5 0 0 1-5 0v-6A2.5 2.5 0 0 1 11.5 3Zm0 1A1.5 1.5 0 0 0 10 5.5v6a1.5 1.5 0 0 0 3 0v-6A1.5 1.5 0 0 0 11.5 4Z"></path></svg>