<svg xmlns="http://www.w3.org/2000/svg" xmlns:xlink="http://www.w3.org/1999/xlink" aria-hidden="true" role="img" class="iconify iconify--mdi-light" width="1em" height="1em" preserveAspectRatio="xMidYMid meet" viewBox="0 0 24 24" data-icon="mdi-light:monitor"><path fill="currentColor" d="M5 4h13a3 3 0 0 1 3 3v7a3 3 0 0 1-3 3h-4.508L14 20h1v1H8v-1h1l.508-3H5a3 3 0 0 1-3-3V7a3 3 0 0 1 3-3Zm5.508 13L10 20h3l-.508-3h-1.984ZM5 5a2 2 0 0 0-2 2v7a2 2 0 0 0 2 2h13a2 2 0 0 0 2-2V7a2 2 0 0 0-2-2H5Z"></path></svg>