<svg xmlns="http://www.w3.org/2000/svg" xmlns:xlink="http://www.w3.org/1999/xlink" aria-hidden="true" role="img" class="iconify iconify--mdi-light" width="1em" height="1em" preserveAspectRatio="xMidYMid meet" viewBox="0 0 24 24" data-icon="mdi-light:note-multiple"><path fill="currentColor" d="M17 12a3 3 0 0 1-3-3V5H6a2 2 0 0 0-2 2v11a2 2 0 0 0 2 2h13a2 2 0 0 0 2-2v-6h-4Zm-2-3a2 2 0 0 0 2 2h3.586L15 5.414V9ZM6 4h9l7 7v7a3 3 0 0 1-3 3H6a3 3 0 0 1-3-3V7a3 3 0 0 1 3-3Zm0 19a5 5 0 0 1-5-5V8h1v10a4 4 0 0 0 4 4h12v1H6Z"></path></svg>