<svg xmlns="http://www.w3.org/2000/svg" xmlns:xlink="http://www.w3.org/1999/xlink" aria-hidden="true" role="img" class="iconify iconify--mdi-light" width="1em" height="1em" preserveAspectRatio="xMidYMid meet" viewBox="0 0 24 24" data-icon="mdi-light:pin-off"><path fill="currentColor" d="M2.793 4.457L3.5 3.75L20.25 20.5l-.707.707L14.335 16H12v4.5l-.5 1.5l-.5-1.5V16l-5-.002v-2h.002L8 12V9.664L2.793 4.457ZM14 12.415V5h1V4H8v1h1v2.836l-1-1v-.838h-.838L7 5.835V2.998h9v3h-1V12l2 1.998v1.837l-1-1v-.42l-2-2Zm-5-.001l-2.001 2V15h6.336L9 10.665v1.749Z"></path></svg>