<svg xmlns="http://www.w3.org/2000/svg" xmlns:xlink="http://www.w3.org/1999/xlink" aria-hidden="true" role="img" class="iconify iconify--tabler" width="1em" height="1em" preserveAspectRatio="xMidYMid meet" viewBox="0 0 24 24" data-icon="tabler:atom"><g fill="none" stroke="currentColor" stroke-linecap="round" stroke-linejoin="round" stroke-width="2"><path d="M12 12v.01m7.071-7.081a4 10 45 0 0-9.9 4.243a4 10 45 0 0-4.242 9.9a4 10 45 0 0 9.9-4.244a4 10 45 0 0 4.242-9.9"></path><path d="M4.929 4.929a10 4 45 0 0 4.243 9.9a10 4 45 0 0 9.9 4.242a10 4 45 0 0-4.244-9.9a10 4 45 0 0-9.9-4.242"></path></g></svg>