<svg xmlns="http://www.w3.org/2000/svg" xmlns:xlink="http://www.w3.org/1999/xlink" aria-hidden="true" role="img" class="iconify iconify--tabler" width="1em" height="1em" preserveAspectRatio="xMidYMid meet" viewBox="0 0 24 24" data-icon="tabler:backhoe"><g fill="none" stroke="currentColor" stroke-linecap="round" stroke-linejoin="round" stroke-width="2"><circle cx="4" cy="17" r="2"></circle><circle cx="13" cy="17" r="2"></circle><path d="M13 19H4m0-4h9m-5-3V7h2a3 3 0 0 1 3 3v5"></path><path d="M5 15v-2a1 1 0 0 1 1-1h7m8.12-2.12L18 5l-5 5m8.12-.12A3 3 0 0 1 19 15a3 3 0 0 1-2.12-.88l4.24-4.24z"></path></g></svg>