<svg xmlns="http://www.w3.org/2000/svg" xmlns:xlink="http://www.w3.org/1999/xlink" aria-hidden="true" role="img" class="iconify iconify--tabler" width="1em" height="1em" preserveAspectRatio="xMidYMid meet" viewBox="0 0 24 24" data-icon="tabler:battery-1"><path fill="none" stroke="currentColor" stroke-linecap="round" stroke-linejoin="round" stroke-width="2" d="M6 7h11a2 2 0 0 1 2 2v.5a.5.5 0 0 0 .5.5a.5.5 0 0 1 .5.5v3a.5.5 0 0 1-.5.5a.5.5 0 0 0-.5.5v.5a2 2 0 0 1-2 2H6a2 2 0 0 1-2-2V9a2 2 0 0 1 2-2m1 3v4"></path></svg>