<svg xmlns="http://www.w3.org/2000/svg" xmlns:xlink="http://www.w3.org/1999/xlink" aria-hidden="true" role="img" class="iconify iconify--tabler" width="1em" height="1em" preserveAspectRatio="xMidYMid meet" viewBox="0 0 24 24"><g fill="none" stroke="currentColor" stroke-linecap="round" stroke-linejoin="round" stroke-width="2"><path d="M6.5 7h11m-11 10h11M6 20v-2a6 6 0 1 1 12 0v2a1 1 0 0 1-1 1H7a1 1 0 0 1-1-1z"></path><path d="M6 4v2a6 6 0 1 0 12 0V4a1 1 0 0 0-1-1H7a1 1 0 0 0-1 1z"></path></g></svg>