<svg xmlns="http://www.w3.org/2000/svg" xmlns:xlink="http://www.w3.org/1999/xlink" aria-hidden="true" role="img" class="iconify iconify--tabler" width="1em" height="1em" preserveAspectRatio="xMidYMid meet" viewBox="0 0 24 24"><g fill="none" stroke="currentColor" stroke-linecap="round" stroke-linejoin="round" stroke-width="2"><path d="M8 6h8V4a1 1 0 0 0-1-1H9a1 1 0 0 0-1 1v2zm8 0l1.094 1.759a6 6 0 0 1 .906 3.17V19a2 2 0 0 1-2 2H8a2 2 0 0 1-2-2v-8.071a6 6 0 0 1 .906-3.17L8 6"></path><circle cx="12" cy="16" r="2"></circle><path d="M10 10h4"></path></g></svg>