<svg xmlns="http://www.w3.org/2000/svg" xmlns:xlink="http://www.w3.org/1999/xlink" aria-hidden="true" role="img" class="iconify iconify--tabler" width="1em" height="1em" preserveAspectRatio="xMidYMid meet" viewBox="0 0 24 24"><g fill="none" stroke="currentColor" stroke-linecap="round" stroke-linejoin="round" stroke-width="2"><rect width="16" height="16" x="4" y="4" rx="2"></rect><path d="M12 4v2.5a.5.5 0 0 1-.5.5a1.5 1.5 0 0 0 0 3a.5.5 0 0 1 .5.5V12m0 0v1.5a.5.5 0 0 0 .5.5a1.5 1.5 0 0 1 0 3a.5.5 0 0 0-.5.5V20m8-8h-2.5a.5.5 0 0 1-.5-.5a1.5 1.5 0 0 0-3 0a.5.5 0 0 1-.5.5H12m0 0h-1.5a.5.5 0 0 0-.5.5a1.5 1.5 0 0 1-3 0a.5.5 0 0 0-.5-.5H4"></path></g></svg>