<svg xmlns="http://www.w3.org/2000/svg" xmlns:xlink="http://www.w3.org/1999/xlink" aria-hidden="true" role="img" class="iconify iconify--tabler" width="1em" height="1em" preserveAspectRatio="xMidYMid meet" viewBox="0 0 24 24"><path fill="none" stroke="currentColor" stroke-linecap="round" stroke-linejoin="round" stroke-width="2" d="m10 4l2 1l2-1m-2-2v6.5l3 1.72m2.928-3.952l.134 2.232l1.866 1.232M20.66 7l-5.629 3.25l.01 3.458m4.887.56L18.062 15.5l-.134 2.232M20.66 17l-5.629-3.25l-2.99 1.738M14 20l-2-1l-2 1m2 2v-6.5l-3-1.72m-2.928 3.952L5.938 15.5l-1.866-1.232M3.34 17l5.629-3.25l-.01-3.458m-4.887-.56L5.938 8.5l.134-2.232M3.34 7l5.629 3.25l2.99-1.738"></path></svg>