<svg xmlns="http://www.w3.org/2000/svg" xmlns:xlink="http://www.w3.org/1999/xlink" aria-hidden="true" role="img" class="iconify iconify--tabler" width="1em" height="1em" preserveAspectRatio="xMidYMid meet" viewBox="0 0 24 24"><g fill="none" stroke="currentColor" stroke-linecap="round" stroke-linejoin="round" stroke-width="2"><circle cx="16" cy="9" r="1"></circle><path d="m6 11l4-2l3.5 3l-1.5 2m-9 2.75A2.4 2.4 0 0 0 4 17a2.4 2.4 0 0 0 2-1a2.4 2.4 0 0 1 2-1a2.4 2.4 0 0 1 2 1a2.4 2.4 0 0 0 2 1a2.4 2.4 0 0 0 2-1a2.4 2.4 0 0 1 2-1a2.4 2.4 0 0 1 2 1a2.4 2.4 0 0 0 2 1a2.4 2.4 0 0 0 1-.25"></path></g></svg>