<svg xmlns="http://www.w3.org/2000/svg" xmlns:xlink="http://www.w3.org/1999/xlink" aria-hidden="true" role="img" class="iconify iconify--tabler" width="1em" height="1em" preserveAspectRatio="xMidYMid meet" viewBox="0 0 24 24"><g fill="none" stroke="currentColor" stroke-linecap="round" stroke-linejoin="round" stroke-width="2"><rect width="6" height="3" x="9" y="3" rx="1"></rect><path d="M10 6v.98c0 .877-.634 1.626-1.5 1.77c-.866.144-1.5.893-1.5 1.77V19a2 2 0 0 0 2 2h6a2 2 0 0 0 2-2v-8.48c0-.877-.634-1.626-1.5-1.77A1.795 1.795 0 0 1 14 6.98V6m-7 6h10M7 18h10m-6-3h2"></path></g></svg>