<svg xmlns="http://www.w3.org/2000/svg" xmlns:xlink="http://www.w3.org/1999/xlink" aria-hidden="true" role="img" class="iconify iconify--tabler" width="1em" height="1em" preserveAspectRatio="xMidYMid meet" viewBox="0 0 24 24"><g fill="none" stroke="currentColor" stroke-linecap="round" stroke-linejoin="round" stroke-width="2"><circle cx="12" cy="20" r="1"></circle><path d="m3 11l5.5 5.5a5 5 0 0 1 7 0L21 11a12 12 0 0 0-18 0m9 9V6M4 6a4 4 0 0 1 .4-1.8M7 2.1a4 4 0 0 1 2 0"></path><path d="M12 6a4 4 0 0 0-.4-1.8"></path><path d="M12 6a4 4 0 0 1 .4-1.8M15 2.1a4 4 0 0 1 2 0M20 6a4 4 0 0 0-.4-1.8"></path></g></svg>