<svg xmlns="http://www.w3.org/2000/svg" xmlns:xlink="http://www.w3.org/1999/xlink" aria-hidden="true" role="img" class="iconify iconify--fad" width="0.5em" height="1em" preserveAspectRatio="xMidYMid meet" viewBox="0 0 128 256" data-icon="fad:digital-colon"><path fill="currentColor" fill-rule="evenodd" d="M76.846 80a4 4 0 0 1 4.002 4.002V107.6a4.002 4.002 0 0 1-4.002 4.003H53.001A4 4 0 0 1 49 107.599V84.002A4.002 4.002 0 0 1 53.001 80h23.845zm0 64a4 4 0 0 1 4.002 4.002V171.6a4.002 4.002 0 0 1-4.002 4.003H53.001A4 4 0 0 1 49 171.599v-23.597A4.002 4.002 0 0 1 53.001 144h23.845z"></path></svg>