<svg xmlns="http://www.w3.org/2000/svg" xmlns:xlink="http://www.w3.org/1999/xlink" aria-hidden="true" role="img" class="iconify iconify--maki" width="1em" height="1em" preserveAspectRatio="xMidYMid meet" viewBox="0 0 15 15" data-icon="maki:barrier"><path fill="currentColor" d="M13 3H2a1 1 0 0 0-1 1v6a1 1 0 0 0 1 1h1v2.5a.5.5 0 0 0 1 0V13h7v.5a.5.5 0 0 0 1 0V11h1a1 1 0 0 0 1-1V4a1 1 0 0 0-1-1Zm0 1v2l-2-2ZM9.5 4L13 7.5V10L7 4Zm-4 6L2 6.5V4l6 6ZM2 10V8l2 2Zm9 2H4v-1h7Zm-.207-2H9.5l-6-6h2l6 6Z"></path></svg>