<svg xmlns="http://www.w3.org/2000/svg" xmlns:xlink="http://www.w3.org/1999/xlink" aria-hidden="true" role="img" class="iconify iconify--maki" width="1em" height="1em" preserveAspectRatio="xMidYMid meet" viewBox="0 0 15 15" data-icon="maki:basketball"><path fill="currentColor" d="M3.66 7.002H2.03a5.323 5.323 0 0 1 1.01-2.71a8.712 8.712 0 0 1 .62 2.71Zm1.075 0h2.34v-4.97a5.458 5.458 0 0 0-3.24 1.44a9.295 9.295 0 0 1 .9 3.53Zm3.19-4.97v4.97h2.34a9.295 9.295 0 0 1 .9-3.53a5.458 5.458 0 0 0-3.24-1.44Zm4.035 2.26a8.712 8.712 0 0 0-.62 2.71h1.63a5.323 5.323 0 0 0-1.01-2.71ZM14 8.752a.755.755 0 0 1-.75.75h-1.53l-.76 1.52v2.38a.392.392 0 0 1-.24.35a.586.586 0 0 1-.14.02a.327.327 0 0 1-.26-.11l-1.02-1.01l-1.59 1.06a.398.398 0 0 1-.42 0l-1.59-1.06l-1.02 1.01a.37.37 0 0 1-.4.09a.392.392 0 0 1-.24-.35v-2.38l-.76-1.52H1.75a.75.75 0 0 1 0-1.5h11.5a.749.749 0 0 1 .75.748Zm-7.14.75H4.12l.63 1.27a.318.318 0 0 1 .04.16v1.56l.56-.55Zm1.98 2.55L7.5 9.892l-1.34 2.16l1.34.9Zm2.05-2.55H8.14l1.51 2.44l.56.55v-1.56a.318.318 0 0 1 .04-.16Z"></path></svg>