<svg xmlns="http://www.w3.org/2000/svg" xmlns:xlink="http://www.w3.org/1999/xlink" aria-hidden="true" role="img" class="iconify iconify--maki" width="1em" height="1em" preserveAspectRatio="xMidYMid meet" viewBox="0 0 15 15" data-icon="maki:bowling-alley"><path fill="currentColor" d="M8.83 5.39a11.013 11.013 0 0 0-.96 4.28a11.469 11.469 0 0 0 .58 3.69A4.942 4.942 0 0 1 6 14a5 5 0 1 1 2.98-9.01c-.04.13-.1.26-.15.4ZM4.12 8.5a.62.62 0 1 0-.62.62a.61.61 0 0 0 .62-.6V8.5Zm.38-1.38a.62.62 0 1 0-.62-.62a.61.61 0 0 0 .601.62ZM6.12 8.5a.62.62 0 1 0-.62.62a.61.61 0 0 0 .62-.6V8.5Zm4.802-5.334c0-.722-.144-.722-.144-1.445a.722.722 0 0 1 1.444 0c0 .723-.144.723-.144 1.445c0 2.167 1.553 3.617 1.553 6.5c0 2.167-.686 4.333-1.409 4.333h-1.444c-.722 0-1.409-2.166-1.409-4.333c0-2.883 1.553-4.334 1.553-6.5Z"></path></svg>