<svg xmlns="http://www.w3.org/2000/svg" xmlns:xlink="http://www.w3.org/1999/xlink" aria-hidden="true" role="img" class="iconify iconify--maki" width="1em" height="1em" preserveAspectRatio="xMidYMid meet" viewBox="0 0 15 15" data-icon="maki:car-rental"><path fill="currentColor" d="m12.6 8.7l-1.1-2.2a1.05 1.05 0 0 0-.9-.5H4.4a1.05 1.05 0 0 0-.9.5L2.4 8.7L1.16 9.852a.5.5 0 0 0-.16.367V14.5a.5.5 0 0 0 .5.5h2c.2 0 .5-.2.5-.4V14h7v.5c0 .2.2.5.4.5h2.1a.5.5 0 0 0 .5-.5v-4.281a.5.5 0 0 0-.16-.367ZM4.5 7h6l1 2h-8Zm.5 4.6c0 .2-.3.4-.5.4H2.4c-.2 0-.4-.3-.4-.5v-1.1c.1-.3.3-.5.6-.4l2 .4c.2 0 .4.3.4.5Zm8-.1c0 .2-.2.5-.4.5h-2.1c-.2 0-.5-.2-.5-.4v-.7c0-.2.2-.5.4-.5l2-.4c.3-.1.5.1.6.4ZM13.5 0H11a1 1 0 0 0-1 1H2L1 2v1l1 1l1.5-1.5L5 4l1.5-1.5L8 4h2a1 1 0 0 0 1 1h2.5a.5.5 0 0 0 .5-.5v-4a.5.5 0 0 0-.5-.5ZM13 3.5a.5.5 0 0 1-1 0v-2a.5.5 0 0 1 1 0Z"></path></svg>