<svg xmlns="http://www.w3.org/2000/svg" xmlns:xlink="http://www.w3.org/1999/xlink" aria-hidden="true" role="img" class="iconify iconify--maki" width="1em" height="1em" preserveAspectRatio="xMidYMid meet" viewBox="0 0 15 15" data-icon="maki:caution"><path fill="currentColor" d="M14.9 13.4L8.5.6C8.1-.2 7-.2 6.6.6L.1 13.4c-.4.7.2 1.6 1 1.6h12.8c.8 0 1.3-.9 1-1.6zM7.5 13c-.8 0-1.5-.7-1.5-1.5S6.6 10 7.5 10s1.5.7 1.5 1.5c0 .9-.7 1.5-1.5 1.5zm1-4h-2L6 5.5c0-.3.2-.5.5-.5h2c.3 0 .5.2.5.5L8.5 9z"></path></svg>