<svg xmlns="http://www.w3.org/2000/svg" xmlns:xlink="http://www.w3.org/1999/xlink" aria-hidden="true" role="img" class="iconify iconify--maki" width="1em" height="1em" preserveAspectRatio="xMidYMid meet" viewBox="0 0 15 15" data-icon="maki:defibrillator"><path fill="currentColor" d="M1.55 6.338c-2.387-4.596 3.63-7.66 5.952-3.064c2.321-4.597 8.339-1.533 5.952 3.064c-.087.167-.203.346-.311.521h-1.808L9.52 4.138a.625.625 0 0 0-1.1.114l-1.648 4.12l-1.33-1.33A.625.625 0 0 0 5 6.86H1.861c-.109-.175-.224-.354-.311-.52ZM11 8.11a.626.626 0 0 1-.52-.278L9.139 5.82L7.58 9.717a.625.625 0 0 1-.455.38a.605.605 0 0 1-.125.012a.625.625 0 0 1-.442-.182L4.741 8.109H2.736a42.67 42.67 0 0 0 4.46 4.674a.464.464 0 0 0 .622 0a43.26 43.26 0 0 0 4.45-4.674H11Z"></path></svg>