<svg xmlns="http://www.w3.org/2000/svg" xmlns:xlink="http://www.w3.org/1999/xlink" aria-hidden="true" role="img" class="iconify iconify--maki" width="1em" height="1em" preserveAspectRatio="xMidYMid meet" viewBox="0 0 15 15"><path fill="currentColor" d="m1.042 11l12 1.495V13h-12Zm12-4l-1 1v.583L4.238 5.332l.062-.125l1.352-1.362h.831a.35.35 0 0 0 0-.7h-.976a.352.352 0 0 0-.248.103L3.763 4.753a.371.371 0 0 0-.065.09l-.11.219L1.043 4c0 2-.03 3.958 2.86 4.5c1.419.266 8.14 1.5 8.14 1.5l2-2Z"></path></svg>