<svg xmlns="http://www.w3.org/2000/svg" xmlns:xlink="http://www.w3.org/1999/xlink" aria-hidden="true" role="img" class="iconify iconify--maki" width="1em" height="1em" preserveAspectRatio="xMidYMid meet" viewBox="0 0 15 15"><path fill="currentColor" d="M11 7c-.2 1.4-.5 2.7-1 4c-.3.4-.6.7-1 1v2H6v-2c-.4-.3-.7-.6-1-1c-.5-1.3-.8-2.6-1-4h7zM8.1 5.7c1.2-.3 1.7-.3 1.8-1.5c0-.6-.4-.8-1.5-1.4c-.9-.4-1.3-1-1.2-1.8c-.4.9-.2 2 .8 2.5c2 1 .1 2.2.1 2.2zM5.8 6c.7-.2 1.1-.2 1.1-.9c0-.4-.3-.5-.9-.9c-.6-.2-.9-.7-.8-1.2c-.3.6-.1 1.3.5 1.6c1.2.6.1 1.4.1 1.4z"></path></svg>