<svg xmlns="http://www.w3.org/2000/svg" xmlns:xlink="http://www.w3.org/1999/xlink" aria-hidden="true" role="img" class="iconify iconify--maki" width="1em" height="1em" preserveAspectRatio="xMidYMid meet" viewBox="0 0 15 15"><path fill="currentColor" d="M6.176 4.176a.249.249 0 0 0-.352 0l-4.4 4.4A.25.25 0 0 0 1.6 9H3v4.751a.249.249 0 0 0 .249.249h3.5A.249.249 0 0 0 7 13.753v-5.43a.249.249 0 0 1 .073-.176L8.5 6.5ZM6 12H5v-1h1Zm0-2H5V9h1Zm6.75-4h-.5a.25.25 0 0 0-.25.25V8l-1.324-1.824a.249.249 0 0 0-.352 0L8.056 8.932A.246.246 0 0 0 8 9.088v4.66a.249.249 0 0 0 .246.252h1.5a.253.253 0 0 0 .254-.252V12h1v1.747a.253.253 0 0 0 .253.253h1.5a.25.25 0 0 0 .247-.249V6.25a.25.25 0 0 0-.25-.25ZM10 11H9v-1h1Zm2 0h-1v-1h1Z"></path></svg>