<svg xmlns="http://www.w3.org/2000/svg" xmlns:xlink="http://www.w3.org/1999/xlink" aria-hidden="true" role="img" class="iconify iconify--maki" width="1em" height="1em" preserveAspectRatio="xMidYMid meet" viewBox="0 0 15 15"><path fill="currentColor" d="M12.9 3H15V1H5S1 1 1 5v5.5c-1.1.8-1.3 2.4-.5 3.5s2.4 1.3 3.5.5c1 .8 2.5.6 3.4-.4c.6.6 1.5.9 2.4.9c2.1 0 3.7-1.6 3.8-3.7c0-1.6-1-3-2.5-3.5V5c-.1-1.1.7-2 1.8-2zM10 8v.5c1.5.1 2.6 1.5 2.5 3c-.1 1.4-1.3 2.5-2.7 2.5c-1.1.1-1.8-.6-2.1-1h-.8c-.1.2-.4 1-1.4 1s-1.3-.6-1.4-1h-.2c-.2.4-.5.8-.9.9c-.9.3-1.7-.2-1.9-1c-.2-.8.2-1.6.9-1.8V6c0-.5.4-1 1-1c.5 0 1 .4 1 1v4.5c0 .3.2.5.5.5s.5-.2.5-.5V7c0-.6.4-1 1-1s1 .4 1 1v3.5c0 .3.2.5.5.5s.5-.2.5-.5V6c0-.6.4-1 1-1s1 .4 1 1v2z"></path></svg>