<svg xmlns="http://www.w3.org/2000/svg" xmlns:xlink="http://www.w3.org/1999/xlink" aria-hidden="true" role="img" class="iconify iconify--geo" width="1em" height="1em" preserveAspectRatio="xMidYMid meet" viewBox="0 0 100 100" data-icon="geo:turf-point-grid"><circle cx="11.528" cy="88.472" r="5.824" fill="currentColor"></circle><circle cx="88.472" cy="11.528" r="5.824" fill="currentColor"></circle><circle cx="69.236" cy="11.528" r="5.824" fill="currentColor"></circle><circle cx="50" cy="11.528" r="5.824" fill="currentColor"></circle><circle cx="30.764" cy="11.528" r="5.824" fill="currentColor"></circle><circle cx="11.528" cy="11.528" r="5.824" fill="currentColor"></circle><circle cx="88.472" cy="88.472" r="5.824" fill="currentColor"></circle><circle cx="88.472" cy="69.236" r="5.824" fill="currentColor"></circle><circle cx="88.472" cy="50" r="5.824" fill="currentColor"></circle><circle cx="88.472" cy="30.764" r="5.824" fill="currentColor"></circle><circle cx="69.472" cy="88.472" r="5.824" fill="currentColor"></circle><circle cx="69.472" cy="69.236" r="5.824" fill="currentColor"></circle><circle cx="69.472" cy="50" r="5.824" fill="currentColor"></circle><circle cx="69.472" cy="30.764" r="5.824" fill="currentColor"></circle><circle cx="50.472" cy="88.472" r="5.824" fill="currentColor"></circle><circle cx="50.472" cy="69.236" r="5.824" fill="currentColor"></circle><circle cx="50.472" cy="50" r="5.824" fill="currentColor"></circle><circle cx="50.472" cy="30.764" r="5.824" fill="currentColor"></circle><circle cx="30.472" cy="88.472" r="5.824" fill="currentColor"></circle><circle cx="30.472" cy="69.236" r="5.824" fill="currentColor"></circle><circle cx="30.472" cy="50" r="5.824" fill="currentColor"></circle><circle cx="30.472" cy="30.764" r="5.824" fill="currentColor"></circle><circle cx="11.472" cy="69.236" r="5.824" fill="currentColor"></circle><circle cx="11.472" cy="50" r="5.824" fill="currentColor"></circle><circle cx="11.472" cy="30.764" r="5.824" fill="currentColor"></circle><circle cx="88.472" cy="11.528" r="5.824" fill="currentColor"></circle><circle cx="69.236" cy="11.528" r="5.824" fill="currentColor"></circle><circle cx="50" cy="11.528" r="5.824" fill="currentColor"></circle><circle cx="30.764" cy="11.528" r="5.824" fill="currentColor"></circle><circle cx="11.528" cy="11.528" r="5.824" fill="currentColor"></circle></svg>