<svg xmlns="http://www.w3.org/2000/svg" xmlns:xlink="http://www.w3.org/1999/xlink" aria-hidden="true" role="img" class="iconify iconify--bx" width="1em" height="1em" preserveAspectRatio="xMidYMid meet" viewBox="0 0 24 24" data-icon="bx:border-left"><path fill="currentColor" d="M11 3h2v2h-2zm4 0h2v2h-2zM7 3h2v2H7zm12 0h2v2h-2zm0 8h2v2h-2zm0 4h2v2h-2zm0-8h2v2h-2zm0 12h2v2h-2zm-4 0h2v2h-2zm-8 0h2v2H7zm4 0h2v2h-2zm0-4h2v2h-2zm0-8h2v2h-2zm4 4h2v2h-2zm-8 0h2v2H7zm4 0h2v2h-2zM3 5v16h2V3H3z"></path></svg>