<svg xmlns="http://www.w3.org/2000/svg" xmlns:xlink="http://www.w3.org/1999/xlink" aria-hidden="true" role="img" class="iconify iconify--bx" width="1em" height="1em" preserveAspectRatio="xMidYMid meet" viewBox="0 0 24 24" data-icon="bx:border-bottom"><path fill="currentColor" d="M3 7h2v2H3zm0 4h2v2H3zm0 4h2v2H3zM3 3h2v2H3zm8 0h2v2h-2zM7 3h2v2H7zm8 0h2v2h-2zm4 0h2v2h-2zm0 12h2v2h-2zm0-4h2v2h-2zm0-4h2v2h-2zm-4 4h2v2h-2zm-8 0h2v2H7zm4-4h2v2h-2zm0 8h2v2h-2zm0-4h2v2h-2zm6 8H3v2h18v-2h-2z"></path></svg>