<svg xmlns="http://www.w3.org/2000/svg" xmlns:xlink="http://www.w3.org/1999/xlink" aria-hidden="true" role="img" class="iconify iconify--bx" width="1em" height="1em" preserveAspectRatio="xMidYMid meet" viewBox="0 0 24 24" data-icon="bx:border-none"><path fill="currentColor" d="M19 19h2v2h-2zm-8 0h2v2h-2zm4 0h2v2h-2zm-8 0h2v2H7zm-4 0h2v2H3zM3 7h2v2H3zm0 8h2v2H3zm0-4h2v2H3zm0-8h2v2H3zm4 0h2v2H7zm4 0h2v2h-2zm4 0h2v2h-2zm4 0h2v2h-2zm0 4h2v2h-2zm0 4h2v2h-2zm0 4h2v2h-2zm-8-8h2v2h-2zm0 8h2v2h-2zm-4-4h2v2H7zm8 0h2v2h-2zm-4 0h2v2h-2z"></path></svg>