<svg xmlns="http://www.w3.org/2000/svg" xmlns:xlink="http://www.w3.org/1999/xlink" aria-hidden="true" role="img" class="iconify iconify--bx" width="1em" height="1em" preserveAspectRatio="xMidYMid meet" viewBox="0 0 24 24" data-icon="bx:building"><path fill="currentColor" d="M18 2H6c-1.103 0-2 .897-2 2v17a1 1 0 0 0 1 1h14a1 1 0 0 0 1-1V4c0-1.103-.897-2-2-2zm0 18H6V4h12v16z"></path><path fill="currentColor" d="M8 6h3v2H8zm5 0h3v2h-3zm-5 4h3v2H8zm5 .031h3V12h-3zM8 14h3v2H8zm5 0h3v2h-3z"></path></svg>