<svg xmlns="http://www.w3.org/2000/svg" xmlns:xlink="http://www.w3.org/1999/xlink" aria-hidden="true" role="img" class="iconify iconify--bx" width="1em" height="1em" preserveAspectRatio="xMidYMid meet" viewBox="0 0 24 24"><path fill="currentColor" d="M19.07 4.93A10 10 0 0 0 4.93 19.07A10 10 0 0 0 19.07 4.93ZM6.34 6.34a8 8 0 0 1 8.78-1.71l-.29.3l.71.71l.52-.53a9.53 9.53 0 0 1 .84.57L5.68 16.9a9.53 9.53 0 0 1-.57-.84l.53-.52l-.71-.71l-.29.29a8 8 0 0 1 1.7-8.78Zm11.32 11.32a8 8 0 0 1-8.78 1.71l.29-.3l-.71-.71l-.52.53a9.53 9.53 0 0 1-.84-.57L18.32 7.1a9.53 9.53 0 0 1 .57.84l-.53.52l.71.71l.29-.29a8 8 0 0 1-1.7 8.78Zm-6.37-2.12l.71.7l-1.41 1.42l-.71-.66Zm2.83-2.83l.71.7l-1.42 1.42l-.7-.71ZM17 9.88l.71.71L16.24 12l-.7-.71Zm-4.29-1.42l-.71-.7l1.41-1.42l.71.71Zm-2.83 2.83l-.71-.7l1.42-1.42l.7.71Zm-2.83 2.83l-.71-.71L7.76 12l.7.71Z"></path></svg>