<svg xmlns="http://www.w3.org/2000/svg" xmlns:xlink="http://www.w3.org/1999/xlink" aria-hidden="true" role="img" class="iconify iconify--bx" width="1em" height="1em" preserveAspectRatio="xMidYMid meet" viewBox="0 0 24 24"><circle cx="15" cy="13" r="1" fill="currentColor"></circle><circle cx="17" cy="11" r="1" fill="currentColor"></circle><path fill="currentColor" d="M10 9H8v2H6v2h2v2h2v-2h2v-2h-2z"></path><path fill="currentColor" d="M15 5H9a7 7 0 0 0-7 7a7 7 0 0 0 7 7h6a7 7 0 0 0 7-7a7 7 0 0 0-7-7zm0 12H9A5 5 0 1 1 9 7h6a5 5 0 1 1 0 10z"></path></svg>