<svg xmlns="http://www.w3.org/2000/svg" xmlns:xlink="http://www.w3.org/1999/xlink" aria-hidden="true" role="img" class="iconify iconify--bx" width="1em" height="1em" preserveAspectRatio="xMidYMid meet" viewBox="0 0 24 24"><circle cx="6" cy="4" r="2" fill="currentColor"></circle><path fill="currentColor" d="M9 7H3a1 1 0 0 0-1 1v7h2v7h4v-7h2V8a1 1 0 0 0-1-1Z"></path><circle cx="17" cy="4" r="2" fill="currentColor"></circle><path fill="currentColor" d="M20.21 7.73a1 1 0 0 0-1-.73h-4.5a1 1 0 0 0-1 .73L12 14h2l-1 4h2v4h4v-4h2l-1-4h2Z"></path></svg>