<svg xmlns="http://www.w3.org/2000/svg" xmlns:xlink="http://www.w3.org/1999/xlink" aria-hidden="true" role="img" class="iconify iconify--prime" width="1em" height="1em" preserveAspectRatio="xMidYMid meet" viewBox="0 0 24 24" data-icon="prime:chart-bar"><path fill="currentColor" d="M4.5 20.25a.76.76 0 0 1-.75-.75v-15a.75.75 0 0 1 1.5 0v15a.76.76 0 0 1-.75.75Z"></path><path fill="currentColor" d="M19.5 20.25h-15a.75.75 0 0 1 0-1.5h15a.75.75 0 0 1 0 1.5ZM8 16.75a.76.76 0 0 1-.75-.75v-4a.75.75 0 0 1 1.5 0v4a.76.76 0 0 1-.75.75Zm3.5 0a.76.76 0 0 1-.75-.75V8a.75.75 0 0 1 1.5 0v8a.76.76 0 0 1-.75.75Zm3.5 0a.76.76 0 0 1-.75-.75v-4a.75.75 0 0 1 1.5 0v4a.76.76 0 0 1-.75.75Zm3.5 0a.76.76 0 0 1-.75-.75V8a.75.75 0 0 1 1.5 0v8a.76.76 0 0 1-.75.75Z"></path></svg>