<svg xmlns="http://www.w3.org/2000/svg" xmlns:xlink="http://www.w3.org/1999/xlink" aria-hidden="true" role="img" class="iconify iconify--prime" width="1em" height="1em" preserveAspectRatio="xMidYMid meet" viewBox="0 0 24 24" data-icon="prime:fast-forward"><path fill="currentColor" d="M4 19.75a.75.75 0 0 1-.29-.06a.74.74 0 0 1-.46-.69V5a.75.75 0 0 1 1.28-.53l7 7a.75.75 0 0 1 0 1.06l-7 7a.75.75 0 0 1-.53.22Zm.75-12.94v10.38L9.94 12ZM20 19.25a.76.76 0 0 1-.75-.75v-14a.75.75 0 0 1 1.5 0v14a.76.76 0 0 1-.75.75Z"></path><path fill="currentColor" d="M12 19.75a.75.75 0 0 1-.29-.06a.74.74 0 0 1-.46-.69V5a.75.75 0 0 1 1.28-.53l7 7a.75.75 0 0 1 0 1.06l-7 7a.75.75 0 0 1-.53.22Zm.75-12.94v10.38L17.94 12Z"></path></svg>