<svg xmlns="http://www.w3.org/2000/svg" xmlns:xlink="http://www.w3.org/1999/xlink" aria-hidden="true" role="img" class="iconify iconify--prime" width="1em" height="1em" preserveAspectRatio="xMidYMid meet" viewBox="0 0 24 24" data-icon="prime:forward"><path fill="currentColor" d="M4 19.75a.8.8 0 0 1-.3-.06a.76.76 0 0 1-.45-.69V5a.75.75 0 0 1 1.26-.55l7.47 7a.75.75 0 0 1 0 1.1l-7.47 7a.74.74 0 0 1-.51.2Zm.75-13v10.52L10.37 12Z"></path><path fill="currentColor" d="M12.53 19.75a.72.72 0 0 1-.29-.06a.75.75 0 0 1-.46-.69V5a.76.76 0 0 1 1.27-.55l7.46 7a.75.75 0 0 1 0 1.1l-7.46 7a.79.79 0 0 1-.52.2Zm.75-13v10.52L18.9 12Z"></path></svg>