<svg xmlns="http://www.w3.org/2000/svg" xmlns:xlink="http://www.w3.org/1999/xlink" aria-hidden="true" role="img" class="iconify iconify--prime" width="1em" height="1em" preserveAspectRatio="xMidYMid meet" viewBox="0 0 24 24" data-icon="prime:mobile"><path fill="currentColor" d="M16 3.25H8A1.76 1.76 0 0 0 6.25 5v14A1.76 1.76 0 0 0 8 20.75h8A1.76 1.76 0 0 0 17.75 19V5A1.76 1.76 0 0 0 16 3.25ZM16.25 19a.25.25 0 0 1-.25.25H8a.25.25 0 0 1-.25-.25V5A.25.25 0 0 1 8 4.75h8a.25.25 0 0 1 .25.25Z"></path><path fill="currentColor" d="M12 14.5a1.5 1.5 0 1 0 1.5 1.5a1.5 1.5 0 0 0-1.5-1.5Zm0 1.5Z"></path></svg>