<svg xmlns="http://www.w3.org/2000/svg" xmlns:xlink="http://www.w3.org/1999/xlink" aria-hidden="true" role="img" class="iconify iconify--prime" width="1em" height="1em" preserveAspectRatio="xMidYMid meet" viewBox="0 0 24 24" data-icon="prime:palette"><path fill="currentColor" d="M12.11 4.25H12a7.79 7.79 0 0 0-7.65 6.51a1.71 1.71 0 0 0 .4 1.4a1.69 1.69 0 0 0 1.25.61h.1A5.27 5.27 0 0 1 10 14a5.28 5.28 0 0 1 1.23 4a1.65 1.65 0 0 0 .6 1.3a1.7 1.7 0 0 0 1.13.42a1.32 1.32 0 0 0 .28 0a7.75 7.75 0 0 0-1.13-15.4ZM13 18.17a.25.25 0 0 1-.2-.06a.19.19 0 0 1-.07-.15A6.73 6.73 0 0 0 11 13a6.67 6.67 0 0 0-4.93-1.7H6a.22.22 0 0 1-.15-.08a.25.25 0 0 1-.06-.2A6.29 6.29 0 0 1 12 5.75h.09a6.38 6.38 0 0 1 6.16 6.16A6.29 6.29 0 0 1 13 18.17Z"></path><path fill="currentColor" d="M9 7.75A1.25 1.25 0 1 0 10.25 9A1.25 1.25 0 0 0 9 7.75Zm0 1.5A.25.25 0 1 1 9.25 9a.25.25 0 0 1-.25.25Zm3-2.75a1.25 1.25 0 1 0 1.25 1.25A1.25 1.25 0 0 0 12 6.5ZM12 8a.25.25 0 1 1 .25-.25A.25.25 0 0 1 12 8Zm3 2.25A1.25 1.25 0 1 0 13.75 9A1.25 1.25 0 0 0 15 10.25Zm0-1a.25.25 0 1 1 .25-.25a.25.25 0 0 1-.25.25Zm1.25 1.5A1.25 1.25 0 1 0 17.5 12a1.25 1.25 0 0 0-1.25-1.25Zm0 1.5a.25.25 0 1 1 .25-.25a.25.25 0 0 1-.25.25ZM15 13.75A1.25 1.25 0 1 0 16.25 15A1.25 1.25 0 0 0 15 13.75Zm0 1.5a.25.25 0 1 1 .25-.25a.25.25 0 0 1-.25.25Z"></path></svg>