<svg xmlns="http://www.w3.org/2000/svg" xmlns:xlink="http://www.w3.org/1999/xlink" aria-hidden="true" role="img" class="iconify iconify--prime" width="1em" height="1em" preserveAspectRatio="xMidYMid meet" viewBox="0 0 24 24" data-icon="prime:percentage"><path fill="currentColor" d="M7.05 17.7a.74.74 0 0 1-.53-.22a.75.75 0 0 1 0-1.06l9.9-9.9a.75.75 0 1 1 1.06 1.06l-9.9 9.9a.74.74 0 0 1-.53.22Zm1.45-6.95a2.25 2.25 0 1 1 2.25-2.25a2.25 2.25 0 0 1-2.25 2.25Zm0-3a.75.75 0 1 0 .75.75a.76.76 0 0 0-.75-.75Zm7 10a2.25 2.25 0 1 1 2.25-2.25a2.25 2.25 0 0 1-2.25 2.25Zm0-3a.75.75 0 1 0 .75.75a.76.76 0 0 0-.75-.75Z"></path></svg>