<svg xmlns="http://www.w3.org/2000/svg" xmlns:xlink="http://www.w3.org/1999/xlink" aria-hidden="true" role="img" class="iconify iconify--prime" width="1em" height="1em" preserveAspectRatio="xMidYMid meet" viewBox="0 0 24 24" data-icon="prime:question-circle"><path fill="currentColor" d="M12 3a9 9 0 1 0 9 9a9 9 0 0 0-9-9Zm0 16.5a7.5 7.5 0 1 1 7.5-7.5a7.5 7.5 0 0 1-7.5 7.5Z"></path><path fill="currentColor" d="M9.7 7.7a3.25 3.25 0 0 0-.95 2.3a.75.75 0 0 0 1.5 0a1.74 1.74 0 0 1 .51-1.24a1.8 1.8 0 0 1 2.48 0a1.75 1.75 0 0 1-1.24 3a.76.76 0 0 0-.75.75v1a.75.75 0 0 0 1.5 0v-.34a3.19 3.19 0 0 0 1.55-.86a3.26 3.26 0 0 0 0-4.6a3.34 3.34 0 0 0-4.6-.01Z"></path><circle cx="12" cy="16.25" r="1.25" fill="currentColor"></circle></svg>