<svg xmlns="http://www.w3.org/2000/svg" xmlns:xlink="http://www.w3.org/1999/xlink" aria-hidden="true" role="img" class="iconify iconify--prime" width="1em" height="1em" preserveAspectRatio="xMidYMid meet" viewBox="0 0 24 24" data-icon="prime:server"><path fill="currentColor" d="M20.5 8.5v-3a1 1 0 0 0-1-1h-15a1 1 0 0 0-1 1v3a1 1 0 0 0 1 1a1 1 0 0 0-1 1v3a1 1 0 0 0 1 1a1 1 0 0 0-1 1v3a1 1 0 0 0 1 1h15a1 1 0 0 0 1-1v-3a1 1 0 0 0-1-1a1 1 0 0 0 1-1v-3a1 1 0 0 0-1-1a1 1 0 0 0 1-1Zm-1 10h-15v-3h15Zm0-5h-15v-3h15Zm0-5h-15v-3h15Z"></path><circle cx="6.25" cy="7" r=".75" fill="currentColor"></circle><circle cx="8.75" cy="7" r=".75" fill="currentColor"></circle><circle cx="6.25" cy="12" r=".75" fill="currentColor"></circle><circle cx="8.75" cy="12" r=".75" fill="currentColor"></circle><circle cx="6.25" cy="17" r=".75" fill="currentColor"></circle><circle cx="8.75" cy="17" r=".75" fill="currentColor"></circle></svg>