<svg xmlns="http://www.w3.org/2000/svg" xmlns:xlink="http://www.w3.org/1999/xlink" aria-hidden="true" role="img" class="iconify iconify--prime" width="1em" height="1em" preserveAspectRatio="xMidYMid meet" viewBox="0 0 24 24" data-icon="prime:shopping-cart"><path fill="currentColor" d="M9.75 20.75a1.5 1.5 0 1 1 1.5-1.5a1.5 1.5 0 0 1-1.5 1.5Zm0-1.5Zm6.5 1.5a1.5 1.5 0 1 1 1.5-1.5a1.5 1.5 0 0 1-1.5 1.5Zm0-1.5Zm1.75-2.5H8a.76.76 0 0 1-.74-.62L5.37 5.75H4a.75.75 0 0 1 0-1.5h2a.76.76 0 0 1 .74.62l.43 2.38H20a.75.75 0 0 1 .59.29a.77.77 0 0 1 .14.64l-2 8a.76.76 0 0 1-.73.57Zm-9.37-1.5h8.78L19 8.75H7.44Z"></path></svg>