<svg xmlns="http://www.w3.org/2000/svg" xmlns:xlink="http://www.w3.org/1999/xlink" aria-hidden="true" role="img" class="iconify iconify--prime" width="1em" height="1em" preserveAspectRatio="xMidYMid meet" viewBox="0 0 24 24" data-icon="prime:sliders-h"><path fill="currentColor" d="M19 8.25h-7a.75.75 0 0 1 0-1.5h7a.75.75 0 0 1 0 1.5Zm-9 0H5a.75.75 0 0 1 0-1.5h5a.75.75 0 0 1 0 1.5Z"></path><path fill="currentColor" d="M10 9.75A.76.76 0 0 1 9.25 9V6a.75.75 0 0 1 1.5 0v3a.76.76 0 0 1-.75.75Zm9 7.5h-7a.75.75 0 0 1 0-1.5h7a.75.75 0 0 1 0 1.5Zm-9 0H5a.75.75 0 0 1 0-1.5h5a.75.75 0 0 1 0 1.5Z"></path><path fill="currentColor" d="M10 18.75a.76.76 0 0 1-.75-.75v-3a.75.75 0 0 1 1.5 0v3a.76.76 0 0 1-.75.75Zm9-6h-3a.75.75 0 0 1 0-1.5h3a.75.75 0 0 1 0 1.5Zm-5 0H5a.75.75 0 0 1 0-1.5h9a.75.75 0 0 1 0 1.5Z"></path><path fill="currentColor" d="M14 14.25a.76.76 0 0 1-.75-.75v-3a.75.75 0 0 1 1.5 0v3a.76.76 0 0 1-.75.75Z"></path></svg>