<svg xmlns="http://www.w3.org/2000/svg" xmlns:xlink="http://www.w3.org/1999/xlink" aria-hidden="true" role="img" class="iconify iconify--prime" width="1em" height="1em" preserveAspectRatio="xMidYMid meet" viewBox="0 0 24 24" data-icon="prime:sort-numeric-up"><path fill="currentColor" d="M10.75 8.25a.74.74 0 0 1-.53-.25l-2-2l-2 2a.75.75 0 1 1-1-1l2.5-2.5a.75.75 0 0 1 1.06 0l2.5 2.5a.75.75 0 0 1 0 1.06a.74.74 0 0 1-.53.19Z"></path><path fill="currentColor" d="M8.25 19.75A.76.76 0 0 1 7.5 19V5A.75.75 0 0 1 9 5v14a.76.76 0 0 1-.75.75Zm8.75-8.5a.76.76 0 0 1-.75-.75V6.44l-.39.22a.76.76 0 0 1-1-.3a.75.75 0 0 1 .3-1l.63-.36A1.19 1.19 0 0 1 17 4.87a1.27 1.27 0 0 1 .74 1.18v4.45a.76.76 0 0 1-.74.75Zm-.5 6A2.25 2.25 0 1 1 18.75 15a2.25 2.25 0 0 1-2.25 2.25Zm0-3a.75.75 0 1 0 .75.75a.76.76 0 0 0-.75-.75Z"></path><path fill="currentColor" d="M16 19.25h-.5a.75.75 0 0 1 0-1.5h.5a1.29 1.29 0 0 0 1.26-1.19V15a.75.75 0 0 1 1.5 0v1.64A2.78 2.78 0 0 1 16 19.25Z"></path></svg>