<svg xmlns="http://www.w3.org/2000/svg" xmlns:xlink="http://www.w3.org/1999/xlink" aria-hidden="true" role="img" class="iconify iconify--prime" width="1em" height="1em" preserveAspectRatio="xMidYMid meet" viewBox="0 0 24 24" data-icon="prime:sort-alt"><path fill="currentColor" d="M10.5 8.25A.74.74 0 0 1 10 8L8 6L6 8a.75.75 0 1 1-1-1l2.5-2.5a.75.75 0 0 1 1.06 0L11 7a.75.75 0 0 1 0 1a.74.74 0 0 1-.5.25Z"></path><path fill="currentColor" d="M8 19.75a.76.76 0 0 1-.75-.75V5a.75.75 0 0 1 1.5 0v14a.76.76 0 0 1-.75.75Zm8 0a.74.74 0 0 1-.53-.22L13 17a.75.75 0 1 1 1-1l2 2l2-2a.75.75 0 1 1 1 1l-2.5 2.5a.74.74 0 0 1-.5.25Z"></path><path fill="currentColor" d="M16 19.75a.76.76 0 0 1-.75-.75V5a.75.75 0 0 1 1.5 0v14a.76.76 0 0 1-.75.75Z"></path></svg>