<svg xmlns="http://www.w3.org/2000/svg" xmlns:xlink="http://www.w3.org/1999/xlink" aria-hidden="true" role="img" class="iconify iconify--prime" width="1em" height="1em" preserveAspectRatio="xMidYMid meet" viewBox="0 0 24 24" data-icon="prime:sort-amount-down"><path fill="currentColor" d="M6.5 19.75a.74.74 0 0 1-.5-.22L3.47 17a.75.75 0 1 1 1.06-1l2 2l2-2a.75.75 0 1 1 1 1L7 19.53a.74.74 0 0 1-.5.22Z"></path><path fill="currentColor" d="M6.5 19.75a.76.76 0 0 1-.75-.75V5a.75.75 0 0 1 1.5 0v14a.76.76 0 0 1-.75.75ZM20 8.25h-8a.75.75 0 0 1 0-1.5h8a.75.75 0 0 1 0 1.5Zm-4 6h-4a.75.75 0 0 1 0-1.5h4a.75.75 0 0 1 0 1.5Zm-2 3h-2a.75.75 0 0 1 0-1.5h2a.75.75 0 0 1 0 1.5Zm4-6h-6a.75.75 0 0 1 0-1.5h6a.75.75 0 0 1 0 1.5Z"></path></svg>