<svg xmlns="http://www.w3.org/2000/svg" xmlns:xlink="http://www.w3.org/1999/xlink" aria-hidden="true" role="img" class="iconify iconify--prime" width="1em" height="1em" preserveAspectRatio="xMidYMid meet" viewBox="0 0 24 24" data-icon="prime:sort-amount-up-alt"><path fill="currentColor" d="M9 8.25A.74.74 0 0 1 8.47 8l-2-2l-2 2a.75.75 0 1 1-1-1L6 4.47a.75.75 0 0 1 1 0L9.53 7a.75.75 0 0 1 0 1a.74.74 0 0 1-.53.25Z"></path><path fill="currentColor" d="M6.5 19.75a.76.76 0 0 1-.75-.75V5a.75.75 0 0 1 1.5 0v14a.76.76 0 0 1-.75.75Zm13.5-2.5h-8a.75.75 0 0 1 0-1.5h8a.75.75 0 0 1 0 1.5Zm-4-6h-4a.75.75 0 0 1 0-1.5h4a.75.75 0 0 1 0 1.5Zm-2-3h-2a.75.75 0 0 1 0-1.5h2a.75.75 0 0 1 0 1.5Zm4 6h-6a.75.75 0 0 1 0-1.5h6a.75.75 0 0 1 0 1.5Z"></path></svg>