<svg xmlns="http://www.w3.org/2000/svg" xmlns:xlink="http://www.w3.org/1999/xlink" aria-hidden="true" role="img" class="iconify iconify--prime" width="1em" height="1em" preserveAspectRatio="xMidYMid meet" viewBox="0 0 24 24" data-icon="prime:sort-alpha-alt-down"><path fill="currentColor" d="M10.22 16L9 17.19V5a.75.75 0 0 0-1.5 0v12.19L6.28 16a.75.75 0 1 0-1.06 1l2.5 2.5a.78.78 0 0 0 .24.16a.73.73 0 0 0 .58 0a.78.78 0 0 0 .24-.16l2.5-2.5a.75.75 0 1 0-1.06-1ZM19 18.25l-1.71-4.79a1.05 1.05 0 0 0-2 0l-1.71 4.77a.75.75 0 0 0 1.42.5l.27-.77h2l.27.77a.75.75 0 0 0 .71.5a.73.73 0 0 0 .25 0a.75.75 0 0 0 .5-.98Zm-3.19-1.77l.48-1.35l.48 1.35Zm-1.98-5.94a1.11 1.11 0 0 0 1 .71H18a.75.75 0 0 0 0-1.5h-2.39l2.82-2.93a1.28 1.28 0 0 0 .24-1.36a1.15 1.15 0 0 0-1.06-.71H14.5a.75.75 0 0 0 0 1.5h2.39L14.06 9.2a1.22 1.22 0 0 0-.23 1.34Z"></path></svg>