<svg xmlns="http://www.w3.org/2000/svg" xmlns:xlink="http://www.w3.org/1999/xlink" aria-hidden="true" role="img" class="iconify iconify--prime" width="1em" height="1em" preserveAspectRatio="xMidYMid meet" viewBox="0 0 24 24" data-icon="prime:sort-alt-slash"><path fill="currentColor" d="m6 8l1.25-1.19v5.69a.75.75 0 0 0 1.5 0V6.81L10 8a.75.75 0 0 0 1 0a.75.75 0 0 0 0-1L8.5 4.5a.78.78 0 0 0-.24-.16a.73.73 0 0 0-.58 0a.78.78 0 0 0-.24.16L5 7a.75.75 0 1 0 1 1Zm12 8l-1.22 1.22V11.5a.75.75 0 0 0-1.5 0v5.69L14 16a.75.75 0 1 0-1 1l2.5 2.5a.78.78 0 0 0 .24.16a.73.73 0 0 0 .58 0a.78.78 0 0 0 .24-.16L19 17a.75.75 0 1 0-1-1Zm1-10a.75.75 0 0 0-1-1l-1.25 1.19V5a.75.75 0 0 0-1.5 0v2.69L5 18a.75.75 0 0 0 0 1a.75.75 0 0 0 1 0l1.22-1.22V19a.75.75 0 0 0 1.5 0v-2.69Z"></path></svg>