<svg xmlns="http://www.w3.org/2000/svg" xmlns:xlink="http://www.w3.org/1999/xlink" aria-hidden="true" role="img" class="iconify iconify--prime" width="1em" height="1em" preserveAspectRatio="xMidYMid meet" viewBox="0 0 24 24" data-icon="prime:step-backward-alt"><path fill="currentColor" d="M8 19.5a.76.76 0 0 1-.75-.75v-14a.75.75 0 0 1 1.5 0v14a.76.76 0 0 1-.75.75Z"></path><path fill="currentColor" d="M16 20a.77.77 0 0 1-.53-.22l-7-7a.75.75 0 0 1 0-1.06l7-7a.75.75 0 0 1 1.28.53v14a.74.74 0 0 1-.46.69a.75.75 0 0 1-.29.06Zm-5.94-7.75l5.19 5.19V7.06Z"></path></svg>