<svg xmlns="http://www.w3.org/2000/svg" xmlns:xlink="http://www.w3.org/1999/xlink" aria-hidden="true" role="img" class="iconify iconify--prime" width="1em" height="1em" preserveAspectRatio="xMidYMid meet" viewBox="0 0 24 24"><path fill="currentColor" d="M18 3.25H6A1.76 1.76 0 0 0 4.25 5v14A1.76 1.76 0 0 0 6 20.75h12A1.76 1.76 0 0 0 19.75 19V5A1.76 1.76 0 0 0 18 3.25ZM18.25 19a.25.25 0 0 1-.25.25H6a.25.25 0 0 1-.25-.25V5A.25.25 0 0 1 6 4.75h12a.25.25 0 0 1 .25.25Z"></path><path fill="currentColor" d="M12 14.5a1.5 1.5 0 1 0 1.5 1.5a1.5 1.5 0 0 0-1.5-1.5Zm0 1.5Z"></path></svg>