<svg xmlns="http://www.w3.org/2000/svg" xmlns:xlink="http://www.w3.org/1999/xlink" aria-hidden="true" role="img" class="iconify iconify--prime" width="1em" height="1em" preserveAspectRatio="xMidYMid meet" viewBox="0 0 24 24"><path fill="currentColor" d="m19.32 10.72l-6.48-6.48a.75.75 0 0 0-.53-.24H4.77a.76.76 0 0 0-.77.77v7.54a.79.79 0 0 0 .22.54l6.48 6.47a2.26 2.26 0 0 0 3.19 0l5.41-5.41a2.26 2.26 0 0 0 .02-3.19Zm-1.06 2.13l-5.41 5.41a.77.77 0 0 1-1.07 0L5.52 12V5.52H12l6.26 6.26a.77.77 0 0 1 0 1.07Z"></path><circle cx="8.5" cy="8.5" r="1.25" fill="currentColor"></circle></svg>