<svg xmlns="http://www.w3.org/2000/svg" xmlns:xlink="http://www.w3.org/1999/xlink" aria-hidden="true" role="img" class="iconify iconify--dashicons" width="1em" height="1em" preserveAspectRatio="xMidYMid meet" viewBox="0 0 20 20" data-icon="dashicons:calendar"><path fill="currentColor" d="M15 4h3v14H2V4h3V3c0-.83.67-1.5 1.5-1.5S8 2.17 8 3v1h4V3c0-.83.67-1.5 1.5-1.5S15 2.17 15 3v1zM6 3v2.5c0 .28.22.5.5.5s.5-.22.5-.5V3c0-.28-.22-.5-.5-.5S6 2.72 6 3zm7 0v2.5c0 .28.22.5.5.5s.5-.22.5-.5V3c0-.28-.22-.5-.5-.5s-.5.22-.5.5zm4 14V8H3v9h14zM7 16V9H5v7h2zm4 0V9H9v7h2zm4 0V9h-2v7h2z"></path></svg>