<svg xmlns="http://www.w3.org/2000/svg" xmlns:xlink="http://www.w3.org/1999/xlink" aria-hidden="true" role="img" class="iconify iconify--dashicons" width="1em" height="1em" preserveAspectRatio="xMidYMid meet" viewBox="0 0 20 20" data-icon="dashicons:cart"><path fill="currentColor" d="M6 13h9c.55 0 1 .45 1 1s-.45 1-1 1H5c-.55 0-1-.45-1-1V4H2c-.55 0-1-.45-1-1s.45-1 1-1h3c.55 0 1 .45 1 1v2h13l-4 7H6v1zm-.5 3c.83 0 1.5.67 1.5 1.5S6.33 19 5.5 19S4 18.33 4 17.5S4.67 16 5.5 16zm9 0c.83 0 1.5.67 1.5 1.5s-.67 1.5-1.5 1.5s-1.5-.67-1.5-1.5s.67-1.5 1.5-1.5z"></path></svg>