<svg xmlns="http://www.w3.org/2000/svg" xmlns:xlink="http://www.w3.org/1999/xlink" aria-hidden="true" role="img" class="iconify iconify--dashicons" width="1em" height="1em" preserveAspectRatio="xMidYMid meet" viewBox="0 0 20 20" data-icon="dashicons:database"><path fill="currentColor" d="M10 6c3.9 0 7-.9 7-2s-3.1-2-7-2s-7 .9-7 2s3.1 2 7 2zm0 9c-3.9 0-7-.9-7-2v3c0 1.1 3.1 2 7 2s7-.9 7-2v-3c0 1.1-3.1 2-7 2zm0-4c-3.9 0-7-.9-7-2v3c0 1.1 3.1 2 7 2s7-.9 7-2V9c0 1.1-3.1 2-7 2zm0-4c-3.9 0-7-.9-7-2v3c0 1.1 3.1 2 7 2s7-.9 7-2V5c0 1.1-3.1 2-7 2z"></path></svg>