<svg xmlns="http://www.w3.org/2000/svg" xmlns:xlink="http://www.w3.org/1999/xlink" aria-hidden="true" role="img" class="iconify iconify--eos-icons" width="1em" height="1em" preserveAspectRatio="xMidYMid meet" viewBox="0 0 24 24" data-icon="eos-icons:application-incomplete-outlined"><path fill="currentColor" d="M1 3v2h22l-.01-1.993A2 2 0 0 0 21 1H3a2.001 2.001 0 0 0-2 2Zm3 1a1 1 0 1 1 1-1a1 1 0 0 1-1 1Zm3 0a1 1 0 1 1 1-1a1.004 1.004 0 0 1-1 1Zm5 6a4 4 0 1 0 4 4h-4Z"></path><path fill="currentColor" d="M1 6v14a2 2 0 0 0 2 2h18a2 2 0 0 0 2-2V6Zm20 14H3V8h18Z"></path></svg>