<svg xmlns="http://www.w3.org/2000/svg" xmlns:xlink="http://www.w3.org/1999/xlink" aria-hidden="true" role="img" class="iconify iconify--eos-icons" width="1em" height="1em" preserveAspectRatio="xMidYMid meet" viewBox="0 0 24 24" data-icon="eos-icons:branch-outlined"><path fill="currentColor" d="M18 2a2.993 2.993 0 0 0-1 5.816V11H7V7.816a3 3 0 1 0-2 0v8.368a3 3 0 1 0 2 0V13h10a2 2 0 0 0 2-2V7.816A2.993 2.993 0 0 0 18 2ZM6 20a1 1 0 1 1 1-1a1 1 0 0 1-1 1ZM6 6a1 1 0 1 1 1-1a1 1 0 0 1-1 1Zm12 0a1 1 0 1 1 1-1a1 1 0 0 1-1 1Z"></path></svg>