<svg xmlns="http://www.w3.org/2000/svg" xmlns:xlink="http://www.w3.org/1999/xlink" aria-hidden="true" role="img" class="iconify iconify--eos-icons" width="1em" height="1em" preserveAspectRatio="xMidYMid meet" viewBox="0 0 24 24" data-icon="eos-icons:constraint"><path fill="currentColor" d="M21 15v-1.5a2.5 2.5 0 0 0-5 0V15a1.075 1.075 0 0 0-1 1v4a1.075 1.075 0 0 0 1 1h5a1.075 1.075 0 0 0 1-1v-4a1.075 1.075 0 0 0-1-1Zm-1 0h-3v-1.5a1.5 1.5 0 0 1 3 0Zm2-10H2V3h20Zm0 4H2V7h20Zm-9 4H2v-2h11Zm0 4H2v-2h11Zm0 4H2v-2h11Z"></path></svg>