<svg xmlns="http://www.w3.org/2000/svg" xmlns:xlink="http://www.w3.org/1999/xlink" aria-hidden="true" role="img" class="iconify iconify--eos-icons" width="1em" height="1em" preserveAspectRatio="xMidYMid meet" viewBox="0 0 24 24" data-icon="eos-icons:content-lifecycle-management"><path fill="currentColor" d="M6 7h8v2H6zm0 4h12v2H6zm0 4h2.99v2H6z"></path><path fill="currentColor" d="m14 3l-3-3v2H4a2 2 0 0 0-2 2v16a2 2 0 0 0 2 2h4v-2H4V4h7v2Zm-4 18l3 3v-2h7a2 2 0 0 0 2-2V4a2 2 0 0 0-2-2h-4v2h4v16h-7v-2Z"></path></svg>