<svg xmlns="http://www.w3.org/2000/svg" xmlns:xlink="http://www.w3.org/1999/xlink" aria-hidden="true" role="img" class="iconify iconify--eos-icons" width="1em" height="1em" preserveAspectRatio="xMidYMid meet" viewBox="0 0 24 24" data-icon="eos-icons:hourglass"><g><path fill="currentColor" d="M7 3H17V7.2L12 12L7 7.2V3Z"><animate id="IconifyId17f5a1d94c3c8428c1" fill="freeze" attributeName="opacity" begin="0;IconifyId17f5a1d94c3c8428c2.end" dur="2s" from="1" to="0"></animate></path><path fill="currentColor" d="M17 21H7V16.8L12 12L17 16.8V21Z"><animate fill="freeze" attributeName="opacity" begin="0;IconifyId17f5a1d94c3c8428c2.end" dur="2s" from="0" to="1"></animate></path><path fill="currentColor" d="M6 2V8H6.01L6 8.01L10 12L6 16L6.01 16.01H6V22H18V16.01H17.99L18 16L14 12L18 8.01L17.99 8H18V2H6ZM16 16.5V20H8V16.5L12 12.5L16 16.5ZM12 11.5L8 7.5V4H16V7.5L12 11.5Z"></path><animateTransform id="IconifyId17f5a1d94c3c8428c2" attributeName="transform" attributeType="XML" begin="IconifyId17f5a1d94c3c8428c1.end" dur="0.5s" from="0 12 12" to="180 12 12" type="rotate"></animateTransform></g></svg>