<svg xmlns="http://www.w3.org/2000/svg" xmlns:xlink="http://www.w3.org/1999/xlink" aria-hidden="true" role="img" class="iconify iconify--eos-icons" width="1em" height="1em" preserveAspectRatio="xMidYMid meet" viewBox="0 0 24 24" data-icon="eos-icons:node"><circle cx="12" cy="3" r="1" fill="currentColor"></circle><circle cx="20" cy="8" r="1" fill="currentColor"></circle><circle cx="20" cy="16" r="1" fill="currentColor"></circle><circle cx="4" cy="8" r="1" fill="currentColor"></circle><circle cx="4" cy="16" r="1" fill="currentColor"></circle><path fill="currentColor" d="M20 14v-4a1.992 1.992 0 0 1-1.481-3.333l-4.783-2.69a1.983 1.983 0 0 1-3.472 0l-4.783 2.69A1.992 1.992 0 0 1 4 10v4a1.992 1.992 0 0 1 1.481 3.333l4.783 2.69a1.991 1.991 0 0 1 1.236-.952v-5.142a2 2 0 1 1 1 0v5.142a1.991 1.991 0 0 1 1.236.953l4.783-2.69A1.992 1.992 0 0 1 20 14Z"></path><circle cx="12" cy="21" r="1" fill="currentColor"></circle><circle cx="12" cy="12" r="1" fill="currentColor"></circle></svg>