<svg xmlns="http://www.w3.org/2000/svg" xmlns:xlink="http://www.w3.org/1999/xlink" aria-hidden="true" role="img" class="iconify iconify--eos-icons" width="1em" height="1em" preserveAspectRatio="xMidYMid meet" viewBox="0 0 24 24" data-icon="eos-icons:product-subscriptions"><path fill="currentColor" d="M20 8H4V6h16Zm-2-6H6v2h12Zm4 10v8a2 2 0 0 1-2 2H4a2.006 2.006 0 0 1-2-2v-8a2.006 2.006 0 0 1 2-2h16a2.006 2.006 0 0 1 2 2Zm-8.073 5.042l2.323-1.986l-3.059-.256L12 12l-1.191 2.8l-3.059.256l2.323 1.986l-.7 2.958L12 18.428L14.627 20Z"></path></svg>