<svg xmlns="http://www.w3.org/2000/svg" xmlns:xlink="http://www.w3.org/1999/xlink" aria-hidden="true" role="img" class="iconify iconify--eos-icons" width="1em" height="1em" preserveAspectRatio="xMidYMid meet" viewBox="0 0 24 24" data-icon="eos-icons:products-outlined"><circle cx="5" cy="19" r="1" fill="currentColor"></circle><path fill="currentColor" d="M4 4h2v9H4z"></path><path fill="currentColor" d="M7 2H3a1 1 0 0 0-1 1v18a1 1 0 0 0 1 1h4a1 1 0 0 0 1-1V3a1 1 0 0 0-1-1Zm0 19H3V3h4Z"></path><circle cx="12" cy="19" r="1" fill="currentColor"></circle><path fill="currentColor" d="M11 4h2v9h-2z"></path><path fill="currentColor" d="M14 2h-4a1 1 0 0 0-1 1v18a1 1 0 0 0 1 1h4a1 1 0 0 0 1-1V3a1 1 0 0 0-1-1Zm0 19h-4V3h4Z"></path><circle cx="19" cy="19" r="1" fill="currentColor"></circle><path fill="currentColor" d="M18 4h2v9h-2z"></path><path fill="currentColor" d="M21 2h-4a1 1 0 0 0-1 1v18a1 1 0 0 0 1 1h4a1 1 0 0 0 1-1V3a1 1 0 0 0-1-1Zm0 19h-4V3h4Z"></path></svg>