<svg xmlns="http://www.w3.org/2000/svg" xmlns:xlink="http://www.w3.org/1999/xlink" aria-hidden="true" role="img" class="iconify iconify--eos-icons" width="1em" height="1em" preserveAspectRatio="xMidYMid meet" viewBox="0 0 24 24" data-icon="eos-icons:products"><path fill="currentColor" d="M7 2H3a1 1 0 0 0-1 1v18a1 1 0 0 0 1 1h4a1 1 0 0 0 1-1V3a1 1 0 0 0-1-1ZM5 21a2 2 0 1 1 2-2a2 2 0 0 1-2 2Zm2-9H3V3h4Zm-1 7a1 1 0 1 1-1-1a1 1 0 0 1 1 1Zm8-17h-4a1 1 0 0 0-1 1v18a1 1 0 0 0 1 1h4a1 1 0 0 0 1-1V3a1 1 0 0 0-1-1Zm-2 19a2 2 0 1 1 2-2a2 2 0 0 1-2 2Zm2-9h-4V3h4Zm-1 7a1 1 0 1 1-1-1a1 1 0 0 1 1 1Zm8-17h-4a1 1 0 0 0-1 1v18a1 1 0 0 0 1 1h4a1 1 0 0 0 1-1V3a1 1 0 0 0-1-1Zm-2 19a2 2 0 1 1 2-2a2 2 0 0 1-2 2Zm2-9h-4V3h4Zm-1 7a1 1 0 1 1-1-1a1 1 0 0 1 1 1Z"></path></svg>