<svg xmlns="http://www.w3.org/2000/svg" xmlns:xlink="http://www.w3.org/1999/xlink" aria-hidden="true" role="img" class="iconify iconify--mi" width="1em" height="1em" preserveAspectRatio="xMidYMid meet" viewBox="0 0 24 24" data-icon="mi:chevron-double-down"><path fill="currentColor" d="M5.293 6.293a1 1 0 0 1 1.414 0L12 11.586l5.293-5.293a1 1 0 1 1 1.414 1.414l-6 6a1 1 0 0 1-1.414 0l-6-6a1 1 0 0 1 0-1.414zm0 6a1 1 0 0 1 1.414 0L12 17.586l5.293-5.293a1 1 0 0 1 1.414 1.414l-6 6a1 1 0 0 1-1.414 0l-6-6a1 1 0 0 1 0-1.414z"></path></svg>