<svg xmlns="http://www.w3.org/2000/svg" xmlns:xlink="http://www.w3.org/1999/xlink" aria-hidden="true" role="img" class="iconify iconify--mi" width="1em" height="1em" preserveAspectRatio="xMidYMid meet" viewBox="0 0 24 24" data-icon="mi:chevron-double-up"><path fill="currentColor" d="M11.293 4.293a1 1 0 0 1 1.414 0l6 6a1 1 0 0 1-1.414 1.414L12 6.414l-5.293 5.293a1 1 0 0 1-1.414-1.414l6-6zM12 12.414l-5.293 5.293a1 1 0 0 1-1.414-1.414l6-6a1 1 0 0 1 1.414 0l6 6a1 1 0 0 1-1.414 1.414L12 12.414z"></path></svg>