<svg xmlns="http://www.w3.org/2000/svg" xmlns:xlink="http://www.w3.org/1999/xlink" aria-hidden="true" role="img" class="iconify iconify--mi" width="1em" height="1em" preserveAspectRatio="xMidYMid meet" viewBox="0 0 24 24" data-icon="mi:filter"><path fill="currentColor" d="M9 5a1 1 0 1 0 0 2a1 1 0 0 0 0-2zM6.17 5a3.001 3.001 0 0 1 5.66 0H19a1 1 0 1 1 0 2h-7.17a3.001 3.001 0 0 1-5.66 0H5a1 1 0 0 1 0-2h1.17zM15 11a1 1 0 1 0 0 2a1 1 0 0 0 0-2zm-2.83 0a3.001 3.001 0 0 1 5.66 0H19a1 1 0 1 1 0 2h-1.17a3.001 3.001 0 0 1-5.66 0H5a1 1 0 1 1 0-2h7.17zM9 17a1 1 0 1 0 0 2a1 1 0 0 0 0-2zm-2.83 0a3.001 3.001 0 0 1 5.66 0H19a1 1 0 1 1 0 2h-7.17a3.001 3.001 0 0 1-5.66 0H5a1 1 0 1 1 0-2h1.17z"></path></svg>