<svg xmlns="http://www.w3.org/2000/svg" xmlns:xlink="http://www.w3.org/1999/xlink" aria-hidden="true" role="img" class="iconify iconify--mi" width="1em" height="1em" preserveAspectRatio="xMidYMid meet" viewBox="0 0 24 24" data-icon="mi:switch"><path fill="currentColor" d="M14.293 2.293a1 1 0 0 1 1.414 0l4 4a1 1 0 0 1 0 1.414l-4 4a1 1 0 0 1-1.414-1.414L16.586 8H5a1 1 0 0 1 0-2h11.586l-2.293-2.293a1 1 0 0 1 0-1.414zm-4.586 10a1 1 0 0 1 0 1.414L7.414 16H19a1 1 0 1 1 0 2H7.414l2.293 2.293a1 1 0 0 1-1.414 1.414l-4-4a1 1 0 0 1 0-1.414l4-4a1 1 0 0 1 1.414 0z"></path></svg>