<svg xmlns="http://www.w3.org/2000/svg" xmlns:xlink="http://www.w3.org/1999/xlink" aria-hidden="true" role="img" class="iconify iconify--mi" width="1em" height="1em" preserveAspectRatio="xMidYMid meet" viewBox="0 0 24 24" data-icon="mi:user-remove"><path fill="currentColor" d="M10 4a4 4 0 1 0 0 8a4 4 0 0 0 0-8zM4 8a6 6 0 1 1 12 0A6 6 0 0 1 4 8zm12 6a1 1 0 0 1 1-1h4a1 1 0 1 1 0 2h-4a1 1 0 0 1-1-1zm-9.5 4C5.24 18 4 19.213 4 21a1 1 0 1 1-2 0c0-2.632 1.893-5 4.5-5h7c2.607 0 4.5 2.368 4.5 5a1 1 0 1 1-2 0c0-1.787-1.24-3-2.5-3h-7z"></path></svg>