<svg xmlns="http://www.w3.org/2000/svg" xmlns:xlink="http://www.w3.org/1999/xlink" aria-hidden="true" role="img" class="iconify iconify--fa6-regular" width="1em" height="1em" preserveAspectRatio="xMidYMid meet" viewBox="0 0 512 512" data-icon="fa6-regular:chart-bar"><path fill="currentColor" d="M24 32c13.25 0 24 10.75 24 24v352c0 13.3 10.75 24 24 24h416c13.3 0 24 10.7 24 24s-10.7 24-24 24H72c-39.76 0-72-32.2-72-72V56c0-13.25 10.75-24 24-24zm104 104c0-13.3 10.7-24 24-24h208c13.3 0 24 10.7 24 24s-10.7 24-24 24H152c-13.3 0-24-10.7-24-24zm168 72c13.3 0 24 10.7 24 24s-10.7 24-24 24H152c-13.3 0-24-10.7-24-24s10.7-24 24-24h144zm128 96c13.3 0 24 10.7 24 24s-10.7 24-24 24H152c-13.3 0-24-10.7-24-24s10.7-24 24-24h272z"></path></svg>