<svg xmlns="http://www.w3.org/2000/svg" xmlns:xlink="http://www.w3.org/1999/xlink" aria-hidden="true" role="img" class="iconify iconify--fa6-regular" width="1em" height="1em" preserveAspectRatio="xMidYMid meet" viewBox="0 0 512 512" data-icon="fa6-regular:circle-dot"><path fill="currentColor" d="M160 256c0-53.9 42.1-96 96-96c53 0 96 42.1 96 96c0 53-43 96-96 96c-53.9 0-96-43-96-96zm352 0c0 141.4-114.6 256-256 256S0 397.4 0 256S114.6 0 256 0s256 114.6 256 256zM256 48C141.1 48 48 141.1 48 256s93.1 208 208 208s208-93.1 208-208S370.9 48 256 48z"></path></svg>