<svg xmlns="http://www.w3.org/2000/svg" xmlns:xlink="http://www.w3.org/1999/xlink" aria-hidden="true" role="img" class="iconify iconify--fa6-regular" width="1em" height="1em" preserveAspectRatio="xMidYMid meet" viewBox="0 0 512 512" data-icon="fa6-regular:copyright"><path fill="currentColor" d="M256 0C114.6 0 0 114.6 0 256s114.6 256 256 256s256-114.6 256-256S397.4 0 256 0zm0 464c-114.7 0-208-93.31-208-208S141.3 48 256 48s208 93.31 208 208s-93.3 208-208 208zm-.9-288c21.06 0 40.92 8.312 55.83 23.38c9.375 9.344 24.53 9.5 33.97.156c9.406-9.344 9.469-24.53.156-33.97c-24-24.22-55.95-37.56-89.95-37.56c0 0 .032 0 0 0c-33.97 0-65.95 13.34-89.95 37.56c-49.44 49.88-49.44 131 0 180.9c24 24.22 55.98 37.56 89.95 37.56c.032 0 0 0 0 0c34 0 65.95-13.34 89.95-37.56c9.312-9.438 9.25-24.62-.156-33.97c-9.438-9.312-24.59-9.219-33.97.156c-14.91 15.06-34.77 23.38-55.83 23.38c0 0 .031 0 0 0c-21.09 0-40.95-8.312-55.89-23.38c-30.94-31.22-30.94-82.03 0-113.3C214.2 184.3 234 176 255.1 176z"></path></svg>