<svg xmlns="http://www.w3.org/2000/svg" xmlns:xlink="http://www.w3.org/1999/xlink" aria-hidden="true" role="img" class="iconify iconify--fa6-regular" width="1em" height="1em" preserveAspectRatio="xMidYMid meet" viewBox="0 0 512 512" data-icon="fa6-regular:face-grin-wink"><path fill="currentColor" d="M349.5 308.4c18.7-5.3 35.9 12 24.6 28.1c-23.7 38.1-67.8 62.6-118.2 62.6c-50.3 0-94.4-24.5-119-62.6c-10.4-16.1 6.8-33.4 25.4-28.1c29 6.7 60.5 10.4 93.6 10.4c33.1 0 64.7-3.7 93.6-10.4zM208.4 208c0 17.7-14.4 32-32 32c-17.7 0-32-14.3-32-32s14.3-32 32-32c17.6 0 32 14.3 32 32zm73.5 22.6c-8-7.6-8.4-20.2-.9-28.3c14.6-15.5 35.3-22.3 54.6-22.3c18.5 0 40.1 6.8 54.6 22.3c7.6 8.1 7.2 20.7-.9 28.3c-8.1 7.5-20.7 7.1-28.3-.9c-5.4-5.9-14.7-9.7-25.4-9.7c-11.5 0-19.9 3.8-25.4 9.7c-7.5 8-20.2 8.4-28.3.9zM512 256c0 141.4-114.6 256-256 256S0 397.4 0 256S114.6 0 256 0s256 114.6 256 256zM256 48C141.1 48 48 141.1 48 256s93.1 208 208 208s208-93.1 208-208S370.9 48 256 48z"></path></svg>