<svg xmlns="http://www.w3.org/2000/svg" xmlns:xlink="http://www.w3.org/1999/xlink" aria-hidden="true" role="img" class="iconify iconify--fa6-regular" width="1em" height="1em" preserveAspectRatio="xMidYMid meet" viewBox="0 0 512 512" data-icon="fa6-regular:face-rolling-eyes"><path fill="currentColor" d="M168 376c0-13.3 10.7-24 24-24h128c13.3 0 24 10.7 24 24s-10.7 24-24 24H192c-13.3 0-24-10.7-24-24zM80 224c0-44.2 35.8-80 80-80s80 35.8 80 80s-35.8 80-80 80s-80-35.8-80-80zm80 48c26.5 0 48-21.5 48-48c0-14.3-6.3-27.2-16.2-36c.1 1.3.2 2.6.2 4c0 17.7-14.3 32-32 32s-32-14.3-32-32c0-1.4.1-2.7.2-4c-9.9 8.8-16.2 21.7-16.2 36c0 26.5 21.5 48 48 48zm112-48c0-44.2 35.8-80 80-80s80 35.8 80 80s-35.8 80-80 80s-80-35.8-80-80zm80 48c26.5 0 48-21.5 48-48c0-14.3-6.3-27.2-16.2-36c.1 1.3.2 2.6.2 4c0 17.7-14.3 32-32 32s-32-14.3-32-32c0-1.4.1-2.7.2-4c-9.9 8.8-16.2 21.7-16.2 36c0 26.5 21.5 48 48 48zM0 256C0 114.6 114.6 0 256 0s256 114.6 256 256s-114.6 256-256 256S0 397.4 0 256zm256 208c114.9 0 208-93.1 208-208S370.9 48 256 48S48 141.1 48 256s93.1 208 208 208z"></path></svg>