<svg xmlns="http://www.w3.org/2000/svg" xmlns:xlink="http://www.w3.org/1999/xlink" aria-hidden="true" role="img" class="iconify iconify--fa6-regular" width="1em" height="1em" preserveAspectRatio="xMidYMid meet" viewBox="0 0 512 512" data-icon="fa6-regular:face-tired"><path fill="currentColor" d="M176.5 320.3c19.6-18.2 47.3-32.3 79.5-32.3s59.9 14.1 79.5 32.3c19 17.8 32.5 41.7 32.5 63.7c0 5.4-2.7 10.4-7.2 13.4c-4.6 2.9-10.3 3.4-15.2 1.3l-17.2-7.6c-22.8-9.9-47.5-15.1-72.4-15.1c-24.9 0-49.6 5.2-72.4 15.1l-17.2 7.6c-4.9 2.1-10.6 1.6-15.2-1.3c-4.5-3-7.2-8-7.2-13.4c0-22 13.5-45.9 32.5-63.7zm46.9-125.7c10.7 5.7 10.7 21.1 0 26.8l-89.9 47.9c-7.9 4.3-17.5-1.5-17.5-10.4c0-2.8.1-5.5 2.8-7.7l36-43.2l-36-43.2c-2.7-2.2-2.8-4.9-2.8-7.7c0-8.9 9.6-14.7 17.5-10.4l89.9 47.9zm169.8-29.8l-36 43.2l36 43.2c1.8 2.2 2.8 4.9 2.8 7.7c0 8.9-9.6 14.7-17.5 10.4l-89.9-47.9c-10.7-5.7-10.7-21.1 0-26.8l89.9-47.9c7.9-4.3 17.5 1.5 17.5 10.4c0 2.8-1 5.5-2.8 7.7zM512 256c0 141.4-114.6 256-256 256S0 397.4 0 256S114.6 0 256 0s256 114.6 256 256zM256 48C141.1 48 48 141.1 48 256s93.1 208 208 208s208-93.1 208-208S370.9 48 256 48z"></path></svg>