<svg xmlns="http://www.w3.org/2000/svg" xmlns:xlink="http://www.w3.org/1999/xlink" aria-hidden="true" role="img" class="iconify iconify--fa6-regular" width="1em" height="1em" preserveAspectRatio="xMidYMid meet" viewBox="0 0 512 512" data-icon="fa6-regular:face-flushed"><path fill="currentColor" d="M320 336c13.3 0 24 10.7 24 24s-10.7 24-24 24H192c-13.3 0-24-10.7-24-24s10.7-24 24-24h128zM136.4 224c0-13.3 10.7-24 24-24c13.2 0 24 10.7 24 24s-10.8 24-24 24c-13.3 0-24-10.7-24-24zM80 224c0-44.2 35.8-80 80-80s80 35.8 80 80s-35.8 80-80 80s-80-35.8-80-80zm80 48c26.5 0 48-21.5 48-48s-21.5-48-48-48s-48 21.5-48 48s21.5 48 48 48zm216.4-48c0 13.3-10.8 24-24 24c-13.3 0-24-10.7-24-24s10.7-24 24-24c13.2 0 24 10.7 24 24zm55.6 0c0 44.2-35.8 80-80 80s-80-35.8-80-80s35.8-80 80-80s80 35.8 80 80zm-80-48c-26.5 0-48 21.5-48 48s21.5 48 48 48s48-21.5 48-48s-21.5-48-48-48zm160 80c0 141.4-114.6 256-256 256S0 397.4 0 256S114.6 0 256 0s256 114.6 256 256zM256 464c114.9 0 208-93.1 208-208S370.9 48 256 48S48 141.1 48 256s93.1 208 208 208z"></path></svg>