<svg xmlns="http://www.w3.org/2000/svg" xmlns:xlink="http://www.w3.org/1999/xlink" aria-hidden="true" role="img" class="iconify iconify--fa6-regular" width="1em" height="1em" preserveAspectRatio="xMidYMid meet" viewBox="0 0 512 512" data-icon="fa6-regular:face-kiss-beam"><path fill="currentColor" d="M304.7 297.7c4.2 5.1 7.3 11.4 7.3 18.3s-3.1 13.2-7.3 18.3c-4.3 5.2-10.2 9.7-16.8 13.4c-2.7 1.6-5.6 3-8.7 4.3c3.1 1.3 6 2.7 8.7 4.3c6.6 2.8 12.5 8.2 16.8 13.4c4.2 5.1 7.3 11.4 7.3 18.3s-3.1 13.2-7.3 18.3c-4.3 5.2-10.2 9.7-16.8 13.4c-13.2 7.4-30.5 12.3-47.9 12.3c-3.6 0-6.8-2.5-7.7-6c-1-3.5.6-7.2 3.8-9l.2-.1c.2-.1.5-.3.9-.6c.8-.4 2-1.2 3.4-2.1c2.8-1.8 6.6-4.5 10.2-7.6c3.8-3.1 7.2-6.6 9.7-10c1.6-3.6 3.5-6.4 3.5-8.6c0-2.2-1.9-5.9-3.5-8.6c-2.5-4.3-5.9-6.9-9.7-10c-3.6-3.1-7.4-5.8-10.2-7.6c-1.4-.9-2.6-1.7-3.4-2.1c-.4-.3-.7-.5-.9-.6l-.2-1c-2.5-.5-4.1-3.2-4.1-6.1c0-2.9 1.6-5.6 4.1-7l.2-.1c.2-.1.5-.3.9-.6c.8-.4 2-1.2 3.4-2.1c2.8-1.8 6.6-4.5 10.2-7.6c3.8-3.1 7.2-6.5 9.7-10c1.6-3.6 3.5-6.4 3.5-8.6c0-2.2-1.9-5.9-3.5-8.6c-2.5-4.3-5.9-6.9-9.7-10c-3.6-3.1-7.4-5.8-10.2-7.6c-1.4-.9-2.6-1.7-3.4-2.1c-.4-.3-.7-.5-.9-.6l-.2-1c-3.2-.9-4.8-4.6-3.8-9c.9-2.6 4.1-5.1 7.7-5.1c17.4 0 34.7 4.9 47.9 12.3c6.6 2.8 12.5 8.2 16.8 13.4zm-87.1-68.9l-.2-.3c-.2-.2-.4-.5-.7-.9c-.7-.8-1.6-1.9-2.8-3.3c-2.5-2.9-6-6.6-10.2-11.2c-8.8-6.9-18.9-13.1-27.7-13.1s-18.9 6.2-27.7 13.1c-4.2 4.6-7.7 8.3-10.2 11.2c-1.2 1.4-3 2.5-2.8 3.3c-1.2.4-.5.7-.7.9l-.2.3c-2.1 2.8-5.7 3.9-8.9 2.8c-3.3-1.1-5.5-4.2-5.5-7.6c0-17.9 6.7-35.6 16.6-48.8c9.8-13 23.9-23.2 39.4-23.2s29.6 10.2 39.4 23.2c9.9 13.2 16.6 30.9 16.6 48.8c0 3.4-2.2 6.5-5.5 7.6c-3.2 1.1-6.8 0-8.9-2.8zm160 0l-.2-.3c-.2-.2-.4-.5-.7-.9c-.7-.8-1.6-1.9-2.8-3.3c-2.5-2.9-6-6.6-10.2-11.2c-8.8-6.9-18.9-13.1-27.7-13.1s-18.9 6.2-27.7 13.1c-4.2 4.6-7.7 8.3-10.2 11.2c-1.2 1.4-3 2.5-2.8 3.3c-1.2.4-.5.7-.7.9l-.2.3c-2.1 2.8-5.7 3.9-8.9 2.8c-3.3-1.1-5.5-4.2-5.5-7.6c0-17.9 6.7-35.6 16.6-48.8c9.8-13 23.9-23.2 39.4-23.2s29.6 10.2 39.4 23.2c9.9 13.2 16.6 30.9 16.6 48.8c0 3.4-2.2 6.5-5.5 7.6c-3.2 1.1-6.8 0-8.9-2.8zM512 256c0 141.4-114.6 256-256 256S0 397.4 0 256S114.6 0 256 0s256 114.6 256 256zM256 48C141.1 48 48 141.1 48 256s93.1 208 208 208s208-93.1 208-208S370.9 48 256 48z"></path></svg>