<svg xmlns="http://www.w3.org/2000/svg" xmlns:xlink="http://www.w3.org/1999/xlink" aria-hidden="true" role="img" class="iconify iconify--fa6-regular" width="1em" height="1em" preserveAspectRatio="xMidYMid meet" viewBox="0 0 512 512" data-icon="fa6-regular:face-kiss-wink-heart"><path fill="currentColor" d="M345.3 472.1c2 7.6 5.6 14.3 10.4 19.7c-30.6 13-64.3 20.2-99.7 20.2C114.6 512 0 397.4 0 256S114.6 0 256 0s256 114.6 256 256c0 29.3-4.9 57.4-14 83.7c-11.1-5.6-23.5-6.6-36.2-5.1c-2.1-5.2-4.8-10-7.9-14.5c6.6-20.2 10.1-41.7 10.1-64.1c0-114.9-93.1-208-208-208S48 141.1 48 256s93.1 208 208 208c29.4 0 57.5-6.1 82.9-17.2l6.4 25.3zm-56.6-137.8c-4.3 5.2-10.2 9.7-16.8 13.4c-2.7 1.6-5.6 3-8.7 4.3c3.1 1.3 6 2.7 8.7 4.3c6.6 2.8 12.5 8.2 16.8 13.4c4.2 5.1 7.3 11.4 7.3 18.3s-3.1 13.2-7.3 18.3c-4.3 5.2-10.2 9.7-16.8 13.4c-13.2 7.4-30.5 12.3-47.9 12.3c-3.6 0-6.8-2.5-7.7-6c-1-3.5.6-7.2 3.8-9l.2-.1c.2-.1.5-.3.9-.6c.8-.4 2-1.2 3.4-2.1c2.8-1.8 6.6-4.5 10.2-7.6c3.8-3.1 7.2-6.6 9.7-10c1.6-3.6 3.5-6.4 3.5-8.6c0-2.2-1.9-5.9-3.5-8.6c-2.5-4.3-5.9-6.9-9.7-10c-3.6-3.1-7.4-5.8-10.2-7.6c-1.4-.9-2.6-1.7-3.4-2.1c-.4-.3-.7-.5-.9-.6l-.2-1c-2.5-.5-4.1-3.2-4.1-6.1c0-2.9 1.6-5.6 4.1-7l.2-.1c.2-.1.5-.3.9-.6c.8-.4 2-1.2 3.4-2.1c2.8-1.8 6.6-4.5 10.2-7.6c3.8-3.1 7.2-6.5 9.7-10c1.6-3.6 3.5-6.4 3.5-8.6c0-2.2-1.9-5.9-3.5-8.6c-2.5-4.3-5.9-6.9-9.7-10c-3.6-3.1-7.4-5.8-10.2-7.6c-1.4-.9-2.6-1.7-3.4-2.1c-.4-.3-.7-.5-.9-.6l-.2-1c-3.2-.9-4.8-4.6-3.8-9c.9-2.6 4.1-5.1 7.7-5.1c17.4 0 34.7 4.9 47.9 12.3c6.6 2.8 12.5 8.2 16.8 13.4c4.2 5.1 7.3 11.4 7.3 18.3s-3.1 13.2-7.3 18.3zM144.4 208c0-17.7 14.3-32 32-32c17.6 0 32 14.3 32 32s-14.4 32-32 32c-17.7 0-32-14.3-32-32zm191.2 12c-11.5 0-19.9 3.8-25.4 9.7c-7.5 8-20.2 8.4-28.3.9c-8-7.6-8.4-20.2-.9-28.3c14.6-15.5 35.3-22.3 54.6-22.3c18.5 0 40.1 6.8 54.6 22.3c7.6 8.1 7.2 20.7-.9 28.3c-8.1 7.5-20.7 7.1-28.3-.9c-5.4-5.9-14.7-9.7-25.4-9.7zm103.8 153.3l20.1-5.7c22.2-6.2 45.1 7.6 51.1 30.8c5.9 23.3-7.3 47.2-29.5 53.4l-85 23.8c-8.6 2.4-17.5-2.7-19.8-11.4l-22.9-89.3c-5.9-23.3 7.3-47.2 29.5-53.4c22.3-6.2 45.1 7.6 50.2 30.8l6.3 21z"></path></svg>