<svg xmlns="http://www.w3.org/2000/svg" xmlns:xlink="http://www.w3.org/1999/xlink" aria-hidden="true" role="img" class="iconify iconify--fa6-regular" width="1.25em" height="1em" preserveAspectRatio="xMidYMid meet" viewBox="0 0 640 512" data-icon="fa6-regular:face-grin-tears"><path fill="currentColor" d="M519.4 334.4c3.3 8.1 8.4 17.7 16.5 26.7c4 3.9 8.2 7.3 12.7 10.3C506.4 454.8 419.9 512 319.1 512c-99 0-185.5-57.2-227.7-140.6c4.47-3 8.7-6.4 12.7-10.3c8.1-9 13.2-18.6 16.5-26.7c1.2-2.9 2.3-5.8 3.3-8.9C152.5 406.2 229.5 464 319.1 464c91.4 0 168.4-57.8 197-138.5c1 3.1 2.1 6 3.3 8.9zM319.1 47.1c-100.5 0-184.9 73.4-203.4 169.4c-6.6-3.1-14.3-4.3-22.3-3.2c-6.81 1-16.22 2.4-26.56 4.4C85.31 94.5 191.6 0 319.1 0c129.3 0 235.6 94.5 254.1 217.7c-10.4-2-19.8-3.4-26.6-4.4c-8-1.1-15.7.1-22.4 3.2C505.8 120.5 421.4 48 319.1 48v-.9zm-240.6 294c-18.52 15.6-46.49 14.4-64.23-3.4c-18.712-18.7-19.095-48.8-.72-67.1c8.64-8.7 30.14-15.2 50.5-20.5c12.97-1.9 25.48-3.9 33.89-5.1c5.36-.8 9.86 3.7 8.16 9.1c-2.2 21.5-10.52 70.2-24.67 84.3c-.94 1-1.92 1.9-2.93 2.7zm483 0c-.8-.6-2.4-1.3-2.3-2c-.2-.2-.4-.4-.6-.7c-14.2-14.1-22.5-62.8-25.6-84.3c-.8-5.4 3.7-9.9 9.1-9.1c1 .2 2.1.3 3.3.5c8.2 1.2 19.2 3 29.7 4.6c21.2 5.3 42.7 11.8 51.3 20.5c18.4 18.3 18 48.4-.7 67.1c-18.6 17.8-45.7 19-64.2 3.4zm-241.6 58c-50.3 0-94.4-24.5-119-62.6c-10.4-16.1 6.8-33.4 25.4-28.1c29 6.7 60.5 10.4 93.6 10.4c33.1 0 64.7-3.7 93.6-10.4c18.7-5.3 35.9 12 24.6 28.1c-23.7 38.1-67.8 62.6-118.2 62.6zm-38.3-170.3l-.2-.3c-.2-.2-.4-.5-.7-.9c-.7-.8-1.6-1.9-2.8-3.3c-2.5-2.9-6-6.6-10.2-11.2c-8.8-6.9-18.9-13.1-28.6-13.1c-7.9 0-18 6.2-26.8 13.1c-4.2 4.6-7.7 8.3-10.2 11.2c-1.2 1.4-3 2.5-2.8 3.3c-1.2.4-.5.7-.7.9l-.2.3c-2.1 2.8-5.7 3.9-8.9 2.8c-3.3-1.1-6.4-4.2-6.4-7.6c0-17.9 7.6-35.6 17.5-48.8c9.8-13 23.9-23.2 38.5-23.2c16.4 0 30.5 10.2 40.3 23.2c9.9 13.2 15.7 30.9 15.7 48.8c0 3.4-1.3 6.5-4.6 7.6c-3.2 1.1-6.8 0-8.9-2.8zm160 0l-.2-.3c-.2-.2-.4-.5-.7-.9c-.7-.8-1.6-1.9-2.8-3.3c-2.5-2.9-6-6.6-10.2-11.2c-8.8-6.9-18.9-13.1-27.7-13.1s-18.9 6.2-27.7 13.1c-4.2 4.6-7.7 8.3-10.2 11.2c-1.2 1.4-3 2.5-2.8 3.3c-1.2.4-.5.7-.7.9l-.2.3c-2.1 2.8-5.7 3.9-8.9 2.8c-3.3-1.1-5.5-4.2-5.5-8.5c0-17 6.7-34.7 16.6-47.9c9.8-13 23.9-24.1 39.4-24.1s29.6 11.1 39.4 24.1c9.9 13.2 16.6 30.9 16.6 47.9c0 4.3-2.2 7.4-5.5 8.5c-3.2 1.1-6.8 0-8.9-2.8z"></path></svg>