<svg xmlns="http://www.w3.org/2000/svg" xmlns:xlink="http://www.w3.org/1999/xlink" aria-hidden="true" role="img" class="iconify iconify--fa6-regular" width="1em" height="1em" preserveAspectRatio="xMidYMid meet" viewBox="0 0 512 512" data-icon="fa6-regular:face-grin-stars"><path fill="currentColor" d="m199.8 167.3l38.1 5c2.2.4 5.6 2.5 6.6 5.5c.9 2.9.1 6.1-2.1 8.2l-27.9 26.5l7 37.8c.5 3.1-.7 6.1-3.2 7.9c-2.5 1.9-5.8 2.1-8.5.6l-34.7-18.3l-32.9 18.3c-2.7 1.5-6 1.3-8.5-.6c-2.5-1.8-4.6-4.8-3.2-7.9l7-37.8l-27.9-26.5c-2.2-2.1-3-5.3-2.1-8.2c1-3 3.5-5.1 6.6-5.5l38.1-5l16.6-34.7c1.3-2.8 4.1-4.6 6.3-4.6c4 0 6.8 1.8 8.1 4.6l16.6 34.7zm160 0l38.1 5c2.2.4 5.6 2.5 6.6 5.5c.9 2.9.1 6.1-2.1 8.2l-27.9 26.5l7 37.8c.5 3.1-.7 6.1-3.2 7.9c-2.5 1.9-5.8 2.1-8.5.6L336 240.5l-33.8 18.3c-2.7 1.5-6 1.3-8.5-.6c-2.5-1.8-4.6-4.8-3.2-7.9l7-37.8l-27.9-26.5c-2.2-2.1-3-5.3-2.1-8.2c1-3 3.5-5.1 6.6-5.5l38.1-5l16.6-34.7a7.934 7.934 0 0 1 14.4 0l16.6 34.7zm-10.3 141.1c18.7-5.3 35.9 12 24.6 28.1c-23.7 38.1-67.8 62.6-118.2 62.6c-50.3 0-94.4-24.5-119-62.6c-10.4-16.1 6.8-33.4 25.4-28.1c29 6.7 60.5 10.4 93.6 10.4c33.1 0 64.7-3.7 93.6-10.4zM0 256C0 114.6 114.6 0 256 0s256 114.6 256 256s-114.6 256-256 256S0 397.4 0 256zm256 208c114.9 0 208-93.1 208-208S370.9 48 256 48S48 141.1 48 256s93.1 208 208 208z"></path></svg>