<svg xmlns="http://www.w3.org/2000/svg" xmlns:xlink="http://www.w3.org/1999/xlink" aria-hidden="true" role="img" class="iconify iconify--subway" width="1em" height="1em" preserveAspectRatio="xMidYMid meet" viewBox="0 0 512 512" data-icon="subway:dail-pad"><path fill="currentColor" d="M202.5 93.1h93.1V0h-93.1v93.1zM342.1 0v93.1h93.1V0h-93.1zM62.8 93.1h93.1V0H62.8v93.1zm139.7 139.6h93.1v-93.1h-93.1v93.1zm139.6 0h93.1v-93.1h-93.1v93.1zm-279.3 0h93.1v-93.1H62.8v93.1zm139.7 139.7h93.1v-93.1h-93.1v93.1zm139.6 0h93.1v-93.1h-93.1v93.1zm-279.3 0h93.1v-93.1H62.8v93.1zM202.5 512h93.1v-93.1h-93.1V512z"></path></svg>