<svg xmlns="http://www.w3.org/2000/svg" xmlns:xlink="http://www.w3.org/1999/xlink" aria-hidden="true" role="img" class="iconify iconify--openmoji" width="1em" height="1em" preserveAspectRatio="xMidYMid meet" viewBox="0 0 72 72"><defs><path id="IconifyId17f5a01c7b33705c20" d="M59.035 60.137h-46.07a.968.968 0 0 1-.965-.965v-46.07a.968.968 0 0 1 .965-.965h46.07a.968.968 0 0 1 .965.965v46.07a.968.968 0 0 1-.965.965Z"></path><path id="IconifyId17f5a01c7b33705c21" d="m33.287 43.637l-6.429-15l-6.428 15m2.142-3.591h8.572m15.511-3.909h-5.72v-7.472h5.72a3.736 3.736 0 0 1 3.736 3.736a3.736 3.736 0 0 1-3.736 3.736Zm0 7.473h-5.72v-7.473h5.72a3.736 3.736 0 0 1 3.736 3.736a3.736 3.736 0 0 1-3.736 3.736Z"></path></defs><g fill="none" stroke="#000" stroke-linejoin="round" stroke-width="2"><use xlink:href="#IconifyId17f5a01c7b33705c20"></use><use xlink:href="#IconifyId17f5a01c7b33705c21" stroke-linecap="round"></use></g><path fill="#d22f27" d="M59.035 60.137h-46.07a.968.968 0 0 1-.965-.965v-46.07a.968.968 0 0 1 .965-.965h46.07a.968.968 0 0 1 .965.965v46.07a.968.968 0 0 1-.965.965Z"></path><g fill="none" stroke="#fff" stroke-linejoin="round" stroke-width="2"><use xlink:href="#IconifyId17f5a01c7b33705c20"></use><use xlink:href="#IconifyId17f5a01c7b33705c21" stroke-linecap="round"></use></g></svg>