<svg xmlns="http://www.w3.org/2000/svg" xmlns:xlink="http://www.w3.org/1999/xlink" aria-hidden="true" role="img" class="iconify iconify--openmoji" width="1em" height="1em" preserveAspectRatio="xMidYMid meet" viewBox="0 0 72 72" data-icon="openmoji:airplane-departure"><path fill="#9b9b9a" d="M24 39.754L8.119 34.508l-4.437 1.375l10.34 9.352"></path><path fill="#d0cfce" d="m42.589 30.773l13.635-4.637s13.5-.23 10.33 3.255c-3.171 3.484-25.426 12.196-32.002 14.65c-6.577 2.456-14.712 3.75-20.337 3.86c-4.924.095.59-2.892.59-2.892s6.255-3.55 9.024-4.756l2.635-1.95"></path><path fill="#9b9b9a" d="m47.051 35.429l-24.606-2.788l-2.093 1.493l17.409 6.212"></path><g fill="none" stroke="#000" stroke-linecap="round" stroke-linejoin="round" stroke-miterlimit="10" stroke-width="1.56"><path d="M19.974 39.139L7.542 34.736l-3.067 1.073l8.169 7.322m34.407-8.438l-24.606-2.052l-2.093 1.493l16.754 5.979"></path><path d="m43.174 31.323l11.15-4.486a10.312 10.312 0 0 1 4.172-.74c3.7.113 10.39.667 8.057 3.23c-3.17 3.484-25.425 12.196-32.001 14.651s-14.712 3.75-20.337 3.86c-4.924.094.59-2.892.59-2.892s6.255-3.55 9.024-4.757l2.784-1.213"></path></g></svg>