<svg xmlns="http://www.w3.org/2000/svg" xmlns:xlink="http://www.w3.org/1999/xlink" aria-hidden="true" role="img" class="iconify iconify--openmoji" width="1em" height="1em" preserveAspectRatio="xMidYMid meet" viewBox="0 0 72 72" data-icon="openmoji:airplane-arrival"><path fill="#d0cfce" d="M43.137 33.535L55 37.66a10.794 10.794 0 0 1 3.315 1.854c2.806 2.31 8.067 7.07 4.57 7.67c-4.644.798-27.55-6.019-34.245-8.128c-6.696-2.109-13.908-6.09-18.41-9.464c-3.941-2.952 2.243-1.917 2.243-1.917s7.116 1.048 10.041 1.8l3.277.083"></path><path fill="#9b9b9a" d="M22.938 29.423L14.69 16.109l-4.345-1.645l1.374 13.492m32.073 11.995L26.105 22.62l-2.57-.11l9.908 15.605"></path><path fill="none" stroke="#000" stroke-linecap="round" stroke-linejoin="round" stroke-miterlimit="10" stroke-width="1.56" d="m20.382 26.398l-6.288-10.464l-3.078-1.041l1.131 10.145m32.098 14.333L26.105 22.62l-2.57-.11l9.535 15.019"></path><circle cx="32.453" cy="44.192" r="2" transform="rotate(-71.324 32.455 44.195)"></circle><circle cx="37.772" cy="45.77" r="2" transform="rotate(-71.324 37.775 45.773)"></circle><path fill="none" stroke="#000" stroke-linecap="round" stroke-linejoin="round" stroke-miterlimit="10" stroke-width="1.56" d="m43.26 34.33l11.434 3.285a10.836 10.836 0 0 1 3.955 2.093c2.86 2.385 7.653 6.845 4.274 7.425c-4.643.798-27.549-6.019-34.245-8.128c-6.695-2.109-13.907-6.09-18.41-9.464c-3.94-2.953 2.244-1.917 2.244-1.917s7.116 1.048 10.042 1.8l2.941.755"></path></svg>