<svg xmlns="http://www.w3.org/2000/svg" xmlns:xlink="http://www.w3.org/1999/xlink" aria-hidden="true" role="img" class="iconify iconify--openmoji" width="1em" height="1em" preserveAspectRatio="xMidYMid meet" viewBox="0 0 72 72" data-icon="openmoji:b-button-blood-type"><defs><path id="IconifyId17f5a01c7b33705c22" d="M59.035 60h-46.07a.968.968 0 0 1-.965-.965v-46.07a.968.968 0 0 1 .965-.965h46.07a.968.968 0 0 1 .965.965v46.07a.968.968 0 0 1-.965.965Z"></path><path id="IconifyId17f5a01c7b33705c23" stroke-linecap="round" d="M37.763 35.228h-8.42v-11h8.42a5.5 5.5 0 0 1 5.5 5.5a5.5 5.5 0 0 1-5.5 5.5Zm0 11h-8.42v-11h8.42a5.5 5.5 0 0 1 5.5 5.5a5.5 5.5 0 0 1-5.5 5.5Z"></path></defs><g fill="none" stroke="#000" stroke-linejoin="round" stroke-width="2"><use xlink:href="#IconifyId17f5a01c7b33705c22"></use><use xlink:href="#IconifyId17f5a01c7b33705c23" stroke-linecap="round"></use></g><path fill="#d22f27" d="M59.035 60h-46.07a.968.968 0 0 1-.965-.965v-46.07a.968.968 0 0 1 .965-.965h46.07a.968.968 0 0 1 .965.965v46.07a.968.968 0 0 1-.965.965Z"></path><g fill="none" stroke="#fff" stroke-linejoin="round" stroke-width="2"><use xlink:href="#IconifyId17f5a01c7b33705c22"></use><use xlink:href="#IconifyId17f5a01c7b33705c23" stroke-linecap="round"></use></g></svg>