<svg xmlns="http://www.w3.org/2000/svg" xmlns:xlink="http://www.w3.org/1999/xlink" aria-hidden="true" role="img" class="iconify iconify--openmoji" width="1em" height="1em" preserveAspectRatio="xMidYMid meet" viewBox="0 0 72 72" data-icon="openmoji:baggage-claim"><path fill="#61b2e4" d="M43 21h18v33H43z"></path><path fill="#92d3f5" d="M11 21h32v33H11z"></path><path fill="none" stroke="#000" stroke-linecap="round" stroke-linejoin="round" stroke-width="2" d="M17 21.552h-5.657v31.761H17m.194-31.761h37.612v31.761H17.194zm37.944-.035l5.66.051l-.283 31.76l-5.66-.051"></path><path fill="none" stroke="#000" stroke-linecap="round" stroke-linejoin="round" stroke-width="2" d="M45 21.552h9.657v31.761H45"></path><circle cx="15.522" cy="58.328" r="1.672"></circle><circle cx="9.672" cy="58.328" r="1.672"></circle><circle cx="62.328" cy="58.328" r="1.672"></circle><circle cx="56.478" cy="58.328" r="1.672"></circle><circle cx="50.627" cy="58.328" r="1.672"></circle><circle cx="44.776" cy="58.328" r="1.672"></circle><circle cx="38.925" cy="58.328" r="1.672"></circle><circle cx="33.075" cy="58.328" r="1.672"></circle><circle cx="27.224" cy="58.328" r="1.672"></circle><circle cx="21.373" cy="58.328" r="1.672"></circle><g fill="none" stroke="#000" stroke-linecap="round" stroke-linejoin="round" stroke-width="2"><path d="M28 21v-4s0-4 4.714-4H39"></path><path d="M44 21v-4s0-4-4.714-4H33"></path></g></svg>