<svg xmlns="http://www.w3.org/2000/svg" xmlns:xlink="http://www.w3.org/1999/xlink" aria-hidden="true" role="img" class="iconify iconify--openmoji" width="1em" height="1em" preserveAspectRatio="xMidYMid meet" viewBox="0 0 72 72" data-icon="openmoji:beaming-face-with-smiling-eyes"><circle cx="36" cy="36" r="23" fill="#fcea2b"></circle><path fill="#fff" d="M50.595 41.64a11.555 11.555 0 0 1-.87 4.49c-12.49 3.03-25.43.34-27.49-.13a11.435 11.435 0 0 1-.83-4.36h.11s14.8 3.59 28.89.07Z"></path><path fill="#fff" d="M49.725 46.13c-1.79 4.27-6.35 7.23-13.69 7.23c-7.41 0-12.03-3.03-13.8-7.36c2.06.47 15 3.16 27.49.13Z"></path><g fill="none" stroke="#000" stroke-linecap="round" stroke-width="2"><circle cx="36" cy="36" r="23" stroke-linejoin="round"></circle><path stroke-linejoin="round" d="M50.595 41.64a11.555 11.555 0 0 1-.87 4.49c-12.49 3.03-25.43.34-27.49-.13a11.435 11.435 0 0 1-.83-4.36h.11s14.8 3.59 28.89.07Z"></path><path stroke-linejoin="round" d="M49.725 46.13c-1.79 4.27-6.35 7.23-13.69 7.23c-7.41 0-12.03-3.03-13.8-7.36c2.06.47 15 3.16 27.49.13Z"></path><path stroke-miterlimit="10" d="M31.694 32.404a4.726 4.726 0 0 0-8.638 0m25.888 0a4.726 4.726 0 0 0-8.638 0"></path></g></svg>