<svg xmlns="http://www.w3.org/2000/svg" xmlns:xlink="http://www.w3.org/1999/xlink" aria-hidden="true" role="img" class="iconify iconify--openmoji" width="1em" height="1em" preserveAspectRatio="xMidYMid meet" viewBox="0 0 72 72" data-icon="openmoji:bento-box"><path fill="#FFF" d="M5 19a2 2 0 0 1 2-2h58a2 2 0 0 1 2 2v34a2 2 0 0 1-2 2H7a2 2 0 0 1-2-2V19z"></path><path fill="#d0cfce" d="M44.071 21A5.001 5.001 0 0 1 37 28.071L44.071 21zm12.536 0a5.001 5.001 0 0 1-7.072 7.071L56.607 21z"></path><path fill="#ea5a47" d="M39 40a2 2 0 0 0-2-2h-4a2 2 0 0 0-2 2v9a2 2 0 0 0 2 2h4a2 2 0 0 0 2-2v-9zm12 0a2 2 0 0 0-2-2h-4a2 2 0 0 0-2 2v9a2 2 0 0 0 2 2h4a2 2 0 0 0 2-2v-9zm12 0a2 2 0 0 0-2-2h-4a2 2 0 0 0-2 2v9a2 2 0 0 0 2 2h4a2 2 0 0 0 2-2v-9z"></path><path fill="#61b2e4" d="m12.998 42.213l-1 8.787l4-4l4 4l-1.393-8.787"></path><path fill="#92d3f5" d="M17.605 43.213c5.857-5.858 5.857-15.355 0-21.213h-3.607c-5.857 5.858-5.857 15.355 0 21.213h3.607z"></path><g fill="none" stroke="#000" stroke-linecap="round" stroke-linejoin="round" stroke-miterlimit="10" stroke-width="2"><path d="M5 19a2 2 0 0 1 2-2h58a2 2 0 0 1 2 2v34a2 2 0 0 1-2 2H7a2 2 0 0 1-2-2V19zm22-2v38m0-21h40"></path><path d="M17.606 43.213c5.858-5.858 5.858-15.355 0-21.213H14c-5.857 5.858-5.857 15.355 0 21.213h3.606zM11 28h10"></path><path d="M13 42.213L12 51l4-4h0l4 4l-1.394-8.787M39 40a2 2 0 0 0-2-2h-4a2 2 0 0 0-2 2v9a2 2 0 0 0 2 2h4a2 2 0 0 0 2-2v-9zm12 0a2 2 0 0 0-2-2h-4a2 2 0 0 0-2 2v9a2 2 0 0 0 2 2h4a2 2 0 0 0 2-2v-9zm12 0a2 2 0 0 0-2-2h-4a2 2 0 0 0-2 2v9a2 2 0 0 0 2 2h4a2 2 0 0 0 2-2v-9zM44 21a5.001 5.001 0 0 1-7.071 7.071L44 21zm12.536 0a5.001 5.001 0 0 1-7.072 7.071L56.536 21z"></path><path d="M39 44.334a2 2 0 0 1-2 2M39 40a2 2 0 0 1-2 2m14 2.334a2 2 0 0 1-2 2M51 40a2 2 0 0 1-2 2m14 2.334a2 2 0 0 1-2 2M63 40a2 2 0 0 1-2 2"></path></g></svg>