<svg xmlns="http://www.w3.org/2000/svg" xmlns:xlink="http://www.w3.org/1999/xlink" aria-hidden="true" role="img" class="iconify iconify--openmoji" width="1em" height="1em" preserveAspectRatio="xMidYMid meet" viewBox="0 0 72 72" data-icon="openmoji:billed-cap"><defs><path id="IconifyId17f5a01c7b33705c27" d="M39.506 26c11.275.005 20.497 7.53 20.493 16.723l-.004 8.358l-.001 3.928l-41-.018l.002-3.928l.003-8.357c.004-9.193 9.232-16.71 20.507-16.706"></path></defs><g fill="#92d3f5"><use xlink:href="#IconifyId17f5a01c7b33705c27"></use><use xlink:href="#IconifyId17f5a01c7b33705c27"></use></g><path fill="#61b2e4" d="M48.031 28.11A22.524 22.524 0 0 0 41 26.997s11.135 7.481 7.033 27.002l11.962.005l.001-3.657l.004-7.78c.003-6.529-4.97-12.154-11.969-14.457"></path><g stroke="#000" stroke-linecap="round" stroke-linejoin="round" stroke-width="2"><path fill="none" d="M6 54.963h53.69"></path><path d="M37.374 25.742a2.02 2.02 0 0 1 4 0"></path><g fill="none"><path d="M19.79 51v-8.395c0-9.235 8.942-16.79 19.87-16.79"></path><path d="M39.087 25.814c10.93 0 19.871 7.556 19.871 16.79V51"></path></g></g></svg>