<svg xmlns="http://www.w3.org/2000/svg" xmlns:xlink="http://www.w3.org/1999/xlink" aria-hidden="true" role="img" class="iconify iconify--openmoji" width="1em" height="1em" preserveAspectRatio="xMidYMid meet" viewBox="0 0 72 72" data-icon="openmoji:black-circle"><path d="M36 64c15.464 0 28-12.536 28-28S51.464 8 36 8S8 20.536 8 36s12.536 28 28 28Z"></path><path fill="#3F3F3F" d="M36 64c15.464 0 28-12.536 28-28S51.464 8 36 8S8 20.536 8 36s12.536 28 28 28Z"></path><path fill="none" stroke="#000" stroke-linejoin="round" stroke-width="2" d="M36 64c15.464 0 28-12.536 28-28S51.464 8 36 8S8 20.536 8 36s12.536 28 28 28Z"></path></svg>