<svg xmlns="http://www.w3.org/2000/svg" xmlns:xlink="http://www.w3.org/1999/xlink" aria-hidden="true" role="img" class="iconify iconify--openmoji" width="1em" height="1em" preserveAspectRatio="xMidYMid meet" viewBox="0 0 72 72" data-icon="openmoji:black-large-circle"><path stroke="#000" stroke-linejoin="round" stroke-width="2" d="M36 66c16.569 0 30-13.431 30-30C66 19.432 52.569 6 36 6C19.431 6 6 19.432 6 36c0 16.57 13.431 30 30 30Z"></path><path fill="#3F3F3F" stroke="#000" stroke-linejoin="round" stroke-width="2" d="M36 66c16.569 0 30-13.431 30-30C66 19.432 52.569 6 36 6C19.431 6 6 19.432 6 36c0 16.57 13.431 30 30 30Z"></path><path fill="none" stroke="#000" stroke-linejoin="round" stroke-width="2" d="M36 66c16.569 0 30-13.431 30-30C66 19.432 52.569 6 36 6C19.431 6 6 19.432 6 36c0 16.57 13.431 30 30 30Z"></path></svg>