<svg xmlns="http://www.w3.org/2000/svg" xmlns:xlink="http://www.w3.org/1999/xlink" aria-hidden="true" role="img" class="iconify iconify--openmoji" width="1em" height="1em" preserveAspectRatio="xMidYMid meet" viewBox="0 0 72 72"><defs><path id="IconifyId17f5a01c7b33705c216" d="M32.7 18v10.9M39 18v10.9m0-5.5h-6.3"></path></defs><path fill="#D0CFCE" d="M34.1 3.9h4V68h-4z"></path><path fill="#FFF" d="M48.9 38.5H23.4c-1.1 0-2-.9-2-2V10.9c0-1.1.9-2 2-2h25.5c1.1 0 2 .9 2 2v25.6c0 1.1-.9 2-2 2z"></path><circle cx="36.1" cy="23.6" r="10" fill="#FCEA2B" stroke="#5C9E31" stroke-linecap="round" stroke-linejoin="round" stroke-miterlimit="10" stroke-width="2"></circle><g fill="none" stroke="#000" stroke-linecap="round" stroke-linejoin="round" stroke-miterlimit="10" stroke-width="2"><path d="M34.1 8.5V3.9h4v4.6m0 30.5v29h-4V38.9m14.8-.4H23.4c-1.1 0-2-.9-2-2V10.9c0-1.1.9-2 2-2h25.5c1.1 0 2 .9 2 2v25.6c0 1.1-.9 2-2 2z"></path><circle cx="36.1" cy="23.6" r="10"></circle><use xlink:href="#IconifyId17f5a01c7b33705c216"></use></g><g fill="none" stroke="#5C9E31" stroke-linecap="round" stroke-linejoin="round" stroke-miterlimit="10" stroke-width="2.1"><circle cx="36.1" cy="23.6" r="10"></circle><use xlink:href="#IconifyId17f5a01c7b33705c216"></use></g></svg>