<svg xmlns="http://www.w3.org/2000/svg" xmlns:xlink="http://www.w3.org/1999/xlink" aria-hidden="true" role="img" class="iconify iconify--openmoji" width="1em" height="1em" preserveAspectRatio="xMidYMid meet" viewBox="0 0 72 72"><path fill="#ea5a47" d="M11 18.193h9V23h-9z"></path><path fill="#b1cc33" d="M22.86 18.193h9V23h-9z"></path><path fill="#92d3f5" d="M34.721 18.193h9V23h-9z"></path><path fill="#d0cfce" d="M11 23h50v30H11z"></path><path fill="none" stroke="#000" stroke-linecap="round" stroke-linejoin="round" stroke-width="2" d="M11.9 18.193h7.2a.9.9 0 0 1 .9.9V23h0h-9h0v-3.907a.9.9 0 0 1 .9-.9Zm11.861 0h7.199a.9.9 0 0 1 .9.9V23h0h-9h0v-3.907a.9.9 0 0 1 .901-.9Zm11.861 0h7.198a.9.9 0 0 1 .9.9V23h0h-9h0v-3.907a.9.9 0 0 1 .902-.9ZM11 23h50v30H11z"></path></svg>