<svg xmlns="http://www.w3.org/2000/svg" xmlns:xlink="http://www.w3.org/1999/xlink" aria-hidden="true" role="img" class="iconify iconify--openmoji" width="1em" height="1em" preserveAspectRatio="xMidYMid meet" viewBox="0 0 72 72"><path fill="#D0CFCE" stroke="#D0CFCE" stroke-linecap="round" stroke-linejoin="round" stroke-miterlimit="10" stroke-width="2" d="M45 29.077v21.241a.46.46 0 0 1-.46.46H22.46a.46.46 0 0 1-.46-.46v-22.08a.46.46 0 0 1 .46-.46H45v1.3z"></path><g fill="none" stroke="#000" stroke-linecap="round" stroke-linejoin="round" stroke-miterlimit="10" stroke-width="2"><path d="M51.23 14.778c-15.23 18-18 30.462-18 30.462s-2.768-6.924-5.538-9.693"></path><path d="M45 29.077v21.241a.46.46 0 0 1-.46.46H22.46a.46.46 0 0 1-.46-.46v-22.08a.46.46 0 0 1 .46-.46h14.391"></path></g></svg>