<svg xmlns="http://www.w3.org/2000/svg" xmlns:xlink="http://www.w3.org/1999/xlink" aria-hidden="true" role="img" class="iconify iconify--openmoji" width="1em" height="1em" preserveAspectRatio="xMidYMid meet" viewBox="0 0 72 72"><defs><path id="IconifyId17f5a01c7b33705c224" fill="none" stroke="#000" stroke-linecap="round" stroke-linejoin="round" stroke-miterlimit="10" stroke-width="2" d="M23.437 50.356C22.105 53.88 18.432 58.712 15 61c7.165 0 12.233-2.092 16-7.273"></path></defs><g fill="#FCEA2B"><circle cx="36" cy="35" r="20.8"></circle><path d="M23.437 50.356C22.105 53.88 18.432 58.712 15 61c7.165 0 12.233-2.092 16-7.273"></path></g><circle cx="26" cy="35.079" r="2.857"></circle><circle cx="36" cy="35.079" r="2.857"></circle><circle cx="46" cy="35.079" r="2.857"></circle><use xlink:href="#IconifyId17f5a01c7b33705c224" stroke-linecap="round" stroke-linejoin="round" stroke-miterlimit="10" stroke-width="2"></use><use xlink:href="#IconifyId17f5a01c7b33705c224" stroke-linecap="round" stroke-linejoin="round" stroke-miterlimit="10" stroke-width="2"></use><path fill="none" stroke="#000" stroke-linecap="round" stroke-miterlimit="10" stroke-width="2" d="M20.48 47.617A19.917 19.917 0 0 1 16 35c0-11.046 8.954-20 20-20s20 8.954 20 20s-8.954 20-20 20c-.37 0-.738-.01-1.104-.03"></path></svg>