<svg xmlns="http://www.w3.org/2000/svg" xmlns:xlink="http://www.w3.org/1999/xlink" aria-hidden="true" role="img" class="iconify iconify--openmoji" width="1em" height="1em" preserveAspectRatio="xMidYMid meet" viewBox="0 0 72 72"><path fill="#FFF" d="M18.5 31.5h35v25h-35z"></path><path fill="#EA5A47" d="m28.5 22.059l-5 4.706V17h5z"></path><path fill="#A57939" d="M25.5 40h9v16h-9z"></path><path fill="#6A462F" d="M37.45 40.38L24.26 53.57l-2.92-2.91l4.16-4.16L32 40l2.53-2.53z"></path><path fill="#9B9B9A" d="M48 47h-8v-7h8z"></path><path fill="#92D3F5" d="M42.792 47L46 43l-3-1l-1-2h6v7z"></path><path fill="#EA5A47" d="M36 15L19 31v1h34v-1l-6-5l-7 1l-8 1l2-4l-2-2l6.6-4.4z"></path><g fill="none" stroke="#000" stroke-linecap="round" stroke-linejoin="round" stroke-miterlimit="10" stroke-width="2"><path d="m28.5 22.059l-5 4.706V17h5zM32 40l-6.5 6.5V40zm2.5 3.33V56h-9v-3.67zM48 47h-8v-7h8z"></path><path d="m21.342 50.656l13.191-13.192l2.915 2.915L24.257 53.57zM42.792 47L46 43l-3-1l-1-2h6v7zM42 22v4m3-1v1m-6-7v7m1-7l-4-4l-17 16v1h34v-1l-6-5l-7 1l-8 1l2-4l-2-2l6.6-4.4M36 20v7"></path><path d="M19 32h34v24H19z"></path></g></svg>