<svg xmlns="http://www.w3.org/2000/svg" xmlns:xlink="http://www.w3.org/1999/xlink" aria-hidden="true" role="img" class="iconify iconify--openmoji" width="1em" height="1em" preserveAspectRatio="xMidYMid meet" viewBox="0 0 72 72"><g stroke-linejoin="round" stroke-miterlimit="10" stroke-width="2"><path fill="#A57939" d="M18 9h36v54H18z"></path><path fill="#6A462F" d="M24 14.094h24v16.302H24zm0 31.585h24v11.207H24z"></path></g><path fill="none" stroke="#000" stroke-linejoin="round" stroke-miterlimit="10" stroke-width="2" d="M18 9h36v54H18z"></path><ellipse cx="49" cy="36.509" rx="2.5" ry="2.038"></ellipse><path d="M49.5 41.604h-1a1 1 0 0 1-1-1v-6.151a1 1 0 0 1 1-1h1a1 1 0 0 1 1 1v6.15a1 1 0 0 1-1 1z"></path><path fill="none" stroke="#000" stroke-linejoin="round" stroke-miterlimit="10" stroke-width="2" d="M24 14.094h24v16.302H24zm0 31.585h24v11.207H24z"></path></svg>