<svg xmlns="http://www.w3.org/2000/svg" xmlns:xlink="http://www.w3.org/1999/xlink" aria-hidden="true" role="img" class="iconify iconify--openmoji" width="1em" height="1em" preserveAspectRatio="xMidYMid meet" viewBox="0 0 72 72"><g fill="#fcea2b"><path d="M36 60.491a24.034 24.034 0 0 1-15.34-5.541A24.001 24.001 0 1 1 36 60.491Z"></path><path d="M43.76 47.689a2.516 2.516 0 0 0-.23-.129a2.63 2.63 0 0 0-.592-.2l.018-.037c.037-.076.07-.154.1-.233a2.62 2.62 0 0 0-1.55-3.384a2.7 2.7 0 0 0-.55-.123a2.585 2.585 0 0 0-1.702-2.63a2.67 2.67 0 0 0-3.003.91a2.587 2.587 0 0 0-4.089.86l-1.577 3.127a2.438 2.438 0 0 0-3.87-1.308c-.57.42-1.283 1.37-1.75 5.026a59.706 59.706 0 0 0-.463 7.461a6.846 6.846 0 0 0 3.664 5.998a17.368 17.368 0 0 0 5.603 1.805a6.529 6.529 0 0 0 2.902-.304c2.141-.772 3.178-2.699 4.06-4.614l3.95-8.768a2.665 2.665 0 0 0-.922-3.457Z"></path></g><path fill="none" stroke="#000" stroke-linecap="round" stroke-linejoin="round" stroke-width="2" d="M21.4 54.181a22.996 22.996 0 1 1 23.578 3.534"></path><path d="M29.977 33.491a3 3 0 1 1-3-3a3.001 3.001 0 0 1 3 3m18 0a3 3 0 1 1-3-3a3.001 3.001 0 0 1 3 3"></path><g fill="none" stroke="#000" stroke-linecap="round" stroke-linejoin="round" stroke-width="2"><path d="M33.401 63.772c3.954.61 5.26-1.753 6.419-4.269l3.971-8.815a1.665 1.665 0 0 0-.565-2.153q-.067-.042-.139-.078a1.62 1.62 0 0 0-2.169.736l-1.728 3.5M27.7 61.537a5.83 5.83 0 0 0 .898.589h0a17.668 17.668 0 0 0 4.803 1.646m-3.549-14.247s.528-4.124-1.318-4.474a1.518 1.518 0 0 0-1.226.296c-.697.514-1.111 2.466-1.35 4.34a58.682 58.682 0 0 0-.457 7.333"></path><path d="m37.104 49.602l2.02-4.09a1.666 1.666 0 0 1 2.053-.862a1.62 1.62 0 0 1 .944 2.087q-.027.074-.063.145l-1.323 2.681m-7.073-.303l2.328-4.717q.035-.07.063-.146a1.62 1.62 0 0 0-.944-2.086a1.665 1.665 0 0 0-2.053.861l-3.204 6.353"></path><path d="m35.554 45.428l1.318-2.67a1.666 1.666 0 0 1 2.053-.861a1.62 1.62 0 0 1 .945 2.086q-.028.074-.064.146l-1.154 2.337"></path></g></svg>