<svg xmlns="http://www.w3.org/2000/svg" xmlns:xlink="http://www.w3.org/1999/xlink" aria-hidden="true" role="img" class="iconify iconify--openmoji" width="1em" height="1em" preserveAspectRatio="xMidYMid meet" viewBox="0 0 72 72"><path fill="#a57939" d="M55.732 36.689c5.432 6.231 4.132 16.317 4.132 16.317s-9.931-.223-15.363-6.454s-4.132-16.317-4.132-16.317s10.046.069 15.363 6.454Z"></path><path fill="#e27022" d="M19.762 22.361C26.154 17.008 36.05 18.5 36.05 18.5s-.47 10.065-6.762 15.254S13 37.616 13 37.616s.37-9.9 6.762-15.255Z"></path><path fill="none" stroke="#000" stroke-linecap="round" stroke-linejoin="round" stroke-width="2" d="M19.762 22.361C26.154 17.008 36.05 18.5 36.05 18.5s-.47 10.065-6.762 15.254S13 37.616 13 37.616s.37-9.9 6.762-15.255Zm35.97 14.328c5.432 6.231 4.132 16.317 4.132 16.317s-9.931-.223-15.363-6.454s-4.132-16.317-4.132-16.317s10.046.069 15.363 6.454Z"></path></svg>