<svg xmlns="http://www.w3.org/2000/svg" xmlns:xlink="http://www.w3.org/1999/xlink" aria-hidden="true" role="img" class="iconify iconify--openmoji" width="1em" height="1em" preserveAspectRatio="xMidYMid meet" viewBox="0 0 72 72"><g stroke-linecap="round" stroke-linejoin="round" stroke-miterlimit="10" stroke-width="2"><path fill="#9B9B9A" d="M13 32h46v26H13z"></path><path fill="#D0CFCE" d="M21 55h-1a3 3 0 0 1-3-3V38a3 3 0 0 1 3-3h1a3 3 0 0 1 3 3v14a3 3 0 0 1-3 3z"></path><path fill="#9B9B9A" d="M17 13h38v19H17z"></path><path fill="#FFF" d="M29 17h22v15H29z"></path><path fill="#B1CC33" d="M46 37h9v8h-9z"></path></g><path fill="none" stroke="#000" stroke-linecap="round" stroke-linejoin="round" stroke-miterlimit="10" stroke-width="2" d="M13 32h46v26H13z"></path><path fill="none" stroke="#000" stroke-linecap="round" stroke-linejoin="round" stroke-miterlimit="10" stroke-width="2" d="M21 55h-1a3 3 0 0 1-3-3V38a3 3 0 0 1 3-3h1a3 3 0 0 1 3 3v14a3 3 0 0 1-3 3zm-4-42h38v19H17z"></path><path fill="none" stroke="#000" stroke-linecap="round" stroke-linejoin="round" stroke-miterlimit="10" stroke-width="2" d="M29 17h22v15H29z"></path><circle cx="29" cy="39" r="2"></circle><circle cx="35" cy="39" r="2"></circle><circle cx="41" cy="39" r="2"></circle><circle cx="29" cy="45" r="2"></circle><circle cx="35" cy="45" r="2"></circle><circle cx="41" cy="45" r="2"></circle><circle cx="29" cy="51" r="2"></circle><circle cx="35" cy="51" r="2"></circle><circle cx="41" cy="51" r="2"></circle><path fill="none" stroke="#000" stroke-linecap="round" stroke-linejoin="round" stroke-miterlimit="10" stroke-width="2" d="M46 37h9v8h-9z"></path></svg>