<svg xmlns="http://www.w3.org/2000/svg" xmlns:xlink="http://www.w3.org/1999/xlink" aria-hidden="true" role="img" class="iconify iconify--openmoji" width="1em" height="1em" preserveAspectRatio="xMidYMid meet" viewBox="0 0 72 72"><defs><path id="IconifyId17f5a01c7b33705c247" d="M42.847 45.658c0-2.592-3.834-4.694-6.869-4.694s-6.869 2.101-6.869 4.694s3.66.925 6.694.925s7.044 1.667 7.044-.925Z"></path></defs><use xlink:href="#IconifyId17f5a01c7b33705c247"></use><path fill="#fcea2b" d="M35.977 12.958a23 23 0 1 0 23 23a23.026 23.026 0 0 0-23-23Z"></path><path fill="#92d3f5" d="M35.977 24.769a23.04 23.04 0 0 1 22.228 17.095a23 23 0 1 0-44.456 0a23.039 23.039 0 0 1 22.228-17.095Z"></path><use xlink:href="#IconifyId17f5a01c7b33705c247"></use><path fill="none" stroke="#000" stroke-linecap="round" stroke-linejoin="round" stroke-width="2" d="M29.356 22.669a8.44 8.44 0 0 0-9.066 4.498m31.374 0a8.44 8.44 0 0 0-9.066-4.498"></path><circle cx="35.977" cy="35.958" r="23" fill="none" stroke="#000" stroke-miterlimit="10" stroke-width="2"></circle><path fill="none" stroke="#000" stroke-miterlimit="10" stroke-width="2" d="M42.847 45.658c0-2.592-3.834-4.694-6.869-4.694s-6.869 2.101-6.869 4.694s3.66.925 6.694.925s7.044 1.667 7.044-.925Z"></path><path d="M29.977 32.958a3 3 0 1 1-3-3a3.001 3.001 0 0 1 3 3m18 0a3 3 0 1 1-3-3a3.001 3.001 0 0 1 3 3"></path></svg>