<svg xmlns="http://www.w3.org/2000/svg" xmlns:xlink="http://www.w3.org/1999/xlink" aria-hidden="true" role="img" class="iconify iconify--openmoji" width="1em" height="1em" preserveAspectRatio="xMidYMid meet" viewBox="0 0 72 72"><path fill="#5c9e31" d="M5 17h62v38H5z"></path><path fill="#1e50a0" d="M5 17v38l62-38H5z"></path><path fill="#fcea2b" d="M67 21v-4h-5L5 51v4h5l57-34z"></path><path fill="#fff" stroke="#fff" stroke-linecap="round" stroke-linejoin="round" d="m9.384 25.5l1.66-5l1.431 4.923L8.5 22.457l5-.124L9.384 25.5zm12 0l1.66-5l1.431 4.923l-3.975-2.966l5-.124l-4.116 3.167zm-12 10l1.66-5l1.431 4.923L8.5 32.457l5-.124L9.384 35.5zm6-5l1.66-5l1.431 4.923l-3.975-2.966l5-.124l-4.116 3.167zm6 5l1.66-5l1.431 4.923l-3.975-2.966l5-.124l-4.116 3.167z"></path><path fill="none" stroke="#000" stroke-linecap="round" stroke-linejoin="round" stroke-width="2" d="M5 17h62v38H5z"></path></svg>