<svg xmlns="http://www.w3.org/2000/svg" xmlns:xlink="http://www.w3.org/1999/xlink" aria-hidden="true" role="img" class="iconify iconify--openmoji" width="1em" height="1em" preserveAspectRatio="xMidYMid meet" viewBox="0 0 72 72"><defs><path id="IconifyId17f5a01c7b33705c256" fill="#fff" d="M67 44a42.589 42.589 0 0 1-6.2 1c-1.57-.05-4.63-1.05-6.2-1s-4.63 1.05-6.2 1s-4.63-1.05-6.2-1s-4.63 1.05-6.2 1s-4.63-1.05-6.2-1s-4.63 1.048-6.2 1s-4.63-1.042-6.2-1s-4.63 1-6.2 1A50.836 50.836 0 0 1 5 44v-2a50.836 50.836 0 0 0 6.2 1c1.57 0 4.63-.959 6.2-1s4.63.952 6.2 1s4.63-.95 6.2-1s4.63.95 6.2 1s4.63-.95 6.2-1s4.63.95 6.2 1s4.63-.95 6.2-1s4.63.95 6.2 1a42.589 42.589 0 0 0 6.2-1Z"></path></defs><path fill="#fff" d="M5 17h62v38H5z"></path><use xlink:href="#IconifyId17f5a01c7b33705c256"></use><path fill="#1e50a0" d="M67 46a42.589 42.589 0 0 1-6.2 1c-1.57-.05-4.63-1.05-6.2-1s-4.63 1.05-6.2 1s-4.63-1.05-6.2-1s-4.63 1.05-6.2 1s-4.63-1.05-6.2-1s-4.63 1.048-6.2 1s-4.63-1.042-6.2-1s-4.63 1-6.2 1A50.836 50.836 0 0 1 5 46v-2a50.836 50.836 0 0 0 6.2 1c1.57 0 4.63-.959 6.2-1s4.63.952 6.2 1s4.63-.95 6.2-1s4.63.95 6.2 1s4.63-.95 6.2-1s4.63.95 6.2 1s4.63-.95 6.2-1s4.63.95 6.2 1a42.589 42.589 0 0 0 6.2-1Z"></path><path fill="#fff" d="M67 48a42.589 42.589 0 0 1-6.2 1c-1.57-.05-4.63-1.05-6.2-1s-4.63 1.05-6.2 1s-4.63-1.05-6.2-1s-4.63 1.05-6.2 1s-4.63-1.05-6.2-1s-4.63 1.048-6.2 1s-4.63-1.042-6.2-1s-4.63 1-6.2 1A50.836 50.836 0 0 1 5 48v-2a50.836 50.836 0 0 0 6.2 1c1.57 0 4.63-.959 6.2-1s4.63.952 6.2 1s4.63-.95 6.2-1s4.63.95 6.2 1s4.63-.95 6.2-1s4.63.95 6.2 1s4.63-.95 6.2-1s4.63.95 6.2 1a42.589 42.589 0 0 0 6.2-1Z"></path><path fill="#1e50a0" d="M67 50a42.589 42.589 0 0 1-6.2 1c-1.57-.05-4.63-1.05-6.2-1s-4.63 1.05-6.2 1s-4.63-1.05-6.2-1s-4.63 1.05-6.2 1s-4.63-1.05-6.2-1s-4.63 1.048-6.2 1s-4.63-1.042-6.2-1s-4.63 1-6.2 1A50.836 50.836 0 0 1 5 50v-2a50.836 50.836 0 0 0 6.2 1c1.57 0 4.63-.959 6.2-1s4.63.952 6.2 1s4.63-.95 6.2-1s4.63.95 6.2 1s4.63-.95 6.2-1s4.63.95 6.2 1s4.63-.95 6.2-1s4.63.95 6.2 1a42.589 42.589 0 0 0 6.2-1Z"></path><path fill="#1e50a0" d="M67 55s-4.63-.95-6.2-1s-4.63.95-6.2 1s-4.63-.95-6.2-1s-4.63.95-6.2 1s-4.63-.95-6.2-1s-4.63.95-6.2 1s-4.63-.952-6.2-1s-4.63.959-6.2 1s-4.63-1-6.2-1A50.836 50.836 0 0 0 5 55v-4a50.836 50.836 0 0 0 6.2 1c1.57 0 4.63-.959 6.2-1s4.63.952 6.2 1s4.63-.95 6.2-1s4.63.95 6.2 1s4.63-.95 6.2-1s4.63.95 6.2 1s4.63-.95 6.2-1s4.63.95 6.2 1a42.589 42.589 0 0 0 6.2-1Z"></path><path fill="#fff" d="M67 52a42.589 42.589 0 0 1-6.2 1c-1.57-.05-4.63-1.05-6.2-1s-4.63 1.05-6.2 1s-4.63-1.05-6.2-1s-4.63 1.05-6.2 1s-4.63-1.05-6.2-1s-4.63 1.048-6.2 1s-4.63-1.042-6.2-1s-4.63 1-6.2 1A50.836 50.836 0 0 1 5 52v-2a50.836 50.836 0 0 0 6.2 1c1.57 0 4.63-.959 6.2-1s4.63.952 6.2 1s4.63-.95 6.2-1s4.63.95 6.2 1s4.63-.95 6.2-1s4.63.95 6.2 1s4.63-.95 6.2-1s4.63.95 6.2 1a42.589 42.589 0 0 0 6.2-1Z"></path><path fill="#1e50a0" d="M67 38a42.589 42.589 0 0 1-6.2 1c-1.57-.05-4.63-1.05-6.2-1s-4.63 1.05-6.2 1s-4.63-1.05-6.2-1s-4.63 1.05-6.2 1s-4.63-1.05-6.2-1s-4.63 1.048-6.2 1s-4.63-1.042-6.2-1s-4.63 1-6.2 1A50.836 50.836 0 0 1 5 38v-2a50.836 50.836 0 0 0 6.2 1c1.57 0 4.63-.959 6.2-1s4.63.952 6.2 1s4.63-.95 6.2-1s4.63.95 6.2 1s4.63-.95 6.2-1s4.63.95 6.2 1s4.63-.95 6.2-1s4.63.95 6.2 1a42.589 42.589 0 0 0 6.2-1Z"></path><path fill="#fff" d="M67 40a42.589 42.589 0 0 1-6.2 1c-1.57-.05-4.63-1.05-6.2-1s-4.63 1.05-6.2 1s-4.63-1.05-6.2-1s-4.63 1.05-6.2 1s-4.63-1.05-6.2-1s-4.63 1.048-6.2 1s-4.63-1.042-6.2-1s-4.63 1-6.2 1A50.836 50.836 0 0 1 5 40v-2a50.836 50.836 0 0 0 6.2 1c1.57 0 4.63-.959 6.2-1s4.63.952 6.2 1s4.63-.95 6.2-1s4.63.95 6.2 1s4.63-.95 6.2-1s4.63.95 6.2 1s4.63-.95 6.2-1s4.63.95 6.2 1a42.589 42.589 0 0 0 6.2-1Z"></path><path fill="#1e50a0" d="M67 42a42.589 42.589 0 0 1-6.2 1c-1.57-.05-4.63-1.05-6.2-1s-4.63 1.05-6.2 1s-4.63-1.05-6.2-1s-4.63 1.05-6.2 1s-4.63-1.05-6.2-1s-4.63 1.048-6.2 1s-4.63-1.042-6.2-1s-4.63 1-6.2 1A50.836 50.836 0 0 1 5 42v-2a50.836 50.836 0 0 0 6.2 1c1.57 0 4.63-.959 6.2-1s4.63.952 6.2 1s4.63-.95 6.2-1s4.63.95 6.2 1s4.63-.95 6.2-1s4.63.95 6.2 1s4.63-.95 6.2-1s4.63.95 6.2 1a42.589 42.589 0 0 0 6.2-1Z"></path><use xlink:href="#IconifyId17f5a01c7b33705c256"></use><path fill="#1e50a0" d="M67 30a42.589 42.589 0 0 1-6.2 1c-1.57-.05-4.63-1.05-6.2-1s-4.63 1.05-6.2 1s-4.63-1.05-6.2-1s-4.63 1.05-6.2 1s-4.63-1.05-6.2-1s-4.63 1.048-6.2 1s-4.63-1.042-6.2-1s-4.63 1-6.2 1A50.836 50.836 0 0 1 5 30v-2a50.836 50.836 0 0 0 6.2 1c1.57 0 4.63-.959 6.2-1s4.63.952 6.2 1s4.63-.95 6.2-1s4.63.95 6.2 1s4.63-.95 6.2-1s4.63.95 6.2 1s4.63-.95 6.2-1s4.63.95 6.2 1a42.589 42.589 0 0 0 6.2-1Z"></path><path fill="#fff" d="M67 32a42.589 42.589 0 0 1-6.2 1c-1.57-.05-4.63-1.05-6.2-1s-4.63 1.05-6.2 1s-4.63-1.05-6.2-1s-4.63 1.05-6.2 1s-4.63-1.05-6.2-1s-4.63 1.048-6.2 1s-4.63-1.042-6.2-1s-4.63 1-6.2 1A50.836 50.836 0 0 1 5 32v-2a50.836 50.836 0 0 0 6.2 1c1.57 0 4.63-.959 6.2-1s4.63.952 6.2 1s4.63-.95 6.2-1s4.63.95 6.2 1s4.63-.95 6.2-1s4.63.95 6.2 1s4.63-.95 6.2-1s4.63.95 6.2 1a42.589 42.589 0 0 0 6.2-1Z"></path><path fill="#1e50a0" d="M67 34a42.589 42.589 0 0 1-6.2 1c-1.57-.05-4.63-1.05-6.2-1s-4.63 1.05-6.2 1s-4.63-1.05-6.2-1s-4.63 1.05-6.2 1s-4.63-1.05-6.2-1s-4.63 1.048-6.2 1s-4.63-1.042-6.2-1s-4.63 1-6.2 1A50.836 50.836 0 0 1 5 34v-2a50.836 50.836 0 0 0 6.2 1c1.57 0 4.63-.959 6.2-1s4.63.952 6.2 1s4.63-.95 6.2-1s4.63.95 6.2 1s4.63-.95 6.2-1s4.63.95 6.2 1s4.63-.95 6.2-1s4.63.95 6.2 1a42.589 42.589 0 0 0 6.2-1Z"></path><path fill="#fff" d="M67 36a42.589 42.589 0 0 1-6.2 1c-1.57-.05-4.63-1.05-6.2-1s-4.63 1.05-6.2 1s-4.63-1.05-6.2-1s-4.63 1.05-6.2 1s-4.63-1.05-6.2-1s-4.63 1.048-6.2 1s-4.63-1.042-6.2-1s-4.63 1-6.2 1A50.836 50.836 0 0 1 5 36v-2a50.836 50.836 0 0 0 6.2 1c1.57 0 4.63-.959 6.2-1s4.63.952 6.2 1s4.63-.95 6.2-1s4.63.95 6.2 1s4.63-.95 6.2-1s4.63.95 6.2 1s4.63-.95 6.2-1s4.63.95 6.2 1a42.589 42.589 0 0 0 6.2-1Z"></path><path fill="#1e50a0" d="M67 22a42.589 42.589 0 0 1-6.2 1c-1.57-.05-4.63-1.05-6.2-1s-4.63 1.05-6.2 1s-4.63-1.05-6.2-1s-4.63 1.05-6.2 1s-4.63-1.05-6.2-1s-4.63 1.048-6.2 1s-4.63-1.042-6.2-1s-4.63 1-6.2 1A50.836 50.836 0 0 1 5 22v-2a50.836 50.836 0 0 0 6.2 1c1.57 0 4.63-.959 6.2-1s4.63.952 6.2 1s4.63-.95 6.2-1s4.63.95 6.2 1s4.63-.95 6.2-1s4.63.95 6.2 1s4.63-.95 6.2-1s4.63.95 6.2 1a42.589 42.589 0 0 0 6.2-1Z"></path><path fill="#fff" d="M67 24a42.589 42.589 0 0 1-6.2 1c-1.57-.05-4.63-1.05-6.2-1s-4.63 1.05-6.2 1s-4.63-1.05-6.2-1s-4.63 1.05-6.2 1s-4.63-1.05-6.2-1s-4.63 1.048-6.2 1s-4.63-1.042-6.2-1s-4.63 1-6.2 1A50.836 50.836 0 0 1 5 24v-2a50.836 50.836 0 0 0 6.2 1c1.57 0 4.63-.959 6.2-1s4.63.952 6.2 1s4.63-.95 6.2-1s4.63.95 6.2 1s4.63-.95 6.2-1s4.63.95 6.2 1s4.63-.95 6.2-1s4.63.95 6.2 1a42.589 42.589 0 0 0 6.2-1Z"></path><path fill="#1e50a0" d="M67 18a42.589 42.589 0 0 1-6.2 1c-1.57-.05-4.63-1.05-6.2-1s-4.63 1.05-6.2 1s-4.63-1.05-6.2-1s-4.63 1.05-6.2 1s-4.63-1.05-6.2-1s-4.63 1.048-6.2 1s-4.63-1.042-6.2-1s-4.63 1-6.2 1A50.836 50.836 0 0 1 5 18v-2a50.836 50.836 0 0 0 6.2 1c1.57 0 4.63-.959 6.2-1s4.63.952 6.2 1s4.63-.95 6.2-1s4.63.95 6.2 1s4.63-.95 6.2-1s4.63.95 6.2 1s4.63-.95 6.2-1s4.63.95 6.2 1a42.589 42.589 0 0 0 6.2-1Z"></path><path fill="#fff" d="M67 20a42.589 42.589 0 0 1-6.2 1c-1.57-.05-4.63-1.05-6.2-1s-4.63 1.05-6.2 1s-4.63-1.05-6.2-1s-4.63 1.05-6.2 1s-4.63-1.05-6.2-1s-4.63 1.048-6.2 1s-4.63-1.042-6.2-1s-4.63 1-6.2 1A50.836 50.836 0 0 1 5 20v-2a50.836 50.836 0 0 0 6.2 1c1.57 0 4.63-.959 6.2-1s4.63.952 6.2 1s4.63-.95 6.2-1s4.63.95 6.2 1s4.63-.95 6.2-1s4.63.95 6.2 1s4.63-.95 6.2-1s4.63.95 6.2 1a42.589 42.589 0 0 0 6.2-1Z"></path><path fill="#1e50a0" d="M67 26a42.589 42.589 0 0 1-6.2 1c-1.57-.05-4.63-1.05-6.2-1s-4.63 1.05-6.2 1s-4.63-1.05-6.2-1s-4.63 1.05-6.2 1s-4.63-1.05-6.2-1s-4.63 1.048-6.2 1s-4.63-1.042-6.2-1s-4.63 1-6.2 1A50.836 50.836 0 0 1 5 26v-2a50.836 50.836 0 0 0 6.2 1c1.57 0 4.63-.959 6.2-1s4.63.952 6.2 1s4.63-.95 6.2-1s4.63.95 6.2 1s4.63-.95 6.2-1s4.63.95 6.2 1s4.63-.95 6.2-1s4.63.95 6.2 1a42.589 42.589 0 0 0 6.2-1Z"></path><path fill="#fff" d="M67 28a42.589 42.589 0 0 1-6.2 1c-1.57-.05-4.63-1.05-6.2-1s-4.63 1.05-6.2 1s-4.63-1.05-6.2-1s-4.63 1.05-6.2 1s-4.63-1.05-6.2-1s-4.63 1.048-6.2 1s-4.63-1.042-6.2-1s-4.63 1-6.2 1A50.836 50.836 0 0 1 5 28v-2a50.836 50.836 0 0 0 6.2 1c1.57 0 4.63-.959 6.2-1s4.63.952 6.2 1s4.63-.95 6.2-1s4.63.95 6.2 1s4.63-.95 6.2-1s4.63.95 6.2 1s4.63-.95 6.2-1s4.63.95 6.2 1a42.589 42.589 0 0 0 6.2-1Z"></path><path fill="#1e50a0" d="M5 17h31v19H5z"></path><path fill="#fff" d="M9.887 18H6v2.332L32.113 36H36v-2.332L9.887 18z"></path><path fill="#fff" d="M36 20.332V18h-3.887L6 33.668V36h3.887L36 20.332z"></path><path fill="#fff" d="M6 24h30v6H6z"></path><path fill="#fff" d="M18 18h6v18h-6z"></path><path fill="#d22f27" d="M20 18h2v18h-2z"></path><path fill="#d22f27" d="M6 26h30v2H6zm30 7.668L29.887 30H26l10 6v-2.332zM36 18h-3.887L24 22.868V24h2.001L36 18.001V18zM6 20.332L12.113 24h3.888l-10-6l-.001.001v2.331zM6 36h3.887L18 31.132V30h-2L6 35.999V36z"></path><path fill="none" stroke="#000" stroke-linecap="round" stroke-linejoin="round" stroke-width="2" d="M5 17h62v38H5z"></path></svg>