<svg xmlns="http://www.w3.org/2000/svg" xmlns:xlink="http://www.w3.org/1999/xlink" aria-hidden="true" role="img" class="iconify iconify--openmoji" width="1em" height="1em" preserveAspectRatio="xMidYMid meet" viewBox="0 0 72 72"><path fill="#b1cc33" d="M5 17h62v38H5z"></path><path fill="#61b2e4" d="M5 17h62v13H5z"></path><path fill="#fff" stroke="#d22f27" stroke-miterlimit="10" stroke-width="1.5" d="M5 30.25h62v11.5H5z"></path><circle cx="29.25" cy="21" r="1" fill="#fff"></circle><circle cx="29.25" cy="24" r="1" fill="#fff"></circle><circle cx="29.25" cy="27" r="1" fill="#fff"></circle><circle cx="26.25" cy="21" r="1" fill="#fff"></circle><circle cx="26.25" cy="24" r="1" fill="#fff"></circle><circle cx="26.25" cy="27" r="1" fill="#fff"></circle><circle cx="23.25" cy="21" r="1" fill="#fff"></circle><circle cx="23.25" cy="24" r="1" fill="#fff"></circle><circle cx="23.25" cy="27" r="1" fill="#fff"></circle><circle cx="20.25" cy="24" r="1" fill="#fff"></circle><circle cx="20.25" cy="27" r="1" fill="#fff"></circle><circle cx="17.25" cy="27" r="1" fill="#fff"></circle><path fill="#fff" stroke="#fff" stroke-linecap="round" stroke-linejoin="round" d="M11.297 24A3.465 3.465 0 0 1 14 20.567a3.229 3.229 0 0 0-.649-.067a3.503 3.503 0 0 0 0 7a3.229 3.229 0 0 0 .649-.067A3.465 3.465 0 0 1 11.297 24Z"></path><path fill="none" stroke="#000" stroke-linecap="round" stroke-linejoin="round" stroke-width="2" d="M5 17h62v38H5z"></path></svg>