<svg xmlns="http://www.w3.org/2000/svg" xmlns:xlink="http://www.w3.org/1999/xlink" aria-hidden="true" role="img" class="iconify iconify--openmoji" width="1em" height="1em" preserveAspectRatio="xMidYMid meet" viewBox="0 0 72 72"><path fill="#fff" d="M5 17h62v38H5z"></path><path fill="#d22f27" d="M63.173 17H8.827L36 33.654L63.173 17zm0 38L36 38.346L8.827 55h54.346z"></path><path fill="#5c9e31" d="M67 19.346L39.827 36L67 52.654V19.346zM5 52.654L32.173 36L5 19.346v33.308z"></path><circle cx="36" cy="36" r="10" fill="#fff"></circle><circle cx="36" cy="31" r="2" fill="#d22f27"></circle><circle cx="40.33" cy="38.5" r="2" fill="#d22f27"></circle><circle cx="31.67" cy="38.5" r="2" fill="#d22f27"></circle><path fill="none" d="M31.67 38.5L36 36m4.33 2.5L36 36"></path><path fill="none" stroke="#000" stroke-linecap="round" stroke-linejoin="round" stroke-width="2" d="M5 17h62v38H5z"></path></svg>