<svg xmlns="http://www.w3.org/2000/svg" xmlns:xlink="http://www.w3.org/1999/xlink" aria-hidden="true" role="img" class="iconify iconify--openmoji" width="1em" height="1em" preserveAspectRatio="xMidYMid meet" viewBox="0 0 72 72"><g stroke-linecap="round" stroke-linejoin="round"><path fill="#d22f27" stroke="#1e50a0" stroke-width="2" d="M50 55H22V17l28 20H33l17 18z"></path><path fill="#fff" stroke="#fff" d="M30 42.773L31.206 42l.658 1.272l1.43-.066l-.066 1.431l1.272.657l-.773 1.206l.773 1.206l-1.272.657l.066 1.431l-1.43-.066L31.206 51L30 50.227L28.794 51l-.657-1.272l-1.431.066l.066-1.431l-1.272-.657l.773-1.206l-.773-1.206l1.272-.657l-.066-1.431l1.431.066l.657-1.272l1.206.773z"></path><circle cx="30" cy="30" r="2" fill="#fff" stroke="#fff"></circle><path fill="none" stroke="#fff" stroke-width="1.5" d="M34 31c-.45 1-1.719 2-4 2s-3.55-1-4-2"></path></g></svg>