<svg xmlns="http://www.w3.org/2000/svg" xmlns:xlink="http://www.w3.org/1999/xlink" aria-hidden="true" role="img" class="iconify iconify--openmoji" width="1em" height="1em" preserveAspectRatio="xMidYMid meet" viewBox="0 0 72 72"><path fill="#d22f27" d="M5 17h62v38H5z"></path><path fill="#5c9e31" d="M5 36h62v19H5z"></path><path d="M26 36L5 55V17l21 19z"></path><path fill="#f1b31c" stroke="#000" stroke-linecap="round" stroke-linejoin="round" stroke-width="2" d="M26 34L5 17v4l18.529 15L5 51v4l21-17h41v-4H26z"></path><path fill="none" stroke="#f1b31c" stroke-linecap="round" stroke-linejoin="round" d="M12.333 39.273a3.929 3.929 0 0 0 4.167-3.637a3.143 3.143 0 0 0-3.333-2.909a2.514 2.514 0 0 0-2.667 2.328a2.012 2.012 0 0 0 2.133 1.861"></path><path fill="none" stroke="#000" stroke-linecap="round" stroke-linejoin="round" stroke-width="2" d="M5 17h62v38H5z"></path></svg>