<svg xmlns="http://www.w3.org/2000/svg" xmlns:xlink="http://www.w3.org/1999/xlink" aria-hidden="true" role="img" class="iconify iconify--openmoji" width="1em" height="1em" preserveAspectRatio="xMidYMid meet" viewBox="0 0 72 72"><path fill="#d22f27" d="M5 17h62v38H5z"></path><path fill="#fff" d="M5 17h62v13H5z"></path><path fill="#1e50a0" d="M5 30h62v12H5z"></path><path fill="#1e50a0" stroke="#000" stroke-linecap="round" stroke-linejoin="round" d="M22.583 22v9c0 6.75-6.75 9-6.75 9s-6.75-2.25-6.75-9v-9s6.896-3.406 13.5 0Z"></path><path fill="#fff" stroke="#fff" stroke-miterlimit="10" d="m11.963 33.352l7.975.339A6.816 6.816 0 0 1 16 38c-3 1-4.037-4.649-4.037-4.649"></path><path fill="#fff" stroke="#fff" stroke-miterlimit="10" d="m14.5 33.5l1-2l2.265 2.584L14.5 33.5"></path><circle cx="13" cy="24" r="1" fill="#fcea2b"></circle><path fill="none" stroke="#fff" stroke-linecap="round" stroke-linejoin="round" stroke-width="2" d="m21 35l-1-3l-2 3l-2-5l-2 5l-2-3l-1 3s4 9 10 0Z"></path><circle cx="16" cy="26" r="1" fill="#fcea2b"></circle><circle cx="19" cy="24" r="1" fill="#fcea2b"></circle><path fill="none" stroke="#d22f27" stroke-linecap="round" stroke-linejoin="round" d="M22.583 22v9c0 6.75-6.75 9-6.75 9s-6.75-2.25-6.75-9v-9s6.896-3.406 13.5 0Z"></path><path fill="none" stroke="#000" stroke-linecap="round" stroke-linejoin="round" stroke-width="2" d="M5 17h62v38H5z"></path></svg>