<svg xmlns="http://www.w3.org/2000/svg" xmlns:xlink="http://www.w3.org/1999/xlink" aria-hidden="true" role="img" class="iconify iconify--openmoji" width="1em" height="1em" preserveAspectRatio="xMidYMid meet" viewBox="0 0 72 72"><path fill="#1e50a0" d="M5 17h62v38H5z"></path><path fill="#fff" stroke="#fff" stroke-miterlimit="10" stroke-width="2" d="m67.004 33.045l-28-.041l.024-16l-6-.008l-.024 16l-28-.041l-.008 6l28 .041l-.024 16l6 .008l.024-16l28 .041l.008-6z"></path><g stroke="#fff" stroke-linecap="round" stroke-linejoin="round" stroke-width="2"><path fill="#f1b31c" d="M16 50h6.5M16 50l6.5-1"></path><circle cx="22.5" cy="49.5" r=".5" fill="none"></circle><path fill="none" d="M19 47a3 3 0 0 0 3 3m-5-6h1.5a.501.501 0 0 1 .5.5V47"></path></g><g stroke="#fff" stroke-linecap="round" stroke-linejoin="round" stroke-width="2"><path fill="#f1b31c" d="M16 28h6.5M16 28l6.5-1"></path><circle cx="22.5" cy="27.5" r=".5" fill="none"></circle><path fill="none" d="M19 25a3 3 0 0 0 3 3m-5-6h1.5a.501.501 0 0 1 .5.5V25"></path></g><g stroke="#fff" stroke-linecap="round" stroke-linejoin="round" stroke-width="2"><path fill="#f1b31c" d="M50 50h6.5M50 50l6.5-1"></path><circle cx="56.5" cy="49.5" r=".5" fill="none"></circle><path fill="none" d="M53 47a3 3 0 0 0 3 3m-5-6h1.5a.501.501 0 0 1 .5.5V47"></path></g><g stroke="#fff" stroke-linecap="round" stroke-linejoin="round" stroke-width="2"><path fill="#f1b31c" d="M50 28h6.5M50 28l6.5-1"></path><circle cx="56.5" cy="27.5" r=".5" fill="none"></circle><path fill="none" d="M53 25a3 3 0 0 0 3 3m-5-6h1.5a.501.501 0 0 1 .5.5V25"></path></g><path fill="none" stroke="#000" stroke-linecap="round" stroke-linejoin="round" stroke-width="2" d="M5 17h62v38H5z"></path></svg>