<svg xmlns="http://www.w3.org/2000/svg" xmlns:xlink="http://www.w3.org/1999/xlink" aria-hidden="true" role="img" class="iconify iconify--openmoji" width="1em" height="1em" preserveAspectRatio="xMidYMid meet" viewBox="0 0 72 72"><path fill="#5c9e31" d="M5 17h62v38H5z"></path><path fill="#d22f27" d="M5 17h62v13H5z"></path><path fill="#fff" d="M5 30h62v12H5z"></path><circle cx="36" cy="35.155" r=".497" fill="#fcea2b" stroke="#fcea2b" stroke-miterlimit="10" stroke-width=".994"></circle><rect width=".928" height="3.975" x="35.536" y="35.155" fill="#fcea2b" rx=".306" ry=".306"></rect><path fill="none" stroke="#fcea2b" stroke-linecap="round" stroke-linejoin="round" stroke-width="1.988" d="M38.982 40.125a4.214 4.214 0 0 0-5.963 0"></path><g fill="#fcea2b" stroke="#fcea2b" stroke-miterlimit="10"><circle cx="41" cy="37" r=".5"></circle><circle cx="40.2" cy="34.6" r=".5"></circle><circle cx="38.4" cy="32.9" r=".5"></circle><circle cx="36" cy="32.2" r=".5"></circle><circle cx="33.6" cy="32.9" r=".5"></circle><circle cx="31.8" cy="34.6" r=".5"></circle><circle cx="31" cy="37" r=".5"></circle></g><path fill="none" stroke="#000" stroke-linecap="round" stroke-linejoin="round" stroke-width="2" d="M5 17h62v38H5z"></path></svg>