<svg xmlns="http://www.w3.org/2000/svg" xmlns:xlink="http://www.w3.org/1999/xlink" aria-hidden="true" role="img" class="iconify iconify--openmoji" width="1em" height="1em" preserveAspectRatio="xMidYMid meet" viewBox="0 0 72 72"><defs><path fill="none" stroke="#FCEA2B" stroke-linecap="round" stroke-linejoin="round" stroke-miterlimit="10" stroke-width="2" d="m13.198 46.281l-3.863.991m9.766 5.923l-3.928 3.831m11.069 2.444l-1.099 3.666" id="IconifyId17f5a01c7b33705c258"></path></defs><use stroke-linecap="round" stroke-linejoin="round" stroke-miterlimit="10" stroke-width="2" xlink:href="#IconifyId17f5a01c7b33705c258"></use><path fill="#D0CFCE" d="M56.487 17c-1.958-1.958-3.994-3.47-5.03-2.706L29.578 36.17c1.278.545 2.872 1.509 3.885 2.522c1.012 1.012 2.805 3.792 3.35 5.071l21.898-22.456c-.042-.464-.217-2.3-2.225-4.308z"></path><path fill="#D0CFCE" d="m20.45 38.215l-4.78 4.949l14.142 14.142l5.141-5.332c1.7-1.699 1.547-3.797 1.547-6.201s-.915-4.982-2.615-6.682c-3.51-3.51-9.925-4.386-13.435-.876z"></path><path fill="#9B9B9A" d="M35.814 39.837c.446.633.7 3.22 1 3.927l21.898-22.456c-.019-.205-.106-2.136-.647-2.735c-.311-.344-1.03.73-1.314.327L35.814 39.837z"></path><path fill="#9B9B9A" d="m27.41 54.904l2.402 2.402l4.799-4.881c1.7-1.7 2.389-4.545 2.389-6.949c0-.799-.393-2.873-.886-3.455c-.505-.598-1.117.299-1.52-.39c-.193-.33.551 2.335-.59 5.75c-1.14 3.416-6.594 7.523-6.594 7.523z"></path><g fill="none" stroke="#000" stroke-linecap="round" stroke-linejoin="round" stroke-miterlimit="10" stroke-width="2"><path d="m29.579 36.171l21.877-21.877s1.492-.85 4.61 2.268s2.616 4.958 2.616 4.958L36.805 43.397"></path><path d="M19.743 39.09c3.905-3.905 10.237-3.905 14.142 0c3.905 3.906 3.905 10.238 0 14.143l-4.073 4.073L15.67 43.164l4.073-4.073zm-6.545 7.191l-3.863.991m9.766 5.923l-3.928 3.831m11.069 2.444l-1.099 3.666"></path></g><use stroke-linecap="round" stroke-linejoin="round" stroke-miterlimit="10" stroke-width="2.1" xlink:href="#IconifyId17f5a01c7b33705c258"></use></svg>