<svg xmlns="http://www.w3.org/2000/svg" xmlns:xlink="http://www.w3.org/1999/xlink" aria-hidden="true" role="img" class="iconify iconify--openmoji" width="1em" height="1em" preserveAspectRatio="xMidYMid meet" viewBox="0 0 72 72"><path fill="#5c9e31" d="M38.23 15.46c-.054-.97 3.723-3.997 5.806-.878c.395.36 2.126-1.39 4.198-1.123c1.4.18 1.977 2.648 3.377 3.33a10.94 10.94 0 0 1 3.663 2.283c.363.475.115 1.578.476 3.044c.331 1.349 3.817 1.22 3.044 2.854a103.818 103.818 0 0 1-7.608 13.93a38.606 38.606 0 0 0-5.44 11.07s-12.28-21.09-7.516-34.51z"></path><path fill="#b1cc33" d="M13.37 19.06s.576-2.126 4.428-2.923c.882-1.102.798-4.045 2.918-3.453c3.834.254 4.765-1.352 8.137-.709c1.404 1.531 5.977 1.341 6.438 1.327c3.925 5.378 9.018 30.07 7.855 32.25c-1.163 2.18-16.35 6.706-16.35 6.706s-14.88-32.77-13.42-33.2z"></path><path fill="#fff" d="m26.91 52.79l16.64-6.381l2.603 6.788a1.424 1.424 0 0 1-.82 1.84l-13.62 5.221a1.816 1.816 0 0 1-2.345-1.045z"></path><g fill="none"><path d="M38.19 15.22s3.818-2.736 5.841-.885c.397.363 2.139-1.4 4.223-1.132c1.409.18 1.989 2.668 3.398 3.356a11.01 11.03 0 0 1 3.685 2.3c.366.48.116 1.592.479 3.069c.333 1.36 3.84 1.23 3.063 2.877a104.5 104.7 0 0 1-7.655 14.04a38.81 38.88 0 0 0-5.472 11.16s-12.36-21.26-7.562-34.79z"></path><path d="M13.18 18.85s.58-2.142 4.455-2.946c1.064-.828 1.599-2.757 3.074-3.214a5.088 5.097 0 0 1 3.508.482c.965.373 2.368-1.018 3.354-1.107c1.408-.128 2.653 1.232 3.801 1.39c1.193.165 3.266-1.226 3.862-.408c3.949 5.42 9.073 30.31 7.903 32.51s-16.45 6.759-16.45 6.759s-14.97-33.03-13.5-33.47z"></path><path stroke="#000" stroke-linecap="round" stroke-linejoin="round" stroke-width="2" d="m26.81 52.84l16.4-6.333l2.959 6.744c.319.726-.086 1.57-.825 1.854l-13.7 5.262a1.825 1.825 0 0 1-2.359-1.053zM22.4 26.77c-1.102-3.313-2.039-8.034-4.299-9.815a3.218 3.218 0 0 0-2.756-.64c-4.352 2.25.162 9.156 1.219 12.29c.896 2.66 2.043 6.165 2.896 8.616c1.291 3.71 7.348 15.61 7.348 15.61"></path><path stroke="#000" stroke-linecap="round" stroke-linejoin="round" stroke-width="2" d="M18.1 16.96c-.233-4.612 4.101-6.323 6.053-3.535c1.646 2.492 4.171 11 4.171 11M24.34 13.43c.775-.878 1.184-1.734 2.307-2.063c1.876-.492 3.014-.135 4.041 2.829c1.027 2.964 3.123 9.961 3.123 9.961M30.69 14.2s2.407-2.769 4.881-.605c.894 1.681 5.535 19.73 5.535 19.73s2.617 10.46 2.104 13.18M18.79 34.83s2.102 2.661 3.196 2.531c2.798-.334 3.077-3.89 3.15-5.871c.073-1.981.59-4.11 3.189-3.963c2.598.147 3.99.587 3.624 4.183c-.366 3.596-3.003 13.5-3.003 13.5l5.263 4.562M36.99 17.27s2.13-3.556 3.022-3.979c.958-.454 4.163.116 4.112 2.638c-.051 2.522-3.619 8.345-3.619 8.345"></path><path stroke="#000" stroke-linecap="round" stroke-linejoin="round" stroke-width="2" d="M44.12 15.93s1.683-2.82 3.258-2.961c2.068-.3 3.843 1.477 3.543 3.549c-.077.429-.194.85-.349 1.256a78.846 78.846 0 0 1-5.034 9.742m5.252-9.896s2.353-1.24 3.71-.118a2.769 2.774 0 0 1 .713 4.046c-.985 1.768-5.122 9.663-5.122 9.663m4.939-9.021c.01-.036 4.244-.86 3.749 2.792c-.266 1.964-13.84 25.29-13.84 25.29"></path></g></svg>