<svg xmlns="http://www.w3.org/2000/svg" xmlns:xlink="http://www.w3.org/1999/xlink" aria-hidden="true" role="img" class="iconify iconify--openmoji" width="1em" height="1em" preserveAspectRatio="xMidYMid meet" viewBox="0 0 72 72"><path fill="#FCEA2B" d="M36 13c-12.703 0-23 10.297-23 23s10.297 23 23 23s23-10.297 23-23c-.014-12.697-10.303-22.986-23-23z"></path><path fill="#FFF" d="M44.5 49.27h-17a4.012 4.012 0 0 1-4-4a4.012 4.012 0 0 1 4-4h17a4.012 4.012 0 0 1 4 4a4.012 4.012 0 0 1-4 4z"></path><path fill="none" stroke="#000" stroke-linecap="round" stroke-linejoin="round" stroke-width="2" d="M28 41.771v7m5-7v7m5-7v7m5-7v7"></path><circle cx="36" cy="36" r="23" fill="none" stroke="#000" stroke-miterlimit="10" stroke-width="2"></circle><path fill="none" stroke="#000" stroke-miterlimit="2" stroke-width="2" d="M44.5 49.27h-17a4.012 4.012 0 0 1-4-4a4.012 4.012 0 0 1 4-4h17a4.012 4.012 0 0 1 4 4a4.012 4.012 0 0 1-4 4z"></path><path d="M30 31a3.001 3.001 0 0 1-6 0c0-1.655 1.345-3 3-3s3 1.345 3 3m18 0a3.001 3.001 0 0 1-6 0c0-1.655 1.345-3 3-3s3 1.345 3 3"></path></svg>