<svg xmlns="http://www.w3.org/2000/svg" xmlns:xlink="http://www.w3.org/1999/xlink" aria-hidden="true" role="img" class="iconify iconify--openmoji" width="1em" height="1em" preserveAspectRatio="xMidYMid meet" viewBox="0 0 72 72"><defs><path id="IconifyId17f5a01c7b33705c272" fill="none" stroke-linejoin="round" d="M26 5h20v62H26z"></path></defs><circle cx="36" cy="40" r="1"></circle><path fill="#3F3F3F" stroke="#000" stroke-linejoin="round" d="M26 5h20v62H26z"></path><path fill="#9B9B9A" d="M26 53h20v14H26z"></path><circle cx="36" cy="40" r="8" fill="#D22F27" stroke="#D0CFCE"></circle><circle r="4" fill="#EA5A47" transform="matrix(-1 0 0 1 36 40)"></circle><path fill="none" stroke="#fff" stroke-linecap="round" stroke-linejoin="round" stroke-width="2" d="M41 40a4.993 4.993 0 0 0-5-5"></path><circle cx="36" cy="40" r="2" fill="#F1B31C"></circle><circle cx="36" cy="40" r="1" fill="#FCEA2B"></circle><path fill="#61B2E4" d="M28 7h8v4h-8z"></path><g stroke="#000"><use xlink:href="#IconifyId17f5a01c7b33705c272" stroke-linejoin="round"></use><circle cx="36" cy="40" r="7" fill="none"></circle><path stroke-linecap="round" d="M27.5 52.5h17"></path><path fill="none" stroke-linejoin="round" d="M28 7h16v4H28z"></path><use xlink:href="#IconifyId17f5a01c7b33705c272" stroke-linejoin="round"></use></g></svg>