<svg xmlns="http://www.w3.org/2000/svg" xmlns:xlink="http://www.w3.org/1999/xlink" aria-hidden="true" role="img" class="iconify iconify--openmoji" width="1em" height="1em" preserveAspectRatio="xMidYMid meet" viewBox="0 0 72 72"><circle cx="36" cy="36" r="23" fill="#FCEA2B"></circle><ellipse cx="36" cy="48.395" fill="#FFF" rx="5.245" ry="6.538"></ellipse><circle cx="36" cy="36" r="23" fill="none" stroke="#000" stroke-linecap="round" stroke-linejoin="round" stroke-miterlimit="10" stroke-width="2"></circle><path fill="none" stroke="#000" stroke-linecap="round" stroke-linejoin="round" stroke-miterlimit="10" stroke-width="2" d="M20.695 27.2a6.306 6.306 0 0 1 3.39-3a6.304 6.304 0 0 1 4.53-.42m22.69 3.42a7.19 7.19 0 0 0-7.909-3.43"></path><ellipse cx="36" cy="48.395" fill="none" stroke="#000" stroke-linecap="round" stroke-linejoin="round" stroke-miterlimit="10" stroke-width="2" rx="5.245" ry="6.538"></ellipse><path d="M30 35a3.001 3.001 0 0 1-6 0c0-1.655 1.345-3 3-3s3 1.345 3 3m18 0a3.001 3.001 0 0 1-6 0c0-1.655 1.345-3 3-3s3 1.345 3 3"></path></svg>