<svg xmlns="http://www.w3.org/2000/svg" xmlns:xlink="http://www.w3.org/1999/xlink" aria-hidden="true" role="img" class="iconify iconify--openmoji" width="1em" height="1em" preserveAspectRatio="xMidYMid meet" viewBox="0 0 72 72"><path fill="#1e50a0" d="M59.035 60h-46.07a.968.968 0 0 1-.965-.965v-46.07a.968.968 0 0 1 .965-.965h46.07a.968.968 0 0 1 .965.965v46.07a.968.968 0 0 1-.965.965Z"></path><g fill="none" stroke="#000" stroke-width="2"><path stroke-miterlimit="10" d="M59.035 60h-46.07a.968.968 0 0 1-.965-.965v-46.07a.968.968 0 0 1 .965-.965h46.07a.968.968 0 0 1 .965.965v46.07a.968.968 0 0 1-.965.965Z"></path><path stroke-linecap="round" stroke-linejoin="round" d="M23 30v-4h25v4m-12.5-7.5V26"></path><path stroke-linecap="round" stroke-linejoin="round" d="M31.5 26.5s2 8-9 10M38.34 26l.16 8.5h5.586a3.414 3.414 0 0 0 2.414-1h0M25 41h21m-10.5.5v8h-13m27 0h-14"></path></g></svg>