<svg xmlns="http://www.w3.org/2000/svg" xmlns:xlink="http://www.w3.org/1999/xlink" aria-hidden="true" role="img" class="iconify iconify--openmoji" width="1em" height="1em" preserveAspectRatio="xMidYMid meet" viewBox="0 0 72 72"><path fill="#EA5A47" d="M17 55v-3h7v3"></path><circle cx="36" cy="17" r="10" fill="#EA5A47"></circle><path fill="#3F3F3F" d="M27 55c0-3.866 4.03-7 9-7s9 3.134 9 7"></path><path fill="#9B9B9A" stroke="#9B9B9A" stroke-linecap="round" stroke-linejoin="round" stroke-miterlimit="10" stroke-width="2" d="M33 27h6v21h-6z"></path><path fill="#9B9B9A" d="M14 55h44v10H14z"></path><path fill="#D22F27" d="m41 8l-7 19l6-1l5-5l1-6z"></path><g fill="none" stroke="#000" stroke-miterlimit="10" stroke-width="2"><path stroke-linecap="round" stroke-linejoin="round" d="M14 55h44v10H14z"></path><path d="M27 55c0-3.866 4.03-7 9-7s9 3.134 9 7"></path><path stroke-linecap="round" stroke-linejoin="round" d="M17 55v-3h7v3m15-10.297V27h-6v17.705"></path><circle cx="36" cy="17" r="10"></circle></g></svg>