<svg xmlns="http://www.w3.org/2000/svg" xmlns:xlink="http://www.w3.org/1999/xlink" aria-hidden="true" role="img" class="iconify iconify--openmoji" width="1em" height="1em" preserveAspectRatio="xMidYMid meet" viewBox="0 0 72 72"><defs><path id="IconifyId17f5a01c7b33705c2133" d="M41 44H9c-.6 0-1-.4-1-1V29c0-.6.4-1 1-1h32c.6 0 1 .4 1 1v14c0 .6-.4 1-1 1zm22 0h-8c-.6 0-1-.4-1-1V29c0-.6.4-1 1-1h8c.6 0 1 .4 1 1v14c0 .6-.4 1-1 1zm-13.7-3.7v-.7c0-.6-.4-1-1-1h-.7c-.6 0-1 .4-1 1v.7c0 .6-.4 1-1 1H45c-.6 0-1 .4-1 1v.7c0 .6.4 1 1 1h6c.6 0 1-.4 1-1v-.7c0-.6-.4-1-1-1h-.7c-.5 0-1-.4-1-1zM51 34h-6c-.6 0-1-.4-1-1v-4c0-.6.4-1 1-1h6c.6 0 1 .4 1 1v4c0 .6-.4 1-1 1z"></path></defs><path fill="#FFF" d="M4 24h64v24H4z"></path><path fill="#D0CFCE" d="M59 24h9v24H32z"></path><path fill="none" stroke="#000" stroke-linecap="round" stroke-linejoin="round" stroke-miterlimit="10" stroke-width="2" d="M4 24h64v24H4z"></path><use xlink:href="#IconifyId17f5a01c7b33705c2133"></use><use xlink:href="#IconifyId17f5a01c7b33705c2133" fill="#3F3F3F"></use></svg>