<svg xmlns="http://www.w3.org/2000/svg" xmlns:xlink="http://www.w3.org/1999/xlink" aria-hidden="true" role="img" class="iconify iconify--openmoji" width="1em" height="1em" preserveAspectRatio="xMidYMid meet" viewBox="0 0 72 72"><path fill="#F4AA41" d="m24.7 16.4l-17 6v27.9l17 6h40v-40h-40v.1zm-8.5 25c-2.8 0-5-2.2-5-5s2.2-5 5-5s5 2.2 5 5s-2.2 5-5 5z"></path><path fill="none" stroke="#000" stroke-linecap="round" stroke-linejoin="round" stroke-miterlimit="10" stroke-width="2" d="m24.7 16.4l-17 6v27.9l17 6h40v-40h-40v.1zm-8.5 25c-2.8 0-5-2.2-5-5s2.2-5 5-5s5 2.2 5 5s-2.2 5-5 5z"></path></svg>