<svg xmlns="http://www.w3.org/2000/svg" xmlns:xlink="http://www.w3.org/1999/xlink" aria-hidden="true" role="img" class="iconify iconify--openmoji" width="1em" height="1em" preserveAspectRatio="xMidYMid meet" viewBox="0 0 72 72"><path fill="#EA5A47" d="M45 66H27V28h9l9-3z"></path><path fill="#D22F27" d="m33 66l12-33v33z"></path><path fill="#D0CFCE" d="M45 25v11H27v-8h9zm-9 3v7"></path><path fill="#F1B31C" d="M35 17.714C35 20.857 33.21 25 31 25s-4-4.143-4-7.286C27 11.887 31 9 31 6c0 3 4 5.429 4 11.714z"></path><g fill="none" stroke="#000" stroke-linecap="round" stroke-linejoin="round" stroke-miterlimit="10" stroke-width="2"><path d="M45 66H27V28h9l9-3zM35 17.714C35 20.857 33.21 25 31 25s-4-4.143-4-7.286C27 11.887 31 9 31 6c0 3 4 5.429 4 11.714z"></path><path d="M35 17.714C35 20.857 33.21 25 31 25s-4-4.143-4-7.286C27 11.887 31 9 31 6c0 3 4 5.429 4 11.714zM27 35h18m-9-7v3"></path></g></svg>