<svg xmlns="http://www.w3.org/2000/svg" xmlns:xlink="http://www.w3.org/1999/xlink" aria-hidden="true" role="img" class="iconify iconify--openmoji" width="1em" height="1em" preserveAspectRatio="xMidYMid meet" viewBox="0 0 72 72"><path fill="#D0CFCE" d="m29.4 36.162l-2.844-2.84l-8.136-8.136l6.275-6.275l8.14 8.141l2.699 2.694l.146.146l2.844-2.84l8.141-8.141l6.275 6.275l-8.136 8.136l-2.845 2.841l.1.1l2.044 2.041l8.837 8.837l-6.275 6.275l-8.839-8.839l-2.148-2.145l-.059.063l-2.086 2.082l-8.838 8.839l-6.275-6.275l8.836-8.837l2.113-2.11z"></path><path fill="none" stroke="#000" stroke-linecap="round" stroke-linejoin="round" stroke-miterlimit="10" stroke-width="2" d="m29.4 36.162l-2.844-2.84l-8.136-8.136l6.275-6.275l8.14 8.141l2.699 2.694l.146.146l2.844-2.84l8.141-8.141l6.275 6.275l-8.136 8.136l-2.845 2.841l.1.1l2.044 2.041l8.837 8.837l-6.275 6.275l-8.839-8.839l-2.148-2.145l-.059.063l-2.086 2.082l-8.838 8.839l-6.275-6.275l8.836-8.837l2.113-2.11z"></path></svg>