<svg xmlns="http://www.w3.org/2000/svg" xmlns:xlink="http://www.w3.org/1999/xlink" aria-hidden="true" role="img" class="iconify iconify--openmoji" width="1em" height="1em" preserveAspectRatio="xMidYMid meet" viewBox="0 0 72 72"><circle cx="36" cy="36" r="28" fill="#3f3f3f" stroke="#3f3f3f" stroke-linecap="round" stroke-linejoin="round" stroke-width="2"></circle><path stroke="#000" stroke-miterlimit="10" stroke-width=".204" d="M29 62c20.003 0 16.663-52 16.663-52s24.959 7 16.64 35S13.4 62 29 62Z" opacity=".4"></path><circle cx="26.5" cy="27.5" r="5" fill="#fff"></circle><circle cx="45.5" cy="27.5" r="5" fill="#fff"></circle><g stroke="#000" stroke-linecap="round" stroke-linejoin="round"><path stroke-width=".25" d="M34 37h4v2h-4z"></path><path fill="none" stroke-width="2" d="M36 64a28 28 0 0 1 0-56m0 0a28 28 0 0 1 0 56"></path><path fill="none" stroke-width="2" d="M36 39.5c1.105 0 2.5-.895 2.5-2H34a2 2 0 0 0 2 2Zm-9.08 6.42s3.705 3.389 9.652 3.771c6.942.314 10.42-3.695 10.42-3.695"></path><circle cx="26.5" cy="27.5" r="5" fill="none" stroke-width="2"></circle><circle cx="45.5" cy="27.5" r="5" fill="none" stroke-width="2"></circle><circle cx="45.5" cy="27.5" r="5" fill="none"></circle><circle cx="47.75" cy="27.75" r="1.75" stroke-width="2"></circle><circle cx="26.5" cy="27.5" r="5" fill="none"></circle><circle cx="28.75" cy="27.75" r="1.75" stroke-width="2"></circle></g></svg>