<svg xmlns="http://www.w3.org/2000/svg" xmlns:xlink="http://www.w3.org/1999/xlink" aria-hidden="true" role="img" class="iconify iconify--openmoji" width="1em" height="1em" preserveAspectRatio="xMidYMid meet" viewBox="0 0 72 72"><path fill="#9B9B9A" d="M58.904 56h2.442C63.034 56 64 54.993 64 53.337V10.958H13.04v13.278"></path><path fill="#9B9B9A" d="M59 56h2.396C63.053 56 64 54.993 64 53.337V10.958H14v16.154"></path><path fill="#9B9B9A" d="M59 56h2.396C63.053 56 64 54.993 64 53.337V10.958H14"></path><path fill="#D0CFCE" d="M9 16h50v40H9z"></path><g fill="none" stroke="#000" stroke-linecap="round" stroke-linejoin="round" stroke-miterlimit="10" stroke-width="2"><path d="M59 56h2.396C63.053 56 64 54.993 64 53.337V10.958H14"></path><path d="M9 16h50v40H9z"></path><path d="M14 27.112h20.004v20.004H14zm0-5.113h40m-14.432 6.113H54m-14.432 6.367H54m-14.432 6.367H54m-14.432 6.367H54"></path></g></svg>