<svg xmlns="http://www.w3.org/2000/svg" xmlns:xlink="http://www.w3.org/1999/xlink" aria-hidden="true" role="img" class="iconify iconify--openmoji" width="1em" height="1em" preserveAspectRatio="xMidYMid meet" viewBox="0 0 72 72"><path fill="#FFF" d="M11 57.697h49V11.909H15.998l-4 4z"></path><path fill="#9b9b9a" d="M55.002 60.91H11.998a.999.999 0 0 1-.998-1V16.909c0-.552.447-.999.999-.999H55c.552 0 .999.447.999.999V59.91a.999.999 0 0 1-.998.998z"></path><g fill="none" stroke="#000" stroke-linecap="round" stroke-linejoin="round" stroke-miterlimit="10" stroke-width="2"><path d="m11 16.91l4.998-5h43.004c.55 0 .998.446.998.998V55.91a.999.999 0 0 1-.999.998"></path><path d="M55.002 60.91H11.998a.999.999 0 0 1-.998-1V16.909c0-.552.447-.999.999-.999H55c.552 0 .999.447.999.999V59.91a.999.999 0 0 1-.998.998z"></path><path d="M47.358 29.799h-4v6.999h4m-4-3.5h3m-26.716 3.5v-6.999l5 6.999v-6.999m6.216 6.999h0a2.5 2.5 0 0 1-2.5-2.5v-2a2.5 2.5 0 0 1 2.5-2.5h0a2.5 2.5 0 0 1 2.5 2.5v2a2.5 2.5 0 0 1-2.5 2.5zm5.5-6.969h4m-2 0v7"></path></g></svg>