<svg xmlns="http://www.w3.org/2000/svg" xmlns:xlink="http://www.w3.org/1999/xlink" aria-hidden="true" role="img" class="iconify iconify--openmoji" width="1em" height="1em" preserveAspectRatio="xMidYMid meet" viewBox="0 0 72 72"><defs><path id="IconifyId17f5a01c7b33705c2272" stroke-miterlimit="10" d="M59.035 60h-46.07a.968.968 0 0 1-.965-.965v-46.07a.968.968 0 0 1 .965-.965h46.07a.968.968 0 0 1 .965.965v46.07a.968.968 0 0 1-.965.965Z"></path><path id="IconifyId17f5a01c7b33705c2273" stroke-linecap="round" stroke-linejoin="round" d="M35.75 46.512a7.857 7.857 0 0 1-7.857-7.857v-6.286a7.857 7.857 0 0 1 7.857-7.857a7.857 7.857 0 0 1 7.857 7.857v6.286a7.857 7.857 0 0 1-7.857 7.857Z"></path></defs><g fill="none" stroke="#000" stroke-width="2"><use xlink:href="#IconifyId17f5a01c7b33705c2272" stroke-miterlimit="10"></use><use xlink:href="#IconifyId17f5a01c7b33705c2273" stroke-linecap="round" stroke-linejoin="round"></use></g><path fill="#d22f27" d="M59.035 60h-46.07a.968.968 0 0 1-.965-.965v-46.07a.968.968 0 0 1 .965-.965h46.07a.968.968 0 0 1 .965.965v46.07a.968.968 0 0 1-.965.965Z"></path><g fill="none" stroke="#fff" stroke-width="2"><use xlink:href="#IconifyId17f5a01c7b33705c2272" stroke-miterlimit="10"></use><use xlink:href="#IconifyId17f5a01c7b33705c2273" stroke-linecap="round" stroke-linejoin="round"></use></g></svg>