<svg xmlns="http://www.w3.org/2000/svg" xmlns:xlink="http://www.w3.org/1999/xlink" aria-hidden="true" role="img" class="iconify iconify--openmoji" width="1em" height="1em" preserveAspectRatio="xMidYMid meet" viewBox="0 0 72 72"><path fill="#fff" d="M11.41 56.6c8.303 12.49 32.7 6.093 39.05 3.446l.7-44.25c-.953-3.003-22.19-15.83-39.75-.375z"></path><path fill="#d0cfce" d="M47.37 61.41c4.514-3.053 13.23-9.667 13.23-9.667v-38.44c-2.321 2.072-9.972 5.775-13.23 6.769"></path><ellipse cx="30.85" cy="15.3" fill="#fff" rx="4.666" ry="2.13"></ellipse><g fill="none" stroke="#000" stroke-width="2"><ellipse cx="31.23" cy="15.32" stroke-miterlimit="10" rx="20.18" ry="7.368"></ellipse><path stroke-linecap="round" stroke-linejoin="round" stroke-miterlimit="10" d="M11.05 14.93v41.76c0 4.074 9.037 7.363 20.18 7.363c6.02 0 10.53-.695 14.26-1.873c8.515-2.892 15.46-10.42 15.46-10.42V12.78c-3.73 3.326-13.38 6.865-13.38 6.865"></path><path stroke-linecap="round" stroke-linejoin="round" d="M31.23 22.69v3.32"></path><path stroke-dasharray="5.213 5.213" stroke-linecap="round" stroke-linejoin="round" d="M31.23 32.96v24.29"></path><path stroke-linecap="round" stroke-linejoin="round" d="M31.23 60.72v3.33"></path><ellipse cx="30.79" cy="15.31" stroke-linecap="round" stroke-linejoin="round" rx="4.739" ry="2.16"></ellipse></g></svg>