<svg xmlns="http://www.w3.org/2000/svg" xmlns:xlink="http://www.w3.org/1999/xlink" aria-hidden="true" role="img" class="iconify iconify--openmoji" width="1em" height="1em" preserveAspectRatio="xMidYMid meet" viewBox="0 0 72 72"><g stroke-linecap="round" stroke-linejoin="round" stroke-width="2"><path fill="#D0CFCE" d="M8.5 18h55v35h-55z"></path><path fill="#A57939" d="M27.5 40h17v13h-17z"></path><circle cx="36" cy="28.5" r="6.5" fill="#FFF"></circle><path fill="none" stroke="#92D3F5" stroke-miterlimit="10" d="M20 43h2v5h-2zm-7 0h2v5h-2zm7-10h2v5h-2zm-7 0h2v5h-2zm7-10h2v5h-2zm-7 0h2v5h-2zm44 20h2v5h-2zm-7 0h2v5h-2zm7-10h2v5h-2zm-7 0h2v5h-2zm7-10h2v5h-2zm-7 0h2v5h-2z"></path></g><g fill="none" stroke="#000" stroke-linecap="round" stroke-linejoin="round" stroke-width="2"><path stroke-miterlimit="10" d="M8.5 18h55v35h-55z"></path><path stroke-miterlimit="10" d="M27.5 40h17v13h-17zM36 53V40"></path><circle cx="36" cy="28.5" r="6.5"></circle><path d="M36 29v-4m0 4l2-1"></path><path stroke-miterlimit="10" d="M22 48h-2v-5m-5 5h-2v-5m9-5h-2v-5m-5 5h-2v-5m9-5h-2v-5m-5 5h-2v-5m46 25h-2v-5m-5 5h-2v-5m9-5h-2v-5m-5 5h-2v-5m9-5h-2v-5m-5 5h-2v-5"></path></g></svg>