<svg xmlns="http://www.w3.org/2000/svg" xmlns:xlink="http://www.w3.org/1999/xlink" aria-hidden="true" role="img" class="iconify iconify--openmoji" width="1em" height="1em" preserveAspectRatio="xMidYMid meet" viewBox="0 0 72 72"><path fill="#9b9b9a" d="M20 40h35v11H20z"></path><path fill="#fcea2b" d="M46 18l13 4l-3 20l-5 5l-3-5l-2-24z"></path><path fill="#fcea2b" d="M15 17l4 14l-1 16l30-5l-2-24z"></path><g fill="none" stroke="#000" stroke-linecap="round" stroke-linejoin="round" stroke-width="2"><path d="M15 17l4 14l-1 16l30-5l-2-24z"></path><path d="M19 31l27-13"></path><path d="M48 42L19 31"></path><path d="M46 18l10 24"></path><path d="M54 51H20v-4"></path><path d="M46 18l13 4l-3 20l-5 5l-3-5l-2-24z"></path><path d="M46 18l10 24"></path></g></svg>