<svg xmlns="http://www.w3.org/2000/svg" xmlns:xlink="http://www.w3.org/1999/xlink" aria-hidden="true" role="img" class="iconify iconify--openmoji" width="1em" height="1em" preserveAspectRatio="xMidYMid meet" viewBox="0 0 72 72"><ellipse cx="35.81" cy="10.162" fill="#f4aa41" rx="3.481" ry="5.162"></ellipse><ellipse cx="31.287" cy="19.207" fill="#f1b31c" rx="3.481" ry="5.162" transform="rotate(-45 31.287 19.207)"></ellipse><ellipse cx="31.287" cy="27.347" fill="#f1b31c" rx="3.481" ry="5.162" transform="rotate(-45 31.287 27.347)"></ellipse><ellipse cx="31.287" cy="35.488" fill="#f1b31c" rx="3.481" ry="5.162" transform="rotate(-45 31.287 35.488)"></ellipse><ellipse cx="31.287" cy="43.629" fill="#f1b31c" rx="3.481" ry="5.162" transform="rotate(-45 31.287 43.629)"></ellipse><ellipse cx="31.287" cy="51.769" fill="#f1b31c" rx="3.481" ry="5.162" transform="rotate(-45 31.287 51.77)"></ellipse><ellipse cx="40.713" cy="19.207" fill="#f1b31c" rx="5.162" ry="3.481" transform="rotate(-45 40.713 19.207)"></ellipse><ellipse cx="40.713" cy="27.347" fill="#f1b31c" rx="5.162" ry="3.481" transform="rotate(-45 40.713 27.347)"></ellipse><ellipse cx="40.713" cy="35.488" fill="#f1b31c" rx="5.162" ry="3.481" transform="rotate(-45 40.713 35.488)"></ellipse><ellipse cx="40.713" cy="43.629" fill="#f1b31c" rx="5.162" ry="3.481" transform="rotate(-45 40.713 43.629)"></ellipse><ellipse cx="40.713" cy="51.769" fill="#f1b31c" rx="5.162" ry="3.481" transform="rotate(-45 40.713 51.77)"></ellipse><path fill="none" stroke="#000" stroke-miterlimit="10" stroke-width="2" d="M35.79 56v9"></path><ellipse cx="35.81" cy="10.162" fill="#f4aa41" rx="3.481" ry="5.162"></ellipse><ellipse cx="31.287" cy="19.207" fill="#f1b31c" rx="3.481" ry="5.162" transform="rotate(-45 31.287 19.207)"></ellipse><ellipse cx="31.287" cy="27.347" fill="#f1b31c" rx="3.481" ry="5.162" transform="rotate(-45 31.287 27.347)"></ellipse><ellipse cx="31.287" cy="35.488" fill="#f1b31c" rx="3.481" ry="5.162" transform="rotate(-45 31.287 35.488)"></ellipse><ellipse cx="31.287" cy="43.629" fill="#f1b31c" rx="3.481" ry="5.162" transform="rotate(-45 31.287 43.629)"></ellipse><ellipse cx="31.287" cy="51.769" fill="#f1b31c" rx="3.481" ry="5.162" transform="rotate(-45 31.287 51.77)"></ellipse><ellipse cx="40.713" cy="19.207" fill="#f1b31c" rx="5.162" ry="3.481" transform="rotate(-45 40.713 19.207)"></ellipse><ellipse cx="40.713" cy="27.347" fill="#f1b31c" rx="5.162" ry="3.481" transform="rotate(-45 40.713 27.347)"></ellipse><ellipse cx="40.713" cy="35.488" fill="#f1b31c" rx="5.162" ry="3.481" transform="rotate(-45 40.713 35.488)"></ellipse><ellipse cx="40.713" cy="43.629" fill="#f1b31c" rx="5.162" ry="3.481" transform="rotate(-45 40.713 43.629)"></ellipse><ellipse cx="40.713" cy="51.769" fill="#f1b31c" rx="5.162" ry="3.481" transform="rotate(-45 40.713 51.77)"></ellipse><ellipse cx="35.81" cy="10.162" fill="#f1b31c" rx="3.481" ry="5.162"></ellipse><ellipse cx="31.287" cy="19.207" fill="#f1b31c" rx="3.481" ry="5.162" transform="rotate(-45 31.287 19.207)"></ellipse><ellipse cx="31.287" cy="27.347" fill="#f1b31c" rx="3.481" ry="5.162" transform="rotate(-45 31.287 27.347)"></ellipse><ellipse cx="31.287" cy="35.488" fill="#f1b31c" rx="3.481" ry="5.162" transform="rotate(-45 31.287 35.488)"></ellipse><ellipse cx="31.287" cy="43.629" fill="#f1b31c" rx="3.481" ry="5.162" transform="rotate(-45 31.287 43.629)"></ellipse><ellipse cx="31.287" cy="51.769" fill="#f1b31c" rx="3.481" ry="5.162" transform="rotate(-45 31.287 51.77)"></ellipse><ellipse cx="40.713" cy="19.207" fill="#f1b31c" rx="5.162" ry="3.481" transform="rotate(-45 40.713 19.207)"></ellipse><ellipse cx="40.713" cy="27.347" fill="#f1b31c" rx="5.162" ry="3.481" transform="rotate(-45 40.713 27.347)"></ellipse><ellipse cx="40.713" cy="35.488" fill="#f1b31c" rx="5.162" ry="3.481" transform="rotate(-45 40.713 35.488)"></ellipse><ellipse cx="40.713" cy="43.629" fill="#f1b31c" rx="5.162" ry="3.481" transform="rotate(-45 40.713 43.629)"></ellipse><ellipse cx="40.713" cy="51.769" fill="#f4aa41" rx="5.162" ry="3.481" transform="rotate(-45 40.713 51.77)"></ellipse><g fill="none" stroke="#000" stroke-miterlimit="10" stroke-width="2"><ellipse cx="35.81" cy="10.162" rx="3.481" ry="5.162"></ellipse><ellipse cx="31.287" cy="19.207" rx="3.481" ry="5.162" transform="rotate(-45 31.287 19.207)"></ellipse><ellipse cx="31.287" cy="27.347" rx="3.481" ry="5.162" transform="rotate(-45 31.287 27.347)"></ellipse><ellipse cx="31.287" cy="35.488" rx="3.481" ry="5.162" transform="rotate(-45 31.287 35.488)"></ellipse><ellipse cx="31.287" cy="43.629" rx="3.481" ry="5.162" transform="rotate(-45 31.287 43.629)"></ellipse><ellipse cx="31.287" cy="51.769" rx="3.481" ry="5.162" transform="rotate(-45 31.287 51.77)"></ellipse><ellipse cx="40.713" cy="19.207" rx="5.162" ry="3.481" transform="rotate(-45 40.713 19.207)"></ellipse><ellipse cx="40.713" cy="27.347" rx="5.162" ry="3.481" transform="rotate(-45 40.713 27.347)"></ellipse><ellipse cx="40.713" cy="35.488" rx="5.162" ry="3.481" transform="rotate(-45 40.713 35.488)"></ellipse><ellipse cx="40.713" cy="43.629" rx="5.162" ry="3.481" transform="rotate(-45 40.713 43.629)"></ellipse><ellipse cx="40.713" cy="51.769" rx="5.162" ry="3.481" transform="rotate(-45 40.713 51.77)"></ellipse></g></svg>