<svg xmlns="http://www.w3.org/2000/svg" xmlns:xlink="http://www.w3.org/1999/xlink" aria-hidden="true" role="img" class="iconify iconify--openmoji" width="1em" height="1em" preserveAspectRatio="xMidYMid meet" viewBox="0 0 72 72"><path fill="#9B9B9A" d="M29 4h14v18H29zm0 46h14v18H29z"></path><circle cx="36" cy="36" r="15" fill="#3F3F3F"></circle><path fill="#92D3F5" d="M28 28h6v6h-6z"></path><path fill="#EA5A47" d="M38 28h6v6h-6z"></path><path fill="#92D3F5" d="M38 38h6v6h-6z"></path><path fill="#B399C8" d="M28 38h6v6h-6z"></path><circle cx="36" cy="36" r="15" fill="none" stroke="#000" stroke-linecap="round" stroke-linejoin="round" stroke-miterlimit="10" stroke-width="2"></circle><path fill="none" stroke="#000" stroke-linecap="round" stroke-linejoin="round" stroke-miterlimit="10" stroke-width="2" d="M29 22V5m14 17V5M29 67V50m14 17V50M33 34h-4a1 1 0 0 1-1-1v-4a1 1 0 0 1 1-1h4a1 1 0 0 1 1 1v4a1 1 0 0 1-1 1zm10 0h-4a1 1 0 0 1-1-1v-4a1 1 0 0 1 1-1h4a1 1 0 0 1 1 1v4a1 1 0 0 1-1 1zm0 10h-4a1 1 0 0 1-1-1v-4a1 1 0 0 1 1-1h4a1 1 0 0 1 1 1v4a1 1 0 0 1-1 1zm-10 0h-4a1 1 0 0 1-1-1v-4a1 1 0 0 1 1-1h4a1 1 0 0 1 1 1v4a1 1 0 0 1-1 1z"></path><circle cx="36" cy="66" r="2"></circle></svg>