<svg xmlns="http://www.w3.org/2000/svg" xmlns:xlink="http://www.w3.org/1999/xlink" aria-hidden="true" role="img" class="iconify iconify--openmoji" width="1em" height="1em" preserveAspectRatio="xMidYMid meet" viewBox="0 0 72 72"><path d="m12.5 12l48 1l-48 48V12Z"></path><path fill="#fff" d="M60 12v48H12l48-48Z"></path><path fill="#3F3F3F" d="m12.5 12l48 1l-48 48V12Z"></path><g fill="none" stroke="#000" stroke-width="2"><path stroke-linejoin="round" d="M59.035 60h-46.07a.968.968 0 0 1-.965-.965v-46.07a.968.968 0 0 1 .965-.965h46.07a.968.968 0 0 1 .965.965v46.07a.968.968 0 0 1-.965.965Z"></path><path stroke-linecap="round" d="M59 13L15 57"></path></g></svg>