<svg xmlns="http://www.w3.org/2000/svg" xmlns:xlink="http://www.w3.org/1999/xlink" aria-hidden="true" role="img" class="iconify iconify--openmoji" width="1em" height="1em" preserveAspectRatio="xMidYMid meet" viewBox="0 0 72 72"><defs><path id="IconifyId17f5a01c7b33705c2348" stroke-width="1.841" d="M34.277 10.813L34.434 33m-6.157-22.187L28.434 33m-7.157-22.187L21.434 33"></path></defs><path fill="#d22f27" d="M62.92 35.003A1.879 1.879 0 0 0 61.046 33H11.053a1.973 1.973 0 0 0-1.97 2.131c.857 9.729 7.53 17.985 16.794 21.724v5.487A1.72 1.72 0 0 0 27.645 64h16.71a1.72 1.72 0 0 0 1.767-1.658v-4.843c9.712-3.378 16.072-12.109 16.798-22.496Z"></path><g fill="none" stroke="#000" stroke-linecap="round" stroke-linejoin="round"><path stroke-width="2" d="M61.434 21h-44m44-8h-44"></path><use xlink:href="#IconifyId17f5a01c7b33705c2348" stroke-width="1.841"></use><path stroke-width="2" d="M62.92 35.003A1.879 1.879 0 0 0 61.046 33H11.053a1.973 1.973 0 0 0-1.97 2.131c.857 9.729 7.53 17.985 16.794 21.724v5.487A1.72 1.72 0 0 0 27.645 64h16.71a1.72 1.72 0 0 0 1.767-1.658v-4.843c9.712-3.378 16.072-12.109 16.798-22.496Z"></path></g><use xlink:href="#IconifyId17f5a01c7b33705c2348" fill="none" stroke="#f1b31c" stroke-linecap="round" stroke-linejoin="round" stroke-width="1.841"></use></svg>