<svg xmlns="http://www.w3.org/2000/svg" xmlns:xlink="http://www.w3.org/1999/xlink" aria-hidden="true" role="img" class="iconify iconify--openmoji" width="1em" height="1em" preserveAspectRatio="xMidYMid meet" viewBox="0 0 72 72"><defs><path id="IconifyId17f5a01c7b33705c2356" fill="none" stroke="#000" stroke-linecap="round" stroke-linejoin="round" stroke-miterlimit="10" stroke-width="2" d="M12.605 57.682v-23c0-12.702 10.297-23 23-23s23 10.298 23 23v23h-46z"></path></defs><g stroke-linecap="round" stroke-linejoin="round" stroke-miterlimit="10"><path fill="#9b9b9a" d="M12.605 57.682v-23c0-12.702 10.297-23 23-23s23 10.298 23 23v23h-46z"></path><circle cx="35.605" cy="34.682" r="15" fill="#d0cfce"></circle><circle cx="35.605" cy="34.682" r="15" fill="#FFF"></circle><path fill="#FFF" d="M35.417 35.087h-6.812"></path></g><use xlink:href="#IconifyId17f5a01c7b33705c2356" stroke-linecap="round" stroke-linejoin="round" stroke-miterlimit="10" stroke-width="2"></use><circle cx="35.605" cy="34.682" r="15" fill="none" stroke="#000" stroke-linecap="round" stroke-linejoin="round" stroke-miterlimit="10" stroke-width="2"></circle><circle cx="35.605" cy="34.682" r="15" fill="none" stroke="#000" stroke-linecap="round" stroke-linejoin="round" stroke-miterlimit="10" stroke-width="2"></circle><use xlink:href="#IconifyId17f5a01c7b33705c2356" stroke-linecap="round" stroke-linejoin="round" stroke-miterlimit="10" stroke-width="2"></use><circle cx="35.605" cy="34.682" r="15" fill="none" stroke="#000" stroke-linecap="round" stroke-linejoin="round" stroke-miterlimit="10" stroke-width="2"></circle><path fill="none" stroke="#000" stroke-linecap="round" stroke-linejoin="round" stroke-miterlimit="10" stroke-width="1.758" d="M35.417 35.087h-6.812"></path><circle cx="24.407" cy="34.988" r="1"></circle><circle cx="46.678" cy="34.988" r="1"></circle><circle cx="27.668" cy="42.862" r="1" transform="rotate(-45.001 27.668 42.862)"></circle><circle cx="43.416" cy="27.114" r="1" transform="rotate(-45.001 43.416 27.114)"></circle><circle cx="35.542" cy="46.123" r="1"></circle><circle cx="35.542" cy="23.852" r="1"></circle><circle cx="43.416" cy="42.862" r="1" transform="rotate(-45.001 43.416 42.863)"></circle><circle cx="27.668" cy="27.114" r="1" transform="rotate(-45.001 27.668 27.114)"></circle></svg>