<svg xmlns="http://www.w3.org/2000/svg" xmlns:xlink="http://www.w3.org/1999/xlink" aria-hidden="true" role="img" class="iconify iconify--openmoji" width="1em" height="1em" preserveAspectRatio="xMidYMid meet" viewBox="0 0 72 72"><defs><path id="IconifyId17f5a01c7b33705c2361" d="M43 36.164a8.51 8.51 0 0 0-16-4.044a8.51 8.51 0 0 0-16 4.044a8.47 8.47 0 0 0 1.886 5.337l-.003.003L27 59l14.117-17.496l-.003-.002A8.47 8.47 0 0 0 43 36.163zm18-18.643a4.521 4.521 0 0 0-8.5-2.148a4.521 4.521 0 1 0-7.498 4.984H45l7.5 9.296l7.5-9.295l-.002-.001A4.5 4.5 0 0 0 61 17.52z"></path></defs><use xlink:href="#IconifyId17f5a01c7b33705c2361" fill="#FFA7C0"></use><use xlink:href="#IconifyId17f5a01c7b33705c2361" fill="none" stroke="#000" stroke-linejoin="round" stroke-miterlimit="10" stroke-width="2"></use></svg>