<svg xmlns="http://www.w3.org/2000/svg" xmlns:xlink="http://www.w3.org/1999/xlink" aria-hidden="true" role="img" class="iconify iconify--openmoji" width="1em" height="1em" preserveAspectRatio="xMidYMid meet" viewBox="0 0 72 72"><path fill="#D0CFCE" d="M53.908 63.031H18.01a1 1 0 0 1-1-1V13.068a1 1 0 0 1 1-1h35.9a1 1 0 0 1 1 1V62.03a1 1 0 0 1-1 1z"></path><circle cx="36.024" cy="45.016" r="12" fill="#FFF"></circle><path fill="#92D3F5" d="M24.024 45.016c0 6.627 5.373 12 12 12s12-5.373 12-12"></path><path fill="#9B9B9A" d="M17 17.009h16v9.95H17z"></path><circle cx="36.024" cy="45.016" r="7" fill="#D0CFCE"></circle><path fill="#61B2E4" d="M29.024 45.016a7 7 0 1 0 14 0"></path><circle cx="36.024" cy="45.016" r="12" fill="none" stroke="#000" stroke-miterlimit="10" stroke-width="2"></circle><circle cx="36.024" cy="45.016" r="7" fill="none" stroke="#000" stroke-miterlimit="10" stroke-width="2"></circle><path fill="none" stroke="#000" stroke-linecap="round" stroke-linejoin="round" stroke-miterlimit="10" stroke-width="2" d="M53.908 63.031H18.01a1 1 0 0 1-1-1V13.068a1 1 0 0 1 1-1h35.9a1 1 0 0 1 1 1V62.03a1 1 0 0 1-1 1z"></path><path fill="none" stroke="#000" stroke-linecap="round" stroke-linejoin="round" stroke-miterlimit="10" stroke-width="2" d="M17 17.009h16v9.95H17zM37 19h7m-7 4h7m-21-2h4"></path><circle cx="49" cy="21" r="2"></circle></svg>