<svg xmlns="http://www.w3.org/2000/svg" xmlns:xlink="http://www.w3.org/1999/xlink" aria-hidden="true" role="img" class="iconify iconify--openmoji" width="1em" height="1em" preserveAspectRatio="xMidYMid meet" viewBox="0 0 72 72"><defs><path id="IconifyId17f5a01c7b33705c2375" d="M58.37 30.524c-5.651-5.651-13.458-9.146-22.081-9.146c-8.637 0-16.455 3.506-22.108 9.172l-3.813-3.763c6.624-6.65 15.792-10.767 25.92-10.767c10.103 0 19.25 4.095 25.87 10.716l-3.788 3.788z"></path><path id="IconifyId17f5a01c7b33705c2376" d="M21.916 38.286a20.453 20.453 0 0 1 14.638-6.142a20.449 20.449 0 0 1 14.373 5.876l3.784-3.792a25.788 25.788 0 0 0-18.157-7.44a25.793 25.793 0 0 0-18.425 7.71l3.787 3.788z"></path><path id="IconifyId17f5a01c7b33705c2377" d="M43.352 45.596a9.77 9.77 0 0 0-6.798-2.74a9.774 9.774 0 0 0-7.062 3.005l-3.814-3.814a15.114 15.114 0 0 1 10.876-4.6a15.11 15.11 0 0 1 10.61 4.332l-3.812 3.817z"></path></defs><g fill="#9B9B9A"><use xlink:href="#IconifyId17f5a01c7b33705c2375"></use><use xlink:href="#IconifyId17f5a01c7b33705c2376"></use><use xlink:href="#IconifyId17f5a01c7b33705c2377"></use><circle cx="36.289" cy="52.605" r="2.672"></circle></g><g fill="none" stroke="#000" stroke-linecap="round" stroke-linejoin="round" stroke-miterlimit="10" stroke-width="2"><use xlink:href="#IconifyId17f5a01c7b33705c2375"></use><use xlink:href="#IconifyId17f5a01c7b33705c2376"></use><use xlink:href="#IconifyId17f5a01c7b33705c2377"></use><circle cx="36.289" cy="52.605" r="2.672"></circle></g></svg>