<svg xmlns="http://www.w3.org/2000/svg" xmlns:xlink="http://www.w3.org/1999/xlink" aria-hidden="true" role="img" class="iconify iconify--openmoji" width="1em" height="1em" preserveAspectRatio="xMidYMid meet" viewBox="0 0 72 72"><path fill="#EA5A47" d="M55 26H17V14h38z"></path><path fill="#EA5A47" d="M56 24c0 11.046-8.954 20-20 20s-20-8.954-20-20"></path><path fill="#d22f27" d="M55 24V14h-7.57c.597 6.335.293 21.204-13.788 29.849c.775.091 1.559.151 2.358.151c11.046 0 20-8.954 20-20h-1z"></path><g fill="none" stroke="#000" stroke-miterlimit="10" stroke-width="2"><path stroke-linecap="round" stroke-linejoin="round" d="M20 67h32M36 44v23m20-43c0 3.265-.782 6.347-2.17 9.07C50.524 39.557 43.78 44 36 44c-11.046 0-20-8.954-20-20m0-19v19M56 5v19"></path><path d="M15.5 14.5h40"></path></g></svg>