<svg xmlns="http://www.w3.org/2000/svg" xmlns:xlink="http://www.w3.org/1999/xlink" aria-hidden="true" role="img" class="iconify iconify--arcticons" width="1em" height="1em" preserveAspectRatio="xMidYMid meet" viewBox="0 0 48 48"><path fill="none" stroke="currentColor" stroke-linecap="round" d="M11.412 27.729v5.864a1.17 1.17 0 0 0 1.236 1.241h.371m-2.844-5.701h2.597m7.876 3.219a2.473 2.473 0 1 1-4.946 0v-1.613a2.473 2.473 0 1 1 4.946 0m0 4.095v-6.576m8.588 6.576v-4.095a2.473 2.473 0 1 0-4.946 0v4.095m0-4.095v-2.481M7.773 23.216h4.946m-4.946-8.561l2.473-1.365m0 0v9.926m9.705-4.963a2.482 2.482 0 0 0 0-4.963h-1.607a2.482 2.482 0 0 0 0 4.963h0a2.482 2.482 0 0 0 0 4.963h1.607a2.482 2.482 0 0 0 0-4.963m4.821-1.737a3.306 3.306 0 0 1 3.215-3.35a3.337 3.337 0 0 1 2.349 5.708c-1.36 1.116-5.564 4.342-5.564 4.342h6.553m2.349-6.7a3.306 3.306 0 0 1 3.215-3.35a3.337 3.337 0 0 1 2.349 5.708c-1.36 1.116-5.564 4.342-5.564 4.342h6.553"></path><circle cx="24" cy="24" r="21.5" fill="none" stroke="currentColor" stroke-linecap="round"></circle><path fill="none" stroke="currentColor" stroke-linecap="round" d="M35.352 29.243v4.946m2.473-2.474h-4.946"></path></svg>