<svg xmlns="http://www.w3.org/2000/svg" xmlns:xlink="http://www.w3.org/1999/xlink" aria-hidden="true" role="img" class="iconify iconify--arcticons" width="1em" height="1em" preserveAspectRatio="xMidYMid meet" viewBox="0 0 48 48"><path fill="none" stroke="currentColor" stroke-linecap="round" stroke-linejoin="round" d="M23.378 25.19a5.887 5.887 0 0 1 .818-.657c1.617 1.14 2.087 2.444 2.449 4.361a17.913 17.913 0 0 1 .158 3.941a1.492 1.492 0 0 1 .461-.061a1.917 1.917 0 0 1 .321.034c.395.073 6.432-.08 6.432-.08l.91-5.919l.91 5.919s4.516 2.572 4.554 3.11c.093 1.324-12.2 5.595-12.2 5.595s-.783-4.173-1.07-4.908a1.269 1.269 0 0 0-.602-.622c-.053.43-.112.86-.174 1.3l-4.725-.08a24.28 24.28 0 0 1-.13-1.304a1.256 1.256 0 0 0-.626.605c-.302.722-1.228 4.887-1.228 4.887S7.473 37.015 7.61 35.695c.06-.579 4.553-2.967 4.553-2.967l.91-5.919l.911 5.92s6.228.033 6.546-.013a2.385 2.385 0 0 1 .328-.023a1.41 1.41 0 0 1 .456.074a17.746 17.746 0 0 1 .29-3.934a6.375 6.375 0 0 1 1.777-3.641Zm-.14 3.17a1.284 1.284 0 0 0 .857 2.22h0a1.288 1.288 0 0 0 1.306-1.264h0a1.288 1.288 0 0 0-1.263-1.306h0a1.276 1.276 0 0 0-.9.35Zm-.236 10.034a1.366 1.366 0 0 1 2.312 1.005c-.018.508-.464.912-.782 1.367a8.06 8.06 0 0 0-.652 2.734a8.073 8.073 0 0 0-.56-2.772c-.274-.441-.704-.727-.736-1.392a1.37 1.37 0 0 1 .413-.965ZM11.707 5.377l1.594-.877v6.374h1.594"></path><circle cx="19.777" cy="6.651" r="2.149" fill="none" stroke="currentColor" stroke-linecap="round" stroke-linejoin="round"></circle><path fill="none" stroke="currentColor" stroke-linecap="round" stroke-linejoin="round" d="M17.865 10.078a1.957 1.957 0 0 0 1.753.797h.16a2.143 2.143 0 0 0 2.15-2.152V6.572m10.142 3.745a2.5 2.5 0 0 0 1.913.558h.239a2.072 2.072 0 1 0 0-4.144h-2.151V4.5h4.223m-7.16 4.303H24.91L28.337 4.5v6.374m-15.264 6.83v-2.277m21.854 2.277v-2.277m-21.854 7.74v-2.276m21.854 2.276v-2.276"></path></svg>