<svg xmlns="http://www.w3.org/2000/svg" xmlns:xlink="http://www.w3.org/1999/xlink" aria-hidden="true" role="img" class="iconify iconify--arcticons" width="1em" height="1em" preserveAspectRatio="xMidYMid meet" viewBox="0 0 48 48" data-icon="arcticons:a2048"><rect width="18.5" height="18.5" x="24" y="5.5" fill="none" stroke="currentColor" stroke-linejoin="round" rx="4"></rect><rect width="18.5" height="18.5" x="5.5" y="24" fill="none" stroke="currentColor" stroke-linejoin="round" rx="4"></rect><rect width="18.5" height="18.5" x="24" y="24" fill="none" stroke="currentColor" stroke-linejoin="round" rx="4"></rect><rect width="18.5" height="18.5" x="5.5" y="5.5" fill="none" stroke="currentColor" stroke-linejoin="round" rx="4"></rect><path fill="none" stroke="currentColor" stroke-linejoin="round" d="M34.06 33.25a2.5 2.5 0 0 0 2.5-2.5a2.5 2.5 0 0 0-2.5-2.5h-1.62a2.5 2.5 0 0 0-2.5 2.5a2.5 2.5 0 0 0 2.5 2.5a2.49 2.49 0 0 0-2.5 2.5a2.5 2.5 0 0 0 2.5 2.5h1.62a2.5 2.5 0 0 0 2.5-2.5a2.5 2.5 0 0 0-2.5-2.5m-17.26 5v-10l-5.36 6.72h6.62m11.88-18.53a3.31 3.31 0 1 0 6.62 0v-3.38a3.31 3.31 0 0 0-6.62 0Zm-18.5-3.38a3.31 3.31 0 1 1 6.62 0a3.05 3.05 0 0 1-1 2.34c-1.34 1.18-5.65 4.35-5.65 4.35h6.62"></path></svg>