<svg xmlns="http://www.w3.org/2000/svg" xmlns:xlink="http://www.w3.org/1999/xlink" aria-hidden="true" role="img" class="iconify iconify--arcticons" width="1em" height="1em" preserveAspectRatio="xMidYMid meet" viewBox="0 0 48 48" data-icon="arcticons:a2050"><path fill="none" stroke="currentColor" stroke-linecap="round" stroke-linejoin="round" d="M41.29 10.84a6.34 6.34 0 1 0-12.67 0v.28a14.06 14.06 0 0 0-16.38 1.41a2.9 2.9 0 1 0-3.26 4a14.1 14.1 0 0 0 12.45 20.79a13.76 13.76 0 0 0 4.13-.62a4.89 4.89 0 1 0 5.18-2.91a14 14 0 0 0 3.38-16.68a5.69 5.69 0 0 0 .83.07a6.34 6.34 0 0 0 6.34-6.34Z"></path></svg>