<svg xmlns="http://www.w3.org/2000/svg" xmlns:xlink="http://www.w3.org/1999/xlink" aria-hidden="true" role="img" class="iconify iconify--arcticons" width="1em" height="1em" preserveAspectRatio="xMidYMid meet" viewBox="0 0 48 48" data-icon="arcticons:adobescan"><path fill="none" stroke="currentColor" stroke-linecap="round" stroke-linejoin="round" d="M40.5 5.5h-33a2 2 0 0 0-2 2v33a2 2 0 0 0 2 2h33a2 2 0 0 0 2-2v-33a2 2 0 0 0-2-2Zm-1.89 26.43l-3.6.7v4.31L24 34.79l-11 2.15v-4.31l-3.6-.7V16.07l3.6-.7v-4.31l11 2.15l11-2.15v4.31l3.6.7ZM24 13.21l11.01 2.16m-22.02 0v17.26M24 34.79l11.01-2.16"></path><circle cx="24" cy="24" r="7.71" fill="none" stroke="currentColor" stroke-linecap="round" stroke-linejoin="round"></circle><circle cx="24" cy="24" r="5.07" fill="none" stroke="currentColor" stroke-linecap="round" stroke-linejoin="round"></circle></svg>