<svg xmlns="http://www.w3.org/2000/svg" xmlns:xlink="http://www.w3.org/1999/xlink" aria-hidden="true" role="img" class="iconify iconify--arcticons" width="1em" height="1em" preserveAspectRatio="xMidYMid meet" viewBox="0 0 48 48" data-icon="arcticons:airguard"><circle cx="24" cy="24.2" r="21.5" fill="none" stroke="currentColor" stroke-linecap="round" stroke-linejoin="round"></circle><path fill="none" stroke="currentColor" stroke-linecap="round" stroke-linejoin="round" d="M38.429 34.052A17.484 17.484 0 0 0 14.123 9.747m-4.552 4.601a17.463 17.463 0 0 0 24.281 24.28"></path><path fill="none" stroke="currentColor" stroke-linecap="round" stroke-linejoin="round" d="M34.229 29.852A11.686 11.686 0 0 0 18.347 13.97m-4.576 4.578A11.685 11.685 0 0 0 29.652 34.43"></path><path fill="none" stroke="currentColor" stroke-linecap="round" stroke-linejoin="round" d="M29.944 25.567a6.096 6.096 0 0 0-7.313-7.313m-4.574 4.58a6.093 6.093 0 0 0 7.31 7.31m-15.003-19.58l27 27"></path></svg>