<svg xmlns="http://www.w3.org/2000/svg" xmlns:xlink="http://www.w3.org/1999/xlink" aria-hidden="true" role="img" class="iconify iconify--arcticons" width="1em" height="1em" preserveAspectRatio="xMidYMid meet" viewBox="0 0 48 48" data-icon="arcticons:aldi-nord"><path fill="none" stroke="currentColor" stroke-linecap="round" stroke-linejoin="round" d="M25.22 9.252S9.536 32.823 8.699 34.288a5.044 5.044 0 0 0 0 4.46M28.9 9.252S13.214 32.823 12.377 34.288a5.044 5.044 0 0 0 0 4.46m9.164-29.496S5.857 32.823 5.02 34.288a5.044 5.044 0 0 0 0 4.46m22.043-23.053S38.464 32.823 39.3 34.288a5.044 5.044 0 0 1 0 4.46M25.22 18.472s9.566 14.351 10.403 15.816a5.044 5.044 0 0 1 0 4.46m-6.722-25.824s13.242 19.9 14.079 21.364a5.044 5.044 0 0 1 0 4.46M15.7 29.169h11.734m-13.748 3.072h15.76m-17.191 3.07h18.901"></path></svg>