<svg xmlns="http://www.w3.org/2000/svg" xmlns:xlink="http://www.w3.org/1999/xlink" aria-hidden="true" role="img" class="iconify iconify--arcticons" width="1em" height="1em" preserveAspectRatio="xMidYMid meet" viewBox="0 0 48 48" data-icon="arcticons:aliexpress"><path fill="none" stroke="currentColor" stroke-linecap="round" stroke-linejoin="round" d="M8.34 8.27A2.77 2.77 0 0 0 5.5 11.1v28.77a2.8 2.8 0 0 0 2.9 2.63h31.36a2.77 2.77 0 0 0 2.74-3V11a2.8 2.8 0 0 0-3.13-2.68Z"></path><path fill="none" stroke="currentColor" stroke-linecap="round" stroke-linejoin="round" d="M39.72 8.27h0A2.77 2.77 0 0 0 37 5.5H11a2.77 2.77 0 0 0-2.73 2.77h0"></path><circle cx="13.13" cy="22.11" r="1.94" fill="none" stroke="currentColor" stroke-linecap="round" stroke-linejoin="round"></circle><circle cx="34.86" cy="22.11" r="1.94" fill="none" stroke="currentColor" stroke-linecap="round" stroke-linejoin="round"></circle><path fill="none" stroke="currentColor" stroke-linecap="round" stroke-linejoin="round" d="M13.3 24a10.87 10.87 0 0 0 21.39 0"></path></svg>