<svg xmlns="http://www.w3.org/2000/svg" xmlns:xlink="http://www.w3.org/1999/xlink" aria-hidden="true" role="img" class="iconify iconify--arcticons" width="1em" height="1em" preserveAspectRatio="xMidYMid meet" viewBox="0 0 48 48" data-icon="arcticons:amazonappstore"><path fill="none" stroke="currentColor" stroke-linecap="round" stroke-linejoin="round" d="M40.5 5.5h-33a2 2 0 0 0-2 2v33a2 2 0 0 0 2 2h33a2 2 0 0 0 2-2v-33a2 2 0 0 0-2-2Z"></path><path fill="none" stroke="currentColor" stroke-linecap="round" stroke-linejoin="round" d="M34.438 27.806c1.4-.7 3.886-1.638 4.63-.506s-.209 3.84-1.162 5.955"></path><path fill="none" stroke="currentColor" stroke-linecap="round" stroke-linejoin="round" d="M8.665 28.61c2.219 2.174 8.755 5.494 15.708 5.494a18.805 18.805 0 0 0 12.79-4.78M15.138 18.958a3.07 3.07 0 1 1-6.138 0v-1.994a3.07 3.07 0 1 1 6.138 0m0 5.063v-8.133m2.072 5.064a3.07 3.07 0 0 0 6.138 0v-1.994a3.07 3.07 0 1 0-6.138 0m0-3.07v12.277m8.21-7.213a3.07 3.07 0 1 0 6.138 0v-1.994a3.07 3.07 0 0 0-6.139 0m0-3.07v12.277m8.517-4.911a3.628 3.628 0 0 0 2.455.614h.614a1.995 1.995 0 1 0 0-3.99h-1.381a1.995 1.995 0 0 1 0-3.99h.614c1.38 0 1.995.153 2.455.614"></path></svg>