<svg xmlns="http://www.w3.org/2000/svg" xmlns:xlink="http://www.w3.org/1999/xlink" aria-hidden="true" role="img" class="iconify iconify--arcticons" width="1em" height="1em" preserveAspectRatio="xMidYMid meet" viewBox="0 0 48 48" data-icon="arcticons:anythingtopip"><path fill="none" stroke="currentColor" stroke-linecap="round" stroke-linejoin="round" d="M17.601 30.483a82.503 82.503 0 0 1-11.238-.86a75.46 75.46 0 0 1 0-23.147a75.438 75.438 0 0 1 23.145 0a63.397 63.397 0 0 1 .861 10.775"></path><path fill="none" stroke="currentColor" stroke-linecap="round" stroke-linejoin="round" d="M41.637 41.524a75.438 75.438 0 0 1-23.145 0a75.456 75.456 0 0 1 0-23.146a75.434 75.434 0 0 1 23.145 0a75.46 75.46 0 0 1 0 23.146"></path></svg>