<svg xmlns="http://www.w3.org/2000/svg" xmlns:xlink="http://www.w3.org/1999/xlink" aria-hidden="true" role="img" class="iconify iconify--arcticons" width="1em" height="1em" preserveAspectRatio="xMidYMid meet" viewBox="0 0 48 48"><path fill="none" stroke="currentColor" stroke-linecap="round" stroke-linejoin="round" d="M24 2.5a21 21 0 0 1 13 4.76l1.82-1.82l3.77 3.77L40.75 11a21 21 0 0 1 4.75 13a21.59 21.59 0 0 1-7.1 15.51l-1.94-2l-1.91-2C37.81 32.37 40 28.17 40 24a15.22 15.22 0 0 0-3.29-9L35 16.75L31.25 13L33 11.25A15.22 15.22 0 0 0 24 8C16.05 8 8 16.06 8 24c0 4.11 2.16 8.26 5.36 11.31l-2 2.15l-1.9 1.93A21.6 21.6 0 0 1 2.5 24C2.5 12.74 12.74 2.5 24 2.5Zm16.75 8.53l-4 3.99m.22-7.76l-3.99 3.99"></path></svg>