<svg xmlns="http://www.w3.org/2000/svg" xmlns:xlink="http://www.w3.org/1999/xlink" aria-hidden="true" role="img" class="iconify iconify--arcticons" width="1em" height="1em" preserveAspectRatio="xMidYMid meet" viewBox="0 0 48 48"><path fill="none" stroke="currentColor" stroke-linecap="round" stroke-linejoin="round" d="M41.34 31.4a5 5 0 0 1-5-5v-4.78a5 5 0 0 1 5-5h1.16V7.5a2 2 0 0 0-2-2h-33a2 2 0 0 0-2 2v9.12h1.16a5 5 0 0 1 5 5v4.78a5 5 0 0 1-5 5H5.5v9.1a2 2 0 0 0 2 2h33a2 2 0 0 0 2-2v-9.1Z"></path><rect width="18.05" height="23.92" x="14.99" y="13.07" fill="none" stroke="currentColor" stroke-linecap="round" stroke-linejoin="round" rx="6"></rect><rect width="12.79" height="16.04" x="17.62" y="15.7" fill="none" stroke="currentColor" stroke-linecap="round" stroke-linejoin="round" rx="3"></rect><path fill="none" stroke="currentColor" stroke-linecap="round" stroke-linejoin="round" d="M19.57 27v1.27a1.5 1.5 0 0 0 1.5 1.5h1.27"></path></svg>