<svg xmlns="http://www.w3.org/2000/svg" xmlns:xlink="http://www.w3.org/1999/xlink" aria-hidden="true" role="img" class="iconify iconify--arcticons" width="1em" height="1em" preserveAspectRatio="xMidYMid meet" viewBox="0 0 48 48"><path fill="none" stroke="currentColor" stroke-linecap="round" stroke-linejoin="round" d="M24 42.5s5.893-1.916 9.488-5.434a.211.211 0 0 0 .077-.136c-1.12-.913-3.806-5.163-3.983-7.343s.695-2.14 1.515.18s4.429 5.268 4.429 5.268c.36.092.526-.101.401-.475c-2.858-4.58-1.492-6.486-1.452-5.804s2.882 3.828 3.027 3.881c1.32-1.886 2.384-4.36 3.621-8.976c2.261-8.438-4.38-16.567-7.932-13.121c-1.704 1.652-1.26 2.865-.285 3.504c0 0-1.227 1.633-3.92.723s-2.132-3.618-2.25-5.244S26.71 6.467 24 5.733s-2.836.5-2.836.5c-4.577-.203-3.559 2.577-3.559 2.577c2.924-1.486 5.034 1.7 3.068 4.895s-5.603.467-5.603.467c1-.767 1.443-1.98-.26-3.632c-3.554-3.446-10.195 4.683-7.933 13.122c1.237 4.615 2.302 7.089 3.621 8.975c.145-.053 2.987-3.2 3.027-3.881s1.405 1.224-1.452 5.804c-.09.446.401.476.401.476s3.609-2.946 4.429-5.268s1.693-2.36 1.515-.18s-2.862 6.43-3.983 7.342a.211.211 0 0 0 .077.136C18.107 40.584 24 42.5 24 42.5"></path></svg>