<svg xmlns="http://www.w3.org/2000/svg" xmlns:xlink="http://www.w3.org/1999/xlink" aria-hidden="true" role="img" class="iconify iconify--arcticons" width="1em" height="1em" preserveAspectRatio="xMidYMid meet" viewBox="0 0 48 48"><path fill="none" stroke="currentColor" d="M4.5 15.763a1.509 1.509 0 0 1 1.644-1.635H41.86a1.51 1.51 0 0 1 1.639 1.644v24.072a1.81 1.81 0 0 1-1.644 1.994H6.144a1.509 1.509 0 0 1-1.644-1.64Z"></path><path fill="none" stroke="currentColor" d="M8.605 19.768a1.362 1.362 0 0 1 1.544-1.535H37.85a1.364 1.364 0 0 1 1.545 1.535v16.425a1.393 1.393 0 0 1-1.545 1.58l-27.697-.04a1.364 1.364 0 0 1-1.547-1.539Zm1.987-12.111l11.355 6.382m11.188-9.877l-7.082 9.83"></path><path fill="none" stroke="currentColor" d="M18.325 30.549c-.04 4.467 5.675 4.508 5.675 0"></path><path fill="none" stroke="currentColor" d="M24 30.549c-.04 4.467 5.675 4.508 5.675 0m-11.5-6.587l-5.84 2.738m17.075-3.79l5.638 4.723"></path></svg>