<svg xmlns="http://www.w3.org/2000/svg" xmlns:xlink="http://www.w3.org/1999/xlink" aria-hidden="true" role="img" class="iconify iconify--arcticons" width="1em" height="1em" preserveAspectRatio="xMidYMid meet" viewBox="0 0 48 48"><path fill="none" stroke="currentColor" stroke-linecap="round" stroke-linejoin="round" d="M37.5 4.5h-27a2 2 0 0 0-2 2v35a2 2 0 0 0 2 2h27a2 2 0 0 0 2-2v-35a2 2 0 0 0-2-2ZM12 7V3m6 4V3m6 4V3m6 4V3m6 4V3"></path><path fill="none" stroke="currentColor" stroke-linecap="round" stroke-linejoin="round" d="M18 26.1a6 6 0 0 1 12 0V30a6 6 0 0 1-12 0m0 6V12"></path></svg>