<svg xmlns="http://www.w3.org/2000/svg" xmlns:xlink="http://www.w3.org/1999/xlink" aria-hidden="true" role="img" class="iconify iconify--arcticons" width="1em" height="1em" preserveAspectRatio="xMidYMid meet" viewBox="0 0 48 48"><path fill="none" stroke="currentColor" d="M12.65 24h22.7m-18.52-7.67h14.34M19.06 31.67h9.88m3.81-25.83h-17.5a3 3 0 0 0-2.6 1.51L3.9 22.5a3 3 0 0 0 0 3l8.75 15.15a3 3 0 0 0 2.6 1.51h17.5a3 3 0 0 0 2.6-1.51L44.1 25.5a3 3 0 0 0 0-3L35.35 7.35a3 3 0 0 0-2.6-1.51Z"></path></svg>