<svg xmlns="http://www.w3.org/2000/svg" xmlns:xlink="http://www.w3.org/1999/xlink" aria-hidden="true" role="img" class="iconify iconify--arcticons" width="1em" height="1em" preserveAspectRatio="xMidYMid meet" viewBox="0 0 48 48"><path fill="none" stroke="currentColor" stroke-linecap="round" stroke-linejoin="round" d="M25.23 31.537a5.311 5.311 0 0 0 5.334 5.333a5.147 5.147 0 0 0 5.136-5.333v-5.334a5.272 5.272 0 0 0-5.136-5.333a5.44 5.44 0 0 0-5.333 5.333Z"></path><path fill="none" stroke="currentColor" stroke-linecap="round" stroke-linejoin="round" stroke-width=".997" d="m34.515 22.845l-7.901 12.05"></path><path fill="none" stroke="currentColor" stroke-linecap="round" stroke-linejoin="round" d="M18.819 28.771a3.962 3.962 0 0 1 3.95 3.95h0a3.962 3.962 0 0 1-3.95 3.952h-1.58c-2.766 0-3.754-.396-4.939-1.383m0-13.037c1.185-.988 2.37-1.383 4.938-1.383h1.58a3.962 3.962 0 0 1 3.95 3.95h0a3.962 3.962 0 0 1-3.95 3.951h-3.95"></path><rect width="34" height="34" x="7" y="9.12" fill="none" stroke="currentColor" stroke-linecap="round" stroke-linejoin="round" rx="1.956"></rect><path fill="none" stroke="currentColor" stroke-linecap="round" stroke-linejoin="round" d="M7 14.62h34m-28.5-5.5v-2.5a2.5 2.5 0 0 1 2.5-2.5h0a2.5 2.5 0 0 1 2.5 2.5v2.5m13 0v-2.5a2.5 2.5 0 0 1 2.5-2.5h0a2.5 2.5 0 0 1 2.5 2.5v2.5"></path></svg>