<svg xmlns="http://www.w3.org/2000/svg" xmlns:xlink="http://www.w3.org/1999/xlink" aria-hidden="true" role="img" class="iconify iconify--arcticons" width="1em" height="1em" preserveAspectRatio="xMidYMid meet" viewBox="0 0 48 48"><path fill="none" stroke="currentColor" stroke-linecap="round" stroke-linejoin="round" d="M13.23 36.87h8m-8-13.8l4-2.2m0 0v16"></path><circle cx="29.436" cy="26.203" r="5.333" fill="none" stroke="currentColor" stroke-linecap="round" stroke-linejoin="round"></circle><path fill="none" stroke="currentColor" stroke-linecap="round" stroke-linejoin="round" d="M24.696 34.895a4.851 4.851 0 0 0 4.345 1.975h.395a5.311 5.311 0 0 0 5.334-5.333v-5.334"></path><rect width="34" height="34" x="7" y="9.12" fill="none" stroke="currentColor" stroke-linecap="round" stroke-linejoin="round" rx="1.956"></rect><path fill="none" stroke="currentColor" stroke-linecap="round" stroke-linejoin="round" d="M7 14.62h34m-28.5-5.5v-2.5a2.5 2.5 0 0 1 2.5-2.5h0a2.5 2.5 0 0 1 2.5 2.5v2.5m13 0v-2.5a2.5 2.5 0 0 1 2.5-2.5h0a2.5 2.5 0 0 1 2.5 2.5v2.5"></path></svg>