<svg xmlns="http://www.w3.org/2000/svg" xmlns:xlink="http://www.w3.org/1999/xlink" aria-hidden="true" role="img" class="iconify iconify--arcticons" width="1em" height="1em" preserveAspectRatio="xMidYMid meet" viewBox="0 0 48 48"><path fill="none" stroke="currentColor" stroke-linecap="round" stroke-linejoin="round" d="M25.462 28h-2.925a4.513 4.513 0 0 0-4.5 4.5h0a4.513 4.513 0 0 0 4.5 4.5h2.925a4.513 4.513 0 0 0 4.5-4.5h0a4.513 4.513 0 0 0-4.5-4.5Zm0 0a4.513 4.513 0 0 0 4.5-4.5h0a4.513 4.513 0 0 0-4.5-4.5h-2.925a4.513 4.513 0 0 0-4.5 4.5h0a4.513 4.513 0 0 0 4.5 4.5"></path><circle cx="32.5" cy="11" r="2.5" fill="none" stroke="currentColor" stroke-linecap="round" stroke-linejoin="round"></circle><circle cx="15.5" cy="11" r="2.5" fill="none" stroke="currentColor" stroke-linecap="round" stroke-linejoin="round"></circle><path fill="none" stroke="currentColor" stroke-linecap="round" stroke-linejoin="round" d="M7.5 5.5a2 2 0 0 0-2 2v33a2 2 0 0 0 2 2h33a2 2 0 0 0 2-2v-33a2 2 0 0 0-2-2Z"></path></svg>