<svg xmlns="http://www.w3.org/2000/svg" xmlns:xlink="http://www.w3.org/1999/xlink" aria-hidden="true" role="img" class="iconify iconify--arcticons" width="1em" height="1em" preserveAspectRatio="xMidYMid meet" viewBox="0 0 48 48"><path fill="none" stroke="currentColor" stroke-linecap="round" stroke-linejoin="round" d="M24.283 31a5.975 5.975 0 0 0 6 6a5.79 5.79 0 0 0 5.777-6v-6a5.931 5.931 0 0 0-5.778-6a6.12 6.12 0 0 0-6 6Z"></path><path fill="none" stroke="currentColor" stroke-linecap="round" stroke-linejoin="round" stroke-width=".997" d="m34.727 21.222l-8.889 13.556"></path><path fill="none" stroke="currentColor" stroke-linecap="round" stroke-linejoin="round" d="M11.94 37h9m-9-15.525L16.44 19m0 0v18"></path><circle cx="32.5" cy="11" r="2.5" fill="none" stroke="currentColor" stroke-linecap="round" stroke-linejoin="round"></circle><circle cx="15.5" cy="11" r="2.5" fill="none" stroke="currentColor" stroke-linecap="round" stroke-linejoin="round"></circle><path fill="none" stroke="currentColor" stroke-linecap="round" stroke-linejoin="round" d="M7.5 5.5a2 2 0 0 0-2 2v33a2 2 0 0 0 2 2h33a2 2 0 0 0 2-2v-33a2 2 0 0 0-2-2Z"></path></svg>