<svg xmlns="http://www.w3.org/2000/svg" xmlns:xlink="http://www.w3.org/1999/xlink" aria-hidden="true" role="img" class="iconify iconify--arcticons" width="1em" height="1em" preserveAspectRatio="xMidYMid meet" viewBox="0 0 48 48"><path fill="none" stroke="currentColor" stroke-linecap="round" stroke-linejoin="round" d="M25.3 28.87h-2.6a4.012 4.012 0 0 0-4 4h0a4.012 4.012 0 0 0 4 4h2.6a4.012 4.012 0 0 0 4-4h0a4.012 4.012 0 0 0-4-4Zm0 0a4.012 4.012 0 0 0 4-4h0a4.012 4.012 0 0 0-4-4h-2.6a4.012 4.012 0 0 0-4 4h0a4.012 4.012 0 0 0 4 4"></path><rect width="34" height="34" x="7" y="9.12" fill="none" stroke="currentColor" stroke-linecap="round" stroke-linejoin="round" rx="1.956"></rect><path fill="none" stroke="currentColor" stroke-linecap="round" stroke-linejoin="round" d="M7 14.62h34m-28.5-5.5v-2.5a2.5 2.5 0 0 1 2.5-2.5h0a2.5 2.5 0 0 1 2.5 2.5v2.5m13 0v-2.5a2.5 2.5 0 0 1 2.5-2.5h0a2.5 2.5 0 0 1 2.5 2.5v2.5"></path></svg>