<svg xmlns="http://www.w3.org/2000/svg" xmlns:xlink="http://www.w3.org/1999/xlink" aria-hidden="true" role="img" class="iconify iconify--arcticons" width="1em" height="1em" preserveAspectRatio="xMidYMid meet" viewBox="0 0 48 48"><path fill="none" stroke="currentColor" stroke-linecap="round" stroke-linejoin="round" d="M12.267 26.203a5.272 5.272 0 0 1 5.136-5.333a5.308 5.308 0 0 1 3.753 9.086c-2.173 1.778-8.889 6.914-8.889 6.914h10.47m2.396-1.4c1.2 1 2.2 1.4 4.8 1.4h.6a5.295 5.295 0 0 0 5.2-5.2h0a5.295 5.295 0 0 0-5.2-5.2h-5.4v-5.6h10.6"></path><rect width="34" height="34" x="7" y="9.12" fill="none" stroke="currentColor" stroke-linecap="round" stroke-linejoin="round" rx="1.956"></rect><path fill="none" stroke="currentColor" stroke-linecap="round" stroke-linejoin="round" d="M7 14.62h34m-28.5-5.5v-2.5a2.5 2.5 0 0 1 2.5-2.5h0a2.5 2.5 0 0 1 2.5 2.5v2.5m13 0v-2.5a2.5 2.5 0 0 1 2.5-2.5h0a2.5 2.5 0 0 1 2.5 2.5v2.5"></path></svg>