<svg xmlns="http://www.w3.org/2000/svg" xmlns:xlink="http://www.w3.org/1999/xlink" aria-hidden="true" role="img" class="iconify iconify--arcticons" width="1em" height="1em" preserveAspectRatio="xMidYMid meet" viewBox="0 0 48 48"><path fill="none" stroke="currentColor" stroke-miterlimit="10" d="M12.652 4.328a4.679 4.679 0 0 1 5.567 2.436a4.728 4.728 0 0 1-.488 4.872a4.74 4.74 0 0 1-5.707 1.322a4.674 4.674 0 0 1-2.504-3.2a4.48 4.48 0 0 1 .417-3.133a4.898 4.898 0 0 1 2.715-2.297Zm16.284.272a19.91 19.91 0 0 1 12.474 8.819m1.484 18.319a19.886 19.886 0 0 1-37.787-3.706"></path></svg>