<svg xmlns="http://www.w3.org/2000/svg" xmlns:xlink="http://www.w3.org/1999/xlink" aria-hidden="true" role="img" class="iconify iconify--arcticons" width="1em" height="1em" preserveAspectRatio="xMidYMid meet" viewBox="0 0 48 48"><path fill="none" stroke="currentColor" stroke-linecap="square" d="M10.3 5.5h27.3a4.23 4.23 0 0 1 4.2 4.2v28.7a4.23 4.23 0 0 1-4.2 4.2H10.3a4.23 4.23 0 0 1-4.2-4.2V9.7a4.29 4.29 0 0 1 4.2-4.2Z"></path><path fill="none" stroke="currentColor" stroke-linecap="square" d="M12.8 8.2h22.7a3.33 3.33 0 0 1 3.3 3.3v22.7a3.33 3.33 0 0 1-3.3 3.3H12.8a3.33 3.33 0 0 1-3.3-3.3V11.5a3.4 3.4 0 0 1 3.3-3.3Z"></path><path fill="none" stroke="currentColor" d="M10.3 9.5L6.9 6.7m30.7 2.4l3-2.6m-3 30c.1.3 3.1 4.5 3.1 4.5m-30.1-4.2l-3.4 4.4m24.6-14.9a3.69 3.69 0 0 1-3.7 3.7a3.69 3.69 0 0 1-3.7-3.7v-2.4a3.69 3.69 0 0 1 3.7-3.7a3.69 3.69 0 0 1 3.7 3.7"></path><path fill="none" stroke="currentColor" d="M33.3 30a1.54 1.54 0 0 1-1.5-1.5v-8.4m-4.9-2l2.4-.8"></path></svg>