<svg xmlns="http://www.w3.org/2000/svg" xmlns:xlink="http://www.w3.org/1999/xlink" aria-hidden="true" role="img" class="iconify iconify--arcticons" width="1em" height="1em" preserveAspectRatio="xMidYMid meet" viewBox="0 0 48 48"><circle cx="24" cy="24" r="21.5" fill="none" stroke="currentColor"></circle><path fill="none" stroke="currentColor" d="M14.731 36.275s.178 3.763 3.763 3.763H24"></path><path fill="none" stroke="currentColor" d="M33.26 43.41V15.647a3.464 3.464 0 0 0-1.732-3l-5.796-3.346a3.464 3.464 0 0 0-3.464 0l-5.796 3.346a3.464 3.464 0 0 0-1.732 3v27.854"></path><path fill="none" stroke="currentColor" d="M33.269 36.275s-.178 3.763-3.763 3.763H24"></path><rect width="13.227" height="3.063" x="17.386" y="29.142" fill="none" stroke="currentColor" rx=".738"></rect><rect width="3.381" height="2.56" x="17.231" y="34.041" fill="none" stroke="currentColor" rx=".783"></rect><rect width="3.381" height="2.56" x="22.309" y="34.041" fill="none" stroke="currentColor" rx=".783"></rect><rect width="3.381" height="2.56" x="27.388" y="34.041" fill="none" stroke="currentColor" rx=".783"></rect></svg>