<svg xmlns="http://www.w3.org/2000/svg" xmlns:xlink="http://www.w3.org/1999/xlink" aria-hidden="true" role="img" class="iconify iconify--arcticons" width="1em" height="1em" preserveAspectRatio="xMidYMid meet" viewBox="0 0 48 48"><path fill="none" stroke="currentColor" stroke-linecap="round" stroke-linejoin="round" d="M32.73 28.05a2.006 2.006 0 0 1-2-2v-1.3a2 2 0 0 1 4 0v1.3a2.006 2.006 0 0 1-2 2Zm-6.035-3.3a2.006 2.006 0 0 1 2-2m-2 0v5.3m-10.601-8v7a.945.945 0 0 0 1 1h.3m6.445-2a2.006 2.006 0 0 1-2 2h0a2.006 2.006 0 0 1-2-2v-1.3a2.006 2.006 0 0 1 2-2h0a2.006 2.006 0 0 1 2 2m0 3.3v-5.3m-10.189 2.6a2.7 2.7 0 0 1-5.4 0v-2.7a2.689 2.689 0 0 1 2.7-2.7a2.606 2.606 0 0 1 2.6 2.7m19.179-1.968V17.91m4.08 7.269h2.942m-3.907-3.121l2.554-2.554"></path><circle cx="24" cy="24" r="21.5" fill="none" stroke="currentColor" stroke-linecap="round" stroke-linejoin="round"></circle></svg>