<svg xmlns="http://www.w3.org/2000/svg" xmlns:xlink="http://www.w3.org/1999/xlink" aria-hidden="true" role="img" class="iconify iconify--arcticons" width="1em" height="1em" preserveAspectRatio="xMidYMid meet" viewBox="0 0 48 48"><path fill="none" stroke="currentColor" stroke-linejoin="round" d="M40.5 5.5h-33a2 2 0 0 0-2 2v33a2 2 0 0 0 2 2h33a2 2 0 0 0 2-2v-33a2 2 0 0 0-2-2Z"></path><path fill="none" stroke="currentColor" stroke-linejoin="round" d="m15.39 42.5l5.421-11.353l1.377 3.084l3.475-9.627l1.745 2.304l2.514-5.563l1.128 1.43L42.5 9.133m-28.228 4.949h-1.717m1.717 0v4.846h3.199a2.423 2.423 0 1 0 0-4.846Z"></path><path fill="none" stroke="currentColor" stroke-linejoin="round" d="M14.272 18.928v5.165h3.41a2.583 2.583 0 1 0 0-5.165Zm0 5.162h-1.717m1.713.032v1.589m2.779-1.589v1.589m-2.779-13.379v1.59m2.779-1.59v1.59"></path></svg>