<svg xmlns="http://www.w3.org/2000/svg" xmlns:xlink="http://www.w3.org/1999/xlink" aria-hidden="true" role="img" class="iconify iconify--arcticons" width="1em" height="1em" preserveAspectRatio="xMidYMid meet" viewBox="0 0 48 48"><path fill="none" stroke="currentColor" stroke-linecap="round" stroke-linejoin="round" d="M42.5 32.674V7.06a1.897 1.897 0 0 0-1.897-1.897H7.397A1.897 1.897 0 0 0 5.5 7.059v25.615a1.897 1.897 0 0 0 1.897 1.898h33.206a1.897 1.897 0 0 0 1.897-1.898Z"></path><path fill="none" stroke="currentColor" stroke-linecap="round" stroke-linejoin="round" d="M11.667 26.982v-15.18h2.466a7.612 7.612 0 0 1 7.59 7.59h0a7.612 7.612 0 0 1-7.59 7.59ZM32.56 19.24a3.57 3.57 0 1 1 .003 7.14H26.67V12.1h5.89a3.57 3.57 0 0 1 0 7.14Zm0 0h-5.889"></path><path fill="none" stroke="currentColor" stroke-linecap="round" stroke-linejoin="round" d="M11.667 26.982v-15.18h2.466a7.612 7.612 0 0 1 7.59 7.59h0a7.612 7.612 0 0 1-7.59 7.59ZM32.56 19.24a3.57 3.57 0 1 1 .003 7.14H26.67V12.1h5.89a3.57 3.57 0 0 1 0 7.14Zm0 0h-5.889M23.96 42.038a1.566 1.566 0 0 1-1.373.8h0a1.613 1.613 0 0 1-1.615-1.6v-1.04a1.613 1.613 0 0 1 1.615-1.6h0a1.613 1.613 0 0 1 1.616 1.6v.56h-3.231m5.317-3.76v5.006a.797.797 0 0 0 .854.834h.256m-1.963-4.422h1.792m-11.45 1.669a1.693 1.693 0 0 1 1.707-1.669h0a1.693 1.693 0 0 1 1.707 1.669v1.085a1.693 1.693 0 0 1-1.707 1.669h0a1.693 1.693 0 0 1-1.707-1.669m0 1.668v-6.674m16.444 5.006a1.693 1.693 0 0 1-1.707 1.669h0a1.693 1.693 0 0 1-1.707-1.669v-1.085a1.693 1.693 0 0 1 1.707-1.669h0a1.693 1.693 0 0 1 1.707 1.669m0 2.753v-4.422"></path></svg>