<svg xmlns="http://www.w3.org/2000/svg" xmlns:xlink="http://www.w3.org/1999/xlink" aria-hidden="true" role="img" class="iconify iconify--arcticons" width="1em" height="1em" preserveAspectRatio="xMidYMid meet" viewBox="0 0 48 48"><path fill="none" stroke="currentColor" stroke-linecap="round" d="M11.89 18.944L14.68 43.5h20.092l2.79-24.556Z"></path><path fill="none" stroke="currentColor" stroke-linecap="round" stroke-miterlimit="4.75" d="M37.562 18.944L16.987 4.5"></path><path fill="currentColor" d="M14.253 13.747a.75.75 0 1 1 1.06 0a.75.75 0 0 1-1.06 0Zm3.822 3.822a.75.75 0 1 1 1.06 0a.75.75 0 0 1-1.06 0Z"></path><path fill="none" stroke="currentColor" stroke-linecap="round" d="M21.516 18.944a6.622 6.622 0 0 0-1.44-7.206h0a6.62 6.62 0 0 0-9.362 0h0a.945.945 0 0 0 0 1.336l5.87 5.87m.15-11.948l-.236 2.895m8.32 5.189l-2.895.236"></path></svg>