<svg xmlns="http://www.w3.org/2000/svg" xmlns:xlink="http://www.w3.org/1999/xlink" aria-hidden="true" role="img" class="iconify iconify--arcticons" width="1em" height="1em" preserveAspectRatio="xMidYMid meet" viewBox="0 0 48 48"><path fill="none" stroke="currentColor" stroke-linecap="round" stroke-linejoin="round" d="M40.5 5.5h-33a2 2 0 0 0-2 2v33a2 2 0 0 0 2 2h33a2 2 0 0 0 2-2v-33a2 2 0 0 0-2-2Z"></path><path fill="none" stroke="currentColor" stroke-linecap="round" stroke-linejoin="round" d="M31.018 29V19h3.274a3.358 3.358 0 0 1 0 6.717h-3.274m3.274 0l3.274 3.28"></path><circle cx="26.288" cy="19.313" r=".75" fill="currentColor"></circle><path fill="none" stroke="currentColor" stroke-linecap="round" stroke-linejoin="round" d="M27.548 28.006s-1.183 1.286-1.92 1.286h0a.993.993 0 0 1-.923-1.309l1.25-6.314H24.08M20.692 31.5v-4.104H10.357V31.5m8.693-4.105V16.5h-6.38c0 3.172.597 7.873-1.343 10.896"></path></svg>