<svg xmlns="http://www.w3.org/2000/svg" xmlns:xlink="http://www.w3.org/1999/xlink" aria-hidden="true" role="img" class="iconify iconify--arcticons" width="1em" height="1em" preserveAspectRatio="xMidYMid meet" viewBox="0 0 48 48"><path fill="none" stroke="currentColor" stroke-linecap="round" stroke-linejoin="round" d="M14.5 15.89a3 3 0 0 1 3 3h0a3 3 0 1 1-3-3Zm9.5 0a3 3 0 0 1 3 3h0a3 3 0 1 1-3-3Zm9.5 0a3 3 0 0 1 3 3h0a3 3 0 1 1-3-3Zm-19 10.21a3 3 0 1 1 0 6h0a3 3 0 0 1-3-3h0a3 3 0 0 1 3-3Zm9.5 0a3 3 0 0 1 0 6h0a3 3 0 0 1-3-3h0a3 3 0 0 1 3-3Zm9.5 0a3 3 0 0 1 0 6h0a3 3 0 0 1-3-3h0a3 3 0 0 1 3-3Z"></path><circle cx="24" cy="24" r="21.5" fill="none" stroke="currentColor" stroke-linecap="round" stroke-linejoin="round"></circle></svg>