<svg xmlns="http://www.w3.org/2000/svg" xmlns:xlink="http://www.w3.org/1999/xlink" aria-hidden="true" role="img" class="iconify iconify--arcticons" width="1em" height="1em" preserveAspectRatio="xMidYMid meet" viewBox="0 0 48 48"><path fill="none" stroke="currentColor" stroke-linejoin="round" d="M6.45 8.4a2 2 0 0 0-1.95 1.95v27.3a2 2 0 0 0 2 2h35.1a2 2 0 0 0 2-2v-27.3a2 2 0 0 0-2-1.95Zm3.63 2.46h2a1.68 1.68 0 0 1 1.68 1.68v2a1.68 1.68 0 0 1-1.68 1.68h-2a1.68 1.68 0 0 1-1.68-1.69v-2a1.68 1.68 0 0 1 1.68-1.67Zm25.86 0h2a1.68 1.68 0 0 1 1.68 1.68v2a1.68 1.68 0 0 1-1.68 1.68h-2a1.68 1.68 0 0 1-1.68-1.68v-2a1.68 1.68 0 0 1 1.68-1.68Zm-25.86 7h2a1.68 1.68 0 0 1 1.68 1.68v2a1.67 1.67 0 0 1-1.68 1.67h-2a1.67 1.67 0 0 1-1.68-1.7v-2a1.68 1.68 0 0 1 1.68-1.67Zm25.86 0h2a1.68 1.68 0 0 1 1.68 1.68v2a1.67 1.67 0 0 1-1.68 1.67h-2a1.67 1.67 0 0 1-1.68-1.67v-2a1.68 1.68 0 0 1 1.68-1.7Zm-25.86 7h2a1.67 1.67 0 0 1 1.68 1.67v2a1.68 1.68 0 0 1-1.68 1.68h-2a1.68 1.68 0 0 1-1.68-1.73v-2a1.67 1.67 0 0 1 1.68-1.66Zm25.86 0h2a1.67 1.67 0 0 1 1.68 1.67v2a1.68 1.68 0 0 1-1.68 1.68h-2a1.68 1.68 0 0 1-1.68-1.68v-2a1.67 1.67 0 0 1 1.68-1.71Zm-25.86 7h2a1.68 1.68 0 0 1 1.68 1.68v2a1.69 1.69 0 0 1-1.68 1.69h-2a1.69 1.69 0 0 1-1.68-1.78v-2a1.68 1.68 0 0 1 1.68-1.66Zm25.86 0h2a1.68 1.68 0 0 1 1.68 1.68v2a1.69 1.69 0 0 1-1.68 1.69h-2a1.69 1.69 0 0 1-1.68-1.69v-2a1.68 1.68 0 0 1 1.68-1.75Z"></path></svg>