<svg xmlns="http://www.w3.org/2000/svg" xmlns:xlink="http://www.w3.org/1999/xlink" aria-hidden="true" role="img" class="iconify iconify--arcticons" width="1em" height="1em" preserveAspectRatio="xMidYMid meet" viewBox="0 0 48 48"><path fill="none" stroke="currentColor" d="M12.4 6.9c.6-3.3 22.1-3.2 23.2 0v34.4c-1.7 2.9-21.9 3-23.2 0Zm0 1.3h23.2m0 31.4H12.4m9.9-33.1h3.6M12.5 35.4h22.7"></path><path fill="none" stroke="currentColor" stroke-dasharray="0 2" stroke-linecap="round" stroke-linejoin="round" d="M14.6 37.5h14"></path><path fill="none" stroke="currentColor" d="m20.4 15.7l-2.7 8l-2.6-8m9.6 4.8a2 2 0 0 1 2-2a2 2 0 0 1 2 2v3.2m-4-5.2v5.2m4-3.2a2 2 0 0 1 2-2a2 2 0 0 1 2 2v3.2"></path><circle cx="22.5" cy="16" r=".8" fill="currentColor"></circle><path fill="none" stroke="currentColor" d="M22.5 18.4v5.3"></path></svg>