<svg xmlns="http://www.w3.org/2000/svg" xmlns:xlink="http://www.w3.org/1999/xlink" aria-hidden="true" role="img" class="iconify iconify--arcticons" width="1em" height="1em" preserveAspectRatio="xMidYMid meet" viewBox="0 0 48 48"><path fill="none" stroke="currentColor" stroke-linejoin="round" d="M16.55 6.45a4.31 4.31 0 0 0-4 2.29l-7.45 13a4.37 4.37 0 0 0 0 4.58l7.45 13a4.31 4.31 0 0 0 4 2.29h14.89a4.28 4.28 0 0 0 3.94-2.29l7.46-13a4.34 4.34 0 0 0 0-4.58l-7.47-13a4.28 4.28 0 0 0-3.94-2.29ZM29.8 28.93v-9.89"></path><path fill="none" stroke="currentColor" stroke-linejoin="round" d="M29.8 19H34a2.48 2.48 0 0 1 2.48 2.48A2.48 2.48 0 0 1 34 24h-4.2"></path><path fill="none" stroke="currentColor" stroke-linejoin="round" d="M29.8 24H34a2.48 2.48 0 0 1 2.48 2.48A2.48 2.48 0 0 1 34 29h-4.2m-18.25 0V19h1.69a5 5 0 0 1 5 5a5 5 0 0 1-5 5Zm11.52-10a2.47 2.47 0 0 0-2.47 2.47A2.48 2.48 0 0 0 23.07 24h.84m0 0h.84a2.47 2.47 0 0 1 2.47 2.47a2.47 2.47 0 0 1-2.47 2.47M27 19.87a4.21 4.21 0 0 0-3.09-.87h-.84"></path><path fill="none" stroke="currentColor" stroke-linejoin="round" d="M20.84 28.1a4.2 4.2 0 0 0 3.07.83h.84"></path></svg>