<svg xmlns="http://www.w3.org/2000/svg" xmlns:xlink="http://www.w3.org/1999/xlink" aria-hidden="true" role="img" class="iconify iconify--arcticons" width="1em" height="1em" preserveAspectRatio="xMidYMid meet" viewBox="0 0 48 48"><path fill="none" stroke="currentColor" stroke-linejoin="round" d="M24 2.5a21.68 21.68 0 0 0-13.82 5a99.36 99.36 0 0 1 15.37 5.24c4.51 1.93 11.84 3.24 18.78 4A21.63 21.63 0 0 0 24 2.5ZM4.73 14.21a21.58 21.58 0 0 0-2.11 6.63a94.62 94.62 0 0 1 22.93 6.78c4.48 1.92 11.76 3.22 18.67 4a21.36 21.36 0 0 0 1.4-6.89c-7.83-.71-16.58-2-23.19-4.82a88.32 88.32 0 0 0-17.7-5.68Zm-1.8 14.58a21.66 21.66 0 0 0 36.61 10.15c-6-.79-12.18-2-17.11-4.14a86.66 86.66 0 0 0-19.5-6Z"></path></svg>