<svg xmlns="http://www.w3.org/2000/svg" xmlns:xlink="http://www.w3.org/1999/xlink" aria-hidden="true" role="img" class="iconify iconify--arcticons" width="1em" height="1em" preserveAspectRatio="xMidYMid meet" viewBox="0 0 48 48"><path fill="none" stroke="currentColor" stroke-linecap="round" stroke-linejoin="round" d="M38.5 24.81v3.36a2.48 2.48 0 0 1-2.5 2.48h0a2.45 2.45 0 0 1-1.76-.73"></path><path fill="none" stroke="currentColor" stroke-linecap="round" stroke-linejoin="round" d="M38.5 20.7v4.11A2.49 2.49 0 0 1 36 27.3h0a2.49 2.49 0 0 1-2.48-2.49V20.7M14.15 26A2.5 2.5 0 0 1 12 27.3h0a2.49 2.49 0 0 1-2.5-2.49v-1.62A2.49 2.49 0 0 1 12 20.7h0a2.49 2.49 0 0 1 2.48 2.49V24h-5m21.01.81A2.49 2.49 0 0 1 28 27.3h0a2.49 2.49 0 0 1-2.48-2.49v-1.62A2.49 2.49 0 0 1 28 20.7h0a2.49 2.49 0 0 1 2.49 2.49m0 4.11v-6.6m-12.98 2.49A2.49 2.49 0 0 1 20 20.7h0a2.49 2.49 0 0 1 2.48 2.49v1.62A2.49 2.49 0 0 1 20 27.3h0a2.49 2.49 0 0 1-2.49-2.49m0 2.49v-9.95"></path><path fill="none" stroke="currentColor" stroke-linecap="round" stroke-linejoin="round" d="M40.5 42.5h-33a2 2 0 0 1-2-2v-33a2 2 0 0 1 2-2h33a2 2 0 0 1 2 2v33a2 2 0 0 1-2 2Z"></path></svg>