<svg xmlns="http://www.w3.org/2000/svg" xmlns:xlink="http://www.w3.org/1999/xlink" aria-hidden="true" role="img" class="iconify iconify--arcticons" width="1em" height="1em" preserveAspectRatio="xMidYMid meet" viewBox="0 0 48 48"><circle cx="24" cy="24" r="21.5" fill="none" stroke="currentColor" stroke-linecap="round" stroke-linejoin="round"></circle><path fill="none" stroke="currentColor" stroke-linecap="round" stroke-linejoin="round" d="M30.581 44.474a23.508 23.508 0 0 1 0-40.948"></path><path fill="none" stroke="currentColor" stroke-linecap="round" stroke-linejoin="round" d="M36.182 41.718a18.977 18.977 0 0 1 0-35.436"></path><path fill="none" stroke="currentColor" stroke-linecap="round" stroke-linejoin="round" d="M40.31 38.01a14.442 14.442 0 0 1 0-28.02"></path><path fill="none" stroke="currentColor" stroke-linecap="round" stroke-linejoin="round" d="M43.146 33.792a9.908 9.908 0 0 1 0-19.584"></path><path fill="none" stroke="currentColor" stroke-linecap="round" stroke-linejoin="round" d="M44.833 29.334a5.376 5.376 0 0 1 0-10.668M17.419 3.526a23.508 23.508 0 0 1 0 40.948"></path><path fill="none" stroke="currentColor" stroke-linecap="round" stroke-linejoin="round" d="M11.818 6.282a18.977 18.977 0 0 1 0 35.436"></path><path fill="none" stroke="currentColor" stroke-linecap="round" stroke-linejoin="round" d="M7.69 9.99a14.442 14.442 0 0 1 0 28.02"></path><path fill="none" stroke="currentColor" stroke-linecap="round" stroke-linejoin="round" d="M4.854 14.208a9.908 9.908 0 0 1 0 19.584"></path><path fill="none" stroke="currentColor" stroke-linecap="round" stroke-linejoin="round" d="M3.167 18.666a5.376 5.376 0 0 1 0 10.668M2.5 24h43"></path></svg>