<svg xmlns="http://www.w3.org/2000/svg" xmlns:xlink="http://www.w3.org/1999/xlink" aria-hidden="true" role="img" class="iconify iconify--arcticons" width="1em" height="1em" preserveAspectRatio="xMidYMid meet" viewBox="0 0 48 48"><path fill="none" stroke="currentColor" stroke-miterlimit="10" d="M35.13 22.92h-14A5.81 5.81 0 1 0 25 33.08h6.31a5.79 5.79 0 0 0 3.84 1.45a5.81 5.81 0 0 0 0-11.61Z"></path><path fill="none" stroke="currentColor" d="M41.68 13H24.77c-2-.1-5.93-4.23-8.19-4.23h-9.9A2.18 2.18 0 0 0 4.5 11v7.29h39v-3.42A1.83 1.83 0 0 0 41.68 13Z"></path><path fill="none" stroke="currentColor" d="M43.5 18.28h-39V37a2.18 2.18 0 0 0 2.17 2.2h34.65A2.18 2.18 0 0 0 43.5 37ZM18.55 28.59h5.17m-2.58-2.5v5.08"></path><path fill="currentColor" d="M32.66 29.32a.75.75 0 1 1 .75-.75a.75.75 0 0 1-.75.75Zm2.48 2.49a.75.75 0 0 1 0-1.5a.75.75 0 0 1 0 1.5Zm2.49-2.49a.75.75 0 1 1 .75-.75a.75.75 0 0 1-.75.75Zm-2.49-2.48a.75.75 0 0 1 0-1.5a.75.75 0 0 1 0 1.5Z"></path></svg>