<svg xmlns="http://www.w3.org/2000/svg" xmlns:xlink="http://www.w3.org/1999/xlink" aria-hidden="true" role="img" class="iconify iconify--arcticons" width="1em" height="1em" preserveAspectRatio="xMidYMid meet" viewBox="0 0 48 48"><path fill="none" stroke="currentColor" stroke-linecap="round" stroke-linejoin="round" d="M13.828 5.469C-2.23 21.983 19.308 48.315 39.438 32M13.828 5.469l3.313 3.62m18.983 19.139L39.438 32"></path><ellipse cx="26.308" cy="18.977" fill="none" stroke="currentColor" stroke-linecap="round" stroke-linejoin="round" rx="13.47" ry="13.508"></ellipse><path fill="none" stroke="currentColor" stroke-linecap="round" stroke-linejoin="round" d="M32.084 12.917c-1.463-1.463-6.353-4.13-11.026.543c-2.757 2.757-2.973 7.995.489 11.456c3.296 3.296 8.299 2.706 11.594-.59c1.92-1.92 1.044-5.35.287-7.305l-6.204 2.133m-.706 17.999v2.805m2.048-7.661h0m10.471 10.234c0-2.573-5.6-2.573-12.519-2.573c-6.877 0-12.442 0-12.442 2.573"></path></svg>