<svg xmlns="http://www.w3.org/2000/svg" xmlns:xlink="http://www.w3.org/1999/xlink" aria-hidden="true" role="img" class="iconify iconify--arcticons" width="1em" height="1em" preserveAspectRatio="xMidYMid meet" viewBox="0 0 48 48"><path fill="none" d="M4.5 14.8h39v24.5h-39z"></path><path fill="none" d="M4.5 14.8L12 8.7h24.8l6.7 6.2"></path><circle cx="14.4" cy="18.2" r="2" fill="none"></circle><circle cx="8.2" cy="18.2" r="1.6" fill="none"></circle><circle cx="20.4" cy="18.2" r="1.6" fill="none"></circle><circle cx="11.7" cy="32.3" r="2.8" fill="none"></circle><path fill="none" d="m11.7 32.4l1.7-1.8m18-6.2h10.4V35H31.4zm-11.3 1.3h9.2v8.2h-9.2z"></path><circle cx="22.7" cy="31" r="1.1" fill="none"></circle><circle cx="21.8" cy="27.8" r=".8" fill="currentColor"></circle><circle cx="24.7" cy="27.8" r=".8" fill="currentColor"></circle><circle cx="27.6" cy="27.8" r=".8" fill="currentColor"></circle><path fill="none" d="M23.5 14.8h20v5.8h-20z"></path><path fill="none" d="m26.6 18.7l1.4-1.3l.8 1.5l1.3-2.1l1.2 2.8l1.2-1.5l.6.6l.5-.6h3.5l.7.5l1.4-2l.6 2.6"></path><circle cx="11.9" cy="25.4" r=".8" fill="none"></circle><path fill="none" d="M12 26.2V28"></path><circle cx="16.7" cy="25.4" r=".8" fill="none"></circle><path fill="none" d="M16.7 26.2V28"></path><circle cx="7.4" cy="25.4" r=".8" fill="none"></circle><path fill="none" d="M7.4 26.2V28m24.3-2.7h1.1m-1.1 2.2h1.1m-1.1 2.2h1.1M31.7 32h1.1m-1.1 2.2h1.1m0-7.8h1.1m-1.1 2.2h1.1m-1.1 2.2h1.1m-1.1 2.3h1.1m0-7.8H35m-1.1 2.2H35m-1.1 2.2H35M33.9 32H35m-1.1 2.2H35m0-7.8h1.1M35 28.6h1.1M35 30.8h1.1M35 33.1h1.1m0-7.8h1.1m-1.1 2.2h1.1m-1.1 2.2h1.1M36.1 32h1.1m-1.1 2.2h1.1m.1-7.8h1.1m-1.1 2.2h1.1m-1.1 2.2h1.1m-1.1 2.3h1.1m0 1.1h1.1M38.4 32h1.1m-1.1-2.3h1.1m-1.1-2.2h1.1m-1.1-2.2h1.1m0 1.1h1.1m-1.1 2.2h1.1m-1.1 2.2h1.1m-1.1 2.3h1.1m0-7.8h1.1m-1.1 2.2h1.1m-1.1 2.2h1.1M40.6 32h1.1m-1.1 2.2h1.1"></path></svg>