<svg xmlns="http://www.w3.org/2000/svg" xmlns:xlink="http://www.w3.org/1999/xlink" aria-hidden="true" role="img" class="iconify iconify--arcticons" width="1em" height="1em" preserveAspectRatio="xMidYMid meet" viewBox="0 0 48 48"><path fill="none" stroke="currentColor" stroke-linecap="round" stroke-linejoin="round" d="M5.38 31.6a10.13 10.13 0 0 0-1.45.12a21.5 21.5 0 0 0 12 12.21a10.75 10.75 0 0 0 .15-1.8A10.53 10.53 0 0 0 5.55 31.6h-.17Zm0-5.31a15.3 15.3 0 0 0-2.78.26A21.5 21.5 0 0 0 21.08 45.3a16 16 0 0 0 .32-3.17A15.84 15.84 0 0 0 5.55 26.29h-.12Zm.12-5.17a21.33 21.33 0 0 0-2.88.2A21.79 21.79 0 0 0 2.5 24A21.51 21.51 0 0 0 24 45.5a22.19 22.19 0 0 0 2.31-.12a20.84 20.84 0 0 0 .26-3.25a21 21 0 0 0-21-21Zm16.68 7.43v.8A21 21 0 0 1 24 32.06h1.74v-3.51Zm6.39 0v3.51h3.51v-3.51Zm-12.64-6.41v1.72a21.7 21.7 0 0 1 2.66 1.79h.85v-3.51Zm6.3 0v3.51h3.51v-3.51Zm6.39 0v3.51h3.51v-3.51Zm0-6.21h3.51v3.51h-3.51Zm-6.39 0h3.51v3.51h-3.51Zm-6.3 0h3.51v3.51h-3.51ZM45.5 24A21.5 21.5 0 1 1 24 2.5A21.51 21.51 0 0 1 45.5 24Z"></path></svg>