<svg xmlns="http://www.w3.org/2000/svg" xmlns:xlink="http://www.w3.org/1999/xlink" aria-hidden="true" role="img" class="iconify iconify--arcticons" width="1em" height="1em" preserveAspectRatio="xMidYMid meet" viewBox="0 0 48 48"><path fill="none" stroke="currentColor" stroke-linecap="round" stroke-linejoin="round" d="M40.5 5.5h-33a2 2 0 0 0-2 2v33a2 2 0 0 0 2 2h33a2 2 0 0 0 2-2v-33a2 2 0 0 0-2-2Z"></path><rect width="6.85" height="9.076" x="19.65" y="29.424" fill="none" stroke="currentColor" stroke-linecap="round" stroke-linejoin="round" rx="3.425"></rect><path fill="none" stroke="currentColor" stroke-linecap="round" stroke-linejoin="round" d="M9.5 24.801V38.5m0-5.65a3.425 3.425 0 0 1 3.425-3.426h0a3.425 3.425 0 0 1 3.425 3.425V38.5"></path><circle cx="29.009" cy="38.255" r=".75" fill="currentColor"></circle></svg>