<svg xmlns="http://www.w3.org/2000/svg" xmlns:xlink="http://www.w3.org/1999/xlink" aria-hidden="true" role="img" class="iconify iconify--arcticons" width="1em" height="1em" preserveAspectRatio="xMidYMid meet" viewBox="0 0 48 48"><path fill="none" stroke="currentColor" stroke-linecap="round" stroke-linejoin="round" d="M7.45 5.5a2 2 0 0 0-1.95 2v33.1a2 2 0 0 0 2 2h33.1a2 2 0 0 0 2-2V7.45a2 2 0 0 0-2-1.95ZM31.8 9l6 4.55l-6 4.55m1 19.94H38m-5.23-9l2.62-1.42m0 0V38m-8.06 0a2.61 2.61 0 0 0 2.61-2.61h0a2.61 2.61 0 0 0-2.61-2.61h0a2.61 2.61 0 0 0 2.61-2.61h0a2.61 2.61 0 0 0-2.61-2.61m-4.13 9.56a4.47 4.47 0 0 0 3.25.88h.88m-4.13-9.57c.72-.61 1.5-.88 3.25-.88h.88m-3.84-14.04h14.27"></path><path fill="none" stroke="currentColor" stroke-linecap="round" stroke-linejoin="round" d="m16.2 25.24l-5.96-4.55l5.96-4.55m8.31 4.55H10.24"></path></svg>