<svg xmlns="http://www.w3.org/2000/svg" xmlns:xlink="http://www.w3.org/1999/xlink" aria-hidden="true" role="img" class="iconify iconify--arcticons" width="1em" height="1em" preserveAspectRatio="xMidYMid meet" viewBox="0 0 48 48"><path fill="none" stroke="currentColor" stroke-linecap="round" stroke-linejoin="round" d="M42 39.5h0a1.5 1.5 0 0 0 1.5-1.5h0m0-4.828V12.414m0-2.414h0A1.5 1.5 0 0 0 42 8.5h0m-4.865 0H8.432M6 8.5h0A1.5 1.5 0 0 0 4.5 10h0m0 4.828v20.758M4.5 38h0A1.5 1.5 0 0 0 6 39.5h0m4.865 0h28.703M43.5 20.4h-1"></path><path fill="none" stroke="currentColor" stroke-dasharray="2.067 2.067" stroke-linecap="round" stroke-linejoin="round" d="M40.433 20.4h-4.085a2.848 2.848 0 0 0-2.848 2.848v1.504a2.848 2.848 0 0 0 2.848 2.848h5.118"></path><path fill="none" stroke="currentColor" stroke-linecap="round" stroke-linejoin="round" d="M42.5 27.6h1"></path><circle cx="36.472" cy="24" r=".795" fill="currentColor"></circle></svg>