<svg xmlns="http://www.w3.org/2000/svg" xmlns:xlink="http://www.w3.org/1999/xlink" aria-hidden="true" role="img" class="iconify iconify--arcticons" width="1em" height="1em" preserveAspectRatio="xMidYMid meet" viewBox="0 0 48 48"><path fill="none" stroke="currentColor" stroke-linecap="round" stroke-linejoin="round" d="M5.5 22.972h0a8.736 8.736 0 0 0 8.736 8.736h2.056v2.056a8.736 8.736 0 0 0 8.736 8.736h0V22.972Z"></path><path fill="none" stroke="currentColor" stroke-linecap="round" stroke-linejoin="round" d="M14.236 14.236h0a8.736 8.736 0 0 0 8.736 8.736h2.056v2.056a8.736 8.736 0 0 0 8.736 8.736h0V14.236Z"></path><path fill="none" stroke="currentColor" stroke-linecap="round" stroke-linejoin="round" d="M22.972 5.5h0a8.736 8.736 0 0 0 8.736 8.736h2.056v2.056a8.736 8.736 0 0 0 8.736 8.736h0V5.5Z"></path></svg>