<svg xmlns="http://www.w3.org/2000/svg" xmlns:xlink="http://www.w3.org/1999/xlink" aria-hidden="true" role="img" class="iconify iconify--arcticons" width="1em" height="1em" preserveAspectRatio="xMidYMid meet" viewBox="0 0 48 48"><ellipse cx="24" cy="25.502" fill="none" stroke="currentColor" rx="3.878" ry="6.202"></ellipse><path fill="none" stroke="currentColor" d="M16.129 6.768a20.178 20.178 0 1 1-7.611 5.65"></path><path fill="none" stroke="currentColor" d="M16.139 7.207a14.117 14.117 0 0 1 10.769 1.986m5.636.732a18.375 18.375 0 0 0-12.196-4.417"></path><path fill="none" stroke="currentColor" d="M14.997 6.112A14.364 14.364 0 0 1 24 2.542c5.392-.357 8.1 1.659 9.304 3.038M12.152 7.459c-.437-.57-1.377-.963-3.39-.228c-4 1.46-4.367 6.392-1.077 6.257"></path><ellipse cx="14.889" cy="21.117" fill="none" stroke="currentColor" rx="2.53" ry="5.083"></ellipse><path fill="none" stroke="currentColor" d="M23.094 31.532a8.339 8.339 0 0 1-5.47 2.103c-5.127 0-9.284-4.908-9.284-10.962s4.157-10.962 9.285-10.962A8.556 8.556 0 0 1 24 14.703"></path><path fill="none" stroke="currentColor" d="M12.392 20.295a4.34 4.34 0 0 0 4.456-2.395"></path><ellipse cx="33.111" cy="21.117" fill="none" stroke="currentColor" rx="2.53" ry="5.083"></ellipse><path fill="none" stroke="currentColor" d="M24.906 31.532a8.339 8.339 0 0 0 5.47 2.103c5.127 0 9.284-4.908 9.284-10.962s-4.157-10.962-9.285-10.962A8.556 8.556 0 0 0 24 14.703"></path><path fill="none" stroke="currentColor" d="M30.767 20.295a4.34 4.34 0 0 0 4.456-2.395m-12.47 20.65s.833-3.38-3.38-3.38s-4.277 3.403-6.773 3.403"></path><path fill="none" stroke="currentColor" d="M22.753 38.595s.833 3.38-3.38 3.38s-4.277-3.403-6.773-3.403m10.153.023h-1.365m3.859-.045s-.833-3.38 3.38-3.38s4.277 3.403 6.773 3.403"></path><path fill="none" stroke="currentColor" d="M25.247 38.595s-.833 3.38 3.38 3.38s4.277-3.403 6.773-3.403m-10.153.023h1.365"></path><ellipse cx="12.246" cy="9.537" fill="none" stroke="currentColor" rx="1.278" ry="2.079" transform="rotate(-25.031 12.246 9.537)"></ellipse><path fill="none" stroke="currentColor" d="M12.635 7.966s.476-2.592 1.675-2.12s2.64 2.785 2.243 3.91s-1.2 1.07-2.856.607m-1.879.713s-.476 2.592-1.676 2.121s-2.638-2.785-2.242-3.91s1.2-1.07 2.856-.607"></path></svg>