<svg xmlns="http://www.w3.org/2000/svg" xmlns:xlink="http://www.w3.org/1999/xlink" aria-hidden="true" role="img" class="iconify iconify--arcticons" width="1em" height="1em" preserveAspectRatio="xMidYMid meet" viewBox="0 0 48 48"><circle cx="36" cy="19.05" r="7.5" fill="none" stroke="currentColor"></circle><circle cx="12" cy="19.05" r="7.5" fill="none" stroke="currentColor"></circle><path fill="none" stroke="currentColor" d="M23.2 27.25h1.7a4.59 4.59 0 0 1 4.6 4.6a4.59 4.59 0 0 1-4.6 4.6h-1.7a4.59 4.59 0 0 1-4.6-4.6a4.65 4.65 0 0 1 4.6-4.6Z"></path><circle cx="35.9" cy="16.35" r="1" fill="none" stroke="currentColor"></circle><circle cx="35.9" cy="21.25" r="1" fill="none" stroke="currentColor"></circle><circle cx="33.5" cy="18.85" r="1" fill="none" stroke="currentColor"></circle><circle cx="38.4" cy="18.85" r="1" fill="none" stroke="currentColor"></circle><path fill="none" stroke="currentColor" d="M10.7 15.15v2.4H8.2v2.7h2.5v2.4h2.5v-2.4h2.5v-2.7h-2.5v-2.4Z"></path><path fill="none" stroke="currentColor" stroke-linejoin="round" d="m24 33.85l2.9-3.3H21Z"></path></svg>