<svg xmlns="http://www.w3.org/2000/svg" xmlns:xlink="http://www.w3.org/1999/xlink" aria-hidden="true" role="img" class="iconify iconify--arcticons" width="1em" height="1em" preserveAspectRatio="xMidYMid meet" viewBox="0 0 48 48"><path fill="none" stroke="currentColor" stroke-linecap="round" stroke-linejoin="round" d="M17.55 20a7.59 7.59 0 1 0 0 8a7.59 7.59 0 0 1 0-8Z"></path><path fill="none" stroke="currentColor" stroke-linecap="round" stroke-linejoin="round" d="M30.45 20a7.59 7.59 0 0 0-12.9 0a7.64 7.64 0 0 1 0 8a7.59 7.59 0 0 0 12.9 0a7.64 7.64 0 0 1 0-8Zm6.46-3.59A7.6 7.6 0 0 0 30.45 20a7.59 7.59 0 0 1 0 8a7.59 7.59 0 1 0 6.46-11.59Z"></path></svg>