<svg xmlns="http://www.w3.org/2000/svg" xmlns:xlink="http://www.w3.org/1999/xlink" aria-hidden="true" role="img" class="iconify iconify--arcticons" width="1em" height="1em" preserveAspectRatio="xMidYMid meet" viewBox="0 0 48 48"><path fill="none" stroke="currentColor" stroke-linecap="round" stroke-linejoin="round" d="M42.5 5.5h-37v37h37Z"></path><circle cx="24" cy="24" r="18.5" fill="none" stroke="currentColor" stroke-linecap="round" stroke-linejoin="round"></circle><path fill="none" stroke="currentColor" stroke-linecap="round" stroke-linejoin="round" d="M10.278 19.909v8.687h3.794m13.656 0V19.91h1.954a3.8 3.8 0 0 1 3.801 3.8v1.086a3.8 3.8 0 0 1-3.8 3.801Zm-11.544-4.274l4.414-4.414l4.414 4.414l-4.414 4.415zm4.414 4.415l-1.181 1.181m6.777-6.776l-1.182 1.181m-8.828 0l-1.181 1.181"></path><circle cx="20.008" cy="15.82" r="2.401" fill="none" stroke="currentColor" stroke-linecap="round" stroke-linejoin="round"></circle><path fill="none" stroke="currentColor" stroke-linecap="round" stroke-linejoin="round" d="M9.405 19.909h1.745m-1.745 8.687h.873m16.577 0h.873m-.873-8.687h.873m7.945 0v8.687h3.794M34.8 19.909h1.745M34.8 28.596h.873"></path></svg>