<svg xmlns="http://www.w3.org/2000/svg" xmlns:xlink="http://www.w3.org/1999/xlink" aria-hidden="true" role="img" class="iconify iconify--arcticons" width="1em" height="1em" preserveAspectRatio="xMidYMid meet" viewBox="0 0 48 48"><path fill="none" stroke="currentColor" stroke-linecap="round" stroke-linejoin="round" d="M40.5 5.5h-33a2 2 0 0 0-2 2h0v33a2 2 0 0 0 2 2h33a2 2 0 0 0 2-2h0v-33a2 2 0 0 0-2-2Z"></path><path fill="none" stroke="currentColor" stroke-linecap="round" stroke-linejoin="round" d="M5.5 24h7.899v1.297a4 4 0 1 0 3 0V24H24m0 18.5v-7.899h1.297a4 4 0 1 0 0-3H24V24m18.5 0h-7.899v-1.297a4 4 0 1 0-3 0V24H24m0-18.5v7.899h-1.297a4 4 0 1 0 0 3H24V24"></path></svg>