<svg xmlns="http://www.w3.org/2000/svg" xmlns:xlink="http://www.w3.org/1999/xlink" aria-hidden="true" role="img" class="iconify iconify--arcticons" width="1em" height="1em" preserveAspectRatio="xMidYMid meet" viewBox="0 0 48 48"><path fill="none" stroke="currentColor" stroke-linecap="round" stroke-linejoin="round" d="M40.5 5.5h-33a2 2 0 0 0-2 2v33a2 2 0 0 0 2 2h33a2 2 0 0 0 2-2v-33a2 2 0 0 0-2-2Z"></path><circle cx="12.71" cy="34.09" r="2.21" fill="none" stroke="currentColor" stroke-linecap="round" stroke-linejoin="round"></circle><path fill="none" stroke="currentColor" stroke-linecap="round" stroke-linejoin="round" d="M12.71 31.88V12.77a1.38 1.38 0 0 1 2.62-.22L22.7 33.8a1.34 1.34 0 0 0 2.6 0l7.35-21.25a1.38 1.38 0 0 1 2.62.22v19.11"></path><circle cx="35.29" cy="34.09" r="2.21" fill="none" stroke="currentColor" stroke-linecap="round" stroke-linejoin="round"></circle></svg>