<svg xmlns="http://www.w3.org/2000/svg" xmlns:xlink="http://www.w3.org/1999/xlink" aria-hidden="true" role="img" class="iconify iconify--arcticons" width="1em" height="1em" preserveAspectRatio="xMidYMid meet" viewBox="0 0 48 48"><path fill="none" stroke="currentColor" stroke-linecap="round" stroke-linejoin="round" d="M28.68 24h-2.15m5.817 0h-2.15m5.818 0h-2.15m5.817 0h-2.15M21.47 24h-2.15m-1.517 0h-2.15m-1.518 0h-2.15m-1.517 0h-2.15M24 15.653v2.15m0 1.517v2.15m0 5.06v2.15m0 1.517v2.15m0 1.518v2.15m0 1.517v2.15m0-27.697v2.15m0-5.817v2.15M10.341 20.712c21.753-22.133 15.177 12.9 27.57 15.682"></path><circle cx="24" cy="24" r="21.5" fill="none" stroke="currentColor" stroke-linecap="round" stroke-linejoin="round"></circle><circle cx="24" cy="24" r=".75" fill="currentColor"></circle></svg>