<svg xmlns="http://www.w3.org/2000/svg" xmlns:xlink="http://www.w3.org/1999/xlink" aria-hidden="true" role="img" class="iconify iconify--arcticons" width="1em" height="1em" preserveAspectRatio="xMidYMid meet" viewBox="0 0 48 48"><path fill="none" stroke="currentColor" stroke-linecap="round" stroke-linejoin="round" d="M4.51 28.6v2a2.333 2.333 0 0 1 2-2a2.333 2.333 0 0 1 2 2v0a2.333 2.333 0 0 1 2-2a2.333 2.333 0 0 1 2 2v3.2m6.138-1a1.935 1.935 0 0 1-1.7 1a2.006 2.006 0 0 1-2-2v-1.3a2 2 0 0 1 3.999 0v.7h-3.999m10.138 1.6a1.935 1.935 0 0 1-1.7 1a2.006 2.006 0 0 1-2-2v-1.3a2 2 0 1 1 4 0v.7h-3.999m6.639 2.2a2.364 2.364 0 0 0 1.6.4h.4a1.3 1.3 0 1 0 0-2.6h-.9a1.3 1.3 0 1 1 0-2.599h.4c.9 0 1.3.1 1.6.4m2.639-3.2V33.8m0-3.3a2.006 2.006 0 0 1 2-2h0a2.006 2.006 0 0 1 2 2v3.3m4.438 0a2.006 2.006 0 0 1-2-2v-1.3a2 2 0 1 1 4 0v1.3a2.006 2.006 0 0 1-2 2ZM7.988 40.083a2.84 2.84 0 0 0 2.74 2.1h26.495a2.84 2.84 0 0 0 2.76-2.1m4.409-16.307a3.12 3.12 0 0 0-3.03-3.93h-7.859L25.735 6.85a2 2 0 0 0-3.5 0l-7.768 12.998H6.608a3.12 3.12 0 0 0-3 3.929m20.377-11.928l4.77 7.999h-9.54Z"></path></svg>