<svg xmlns="http://www.w3.org/2000/svg" xmlns:xlink="http://www.w3.org/1999/xlink" aria-hidden="true" role="img" class="iconify iconify--arcticons" width="1em" height="1em" preserveAspectRatio="xMidYMid meet" viewBox="0 0 48 48"><path fill="none" stroke="currentColor" stroke-linejoin="round" d="M5.5 16v16a2 2 0 0 0 2 2h16a2 2 0 0 0 2-2V16a2 2 0 0 0-2-2h-16a2 2 0 0 0-2 2ZM9 18.5l3.25 11m3.25-11l-3.25 11m3.25-11l3.25 11m3.25-11l-3.25 11"></path><path fill="none" stroke="currentColor" stroke-linejoin="round" d="M13.23 14V6.5a2 2 0 0 1 2-2H40.5a2 2 0 0 1 2 2v35a2 2 0 0 1-2 2H15.23a2 2 0 0 1-2-2V34"></path></svg>