<svg xmlns="http://www.w3.org/2000/svg" xmlns:xlink="http://www.w3.org/1999/xlink" aria-hidden="true" role="img" class="iconify iconify--arcticons" width="1em" height="1em" preserveAspectRatio="xMidYMid meet" viewBox="0 0 48 48"><circle cx="39.393" cy="14.766" r="4.106" fill="none" stroke="currentColor"></circle><path fill="none" stroke="currentColor" d="M4.5 15.294a4.635 4.635 0 0 1 4.635-4.634c2.56 0 3.226 1.272 4.002 2.249l9.092 11.677m10.579 8.12a4.635 4.635 0 1 1-9.269 0m-19.039 0V15.293m10.491 14.433l-1.222-1.573v4.553a4.635 4.635 0 0 1-9.269 0m19.04 0v-4.553l-1.222 1.572m-14.08-8.689l5.532 7.117m9.77 0l5.605-7.224m-14.154 8.797s3.38 4.834 7.326 0M8.27 21.068c-1.548-1.93-3.46-.734-3.76 1.078m17.72 2.44c1.445 1.67 3.292 1.15 4.379-.383m2.535-3.275a2.046 2.046 0 0 1 3.653.33"></path><path fill="none" stroke="currentColor" d="M16.517 17.221c1.427 1.893 2.848 1.93 4.35.059l3.544-4.584c.688-.812 1.203-2.036 3.763-2.036a4.635 4.635 0 0 1 4.635 4.634v17.413m6.583-12.061a4.106 4.106 0 0 0-4.106 4.106v8.483a4.107 4.107 0 0 0 8.214 0v-8.483a4.107 4.107 0 0 0-4.108-4.106Z"></path></svg>