<svg xmlns="http://www.w3.org/2000/svg" xmlns:xlink="http://www.w3.org/1999/xlink" aria-hidden="true" role="img" class="iconify iconify--arcticons" width="1em" height="1em" preserveAspectRatio="xMidYMid meet" viewBox="0 0 48 48"><path fill="none" stroke="currentColor" stroke-linecap="round" stroke-linejoin="round" d="M13.93 42.5a4.06 4.06 0 0 1-2-.53a4 4 0 0 1-2-3.46v-29a4 4 0 0 1 6-3.46l25.13 14.49a4 4 0 0 1 0 6.92L15.93 42a4.07 4.07 0 0 1-2 .5Zm4-26.1v15.2L31.08 24ZM31.08 24l7.99-4.61m-29.13-7.6l7.99 4.61m0 15.2v9.21"></path></svg>