<svg xmlns="http://www.w3.org/2000/svg" xmlns:xlink="http://www.w3.org/1999/xlink" aria-hidden="true" role="img" class="iconify iconify--arcticons" width="1em" height="1em" preserveAspectRatio="xMidYMid meet" viewBox="0 0 48 48"><path fill="none" stroke="currentColor" stroke-linecap="round" stroke-miterlimit="10" stroke-width="1.21" d="M41.27 10.87V9.32a4.32 4.32 0 1 0-8.63 0v1.55a1.74 1.74 0 0 0-1.73 1.73v6.22a1.74 1.74 0 0 0 1.73 1.73h8.63A1.74 1.74 0 0 0 43 18.82V12.6a1.74 1.74 0 0 0-1.73-1.73ZM36 24a14.08 14.08 0 0 1 .14 1.73A13.74 13.74 0 0 1 32.46 35a3.42 3.42 0 0 0-3.28-2.4h-1.73v-5.15a1.72 1.72 0 0 0-1.72-1.72H15.36v-3.46h3.46a1.73 1.73 0 0 0 1.73-1.72v-3.46H24a3.46 3.46 0 0 0 3.45-3.45V9.25a17 17 0 0 0-5.18-.8a17.28 17.28 0 1 0 17.28 17.28c0-.59 0-1.16-.09-1.73ZM20.55 39.42A13.71 13.71 0 0 1 8.82 22.64l8.27 8.27v1.73a3.47 3.47 0 0 0 3.46 3.45Zm12.09-28.55h8.63"></path></svg>