<svg xmlns="http://www.w3.org/2000/svg" xmlns:xlink="http://www.w3.org/1999/xlink" aria-hidden="true" role="img" class="iconify iconify--arcticons" width="1em" height="1em" preserveAspectRatio="xMidYMid meet" viewBox="0 0 48 48"><path fill="none" d="M30.5 15.7a3.76 3.76 0 0 1 2.8 2.5m-2.5-5.8c2.8.7 4.6 2.6 5.8 5.3m-5.1-8.9c3.4.9 6.6 2.7 8.6 8.3M12.3 35.3a3.76 3.76 0 0 1 2.8 2.5M12.6 32c2.8.7 4.6 2.6 5.8 5.3m-5.1-8.9c3.4.9 6.6 2.7 8.6 8.3"></path><circle cx="24" cy="24" r="21.5" fill="none"></circle><path fill="none" d="M22.8 18.2h5.7M22.8 24h3.7m-3.7-5.8v11.6M11.1 24V12.4L18.7 24V12.4m18.2 19.3a3.82 3.82 0 0 1-3.8 3.9a3.8 3.8 0 0 1-3.8-3.8v-3.9a3.8 3.8 0 0 1 3.8-3.8a3.8 3.8 0 0 1 3.8 3.8"></path></svg>