<svg xmlns="http://www.w3.org/2000/svg" xmlns:xlink="http://www.w3.org/1999/xlink" aria-hidden="true" role="img" class="iconify iconify--arcticons" width="1em" height="1em" preserveAspectRatio="xMidYMid meet" viewBox="0 0 48 48"><path fill="none" stroke="currentColor" stroke-linecap="round" stroke-linejoin="round" d="M26.24 24A6.75 6.75 0 0 0 33 17.25h0a6.75 6.75 0 0 0-6.75-6.75h-4.49A6.75 6.75 0 0 0 15 17.25h0A6.75 6.75 0 0 0 21.76 24h0A6.75 6.75 0 0 0 15 30.75h0a6.75 6.75 0 0 0 6.75 6.75h4.48A6.75 6.75 0 0 0 33 30.75h0A6.75 6.75 0 0 0 26.24 24"></path><path fill="none" stroke="currentColor" stroke-linecap="round" stroke-linejoin="round" d="M40.5 5.5h-33a2 2 0 0 0-2 2v33a2 2 0 0 0 2 2h33a2 2 0 0 0 2-2v-33a2 2 0 0 0-2-2Z"></path></svg>