<svg xmlns="http://www.w3.org/2000/svg" xmlns:xlink="http://www.w3.org/1999/xlink" aria-hidden="true" role="img" class="iconify iconify--arcticons" width="1em" height="1em" preserveAspectRatio="xMidYMid meet" viewBox="0 0 48 48"><path fill="none" stroke="currentColor" stroke-linecap="round" stroke-linejoin="round" d="M26 37.5a6.75 6.75 0 0 0 6.75-6.75h0A6.75 6.75 0 0 0 26 24h0a6.75 6.75 0 0 0 6.75-6.75h0A6.75 6.75 0 0 0 26 10.51M15.28 35.22c1.87 1.56 3.88 2.28 8.4 2.28H26M15.28 12.76c1.87-1.56 3.88-2.27 8.4-2.26H26"></path><path fill="none" stroke="currentColor" stroke-linecap="round" stroke-linejoin="round" d="M40.5 5.5h-33a2 2 0 0 0-2 2v33a2 2 0 0 0 2 2h33a2 2 0 0 0 2-2v-33a2 2 0 0 0-2-2Z"></path></svg>