<svg xmlns="http://www.w3.org/2000/svg" xmlns:xlink="http://www.w3.org/1999/xlink" aria-hidden="true" role="img" class="iconify iconify--arcticons" width="1em" height="1em" preserveAspectRatio="xMidYMid meet" viewBox="0 0 48 48"><path fill="none" stroke="currentColor" stroke-linecap="round" stroke-linejoin="round" d="M29.859 20.763L38.5 33.496M21.647 14.504v12.745h6.682M38.5 20.763l-8.641 12.733M9.5 29.246a4.268 4.268 0 0 0 8.536 0V25a4.28 4.28 0 0 0-4.349-4.244A4.143 4.143 0 0 0 9.5 25Z"></path><path fill="none" stroke="currentColor" stroke-linecap="round" stroke-linejoin="round" d="M40.5 5.5h-33a2 2 0 0 0-2 2v33a2 2 0 0 0 2 2h33a2 2 0 0 0 2-2v-33a2 2 0 0 0-2-2Z"></path></svg>