<svg xmlns="http://www.w3.org/2000/svg" xmlns:xlink="http://www.w3.org/1999/xlink" aria-hidden="true" role="img" class="iconify iconify--arcticons" width="1em" height="1em" preserveAspectRatio="xMidYMid meet" viewBox="0 0 48 48"><path fill="none" stroke="currentColor" stroke-linecap="round" stroke-linejoin="round" d="M12 16a8.31 8.31 0 0 0-8 8a8.3 8.3 0 0 0 8 8a8.3 8.3 0 0 0 8-8a8.3 8.3 0 0 0-8-8Zm24 0a8.3 8.3 0 0 0-8 8a8.3 8.3 0 0 0 8 8a8.31 8.31 0 0 0 8-8a8.3 8.3 0 0 0-8-8ZM11.99 31.99h24.02"></path></svg>