<svg xmlns="http://www.w3.org/2000/svg" xmlns:xlink="http://www.w3.org/1999/xlink" aria-hidden="true" role="img" class="iconify iconify--arcticons" width="1em" height="1em" preserveAspectRatio="xMidYMid meet" viewBox="0 0 48 48"><path fill="none" stroke="currentColor" stroke-linecap="round" stroke-linejoin="round" d="M36.05 24a12.12 12.12 0 1 0-24.23 0"></path><path fill="none" stroke="currentColor" stroke-linecap="round" stroke-linejoin="round" d="M41.13 25.59a6 6 0 0 0 .24-1.59a5.85 5.85 0 0 0-5.85-5.85a7 7 0 0 0-.92.09a12.11 12.11 0 0 0-21.14-.31a9.1 9.1 0 0 0 .14 18.19h24a5.84 5.84 0 0 0 3.48-10.53Z"></path><path fill="none" stroke="currentColor" stroke-linecap="round" stroke-linejoin="round" d="M21.24 29.87V19.13h3.49a3.63 3.63 0 0 1 0 7.25h-3.49"></path></svg>