<svg xmlns="http://www.w3.org/2000/svg" xmlns:xlink="http://www.w3.org/1999/xlink" aria-hidden="true" role="img" class="iconify iconify--arcticons" width="1em" height="1em" preserveAspectRatio="xMidYMid meet" viewBox="0 0 48 48"><rect width="37" height="37" x="5.5" y="5.5" fill="none" stroke="currentColor" rx="2"></rect><path fill="none" stroke="currentColor" d="M5.5 24h37"></path><circle cx="32.731" cy="33.164" r="6" fill="none" stroke="currentColor"></circle><circle cx="15.269" cy="33.164" r="6" fill="none" stroke="currentColor"></circle><path fill="none" stroke="currentColor" d="M22.193 24V11.991"></path><circle cx="22.193" cy="10.491" r="1.5" fill="none" stroke="currentColor" stroke-miterlimit="10"></circle><circle cx="32.731" cy="29.776" r=".75" fill="currentColor"></circle><circle cx="15.269" cy="33.164" r=".75" fill="currentColor"></circle><circle cx="18.34" cy="33.164" r=".75" fill="currentColor"></circle><circle cx="16.769" cy="35.811" r=".75" fill="currentColor"></circle><circle cx="12.14" cy="33.164" r=".75" fill="currentColor"></circle><circle cx="13.64" cy="35.811" r=".75" fill="currentColor"></circle><circle cx="16.769" cy="30.526" r=".75" fill="currentColor"></circle><circle cx="13.64" cy="30.526" r=".75" fill="currentColor"></circle><path fill="none" stroke="currentColor" d="M38.731 16.95v-4.4m-29.462 4.4v-4.4m4.91 3.2v-2m9.821 2v-2m9.821 2v-2m-14.731 3.2v-4.4m9.82 4.4v-4.4"></path></svg>