<svg xmlns="http://www.w3.org/2000/svg" xmlns:xlink="http://www.w3.org/1999/xlink" aria-hidden="true" role="img" class="iconify iconify--arcticons" width="1em" height="1em" preserveAspectRatio="xMidYMid meet" viewBox="0 0 48 48"><path fill="none" stroke="currentColor" stroke-linecap="round" stroke-linejoin="round" d="M16.364 24.079v7.4h7.4"></path><path fill="none" stroke="currentColor" stroke-linecap="round" stroke-linejoin="round" d="M16.364 24.079a7.4 7.4 0 0 1 7.4-7.4h0a7.4 7.4 0 0 1 7.4 7.4h0a7.4 7.4 0 0 1-7.4 7.4h0"></path><path fill="none" stroke="currentColor" stroke-linecap="round" stroke-linejoin="round" d="M5.5 24A18.5 18.5 0 0 1 24 5.5h0A18.5 18.5 0 0 1 42.5 24h0A18.5 18.5 0 0 1 24 42.5h0"></path><path fill="none" stroke="currentColor" stroke-linecap="round" stroke-linejoin="round" d="M5.5 24v18.5H24"></path></svg>