<svg xmlns="http://www.w3.org/2000/svg" xmlns:xlink="http://www.w3.org/1999/xlink" aria-hidden="true" role="img" class="iconify iconify--arcticons" width="1em" height="1em" preserveAspectRatio="xMidYMid meet" viewBox="0 0 48 48"><path fill="none" d="M40.5 5.5h-33a2 2 0 0 0-2 2v33a2 2 0 0 0 2 2h33a2 2 0 0 0 2-2v-33a2 2 0 0 0-2-2Z"></path><path fill="none" stroke="currentColor" d="m5.5 17.2l37-8"></path><path fill="none" d="m14.7 18.9l-2 5.3l-2-5.3m20.6 5.3a2 2 0 0 0 2-2a2 2 0 0 0-2-2a2 2 0 0 0 2-2a2 2 0 0 0-2-2M28 23.5a3.25 3.25 0 0 0 2.5.7h.8"></path><path fill="none" d="M28 16.9a3.4 3.4 0 0 1 2.5-.7h.8m-11.1 7a1.94 1.94 0 0 1-1.7 1a2 2 0 0 1-2-2v-1.3a2 2 0 0 1 2-2a2 2 0 0 1 2 2v.7h-4m9.4 1.6a1.94 1.94 0 0 1-1.7 1a2 2 0 0 1-2-2v-1.3a2 2 0 0 1 2-2a1.94 1.94 0 0 1 1.7 1m11.4-4.8a8.79 8.79 0 0 0-2 5.1a8.79 8.79 0 0 0 2 5.1M19.2 37.9h4m-4-6.9l2-1.1m0 0v8"></path><circle cx="26" cy="37.9" r=".8" fill="currentColor"></circle><path fill="none" d="M28.8 27.8v12.5"></path></svg>