<svg xmlns="http://www.w3.org/2000/svg" xmlns:xlink="http://www.w3.org/1999/xlink" aria-hidden="true" role="img" class="iconify iconify--arcticons" width="1em" height="1em" preserveAspectRatio="xMidYMid meet" viewBox="0 0 48 48"><path fill="none" stroke="currentColor" d="M40.5 5.5h-33a2 2 0 0 0-2 2v33a2 2 0 0 0 2 2h33a2 2 0 0 0 2-2v-33a2 2 0 0 0-2-2Zm-35 7.636h37"></path><path fill="none" stroke="currentColor" d="M9.36 16.518h5.16v5.16H9.36zm0 7.997h5.16v5.16H9.36zm0 7.997h5.16v5.16H9.36zm24.12-15.994h5.16v5.16h-5.16zm0 7.997h5.16v5.16h-5.16zm0 7.997h5.16v5.16h-5.16zm-8.04-15.994h5.16v5.16h-5.16zm0 7.997h5.16v5.16h-5.16zm0 7.997h5.16v5.16h-5.16zM17.4 16.518h5.16v5.16H17.4zm0 7.997h5.16v5.16H17.4zm0 7.997h5.16v5.16H17.4z"></path></svg>