<svg xmlns="http://www.w3.org/2000/svg" xmlns:xlink="http://www.w3.org/1999/xlink" aria-hidden="true" role="img" class="iconify iconify--arcticons" width="1em" height="1em" preserveAspectRatio="xMidYMid meet" viewBox="0 0 48 48"><path fill="none" stroke="currentColor" stroke-linecap="round" stroke-linejoin="round" d="M24 4.5c8.126 0 16.022 11.402 16.022 21.75c-.007 9.535-7.163 17.258-15.984 17.25H24m0-39c-8.126 0-16.022 11.402-16.022 21.75c.007 9.535 7.163 17.258 15.984 17.25H24"></path><path fill="currentColor" d="M24.773 24.277a.71.71 0 1 1-1.42 0a.71.71 0 1 1 1.42 0Zm0 4.707a.71.71 0 1 1-1.42 0a.71.71 0 0 1 .71-.71a.71.71 0 0 1 .71.71Z"></path><path fill="none" stroke="currentColor" stroke-linecap="round" stroke-linejoin="round" d="M10.975 27.682a2.372 2.372 0 0 0 2.396 2.368a2.298 2.298 0 0 0 2.307-2.368v-2.369a2.354 2.354 0 0 0-2.307-2.368a2.43 2.43 0 0 0-2.396 2.368Zm.622 1.49l3.549-5.35m6.921 3.918h-4.703l3.815-4.795v7.105m4.881-4.737a2.354 2.354 0 0 1 2.306-2.368a2.43 2.43 0 0 1 2.396 2.368a2.383 2.383 0 0 1-.71 1.667c-.976.79-3.993 3.07-3.993 3.07h4.703m4.525-3.552a1.776 1.776 0 0 0 0-3.553h-1.153a1.776 1.776 0 0 0 0 3.553h0a1.776 1.776 0 0 0 0 3.552h1.153a1.776 1.776 0 0 0 0-3.552"></path></svg>