<svg xmlns="http://www.w3.org/2000/svg" xmlns:xlink="http://www.w3.org/1999/xlink" aria-hidden="true" role="img" class="iconify iconify--arcticons" width="1em" height="1em" preserveAspectRatio="xMidYMid meet" viewBox="0 0 48 48"><path fill="none" stroke="currentColor" stroke-linecap="round" stroke-linejoin="round" d="M38 4.5H21.28a2.93 2.93 0 0 0-2.93 2.92v.29a3.48 3.48 0 0 0-3.47 3.46v6.73a13 13 0 0 1-2.11 7.68c-1.64 2.72-4.49 5.33-4.49 10.12c0 3.66 1.85 5.49 4 5.49s4-1.82 4-5.31V17.94h2V43.5h22.5V7.42A2.93 2.93 0 0 0 38 4.5Zm-1 18.07H22V8.4h15ZM18.35 7.71v10.23"></path><path fill="none" stroke="currentColor" stroke-linecap="round" stroke-linejoin="round" d="M33.46 12.27a4.49 4.49 0 0 0-3.21-1.33a4.55 4.55 0 1 0 3.21 7.76M24 16.89h5.87M24 14.08h5.87m-13.51 3.86h-1.48"></path></svg>