<svg xmlns="http://www.w3.org/2000/svg" xmlns:xlink="http://www.w3.org/1999/xlink" aria-hidden="true" role="img" class="iconify iconify--arcticons" width="1em" height="1em" preserveAspectRatio="xMidYMid meet" viewBox="0 0 48 48"><path fill="none" stroke="currentColor" stroke-linecap="round" stroke-linejoin="round" d="M28.167 42.941V25.926M22.611 44.5V27.103m-2.778 13.791V25.926m5.556 14.968V27.103"></path><circle cx="17.876" cy="24.569" r="2.317" fill="none" stroke="currentColor" stroke-linecap="round" stroke-linejoin="round"></circle><circle cx="30.124" cy="24.569" r="2.317" fill="none" stroke="currentColor" stroke-linecap="round" stroke-linejoin="round"></circle><circle cx="30.124" cy="24.569" r=".75" fill="currentColor"></circle><circle cx="17.876" cy="24.569" r=".75" fill="currentColor"></circle><path fill="none" stroke="currentColor" stroke-linecap="round" stroke-linejoin="round" d="M30.25 22.256a24.873 24.873 0 0 0 2.01-9.797v-.699A8.26 8.26 0 0 0 24 3.5h0m-4.213 22.38a4.056 4.056 0 0 0 2.903 1.223h2.62a4.056 4.056 0 0 0 2.903-1.223M24 3.5h0a8.26 8.26 0 0 0-8.26 8.26v.699a24.874 24.874 0 0 0 2.01 9.797"></path></svg>