<svg xmlns="http://www.w3.org/2000/svg" xmlns:xlink="http://www.w3.org/1999/xlink" aria-hidden="true" role="img" class="iconify iconify--arcticons" width="1em" height="1em" preserveAspectRatio="xMidYMid meet" viewBox="0 0 48 48"><path fill="none" stroke="currentColor" stroke-linecap="round" stroke-linejoin="round" d="M24 43.5L7.11 33.75v-19.5L24 4.5l16.89 9.75v19.5L24 43.5z"></path><path fill="none" stroke="currentColor" stroke-linecap="round" stroke-linejoin="round" d="m24 34.83l10.26-17.76H13.74L24 34.83zM13.74 17.07L7.11 33.75L24 34.83L13.74 17.07zM24 34.83l16.89-1.08l-6.63-16.68L24 34.83z"></path><path fill="none" stroke="currentColor" stroke-linecap="round" stroke-linejoin="round" d="M34.26 17.07L24 4.5l16.89 9.75l-6.63 2.82zm-20.52 0L24 4.5L7.11 14.25l6.63 2.82zM24 34.83v8.67M7.11 33.75L24 43.5c-.06 0 0-8.67 0-8.67Z"></path><path fill="none" stroke="currentColor" stroke-linecap="round" stroke-linejoin="round" d="M24 43.5S7.06 33.69 7.11 33.75v8.67Z"></path></svg>