<svg xmlns="http://www.w3.org/2000/svg" xmlns:xlink="http://www.w3.org/1999/xlink" aria-hidden="true" role="img" class="iconify iconify--arcticons" width="1em" height="1em" preserveAspectRatio="xMidYMid meet" viewBox="0 0 48 48"><path fill="none" stroke="currentColor" stroke-linecap="round" stroke-linejoin="round" d="M37.712 7.444a21.497 21.497 0 1 1-30.268 2.844a21.493 21.493 0 0 1 30.268-2.844Z"></path><path fill="none" stroke="currentColor" stroke-linecap="round" stroke-linejoin="round" d="M34.81 10.943c5.229 4.339 7.702 9.988 5.522 12.617c-2.19 2.64-8.2 1.27-13.429-3.069c-5.229-4.33-7.701-9.978-5.512-12.617c2.179-2.64 8.19-1.261 13.419 3.069ZM16.328 33.265c2.209 1.838 3.264 4.232 2.336 5.347c-.929 1.123-3.48.537-5.689-1.3c-2.218-1.838-3.264-4.232-2.336-5.347c.92-1.114 3.47-.537 5.689 1.3Zm7.74-9.343c3.382 2.805 4.985 6.46 3.568 8.17c-1.417 1.701-5.307.812-8.689-1.993c-3.391-2.805-4.984-6.46-3.567-8.161c1.407-1.71 5.297-.821 8.688 1.984Z"></path></svg>