<svg xmlns="http://www.w3.org/2000/svg" xmlns:xlink="http://www.w3.org/1999/xlink" aria-hidden="true" role="img" class="iconify iconify--arcticons" width="1em" height="1em" preserveAspectRatio="xMidYMid meet" viewBox="0 0 48 48"><path fill="none" stroke="currentColor" stroke-linecap="round" stroke-linejoin="round" d="M39.5 15.5h-9a2 2 0 0 1-2-2v-9h-18a2 2 0 0 0-2 2v35a2 2 0 0 0 2 2h27a2 2 0 0 0 2-2Zm-11-11l11 11"></path><path fill="none" stroke="currentColor" stroke-linecap="round" stroke-linejoin="round" d="M16.32 40.19v-9.27h2.08a4.05 4.05 0 0 1 4.06 4v1.16a4.06 4.06 0 0 1-4.06 4.06Zm0-21.69h6.14m-3.07 9.27V18.5m6.15 6.2a3.07 3.07 0 1 0 6.14 0v-3.13a3.07 3.07 0 0 0-6.14 0Zm0 12.42a3.07 3.07 0 1 0 6.14 0V34a3.07 3.07 0 1 0-6.14 0Z"></path></svg>