<svg xmlns="http://www.w3.org/2000/svg" xmlns:xlink="http://www.w3.org/1999/xlink" aria-hidden="true" role="img" class="iconify iconify--arcticons" width="1em" height="1em" preserveAspectRatio="xMidYMid meet" viewBox="0 0 48 48"><circle cx="24" cy="24" r="21.5" fill="none" stroke="currentColor" stroke-linecap="round" stroke-linejoin="round"></circle><path fill="none" stroke="currentColor" stroke-linecap="round" stroke-linejoin="round" d="M16.375 19.788h19.656m-19.656 5.989h11.832m2.608 3.189h2.67a2.67 2.67 0 0 1 2.67 2.67v0a2.67 2.67 0 0 1-2.67 2.67h0a2.67 2.67 0 0 1-2.67-2.67v-2.67h0Zm-16.951-6.294v2.67a2.67 2.67 0 0 1-2.67 2.67h0a2.67 2.67 0 0 1-2.67-2.67h0a2.67 2.67 0 0 1 2.67-2.67h2.67Z"></path></svg>