<svg xmlns="http://www.w3.org/2000/svg" xmlns:xlink="http://www.w3.org/1999/xlink" aria-hidden="true" role="img" class="iconify iconify--arcticons" width="1em" height="1em" preserveAspectRatio="xMidYMid meet" viewBox="0 0 48 48"><circle cx="24" cy="26.372" r="10.014" fill="none" stroke="currentColor" stroke-linecap="round" stroke-linejoin="round"></circle><circle cx="24" cy="26.372" r="6.324" fill="none" stroke="currentColor" stroke-linecap="round" stroke-linejoin="round"></circle><path fill="none" stroke="currentColor" stroke-linecap="round" stroke-linejoin="round" d="M41.5 12.142h-8.457L31.2 7.992a1 1 0 0 0-.914-.593h-12.57a1 1 0 0 0-.914.594l-1.844 4.149H6.5a2 2 0 0 0-2 2v24.46a2 2 0 0 0 2 2h35a2 2 0 0 0 2-2v-24.46a2 2 0 0 0-2-2Z"></path></svg>