<svg xmlns="http://www.w3.org/2000/svg" xmlns:xlink="http://www.w3.org/1999/xlink" aria-hidden="true" role="img" class="iconify iconify--arcticons" width="1em" height="1em" preserveAspectRatio="xMidYMid meet" viewBox="0 0 48 48"><g fill="none" stroke="currentColor" stroke-miterlimit="10"><path d="M29.362 1.134c-9.539-.024-17.3 7.614-17.338 17.065c-.04 9.89 7.538 17.666 17.239 17.69c9.658.023 17.486-7.719 17.513-17.322c.026-9.594-7.78-17.408-17.414-17.433zM.898 43.051c.116 1.678 1.068 3.016 2.851 3.762c1.73.723 3.233.278 4.482-1.004c.602-.618 1.138-1.305 1.649-1.998c2.326-3.157 2.025-3.381 4.74-6.235c3.276-3.443 2.545-2.363-.185-5.342c-.682-.744-1.206-.67-1.891-.014c-3.86 3.694-5.302 4.145-9.757 7.138c-1.234.829-1.895 1.999-1.889 3.693z"></path><path stroke-linecap="round" d="m21.897 11.736l3.276 13.55m0 0l4.215-13.55m0 0l4.22 13.55m0 0l3.294-13.55"></path></g></svg>