<svg xmlns="http://www.w3.org/2000/svg" xmlns:xlink="http://www.w3.org/1999/xlink" aria-hidden="true" role="img" class="iconify iconify--arcticons" width="1em" height="1em" preserveAspectRatio="xMidYMid meet" viewBox="0 0 48 48"><path fill="none" stroke="currentColor" stroke-linecap="round" stroke-linejoin="round" d="M19.19 21a.59.59 0 0 1 .92-.49l4.51 2.95a.59.59 0 0 1 0 1l-4.51 2.95a.59.59 0 0 1-.92-.49Zm.44-5l10.81 7a1.11 1.11 0 0 1 0 1.85L19.63 32"></path><path fill="none" stroke="currentColor" stroke-linecap="round" stroke-linejoin="round" d="M43.5 37.5v-27a2 2 0 0 0-2-2h-35a2 2 0 0 0-2 2v27a2 2 0 0 0 2 2h35a2 2 0 0 0 2-2Z"></path></svg>