<svg xmlns="http://www.w3.org/2000/svg" xmlns:xlink="http://www.w3.org/1999/xlink" aria-hidden="true" role="img" class="iconify iconify--arcticons" width="1em" height="1em" preserveAspectRatio="xMidYMid meet" viewBox="0 0 48 48"><circle cx="24" cy="24" r="21.5" fill="none" stroke="currentColor" stroke-linecap="round" stroke-linejoin="round"></circle><circle cx="36.728" cy="11.272" r=".75" fill="currentColor"></circle><circle cx="36.728" cy="11.272" r=".75" fill="currentColor"></circle><circle cx="42" cy="24" r=".75" fill="currentColor"></circle><circle cx="42" cy="24" r=".75" fill="currentColor"></circle><circle cx="36.728" cy="36.728" r=".75" fill="currentColor"></circle><circle cx="36.728" cy="36.728" r=".75" fill="currentColor"></circle><circle cx="24" cy="42" r=".75" fill="currentColor"></circle><circle cx="24" cy="42" r=".75" fill="currentColor"></circle><circle cx="11.272" cy="36.728" r=".75" fill="currentColor"></circle><circle cx="11.272" cy="36.728" r=".75" fill="currentColor"></circle><circle cx="6" cy="24" r=".75" fill="currentColor"></circle><circle cx="6" cy="24" r=".75" fill="currentColor"></circle><circle cx="11.272" cy="11.272" r=".75" fill="currentColor"></circle><circle cx="11.272" cy="11.272" r=".75" fill="currentColor"></circle><circle cx="24" cy="6" r=".75" fill="currentColor"></circle><circle cx="24" cy="6" r=".75" fill="currentColor"></circle><circle cx="24" cy="24" r="15.07" fill="none" stroke="currentColor" stroke-linecap="round" stroke-linejoin="round"></circle><path fill="none" stroke="currentColor" stroke-linecap="round" stroke-linejoin="round" d="m21.29 32.5l8.943-17M24 27.349L17.767 15.5"></path></svg>