<svg xmlns="http://www.w3.org/2000/svg" xmlns:xlink="http://www.w3.org/1999/xlink" aria-hidden="true" role="img" class="iconify iconify--typcn" width="1em" height="1em" preserveAspectRatio="xMidYMid meet" viewBox="0 0 24 24" data-icon="typcn:equals-outline"><path fill="currentColor" d="M18 12H6c-1.654 0-3-1.346-3-3s1.346-3 3-3h12c1.654 0 3 1.346 3 3s-1.346 3-3 3zM6 8a1.001 1.001 0 0 0 0 2h12a1.001 1.001 0 0 0 0-2H6zm12 11H6c-1.654 0-3-1.346-3-3s1.346-3 3-3h12c1.654 0 3 1.346 3 3s-1.346 3-3 3zM6 15a1.001 1.001 0 0 0 0 2h12a1.001 1.001 0 0 0 0-2H6z"></path></svg>