<svg xmlns="http://www.w3.org/2000/svg" xmlns:xlink="http://www.w3.org/1999/xlink" aria-hidden="true" role="img" class="iconify iconify--healthicons" width="1em" height="1em" preserveAspectRatio="xMidYMid meet" viewBox="0 0 48 48" data-icon="healthicons:0-negative"><g fill="currentColor"><path d="M18 18a4 4 0 0 1 4-4h4a4 4 0 0 1 1.25.198L18 29.381V18Zm2.146 15.546l9.815-16.11c.026.184.039.373.039.564v12a4 4 0 0 1-4 4h-4c-.67 0-1.3-.163-1.854-.454Z"></path><path fill-rule="evenodd" d="M48 0H0v48h48V0ZM22 10a8 8 0 0 0-8 8v12c0 2.048.772 3.92 2.038 5.334A7.985 7.985 0 0 0 22 38h4a8 8 0 0 0 8-8V18c0-2.37-1.033-4.5-2.666-5.963A7.977 7.977 0 0 0 26 10h-4Z" clip-rule="evenodd"></path></g></svg>