<svg xmlns="http://www.w3.org/2000/svg" xmlns:xlink="http://www.w3.org/1999/xlink" aria-hidden="true" role="img" class="iconify iconify--healthicons" width="1em" height="1em" preserveAspectRatio="xMidYMid meet" viewBox="0 0 48 48" data-icon="healthicons:a-negative"><g fill="currentColor"><path d="M24 17.2L28.5 28h-9L24 17.2Z"></path><path fill-rule="evenodd" d="M48 0H0v48h48V0ZM25.846 11.23a2 2 0 0 0-3.692 0L14.67 29.19a2.01 2.01 0 0 0-.035.084l-2.482 5.957a2 2 0 1 0 3.692 1.538L17.833 32h12.334l1.987 4.77a2 2 0 0 0 3.692-1.54l-2.482-5.956a1.937 1.937 0 0 0-.035-.085l-7.483-17.958Z" clip-rule="evenodd"></path></g></svg>