<svg xmlns="http://www.w3.org/2000/svg" xmlns:xlink="http://www.w3.org/1999/xlink" aria-hidden="true" role="img" class="iconify iconify--healthicons" width="1em" height="1em" preserveAspectRatio="xMidYMid meet" viewBox="0 0 48 48" data-icon="healthicons:alert-circle-negative"><g fill="none"><g fill="currentColor" clip-path="url(#IconifyId17f59e48edc34c7434)"><path d="M24 11a2 2 0 0 1 2 2v14a2 2 0 1 1-4 0V13a2 2 0 0 1 2-2Zm2 24a2 2 0 1 0-4 0a2 2 0 0 0 4 0Z"></path><path fill-rule="evenodd" d="M0 48h48V0H0v48ZM24 4C12.954 4 4 12.954 4 24s8.954 20 20 20s20-8.954 20-20S35.046 4 24 4Z" clip-rule="evenodd"></path></g><defs><clipPath id="IconifyId17f59e48edc34c7434"><path fill="#fff" d="M0 0h48v48H0z"></path></clipPath></defs></g></svg>