<svg xmlns="http://www.w3.org/2000/svg" xmlns:xlink="http://www.w3.org/1999/xlink" aria-hidden="true" role="img" class="iconify iconify--healthicons" width="1em" height="1em" preserveAspectRatio="xMidYMid meet" viewBox="0 0 48 48" data-icon="healthicons:arm-negative"><path fill="currentColor" fill-rule="evenodd" d="M48 0H0v48h48V0ZM4 27v10h9.053c1.29 0 2.57-.208 3.794-.616L21 35h1.343a4 4 0 0 0 2.829-1.172L26 33l2.147-.859a12 12 0 0 0 4.806-3.513L38 22.5l5-3l1-7l-.083-.062a2 2 0 0 0-2.989.705L40 15l-2 1.5l.712-.978a2 2 0 0 0-.345-2.72L38 12.5l-3.123 3.904a4 4 0 0 0-.877 2.5V21l-5.282 1.668a12 12 0 0 0-6.562 5.083L22 28l-2.567-.642a11.999 11.999 0 0 0-2.91-.358H4Z" clip-rule="evenodd"></path></svg>