<svg xmlns="http://www.w3.org/2000/svg" xmlns:xlink="http://www.w3.org/1999/xlink" aria-hidden="true" role="img" class="iconify iconify--healthicons" width="1em" height="1em" preserveAspectRatio="xMidYMid meet" viewBox="0 0 48 48" data-icon="healthicons:b-negative"><g fill="currentColor"><path d="M30 18a4 4 0 0 1-4 4h-8v-8h8a4 4 0 0 1 4 4Zm-4 8h-8v8h8a4 4 0 0 0 0-8Z"></path><path fill-rule="evenodd" d="M48 0H0v48h48V0ZM16 10a2 2 0 0 0-2 2v24a2 2 0 0 0 2 2h10a8 8 0 0 0 5.292-14A8 8 0 0 0 26 10H16Z" clip-rule="evenodd"></path></g></svg>