<svg xmlns="http://www.w3.org/2000/svg" xmlns:xlink="http://www.w3.org/1999/xlink" aria-hidden="true" role="img" class="iconify iconify--healthicons" width="0.98em" height="1em" preserveAspectRatio="xMidYMid meet" viewBox="0 0 48 49" data-icon="healthicons:baby-0203-alt-negative"><g fill="none"><g clip-path="url(#IconifyId17f59e48edc34c7431)"><path fill="currentColor" fill-rule="evenodd" d="M0 .25h48v48H0v-48Zm24 18a6 6 0 1 0 0-12a6 6 0 0 0 0 12Zm-9 16.041V16.697c.99.407 2.012.9 3.047 1.466c.191.11.38.215.568.317a40.935 40.935 0 0 1 6.371 4.522c3.579 3.091 6.57 6.764 8.014 10.434v.855c0 3.98-2.813 7.959-9 7.959c-6.188 0-9-4.548-9-7.959ZM26.293 21.49a43.134 43.134 0 0 0-1.26-1.048c2.457-.005 4.925-1.013 7.967-3.191v11.83c-1.738-2.752-4.107-5.346-6.707-7.591Z" clip-rule="evenodd"></path></g><defs><clipPath id="IconifyId17f59e48edc34c7431"><path fill="#fff" d="M0 0h48v48H0z" transform="translate(0 .25)"></path></clipPath></defs></g></svg>