<svg xmlns="http://www.w3.org/2000/svg" xmlns:xlink="http://www.w3.org/1999/xlink" aria-hidden="true" role="img" class="iconify iconify--healthicons" width="1em" height="1em" preserveAspectRatio="xMidYMid meet" viewBox="0 0 48 48" data-icon="healthicons:basic-motorcycle"><g fill="currentColor"><path fill-rule="evenodd" d="M37.5 35a3.5 3.5 0 1 1 0-7a3.5 3.5 0 0 1 0 7Zm0 3a6.5 6.5 0 1 1 0-13a6.5 6.5 0 0 1 0 13Z" clip-rule="evenodd"></path><path fill-rule="evenodd" d="M29.416 10.598A1 1 0 0 0 28.5 10H23v2h4.847l8.737 19.902a1 1 0 0 0 1.832-.804l-9-20.5ZM10.5 35a3.5 3.5 0 1 1 0-7a3.5 3.5 0 0 1 0 7Zm0 3a6.5 6.5 0 1 1 0-13a6.5 6.5 0 0 1 0 13Z" clip-rule="evenodd"></path><path fill-rule="evenodd" d="M33.63 22.724a1 1 0 0 0-1.406.145l-6.2 7.631H10.5a1 1 0 1 0 0 2h16a1 1 0 0 0 .776-.37l6.5-8a1 1 0 0 0-.145-1.406Z" clip-rule="evenodd"></path><path d="M28 25H17.5a1.5 1.5 0 0 0 0 3H25a3 3 0 0 0 3-3Zm-.058-8h-4.257c-3.142 0-5.447 2.952-4.685 6h10.382a1 1 0 0 0 .894-1.447l-2.25-4.501a.094.094 0 0 0-.084-.052ZM6 19a1 1 0 0 1 1-1h5.097A5 5 0 0 1 16 19.877l1.2 1.498A1 1 0 0 1 16.418 23H7a1 1 0 0 1-1-1v-3Zm28-2.5l6.067-2.5l.933 6l-6.067-1L34 16.5Z"></path><path fill-rule="evenodd" d="m22.626 31.986l-2.5-4.5l1.748-.972l2.5 4.5l-1.748.972Z" clip-rule="evenodd"></path></g></svg>