<svg xmlns="http://www.w3.org/2000/svg" xmlns:xlink="http://www.w3.org/1999/xlink" aria-hidden="true" role="img" class="iconify iconify--healthicons" width="1em" height="1em" preserveAspectRatio="xMidYMid meet" viewBox="0 0 48 48" data-icon="healthicons:blister-pills-oval-x1-negative"><g fill="currentColor"><path fill-rule="evenodd" d="M48 0H0v48h48V0ZM12 8a4 4 0 0 1 4-4h16a4 4 0 0 1 4 4v15a1 1 0 1 0 0 2v15a4 4 0 0 1-4 4H16a4 4 0 0 1-4-4V25a1 1 0 1 0 0-2V8Zm3 17a1 1 0 1 0 0-2a1 1 0 0 0 0 2Zm4-1a1 1 0 1 1-2 0a1 1 0 0 1 2 0Zm2 1a1 1 0 1 0 0-2a1 1 0 0 0 0 2Zm4-1a1 1 0 1 1-2 0a1 1 0 0 1 2 0Zm2 1a1 1 0 1 0 0-2a1 1 0 0 0 0 2Zm4-1a1 1 0 1 1-2 0a1 1 0 0 1 2 0Zm2 1a1 1 0 1 0 0-2a1 1 0 0 0 0 2Z" clip-rule="evenodd"></path><path d="M24.243 11.414a2 2 0 0 1 2.828 2.829l-2.828 2.828a2 2 0 0 1-2.829-2.828l2.829-2.829Z"></path></g></svg>