<svg xmlns="http://www.w3.org/2000/svg" xmlns:xlink="http://www.w3.org/1999/xlink" aria-hidden="true" role="img" class="iconify iconify--healthicons" width="1em" height="1em" preserveAspectRatio="xMidYMid meet" viewBox="0 0 48 48" data-icon="healthicons:blister-pills-round-x1-outline"><g fill="currentColor"><path d="M19 24a1 1 0 1 1-2 0a1 1 0 0 1 2 0Zm3 1a1 1 0 1 0 0-2a1 1 0 0 0 0 2Zm5-1a1 1 0 1 1-2 0a1 1 0 0 1 2 0Zm3 1a1 1 0 1 0 0-2a1 1 0 0 0 0 2Zm-6-8a3 3 0 1 0 0-6a3 3 0 0 0 0 6Z"></path><path fill-rule="evenodd" d="M12 8a4 4 0 0 1 4-4h16a4 4 0 0 1 4 4v32a4 4 0 0 1-4 4H16a4 4 0 0 1-4-4V8Zm20-2a2 2 0 0 1 2 2v15a1 1 0 1 0 0 2v15a2 2 0 0 1-2 2H16a2 2 0 0 1-2-2V25a1 1 0 1 0 0-2V8a2 2 0 0 1 2-2h16Z" clip-rule="evenodd"></path></g></svg>