<svg xmlns="http://www.w3.org/2000/svg" xmlns:xlink="http://www.w3.org/1999/xlink" aria-hidden="true" role="img" class="iconify iconify--healthicons" width="1em" height="1em" preserveAspectRatio="xMidYMid meet" viewBox="0 0 48 48" data-icon="healthicons:blister-pills-oval-x4"><path fill="currentColor" fill-rule="evenodd" d="M12 8a4 4 0 0 1 4-4h16a4 4 0 0 1 4 4v15a1 1 0 1 0 0 2v15a4 4 0 0 1-4 4H16a4 4 0 0 1-4-4V25a1 1 0 1 0 0-2V8Zm3 17a1 1 0 1 0 0-2a1 1 0 0 0 0 2Zm4-1a1 1 0 1 1-2 0a1 1 0 0 1 2 0Zm2 1a1 1 0 1 0 0-2a1 1 0 0 0 0 2Zm4-1a1 1 0 1 1-2 0a1 1 0 0 1 2 0Zm2 1a1 1 0 1 0 0-2a1 1 0 0 0 0 2Zm4-1a1 1 0 1 1-2 0a1 1 0 0 1 2 0Zm2 1a1 1 0 1 0 0-2a1 1 0 0 0 0 2ZM22.071 11.414a2 2 0 0 0-2.828 0l-2.829 2.829a2 2 0 0 0 2.829 2.828l2.828-2.828a2 2 0 0 0 0-2.829Zm6.172 0a2 2 0 0 1 2.828 2.829l-2.828 2.828a2 2 0 0 1-2.829-2.828l2.829-2.829Zm-6.172 20a2 2 0 0 0-2.828 0l-2.829 2.829a2 2 0 0 0 2.829 2.828l2.828-2.828a2 2 0 0 0 0-2.829Zm6.172 0a2 2 0 0 1 2.828 2.829l-2.828 2.828a2 2 0 0 1-2.829-2.828l2.829-2.829Z" clip-rule="evenodd"></path></svg>