<svg xmlns="http://www.w3.org/2000/svg" xmlns:xlink="http://www.w3.org/1999/xlink" aria-hidden="true" role="img" class="iconify iconify--healthicons" width="1em" height="1em" preserveAspectRatio="xMidYMid meet" viewBox="0 0 48 48" data-icon="healthicons:blister-pills-oval-x1-outline"><g fill="currentColor"><path d="M27.071 11.414a2 2 0 0 0-2.828 0l-2.829 2.829a2 2 0 0 0 2.829 2.828l2.828-2.828a2 2 0 0 0 0-2.829ZM18 25a1 1 0 1 0 0-2a1 1 0 0 0 0 2Zm5-1a1 1 0 1 1-2 0a1 1 0 0 1 2 0Zm3 1a1 1 0 1 0 0-2a1 1 0 0 0 0 2Zm5-1a1 1 0 1 1-2 0a1 1 0 0 1 2 0Z"></path><path fill-rule="evenodd" d="M12 8a4 4 0 0 1 4-4h16a4 4 0 0 1 4 4v32a4 4 0 0 1-4 4H16a4 4 0 0 1-4-4V8Zm2 0a2 2 0 0 1 2-2h16a2 2 0 0 1 2 2v15a1 1 0 1 0 0 2v15a2 2 0 0 1-2 2H16a2 2 0 0 1-2-2V25a1 1 0 1 0 0-2V8Z" clip-rule="evenodd"></path></g></svg>