<svg xmlns="http://www.w3.org/2000/svg" xmlns:xlink="http://www.w3.org/1999/xlink" aria-hidden="true" role="img" class="iconify iconify--healthicons" width="1em" height="1em" preserveAspectRatio="xMidYMid meet" viewBox="0 0 48 48" data-icon="healthicons:blister-pills-round-x14-outline"><defs><path id="IconifyId17f59e48edc34c7435" d="M24.6 42.806c.331 0 .6.267.6.597c0 .33-.269.597-.6.597a.598.598 0 0 1-.6-.597c0-.33.269-.597.6-.597Zm0-2.986a.598.598 0 1 1 0 1.194a.598.598 0 0 1-.6-.596c0-.33.269-.597.6-.597Zm0-2.984c.331 0 .6.267.6.597c0 .33-.269.597-.6.597a.598.598 0 0 1-.6-.597c0-.33.269-.597.6-.597Zm0-2.986a.598.598 0 1 1 0 1.194a.598.598 0 0 1-.6-.596c0-.33.269-.597.6-.597Zm0-2.984c.331 0 .6.267.6.597c0 .33-.269.597-.6.597a.598.598 0 0 1-.6-.597c0-.33.269-.597.6-.597Zm0-2.986a.599.599 0 1 1 0 1.194a.599.599 0 0 1-.6-.596c0-.33.269-.597.6-.597Zm0-2.985a.598.598 0 1 1 0 1.194a.598.598 0 0 1-.6-.596a.6.6 0 0 1 .6-.598Zm0-2.985a.598.598 0 1 1 0 1.194a.598.598 0 0 1-.6-.596a.6.6 0 0 1 .6-.598Zm0-2.985a.6.6 0 0 1 .6.597c0 .33-.269.597-.6.597a.598.598 0 0 1-.6-.597c0-.33.269-.597.6-.597Zm0-2.985a.6.6 0 0 1 .6.597c0 .33-.269.597-.6.597a.598.598 0 0 1-.6-.597c0-.33.269-.597.6-.597Zm0-2.985a.6.6 0 0 1 .6.597c0 .33-.269.597-.6.597a.598.598 0 0 1-.6-.597c0-.33.269-.597.6-.597Zm0-2.985c.331 0 .6.267.6.597c0 .33-.269.597-.6.597a.598.598 0 0 1-.6-.597c0-.33.269-.597.6-.597Zm0-2.985c.331 0 .6.267.6.597c0 .33-.269.597-.6.597a.598.598 0 0 1-.6-.597c0-.33.269-.597.6-.597ZM24.6 4c.331 0 .6.267.6.597c0 .33-.269.597-.6.597a.598.598 0 0 1-.6-.597c0-.33.269-.597.6-.597Zm-3.4 5.677c0 .824-.672 1.492-1.5 1.492s-1.5-.668-1.5-1.492c0-.825.672-1.493 1.5-1.493s1.5.668 1.5 1.493Zm0 4.808c0 .825-.672 1.493-1.5 1.493s-1.5-.668-1.5-1.493c0-.824.672-1.492 1.5-1.492s1.5.668 1.5 1.492Zm0 4.809c0 .824-.672 1.492-1.5 1.492s-1.5-.668-1.5-1.492c0-.825.672-1.493 1.5-1.493s1.5.669 1.5 1.493Zm0 4.808c0 .825-.672 1.493-1.5 1.493s-1.5-.668-1.5-1.493c0-.824.672-1.492 1.5-1.492s1.5.668 1.5 1.492Zm0 4.809c0 .824-.672 1.492-1.5 1.492s-1.5-.668-1.5-1.492s.672-1.492 1.5-1.492s1.5.668 1.5 1.492Zm0 4.809c0 .824-.672 1.492-1.5 1.492s-1.5-.668-1.5-1.492c0-.825.672-1.493 1.5-1.493s1.5.668 1.5 1.493Zm0 4.808c0 .825-.672 1.493-1.5 1.493s-1.5-.669-1.5-1.493c0-.824.672-1.492 1.5-1.492s1.5.668 1.5 1.492ZM31 9.677c0 .824-.672 1.492-1.5 1.492S28 10.501 28 9.677c0-.825.672-1.493 1.5-1.493s1.5.668 1.5 1.493Zm0 4.808c0 .825-.672 1.493-1.5 1.493S28 15.31 28 14.485c0-.824.672-1.492 1.5-1.492s1.5.668 1.5 1.492Zm0 4.809c0 .824-.672 1.492-1.5 1.492s-1.5-.668-1.5-1.492s.672-1.493 1.5-1.493s1.5.669 1.5 1.493Zm0 4.808c0 .825-.672 1.493-1.5 1.493s-1.5-.668-1.5-1.492c0-.825.672-1.493 1.5-1.493s1.5.668 1.5 1.492Zm0 4.809c0 .824-.672 1.493-1.5 1.493S28 29.735 28 28.91c0-.824.672-1.492 1.5-1.492s1.5.668 1.5 1.492Zm0 4.809c0 .824-.672 1.492-1.5 1.492S28 34.544 28 33.72c0-.825.672-1.493 1.5-1.493s1.5.668 1.5 1.493Zm0 4.808c0 .825-.672 1.493-1.5 1.493s-1.5-.669-1.5-1.493c0-.824.672-1.492 1.5-1.492s1.5.668 1.5 1.492Z"></path><path id="IconifyId17f59e48edc34c7436" d="M12 8a4 4 0 0 1 4-4h16a4 4 0 0 1 4 4v32a4 4 0 0 1-4 4H16a4 4 0 0 1-4-4V8Z"></path></defs><mask id="IconifyId17f59e48edc34c7437" fill="#fff"><use xlink:href="#IconifyId17f59e48edc34c7435"></use><use xlink:href="#IconifyId17f59e48edc34c7436"></use></mask><g fill="none" stroke="currentColor" stroke-width="4"><use xlink:href="#IconifyId17f59e48edc34c7435" mask="url(#IconifyId17f59e48edc34c7437)"></use><use xlink:href="#IconifyId17f59e48edc34c7436" mask="url(#IconifyId17f59e48edc34c7437)"></use></g></svg>