<svg xmlns="http://www.w3.org/2000/svg" xmlns:xlink="http://www.w3.org/1999/xlink" aria-hidden="true" role="img" class="iconify iconify--healthicons" width="1em" height="1em" preserveAspectRatio="xMidYMid meet" viewBox="0 0 48 48" data-icon="healthicons:blister-pills-round-x14-negative"><g fill="currentColor"><path d="M23.6 39.8a.6.6 0 1 1 0 1.2a.6.6 0 0 1 0-1.2Zm.6-2.4a.6.6 0 1 0-1.2 0a.6.6 0 0 0 1.2 0Zm-.6-3.6a.6.6 0 1 1 0 1.2a.6.6 0 0 1 0-1.2Zm.6-2.4a.6.6 0 1 0-1.2 0a.6.6 0 0 0 1.2 0Zm-.6-3.6a.6.6 0 1 1 0 1.2a.6.6 0 0 1 0-1.2Zm.6-2.4a.6.6 0 1 0-1.2 0a.6.6 0 0 0 1.2 0Zm-.6-3.6a.6.6 0 1 1 0 1.2a.6.6 0 0 1 0-1.2Zm.6-2.4a.6.6 0 1 0-1.2 0a.6.6 0 0 0 1.2 0Zm-.6-3.6a.6.6 0 1 1 0 1.2a.6.6 0 0 1 0-1.2Zm.6-2.4a.6.6 0 1 0-1.2 0a.6.6 0 0 0 1.2 0Zm-.6-3.6a.6.6 0 1 1 0 1.2a.6.6 0 0 1 0-1.2Zm.6-2.4a.6.6 0 1 0-1.2 0a.6.6 0 0 0 1.2 0Z"></path><path fill-rule="evenodd" d="M48 0H0v48h48V0ZM16 4h7.153a.6.6 0 1 0 .894 0H32a4 4 0 0 1 4 4v32a4 4 0 0 1-4 4h-8.4a.6.6 0 1 0 0-1.2a.6.6 0 0 0 0 1.2H16a4 4 0 0 1-4-4V8a4 4 0 0 1 4-4Z" clip-rule="evenodd"></path><path d="M19 8.5a1.5 1.5 0 1 1-3 0a1.5 1.5 0 0 1 3 0Zm0 5a1.5 1.5 0 1 1-3 0a1.5 1.5 0 0 1 3 0Zm0 5a1.5 1.5 0 1 1-3 0a1.5 1.5 0 0 1 3 0Zm0 5a1.5 1.5 0 1 1-3 0a1.5 1.5 0 0 1 3 0Zm0 5a1.5 1.5 0 1 1-3 0a1.5 1.5 0 0 1 3 0Zm0 5a1.5 1.5 0 1 1-3 0a1.5 1.5 0 0 1 3 0Zm0 5a1.5 1.5 0 1 1-3 0a1.5 1.5 0 0 1 3 0Zm12-30a1.5 1.5 0 1 1-3 0a1.5 1.5 0 0 1 3 0Zm0 5a1.5 1.5 0 1 1-3 0a1.5 1.5 0 0 1 3 0Zm0 5a1.5 1.5 0 1 1-3 0a1.5 1.5 0 0 1 3 0Zm0 5a1.5 1.5 0 1 1-3 0a1.5 1.5 0 0 1 3 0Zm0 5a1.5 1.5 0 1 1-3 0a1.5 1.5 0 0 1 3 0Zm0 5a1.5 1.5 0 1 1-3 0a1.5 1.5 0 0 1 3 0Zm0 5a1.5 1.5 0 1 1-3 0a1.5 1.5 0 0 1 3 0Z"></path></g></svg>