<svg xmlns="http://www.w3.org/2000/svg" xmlns:xlink="http://www.w3.org/1999/xlink" aria-hidden="true" role="img" class="iconify iconify--healthicons" width="1em" height="1em" preserveAspectRatio="xMidYMid meet" viewBox="0 0 48 48" data-icon="healthicons:blister-pills-round-x16-outline"><g fill="currentColor"><path d="M12 8a4 4 0 0 1 4-4h16a4 4 0 0 1 4 4v32a4 4 0 0 1-4 4H16a4 4 0 0 1-4-4V8Z"></path><path d="M15 24a1 1 0 1 1-2 0a1 1 0 0 1 2 0Zm4 0a1 1 0 1 1-2 0a1 1 0 0 1 2 0Zm4 0a1 1 0 1 1-2 0a1 1 0 0 1 2 0Zm4 0a1 1 0 1 1-2 0a1 1 0 0 1 2 0Zm4 0a1 1 0 1 1-2 0a1 1 0 0 1 2 0Zm4 0a1 1 0 1 1-2 0a1 1 0 0 1 2 0ZM18 10.5a1.5 1.5 0 1 1-3 0a1.5 1.5 0 0 1 3 0Zm5 0a1.5 1.5 0 1 1-3 0a1.5 1.5 0 0 1 3 0Zm5 0a1.5 1.5 0 1 1-3 0a1.5 1.5 0 0 1 3 0Zm5 0a1.5 1.5 0 1 1-3 0a1.5 1.5 0 0 1 3 0Zm-15 5a1.5 1.5 0 1 1-3 0a1.5 1.5 0 0 1 3 0Zm5 0a1.5 1.5 0 1 1-3 0a1.5 1.5 0 0 1 3 0Zm5 0a1.5 1.5 0 1 1-3 0a1.5 1.5 0 0 1 3 0Zm5 0a1.5 1.5 0 1 1-3 0a1.5 1.5 0 0 1 3 0Zm-15 16a1.5 1.5 0 1 1-3 0a1.5 1.5 0 0 1 3 0Zm5 0a1.5 1.5 0 1 1-3 0a1.5 1.5 0 0 1 3 0Zm5 0a1.5 1.5 0 1 1-3 0a1.5 1.5 0 0 1 3 0Zm5 0a1.5 1.5 0 1 1-3 0a1.5 1.5 0 0 1 3 0Zm-15 5a1.5 1.5 0 1 1-3 0a1.5 1.5 0 0 1 3 0Zm5 0a1.5 1.5 0 1 1-3 0a1.5 1.5 0 0 1 3 0Zm5 0a1.5 1.5 0 1 1-3 0a1.5 1.5 0 0 1 3 0Zm5 0a1.5 1.5 0 1 1-3 0a1.5 1.5 0 0 1 3 0Z"></path></g></svg>