<svg xmlns="http://www.w3.org/2000/svg" xmlns:xlink="http://www.w3.org/1999/xlink" aria-hidden="true" role="img" class="iconify iconify--healthicons" width="1em" height="1em" preserveAspectRatio="xMidYMid meet" viewBox="0 0 48 48"><g fill="currentColor" fill-rule="evenodd" clip-rule="evenodd"><path d="M8 40V7H6v34a1 1 0 0 0 1 1h34v-2H8Z"></path><path d="m39.768 19.64l-10 12a1 1 0 0 1-1.084.309L17.33 28.164L7.768 39.64l-1.536-1.28l10-12a1 1 0 0 1 1.084-.309l11.353 3.785l9.563-11.476l1.536 1.28Z"></path><path d="m38.768 10.64l-10 12a1 1 0 0 1-1.11.3l-10.37-3.771L7.74 29.673l-1.48-1.346l10-11a1 1 0 0 1 1.082-.267l10.34 3.76l9.55-11.46l1.536 1.28Z"></path></g></svg>