<svg xmlns="http://www.w3.org/2000/svg" xmlns:xlink="http://www.w3.org/1999/xlink" aria-hidden="true" role="img" class="iconify iconify--healthicons" width="1em" height="1em" preserveAspectRatio="xMidYMid meet" viewBox="0 0 48 48"><g fill="currentColor"><path fill-rule="evenodd" d="M8 40V7H6v34a1 1 0 0 0 1 1h34v-2H8Z" clip-rule="evenodd"></path><path fill-rule="evenodd" d="M11 25a1 1 0 0 1 1-1h6a1 1 0 0 1 1 1v16a1 1 0 0 1-1 1h-6a1 1 0 0 1-1-1V25Zm2 1v14h4V26h-4Z" clip-rule="evenodd"></path><path d="M12 33h6v8h-6v-8Z"></path><path fill-rule="evenodd" d="M11 33a1 1 0 0 1 1-1h6a1 1 0 0 1 1 1v8a1 1 0 0 1-1 1h-6a1 1 0 0 1-1-1v-8Zm2 1v6h4v-6h-4Zm8-13a1 1 0 0 1 1-1h6a1 1 0 0 1 1 1v20a1 1 0 0 1-1 1h-6a1 1 0 0 1-1-1V21Zm2 1v18h4V22h-4Z" clip-rule="evenodd"></path><path d="M22 29h6v12h-6V29Z"></path><path fill-rule="evenodd" d="M21 29a1 1 0 0 1 1-1h6a1 1 0 0 1 1 1v12a1 1 0 0 1-1 1h-6a1 1 0 0 1-1-1V29Zm2 1v10h4V30h-4Zm8-17a1 1 0 0 1 1-1h6a1 1 0 0 1 1 1v28a1 1 0 0 1-1 1h-6a1 1 0 0 1-1-1V13Zm2 1v26h4V14h-4Z" clip-rule="evenodd"></path><path d="M32 25h6v16h-6V25Z"></path><path fill-rule="evenodd" d="M31 25a1 1 0 0 1 1-1h6a1 1 0 0 1 1 1v16a1 1 0 0 1-1 1h-6a1 1 0 0 1-1-1V25Zm2 1v14h4V26h-4Z" clip-rule="evenodd"></path></g></svg>