<svg xmlns="http://www.w3.org/2000/svg" xmlns:xlink="http://www.w3.org/1999/xlink" aria-hidden="true" role="img" class="iconify iconify--healthicons" width="1em" height="1em" preserveAspectRatio="xMidYMid meet" viewBox="0 0 48 48"><g fill="currentColor" fill-rule="evenodd" clip-rule="evenodd"><path d="M8 40V7H6v34a1 1 0 0 0 1 1h34v-2H8Z"></path><path d="m14.772 27.136l-7 8.5l-1.544-1.272l7-8.5l1.544 1.272Zm9.843 1.287l-6-2.5l.77-1.846l6 2.5l-.77 1.846Zm12.165-9.298l-6 7.5l-1.56-1.25l6-7.5l1.56 1.25Z"></path><path d="M16 26a2 2 0 1 0 0-4a2 2 0 0 0 0 4Zm0 2a4 4 0 1 0 0-8a4 4 0 0 0 0 8Zm12 2a2 2 0 1 0 0-4a2 2 0 0 0 0 4Zm0 2a4 4 0 1 0 0-8a4 4 0 0 0 0 8Zm10-14a2 2 0 1 0 0-4a2 2 0 0 0 0 4Zm0 2a4 4 0 1 0 0-8a4 4 0 0 0 0 8Z"></path></g></svg>