<svg xmlns="http://www.w3.org/2000/svg" xmlns:xlink="http://www.w3.org/1999/xlink" aria-hidden="true" role="img" class="iconify iconify--healthicons" width="1em" height="1em" preserveAspectRatio="xMidYMid meet" viewBox="0 0 48 48"><g fill="currentColor"><path fill-rule="evenodd" d="M8 40V7H6v34a1 1 0 0 0 1 1h35v-2H8Z" clip-rule="evenodd"></path><path fill-rule="evenodd" d="m15.285 26.12l-7.5 9.5l-1.57-1.24l7.5-9.5l1.57 1.24Zm12.399 2.829l-12-4l.632-1.898l12 4l-.632 1.898Z" clip-rule="evenodd"></path><path fill-rule="evenodd" d="m38.768 16.64l-10 12l-1.536-1.28l10-12l1.536 1.28Z" clip-rule="evenodd"></path><path d="M19 24a3 3 0 1 1-6 0a3 3 0 0 1 6 0Z"></path><path fill-rule="evenodd" d="M16 25a1 1 0 1 0 0-2a1 1 0 0 0 0 2Zm0 2a3 3 0 1 0 0-6a3 3 0 0 0 0 6Z" clip-rule="evenodd"></path><path d="M31 28a3 3 0 1 1-6 0a3 3 0 0 1 6 0Z"></path><path fill-rule="evenodd" d="M28 29a1 1 0 1 0 0-2a1 1 0 0 0 0 2Zm0 2a3 3 0 1 0 0-6a3 3 0 0 0 0 6Z" clip-rule="evenodd"></path><path d="M41 16a3 3 0 1 1-6 0a3 3 0 0 1 6 0Z"></path><path fill-rule="evenodd" d="M38 17a1 1 0 1 0 0-2a1 1 0 0 0 0 2Zm0 2a3 3 0 1 0 0-6a3 3 0 0 0 0 6Z" clip-rule="evenodd"></path></g></svg>