<svg xmlns="http://www.w3.org/2000/svg" xmlns:xlink="http://www.w3.org/1999/xlink" aria-hidden="true" role="img" class="iconify iconify--healthicons" width="1em" height="1em" preserveAspectRatio="xMidYMid meet" viewBox="0 0 48 48"><g fill="currentColor" fill-rule="evenodd" clip-rule="evenodd"><path d="M38.18 14.017a1 1 0 0 1 .803 1.164c-1.457 7.928-4.976 13.426-9.935 16.921C24.112 35.582 17.858 37 11.052 37H7a1 1 0 1 1 0-2h4.052c6.552 0 12.354-1.368 16.843-4.532c4.467-3.148 7.743-8.15 9.122-15.649a1 1 0 0 1 1.164-.803Z"></path><path d="M38.616 13.03a1 1 0 0 1 .644.505l2.625 5a1 1 0 1 1-1.77.93l-2.102-4.004l-3.447 2.364a1 1 0 1 1-1.132-1.65l4.376-3a1 1 0 0 1 .806-.146ZM8 6v34h34v2H7a1 1 0 0 1-1-1V6h2Z"></path><path d="M14.694 19.846a.302.302 0 0 1-.01-.021c-.022-.054-.069-.198-.069-.477c0-1.484-.657-2.43-.968-2.877a3.415 3.415 0 0 1-.12-.181c-.174-.292-.527-.931-.527-3.047c0-1.702.756-2.933 1.976-3.806C16.256 8.522 18.074 8 20 8c1.926 0 3.745.522 5.024 1.437c1.22.873 1.976 2.104 1.976 3.806c0 2.116-.353 2.755-.526 3.047c-.028.046-.07.107-.121.18c-.31.448-.968 1.394-.968 2.878c0 .2-.042.293-.06.327a.374.374 0 0 1-.103.12a.703.703 0 0 1-.16.096l-.006.003a1.996 1.996 0 0 0-1.042.644a2.102 2.102 0 0 0-.301.461a4.89 4.89 0 0 0-.13.286a9.756 9.756 0 0 0-.517 1.619c-.795.093-1.882.096-3.066.096c-1.146 0-2.201-.003-2.99-.087a7.516 7.516 0 0 0-.111-.703a4.04 4.04 0 0 0-.403-1.128c-.171-.306-.722-1.13-1.802-1.236Zm-2.079-.498c0 2.035 1.385 2.487 1.846 2.487c.462 0 .616 1.356.616 2.26C15.077 25 17.692 25 20 25s4.923 0 4.923-.904c0-.905.577-2.261.616-2.261c.038 0 1.846-.453 1.846-2.487c0-.805.252-1.186.558-1.646C28.41 17 29 16.112 29 13.243c0-9.657-18-9.657-18 0c0 2.87.59 3.757 1.057 4.46c.306.46.558.84.558 1.645Z"></path><path d="M17.5 16a.5.5 0 1 0 0 1a.5.5 0 0 0 0-1Zm-2.5.5a2.5 2.5 0 1 1 5 0a2.5 2.5 0 0 1-5 0Z"></path><path d="M22.465 15.999a.608.608 0 1 0 0 1.217a.608.608 0 0 0 0-1.217Zm-2.608.61a2.609 2.609 0 1 1 5.217-.004a2.609 2.609 0 0 1-5.218.004Z"></path></g></svg>