<svg xmlns="http://www.w3.org/2000/svg" xmlns:xlink="http://www.w3.org/1999/xlink" aria-hidden="true" role="img" class="iconify iconify--healthicons" width="1em" height="1em" preserveAspectRatio="xMidYMid meet" viewBox="0 0 48 48"><g fill="currentColor"><path d="M42.982 28.942c.002 1.6-1.317 2.858-2.997 2.86c-1.68.001-3.002-1.255-3.003-2.855c-.001-1.6 2.996-5.145 2.996-5.145s3.003 3.654 3.004 5.14Z"></path><path fill-rule="evenodd" d="m24.126 17.598l17.719-.015a2.128 2.128 0 1 1 .003 4.256h-.005c.086-.167.133-.349.133-.54c0-.828-.897-1.498-2.001-1.497c-1.105 0-2 .673-2 1.501c.001.19.048.372.134.54l-13.022.01l.001 1.064l6.89-.005a2 2 0 0 1 2 1.998l.001.256a2 2 0 0 1-1.998 2.002l-6.89.005l.002 1.064l5.777-.004a2 2 0 0 1 2.002 1.998v.256a2 2 0 0 1-1.998 2.002l-8 .006v1.064l4.112-.003a2 2 0 0 1 2.002 1.998v.257a2 2 0 0 1-1.999 2.001l-7.444.006l-4.1.004c-6.327.005-11.46-5.12-11.465-11.447a11.456 11.456 0 0 1 7.117-10.612l12.882-5.273a2.308 2.308 0 0 1 1.835 4.235l-2.105.963c-.977.448-.658 1.91.417 1.91Z" clip-rule="evenodd"></path></g></svg>