<svg xmlns="http://www.w3.org/2000/svg" xmlns:xlink="http://www.w3.org/1999/xlink" aria-hidden="true" role="img" class="iconify iconify--healthicons" width="1em" height="1em" preserveAspectRatio="xMidYMid meet" viewBox="0 0 48 48"><g fill="currentColor"><path fill-rule="evenodd" d="m32.956 8.196l-18 .015l.015 18l18-.015l-.015-18ZM23.967 21.87c2.24-.002 3.999-1.68 3.997-3.812c-.002-1.981-4.006-6.854-4.006-6.854s-3.996 4.727-3.994 6.86c.002 2.133 1.763 3.808 4.003 3.806Zm-7.982 7.117a1 1 0 0 1 .999-1l4-.004a1 1 0 0 1 .001 2l-4 .003a1 1 0 0 1-1-1Zm10-.008a1 1 0 0 1 .999-1.001l4-.003a1 1 0 1 1 .001 2l-4 .003a1 1 0 0 1-1-1Z" clip-rule="evenodd"></path><path fill-rule="evenodd" d="m12.954 6.213l22-.018a1 1 0 0 1 1.001.999l.02 25a1 1 0 0 1-.999 1l-6 .005l.002 2l6-.004a3 3 0 0 0 2.997-3.003l-.02-25a3 3 0 0 0-3.002-2.997l-22 .018a3 3 0 0 0-2.998 3.002l.02 25a3 3 0 0 0 3.003 2.998l6-.005l-.002-2l-6 .005a1 1 0 0 1-1-1l-.02-25a1 1 0 0 1 .998-1Z" clip-rule="evenodd"></path><path fill-rule="evenodd" d="m27.976 33.2l-8 .007l.008 9l8-.007l-.008-9Zm-10.001-1.992l.01 13l12-.01l-.01-13l-12 .01Z" clip-rule="evenodd"></path><path d="M25.98 38.202a2 2 0 1 1-4 .003a2 2 0 0 1 4-.003Z"></path></g></svg>