<svg xmlns="http://www.w3.org/2000/svg" xmlns:xlink="http://www.w3.org/1999/xlink" aria-hidden="true" role="img" class="iconify iconify--healthicons" width="1em" height="1em" preserveAspectRatio="xMidYMid meet" viewBox="0 0 48 48"><g fill="currentColor"><path fill-rule="evenodd" d="M41.975 20.681a1.32 1.32 0 0 0-1.32-1.318l-16.926.013c-2.236.002-2.79-3.108-.69-3.877l2.285-.838a1.223 1.223 0 0 0-.84-2.298l-11.98 4.355A9.91 9.91 0 0 0 5.98 26.04c.004 5.474 4.445 9.907 9.918 9.903l11.064-.01a1 1 0 0 0 .999-1v-.64a1 1 0 0 0-1.001-1l-3.736.004l-.002-2l7.107-.006a1 1 0 0 0 .999-1.001v-.64a1 1 0 0 0-1.001-1l-4.827.005l-.002-2l5.583-.005a1 1 0 0 0 .999-1v-.64a1 1 0 0 0-1.001-1l-5.583.005l-.002-2l15.162-.012a1.32 1.32 0 0 0 1.32-1.322Zm-8.067 3.327l6.75-.005a3.32 3.32 0 0 0-.005-6.64l-16.926.013l2.285-.837c2.2-.807 2.832-3.618 1.188-5.288a3.224 3.224 0 0 0-3.399-.768l-11.98 4.355A11.91 11.91 0 0 0 3.98 26.042c.005 6.578 5.342 11.906 11.92 11.9l11.063-.008a3 3 0 0 0 2.998-3.003v-.64c0-.35-.061-.687-.172-1h.541a3 3 0 0 0 2.998-3.003v-.64a2.991 2.991 0 0 0-.458-1.59a2.995 2.995 0 0 0 1.21-2.41v-.64c0-.35-.061-.687-.172-1Z" clip-rule="evenodd"></path><path d="M40.983 30.565c.002 1.6-1.317 2.858-2.997 2.86c-1.68 0-3.001-1.255-3.002-2.855c-.002-1.6 2.995-5.146 2.995-5.146s3.003 3.655 3.005 5.14Zm-1.007-8.642c.001.828-.894 1.5-1.998 1.502c-1.105 0-2.001-.67-2.002-1.499c0-.828.895-1.5 2-1.502c1.104 0 2 .67 2 1.499Z"></path></g></svg>