<svg xmlns="http://www.w3.org/2000/svg" xmlns:xlink="http://www.w3.org/1999/xlink" aria-hidden="true" role="img" class="iconify iconify--healthicons" width="1em" height="1em" preserveAspectRatio="xMidYMid meet" viewBox="0 0 48 48"><g fill="currentColor"><path fill-rule="evenodd" d="M12.952 4.092a3 3 0 0 0-2.997 3.002l.02 25a3 3 0 0 0 3.003 2.998l4.75-.004a1.25 1.25 0 0 0 1.249-1.251c0-.69.558-1.25 1.249-1.251l7.5-.007c.69 0 1.25.559 1.25 1.25a1.25 1.25 0 0 0 1.252 1.248l4.75-.003a3 3 0 0 0 2.997-3.003l-.02-25a3 3 0 0 0-3.003-2.998l-22 .019Zm20.004 3.983l-18 .015l.014 18l18-.015l-.014-18ZM15.973 29.59a1 1 0 0 1 1-1l4-.004a1 1 0 0 1 .001 2l-4 .003a1 1 0 0 1-1-.999Zm11-1.009a1 1 0 1 0 .001 2l4-.003a1 1 0 1 0-.002-2l-4 .003Z" clip-rule="evenodd"></path><path d="M27.964 18.334c.002 2.134-1.757 3.811-3.997 3.813c-2.24.002-4.001-1.673-4.003-3.806c-.002-2.134 3.995-6.86 3.995-6.86s4.003 4.872 4.005 6.853Z"></path><path fill-rule="evenodd" d="m27.976 33.08l-8 .006l.008 9l8-.007l-.008-9Zm-10.001-1.993l.01 13l12-.01l-.01-13l-12 .01Z" clip-rule="evenodd"></path><path d="M25.98 38.08a2 2 0 1 1-4 .004a2 2 0 0 1 4-.003Z"></path></g></svg>