<svg xmlns="http://www.w3.org/2000/svg" xmlns:xlink="http://www.w3.org/1999/xlink" aria-hidden="true" role="img" class="iconify iconify--healthicons" width="1em" height="1em" preserveAspectRatio="xMidYMid meet" viewBox="0 0 48 48"><g fill="currentColor"><path fill-rule="evenodd" d="M13 40a5 5 0 1 0 0-10a5 5 0 0 0 0 10Zm0 2a7 7 0 1 0 0-14a7 7 0 0 0 0 14Z" clip-rule="evenodd"></path><path d="M14.75 35a1.75 1.75 0 1 1-3.5 0a1.75 1.75 0 0 1 3.5 0Z"></path><path fill-rule="evenodd" d="M35 40a5 5 0 1 0 0-10a5 5 0 0 0 0 10Zm0 2a7 7 0 1 0 0-14a7 7 0 0 0 0 14Z" clip-rule="evenodd"></path><path d="M36.75 35a1.75 1.75 0 1 1-3.5 0a1.75 1.75 0 0 1 3.5 0Z"></path><path fill-rule="evenodd" d="M35 18a5 5 0 1 0 0-10a5 5 0 0 0 0 10Zm0 2a7 7 0 1 0 0-14a7 7 0 0 0 0 14Z" clip-rule="evenodd"></path><path d="M36.75 13a1.75 1.75 0 1 1-3.5 0a1.75 1.75 0 0 1 3.5 0Z"></path><path fill-rule="evenodd" d="M13 18a5 5 0 1 0 0-10a5 5 0 0 0 0 10Zm0 2a7 7 0 1 0 0-14a7 7 0 0 0 0 14Z" clip-rule="evenodd"></path><path d="M14.75 13a1.75 1.75 0 1 1-3.5 0a1.75 1.75 0 0 1 3.5 0Z"></path><path d="m13 35l5.72-11.224L13.44 13L24 18.388L34.56 13l-5.28 10.776L35 35l-11-5.837L13 35Z"></path></g></svg>