<svg xmlns="http://www.w3.org/2000/svg" xmlns:xlink="http://www.w3.org/1999/xlink" aria-hidden="true" role="img" class="iconify iconify--healthicons" width="1em" height="1em" preserveAspectRatio="xMidYMid meet" viewBox="0 0 48 48"><g fill="currentColor" fill-rule="evenodd" clip-rule="evenodd"><path d="M28 10H14v27h14V10ZM12 8v31h18V8H12Z"></path><path d="M22.316 4.439A1 1 0 0 0 21 5.387v37.226a1 1 0 0 0 1.316.948l13-4.333a1 1 0 0 0 .684-.949V9.721a1 1 0 0 0-.684-.949l-13-4.333ZM26 25c.552 0 1-.895 1-2s-.448-2-1-2s-1 .895-1 2s.448 2 1 2Z"></path></g></svg>