<svg xmlns="http://www.w3.org/2000/svg" xmlns:xlink="http://www.w3.org/1999/xlink" aria-hidden="true" role="img" class="iconify iconify--healthicons" width="1em" height="1em" preserveAspectRatio="xMidYMid meet" viewBox="0 0 48 48"><path fill="currentColor" fill-rule="evenodd" d="M15 12a3 3 0 0 1 3-3h12a3 3 0 1 1 0 6h-9v6h9a3 3 0 1 1 0 6h-9v9a3 3 0 1 1-6 0V12Zm3-1a1 1 0 0 0-1 1v24a1 1 0 1 0 2 0V26a1 1 0 0 1 1-1h10a1 1 0 1 0 0-2H20a1 1 0 0 1-1-1v-8a1 1 0 0 1 1-1h10a1 1 0 1 0 0-2H18Z" clip-rule="evenodd"></path></svg>