<svg xmlns="http://www.w3.org/2000/svg" xmlns:xlink="http://www.w3.org/1999/xlink" aria-hidden="true" role="img" class="iconify iconify--healthicons" width="1em" height="1em" preserveAspectRatio="xMidYMid meet" viewBox="0 0 48 48"><g fill="currentColor"><path d="M20 20a1 1 0 0 1 1-1h20a1 1 0 1 1 0 2H21a1 1 0 0 1-1-1Z"></path><path fill-rule="evenodd" d="M42 23H12v5c0 1.5 1.753 2 2.5 2v12H29v-3h-5.5v-2H29v-.06c7.297-.59 13-5.51 13-13.94Z" clip-rule="evenodd"></path><path fill-rule="evenodd" d="M8 6a2 2 0 0 0-2 2v2h12V8a2 2 0 0 0-2-2H8Zm10 6H6v13h12V12Z" clip-rule="evenodd"></path></g></svg>