<svg xmlns="http://www.w3.org/2000/svg" xmlns:xlink="http://www.w3.org/1999/xlink" aria-hidden="true" role="img" class="iconify iconify--healthicons" width="1em" height="1em" preserveAspectRatio="xMidYMid meet" viewBox="0 0 48 48"><g fill="currentColor"><path fill-rule="evenodd" d="M31.726 6a1 1 0 0 1 1 1v5.438l.032-.017l2.103-1.044l.642-1.948a1 1 0 0 1 1.9.626l-.773 2.344a1 1 0 0 1-.505.583l-2.477 1.23a1 1 0 0 1-1.445-.91a.995.995 0 0 1-.954 0a1 1 0 0 1-1.445.91l-2.477-1.23a1 1 0 0 1-.504-.583l-.773-2.344a1 1 0 0 1 1.9-.626l.642 1.948l2.102 1.044l.033.017V7a1 1 0 0 1 1-1Zm-2.093 13.466a1 1 0 1 1 1.528 1.29l-.54.64l.331 1.582a1 1 0 0 1-.272.912l-1.212 1.21a1 1 0 0 1-1.414-1.414l.83-.83l-.32-1.53a1 1 0 0 1 .215-.85l.854-1.011Zm4.204-.422a1 1 0 0 0-1.563 1.248l.869 1.087l-.334 1.599a1 1 0 0 0 .272.912l1.212 1.211a1 1 0 0 0 1.414-1.414l-.83-.83l.32-1.53a1 1 0 0 0-.198-.829l-1.162-1.454Z" clip-rule="evenodd"></path><path d="M33.5 16.5c0 2.485-.895 4.5-2 4.5s-2-2.015-2-4.5s.895-4.5 2-4.5s2 2.015 2 4.5Z"></path><path fill-rule="evenodd" d="M33 13.822V15c0 .816.224 2.026.932 3.064c.744 1.09 1.993 1.936 3.859 1.936c1.728 0 2.921-.553 3.601-1.48c.65-.884.684-1.913.534-2.593l-.146-.661L33 13.822Zm6.948 3.17c-.035.12-.09.238-.168.345c-.194.264-.686.663-1.99.663c-1.166 0-1.813-.488-2.206-1.064a3.2 3.2 0 0 1-.362-.722l4.726.778ZM30 13.822V15c0 .816-.224 2.026-.932 3.064c-.744 1.09-1.993 1.936-3.859 1.936c-1.728 0-2.92-.553-3.601-1.48c-.65-.884-.684-1.913-.534-2.593l.146-.661L30 13.822Zm-6.948 3.17c.035.12.09.238.168.345c.194.264.686.663 1.99.663c1.166 0 1.813-.488 2.206-1.064a3.2 3.2 0 0 0 .363-.722l-4.727.778ZM19 17.785a1 1 0 0 1 1 1v7.771l2.229-2.515l.827-2.37a1 1 0 0 1 1.888.658l-.892 2.557a.999.999 0 0 1-.195.334l-2.608 2.943a1 1 0 0 1-1.665-.262a.996.996 0 0 1-1.168 0a1 1 0 0 1-1.665.262l-2.608-2.944a1 1 0 0 1-.195-.333l-.892-2.557a1 1 0 0 1 1.888-.658l.827 2.37L18 26.556v-7.771a1 1 0 0 1 1-1ZM17.214 32.58A1 1 0 1 1 18 34.419l-.223.096a1 1 0 0 1 .562 1.666l-1.001 1.078l.435 2.084a1 1 0 0 1-.271.912l-1.524 1.524a1 1 0 0 1-1.415-1.415l1.142-1.141l-.43-2.061a1 1 0 0 1 .245-.885l1.227-1.321l-.92.393l-1.487 1.402a1 1 0 0 1-.442.242l-2.205.554a1 1 0 0 1-.487-1.94l1.952-.49l1.427-1.345a1 1 0 0 1 .292-.191l2.336-1Zm3.537-.015a1 1 0 0 0-.716 1.868l.203.078a1 1 0 0 0-.488 1.755l1.282 1.072l-.419 2.004a1 1 0 0 0 .272.912l1.524 1.524a1 1 0 0 0 1.414-1.415l-1.141-1.141l.43-2.061a1 1 0 0 0-.337-.971l-1.555-1.303l1.254.481l1.598 1.406a1 1 0 0 0 .417.218l2.205.554a1 1 0 1 0 .487-1.94l-1.97-.494l-1.55-1.364a1.002 1.002 0 0 0-.303-.183l-2.607-1Z" clip-rule="evenodd"></path><path d="M21 30.5c0 3.038-.895 5.5-2 5.5s-2-2.462-2-5.5s.895-5.5 2-5.5s2 2.462 2 5.5Z"></path><path fill-rule="evenodd" d="M20.786 27.95v1.12c0 .855.336 2.043 1.29 3.02c.976 1.002 2.51 1.695 4.738 1.695c2.123 0 3.55-.46 4.399-1.27c.889-.848.986-1.923.745-2.684l-.195-.618l-10.977-1.264Zm9.102 3.06a1.03 1.03 0 0 1-.055.057c-.31.295-1.118.718-3.019.718c-1.794 0-2.774-.545-3.306-1.09a2.65 2.65 0 0 1-.36-.46l6.74.775Zm-12.674-3.06v1.12c0 .855-.336 2.043-1.29 3.02c-.976 1.002-2.51 1.695-4.738 1.695c-2.123 0-3.55-.46-4.399-1.27c-.889-.848-.986-1.923-.745-2.684l.195-.618l10.977-1.264Zm-9.102 3.06a.969.969 0 0 0 .055.057c.31.295 1.118.718 3.019.718c1.794 0 2.774-.545 3.306-1.09c.145-.15.264-.305.36-.46l-6.74.775Z" clip-rule="evenodd"></path></g></svg>