<svg xmlns="http://www.w3.org/2000/svg" xmlns:xlink="http://www.w3.org/1999/xlink" aria-hidden="true" role="img" class="iconify iconify--healthicons" width="1em" height="1em" preserveAspectRatio="xMidYMid meet" viewBox="0 0 48 48"><g fill="currentColor"><path d="M34 9a1 1 0 0 1 1-1h4a1 1 0 0 1 1 1v30a1 1 0 0 1-1 1h-4a1 1 0 0 1-1-1V9Z"></path><path fill-rule="evenodd" d="M48 0H0v48h48V0ZM22 18a3 3 0 0 0-3 3v18a3 3 0 0 0 3 3h4a3 3 0 0 0 3-3V21a3 3 0 0 0-3-3h-4ZM6 33a3 3 0 0 1 3-3h4a3 3 0 0 1 3 3v6a3 3 0 0 1-3 3H9a3 3 0 0 1-3-3v-6ZM35 6a3 3 0 0 0-3 3v30a3 3 0 0 0 3 3h4a3 3 0 0 0 3-3V9a3 3 0 0 0-3-3h-4Z" clip-rule="evenodd"></path></g></svg>