<svg xmlns="http://www.w3.org/2000/svg" xmlns:xlink="http://www.w3.org/1999/xlink" aria-hidden="true" role="img" class="iconify iconify--healthicons" width="1em" height="1em" preserveAspectRatio="xMidYMid meet" viewBox="0 0 49 49"><path fill="currentColor" fill-rule="evenodd" d="M15.02 6.98a2 2 0 0 0-2 2v32a2 2 0 0 0 2 2h18a2 2 0 0 0 2-2v-32a2 2 0 0 0-2-2h-18Zm8 5a1 1 0 1 1 2 0v4a1 1 0 1 1-2 0v-4Zm0 11a1 1 0 1 1 2 0v4a1 1 0 1 1-2 0v-4Zm1 10a1 1 0 0 0-1 1v4a1 1 0 1 0 2 0v-4a1 1 0 0 0-1-1Z" clip-rule="evenodd"></path></svg>