<svg xmlns="http://www.w3.org/2000/svg" xmlns:xlink="http://www.w3.org/1999/xlink" aria-hidden="true" role="img" class="iconify iconify--healthicons" width="1em" height="1em" preserveAspectRatio="xMidYMid meet" viewBox="0 0 48 48"><g fill="currentColor" fill-rule="evenodd" clip-rule="evenodd"><path d="M24 6C14.059 6 6 14.059 6 24s8.059 18 18 18s18-8.059 18-18S33.941 6 24 6ZM4 24C4 12.954 12.954 4 24 4s20 8.954 20 20s-8.954 20-20 20S4 35.046 4 24Z"></path><path d="M23 42V6h2v36h-2Z"></path><path d="m23.293 23.293l1.414 1.414l-13 13l-1.414-1.414l13-13Z"></path><path d="M37.435 36.02L24.707 23.294l-1.414 1.414L36.02 37.435l1.414-1.414Z"></path></g></svg>