<svg xmlns="http://www.w3.org/2000/svg" xmlns:xlink="http://www.w3.org/1999/xlink" aria-hidden="true" role="img" class="iconify iconify--healthicons" width="1em" height="1em" preserveAspectRatio="xMidYMid meet" viewBox="0 0 48 48"><g fill="currentColor" fill-rule="evenodd" clip-rule="evenodd"><path d="M39 8H9a1 1 0 0 0-1 1v30a1 1 0 0 0 1 1h30a1 1 0 0 0 1-1V9a1 1 0 0 0-1-1ZM9 6a3 3 0 0 0-3 3v30a3 3 0 0 0 3 3h30a3 3 0 0 0 3-3V9a3 3 0 0 0-3-3H9Z"></path><path d="M23.778 18.555a4.278 4.278 0 1 0 0-8.555a4.278 4.278 0 0 0 0 8.555Z"></path><path d="M23.778 17.055a2.778 2.778 0 1 0 0-5.555a2.778 2.778 0 0 0 0 5.555Zm4.277-2.777a4.278 4.278 0 1 1-8.555 0a4.278 4.278 0 0 1 8.555 0Zm-8.166 10.5v-2.334h7.778v2.334h-7.778Zm0 1.555v1.51c0 .492.444 1.757 1.805 2.363c.156.07.33.156.488.235l.093.045c.193.096.38.186.57.267c.394.167.702.247.933.247c.23 0 .538-.08.933-.247c.19-.08.377-.171.57-.267l.093-.046c.157-.078.332-.165.488-.234c1.361-.606 1.805-1.871 1.805-2.364v-1.509h-7.778Z"></path><path d="M22.304 28.836c.185.082.384.18.533.255l.102.05l.001.001c.189.093.343.167.49.23a2.495 2.495 0 0 0 .348.122a2.49 2.49 0 0 0 .348-.123a9.42 9.42 0 0 0 .49-.229l.103-.051c.149-.074.348-.173.533-.255c.37-.165.603-.41.748-.644a1.434 1.434 0 0 0 .16-.359h-4.765a1.435 1.435 0 0 0 .16.358c.146.234.38.48.749.645Zm-2.415-2.503h7.778v1.51c0 .492-.444 1.757-1.805 2.363c-.156.07-.331.156-.488.235l-.093.045c-.194.096-.38.186-.57.267c-.395.167-.702.247-.933.247c-.231 0-.539-.08-.933-.247a9.993 9.993 0 0 1-.57-.267l-.093-.046c-.157-.078-.332-.165-.488-.234c-1.361-.606-1.805-1.871-1.805-2.364v-1.509Zm0-1.555v-2.334h7.778v2.334h-7.778Zm-.793 5.21c-1.207 1.05-1.871 2.372-1.871 4.115c0 .695.148 1.738.535 2.584c.396.865.927 1.313 1.599 1.313c.72 0 1.33-.552 1.33-1.262c0-.315-.133-.614-.345-1.058l-.014-.03c-.191-.4-.444-.931-.444-1.547c0-.675.334-1.39.724-1.97a2.66 2.66 0 0 1 .395-.467c-.92-.418-1.537-1.05-1.909-1.678Z"></path><path d="M20.167 32.928c-.17.382-.28.785-.28 1.175c0 .616.252 1.146.444 1.548l.013.03c.212.443.345.742.345 1.057c0 .71-.61 1.262-1.33 1.262c-.672 0-1.203-.448-1.599-1.313c-.387-.846-.535-1.89-.535-2.584c0-1.155.292-2.125.84-2.953a5.743 5.743 0 0 1 1.031-1.162a3.998 3.998 0 0 0 .947 1.088c.274.222.594.423.962.59c-.139.13-.27.282-.395.468c-.165.245-.32.514-.443.794Zm6.384-1.262c.92-.418 1.537-1.05 1.909-1.678c1.206 1.05 1.87 2.371 1.87 4.114c0 .696-.148 1.739-.534 2.584c-.396.866-.928 1.313-1.6 1.313c-.72 0-1.33-.551-1.33-1.261c0-.316.134-.614.345-1.058l.014-.03c.191-.401.444-.931.444-1.548c0-.674-.334-1.39-.723-1.969a2.733 2.733 0 0 0-.395-.467Z"></path><path d="M27.513 31.076a4.476 4.476 0 0 1-.962.59c.138.13.27.281.395.467c.164.245.32.514.443.794c.169.383.28.786.28 1.175c0 .617-.253 1.147-.444 1.548l-.014.03c-.211.444-.345.742-.345 1.058c0 .71.61 1.261 1.33 1.261c.672 0 1.204-.447 1.6-1.313c.386-.845.535-1.889.535-2.584c0-1.155-.292-2.124-.84-2.953a5.75 5.75 0 0 0-1.032-1.161a3.998 3.998 0 0 1-.946 1.088Zm5.984-11.066a2 2 0 0 1-1.461 2.421c-3.131.775-5.675 1.169-8.266 1.16c-2.586-.01-5.122-.422-8.229-1.154a2 2 0 1 1 .918-3.894c2.968.7 5.172 1.039 7.326 1.047c2.15.008 4.346-.313 7.29-1.041a2 2 0 0 1 2.422 1.46Z"></path></g></svg>