<svg xmlns="http://www.w3.org/2000/svg" xmlns:xlink="http://www.w3.org/1999/xlink" aria-hidden="true" role="img" class="iconify iconify--healthicons" width="1em" height="1em" preserveAspectRatio="xMidYMid meet" viewBox="0 0 48 48"><g fill="currentColor" fill-rule="evenodd" clip-rule="evenodd"><path d="M26.532 6.275C25.582 6.008 24.319 6 23.058 6c-1.585 0-2.57.41-3.21.96c-.651.558-1.058 1.358-1.294 2.34c-.237.989-.284 2.093-.264 3.175c.004.177.009.352.015.525H37c.552 0 1.006.45.943.998C37.301 19.606 31.303 24 24 24c-7.304 0-13.301-4.394-13.943-10.002c-.063-.548.39-.998.943-.998h5.304c-.006-.16-.01-.322-.013-.487c-.022-1.143.023-2.446.318-3.678c.297-1.238.863-2.472 1.936-3.393C19.627 4.512 21.113 4 23.058 4h.072c1.172 0 2.7 0 3.944.35c.647.182 1.312.483 1.82 1.01c.535.552.823 1.277.823 2.14a1 1 0 0 1-2 0c0-.387-.115-.6-.26-.75c-.171-.177-.463-.345-.925-.475ZM16 42v2h16v-2H16Z"></path><path d="M30.036 19.36c1.418.976 1.964 2.394 1.964 3.943c0 1.545-.542 2.983-1.95 3.987c-.988.704-2.33 1.142-4.05 1.325v-2.013c1.376-.17 2.294-.517 2.888-.94c.779-.556 1.112-1.323 1.112-2.36c0-1.032-.33-1.766-1.098-2.295C28.056 20.425 26.552 20 24 20v-2c2.699 0 4.694.436 6.036 1.36ZM22 26.736v2.002c-.968.037-1.818.128-2.506.35c-.539.173-.891.403-1.113.679c-.213.264-.381.664-.381 1.329c0 .668.168 1.07.382 1.336c.222.277.575.508 1.113.682c1.12.362 2.673.376 4.459.376l.019-.002c.045-.003.107-.008.183-.01c.152-.007.363-.01.615.001a6.518 6.518 0 0 1 1.887.36c.708.256 1.468.698 2.049 1.456c.588.767.93 1.778.93 3.058c0 1.279-.342 2.283-.944 3.033c-.595.741-1.37 1.145-2.084 1.361a5.59 5.59 0 0 1-.61.147v-2.052a3.2 3.2 0 0 0 .03-.009c.445-.135.83-.356 1.104-.698c.268-.334.505-.873.505-1.782c0-.908-.237-1.474-.519-1.842c-.288-.376-.688-.627-1.14-.79a4.526 4.526 0 0 0-1.301-.244a4.916 4.916 0 0 0-.547.005l-.023.002h-.002l-.05.006h-.163c-1.669 0-3.55 0-5.013-.473c-.774-.25-1.515-.656-2.059-1.334c-.552-.688-.821-1.559-.821-2.587c0-1.027.27-1.896.822-2.583c.544-.675 1.285-1.08 2.059-1.329c.926-.298 2.018-.408 3.119-.448Z"></path><path d="M23.115 36v6.5h2V36h-2Zm0-4h2V20.147h-2V32Z"></path></g></svg>