<svg xmlns="http://www.w3.org/2000/svg" xmlns:xlink="http://www.w3.org/1999/xlink" aria-hidden="true" role="img" class="iconify iconify--healthicons" width="1em" height="1em" preserveAspectRatio="xMidYMid meet" viewBox="0 0 48 48"><g fill="currentColor" fill-rule="evenodd" clip-rule="evenodd"><path d="M14 40a2 2 0 1 0 0-4a2 2 0 0 0 0 4Zm0 2a4 4 0 1 0 0-8a4 4 0 0 0 0 8Zm-4-20a2 2 0 1 0 0-4a2 2 0 0 0 0 4Zm0 2a4 4 0 1 0 0-8a4 4 0 0 0 0 8Zm28-2a2 2 0 1 0 0-4a2 2 0 0 0 0 4Zm0 2a4 4 0 1 0 0-8a4 4 0 0 0 0 8Zm-4 16a2 2 0 1 0 0-4a2 2 0 0 0 0 4Zm0 2a4 4 0 1 0 0-8a4 4 0 0 0 0 8ZM24 12a2 2 0 1 0 0-4a2 2 0 0 0 0 4Zm0 2a4 4 0 1 0 0-8a4 4 0 0 0 0 8Z"></path><path d="m34.919 19.028l-9-6.429l1.162-1.627l9 6.429l-1.162 1.627Zm-13.135-6.217l-8.703 6.217l-1.162-1.627l8.703-6.217l1.162 1.627Zm-10.141 9.972l2.666 12l-1.952.434l-2.667-12l1.953-.434Zm22.047 12l2.556-11.5l1.952.434l-2.555 11.5l-1.953-.434ZM17 37h14v2H17v-2Z"></path></g></svg>