<svg xmlns="http://www.w3.org/2000/svg" xmlns:xlink="http://www.w3.org/1999/xlink" aria-hidden="true" role="img" class="iconify iconify--healthicons" width="1em" height="1em" preserveAspectRatio="xMidYMid meet" viewBox="0 0 48 48"><g fill="none"><g clip-path="url(#IconifyId17f59e48edc34c74330)"><path fill="currentColor" fill-rule="evenodd" d="M0 0h48v48H0V0Zm6 30a2 2 0 0 1-2-2v-8a2 2 0 0 1 2-2h36a2 2 0 0 1 2 2v8a2 2 0 0 1-2 2H6Zm32-8a2 2 0 1 1 0 4a2 2 0 0 1 0-4Zm-7 2a1.5 1.5 0 1 0 3 0a1.5 1.5 0 0 0-3 0Zm-13-1h-7a1 1 0 1 0 0 2h7v-2Zm2 2h6a1 1 0 1 0 0-2h-6v2ZM8 24a3 3 0 0 0 3 3h15a3 3 0 0 0 0-6H11a3 3 0 0 0-3 3Zm2.85-12.895c.238-.105.495-.131.743-.079c.248.053.485.184.677.39a1 1 0 0 0 1.46-1.368a3.3 3.3 0 0 0-1.722-.978a3.207 3.207 0 0 0-1.966.206a3.383 3.383 0 0 0-1.495 1.304A3.62 3.62 0 0 0 8 12.5c0 .678.188 1.346.547 1.92c.36.574.877 1.031 1.495 1.304a3.207 3.207 0 0 0 1.966.206a3.302 3.302 0 0 0 1.722-.979a1 1 0 1 0-1.46-1.367c-.192.205-.43.337-.677.39a1.207 1.207 0 0 1-.742-.08a1.384 1.384 0 0 1-.609-.536A1.62 1.62 0 0 1 10 12.5c0-.31.087-.61.242-.858c.156-.248.37-.432.609-.537ZM13 33a1 1 0 0 1 1-1h2.5a2.5 2.5 0 0 1 0 5H15v1a1 1 0 1 1-2 0v-5Zm2 2h1.5a.5.5 0 0 0 0-1H15v1ZM28 9a1 1 0 0 0-1 1v5a1 1 0 1 0 2 0v-1h1.5a2.5 2.5 0 0 0 0-5H28Zm2.5 3H29v-1h1.5a.5.5 0 1 1 0 1Zm-8 27a1 1 0 0 0 .936-.649l1.5-4a1 1 0 1 0-1.872-.702l-.564 1.503l-.564-1.503a1 1 0 1 0-1.872.702l1.5 4A1 1 0 0 0 22.5 39ZM35 16a1 1 0 0 0 1-1v-2a1 1 0 0 0 0-2a1 1 0 0 0 0-2c-.726 0-1.276.325-1.611.79A2.116 2.116 0 0 0 34 11a1 1 0 1 0 0 2v2a1 1 0 0 0 1 1Z" clip-rule="evenodd"></path></g><defs><clipPath id="IconifyId17f59e48edc34c74330"><path fill="#fff" d="M0 0h48v48H0z"></path></clipPath></defs></g></svg>