<svg xmlns="http://www.w3.org/2000/svg" xmlns:xlink="http://www.w3.org/1999/xlink" aria-hidden="true" role="img" class="iconify iconify--healthicons" width="1em" height="1em" preserveAspectRatio="xMidYMid meet" viewBox="0 0 48 48"><g fill="currentColor" fill-rule="evenodd" clip-rule="evenodd"><path d="M17.546 15.48a7 7 0 1 0 4.372 5.454a1 1 0 0 1 1.977-.304a9 9 0 1 1-5.622-7.014a1 1 0 1 1-.727 1.863Z"></path><path d="M14 39v-8a1 1 0 1 1 2 0v8a1 1 0 1 1-2 0Z"></path><path d="M11 34a1 1 0 0 1 1-1h6a1 1 0 1 1 0 2h-6a1 1 0 0 1-1-1Zm17.902-18.737a7 7 0 0 0-8.853 7.562a1 1 0 1 1-1.986.236a9 9 0 1 1 5.375 7.204a1 1 0 1 1 .791-1.837a7.001 7.001 0 1 0 4.673-13.165Z"></path><path d="M32.793 17.207a1 1 0 0 1 0-1.414l7.5-7.5a1 1 0 1 1 1.414 1.414l-7.5 7.5a1 1 0 0 1-1.414 0Z"></path><path d="M40.924 15a1 1 0 0 1-.987-1.013l.05-3.974l-3.974.05a1 1 0 0 1-.026-2l6.026-.076l-.076 6.025a1 1 0 0 1-1.013.988Z"></path></g></svg>