<svg xmlns="http://www.w3.org/2000/svg" xmlns:xlink="http://www.w3.org/1999/xlink" aria-hidden="true" role="img" class="iconify iconify--healthicons" width="1em" height="1em" preserveAspectRatio="xMidYMid meet" viewBox="0 0 48 48"><g fill="currentColor"><path d="M10 8.586L39.414 38L38 39.414L8.586 10L10 8.586ZM7 37h21.727c.87 0 1.325-1.034.737-1.676l-3.37-3.676A2 2 0 0 0 24.62 31H7a2 2 0 0 0-2 2v2a2 2 0 0 0 2 2Zm33-5a1 1 0 1 0-2 0v2a1 1 0 1 0 2 0v-2Zm-6-15a3 3 0 0 0-3 3v1.818a3 3 0 0 0 3 3h3a3 3 0 0 1 3 3V28a1 1 0 1 1-2 0v-.182a1 1 0 0 0-1-1h-3a5 5 0 0 1-5-5V20a5 5 0 0 1 5-5a1 1 0 1 1 0 2Z"></path><path d="M38 19a1 1 0 1 0 0 2a4 4 0 0 1 4 4v3a1 1 0 1 0 2 0v-3a5.994 5.994 0 0 0-2.644-4.975A4.4 4.4 0 0 0 43 16.591V15a5 5 0 0 0-5-5a1 1 0 1 0 0 2a3 3 0 0 1 3 3v1.59A2.41 2.41 0 0 1 38.59 19H38Zm6 13a1 1 0 1 0-2 0v4a1 1 0 1 0 2 0v-4Z"></path></g></svg>