<svg xmlns="http://www.w3.org/2000/svg" xmlns:xlink="http://www.w3.org/1999/xlink" aria-hidden="true" role="img" class="iconify iconify--healthicons" width="1em" height="1em" preserveAspectRatio="xMidYMid meet" viewBox="0 0 48 48"><g fill="currentColor" fill-rule="evenodd" clip-rule="evenodd"><path d="M11 18a2 2 0 0 0-2 2v20a2 2 0 0 0 2 2h26a2 2 0 0 0 2-2V20a2 2 0 0 0-2-2H11Zm4 8h18v-2H15v2Zm18 5H15v-2h18v2Zm-18 5h18v-2H15v2Z"></path><path d="M30 18v-2a6 6 0 0 0-12 0v2h12ZM24 6c-5.523 0-10 4.477-10 10v6h20v-6c0-5.523-4.477-10-10-10Z"></path></g></svg>