<svg xmlns="http://www.w3.org/2000/svg" xmlns:xlink="http://www.w3.org/1999/xlink" aria-hidden="true" role="img" class="iconify iconify--healthicons" width="1em" height="1em" preserveAspectRatio="xMidYMid meet" viewBox="0 0 48 48"><g fill="currentColor" fill-rule="evenodd" clip-rule="evenodd"><path d="M40 21c0 7.18-5.82 13-13 13s-13-5.82-13-13S19.82 8 27 8s13 5.82 13 13Zm-18 1h4v4h2v-4h4v-2h-4v-4h-2v4h-4v2Z"></path><path d="M48 0H0v48h48V0ZM12.927 32.245l1.705-.12l1.158-1.158A14.944 14.944 0 0 1 12 21c0-8.284 6.716-15 15-15c8.284 0 15 6.716 15 15c0 8.284-6.716 15-15 15a14.942 14.942 0 0 1-9.784-3.63l-1.346 1.346l-.158 1.4L8.828 42L6 39.17l6.927-6.926Z"></path></g></svg>