<svg xmlns="http://www.w3.org/2000/svg" xmlns:xlink="http://www.w3.org/1999/xlink" aria-hidden="true" role="img" class="iconify iconify--healthicons" width="1em" height="1em" preserveAspectRatio="xMidYMid meet" viewBox="0 0 48 48"><g fill="currentColor" fill-rule="evenodd" clip-rule="evenodd"><path d="M32 22H22v-2h10v2Z"></path><path d="M28 16v10h-2V16h2Zm-9.793 15.207l-4 4l-1.414-1.414l4-4l1.414 1.414Z"></path><path d="m4.586 39.172l6.524-6.524l3.118.14l1.067 1.066l.005 3.089l-6.472 6.471l-4.242-4.242Zm2.828 0l1.414 1.414l4.47-4.47l-.001-1.368l-1.397-.063l-4.486 4.487ZM27 34c7.18 0 13-5.82 13-13S34.18 8 27 8s-13 5.82-13 13s5.82 13 13 13Zm0 2c8.284 0 15-6.716 15-15c0-8.284-6.716-15-15-15c-8.284 0-15 6.716-15 15c0 8.284 6.716 15 15 15Z"></path></g></svg>