<svg xmlns="http://www.w3.org/2000/svg" xmlns:xlink="http://www.w3.org/1999/xlink" aria-hidden="true" role="img" class="iconify iconify--healthicons" width="1em" height="1em" preserveAspectRatio="xMidYMid meet" viewBox="0 0 48 48"><g fill="currentColor"><path fill-rule="evenodd" d="M33 22H21v-2h12v2Zm-14.621 9.207l-7.086 7.086l-1.414-1.414l7.086-7.086l1.414 1.414Z" clip-rule="evenodd"></path><path d="m6 39.172l6.927-6.927l2.573-.18l.5.5l-.288 2.551L8.828 42L6 39.172Z"></path><path fill-rule="evenodd" d="M27 34c7.18 0 13-5.82 13-13S34.18 8 27 8s-13 5.82-13 13s5.82 13 13 13Zm0 2c8.284 0 15-6.716 15-15c0-8.284-6.716-15-15-15c-8.284 0-15 6.716-15 15c0 8.284 6.716 15 15 15Z" clip-rule="evenodd"></path></g></svg>