<svg xmlns="http://www.w3.org/2000/svg" xmlns:xlink="http://www.w3.org/1999/xlink" aria-hidden="true" role="img" class="iconify iconify--healthicons" width="1em" height="1em" preserveAspectRatio="xMidYMid meet" viewBox="0 0 48 48"><g fill="currentColor" fill-rule="evenodd" clip-rule="evenodd"><path d="M20 7a1 1 0 0 1 1-1h4a1 1 0 1 1 0 2h-4a1 1 0 0 1-1-1Z"></path><path d="M23 6a1 1 0 0 1 1 1v4a1 1 0 1 1-2 0V7a1 1 0 0 1 1-1ZM7 20a1 1 0 0 1 1 1v4a1 1 0 1 1-2 0v-4a1 1 0 0 1 1-1Z"></path><path d="M6 23a1 1 0 0 1 1-1h4a1 1 0 1 1 0 2H7a1 1 0 0 1-1-1ZM32.192 9.565a1 1 0 0 1 1.415 0l2.828 2.828a1 1 0 1 1-1.414 1.415l-2.829-2.829a1 1 0 0 1 0-1.414Z"></path><path d="M35.02 10.98a1 1 0 0 1 0 1.413l-2.828 2.829a1 1 0 0 1-1.414-1.414l2.829-2.829a1 1 0 0 1 1.414 0ZM13.808 9.565a1 1 0 0 1 0 1.414l-2.829 2.829a1 1 0 0 1-1.414-1.415l2.828-2.828a1 1 0 0 1 1.415 0Z"></path><path d="M10.98 10.98a1 1 0 0 1 1.413 0l2.829 2.828a1 1 0 1 1-1.414 1.414l-2.829-2.829a1 1 0 0 1 0-1.414Zm2.828 25.455a1 1 0 0 1-1.415 0l-2.828-2.828a1 1 0 0 1 1.414-1.414l2.829 2.828a1 1 0 0 1 0 1.414Z"></path><path d="M10.98 35.02a1 1 0 0 1 0-1.413l2.828-2.829a1 1 0 0 1 1.414 1.415l-2.829 2.828a1 1 0 0 1-1.414 0Z"></path><path d="M22.454 34.988A9.996 9.996 0 0 1 22 32c0-5.523 4.477-10 10-10c1.04 0 2.044.159 2.988.454C34.702 16.08 29.444 11 23 11c-6.627 0-12 5.373-12 12c0 6.444 5.08 11.702 11.454 11.988ZM19 23a3 3 0 1 0 0-6a3 3 0 0 0 0 6Z"></path><path d="M32 26a6 6 0 1 0 0 12a6 6 0 0 0 0-12Zm-8 6a8 8 0 1 1 16 0a8 8 0 0 1-16 0Z"></path><path d="M36.293 36.293a1 1 0 0 1 1.414 0l5 5a1 1 0 0 1-1.414 1.414l-5-5a1 1 0 0 1 0-1.414Z"></path></g></svg>