<svg xmlns="http://www.w3.org/2000/svg" xmlns:xlink="http://www.w3.org/1999/xlink" aria-hidden="true" role="img" class="iconify iconify--healthicons" width="1em" height="1em" preserveAspectRatio="xMidYMid meet" viewBox="0 0 48 48"><path fill="currentColor" fill-rule="evenodd" d="M48 0H0v48h48V0ZM35.536 13.28a2 2 0 1 0-3.072-2.56L24 20.876L15.537 10.72a2 2 0 1 0-3.073 2.56L19.73 22H18a2 2 0 0 0 0 4h4v2h-4a2 2 0 0 0 0 4h4v4a2 2 0 0 0 4 0v-4h4a2 2 0 0 0 0-4h-4v-2h4a2 2 0 0 0 0-4h-1.73l7.266-8.72Z" clip-rule="evenodd"></path></svg>