<svg xmlns="http://www.w3.org/2000/svg" xmlns:xlink="http://www.w3.org/1999/xlink" aria-hidden="true" role="img" class="iconify iconify--heroicons-outline" width="1em" height="1em" preserveAspectRatio="xMidYMid meet" viewBox="0 0 24 24" data-icon="heroicons-outline:cash"><path fill="none" stroke="currentColor" stroke-linecap="round" stroke-linejoin="round" stroke-width="2" d="M17 9V7a2 2 0 0 0-2-2H5a2 2 0 0 0-2 2v6a2 2 0 0 0 2 2h2m2 4h10a2 2 0 0 0 2-2v-6a2 2 0 0 0-2-2H9a2 2 0 0 0-2 2v6a2 2 0 0 0 2 2Zm7-5a2 2 0 1 1-4 0a2 2 0 0 1 4 0Z"></path></svg>