<svg xmlns="http://www.w3.org/2000/svg" xmlns:xlink="http://www.w3.org/1999/xlink" aria-hidden="true" role="img" class="iconify iconify--heroicons-outline" width="1em" height="1em" preserveAspectRatio="xMidYMid meet" viewBox="0 0 24 24" data-icon="heroicons-outline:chip"><path fill="none" stroke="currentColor" stroke-linecap="round" stroke-linejoin="round" stroke-width="2" d="M9 3v2m6-2v2M9 19v2m6-2v2M5 9H3m2 6H3m18-6h-2m2 6h-2M7 19h10a2 2 0 0 0 2-2V7a2 2 0 0 0-2-2H7a2 2 0 0 0-2 2v10a2 2 0 0 0 2 2ZM9 9h6v6H9V9Z"></path></svg>