<svg xmlns="http://www.w3.org/2000/svg" xmlns:xlink="http://www.w3.org/1999/xlink" aria-hidden="true" role="img" class="iconify iconify--heroicons-outline" width="1em" height="1em" preserveAspectRatio="xMidYMid meet" viewBox="0 0 24 24" data-icon="heroicons-outline:duplicate"><path fill="none" stroke="currentColor" stroke-linecap="round" stroke-linejoin="round" stroke-width="2" d="M8 16H6a2 2 0 0 1-2-2V6a2 2 0 0 1 2-2h8a2 2 0 0 1 2 2v2m-6 12h8a2 2 0 0 0 2-2v-8a2 2 0 0 0-2-2h-8a2 2 0 0 0-2 2v8a2 2 0 0 0 2 2Z"></path></svg>