<svg xmlns="http://www.w3.org/2000/svg" xmlns:xlink="http://www.w3.org/1999/xlink" aria-hidden="true" role="img" class="iconify iconify--heroicons-outline" width="1em" height="1em" preserveAspectRatio="xMidYMid meet" viewBox="0 0 24 24" data-icon="heroicons-outline:server"><path fill="none" stroke="currentColor" stroke-linecap="round" stroke-linejoin="round" stroke-width="2" d="M5 12h14M5 12a2 2 0 0 1-2-2V6a2 2 0 0 1 2-2h14a2 2 0 0 1 2 2v4a2 2 0 0 1-2 2M5 12a2 2 0 0 0-2 2v4a2 2 0 0 0 2 2h14a2 2 0 0 0 2-2v-4a2 2 0 0 0-2-2m-2-4h.01M17 16h.01"></path></svg>