<svg xmlns="http://www.w3.org/2000/svg" xmlns:xlink="http://www.w3.org/1999/xlink" aria-hidden="true" role="img" class="iconify iconify--gridicons" width="1em" height="1em" preserveAspectRatio="xMidYMid meet" viewBox="0 0 24 24" data-icon="gridicons:layout-blocks"><path fill="currentColor" d="M21 7h-2V3a2 2 0 0 0-2-2H7a2 2 0 0 0-2 2v2H3a2 2 0 0 0-2 2v4a2 2 0 0 0 2 2h2v8a2 2 0 0 0 2 2h10a2 2 0 0 0 2-2v-2h2a2 2 0 0 0 2-2V9a2 2 0 0 0-2-2zm-4 14H7v-8h2a2 2 0 0 0 2-2V7a2 2 0 0 0-2-2H7V3h10v4h-2a2 2 0 0 0-2 2v8a2 2 0 0 0 2 2h2v2zm4-4h-6V9h6v8z"></path></svg>