<svg xmlns="http://www.w3.org/2000/svg" xmlns:xlink="http://www.w3.org/1999/xlink" aria-hidden="true" role="img" class="iconify iconify--mdi" width="1em" height="1em" preserveAspectRatio="xMidYMid meet" viewBox="0 0 24 24" data-icon="mdi:account-box-outline"><path fill="currentColor" d="M19 19H5V5h14m0-2H5a2 2 0 0 0-2 2v14a2 2 0 0 0 2 2h14a2 2 0 0 0 2-2V5a2 2 0 0 0-2-2m-2.5 13.25c0-1.5-3-2.25-4.5-2.25s-4.5.75-4.5 2.25V17h9M12 12.25A2.25 2.25 0 0 0 14.25 10A2.25 2.25 0 0 0 12 7.75A2.25 2.25 0 0 0 9.75 10A2.25 2.25 0 0 0 12 12.25Z"></path></svg>