<svg xmlns="http://www.w3.org/2000/svg" xmlns:xlink="http://www.w3.org/1999/xlink" aria-hidden="true" role="img" class="iconify iconify--mdi" width="1em" height="1em" preserveAspectRatio="xMidYMid meet" viewBox="0 0 24 24"><path fill="currentColor" d="M18 19a2 2 0 0 1-2-2c0-1.11.89-2 2-2a2 2 0 0 1 2 2a2 2 0 0 1-2 2m0-6a4 4 0 0 0-4 4a4 4 0 0 0 4 4a4 4 0 0 0 4-4a4 4 0 0 0-4-4m-6-1.9a1.9 1.9 0 0 0-1.9 1.9a1.9 1.9 0 0 0 1.9 1.9a1.9 1.9 0 0 0 1.9-1.9a1.9 1.9 0 0 0-1.9-1.9M6 19a2 2 0 0 1-2-2c0-1.11.89-2 2-2a2 2 0 0 1 2 2a2 2 0 0 1-2 2m0-6a4 4 0 0 0-4 4a4 4 0 0 0 4 4a4 4 0 0 0 4-4a4 4 0 0 0-4-4m6-9a2 2 0 0 1 2 2a2 2 0 0 1-2 2a2 2 0 0 1-2-2c0-1.11.89-2 2-2m0 6a4 4 0 0 0 4-4a4 4 0 0 0-4-4a4 4 0 0 0-4 4a4 4 0 0 0 4 4Z"></path></svg>