<svg xmlns="http://www.w3.org/2000/svg" xmlns:xlink="http://www.w3.org/1999/xlink" aria-hidden="true" role="img" class="iconify iconify--mdi" width="1em" height="1em" preserveAspectRatio="xMidYMid meet" viewBox="0 0 24 24"><path fill="currentColor" d="M19 13v-2h2v2h-2m2-4V7h-2v2h2m0-6h-2v2h2V3m-4 12h2v-2h-2v2m4 2v-2h-2v2h2m-8 0v-2h2v-2h-2v-2h2V9h-2V7h2V5h-2V3H3v18h10v-2h2v-2h-2m2 4h2v-2h-2v2m2-18h-2v2h2V3m0 8h2V9h-2v2m-2 6h2v-2h-2v2m2 2h2v-2h-2v2m4 2v-2h-2v2h2M15 9h2V7h-2v2m0 4h2v-2h-2v2m2-8v2h2V5h-2Z"></path></svg>