<svg xmlns="http://www.w3.org/2000/svg" xmlns:xlink="http://www.w3.org/1999/xlink" aria-hidden="true" role="img" class="iconify iconify--ei" width="1em" height="1em" preserveAspectRatio="xMidYMid meet" viewBox="0 0 50 50" data-icon="ei:share-google"><path fill="currentColor" d="M15 30c-2.8 0-5-2.2-5-5s2.2-5 5-5s5 2.2 5 5s-2.2 5-5 5zm0-8c-1.7 0-3 1.3-3 3s1.3 3 3 3s3-1.3 3-3s-1.3-3-3-3zm20-2c-2.8 0-5-2.2-5-5s2.2-5 5-5s5 2.2 5 5s-2.2 5-5 5zm0-8c-1.7 0-3 1.3-3 3s1.3 3 3 3s3-1.3 3-3s-1.3-3-3-3zm0 28c-2.8 0-5-2.2-5-5s2.2-5 5-5s5 2.2 5 5s-2.2 5-5 5zm0-8c-1.7 0-3 1.3-3 3s1.3 3 3 3s3-1.3 3-3s-1.3-3-3-3z"></path><path fill="currentColor" d="m19.007 25.885l12.88 6.44l-.895 1.788l-12.88-6.44zm11.986-10l.894 1.79l-12.88 6.438l-.894-1.79z"></path></svg>