<svg xmlns="http://www.w3.org/2000/svg" xmlns:xlink="http://www.w3.org/1999/xlink" aria-hidden="true" role="img" class="iconify iconify--la" width="1em" height="1em" preserveAspectRatio="xMidYMid meet" viewBox="0 0 32 32" data-icon="la:book-open"><path fill="currentColor" d="M3 6v19h10c1.102 0 2 .898 2 2h2c0-1.102.898-2 2-2h10V6H19a3.997 3.997 0 0 0-3 1.36A3.997 3.997 0 0 0 13 6zm2 2h8c1.102 0 2 .898 2 2h2c0-1.102.898-2 2-2h8v15h-8a3.997 3.997 0 0 0-3 1.36A3.997 3.997 0 0 0 13 23H5zm10 4v2h2v-2zm0 4v2h2v-2zm0 4v2h2v-2z"></path></svg>