<svg xmlns="http://www.w3.org/2000/svg" xmlns:xlink="http://www.w3.org/1999/xlink" aria-hidden="true" role="img" class="iconify iconify--la" width="1em" height="1em" preserveAspectRatio="xMidYMid meet" viewBox="0 0 32 32" data-icon="la:braille"><path fill="currentColor" d="M12 6a1.999 1.999 0 1 0 0 4a1.999 1.999 0 1 0 0-4zm8 0a1.999 1.999 0 1 0 0 4a1.999 1.999 0 1 0 0-4zm-8 8a1.999 1.999 0 1 0 0 4a1.999 1.999 0 1 0 0-4zm8 0a1.999 1.999 0 1 0 0 4a1.999 1.999 0 1 0 0-4zm-8 8a1.999 1.999 0 1 0 0 4a1.999 1.999 0 1 0 0-4zm8 0a1.999 1.999 0 1 0 0 4a1.999 1.999 0 1 0 0-4z"></path></svg>