<svg xmlns="http://www.w3.org/2000/svg" xmlns:xlink="http://www.w3.org/1999/xlink" aria-hidden="true" role="img" class="iconify iconify--flagpack" width="1.34em" height="1em" preserveAspectRatio="xMidYMid meet" viewBox="0 0 32 24"><mask id="IconifyId17f59e8143772869c4" width="32" height="24" x="0" y="0" maskUnits="userSpaceOnUse"><path fill="#fff" d="M0 0h32v24H0z"></path></mask><g fill="none" mask="url(#IconifyId17f59e8143772869c4)"><path fill="#1B1B1B" fill-rule="evenodd" d="M0 0h32v24H0V0z" clip-rule="evenodd"></path><path fill="#F9D313" fill-rule="evenodd" d="m16 14l-2.003 3.8l.05-4.196l-3.658 2.65l2.093-3.76l-4.59.977l3.72-2.58L7 10l4.613-.89L7.89 6.529l4.59.977l-2.092-3.76l3.659 2.65l-.05-4.195L16 6l2.003-3.8l-.05 4.196l3.658-2.65l-2.093 3.76l4.59-.977l-3.72 2.58L25 10l-4.613.89l3.722 2.581l-4.59-.977l2.092 3.76l-3.659-2.65l.05 4.195L16 14z" clip-rule="evenodd"></path><path fill="#F1F9FF" d="M6 14h20v10H6z"></path><path fill="#4A80E8" d="M2 10h28v4H2z"></path><path fill="#E31D1C" fill-rule="evenodd" d="m0 6l16 18L32 6v18H0V6z" clip-rule="evenodd"></path></g></svg>