<svg xmlns="http://www.w3.org/2000/svg" xmlns:xlink="http://www.w3.org/1999/xlink" aria-hidden="true" role="img" class="iconify iconify--flagpack" width="1.34em" height="1em" preserveAspectRatio="xMidYMid meet" viewBox="0 0 32 24" data-icon="flagpack:bq-se"><mask id="IconifyId17f59e8143772869c62" width="32" height="24" x="0" y="0" maskUnits="userSpaceOnUse"><path fill="#fff" d="M0 0h32v24H0z"></path></mask><g fill="none" mask="url(#IconifyId17f59e8143772869c62)"><path fill="#00268D" fill-rule="evenodd" d="M0 0h32v24H0V0z" clip-rule="evenodd"></path><path fill="#00268D" stroke="#E31D1C" stroke-width="2" d="M1 1h30v22H1V1z"></path><path fill="#E31D1C" d="M15 0h2v24h-2z"></path><path fill="#E31D1C" d="M0 13v-2h32v2z"></path><path fill="#fff" stroke="#E31D1C" stroke-width="2" d="M16.447 6.106L16 5.882l-.447.224l-10 5l-1.79.894l1.79.894l10 5l.447.224l.447-.224l10-5l1.79-.894l-1.79-.894l-10-5z"></path><mask id="IconifyId17f59e8143772869c63" width="30" height="16" x="1" y="4" maskUnits="userSpaceOnUse"><path fill="#fff" stroke="#fff" stroke-width="2" d="M16.447 6.106L16 5.882l-.447.224l-10 5l-1.79.894l1.79.894l10 5l.447.224l.447-.224l10-5l1.79-.894l-1.79-.894l-10-5z"></path></mask><g mask="url(#IconifyId17f59e8143772869c63)"><path fill="#059334" d="M11.609 16H25l-1.416-1.276s-2.831-2.524-3.013-2.64c-.183-.115-.484-.165-.826.203c-.343.367-.54-.202-.824-.202c-.285 0-.406 0-.82.471l-1.904 2.168h-2.19s-.369-.279-.58-.18c-.21.1-1.396-1.099-1.818-1.188c-.423-.09-.7.325-.7.655s-.2-.303-.603-.117c-.405.185-.274.65-.274.65S11.34 16 11.609 16z"></path><path fill="#FEDA00" fill-rule="evenodd" d="m15.505 11.301l-.927.699l.34-1.154l-.918-.707h1.144L15.504 9l.383 1.14H17l-.91.706l.346 1.154l-.931-.699z" clip-rule="evenodd"></path></g></g></svg>