<svg xmlns="http://www.w3.org/2000/svg" xmlns:xlink="http://www.w3.org/1999/xlink" aria-hidden="true" role="img" class="iconify iconify--flagpack" width="1.34em" height="1em" preserveAspectRatio="xMidYMid meet" viewBox="0 0 32 24" data-icon="flagpack:bq-sa"><mask id="IconifyId17f59e8143772869c61" width="32" height="24" x="0" y="0" maskUnits="userSpaceOnUse"><path fill="#fff" d="M0 0h32v24H0z"></path></mask><g fill="none" fill-rule="evenodd" clip-rule="evenodd" mask="url(#IconifyId17f59e8143772869c61)"><path fill="#fff" d="M0 0h32v24H0V0z"></path><path fill="#F00000" d="M0 11.664V0h16L0 11.664zm32 0V0H16l16 11.664z"></path><path fill="#00268D" d="M0 11.664V24h16L0 11.664zm32 0v12.672L16 24l16-12.336z"></path><path fill="#FEDA00" d="m15.714 14.256l-3.518 2.507l1.291-4.141L10 10.087h4.345L15.714 6l1.452 4.087h4.226l-3.457 2.535l1.314 4.141l-3.535-2.507z"></path></g></svg>