<svg xmlns="http://www.w3.org/2000/svg" xmlns:xlink="http://www.w3.org/1999/xlink" aria-hidden="true" role="img" class="iconify iconify--flagpack" width="1.34em" height="1em" preserveAspectRatio="xMidYMid meet" viewBox="0 0 32 24" data-icon="flagpack:br"><mask id="IconifyId17f59e8143772869c64" width="32" height="24" x="0" y="0" maskUnits="userSpaceOnUse"><path fill="#fff" d="M0 0h32v24H0z"></path></mask><g fill="none"><g mask="url(#IconifyId17f59e8143772869c64)"><path fill="#093" fill-rule="evenodd" d="M0 0v24h32V0H0z" clip-rule="evenodd"></path><mask id="IconifyId17f59e8143772869c65" width="32" height="24" x="0" y="0" maskUnits="userSpaceOnUse"><path fill="#fff" fill-rule="evenodd" d="M0 0v24h32V0H0z" clip-rule="evenodd"></path></mask><g mask="url(#IconifyId17f59e8143772869c65)"><g fill-rule="evenodd" clip-rule="evenodd" filter="url(#IconifyId17f59e8143772869c68)"><path fill="#FFD221" d="m15.927 3.704l12.202 8.504L15.76 20.17L3.809 12.043l12.118-8.339z"></path><path fill="url(#IconifyId17f59e8143772869c67)" d="m15.927 3.704l12.202 8.504L15.76 20.17L3.809 12.043l12.118-8.339z"></path></g><path fill="#2E42A5" fill-rule="evenodd" d="M16 17.2a5 5 0 1 0 0-10a5 5 0 0 0 0 10z" clip-rule="evenodd"></path><mask id="IconifyId17f59e8143772869c66" width="10" height="11" x="11" y="7" maskUnits="userSpaceOnUse"><path fill="#fff" fill-rule="evenodd" d="M16 17.2a5 5 0 1 0 0-10a5 5 0 0 0 0 10z" clip-rule="evenodd"></path></mask><g mask="url(#IconifyId17f59e8143772869c66)"><path fill="#F7FCFF" fill-rule="evenodd" d="m14.38 14.57l-.223.117l.042-.248l-.18-.176l.25-.037l.111-.226l.112.226l.25.037l-.181.176l.042.248l-.223-.117zm2 0l-.223.117l.042-.248l-.18-.176l.25-.037l.111-.226l.112.226l.25.037l-.181.176l.042.248l-.223-.117zm0 1.2l-.223.117l.042-.248l-.18-.176l.25-.037l.111-.226l.112.226l.25.037l-.181.176l.042.248l-.223-.117zm-1-4.2l-.223.117l.042-.248l-.18-.176l.25-.037l.111-.226l.112.226l.25.037l-.181.176l.042.248l-.223-.117zm0 2l-.223.117l.042-.248l-.18-.176l.25-.037l.111-.226l.112.226l.25.037l-.181.176l.042.248l-.223-.117zm-1.4-1l-.223.117l.042-.248l-.18-.176l.25-.037l.111-.226l.112.226l.25.037l-.181.176l.042.248l-.223-.117zm-1.4.8l-.223.117l.042-.248l-.18-.176l.25-.037l.111-.226l.112.226l.25.037l-.181.176l.042.248l-.223-.117zm4.6-3.4l-.223.117l.042-.248l-.18-.176l.25-.037l.111-.226l.112.226l.25.037l-.181.176l.042.248l-.223-.117z" clip-rule="evenodd"></path><path fill="#F7FCFF" d="m9.925 10.997l.15-1.994c4.798.362 8.585 1.94 11.313 4.745l-1.434 1.395c-2.364-2.433-5.692-3.819-10.03-4.146z"></path><path fill="#093" d="m12.29 10.603l.05-.498c3.094.32 5.747 1.505 7.952 3.552l-.34.366c-2.125-1.971-4.677-3.11-7.663-3.42z"></path></g></g></g><defs><linearGradient id="IconifyId17f59e8143772869c67" x1="32" x2="32" y1="24" y2="0" gradientUnits="userSpaceOnUse"><stop stop-color="#FFC600"></stop><stop offset="1" stop-color="#FFDE42"></stop></linearGradient><filter id="IconifyId17f59e8143772869c68" width="24.32" height="16.467" x="3.809" y="3.704" filterUnits="userSpaceOnUse"><feFlood flood-color="#000" flood-opacity="0" result="BackgroundImageFix"></feFlood><feColorMatrix in="SourceAlpha" values="0 0 0 0 0 0 0 0 0 0 0 0 0 0 0 0 0 0 127 0"></feColorMatrix><feOffset></feOffset><feColorMatrix values="0 0 0 0 0.0313726 0 0 0 0 0.368627 0 0 0 0 0 0 0 0 0.28 0"></feColorMatrix><feBlend in2="BackgroundImageFix" result="effect1_dropShadow"></feBlend><feBlend in="SourceGraphic" in2="effect1_dropShadow" result="shape"></feBlend></filter></defs></g></svg>