<svg xmlns="http://www.w3.org/2000/svg" xmlns:xlink="http://www.w3.org/1999/xlink" aria-hidden="true" role="img" class="iconify iconify--flagpack" width="1.34em" height="1em" preserveAspectRatio="xMidYMid meet" viewBox="0 0 32 24" data-icon="flagpack:cv"><mask id="IconifyId17f59e8143772869c100" width="32" height="24" x="0" y="0" maskUnits="userSpaceOnUse"><path fill="#fff" d="M0 0h32v24H0z"></path></mask><g fill="none"><g mask="url(#IconifyId17f59e8143772869c100)"><path fill="#4141DB" fill-rule="evenodd" d="M0 0v24h32V0H0z" clip-rule="evenodd"></path><mask id="IconifyId17f59e8143772869c101" width="32" height="24" x="0" y="0" maskUnits="userSpaceOnUse"><path fill="#fff" fill-rule="evenodd" d="M0 0v24h32V0H0z" clip-rule="evenodd"></path></mask><g mask="url(#IconifyId17f59e8143772869c101)"><path fill="#F90000" stroke="#F7FCFF" stroke-width="2" d="M0 13h-1v4h34v-4H0z"></path><g filter="url(#IconifyId17f59e8143772869c102)"><path fill="#FFDE00" fill-rule="evenodd" d="m9.796 10.26l.726-.51l.702.51l-.218-.906l.564-.574h-.718l-.331-.74l-.283.74h-.842l.645.574l-.245.905zm3 1.6l.726-.51l.702.51l-.218-.906l.564-.574h-.718l-.331-.74l-.283.74h-.842l.645.574l-.245.905zm3.126 1.89l-.726.51l.245-.906l-.645-.574h.842l.283-.74l.33.74h.719l-.564.574l.218.905l-.702-.508zm-.726 4.51l.726-.51l.702.51l-.218-.906l.564-.574h-.718l-.331-.74l-.283.74h-.842l.645.574l-.245.905zm-1.674 1.89l-.726.51l.245-.906l-.645-.574h.842l.283-.74l.33.74h.719l-.564.574l.218.905l-.702-.508zm-3.726 2.11l.726-.51l.702.51l-.218-.906l.564-.574h-.718l-.331-.74l-.283.74h-.842l.645.574l-.245.905zm-2.274-2.11l-.726.51l.245-.906l-.645-.574h.842l.283-.74l.33.74h.719l-.564.574l.218.905l-.702-.508zm-3.126-1.89l.726-.51l.702.51l-.218-.906l.564-.574h-.718l-.331-.74l-.283.74h-.842l.645.574l-.245.905zm.726-4.51l-.726.51l.245-.906l-.645-.574h.842l.283-.74l.33.74h.719l-.564.574l.218.905l-.702-.508zm1.674-1.89l.726-.51l.702.51l-.218-.906l.564-.574h-.718l-.331-.74l-.283.74h-.842l.645.574l-.245.905z" clip-rule="evenodd"></path></g></g></g><defs><filter id="IconifyId17f59e8143772869c102" width="20.974" height="22.219" x="-.004" y="4.041" filterUnits="userSpaceOnUse"><feFlood flood-color="#000" flood-opacity="0" result="BackgroundImageFix"></feFlood><feColorMatrix in="SourceAlpha" values="0 0 0 0 0 0 0 0 0 0 0 0 0 0 0 0 0 0 127 0"></feColorMatrix><feOffset></feOffset><feGaussianBlur stdDeviation="2"></feGaussianBlur><feColorMatrix values="0 0 0 0 0 0 0 0 0 0 0 0 0 0 0 0 0 0 0.24 0"></feColorMatrix><feBlend in2="BackgroundImageFix" result="effect1_dropShadow"></feBlend><feBlend in="SourceGraphic" in2="effect1_dropShadow" result="shape"></feBlend></filter></defs></g></svg>