<svg xmlns="http://www.w3.org/2000/svg" xmlns:xlink="http://www.w3.org/1999/xlink" aria-hidden="true" role="img" class="iconify iconify--flagpack" width="1.34em" height="1em" preserveAspectRatio="xMidYMid meet" viewBox="0 0 32 24" data-icon="flagpack:cw"><mask id="IconifyId17f59e8143772869c103" width="32" height="24" x="0" y="0" maskUnits="userSpaceOnUse"><path fill="#fff" d="M0 0h32v24H0z"></path></mask><g fill="none" mask="url(#IconifyId17f59e8143772869c103)"><path fill="#2E42A5" fill-rule="evenodd" d="M0 0v24h32V0H0z" clip-rule="evenodd"></path><mask id="IconifyId17f59e8143772869c104" width="32" height="24" x="0" y="0" maskUnits="userSpaceOnUse"><path fill="#fff" fill-rule="evenodd" d="M0 0v24h32V0H0z" clip-rule="evenodd"></path></mask><g fill-rule="evenodd" clip-rule="evenodd" mask="url(#IconifyId17f59e8143772869c104)"><path fill="#F7FCFF" d="M4.254 6.15L2.266 7.198l.96-1.868L2 3.963l1.523-.056L4.254 2l.558 1.907l1.783.056l-1.284 1.368l.815 1.868l-1.872-1.05zm7.098 4.926l-2.454 1.029l.963-2.577L7.726 7.8h2.558l1.068-2.787l.816 2.787h2.56l-1.82 1.73l.905 2.576l-2.46-1.029z"></path><path fill="#F9E813" d="M0 14v4h32v-4H0z"></path></g></g></svg>