<svg xmlns="http://www.w3.org/2000/svg" xmlns:xlink="http://www.w3.org/1999/xlink" aria-hidden="true" role="img" class="iconify iconify--flagpack" width="1.34em" height="1em" preserveAspectRatio="xMidYMid meet" viewBox="0 0 32 24" data-icon="flagpack:fm"><mask id="IconifyId17f59e8143772869c150" width="32" height="24" x="0" y="0" maskUnits="userSpaceOnUse"><path fill="#fff" d="M0 0h32v24H0z"></path></mask><g fill="none" mask="url(#IconifyId17f59e8143772869c150)"><path fill="#63B3E1" fill-rule="evenodd" d="M0 0v24h32V0H0z" clip-rule="evenodd"></path><mask id="IconifyId17f59e8143772869c151" width="32" height="24" x="0" y="0" maskUnits="userSpaceOnUse"><path fill="#fff" fill-rule="evenodd" d="M0 0v24h32V0H0z" clip-rule="evenodd"></path></mask><g fill="#F7FCFF" fill-rule="evenodd" clip-rule="evenodd" mask="url(#IconifyId17f59e8143772869c151)"><path d="m16 7.3l-1.763.927l.336-1.963l-1.426-1.391l1.971-.287L16 2.8l.882 1.786l1.971.287l-1.426 1.39l.336 1.964L16 7.3zm0 12l-1.763.927l.336-1.963l-1.426-1.391l1.971-.287L16 14.8l.882 1.787l1.971.286l-1.426 1.39l.336 1.964L16 19.3zm-6.2-5.8l-1.763.927l.336-1.963l-1.426-1.391l1.971-.287L9.8 9l.882 1.787l1.971.286l-1.426 1.39l.336 1.964L9.8 13.5zm12.2 0l-1.763.927l.336-1.963l-1.426-1.391l1.971-.287L22 9l.882 1.787l1.971.286l-1.426 1.39l.336 1.964L22 13.5z"></path></g></g></svg>