<svg xmlns="http://www.w3.org/2000/svg" xmlns:xlink="http://www.w3.org/1999/xlink" aria-hidden="true" role="img" class="iconify iconify--flagpack" width="1.34em" height="1em" preserveAspectRatio="xMidYMid meet" viewBox="0 0 32 24" data-icon="flagpack:ge"><mask id="IconifyId17f59e8143772869c174" width="32" height="24" x="0" y="0" maskUnits="userSpaceOnUse"><path fill="#fff" d="M0 0h32v24H0z"></path></mask><g fill="none" mask="url(#IconifyId17f59e8143772869c174)"><path fill="#F7FCFF" fill-rule="evenodd" d="M0 0v24h32V0H0z" clip-rule="evenodd"></path><mask id="IconifyId17f59e8143772869c175" width="32" height="24" x="0" y="0" maskUnits="userSpaceOnUse"><path fill="#fff" fill-rule="evenodd" d="M0 0v24h32V0H0z" clip-rule="evenodd"></path></mask><g fill="#E31D1C" fill-rule="evenodd" clip-rule="evenodd" mask="url(#IconifyId17f59e8143772869c175)"><path d="M14 0h4v10h14v4H18v10h-4V14H0v-4h14V0z"></path><path d="M9.999 17.222L12.2 17v2s-2.201-.138-2.201-.098c0 .04.201 2.098.201 2.098h-2l.16-2H6.2v-2l2.16.222L8.2 15h2l-.201 2.222zm0-12L12.2 5v2s-2.201-.138-2.201-.098c0 .04.201 2.098.201 2.098h-2l.16-2H6.2V5l2.16.222L8.2 3h2l-.201 2.222zm14 0L26.2 5v2s-2.201-.138-2.201-.098c0 .04.201 2.098.201 2.098h-2l.16-2H20.2V5l2.16.222L22.2 3h2l-.201 2.222zm0 12L26.2 17v2s-2.201-.138-2.201-.098c0 .04.201 2.098.201 2.098h-2l.16-2H20.2v-2l2.16.222L22.2 15h2l-.201 2.222z"></path></g></g></svg>