<svg xmlns="http://www.w3.org/2000/svg" xmlns:xlink="http://www.w3.org/1999/xlink" aria-hidden="true" role="img" class="iconify iconify--flagpack" width="1.34em" height="1em" preserveAspectRatio="xMidYMid meet" viewBox="0 0 32 24" data-icon="flagpack:gl"><mask id="IconifyId17f59e8143772869c181" width="32" height="24" x="0" y="0" maskUnits="userSpaceOnUse"><path fill="#fff" d="M0 0h32v24H0z"></path></mask><g fill="none" mask="url(#IconifyId17f59e8143772869c181)"><path fill="#C51918" fill-rule="evenodd" d="M0 12h32v12H0V12z" clip-rule="evenodd"></path><mask id="IconifyId17f59e8143772869c182" width="32" height="12" x="0" y="12" maskUnits="userSpaceOnUse"><path fill="#fff" fill-rule="evenodd" d="M0 12h32v12H0V12z" clip-rule="evenodd"></path></mask><g mask="url(#IconifyId17f59e8143772869c182)"><path fill="#F7FCFF" fill-rule="evenodd" d="M12 20a8 8 0 1 0 0-16a8 8 0 0 0 0 16z" clip-rule="evenodd"></path></g><path fill="#F7FCFF" fill-rule="evenodd" d="M0 0h32v12H0V0z" clip-rule="evenodd"></path><mask id="IconifyId17f59e8143772869c183" width="32" height="12" x="0" y="0" maskUnits="userSpaceOnUse"><path fill="#fff" fill-rule="evenodd" d="M0 0h32v12H0V0z" clip-rule="evenodd"></path></mask><g mask="url(#IconifyId17f59e8143772869c183)"><path fill="#C51918" fill-rule="evenodd" d="M12 20a8 8 0 1 0 0-16a8 8 0 0 0 0 16z" clip-rule="evenodd"></path></g></g></svg>