<svg xmlns="http://www.w3.org/2000/svg" xmlns:xlink="http://www.w3.org/1999/xlink" aria-hidden="true" role="img" class="iconify iconify--flagpack" width="1.34em" height="1em" preserveAspectRatio="xMidYMid meet" viewBox="0 0 32 24" data-icon="flagpack:gr"><mask id="IconifyId17f59e8143772869c188" width="32" height="24" x="0" y="0" maskUnits="userSpaceOnUse"><path fill="#fff" d="M0 0h32v24H0z"></path></mask><g fill="none" mask="url(#IconifyId17f59e8143772869c188)"><path fill="#F7FCFF" fill-rule="evenodd" d="M0 0h32v24H0V0z" clip-rule="evenodd"></path><path fill="#4564F9" fill-rule="evenodd" d="M0 5.5h32v2.957H0V5.5zm0 5.315h32v2.957H0v-2.957zm32 5.128H0V18.9h32v-2.957zM0 0h32v3H0V0z" clip-rule="evenodd"></path><path fill="#4564F9" d="M0 21h32v3H0z"></path><path fill="#4564F9" fill-rule="evenodd" d="M0 0h15v13.8H0V0z" clip-rule="evenodd"></path><path fill="#F7FCFF" fill-rule="evenodd" d="M6 0h3v5.504h6v2.935H9V14.5H6V8.439H0V5.504h6V0z" clip-rule="evenodd"></path></g></svg>