<svg xmlns="http://www.w3.org/2000/svg" xmlns:xlink="http://www.w3.org/1999/xlink" aria-hidden="true" role="img" class="iconify iconify--flagpack" width="1.34em" height="1em" preserveAspectRatio="xMidYMid meet" viewBox="0 0 32 24" data-icon="flagpack:hn"><mask id="IconifyId17f59e8143772869c205" width="32" height="24" x="0" y="0" maskUnits="userSpaceOnUse"><path fill="#fff" d="M0 0h32v24H0z"></path></mask><g fill="none" mask="url(#IconifyId17f59e8143772869c205)"><path fill="#F7FCFF" fill-rule="evenodd" d="M0 0v24h32V0H0z" clip-rule="evenodd"></path><mask id="IconifyId17f59e8143772869c206" width="32" height="24" x="0" y="0" maskUnits="userSpaceOnUse"><path fill="#fff" fill-rule="evenodd" d="M0 0v24h32V0H0z" clip-rule="evenodd"></path></mask><g fill="#4564F9" fill-rule="evenodd" clip-rule="evenodd" mask="url(#IconifyId17f59e8143772869c206)"><path d="M0 0v8h32V0H0zm0 16v8h32v-8H0zm16.402-3.33l-.866.448l.165-.947l-.701-.74h.969l.433-.931l.433.93h.97l-.702.74l.166.948l-.867-.447zm-6.084-2.167l-.866.447l.165-.947l-.701-.74h.969l.433-.931l.433.93h.97l-.702.74l.166.948l-.867-.447zm0 4.2l-.866.447l.165-.947l-.701-.74h.969l.433-.931l.433.93h.97l-.702.74l.166.948l-.867-.447zm12-4.2l-.866.447l.165-.947l-.701-.74h.969l.433-.931l.433.93h.97l-.702.74l.166.948l-.867-.447zm0 4.2l-.866.447l.165-.947l-.701-.74h.969l.433-.931l.433.93h.97l-.702.74l.166.948l-.867-.447z"></path></g></g></svg>