<svg xmlns="http://www.w3.org/2000/svg" xmlns:xlink="http://www.w3.org/1999/xlink" aria-hidden="true" role="img" class="iconify iconify--flagpack" width="1.34em" height="1em" preserveAspectRatio="xMidYMid meet" viewBox="0 0 32 24" data-icon="flagpack:il"><mask id="IconifyId17f59e8143772869c216" width="32" height="24" x="0" y="0" maskUnits="userSpaceOnUse"><path fill="#fff" d="M0 0h32v24H0z"></path></mask><g fill="none" mask="url(#IconifyId17f59e8143772869c216)"><path fill="#F7FCFF" fill-rule="evenodd" d="M0 0v24h32V0H0z" clip-rule="evenodd"></path><mask id="IconifyId17f59e8143772869c217" width="32" height="24" x="0" y="0" maskUnits="userSpaceOnUse"><path fill="#fff" fill-rule="evenodd" d="M0 0v24h32V0H0z" clip-rule="evenodd"></path></mask><g fill="#3D58DB" fill-rule="evenodd" clip-rule="evenodd" mask="url(#IconifyId17f59e8143772869c217)"><path d="M0 3v3h32V3H0zm0 15v3h32v-3H0zm11.381-3.061h9.377L16.116 6.62l-4.736 8.32zm7.772-1.01h-6.132l3.086-5.47l3.046 5.47z"></path><path d="M11.264 9.076h9.417l-4.545 8.085l-4.872-8.085zm7.781.974h-5.994l3.058 5.481l2.936-5.481z"></path></g></g></svg>