<svg xmlns="http://www.w3.org/2000/svg" xmlns:xlink="http://www.w3.org/1999/xlink" aria-hidden="true" role="img" class="iconify iconify--flagpack" width="1.34em" height="1em" preserveAspectRatio="xMidYMid meet" viewBox="0 0 32 24" data-icon="flagpack:jo"><mask id="IconifyId17f59e8143772869c236" width="32" height="24" x="0" y="0" maskUnits="userSpaceOnUse"><path fill="#fff" d="M0 0h32v24H0z"></path></mask><g fill="none" mask="url(#IconifyId17f59e8143772869c236)"><path fill="#F7FCFF" fill-rule="evenodd" d="M0 0v24h32V0H0z" clip-rule="evenodd"></path><mask id="IconifyId17f59e8143772869c237" width="32" height="24" x="0" y="0" maskUnits="userSpaceOnUse"><path fill="#fff" fill-rule="evenodd" d="M0 0v24h32V0H0z" clip-rule="evenodd"></path></mask><g fill-rule="evenodd" clip-rule="evenodd" mask="url(#IconifyId17f59e8143772869c237)"><path fill="#272727" d="M0 0v8h32V0H0z"></path><path fill="#093" d="M0 16v8h32v-8H0z"></path></g><path fill="#E31D1C" fill-rule="evenodd" d="M0 0v24l20-12L0 0z" clip-rule="evenodd"></path><mask id="IconifyId17f59e8143772869c238" width="20" height="24" x="0" y="0" maskUnits="userSpaceOnUse"><path fill="#fff" fill-rule="evenodd" d="M0 0v24l20-12L0 0z" clip-rule="evenodd"></path></mask><g mask="url(#IconifyId17f59e8143772869c238)"><path fill="#F7FCFF" fill-rule="evenodd" d="M9.002 13.87L7.132 15l.426-2.204L6 11.146l2.11-.088L9.001 9l.892 2.058H12l-1.554 1.738l.468 2.204l-1.912-1.13z" clip-rule="evenodd"></path></g></g></svg>