<svg xmlns="http://www.w3.org/2000/svg" xmlns:xlink="http://www.w3.org/1999/xlink" aria-hidden="true" role="img" class="iconify iconify--flagpack" width="1.34em" height="1em" preserveAspectRatio="xMidYMid meet" viewBox="0 0 32 24" data-icon="flagpack:ke"><mask id="IconifyId17f59e8143772869c241" width="32" height="24" x="0" y="0" maskUnits="userSpaceOnUse"><path fill="#fff" d="M0 0h32v24H0z"></path></mask><mask id="IconifyId17f59e8143772869c242" width="10" height="16" x="11" y="4" maskUnits="userSpaceOnUse"><path fill="#fff" fill-rule="evenodd" d="M16 20c.997 0 5-3.582 5-8s-4.003-8-5-8c-.997 0-5 3.582-5 8s4.003 8 5 8z" clip-rule="evenodd"></path></mask><g fill="none"><g mask="url(#IconifyId17f59e8143772869c241)"><path fill="#272727" fill-rule="evenodd" d="M0 0v8h32V0H0z" clip-rule="evenodd"></path><path fill="#4E8B1D" fill-rule="evenodd" d="M0 16v8h32v-8H0z" clip-rule="evenodd"></path><path fill="#E31D1C" stroke="#F7FCFF" stroke-width="2" d="M0 7h-1v10h34V7H0z"></path></g><path fill="#fff" d="M19.02 3.929c.19-.39.701-.816 1.535-1.278a.1.1 0 0 1 .138.131L12.062 20.48l-.45-.22l7.609-15.6c-.345-.056-.412-.3-.201-.731z"></path><path fill="#fff" d="M12.971 3.929c.21.431.144.675-.2.731l7.607 15.6l-.449.219l-8.631-17.697a.1.1 0 0 1 .138-.131c.833.462 1.345.888 1.535 1.278z"></path><path fill="#E31D1C" fill-rule="evenodd" d="M16 20c.997 0 5-3.582 5-8s-4.003-8-5-8c-.997 0-5 3.582-5 8s4.003 8 5 8z" clip-rule="evenodd"></path><g mask="url(#IconifyId17f59e8143772869c242)"><path fill="#272727" d="M6.5 19a7 7 0 1 0 0-14a7 7 0 0 0 0 14zm19 0a7 7 0 1 0 0-14a7 7 0 0 0 0 14z"></path><path fill="#F7FCFF" fill-rule="evenodd" d="M16.2 10.93c.456-.324.8-1.737.8-3.43s-.344-3.106-.8-3.43v6.86zm-.5-.09c-.406-.446-.7-1.773-.7-3.34s.294-2.894.7-3.34v6.68zm0 2.32v6.68c-.406-.446-.7-1.773-.7-3.34s.294-2.894.7-3.34zm.5 6.77v-6.86c.456.324.8 1.737.8 3.43s-.344 3.106-.8 3.43z" clip-rule="evenodd"></path><path fill="#F7FCFF" d="M16 11a1 1 0 1 1 0 2a1 1 0 0 1 0-2z"></path></g></g></svg>