<svg xmlns="http://www.w3.org/2000/svg" xmlns:xlink="http://www.w3.org/1999/xlink" aria-hidden="true" role="img" class="iconify iconify--flagpack" width="1.34em" height="1em" preserveAspectRatio="xMidYMid meet" viewBox="0 0 32 24" data-icon="flagpack:km"><mask id="IconifyId17f59e8143772869c249" width="32" height="24" x="0" y="0" maskUnits="userSpaceOnUse"><path fill="#fff" d="M0 0h32v24H0z"></path></mask><g fill="none" mask="url(#IconifyId17f59e8143772869c249)"><path fill="#5196ED" fill-rule="evenodd" d="M0 0v24h32V0H0z" clip-rule="evenodd"></path><mask id="IconifyId17f59e8143772869c250" width="32" height="24" x="0" y="0" maskUnits="userSpaceOnUse"><path fill="#fff" fill-rule="evenodd" d="M0 0v24h32V0H0z" clip-rule="evenodd"></path></mask><g fill-rule="evenodd" clip-rule="evenodd" mask="url(#IconifyId17f59e8143772869c250)"><path fill="#AF0100" d="M0 12v6h32v-6H0z"></path><path fill="#F7FCFF" d="M0 6v6h32V6H0z"></path><path fill="#FECA00" d="M0 0v6h32V0H0z"></path><path fill="#5EAA22" d="m0 0l19 12L0 24V0z"></path><path fill="#F7FCFF" d="M7.305 16.501S3.72 15.278 3.848 11.45c.127-3.83 3.775-4.58 3.775-4.58c-1.277-.923-5.85.159-5.996 4.58c-.146 4.42 4.315 5.402 5.678 5.051zm.107-6.692l.112-.654l-.475-.464l.657-.096L8 8l.294.595l.657.096l-.475.464l.112.654L8 9.5l-.588.309zm.112 1.346l-.112.654L8 11.5l.588.309l-.112-.654l.475-.464l-.657-.096L8 10l-.294.595l-.657.096l.475.463zm-.112 2.654l.112-.654l-.475-.464l.657-.096L8 12l.294.595l.657.096l-.475.463l.112.655L8 13.5l-.588.309zm0 2l.112-.654l-.475-.464l.657-.096L8 14l.294.595l.657.096l-.475.463l.112.655L8 15.5l-.588.309z"></path></g></g></svg>