<svg xmlns="http://www.w3.org/2000/svg" xmlns:xlink="http://www.w3.org/1999/xlink" aria-hidden="true" role="img" class="iconify iconify--flagpack" width="1.34em" height="1em" preserveAspectRatio="xMidYMid meet" viewBox="0 0 32 24" data-icon="flagpack:lr"><mask id="IconifyId17f59e8143772869c268" width="32" height="24" x="0" y="0" maskUnits="userSpaceOnUse"><path fill="#fff" d="M0 0h32v24H0z"></path></mask><g fill="none" mask="url(#IconifyId17f59e8143772869c268)"><path fill="#F7FCFF" fill-rule="evenodd" d="M0 0h32v24H0V0z" clip-rule="evenodd"></path><path fill="#E31D1C" d="M.027 5.5h32v3h-32z"></path><path fill="#E31D1C" fill-rule="evenodd" d="M0 0h32v3H0V0z" clip-rule="evenodd"></path><path fill="#E31D1C" d="M-.059 11h32v3h-32zm.171 5.4h32v3h-32zm-.01 5.1h32v3h-32z"></path><path fill="#3D58DB" fill-rule="evenodd" d="M0 0h16v14H0V0z" clip-rule="evenodd"></path><path fill="#F7FCFF" fill-rule="evenodd" d="m8.132 9.213l-2.92 2.026l.933-3.47L4 5.552l2.904-.12L8.132 2l1.23 3.432h2.898l-2.14 2.337l1.072 3.266l-3.06-1.822z" clip-rule="evenodd"></path></g></svg>