<svg xmlns="http://www.w3.org/2000/svg" xmlns:xlink="http://www.w3.org/1999/xlink" aria-hidden="true" role="img" class="iconify iconify--flagpack" width="1.34em" height="1em" preserveAspectRatio="xMidYMid meet" viewBox="0 0 32 24" data-icon="flagpack:mv"><mask id="IconifyId17f59e8143772869c308" width="32" height="24" x="0" y="0" maskUnits="userSpaceOnUse"><path fill="#fff" d="M0 0h32v24H0z"></path></mask><g fill="none" mask="url(#IconifyId17f59e8143772869c308)"><path fill="#C51918" fill-rule="evenodd" d="M0 0h32v22a2 2 0 0 1-2 2H2a2 2 0 0 1-2-2V0z" clip-rule="evenodd"></path><path fill="#C51918" fill-rule="evenodd" d="M0 0h32v24H0V0z" clip-rule="evenodd"></path><path fill="#579D20" fill-rule="evenodd" d="M6 6h20v12H6V6z" clip-rule="evenodd"></path><path stroke="#B6EB9A" stroke-opacity=".238" stroke-width="2" d="M7 7h18v10H7V7z"></path><mask id="IconifyId17f59e8143772869c309" width="20" height="12" x="6" y="6" maskUnits="userSpaceOnUse"><path fill="#fff" fill-rule="evenodd" d="M6 6h20v12H6V6z" clip-rule="evenodd"></path><path stroke="#fff" stroke-width="2" d="M7 7h18v10H7V7z"></path></mask><g mask="url(#IconifyId17f59e8143772869c309)"><path fill="#F9FAFA" fill-rule="evenodd" d="M16.033 12.463c-.017 3.065 2.396 4.7 2.396 4.7c-2.753.323-4.586-2.174-4.586-4.67c0-2.498 2.498-4.56 4.586-5.492c0 0-2.379 2.396-2.396 5.462z" clip-rule="evenodd"></path></g></g></svg>