<svg xmlns="http://www.w3.org/2000/svg" xmlns:xlink="http://www.w3.org/1999/xlink" aria-hidden="true" role="img" class="iconify iconify--flagpack" width="1.34em" height="1em" preserveAspectRatio="xMidYMid meet" viewBox="0 0 32 24" data-icon="flagpack:pa"><mask id="IconifyId17f59e8143772869c338" width="32" height="24" x="0" y="0" maskUnits="userSpaceOnUse"><path fill="#fff" d="M0 0h32v24H0z"></path></mask><g fill="none" mask="url(#IconifyId17f59e8143772869c338)"><path fill="#F7FCFF" fill-rule="evenodd" d="M0 0v24h32V0H0z" clip-rule="evenodd"></path><mask id="IconifyId17f59e8143772869c339" width="32" height="24" x="0" y="0" maskUnits="userSpaceOnUse"><path fill="#fff" fill-rule="evenodd" d="M0 0v24h32V0H0z" clip-rule="evenodd"></path></mask><g fill-rule="evenodd" clip-rule="evenodd" mask="url(#IconifyId17f59e8143772869c339)"><path fill="#E31D1C" d="M16 0v12h16V0H16zm7.02 19.15l-2.302 1.424l.894-2.391l-1.957-1.811h2.374l.992-2.587l.757 2.587h2.377l-1.713 1.81l.839 2.392l-2.26-1.424z"></path><path fill="#2E42A5" d="M9.02 8.365L6.719 9.79l.894-2.392l-1.957-1.81H8.03L9.021 3l.757 2.587h2.377l-1.713 1.81l.839 2.393l-2.26-1.425zM0 12v12h16V12H0z"></path></g></g></svg>