<svg xmlns="http://www.w3.org/2000/svg" xmlns:xlink="http://www.w3.org/1999/xlink" aria-hidden="true" role="img" class="iconify iconify--flagpack" width="1.34em" height="1em" preserveAspectRatio="xMidYMid meet" viewBox="0 0 32 24" data-icon="flagpack:pk"><mask id="IconifyId17f59e8143772869c353" width="32" height="24" x="0" y="0" maskUnits="userSpaceOnUse"><path fill="#fff" d="M0 0h32v24H0z"></path></mask><g fill="none" fill-rule="evenodd" clip-rule="evenodd" mask="url(#IconifyId17f59e8143772869c353)"><path fill="#2F8D00" d="M8 0h24v24H8V0z"></path><path fill="#F7FCFF" d="M0 0h8v24H0V0z"></path><path fill="#F1F9FF" d="M22.43 15.306s-4.466 1.165-8.011-1.21c-3.545-2.375-1.763-7.848-1.763-7.848c-1.849.269-4.752 7.015-.072 10.398c4.68 3.384 9.164.131 9.845-1.34zm-4.956-6.44l-2.372 1.16l2.502.446l.338 2.445l1.417-2.083l2.788.189l-2.184-1.63l1.163-2.176l-2.174.996l-1.616-1.519l.138 2.172z"></path></g></svg>