<svg xmlns="http://www.w3.org/2000/svg" xmlns:xlink="http://www.w3.org/1999/xlink" aria-hidden="true" role="img" class="iconify iconify--flagpack" width="1.34em" height="1em" preserveAspectRatio="xMidYMid meet" viewBox="0 0 32 24"><mask id="IconifyId17f59e8143772869c417" width="32" height="24" x="0" y="0" maskUnits="userSpaceOnUse"><path fill="#fff" d="M0 0h32v24H0z"></path></mask><g fill="none" fill-rule="evenodd" clip-rule="evenodd" mask="url(#IconifyId17f59e8143772869c417)"><path fill="#F7FCFF" d="M0 0h32v24H0V0z"></path><path fill="#409100" d="M9.001 13.247L7.754 14l.285-1.47L7 11.432l1.406-.06L9.001 10l.595 1.372H11L9.964 12.53l.312 1.47L9 13.247zm14 0L21.754 14l.284-1.47L21 11.432l1.406-.06l.595-1.371l.595 1.372H25l-1.036 1.159l.312 1.469L23 13.247z"></path><path fill="#E31D1C" d="M0 0v8h32V0H0z"></path><path fill="#272727" d="M0 16v8h32v-8H0z"></path></g></svg>