<svg xmlns="http://www.w3.org/2000/svg" xmlns:xlink="http://www.w3.org/1999/xlink" aria-hidden="true" role="img" class="iconify iconify--academicons" width="0.88em" height="1em" preserveAspectRatio="xMidYMid meet" viewBox="0 0 448 512" data-icon="academicons:arxiv"><path fill="currentColor" d="M195.59 208.738c0 15.554-5.87 28.163-13.11 28.163c-7.239 0-13.108-12.61-13.108-28.163c0-15.554 5.869-28.163 13.109-28.163s13.108 12.609 13.108 28.163zm83.045 0c0 15.554-5.862 28.163-13.093 28.163c-7.23 0-13.092-12.61-13.092-28.163c0-15.554 5.862-28.163 13.092-28.163s13.093 12.609 13.093 28.163zm21.97 61.461h-13.876c0 7.298 2.703 13.984 7.095 19.328c-4.72 11.843-32.986 26.656-69.828 26.656c-36.829 0-65.109-14.813-69.829-26.656c4.375-5.344 7.11-12.03 7.11-19.328h-13.89c0 9.781-8.656 17.735-19.282 17.735v13.89c5.374 0 10.406-1.36 14.906-3.547c10.188 17.11 41.625 31.797 80.985 31.797c39.374 0 70.796-14.688 80.983-31.797c4.5 2.187 9.53 3.548 14.907 3.548v-13.891c-10.626 0-19.281-7.954-19.281-17.735zm117.28 109.718c-4.157-7.719-7.75-9.266-14.5-11.358c-5.798-1.75-15.985-.938-24.765 2.483c-2 .782-3.813 2.048-5.72 3.078c-5.686 3.046-9.109 2.453-13.437-2.171c-2.485-2.672-10.282-9.72-20.984-19.875c21.843-26 35.032-59.469 35.032-96.078c0-36.593-13.187-70.078-35.032-96.078c10.703-10.14 18.483-17.17 20.968-19.857c4.329-4.626 7.75-5.22 13.438-2.157c1.906 1.016 3.719 2.282 5.719 3.063c8.765 3.422 18.968 4.234 24.764 2.468c6.735-2.076 10.344-3.623 14.501-11.342c2.547-5.953 3.485-11.203 1.626-17.875c-1.86-6.642-9.469-10.907-19.032-12.563c-7.672-1.344-4.515-2.592-4.656-9.469c-.187-10.312-3.891-18.419-12.688-23.921c-6.656-4.125-14.281-4.453-21.655-4.187c-10.141.328-20.594 5.344-23.157 11.374c-3.046 7.125.378 11.718 3.173 16.812c3.61 6.516 1.843 13.047-2.83 18.485c-5.046 5.922-17.452 18.656-24.514 26.171c-25.062-19-56.235-30.419-90.124-30.419c-33.907 0-65.078 11.42-90.156 30.437c-7.063-7.535-19.469-20.27-24.515-26.19c-4.672-5.44-6.423-11.97-2.83-18.501c2.798-5.079 6.22-9.672 3.188-16.797c-2.578-6.046-13.03-11.047-23.171-11.375c-7.375-.281-15.016.047-21.672 4.188c-8.78 5.484-12.5 13.61-12.688 23.905c-.125 6.89 3.032 8.14-4.656 9.485c-9.561 1.641-17.155 5.921-19.03 12.547c-1.86 6.671-.922 11.937 1.626 17.875c4.155 7.718 7.764 9.281 14.499 11.358c5.797 1.766 16 .938 24.78-2.469c2-.796 3.813-2.062 5.719-3.062c5.688-3.063 9.094-2.483 13.437 2.14c2.499 2.705 10.281 9.735 20.968 19.876c-21.842 26-35.029 59.484-35.029 96.077c0 36.61 13.203 70.108 35.032 96.094c-10.688 10.138-18.469 17.187-20.968 19.858c-4.344 4.624-7.75 5.218-13.437 2.172c-1.906-1.032-3.718-2.298-5.718-3.079c-8.781-3.42-18.984-4.233-24.781-2.483c-6.734 2.093-10.344 3.64-14.5 11.358c-2.546 5.954-3.484 11.205-1.625 17.876c1.875 6.64 9.469 10.905 19.032 12.563c7.688 1.342 4.531 2.593 4.656 9.468c.187 10.312 3.905 18.421 12.688 23.922c6.656 4.125 14.297 4.453 21.672 4.187c10.14-.312 20.593-5.344 23.17-11.374c3.032-7.11-.39-11.734-3.187-16.813c-3.593-6.5-1.843-13.032 2.83-18.484c5.046-5.906 17.452-18.656 24.514-26.187c25.079 19.015 56.25 30.436 90.157 30.436c33.905 0 65.061-11.42 90.124-30.436c7.062 7.53 19.484 20.281 24.53 26.187c4.673 5.452 6.423 11.983 2.83 18.484c-2.813 5.079-6.22 9.702-3.19 16.813c2.581 6.031 13.032 11.062 23.173 11.374c7.374.266 15.016-.062 21.673-4.187c8.78-5.5 12.483-13.61 12.673-23.922c.139-6.875-3.017-8.126 4.671-9.468c9.546-1.658 17.156-5.924 19.015-12.563c1.868-6.672.915-11.922-1.631-17.876zM224.012 396.26c-77.343 0-140.265-62.921-140.265-140.265c0-77.327 62.922-140.248 140.265-140.248c77.311 0 140.248 62.921 140.248 140.248c0 77.344-62.937 140.265-140.248 140.265z"></path></svg>