<svg xmlns="http://www.w3.org/2000/svg" xmlns:xlink="http://www.w3.org/1999/xlink" aria-hidden="true" role="img" class="iconify iconify--academicons" width="0.88em" height="1em" preserveAspectRatio="xMidYMid meet" viewBox="0 0 448 512" data-icon="academicons:arxiv-square"><path fill="currentColor" d="M48 32C21.5 32 0 53.5 0 80v352c0 26.5 21.5 48 48 48h352c26.5 0 48-21.5 48-48V80c0-26.5-21.5-48-48-48H48zm59.127 64.004c.773.008 1.544.03 2.312.058c8.451.274 17.163 4.44 19.311 9.479c2.527 5.938-.326 9.766-2.656 13.998c-2.995 5.443-1.536 10.886 2.357 15.418c4.206 4.935 14.542 15.546 20.428 21.824c20.898-15.848 46.875-25.363 75.13-25.363c28.242 0 54.22 9.516 75.104 25.35c5.886-6.263 16.225-16.876 20.43-21.811c3.893-4.532 5.365-9.973 2.357-15.402c-2.329-4.245-5.183-8.075-2.644-14.012c2.136-5.025 10.846-9.205 19.297-9.479c6.145-.22 12.5.053 18.047 3.49c7.33 4.586 10.416 11.341 10.572 19.934c.117 5.73-2.513 6.77 3.88 7.89c7.97 1.38 14.31 4.935 15.86 10.47c1.55 5.56.77 9.935-1.353 14.896c-3.465 6.432-6.472 7.72-12.084 9.451c-4.831 1.472-13.335.796-20.64-2.056c-1.666-.651-3.177-1.707-4.765-2.553c-4.74-2.552-7.59-2.056-11.197 1.799c-2.07 2.239-8.554 8.096-17.473 16.547c18.204 21.666 29.192 49.57 29.192 80.064c0 30.508-10.99 58.398-29.192 80.065c8.919 8.462 15.416 14.336 17.487 16.562c3.606 3.853 6.458 4.35 11.197 1.81c1.59-.858 3.1-1.914 4.766-2.566c7.317-2.85 15.806-3.527 20.636-2.068c5.626 1.744 8.62 3.033 12.084 9.465c2.122 4.961 2.917 9.334 1.36 14.894c-1.55 5.533-7.891 9.09-15.846 10.47c-6.407 1.12-3.776 2.162-3.893 7.892c-.157 8.593-3.243 15.35-10.56 19.933c-5.548 3.438-11.915 3.712-18.06 3.49c-8.451-.26-17.16-4.452-19.311-9.478c-2.525-5.925.312-9.78 2.656-14.012c2.995-5.417 1.538-10.86-2.355-15.404c-4.206-4.921-14.558-15.547-20.444-21.822c-20.885 15.846-46.849 25.365-75.103 25.365c-28.256 0-54.233-9.519-75.131-25.365c-5.886 6.275-16.222 16.9-20.428 21.822c-3.893 4.544-5.352 9.987-2.357 15.404c2.33 4.232 5.182 8.087 2.656 14.012c-2.148 5.025-10.86 9.219-19.31 9.478c-6.146.222-12.513-.053-18.06-3.49c-7.318-4.584-10.417-11.34-10.573-19.933c-.104-5.73 2.527-6.773-3.88-7.891c-7.969-1.381-14.298-4.938-15.86-10.47c-1.55-5.56-.768-9.934 1.355-14.895c3.463-6.432 6.47-7.723 12.082-9.467c4.83-1.459 13.333-.78 20.65 2.07c1.667.65 3.178 1.705 4.766 2.565c4.739 2.538 7.577 2.044 11.197-1.809c2.083-2.226 8.568-8.1 17.475-16.549c-18.19-21.654-29.194-49.57-29.194-80.078c0-30.494 10.989-58.398 29.19-80.064c-8.905-8.45-15.39-14.31-17.473-16.563c-3.619-3.853-6.457-4.337-11.197-1.785c-1.588.833-3.1 1.889-4.766 2.553c-7.317 2.838-15.82 3.528-20.65 2.056c-5.612-1.73-8.62-3.033-12.082-9.464c-2.123-4.949-2.905-9.335-1.356-14.895c1.563-5.521 7.892-9.09 15.86-10.457c6.406-1.12 3.775-2.162 3.879-7.904c.157-8.58 3.257-15.35 10.574-19.92c4.853-3.02 10.334-3.607 15.746-3.55zm116.883 43.12c-64.453 0-116.887 52.433-116.887 116.872c0 64.453 52.434 116.889 116.887 116.889c64.426 0 116.873-52.436 116.873-116.889c0-64.44-52.447-116.873-116.873-116.873zm-34.61 54.022c6.033 0 10.924 10.508 10.924 23.47c0 12.96-4.89 23.468-10.924 23.468c-6.033 0-10.923-10.507-10.923-23.469c0-12.961 4.89-23.469 10.923-23.469zm69.22 0c6.025 0 10.91 10.508 10.91 23.47c0 12.96-4.885 23.468-10.91 23.468c-6.026 0-10.911-10.507-10.911-23.469c0-12.961 4.885-23.469 10.91-23.469zm-98.464 74.686h11.574c0 6.081-2.278 11.654-5.923 16.107c3.933 9.87 27.499 22.213 58.19 22.213c30.701 0 54.255-12.343 58.189-22.213c-3.66-4.453-5.91-10.026-5.91-16.107h11.562c0 8.15 7.212 14.78 16.066 14.78v11.575c-4.48 0-8.67-1.134-12.422-2.957c-8.489 14.257-34.674 26.499-67.486 26.499c-32.8 0-58.996-12.241-67.486-26.499c-3.75 1.823-7.944 2.957-12.422 2.957v-11.576c8.854 0 16.068-6.628 16.068-14.779z"></path></svg>