<svg xmlns="http://www.w3.org/2000/svg" xmlns:xlink="http://www.w3.org/1999/xlink" aria-hidden="true" role="img" class="iconify iconify--icomoon-free" width="1em" height="1em" preserveAspectRatio="xMidYMid meet" viewBox="0 0 16 16"><path fill="currentColor" d="M8 2a7 7 0 1 0 0 14A7 7 0 0 0 8 2zm0 12.625a5.624 5.624 0 1 1 0-11.25a5.624 5.624 0 1 1 0 11.25zm6.606-10.138a3 3 0 0 0-4.98-3.321a8.008 8.008 0 0 1 4.98 3.322zM6.374 1.166a3 3 0 0 0-4.98 3.321a8.006 8.006 0 0 1 4.98-3.322z"></path><path fill="currentColor" d="M8 9V5H7v5h4V9z"></path></svg>