<svg xmlns="http://www.w3.org/2000/svg" xmlns:xlink="http://www.w3.org/1999/xlink" aria-hidden="true" role="img" class="iconify iconify--icomoon-free" width="1em" height="1em" preserveAspectRatio="xMidYMid meet" viewBox="0 0 16 16"><path fill="currentColor" d="M5 12V0H3v12H.5L4 15.5L7.5 12H5zm9.5-5h-4a.5.5 0 0 1-.416-.777L13.566 1H10.5a.5.5 0 0 1 0-1h4a.502.502 0 0 1 .416.777L11.434 6H14.5a.5.5 0 0 1 0 1zm1.447 8.276l-3-6a.5.5 0 0 0-.894 0l-3 6a.5.5 0 0 0 .895.447l.862-1.724h3.382l.862 1.724a.5.5 0 0 0 .895-.447zM11.309 13l1.191-2.382L13.691 13h-2.382z"></path></svg>