<svg xmlns="http://www.w3.org/2000/svg" xmlns:xlink="http://www.w3.org/1999/xlink" aria-hidden="true" role="img" class="iconify iconify--bxs" width="1em" height="1em" preserveAspectRatio="xMidYMid meet" viewBox="0 0 24 24" data-icon="bxs:captions"><path fill="currentColor" d="M20 4H4c-1.103 0-2 .897-2 2v12c0 1.103.897 2 2 2h16c1.103 0 2-.897 2-2V6c0-1.103-.897-2-2-2zm-9 6H8v4h3v2H8c-1.103 0-2-.897-2-2v-4c0-1.103.897-2 2-2h3v2zm7 0h-3v4h3v2h-3c-1.103 0-2-.897-2-2v-4c0-1.103.897-2 2-2h3v2z"></path></svg>