<svg xmlns="http://www.w3.org/2000/svg" xmlns:xlink="http://www.w3.org/1999/xlink" aria-hidden="true" role="img" class="iconify iconify--carbon" width="1em" height="1em" preserveAspectRatio="xMidYMid meet" viewBox="0 0 32 32" data-icon="carbon:accessibility-color-filled"><path fill="currentColor" d="M16 10a8.598 8.598 0 0 0-7.965 6A8.598 8.598 0 0 0 16 22a8.598 8.598 0 0 0 7.965-6A8.598 8.598 0 0 0 16 10Zm0 10a4 4 0 1 1 4-4a4.005 4.005 0 0 1-4 4Z"></path><path fill="currentColor" d="M16 2a14 14 0 1 0 14 14A14 14 0 0 0 16 2Zm0 22a10.654 10.654 0 0 1-9.97-7.758L5.97 16l.06-.242A10.654 10.654 0 0 1 16 8a10.654 10.654 0 0 1 9.97 7.758l.06.242l-.06.242A10.654 10.654 0 0 1 16 24Z"></path><circle cx="16" cy="16" r="2" fill="currentColor"></circle><path fill="none" d="M16 20a4 4 0 1 1 4-4a4.005 4.005 0 0 1-4 4Zm0-6a2 2 0 1 0 2 2a2.002 2.002 0 0 0-2-2Z"></path><path fill="none" d="M16 24a10.655 10.655 0 0 1-9.97-7.758L5.97 16l.06-.242A10.655 10.655 0 0 1 16 8a10.655 10.655 0 0 1 9.97 7.758l.06.242l-.06.242A10.655 10.655 0 0 1 16 24Zm-7.965-8A8.598 8.598 0 0 0 16 22a8.598 8.598 0 0 0 7.965-6A8.598 8.598 0 0 0 16 10a8.598 8.598 0 0 0-7.965 6Z"></path></svg>