<svg xmlns="http://www.w3.org/2000/svg" xmlns:xlink="http://www.w3.org/1999/xlink" aria-hidden="true" role="img" class="iconify iconify--carbon" width="1em" height="1em" preserveAspectRatio="xMidYMid meet" viewBox="0 0 32 32" data-icon="carbon:accumulation-ice"><path fill="currentColor" d="M22 8v8l1 2l1-2V8h-2zm-4 0v10l1 2l1-2V8h-2z"></path><path fill="currentColor" d="M28 4a2.002 2.002 0 0 0-2 2v20H6v-4h4v-2H6v-4h4v-2H6v-4h8v4l1 2l1-2V8H6V6a2.002 2.002 0 0 0-2-2H2v2h2v20a2.002 2.002 0 0 0 2 2h20a2.002 2.002 0 0 0 2-2V6h2V4Z"></path></svg>