<svg xmlns="http://www.w3.org/2000/svg" xmlns:xlink="http://www.w3.org/1999/xlink" aria-hidden="true" role="img" class="iconify iconify--carbon" width="1em" height="1em" preserveAspectRatio="xMidYMid meet" viewBox="0 0 32 32" data-icon="carbon:accumulation-snow"><path fill="currentColor" d="M12 2h2v2h-2zm2 2h2v2h-2zm2 2h2v2h-2zm0-4h2v2h-2zm-4 4h2v2h-2zm2 12h2v2h-2zm2 2h2v2h-2zm2 2h2v2h-2zm0-4h2v2h-2zm-4 4h2v2h-2zm4-12h2v2h-2zm2 2h2v2h-2zm2 2h2v2h-2zm0-4h2v2h-2zm-4 4h2v2h-2z"></path><path fill="currentColor" d="M28 4a2.002 2.002 0 0 0-2 2v20H6v-4h4v-2H6v-4h4v-2H6v-4h4V8H6V6a2.002 2.002 0 0 0-2-2H2v2h2v20a2.002 2.002 0 0 0 2 2h20a2.002 2.002 0 0 0 2-2V6h2V4Z"></path></svg>