<svg xmlns="http://www.w3.org/2000/svg" xmlns:xlink="http://www.w3.org/1999/xlink" aria-hidden="true" role="img" class="iconify iconify--carbon" width="1em" height="1em" preserveAspectRatio="xMidYMid meet" viewBox="0 0 32 32" data-icon="carbon:airline-manage-gates"><path fill="currentColor" d="M18 23h-2v-2a3.003 3.003 0 0 0-3-3H9a3.003 3.003 0 0 0-3 3v2H4v-2a5.006 5.006 0 0 1 5-5h4a5.006 5.006 0 0 1 5 5zM11 6a3 3 0 1 1-3 3a3 3 0 0 1 3-3m0-2a5 5 0 1 0 5 5a5 5 0 0 0-5-5zM2 26h28v2H2zM22 4v2h4.586L20 12.586L21.414 14L28 7.414V12h2V4h-8z"></path></svg>