<svg xmlns="http://www.w3.org/2000/svg" xmlns:xlink="http://www.w3.org/1999/xlink" aria-hidden="true" role="img" class="iconify iconify--carbon" width="1em" height="1em" preserveAspectRatio="xMidYMid meet" viewBox="0 0 32 32" data-icon="carbon:airport-01"><path fill="currentColor" fill-rule="evenodd" d="m17 14.5l6 2.5v-2l-6-3V9a1 1 0 0 0-2 0v3l-6 3v2l6-2.5V20l-3 2v1l4-1l4 1v-1l-3-2Z"></path><path fill="currentColor" d="M16 30a14 14 0 1 1 14-14a14.016 14.016 0 0 1-14 14Zm0-26a12 12 0 1 0 12 12A12.014 12.014 0 0 0 16 4Z"></path></svg>