<svg xmlns="http://www.w3.org/2000/svg" xmlns:xlink="http://www.w3.org/1999/xlink" aria-hidden="true" role="img" class="iconify iconify--carbon" width="1em" height="1em" preserveAspectRatio="xMidYMid meet" viewBox="0 0 32 32" data-icon="carbon:apps"><path fill="currentColor" d="M8 4v4H4V4Zm2-2H2v8h8Zm8 2v4h-4V4Zm2-2h-8v8h8Zm8 2v4h-4V4Zm2-2h-8v8h8ZM8 14v4H4v-4Zm2-2H2v8h8Zm8 2v4h-4v-4Zm2-2h-8v8h8Zm8 2v4h-4v-4Zm2-2h-8v8h8ZM8 24v4H4v-4Zm2-2H2v8h8Zm8 2v4h-4v-4Zm2-2h-8v8h8Zm8 2v4h-4v-4Zm2-2h-8v8h8Z"></path></svg>