<svg xmlns="http://www.w3.org/2000/svg" xmlns:xlink="http://www.w3.org/1999/xlink" aria-hidden="true" role="img" class="iconify iconify--carbon" width="1em" height="1em" preserveAspectRatio="xMidYMid meet" viewBox="0 0 32 32" data-icon="carbon:bare-metal-server"><circle cx="9" cy="6" r="1" fill="currentColor"></circle><path fill="currentColor" d="M26 10H6a2.002 2.002 0 0 1-2-2V4a2.002 2.002 0 0 1 2-2h20a2.002 2.002 0 0 1 2 2v4a2.002 2.002 0 0 1-2 2ZM6 4v4h20V4Z"></path><circle cx="9" cy="16" r="1" fill="currentColor"></circle><path fill="currentColor" d="M26 20H6a2.002 2.002 0 0 1-2-2v-4a2.002 2.002 0 0 1 2-2h20a2.002 2.002 0 0 1 2 2v4a2.002 2.002 0 0 1-2 2ZM6 14v4h20v-4Z"></path><circle cx="9" cy="26" r="1" fill="currentColor"></circle><path fill="currentColor" d="M26 30H6a2.002 2.002 0 0 1-2-2v-4a2.002 2.002 0 0 1 2-2h20a2.002 2.002 0 0 1 2 2v4a2.002 2.002 0 0 1-2 2ZM6 24v4h20v-4Z"></path></svg>