<svg xmlns="http://www.w3.org/2000/svg" xmlns:xlink="http://www.w3.org/1999/xlink" aria-hidden="true" role="img" class="iconify iconify--carbon" width="1em" height="1em" preserveAspectRatio="xMidYMid meet" viewBox="0 0 32 32" data-icon="carbon:battery-low"><path fill="currentColor" d="M24 24H6a2.002 2.002 0 0 1-2-2V10a2.002 2.002 0 0 1 2-2h18a2.002 2.002 0 0 1 2 2v1h1a2.002 2.002 0 0 1 2 2v6a2.003 2.003 0 0 1-2 2h-1v1a2.003 2.003 0 0 1-2 2ZM6 10v12h18v-3h3v-6h-3v-3Z"></path><path fill="currentColor" d="M10 12v8H8v-8z"></path></svg>