<svg xmlns="http://www.w3.org/2000/svg" xmlns:xlink="http://www.w3.org/1999/xlink" aria-hidden="true" role="img" class="iconify iconify--carbon" width="1em" height="1em" preserveAspectRatio="xMidYMid meet" viewBox="0 0 32 32" data-icon="carbon:border-bottom"><path fill="currentColor" d="M29 29H3v-2h26zm0-4h-2v-2h2zm0-4h-2v-2h2zm0-4h-2v-2h2zm0-4h-2v-2h2zm0-4h-2V7h2zm0-4h-2V3h2zm-4 0h-2V3h2zm-4 0h-2V3h2zm-4 0h-2V3h2zM9 5H7V3h2zm4 0h-2V3h2zM5 25H3v-2h2zm0-4H3v-2h2zm0-4H3v-2h2zm0-4H3v-2h2zm0-4H3V7h2zm0-4H3V3h2zm3 5h10v2H8zm0 5h6v2H8z"></path></svg>