<svg xmlns="http://www.w3.org/2000/svg" xmlns:xlink="http://www.w3.org/1999/xlink" aria-hidden="true" role="img" class="iconify iconify--carbon" width="1em" height="1em" preserveAspectRatio="xMidYMid meet" viewBox="0 0 32 32" data-icon="carbon:border-left"><path fill="currentColor" d="M3 29V3h2v26zm4 0v-2h2v2zm4 0v-2h2v2zm4 0v-2h2v2zm4 0v-2h2v2zm4 0v-2h2v2zm4 0v-2h2v2zm0-4v-2h2v2zm0-4v-2h2v2zm0-4v-2h2v2zm0-8V7h2v2zm0 4v-2h2v2zM7 5V3h2v2zm4 0V3h2v2zm4 0V3h2v2zm4 0V3h2v2zm4 0V3h2v2zm4 0V3h2v2zM8 10h10v2H8zm0 5h6v2H8z"></path></svg>