<svg xmlns="http://www.w3.org/2000/svg" xmlns:xlink="http://www.w3.org/1999/xlink" aria-hidden="true" role="img" class="iconify iconify--carbon" width="1em" height="1em" preserveAspectRatio="xMidYMid meet" viewBox="0 0 32 32" data-icon="carbon:calculator"><path fill="currentColor" d="M26 4v24H6V4h20m0-2H6a2 2 0 0 0-2 2v24a2 2 0 0 0 2 2h20a2 2 0 0 0 2-2V4a2 2 0 0 0-2-2Z"></path><path fill="currentColor" d="M9 23h2v2H9zm12 0h2v2h-2zM9 18h2v2H9zm12 0h2v2h-2zM9 13h2v2H9zm6 10h2v2h-2zm0-5h2v2h-2zm0-5h2v2h-2zm6 0h2v2h-2zM9 7h14v3H9z"></path></svg>