<svg xmlns="http://www.w3.org/2000/svg" xmlns:xlink="http://www.w3.org/1999/xlink" aria-hidden="true" role="img" class="iconify iconify--carbon" width="1em" height="1em" preserveAspectRatio="xMidYMid meet" viewBox="0 0 32 32" data-icon="carbon:camera-action"><path fill="currentColor" d="M12 23a6 6 0 1 1 6-6a6 6 0 0 1-6 6Zm0-10a4 4 0 1 0 4 4a4 4 0 0 0-4-4Z"></path><path fill="currentColor" d="M29 27H3a1 1 0 0 1-1-1V6a1 1 0 0 1 1-1h26a1 1 0 0 1 1 1v20a1 1 0 0 1-1 1ZM4 25h24V7H4Z"></path><path fill="currentColor" d="M19 9h7v2h-7z"></path><circle cx="12" cy="17" r="1" fill="currentColor"></circle></svg>