<svg xmlns="http://www.w3.org/2000/svg" xmlns:xlink="http://www.w3.org/1999/xlink" aria-hidden="true" role="img" class="iconify iconify--carbon" width="1em" height="1em" preserveAspectRatio="xMidYMid meet" viewBox="0 0 32 32"><path fill="currentColor" d="M28 30h-6a2.002 2.002 0 0 1-2-2V10a2.002 2.002 0 0 1 2-2h6a2.002 2.002 0 0 1 2 2v18a2.002 2.002 0 0 1-2 2zm-6-20v18h6V10zm-6-1l5.586-5.586L20.172 2L16 6.172L11.828 2l-1.414 1.414L16 9zm-6 21H4a2.002 2.002 0 0 1-2-2V10a2.002 2.002 0 0 1 2-2h6a2.002 2.002 0 0 1 2 2v18a2.002 2.002 0 0 1-2 2zM4 10v18h6V10z"></path></svg>