<svg xmlns="http://www.w3.org/2000/svg" xmlns:xlink="http://www.w3.org/1999/xlink" aria-hidden="true" role="img" class="iconify iconify--carbon" width="1em" height="1em" preserveAspectRatio="xMidYMid meet" viewBox="0 0 32 32"><path fill="currentColor" d="M16 4A12 12 0 1 1 4 16A12 12 0 0 1 16 4m0-2a14 14 0 1 0 14 14A14 14 0 0 0 16 2Z"></path><path fill="currentColor" d="M23 10.41L21.59 9l-4.3 4.3a3 3 0 0 0-4 4L9 21.59L10.41 23l4.3-4.3a3 3 0 0 0 4-4ZM17 16a1 1 0 1 1-1-1a1 1 0 0 1 1 1Z"></path><circle cx="16" cy="7.5" r="1.5" fill="currentColor"></circle></svg>