<svg xmlns="http://www.w3.org/2000/svg" xmlns:xlink="http://www.w3.org/1999/xlink" aria-hidden="true" role="img" class="iconify iconify--carbon" width="1em" height="1em" preserveAspectRatio="xMidYMid meet" viewBox="0 0 32 32"><path fill="currentColor" d="M7 8h5v2H7zm0 4h5v2H7zm0 4h5v2H7zm13-8h5v2h-5zm0 4h5v2h-5zm0 4h5v2h-5z"></path><path fill="currentColor" d="M28 4H4a2.002 2.002 0 0 0-2 2v22a2.002 2.002 0 0 0 2 2h24a2.002 2.002 0 0 0 2-2V6a2.002 2.002 0 0 0-2-2ZM4 6h11v22H4Zm13 22V6h11v22Z"></path></svg>