<svg xmlns="http://www.w3.org/2000/svg" xmlns:xlink="http://www.w3.org/1999/xlink" aria-hidden="true" role="img" class="iconify iconify--carbon" width="1em" height="1em" preserveAspectRatio="xMidYMid meet" viewBox="0 0 32 32"><path fill="currentColor" d="M24 30H8a2.002 2.002 0 0 1-2-2v-4a2.002 2.002 0 0 1 2-2h16a2.002 2.002 0 0 1 2 2v4a2.002 2.002 0 0 1-2 2zM8 24v4h16v-4zm-6-6h28v2H2zm18-4h-8a2.002 2.002 0 0 1-2-2V8a2.002 2.002 0 0 1 2-2h8a2.002 2.002 0 0 1 2 2v4a2.002 2.002 0 0 1-2 2zm-8-6v4h8V8zM2 2h28v2H2z"></path></svg>