<svg xmlns="http://www.w3.org/2000/svg" xmlns:xlink="http://www.w3.org/1999/xlink" aria-hidden="true" role="img" class="iconify iconify--carbon" width="1em" height="1em" preserveAspectRatio="xMidYMid meet" viewBox="0 0 32 32"><path fill="currentColor" d="M22 24H10a2.002 2.002 0 0 1-2-2V10a2.002 2.002 0 0 1 2-2h12a2.002 2.002 0 0 1 2 2v12a2.002 2.002 0 0 1-2 2zM10 10v12h12V10zM8 30H4a2.002 2.002 0 0 1-2-2V4a2.002 2.002 0 0 1 2-2h4v2H4v24h4zm20 0h-4v-2h4V4h-4V2h4a2.002 2.002 0 0 1 2 2v24a2.002 2.002 0 0 1-2 2z"></path></svg>