<svg xmlns="http://www.w3.org/2000/svg" xmlns:xlink="http://www.w3.org/1999/xlink" aria-hidden="true" role="img" class="iconify iconify--carbon" width="1em" height="1em" preserveAspectRatio="xMidYMid meet" viewBox="0 0 32 32"><circle cx="9" cy="6" r="1" fill="currentColor"></circle><path fill="currentColor" d="M26 2H6a2 2 0 0 0-2 2v4a2 2 0 0 0 2 2h9v4h2v-4h9a2 2 0 0 0 2-2V4a2 2 0 0 0-2-2zm0 6H6V4h20zm-9 20v-2h-2v2H4v2h24v-2H17z"></path><circle cx="9" cy="20" r="1" fill="currentColor"></circle><path fill="currentColor" d="M6 24h20a2 2 0 0 0 2-2v-4a2 2 0 0 0-2-2H6a2 2 0 0 0-2 2v4a2 2 0 0 0 2 2Zm0-6h20v4H6Z"></path></svg>