<svg xmlns="http://www.w3.org/2000/svg" xmlns:xlink="http://www.w3.org/1999/xlink" aria-hidden="true" role="img" class="iconify iconify--carbon" width="1em" height="1em" preserveAspectRatio="xMidYMid meet" viewBox="0 0 32 32"><path fill="currentColor" d="M17 22v-8h-4v2h2v6h-3v2h8v-2h-3zM16 8a1.5 1.5 0 1 0 1.5 1.5A1.5 1.5 0 0 0 16 8z"></path><path fill="currentColor" d="M26 28H6a2.002 2.002 0 0 1-2-2V6a2.002 2.002 0 0 1 2-2h20a2.002 2.002 0 0 1 2 2v20a2.002 2.002 0 0 1-2 2ZM6 6v20h20V6Z"></path></svg>