<svg xmlns="http://www.w3.org/2000/svg" xmlns:xlink="http://www.w3.org/1999/xlink" aria-hidden="true" role="img" class="iconify iconify--carbon" width="1em" height="1em" preserveAspectRatio="xMidYMid meet" viewBox="0 0 32 32"><path fill="none" d="M16 8a1.5 1.5 0 1 1-1.5 1.5A1.5 1.5 0 0 1 16 8Zm4 13.875h-2.875v-8H13v2.25h1.875v5.75H12v2.25h8Z"></path><path fill="currentColor" d="M26 4H6a2 2 0 0 0-2 2v20a2 2 0 0 0 2 2h20a2 2 0 0 0 2-2V6a2 2 0 0 0-2-2ZM16 8a1.5 1.5 0 1 1-1.5 1.5A1.5 1.5 0 0 1 16 8Zm4 16.125h-8v-2.25h2.875v-5.75H13v-2.25h4.125v8H20Z"></path></svg>