<svg xmlns="http://www.w3.org/2000/svg" xmlns:xlink="http://www.w3.org/1999/xlink" aria-hidden="true" role="img" class="iconify iconify--carbon" width="1em" height="1em" preserveAspectRatio="xMidYMid meet" viewBox="0 0 32 32"><circle cx="9" cy="7" r="1" fill="currentColor"></circle><path fill="currentColor" d="M27 22v-4a2 2 0 0 0-2-2h-8v-4h9a2 2 0 0 0 2-2V4a2 2 0 0 0-2-2H6a2 2 0 0 0-2 2v6a2 2 0 0 0 2 2h9v4H7a2 2 0 0 0-2 2v4H2v8h8v-8H7v-4h8v4h-3v8h8v-8h-3v-4h8v4h-3v8h8v-8ZM8 28H4v-4h4Zm10-4v4h-4v-4ZM6 10V4h20v6Zm22 18h-4v-4h4Z"></path></svg>