<svg xmlns="http://www.w3.org/2000/svg" xmlns:xlink="http://www.w3.org/1999/xlink" aria-hidden="true" role="img" class="iconify iconify--carbon" width="1em" height="1em" preserveAspectRatio="xMidYMid meet" viewBox="0 0 32 32"><path fill="currentColor" d="M4 4v24h24V4Zm19.939 5.687L22.65 10.92a.377.377 0 0 0-.143.361v9.068a.377.377 0 0 0 .143.361l1.257 1.234v.27h-6.323v-.27l1.303-1.264c.128-.128.128-.166.128-.36v-7.33l-3.62 9.196h-.49L10.69 12.99v6.163a.85.85 0 0 0 .233.707l1.694 2.055v.27H7.815v-.27L9.51 19.86a.82.82 0 0 0 .218-.707v-7.127a.623.623 0 0 0-.203-.526L8.019 9.687v-.271h4.674l3.613 7.923l3.176-7.924h4.456Z"></path><path fill="none" d="M9.727 12.027a.625.625 0 0 0-.203-.527L8.019 9.686v-.27h4.674l3.613 7.923l3.176-7.924h4.457v.271L22.65 10.92a.376.376 0 0 0-.143.361v9.068a.376.376 0 0 0 .143.361l1.257 1.234v.271h-6.322v-.27l1.302-1.265c.128-.128.128-.166.128-.361V12.99l-3.62 9.195h-.49L10.69 12.99v6.163a.85.85 0 0 0 .233.707l1.694 2.055v.27H7.815v-.27L9.51 19.86a.82.82 0 0 0 .218-.707Z"></path></svg>