<svg xmlns="http://www.w3.org/2000/svg" xmlns:xlink="http://www.w3.org/1999/xlink" aria-hidden="true" role="img" class="iconify iconify--carbon" width="1em" height="1em" preserveAspectRatio="xMidYMid meet" viewBox="0 0 32 32"><path fill="currentColor" fill-rule="evenodd" d="m9.09 15.246l4.67 2.277a1.07 1.07 0 0 1-.21 2.002l-5.04 1.257a1.073 1.073 0 0 1-1.324-.921a9.217 9.217 0 0 1 .42-3.997a1.07 1.07 0 0 1 1.485-.618zm1.87 9.614L14.436 21a1.07 1.07 0 0 1 1.866.753l-.181 5.194a1.072 1.072 0 0 1-1.25 1.02a9.301 9.301 0 0 1-3.722-1.507a1.071 1.071 0 0 1-.189-1.6zm8.242-5.138l4.942 1.606a1.071 1.071 0 0 1 .636 1.48a9.302 9.302 0 0 1-2.47 3.166a1.072 1.072 0 0 1-1.592-.258l-2.754-4.408a1.07 1.07 0 0 1 1.239-1.586zm5.025-3.152l-4.995 1.432a1.07 1.07 0 0 1-1.182-1.628l2.906-4.308a1.07 1.07 0 0 1 1.594-.206a9.217 9.217 0 0 1 2.363 3.25a1.073 1.073 0 0 1-.686 1.46zM12.557 4.45a14.954 14.954 0 0 0-2.568.946a1.07 1.07 0 0 0-.464 1.501l4.882 8.456a1.07 1.07 0 0 0 1.998-.535V5.053a1.07 1.07 0 0 0-1.152-1.068a14.958 14.958 0 0 0-2.697.465z"></path></svg>