<svg xmlns="http://www.w3.org/2000/svg" xmlns:xlink="http://www.w3.org/1999/xlink" aria-hidden="true" role="img" class="iconify iconify--carbon" width="1em" height="1em" preserveAspectRatio="xMidYMid meet" viewBox="0 0 32 32"><circle cx="16" cy="16" r="2" fill="currentColor"></circle><path fill="currentColor" d="m30.864 15.496l-7-12A1 1 0 0 0 23 3H9a1 1 0 0 0-.864.496l-7 12a1 1 0 0 0 0 1.008l7 12A1 1 0 0 0 9 29h14a1 1 0 0 0 .864-.496l7-12a1 1 0 0 0 0-1.008ZM22.426 27H9.574L3.158 16L9.574 5h12.852l6.416 11Z"></path></svg>