<svg xmlns="http://www.w3.org/2000/svg" xmlns:xlink="http://www.w3.org/1999/xlink" aria-hidden="true" role="img" class="iconify iconify--carbon" width="1em" height="1em" preserveAspectRatio="xMidYMid meet" viewBox="0 0 32 32"><path fill="currentColor" d="M22 26h-6v-6h4v-2h-4v-2h6v6h-4v2h4v2z"></path><path fill="currentColor" d="m25.7 9.3l-7-7A.908.908 0 0 0 18 2H8a2.006 2.006 0 0 0-2 2v24a2.006 2.006 0 0 0 2 2h16a2.006 2.006 0 0 0 2-2V10a.908.908 0 0 0-.3-.7ZM18 4.4l5.6 5.6H18ZM24 28H8V4h8v6a2.006 2.006 0 0 0 2 2h6Z"></path></svg>