<svg xmlns="http://www.w3.org/2000/svg" xmlns:xlink="http://www.w3.org/1999/xlink" aria-hidden="true" role="img" class="iconify iconify--carbon" width="1em" height="1em" preserveAspectRatio="xMidYMid meet" viewBox="0 0 32 32"><path fill="currentColor" d="M12 30H4a2.002 2.002 0 0 1-2-2v-4a2.002 2.002 0 0 1 2-2h8a2.002 2.002 0 0 1 2 2v4a2.002 2.002 0 0 1-2 2zm-8-6v4h8v-4zm24-4H12a2.002 2.002 0 0 1-2-2v-4a2.002 2.002 0 0 1 2-2h16a2.002 2.002 0 0 1 2 2v4a2.002 2.002 0 0 1-2 2zm-16-6v4h16v-4zm4-4H4a2.002 2.002 0 0 1-2-2V4a2.002 2.002 0 0 1 2-2h12a2.002 2.002 0 0 1 2 2v4a2.002 2.002 0 0 1-2 2zM4 4v4h12V4z"></path></svg>