<svg xmlns="http://www.w3.org/2000/svg" xmlns:xlink="http://www.w3.org/1999/xlink" aria-hidden="true" role="img" class="iconify iconify--carbon" width="1em" height="1em" preserveAspectRatio="xMidYMid meet" viewBox="0 0 32 32"><circle cx="10" cy="28" r="2" fill="currentColor"></circle><circle cx="24" cy="28" r="2" fill="currentColor"></circle><path fill="currentColor" d="M28 7H5.82L5 2.8A1 1 0 0 0 4 2H0v2h3.18L7 23.2a1 1 0 0 0 1 .8h18v-2H8.82L8 18h18a1 1 0 0 0 1-.78l2-9A1 1 0 0 0 28 7Zm-2.8 9H7.62l-1.4-7h20.53Z"></path></svg>