<svg xmlns="http://www.w3.org/2000/svg" xmlns:xlink="http://www.w3.org/1999/xlink" aria-hidden="true" role="img" class="iconify iconify--carbon" width="1em" height="1em" preserveAspectRatio="xMidYMid meet" viewBox="0 0 32 32"><path fill="currentColor" d="M28 10H4a2.002 2.002 0 0 1-2-2V4a2.002 2.002 0 0 1 2-2h24a2.002 2.002 0 0 1 2 2v4a2.002 2.002 0 0 1-2 2zM4 4v4h24V4zm24 26H4a2.002 2.002 0 0 1-2-2v-4a2.002 2.002 0 0 1 2-2h24a2.002 2.002 0 0 1 2 2v4a2.002 2.002 0 0 1-2 2zM4 24v4h24v-4zm24-4H4a2.002 2.002 0 0 1-2-2v-4a2.002 2.002 0 0 1 2-2h24a2.002 2.002 0 0 1 2 2v4a2.002 2.002 0 0 1-2 2zM4 14v4h24v-4z"></path></svg>