<svg xmlns="http://www.w3.org/2000/svg" xmlns:xlink="http://www.w3.org/1999/xlink" aria-hidden="true" role="img" class="iconify iconify--carbon" width="1em" height="1em" preserveAspectRatio="xMidYMid meet" viewBox="0 0 32 32"><path fill="currentColor" d="M19 10a3 3 0 1 1 3-3a3.003 3.003 0 0 1-3 3zm0-4a1 1 0 1 0 1 1a1.001 1.001 0 0 0-1-1zm0 13a3 3 0 1 1 3-3a3.003 3.003 0 0 1-3 3zm0-4a1 1 0 1 0 1 1a1.001 1.001 0 0 0-1-1zm8 4a3 3 0 1 1 3-3a3.003 3.003 0 0 1-3 3zm0-4a1 1 0 1 0 1 1a1.001 1.001 0 0 0-1-1zm-8 13a3 3 0 1 1 3-3a3.003 3.003 0 0 1-3 3zm0-4a1 1 0 1 0 1 1a1.001 1.001 0 0 0-1-1zM12 2h2v28h-2zM7 28a3 3 0 1 1 3-3a3.003 3.003 0 0 1-3 3zm0-4a1 1 0 1 0 1 1a1.001 1.001 0 0 0-1-1zm0-5a3 3 0 1 1 3-3a3.003 3.003 0 0 1-3 3zm0-4a1 1 0 1 0 1 1a1.001 1.001 0 0 0-1-1zm0-5a3 3 0 1 1 3-3a3.003 3.003 0 0 1-3 3zm0-4a1 1 0 1 0 1 1a1.001 1.001 0 0 0-1-1z"></path></svg>