<svg xmlns="http://www.w3.org/2000/svg" xmlns:xlink="http://www.w3.org/1999/xlink" aria-hidden="true" role="img" class="iconify iconify--carbon" width="1em" height="1em" preserveAspectRatio="xMidYMid meet" viewBox="0 0 32 32"><path fill="currentColor" d="M12 30H4a2.002 2.002 0 0 1-2-2V4a2.002 2.002 0 0 1 2-2h8a2.002 2.002 0 0 1 2 2v24a2.002 2.002 0 0 1-2 2zM4 4v24h8V4zm24 26h-8a2.002 2.002 0 0 1-2-2V4a2.002 2.002 0 0 1 2-2h8a2.002 2.002 0 0 1 2 2v24a2.002 2.002 0 0 1-2 2zM20 4v24h8V4z"></path></svg>