<svg xmlns="http://www.w3.org/2000/svg" xmlns:xlink="http://www.w3.org/1999/xlink" aria-hidden="true" role="img" class="iconify iconify--carbon" width="1em" height="1em" preserveAspectRatio="xMidYMid meet" viewBox="0 0 32 32"><path fill="currentColor" d="M16 23a1.5 1.5 0 1 0 1.5 1.5A1.5 1.5 0 0 0 16 23zm-1-11h2v9h-2z"></path><path fill="currentColor" d="M29 30H3a1 1 0 0 1-.887-1.461l13-25a1 1 0 0 1 1.774 0l13 25A1 1 0 0 1 29 30ZM4.65 28h22.7l.001-.003L16.002 6.17h-.004L4.648 27.997Z"></path></svg>