<svg xmlns="http://www.w3.org/2000/svg" xmlns:xlink="http://www.w3.org/1999/xlink" aria-hidden="true" role="img" class="iconify iconify--akar-icons" width="1em" height="1em" preserveAspectRatio="xMidYMid meet" viewBox="0 0 24 24" data-icon="akar-icons:boat"><g fill="none" stroke="currentColor" stroke-linecap="round" stroke-linejoin="round" stroke-width="2"><path d="m16.926 19.381l-4.302 1.414a2 2 0 0 1-1.248 0L7.074 19.38a4 4 0 0 1-2.623-2.794L3 11l9 1l9-1l-1.451 5.587a4 4 0 0 1-2.623 2.794Z"></path><path d="M6.497 7.257A2 2 0 0 1 8.354 6h7.292a2 2 0 0 1 1.857 1.257L19 11l-7 1l-7-1l1.497-3.743ZM12 3v3m-1-3h2m-1 9v4"></path></g></svg>