<svg xmlns="http://www.w3.org/2000/svg" xmlns:xlink="http://www.w3.org/1999/xlink" aria-hidden="true" role="img" class="iconify iconify--akar-icons" width="1em" height="1em" preserveAspectRatio="xMidYMid meet" viewBox="0 0 24 24" data-icon="akar-icons:cake"><g fill="none" stroke="currentColor" stroke-linecap="round" stroke-width="2"><path stroke-linejoin="round" d="M3 10a2 2 0 0 1 2-2h14a2 2 0 0 1 2 2v9a2 2 0 0 1-2 2H5a2 2 0 0 1-2-2v-9Z"></path><path d="m3 12l2.914 2.331c1.187.95 2.9.855 3.975-.22v0a2.985 2.985 0 0 1 4.222 0v0a2.985 2.985 0 0 0 3.975.22L21 12"></path><path stroke-linejoin="round" d="M12 7a2 2 0 0 1-2-2c0-.876.677-1.576 1.273-2.217L12 2l.727.783C13.323 3.424 14 4.124 14 5a2 2 0 0 1-2 2Z"></path></g></svg>