<svg xmlns="http://www.w3.org/2000/svg" xmlns:xlink="http://www.w3.org/1999/xlink" aria-hidden="true" role="img" class="iconify iconify--akar-icons" width="1em" height="1em" preserveAspectRatio="xMidYMid meet" viewBox="0 0 24 24" data-icon="akar-icons:check-box-fill"><path fill="currentColor" fill-rule="evenodd" d="M7 2a5 5 0 0 0-5 5v10a5 5 0 0 0 5 5h10a5 5 0 0 0 5-5V7a5 5 0 0 0-5-5H7Zm8.73 8.684a1 1 0 1 0-1.46-1.368l-3.083 3.29l-1.523-1.353a1 1 0 0 0-1.328 1.494l2.25 2a1 1 0 0 0 1.393-.063l3.75-4Z" clip-rule="evenodd"></path></svg>