<svg xmlns="http://www.w3.org/2000/svg" xmlns:xlink="http://www.w3.org/1999/xlink" aria-hidden="true" role="img" class="iconify iconify--akar-icons" width="1em" height="1em" preserveAspectRatio="xMidYMid meet" viewBox="0 0 24 24" data-icon="akar-icons:dot-grid-fill"><path fill="currentColor" fill-rule="evenodd" d="M4 2a2 2 0 1 1 0 4a2 2 0 0 1 0-4Zm8 0a2 2 0 1 1 0 4a2 2 0 0 1 0-4Zm10 2a2 2 0 1 0-4 0a2 2 0 0 0 4 0ZM4 10a2 2 0 1 1 0 4a2 2 0 0 1 0-4Zm10 2a2 2 0 1 0-4 0a2 2 0 0 0 4 0Zm6-2a2 2 0 1 1 0 4a2 2 0 0 1 0-4ZM6 20a2 2 0 1 0-4 0a2 2 0 0 0 4 0Zm6-2a2 2 0 1 1 0 4a2 2 0 0 1 0-4Zm10 2a2 2 0 1 0-4 0a2 2 0 0 0 4 0Z" clip-rule="evenodd"></path></svg>