<svg xmlns="http://www.w3.org/2000/svg" xmlns:xlink="http://www.w3.org/1999/xlink" aria-hidden="true" role="img" class="iconify iconify--akar-icons" width="1em" height="1em" preserveAspectRatio="xMidYMid meet" viewBox="0 0 24 24" data-icon="akar-icons:drag-vertical-fill"><path fill="currentColor" fill-rule="evenodd" d="M16 2a2 2 0 1 1 0 4a2 2 0 0 1 0-4Zm0 8a2 2 0 1 1 0 4a2 2 0 0 1 0-4Zm-8 8a2 2 0 1 1 0 4a2 2 0 0 1 0-4Zm8 0a2 2 0 1 1 0 4a2 2 0 0 1 0-4ZM8 2a2 2 0 1 1 0 4a2 2 0 0 1 0-4Zm0 8a2 2 0 1 1 0 4a2 2 0 0 1 0-4Z" clip-rule="evenodd"></path></svg>