<svg xmlns="http://www.w3.org/2000/svg" xmlns:xlink="http://www.w3.org/1999/xlink" aria-hidden="true" role="img" class="iconify iconify--akar-icons" width="1em" height="1em" preserveAspectRatio="xMidYMid meet" viewBox="0 0 24 24" data-icon="akar-icons:drag-horizontal-fill"><path fill="currentColor" fill-rule="evenodd" d="M22 8a2 2 0 1 1-4 0a2 2 0 0 1 4 0Zm0 8a2 2 0 1 1-4 0a2 2 0 0 1 4 0Zm-8 0a2 2 0 1 1-4 0a2 2 0 0 1 4 0ZM6 8a2 2 0 1 1-4 0a2 2 0 0 1 4 0Zm0 8a2 2 0 1 1-4 0a2 2 0 0 1 4 0Zm8-8a2 2 0 1 1-4 0a2 2 0 0 1 4 0Z" clip-rule="evenodd"></path></svg>