<svg xmlns="http://www.w3.org/2000/svg" xmlns:xlink="http://www.w3.org/1999/xlink" aria-hidden="true" role="img" class="iconify iconify--akar-icons" width="1em" height="1em" preserveAspectRatio="xMidYMid meet" viewBox="0 0 24 24"><g fill="none" stroke="currentColor" stroke-linecap="round" stroke-width="2"><path stroke-linejoin="round" d="M5 21h12a4 4 0 0 0 4-4V5a2 2 0 0 0-2-2H9a2 2 0 0 0-2 2v13c0 1.657-.343 3-2 3Z"></path><path stroke-linejoin="round" d="M3 10a2 2 0 0 1 2-2h2v10.5c0 1.38-.62 2.5-2 2.5s-2-1.12-2-2.5V10Z"></path><circle cx="12" cy="8" r="1"></circle><path d="M11 14h6m-6 3h3"></path></g></svg>