<svg xmlns="http://www.w3.org/2000/svg" xmlns:xlink="http://www.w3.org/1999/xlink" aria-hidden="true" role="img" class="iconify iconify--akar-icons" width="1em" height="1em" preserveAspectRatio="xMidYMid meet" viewBox="0 0 24 24"><g fill="none" stroke="currentColor" stroke-width="2"><circle cx="7" cy="5" r="3"></circle><path stroke-linecap="round" stroke-linejoin="round" d="M10 12H5.898a3 3 0 0 0-2.976 2.628l-.641 5.124A2 2 0 0 0 4.266 22H9m12.719-2.248l-.64-5.124A3 3 0 0 0 18.101 12h-2.204a3 3 0 0 0-2.976 2.628l-.641 5.124A2 2 0 0 0 14.266 22h5.468a2 2 0 0 0 1.985-2.248Z"></path><circle cx="17" cy="5" r="3"></circle></g></svg>