<svg xmlns="http://www.w3.org/2000/svg" xmlns:xlink="http://www.w3.org/1999/xlink" aria-hidden="true" role="img" class="iconify iconify--circle-flags" width="1em" height="1em" preserveAspectRatio="xMidYMid meet" viewBox="0 0 512 512" data-icon="circle-flags:ck"><defs><path id="IconifyId17f59e87b75804d5d48" fill="#496e2d" d="M445.2 256zm-155.8 0z"></path></defs><mask id="IconifyId17f59e87b75804d5d49"><circle cx="256" cy="256" r="256" fill="#fff"></circle></mask><g mask="url(#IconifyId17f59e87b75804d5d49)"><use xlink:href="#IconifyId17f59e87b75804d5d48"></use><path fill="#0052b4" d="M256 0h256v512H0V256z"></path><path fill="#eee" d="m345 256l4.8 14.6H365l-12.4 9l4.7 14.6l-12.4-9l-12.4 9l4.8-14.6l-12.4-9h15.3zm-63 26l13.7 7l10.9-10.8l-2.4 15.1l13.6 7l-15.1 2.4l-2.4 15.1l-7-13.6l-15.1 2.4l10.8-10.9zm-26 63l14.6-4.7V325l9 12.4l14.6-4.8l-9 12.4l9 12.4l-14.6-4.7l-9 12.4v-15.3zm26 63l7-13.6l-10.8-10.9l15.1 2.4l7-13.6l2.4 15l15.1 2.5l-13.6 7l2.4 15l-10.9-10.8zm63 26l-4.7-14.5H325l12.4-9l-4.8-14.6l12.4 9l12.4-9l-4.7 14.6l12.4 9h-15.3zm63-26l-13.6-7l-10.9 10.9l2.4-15.2l-13.6-7l15-2.3l2.5-15.1l7 13.6l15-2.4l-10.8 10.9zm26-63l-14.5 4.8V365l-9-12.4l-14.6 4.7l9-12.4l-9-12.4l14.6 4.8l9-12.4v15.3zm-26-63l-7 13.7l10.9 10.9l-15.2-2.4l-7 13.6l-2.3-15.1l-15.1-2.4l13.6-7l-2.4-15.1l10.9 10.8z"></path><use xlink:href="#IconifyId17f59e87b75804d5d48"></use><path fill="#eee" d="M256 0H100.2L66.7 14.9L33.4 0H0v33.4l15.7 31.3L0 100.2V256h33.4l34-13.6l32.8 13.6h33.4v-75.2l75.2 75.2H256l-7.7-21.3l7.7-10.2v-15.7l-75.2-75.2H256v-33.4l-11.8-33.4L256 33.4z"></path><path fill="#d80027" d="m256 224.5l-91-91h-31.4L256 256z"></path><path fill="#d80027" d="M33.4 0v33.4H0v66.8h33.4V256h66.8V100.2H256V33.4H100.2V0z"></path></g></svg>