<svg xmlns="http://www.w3.org/2000/svg" xmlns:xlink="http://www.w3.org/1999/xlink" aria-hidden="true" role="img" class="iconify iconify--circle-flags" width="1em" height="1em" preserveAspectRatio="xMidYMid meet" viewBox="0 0 512 512" data-icon="circle-flags:cu"><mask id="IconifyId17f59e87b75804d5d55"><circle cx="256" cy="256" r="256" fill="#fff"></circle></mask><g mask="url(#IconifyId17f59e87b75804d5d55)"><path fill="#0052b4" d="M0 0h512v102.4L483.8 151l28.2 53.8v102.4l-30.5 50.7l30.5 51.7V512H0l39.8-257z"></path><path fill="#ff9811" d="M0 44.5v423V256z"></path><path fill="#eee" d="M27.2 102.4v102.4H512V102.4H27.2zm0 204.8v102.4H512V307.2H27.2z"></path><path fill="#d80027" d="M0 0v512l256-256L0 0z"></path><path fill="#eee" d="m103.6 189.2l16.6 51h53.6l-43.4 31.6l16.6 51l-43.4-31.5l-43.4 31.5l16.6-51l-43.4-31.6H87z"></path></g></svg>