<svg xmlns="http://www.w3.org/2000/svg" xmlns:xlink="http://www.w3.org/1999/xlink" aria-hidden="true" role="img" class="iconify iconify--circle-flags" width="1em" height="1em" preserveAspectRatio="xMidYMid meet" viewBox="0 0 512 512" data-icon="circle-flags:dz"><mask id="IconifyId17f59e87b75804d5d66"><circle cx="256" cy="256" r="256" fill="#fff"></circle></mask><g mask="url(#IconifyId17f59e87b75804d5d66)"><path fill="#496e2d" d="M0 0h256l45.3 251.8L256 512H0z"></path><path fill="#eee" d="M256 0h256v512H256z"></path><g fill="#d80027"><path d="m311 206.9l-21 29l-34-11l21 28.8l-21 29l34-11.1l21 29v-35.8l34-11.1l-34-11z"></path><path d="M277.2 328.3a72.3 72.3 0 1 1 34.5-136a89 89 0 1 0 0 127.3a72 72 0 0 1-34.5 8.7z"></path></g></g></svg>