<svg xmlns="http://www.w3.org/2000/svg" xmlns:xlink="http://www.w3.org/1999/xlink" aria-hidden="true" role="img" class="iconify iconify--circle-flags" width="1em" height="1em" preserveAspectRatio="xMidYMid meet" viewBox="0 0 512 512" data-icon="circle-flags:easter-island"><mask id="IconifyId17f59e87b75804d5d67"><circle cx="256" cy="256" r="256" fill="#fff"></circle></mask><g mask="url(#IconifyId17f59e87b75804d5d67)"><path fill="#eee" d="M0 0h512v512H0z"></path><path fill="#d80027" d="M334 211.5v22.2h30.5a134.2 134.2 0 0 1-49.5 42a27.7 27.7 0 0 0-47.2 13.2a134.8 134.8 0 0 1-23.6 0a27.8 27.8 0 0 0-47.2-13.2a134.2 134.2 0 0 1-49.5-42h30.6v-22.2h-78a155.8 155.8 0 0 0 311.7 0H334z"></path></g></svg>