<svg xmlns="http://www.w3.org/2000/svg" xmlns:xlink="http://www.w3.org/1999/xlink" aria-hidden="true" role="img" class="iconify iconify--circle-flags" width="1em" height="1em" preserveAspectRatio="xMidYMid meet" viewBox="0 0 512 512" data-icon="circle-flags:eg"><mask id="IconifyId17f59e87b75804d5d71"><circle cx="256" cy="256" r="256" fill="#fff"></circle></mask><g mask="url(#IconifyId17f59e87b75804d5d71)"><path fill="#eee" d="m0 167l254.6-36.6L512 166.9v178l-254.6 36.4L0 344.9z"></path><path fill="#d80027" d="M0 0h512v166.9H0z"></path><path fill="#333" d="M0 344.9h512V512H0z"></path><path fill="#ff9811" d="M345 228.2h-66.7a22.3 22.3 0 0 0-44.6 0H167a23 23 0 0 0 23 22.2h-.8c0 12.3 10 22.3 22.3 22.3c0 12.3 10 22.3 22.2 22.3h44.6c12.3 0 22.2-10 22.2-22.3c12.3 0 22.3-10 22.3-22.3h-.8a23 23 0 0 0 23-22.2z"></path></g></svg>