<svg xmlns="http://www.w3.org/2000/svg" xmlns:xlink="http://www.w3.org/1999/xlink" aria-hidden="true" role="img" class="iconify iconify--circle-flags" width="1em" height="1em" preserveAspectRatio="xMidYMid meet" viewBox="0 0 512 512" data-icon="circle-flags:er"><mask id="IconifyId17f59e87b75804d5d73"><circle cx="256" cy="256" r="256" fill="#fff"></circle></mask><g mask="url(#IconifyId17f59e87b75804d5d73)"><path fill="#6da544" d="M0 0h512v256H62z"></path><path fill="#338af3" d="M62 256h450v256H0z"></path><path fill="#d80027" d="M0 0v512l512-256z"></path><path fill="#ffda44" d="M133.6 150.3c-49.1 0-89 40-89 89v33.4a89.1 89.1 0 0 0 178 0v-33.4c0-49-40-89-89-89zm55.6 122.4c0 24.9-16.4 46-39 53v-36.3l23.7-23.6l-23.6-23.6v-19.6h-33.4V256l-23.6 23.6l23.6 23.6v22.6a55.7 55.7 0 0 1-39-53.1v-33.4a55.7 55.7 0 0 1 111.3 0z"></path></g></svg>