<svg xmlns="http://www.w3.org/2000/svg" xmlns:xlink="http://www.w3.org/1999/xlink" aria-hidden="true" role="img" class="iconify iconify--circle-flags" width="1em" height="1em" preserveAspectRatio="xMidYMid meet" viewBox="0 0 512 512" data-icon="circle-flags:es"><mask id="IconifyId17f59e87b75804d5d74"><circle cx="256" cy="256" r="256" fill="#fff"></circle></mask><mask id="IconifyId17f59e87b75804d5d75"><path fill="#fff" d="M160 272v24a24 24 0 0 0 24 24a24 24 0 0 0 24-24v-24h-24z"></path></mask><g mask="url(#IconifyId17f59e87b75804d5d74)"><path fill="#d80027" d="M0 0h512v512H0z"></path><path fill="#ffda44" d="M0 128h512v256H0z"></path><g fill="#eee"><path d="M144 304h-16v-80h16zm128 0h16v-80h-16z"></path><ellipse cx="208" cy="296" rx="48" ry="32"></ellipse></g><g fill="#d80027"><rect width="16" height="24" x="128" y="192" rx="8"></rect><rect width="16" height="24" x="272" y="192" rx="8"></rect><path d="M208 272v24a24 24 0 0 0 24 24a24 24 0 0 0 24-24v-24h-24z"></path></g><g fill="#ff9811"><rect width="32" height="16" x="120" y="208" ry="8"></rect><rect width="32" height="16" x="264" y="208" ry="8"></rect><rect width="32" height="16" x="120" y="304" rx="8"></rect><rect width="32" height="16" x="264" y="304" rx="8"></rect><path d="M160 272v24a24 24 0 0 0 24 24a24 24 0 0 0 24-24v-24h-24z"></path></g><path d="M122 252h172m-172 24h28m116 0h28"></path><path fill="#d80027" d="M122 248a4 4 0 0 0-4 4a4 4 0 0 0 4 4h172a4 4 0 0 0 4-4a4 4 0 0 0-4-4zm0 24a4 4 0 0 0-4 4a4 4 0 0 0 4 4h28a4 4 0 0 0 4-4a4 4 0 0 0-4-4zm144 0a4 4 0 0 0-4 4a4 4 0 0 0 4 4h28a4 4 0 0 0 4-4a4 4 0 0 0-4-4z"></path><path fill="#eee" d="M196 168c-7 0-13 5-15 11l-5-1c-9 0-16 7-16 16s7 16 16 16c7 0 13-4 15-11a16 16 0 0 0 17-4a16 16 0 0 0 17 4a16 16 0 1 0 10-20a16 16 0 0 0-27-5c-3-4-7-6-12-6zm0 8c5 0 8 4 8 8c0 5-3 8-8 8c-4 0-8-3-8-8c0-4 4-8 8-8zm24 0c5 0 8 4 8 8c0 5-3 8-8 8c-4 0-8-3-8-8c0-4 4-8 8-8zm-44 10l4 1l4 8c0 4-4 7-8 7s-8-3-8-8c0-4 4-8 8-8zm64 0c5 0 8 4 8 8c0 5-3 8-8 8c-4 0-8-3-8-7l4-8l4-1z"></path><path fill="none" d="M220 284v12c0 7 5 12 12 12s12-5 12-12v-12z"></path><path fill="#ff9811" d="M200 160h16v32h-16z"></path><path fill="#eee" d="M208 224h48v48h-48z"></path><g fill="#d80027"><path d="m248 208l-8 8h-64l-8-8c0-13 18-24 40-24s40 11 40 24zm-88 16h48v48h-48z"></path><rect width="20" height="32" x="222" y="232" rx="10" ry="10"></rect><g mask="url(#IconifyId17f59e87b75804d5d75)"><path d="M170 272h10v48h-10zm19 0h10v48h-10z"></path></g></g><path fill="#ff9811" d="M168 232v8h8v16h-8v8h32v-8h-8v-16h8v-8zm8-16h64v8h-64z"></path><g fill="#ffda44"><circle cx="186" cy="202" r="6"></circle><circle cx="208" cy="202" r="6"></circle><circle cx="230" cy="202" r="6"></circle></g><g fill="#338af3"><circle cx="208" cy="272" r="16"></circle><rect width="32" height="16" x="264" y="320" ry="8"></rect><rect width="32" height="16" x="120" y="320" ry="8"></rect></g></g></svg>