<svg xmlns="http://www.w3.org/2000/svg" xmlns:xlink="http://www.w3.org/1999/xlink" aria-hidden="true" role="img" class="iconify iconify--circle-flags" width="1em" height="1em" preserveAspectRatio="xMidYMid meet" viewBox="0 0 512 512" data-icon="circle-flags:fm"><mask id="IconifyId17f59e87b75804d5d89"><circle cx="256" cy="256" r="256" fill="#fff"></circle></mask><g mask="url(#IconifyId17f59e87b75804d5d89)"><path fill="#338af3" d="M0 0h512v512H0z"></path><path fill="#eee" d="m256 111.3l11 34h35.8l-29 21l11.1 34l-28.9-21l-29 21l11.1-34l-29-21H245zM111.3 256l34-11v-35.8l21 29l34-11.1l-21 28.9l21 29l-34-11.1l-21 29V267zM256 400.7l-11-34h-35.8l29-21l-11.1-34l28.9 21l29-21l-11.1 34l29 21H267zM400.7 256l-34 11v35.8l-21-29l-34 11.1l21-28.9l-21-29l34 11.1l21-29V245z"></path></g></svg>