<svg xmlns="http://www.w3.org/2000/svg" xmlns:xlink="http://www.w3.org/1999/xlink" aria-hidden="true" role="img" class="iconify iconify--circle-flags" width="1em" height="1em" preserveAspectRatio="xMidYMid meet" viewBox="0 0 512 512" data-icon="circle-flags:kg"><mask id="IconifyId17f59e87b75804d5d143"><circle cx="256" cy="256" r="256" fill="#fff"></circle></mask><g mask="url(#IconifyId17f59e87b75804d5d143)"><path fill="#d80027" d="M0 0h512v512H0z"></path><path fill="#ffda44" d="M381.2 256L330 280l27.3 49.6l-55.6-10.6l-7 56.1l-38.7-41.3l-38.7 41.3l-7-56.1l-55.6 10.6l27.3-49.5l-51.2-24.1l51.2-24l-27.3-49.6l55.6 10.6l7-56.1l38.7 41.3l38.7-41.3l7 56.1l55.6-10.6l-27.3 49.5z"></path><circle cx="256" cy="256" r="77.9" fill="#d80027"></circle><path fill="#ffda44" d="M217 256c-1.8 0-3.7.1-5.5.3a44.3 44.3 0 0 0 10.4 28.3a78 78 0 0 1 15-24.9A55.4 55.4 0 0 0 217 256zm24 42a44.4 44.4 0 0 0 30 0c-2.6-10-7.8-19-15-26c-7.2 7-12.4 16-15 26zm53.6-64.3a44.5 44.5 0 0 0-77.2 0a77.4 77.4 0 0 1 38.6 10.5a77.4 77.4 0 0 1 38.6-10.5zm-19.6 26a78 78 0 0 1 15.1 25a44.3 44.3 0 0 0 10.4-28.4a55.8 55.8 0 0 0-5.5-.3a55.3 55.3 0 0 0-20 3.7z"></path></g></svg>