<svg xmlns="http://www.w3.org/2000/svg" xmlns:xlink="http://www.w3.org/1999/xlink" aria-hidden="true" role="img" class="iconify iconify--circle-flags" width="1em" height="1em" preserveAspectRatio="xMidYMid meet" viewBox="0 0 512 512" data-icon="circle-flags:klingon"><mask id="IconifyId17f59e87b75804d5d146"><circle cx="256" cy="256" r="256" fill="#fff"></circle></mask><g mask="url(#IconifyId17f59e87b75804d5d146)"><path fill="#d80027" d="M0 0h512v512H0z"></path><circle cx="256" cy="277" r="126" fill="#eee"></circle><path fill="#333" d="M256 355c15.1-25.3 28.9-39.7 44-65c-3.5-15.8-17.3-7.1-43-204c-29 198.4-44.5 189.4-46 202c14.8 25.8 30.2 41.2 45 67zm-53-51c11.5 17.7 32.5 42.3 44 60c-69.2 4.6-83.4 21.3-107 46c-4.2-81.8 50.6-81.5 63-106zm63 59c13.3-19.2 29.7-41.8 43-61c22.6 46.3 52.6 59.7 80 62c-21.4 30.2-76.8 27.2-123-1z"></path></g></svg>