<svg xmlns="http://www.w3.org/2000/svg" xmlns:xlink="http://www.w3.org/1999/xlink" aria-hidden="true" role="img" class="iconify iconify--circle-flags" width="1em" height="1em" preserveAspectRatio="xMidYMid meet" viewBox="0 0 512 512" data-icon="circle-flags:ly"><mask id="IconifyId17f59e87b75804d5d165"><circle cx="256" cy="256" r="256" fill="#fff"></circle></mask><g mask="url(#IconifyId17f59e87b75804d5d165)"><path fill="#333" d="m0 144.7l257-22.4l255 22.4v222.6l-254.9 31L0 367.3z"></path><path fill="#d80027" d="M0 0h512v144.7H0z"></path><path fill="#496e2d" d="M0 367.3h512V512H0z"></path><g fill="#eee"><path d="m315.6 209.3l21 29l34-11l-21 29l21 28.8l-34-11l-21 29v-36l-34-11l34-11z"></path><path d="M258.3 328.4a72.3 72.3 0 1 1 34.4-136a89 89 0 1 0 0 127.3a72 72 0 0 1-34.4 8.7z"></path></g></g></svg>