<svg xmlns="http://www.w3.org/2000/svg" xmlns:xlink="http://www.w3.org/1999/xlink" aria-hidden="true" role="img" class="iconify iconify--circle-flags" width="1em" height="1em" preserveAspectRatio="xMidYMid meet" viewBox="0 0 512 512" data-icon="circle-flags:mh"><mask id="IconifyId17f59e87b75804d5d174"><circle cx="256" cy="256" r="256" fill="#fff"></circle></mask><g mask="url(#IconifyId17f59e87b75804d5d174)"><path fill="#0052b4" d="M0 0h397.6L512 114.2V512H0z"></path><path fill="#eee" d="M512 0H397.6L0 512L493.4 53.7z"></path><path fill="#ff9811" d="m0 512l512-397.8V0z"></path><path fill="#eee" d="M222.2 150.1L191 164.8l16.7 30.3l-34-6.5l-4.3 34.3l-23.6-25.2l-23.7 25.2l-4.3-34.3l-33.9 6.5l16.6-30.3l-31.2-14.7l31.2-14.7L84 105.1l34 6.5l4.2-34.3l23.7 25.3l23.6-25.3l4.3 34.3l34-6.5l-16.7 30.3z"></path></g></svg>