<svg xmlns="http://www.w3.org/2000/svg" xmlns:xlink="http://www.w3.org/1999/xlink" aria-hidden="true" role="img" class="iconify iconify--circle-flags" width="1em" height="1em" preserveAspectRatio="xMidYMid meet" viewBox="0 0 512 512" data-icon="circle-flags:mn"><mask id="IconifyId17f59e87b75804d5d178"><circle cx="256" cy="256" r="256" fill="#fff"></circle></mask><g mask="url(#IconifyId17f59e87b75804d5d178)"><path fill="#a2001d" d="M0 0h167l84.9 45L345 0h167v512H345l-87.7-48.1L167 512H0z"></path><path fill="#0052b4" d="M167 0h178v512H167z"></path><g fill="#ffda44"><path d="M122.4 256h22.3v89h-22.3zm-89 0h22.3v89H33.4z"></path><circle cx="89" cy="289.4" r="22.3"></circle><circle cx="89" cy="211.5" r="11.1"></circle><path d="M66.8 322.8h44.5V345H66.8zm0-89h44.5V256H66.8zM89 133.5l8 24.2h25.4l-20.6 15l7.9 24.3L89 182l-20.6 15l7.9-24.3l-20.6-15h25.5z"></path></g></g></svg>