<svg xmlns="http://www.w3.org/2000/svg" xmlns:xlink="http://www.w3.org/1999/xlink" aria-hidden="true" role="img" class="iconify iconify--circle-flags" width="1em" height="1em" preserveAspectRatio="xMidYMid meet" viewBox="0 0 512 512" data-icon="circle-flags:mr"><mask id="IconifyId17f59e87b75804d5d182"><circle cx="256" cy="256" r="256" fill="#fff"></circle></mask><g mask="url(#IconifyId17f59e87b75804d5d182)"><path fill="#496e2d" d="M0 0h512v512H0z"></path><g fill="#ffda44"><path d="M256 295.8a89 89 0 0 1-87-70a89.4 89.4 0 0 0-2 19a89 89 0 1 0 178 0a89.4 89.4 0 0 0-2-19a89 89 0 0 1-87 70z"></path><path d="m256 178l8.3 25.6H291l-21.7 15.8l8.3 25.5L256 229l-21.7 15.8l8.3-25.5l-21.7-15.8h26.8z"></path></g></g></svg>