<svg xmlns="http://www.w3.org/2000/svg" xmlns:xlink="http://www.w3.org/1999/xlink" aria-hidden="true" role="img" class="iconify iconify--circle-flags" width="1em" height="1em" preserveAspectRatio="xMidYMid meet" viewBox="0 0 512 512" data-icon="circle-flags:northern-cyprus"><mask id="IconifyId17f59e87b75804d5d200"><circle cx="256" cy="256" r="256" fill="#fff"></circle></mask><g mask="url(#IconifyId17f59e87b75804d5d200)"><path fill="#eee" d="M0 0h512v512H0z"></path><path fill="#d80027" d="M138 167a89 89 0 1 0 62.3 152.6a72 72 0 0 1-34.3 8.7h-.1a72.3 72.3 0 1 1 34.4-136a89 89 0 0 0-62.3-25.4zm85.2 42.2v35.7l-34 11l34 11.1v35.9l21-29l34 11.1l-21-28.9l21-29l-34 11.1l-21-29zM0 89v33.4h512V89zm0 334h512v-33.4H0z"></path></g></svg>