<svg xmlns="http://www.w3.org/2000/svg" xmlns:xlink="http://www.w3.org/1999/xlink" aria-hidden="true" role="img" class="iconify iconify--circle-flags" width="1em" height="1em" preserveAspectRatio="xMidYMid meet" viewBox="0 0 512 512"><mask id="IconifyId17f59e87b75804d5d206"><circle cx="256" cy="256" r="256" fill="#fff"></circle></mask><g mask="url(#IconifyId17f59e87b75804d5d206)"><path fill="#eee" d="M0 0h256l256 256v256H256L0 256z"></path><path fill="#0052b4" d="M0 256v256h256V256z"></path><path fill="#d80027" d="M256 0h256v256H256z"></path><path fill="#0052b4" d="m152.4 89l16.6 51h53.6l-43.4 31.6l16.6 51l-43.4-31.5l-43.4 31.5l16.6-51L82.2 140h53.6z"></path><path fill="#d80027" d="m359.6 289.4l16.6 51h53.6L386.4 372l16.6 51l-43.4-31.5l-43.4 31.6l16.6-51l-43.4-31.6H343z"></path></g></svg>