<svg xmlns="http://www.w3.org/2000/svg" xmlns:xlink="http://www.w3.org/1999/xlink" aria-hidden="true" role="img" class="iconify iconify--circle-flags" width="1em" height="1em" preserveAspectRatio="xMidYMid meet" viewBox="0 0 512 512"><mask id="IconifyId17f59e87b75804d5d208"><circle cx="256" cy="256" r="256" fill="#fff"></circle></mask><g mask="url(#IconifyId17f59e87b75804d5d208)"><path fill="#d80027" d="M0 0h512v133.7l-52 126l52 118.8V512H0V378.5l53-121L0 133.6z"></path><path fill="#eee" d="M0 133.7h512v244.8H0z"></path><path fill="#ffda44" d="M345 256.1c0 49.2-39.8 78-89 78s-89-28.8-89-78a89 89 0 1 1 178 0z"></path><path fill="#0052b4" d="M345 256.1a89 89 0 1 1-178 0"></path><path fill="#d80027" d="M200.3 233.8h22.3v44.6h-22.3zm89 0h22.4v44.6h-22.3zM245 200.4h22v78h-22z"></path></g></svg>