<svg xmlns="http://www.w3.org/2000/svg" xmlns:xlink="http://www.w3.org/1999/xlink" aria-hidden="true" role="img" class="iconify iconify--circle-flags" width="1em" height="1em" preserveAspectRatio="xMidYMid meet" viewBox="0 0 512 512"><mask id="IconifyId17f59e87b75804d5d219"><circle cx="256" cy="256" r="256" fill="#fff"></circle></mask><g mask="url(#IconifyId17f59e87b75804d5d219)"><path fill="#0052b4" d="M0 0h144.7l108.4 41.2L367.3 0H512v512H367.3l-110.2-41.4L144.7 512H0z"></path><path fill="#ffda44" d="M144.7 0h222.6v512H144.7z"></path><path fill="#d80027" d="m328.4 278.3l16.7 22.2v-89l-16.7 22.2h-50v-50l22.2-16.7h-89l22.2 16.7v50h-50l-16.7-22.2v89l16.7-22.2h50v50L211.6 345h89l-22.2-16.7v-50z"></path><path fill="#eee" d="M323 244.9h-56v-55.7h-22V245h-55.7v22H245v55.7h22V267h55.7z"></path></g></svg>