<svg xmlns="http://www.w3.org/2000/svg" xmlns:xlink="http://www.w3.org/1999/xlink" aria-hidden="true" role="img" class="iconify iconify--circle-flags" width="1em" height="1em" preserveAspectRatio="xMidYMid meet" viewBox="0 0 512 512"><mask id="IconifyId17f59e87b75804d5d237"><circle cx="256" cy="256" r="256" fill="#fff"></circle></mask><g mask="url(#IconifyId17f59e87b75804d5d237)"><path fill="#0052b4" d="M256 0h256v512H0V256z"></path><path fill="#eee" d="m320 144l48-80l48 80zM0 0v32l32 32L0 96v160h32l32-32l32 32h32v-83l83 83h45l-16-30h16v-15l-83-83h83V96l-32-32l32-32V0H96L64 32L32 0z"></path><circle cx="368" cy="144" r="48" fill="#338af3"></circle><path fill="#338af3" d="M320 144v48l48 32l48-32v-48z"></path><path fill="#d80027" d="M32 0v32H0v64h32v160h64V96h160V32H96V0zm96 128l128 128v-30l-98-98z"></path><rect width="32" height="128" x="288" y="128" fill="#ff9811" rx="16" ry="16"></rect><rect width="32" height="128" x="416" y="128" fill="#ff9811" rx="16" ry="16"></rect><path fill="#eee" d="M320 192v29c0 36 48 48 48 48s48-12 48-48v-29h-96zm48-48l-16 48h32z"></path><path fill="#338af3" d="m352 192l16 48l16-48z"></path><path fill="#eee" d="M288 288v32h32v8h96v-8h32v-32h-32v8h-96v-8z"></path></g></svg>