<svg xmlns="http://www.w3.org/2000/svg" xmlns:xlink="http://www.w3.org/1999/xlink" aria-hidden="true" role="img" class="iconify iconify--circle-flags" width="1em" height="1em" preserveAspectRatio="xMidYMid meet" viewBox="0 0 512 512"><mask id="IconifyId17f59e87b75804d5d257"><circle cx="256" cy="256" r="256" fill="#fff"></circle></mask><g mask="url(#IconifyId17f59e87b75804d5d257)"><path fill="#0052b4" d="M0 0h512v512H0z"></path><path fill="#eee" d="M0 0h256v256H0z"></path><path fill="#0052b4" d="M0 0h75v224H0z"></path><path fill="#d80027" d="M149 0h75v224h-75z"></path><path fill="#eee" d="m323 158l13 21h36v71l-27-43l-37 59h18l19-34l39 70l39-70l19 34h18l-37-59l-27 43v-39h16l12-20h-28v-12h36l13-21zm43 88h-40v14h40zm76 0h-40v14h40z"></path><path fill="#eee" d="m301 181l13 38l-34-23h42l-34 23zm166 0l13 38l-34-23h42l-34 23zM339 282l13 38l-34-23h42l-34 23zm90 0l13 38l-34-23h42l-34 23zm-45 34l13 38l-34-23h42l-34 23z"></path></g></svg>