<svg xmlns="http://www.w3.org/2000/svg" xmlns:xlink="http://www.w3.org/1999/xlink" aria-hidden="true" role="img" class="iconify iconify--circle-flags" width="1em" height="1em" preserveAspectRatio="xMidYMid meet" viewBox="0 0 512 512"><mask id="IconifyId17f59e87b75804d5d277"><circle cx="256" cy="256" r="256" fill="#fff"></circle></mask><g mask="url(#IconifyId17f59e87b75804d5d277)"><path fill="#338af3" d="M0 0h512v512H0z"></path><circle cx="256" cy="256" r="145" fill="#eee"></circle><circle cx="256" cy="256" r="111" fill="#338af3"></circle><path fill="#338af3" d="M76 76h360L256 256z"></path><circle cx="256" cy="256" r="89" fill="#eee"></circle><circle cx="256" cy="256" r="69" fill="#338af3"></circle><path fill="#eee" d="M246 178h20v156h-20z"></path><path fill="#eee" d="M334 246v20H178v-20z"></path><path fill="#eee" d="m304 193.7l14.2 14.2l-110.3 110.3l-14.2-14.1z"></path><path fill="#eee" d="m318.2 304l-14.1 14.2l-110.4-110.3l14.2-14.2z"></path><circle cx="256" cy="256" r="44" fill="#eee"></circle><circle cx="256" cy="256" r="22" fill="#338af3"></circle><ellipse cx="256" cy="412" fill="#eee" rx="44" ry="40"></ellipse><path fill="#338af3" d="m256 407l-78 63h156z"></path></g></svg>