<svg xmlns="http://www.w3.org/2000/svg" xmlns:xlink="http://www.w3.org/1999/xlink" aria-hidden="true" role="img" class="iconify iconify--circle-flags" width="1em" height="1em" preserveAspectRatio="xMidYMid meet" viewBox="0 0 512 512"><mask id="IconifyId17f59e87b75804d5d279"><circle cx="256" cy="256" r="256" fill="#fff"></circle></mask><g mask="url(#IconifyId17f59e87b75804d5d279)"><path fill="#eee" d="M0 256L256 0h256v64l-24 67.6l24 60.4v64l-30.9 71.1L512 384v64l-255.2 33.9L0 448v-64l33.4-57.7z"></path><path fill="#d80027" d="M0 448h512v64H0zm0-192h512v64l-256 17.8L0 320z"></path><path fill="#0052b4" d="M0 320h512v64H0z"></path><path fill="#d80027" d="M236.4 64H512v64l-275.6 15z"></path><path fill="#0052b4" d="M236.4 128H512v64H236.4z"></path><path fill="#eee" d="M0 0h33.3L64 20.9L97.4 0h109L256 31.7V64l-21.4 31.6L256 128v31.7l-20 31.5l20 48.3l.1 16.5l-21.8-9.3l-8.4 9.3h-44.7l-33-12.7l-18.5 12.7H97.4L66 235.4L33.3 256H0V128l21-31.6L0 64z"></path><path fill="#d80027" d="M33.3 0v64H0v64h33.3v144.4h64.1V128H256V64H97.4V0zm96.4 159.7L238.9 269h30.2L159.8 159.7z"></path><path fill="#0052b4" d="M206.5 0L175 31.7h81V0zm-31.6 159.7l81.1 79.8v-79.8zM129.7 205v51h51.5z"></path></g></svg>