<svg xmlns="http://www.w3.org/2000/svg" xmlns:xlink="http://www.w3.org/1999/xlink" aria-hidden="true" role="img" class="iconify iconify--cif" width="1.5em" height="1em" preserveAspectRatio="xMidYMid meet" viewBox="0 0 300 200" data-icon="cif:dz"><g fill="none"><path fill="#FFF" d="M0 0h300v200H0z"></path><path fill="#006233" d="M0 0h150v200H0z"></path><circle cx="150" cy="100" r="50" fill="#D21034"></circle><g fill="#D21034"><path d="M177.951 123.776v-25h-15z"></path><path d="m177.951 123.776l-14.694-20.225l12.135-8.817z"></path><path d="m195.225 100l-23.776 7.726l-4.635-14.266z"></path><path d="m195.225 100l-23.776-7.725l-4.635 14.266z"></path><path d="M177.951 76.223v25h-15z"></path><path d="m150 114.694l23.776-7.725l-4.635-14.266z"></path><path d="m150 114.694l14.694-20.225l12.135 8.817z"></path><path d="m150 85.305l14.694 20.226l12.135-8.817z"></path><path d="m150 85.305l23.776 7.726l-4.635 14.266z"></path><path d="m177.951 76.223l-14.694 20.226l12.135 8.817z"></path></g></g></svg>