<svg xmlns="http://www.w3.org/2000/svg" xmlns:xlink="http://www.w3.org/1999/xlink" aria-hidden="true" role="img" class="iconify iconify--cif" width="1.5em" height="1em" preserveAspectRatio="xMidYMid meet" viewBox="0 0 301 201" data-icon="cif:kn"><defs><path id="IconifyId17f59e7d01c6e69c894" d="M.5.5h300v200H.5z"></path></defs><defs><use xlink:href="#IconifyId17f59e7d01c6e69c894" id="IconifyId17f59e7d01c6e69c895"></use></defs><g fill="none" fill-rule="evenodd"><path fill="#009E49" fill-rule="nonzero" d="M300.5.5H.5v200"></path><path fill="#CE1126" fill-rule="nonzero" d="M.5 200.5h300V.5"></path><mask id="IconifyId17f59e7d01c6e69c896" fill="#fff"><use href="#IconifyId17f59e7d01c6e69c894"></use></mask><path fill="#000" fill-rule="nonzero" stroke="#FCD116" stroke-width="80" d="m.5 200.5l300-200" mask="url(#IconifyId17f59e7d01c6e69c896)"></path><mask id="IconifyId17f59e7d01c6e69c897" fill="#fff"><use href="#IconifyId17f59e7d01c6e69c895"></use></mask><path fill="#000" fill-rule="nonzero" stroke="#000" stroke-width="60" d="m.5 200.5l300-200" mask="url(#IconifyId17f59e7d01c6e69c897)"></path><path fill="#FFF" fill-rule="nonzero" d="m180.544 70.072l20.326.82l5.501 19.585l7.062-19.078l20.326.82l-15.962-12.611l7.061-19.079l-16.927 11.284l-15.963-12.61l5.502 19.585zm-114 76l20.326.82l5.501 19.585l7.062-19.078l20.326.82l-15.962-12.611l7.061-19.079l-16.927 11.284l-15.963-12.61l5.502 19.585z"></path></g></svg>