<svg xmlns="http://www.w3.org/2000/svg" xmlns:xlink="http://www.w3.org/1999/xlink" aria-hidden="true" role="img" class="iconify iconify--icon-park" width="1em" height="1em" preserveAspectRatio="xMidYMid meet" viewBox="0 0 48 48" data-icon="icon-park:add-three"><g fill="none" stroke="#000" stroke-linecap="round" stroke-linejoin="round" stroke-width="4"><path d="M24 32L24 16"></path><path d="M42 27L42 21"></path><path d="M6 27L6 21"></path><path d="M14 6H8C6.89543 6 6 6.89543 6 8V14"></path><path d="M34 6H40C41.1046 6 42 6.89543 42 8V14"></path><path d="M34 42H40C41.1046 42 42 41.1046 42 40V34"></path><path d="M14 42H8C6.89543 42 6 41.1046 6 40V34"></path><path d="M27 6H21"></path><path d="M32 24L16 24"></path><path d="M27 42H21"></path></g></svg>