<svg xmlns="http://www.w3.org/2000/svg" xmlns:xlink="http://www.w3.org/1999/xlink" aria-hidden="true" role="img" class="iconify iconify--icon-park" width="1em" height="1em" preserveAspectRatio="xMidYMid meet" viewBox="0 0 48 48" data-icon="icon-park:airplane-window-one"><g fill="none" stroke-linejoin="round" stroke-width="4"><path stroke="#000" stroke-linecap="round" d="M30.3489 32L36.8554 7.71762C37.2842 6.11722 38.9292 5.16747 40.5296 5.5963V5.5963C42.13 6.02512 43.0798 7.67013 42.6509 9.27053L36.5606 32"></path><path fill="#2F88FF" stroke="#000" stroke-linecap="round" d="M36 32L36 38L13 38C11.3431 38 10 36.6569 10 35C10 33.3431 11.3431 32 13 32L36 32Z"></path><path stroke="#000" stroke-linecap="round" d="M21 44H29"></path><rect width="10" height="20" x="6" y="4" fill="#2F88FF" stroke="#000" rx="5"></rect><path stroke="#fff" stroke-linecap="round" d="M6 14L16 14"></path><path stroke="#000" stroke-linecap="round" d="M6 9L6 19"></path><path stroke="#000" stroke-linecap="round" d="M16 9V19"></path></g></svg>