<svg xmlns="http://www.w3.org/2000/svg" xmlns:xlink="http://www.w3.org/1999/xlink" aria-hidden="true" role="img" class="iconify iconify--icon-park" width="1em" height="1em" preserveAspectRatio="xMidYMid meet" viewBox="0 0 48 48" data-icon="icon-park:api-app"><g fill="none" stroke="#000" stroke-linecap="round" stroke-width="4"><path d="M18 23.9372V10C18 6.68629 20.6863 4 24 4C27.3137 4 30 6.68629 30 10V12.0057"></path><path d="M30 24.0035V38C30 41.3137 27.3137 44 24 44C20.6863 44 18 41.3137 18 38V35.97"></path><path d="M24 30H9.98415C6.67919 30 4 27.3137 4 24C4 20.6863 6.67919 18 9.98415 18H11.9886"></path><path d="M24 18H37.9888C41.3087 18 44 20.6863 44 24C44 27.3137 41.3087 30 37.9888 30H36.0663"></path></g></svg>