<svg xmlns="http://www.w3.org/2000/svg" xmlns:xlink="http://www.w3.org/1999/xlink" aria-hidden="true" role="img" class="iconify iconify--icon-park" width="1em" height="1em" preserveAspectRatio="xMidYMid meet" viewBox="0 0 48 48" data-icon="icon-park:arrow-keys"><g fill="none"><path fill="#2F88FF" d="M14 4H34V24H14V4Z"></path><path fill="#2F88FF" d="M4 24H24V44H4V24Z"></path><path fill="#2F88FF" d="M24 24H44V44H24V24Z"></path><path stroke="#000" stroke-linecap="round" stroke-linejoin="round" stroke-width="4" d="M24 24H4V44H24M24 24V44M24 24H44V44H24M14 4H34V24H14V4Z"></path><path stroke="#fff" stroke-linecap="round" stroke-linejoin="round" stroke-width="4" d="M24 10V18"></path><path stroke="#fff" stroke-linecap="round" stroke-linejoin="round" stroke-width="4" d="M20 14L24 10L28 14"></path><path stroke="#fff" stroke-linecap="round" stroke-linejoin="round" stroke-width="4" d="M10 34L18 34"></path><path stroke="#fff" stroke-linecap="round" stroke-linejoin="round" stroke-width="4" d="M14 38L10 34L14 30"></path><path stroke="#fff" stroke-linecap="round" stroke-linejoin="round" stroke-width="4" d="M38 34L30 34"></path><path stroke="#fff" stroke-linecap="round" stroke-linejoin="round" stroke-width="4" d="M34 30L38 34L34 38"></path></g></svg>