<svg xmlns="http://www.w3.org/2000/svg" xmlns:xlink="http://www.w3.org/1999/xlink" aria-hidden="true" role="img" class="iconify iconify--icon-park" width="1em" height="1em" preserveAspectRatio="xMidYMid meet" viewBox="0 0 48 48" data-icon="icon-park:baby-pants"><g fill="none" stroke-linejoin="round" stroke-width="4"><path fill="#2F88FF" stroke="#000" d="M34 4H14C12 5 9 9 9 19C9 31.5 14 44 17 44C19 44 19 41.5 19 41.5V24C19 19 27 19.5 27 24V35C27 43 34 46 36 44C38 42 34 40 34 37C34 32 38 28 38 15C38 10 35.6667 6 34 4Z"></path><path stroke="#fff" stroke-linecap="round" d="M10 12H37"></path><path stroke="#000" d="M10.8033 8C10.0708 9.69577 9.46553 11.9812 9.17883 15"></path><path stroke="#000" d="M38 15C38 12.7719 37.5367 10.7424 36.8755 9"></path></g></svg>