<svg xmlns="http://www.w3.org/2000/svg" xmlns:xlink="http://www.w3.org/1999/xlink" aria-hidden="true" role="img" class="iconify iconify--icon-park" width="1em" height="1em" preserveAspectRatio="xMidYMid meet" viewBox="0 0 48 48" data-icon="icon-park:bar-code"><g fill="none" fill-rule="evenodd" stroke="#000" stroke-linecap="round" stroke-linejoin="round" stroke-width="4"><path d="M0,14 L40,14" transform="translate(4 6)"></path><path d="M2,0 L2,8" transform="translate(4 6)"></path><path d="M2,19.9954922 L2,31.9991242" transform="translate(4 6)"></path><path d="M16.4,0 L16.4,8" transform="translate(4 6)"></path><path d="M16.4,20 L16.4,36" transform="translate(4 6)"></path><path d="M30.8,0 L30.8,8" transform="translate(4 6)"></path><path d="M38,0 L38,8" transform="translate(4 6)"></path><path d="M30.8,20 L30.8,28" transform="translate(4 6)"></path><path d="M9.2,0 L9.2,8" transform="translate(4 6)"></path><path d="M9.2,20 L9.2,28" transform="translate(4 6)"></path><path d="M23.6,0 L23.6,8" transform="translate(4 6)"></path><path d="M23.6,20 L23.6,28" transform="translate(4 6)"></path><path d="M38,20 L38,32" transform="translate(4 6)"></path></g></svg>