<svg xmlns="http://www.w3.org/2000/svg" xmlns:xlink="http://www.w3.org/1999/xlink" aria-hidden="true" role="img" class="iconify iconify--icon-park" width="1em" height="1em" preserveAspectRatio="xMidYMid meet" viewBox="0 0 48 48"><g fill="none" stroke="#000" stroke-linecap="round" stroke-linejoin="round" stroke-width="4"><path d="M11 34.6875L24 42L32 37.5L37 34.6875"></path><path d="M40 30V15L27.5 7.96875"></path><path d="M20.5 7.96875L8 15V30"></path><path fill="#2F88FF" d="M21 18.75L18 20.5V24V27.5L21 29.25L24 31L27 29.25L30 27.5V24V20.5L27 18.75L24 17L21 18.75Z"></path><path d="M24 17V10"></path><path d="M30 27L37 31"></path><path d="M18 27L11 31"></path><circle cx="24" cy="7" r="3" fill="#2F88FF"></circle><circle cx="8" cy="33" r="3" fill="#2F88FF"></circle><circle cx="40" cy="33" r="3" fill="#2F88FF"></circle></g></svg>