<svg xmlns="http://www.w3.org/2000/svg" xmlns:xlink="http://www.w3.org/1999/xlink" aria-hidden="true" role="img" class="iconify iconify--icon-park" width="1em" height="1em" preserveAspectRatio="xMidYMid meet" viewBox="0 0 48 48"><g fill="none" stroke="#000" stroke-linejoin="round" stroke-width="4"><path fill="#2F88FF" d="M24.0005 28.6292C26.5109 28.6292 28.546 26.6005 28.546 24.0979C28.546 21.5954 26.5109 19.5667 24.0005 19.5667C21.4901 19.5667 19.4551 21.5954 19.4551 24.0979C19.4551 26.6005 21.4901 28.6292 24.0005 28.6292Z"></path><path stroke-linecap="round" d="M16 15C10.6667 19.9706 10.6667 28.0294 16 33"></path><path stroke-linecap="round" d="M32 33C37.3333 28.0294 37.3333 19.9706 32 15"></path><path stroke-linecap="round" d="M10 10C2 17.732 2 30.268 10 38"></path><path stroke-linecap="round" d="M38.1426 38.1959C45.9531 30.4098 45.9531 17.7861 38.1426 10"></path></g></svg>