<svg xmlns="http://www.w3.org/2000/svg" xmlns:xlink="http://www.w3.org/1999/xlink" aria-hidden="true" role="img" class="iconify iconify--icon-park" width="1em" height="1em" preserveAspectRatio="xMidYMid meet" viewBox="0 0 48 48"><g fill="none" fill-rule="evenodd" stroke-linejoin="round" stroke-width="4"><path fill="#2F88FF" fill-rule="nonzero" stroke="#000" d="M20,38 C32,38 34,27.5323633 34,24 C34,20.837862 34,16.1711953 34,10 L6,10 C6,13.442296 6,18.1089627 6,24 C6,27.450596 8,38 20,38 Z" transform="translate(4 4)"></path><path stroke="#000" stroke-linecap="round" d="M3.55271368e-15,4 L6,10" transform="translate(4 4)"></path><path stroke="#000" stroke-linecap="round" d="M40,4 L34,10" transform="translate(4 4)"></path><path stroke="#000" stroke-linecap="round" d="M0,23 L6,23" transform="translate(4 4)"></path><path stroke="#000" stroke-linecap="round" d="M40,23 L34,23" transform="translate(4 4)"></path><path stroke="#000" stroke-linecap="round" d="M3,40 L9,34" transform="translate(4 4)"></path><path stroke="#000" stroke-linecap="round" d="M37,40 L31,34" transform="translate(4 4)"></path><path stroke="#FFF" stroke-linecap="round" d="M20,38 L20,10" transform="translate(4 4)"></path><path stroke="#000" stroke-linecap="round" d="M10.920475,35.0408965 C13.002464,36.7831828 15.9245088,38 20,38 L20,38 C24.1112534,38 27.0487287,36.7713317 29.1341392,35.0138386" transform="translate(4 4)"></path><path fill="#2F88FF" fill-rule="nonzero" stroke="#000" d="M28,8.33333333 C28,3.73096042 24.418278,0 20,0 C15.581722,0 12,3.73096042 12,8.33333333 L12,10 L28,10 L28,8.33333333 Z" transform="translate(4 4)"></path></g></svg>