<svg xmlns="http://www.w3.org/2000/svg" xmlns:xlink="http://www.w3.org/1999/xlink" aria-hidden="true" role="img" class="iconify iconify--icon-park" width="1em" height="1em" preserveAspectRatio="xMidYMid meet" viewBox="0 0 48 48"><g fill="none" stroke-linecap="round" stroke-linejoin="round" stroke-width="4"><path fill="#2F88FF" fill-rule="evenodd" stroke="#000" d="M4 6C4 4.89543 4.89543 4 6 4H42C43.1046 4 44 4.89543 44 6V38C44 39.1046 43.1046 40 42 40H6C4.89543 40 4 39.1046 4 38V6Z" clip-rule="evenodd"></path><rect width="8" height="4" x="8" y="40" stroke="#000"></rect><rect width="8" height="4" x="32" y="40" stroke="#000"></rect><path stroke="#fff" d="M21 16H27"></path><path stroke="#fff" d="M10 34H12"></path><path stroke="#fff" d="M19 34H29"></path><path stroke="#fff" d="M4 25H44"></path><path stroke="#fff" d="M4 10H44"></path><path stroke="#fff" d="M36 34H38"></path><path stroke="#000" d="M4 6V14"></path><path stroke="#000" d="M44 6V14"></path><path stroke="#000" d="M4 21V29"></path><path stroke="#000" d="M44 21V29"></path></g></svg>