<svg xmlns="http://www.w3.org/2000/svg" xmlns:xlink="http://www.w3.org/1999/xlink" aria-hidden="true" role="img" class="iconify iconify--icon-park" width="1em" height="1em" preserveAspectRatio="xMidYMid meet" viewBox="0 0 48 48"><g fill="none" stroke="#000" stroke-linecap="round" stroke-linejoin="round" stroke-width="4"><path d="M44 35H40L24 6.5L8 35H4"></path><path fill="#2F88FF" d="M24 31C21.2386 31 19 34.5817 19 39V41H29V39C29 34.5817 26.7614 31 24 31Z"></path><path d="M4 41L44 41"></path><path d="M15 23C15 23 20 19 24 19C28 19 33 23 33 23"></path><path d="M40 6L38 9L40 12"></path><path d="M40 6L42 9L40 12"></path><path d="M7 17L6 19L7 21"></path><path d="M7 17L8 19L7 21"></path></g></svg>