<svg xmlns="http://www.w3.org/2000/svg" xmlns:xlink="http://www.w3.org/1999/xlink" aria-hidden="true" role="img" class="iconify iconify--icon-park" width="1em" height="1em" preserveAspectRatio="xMidYMid meet" viewBox="0 0 48 48"><g fill="none" stroke="#000" stroke-linecap="round" stroke-linejoin="round" stroke-width="4"><path d="M4 11L11 4L18 11H4Z"></path><path d="M30 11L37 4L44 11H30Z"></path><path fill="#2F88FF" d="M44 44V26H40V17H34V26H28V21L24 17L20 21V26H14V17H8V26H4V44H18V40C18 36.6863 20.6863 34 24 34C27.3137 34 30 36.6863 30 40V44H44Z"></path><rect width="8" height="6" x="7" y="11"></rect><rect width="8" height="6" x="33" y="11"></rect></g></svg>