<svg xmlns="http://www.w3.org/2000/svg" xmlns:xlink="http://www.w3.org/1999/xlink" aria-hidden="true" role="img" class="iconify iconify--icon-park" width="1em" height="1em" preserveAspectRatio="xMidYMid meet" viewBox="0 0 48 48"><g fill="none" stroke="#000" stroke-linejoin="round" stroke-width="4"><path stroke-linecap="round" d="M20.9757 4.22717C11.3651 5.68494 4 13.9824 4 24C4 34.0213 11.3705 42.3212 20.9863 43.7744C21.9692 43.923 22.9756 44 24 44C25.0209 44 26.024 43.9235 27.0038 43.7759C35.6458 42.4743 42.4762 35.6429 43.7764 27.0004"></path><path stroke-linecap="round" d="M43.775 20.9939C42.4729 12.3556 35.6458 5.52785 27.0078 4.22476"></path><path fill="#2F88FF" d="M24 16C19.5817 16 16 19.5817 16 24C16 28.4183 19.5817 32 24 32C28.4183 32 32 28.4183 32 24C32 19.5817 28.4183 16 24 16Z"></path></g></svg>