<svg xmlns="http://www.w3.org/2000/svg" xmlns:xlink="http://www.w3.org/1999/xlink" aria-hidden="true" role="img" class="iconify iconify--icon-park" width="1em" height="1em" preserveAspectRatio="xMidYMid meet" viewBox="0 0 48 48"><g fill="none" stroke="#000" stroke-linejoin="round" stroke-width="4"><path d="M24 42C33.3888 42 41 34.3888 41 25C41 15.6112 33.3888 8 24 8C14.6112 8 7 15.6112 7 25C7 34.3888 14.6112 42 24 42Z"></path><path stroke-linecap="round" d="M33 21L31 22L29 21"></path><path stroke-linecap="round" d="M19 21L17 22L15 21"></path><path stroke-linecap="round" d="M24 38V44"></path><path stroke-linecap="round" d="M24 8C23.75 7 22 4 18 4"></path><path stroke-linecap="round" d="M24 8C24.0833 7 24.6 4.8 26 4"></path><path stroke-linecap="round" d="M31.9754 40C31.9754 34 31.9754 31 24 31C16 31 16.0246 34 16.0246 40"></path><path stroke-linecap="round" d="M5 23V27"></path><path stroke-linecap="round" d="M43 23V27"></path></g></svg>