<svg xmlns="http://www.w3.org/2000/svg" xmlns:xlink="http://www.w3.org/1999/xlink" aria-hidden="true" role="img" class="iconify iconify--icon-park" width="1em" height="1em" preserveAspectRatio="xMidYMid meet" viewBox="0 0 48 48"><g fill="none"><path stroke="#000" stroke-linecap="round" stroke-linejoin="round" stroke-width="4" d="M7 6.5L41 44.5"></path><path fill="#000" d="M24 2C21.7909 2 20 3.79086 20 6H28C28 3.79086 26.2091 2 24 2Z"></path><path stroke="#000" stroke-linecap="round" stroke-linejoin="round" stroke-width="4" d="M17.0703 38C17.5555 41.3923 20.473 44 23.9994 44C27.5259 44 30.4433 41.3923 30.9285 38H17.0703Z"></path><path stroke="#000" stroke-linecap="round" stroke-linejoin="round" stroke-width="4" d="M30 38H6C6 38 11.5692 33.359 11.9765 20.5"></path><path stroke="#000" stroke-linecap="round" stroke-linejoin="round" stroke-width="4" d="M41.9994 38C41.9994 38 35.9994 33 35.9994 19C35.9994 12.3726 30.6268 7 23.9994 7C21.4594 7 19.1036 7.78918 17.1641 9.13571"></path></g></svg>