<svg xmlns="http://www.w3.org/2000/svg" xmlns:xlink="http://www.w3.org/1999/xlink" aria-hidden="true" role="img" class="iconify iconify--icon-park" width="1em" height="1em" preserveAspectRatio="xMidYMid meet" viewBox="0 0 48 48"><g fill="none"><path stroke="#000" stroke-linecap="round" stroke-linejoin="round" stroke-width="4" d="M11 37H4V18L10.125 13L17 18L24 10L31 18L37.875 13L44 18V37H37"></path><path stroke="#000" stroke-linecap="round" stroke-linejoin="round" stroke-width="4" d="M37 25V37V44H11V37V25"></path><path fill="#2F88FF" d="M17 18L24 10L31 18L42 10L39.5 4H9L6 10L17 18Z"></path><path stroke="#000" stroke-linecap="round" stroke-linejoin="round" stroke-width="4" d="M19 10H24M29 10H24M24 10L17 18L6 10L9 4H39.5L42 10L31 18L24 10Z"></path></g></svg>