<svg xmlns="http://www.w3.org/2000/svg" xmlns:xlink="http://www.w3.org/1999/xlink" aria-hidden="true" role="img" class="iconify iconify--icon-park" width="1em" height="1em" preserveAspectRatio="xMidYMid meet" viewBox="0 0 48 48"><g fill="none" fill-rule="evenodd" stroke="#000" stroke-linejoin="round" stroke-width="4"><path stroke-linecap="round" d="M6,41 L34,41 L34,17.9473684 C34,11.9013038 27.7319865,7 20,7 C12.2680135,7 6,11.9013038 6,17.9473684 L6,41 Z" transform="translate(4 3)"></path><path fill="#2F88FF" fill-rule="nonzero" d="M34,19.0436777 C34,18.8000534 34,18.434617 34,17.9473684 C34,11.9013038 27.7319865,7 20,7 C12.2680135,7 6,11.9013038 6,17.9473684 C6,18.4331602 6,18.7975039 6,19.0403998 L34,19.0436777 Z" transform="translate(4 3)"></path><path stroke-linecap="round" d="M0,19 L40,19" transform="translate(4 3)"></path><path stroke-linecap="round" d="M17,1 L23,1" transform="translate(4 3)"></path></g></svg>