<svg xmlns="http://www.w3.org/2000/svg" xmlns:xlink="http://www.w3.org/1999/xlink" aria-hidden="true" role="img" class="iconify iconify--icon-park" width="1em" height="1em" preserveAspectRatio="xMidYMid meet" viewBox="0 0 48 48"><g fill="none" stroke="#000" stroke-linecap="round" stroke-linejoin="round" stroke-width="4"><path d="M5 17C5 12 6 2 17.0008 5.99999C17.9464 9.78245 15 17 5 17Z"></path><path d="M43 17C43.0006 12 42 2 31 5.99999C30.0544 9.78245 32.9994 17 43 17Z"></path><rect width="32" height="20" x="8" y="22" fill="#2F88FF" rx="10"></rect><path d="M27 22V18"></path><path d="M21 22V18"></path><path d="M43 17C44 20 44 26 40 29"></path><path d="M5 17C4 20 5 25 8 29"></path><path d="M30 42H44L40 33"></path><path d="M18 42H4L8 33"></path></g></svg>