<svg xmlns="http://www.w3.org/2000/svg" xmlns:xlink="http://www.w3.org/1999/xlink" aria-hidden="true" role="img" class="iconify iconify--icon-park" width="1em" height="1em" preserveAspectRatio="xMidYMid meet" viewBox="0 0 48 48"><g fill="none" stroke="#000" stroke-linecap="round" stroke-linejoin="round" stroke-width="4"><path d="M24 44C35.0457 44 44 35.0457 44 24C44 18.4836 41.7666 13.4887 38.1547 9.87045C34.5344 6.24377 29.5292 4 24 4C18.4708 4 13.4656 6.24377 9.84529 9.87045C6.23339 13.4887 4 18.4835 4 24C4 35.0457 12.9543 44 24 44Z"></path><path d="M4 24H8"></path><path d="M9.84521 9.87045L12.9747 13"></path><path d="M24 4V8"></path><path d="M44 24H40"></path><path d="M38.1549 9.87045L35.0254 13"></path><path d="M24 20V32"></path><path d="M39.8525 36.1961C36.1956 40.9422 30.455 44 24.0002 44C17.5454 44 11.8048 40.9422 8.14795 36.1961C12.8211 33.5259 18.2325 32 24.0002 32C29.7679 32 35.1792 33.5259 39.8525 36.1961Z"></path></g></svg>