<svg xmlns="http://www.w3.org/2000/svg" xmlns:xlink="http://www.w3.org/1999/xlink" aria-hidden="true" role="img" class="iconify iconify--icon-park" width="1em" height="1em" preserveAspectRatio="xMidYMid meet" viewBox="0 0 48 48"><g fill="none"><g stroke="#000" stroke-linejoin="round" stroke-width="4" clip-path="url(#IconifyId17f5a0b5ee214f9cb16)"><path fill="#2F88FF" d="M24 10L12 18L24 26L36 18L24 10Z"></path><path d="M24 10L36 18L41 11L30 4L24 10Z"></path><path d="M24 10L12 18L7 11L18 4L24 10Z"></path><path d="M43 22L36 18L24 26L31 31L43 22Z"></path><path d="M5 22L12 18L24 26L17 31L5 22Z"></path><path stroke-linecap="round" d="M36 28V37L24 44L12 37V28"></path></g><defs><clipPath id="IconifyId17f5a0b5ee214f9cb16"><rect width="48" height="48" fill="#fff"></rect></clipPath></defs></g></svg>