<svg xmlns="http://www.w3.org/2000/svg" xmlns:xlink="http://www.w3.org/1999/xlink" aria-hidden="true" role="img" class="iconify iconify--icon-park" width="1em" height="1em" preserveAspectRatio="xMidYMid meet" viewBox="0 0 48 48"><g fill="none" stroke="#000" stroke-linecap="round" stroke-width="4"><path stroke-linejoin="round" d="M5 17H14H18"></path><path stroke-linejoin="round" d="M30 17H39H43"></path><path stroke-linejoin="round" d="M30 31H39H43"></path><path stroke-linejoin="round" d="M5 31H14H18"></path><path stroke-linejoin="round" d="M30 9H34H43V17V31V39H34H30"></path><path stroke-linejoin="round" d="M18 9H14H5V17V31V39H14H18"></path><path fill="#2F88FF" stroke-linejoin="round" d="M43 39V31H34V39H43Z"></path><path fill="#2F88FF" stroke-linejoin="round" d="M14 39V31H5V39H14Z"></path><path fill="#2F88FF" stroke-linejoin="round" d="M43 17V9H34V17H43Z"></path><path fill="#2F88FF" stroke-linejoin="round" d="M5 9V17H14V9H5Z"></path><path d="M24 7V11"></path><path d="M24 17V21"></path><path d="M24 27V31"></path><path d="M24 37V41"></path></g></svg>