<svg xmlns="http://www.w3.org/2000/svg" xmlns:xlink="http://www.w3.org/1999/xlink" aria-hidden="true" role="img" class="iconify iconify--icon-park" width="1em" height="1em" preserveAspectRatio="xMidYMid meet" viewBox="0 0 48 48"><g fill="none" stroke="#000" stroke-width="4"><path stroke-linecap="round" stroke-linejoin="round" d="M6 15V6H15"></path><path stroke-linecap="round" stroke-linejoin="round" d="M6 33V42H15"></path><path stroke-linecap="round" stroke-linejoin="round" d="M42 33V42H33"></path><path stroke-linecap="round" stroke-linejoin="round" d="M33 6H42V15"></path><path d="M24 38C30.6274 38 36 31.732 36 24C36 16.268 30.6274 10 24 10C17.3726 10 12 16.268 12 24C12 31.732 17.3726 38 24 38Z"></path><path stroke-linecap="round" d="M6 24H42"></path><path stroke-linecap="round" d="M20.0703 30.1057C21.3382 31.0429 22.6482 31.5116 24.0006 31.5116C25.3529 31.5116 26.699 31.0429 28.0387 30.1057"></path></g></svg>