<svg xmlns="http://www.w3.org/2000/svg" xmlns:xlink="http://www.w3.org/1999/xlink" aria-hidden="true" role="img" class="iconify iconify--icon-park" width="1em" height="1em" preserveAspectRatio="xMidYMid meet" viewBox="0 0 48 48"><g fill="none" stroke="#000" stroke-width="4"><path stroke-linecap="round" stroke-linejoin="round" d="M10 44H38C39.1046 44 40 43.1046 40 42V14L31 4H10C8.89543 4 8 4.89543 8 6V42C8 43.1046 8.89543 44 10 44Z"></path><circle cx="24" cy="27" r="5" fill="#2F88FF"></circle><path stroke-linecap="round" stroke-linejoin="round" d="M24 19V22"></path><path stroke-linecap="round" stroke-linejoin="round" d="M24 32V35"></path><path stroke-linecap="round" stroke-linejoin="round" d="M29.8281 21L27.7068 23.1213"></path><path stroke-linecap="round" stroke-linejoin="round" d="M19.8281 31L17.7068 33.1213"></path><path stroke-linecap="round" stroke-linejoin="round" d="M18 21L20.1213 23.1213"></path><path stroke-linecap="round" stroke-linejoin="round" d="M28 31L30.1213 33.1213"></path><path stroke-linecap="round" stroke-linejoin="round" d="M16 27H17.5H19"></path><path stroke-linecap="round" stroke-linejoin="round" d="M29 27H30.5H32"></path><path stroke-linecap="round" stroke-linejoin="round" d="M30 4V14H40"></path></g></svg>