<svg xmlns="http://www.w3.org/2000/svg" xmlns:xlink="http://www.w3.org/1999/xlink" aria-hidden="true" role="img" class="iconify iconify--icon-park" width="1em" height="1em" preserveAspectRatio="xMidYMid meet" viewBox="0 0 48 48"><g fill="none" stroke="#000" stroke-linecap="round" stroke-width="4"><path stroke-linejoin="round" d="M25 41H38V34"></path><path stroke-linejoin="round" d="M25 7H38V14"></path><path stroke-linejoin="round" d="M25 34.2432V44L10 38.6187V34"></path><path stroke-linejoin="round" d="M25 13.973V4L10 9.38125V13.973"></path><rect width="40" height="20" x="4" y="14" stroke-linejoin="round" rx="2"></rect><path d="M10 19V29"></path><path d="M21 19V29"></path><path stroke-linejoin="round" d="M35 20V28"></path><path stroke-linejoin="round" d="M32 20H35H38"></path><path stroke-linejoin="round" d="M10 19H13C14.6569 19 16 20.3431 16 22V22C16 23.6569 14.6569 25 13 25H10"></path><path stroke-linejoin="round" d="M21 19H24C25.6569 19 27 20.3431 27 22V22C27 23.6569 25.6569 25 24 25H21"></path></g></svg>