<svg xmlns="http://www.w3.org/2000/svg" xmlns:xlink="http://www.w3.org/1999/xlink" aria-hidden="true" role="img" class="iconify iconify--icon-park" width="1em" height="1em" preserveAspectRatio="xMidYMid meet" viewBox="0 0 48 48"><g fill="none" stroke-linejoin="round" stroke-width="4"><path fill="#2F88FF" stroke="#000" d="M16 18C16 13.5817 19.5817 10 24 10V10C28.4183 10 32 13.5817 32 18V42C32 43.1046 31.1046 44 30 44H18C16.8954 44 16 43.1046 16 42V18Z"></path><path stroke="#fff" stroke-linecap="round" d="M24 24V34"></path><rect width="9" height="4" x="20" y="5" fill="#2F88FF" stroke="#000"></rect><path fill="#2F88FF" stroke="#000" d="M29 5L38 4V10L29 9V5Z"></path><path stroke="#000" stroke-linecap="round" d="M20 7.00005C17 7.00006 12.5 6.50005 10 9.00005C7.58343 11.4167 8.00004 14 8.00004 18"></path></g></svg>