<svg xmlns="http://www.w3.org/2000/svg" xmlns:xlink="http://www.w3.org/1999/xlink" aria-hidden="true" role="img" class="iconify iconify--icon-park" width="1em" height="1em" preserveAspectRatio="xMidYMid meet" viewBox="0 0 48 48"><g fill="none" fill-rule="evenodd" stroke="#000" stroke-linecap="round" stroke-linejoin="round" stroke-width="4" transform="translate(4 4)"><circle cx="20" cy="20" r="20"></circle><g transform="translate(2 2.5)"><polyline points="24.093 0 18.07 4.359 18.07 8.718 25.814 14.821 30.116 13.077 32.698 6.103"></polyline><polyline points="12.047 0 18.07 4.359 18.07 8.718 10.326 14.821 6.023 13.077 3.442 6.103"></polyline><polyline points="0 15.692 6.023 13.077 10.326 14.821 12.907 24.41 10.326 27.897 2.581 27.897"></polyline><polyline points="10.326 34 10.326 27.897 12.907 24.41 23.233 24.41 25.814 27.897 25.814 34"></polyline><polyline points="33.558 27.897 25.814 27.897 23.233 24.41 25.814 14.821 30.116 13.077 37 16.564"></polyline></g></g></svg>