<svg xmlns="http://www.w3.org/2000/svg" xmlns:xlink="http://www.w3.org/1999/xlink" aria-hidden="true" role="img" class="iconify iconify--icon-park" width="1em" height="1em" preserveAspectRatio="xMidYMid meet" viewBox="0 0 48 48"><g fill="none" stroke="#000" stroke-linecap="round" stroke-linejoin="round" stroke-width="4"><path d="M8 28V40H20"></path><path d="M28 40H40V28"></path><path d="M40 20V8H28"></path><path d="M20 8H8V20"></path><path fill="#2F88FF" d="M44 20H36V28H44V20Z"></path><path fill="#2F88FF" d="M12 20H4V28H12V20Z"></path><path fill="#2F88FF" d="M28 36H20V44H28V36Z"></path><path fill="#2F88FF" d="M28 4H20V12H28V4Z"></path><path d="M24 18V30"></path><path d="M18 24H30"></path><path d="M28 8L40 20"></path><path d="M20 8L8 20"></path><path d="M20 40L8 28"></path><path d="M40 28L29 40"></path></g></svg>