<svg xmlns="http://www.w3.org/2000/svg" xmlns:xlink="http://www.w3.org/1999/xlink" aria-hidden="true" role="img" class="iconify iconify--icon-park" width="1em" height="1em" preserveAspectRatio="xMidYMid meet" viewBox="0 0 48 48"><g fill="none" stroke="#000" stroke-linecap="round" stroke-linejoin="round" stroke-width="4"><circle cx="10" cy="10" r="6" fill="#2F88FF"></circle><path d="M6.28339 14.7108C5.42081 16.3525 4.77973 18.1288 4.3999 20"></path><path d="M14.7109 6.28358C16.3527 5.42099 18.129 4.77992 20.0002 4.40009"></path><circle cx="38" cy="10" r="6" fill="#2F88FF"></circle><path d="M33.2893 6.28358C31.6475 5.42099 29.8712 4.77992 28 4.40009"></path><path d="M41.7163 14.7108C42.5789 16.3525 43.22 18.1288 43.5998 20"></path><circle cx="38" cy="38" r="6" fill="#2F88FF"></circle><path d="M41.7163 33.2893C42.5789 31.6475 43.22 29.8712 43.5998 28"></path><path d="M33.2893 41.7164C31.6475 42.579 29.8712 43.2201 28 43.5999"></path><circle cx="10" cy="38" r="6" fill="#2F88FF"></circle><path d="M14.7109 41.7164C16.3527 42.579 18.129 43.2201 20.0002 43.5999"></path><path d="M6.28339 33.2893C5.42081 31.6475 4.77973 29.8712 4.3999 28"></path><path d="M18 24H30M24 30V18"></path></g></svg>