<svg xmlns="http://www.w3.org/2000/svg" xmlns:xlink="http://www.w3.org/1999/xlink" aria-hidden="true" role="img" class="iconify iconify--icon-park" width="1em" height="1em" preserveAspectRatio="xMidYMid meet" viewBox="0 0 48 48"><g fill="none" stroke="#000" stroke-width="4"><rect width="11" height="5" x="4.928" y="13.224" rx="2" transform="rotate(-46.025 4.928 13.224)"></rect><rect width="11" height="5" x="19.321" y="27.111" rx="2" transform="rotate(-46.025 19.321 27.11)"></rect><rect width="17" height="5" x="6.444" y="18.855" rx="2" transform="rotate(-46.025 6.444 18.855)"></rect><rect width="17" height="5" x="13.64" y="25.798" rx="2" transform="rotate(-46.025 13.64 25.798)"></rect><rect width="25" height="5" x="7.264" y="25.205" rx="2" transform="rotate(-46.025 7.264 25.205)"></rect><path fill="#2F88FF" stroke-linecap="round" stroke-linejoin="round" d="M25.0024 28.4237L29.1685 24.1058L43.5751 38.0061L39.409 42.3239L25.0024 28.4237Z"></path><path stroke-linejoin="round" d="M21 40.25C21 42.3211 19.2091 44 17 44C14.7909 44 13 42.3211 13 40.25C13 38.1789 17 34 17 34C17 34 21 38.1789 21 40.25Z"></path></g></svg>