<svg xmlns="http://www.w3.org/2000/svg" xmlns:xlink="http://www.w3.org/1999/xlink" aria-hidden="true" role="img" class="iconify iconify--icon-park" width="1em" height="1em" preserveAspectRatio="xMidYMid meet" viewBox="0 0 48 48"><g fill="none" stroke="#000" stroke-linecap="round" stroke-linejoin="round" stroke-width="4"><path d="M24 4V12"></path><path d="M38.1421 9.85791L32.4852 15.5148"></path><path d="M44 24H36"></path><path d="M38.1421 38.1421L32.4852 32.4852"></path><path d="M24 44V36"></path><path d="M9.85791 38.1421L15.5148 32.4852"></path><path d="M4 24H12"></path><path d="M9.85791 9.85791L15.5148 15.5148"></path><path d="M16.3464 5.52246L17.8772 9.21798"></path><path d="M5.52246 16.3462L9.21798 17.8769"></path><path d="M5.52246 31.6538L9.21798 30.123"></path><path d="M16.3464 42.4777L17.8772 38.7822"></path><path d="M31.6538 42.4777L30.123 38.7822"></path><path d="M42.4776 31.6538L38.7821 30.123"></path><path d="M42.4776 16.3462L38.7821 17.8769"></path><path d="M31.6538 5.52246L30.123 9.21798"></path></g></svg>