<svg xmlns="http://www.w3.org/2000/svg" xmlns:xlink="http://www.w3.org/1999/xlink" aria-hidden="true" role="img" class="iconify iconify--icon-park" width="1em" height="1em" preserveAspectRatio="xMidYMid meet" viewBox="0 0 48 48"><g fill="none" stroke="#000" stroke-linejoin="round" stroke-width="4"><circle cx="24" cy="24" r="20"></circle><path stroke-linecap="round" d="M4.40002 20C6.2531 29.129 14.3242 36 24 36C33.6758 36 41.7468 29.129 43.5999 20"></path><path stroke-linecap="round" d="M5.66418 16C8.7504 23.0636 15.7987 28 24 28C32.2013 28 39.2496 23.0636 42.3358 16"></path><path stroke-linecap="round" d="M7.99854 12C11.6474 16.8578 17.4567 20 24 20C30.5433 20 36.3526 16.8578 40.015 12"></path><path stroke-linecap="round" d="M11.998 8C15.341 10.5116 19.4967 12 24 12C28.5033 12 32.659 10.5116 36.0019 8"></path></g></svg>