<svg xmlns="http://www.w3.org/2000/svg" xmlns:xlink="http://www.w3.org/1999/xlink" aria-hidden="true" role="img" class="iconify iconify--icon-park" width="1em" height="1em" preserveAspectRatio="xMidYMid meet" viewBox="0 0 48 48"><g fill="none" stroke="#000" stroke-linecap="round" stroke-linejoin="round" stroke-width="4"><path d="M36 40.015C32.6574 42.5122 28.5024 44 24 44C16.5972 44 10.1337 39.978 6.67566 34H15"></path><path d="M32 5.66418C39.0636 8.75041 44 15.7987 44 24C44 27.6429 43.0261 31.0583 41.3244 34L37.282 27"></path><path d="M4.09875 26C4.03344 25.3422 4 24.675 4 24C4 12.9543 12.9543 4 24 4L19.9577 11"></path><path fill="#2F88FF" d="M24 30C27.3137 30 30 27.3137 30 24C30 20.6863 27.3137 18 24 18C20.6863 18 18 20.6863 18 24C18 27.3137 20.6863 30 24 30Z"></path></g></svg>