<svg xmlns="http://www.w3.org/2000/svg" xmlns:xlink="http://www.w3.org/1999/xlink" aria-hidden="true" role="img" class="iconify iconify--icon-park" width="1em" height="1em" preserveAspectRatio="xMidYMid meet" viewBox="0 0 48 48"><g fill="none" stroke="#000" stroke-linecap="round" stroke-linejoin="round" stroke-width="4"><path d="M9 4V13"></path><path d="M12 13H6"></path><path d="M12 27H6"></path><path d="M6 19.9999C6 19.9999 9 16.9999 11 20C13 23 6 27 6 27"></path><path d="M6.00001 34.5001C6.00001 34.5001 8.00001 31.5 11 33.5C14 35.5 11 38 11 38C11 38 14 40.5 11 42.5C8 44.5 6 41.5 6 41.5"></path><path d="M11 38H9"></path><path d="M9 4L6 6"></path><path d="M21 24H43"></path><path d="M21 38H43"></path><path d="M21 10H43"></path></g></svg>