<svg xmlns="http://www.w3.org/2000/svg" xmlns:xlink="http://www.w3.org/1999/xlink" aria-hidden="true" role="img" class="iconify iconify--icon-park" width="1em" height="1em" preserveAspectRatio="xMidYMid meet" viewBox="0 0 48 48"><g fill="none" fill-rule="evenodd" stroke="#000" stroke-linejoin="round" stroke-width="4" transform="translate(4 4)"><path fill="#2F88FF" fill-rule="nonzero" d="M12.7272727,20 C15.1515152,17.5757576 17.5757576,16.3636364 20,16.3636364 C22.4242424,16.3636364 24.8484848,17.5757576 27.2727273,20 C30.1010101,17.5757576 32.2222222,16.3636364 33.6363636,16.3636364 C35.0505051,16.3636364 37.1717172,17.5757576 40,20 C40,8.954305 31.045695,0 20,0 C8.954305,0 0,8.954305 0,20 C2.82828283,17.5757576 4.94949495,16.3636364 6.36363636,16.3636364 C7.77777778,16.3636364 9.8989899,17.5757576 12.7272727,20 Z"></path><polyline stroke-linecap="round" points="0 20 20 40 12.727 20"></polyline><polyline stroke-linecap="round" points="27.273 20 20 40 40 20"></polyline></g></svg>