<svg xmlns="http://www.w3.org/2000/svg" xmlns:xlink="http://www.w3.org/1999/xlink" aria-hidden="true" role="img" class="iconify iconify--icon-park" width="1em" height="1em" preserveAspectRatio="xMidYMid meet" viewBox="0 0 48 48"><g fill="none"><g clip-path="url(#IconifyId17f5a0b5ee214f9cb29)"><path stroke="#000" stroke-linecap="round" stroke-linejoin="round" stroke-width="4" d="M27 12C27 12 33.9994 19 33.9995 28C33.9996 37 29.5554 44.2228 25.9995 44C22.4437 43.7772 18.9999 37 20 28C21 19 27 12 27 12Z"></path><path stroke="#000" stroke-linecap="round" stroke-linejoin="round" stroke-width="4" d="M26.9998 12C26.9998 12 28.0011 7.87525 31.0002 5.93761C33.9994 3.99997 39.8901 9 39 12C38.1099 15 34.9996 15 33.9997 12C32.9998 9.00001 38 5.5 41 5.93761C44 6.37522 44.2569 11.1798 44 14C43.499 19.5 42 24 42 24"></path><path fill="#2F88FF" stroke="#000" stroke-linecap="round" stroke-linejoin="round" stroke-width="4" d="M26.9999 12C26.9999 12 26.9999 20 20 28C13.0001 36 6.32546 37.6996 4.00039 35C1.67532 32.3004 4.00039 25 11.0001 18C17.9997 11 26.9999 12 26.9999 12Z"></path><circle cx="27.243" cy="27.408" r="2.5" fill="#000"></circle><circle cx="26.243" cy="34.408" r="2.5" fill="#000"></circle></g><defs><clipPath id="IconifyId17f5a0b5ee214f9cb29"><rect width="48" height="48" fill="#fff"></rect></clipPath></defs></g></svg>