<svg xmlns="http://www.w3.org/2000/svg" xmlns:xlink="http://www.w3.org/1999/xlink" aria-hidden="true" role="img" class="iconify iconify--icon-park" width="1em" height="1em" preserveAspectRatio="xMidYMid meet" viewBox="0 0 48 48"><g fill="none" stroke="#000" stroke-linecap="round" stroke-linejoin="round" stroke-width="4"><path d="M19.4438 21.5001C19.017 20.4326 18.8747 19.7007 18.8747 19.7007L21.2315 14.987C21.5266 14.3968 21.5116 13.6989 21.1913 13.1219L18.7448 8.71505C18.3922 8.07981 17.7228 7.68579 16.9962 7.68579L11.9236 7.68579C9.33993 7.68578 7.47453 10.088 8.30063 12.536C9.5121 16.126 11.5052 21.1307 14.3465 25.5001M26.6772 28.9116C27.9041 29.4333 28.7742 29.6002 28.7742 29.6002L33.4871 27.2437C34.0778 26.9484 34.7762 26.9637 35.3534 27.2846L39.7727 29.7416C40.4073 30.0944 40.8009 30.7635 40.8009 31.4896L40.8009 36.5631C40.8009 39.1467 38.3973 41.0117 35.9493 40.1856C32.2021 38.921 26.9142 36.8049 22.4161 33.7618"></path><path d="M40 8L8 40"></path></g></svg>