<svg xmlns="http://www.w3.org/2000/svg" xmlns:xlink="http://www.w3.org/1999/xlink" aria-hidden="true" role="img" class="iconify iconify--icon-park" width="1em" height="1em" preserveAspectRatio="xMidYMid meet" viewBox="0 0 48 48"><g fill="none"><g stroke="#000" stroke-linecap="round" stroke-width="4" clip-path="url(#IconifyId17f5a0b5ee214f9cb30)"><path stroke-linejoin="bevel" d="M34 13L34 6C34 4.89543 33.1046 4 32 4L8 4C6.89543 4 6 4.89543 6 6L6 34C6 35.1046 6.89543 36 8 36L23 36"></path><path stroke-linejoin="round" d="M28.0005 42C21 38 24.3318 32.2258 22.9772 31C21.3247 29.5047 20.3874 28.1122 19.9996 26C19.6118 23.8878 21.0701 21.4737 22.9774 23C24.8847 24.5263 28 31 28 31L30 29L31 18C31 18 30 14 30 12C30 10 34 13 36 16C36 26.4419 37.4995 36 41.9992 44"></path><path stroke-linejoin="round" d="M25 17.4L21 11L13 27H20"></path><path stroke-linejoin="round" d="M6 22L12 11L17 18"></path></g><defs><clipPath id="IconifyId17f5a0b5ee214f9cb30"><rect width="48" height="48" fill="#fff"></rect></clipPath></defs></g></svg>