<svg xmlns="http://www.w3.org/2000/svg" xmlns:xlink="http://www.w3.org/1999/xlink" aria-hidden="true" role="img" class="iconify iconify--icon-park" width="1em" height="1em" preserveAspectRatio="xMidYMid meet" viewBox="0 0 48 48"><g fill="none" stroke-linecap="round" stroke-width="4"><path fill="#2F88FF" stroke="#000" stroke-linejoin="round" d="M37 23.2C37 32 24 44 24 44C24 44 11 32 11 23.2C11 15.9098 16.8203 10 24 10C31.1797 10 37 15.9098 37 23.2Z"></path><path stroke="#000" stroke-linejoin="round" stroke-miterlimit="2" d="M24 4V10"></path><path stroke="#000" stroke-linejoin="round" stroke-miterlimit="2" d="M18 5L22 10"></path><path stroke="#000" stroke-linejoin="round" stroke-miterlimit="2" d="M30 5L26 10"></path><path stroke="#fff" stroke-linejoin="round" stroke-miterlimit="2" d="M12 20H20"></path><path stroke="#fff" stroke-linejoin="round" stroke-miterlimit="2" d="M29 27H36"></path><path stroke="#fff" stroke-linejoin="round" stroke-miterlimit="2" d="M16 34H22"></path><path stroke="#000" stroke-linejoin="round" d="M13.812 15C12.0515 17.2521 11 20.1014 11 23.2C11 28.7547 16.1797 35.5844 20 39.8663"></path><path stroke="#000" d="M37 23.2C37 25.9741 35.7082 29.0661 33.939 32"></path></g></svg>