<svg xmlns="http://www.w3.org/2000/svg" xmlns:xlink="http://www.w3.org/1999/xlink" aria-hidden="true" role="img" class="iconify iconify--icon-park" width="1em" height="1em" preserveAspectRatio="xMidYMid meet" viewBox="0 0 48 48"><g fill="none"><g stroke="#000" stroke-linecap="round" stroke-linejoin="round" stroke-width="4" clip-path="url(#IconifyId17f5a0b5ee214f9cb35)"><circle cx="29.464" cy="16.989" r="11" fill="#2F88FF" transform="rotate(40 29.464 16.989)"></circle><path d="M38.5329 23.2932C38.5329 23.2932 32.8976 23.7863 27.5353 19.2868C22.173 14.7872 21.6799 9.15192 21.6799 9.15192"></path><path d="M26.866 27.8631C23.4056 28.8756 21.7986 30.7907 20.1916 32.7058C18.5847 34.6209 18.5098 37.8216 16.5814 40.1198C14.653 42.4179 11.8354 42.6644 9.53725 40.7361C7.23912 38.8077 6.9926 35.99 8.92097 33.6919C10.8493 31.3938 13.9884 30.7642 15.5954 28.8491C17.2023 26.934 18.8093 25.0189 19.2056 21.4352"></path><path d="M38.8325 10.4905C39.8975 9.22127 39.7319 7.329 38.4627 6.264C37.1935 5.19899 35.3012 5.36454 34.2362 6.63377"></path></g><defs><clipPath id="IconifyId17f5a0b5ee214f9cb35"><rect width="48" height="48" fill="#fff"></rect></clipPath></defs></g></svg>