<svg xmlns="http://www.w3.org/2000/svg" xmlns:xlink="http://www.w3.org/1999/xlink" aria-hidden="true" role="img" class="iconify iconify--icon-park" width="1em" height="1em" preserveAspectRatio="xMidYMid meet" viewBox="0 0 48 48"><g fill="none"><g stroke="#000" stroke-linecap="round" stroke-linejoin="round" stroke-width="4" clip-path="url(#IconifyId17f5a0b5ee214f9cb34)"><circle cx="30.075" cy="15.562" r="11" fill="#2F88FF" transform="rotate(40 30.075 15.562)"></circle><path d="M21.6483 8.49166C17.0388 8.54003 15.3218 5.14119 13.072 7.82235C11.0393 10.2448 13.565 13.4577 11.6367 15.7558"></path><path d="M25.3022 25.9171C25.3022 25.9171 21.1241 30.8964 19.5172 32.8115C17.9102 34.7267 17.8353 37.9273 15.9069 40.2255C13.9786 42.5236 11.1609 42.7701 8.86278 40.8418C6.56465 38.9134 6.31814 36.0957 8.2465 33.7976C10.1749 31.4995 13.3139 30.8699 14.9209 28.9548C16.5279 27.0397 20.0837 23.0613 20.706 22.0604"></path><circle cx="11.24" cy="19.34" r="3" fill="#2F88FF" transform="rotate(40 11.24 19.34)"></circle><circle cx="28.463" cy="37.707" r="3" fill="#2F88FF" transform="rotate(40 28.463 37.707)"></circle><path d="M37.2157 24.165C37.8452 27.3041 40.0685 32.4331 38.0785 34.0269C36.0885 35.6206 31.5539 32.4683 30.3915 35.4092"></path></g><defs><clipPath id="IconifyId17f5a0b5ee214f9cb34"><rect width="48" height="48" fill="#fff"></rect></clipPath></defs></g></svg>