<svg xmlns="http://www.w3.org/2000/svg" xmlns:xlink="http://www.w3.org/1999/xlink" aria-hidden="true" role="img" class="iconify iconify--icon-park" width="1em" height="1em" preserveAspectRatio="xMidYMid meet" viewBox="0 0 48 48"><g fill="none" fill-rule="evenodd" stroke="#000" stroke-linecap="round" stroke-linejoin="round" stroke-width="4"><path d="M19.0099137,42 L9,42 C7.34314575,42 6,40.6568542 6,39 L6,9 C6,7.34314575 7.34314575,6 9,6 L9,6 L39,6 C40.6568542,6 42,7.34314575 42,9 L42,19.0303905"></path><path d="M42,29.0345925 L42,41 C42,41.5522847 41.5522847,42 41,42 L29.037068,42"></path><path d="M42,29.0345925 L18,29.0345925"></path><polyline points="17 23 23 29 17 35" transform="matrix(-1 0 0 1 40 0)"></polyline></g></svg>