<svg xmlns="http://www.w3.org/2000/svg" xmlns:xlink="http://www.w3.org/1999/xlink" aria-hidden="true" role="img" class="iconify iconify--icon-park" width="1em" height="1em" preserveAspectRatio="xMidYMid meet" viewBox="0 0 48 48"><g fill="none" stroke="#000" stroke-width="4"><path fill="#2F88FF" d="M24 38C33.3888 38 41 30.9411 41 21H7C7 30.9411 14.6112 38 24 38Z"></path><path d="M30 21C30 15.4772 25.7467 11 20.5 11C15.2533 11 11 15.4772 11 21"></path><path d="M39 21C39 17.6863 36.234 15 32.822 15C31.379 15 30.0515 15.4805 29 16.2857"></path><path stroke-linecap="round" d="M33 15L36 5"></path><path stroke-linecap="round" d="M38 18L42 11"></path><path stroke-linecap="round" stroke-linejoin="round" d="M18 37L16 43H32L30 37"></path></g></svg>