<svg xmlns="http://www.w3.org/2000/svg" xmlns:xlink="http://www.w3.org/1999/xlink" aria-hidden="true" role="img" class="iconify iconify--icon-park" width="1em" height="1em" preserveAspectRatio="xMidYMid meet" viewBox="0 0 48 48"><g fill="none"><path stroke="#000" stroke-linecap="round" stroke-linejoin="round" stroke-width="4" d="M10 32C10 32 10 14.866 10 11C10 7.13401 13.134 4 17 4C20.866 4 24 7.13401 24 11C24 11 24 33.134 24 37C24 40.866 27.134 44 31 44C34.866 44 38 40.866 38 37V16"></path><path fill="#2F88FF" d="M41 4V16H35V4H41Z"></path><path stroke="#000" stroke-linecap="round" stroke-linejoin="round" stroke-width="4" d="M32 16H35M44 16H41M41 16V4H35V16M41 16H35"></path><path fill="#2F88FF" d="M7 44V32H13V44H7Z"></path><path stroke="#000" stroke-linecap="round" stroke-linejoin="round" stroke-width="4" d="M16 32H13M4 32H7M7 32V44H13V32M7 32H13"></path></g></svg>