<svg xmlns="http://www.w3.org/2000/svg" xmlns:xlink="http://www.w3.org/1999/xlink" aria-hidden="true" role="img" class="iconify iconify--icon-park" width="1em" height="1em" preserveAspectRatio="xMidYMid meet" viewBox="0 0 48 48"><g fill="none" stroke-width="4"><path fill="#2F88FF" stroke="#000" stroke-linejoin="round" d="M4 33C4 31.8954 4.89543 31 6 31H12V24L24 16L36 24V31H42C43.1046 31 44 31.8954 44 33V42C44 43.1046 43.1046 44 42 44H4V33Z"></path><path stroke="#000" stroke-linecap="round" d="M24 6V16"></path><path stroke="#000" stroke-linecap="round" stroke-linejoin="round" d="M36 12V6C36 6 34.5 9 30 6C25.5 3 24 6 24 6V12C24 12 25.5 9 30 12C34.5 15 36 12 36 12Z"></path><path stroke="#fff" stroke-linecap="round" stroke-linejoin="round" d="M28 44V31H20L20 44"></path><path stroke="#000" stroke-linecap="round" stroke-linejoin="round" d="M18 44L30 44"></path></g></svg>