<svg xmlns="http://www.w3.org/2000/svg" xmlns:xlink="http://www.w3.org/1999/xlink" aria-hidden="true" role="img" class="iconify iconify--icon-park" width="1em" height="1em" preserveAspectRatio="xMidYMid meet" viewBox="0 0 48 48"><g fill="none"><path stroke="#000" stroke-linecap="round" stroke-width="4" d="M38.1421 38.1421C41.7614 34.5228 44 29.5228 44 23.9999C44 18.4771 41.7614 13.4771 38.1421 9.85779"></path><path stroke="#000" stroke-linecap="round" stroke-width="4" d="M9.85786 9.85779C6.23858 13.4771 4 18.4771 4 23.9999C4 29.5228 6.23858 34.5228 9.85786 38.1421"></path><path stroke="#000" stroke-linecap="round" stroke-width="4" d="M15.1005 14.1005C12.567 16.634 11 20.134 11 24C11 27.866 12.567 31.366 15.1005 33.8995"></path><path stroke="#000" stroke-linecap="round" stroke-width="4" d="M32.8995 33.8995C35.433 31.366 37 27.866 37 24C37 20.134 35.433 16.634 32.8995 14.1005"></path><path stroke="#000" stroke-linecap="round" stroke-linejoin="round" stroke-width="4" d="M24 43.9999V33.9999"></path><path stroke="#000" stroke-linecap="round" stroke-linejoin="round" stroke-width="4" d="M24 3.99988V13.9999"></path><circle cx="24" cy="24" r="3" fill="#000"></circle></g></svg>