<svg xmlns="http://www.w3.org/2000/svg" xmlns:xlink="http://www.w3.org/1999/xlink" aria-hidden="true" role="img" class="iconify iconify--icon-park" width="1em" height="1em" preserveAspectRatio="xMidYMid meet" viewBox="0 0 48 48"><g fill="none" stroke-linecap="round" stroke-linejoin="round" stroke-miterlimit="2" stroke-width="4"><path stroke="#000" d="M44 4H28V12H44V4Z"></path><path fill="#2F88FF" stroke="#000" d="M44 12V34C44 35.11 43.11 36 42 36H8C5.79 36 4 34.21 4 32V26C4 21.58 7.58 18 12 18H28V12H44Z"></path><path stroke="#fff" d="M14 24V18"></path><path stroke="#fff" d="M21 24V18"></path><path stroke="#000" d="M14 44V36"></path><path stroke="#000" d="M36 44V36"></path><path stroke="#000" d="M23 18L12 18"></path><path stroke="#000" d="M44 44H6C4.89 44 4 43.1 4 42V40.63"></path></g></svg>