<svg xmlns="http://www.w3.org/2000/svg" xmlns:xlink="http://www.w3.org/1999/xlink" aria-hidden="true" role="img" class="iconify iconify--icon-park" width="1em" height="1em" preserveAspectRatio="xMidYMid meet" viewBox="0 0 48 48"><g fill="none" stroke="#000" stroke-width="4"><path fill="#2F88FF" stroke-linejoin="round" d="M10 30H16C19.3137 30 22 32.6863 22 36V36C22 39.3137 19.3137 42 16 42H10V30Z"></path><path stroke-linecap="round" stroke-linejoin="round" d="M10 28V44"></path><path stroke-linecap="round" stroke-linejoin="round" d="M4 32H10"></path><path stroke-linecap="round" stroke-linejoin="round" d="M4 38H10"></path><path stroke-linecap="round" stroke-linejoin="round" d="M22 36H30C31.1046 36 32 35.1046 32 34V23"></path><path stroke-linecap="round" stroke-linejoin="round" d="M32 4V11"></path><path stroke-linecap="round" stroke-linejoin="round" d="M22.8789 7.87866L27.1215 12.1213"></path><path stroke-linecap="round" stroke-linejoin="round" d="M22.8789 25.1213L27.1215 20.8787"></path><path stroke-linecap="round" stroke-linejoin="round" d="M41.1211 7.87866L36.8785 12.1213"></path><path stroke-linecap="round" stroke-linejoin="round" d="M41.1211 25.1213L36.8785 20.8787"></path><circle cx="32" cy="17" r="6" fill="#2F88FF"></circle><path stroke-linecap="round" stroke-linejoin="round" d="M20 17H26"></path><path stroke-linecap="round" stroke-linejoin="round" d="M38 17H44"></path></g></svg>