<svg xmlns="http://www.w3.org/2000/svg" xmlns:xlink="http://www.w3.org/1999/xlink" aria-hidden="true" role="img" class="iconify iconify--icon-park" width="1em" height="1em" preserveAspectRatio="xMidYMid meet" viewBox="0 0 48 48"><g fill="none" stroke="#000" stroke-linejoin="round" stroke-width="4"><path fill="#2F88FF" d="M30.2972 18.7786C30.2972 18.7786 27.0679 27.8808 25.5334 29.4699C23.9988 31.0591 21.4665 31.1033 19.8774 29.5687C18.2882 28.0341 18.244 25.5018 19.7786 23.9127C21.3132 22.3236 30.2972 18.7786 30.2972 18.7786Z"></path><path stroke-linecap="round" d="M38.8492 38.8492C42.6495 35.049 45 29.799 45 24C45 12.402 35.598 3 24 3C12.402 3 3 12.402 3 24C3 29.799 5.35051 35.049 9.15076 38.8492"></path><path stroke-linecap="round" d="M24 4V8"></path><path stroke-linecap="round" d="M38.8454 11.1421L35.7368 13.6593"></path><path stroke-linecap="round" d="M42.5225 27.2328L38.6251 26.333"></path><path stroke-linecap="round" d="M5.47749 27.2328L9.37497 26.333"></path><path stroke-linecap="round" d="M9.15463 11.1421L12.2632 13.6593"></path></g></svg>