<svg xmlns="http://www.w3.org/2000/svg" xmlns:xlink="http://www.w3.org/1999/xlink" aria-hidden="true" role="img" class="iconify iconify--icon-park" width="1em" height="1em" preserveAspectRatio="xMidYMid meet" viewBox="0 0 48 48"><g fill="none"><path stroke="#000" stroke-linecap="round" stroke-linejoin="round" stroke-width="4" d="M38 38V6C38 4.89543 37.1046 4 36 4H12C10.8954 4 10 4.89543 10 6V38"></path><path stroke="#000" stroke-linecap="round" stroke-linejoin="round" stroke-width="4" d="M25 14H23"></path><path stroke="#000" stroke-linecap="round" stroke-linejoin="round" stroke-width="4" d="M25 22H23"></path><path fill="#2F88FF" stroke="#000" stroke-linecap="round" stroke-linejoin="round" stroke-width="4" d="M10 38C10 34.6863 12.6863 32 16 32H32C35.3137 32 38 34.6863 38 38C38 41.3137 35.3137 44 32 44H16C12.6863 44 10 41.3137 10 38Z"></path><path stroke="#fff" stroke-linecap="round" stroke-linejoin="round" stroke-width="4" d="M17 39V44"></path><path stroke="#fff" stroke-linecap="round" stroke-linejoin="round" stroke-width="4" d="M22 39V44"></path><path stroke="#fff" stroke-linecap="round" stroke-linejoin="round" stroke-width="4" d="M27 39V44"></path><circle cx="32" cy="38" r="2" fill="#fff"></circle><path stroke="#000" stroke-linecap="round" stroke-linejoin="round" stroke-width="4" d="M29 44H15"></path></g></svg>