<svg xmlns="http://www.w3.org/2000/svg" xmlns:xlink="http://www.w3.org/1999/xlink" aria-hidden="true" role="img" class="iconify iconify--icon-park" width="1em" height="1em" preserveAspectRatio="xMidYMid meet" viewBox="0 0 48 48"><g fill="none" stroke-width="4"><path stroke="#000" stroke-linejoin="round" d="M16 28H8C6.89543 28 6 28.8954 6 30V44"></path><path stroke="#000" stroke-linejoin="round" d="M32 28H40C41.1046 28 42 28.8954 42 30V44"></path><path fill="#2F88FF" stroke="#000" stroke-linejoin="round" d="M19.9999 24H27.9999C27.9999 24 33.1657 18.3215 31.9999 15C31.2451 12.8494 29.562 11.6597 27.9999 10C26.4378 8.34027 23.9999 6 23.9999 6C23.9999 6 21.562 8.34027 19.9999 10C18.4378 11.6597 16.7547 12.8494 15.9999 15C14.8342 18.3215 19.9999 24 19.9999 24Z"></path><path stroke="#000" stroke-linecap="round" stroke-linejoin="round" d="M4 44H44"></path><path fill="#2F88FF" stroke="#000" stroke-linecap="round" stroke-linejoin="round" d="M16 24H24H32V44H16V24Z"></path><path stroke="#fff" stroke-linecap="round" d="M24 34V44"></path><path stroke="#000" stroke-linecap="round" d="M24 4V7"></path><path stroke="#000" stroke-linecap="round" d="M10 24V28"></path><path stroke="#000" stroke-linecap="round" d="M38 24V28"></path><path stroke="#000" stroke-linecap="round" d="M20 44L28 44"></path></g></svg>