<svg xmlns="http://www.w3.org/2000/svg" xmlns:xlink="http://www.w3.org/1999/xlink" aria-hidden="true" role="img" class="iconify iconify--icon-park" width="1em" height="1em" preserveAspectRatio="xMidYMid meet" viewBox="0 0 48 48"><g fill="none" stroke-linecap="round" stroke-width="4"><path stroke="#000" stroke-linejoin="round" d="M40 16.3977V6C40 4.89543 39.1046 4 38 4H10C8.89543 4 8 4.89543 8 6V42C8 43.1046 8.89543 44 10 44H20"></path><path stroke="#000" d="M16 14H29"></path><path stroke="#000" d="M16 21H21"></path><path fill="#2F88FF" stroke="#000" stroke-linejoin="round" d="M34 44C28.4772 44 24 39.5228 24 34C24 28.4772 28.4772 24 34 24C39.5228 24 44 28.4772 44 34C44 39.5228 39.5228 44 34 44Z"></path><path stroke="#fff" d="M27 27L41 41"></path><path stroke="#000" stroke-linejoin="round" d="M24 34C24 28.4772 28.4772 24 34 24"></path><path stroke="#000" stroke-linejoin="round" d="M34 44C39.5228 44 44 39.5228 44 34"></path></g></svg>