<svg xmlns="http://www.w3.org/2000/svg" xmlns:xlink="http://www.w3.org/1999/xlink" aria-hidden="true" role="img" class="iconify iconify--icon-park" width="1em" height="1em" preserveAspectRatio="xMidYMid meet" viewBox="0 0 48 48"><g fill="none"><path fill="#2F88FF" d="M17.0001 7L24.0001 19.1244L29.9905 29.5H4.00977L17.0001 7Z"></path><path fill="#2F88FF" d="M31.0001 7L43.9905 29.5H18.0098L24.0001 19.1244L31.0001 7Z"></path><path fill="#2F88FF" d="M11.0098 41.5H36.9905L29.9905 29.5H18.0098L11.0098 41.5Z"></path><path stroke="#000" stroke-linecap="round" stroke-linejoin="round" stroke-width="4" d="M18.0098 29.5L11.0098 41.5H36.9905L29.9905 29.5M18.0098 29.5H43.9905L31.0001 7L24.0001 19.1244M18.0098 29.5L24.0001 19.1244M18.0098 29.5H29.9905M29.9905 29.5H4.00977L17.0001 7L24.0001 19.1244M29.9905 29.5L24.0001 19.1244"></path></g></svg>