<svg xmlns="http://www.w3.org/2000/svg" xmlns:xlink="http://www.w3.org/1999/xlink" aria-hidden="true" role="img" class="iconify iconify--icon-park" width="1em" height="1em" preserveAspectRatio="xMidYMid meet" viewBox="0 0 48 48"><g fill="none" stroke="#000" stroke-linejoin="round" stroke-width="4"><path fill="#2F88FF" d="M42 8H20C18.8954 8 18 8.89543 18 10L18 32C18 33.1046 18.8954 34 20 34H42C43.1046 34 44 33.1046 44 32V10C44 8.89543 43.1046 8 42 8Z"></path><path fill="#2F88FF" d="M4.00001 34H18V20H11L4.00001 26.4615L4.00001 34Z"></path><path stroke-linecap="square" d="M18 36C18 38.2091 16.2091 40 14 40C11.7909 40 10 38.2091 10 36"></path><path stroke-linecap="square" d="M40 36C40 38.2091 38.2091 40 36 40C33.7909 40 32 38.2091 32 36"></path></g></svg>