<svg xmlns="http://www.w3.org/2000/svg" xmlns:xlink="http://www.w3.org/1999/xlink" aria-hidden="true" role="img" class="iconify iconify--icon-park" width="1em" height="1em" preserveAspectRatio="xMidYMid meet" viewBox="0 0 48 48"><g fill="none" stroke="#000" stroke-linecap="round" stroke-linejoin="round" stroke-width="4"><path d="M32 16H41C42.1046 16 43 16.8954 43 18V41C43 42.1046 42.1046 43 41 43H18C16.8954 43 16 42.1046 16 41V32"></path><path d="M32 16V7C32 5.89543 31.1046 5 30 5H7C5.89543 5 5 5.89543 5 7V30C5 31.1046 5.89543 32 7 32H16"></path><path d="M41 16L17 40"></path><path d="M32 7L7 32"></path><path d="M32 16L16 32"></path><path d="M43 24L24 43"></path><path d="M24 5L5 24"></path><path d="M43 34L34 43"></path><path d="M14 5L5 14"></path></g></svg>