<svg xmlns="http://www.w3.org/2000/svg" xmlns:xlink="http://www.w3.org/1999/xlink" aria-hidden="true" role="img" class="iconify iconify--icon-park" width="1em" height="1em" preserveAspectRatio="xMidYMid meet" viewBox="0 0 48 48"><g fill="none" fill-rule="evenodd" stroke="#000" stroke-linejoin="round" stroke-width="4"><path fill="#2F88FF" fill-rule="nonzero" d="M12,22 C14.209139,22 16,20.209139 16,18 C16,15.790861 14.209139,14 12,14 C9.790861,14 8,15.790861 8,18 C8,20.209139 9.790861,22 12,22 Z"></path><path fill="#2F88FF" fill-rule="nonzero" d="M36,28 C38.209139,28 40,26.209139 40,24 C40,21.790861 38.209139,20 36,20 C33.790861,20 32,21.790861 32,24 C32,26.209139 33.790861,28 36,28 Z"></path><polyline stroke-linecap="round" points="19 9 24 4 29 9"></polyline><polyline stroke-linecap="round" points="25 39 12 28.263 12 22"></polyline><polyline stroke-linecap="round" points="36 28 36 32.789 24 41"></polyline><path stroke-linecap="round" d="M24,4 L24,43"></path><path stroke-linecap="round" d="M21,44 L27,44"></path></g></svg>