<svg xmlns="http://www.w3.org/2000/svg" xmlns:xlink="http://www.w3.org/1999/xlink" aria-hidden="true" role="img" class="iconify iconify--icon-park" width="1em" height="1em" preserveAspectRatio="xMidYMid meet" viewBox="0 0 48 48"><g fill="none" stroke="#000" stroke-linejoin="round" stroke-miterlimit="2" stroke-width="4"><path d="M31.81 42.4054C41.9782 38.0865 46.7173 26.3494 42.4081 16.192C38.0989 6.0345 26.351 1.27569 16.1928 5.59461C6.03464 9.91353 1.2755 21.6506 5.59472 31.808C9.91394 41.9655 21.6518 46.7243 31.81 42.4054Z"></path><path stroke-linecap="round" d="M16 6C14.5062 13.0103 17.9371 20.1966 24 24"></path><path stroke-linecap="round" d="M12 40C18.97 37.74 23.74 31.32 24 24"></path><path stroke-linecap="round" d="M44 25C38.55 20.3275 29.5 20.4033 24 24"></path><path d="M17 16C17 16 28.56 7.51 41 14"></path><path d="M20 33C20 33 7.59 28.02 7 14"></path><path d="M34 22C34 22 35.56 36.5 23.72 44.03"></path></g></svg>