<svg xmlns="http://www.w3.org/2000/svg" xmlns:xlink="http://www.w3.org/1999/xlink" aria-hidden="true" role="img" class="iconify iconify--ooui" width="1em" height="1em" preserveAspectRatio="xMidYMid meet" viewBox="0 0 20 20" data-icon="ooui:bold-arab-dad"><path fill="currentColor" d="M5.3 16a7.04 7.04 0 0 1-1.65-.19a4.27 4.27 0 0 1-1.38-.58a2.79 2.79 0 0 1-.93-1.03A3.07 3.07 0 0 1 1 12.72a5.4 5.4 0 0 1 .05-.73a6.97 6.97 0 0 1 .19-.89c.1-.33.25-.74.45-1.22l1.95.67l-.28.79c-.06.2-.1.37-.12.52a4.3 4.3 0 0 0-.03.48a1.48 1.48 0 0 0 .91 1.37c.31.14.7.2 1.15.2c.4 0 .75-.03 1.05-.1c.3-.08.57-.19.78-.34c.2-.15.36-.33.47-.56a1.8 1.8 0 0 0 .16-.79c0-.4-.07-.88-.22-1.43a43.94 43.94 0 0 0-.49-1.72l2.22-.56l.2.85a32.58 32.58 0 0 1 .28.96c.06.17.13.31.22.44c.1.12.26.22.48.3c.22.08.55.14.97.18a22.63 22.63 0 0 0 3.28 0a8.45 8.45 0 0 0 1.06-.14c.28-.06.5-.14.66-.23a.8.8 0 0 0 .32-.3a.73.73 0 0 0 0-.74a.68.68 0 0 0-.28-.29a1 1 0 0 0-.52-.1a2.05 2.05 0 0 0-.82.18a4.18 4.18 0 0 0-.84.48a7.54 7.54 0 0 0-.8.68c-.27.25-.51.5-.75.76l-2.22-.32a14.33 14.33 0 0 1 2.01-2.27a8.7 8.7 0 0 1 1.16-.87a5.45 5.45 0 0 1 1.23-.57c.42-.14.85-.21 1.27-.21c.6 0 1.1.12 1.53.37c.42.24.75.57.97.98c.23.41.35.88.35 1.4a2.72 2.72 0 0 1-1.29 2.43c-.43.29-1 .51-1.7.67a13.88 13.88 0 0 1-3.77.17a10 10 0 0 1-1.32-.18a5.19 5.19 0 0 1-1.15-.4a1.57 1.57 0 0 1-.69-.64l.92.5a3.23 3.23 0 0 1-1.54 2.63a4.9 4.9 0 0 1-1.49.65A6.29 6.29 0 0 1 5.3 16Zm10.39-9.93a1 1 0 0 1-.72-.3a.98.98 0 0 1-.3-.72c0-.29.1-.53.3-.74c.2-.2.44-.31.72-.31s.52.1.71.31c.2.2.3.45.3.74c0 .28-.1.52-.3.72a.95.95 0 0 1-.71.3Z"></path></svg>