<svg xmlns="http://www.w3.org/2000/svg" xmlns:xlink="http://www.w3.org/1999/xlink" aria-hidden="true" role="img" class="iconify iconify--ooui" width="1em" height="1em" preserveAspectRatio="xMidYMid meet" viewBox="0 0 20 20" data-icon="ooui:die"><path fill="currentColor" d="M3 1a2 2 0 0 0-2 2v14a2 2 0 0 0 2 2h14a2 2 0 0 0 2-2V3a2 2 0 0 0-2-2zm2 16a2 2 0 1 1 2-2a2 2 0 0 1-2 2zM5 7a2 2 0 1 1 2-2a2 2 0 0 1-2 2zm5 5a2 2 0 1 1 2-2a2 2 0 0 1-2 2zm5 5a2 2 0 1 1 2-2a2 2 0 0 1-2 2zm0-10a2 2 0 1 1 2-2a2 2 0 0 1-2 2z"></path></svg>