<svg xmlns="http://www.w3.org/2000/svg" xmlns:xlink="http://www.w3.org/1999/xlink" aria-hidden="true" role="img" class="iconify iconify--ooui" width="1em" height="1em" preserveAspectRatio="xMidYMid meet" viewBox="0 0 20 20" data-icon="ooui:italic-arab-keheh-jeem"><path fill="currentColor" d="M6.54 14.24a1.13 1.13 0 0 1-.83-.35a1.12 1.12 0 0 1-.33-.82a1.17 1.17 0 0 1 1.16-1.19c.32 0 .59.12.8.35c.23.23.34.51.34.84c0 .33-.11.6-.33.82a1.06 1.06 0 0 1-.8.35Zm5.37-2.12c-.6 0-1.16-.04-1.67-.12a3.6 3.6 0 0 1-1.31-.5A2.81 2.81 0 0 1 8 10.44a5.64 5.64 0 0 1-.47-1.8l1.62-.83c.08.45.2.8.34 1.08c.15.26.34.46.57.6c.24.13.52.22.85.26c.33.04.71.06 1.15.06c.41 0 .71.11.9.33c.18.21.27.48.27.8c0 .35-.11.63-.34.85c-.22.22-.54.33-.98.33ZM6.44 18a7.4 7.4 0 0 1-2.16-.3a5.05 5.05 0 0 1-1.73-.9a4.14 4.14 0 0 1-1.15-1.46a5.47 5.47 0 0 1-.06-3.96a5.6 5.6 0 0 1 .94-1.6A6.87 6.87 0 0 1 3.7 8.51a8.49 8.49 0 0 1 1.77-.92A11.26 11.26 0 0 1 7.48 7l.1.3a23.61 23.61 0 0 0-.8-.23a10.23 10.23 0 0 0-.97-.25a11.74 11.74 0 0 0-1.1-.2a7.54 7.54 0 0 0-1.2-.08a8.35 8.35 0 0 0-1.97.23l-.32-2.33l.94-.22a7.7 7.7 0 0 1 2.64.06a18.94 18.94 0 0 1 2.52.8c.38.15.74.27 1.09.37c.34.1.7.15 1.04.15h.67l.25 2.55c-.35 0-.76.05-1.23.15a9.78 9.78 0 0 0-1.5.43a9.63 9.63 0 0 0-1.56.7a7.58 7.58 0 0 0-1.38.94a4.68 4.68 0 0 0-.99 1.21A2.9 2.9 0 0 0 3.35 13c0 .49.09.89.26 1.21c.17.34.4.6.7.8a2.89 2.89 0 0 0 1.04.46c.4.1.83.15 1.3.15a8.2 8.2 0 0 0 1.7-.18a10.61 10.61 0 0 0 1.75-.53l.67 2.08c-.76.36-1.52.6-2.28.76a9.78 9.78 0 0 1-2.05.24Z"></path><path fill="currentColor" d="m11.9 12.12l.16-2.31h2.2c.18 0 .33-.01.46-.03a.7.7 0 0 0 .33-.12a.55.55 0 0 0 .2-.21c.03-.1.05-.2.05-.3c0-.2-.09-.43-.26-.71a5 5 0 0 0-.82-.94a44.61 44.61 0 0 0-.66-.6a28.22 28.22 0 0 0-.66-.58a7.85 7.85 0 0 1-.49-.48c-.12-.16-.17-.27-.17-.35a5.01 5.01 0 0 1 .11-1.07a.74.74 0 0 1 .2-.38c.17-.17.43-.38.8-.62c.38-.24.82-.5 1.33-.77a31.05 31.05 0 0 1 1.64-.85a39.86 39.86 0 0 1 1.77-.8L19 3.02l-1.61.73a26.18 26.18 0 0 0-1.39.67c-.41.2-.79.41-1.13.62a7.63 7.63 0 0 0-.86.58l.03-1.24a14.9 14.9 0 0 1 1.82 1.56c.48.5.87.96 1.16 1.4a4.2 4.2 0 0 1 .79 2.17a2.25 2.25 0 0 1-.87 1.75c-.3.25-.72.46-1.23.62a6.7 6.7 0 0 1-1.94.24H11.9Z"></path></svg>