<svg xmlns="http://www.w3.org/2000/svg" xmlns:xlink="http://www.w3.org/1999/xlink" aria-hidden="true" role="img" class="iconify iconify--ooui" width="1em" height="1em" preserveAspectRatio="xMidYMid meet" viewBox="0 0 20 20" data-icon="ooui:key"><path fill="currentColor" d="M15 6a1.54 1.54 0 0 1-1.5-1.5a1.5 1.5 0 0 1 3 0A1.54 1.54 0 0 1 15 6zm-1.5-5A5.55 5.55 0 0 0 8 6.5a6.81 6.81 0 0 0 .7 2.8L1 17v2h4v-2h2v-2h2l3.2-3.2a5.85 5.85 0 0 0 1.3.2A5.55 5.55 0 0 0 19 6.5A5.55 5.55 0 0 0 13.5 1z"></path></svg>