<svg xmlns="http://www.w3.org/2000/svg" xmlns:xlink="http://www.w3.org/1999/xlink" aria-hidden="true" role="img" class="iconify iconify--ooui" width="1em" height="1em" preserveAspectRatio="xMidYMid meet" viewBox="0 0 20 20" data-icon="ooui:link"><path fill="currentColor" d="M4.83 15h2.91a4.88 4.88 0 0 1-1.55-2H5a3 3 0 1 1 0-6h3a3 3 0 0 1 2.82 4h2.1a4.82 4.82 0 0 0 .08-.83v-.34A4.83 4.83 0 0 0 8.17 5H4.83A4.83 4.83 0 0 0 0 9.83v.34A4.83 4.83 0 0 0 4.83 15z"></path><path fill="currentColor" d="M15.17 5h-2.91a4.88 4.88 0 0 1 1.55 2H15a3 3 0 1 1 0 6h-3a3 3 0 0 1-2.82-4h-2.1a4.82 4.82 0 0 0-.08.83v.34A4.83 4.83 0 0 0 11.83 15h3.34A4.83 4.83 0 0 0 20 10.17v-.34A4.83 4.83 0 0 0 15.17 5z"></path></svg>