<svg xmlns="http://www.w3.org/2000/svg" xmlns:xlink="http://www.w3.org/1999/xlink" aria-hidden="true" role="img" class="iconify iconify--simple-line-icons" width="1em" height="1em" preserveAspectRatio="xMidYMid meet" viewBox="0 0 1024 1024" data-icon="simple-line-icons:control-pause"><path fill="currentColor" d="M416.272 0H192.064c-17.664 0-32 14.32-32 32v960c0 17.664 14.336 32 32 32h224.208c17.68 0 32-14.336 32-32V32c0-17.68-14.32-32-32-32zm-32 960H224.064V64h160.208v896zM831.937 0H608.881c-17.68 0-32 14.32-32 32v960c0 17.664 14.32 32 32 32h223.056c17.68 0 32-14.336 32-32V32c0-17.68-14.304-32-32-32zm-32 960H640.881V64h159.056v896z"></path></svg>