<svg xmlns="http://www.w3.org/2000/svg" xmlns:xlink="http://www.w3.org/1999/xlink" aria-hidden="true" role="img" class="iconify iconify--simple-line-icons" width="1em" height="1em" preserveAspectRatio="xMidYMid meet" viewBox="0 0 1024 1024" data-icon="simple-line-icons:list"><path fill="currentColor" d="M96 448H32c-17.664 0-32 14.336-32 32v64c0 17.664 14.336 32 32 32h64c17.664 0 32-14.336 32-32v-64c0-17.664-14.336-32-32-32zm896 32H320c-17.664 0-32 14.336-32 32s14.336 32 32 32h672c17.664 0 32-14.336 32-32s-14.336-32-32-32zM96 704H32c-17.664 0-32 14.336-32 32v64c0 17.664 14.336 32 32 32h64c17.664 0 32-14.336 32-32v-64c0-17.664-14.336-32-32-32zm896 32H320c-17.664 0-32 14.336-32 32s14.336 32 32 32h672c17.664 0 32-14.336 32-32s-14.336-32-32-32zM96 192H32c-17.664 0-32 14.336-32 32v64c0 17.664 14.336 32 32 32h64c17.664 0 32-14.336 32-32v-64c0-17.664-14.336-32-32-32zm224 96h672c17.664 0 32-14.336 32-32s-14.336-32-32-32H320c-17.664 0-32 14.336-32 32s14.336 32 32 32z"></path></svg>