<svg xmlns="http://www.w3.org/2000/svg" xmlns:xlink="http://www.w3.org/1999/xlink" aria-hidden="true" role="img" class="iconify iconify--nimbus" width="1em" height="1em" preserveAspectRatio="xMidYMid meet" viewBox="0 0 16 16" data-icon="nimbus:check-circle"><path fill="currentColor" d="M6.53 9.02L4.58 7.07l-.88.89l2.83 2.83l.88-.89l4.78-4.77l-.89-.88l-4.77 4.77z"></path><path fill="currentColor" d="M8 .5A7.77 7.77 0 0 0 0 8a7.77 7.77 0 0 0 8 7.5A7.77 7.77 0 0 0 16 8A7.77 7.77 0 0 0 8 .5zm0 13.75A6.52 6.52 0 0 1 1.25 8A6.52 6.52 0 0 1 8 1.75A6.52 6.52 0 0 1 14.75 8A6.52 6.52 0 0 1 8 14.25z"></path></svg>