<svg xmlns="http://www.w3.org/2000/svg" xmlns:xlink="http://www.w3.org/1999/xlink" aria-hidden="true" role="img" class="iconify iconify--nimbus" width="1em" height="1em" preserveAspectRatio="xMidYMid meet" viewBox="0 0 16 16" data-icon="nimbus:clock"><path fill="currentColor" d="M8 .5A7.77 7.77 0 0 0 0 8a7.77 7.77 0 0 0 8 7.5A7.77 7.77 0 0 0 16 8A7.77 7.77 0 0 0 8 .5zm0 13.75A6.52 6.52 0 0 1 1.25 8A6.52 6.52 0 0 1 8 1.75A6.52 6.52 0 0 1 14.75 8A6.52 6.52 0 0 1 8 14.25z"></path><path fill="currentColor" d="M8.63 4.25H7.38v4.38H11V7.38H8.63V4.25z"></path></svg>