<svg xmlns="http://www.w3.org/2000/svg" xmlns:xlink="http://www.w3.org/1999/xlink" aria-hidden="true" role="img" class="iconify iconify--nimbus" width="1em" height="1em" preserveAspectRatio="xMidYMid meet" viewBox="0 0 16 16" data-icon="nimbus:ellipsis"><path fill="currentColor" d="M8 2.5a1.22 1.22 0 0 1 1.25 1.17A1.21 1.21 0 0 1 8 4.84a1.21 1.21 0 0 1-1.25-1.17A1.22 1.22 0 0 1 8 2.5zm0 8.66a1.17 1.17 0 1 1-1.25 1.17A1.21 1.21 0 0 1 8 11.16zm0-4.33a1.17 1.17 0 1 1 0 2.34a1.17 1.17 0 1 1 0-2.34z"></path></svg>