<svg xmlns="http://www.w3.org/2000/svg" xmlns:xlink="http://www.w3.org/1999/xlink" aria-hidden="true" role="img" class="iconify iconify--nimbus" width="1em" height="1em" preserveAspectRatio="xMidYMid meet" viewBox="0 0 16 16" data-icon="nimbus:picture"><path fill="currentColor" d="M13.5 6.73L11 5L7.68 7.53L6 6L2.5 8.49V11h11zm-1.25 3h-8.5v-.59L5.9 7.6l.94.86l.77.7l.83-.63l2.59-2l1.22.84z"></path><ellipse cx="3.3" cy="5.75" fill="currentColor" rx=".8" ry=".75"></ellipse><path fill="currentColor" d="M14.75 2.5H1.25A1.25 1.25 0 0 0 0 3.75v8.5a1.25 1.25 0 0 0 1.25 1.25h13.5A1.25 1.25 0 0 0 16 12.25v-8.5a1.25 1.25 0 0 0-1.25-1.25zm0 9.75H1.25v-8.5h13.5z"></path></svg>