<svg xmlns="http://www.w3.org/2000/svg" xmlns:xlink="http://www.w3.org/1999/xlink" aria-hidden="true" role="img" class="iconify iconify--nimbus" width="1em" height="1em" preserveAspectRatio="xMidYMid meet" viewBox="0 0 16 16" data-icon="nimbus:stop"><path fill="currentColor" d="M3 7.38h10v1.25H3z"></path><path fill="currentColor" d="M8 .5A7.76 7.76 0 0 0 0 8a7.76 7.76 0 0 0 8 7.5A7.76 7.76 0 0 0 16 8A7.76 7.76 0 0 0 8 .5zm0 13.75A6.52 6.52 0 0 1 1.25 8A6.52 6.52 0 0 1 8 1.75A6.52 6.52 0 0 1 14.75 8A6.52 6.52 0 0 1 8 14.25z"></path></svg>