<svg xmlns="http://www.w3.org/2000/svg" xmlns:xlink="http://www.w3.org/1999/xlink" aria-hidden="true" role="img" class="iconify iconify--emojione" width="1em" height="1em" preserveAspectRatio="xMidYMid meet" viewBox="0 0 64 64"><path fill="#212528" d="M62 6c0-2-2-4-4-4H6C4 2 2 4 2 6v38h60V6z"></path><path fill="#ddd" d="M2 44v4c0 2 2 4 4 4h52c2 0 4-2 4-4v-4H2z"></path><path fill="#bfbebe" d="M24 54c0 4-4 4-8 4h32c-4 0-8 0-8-4v-2H24v2"></path><path fill="#3e4347" d="M6 6h52v34H6z"></path><g fill="#94989b"><circle cx="32" cy="47.9" r="1"></circle><path d="M16 58h32v4H16z"></path></g></svg>