<svg xmlns="http://www.w3.org/2000/svg" xmlns:xlink="http://www.w3.org/1999/xlink" aria-hidden="true" role="img" class="iconify iconify--fluent" width="1em" height="1em" preserveAspectRatio="xMidYMid meet" viewBox="0 0 16 16" data-icon="fluent:add-square-multiple-16-filled"><path fill="currentColor" d="M2 4a2 2 0 0 1 2-2h6a2 2 0 0 1 2 2v6a2 2 0 0 1-2 2H4a2 2 0 0 1-2-2V4Zm4.5 2.5h-2a.5.5 0 0 0 0 1h2v2a.5.5 0 0 0 1 0v-2h2a.5.5 0 1 0 0-1h-2v-2a.5.5 0 0 0-1 0v2Zm4 6.5a2.5 2.5 0 0 0 2.5-2.5V3.268A2 2 0 0 1 14 5v5.5a3.5 3.5 0 0 1-3.5 3.5H5a2 2 0 0 1-1.732-1H10.5Z"></path></svg>