<svg xmlns="http://www.w3.org/2000/svg" xmlns:xlink="http://www.w3.org/1999/xlink" aria-hidden="true" role="img" class="iconify iconify--fluent" width="1em" height="1em" preserveAspectRatio="xMidYMid meet" viewBox="0 0 16 16" data-icon="fluent:add-subtract-circle-16-filled"><path fill="currentColor" d="M9.5 10a.5.5 0 0 0 0 1H12a.5.5 0 0 0 0-1H9.5ZM8 15A7 7 0 1 0 8 1a7 7 0 0 0 0 14Zm0-1a5.976 5.976 0 0 1-3.874-1.418l8.455-8.456A6 6 0 0 1 8 14ZM3.5 6a.5.5 0 0 1 .5-.5h1v-1a.5.5 0 0 1 1 0v1h1a.5.5 0 1 1 0 1H6v.8a.5.5 0 0 1-1 0v-.8H4a.5.5 0 0 1-.5-.5Z"></path></svg>