<svg xmlns="http://www.w3.org/2000/svg" xmlns:xlink="http://www.w3.org/1999/xlink" aria-hidden="true" role="img" class="iconify iconify--fluent" width="1em" height="1em" preserveAspectRatio="xMidYMid meet" viewBox="0 0 24 24" data-icon="fluent:add-24-filled"><path fill="currentColor" d="M11.883 3.007L12 3a1 1 0 0 1 .993.883L13 4v7h7a1 1 0 0 1 .993.883L21 12a1 1 0 0 1-.883.993L20 13h-7v7a1 1 0 0 1-.883.993L12 21a1 1 0 0 1-.993-.883L11 20v-7H4a1 1 0 0 1-.993-.883L3 12a1 1 0 0 1 .883-.993L4 11h7V4a1 1 0 0 1 .883-.993L12 3l-.117.007Z"></path></svg>