<svg xmlns="http://www.w3.org/2000/svg" xmlns:xlink="http://www.w3.org/1999/xlink" aria-hidden="true" role="img" class="iconify iconify--fluent" width="1em" height="1em" preserveAspectRatio="xMidYMid meet" viewBox="0 0 16 16" data-icon="fluent:alert-off-16-filled"><path fill="currentColor" d="m10.793 11.5l3.353 3.354a.5.5 0 0 0 .708-.708l-13-13a.5.5 0 1 0-.708.708l2.765 2.764A4.483 4.483 0 0 0 3.5 6.5v1.904l-.964 2.41A.5.5 0 0 0 3 11.5h7.793Zm2.616-.212l.005-.008a.5.5 0 0 0 .05-.466l-.964-2.41V6.5a4.5 4.5 0 0 0-7.356-3.477l8.265 8.265ZM6.062 12.5A1.995 1.995 0 0 0 8 14c.936 0 1.717-.635 1.938-1.5H6.062Z"></path></svg>