<svg xmlns="http://www.w3.org/2000/svg" xmlns:xlink="http://www.w3.org/1999/xlink" aria-hidden="true" role="img" class="iconify iconify--fluent" width="1em" height="1em" preserveAspectRatio="xMidYMid meet" viewBox="0 0 20 20" data-icon="fluent:align-space-evenly-horizontal-20-filled"><path fill="currentColor" d="M4 16a2 2 0 0 0 2-2V6a2 2 0 0 0-2-2H3a2 2 0 0 0-2 2v8a2 2 0 0 0 2 2h1Zm6 0a2 2 0 0 0 2-2V6a2 2 0 0 0-2-2H9a2 2 0 0 0-2 2v8a2 2 0 0 0 2 2h1Zm6 0a2 2 0 0 0 2-2V6a2 2 0 0 0-2-2h-1a2 2 0 0 0-2 2v8a2 2 0 0 0 2 2h1Z"></path></svg>