<svg xmlns="http://www.w3.org/2000/svg" xmlns:xlink="http://www.w3.org/1999/xlink" aria-hidden="true" role="img" class="iconify iconify--fluent" width="1em" height="1em" preserveAspectRatio="xMidYMid meet" viewBox="0 0 20 20" data-icon="fluent:align-space-evenly-vertical-20-filled"><path fill="currentColor" d="M6 1a2 2 0 0 0-2 2v1a2 2 0 0 0 2 2h8a2 2 0 0 0 2-2V3a2 2 0 0 0-2-2H6Zm0 12a2 2 0 0 0-2 2v1a2 2 0 0 0 2 2h8a2 2 0 0 0 2-2v-1a2 2 0 0 0-2-2H6Zm0-6a2 2 0 0 0-2 2v1a2 2 0 0 0 2 2h8a2 2 0 0 0 2-2V9a2 2 0 0 0-2-2H6Z"></path></svg>