<svg xmlns="http://www.w3.org/2000/svg" xmlns:xlink="http://www.w3.org/1999/xlink" aria-hidden="true" role="img" class="iconify iconify--fluent" width="1em" height="1em" preserveAspectRatio="xMidYMid meet" viewBox="0 0 20 20" data-icon="fluent:align-center-horizontal-20-filled"><path fill="currentColor" d="M18 9.5a.5.5 0 0 1-.5.5H16v2a2 2 0 0 1-2 2h-1a2 2 0 0 1-2-2v-2H9v4a2 2 0 0 1-2 2H6a2 2 0 0 1-2-2v-4H2.5a.5.5 0 0 1 0-1H4V5a2 2 0 0 1 2-2h1a2 2 0 0 1 2 2v4h2V7a2 2 0 0 1 2-2h1a2 2 0 0 1 2 2v2h1.5a.5.5 0 0 1 .5.5Z"></path></svg>