<svg xmlns="http://www.w3.org/2000/svg" xmlns:xlink="http://www.w3.org/1999/xlink" aria-hidden="true" role="img" class="iconify iconify--fluent" width="1em" height="1em" preserveAspectRatio="xMidYMid meet" viewBox="0 0 20 20" data-icon="fluent:align-space-evenly-horizontal-20-regular"><path fill="currentColor" d="M3 16a2 2 0 0 1-2-2V6a2 2 0 0 1 2-2h1a2 2 0 0 1 2 2v8a2 2 0 0 1-2 2H3Zm-1-2a1 1 0 0 0 1 1h1a1 1 0 0 0 1-1V6a1 1 0 0 0-1-1H3a1 1 0 0 0-1 1v8Zm7 2a2 2 0 0 1-2-2V6a2 2 0 0 1 2-2h1a2 2 0 0 1 2 2v8a2 2 0 0 1-2 2H9Zm-1-2a1 1 0 0 0 1 1h1a1 1 0 0 0 1-1V6a1 1 0 0 0-1-1H9a1 1 0 0 0-1 1v8Zm7 2a2 2 0 0 1-2-2V6a2 2 0 0 1 2-2h1a2 2 0 0 1 2 2v8a2 2 0 0 1-2 2h-1Zm-1-2a1 1 0 0 0 1 1h1a1 1 0 0 0 1-1V6a1 1 0 0 0-1-1h-1a1 1 0 0 0-1 1v8Z"></path></svg>