<svg xmlns="http://www.w3.org/2000/svg" xmlns:xlink="http://www.w3.org/1999/xlink" aria-hidden="true" role="img" class="iconify iconify--fluent" width="1em" height="1em" preserveAspectRatio="xMidYMid meet" viewBox="0 0 16 16" data-icon="fluent:align-bottom-16-filled"><path fill="currentColor" d="M1.5 14a.5.5 0 0 1 0-1h13a.5.5 0 0 1 0 1h-13Zm.5-3.75c0 .966.784 1.75 1.75 1.75h1.5A1.75 1.75 0 0 0 7 10.25v-6.5A1.75 1.75 0 0 0 5.25 2h-1.5A1.75 1.75 0 0 0 2 3.75v6.5Zm7 0c0 .966.784 1.75 1.75 1.75h1.5A1.75 1.75 0 0 0 14 10.25v-4.5A1.75 1.75 0 0 0 12.25 4h-1.5A1.75 1.75 0 0 0 9 5.75v4.5Z"></path></svg>