<svg xmlns="http://www.w3.org/2000/svg" xmlns:xlink="http://www.w3.org/1999/xlink" aria-hidden="true" role="img" class="iconify iconify--fluent" width="1em" height="1em" preserveAspectRatio="xMidYMid meet" viewBox="0 0 16 16"><path fill="currentColor" d="M3 2a1 1 0 0 0-1 1v1a1 1 0 0 0 1 1h10a1 1 0 0 0 1-1V3a1 1 0 0 0-1-1H3Zm4.337 4A5.493 5.493 0 0 0 5 10.5c0 1.33.472 2.55 1.257 3.5H5a2 2 0 0 1-2-2V6h4.337Zm-.702 3.92a2 2 0 0 0 1.43-2.478l-.156-.557c.254-.195.53-.362.822-.497l.337.358a2 2 0 0 0 2.91.001l.325-.343c.297.14.577.314.834.518l-.126.422a2 2 0 0 0 1.456 2.519l.35.082a4.698 4.698 0 0 1 .01 1.017l-.461.118a2 2 0 0 0-1.43 2.478l.155.556c-.254.196-.53.363-.822.498l-.337-.358a2 2 0 0 0-2.91-.002l-.324.345a4.313 4.313 0 0 1-.835-.518l.126-.423a2 2 0 0 0-1.456-2.52l-.35-.082a4.7 4.7 0 0 1-.01-1.016l.462-.118Zm4.865.58a1 1 0 1 0-2 0a1 1 0 0 0 2 0Z"></path></svg>