<svg xmlns="http://www.w3.org/2000/svg" xmlns:xlink="http://www.w3.org/1999/xlink" aria-hidden="true" role="img" class="iconify iconify--fluent" width="1em" height="1em" preserveAspectRatio="xMidYMid meet" viewBox="0 0 20 20"><path fill="currentColor" d="M17 9.6V7H3v8a3 3 0 0 0 3 3h4.257A5.477 5.477 0 0 1 9 14.5c0-1.86.923-3.505 2.337-4.5H8.5a.5.5 0 0 1 0-1h3a.5.5 0 0 1 .489.605A5.476 5.476 0 0 1 14.5 9c.9 0 1.75.216 2.5.6ZM18 3a1 1 0 0 0-1-1H3a1 1 0 0 0-1 1v2a1 1 0 0 0 1 1h14a1 1 0 0 0 1-1V3Zm-7.365 10.92a2 2 0 0 0 1.43-2.478l-.155-.557c.254-.195.529-.362.821-.497l.338.358a2 2 0 0 0 2.91.001l.324-.343c.298.14.578.314.835.518l-.126.422a2 2 0 0 0 1.456 2.519l.349.082a4.697 4.697 0 0 1 .01 1.017l-.46.118a2 2 0 0 0-1.431 2.478l.156.556c-.254.196-.53.363-.822.498l-.338-.358a2 2 0 0 0-2.909-.002l-.325.345a4.32 4.32 0 0 1-.835-.518l.127-.423a2 2 0 0 0-1.456-2.519l-.35-.083a4.715 4.715 0 0 1-.01-1.016l.461-.118Zm4.865.58a1 1 0 1 0-2 0a1 1 0 0 0 2 0Z"></path></svg>