<svg xmlns="http://www.w3.org/2000/svg" xmlns:xlink="http://www.w3.org/1999/xlink" aria-hidden="true" role="img" class="iconify iconify--fluent" width="1em" height="1em" preserveAspectRatio="xMidYMid meet" viewBox="0 0 20 20"><path fill="currentColor" d="M16.5 2A1.5 1.5 0 0 1 18 3.5v2a1.5 1.5 0 0 1-1 1.414V14.5a3.5 3.5 0 0 1-3.5 3.5h-7A3.5 3.5 0 0 1 3 14.5V6.915A1.5 1.5 0 0 1 2 5.5v-2A1.5 1.5 0 0 1 3.5 2h13ZM16 7H4v7.5A2.5 2.5 0 0 0 6.5 17h7a2.5 2.5 0 0 0 2.5-2.5V7ZM8.5 9h3a.5.5 0 0 1 .09.992L11.5 10h-3a.5.5 0 0 1-.09-.992L8.5 9h3h-3Zm8-6h-13a.5.5 0 0 0-.5.5v2a.5.5 0 0 0 .5.5h13a.5.5 0 0 0 .5-.5v-2a.5.5 0 0 0-.5-.5Z"></path></svg>