<svg xmlns="http://www.w3.org/2000/svg" xmlns:xlink="http://www.w3.org/1999/xlink" aria-hidden="true" role="img" class="iconify iconify--fluent" width="1em" height="1em" preserveAspectRatio="xMidYMid meet" viewBox="0 0 20 20"><path fill="currentColor" d="M2.8 8a.8.8 0 0 0-.8.8V10c0 .339.021.672.062 1h15.876A8.05 8.05 0 0 0 18 10V8.8a.8.8 0 0 0-.8-.8H2.8Zm5.632-5.752L11.204 7h-1.158L7.568 2.752a.5.5 0 1 1 .864-.504ZM8.204 7H7.046L4.568 2.752a.5.5 0 1 1 .864-.504L8.204 7Zm-5.952 5a8.017 8.017 0 0 0 3.872 5H3.5a.5.5 0 1 0 0 1h13a.5.5 0 0 0 0-1h-2.624a8.017 8.017 0 0 0 3.872-5H2.252Z"></path></svg>