<svg xmlns="http://www.w3.org/2000/svg" xmlns:xlink="http://www.w3.org/1999/xlink" aria-hidden="true" role="img" class="iconify iconify--fluent" width="1em" height="1em" preserveAspectRatio="xMidYMid meet" viewBox="0 0 20 20"><path fill="currentColor" d="M10.63 8L7.568 2.752a.5.5 0 1 1 .864-.504L11.787 8H17.2a.8.8 0 0 1 .8.8V10a7.998 7.998 0 0 1-4.124 7H16.5a.5.5 0 1 1 0 1h-13a.5.5 0 0 1 0-1h2.624A7.998 7.998 0 0 1 2 10V8.8a.8.8 0 0 1 .8-.8h4.83L4.567 2.752a.5.5 0 1 1 .864-.504L8.787 8h1.843ZM3 9v1c0 .34.024.674.07 1h13.86c.046-.326.07-.66.07-1V9H3Zm.29 3a7.003 7.003 0 0 0 6.69 5h.04a7.003 7.003 0 0 0 6.69-5H3.29Z"></path></svg>