<svg xmlns="http://www.w3.org/2000/svg" xmlns:xlink="http://www.w3.org/1999/xlink" aria-hidden="true" role="img" class="iconify iconify--fluent" width="1em" height="1em" preserveAspectRatio="xMidYMid meet" viewBox="0 0 20 20"><path fill="currentColor" d="M6.5 3a1.5 1.5 0 1 1 0 3a1.5 1.5 0 0 1 0-3Zm.547 3.94A2.5 2.5 0 1 0 6 6.95v6.1a2.5 2.5 0 1 0 1 0V8.852A5.78 5.78 0 0 0 8.312 9.87c1.126.652 2.505 1.038 3.735 1.115a2.5 2.5 0 1 0 .006-1.001c-1.066-.077-2.27-.417-3.24-.98c-.95-.55-1.594-1.257-1.766-2.064ZM13 10.5a1.5 1.5 0 1 1 3 0a1.5 1.5 0 0 1-3 0ZM6.5 14a1.5 1.5 0 1 1 0 3a1.5 1.5 0 0 1 0-3Z"></path></svg>