<svg xmlns="http://www.w3.org/2000/svg" xmlns:xlink="http://www.w3.org/1999/xlink" aria-hidden="true" role="img" class="iconify iconify--fluent" width="1em" height="1em" preserveAspectRatio="xMidYMid meet" viewBox="0 0 20 20"><path fill="currentColor" d="M12.854 6.854a.5.5 0 0 0-.708-.708L7.5 10.793L5.854 9.146a.5.5 0 1 0-.708.708l2 2a.5.5 0 0 0 .708 0l5-5ZM4.682 2A2.682 2.682 0 0 0 2 4.682v8.636C2 14.8 3.2 16 4.682 16h4.525a5.48 5.48 0 0 1-.185-1h-4.34A1.682 1.682 0 0 1 3 13.318V4.682C3 3.753 3.753 3 4.682 3h8.636C14.247 3 15 3.753 15 4.682v4.34a5.5 5.5 0 0 1 1 .185V4.682C16 3.2 14.8 2 13.318 2H4.682ZM19 14.5a4.5 4.5 0 1 1-9 0a4.5 4.5 0 0 1 9 0Zm-2.147.354l.003-.003a.499.499 0 0 0 .144-.348v-.006a.5.5 0 0 0-.146-.35l-2-2a.5.5 0 0 0-.708.707L15.293 14H12.5a.5.5 0 0 0 0 1h2.793l-1.147 1.146a.5.5 0 0 0 .708.708l2-2Z"></path></svg>