<svg xmlns="http://www.w3.org/2000/svg" xmlns:xlink="http://www.w3.org/1999/xlink" aria-hidden="true" role="img" class="iconify iconify--fluent" width="1em" height="1em" preserveAspectRatio="xMidYMid meet" viewBox="0 0 20 20"><path fill="currentColor" d="M6.249 5.5a.75.75 0 0 0-.75.75v7.5c0 .414.336.75.75.75h7.5a.75.75 0 0 0 .75-.75v-7.5a.75.75 0 0 0-.75-.75h-7.5ZM5.25 3A2.25 2.25 0 0 0 3 5.25v9.5A2.25 2.25 0 0 0 5.25 17h9.499a2.25 2.25 0 0 0 2.25-2.25v-9.5A2.25 2.25 0 0 0 14.749 3H5.25ZM4.5 5.25a.75.75 0 0 1 .75-.75h9.499a.75.75 0 0 1 .75.75v9.5a.75.75 0 0 1-.75.75H5.25a.75.75 0 0 1-.75-.75v-9.5Z"></path></svg>