<svg xmlns="http://www.w3.org/2000/svg" xmlns:xlink="http://www.w3.org/1999/xlink" aria-hidden="true" role="img" class="iconify iconify--fluent" width="1em" height="1em" preserveAspectRatio="xMidYMid meet" viewBox="0 0 16 16"><path fill="currentColor" d="M1 2.5A1.5 1.5 0 0 1 2.5 1h7A1.5 1.5 0 0 1 11 2.5v2.541a3 3 0 0 0-1.727 4.97A2.493 2.493 0 0 0 7.5 11h-5A1.5 1.5 0 0 1 1 9.5v-7Zm7.854 2.354a.5.5 0 1 0-.708-.708L5 7.293L3.854 6.146a.5.5 0 1 0-.708.708l1.5 1.5a.5.5 0 0 0 .708 0l3.5-3.5ZM13.5 8a2 2 0 1 1-4 0a2 2 0 0 1 4 0Zm1.5 4.5c0 1.245-1 2.5-3.5 2.5S8 13.75 8 12.5A1.5 1.5 0 0 1 9.5 11h4a1.5 1.5 0 0 1 1.5 1.5Z"></path></svg>