<svg xmlns="http://www.w3.org/2000/svg" xmlns:xlink="http://www.w3.org/1999/xlink" aria-hidden="true" role="img" class="iconify iconify--fluent" width="1em" height="1em" preserveAspectRatio="xMidYMid meet" viewBox="0 0 24 24"><path fill="currentColor" d="M17 2a3 3 0 0 1 3 3v6.337A3.5 3.5 0 0 0 16.05 17h-.277A2.772 2.772 0 0 0 13 19.772v.103c0 .042 0 .083.002.125H5a3 3 0 0 1-3-3V5a3 3 0 0 1 3-3h12Zm-1.53 4.97L9 13.44l-2.47-2.47a.75.75 0 0 0-1.06 1.06l3 3a.75.75 0 0 0 1.06 0l7-7a.75.75 0 0 0-1.06-1.06ZM21 14.5a2.5 2.5 0 1 1-5 0a2.5 2.5 0 0 1 5 0Zm2 5.375C23 21.431 21.714 23 18.5 23S14 21.437 14 19.875v-.103c0-.98.794-1.772 1.773-1.772h5.454c.98 0 1.773.793 1.773 1.772v.103Z"></path></svg>