<svg xmlns="http://www.w3.org/2000/svg" xmlns:xlink="http://www.w3.org/1999/xlink" aria-hidden="true" role="img" class="iconify iconify--fluent" width="1em" height="1em" preserveAspectRatio="xMidYMid meet" viewBox="0 0 24 24"><path fill="currentColor" d="M10.25 2h3.5a2.25 2.25 0 0 1 2.236 2h1.764A2.25 2.25 0 0 1 20 6.25V18.5c-.19.142-.358.31-.5.5a2.496 2.496 0 0 0-2-1c-.818 0-1.544.393-2 1a2.5 2.5 0 0 0-4 3H6.25A2.25 2.25 0 0 1 4 19.75V6.25A2.25 2.25 0 0 1 6.25 4h1.764a2.25 2.25 0 0 1 2.236-2Zm3.5 1.5h-3.5a.75.75 0 0 0 0 1.5h3.5a.75.75 0 0 0 0-1.5ZM17.5 22a1.5 1.5 0 1 1 0-3a1.5 1.5 0 0 1 0 3Zm-4-3a1.5 1.5 0 1 1 0 3a1.5 1.5 0 0 1 0-3Zm8 3a1.5 1.5 0 1 0 0-3a1.5 1.5 0 0 0 0 3Z"></path></svg>