<svg xmlns="http://www.w3.org/2000/svg" xmlns:xlink="http://www.w3.org/1999/xlink" aria-hidden="true" role="img" class="iconify iconify--fluent" width="1em" height="1em" preserveAspectRatio="xMidYMid meet" viewBox="0 0 24 24"><path fill="currentColor" d="M6.238 3c.967 0 1.75.784 1.75 1.75v14.5A1.75 1.75 0 0 1 6.238 21h-2.5a1.75 1.75 0 0 1-1.75-1.75V4.75a1.75 1.75 0 0 1 1.607-1.743L3.738 3h2.5Zm14.026 0c.967 0 1.75.784 1.75 1.75v14.5a1.75 1.75 0 0 1-1.75 1.75h-2.5a1.75 1.75 0 0 1-1.75-1.75V4.75c0-.966.784-1.75 1.75-1.75h2.5Zm-7.026 0c.967 0 1.75.784 1.75 1.75v14.5a1.75 1.75 0 0 1-1.75 1.75h-2.5a1.75 1.75 0 0 1-1.75-1.75V4.75c0-.966.784-1.75 1.75-1.75h2.5Z"></path></svg>