<svg xmlns="http://www.w3.org/2000/svg" xmlns:xlink="http://www.w3.org/1999/xlink" aria-hidden="true" role="img" class="iconify iconify--fluent" width="1em" height="1em" preserveAspectRatio="xMidYMid meet" viewBox="0 0 20 20"><path fill="currentColor" d="M2 6.75A2.75 2.75 0 0 1 4.75 4h10.5A2.75 2.75 0 0 1 18 6.75V7H2v-.25ZM2 8h13.5a3 3 0 0 0-2.227 5.01A2.502 2.502 0 0 0 11.05 15h-6.3A2.75 2.75 0 0 1 2 12.25V8Zm15.5 3a2 2 0 1 1-4 0a2 2 0 0 1 4 0Zm1.5 4.5c0 1.245-1 2.5-3.5 2.5S12 16.75 12 15.5a1.5 1.5 0 0 1 1.5-1.5h4a1.5 1.5 0 0 1 1.5 1.5Z"></path></svg>