<svg xmlns="http://www.w3.org/2000/svg" xmlns:xlink="http://www.w3.org/1999/xlink" aria-hidden="true" role="img" class="iconify iconify--fluent" width="1em" height="1em" preserveAspectRatio="xMidYMid meet" viewBox="0 0 16 16"><path fill="currentColor" d="M10 4h3a.5.5 0 0 1 0 1h-.553l-.752 6.776A2.5 2.5 0 0 1 9.21 14H6.79a2.5 2.5 0 0 1-2.485-2.224L3.552 5H3a.5.5 0 0 1 0-1h3a2 2 0 1 1 4 0ZM8 3a1 1 0 0 0-1 1h2a1 1 0 0 0-1-1ZM6.5 7v4a.5.5 0 0 0 1 0V7a.5.5 0 0 0-1 0ZM9 6.5a.5.5 0 0 0-.5.5v4a.5.5 0 0 0 1 0V7a.5.5 0 0 0-.5-.5Z"></path></svg>