<svg xmlns="http://www.w3.org/2000/svg" xmlns:xlink="http://www.w3.org/1999/xlink" aria-hidden="true" role="img" class="iconify iconify--fluent" width="1em" height="1em" preserveAspectRatio="xMidYMid meet" viewBox="0 0 16 16"><path fill="currentColor" d="M12 3H9a2 2 0 1 0-4 0H2a.5.5 0 0 0 0 1h.552l.753 6.776a2.5 2.5 0 0 0 2.29 2.216a5.46 5.46 0 0 1-.424-1.125a1.5 1.5 0 0 1-.872-1.201L3.56 4h6.882l-.111 1.003a5.578 5.578 0 0 1 1 .06L11.447 4H12a.5.5 0 0 0 0-1ZM6 3a1 1 0 0 1 2 0H6Zm9 7.5a4.5 4.5 0 1 0-9 0a4.5 4.5 0 0 0 9 0ZM9.604 7.896a.5.5 0 0 1 0 .708l-.897.896h1.543A2.75 2.75 0 0 1 13 12.25v.25a.5.5 0 0 1-1 0v-.25a1.75 1.75 0 0 0-1.75-1.75H8.707l.897.896a.5.5 0 0 1-.708.708L7.144 10.35a.498.498 0 0 1 .002-.705l1.75-1.75a.5.5 0 0 1 .708 0Z"></path></svg>