<svg xmlns="http://www.w3.org/2000/svg" xmlns:xlink="http://www.w3.org/1999/xlink" aria-hidden="true" role="img" class="iconify iconify--fluent" width="1em" height="1em" preserveAspectRatio="xMidYMid meet" viewBox="0 0 20 20"><path fill="currentColor" d="M3 4h.293L2.146 2.854a.5.5 0 1 1 .708-.708L8.26 7.553l9.594 9.593a.5.5 0 0 1-.708.708l-1.958-1.958l-.038.333A2 2 0 0 1 13.163 18H6.837a2 2 0 0 1-1.987-1.77L3.553 5H3a.5.5 0 0 1-.492-.41L2.5 4.5A.5.5 0 0 1 3 4Zm11.286 10.993L12 12.707v1.355c0 .242-.224.438-.5.438c-.245 0-.45-.155-.492-.359L11 14.062v-2.355l-2-2v4.355c0 .242-.224.438-.5.438c-.245 0-.45-.155-.492-.359L8 14.062V8.707L4.596 5.303l1.247 10.812a1 1 0 0 0 .994.885h6.326a1 1 0 0 0 .993-.885l.13-1.122Zm1.195-1.633l-.903-.903l.86-7.457H7.121l-1-1H7.5a2.5 2.5 0 0 1 5 0H17a.5.5 0 0 1 0 1h-.554l-.965 8.36ZM11.5 4a1.5 1.5 0 0 0-3 0h3Zm.5 5.879l-1-1v-.941c0-.242.224-.438.5-.438c.245 0 .45.155.492.359l.008.079v1.94Z"></path></svg>