<svg xmlns="http://www.w3.org/2000/svg" xmlns:xlink="http://www.w3.org/1999/xlink" aria-hidden="true" role="img" class="iconify iconify--fluent" width="1em" height="1em" preserveAspectRatio="xMidYMid meet" viewBox="0 0 32 32"><path fill="currentColor" d="M11 5a2 2 0 1 1-4 0a2 2 0 0 1 4 0Zm0 7a2 2 0 1 1-4 0a2 2 0 0 1 4 0Zm0 7a2 2 0 1 1-4 0a2 2 0 0 1 4 0Zm7-14a2 2 0 1 1-4 0a2 2 0 0 1 4 0Zm0 7a2 2 0 1 1-4 0a2 2 0 0 1 4 0Zm0 7a2 2 0 1 1-4 0a2 2 0 0 1 4 0Zm0 7a2 2 0 1 1-4 0a2 2 0 0 1 4 0Zm7-21a2 2 0 1 1-4 0a2 2 0 0 1 4 0Zm0 7a2 2 0 1 1-4 0a2 2 0 0 1 4 0Zm0 7a2 2 0 1 1-4 0a2 2 0 0 1 4 0Z"></path></svg>