<svg xmlns="http://www.w3.org/2000/svg" xmlns:xlink="http://www.w3.org/1999/xlink" aria-hidden="true" role="img" class="iconify iconify--fluent" width="1em" height="1em" preserveAspectRatio="xMidYMid meet" viewBox="0 0 48 48"><path fill="currentColor" d="M16 8.5a2.5 2.5 0 1 1-5 0a2.5 2.5 0 0 1 5 0Zm0 10a2.5 2.5 0 1 1-5 0a2.5 2.5 0 0 1 5 0Zm0 10a2.5 2.5 0 1 1-5 0a2.5 2.5 0 0 1 5 0Zm10.5-20a2.5 2.5 0 1 1-5 0a2.5 2.5 0 0 1 5 0Zm0 10a2.5 2.5 0 1 1-5 0a2.5 2.5 0 0 1 5 0Zm0 10a2.5 2.5 0 1 1-5 0a2.5 2.5 0 0 1 5 0Zm0 10a2.5 2.5 0 1 1-5 0a2.5 2.5 0 0 1 5 0ZM37 8.5a2.5 2.5 0 1 1-5 0a2.5 2.5 0 0 1 5 0Zm0 10a2.5 2.5 0 1 1-5 0a2.5 2.5 0 0 1 5 0Zm0 10a2.5 2.5 0 1 1-5 0a2.5 2.5 0 0 1 5 0Z"></path></svg>