<svg xmlns="http://www.w3.org/2000/svg" xmlns:xlink="http://www.w3.org/1999/xlink" aria-hidden="true" role="img" class="iconify iconify--fluent" width="1em" height="1em" preserveAspectRatio="xMidYMid meet" viewBox="0 0 20 20"><path fill="currentColor" d="M6 5a1 1 0 1 0 0-2a1 1 0 0 0 0 2Zm0 4a1 1 0 1 0 0-2a1 1 0 0 0 0 2Zm1 3a1 1 0 1 1-2 0a1 1 0 0 1 2 0Zm3-7a1 1 0 1 0 0-2a1 1 0 0 0 0 2Zm1 3a1 1 0 1 1-2 0a1 1 0 0 1 2 0Zm-1 5a1 1 0 1 0 0-2a1 1 0 0 0 0 2Zm1 3a1 1 0 1 1-2 0a1 1 0 0 1 2 0Zm3-11a1 1 0 1 0 0-2a1 1 0 0 0 0 2Zm1 3a1 1 0 1 1-2 0a1 1 0 0 1 2 0Zm-1 5a1 1 0 1 0 0-2a1 1 0 0 0 0 2Z"></path></svg>