<svg xmlns="http://www.w3.org/2000/svg" xmlns:xlink="http://www.w3.org/1999/xlink" aria-hidden="true" role="img" class="iconify iconify--fluent" width="1em" height="1em" preserveAspectRatio="xMidYMid meet" viewBox="0 0 20 20"><path fill="currentColor" d="M13.245 2.817a2.783 2.783 0 0 1 4.066 3.797l-.13.14l-2.263 2.262a5.58 5.58 0 0 0-1.506.092l1.494-1.495l-2.521-2.52l-8.039 8.037a.999.999 0 0 0-.215.321l-.042.123l-.877 3.211l3.212-.876a1 1 0 0 0 .239-.1l.107-.071l.098-.086l2.24-2.24a5.525 5.525 0 0 0-.092 1.506l-1.44 1.44a2.001 2.001 0 0 1-.724.463l-.165.053l-4.055 1.106a.5.5 0 0 1-.629-.534l.015-.08l1.106-4.055a2 2 0 0 1 .398-.76l.117-.128l9.606-9.606Zm3.229.708a1.783 1.783 0 0 0-2.402-.11l-.12.11l-.86.86l2.521 2.521l.86-.86a1.783 1.783 0 0 0 .11-2.402l-.11-.12Zm-4.409 7.917a2 2 0 0 1-1.43 2.478l-.461.118a4.733 4.733 0 0 0 .01 1.016l.35.083a2 2 0 0 1 1.455 2.519l-.126.423c.257.203.537.377.835.518l.325-.345a2 2 0 0 1 2.909.002l.337.358c.293-.135.568-.302.822-.498l-.156-.556a2 2 0 0 1 1.43-2.478l.461-.118a4.735 4.735 0 0 0-.01-1.017l-.349-.082a2 2 0 0 1-1.456-2.52l.126-.421a4.317 4.317 0 0 0-.835-.518l-.324.343a2 2 0 0 1-2.91-.001l-.337-.358a4.316 4.316 0 0 0-.822.497l.156.557ZM14.5 15.5a1 1 0 1 1 0-2a1 1 0 0 1 0 2Z"></path></svg>