<svg xmlns="http://www.w3.org/2000/svg" xmlns:xlink="http://www.w3.org/1999/xlink" aria-hidden="true" role="img" class="iconify iconify--fluent" width="1em" height="1em" preserveAspectRatio="xMidYMid meet" viewBox="0 0 16 16"><path fill="currentColor" d="M12.657 4.172A2 2 0 1 0 9.83 1.344l-.708.706l2.829 2.828l.707-.706ZM5.13 11.689a5.5 5.5 0 0 1 5.53-6.687L8.414 2.757L2.442 8.73a2.5 2.5 0 0 0-.658 1.161l-.572 2.291a.5.5 0 0 0 .606.607l2.291-.573a2.5 2.5 0 0 0 1.02-.527ZM10.5 15a4.5 4.5 0 1 0 0-9a4.5 4.5 0 0 0 0 9Zm-.896-6.396l-.897.896h1.543A2.75 2.75 0 0 1 13 12.25v.25a.5.5 0 0 1-1 0v-.25a1.75 1.75 0 0 0-1.75-1.75H8.707l.897.896a.5.5 0 0 1-.708.708L7.144 10.35a.498.498 0 0 1 .002-.705l1.75-1.75a.5.5 0 1 1 .708.708Z"></path></svg>