<svg xmlns="http://www.w3.org/2000/svg" xmlns:xlink="http://www.w3.org/1999/xlink" aria-hidden="true" role="img" class="iconify iconify--fluent" width="1em" height="1em" preserveAspectRatio="xMidYMid meet" viewBox="0 0 32 32"><path fill="currentColor" d="M27.314 4.687a4 4 0 0 1 0 5.657L12.54 25.117a4.999 4.999 0 0 1-2.323 1.315l-4.582 1.146a1 1 0 0 1-1.213-1.213l1.146-4.582a5 5 0 0 1 1.315-2.323L21.657 4.687a4 4 0 0 1 5.657 0ZM20.243 8.93L8.298 20.874a3 3 0 0 0-.789 1.394l-.741 2.965l2.965-.741a3.001 3.001 0 0 0 1.394-.79L23.07 11.759L20.243 8.93ZM23.07 6.1l-1.414 1.415l2.828 2.828L25.9 8.93a2 2 0 0 0-2.83-2.83Z"></path></svg>