<svg xmlns="http://www.w3.org/2000/svg" xmlns:xlink="http://www.w3.org/1999/xlink" aria-hidden="true" role="img" class="iconify iconify--fluent" width="1em" height="1em" preserveAspectRatio="xMidYMid meet" viewBox="0 0 24 24"><path fill="currentColor" d="m14 15.061l6.72 6.72a.75.75 0 0 0 1.06-1.06L3.28 2.22a.75.75 0 1 0-1.06 1.06L8.94 10L4 14.938a2.25 2.25 0 0 0-.58 1l-1.394 5.115a.75.75 0 0 0 .92.92l5.116-1.394a2.25 2.25 0 0 0 1-.58L14 15.061Zm5-5l-2.88 2.88l-5.06-5.062L13.94 5L19 10.062Zm2.03-7.091a3.578 3.578 0 0 1 0 5.06l-.97.97L15 3.94l.97-.97a3.578 3.578 0 0 1 5.06 0Z"></path></svg>