<svg xmlns="http://www.w3.org/2000/svg" xmlns:xlink="http://www.w3.org/1999/xlink" aria-hidden="true" role="img" class="iconify iconify--fluent" width="1em" height="1em" preserveAspectRatio="xMidYMid meet" viewBox="0 0 20 20"><path fill="currentColor" d="m11.677 4.384l3.936 3.936l-.695.696a5.5 5.5 0 0 0-5.902 5.903l-1.44 1.44a2.001 2.001 0 0 1-.724.462l-.165.053l-4.055 1.106a.5.5 0 0 1-.629-.534l.015-.08l1.106-4.055a2 2 0 0 1 .398-.76l.117-.128l8.038-8.039Zm1.568-1.567a2.783 2.783 0 0 1 4.066 3.797l-.13.14l-.861.86l-3.936-3.937l.861-.86Zm-1.18 8.625a2 2 0 0 1-1.43 2.478l-.461.118a4.733 4.733 0 0 0 .01 1.016l.35.083a2 2 0 0 1 1.455 2.519l-.126.423c.257.203.537.377.835.518l.325-.345a2 2 0 0 1 2.909.002l.337.358c.293-.135.568-.302.822-.498l-.156-.556a2 2 0 0 1 1.43-2.478l.461-.118a4.735 4.735 0 0 0-.01-1.017l-.349-.082a2 2 0 0 1-1.456-2.52l.126-.421a4.317 4.317 0 0 0-.835-.518l-.324.343a2 2 0 0 1-2.91-.001l-.337-.358a4.316 4.316 0 0 0-.822.497l.156.557ZM14.5 15.5a1 1 0 1 1 0-2a1 1 0 0 1 0 2Z"></path></svg>