<svg xmlns="http://www.w3.org/2000/svg" xmlns:xlink="http://www.w3.org/1999/xlink" aria-hidden="true" role="img" class="iconify iconify--fluent" width="1em" height="1em" preserveAspectRatio="xMidYMid meet" viewBox="0 0 16 16"><path fill="currentColor" d="M13.416 2.584a1.992 1.992 0 0 1 0 2.817L6.058 12.76a2.48 2.48 0 0 1-1.156.655l-2.283.57a.498.498 0 0 1-.604-.603l.57-2.283a2.49 2.49 0 0 1 .656-1.156l7.358-7.358a1.992 1.992 0 0 1 2.817 0ZM9.894 4.697l-5.949 5.949a1.495 1.495 0 0 0-.393.694l-.369 1.477l1.477-.37c.263-.065.503-.2.694-.392l5.949-5.95l-1.409-1.408Zm1.41-1.41l-.705.705l1.408 1.409l.705-.704a.996.996 0 0 0-1.409-1.41Z"></path></svg>