<svg xmlns="http://www.w3.org/2000/svg" xmlns:xlink="http://www.w3.org/1999/xlink" aria-hidden="true" role="img" class="iconify iconify--fluent" width="1em" height="1em" preserveAspectRatio="xMidYMid meet" viewBox="0 0 24 24"><path fill="currentColor" d="M12 2.004c5.523 0 10 4.477 10 10s-4.477 10-10 10s-10-4.477-10-10s4.477-10 10-10Zm0 10.995a2.25 2.25 0 1 0 0 4.5a2.25 2.25 0 0 0 0-4.5ZM9 8.75a1.25 1.25 0 1 0 0 2.499A1.25 1.25 0 0 0 9 8.75Zm6 0a1.25 1.25 0 1 0 0 2.499a1.25 1.25 0 0 0 0-2.499Z"></path></svg>