<svg xmlns="http://www.w3.org/2000/svg" xmlns:xlink="http://www.w3.org/1999/xlink" aria-hidden="true" role="img" class="iconify iconify--fluent" width="1em" height="1em" preserveAspectRatio="xMidYMid meet" viewBox="0 0 28 28"><path fill="currentColor" d="M10 2a.75.75 0 0 0-.714.521l-4 12.5A.75.75 0 0 0 6 16h3.54l-2.268 9.068a.75.75 0 0 0 1.28.69l4.459-4.85a7.5 7.5 0 0 1 7.267-7.904l2.524-2.746A.75.75 0 0 0 22.25 9H17.1l2.348-5.976A.75.75 0 0 0 18.75 2H10Zm10.5 25a6.5 6.5 0 1 0 0-13a6.5 6.5 0 0 0 0 13Zm3.854-8.646l-5 5a.5.5 0 0 1-.708 0l-2-2a.5.5 0 0 1 .708-.708L19 22.293l4.646-4.647a.5.5 0 0 1 .708.708Z"></path></svg>