<svg xmlns="http://www.w3.org/2000/svg" xmlns:xlink="http://www.w3.org/1999/xlink" aria-hidden="true" role="img" class="iconify iconify--fluent" width="1em" height="1em" preserveAspectRatio="xMidYMid meet" viewBox="0 0 20 20"><path fill="currentColor" d="M5.273 5.98L2.146 2.855a.5.5 0 1 1 .708-.708l15 15a.5.5 0 0 1-.708.708l-5.288-5.289l-5.003 5.108c-.754.782-2.059.06-1.795-.996l1.17-4.679H4.962a1.062 1.062 0 0 1-1.021-1.354l1.332-4.663Zm5.878 5.878L6.082 6.79l-1.18 4.13c-.01.04.019.08.06.08H6.87a.5.5 0 0 1 .485.62l-1.325 5.3a.086.086 0 0 0-.003.03a.02.02 0 0 0 .003.011a.08.08 0 0 0 .072.04a.03.03 0 0 0 .01-.004a.087.087 0 0 0 .024-.018l.003-.004l5.012-5.116Zm3.664-3.74l-2.264 2.311l.707.707l2.274-2.32l.003-.005c.641-.667.18-1.811-.766-1.811h-2.564l1.261-3.594l.003-.008A1.062 1.062 0 0 0 12.461 2H7.212c-.474 0-.891.314-1.021.77l-.289 1.01l.809.81l.441-1.545A.062.062 0 0 1 7.212 3h5.25c.041 0 .07.04.059.08l-1.493 4.254A.5.5 0 0 0 11.5 8h3.269c.018 0 .026.004.031.008a.079.079 0 0 1 .025.034a.085.085 0 0 1 .007.044a.057.057 0 0 1-.017.032Z"></path></svg>