<svg xmlns="http://www.w3.org/2000/svg" xmlns:xlink="http://www.w3.org/1999/xlink" aria-hidden="true" role="img" class="iconify iconify--fluent" width="1em" height="1em" preserveAspectRatio="xMidYMid meet" viewBox="0 0 20 20"><path fill="currentColor" d="m11.858 12.565l5.288 5.289a.5.5 0 0 0 .708-.708l-15-15a.5.5 0 1 0-.708.708L5.273 5.98l-1.332 4.663a1.062 1.062 0 0 0 1.021 1.354H6.23l-1.17 4.68c-.264 1.055 1.04 1.777 1.795.995l5.003-5.108Zm3.674-3.75l-2.274 2.322L5.902 3.78l.289-1.01A1.06 1.06 0 0 1 7.212 2h5.25c.724 0 1.236.71 1.007 1.398l-.002.008L12.204 7h2.564c.946 0 1.407 1.144.766 1.811l-.003.004Z"></path></svg>