<svg xmlns="http://www.w3.org/2000/svg" xmlns:xlink="http://www.w3.org/1999/xlink" aria-hidden="true" role="img" class="iconify iconify--fluent" width="1em" height="1em" preserveAspectRatio="xMidYMid meet" viewBox="0 0 20 20"><path fill="currentColor" d="M5.313 2c-.475 0-.892.314-1.022.77l-2.25 7.874a1.062 1.062 0 0 0 1.022 1.354H4.33l-1.17 4.68c-.263 1.055 1.041 1.777 1.796.995l8.676-8.858l.004-.004c.64-.667.18-1.811-.767-1.811h-2.563l1.261-3.594l.003-.008A1.062 1.062 0 0 0 10.562 2h-5.25Zm-.06 1.045A.062.062 0 0 1 5.313 3h5.249c.042 0 .071.04.06.08L9.128 7.334A.5.5 0 0 0 9.6 8h3.27c.017 0 .025.004.03.008a.078.078 0 0 1 .026.034a.085.085 0 0 1 .006.044a.057.057 0 0 1-.017.032L4.24 16.974l-.004.004a.087.087 0 0 1-.023.018a.03.03 0 0 1-.01.004a.072.072 0 0 1-.042-.01a.072.072 0 0 1-.03-.03a.032.032 0 0 1-.003-.011c0-.004-.001-.014.003-.03l1.325-5.3A.5.5 0 0 0 4.97 11H3.063a.062.062 0 0 1-.06-.08l2.25-7.874Zm10.715 6.28a.5.5 0 0 0-.936 0l-3 8a.5.5 0 0 0 .936.35L13.972 15h3.057l1.003 2.676a.5.5 0 0 0 .936-.352l-3-8Zm-.468 1.599L16.654 14h-2.307l1.153-3.076Z"></path></svg>