<svg xmlns="http://www.w3.org/2000/svg" xmlns:xlink="http://www.w3.org/1999/xlink" aria-hidden="true" role="img" class="iconify iconify--fluent" width="1em" height="1em" preserveAspectRatio="xMidYMid meet" viewBox="0 0 20 20"><path fill="currentColor" d="M4.291 2.77c.13-.456.547-.77 1.022-.77h5.249c.725 0 1.237.71 1.008 1.398l-.003.008L10.306 7h2.563c.947 0 1.408 1.144.767 1.811l-.004.004l-8.676 8.858c-.755.782-2.06.06-1.795-.996l1.17-4.679H3.062a1.062 1.062 0 0 1-1.021-1.354l2.25-7.873Zm11.677 6.554a.5.5 0 0 0-.936 0l-3 8a.5.5 0 0 0 .936.352L13.972 15h3.057l1.003 2.676a.5.5 0 0 0 .936-.352l-3-8Zm-.468 1.6L16.654 14h-2.307l1.153-3.076Z"></path></svg>