<svg xmlns="http://www.w3.org/2000/svg" xmlns:xlink="http://www.w3.org/1999/xlink" aria-hidden="true" role="img" class="iconify iconify--fluent" width="1em" height="1em" preserveAspectRatio="xMidYMid meet" viewBox="0 0 28 28"><path fill="currentColor" d="M9.286 2.521A.75.75 0 0 1 10 2h8.75a.75.75 0 0 1 .698 1.024L17.1 9h5.15a.75.75 0 0 1 .552 1.258l-14.25 15.5a.75.75 0 0 1-1.28-.69L9.54 16H6a.75.75 0 0 1-.714-.979l4-12.5Zm1.261.979l-3.52 11H10.5a.75.75 0 0 1 .728.932l-1.786 7.141l11.1-12.073H16a.75.75 0 0 1-.698-1.024L17.65 3.5h-7.102Z"></path></svg>