<svg xmlns="http://www.w3.org/2000/svg" xmlns:xlink="http://www.w3.org/1999/xlink" aria-hidden="true" role="img" class="iconify iconify--fluent" width="1em" height="1em" preserveAspectRatio="xMidYMid meet" viewBox="0 0 20 20"><path fill="currentColor" d="M5.5 3A2.5 2.5 0 0 0 3 5.5v9A2.5 2.5 0 0 0 5.5 17h4.1A5.5 5.5 0 0 1 17 9.6V5.5A2.5 2.5 0 0 0 14.5 3h-9Zm9 6H10a.5.5 0 0 1 0-1h4.5a.5.5 0 0 1 0 1Zm-9-4h9a.5.5 0 0 1 0 1h-9a.5.5 0 0 1 0-1Zm1.25 3a.75.75 0 1 0 0 1.5a.75.75 0 0 0 0-1.5ZM5 8.75a1.75 1.75 0 1 1 3.5 0a1.75 1.75 0 0 1-3.5 0Zm1 4.5a.75.75 0 1 1 1.5 0a.75.75 0 0 1-1.5 0Zm.75-1.75a1.75 1.75 0 1 1 0 3.5a1.75 1.75 0 0 1 0-3.5Zm12.25 3a4.5 4.5 0 1 1-9 0a4.5 4.5 0 0 1 9 0Zm-4-2a.5.5 0 0 0-1 0V14h-1.5a.5.5 0 0 0 0 1H14v1.5a.5.5 0 0 0 1 0V15h1.5a.5.5 0 0 0 0-1H15v-1.5Z"></path></svg>