<svg xmlns="http://www.w3.org/2000/svg" xmlns:xlink="http://www.w3.org/1999/xlink" aria-hidden="true" role="img" class="iconify iconify--fluent" width="1em" height="1em" preserveAspectRatio="xMidYMid meet" viewBox="0 0 28 28"><path fill="currentColor" d="M14 21a2 2 0 1 1 0 4a2 2 0 0 1 0-4Zm9 0a2 2 0 1 1 0 4a2 2 0 0 1 0-4ZM5 21a2 2 0 1 1 0 4a2 2 0 0 1 0-4Zm9-9a2 2 0 1 1 0 4a2 2 0 0 1 0-4Zm9 0a2 2 0 1 1 0 4a2 2 0 0 1 0-4ZM5 12a2 2 0 1 1 0 4a2 2 0 0 1 0-4Zm9-9a2 2 0 1 1 0 4a2 2 0 0 1 0-4Zm9 0a2 2 0 1 1 0 4a2 2 0 0 1 0-4ZM5 3a2 2 0 1 1 0 4a2 2 0 0 1 0-4Z"></path></svg>