<svg xmlns="http://www.w3.org/2000/svg" xmlns:xlink="http://www.w3.org/1999/xlink" aria-hidden="true" role="img" class="iconify iconify--fluent" width="1em" height="1em" preserveAspectRatio="xMidYMid meet" viewBox="0 0 28 28"><path fill="currentColor" d="M14 20a2.5 2.5 0 1 1 0 5a2.5 2.5 0 0 1 0-5Zm8.5 0a2.5 2.5 0 1 1 0 5a2.5 2.5 0 0 1 0-5Zm-17 0a2.5 2.5 0 1 1 0 5a2.5 2.5 0 0 1 0-5Zm8.5-8.5a2.5 2.5 0 1 1 0 5a2.5 2.5 0 0 1 0-5Zm8.5 0a2.5 2.5 0 1 1 0 5a2.5 2.5 0 0 1 0-5Zm-17 0a2.5 2.5 0 1 1 0 5a2.5 2.5 0 0 1 0-5ZM14 3a2.5 2.5 0 1 1 0 5a2.5 2.5 0 0 1 0-5Zm8.5 0a2.5 2.5 0 1 1 0 5a2.5 2.5 0 0 1 0-5Zm-17 0a2.5 2.5 0 1 1 0 5a2.5 2.5 0 0 1 0-5Z"></path></svg>