<svg xmlns="http://www.w3.org/2000/svg" xmlns:xlink="http://www.w3.org/1999/xlink" aria-hidden="true" role="img" class="iconify iconify--fluent" width="1em" height="1em" preserveAspectRatio="xMidYMid meet" viewBox="0 0 20 20"><path fill="currentColor" d="M10 7a2 2 0 1 0 .272 3.982a5.524 5.524 0 0 1 1.617-1.324A2 2 0 0 0 10 7Zm-2.28 5H9.6a5.515 5.515 0 0 0-.405 3.957c-1.001-.114-1.693-.448-2.147-.925c-.564-.594-.671-1.319-.658-1.835c.02-.782.718-1.197 1.33-1.197ZM5.5 17h4.1c.183.358.404.693.657 1H5.5A1.5 1.5 0 0 1 4 16.5v-11A1.5 1.5 0 0 1 5.5 4H7a2 2 0 0 1 2-2h2a2 2 0 0 1 2 2h1.5A1.5 1.5 0 0 1 16 5.5v3.707a5.48 5.48 0 0 0-1-.185V5.5a.5.5 0 0 0-.5-.5h-1.768A2 2 0 0 1 11 6H9a2 2 0 0 1-1.732-1H5.5a.5.5 0 0 0-.5.5v11a.5.5 0 0 0 .5.5ZM8 4a1 1 0 0 0 1 1h2a1 1 0 1 0 0-2H9a1 1 0 0 0-1 1Zm11 10.5a4.5 4.5 0 1 1-9 0a4.5 4.5 0 0 1 9 0Zm-4-2a.5.5 0 0 0-1 0V14h-1.5a.5.5 0 0 0 0 1H14v1.5a.5.5 0 0 0 1 0V15h1.5a.5.5 0 0 0 0-1H15v-1.5Z"></path></svg>