<svg xmlns="http://www.w3.org/2000/svg" xmlns:xlink="http://www.w3.org/1999/xlink" aria-hidden="true" role="img" class="iconify iconify--fluent" width="1em" height="1em" preserveAspectRatio="xMidYMid meet" viewBox="0 0 20 20"><path fill="currentColor" d="M8 9a2 2 0 1 1 3.89.658a5.524 5.524 0 0 0-1.618 1.324A2 2 0 0 1 8 9Zm7-3.5v3.522a5.5 5.5 0 0 1 1 .185V5.5A1.5 1.5 0 0 0 14.5 4H13a2 2 0 0 0-2-2H9a2 2 0 0 0-2 2H5.5A1.5 1.5 0 0 0 4 5.5v11A1.5 1.5 0 0 0 5.5 18h4.757a5.503 5.503 0 0 1-.657-1H5.5a.5.5 0 0 1-.5-.5v-11a.5.5 0 0 1 .5-.5h1.768A2 2 0 0 0 9 6h2a2 2 0 0 0 1.732-1H14.5a.5.5 0 0 1 .5.5ZM7.72 12H9.6a5.465 5.465 0 0 0-.393 1H7.721a.415.415 0 0 0-.258.082a.177.177 0 0 0-.073.14c-.01.371.07.792.383 1.121c.218.23.593.46 1.243.578c.027.356.088.702.18 1.036c-1.002-.114-1.694-.448-2.148-.925c-.564-.594-.671-1.319-.658-1.835c.02-.782.718-1.197 1.33-1.197ZM10 8a1 1 0 1 0 0 2a1 1 0 0 0 0-2ZM8 4a1 1 0 0 1 1-1h2a1 1 0 1 1 0 2H9a1 1 0 0 1-1-1Zm11 10.5a4.5 4.5 0 1 1-9 0a4.5 4.5 0 0 1 9 0Zm-4-2a.5.5 0 0 0-1 0V14h-1.5a.5.5 0 0 0 0 1H14v1.5a.5.5 0 0 0 1 0V15h1.5a.5.5 0 0 0 0-1H15v-1.5Z"></path></svg>