<svg xmlns="http://www.w3.org/2000/svg" xmlns:xlink="http://www.w3.org/1999/xlink" aria-hidden="true" role="img" class="iconify iconify--fluent" width="1em" height="1em" preserveAspectRatio="xMidYMid meet" viewBox="0 0 20 20"><path fill="currentColor" d="M19 5.5a4.5 4.5 0 1 1-9 0a4.5 4.5 0 0 1 9 0Zm-4-2a.5.5 0 0 0-1 0V5h-1.5a.5.5 0 0 0 0 1H14v1.5a.5.5 0 0 0 1 0V6h1.5a.5.5 0 0 0 0-1H15V3.5Zm-.5 7.5c.9 0 1.75-.216 2.5-.6v6.1a1.5 1.5 0 0 1-1.5 1.5h-2a1.5 1.5 0 0 1-1.5-1.5v-4a.5.5 0 0 0-.5-.5h-3a.5.5 0 0 0-.5.5v4A1.5 1.5 0 0 1 6.5 18h-2A1.5 1.5 0 0 1 3 16.5V9.445c0-.425.18-.83.498-1.115l5.5-4.942c.168-.151.363-.258.568-.32A5.5 5.5 0 0 0 14.5 11Z"></path></svg>