<svg xmlns="http://www.w3.org/2000/svg" xmlns:xlink="http://www.w3.org/1999/xlink" aria-hidden="true" role="img" class="iconify iconify--fluent" width="1em" height="1em" preserveAspectRatio="xMidYMid meet" viewBox="0 0 20 20"><path fill="currentColor" d="M19 5.5a4.5 4.5 0 1 1-9 0a4.5 4.5 0 0 1 9 0Zm-4-2a.5.5 0 0 0-1 0V5h-1.5a.5.5 0 0 0 0 1H14v1.5a.5.5 0 0 0 1 0V6h1.5a.5.5 0 0 0 0-1H15V3.5Zm1 13v-5.707c.349-.099.683-.23 1-.393v6.1a1.5 1.5 0 0 1-1.5 1.5H13a1.5 1.5 0 0 1-1.5-1.5V13a.5.5 0 0 0-.5-.5H9a.5.5 0 0 0-.5.5v3.5A1.5 1.5 0 0 1 7 18H4.5A1.5 1.5 0 0 1 3 16.5V9.445c0-.425.18-.83.498-1.115l5.5-4.942c.168-.151.363-.258.568-.32a5.461 5.461 0 0 0-.505 1.607L4.166 9.074A.5.5 0 0 0 4 9.445V16.5a.5.5 0 0 0 .5.5H7a.5.5 0 0 0 .5-.5V13A1.5 1.5 0 0 1 9 11.5h2a1.5 1.5 0 0 1 1.5 1.5v3.5a.5.5 0 0 0 .5.5h2.5a.5.5 0 0 0 .5-.5Z"></path></svg>