<svg xmlns="http://www.w3.org/2000/svg" xmlns:xlink="http://www.w3.org/1999/xlink" aria-hidden="true" role="img" class="iconify iconify--fluent" width="1em" height="1em" preserveAspectRatio="xMidYMid meet" viewBox="0 0 28 28"><path fill="currentColor" d="M21.75 3A3.25 3.25 0 0 1 25 6.25v15.5A3.25 3.25 0 0 1 21.75 25H6.25A3.25 3.25 0 0 1 3 21.75V6.25A3.25 3.25 0 0 1 6.25 3h15.5Zm.583 20.4l-7.807-7.68a.75.75 0 0 0-.968-.07l-.084.07l-7.808 7.68c.183.065.38.1.584.1h15.5c.204 0 .4-.035.583-.1l-7.807-7.68l7.807 7.68ZM21.75 4.5H6.25A1.75 1.75 0 0 0 4.5 6.25v15.5c0 .208.036.408.103.593l7.82-7.692a2.25 2.25 0 0 1 3.026-.117l.129.117l7.82 7.692c.066-.185.102-.385.102-.593V6.25a1.75 1.75 0 0 0-1.75-1.75Zm-3.25 3a2.5 2.5 0 1 1 0 5a2.5 2.5 0 0 1 0-5Zm0 1.5a1 1 0 1 0 0 2a1 1 0 0 0 0-2Z"></path></svg>