<svg xmlns="http://www.w3.org/2000/svg" xmlns:xlink="http://www.w3.org/1999/xlink" aria-hidden="true" role="img" class="iconify iconify--fluent" width="1em" height="1em" preserveAspectRatio="xMidYMid meet" viewBox="0 0 20 20"><path fill="currentColor" d="M12.5 8a.5.5 0 1 0 0-1a.5.5 0 0 0 0 1ZM3 6a3 3 0 0 1 3-3h8a3 3 0 0 1 3 3v8c0 .65-.206 1.25-.557 1.742l-5.39-5.308a1.5 1.5 0 0 0-2.105 0l-5.39 5.308A2.986 2.986 0 0 1 3 14V6Zm9.5 3a1.5 1.5 0 1 0 0-3a1.5 1.5 0 0 0 0 3Zm-8.235 7.448C4.755 16.796 5.354 17 6 17h8c.646 0 1.245-.204 1.735-.552l-5.384-5.3a.5.5 0 0 0-.702 0l-5.384 5.3Z"></path></svg>