<svg xmlns="http://www.w3.org/2000/svg" xmlns:xlink="http://www.w3.org/1999/xlink" aria-hidden="true" role="img" class="iconify iconify--fluent" width="1em" height="1em" preserveAspectRatio="xMidYMid meet" viewBox="0 0 24 24"><path fill="currentColor" d="m11.475 13.718l.083-.071a.75.75 0 0 1 .874-.007l.093.078l6.928 6.8A3.235 3.235 0 0 1 17.75 21H6.25a3.235 3.235 0 0 1-1.703-.481l6.928-6.801l.083-.071l-.083.07ZM17.75 3A3.25 3.25 0 0 1 21 6.25v11.5c0 .627-.178 1.213-.485 1.71l-6.939-6.813l-.128-.116a2.25 2.25 0 0 0-2.889-.006l-.135.123l-6.939 6.811A3.235 3.235 0 0 1 3 17.75V6.25A3.25 3.25 0 0 1 6.25 3h11.5Zm-1.998 3a2.252 2.252 0 1 0 0 4.504a2.252 2.252 0 0 0 0-4.504Zm0 1.5a.752.752 0 1 1 0 1.504a.752.752 0 0 1 0-1.504Z"></path></svg>