<svg xmlns="http://www.w3.org/2000/svg" xmlns:xlink="http://www.w3.org/1999/xlink" aria-hidden="true" role="img" class="iconify iconify--fluent" width="1em" height="1em" preserveAspectRatio="xMidYMid meet" viewBox="0 0 24 24"><path fill="currentColor" d="M17.5 12a4.5 4.5 0 1 1-4.388 5.502h-2.224A4.502 4.502 0 0 1 2 16.5a4.5 4.5 0 0 1 8.973-.5h2.054a4.5 4.5 0 0 1 4.473-4Zm-11 1.5a3 3 0 1 0 0 6a3 3 0 0 0 0-6Zm11 0a3 3 0 1 0 0 6a3 3 0 0 0 0-6ZM12 9.25c3.39 0 6.53.34 9.422 1.02a.75.75 0 0 1-.344 1.46c-2.775-.653-5.8-.98-9.078-.98c-3.277 0-6.303.327-9.078.98a.75.75 0 0 1-.344-1.46C5.47 9.59 8.611 9.25 12 9.25Zm3.7-6a2.75 2.75 0 0 1 2.43 1.462l.083.171l1.472 3.312a.75.75 0 0 1-1.323.7l-.047-.09l-1.473-3.313a1.25 1.25 0 0 0-1.008-.735L15.7 4.75H8.3c-.45 0-.86.24-1.082.623l-.06.12l-1.473 3.312A.75.75 0 0 1 4.28 8.29l.036-.096l1.472-3.312A2.75 2.75 0 0 1 8.11 3.256l.19-.007h7.4Z"></path></svg>