<svg xmlns="http://www.w3.org/2000/svg" xmlns:xlink="http://www.w3.org/1999/xlink" aria-hidden="true" role="img" class="iconify iconify--fluent" width="1em" height="1em" preserveAspectRatio="xMidYMid meet" viewBox="0 0 16 16"><path fill="currentColor" d="M2.009 1.476a.5.5 0 1 0-1 0v2a1.5 1.5 0 0 0 1.5 1.5h.23l3.278 6.475a1 1 0 0 0 .555.49v.004a8.729 8.729 0 0 0-.064.979c0 .43.096.911.312 1.303c.214.39.598.768 1.172.774h.016c.574-.006.958-.384 1.172-.774c.216-.392.312-.873.312-1.303a8.75 8.75 0 0 0-.064-.98v-.004a1 1 0 0 0 .552-.488l3.28-6.476h.249a1.5 1.5 0 0 0 1.5-1.5v-2a.5.5 0 0 0-1 0v2a.5.5 0 0 1-.5.5h-11a.5.5 0 0 1-.5-.5v-2ZM8.428 12a7.987 7.987 0 0 1 .064.924c0 .3-.07.607-.188.822c-.113.205-.221.253-.304.255c-.083-.002-.19-.05-.304-.255a1.79 1.79 0 0 1-.188-.822c0-.267.024-.584.057-.862L7.572 12h.856Zm3.711-7.024L9.088 11H6.909L3.86 4.976h8.28Z"></path></svg>