<svg xmlns="http://www.w3.org/2000/svg" xmlns:xlink="http://www.w3.org/1999/xlink" aria-hidden="true" role="img" class="iconify iconify--fluent" width="1em" height="1em" preserveAspectRatio="xMidYMid meet" viewBox="0 0 48 48"><path fill="currentColor" d="M43.56 6.56a1.5 1.5 0 0 0-2.12-2.12l-2 2a1.5 1.5 0 0 0 2.12 2.12l2-2Zm-8 5.88a1.5 1.5 0 0 1 0 2.12l-3 3a1.5 1.5 0 0 1-2.12-2.12l3-3a1.5 1.5 0 0 1 2.12 0Zm-9 11.12a1.5 1.5 0 0 0-2.12-2.12l-3 3a1.5 1.5 0 0 0 2.12 2.12l3-3Zm-9 6.88a1.5 1.5 0 0 1 0 2.12l-3 3a1.5 1.5 0 0 1-2.12-2.12l3-3a1.5 1.5 0 0 1 2.12 0Zm-9 9a1.5 1.5 0 0 1 0 2.12l-2 2a1.5 1.5 0 0 1-2.12-2.12l2-2a1.5 1.5 0 0 1 2.12 0Z"></path></svg>