<svg xmlns="http://www.w3.org/2000/svg" xmlns:xlink="http://www.w3.org/1999/xlink" aria-hidden="true" role="img" class="iconify iconify--fluent" width="1em" height="1em" preserveAspectRatio="xMidYMid meet" viewBox="0 0 32 32"><path fill="currentColor" d="M28.634 3.366a1.25 1.25 0 0 1 0 1.768l-.98.979a1.25 1.25 0 1 1-1.767-1.768l.98-.979a1.25 1.25 0 0 1 1.767 0Zm-4.896 4.896a1.25 1.25 0 0 1 0 1.768l-1.958 1.958a1.25 1.25 0 1 1-1.768-1.768l1.958-1.958a1.25 1.25 0 0 1 1.768 0Zm-5.875 5.875a1.25 1.25 0 0 1 0 1.768l-1.958 1.958a1.25 1.25 0 1 1-1.768-1.768l1.958-1.958a1.25 1.25 0 0 1 1.768 0Zm-5.875 5.875a1.25 1.25 0 0 1 0 1.768l-1.958 1.958a1.25 1.25 0 0 1-1.768-1.768l1.958-1.958a1.25 1.25 0 0 1 1.768 0Zm-5.875 5.875a1.25 1.25 0 0 1 0 1.768l-.98.979a1.25 1.25 0 0 1-1.767-1.768l.98-.98a1.25 1.25 0 0 1 1.767 0Z"></path></svg>