<svg xmlns="http://www.w3.org/2000/svg" xmlns:xlink="http://www.w3.org/1999/xlink" aria-hidden="true" role="img" class="iconify iconify--fluent" width="1em" height="1em" preserveAspectRatio="xMidYMid meet" viewBox="0 0 24 24"><path fill="currentColor" d="M2.75 18h12.5a.75.75 0 0 1 .102 1.493l-.102.007H2.75a.75.75 0 0 1-.102-1.494L2.75 18h12.5h-12.5Zm0-6.5h18.5a.75.75 0 0 1 .102 1.493L21.25 13H2.75a.75.75 0 0 1-.102-1.493l.102-.007h18.5h-18.5Zm0-6.497h15.5a.75.75 0 0 1 .102 1.493l-.102.007H2.75a.75.75 0 0 1-.102-1.493l.102-.007h15.5h-15.5Z"></path></svg>