<svg xmlns="http://www.w3.org/2000/svg" xmlns:xlink="http://www.w3.org/1999/xlink" aria-hidden="true" role="img" class="iconify iconify--fluent" width="1em" height="1em" preserveAspectRatio="xMidYMid meet" viewBox="0 0 20 20"><path fill="currentColor" d="M6 2.5a.5.5 0 0 1 .5-.5h7a.5.5 0 1 1 0 1H13v1h.534a2.5 2.5 0 0 1 2.5 2.509l-.027 8A2.505 2.505 0 0 1 14 16.95v.55a.5.5 0 1 1-1 0V17H7v.5a.5.5 0 0 1-1 0v-.543a2.5 2.5 0 0 1-2.034-2.466l.027-8A2.5 2.5 0 0 1 6.493 4h.508V3h-.5a.5.5 0 0 1-.5-.5ZM8 3v1h4V3H8ZM6.494 5a1.5 1.5 0 0 0-1.5 1.495l-.027 8A1.5 1.5 0 0 0 6.466 16H13.5c.828 0 1.503-.67 1.506-1.495l.027-8A1.5 1.5 0 0 0 13.534 5h-7.04ZM6.5 8.5A.5.5 0 0 1 7 8h6a.5.5 0 1 1 0 1H7a.5.5 0 0 1-.5-.5Z"></path></svg>