<svg xmlns="http://www.w3.org/2000/svg" xmlns:xlink="http://www.w3.org/1999/xlink" aria-hidden="true" role="img" class="iconify iconify--fluent" width="1em" height="1em" preserveAspectRatio="xMidYMid meet" viewBox="0 0 16 16"><path fill="currentColor" d="M9.5 2a.5.5 0 0 0 0 1h5a.5.5 0 0 0 0-1h-5Zm0 2a.5.5 0 0 0 0 1h5a.5.5 0 0 0 0-1h-5Zm0 2a.5.5 0 0 0 0 1h5a.5.5 0 0 0 0-1h-5ZM8.085 3H4a2 2 0 0 0-2 2v6a2 2 0 0 0 2 2h8a2 2 0 0 0 2-2V8h-1v3a1 1 0 0 1-1 1H4a1 1 0 0 1-1-1V6.876L7.763 9.44a.5.5 0 0 0 .474 0L10.912 8H9.5c-.184 0-.36-.033-.523-.094L8 8.432L3 5.74V5a1 1 0 0 1 1-1h4.085c.066-.186.168-.356.297-.5a1.499 1.499 0 0 1-.297-.5Z"></path></svg>