<svg xmlns="http://www.w3.org/2000/svg" xmlns:xlink="http://www.w3.org/1999/xlink" aria-hidden="true" role="img" class="iconify iconify--fluent" width="1em" height="1em" preserveAspectRatio="xMidYMid meet" viewBox="0 0 32 32"><path fill="currentColor" d="M10 18a2 2 0 1 0 0-4a2 2 0 0 0 0 4Zm6 0a2 2 0 1 0 0-4a2 2 0 0 0 0 4Zm8-2a2 2 0 1 1-4 0a2 2 0 0 1 4 0Zm6 0c0 7.732-6.268 14-14 14S2 23.732 2 16S8.268 2 16 2s14 6.268 14 14Zm-2 0c0-6.627-5.373-12-12-12S4 9.373 4 16s5.373 12 12 12s12-5.373 12-12Z"></path></svg>