<svg xmlns="http://www.w3.org/2000/svg" xmlns:xlink="http://www.w3.org/1999/xlink" aria-hidden="true" role="img" class="iconify iconify--fluent" width="1em" height="1em" preserveAspectRatio="xMidYMid meet" viewBox="0 0 48 48"><path fill="currentColor" d="M17.75 7A3.25 3.25 0 0 1 21 10.25v27.5A3.25 3.25 0 0 1 17.75 41h-5.5A3.25 3.25 0 0 1 9 37.75v-27.5A3.25 3.25 0 0 1 12.25 7h5.5Zm18 0A3.25 3.25 0 0 1 39 10.25v27.5A3.25 3.25 0 0 1 35.75 41h-5.5A3.25 3.25 0 0 1 27 37.75v-27.5A3.25 3.25 0 0 1 30.25 7h5.5Zm-18 2.5h-5.5a.75.75 0 0 0-.75.75v27.5c0 .414.336.75.75.75h5.5a.75.75 0 0 0 .75-.75v-27.5a.75.75 0 0 0-.75-.75Zm18 0h-5.5a.75.75 0 0 0-.75.75v27.5c0 .414.336.75.75.75h5.5a.75.75 0 0 0 .75-.75v-27.5a.75.75 0 0 0-.75-.75Z"></path></svg>