<svg xmlns="http://www.w3.org/2000/svg" xmlns:xlink="http://www.w3.org/1999/xlink" aria-hidden="true" role="img" class="iconify iconify--fluent" width="1em" height="1em" preserveAspectRatio="xMidYMid meet" viewBox="0 0 24 24"><path fill="currentColor" d="M13 6.5a4.5 4.5 0 1 0-9 0a4.5 4.5 0 0 0 9 0Zm-.19 6.5H4a2 2 0 0 0-2 2v1.5l.005.23C2.165 20.044 5.778 21 8.5 21c1.03 0 2.189-.137 3.239-.487A6.472 6.472 0 0 1 11 17.5c0-1.746.689-3.332 1.81-4.5Zm4.69-9a3.5 3.5 0 1 1 0 7a3.5 3.5 0 0 1 0-7ZM23 17.5a5.5 5.5 0 1 1-11 0a5.5 5.5 0 0 1 11 0ZM17.5 14a.5.5 0 0 0-.5.5v4a.5.5 0 0 0 1 0v-4a.5.5 0 0 0-.5-.5Zm0 7.125a.625.625 0 1 0 0-1.25a.625.625 0 0 0 0 1.25Z"></path></svg>