<svg xmlns="http://www.w3.org/2000/svg" xmlns:xlink="http://www.w3.org/1999/xlink" aria-hidden="true" role="img" class="iconify iconify--fluent" width="1em" height="1em" preserveAspectRatio="xMidYMid meet" viewBox="0 0 24 24"><path fill="currentColor" d="M12.81 13H4a2 2 0 0 0-2 2v1.5l.005.23C2.165 20.044 5.778 21 8.5 21c1.03 0 2.189-.137 3.239-.487a6.4 6.4 0 0 1-.537-1.403a8.787 8.787 0 0 1-2.385.385L8.5 19.5l-.317-.005c-1.263-.039-2.44-.308-3.266-.753C3.95 18.222 3.5 17.509 3.5 16.5v-1.501l.01-.101a.506.506 0 0 1 .136-.253a.51.51 0 0 1 .253-.136l.101-.01h7.732A6.532 6.532 0 0 1 12.809 13ZM13 6.5a4.5 4.5 0 1 0-9 0a4.5 4.5 0 0 0 9 0Zm-7.5 0c0-1.654 1.346-3 3-3s3 1.346 3 3s-1.346 3-3 3s-3-1.346-3-3Zm15.5 1a3.5 3.5 0 1 0-7 0a3.5 3.5 0 0 0 7 0Zm-5.5 0c0-1.103.897-2 2-2s2 .897 2 2s-.897 2-2 2s-2-.897-2-2Zm7.5 10a5.5 5.5 0 1 1-11 0a5.5 5.5 0 0 1 11 0ZM17.5 14a.5.5 0 0 0-.5.5v4a.5.5 0 0 0 1 0v-4a.5.5 0 0 0-.5-.5Zm0 7.125a.625.625 0 1 0 0-1.25a.625.625 0 0 0 0 1.25Z"></path></svg>