<svg xmlns="http://www.w3.org/2000/svg" xmlns:xlink="http://www.w3.org/1999/xlink" aria-hidden="true" role="img" class="iconify iconify--fluent" width="1em" height="1em" preserveAspectRatio="xMidYMid meet" viewBox="0 0 16 16"><path fill="currentColor" d="M9 5c0 .526.203 1.004.535 1.361a5.522 5.522 0 0 1 3.121-.24A2 2 0 1 0 9 5Zm-2.94 8h.147A5.503 5.503 0 0 1 6 11.5c0-1.33.472-2.55 1.257-3.5H3.5A1.5 1.5 0 0 0 2 9.5v.775C2 12.097 3.446 13 6.06 13ZM6 2a2.5 2.5 0 1 1 0 5a2.5 2.5 0 0 1 0-5Zm5.5 13c-.786 0-1.512-.26-2.096-.697l4.9-4.9A3.5 3.5 0 0 1 11.5 15Zm2.096-6.303l-4.9 4.9a3.5 3.5 0 0 1 4.9-4.9ZM11.5 16a4.5 4.5 0 1 0 0-9a4.5 4.5 0 0 0 0 9Z"></path></svg>