<svg xmlns="http://www.w3.org/2000/svg" xmlns:xlink="http://www.w3.org/1999/xlink" aria-hidden="true" role="img" class="iconify iconify--fluent" width="1em" height="1em" preserveAspectRatio="xMidYMid meet" viewBox="0 0 20 20"><path fill="currentColor" d="M13 12a2 2 0 0 0-2-2H4a2 2 0 0 0-2 2v1.5C2 15.554 4.088 17 7.5 17c.459 0 .893-.026 1.302-.076l-.363-.363a1.494 1.494 0 0 1-.359-.576c-.187.01-.38.015-.58.015C4.579 16 3 14.907 3 13.5V12a1 1 0 0 1 1-1h7a1 1 0 0 1 1 1v.085a1.496 1.496 0 0 1 1 1.414V12Zm5 .5c0 .425-.065.822-.193 1.185l-.829-.828A2.76 2.76 0 0 0 17 12.5V12a1 1 0 0 0-1-1h-2.171a3 3 0 0 0-.594-1H16a2 2 0 0 1 2 2v.5Zm-7-7a3.5 3.5 0 1 0-7 0a3.5 3.5 0 0 0 7 0Zm-6 0a2.5 2.5 0 1 1 5 0a2.5 2.5 0 0 1-5 0Zm12 1a2.5 2.5 0 1 0-5 0a2.5 2.5 0 0 0 5 0Zm-4 0a1.5 1.5 0 1 1 3 0a1.5 1.5 0 0 1-3 0Zm-1.854 11.354a.5.5 0 0 0 .708-.708L10.707 16h5.586l-1.147 1.146a.5.5 0 0 0 .708.708l2-2a.5.5 0 0 0 0-.708l-2-2a.5.5 0 0 0-.708.708L16.293 15h-5.586l1.147-1.146a.5.5 0 0 0-.708-.708l-2 2a.5.5 0 0 0 0 .708l2 2ZM11.243 15h1.325h-1.325Z"></path></svg>