<svg xmlns="http://www.w3.org/2000/svg" xmlns:xlink="http://www.w3.org/1999/xlink" aria-hidden="true" role="img" class="iconify iconify--fluent" width="1em" height="1em" preserveAspectRatio="xMidYMid meet" viewBox="0 0 16 16"><path fill="currentColor" d="M6 2a2.5 2.5 0 1 1 0 5a2.5 2.5 0 0 1 0-5Zm3.535 4.361a2 2 0 1 1 3.121-.24a5.522 5.522 0 0 0-3.121.24ZM6.207 13H6.06C3.446 13 2 12.098 2 10.276V9.5A1.5 1.5 0 0 1 3.5 8h3.757A5.478 5.478 0 0 0 6 11.5a5.5 5.5 0 0 0 .207 1.5ZM16 11.5a4.5 4.5 0 1 1-9 0a4.5 4.5 0 0 1 9 0ZM11.5 9a.5.5 0 0 0-.5.5v2a.5.5 0 0 0 1 0v-2a.5.5 0 0 0-.5-.5Zm0 5.125a.625.625 0 1 0 0-1.25a.625.625 0 0 0 0 1.25Z"></path></svg>