<svg xmlns="http://www.w3.org/2000/svg" xmlns:xlink="http://www.w3.org/1999/xlink" aria-hidden="true" role="img" class="iconify iconify--fluent" width="1em" height="1em" preserveAspectRatio="xMidYMid meet" viewBox="0 0 20 20"><path fill="currentColor" d="M11 10a2 2 0 0 1 2 2h-2a2 2 0 0 0-2 2v2.897c-.466.068-.967.103-1.5.103C4.088 17 2 15.554 2 13.5V12a2 2 0 0 1 2-2h7Zm2.372.163c.394.508.628 1.145.628 1.837h4a2 2 0 0 0-2-2h-2.765l.137.163ZM7.5 2a3.5 3.5 0 1 1 0 7a3.5 3.5 0 0 1 0-7Zm7 2a2.5 2.5 0 1 1 0 5a2.5 2.5 0 0 1 0-5ZM19 14.5v3a1.5 1.5 0 0 1-1.5 1.5h-6a1.5 1.5 0 0 1-1.5-1.5v-3a1.5 1.5 0 0 1 1.5-1.5h6a1.5 1.5 0 0 1 1.5 1.5ZM17.5 18a.5.5 0 0 1 .5-.5v-1a1.5 1.5 0 0 0-1.5 1.5h1Zm.5-3.5a.5.5 0 0 1-.5-.5h-1a1.5 1.5 0 0 0 1.5 1.5v-1Zm-6.5-.5a.5.5 0 0 1-.5.5v1a1.5 1.5 0 0 0 1.5-1.5h-1Zm-.5 3.5a.5.5 0 0 1 .5.5h1a1.5 1.5 0 0 0-1.5-1.5v1Zm3.5-3a1.5 1.5 0 1 0 0 3a1.5 1.5 0 0 0 0-3Z"></path></svg>