<svg xmlns="http://www.w3.org/2000/svg" xmlns:xlink="http://www.w3.org/1999/xlink" aria-hidden="true" role="img" class="iconify iconify--fluent" width="1em" height="1em" preserveAspectRatio="xMidYMid meet" viewBox="0 0 16 16"><path fill="currentColor" d="M8.5 4.5a2.5 2.5 0 1 0-5 0a2.5 2.5 0 0 0 5 0Zm-4 0a1.5 1.5 0 1 1 3 0a1.5 1.5 0 0 1-3 0ZM9 5c0 .526.203 1.004.535 1.361a5.522 5.522 0 0 1 3.121-.24A2 2 0 1 0 9 5Zm2-1a1 1 0 1 1 0 2a1 1 0 0 1 0-2Zm-4.94 9h.147a5.479 5.479 0 0 1-.185-1C3.917 11.995 3 11.415 3 10.276V9.5a.5.5 0 0 1 .5-.5h3.1c.183-.358.404-.693.657-1H3.5A1.5 1.5 0 0 0 2 9.5v.775C2 12.097 3.446 13 6.06 13Zm5.44 3a4.5 4.5 0 1 1 0-9a4.5 4.5 0 0 1 0 9Zm2.354-5.646a.5.5 0 0 0-.708-.708L10.5 12.293l-.646-.647a.5.5 0 0 0-.708.708l1 1a.5.5 0 0 0 .708 0l3-3Z"></path></svg>