<svg xmlns="http://www.w3.org/2000/svg" xmlns:xlink="http://www.w3.org/1999/xlink" aria-hidden="true" role="img" class="iconify iconify--fluent" width="1em" height="1em" preserveAspectRatio="xMidYMid meet" viewBox="0 0 20 20"><path fill="currentColor" d="M13 12a2 2 0 0 0-2-2H4a2 2 0 0 0-2 2v1.5C2 15.554 4.088 17 7.5 17c.459 0 .893-.026 1.302-.076l-.363-.363a1.5 1.5 0 0 1 0-2.122l2-2A1.5 1.5 0 0 1 13 13.5V12Zm4.807 1.685c.128-.363.193-.76.193-1.185V12a2 2 0 0 0-2-2h-2.765l.137.163c.394.508.628 1.145.628 1.837v1.5a1.5 1.5 0 0 1 2.56-1.06l1.247 1.245ZM11 5.5a3.5 3.5 0 1 0-7 0a3.5 3.5 0 0 0 7 0Zm6 1a2.5 2.5 0 1 0-5 0a2.5 2.5 0 0 0 5 0Zm-5.854 11.354a.5.5 0 0 0 .708-.708L10.707 16h5.586l-1.147 1.146a.5.5 0 0 0 .708.708l2-2a.5.5 0 0 0 0-.708l-2-2a.5.5 0 0 0-.708.708L16.293 15h-5.586l1.147-1.146a.5.5 0 0 0-.708-.708l-2 2a.5.5 0 0 0 0 .708l2 2ZM10.707 15h1.86h-1.86Z"></path></svg>