<svg xmlns="http://www.w3.org/2000/svg" xmlns:xlink="http://www.w3.org/1999/xlink" aria-hidden="true" role="img" class="iconify iconify--fluent" width="1em" height="1em" preserveAspectRatio="xMidYMid meet" viewBox="0 0 28 28"><path fill="currentColor" d="m4 16l10.499.001a7.49 7.49 0 0 0-.875 1.5L4 17.5l-.1.01a.51.51 0 0 0-.254.136a.506.506 0 0 0-.136.253L3.5 18v2.5c0 1.339.587 2.329 1.795 3.025c.996.576 2.39.923 3.864.97l.341.005l.435-.01c.856-.038 2.454-.21 3.718-.924c.205.457.454.89.743 1.293C12.932 25.683 11.086 26 9.5 26c-3.149 0-7.329-1.248-7.495-5.252L2 20.5V18a2 2 0 0 1 1.85-1.994L4 16Zm16.5-3c.806 0 1.582.127 2.31.363a4.5 4.5 0 1 0-4.62 0A7.495 7.495 0 0 1 20.5 13Zm0-6.5c1.654 0 3 1.346 3 3s-1.346 3-3 3s-3-1.346-3-3s1.346-3 3-3ZM9.5 3a5.5 5.5 0 1 1 0 11a5.5 5.5 0 0 1 0-11Zm0 1.5c-2.206 0-4 1.794-4 4s1.794 4 4 4s4-1.794 4-4s-1.794-4-4-4Zm4.5 16a6.5 6.5 0 1 0 13 0a6.5 6.5 0 0 0-13 0Zm5.349-4.08A4 4 0 0 1 24 18.313V17.5a.5.5 0 0 1 1 0v2a.5.5 0 0 1-.5.5h-2a.5.5 0 0 1 0-1h.727a2.998 2.998 0 0 0-4.848-.871a.5.5 0 0 1-.707-.707a4 4 0 0 1 1.677-1.003Zm2.302 8.16A4 4 0 0 1 17 22.687v.814a.5.5 0 0 1-1 0v-2a.5.5 0 0 1 .5-.5h2a.5.5 0 0 1 0 1h-.727a2.998 2.998 0 0 0 4.848.871a.5.5 0 0 1 .707.707a4 4 0 0 1-1.677 1.003Z"></path></svg>