<svg xmlns="http://www.w3.org/2000/svg" xmlns:xlink="http://www.w3.org/1999/xlink" aria-hidden="true" role="img" class="iconify iconify--fluent" width="1em" height="1em" preserveAspectRatio="xMidYMid meet" viewBox="0 0 20 20"><path fill="currentColor" d="M7.5 2a3.5 3.5 0 1 1 0 7a3.5 3.5 0 0 1 0-7Zm7 7a2.5 2.5 0 1 0 0-5a2.5 2.5 0 0 0 0 5Zm-3.195 1.023A2.025 2.025 0 0 0 11 10H4a2 2 0 0 0-2 2v1.5C2 15.554 4.088 17 7.5 17a9.9 9.9 0 0 0 2.006-.192A5.48 5.48 0 0 1 9 14.5c0-1.846.91-3.48 2.305-4.477ZM19 14.5a4.5 4.5 0 1 1-9 0a4.5 4.5 0 0 1 9 0ZM14.5 12a.5.5 0 0 0-.5.5v2a.5.5 0 0 0 1 0v-2a.5.5 0 0 0-.5-.5Zm0 5.125a.625.625 0 1 0 0-1.25a.625.625 0 0 0 0 1.25Z"></path></svg>