<svg xmlns="http://www.w3.org/2000/svg" xmlns:xlink="http://www.w3.org/1999/xlink" aria-hidden="true" role="img" class="iconify iconify--fluent" width="1em" height="1em" preserveAspectRatio="xMidYMid meet" viewBox="0 0 20 20"><path fill="currentColor" d="M7.5 2a3.5 3.5 0 1 1 0 7a3.5 3.5 0 0 1 0-7Zm0 1a2.5 2.5 0 1 0 0 5a2.5 2.5 0 0 0 0-5Zm7 6a2.5 2.5 0 1 0 0-5a2.5 2.5 0 0 0 0 5ZM13 6.5a1.5 1.5 0 1 1 3 0a1.5 1.5 0 0 1-3 0Zm-1.695 3.523A2.025 2.025 0 0 0 11 10H4a2 2 0 0 0-2 2v1.5C2 15.554 4.088 17 7.5 17a9.9 9.9 0 0 0 2.006-.192a5.46 5.46 0 0 1-.336-.947A9.35 9.35 0 0 1 7.5 16C4.579 16 3 14.907 3 13.5V12a1 1 0 0 1 1-1h6.257c.305-.37.657-.698 1.048-.977ZM10 14.5a4.5 4.5 0 1 0 9 0a4.5 4.5 0 0 0-9 0Zm2.404 2.803l4.9-4.9a3.5 3.5 0 0 1-4.9 4.9Zm-.707-.707a3.5 3.5 0 0 1 4.9-4.9l-4.9 4.9Z"></path></svg>