<svg xmlns="http://www.w3.org/2000/svg" xmlns:xlink="http://www.w3.org/1999/xlink" aria-hidden="true" role="img" class="iconify iconify--fluent" width="1em" height="1em" preserveAspectRatio="xMidYMid meet" viewBox="0 0 24 24"><path fill="currentColor" d="M13.5 13.001a1.5 1.5 0 0 1 1.493 1.356L15 14.5h-1.25a1.75 1.75 0 0 0-1.225 3c-.324.318-.525.76-.525 1.25s.201.932.525 1.25c-.095.094-.18.198-.252.312c-1.18.5-2.564.688-3.773.688c-2.722 0-6.335-.956-6.495-4.27L2 16.5v-2a1.5 1.5 0 0 1 1.356-1.493L3.5 13l10 .001ZM13 16.25a.75.75 0 0 1 .75-.75h7.5a.75.75 0 0 1 0 1.5h-7.5a.75.75 0 0 1-.75-.75Zm0 2.5a.75.75 0 0 1 .75-.75h7.5a.749.749 0 1 1 0 1.5h-7.5a.75.75 0 0 1-.75-.75Zm8.25-4.25c.268 0 .523.06.75.168V14.5l-.007-.145A1.5 1.5 0 0 0 20.5 13h-5.012l.113.162c.25.387.399.844.399 1.338h5.25ZM8.5 2a4.5 4.5 0 1 1 0 9a4.5 4.5 0 0 1 0-9Zm9 2a3.5 3.5 0 1 1 0 7a3.5 3.5 0 0 1 0-7ZM13 21.25a.75.75 0 0 1 .75-.75h7.5a.75.75 0 0 1 0 1.5h-7.5a.75.75 0 0 1-.75-.75Z"></path></svg>