<svg xmlns="http://www.w3.org/2000/svg" xmlns:xlink="http://www.w3.org/1999/xlink" aria-hidden="true" role="img" class="iconify iconify--fluent" width="1em" height="1em" preserveAspectRatio="xMidYMid meet" viewBox="0 0 20 20"><path fill="currentColor" d="M11 10a2 2 0 0 1 1.694.936c-.125.33-.194.69-.194 1.064v.063A2 2 0 0 0 11 14v2.317c-.904.436-2.089.683-3.5.683C4.088 17 2 15.554 2 13.5V12a2 2 0 0 1 2-2h7Zm1 4a1 1 0 0 1 1-1h.5v-1a1.998 1.998 0 0 1 3.543-1.272c.286.345.457.789.457 1.272v1h.5a1 1 0 0 1 1 1v4a1 1 0 0 1-1 1h-5a1 1 0 0 1-1-1v-4Zm4.07 1.512a.753.753 0 0 0-.57-.262a.75.75 0 1 0 .57.262ZM15.5 11a1 1 0 0 0-1 1v1h2v-1a1 1 0 0 0-1-1Zm-2.25-.984l.015-.017h-.03l.014.017ZM7.5 2a3.5 3.5 0 1 1 0 7a3.5 3.5 0 0 1 0-7Zm7 2a2.5 2.5 0 1 1 0 5a2.5 2.5 0 0 1 0-5Z"></path></svg>