<svg xmlns="http://www.w3.org/2000/svg" xmlns:xlink="http://www.w3.org/1999/xlink" aria-hidden="true" role="img" class="iconify iconify--fluent" width="1em" height="1em" preserveAspectRatio="xMidYMid meet" viewBox="0 0 20 20"><path fill="currentColor" d="M11 10c.104 0 .205.008.305.023a5.55 5.55 0 0 0-1.048.977H4a1 1 0 0 0-1 1v1.5C3 14.907 4.579 16 7.5 16a9.35 9.35 0 0 0 1.67-.139c.083.329.197.645.336.947A9.917 9.917 0 0 1 7.5 17C4.088 17 2 15.554 2 13.5V12a2 2 0 0 1 2-2h7Zm6-3.5a2.5 2.5 0 1 1-5 0a2.5 2.5 0 0 1 5 0ZM14.5 5a1.5 1.5 0 1 0 0 3a1.5 1.5 0 0 0 0-3Zm-7-3a3.5 3.5 0 1 1 0 7a3.5 3.5 0 0 1 0-7Zm0 1a2.5 2.5 0 1 0 0 5a2.5 2.5 0 0 0 0-5Zm7 16a4.5 4.5 0 1 1 0-9a4.5 4.5 0 0 1 0 9Zm1.5-7v.152a3.011 3.011 0 0 0-1.448-.401a2.999 2.999 0 0 0-2.173.878a.5.5 0 0 0 .707.707A2 2 0 0 1 15.468 13H15a.5.5 0 0 0 0 1h1.5a.5.5 0 0 0 .5-.5V12a.5.5 0 0 0-1 0Zm-1.552 5.25a2.999 2.999 0 0 0 2.173-.879a.5.5 0 0 0-.707-.707a2 2 0 0 1-2.382.336H14a.5.5 0 0 0 0-1h-1.5a.5.5 0 0 0-.5.5V17a.5.5 0 0 0 1 0v-.152a3.011 3.011 0 0 0 1.448.402Z"></path></svg>