<svg xmlns="http://www.w3.org/2000/svg" xmlns:xlink="http://www.w3.org/1999/xlink" aria-hidden="true" role="img" class="iconify iconify--fluent" width="1em" height="1em" preserveAspectRatio="xMidYMid meet" viewBox="0 0 28 28"><path fill="currentColor" d="M15 15.001c.124 0 .246.011.364.033a7.55 7.55 0 0 0-1.21 1.467L4 16.5l-.1.01a.51.51 0 0 0-.254.136a.506.506 0 0 0-.136.253L3.5 17v2.5c0 1.339.587 2.329 1.795 3.025c.996.576 2.39.923 3.864.97l.341.005l.435-.01c.786-.035 2.197-.183 3.402-.76c.15.48.346.94.583 1.373c-1.375.644-3.002.897-4.42.897c-3.149 0-7.329-1.248-7.495-5.252L2 19.5V17c0-1.054.816-1.918 1.85-1.995L4 15l11 .001ZM25 8.5a4.5 4.5 0 1 1-9 0a4.5 4.5 0 0 1 9 0Zm-4.5-3c-1.654 0-3 1.346-3 3s1.346 3 3 3s3-1.346 3-3s-1.346-3-3-3ZM9.5 2a5.5 5.5 0 1 1 0 11a5.5 5.5 0 0 1 0-11Zm0 1.5c-2.206 0-4 1.794-4 4s1.794 4 4 4s4-1.794 4-4s-1.794-4-4-4Zm17.5 17a6.5 6.5 0 1 1-13 0a6.5 6.5 0 0 1 13 0Zm-6-4a.5.5 0 0 0-1 0V20h-3.5a.5.5 0 0 0 0 1H20v3.5a.5.5 0 0 0 1 0V21h3.5a.5.5 0 0 0 0-1H21v-3.5Z"></path></svg>