<svg xmlns="http://www.w3.org/2000/svg" xmlns:xlink="http://www.w3.org/1999/xlink" aria-hidden="true" role="img" class="iconify iconify--fluent" width="1em" height="1em" preserveAspectRatio="xMidYMid meet" viewBox="0 0 28 28"><path fill="currentColor" d="m4 16l11 .001a2 2 0 0 1 1.994 1.85l.006.15V20.5c-.001 4.2-4.287 5.5-7.5 5.5c-3.149 0-7.329-1.248-7.495-5.252L2 20.5V18a2 2 0 0 1 1.85-1.994L4 16Zm20 0l.15.006a2.001 2.001 0 0 1 1.844 1.837L26 18v2c-.001 3.759-3.43 5-6 5c-1.058 0-2.259-.215-3.309-.725c.318-.378.587-.798.797-1.268c.958.42 1.991.485 2.428.492l.288-.003c1.036-.035 4.13-.384 4.29-3.263L24.5 20v-2a.501.501 0 0 0-.41-.492L24 17.5l-6.051.001a2.956 2.956 0 0 0-.595-1.34L17.22 16H24ZM4 17.5l-.1.01a.51.51 0 0 0-.254.136a.506.506 0 0 0-.136.253L3.5 18v2.5c0 1.339.587 2.329 1.795 3.025c.996.576 2.39.923 3.864.97l.341.005l.435-.01c1.52-.068 5.379-.557 5.558-3.758l.007-.233v-2.498a.502.502 0 0 0-.41-.492l-.09-.008L4 17.5ZM9.5 3a5.5 5.5 0 1 1 0 11a5.5 5.5 0 0 1 0-11Zm11 2a4.5 4.5 0 1 1 0 9a4.5 4.5 0 0 1 0-9Zm-11-.5c-2.206 0-4 1.794-4 4s1.794 4 4 4s4-1.794 4-4s-1.794-4-4-4Zm11 2c-1.654 0-3 1.346-3 3s1.346 3 3 3s3-1.346 3-3s-1.346-3-3-3Z"></path></svg>