<svg xmlns="http://www.w3.org/2000/svg" xmlns:xlink="http://www.w3.org/1999/xlink" aria-hidden="true" role="img" class="iconify iconify--fluent" width="1em" height="1em" preserveAspectRatio="xMidYMid meet" viewBox="0 0 20 20"><path fill="currentColor" d="M11 10a2 2 0 0 1 2 2h-1a1 1 0 0 0-1-1H4a1 1 0 0 0-1 1v1.5C3 14.907 4.579 16 7.5 16a9.56 9.56 0 0 0 1.5-.11v1.007c-.466.068-.967.103-1.5.103C4.088 17 2 15.554 2 13.5V12a2 2 0 0 1 2-2h7Zm6 2h1a2 2 0 0 0-2-2h-2.765a3 3 0 0 1 .594 1H16a1 1 0 0 1 1 1ZM7.5 2a3.5 3.5 0 1 1 0 7a3.5 3.5 0 0 1 0-7Zm0 1a2.5 2.5 0 1 0 0 5a2.5 2.5 0 0 0 0-5Zm7 1a2.5 2.5 0 1 1 0 5a2.5 2.5 0 0 1 0-5Zm0 1a1.5 1.5 0 1 0 0 3a1.5 1.5 0 0 0 0-3Zm4.5 9.5v3a1.5 1.5 0 0 1-1.5 1.5h-6a1.5 1.5 0 0 1-1.5-1.5v-3a1.5 1.5 0 0 1 1.5-1.5h6a1.5 1.5 0 0 1 1.5 1.5ZM17.5 18a.5.5 0 0 1 .5-.5v-1a1.5 1.5 0 0 0-1.5 1.5h1Zm.5-3.5a.5.5 0 0 1-.5-.5h-1a1.5 1.5 0 0 0 1.5 1.5v-1Zm-6.5-.5a.5.5 0 0 1-.5.5v1a1.5 1.5 0 0 0 1.5-1.5h-1Zm-.5 3.5a.5.5 0 0 1 .5.5h1a1.5 1.5 0 0 0-1.5-1.5v1Zm3.5-3a1.5 1.5 0 1 0 0 3a1.5 1.5 0 0 0 0-3Z"></path></svg>