<svg xmlns="http://www.w3.org/2000/svg" xmlns:xlink="http://www.w3.org/1999/xlink" aria-hidden="true" role="img" class="iconify iconify--fluent" width="1em" height="1em" preserveAspectRatio="xMidYMid meet" viewBox="0 0 24 24"><path fill="currentColor" d="M17.5 12a5.5 5.5 0 1 1 0 11a5.5 5.5 0 0 1 0-11ZM4 12.999l8.81.001A6.478 6.478 0 0 0 11 17.5c0 1.087.267 2.112.739 3.013c-1.05.35-2.208.487-3.239.487c-2.722 0-6.335-.956-6.495-4.27L2 16.5v-1.501a2 2 0 0 1 2-2Zm13.5 1.003l-.09.008a.5.5 0 0 0-.402.402l-.008.09V17h-2.5l-.09.008a.5.5 0 0 0-.402.402L14 17.5l.008.09a.5.5 0 0 0 .402.402l.09.008H17v2.5l.008.09a.5.5 0 0 0 .402.402l.09.008l.09-.008a.5.5 0 0 0 .402-.402L18 20.5V18h2.5l.09-.008a.5.5 0 0 0 .402-.402L21 17.5l-.008-.09a.5.5 0 0 0-.402-.402L20.5 17H18v-2.498l-.008-.09a.5.5 0 0 0-.402-.402l-.09-.008ZM8.5 2a4.5 4.5 0 1 1 0 9a4.5 4.5 0 0 1 0-9Zm9 2a3.5 3.5 0 1 1 0 7a3.5 3.5 0 0 1 0-7Z"></path></svg>