<svg xmlns="http://www.w3.org/2000/svg" xmlns:xlink="http://www.w3.org/1999/xlink" aria-hidden="true" role="img" class="iconify iconify--fluent" width="1em" height="1em" preserveAspectRatio="xMidYMid meet" viewBox="0 0 20 20"><path fill="currentColor" d="M11.46 10.053A2.005 2.005 0 0 0 11 10H4a2 2 0 0 0-2 2v1.5C2 15.554 4.088 17 7.5 17c.533 0 1.034-.035 1.5-.103V15.89a9.56 9.56 0 0 1-1.5.11C4.579 16 3 14.907 3 13.5V12a1 1 0 0 1 1-1h7l.05.001c.07-.347.213-.669.41-.948ZM14.5 9a2.5 2.5 0 1 0 0-5a2.5 2.5 0 0 0 0 5ZM13 6.5a1.5 1.5 0 1 1 3 0a1.5 1.5 0 0 1-3 0Zm-2-1a3.5 3.5 0 1 0-7 0a3.5 3.5 0 0 0 7 0Zm-6 0a2.5 2.5 0 1 1 5 0a2.5 2.5 0 0 1-5 0Zm7 6v.5h-.5a1.5 1.5 0 0 0-1.5 1.5V15h2v-.5a.5.5 0 0 1 1 0v.5h3v-.5a.5.5 0 0 1 1 0v.5h2v-1.5a1.5 1.5 0 0 0-1.5-1.5H17v-.5a1.5 1.5 0 0 0-1.5-1.5h-2a1.5 1.5 0 0 0-1.5 1.5Zm1.5-.5h2a.5.5 0 0 1 .5.5v.5h-3v-.5a.5.5 0 0 1 .5-.5Zm5.5 5h-2v.5a.5.5 0 0 1-1 0V16h-3v.5a.5.5 0 0 1-1 0V16h-2v1.5a1.5 1.5 0 0 0 1.5 1.5h6a1.5 1.5 0 0 0 1.5-1.5V16Z"></path></svg>