<svg xmlns="http://www.w3.org/2000/svg" xmlns:xlink="http://www.w3.org/1999/xlink" aria-hidden="true" role="img" class="iconify iconify--fluent" width="1em" height="1em" preserveAspectRatio="xMidYMid meet" viewBox="0 0 28 28"><path fill="currentColor" d="m4 16l11 .001a2 2 0 0 1 1.994 1.85l.006.15V20.5c-.001 4.2-4.287 5.5-7.5 5.5c-3.149 0-7.329-1.248-7.495-5.252L2 20.5V18a2 2 0 0 1 1.85-1.994L4 16Zm13.22.001L24 16a2 2 0 0 1 1.994 1.85L26 18v2c-.001 3.759-3.43 5-6 5c-1.058 0-2.259-.215-3.309-.725c.752-.894 1.24-2.032 1.302-3.464L18 20.5v-2.499c0-.702-.249-1.34-.654-1.85L17.22 16H24l-6.78.001ZM9.5 3a5.5 5.5 0 1 1-.001 11.001A5.5 5.5 0 0 1 9.5 3Zm11 2a4.5 4.5 0 1 1 0 9a4.5 4.5 0 0 1 0-9Z"></path></svg>