<svg xmlns="http://www.w3.org/2000/svg" xmlns:xlink="http://www.w3.org/1999/xlink" aria-hidden="true" role="img" class="iconify iconify--fluent" width="1em" height="1em" preserveAspectRatio="xMidYMid meet" viewBox="0 0 20 20"><path fill="currentColor" d="M11 10a2 2 0 0 1 2 2v1.5c0 2.054-2.088 3.5-5.5 3.5S2 15.554 2 13.5V12a2 2 0 0 1 2-2h7Zm5 0a2 2 0 0 1 2 2v.5c0 2.089-1.568 3.5-4.5 3.5c-.141 0-.28-.003-.414-.01a3.714 3.714 0 0 0 .907-2.251L14 13.5V12c0-.692-.234-1.33-.628-1.837L13.235 10H16ZM7.5 2a3.5 3.5 0 1 1 0 7a3.5 3.5 0 0 1 0-7Zm7 2a2.5 2.5 0 1 1 0 5a2.5 2.5 0 0 1 0-5Z"></path></svg>