<svg xmlns="http://www.w3.org/2000/svg" xmlns:xlink="http://www.w3.org/1999/xlink" aria-hidden="true" role="img" class="iconify iconify--fluent" width="1em" height="1em" preserveAspectRatio="xMidYMid meet" viewBox="0 0 16 16"><path fill="currentColor" d="M8.496 8c.176 0 .345.03.502.086A1.504 1.504 0 0 0 8.085 9H3.5a.5.5 0 0 0-.5.5v.775C3 11.42 3.928 12 6.06 12c.832 0 1.473-.087 1.94-.263v1.04c-.544.149-1.193.223-1.94.223C3.446 13 2 12.097 2 10.275V9.5A1.5 1.5 0 0 1 3.5 8h4.996ZM6 2a2.5 2.5 0 1 1 0 5a2.5 2.5 0 0 1 0-5Zm0 1a1.5 1.5 0 1 0 0 3a1.5 1.5 0 0 0 0-3Zm5 0a2 2 0 1 1 0 4a2 2 0 0 1 0-4Zm0 1a1 1 0 1 0 0 2a1 1 0 0 0 0-2ZM9.5 9a.5.5 0 0 0 0 1h5a.5.5 0 0 0 0-1h-5Zm0 2a.5.5 0 0 0 0 1h5a.5.5 0 0 0 0-1h-5Zm0 2a.5.5 0 0 0 0 1h5a.5.5 0 0 0 0-1h-5Z"></path></svg>