<svg xmlns="http://www.w3.org/2000/svg" xmlns:xlink="http://www.w3.org/1999/xlink" aria-hidden="true" role="img" class="iconify iconify--fluent" width="1em" height="1em" preserveAspectRatio="xMidYMid meet" viewBox="0 0 16 16"><path fill="currentColor" d="M9.535 6.361a2 2 0 1 1 3.121-.24a5.522 5.522 0 0 0-3.121.24ZM6.207 13H6.06C3.446 13 2 12.098 2 10.276V9.5A1.5 1.5 0 0 1 3.5 8h3.757A5.478 5.478 0 0 0 6 11.5a5.5 5.5 0 0 0 .207 1.5ZM8.5 4.5a2.5 2.5 0 1 0-5 0a2.5 2.5 0 0 0 5 0Zm-1.5 7a4.5 4.5 0 1 0 9 0a4.5 4.5 0 0 0-9 0Zm6.5-3a.5.5 0 0 1 .5.5v1.5a.5.5 0 0 1-.5.5H12a.5.5 0 0 1 0-1h.468a1.982 1.982 0 0 0-.933-.25a2 2 0 0 0-1.45.586a.5.5 0 0 1-.706-.707A3 3 0 0 1 13 9.152V9a.5.5 0 0 1 .5-.5Zm-.876 5.532A2.999 2.999 0 0 1 10 13.848V14a.5.5 0 0 1-1 0v-1.5a.5.5 0 0 1 .5-.5H11a.5.5 0 0 1 0 1h-.468a1.999 1.999 0 0 0 2.383-.336a.5.5 0 0 1 .706.707c-.285.285-.624.51-.997.66Z"></path></svg>