<svg xmlns="http://www.w3.org/2000/svg" xmlns:xlink="http://www.w3.org/1999/xlink" aria-hidden="true" role="img" class="iconify iconify--fluent" width="0.96em" height="1em" preserveAspectRatio="xMidYMid meet" viewBox="0 0 24 25"><path fill="currentColor" d="M13.5 14.501c.15 0 .296.022.433.064A2.501 2.501 0 0 0 12 17v4.92c-1.117.42-2.383.58-3.5.58c-2.722 0-6.335-.956-6.495-4.27L2 18v-2a1.5 1.5 0 0 1 1.356-1.493L3.5 14.5l10 .001ZM13 17a1.5 1.5 0 0 1 1.5-1.5h.5v-1a2.5 2.5 0 1 1 5 0v1h.542A1.5 1.5 0 0 1 22 17v5a1.5 1.5 0 0 1-1.5 1.5h-6A1.5 1.5 0 0 1 13 22v-5Zm3.5-2.5v1h2v-1a1 1 0 1 0-2 0Zm0 5a1 1 0 1 0 2 0a1 1 0 0 0-2 0Zm1-8.5c.818 0 1.57.281 2.165.75a3.5 3.5 0 1 0-4.33 0A3.485 3.485 0 0 1 17.5 11Zm-9-7.5a4.5 4.5 0 1 1 0 9a4.5 4.5 0 0 1 0-9Z"></path></svg>