<svg xmlns="http://www.w3.org/2000/svg" xmlns:xlink="http://www.w3.org/1999/xlink" aria-hidden="true" role="img" class="iconify iconify--fluent" width="1em" height="1em" preserveAspectRatio="xMidYMid meet" viewBox="0 0 20 20"><path fill="currentColor" d="M11 10c.104 0 .205.008.305.023A5.493 5.493 0 0 0 9 14.5c0 .824.181 1.607.506 2.308A9.917 9.917 0 0 1 7.5 17C4.088 17 2 15.554 2 13.5V12a2 2 0 0 1 2-2h7Zm6-3.5a2.5 2.5 0 1 1-5 0a2.5 2.5 0 0 1 5 0ZM7.5 2a3.5 3.5 0 1 1 0 7a3.5 3.5 0 0 1 0-7ZM19 14.5a4.5 4.5 0 1 1-9 0a4.5 4.5 0 0 1 9 0Zm-4-2a.5.5 0 0 0-1 0V14h-1.5a.5.5 0 0 0 0 1H14v1.5a.5.5 0 0 0 1 0V15h1.5a.5.5 0 0 0 0-1H15v-1.5Z"></path></svg>