<svg xmlns="http://www.w3.org/2000/svg" xmlns:xlink="http://www.w3.org/1999/xlink" aria-hidden="true" role="img" class="iconify iconify--fluent" width="1em" height="1em" preserveAspectRatio="xMidYMid meet" viewBox="0 0 24 24"><path fill="currentColor" d="M3.5 14h8.521A6.47 6.47 0 0 0 11 17.5a6.47 6.47 0 0 0 1.243 3.824C11.07 21.814 9.7 22 8.5 22c-2.722 0-6.335-.956-6.495-4.27L2 17.5v-2a1.5 1.5 0 0 1 1.356-1.493L3.5 14Zm14-3c.719 0 1.41.117 2.057.332a3.5 3.5 0 1 0-4.114 0A6.493 6.493 0 0 1 17.5 11Zm-9-8a4.5 4.5 0 1 1 0 9a4.5 4.5 0 0 1 0-9ZM23 17.5a5.5 5.5 0 1 1-11 0a5.5 5.5 0 0 1 11 0Zm-9.5 0c0 .834.255 1.608.691 2.248l5.557-5.557A4 4 0 0 0 13.5 17.5Zm4 4a4 4 0 0 0 3.309-6.248l-5.557 5.557a3.98 3.98 0 0 0 2.248.691Z"></path></svg>