<svg xmlns="http://www.w3.org/2000/svg" xmlns:xlink="http://www.w3.org/1999/xlink" aria-hidden="true" role="img" class="iconify iconify--fluent" width="1em" height="1em" preserveAspectRatio="xMidYMid meet" viewBox="0 0 16 16"><path fill="currentColor" d="M8 1a2 2 0 0 0-2 2v10a2 2 0 1 0 4 0V3a2 2 0 0 0-2-2Zm1 2v10a1 1 0 1 1-2 0V3a1 1 0 0 1 2 0ZM3 7a2 2 0 0 0-2 2v4a2 2 0 1 0 4 0V9a2 2 0 0 0-2-2Zm1 6a1 1 0 1 1-2 0V9a1 1 0 0 1 2 0v4Zm7-6a2 2 0 1 1 4 0v6a2 2 0 1 1-4 0V7Zm3 0a1 1 0 1 0-2 0v6a1 1 0 1 0 2 0V7Z"></path></svg>