<svg xmlns="http://www.w3.org/2000/svg" xmlns:xlink="http://www.w3.org/1999/xlink" aria-hidden="true" role="img" class="iconify iconify--fluent" width="1em" height="1em" preserveAspectRatio="xMidYMid meet" viewBox="0 0 20 20"><path fill="currentColor" d="M14.5 1c.276 0 .5.222.5.497c0 .463.073 1.219.472 1.846c.375.588 1.083 1.136 2.528 1.136c.276 0 .5.222.5.497a.499.499 0 0 1-.5.497c-.369 0-1.14.223-1.82.742c-.663.505-1.18 1.241-1.18 2.24a.499.499 0 0 1-.5.496a.499.499 0 0 1-.5-.497c0-.5-.155-1.261-.606-1.884c-.432-.596-1.157-1.097-2.394-1.097a.499.499 0 0 1-.5-.497c0-.275.224-.497.5-.497c.512 0 1.255-.01 1.873-.367C13.437 3.785 14 3.1 14 1.497c0-.275.224-.497.5-.497Zm.04 2.73a2.947 2.947 0 0 1-1.328 1.329c.409.254.736.576.994.93c.13.18.24.366.334.554a4.21 4.21 0 0 1 1.03-1.117c.157-.12.32-.228.485-.325a3.224 3.224 0 0 1-1.514-1.37Zm-8.395 8.436l-.932 3.396c-.17.62.077 1.345.74 1.64c1.638.727 4.65 1.351 7.97.009c.71-.288 1.021-1.064.814-1.75l-.975-3.229A6.497 6.497 0 0 1 10 13.424a6.498 6.498 0 0 1-3.855-1.258Zm6.612-9.334c.06-.12.122-.28.167-.5A5.499 5.499 0 0 0 10 1.498c-3.038 0-5.5 2.447-5.5 5.466c0 3.02 2.462 5.467 5.5 5.467a5.5 5.5 0 0 0 4.613-2.49A1.495 1.495 0 0 1 13 8.454a2.39 2.39 0 0 0-.417-1.302c-.247-.34-.672-.685-1.583-.685c-.828 0-1.5-.667-1.5-1.49c0-.824.672-1.491 1.5-1.491c.538 0 1.015-.027 1.37-.232a.968.968 0 0 0 .387-.421Z"></path></svg>