<svg xmlns="http://www.w3.org/2000/svg" xmlns:xlink="http://www.w3.org/1999/xlink" aria-hidden="true" role="img" class="iconify iconify--fluent" width="1em" height="1em" preserveAspectRatio="xMidYMid meet" viewBox="0 0 20 20"><g fill="none"><path d="M6.5 6a1.5 1.5 0 1 0 0-3a1.5 1.5 0 0 0 0 3z" fill="currentColor"></path><path d="M6.5 11a1.5 1.5 0 1 0 0-3a1.5 1.5 0 0 0 0 3z" fill="currentColor"></path><path d="M8 14.5a1.5 1.5 0 1 1-3 0a1.5 1.5 0 0 1 3 0z" fill="currentColor"></path><path d="M13.5 6a1.5 1.5 0 1 0 0-3a1.5 1.5 0 0 0 0 3z" fill="currentColor"></path><path d="M15 9.5a1.5 1.5 0 1 1-3 0a1.5 1.5 0 0 1 3 0z" fill="currentColor"></path><path d="M13.5 16a1.5 1.5 0 1 0 0-3a1.5 1.5 0 0 0 0 3z" fill="currentColor"></path></g></svg>