<svg xmlns="http://www.w3.org/2000/svg" xmlns:xlink="http://www.w3.org/1999/xlink" aria-hidden="true" role="img" class="iconify iconify--fluent" width="1em" height="1em" preserveAspectRatio="xMidYMid meet" viewBox="0 0 24 24"><path fill="currentColor" d="M7 15.5a1.5 1.5 0 1 1-3 0a1.5 1.5 0 0 1 3 0Zm0-7a1.5 1.5 0 1 1-3 0a1.5 1.5 0 0 1 3 0Zm7 7a1.5 1.5 0 1 1-3 0a1.5 1.5 0 0 1 3 0Zm0-7a1.5 1.5 0 1 1-3 0a1.5 1.5 0 0 1 3 0Zm7 7a1.5 1.5 0 1 1-3 0a1.5 1.5 0 0 1 3 0Zm0-7a1.5 1.5 0 1 1-3 0a1.5 1.5 0 0 1 3 0Z"></path></svg>