<svg xmlns="http://www.w3.org/2000/svg" xmlns:xlink="http://www.w3.org/1999/xlink" aria-hidden="true" role="img" class="iconify iconify--fluent" width="1em" height="1em" preserveAspectRatio="xMidYMid meet" viewBox="0 0 20 20"><path fill="currentColor" d="M10 2a8 8 0 1 0 0 16a8 8 0 0 0 0-16Zm-7 8a6.97 6.97 0 0 1 1.446-4.26L7.269 13H3.674A6.973 6.973 0 0 1 3 10Zm5.75 6.889l3.795-4.486c.088-.093.17-.191.248-.293l.838-.99l1.774 3.328A6.986 6.986 0 0 1 10 17c-.427 0-.845-.038-1.25-.111Zm-1.071-.283A7.02 7.02 0 0 1 4.255 14h5.628L7.68 16.606Zm4.122-4.872a2.5 2.5 0 1 1 .21-.247l-.21.247Zm-.197-8.55a7.012 7.012 0 0 1 4.46 3.316h-7.01l2.55-3.315ZM17 10a6.968 6.968 0 0 1-.952 3.527L12.833 7.5h3.707c.297.776.46 1.62.46 2.5Zm-6.527-6.984L6.478 8.208L5.196 4.909a6.976 6.976 0 0 1 5.277-1.893Z"></path></svg>