<svg xmlns="http://www.w3.org/2000/svg" xmlns:xlink="http://www.w3.org/1999/xlink" aria-hidden="true" role="img" class="iconify iconify--fluent" width="1em" height="1em" preserveAspectRatio="xMidYMid meet" viewBox="0 0 20 20"><path fill="currentColor" d="M10.9 2.05a8 8 0 1 0 .018.002l-.012-.01l-.006.008ZM3.5 10c0-1.2.325-2.325.893-3.29l2.487 6.04H4.11A6.475 6.475 0 0 1 3.5 10Zm5.927 6.475l3.304-3.906c.091-.096.177-.198.258-.303l.594-.703l1.396 2.616a6.487 6.487 0 0 1-5.552 2.296Zm-1.655-.367a6.511 6.511 0 0 1-2.69-1.858h4.262l-1.572 1.858Zm4.042-4.776l-.199.234a2.25 2.25 0 1 1 .198-.235Zm-.277-7.65A6.506 6.506 0 0 1 15.31 6.25H9.562l1.975-2.567ZM16.5 10a6.48 6.48 0 0 1-.597 2.725L13.25 7.75h2.85c.259.701.4 1.459.4 2.25ZM9.782 3.504L6.468 7.81L5.457 5.352a6.478 6.478 0 0 1 4.326-1.848Z"></path></svg>