<svg xmlns="http://www.w3.org/2000/svg" xmlns:xlink="http://www.w3.org/1999/xlink" aria-hidden="true" role="img" class="iconify iconify--fluent" width="1em" height="1em" preserveAspectRatio="xMidYMid meet" viewBox="0 0 24 24"><path fill="currentColor" d="M7 5a2 2 0 1 1-4 0a2 2 0 0 1 4 0Zm1 0a1 1 0 0 0 1 1h6a1 1 0 1 0 0-2H9a1 1 0 0 0-1 1ZM5 8a1 1 0 0 0-1 1v6a1 1 0 1 0 2 0V9a1 1 0 0 0-1-1Zm14 0a1 1 0 0 0-1 1v6a1 1 0 1 0 2 0V9a1 1 0 0 0-1-1ZM9 20a1 1 0 1 1 0-2h6a1 1 0 1 1 0 2H9Zm-4 1a2 2 0 1 0 0-4a2 2 0 0 0 0 4ZM21 5a2 2 0 1 1-4 0a2 2 0 0 1 4 0Zm-2 16a2 2 0 1 0 0-4a2 2 0 0 0 0 4Z"></path></svg>