<svg xmlns="http://www.w3.org/2000/svg" xmlns:xlink="http://www.w3.org/1999/xlink" aria-hidden="true" role="img" class="iconify iconify--fluent" width="1em" height="1em" preserveAspectRatio="xMidYMid meet" viewBox="0 0 20 20"><path fill="currentColor" d="M2 5.5A2.5 2.5 0 0 1 4.5 3h8a2.5 2.5 0 0 1 2.45 2H7.5A3.5 3.5 0 0 0 4 8.5v.527a4.474 4.474 0 0 0-2 .73V5.5Zm6.561 9.94l1.56 1.56H15.5a2.5 2.5 0 0 0 2.5-2.5v-6A2.5 2.5 0 0 0 15.5 6h-8A2.5 2.5 0 0 0 5 8.5v.527a4.5 4.5 0 0 1 3.561 6.413ZM4.5 17c.786 0 1.512-.26 2.096-.697l2.55 2.55a.5.5 0 0 0 .707-.707l-2.55-2.55A3.5 3.5 0 1 0 4.5 17Zm0-1a2.5 2.5 0 1 1 0-5a2.5 2.5 0 0 1 0 5Z"></path></svg>