<svg xmlns="http://www.w3.org/2000/svg" xmlns:xlink="http://www.w3.org/1999/xlink" aria-hidden="true" role="img" class="iconify iconify--fluent" width="1em" height="1em" preserveAspectRatio="xMidYMid meet" viewBox="0 0 20 20"><path fill="currentColor" d="M10.896 2.9a1 1 0 0 0-1.794 0l-1.93 3.91l-4.317.628a1 1 0 0 0-.554 1.706l3.124 3.044l-.738 4.3a1 1 0 0 0 1.451 1.054L11 14.983V13.5a1.5 1.5 0 0 1 1.5-1.5a1.5 1.5 0 1 1 0-3a1.5 1.5 0 0 1-.073-2.998l-1.531-3.103ZM12.5 10a.5.5 0 0 0 0 1h5a.5.5 0 1 0 0-1h-5ZM12 7.5a.5.5 0 0 1 .5-.5h5a.5.5 0 0 1 0 1h-5a.5.5 0 0 1-.5-.5Zm.5 5.5a.5.5 0 0 0 0 1h5a.5.5 0 1 0 0-1h-5Z"></path></svg>