<svg xmlns="http://www.w3.org/2000/svg" xmlns:xlink="http://www.w3.org/1999/xlink" aria-hidden="true" role="img" class="iconify iconify--fluent" width="1em" height="1em" preserveAspectRatio="xMidYMid meet" viewBox="0 0 16 16"><path fill="currentColor" d="M4 2a2 2 0 0 0-2 2v8a2 2 0 0 0 2 2h8a2 2 0 0 0 2-2V4a2 2 0 0 0-2-2H4ZM3 4a1 1 0 0 1 1-1h.816L3 5.164V4Zm0 2.72L6.12 3H7.5L3 8.365V6.72ZM8.807 3h1.38L3 11.565V9.92L8.807 3Zm2.685 0H12a1 1 0 0 1 .662.25L4.482 13H4a.996.996 0 0 1-.677-.264L11.493 3ZM13 4.404V6.05L7.167 13h-1.38L13 4.404Zm0 3.2V9.25L9.853 13h-1.38L13 7.605Zm0 3.202V12a1 1 0 0 1-1 1h-.841l1.84-2.194Z"></path></svg>