<svg xmlns="http://www.w3.org/2000/svg" xmlns:xlink="http://www.w3.org/1999/xlink" aria-hidden="true" role="img" class="iconify iconify--fluent" width="1em" height="1em" preserveAspectRatio="xMidYMid meet" viewBox="0 0 20 20"><path fill="currentColor" d="M5.5 3A2.5 2.5 0 0 0 3 5.5v9A2.5 2.5 0 0 0 5.5 17h9a2.5 2.5 0 0 0 2.5-2.5v-9A2.5 2.5 0 0 0 14.5 3h-9ZM4 5.5A1.5 1.5 0 0 1 5.5 4h.336L4 6.189V5.5Zm0 2.244L7.142 4h2.106L4 10.254v-2.51ZM10.553 4h2.106L4 14.32v-2.51L10.553 4Zm3.411 0h.536c.453 0 .86.201 1.135.519L6 16h-.5c-.463 0-.877-.21-1.152-.54L13.964 4ZM16 5.64v2.509L9.412 16H7.306L16 5.64Zm0 4.064v2.51L12.823 16h-2.106L16 9.704Zm0 4.066v.73a1.5 1.5 0 0 1-1.5 1.5h-.371L16 13.77Z"></path></svg>