<svg xmlns="http://www.w3.org/2000/svg" xmlns:xlink="http://www.w3.org/1999/xlink" aria-hidden="true" role="img" class="iconify iconify--fluent" width="1em" height="1em" preserveAspectRatio="xMidYMid meet" viewBox="0 0 20 20"><path fill="currentColor" d="M14.5 9c.9 0 1.75.216 2.5.6V8h-4v1.207A5.5 5.5 0 0 1 14.5 9ZM9 14.5a5.5 5.5 0 0 1 .207-1.5H8v4h1.6a5.47 5.47 0 0 1-.6-2.5Zm.6-2.5A5.523 5.523 0 0 1 12 9.6V8H8v4h1.6ZM7 12V8H3v4h4Zm-4 1h4v4H5.5A2.5 2.5 0 0 1 3 14.5V13Zm10-6h4V5.5A2.5 2.5 0 0 0 14.5 3H13v4Zm-1-4v4H8V3h4ZM7 3v4H3V5.5A2.5 2.5 0 0 1 5.5 3H7Zm12 11.5a4.5 4.5 0 1 1-9 0a4.5 4.5 0 0 1 9 0Zm-5.12-3a.5.5 0 0 0-.472.334l-.88 2.5A.5.5 0 0 0 13 15h.776l-.508 1.869a.5.5 0 0 0 .903.401l2.25-3.5A.5.5 0 0 0 16 13h-.746l.28-.842a.5.5 0 0 0-.474-.658h-1.18Z"></path></svg>