<svg xmlns="http://www.w3.org/2000/svg" xmlns:xlink="http://www.w3.org/1999/xlink" aria-hidden="true" role="img" class="iconify iconify--fluent" width="1em" height="1em" preserveAspectRatio="xMidYMid meet" viewBox="0 0 24 24"><path fill="currentColor" d="M9.5 21h2.522a6.52 6.52 0 0 1-.848-5H9.5v5ZM21 9.5v2.522a6.52 6.52 0 0 0-5-.848V9.5h5Zm-6.5 0v2.232a6.53 6.53 0 0 0-2.768 2.768H9.5v-5h5ZM21 8V6.25A3.25 3.25 0 0 0 17.75 3H16v5h5Zm-6.5-5h-5v5h5V3ZM8 3H6.25A3.25 3.25 0 0 0 3 6.25V8h5V3ZM3 9.5v5h5v-5H3ZM3 16v1.75A3.25 3.25 0 0 0 6.25 21H8v-5H3Zm20 1.5a5.5 5.5 0 1 1-11 0a5.5 5.5 0 0 1 11 0ZM18.529 14h-1.433a.5.5 0 0 0-.468.324l-1.125 3a.5.5 0 0 0 .469.676h.778l-.773 2.318a.518.518 0 0 0 .926.446l2.625-4.038a.47.47 0 0 0-.393-.726H18.5l.497-1.324a.5.5 0 0 0-.468-.676Z"></path></svg>