<svg xmlns="http://www.w3.org/2000/svg" xmlns:xlink="http://www.w3.org/1999/xlink" aria-hidden="true" role="img" class="iconify iconify--fluent" width="1em" height="1em" preserveAspectRatio="xMidYMid meet" viewBox="0 0 16 16"><path fill="currentColor" d="M4.5 2A2.5 2.5 0 0 0 2 4.5V5h3V2h-.5ZM6 2v3h4V2H6ZM5 6H2v4h3V6Zm1 1.337A5.531 5.531 0 0 1 7.337 6H6v1.337ZM5 11H2v.5A2.5 2.5 0 0 0 4.5 14H5v-3Zm9-6v-.5A2.5 2.5 0 0 0 11.5 2H11v3h3Zm1 5.5a4.5 4.5 0 1 1-9 0a4.5 4.5 0 0 1 9 0Zm-5.12-3a.5.5 0 0 0-.472.334l-.88 2.5A.5.5 0 0 0 9 11h.776l-.508 1.869a.5.5 0 0 0 .903.401l2.25-3.5A.5.5 0 0 0 12 9h-.746l.28-.842a.5.5 0 0 0-.474-.658H9.88Z"></path></svg>