<svg xmlns="http://www.w3.org/2000/svg" xmlns:xlink="http://www.w3.org/1999/xlink" aria-hidden="true" role="img" class="iconify iconify--fluent" width="1em" height="1em" preserveAspectRatio="xMidYMid meet" viewBox="0 0 20 20"><path fill="currentColor" d="M4.5 3A1.5 1.5 0 0 0 3 4.5v11A1.5 1.5 0 0 0 4.5 17h11a1.5 1.5 0 0 0 1.5-1.5v-11A1.5 1.5 0 0 0 15.5 3h-11Zm9.854 3.396a.5.5 0 0 1 0 .708l-1.75 1.75a.5.5 0 0 1-.691.015l-.75-.685a.5.5 0 0 1 .674-.738l.397.362l1.412-1.412a.5.5 0 0 1 .708 0Zm0 5a.5.5 0 0 1 0 .708l-1.75 1.75a.5.5 0 0 1-.691.015l-.75-.685a.5.5 0 0 1 .674-.738l.397.363l1.412-1.413a.5.5 0 0 1 .708 0ZM6.5 12H9a.5.5 0 0 1 0 1H6.5a.5.5 0 0 1 0-1ZM6 7.5a.5.5 0 0 1 .5-.5H9a.5.5 0 0 1 0 1H6.5a.5.5 0 0 1-.5-.5Z"></path></svg>