<svg xmlns="http://www.w3.org/2000/svg" xmlns:xlink="http://www.w3.org/1999/xlink" aria-hidden="true" role="img" class="iconify iconify--fluent" width="1em" height="1em" preserveAspectRatio="xMidYMid meet" viewBox="0 0 24 24"><path fill="currentColor" d="M2.75 5a.75.75 0 0 0 0 1.5h18.5a.75.75 0 0 0 0-1.5H2.75Zm7 13a.75.75 0 0 0 0 1.5h11.5a.75.75 0 0 0 0-1.5H9.75ZM9 12.25a.75.75 0 0 1 .75-.75h11.5a.75.75 0 0 1 0 1.5H9.75a.75.75 0 0 1-.75-.75Zm-5.22.72a.75.75 0 0 0-1.06 1.06l1.47 1.47l-1.47 1.47a.75.75 0 1 0 1.06 1.06l2-2a.75.75 0 0 0 0-1.06l-2-2Z"></path></svg>