<svg xmlns="http://www.w3.org/2000/svg" xmlns:xlink="http://www.w3.org/1999/xlink" aria-hidden="true" role="img" class="iconify iconify--fluent" width="1em" height="1em" preserveAspectRatio="xMidYMid meet" viewBox="0 0 20 20"><path fill="currentColor" d="M15 5.75a.75.75 0 0 0-.75-.75h-8.5a.75.75 0 0 0 0 1.5h8.5a.75.75 0 0 0 .75-.75Zm0 3a.75.75 0 0 0-.75-.75h-8.5a.75.75 0 0 0 0 1.5h8.5a.75.75 0 0 0 .75-.75Zm0 3a.75.75 0 0 0-.75-.75h-8.5a.75.75 0 0 0 0 1.5h8.5a.75.75 0 0 0 .75-.75Zm0 3a.75.75 0 0 0-.75-.75h-8.5a.75.75 0 0 0 0 1.5h8.5a.75.75 0 0 0 .75-.75Z"></path></svg>