<svg xmlns="http://www.w3.org/2000/svg" xmlns:xlink="http://www.w3.org/1999/xlink" aria-hidden="true" role="img" class="iconify iconify--fluent" width="1em" height="1em" preserveAspectRatio="xMidYMid meet" viewBox="0 0 20 20"><path fill="currentColor" d="M3 6.5a1 1 0 1 0 0-2a1 1 0 0 0 0 2Zm3-1a.5.5 0 0 1 .5-.5h11a.5.5 0 0 1 0 1h-11a.5.5 0 0 1-.5-.5Zm0 5a.5.5 0 0 1 .5-.5h11a.5.5 0 0 1 0 1h-11a.5.5 0 0 1-.5-.5Zm4.5 4.5a.5.5 0 0 0 0 1h7a.5.5 0 0 0 0-1h-7Zm-2.5.5a1 1 0 1 1-2 0a1 1 0 0 1 2 0Zm-5-4a1 1 0 1 0 0-2a1 1 0 0 0 0 2Z"></path></svg>