<svg xmlns="http://www.w3.org/2000/svg" xmlns:xlink="http://www.w3.org/1999/xlink" aria-hidden="true" role="img" class="iconify iconify--fluent" width="1em" height="1em" preserveAspectRatio="xMidYMid meet" viewBox="0 0 24 24"><path fill="currentColor" d="M21 6a1 1 0 0 0-1-1h-9a1 1 0 1 0 0 2h9a1 1 0 0 0 1-1ZM8 6a1 1 0 0 0-1-1H4a1 1 0 0 0 0 2h3a1 1 0 0 0 1-1Zm13 4a1 1 0 0 0-1-1h-9a1 1 0 1 0 0 2h9a1 1 0 0 0 1-1ZM8 10a1 1 0 0 0-1-1H4a1 1 0 0 0 0 2h3a1 1 0 0 0 1-1Zm13 4a1 1 0 0 0-1-1h-9a1 1 0 1 0 0 2h9a1 1 0 0 0 1-1ZM8 14a1 1 0 0 0-1-1H4a1 1 0 1 0 0 2h3a1 1 0 0 0 1-1Zm13 4a1 1 0 0 0-1-1h-9a1 1 0 1 0 0 2h9a1 1 0 0 0 1-1ZM8 18a1 1 0 0 0-1-1H4a1 1 0 1 0 0 2h3a1 1 0 0 0 1-1Z"></path></svg>