<svg xmlns="http://www.w3.org/2000/svg" xmlns:xlink="http://www.w3.org/1999/xlink" aria-hidden="true" role="img" class="iconify iconify--fluent" width="1em" height="1em" preserveAspectRatio="xMidYMid meet" viewBox="0 0 16 16"><g fill="none"><path d="M5 3.5a.5.5 0 0 1 .5-.5h6a.5.5 0 0 1 0 1h-6a.5.5 0 0 1-.5-.5zM1.146 5.646a.5.5 0 0 1 .708 0l1.5 1.5a.5.5 0 0 1 0 .708l-1.5 1.5a.5.5 0 1 1-.708-.708L2.293 7.5L1.146 6.354a.5.5 0 0 1 0-.708zM5 7.5a.5.5 0 0 1 .5-.5h9a.5.5 0 0 1 0 1h-9a.5.5 0 0 1-.5-.5zm0 4a.5.5 0 0 1 .5-.5h4a.5.5 0 0 1 0 1h-4a.5.5 0 0 1-.5-.5z" fill="currentColor"></path></g></svg>