<svg xmlns="http://www.w3.org/2000/svg" xmlns:xlink="http://www.w3.org/1999/xlink" aria-hidden="true" role="img" class="iconify iconify--fluent" width="1em" height="1em" preserveAspectRatio="xMidYMid meet" viewBox="0 0 20 20"><path fill="currentColor" d="M5 3a2 2 0 0 0-2 2v10a2 2 0 0 0 2 2h2.05a2.512 2.512 0 0 1 0-1H5a1 1 0 0 1-1-1V5a1 1 0 0 1 1-1h10a1 1 0 0 1 1 1v9.5a2.49 2.49 0 0 1 1-.45V5a2 2 0 0 0-2-2H5Zm11 13.5a1.5 1.5 0 1 0 3 0a1.5 1.5 0 0 0-3 0Zm-1.085-.5a1.497 1.497 0 0 1 0 1a1.5 1.5 0 1 1 0-1ZM11 16.5A1.497 1.497 0 0 0 9.5 15a1.5 1.5 0 1 0 1.5 1.5ZM6.5 6a.5.5 0 0 0 0 1h7a.5.5 0 0 0 0-1h-7ZM6 12.5a.5.5 0 0 1 .5-.5h7a.5.5 0 0 1 0 1h-7a.5.5 0 0 1-.5-.5Zm-.1-3a.5.5 0 0 1 .5-.5h4a.5.5 0 0 1 0 1h-4a.5.5 0 0 1-.5-.5Z"></path></svg>