<svg xmlns="http://www.w3.org/2000/svg" xmlns:xlink="http://www.w3.org/1999/xlink" aria-hidden="true" role="img" class="iconify iconify--fluent" width="1em" height="1em" preserveAspectRatio="xMidYMid meet" viewBox="0 0 24 24"><path fill="currentColor" d="m16.78 5.28l.72-.72v16.69a.75.75 0 0 0 1.5 0V4.56l.72.72a.75.75 0 1 0 1.06-1.06l-2-2a.75.75 0 0 0-1.06 0l-2 2a.75.75 0 0 0 1.06 1.06ZM6 19.44l.72-.72a.75.75 0 0 1 1.06 1.06l-2 2a.75.75 0 0 1-1.06 0l-2-2a.75.75 0 1 1 1.06-1.06l.72.72V2.75a.75.75 0 0 1 1.5 0v16.69Zm6.5-16.69a.75.75 0 0 0-1.5 0v18.5a.75.75 0 0 0 1.5 0V2.75Z"></path></svg>