<svg xmlns="http://www.w3.org/2000/svg" xmlns:xlink="http://www.w3.org/1999/xlink" aria-hidden="true" role="img" class="iconify iconify--fluent" width="1em" height="1em" preserveAspectRatio="xMidYMid meet" viewBox="0 0 16 16"><path fill="currentColor" d="M2 3.5a.5.5 0 0 1 .5-.5h11a.5.5 0 0 1 0 1h-11a.5.5 0 0 1-.5-.5Zm10 10a.5.5 0 0 1-1 0V11a2.998 2.998 0 1 1 0-6h3.5a.5.5 0 0 1 0 1H14v7.5a.5.5 0 0 1-1 0V6h-1v7.5ZM2.5 6h5.035a3.97 3.97 0 0 0-.409 1H2.5a.5.5 0 0 1 0-1Zm5.035 4a3.975 3.975 0 0 1-.409-1H2.5a.5.5 0 0 0 0 1h5.035Z"></path></svg>