<svg xmlns="http://www.w3.org/2000/svg" xmlns:xlink="http://www.w3.org/1999/xlink" aria-hidden="true" role="img" class="iconify iconify--fluent" width="1em" height="1em" preserveAspectRatio="xMidYMid meet" viewBox="0 0 24 24"><g fill="none"><path d="M18.25 13a.75.75 0 0 1 .75.75v7.5a.75.75 0 0 1-1.5 0v-7.5a.75.75 0 0 1 .75-.75zm-13-11a.75.75 0 0 1 .75.75v18.5a.75.75 0 0 1-1.5 0V2.75A.75.75 0 0 1 5.25 2zm7.25 11.75a.75.75 0 0 0-1.5 0v7.5a.75.75 0 0 0 1.5 0v-7.5z" fill="currentColor"></path></g></svg>