<svg xmlns="http://www.w3.org/2000/svg" xmlns:xlink="http://www.w3.org/1999/xlink" aria-hidden="true" role="img" class="iconify iconify--fluent" width="1em" height="1em" preserveAspectRatio="xMidYMid meet" viewBox="0 0 24 24"><path fill="currentColor" d="M3 6a1 1 0 0 1 1-1h6a1 1 0 1 1 0 2H4a1 1 0 0 1-1-1Zm0 4a1 1 0 0 1 1-1h6a1 1 0 1 1 0 2H4a1 1 0 0 1-1-1Zm0 4a1 1 0 0 1 1-1h6a1 1 0 1 1 0 2H4a1 1 0 0 1-1-1Zm0 4a1 1 0 0 1 1-1h6a1 1 0 1 1 0 2H4a1 1 0 0 1-1-1ZM13 6a1 1 0 0 1 1-1h6a1 1 0 1 1 0 2h-6a1 1 0 0 1-1-1Zm0 4a1 1 0 0 1 1-1h6a1 1 0 1 1 0 2h-6a1 1 0 0 1-1-1Zm0 4a1 1 0 0 1 1-1h6a1 1 0 1 1 0 2h-6a1 1 0 0 1-1-1Zm0 4a1 1 0 0 1 1-1h6a1 1 0 1 1 0 2h-6a1 1 0 0 1-1-1Z"></path></svg>