<svg xmlns="http://www.w3.org/2000/svg" xmlns:xlink="http://www.w3.org/1999/xlink" aria-hidden="true" role="img" class="iconify iconify--fluent" width="1em" height="1em" preserveAspectRatio="xMidYMid meet" viewBox="0 0 24 24"><path fill="currentColor" d="M5 5.75A.75.75 0 0 1 5.75 5h12.5a.75.75 0 0 1 0 1.5H5.75A.75.75 0 0 1 5 5.75Zm0 4A.75.75 0 0 1 5.75 9h12.5a.75.75 0 0 1 0 1.5H5.75A.75.75 0 0 1 5 9.75Zm0 4a.75.75 0 0 1 .75-.75h12.5a.75.75 0 0 1 0 1.5H5.75a.75.75 0 0 1-.75-.75Zm0 4a.75.75 0 0 1 .75-.75h12.5a.75.75 0 0 1 0 1.5H5.75a.75.75 0 0 1-.75-.75Z"></path></svg>