<svg xmlns="http://www.w3.org/2000/svg" xmlns:xlink="http://www.w3.org/1999/xlink" aria-hidden="true" role="img" class="iconify iconify--fluent" width="1em" height="1em" preserveAspectRatio="xMidYMid meet" viewBox="0 0 24 24"><path fill="currentColor" d="M12 20.5a1.5 1.5 0 1 1-3 0a1.5 1.5 0 0 1 3 0Zm5 0a1.5 1.5 0 1 1-3 0a1.5 1.5 0 0 1 3 0Zm5 0a1.5 1.5 0 1 1-3 0a1.5 1.5 0 0 1 3 0Zm-7.092-2.43l-1.166-2.845H5.886l-1.8 4.45c-.076.19-.185.35-.335.46a.862.862 0 0 1-.525.165c-.264 0-.5-.066-.667-.234a.931.931 0 0 1-.258-.6v-.091c0-.106.008-.207.035-.288l.004-.013l6.6-16.148a.985.985 0 0 1 .362-.468c.165-.11.36-.158.574-.158c.205 0 .39.061.543.188c.163.105.284.25.364.43l.003.006l6.454 15.78a2.492 2.492 0 0 0-2.332-.634Zm-8.286-4.72h6.356l-3.2-7.819l-3.156 7.819Z"></path></svg>