<svg xmlns="http://www.w3.org/2000/svg" xmlns:xlink="http://www.w3.org/1999/xlink" aria-hidden="true" role="img" class="iconify iconify--fluent" width="1em" height="1em" preserveAspectRatio="xMidYMid meet" viewBox="0 0 20 20"><path fill="currentColor" d="M3 4.5a1 1 0 1 0 0-2a1 1 0 0 0 0 2Zm3-1a.5.5 0 0 1 .5-.5h11a.5.5 0 0 1 0 1h-11a.5.5 0 0 1-.5-.5Zm0 5a.5.5 0 0 1 .5-.5h11a.5.5 0 0 1 0 1h-11a.5.5 0 0 1-.5-.5ZM9.022 14a5.48 5.48 0 0 1 .185-1H6.5a.5.5 0 0 0 0 1h2.522ZM4 13.5a1 1 0 1 1-2 0a1 1 0 0 1 2 0Zm-1-4a1 1 0 1 0 0-2a1 1 0 0 0 0 2Zm16 5a4.5 4.5 0 1 1-9 0a4.5 4.5 0 0 1 9 0Zm-4-2a.5.5 0 0 0-1 0V14h-1.5a.5.5 0 0 0 0 1H14v1.5a.5.5 0 0 0 1 0V15h1.5a.5.5 0 0 0 0-1H15v-1.5Z"></path></svg>