<svg xmlns="http://www.w3.org/2000/svg" xmlns:xlink="http://www.w3.org/1999/xlink" aria-hidden="true" role="img" class="iconify iconify--fluent" width="1em" height="1em" preserveAspectRatio="xMidYMid meet" viewBox="0 0 24 24"><g fill="none"><path d="M5.75 22a.75.75 0 0 1-.75-.75V5.75a.75.75 0 0 1 1.5 0v15.5a.75.75 0 0 1-.75.75zm13 0a.75.75 0 0 1-.75-.75v-10.5a.75.75 0 0 1 1.5 0v10.5a.75.75 0 0 1-.75.75zm-7.25-.75a.75.75 0 0 0 1.5 0V2.75a.75.75 0 0 0-1.5 0v18.5z" fill="currentColor"></path></g></svg>