<svg xmlns="http://www.w3.org/2000/svg" xmlns:xlink="http://www.w3.org/1999/xlink" aria-hidden="true" role="img" class="iconify iconify--fluent" width="1em" height="1em" preserveAspectRatio="xMidYMid meet" viewBox="0 0 20 20"><path fill="currentColor" d="M3.354 3.146a.5.5 0 1 0-.708.708L3.793 5L2.646 6.146a.5.5 0 1 0 .708.708l1.5-1.5a.5.5 0 0 0 0-.708l-1.5-1.5ZM7.5 4a.5.5 0 0 0 0 1h10a.5.5 0 0 0 0-1h-10Zm-5 10a.5.5 0 0 0 0 1h15a.5.5 0 0 0 0-1h-15ZM2 9.5a.5.5 0 0 1 .5-.5h15a.5.5 0 0 1 0 1h-15a.5.5 0 0 1-.5-.5Z"></path></svg>