<svg xmlns="http://www.w3.org/2000/svg" xmlns:xlink="http://www.w3.org/1999/xlink" aria-hidden="true" role="img" class="iconify iconify--fluent" width="1em" height="1em" preserveAspectRatio="xMidYMid meet" viewBox="0 0 20 20"><path fill="currentColor" d="M3.5 4a.5.5 0 0 0 0 1h13a.5.5 0 0 0 0-1h-13Zm4 10a.5.5 0 0 0 0 1h9a.5.5 0 0 0 0-1h-9ZM7 9.5a.5.5 0 0 1 .5-.5h9a.5.5 0 0 1 0 1h-9a.5.5 0 0 1-.5-.5Zm-2.146 2.146l-1.5-1.5a.5.5 0 0 0-.708.708L3.793 12l-1.147 1.146a.5.5 0 0 0 .708.708l1.5-1.5a.5.5 0 0 0 0-.708Z"></path></svg>