<svg xmlns="http://www.w3.org/2000/svg" xmlns:xlink="http://www.w3.org/1999/xlink" aria-hidden="true" role="img" class="iconify iconify--fluent" width="1em" height="1em" preserveAspectRatio="xMidYMid meet" viewBox="0 0 20 20"><path fill="currentColor" d="M5 3a2 2 0 0 0-2 2v10a2 2 0 0 0 2 2h2.05a2.5 2.5 0 0 1 4.45-2c.456-.607 1.182-1 2-1c.818 0 1.544.393 2 1a2.5 2.5 0 0 1 1.5-.95V5a2 2 0 0 0-2-2H5Zm1.5 3h7a.5.5 0 0 1 0 1h-7a.5.5 0 0 1 0-1ZM6 12.5a.5.5 0 0 1 .5-.5h7a.5.5 0 0 1 0 1h-7a.5.5 0 0 1-.5-.5ZM6.4 9h4a.5.5 0 0 1 0 1h-4a.5.5 0 0 1 0-1Zm9.6 7.5a1.5 1.5 0 1 0 3 0a1.5 1.5 0 0 0-3 0ZM13.5 15a1.5 1.5 0 1 1 0 3a1.5 1.5 0 0 1 0-3ZM11 16.5a1.5 1.5 0 1 0-3 0a1.5 1.5 0 0 0 3 0Z"></path></svg>