<svg xmlns="http://www.w3.org/2000/svg" xmlns:xlink="http://www.w3.org/1999/xlink" aria-hidden="true" role="img" class="iconify iconify--fluent" width="1em" height="1em" preserveAspectRatio="xMidYMid meet" viewBox="0 0 16 16"><path fill="currentColor" d="M14 4.5a1 1 0 1 1 0-2a1 1 0 0 1 0 2ZM14 9a1 1 0 1 1 0-2a1 1 0 0 1 0 2Zm-1 3.5a1 1 0 1 0 2 0a1 1 0 0 0-2 0ZM10.5 3a.5.5 0 0 1 0 1h-9a.5.5 0 0 1 0-1h9Zm.5 5a.5.5 0 0 0-.5-.5h-9a.5.5 0 0 0 0 1h9A.5.5 0 0 0 11 8Zm-.5 4a.5.5 0 0 1 0 1h-9a.5.5 0 0 1 0-1h9Z"></path></svg>