<svg xmlns="http://www.w3.org/2000/svg" xmlns:xlink="http://www.w3.org/1999/xlink" aria-hidden="true" role="img" class="iconify iconify--fluent" width="1em" height="1em" preserveAspectRatio="xMidYMid meet" viewBox="0 0 24 24"><path fill="currentColor" d="M12.25 12.25A4.25 4.25 0 0 1 16.5 8h4.75a.75.75 0 0 1 0 1.5H21v11.75a.75.75 0 0 1-1.5 0V9.5h-1v11.75a.75.75 0 0 1-1.5 0V16.5h-.5a4.25 4.25 0 0 1-4.25-4.25ZM2 5.75A.75.75 0 0 1 2.75 5h18.5a.75.75 0 0 1 0 1.5H2.75A.75.75 0 0 1 2 5.75Zm0 5a.75.75 0 0 1 .75-.75h9.005a5.23 5.23 0 0 0-.452 1.5H2.75a.75.75 0 0 1-.75-.75ZM2.75 15h9.277a5.278 5.278 0 0 0 1.39 1.5H2.75a.75.75 0 0 1 0-1.5Z"></path></svg>