<svg xmlns="http://www.w3.org/2000/svg" xmlns:xlink="http://www.w3.org/1999/xlink" aria-hidden="true" role="img" class="iconify iconify--fluent" width="1em" height="1em" preserveAspectRatio="xMidYMid meet" viewBox="0 0 20 20"><path fill="currentColor" d="M3.25 5a1.25 1.25 0 1 0 0-2.5a1.25 1.25 0 0 0 0 2.5ZM7 3.75A.75.75 0 0 1 7.75 3h9.5a.75.75 0 0 1 0 1.5h-9.5A.75.75 0 0 1 7 3.75ZM7.75 8a.75.75 0 0 0 0 1.5h4.456A5.48 5.48 0 0 1 14.5 9a5.48 5.48 0 0 1 2.294.5h.456a.75.75 0 0 0 0-1.5h-9.5Zm0 5h1.457A5.5 5.5 0 0 0 9 14.5H7.75a.75.75 0 0 1 0-1.5ZM4.5 8.75a1.25 1.25 0 1 1-2.5 0a1.25 1.25 0 0 1 2.5 0ZM3.25 15a1.25 1.25 0 1 0 0-2.5a1.25 1.25 0 0 0 0 2.5ZM19 14.5a4.5 4.5 0 1 1-9 0a4.5 4.5 0 0 1 9 0Zm-4-2a.5.5 0 0 0-1 0V14h-1.5a.5.5 0 0 0 0 1H14v1.5a.5.5 0 0 0 1 0V15h1.5a.5.5 0 0 0 0-1H15v-1.5Z"></path></svg>