<svg xmlns="http://www.w3.org/2000/svg" xmlns:xlink="http://www.w3.org/1999/xlink" aria-hidden="true" role="img" class="iconify iconify--fluent" width="1em" height="1em" preserveAspectRatio="xMidYMid meet" viewBox="0 0 16 16"><path fill="currentColor" d="M2.5 3a.5.5 0 0 0 0 1h11a.5.5 0 0 0 0-1h-11Zm9 11a.5.5 0 0 0 .5-.5V6h1v7.5a.5.5 0 0 0 1 0V6h.5a.5.5 0 0 0 0-1H11a2.998 2.998 0 1 0 0 6v2.5a.5.5 0 0 0 .5.5ZM10 6.268A1.99 1.99 0 0 1 11 6v4a1.99 1.99 0 0 1-1.732-1A1.99 1.99 0 0 1 9 8a1.99 1.99 0 0 1 1-1.732ZM7.535 6H2.5a.5.5 0 0 0 0 1h4.626c.091-.355.23-.69.41-1Zm-.409 3c.091.355.23.69.41 1H2.5a.5.5 0 0 1 0-1h4.626Z"></path></svg>