<svg xmlns="http://www.w3.org/2000/svg" xmlns:xlink="http://www.w3.org/1999/xlink" aria-hidden="true" role="img" class="iconify iconify--fluent" width="1em" height="1em" preserveAspectRatio="xMidYMid meet" viewBox="0 0 24 24"><path fill="currentColor" d="M3.78 3.22a.75.75 0 0 0-1.06 1.06l1.47 1.47l-1.47 1.47a.75.75 0 0 0 1.06 1.06l2-2a.75.75 0 0 0 0-1.06l-2-2ZM9.75 5a.75.75 0 0 0 0 1.5h11.5a.75.75 0 0 0 0-1.5H9.75Zm-7 13a.75.75 0 0 0 0 1.5h18.5a.75.75 0 0 0 0-1.5H2.75ZM2 12.25a.75.75 0 0 1 .75-.75h18.5a.75.75 0 0 1 0 1.5H2.75a.75.75 0 0 1-.75-.75Z"></path></svg>