<svg xmlns="http://www.w3.org/2000/svg" xmlns:xlink="http://www.w3.org/1999/xlink" aria-hidden="true" role="img" class="iconify iconify--fluent" width="1em" height="1em" preserveAspectRatio="xMidYMid meet" viewBox="0 0 24 24"><g fill="none"><path d="M5.75 4a.75.75 0 0 0-.75.75v14.5a.75.75 0 0 0 1.5 0V4.75A.75.75 0 0 0 5.75 4zm13 2a.75.75 0 0 0-.75.75v10.5a.75.75 0 0 0 1.5 0V6.75a.75.75 0 0 0-.75-.75zM11.5 2.75a.75.75 0 0 1 1.5 0v18.5a.75.75 0 0 1-1.5 0V2.75z" fill="currentColor"></path></g></svg>