<svg xmlns="http://www.w3.org/2000/svg" xmlns:xlink="http://www.w3.org/1999/xlink" aria-hidden="true" role="img" class="iconify iconify--fluent" width="1em" height="1em" preserveAspectRatio="xMidYMid meet" viewBox="0 0 24 24"><path fill="currentColor" d="M3 5a1 1 0 0 0 0 2h18a1 1 0 1 0 0-2H3Zm7 12a1 1 0 1 0 0 2h11a1 1 0 1 0 0-2H10Zm-1-5a1 1 0 0 1 1-1h11a1 1 0 1 1 0 2H10a1 1 0 0 1-1-1Zm-4.293 1.293a1 1 0 0 0-1.414 1.414L4.586 16l-1.293 1.293a1 1 0 1 0 1.414 1.414l2-2a1 1 0 0 0 0-1.414l-2-2Z"></path></svg>