<svg xmlns="http://www.w3.org/2000/svg" xmlns:xlink="http://www.w3.org/1999/xlink" aria-hidden="true" role="img" class="iconify iconify--fluent" width="1em" height="1em" preserveAspectRatio="xMidYMid meet" viewBox="0 0 16 16"><path fill="currentColor" d="M2 4.5a2 2 0 0 1 2-2h5a2 2 0 0 1 2 2V5l1.8-1.35a.75.75 0 0 1 1.2.6v2.007a5.507 5.507 0 0 0-1-.657v-.85l-.724.543A5.494 5.494 0 0 0 10 5.023V4.5a1 1 0 0 0-1-1H4a1 1 0 0 0-1 1v5a1 1 0 0 0 1 1h1c0 .341.031.676.09 1H4a2 2 0 0 1-2-2v-5Zm4 6a4.5 4.5 0 1 0 9 0a4.5 4.5 0 0 0-9 0Zm2.404 2.803l4.9-4.9a3.5 3.5 0 0 1-4.9 4.9Zm-.707-.707a3.5 3.5 0 0 1 4.9-4.9l-4.9 4.9Z"></path></svg>