<svg xmlns="http://www.w3.org/2000/svg" xmlns:xlink="http://www.w3.org/1999/xlink" aria-hidden="true" role="img" class="iconify iconify--fluent" width="1em" height="1em" preserveAspectRatio="xMidYMid meet" viewBox="0 0 16 16"><path fill="currentColor" d="M8 2.5a2 2 0 0 1 2 2v.522A5.5 5.5 0 0 0 5.09 11.5H4a2 2 0 0 1-2-2v-5a2 2 0 0 1 2-2h4Zm6 3.757V4.241a.75.75 0 0 0-1.266-.545l-1.437 1.361A5.476 5.476 0 0 1 14 6.257ZM6 10.5a4.5 4.5 0 1 0 9 0a4.5 4.5 0 0 0-9 0Zm2.404 2.803l4.9-4.9a3.5 3.5 0 0 1-4.9 4.9Zm-.707-.707a3.5 3.5 0 0 1 4.9-4.9l-4.9 4.9Z"></path></svg>