<svg xmlns="http://www.w3.org/2000/svg" xmlns:xlink="http://www.w3.org/1999/xlink" aria-hidden="true" role="img" class="iconify iconify--fluent" width="1em" height="1em" preserveAspectRatio="xMidYMid meet" viewBox="0 0 28 28"><g fill="currentColor"><path d="M7.5 14a2 2 0 1 1 4 0a2 2 0 0 1-4 0Zm9 0a2 2 0 1 1 4 0a2 2 0 0 1-4 0Z"></path><path d="M5.754 3.998a3.75 3.75 0 0 0-3.75 3.75v12.5a3.75 3.75 0 0 0 3.75 3.75H22.25a3.75 3.75 0 0 0 3.75-3.75v-12.5a3.75 3.75 0 0 0-3.75-3.75H5.755ZM12.373 12A3.5 3.5 0 1 1 9.5 10.5h9a3.5 3.5 0 1 1-2.873 1.5h-3.254Z"></path></g></svg>