<svg xmlns="http://www.w3.org/2000/svg" xmlns:xlink="http://www.w3.org/1999/xlink" aria-hidden="true" role="img" class="iconify iconify--fluent" width="1em" height="1em" preserveAspectRatio="xMidYMid meet" viewBox="0 0 20 20"><path fill="currentColor" d="M14.5 11h-1a.5.5 0 0 0 0 1h1a.5.5 0 0 0 0-1Zm-10-8A1.5 1.5 0 0 0 3 4.5v10A2.5 2.5 0 0 0 5.5 17h10a1.5 1.5 0 0 0 1.5-1.5v-9a1.5 1.5 0 0 0-1-1.415V4.5A1.5 1.5 0 0 0 14.5 3h-10ZM4 14.5V5.915c.156.055.325.085.5.085h11a.5.5 0 0 1 .5.5v9a.5.5 0 0 1-.5.5h-10A1.5 1.5 0 0 1 4 14.5ZM4.5 4h10a.5.5 0 0 1 .5.5V5H4.5a.5.5 0 0 1 0-1Z"></path></svg>