<svg xmlns="http://www.w3.org/2000/svg" xmlns:xlink="http://www.w3.org/1999/xlink" aria-hidden="true" role="img" class="iconify iconify--fluent" width="1em" height="1em" preserveAspectRatio="xMidYMid meet" viewBox="0 0 20 20"><path fill="currentColor" d="M8.686 2.852L2.127 14.777A1.5 1.5 0 0 0 3.441 17H16.56a1.5 1.5 0 0 0 1.314-2.223l-6.56-11.925a1.5 1.5 0 0 0-2.628 0ZM10 6.75a.75.75 0 0 1 .75.75v4a.75.75 0 0 1-1.5 0v-4a.75.75 0 0 1 .75-.75Zm.75 7a.75.75 0 1 1-1.5 0a.75.75 0 0 1 1.5 0Z"></path></svg>