<svg xmlns="http://www.w3.org/2000/svg" xmlns:xlink="http://www.w3.org/1999/xlink" aria-hidden="true" role="img" class="iconify iconify--fluent" width="1em" height="1em" preserveAspectRatio="xMidYMid meet" viewBox="0 0 16 16"><path fill="currentColor" d="m2.564 12.257l5.001-9a.5.5 0 0 1 .82-.078l.054.078l5.002 9a.5.5 0 0 1-.352.736l-.085.007H3a.5.5 0 0 1-.473-.665l.036-.078l5.001-9l-5.001 9Zm5.438-2.38a.75.75 0 1 0 0 1.5a.75.75 0 0 0 0-1.5Zm0-3a.625.625 0 0 0-.619.533l-.006.092l-.001.998l.006.092a.625.625 0 0 0 1.237 0l.007-.092v-.997l-.006-.092a.625.625 0 0 0-.618-.533Z"></path></svg>