<svg xmlns="http://www.w3.org/2000/svg" xmlns:xlink="http://www.w3.org/1999/xlink" aria-hidden="true" role="img" class="iconify iconify--clarity" width="1em" height="1em" preserveAspectRatio="xMidYMid meet" viewBox="0 0 36 36" data-icon="clarity:align-center-line"><path fill="currentColor" d="M31 20H19v-4h6a1 1 0 0 0 1-1V7a1 1 0 0 0-1-1h-6V2a1 1 0 0 0-2 0v4h-6a1 1 0 0 0-1 1v8a1 1 0 0 0 1 1h6v4H5a1 1 0 0 0-1 1v8a1 1 0 0 0 1 1h12v4a1 1 0 0 0 2 0v-4h12a1 1 0 0 0 1-1v-8a1 1 0 0 0-1-1Zm-19-6V8h12v6Zm18 14H6v-6h24Z" class="clr-i-outline clr-i-outline-path-1"></path><path fill="none" d="M0 0h36v36H0z"></path></svg>