<svg xmlns="http://www.w3.org/2000/svg" xmlns:xlink="http://www.w3.org/1999/xlink" aria-hidden="true" role="img" class="iconify iconify--clarity" width="1em" height="1em" preserveAspectRatio="xMidYMid meet" viewBox="0 0 36 36" data-icon="clarity:align-right-line"><path fill="currentColor" d="M31 1a1 1 0 0 0-1 1v32a1 1 0 0 0 2 0V2a1 1 0 0 0-1-1Z" class="clr-i-outline clr-i-outline-path-1"></path><path fill="currentColor" d="M4 21v8a1 1 0 0 0 1 1h23V20H5a1 1 0 0 0-1 1Zm2 1h20v6H6Z" class="clr-i-outline clr-i-outline-path-2"></path><path fill="currentColor" d="M12 7v8a1 1 0 0 0 1 1h15V6H13a1 1 0 0 0-1 1Zm2 1h12v6H14Z" class="clr-i-outline clr-i-outline-path-3"></path><path fill="none" d="M0 0h36v36H0z"></path></svg>