<svg xmlns="http://www.w3.org/2000/svg" xmlns:xlink="http://www.w3.org/1999/xlink" aria-hidden="true" role="img" class="iconify iconify--clarity" width="1em" height="1em" preserveAspectRatio="xMidYMid meet" viewBox="0 0 36 36" data-icon="clarity:align-middle-line"><path fill="currentColor" d="M34 17h-4v-6a1 1 0 0 0-1-1h-8a1 1 0 0 0-1 1v6h-4V5a1 1 0 0 0-1-1H7a1 1 0 0 0-1 1v12H2a1 1 0 0 0 0 2h4v12a1 1 0 0 0 1 1h8a1 1 0 0 0 1-1V19h4v6a1 1 0 0 0 1 1h8a1 1 0 0 0 1-1v-6h4a1 1 0 0 0 0-2ZM14 30H8V6h6Zm14-6h-6V12h6Z" class="clr-i-outline clr-i-outline-path-1"></path><path fill="none" d="M0 0h36v36H0z"></path></svg>