<svg xmlns="http://www.w3.org/2000/svg" xmlns:xlink="http://www.w3.org/1999/xlink" aria-hidden="true" role="img" class="iconify iconify--clarity" width="1em" height="1em" preserveAspectRatio="xMidYMid meet" viewBox="0 0 36 36" data-icon="clarity:applications-line"><path fill="currentColor" d="M8 8H4v2h6V4H8v4z" class="clr-i-outline clr-i-outline-path-1"></path><path fill="currentColor" d="M19 8h-4v2h6V4h-2v4z" class="clr-i-outline clr-i-outline-path-2"></path><path fill="currentColor" d="M30 4v4h-4v2h6V4h-2z" class="clr-i-outline clr-i-outline-path-3"></path><path fill="currentColor" d="M8 19H4v2h6v-6H8v4z" class="clr-i-outline clr-i-outline-path-4"></path><path fill="currentColor" d="M19 19h-4v2h6v-6h-2v4z" class="clr-i-outline clr-i-outline-path-5"></path><path fill="currentColor" d="M30 19h-4v2h6v-6h-2v4z" class="clr-i-outline clr-i-outline-path-6"></path><path fill="currentColor" d="M8 30H4v2h6v-6H8v4z" class="clr-i-outline clr-i-outline-path-7"></path><path fill="currentColor" d="M19 30h-4v2h6v-6h-2v4z" class="clr-i-outline clr-i-outline-path-8"></path><path fill="currentColor" d="M30 30h-4v2h6v-6h-2v4z" class="clr-i-outline clr-i-outline-path-9"></path><path fill="none" d="M0 0h36v36H0z"></path></svg>