<svg xmlns="http://www.w3.org/2000/svg" xmlns:xlink="http://www.w3.org/1999/xlink" aria-hidden="true" role="img" class="iconify iconify--clarity" width="1em" height="1em" preserveAspectRatio="xMidYMid meet" viewBox="0 0 36 36" data-icon="clarity:application-line"><path fill="currentColor" d="M5 7h2v2H5z" class="clr-i-outline clr-i-outline-path-1"></path><path fill="currentColor" d="M9 7h2v2H9z" class="clr-i-outline clr-i-outline-path-2"></path><path fill="currentColor" d="M13 7h2v2h-2z" class="clr-i-outline clr-i-outline-path-3"></path><path fill="currentColor" d="M32 4H4a2 2 0 0 0-2 2v24a2 2 0 0 0 2 2h28a2 2 0 0 0 2-2V6a2 2 0 0 0-2-2ZM4 6h28v4.2H4Zm0 24V11.8h28V30Z" class="clr-i-outline clr-i-outline-path-4"></path><path fill="none" d="M0 0h36v36H0z"></path></svg>