<svg xmlns="http://www.w3.org/2000/svg" xmlns:xlink="http://www.w3.org/1999/xlink" aria-hidden="true" role="img" class="iconify iconify--clarity" width="1em" height="1em" preserveAspectRatio="xMidYMid meet" viewBox="0 0 36 36" data-icon="clarity:axis-chart-solid"><path fill="currentColor" d="M34 7v22a2 2 0 0 1-2 2H4a2 2 0 0 1-2-2V7a2 2 0 0 1 2-2h28a2 2 0 0 1 2 2ZM6.007 26.731l21.723-.001c.76-.06 1.18-.93.74-1.56a.974.974 0 0 0-.74-.43l-19.729-.004l.009-13.726c0-.78-.84-1.26-1.51-.87c-.31.17-.5.51-.5.87Z" class="clr-i-solid clr-i-solid-path-1"></path><path fill="none" d="M0 0h36v36H0z"></path></svg>