<svg xmlns="http://www.w3.org/2000/svg" xmlns:xlink="http://www.w3.org/1999/xlink" aria-hidden="true" role="img" class="iconify iconify--clarity" width="1em" height="1em" preserveAspectRatio="xMidYMid meet" viewBox="0 0 36 36" data-icon="clarity:bar-code-line"><path fill="currentColor" d="M5 7a1 1 0 0 0-1 1v22a1 1 0 0 0 2 0V8a1 1 0 0 0-1-1Z" class="clr-i-outline clr-i-outline-path-1"></path><path fill="currentColor" d="M9 7a1 1 0 0 0-1 1v18a1 1 0 0 0 2 0V8a1 1 0 0 0-1-1Z" class="clr-i-outline clr-i-outline-path-2"></path><path fill="currentColor" d="M13 7a1 1 0 0 0-1 1v18a1 1 0 0 0 2 0V8a1 1 0 0 0-1-1Z" class="clr-i-outline clr-i-outline-path-3"></path><path fill="currentColor" d="M17 7a1 1 0 0 0-1 1v18a1 1 0 0 0 2 0V8a1 1 0 0 0-1-1Z" class="clr-i-outline clr-i-outline-path-4"></path><path fill="currentColor" d="M21 7a1 1 0 0 0-1 1v18a1 1 0 0 0 2 0V8a1 1 0 0 0-1-1Z" class="clr-i-outline clr-i-outline-path-5"></path><path fill="currentColor" d="M25 7a1 1 0 0 0-1 1v18a1 1 0 0 0 2 0V8a1 1 0 0 0-1-1Z" class="clr-i-outline clr-i-outline-path-6"></path><path fill="currentColor" d="M29 7a1 1 0 0 0-1 1v18a1 1 0 0 0 2 0V8a1 1 0 0 0-1-1Z" class="clr-i-outline clr-i-outline-path-7"></path><path fill="currentColor" d="M33 7a1 1 0 0 0-1 1v22a1 1 0 0 0 2 0V8a1 1 0 0 0-1-1Z" class="clr-i-outline clr-i-outline-path-8"></path><path fill="none" d="M0 0h36v36H0z"></path></svg>