<svg xmlns="http://www.w3.org/2000/svg" xmlns:xlink="http://www.w3.org/1999/xlink" aria-hidden="true" role="img" class="iconify iconify--clarity" width="1em" height="1em" preserveAspectRatio="xMidYMid meet" viewBox="0 0 36 36" data-icon="clarity:bar-chart-line"><path fill="currentColor" d="M32 5H4a2 2 0 0 0-2 2v22a2 2 0 0 0 2 2h28a2 2 0 0 0 2-2V7a2 2 0 0 0-2-2ZM4 29V7h28v22Z" class="clr-i-outline clr-i-outline-path-1"></path><path fill="currentColor" d="M7 10h6v16h-1.6V11.6H8.6V26H7Z" class="clr-i-outline clr-i-outline-path-2"></path><path fill="currentColor" d="M15 19h6v7h-1.6v-5.4h-2.8V26H15Z" class="clr-i-outline clr-i-outline-path-3"></path><path fill="currentColor" d="M23 16h6v10h-1.6v-8.4h-2.8V26H23Z" class="clr-i-outline clr-i-outline-path-4"></path><path fill="none" d="M0 0h36v36H0z"></path></svg>