<svg xmlns="http://www.w3.org/2000/svg" xmlns:xlink="http://www.w3.org/1999/xlink" aria-hidden="true" role="img" class="iconify iconify--clarity" width="1em" height="1em" preserveAspectRatio="xMidYMid meet" viewBox="0 0 36 36" data-icon="clarity:bubble-chart-solid"><path fill="currentColor" d="M34 7v22a2 2 0 0 1-2 2H4a2 2 0 0 1-2-2V7a2 2 0 0 1 2-2h28a2 2 0 0 1 2 2Zm-23 3a4 4 0 1 0 0 8a4 4 0 0 0 0-8Zm15 5a3 3 0 1 0 0 6a3 3 0 0 0 0-6Zm-8 5a3 3 0 1 0 0 6a3 3 0 0 0 0-6Z" class="clr-i-solid clr-i-solid-path-1"></path><path fill="none" d="M0 0h36v36H0z"></path></svg>