<svg xmlns="http://www.w3.org/2000/svg" xmlns:xlink="http://www.w3.org/1999/xlink" aria-hidden="true" role="img" class="iconify iconify--clarity" width="1em" height="1em" preserveAspectRatio="xMidYMid meet" viewBox="0 0 36 36" data-icon="clarity:calculator-solid"><path fill="currentColor" d="M28 2H8a2 2 0 0 0-2 2v28a2 2 0 0 0 2 2h20a2 2 0 0 0 2-2V4a2 2 0 0 0-2-2ZM12 28h-2v-2h2Zm0-6h-2v-2h2Zm0-6h-2v-2h2Zm7 12h-2v-2h2Zm0-6h-2v-2h2Zm0-6h-2v-2h2Zm7 12h-2v-2h2Zm0-6h-2v-2h2Zm0-6h-2v-2h2Zm0-7H10V5h16Z" class="clr-i-solid clr-i-solid-path-1"></path><path fill="none" d="M0 0h36v36H0z"></path></svg>