<svg xmlns="http://www.w3.org/2000/svg" xmlns:xlink="http://www.w3.org/1999/xlink" aria-hidden="true" role="img" class="iconify iconify--clarity" width="1em" height="1em" preserveAspectRatio="xMidYMid meet" viewBox="0 0 36 36"><path fill="currentColor" d="M32 6H4a2 2 0 0 0-2 2v20a2 2 0 0 0 2 2h28a2 2 0 0 0 2-2V8a2 2 0 0 0-2-2ZM19 22H9a1 1 0 0 1 0-2h10a1 1 0 0 1 0 2Zm8-4H9a1 1 0 0 1 0-2h18a1 1 0 0 1 0 2Zm0-4H9a1 1 0 0 1 0-2h18a1 1 0 0 1 0 2Z" class="clr-i-solid clr-i-solid-path-1"></path><path fill="none" d="M0 0h36v36H0z"></path></svg>