<svg xmlns="http://www.w3.org/2000/svg" xmlns:xlink="http://www.w3.org/1999/xlink" aria-hidden="true" role="img" class="iconify iconify--clarity" width="1em" height="1em" preserveAspectRatio="xMidYMid meet" viewBox="0 0 36 36"><path fill="currentColor" d="M33 11H3a1 1 0 0 0 0 2h30a1 1 0 0 0 0-2Z" class="clr-i-outline clr-i-outline-path-1"></path><path fill="currentColor" d="M28 17H8a1 1 0 0 0 0 2h20a1 1 0 0 0 0-2Z" class="clr-i-outline clr-i-outline-path-2"></path><path fill="currentColor" d="M23 23H13a1 1 0 0 0 0 2h10a1 1 0 0 0 0-2Z" class="clr-i-outline clr-i-outline-path-3"></path><path fill="none" d="M0 0h36v36H0z"></path></svg>