<svg xmlns="http://www.w3.org/2000/svg" xmlns:xlink="http://www.w3.org/1999/xlink" aria-hidden="true" role="img" class="iconify iconify--clarity" width="1em" height="1em" preserveAspectRatio="xMidYMid meet" viewBox="0 0 36 36"><path fill="currentColor" d="M27.36 4H6a2 2 0 0 0-2 2v24a2 2 0 0 0 2 2h24a2 2 0 0 0 2-2V8.78ZM26 30H10v-8.5a1.5 1.5 0 0 1 1.5-1.5h13a1.5 1.5 0 0 1 1.5 1.5Zm-2-16H12a2 2 0 0 1-2-2V6h2v6h14a2 2 0 0 1-2 2Z" class="clr-i-solid clr-i-solid-path-1"></path><path fill="none" d="M0 0h36v36H0z"></path></svg>