<svg xmlns="http://www.w3.org/2000/svg" xmlns:xlink="http://www.w3.org/1999/xlink" aria-hidden="true" role="img" class="iconify iconify--clarity" width="1em" height="1em" preserveAspectRatio="xMidYMid meet" viewBox="0 0 36 36"><path fill="currentColor" d="M15 17H4a2 2 0 0 1-2-2V8a2 2 0 0 1 2-2h11a2 2 0 0 1 2 2v7a2 2 0 0 1-2 2Z" class="clr-i-solid clr-i-solid-path-1"></path><path fill="currentColor" d="M32 17H21a2 2 0 0 1-2-2V8a2 2 0 0 1 2-2h11a2 2 0 0 1 2 2v7a2 2 0 0 1-2 2Z" class="clr-i-solid clr-i-solid-path-2"></path><path fill="currentColor" d="M15 30H4a2 2 0 0 1-2-2v-7a2 2 0 0 1 2-2h11a2 2 0 0 1 2 2v7a2 2 0 0 1-2 2Z" class="clr-i-solid clr-i-solid-path-3"></path><path fill="currentColor" d="M32 30H21a2 2 0 0 1-2-2v-7a2 2 0 0 1 2-2h11a2 2 0 0 1 2 2v7a2 2 0 0 1-2 2Z" class="clr-i-solid clr-i-solid-path-4"></path><path fill="none" d="M0 0h36v36H0z"></path></svg>