<svg xmlns="http://www.w3.org/2000/svg" xmlns:xlink="http://www.w3.org/1999/xlink" aria-hidden="true" role="img" class="iconify iconify--clarity" width="1em" height="1em" preserveAspectRatio="xMidYMid meet" viewBox="0 0 36 36"><path fill="currentColor" d="M18 2a16 16 0 1 0 16 16A16 16 0 0 0 18 2Zm0 30a14 14 0 1 1 14-14a14 14 0 0 1-14 14Z" class="clr-i-outline clr-i-outline-path-1"></path><circle cx="10.89" cy="13.89" r="2" fill="currentColor" class="clr-i-outline clr-i-outline-path-2"></circle><circle cx="25.05" cy="13.89" r="2" fill="currentColor" class="clr-i-outline clr-i-outline-path-3"></circle><path fill="currentColor" d="M18.13 28.21a8.67 8.67 0 0 0 8.26-6H9.87a8.67 8.67 0 0 0 8.26 6Z" class="clr-i-outline clr-i-outline-path-4"></path><path fill="none" d="M0 0h36v36H0z"></path></svg>