<svg xmlns="http://www.w3.org/2000/svg" xmlns:xlink="http://www.w3.org/1999/xlink" aria-hidden="true" role="img" class="iconify iconify--clarity" width="1em" height="1em" preserveAspectRatio="xMidYMid meet" viewBox="0 0 36 36"><path fill="currentColor" d="M31.06 9h-26a1 1 0 1 1 0-2h26a1 1 0 1 1 0 2Z" class="clr-i-outline clr-i-outline-path-1"></path><path fill="currentColor" d="M31.06 14h-17a1 1 0 0 1 0-2h17a1 1 0 1 1 0 2Z" class="clr-i-outline clr-i-outline-path-2"></path><path fill="currentColor" d="M31.06 19h-17a1 1 0 0 1 0-2h17a1 1 0 1 1 0 2Z" class="clr-i-outline clr-i-outline-path-3"></path><path fill="currentColor" d="M31.06 24h-17a1 1 0 0 1 0-2h17a1 1 0 1 1 0 2Z" class="clr-i-outline clr-i-outline-path-4"></path><path fill="currentColor" d="M31.06 29h-26a1 1 0 0 1 0-2h26a1 1 0 1 1 0 2Z" class="clr-i-outline clr-i-outline-path-5"></path><path fill="currentColor" d="M5.56 22.54a1 1 0 0 1-.7-1.71L7.68 18l-2.82-2.83a1 1 0 0 1 0-1.41a1 1 0 0 1 1.41 0L10.51 18l-4.24 4.24a1 1 0 0 1-.71.3Z" class="clr-i-outline clr-i-outline-path-6"></path><path fill="none" d="M0 0h36v36H0z"></path></svg>