<svg xmlns="http://www.w3.org/2000/svg" xmlns:xlink="http://www.w3.org/1999/xlink" aria-hidden="true" role="img" class="iconify iconify--clarity" width="1em" height="1em" preserveAspectRatio="xMidYMid meet" viewBox="0 0 36 36"><circle cx="17.93" cy="11.9" r="1.4" fill="currentColor" class="clr-i-outline clr-i-outline-path-1"></circle><path fill="currentColor" d="M21 23h-2v-8h-3a1 1 0 0 0 0 2h1v6h-2a1 1 0 1 0 0 2h6a1 1 0 0 0 0-2Z" class="clr-i-outline clr-i-outline-path-2"></path><path fill="currentColor" d="M18 6a12 12 0 1 0 12 12A12 12 0 0 0 18 6Zm0 22a10 10 0 1 1 10-10a10 10 0 0 1-10 10Z" class="clr-i-outline clr-i-outline-path-3"></path><path fill="none" d="M0 0h36v36H0z"></path></svg>