<svg xmlns="http://www.w3.org/2000/svg" xmlns:xlink="http://www.w3.org/1999/xlink" aria-hidden="true" role="img" class="iconify iconify--clarity" width="1em" height="1em" preserveAspectRatio="xMidYMid meet" viewBox="0 0 36 36"><path fill="currentColor" d="M32 8H4a2 2 0 0 0-2 2v16a2 2 0 0 0 2 2h28a2 2 0 0 0 2-2V10a2 2 0 0 0-2-2Zm0 18H4V10h28Z" class="clr-i-outline clr-i-outline-path-1"></path><path fill="currentColor" d="M7 13h2v2H7z" class="clr-i-outline clr-i-outline-path-2"></path><path fill="currentColor" d="M11 13h2v2h-2z" class="clr-i-outline clr-i-outline-path-3"></path><path fill="currentColor" d="M15 13h2v2h-2z" class="clr-i-outline clr-i-outline-path-4"></path><path fill="currentColor" d="M19 13h2v2h-2z" class="clr-i-outline clr-i-outline-path-5"></path><path fill="currentColor" d="M23 13h2v2h-2z" class="clr-i-outline clr-i-outline-path-6"></path><path fill="currentColor" d="M27 13h2v2h-2z" class="clr-i-outline clr-i-outline-path-7"></path><path fill="currentColor" d="M7 17h2v2H7z" class="clr-i-outline clr-i-outline-path-8"></path><path fill="currentColor" d="M11 17h2v2h-2z" class="clr-i-outline clr-i-outline-path-9"></path><path fill="currentColor" d="M15 17h2v2h-2z" class="clr-i-outline clr-i-outline-path-10"></path><path fill="currentColor" d="M19 17h2v2h-2z" class="clr-i-outline clr-i-outline-path-11"></path><path fill="currentColor" d="M23 17h2v2h-2z" class="clr-i-outline clr-i-outline-path-12"></path><path fill="currentColor" d="M27 17h2v2h-2z" class="clr-i-outline clr-i-outline-path-13"></path><path fill="currentColor" d="M27 22h1.94v2H27z" class="clr-i-outline clr-i-outline-path-14"></path><path fill="currentColor" d="M7 22h2v2H7z" class="clr-i-outline clr-i-outline-path-15"></path><path fill="currentColor" d="M11.13 22h13.75v2H11.13z" class="clr-i-outline clr-i-outline-path-16"></path><path fill="none" d="M0 0h36v36H0z"></path></svg>