<svg xmlns="http://www.w3.org/2000/svg" xmlns:xlink="http://www.w3.org/1999/xlink" aria-hidden="true" role="img" class="iconify iconify--clarity" width="1em" height="1em" preserveAspectRatio="xMidYMid meet" viewBox="0 0 36 36"><path fill="currentColor" d="M34 29a2 2 0 0 1-2 2H4a2 2 0 0 1-2-2V7a2 2 0 0 1 2-2h17.958l-4.333 7.395c-.818 1.188-.054 2.802 1.375 2.95V17h8c0-.563-.058-1.113-.169-1.643H34Zm-9-10h-8v-8a8 8 0 1 0 8 8Z" class="clr-i-solid--alerted clr-i-solid-path-1--alerted"></path><path fill="currentColor" d="m26.854 1.144l-5.72 9.86a1.28 1.28 0 0 0 1.1 2h11.45a1.28 1.28 0 0 0 1.1-2l-5.72-9.86a1.28 1.28 0 0 0-2.21 0Z" class="clr-i-solid--alerted clr-i-solid-path-2--alerted clr-i-alert"></path><path fill="none" d="M0 0h36v36H0z"></path></svg>