<svg xmlns="http://www.w3.org/2000/svg" xmlns:xlink="http://www.w3.org/1999/xlink" aria-hidden="true" role="img" class="iconify iconify--clarity" width="1em" height="1em" preserveAspectRatio="xMidYMid meet" viewBox="0 0 36 36"><path fill="currentColor" d="M28.54 13H7.46a1 1 0 0 1 0-2h21.08a1 1 0 0 1 0 2Z" class="clr-i-outline clr-i-outline-path-1"></path><path fill="currentColor" d="M21.17 19H7.46a1 1 0 0 1 0-2h13.71a1 1 0 0 1 0 2Z" class="clr-i-outline clr-i-outline-path-2"></path><path fill="currentColor" d="M13.74 25H7.46a1 1 0 0 1 0-2h6.28a1 1 0 0 1 0 2Z" class="clr-i-outline clr-i-outline-path-3"></path><path fill="none" d="M0 0h36v36H0z"></path></svg>