<svg xmlns="http://www.w3.org/2000/svg" xmlns:xlink="http://www.w3.org/1999/xlink" aria-hidden="true" role="img" class="iconify iconify--clarity" width="1em" height="1em" preserveAspectRatio="xMidYMid meet" viewBox="0 0 36 36"><path fill="currentColor" d="M32 6H4a2 2 0 0 0-2 2v20a2 2 0 0 0 2 2h28a2 2 0 0 0 2-2V8a2 2 0 0 0-2-2Zm-2 18H6V12h24Z"></path><path fill="currentColor" d="M12.21 23a5 5 0 1 0-5-5a5 5 0 0 0 5 5Zm0-7a2 2 0 1 1-2 2a2 2 0 0 1 2-2Zm11.58 7a5 5 0 1 0-5-5a5 5 0 0 0 5 5Zm0-7a2 2 0 1 1-2 2a2 2 0 0 1 2-2Z"></path></svg>