<svg xmlns="http://www.w3.org/2000/svg" xmlns:xlink="http://www.w3.org/1999/xlink" aria-hidden="true" role="img" class="iconify iconify--clarity" width="1em" height="1em" preserveAspectRatio="xMidYMid meet" viewBox="0 0 36 36"><path fill="currentColor" d="M34 7v22a2 2 0 0 1-2 2H4a2 2 0 0 1-2-2V7a2 2 0 0 1 2-2h28a2 2 0 0 1 2 2ZM6 26.991l21.723-.001c.76-.06 1.18-.93.74-1.56a.974.974 0 0 0-.74-.43H25v-3h-2v3h-3v-3h-2v3h-3v-3h-2v3h-3v-3H8v3H6Z" class="clr-i-solid clr-i-solid-path-1"></path><path fill="none" d="M0 0h36v36H0z"></path></svg>