<svg xmlns="http://www.w3.org/2000/svg" xmlns:xlink="http://www.w3.org/1999/xlink" aria-hidden="true" role="img" class="iconify iconify--clarity" width="1em" height="1em" preserveAspectRatio="xMidYMid meet" viewBox="0 0 36 36"><path fill="currentColor" d="M32 5H4a2 2 0 0 0-2 2v22a2 2 0 0 0 2 2h28a2 2 0 0 0 2-2V7a2 2 0 0 0-2-2ZM4 29V7h28v22Z" class="clr-i-outline clr-i-outline-path-1"></path><path fill="currentColor" d="M6 25h2v-3h2v3h3v-3h2v3h3v-3h2v3h3v-3h2v3h2.723c.3.02.57.18.74.43c.44.63.02 1.5-.74 1.56L6 26.991Z" class="clr-i-outline clr-i-outline-path-2"></path><path fill="none" d="M0 0h36v36H0z"></path></svg>