<svg xmlns="http://www.w3.org/2000/svg" xmlns:xlink="http://www.w3.org/1999/xlink" aria-hidden="true" role="img" class="iconify iconify--clarity" width="1em" height="1em" preserveAspectRatio="xMidYMid meet" viewBox="0 0 36 36"><path fill="currentColor" d="M32.3 9.35L26 12.9V8a2 2 0 0 0-2-2H6a4 4 0 0 0-4 4v16a4 4 0 0 0 4 4h18a2 2 0 0 0 2-2v-4.92l6.3 3.55a1.1 1.1 0 0 0 1.7-.86V10.2a1.1 1.1 0 0 0-1.7-.85Z" class="clr-i-solid clr-i-solid-path-1"></path><path fill="none" d="M0 0h36v36H0z"></path></svg>