<svg xmlns="http://www.w3.org/2000/svg" xmlns:xlink="http://www.w3.org/1999/xlink" aria-hidden="true" role="img" class="iconify iconify--ant-design" width="1em" height="1em" preserveAspectRatio="xMidYMid meet" viewBox="0 0 1024 1024" data-icon="ant-design:align-center-outlined"><path fill="currentColor" d="M264 230h496c4.4 0 8-3.6 8-8v-56c0-4.4-3.6-8-8-8H264c-4.4 0-8 3.6-8 8v56c0 4.4 3.6 8 8 8zm496 424c4.4 0 8-3.6 8-8v-56c0-4.4-3.6-8-8-8H264c-4.4 0-8 3.6-8 8v56c0 4.4 3.6 8 8 8h496zm144 140H120c-4.4 0-8 3.6-8 8v56c0 4.4 3.6 8 8 8h784c4.4 0 8-3.6 8-8v-56c0-4.4-3.6-8-8-8zm0-424H120c-4.4 0-8 3.6-8 8v56c0 4.4 3.6 8 8 8h784c4.4 0 8-3.6 8-8v-56c0-4.4-3.6-8-8-8z"></path></svg>