<svg xmlns="http://www.w3.org/2000/svg" xmlns:xlink="http://www.w3.org/1999/xlink" aria-hidden="true" role="img" class="iconify iconify--bi" width="1em" height="1em" preserveAspectRatio="xMidYMid meet" viewBox="0 0 16 16" data-icon="bi:arrow-up-right-square-fill"><path fill="currentColor" d="M14 0a2 2 0 0 1 2 2v12a2 2 0 0 1-2 2H2a2 2 0 0 1-2-2V2a2 2 0 0 1 2-2h12zM5.904 10.803L10 6.707v2.768a.5.5 0 0 0 1 0V5.5a.5.5 0 0 0-.5-.5H6.525a.5.5 0 1 0 0 1h2.768l-4.096 4.096a.5.5 0 0 0 .707.707z"></path></svg>