<svg xmlns="http://www.w3.org/2000/svg" xmlns:xlink="http://www.w3.org/1999/xlink" aria-hidden="true" role="img" class="iconify iconify--bi" width="1em" height="1em" preserveAspectRatio="xMidYMid meet" viewBox="0 0 16 16" data-icon="bi:arrow-down-right-square-fill"><path fill="currentColor" d="M14 16a2 2 0 0 0 2-2V2a2 2 0 0 0-2-2H2a2 2 0 0 0-2 2v12a2 2 0 0 0 2 2h12zM5.904 5.197L10 9.293V6.525a.5.5 0 0 1 1 0V10.5a.5.5 0 0 1-.5.5H6.525a.5.5 0 0 1 0-1h2.768L5.197 5.904a.5.5 0 0 1 .707-.707z"></path></svg>