<svg xmlns="http://www.w3.org/2000/svg" xmlns:xlink="http://www.w3.org/1999/xlink" aria-hidden="true" role="img" class="iconify iconify--bi" width="1em" height="1em" preserveAspectRatio="xMidYMid meet" viewBox="0 0 16 16" data-icon="bi:arrow-down-left-square-fill"><path fill="currentColor" d="M2 16a2 2 0 0 1-2-2V2a2 2 0 0 1 2-2h12a2 2 0 0 1 2 2v12a2 2 0 0 1-2 2H2zm8.096-10.803L6 9.293V6.525a.5.5 0 0 0-1 0V10.5a.5.5 0 0 0 .5.5h3.975a.5.5 0 0 0 0-1H6.707l4.096-4.096a.5.5 0 1 0-.707-.707z"></path></svg>