<svg xmlns="http://www.w3.org/2000/svg" xmlns:xlink="http://www.w3.org/1999/xlink" aria-hidden="true" role="img" class="iconify iconify--bi" width="1em" height="1em" preserveAspectRatio="xMidYMid meet" viewBox="0 0 16 16" data-icon="bi:arrow-bar-right"><path fill="currentColor" fill-rule="evenodd" d="M6 8a.5.5 0 0 0 .5.5h5.793l-2.147 2.146a.5.5 0 0 0 .708.708l3-3a.5.5 0 0 0 0-.708l-3-3a.5.5 0 0 0-.708.708L12.293 7.5H6.5A.5.5 0 0 0 6 8zm-2.5 7a.5.5 0 0 1-.5-.5v-13a.5.5 0 0 1 1 0v13a.5.5 0 0 1-.5.5z"></path></svg>