<svg xmlns="http://www.w3.org/2000/svg" xmlns:xlink="http://www.w3.org/1999/xlink" aria-hidden="true" role="img" class="iconify iconify--bi" width="1em" height="1em" preserveAspectRatio="xMidYMid meet" viewBox="0 0 16 16" data-icon="bi:aspect-ratio-fill"><path fill="currentColor" d="M0 12.5v-9A1.5 1.5 0 0 1 1.5 2h13A1.5 1.5 0 0 1 16 3.5v9a1.5 1.5 0 0 1-1.5 1.5h-13A1.5 1.5 0 0 1 0 12.5zM2.5 4a.5.5 0 0 0-.5.5v3a.5.5 0 0 0 1 0V5h2.5a.5.5 0 0 0 0-1h-3zm11 8a.5.5 0 0 0 .5-.5v-3a.5.5 0 0 0-1 0V11h-2.5a.5.5 0 0 0 0 1h3z"></path></svg>