<svg xmlns="http://www.w3.org/2000/svg" xmlns:xlink="http://www.w3.org/1999/xlink" aria-hidden="true" role="img" class="iconify iconify--bi" width="1em" height="1em" preserveAspectRatio="xMidYMid meet" viewBox="0 0 16 16" data-icon="bi:asterisk"><path fill="currentColor" d="M8 0a1 1 0 0 1 1 1v5.268l4.562-2.634a1 1 0 1 1 1 1.732L10 8l4.562 2.634a1 1 0 1 1-1 1.732L9 9.732V15a1 1 0 1 1-2 0V9.732l-4.562 2.634a1 1 0 1 1-1-1.732L6 8L1.438 5.366a1 1 0 0 1 1-1.732L7 6.268V1a1 1 0 0 1 1-1z"></path></svg>