<svg xmlns="http://www.w3.org/2000/svg" xmlns:xlink="http://www.w3.org/1999/xlink" aria-hidden="true" role="img" class="iconify iconify--bi" width="1em" height="1em" preserveAspectRatio="xMidYMid meet" viewBox="0 0 16 16" data-icon="bi:bag-check-fill"><path fill="currentColor" fill-rule="evenodd" d="M10.5 3.5a2.5 2.5 0 0 0-5 0V4h5v-.5zm1 0V4H15v10a2 2 0 0 1-2 2H3a2 2 0 0 1-2-2V4h3.5v-.5a3.5 3.5 0 1 1 7 0zm-.646 5.354a.5.5 0 0 0-.708-.708L7.5 10.793L6.354 9.646a.5.5 0 1 0-.708.708l1.5 1.5a.5.5 0 0 0 .708 0l3-3z"></path></svg>