<svg xmlns="http://www.w3.org/2000/svg" xmlns:xlink="http://www.w3.org/1999/xlink" aria-hidden="true" role="img" class="iconify iconify--bi" width="1em" height="1em" preserveAspectRatio="xMidYMid meet" viewBox="0 0 16 16" data-icon="bi:battery-full"><g fill="currentColor"><path d="M2 6h10v4H2V6z"></path><path d="M2 4a2 2 0 0 0-2 2v4a2 2 0 0 0 2 2h10a2 2 0 0 0 2-2V6a2 2 0 0 0-2-2H2zm10 1a1 1 0 0 1 1 1v4a1 1 0 0 1-1 1H2a1 1 0 0 1-1-1V6a1 1 0 0 1 1-1h10zm4 3a1.5 1.5 0 0 1-1.5 1.5v-3A1.5 1.5 0 0 1 16 8z"></path></g></svg>