<svg xmlns="http://www.w3.org/2000/svg" xmlns:xlink="http://www.w3.org/1999/xlink" aria-hidden="true" role="img" class="iconify iconify--bi" width="1em" height="1em" preserveAspectRatio="xMidYMid meet" viewBox="0 0 16 16"><g fill="currentColor"><path d="M1 3a1 1 0 0 1 1-1h12a1 1 0 0 1 1 1H1zm7 8a2 2 0 1 0 0-4a2 2 0 0 0 0 4z"></path><path d="M0 5a1 1 0 0 1 1-1h14a1 1 0 0 1 1 1v8a1 1 0 0 1-1 1H1a1 1 0 0 1-1-1V5zm3 0a2 2 0 0 1-2 2v4a2 2 0 0 1 2 2h10a2 2 0 0 1 2-2V7a2 2 0 0 1-2-2H3z"></path></g></svg>