<svg xmlns="http://www.w3.org/2000/svg" xmlns:xlink="http://www.w3.org/1999/xlink" aria-hidden="true" role="img" class="iconify iconify--bi" width="1em" height="1em" preserveAspectRatio="xMidYMid meet" viewBox="0 0 16 16"><g fill="currentColor" fill-rule="evenodd"><path d="M7.646 2.646a.5.5 0 0 1 .708 0l6 6a.5.5 0 0 1-.708.708L8 3.707L2.354 9.354a.5.5 0 1 1-.708-.708l6-6z"></path><path d="M7.646 6.646a.5.5 0 0 1 .708 0l6 6a.5.5 0 0 1-.708.708L8 7.707l-5.646 5.647a.5.5 0 0 1-.708-.708l6-6z"></path></g></svg>