<svg xmlns="http://www.w3.org/2000/svg" xmlns:xlink="http://www.w3.org/1999/xlink" aria-hidden="true" role="img" class="iconify iconify--bi" width="1em" height="1em" preserveAspectRatio="xMidYMid meet" viewBox="0 0 16 16"><g fill="currentColor"><path fill-rule="evenodd" d="M1 1.5a.5.5 0 0 0 .5.5h13a.5.5 0 0 0 0-1h-13a.5.5 0 0 0-.5.5zm0 13a.5.5 0 0 0 .5.5h13a.5.5 0 0 0 0-1h-13a.5.5 0 0 0-.5.5z"></path><path d="M2 7a1 1 0 0 1 1-1h10a1 1 0 0 1 1 1v2a1 1 0 0 1-1 1H3a1 1 0 0 1-1-1V7z"></path></g></svg>