<svg xmlns="http://www.w3.org/2000/svg" xmlns:xlink="http://www.w3.org/1999/xlink" aria-hidden="true" role="img" class="iconify iconify--bi" width="1em" height="1em" preserveAspectRatio="xMidYMid meet" viewBox="0 0 16 16"><g fill="currentColor"><path d="M8.447.276a.5.5 0 0 0-.894 0L7.19 1H2.5A1.5 1.5 0 0 0 1 2.5V10h14V2.5A1.5 1.5 0 0 0 13.5 1H8.809L8.447.276Z"></path><path fill-rule="evenodd" d="M.5 11a.5.5 0 0 0 0 1h2.86l-.845 3.379a.5.5 0 0 0 .97.242L3.89 14h8.22l.405 1.621a.5.5 0 0 0 .97-.242L12.64 12h2.86a.5.5 0 0 0 0-1H.5Zm3.64 2l.25-1h7.22l.25 1H4.14Z"></path></g></svg>