<svg xmlns="http://www.w3.org/2000/svg" xmlns:xlink="http://www.w3.org/1999/xlink" aria-hidden="true" role="img" class="iconify iconify--bi" width="1em" height="1em" preserveAspectRatio="xMidYMid meet" viewBox="0 0 16 16"><path fill="currentColor" d="M2 8a1 1 0 1 1 0 2a1 1 0 0 1 0-2zm0-3a1 1 0 1 1 0 2a1 1 0 0 1 0-2zm3 3a1 1 0 1 1 0 2a1 1 0 0 1 0-2zm0-3a1 1 0 1 1 0 2a1 1 0 0 1 0-2zm3 3a1 1 0 1 1 0 2a1 1 0 0 1 0-2zm0-3a1 1 0 1 1 0 2a1 1 0 0 1 0-2zm3 3a1 1 0 1 1 0 2a1 1 0 0 1 0-2zm0-3a1 1 0 1 1 0 2a1 1 0 0 1 0-2zm3 3a1 1 0 1 1 0 2a1 1 0 0 1 0-2zm0-3a1 1 0 1 1 0 2a1 1 0 0 1 0-2z"></path></svg>