<svg xmlns="http://www.w3.org/2000/svg" xmlns:xlink="http://www.w3.org/1999/xlink" aria-hidden="true" role="img" class="iconify iconify--bi" width="1em" height="1em" preserveAspectRatio="xMidYMid meet" viewBox="0 0 16 16"><g fill="currentColor"><path d="M13.5 1a1 1 0 0 1 1 1v12a1 1 0 0 1-1 1h-11a1 1 0 0 1-1-1V2a1 1 0 0 1 1-1h11zm-11-1a2 2 0 0 0-2 2v12a2 2 0 0 0 2 2h11a2 2 0 0 0 2-2V2a2 2 0 0 0-2-2h-11z"></path><path d="M6.5 3a1 1 0 0 1 1-1h1a1 1 0 0 1 1 1v3a1 1 0 0 1-1 1h-1a1 1 0 0 1-1-1V3zm-4 0a1 1 0 0 1 1-1h1a1 1 0 0 1 1 1v7a1 1 0 0 1-1 1h-1a1 1 0 0 1-1-1V3zm8 0a1 1 0 0 1 1-1h1a1 1 0 0 1 1 1v10a1 1 0 0 1-1 1h-1a1 1 0 0 1-1-1V3z"></path></g></svg>