<svg xmlns="http://www.w3.org/2000/svg" xmlns:xlink="http://www.w3.org/1999/xlink" aria-hidden="true" role="img" class="iconify iconify--bi" width="1em" height="1em" preserveAspectRatio="xMidYMid meet" viewBox="0 0 16 16"><path fill="currentColor" d="M5 0a1 1 0 0 0-1 1v14a1 1 0 0 0 1 1h6a1 1 0 0 0 1-1V1a1 1 0 0 0-1-1H5Zm.5 14a.5.5 0 1 1 0 1a.5.5 0 0 1 0-1Zm2 0a.5.5 0 1 1 0 1a.5.5 0 0 1 0-1ZM5 1.5a.5.5 0 0 1 .5-.5h5a.5.5 0 0 1 0 1h-5a.5.5 0 0 1-.5-.5ZM5.5 3h5a.5.5 0 0 1 0 1h-5a.5.5 0 0 1 0-1Z"></path></svg>