<svg xmlns="http://www.w3.org/2000/svg" xmlns:xlink="http://www.w3.org/1999/xlink" aria-hidden="true" role="img" class="iconify iconify--bi" width="1em" height="1em" preserveAspectRatio="xMidYMid meet" viewBox="0 0 16 16"><g fill="currentColor"><path d="M14 7.5a1.5 1.5 0 1 1-3 0a1.5 1.5 0 0 1 3 0ZM2.5 6a.5.5 0 0 0 0 1h4a.5.5 0 0 0 0-1h-4Zm0 2a.5.5 0 0 0 0 1h4a.5.5 0 0 0 0-1h-4Z"></path><path d="M0 6a2 2 0 0 1 2-2h12a2 2 0 0 1 2 2v3a2 2 0 0 1-2 2a1 1 0 0 1-1 1h-1a1 1 0 0 1-1-1H5a1 1 0 0 1-1 1H3a1 1 0 0 1-1-1a2 2 0 0 1-2-2V6Zm2-1a1 1 0 0 0-1 1v3a1 1 0 0 0 1 1h12a1 1 0 0 0 1-1V6a1 1 0 0 0-1-1H2Z"></path></g></svg>