<svg xmlns="http://www.w3.org/2000/svg" xmlns:xlink="http://www.w3.org/1999/xlink" aria-hidden="true" role="img" class="iconify iconify--bi" width="1em" height="1em" preserveAspectRatio="xMidYMid meet" viewBox="0 0 16 16"><path fill="currentColor" d="M3 4.5a.5.5 0 0 1 1 0v7a.5.5 0 0 1-1 0v-7zm2 0a.5.5 0 0 1 1 0v7a.5.5 0 0 1-1 0v-7zm2 0a.5.5 0 0 1 1 0v7a.5.5 0 0 1-1 0v-7zm2 0a.5.5 0 0 1 .5-.5h1a.5.5 0 0 1 .5.5v7a.5.5 0 0 1-.5.5h-1a.5.5 0 0 1-.5-.5v-7zm3 0a.5.5 0 0 1 1 0v7a.5.5 0 0 1-1 0v-7z"></path></svg>