<svg xmlns="http://www.w3.org/2000/svg" xmlns:xlink="http://www.w3.org/1999/xlink" aria-hidden="true" role="img" class="iconify iconify--bi" width="1em" height="1em" preserveAspectRatio="xMidYMid meet" viewBox="0 0 16 16"><g fill="currentColor"><path d="M9.167 4.5a1.167 1.167 0 1 1-2.334 0a1.167 1.167 0 0 1 2.334 0Z"></path><path d="M8 0a8 8 0 1 0 0 16A8 8 0 0 0 8 0ZM1 8a7 7 0 0 1 7-7a3.5 3.5 0 1 1 0 7a3.5 3.5 0 1 0 0 7a7 7 0 0 1-7-7Zm7 4.667a1.167 1.167 0 1 1 0-2.334a1.167 1.167 0 0 1 0 2.334Z"></path></g></svg>