<svg xmlns="http://www.w3.org/2000/svg" xmlns:xlink="http://www.w3.org/1999/xlink" aria-hidden="true" role="img" class="iconify iconify--uim" width="1em" height="1em" preserveAspectRatio="xMidYMid meet" viewBox="0 0 24 24" data-icon="uim:arrow-circle-up"><path fill="currentColor" d="m16.707 11.293l-4-4a1.004 1.004 0 0 0-1.414 0l-4 4a1 1 0 0 0 1.414 1.414L11 10.414V16a1 1 0 0 0 2 0v-5.586l2.293 2.293a1 1 0 0 0 1.414-1.414Z"></path><path fill="currentColor" d="M12 2a10 10 0 1 0 10 10A10.011 10.011 0 0 0 12 2Zm4.707 10.707a1 1 0 0 1-1.414 0L13 10.414V16a1 1 0 0 1-2 0v-5.586l-2.293 2.293a1 1 0 0 1-1.414-1.414l4-4a1.004 1.004 0 0 1 1.414 0l4 4a1 1 0 0 1 0 1.414Z" opacity=".5"></path></svg>