<svg xmlns="http://www.w3.org/2000/svg" xmlns:xlink="http://www.w3.org/1999/xlink" aria-hidden="true" role="img" class="iconify iconify--uim" width="1em" height="1em" preserveAspectRatio="xMidYMid meet" viewBox="0 0 24 24" data-icon="uim:border-inner"><path fill="currentColor" d="M19.965 13h-16a1 1 0 0 1 0-2h16a1 1 0 0 1 0 2Z"></path><path fill="currentColor" d="M11.965 21a1 1 0 0 1-1-1V4a1 1 0 0 1 2 0v16a1 1 0 0 1-1 1Z"></path><circle cx="3.964" cy="16" r="1" fill="currentColor" opacity=".5"></circle><circle cx="3.964" cy="20" r="1" fill="currentColor" opacity=".5"></circle><circle cx="3.964" cy="8" r="1" fill="currentColor" opacity=".5"></circle><circle cx="3.964" cy="4" r="1" fill="currentColor" opacity=".5"></circle><circle cx="7.964" cy="4" r="1" fill="currentColor" opacity=".5"></circle><circle cx="15.964" cy="4" r="1" fill="currentColor" opacity=".5"></circle><circle cx="7.964" cy="20" r="1" fill="currentColor" opacity=".5"></circle><circle cx="15.964" cy="20" r="1" fill="currentColor" opacity=".5"></circle><circle cx="19.964" cy="16" r="1" fill="currentColor" opacity=".5"></circle><circle cx="19.964" cy="20" r="1" fill="currentColor" opacity=".5"></circle><circle cx="19.964" cy="8" r="1" fill="currentColor" opacity=".5"></circle><circle cx="19.964" cy="4" r="1" fill="currentColor" opacity=".5"></circle></svg>