<svg xmlns="http://www.w3.org/2000/svg" xmlns:xlink="http://www.w3.org/1999/xlink" aria-hidden="true" role="img" class="iconify iconify--uim" width="1em" height="1em" preserveAspectRatio="xMidYMid meet" viewBox="0 0 24 24" data-icon="uim:border-horizontal"><path fill="currentColor" d="M20 13H4a1 1 0 0 1 0-2h16a1 1 0 0 1 0 2Z"></path><circle cx="12" cy="16" r="1" fill="currentColor" opacity=".5"></circle><circle cx="12" cy="20" r="1" fill="currentColor" opacity=".5"></circle><circle cx="12" cy="8" r="1" fill="currentColor" opacity=".5"></circle><circle cx="12" cy="4" r="1" fill="currentColor" opacity=".5"></circle><circle cx="4" cy="16" r="1" fill="currentColor" opacity=".5"></circle><circle cx="4" cy="20" r="1" fill="currentColor" opacity=".5"></circle><circle cx="4" cy="8" r="1" fill="currentColor" opacity=".5"></circle><circle cx="4" cy="4" r="1" fill="currentColor" opacity=".5"></circle><circle cx="8" cy="4" r="1" fill="currentColor" opacity=".5"></circle><circle cx="16" cy="4" r="1" fill="currentColor" opacity=".5"></circle><circle cx="8" cy="20" r="1" fill="currentColor" opacity=".5"></circle><circle cx="16" cy="20" r="1" fill="currentColor" opacity=".5"></circle><circle cx="20" cy="16" r="1" fill="currentColor" opacity=".5"></circle><circle cx="20" cy="20" r="1" fill="currentColor" opacity=".5"></circle><circle cx="20" cy="8" r="1" fill="currentColor" opacity=".5"></circle><circle cx="20" cy="4" r="1" fill="currentColor" opacity=".5"></circle></svg>