<svg xmlns="http://www.w3.org/2000/svg" xmlns:xlink="http://www.w3.org/1999/xlink" aria-hidden="true" role="img" class="iconify iconify--uim" width="1em" height="1em" preserveAspectRatio="xMidYMid meet" viewBox="0 0 24 24" data-icon="uim:clock-three"><path fill="currentColor" d="M12 6a1 1 0 0 1 1 1v4h2a1 1 0 0 1 0 2h-3a1 1 0 0 1-1-1V7a1 1 0 0 1 1-1Z"></path><path fill="currentColor" d="M2 12A10 10 0 1 0 12 2A10 10 0 0 0 2 12Zm9-5a1 1 0 0 1 2 0v4h2a1 1 0 0 1 0 2h-3a1 1 0 0 1-1-1Z" opacity=".5"></path></svg>