<svg xmlns="http://www.w3.org/2000/svg" xmlns:xlink="http://www.w3.org/1999/xlink" aria-hidden="true" role="img" class="iconify iconify--uim" width="1em" height="1em" preserveAspectRatio="xMidYMid meet" viewBox="0 0 24 24" data-icon="uim:clock"><path fill="currentColor" d="M12 6a1 1 0 0 1 1 1v4.422l2.098 1.212a1 1 0 0 1-1 1.732l-2.598-1.5A1.005 1.005 0 0 1 11 12V7a1 1 0 0 1 1-1Z"></path><path fill="currentColor" d="M2 12A10 10 0 1 0 12 2A10 10 0 0 0 2 12Zm9-5a1 1 0 0 1 2 0v4.422l2.098 1.212a1 1 0 0 1-1 1.732l-2.598-1.5A1.005 1.005 0 0 1 11 12Z" opacity=".5"></path></svg>