<svg xmlns="http://www.w3.org/2000/svg" xmlns:xlink="http://www.w3.org/1999/xlink" aria-hidden="true" role="img" class="iconify iconify--uim" width="1em" height="1em" preserveAspectRatio="xMidYMid meet" viewBox="0 0 24 24" data-icon="uim:comment-dots"><circle cx="12" cy="12" r="1" fill="currentColor"></circle><path fill="currentColor" d="M12 2a10 10 0 0 0-7.743 16.33l-1.964 1.963A1 1 0 0 0 3 22h9a10 10 0 0 0 0-20ZM8 13a1 1 0 1 1 1-1a1 1 0 0 1-1 1Zm4 0a1 1 0 1 1 1-1a1 1 0 0 1-1 1Zm4 0a1 1 0 1 1 1-1a1 1 0 0 1-1 1Z" opacity=".5"></path><circle cx="8" cy="12" r="1" fill="currentColor"></circle><circle cx="16" cy="12" r="1" fill="currentColor"></circle></svg>