<svg xmlns="http://www.w3.org/2000/svg" xmlns:xlink="http://www.w3.org/1999/xlink" aria-hidden="true" role="img" class="iconify iconify--uim" width="1em" height="1em" preserveAspectRatio="xMidYMid meet" viewBox="0 0 24 24" data-icon="uim:comment-alt-dots"><path fill="currentColor" d="M19 2H5a3.003 3.003 0 0 0-3 3v10a3.003 3.003 0 0 0 3 3h11.586l3.707 3.707A1 1 0 0 0 22 21V5a3.003 3.003 0 0 0-3-3ZM8 11a1 1 0 1 1 1-1a1 1 0 0 1-1 1Zm4 0a1 1 0 1 1 1-1a1 1 0 0 1-1 1Zm4 0a1 1 0 1 1 1-1a1 1 0 0 1-1 1Z" opacity=".5"></path><circle cx="8" cy="10" r="1" fill="currentColor"></circle><circle cx="12" cy="10" r="1" fill="currentColor"></circle><circle cx="16" cy="10" r="1" fill="currentColor"></circle></svg>