<svg xmlns="http://www.w3.org/2000/svg" xmlns:xlink="http://www.w3.org/1999/xlink" aria-hidden="true" role="img" class="iconify iconify--uim" width="1em" height="1em" preserveAspectRatio="xMidYMid meet" viewBox="0 0 24 24" data-icon="uim:compress"><path fill="currentColor" d="M8 22a1 1 0 0 1-1-1v-4H3a1 1 0 0 1 0-2h5a1 1 0 0 1 1 1v5a1 1 0 0 1-1 1zM8 9H3a1 1 0 0 1 0-2h4V3a1 1 0 0 1 2 0v5a1 1 0 0 1-1 1zm13 0h-5a1 1 0 0 1-1-1V3a1 1 0 0 1 2 0v4h4a1 1 0 0 1 0 2zm-5 13a1 1 0 0 1-1-1v-5a1 1 0 0 1 1-1h5a1 1 0 0 1 0 2h-4v4a1 1 0 0 1-1 1z"></path></svg>