<svg xmlns="http://www.w3.org/2000/svg" xmlns:xlink="http://www.w3.org/1999/xlink" aria-hidden="true" role="img" class="iconify iconify--uim" width="1em" height="1em" preserveAspectRatio="xMidYMid meet" viewBox="0 0 24 24" data-icon="uim:document-layout-left"><path fill="currentColor" d="M21 8h-8a1 1 0 0 1 0-2h8a1 1 0 0 1 0 2zm0 4h-8a1 1 0 0 1 0-2h8a1 1 0 0 1 0 2z" opacity=".5"></path><rect width="8" height="8" x="2" y="4" fill="currentColor" rx="1"></rect><path fill="currentColor" d="M21 16H3a1 1 0 0 1 0-2h18a1 1 0 0 1 0 2zm-8 4H3a1 1 0 0 1 0-2h10a1 1 0 0 1 0 2z" opacity=".5"></path></svg>