<svg xmlns="http://www.w3.org/2000/svg" xmlns:xlink="http://www.w3.org/1999/xlink" aria-hidden="true" role="img" class="iconify iconify--uim" width="1em" height="1em" preserveAspectRatio="xMidYMid meet" viewBox="0 0 24 24" data-icon="uim:horizontal-align-left"><path fill="currentColor" d="M16 10H4V6h11a1 1 0 0 1 1 1v3z" opacity=".5"></path><path fill="currentColor" d="M21 18H4v-8h17a1 1 0 0 1 1 1v6a1 1 0 0 1-1 1z"></path><path fill="currentColor" d="M3 22a1 1 0 0 1-1-.999V3a1 1 0 0 1 2 0v18a1 1 0 0 1-.999 1H3z" opacity=".25"></path></svg>