<svg xmlns="http://www.w3.org/2000/svg" xmlns:xlink="http://www.w3.org/1999/xlink" aria-hidden="true" role="img" class="iconify iconify--uim" width="1em" height="1em" preserveAspectRatio="xMidYMid meet" viewBox="0 0 24 24" data-icon="uim:html5-alt"><path fill="currentColor" d="M21.468 2.325A1 1 0 0 0 20.73 2H3.27a1 1 0 0 0-.996 1.089l1.52 17a1 1 0 0 0 .728.874l7.2 2a.996.996 0 0 0 .268.037a1.012 1.012 0 0 0 .267-.036l7.22-2a1 1 0 0 0 .729-.875l1.52-17a1 1 0 0 0-.258-.764Z"></path><path fill="currentColor" d="M7.82 13h6.895l-.327 3.271l-2.568.917l-3.164-1.13a1 1 0 1 0-.673 1.884l3.5 1.25a1.003 1.003 0 0 0 .673 0l3.5-1.25a1 1 0 0 0 .659-.842l.5-5a1 1 0 0 0-.995-1.1H8.725l-.3-3h7.895a1 1 0 0 0 0-2h-9a1 1 0 0 0-.995 1.1l.5 5a1 1 0 0 0 .995.9Z" opacity=".25"></path></svg>