<svg xmlns="http://www.w3.org/2000/svg" xmlns:xlink="http://www.w3.org/1999/xlink" aria-hidden="true" role="img" class="iconify iconify--uim" width="1em" height="1em" preserveAspectRatio="xMidYMid meet" viewBox="0 0 24 24" data-icon="uim:key-skeleton"><path fill="currentColor" d="M7 12a5 5 0 1 0 0 10a5 5 0 0 0 0-10zm-1.415 7.413a1 1 0 1 1 0-2a1 1 0 0 1 0 2z" opacity=".5"></path><path fill="currentColor" d="m21.001 4.413l.706-.706a1 1 0 1 0-1.414-1.414L9.754 12.832a5.02 5.02 0 0 1 1.414 1.414l5.591-5.591l2.12 2.12a1 1 0 0 0 1.414-1.414l-2.12-2.12l1.414-1.414l.706.705a1 1 0 0 0 1.414-1.414l-.706-.705z"></path></svg>