<svg xmlns="http://www.w3.org/2000/svg" xmlns:xlink="http://www.w3.org/1999/xlink" aria-hidden="true" role="img" class="iconify iconify--uim" width="1em" height="1em" preserveAspectRatio="xMidYMid meet" viewBox="0 0 24 24" data-icon="uim:keyhole-circle"><path fill="currentColor" d="M14 10a2 2 0 1 0-3 1.723V15a1 1 0 0 0 2 0v-3.277A1.991 1.991 0 0 0 14 10Z"></path><path fill="currentColor" d="M12 2a10 10 0 1 0 10 10A10 10 0 0 0 12 2Zm1 9.723V15a1 1 0 0 1-2 0v-3.277a2 2 0 1 1 2 0Z" opacity=".5"></path></svg>