<svg xmlns="http://www.w3.org/2000/svg" xmlns:xlink="http://www.w3.org/1999/xlink" aria-hidden="true" role="img" class="iconify iconify--uim" width="1em" height="1em" preserveAspectRatio="xMidYMid meet" viewBox="0 0 24 24" data-icon="uim:list-ui-alt"><path fill="currentColor" d="M21.5 8h-14a1 1 0 0 1 0-2h14a1 1 0 0 1 0 2zm0 5h-10a1 1 0 0 1 0-2h10a1 1 0 0 1 0 2zm0 5h-6a1 1 0 0 1 0-2h6a1 1 0 0 1 0 2z"></path><circle cx="3.5" cy="7" r="1" fill="currentColor"></circle><circle cx="7.5" cy="12" r="1" fill="currentColor"></circle><circle cx="11.5" cy="17" r="1" fill="currentColor"></circle></svg>