<svg xmlns="http://www.w3.org/2000/svg" xmlns:xlink="http://www.w3.org/1999/xlink" aria-hidden="true" role="img" class="iconify iconify--uim" width="1em" height="1em" preserveAspectRatio="xMidYMid meet" viewBox="0 0 24 24" data-icon="uim:minus-square-full"><path fill="currentColor" d="M17 13H7a1 1 0 0 1 0-2h10a1 1 0 0 1 0 2Z"></path><path fill="currentColor" d="M21 2H3a1 1 0 0 0-1 1v18a1 1 0 0 0 1 1h18a1 1 0 0 0 1-1V3a1 1 0 0 0-1-1Zm-4 11H7a1 1 0 0 1 0-2h10a1 1 0 0 1 0 2Z" opacity=".5"></path></svg>