<svg xmlns="http://www.w3.org/2000/svg" xmlns:xlink="http://www.w3.org/1999/xlink" aria-hidden="true" role="img" class="iconify iconify--uim" width="1em" height="1em" preserveAspectRatio="xMidYMid meet" viewBox="0 0 24 24"><path fill="currentColor" d="M9.9 2H8.1A2.584 2.584 0 0 0 8 3v18c-.032.337.002.676.1 1h1.8c.098-.324.132-.663.1-1V3a2.584 2.584 0 0 0-.1-1z" opacity=".25"></path><path fill="currentColor" d="M3 2h5v20H3a1 1 0 0 1-1-1V3a1 1 0 0 1 1-1z"></path><path fill="currentColor" d="M10 2h11a1 1 0 0 1 1 1v18a1 1 0 0 1-1 1H10V2z" opacity=".5"></path></svg>