<svg xmlns="http://www.w3.org/2000/svg" xmlns:xlink="http://www.w3.org/1999/xlink" aria-hidden="true" role="img" class="iconify iconify--codicon" width="1em" height="1em" preserveAspectRatio="xMidYMid meet" viewBox="0 0 16 16" data-icon="codicon:error-small"><g fill="currentColor"><path d="M9.177 10.105L8 8.928l-1.177 1.177l-.928-.928L7.072 8L5.895 6.823l.928-.928L8 7.072l1.177-1.177l.928.928L8.928 8l1.177 1.177l-.928.928Z"></path><path d="M12 8a4 4 0 1 1-8 0a4 4 0 0 1 8 0Zm-1 0a3 3 0 1 0-6 0a3 3 0 0 0 6 0Z"></path></g></svg>