<svg xmlns="http://www.w3.org/2000/svg" xmlns:xlink="http://www.w3.org/1999/xlink" aria-hidden="true" role="img" class="iconify iconify--codicon" width="1em" height="1em" preserveAspectRatio="xMidYMid meet" viewBox="0 0 16 16" data-icon="codicon:eye"><path fill="currentColor" fill-rule="evenodd" d="M1 9.5c0-3.9 3.1-7 7-7s7 3.1 7 7h-1c0-3.3-2.7-6-6-6s-6 2.7-6 6H1Zm4 0c0-1.7 1.3-3 3-3s3 1.3 3 3s-1.3 3-3 3s-3-1.3-3-3Zm1 0c0 1.1.9 2 2 2s2-.9 2-2s-.9-2-2-2s-2 .9-2 2Z" clip-rule="evenodd"></path></svg>