<svg xmlns="http://www.w3.org/2000/svg" xmlns:xlink="http://www.w3.org/1999/xlink" aria-hidden="true" role="img" class="iconify iconify--codicon" width="1em" height="1em" preserveAspectRatio="xMidYMid meet" viewBox="0 0 16 16" data-icon="codicon:git-commit"><path fill="currentColor" d="M10.979 5a3.42 3.42 0 0 0-2-1V0h-1v4a3.5 3.5 0 0 0-.18 6.89h.18v4h1v-4a3.08 3.08 0 0 0 .84-.23a3.42 3.42 0 0 0 1.57-1.29a3.46 3.46 0 0 0-.41-4.37zm-.7 4.24a2.51 2.51 0 0 1-3.159.31a2.5 2.5 0 0 1-.92-1.12a2.49 2.49 0 0 1 1.82-3.41a2.72 2.72 0 0 1 .49 0a2.5 2.5 0 0 1 2.54 2.5a2.51 2.51 0 0 1-.8 1.75l.03-.03z"></path></svg>