<svg xmlns="http://www.w3.org/2000/svg" xmlns:xlink="http://www.w3.org/1999/xlink" aria-hidden="true" role="img" class="iconify iconify--octicon" width="1em" height="1em" preserveAspectRatio="xMidYMid meet" viewBox="0 0 24 24" data-icon="octicon:arrow-switch-24"><path fill="currentColor" d="M7.72 21.78a.75.75 0 0 0 1.06-1.06L5.56 17.5h14.69a.75.75 0 0 0 0-1.5H5.56l3.22-3.22a.75.75 0 1 0-1.06-1.06l-4.5 4.5a.75.75 0 0 0 0 1.06l4.5 4.5zm8.56-9.5a.75.75 0 1 1-1.06-1.06L18.44 8H3.75a.75.75 0 0 1 0-1.5h14.69l-3.22-3.22a.75.75 0 0 1 1.06-1.06l4.5 4.5a.75.75 0 0 1 0 1.06l-4.5 4.5z"></path></svg>