<svg xmlns="http://www.w3.org/2000/svg" xmlns:xlink="http://www.w3.org/1999/xlink" aria-hidden="true" role="img" class="iconify iconify--octicon" width="1em" height="1em" preserveAspectRatio="xMidYMid meet" viewBox="0 0 24 24" data-icon="octicon:bell-fill-24"><path fill="currentColor" fill-rule="evenodd" d="M6 8a6 6 0 1 1 12 0v2.917c0 .703.228 1.387.65 1.95L20.7 15.6a1.5 1.5 0 0 1-1.2 2.4h-15a1.5 1.5 0 0 1-1.2-2.4l2.05-2.733a3.25 3.25 0 0 0 .65-1.95V8zm6 13.5A3.502 3.502 0 0 1 8.645 19h6.71A3.502 3.502 0 0 1 12 21.5z"></path></svg>