<svg xmlns="http://www.w3.org/2000/svg" xmlns:xlink="http://www.w3.org/1999/xlink" aria-hidden="true" role="img" class="iconify iconify--octicon" width="1em" height="1em" preserveAspectRatio="xMidYMid meet" viewBox="0 0 16 16" data-icon="octicon:check-circle-16"><path fill="currentColor" fill-rule="evenodd" d="M1.5 8a6.5 6.5 0 1 1 13 0a6.5 6.5 0 0 1-13 0zM0 8a8 8 0 1 1 16 0A8 8 0 0 1 0 8zm11.78-1.72a.75.75 0 0 0-1.06-1.06L6.75 9.19L5.28 7.72a.75.75 0 0 0-1.06 1.06l2 2a.75.75 0 0 0 1.06 0l4.5-4.5z"></path></svg>