<svg xmlns="http://www.w3.org/2000/svg" xmlns:xlink="http://www.w3.org/1999/xlink" aria-hidden="true" role="img" class="iconify iconify--octicon" width="1em" height="1em" preserveAspectRatio="xMidYMid meet" viewBox="0 0 24 24" data-icon="octicon:codescan-checkmark-24"><path fill="currentColor" d="M15.03 8.28a.75.75 0 0 0-1.06-1.06l-5.22 5.22l-2.22-2.22a.75.75 0 1 0-1.06 1.06l2.75 2.75a.75.75 0 0 0 1.06 0l5.75-5.75z"></path><path fill="currentColor" fill-rule="evenodd" d="M0 10.5C0 4.701 4.701 0 10.5 0S21 4.701 21 10.5c0 2.63-.967 5.033-2.564 6.875l4.344 4.345a.75.75 0 1 1-1.06 1.06l-4.345-4.344A10.459 10.459 0 0 1 10.5 21C4.701 21 0 16.299 0 10.5zm10.5-9a9 9 0 1 0 0 18a9 9 0 0 0 0-18z"></path></svg>