<svg xmlns="http://www.w3.org/2000/svg" xmlns:xlink="http://www.w3.org/1999/xlink" aria-hidden="true" role="img" class="iconify iconify--octicon" width="1em" height="1em" preserveAspectRatio="xMidYMid meet" viewBox="0 0 16 16" data-icon="octicon:code-16"><path fill="currentColor" fill-rule="evenodd" d="M4.72 3.22a.75.75 0 0 1 1.06 1.06L2.06 8l3.72 3.72a.75.75 0 1 1-1.06 1.06L.47 8.53a.75.75 0 0 1 0-1.06l4.25-4.25zm6.56 0a.75.75 0 1 0-1.06 1.06L13.94 8l-3.72 3.72a.75.75 0 1 0 1.06 1.06l4.25-4.25a.75.75 0 0 0 0-1.06l-4.25-4.25z"></path></svg>