<svg xmlns="http://www.w3.org/2000/svg" xmlns:xlink="http://www.w3.org/1999/xlink" aria-hidden="true" role="img" class="iconify iconify--octicon" width="1em" height="1em" preserveAspectRatio="xMidYMid meet" viewBox="0 0 24 24" data-icon="octicon:commit-24"><path fill="currentColor" fill-rule="evenodd" d="M17.5 11.75a.75.75 0 0 1 .75-.75h5a.75.75 0 0 1 0 1.5h-5a.75.75 0 0 1-.75-.75zm-17.5 0A.75.75 0 0 1 .75 11h5a.75.75 0 0 1 0 1.5h-5a.75.75 0 0 1-.75-.75z"></path><path fill="currentColor" fill-rule="evenodd" d="M12 16.25a4.5 4.5 0 1 0 0-9a4.5 4.5 0 0 0 0 9zm0 1.5a6 6 0 1 0 0-12a6 6 0 0 0 0 12z"></path></svg>