<svg xmlns="http://www.w3.org/2000/svg" xmlns:xlink="http://www.w3.org/1999/xlink" aria-hidden="true" role="img" class="iconify iconify--octicon" width="1em" height="1em" preserveAspectRatio="xMidYMid meet" viewBox="0 0 24 24" data-icon="octicon:credit-card-24"><path fill="currentColor" d="M15.25 14a.75.75 0 0 0 0 1.5h3.5a.75.75 0 0 0 0-1.5h-3.5z"></path><path fill="currentColor" fill-rule="evenodd" d="M1.75 3A1.75 1.75 0 0 0 0 4.75v14.5C0 20.216.784 21 1.75 21h20.5A1.75 1.75 0 0 0 24 19.25V4.75A1.75 1.75 0 0 0 22.25 3H1.75zM1.5 4.75a.25.25 0 0 1 .25-.25h20.5a.25.25 0 0 1 .25.25V8.5h-21V4.75zm0 5.25v9.25c0 .138.112.25.25.25h20.5a.25.25 0 0 0 .25-.25V10h-21z"></path></svg>