<svg xmlns="http://www.w3.org/2000/svg" xmlns:xlink="http://www.w3.org/1999/xlink" aria-hidden="true" role="img" class="iconify iconify--octicon" width="1em" height="1em" preserveAspectRatio="xMidYMid meet" viewBox="0 0 16 16" data-icon="octicon:device-mobile-16"><path fill="currentColor" fill-rule="evenodd" d="M3.75 0A1.75 1.75 0 0 0 2 1.75v12.5c0 .966.784 1.75 1.75 1.75h8.5A1.75 1.75 0 0 0 14 14.25V1.75A1.75 1.75 0 0 0 12.25 0h-8.5zM3.5 1.75a.25.25 0 0 1 .25-.25h8.5a.25.25 0 0 1 .25.25v12.5a.25.25 0 0 1-.25.25h-8.5a.25.25 0 0 1-.25-.25V1.75zM8 13a1 1 0 1 0 0-2a1 1 0 0 0 0 2z"></path></svg>