<svg xmlns="http://www.w3.org/2000/svg" xmlns:xlink="http://www.w3.org/1999/xlink" aria-hidden="true" role="img" class="iconify iconify--octicon" width="1em" height="1em" preserveAspectRatio="xMidYMid meet" viewBox="0 0 24 24" data-icon="octicon:diff-24"><path fill="currentColor" fill-rule="evenodd" d="M12.25 3.5a.75.75 0 0 1 .75.75V8.5h4.25a.75.75 0 0 1 0 1.5H13v4.25a.75.75 0 0 1-1.5 0V10H7.25a.75.75 0 0 1 0-1.5h4.25V4.25a.75.75 0 0 1 .75-.75zM6.562 19.25a.75.75 0 0 1 .75-.75h9.938a.75.75 0 0 1 0 1.5H7.312a.75.75 0 0 1-.75-.75z"></path></svg>