<svg xmlns="http://www.w3.org/2000/svg" xmlns:xlink="http://www.w3.org/1999/xlink" aria-hidden="true" role="img" class="iconify iconify--octicon" width="1em" height="1em" preserveAspectRatio="xMidYMid meet" viewBox="0 0 16 16"><path fill="currentColor" fill-rule="evenodd" d="M6.749.097a8.054 8.054 0 0 1 2.502 0a.75.75 0 1 1-.233 1.482a6.554 6.554 0 0 0-2.036 0A.75.75 0 0 1 6.749.097zM4.345 1.693A.75.75 0 0 1 4.18 2.74a6.542 6.542 0 0 0-1.44 1.44a.75.75 0 0 1-1.212-.883a8.042 8.042 0 0 1 1.769-1.77a.75.75 0 0 1 1.048.166zm7.31 0a.75.75 0 0 1 1.048-.165a8.04 8.04 0 0 1 1.77 1.769a.75.75 0 1 1-1.214.883a6.542 6.542 0 0 0-1.439-1.44a.75.75 0 0 1-.165-1.047zM.955 6.125a.75.75 0 0 1 .624.857a6.554 6.554 0 0 0 0 2.036a.75.75 0 0 1-1.482.233a8.054 8.054 0 0 1 0-2.502a.75.75 0 0 1 .858-.624zm14.09 0a.75.75 0 0 1 .858.624a8.057 8.057 0 0 1 0 2.502a.75.75 0 0 1-1.482-.233a6.55 6.55 0 0 0 0-2.036a.75.75 0 0 1 .624-.857zm-13.352 5.53a.75.75 0 0 1 1.048.165a6.542 6.542 0 0 0 1.439 1.44a.75.75 0 0 1-.883 1.212a8.04 8.04 0 0 1-1.77-1.769a.75.75 0 0 1 .166-1.048zm12.614 0a.75.75 0 0 1 .165 1.048a8.038 8.038 0 0 1-1.769 1.77a.75.75 0 1 1-.883-1.214a6.543 6.543 0 0 0 1.44-1.439a.75.75 0 0 1 1.047-.165zm-8.182 3.39a.75.75 0 0 1 .857-.624a6.55 6.55 0 0 0 2.036 0a.75.75 0 0 1 .233 1.482a8.057 8.057 0 0 1-2.502 0a.75.75 0 0 1-.624-.858z"></path></svg>