<svg xmlns="http://www.w3.org/2000/svg" xmlns:xlink="http://www.w3.org/1999/xlink" aria-hidden="true" role="img" class="iconify iconify--octicon" width="1em" height="1em" preserveAspectRatio="xMidYMid meet" viewBox="0 0 24 24"><path fill="currentColor" fill-rule="evenodd" d="M4 7a1 1 0 1 0 0-2a1 1 0 0 0 0 2zm4.75-1.5a.75.75 0 0 0 0 1.5h11.5a.75.75 0 0 0 0-1.5H8.75zm0 6a.75.75 0 0 0 0 1.5h11.5a.75.75 0 0 0 0-1.5H8.75zm0 6a.75.75 0 0 0 0 1.5h11.5a.75.75 0 0 0 0-1.5H8.75zM5 12a1 1 0 1 1-2 0a1 1 0 0 1 2 0zm-1 7a1 1 0 1 0 0-2a1 1 0 0 0 0 2z"></path></svg>