<svg xmlns="http://www.w3.org/2000/svg" xmlns:xlink="http://www.w3.org/1999/xlink" aria-hidden="true" role="img" class="iconify iconify--octicon" width="1em" height="1em" preserveAspectRatio="xMidYMid meet" viewBox="0 0 16 16"><path fill="currentColor" fill-rule="evenodd" d="M8 1.5a6.5 6.5 0 1 0 6.016 4.035a.75.75 0 0 1 1.388-.57a8 8 0 1 1-4.37-4.37a.75.75 0 0 1-.569 1.389A6.479 6.479 0 0 0 8 1.5zm6.28.22a.75.75 0 0 1 0 1.06l-4.063 4.064a2.5 2.5 0 1 1-1.06-1.06L13.22 1.72a.75.75 0 0 1 1.06 0zM7 8a1 1 0 1 1 2 0a1 1 0 0 1-2 0z"></path></svg>