<svg xmlns="http://www.w3.org/2000/svg" xmlns:xlink="http://www.w3.org/1999/xlink" aria-hidden="true" role="img" class="iconify iconify--octicon" width="1em" height="1em" preserveAspectRatio="xMidYMid meet" viewBox="0 0 24 24"><path fill="currentColor" fill-rule="evenodd" d="M12 2.5a5.5 5.5 0 0 0-3.096 10.047a9.005 9.005 0 0 0-5.9 8.18a.75.75 0 0 0 1.5.045a7.5 7.5 0 0 1 14.993 0a.75.75 0 1 0 1.499-.044a9.005 9.005 0 0 0-5.9-8.181A5.5 5.5 0 0 0 12 2.5zM8 8a4 4 0 1 1 8 0a4 4 0 0 1-8 0z"></path></svg>