<svg xmlns="http://www.w3.org/2000/svg" xmlns:xlink="http://www.w3.org/1999/xlink" aria-hidden="true" role="img" class="iconify iconify--emojione-v1" width="1em" height="1em" preserveAspectRatio="xMidYMid meet" viewBox="0 0 64 64"><path fill="#1b75bb" d="M63.793 56.913a6.877 6.877 0 0 1-6.878 6.882H6.875A6.878 6.878 0 0 1 0 56.913V6.877A6.877 6.877 0 0 1 6.875 0h50.041a6.876 6.876 0 0 1 6.878 6.877v50.036z"></path><g fill="#fff"><path d="M51.938 15.04c2.305.157 4.229 1.164 5.071 2.543v27.51c-.847 1.384-2.774 2.391-5.083 2.546L29.625 31.398L51.938 15.04"></path><path d="M29.1 15.04c2.304.157 4.228 1.164 5.07 2.543v27.51c-.845 1.384-2.774 2.391-5.083 2.546L6.786 31.398L29.1 15.04"></path></g></svg>