<svg xmlns="http://www.w3.org/2000/svg" xmlns:xlink="http://www.w3.org/1999/xlink" aria-hidden="true" role="img" class="iconify iconify--cil" width="1em" height="1em" preserveAspectRatio="xMidYMid meet" viewBox="0 0 512 512" data-icon="cil:calendar"><path fill="currentColor" d="M472 96h-88V40h-32v56H160V40h-32v56H40a24.028 24.028 0 0 0-24 24v336a24.028 24.028 0 0 0 24 24h432a24.028 24.028 0 0 0 24-24V120a24.028 24.028 0 0 0-24-24Zm-8 352H48V128h80v40h32v-40h192v40h32v-40h80Z"></path><path fill="currentColor" d="M112 224h32v32h-32zm88 0h32v32h-32zm80 0h32v32h-32zm88 0h32v32h-32zm-256 72h32v32h-32zm88 0h32v32h-32zm80 0h32v32h-32zm88 0h32v32h-32zm-256 72h32v32h-32zm88 0h32v32h-32zm80 0h32v32h-32zm88 0h32v32h-32z"></path></svg>