<svg xmlns="http://www.w3.org/2000/svg" xmlns:xlink="http://www.w3.org/1999/xlink" aria-hidden="true" role="img" class="iconify iconify--cil" width="1em" height="1em" preserveAspectRatio="xMidYMid meet" viewBox="0 0 512 512" data-icon="cil:clone"><path fill="currentColor" d="M472 16H160a24.027 24.027 0 0 0-24 24v312a24.027 24.027 0 0 0 24 24h312a24.027 24.027 0 0 0 24-24V40a24.027 24.027 0 0 0-24-24Zm-8 328H168V48h296Z"></path><path fill="currentColor" d="M344 464H48V168h56v-32H40a24.027 24.027 0 0 0-24 24v312a24.027 24.027 0 0 0 24 24h312a24.027 24.027 0 0 0 24-24v-64h-32Z"></path></svg>