<svg xmlns="http://www.w3.org/2000/svg" xmlns:xlink="http://www.w3.org/1999/xlink" aria-hidden="true" role="img" class="iconify iconify--cil" width="1em" height="1em" preserveAspectRatio="xMidYMid meet" viewBox="0 0 512 512"><path fill="currentColor" d="M400 200h-12v-56a128 128 0 0 0-256 0v56h-12a24.028 24.028 0 0 0-24 24v248a24.028 24.028 0 0 0 24 24h280a24.028 24.028 0 0 0 24-24V224a24.028 24.028 0 0 0-24-24Zm-236-56a96 96 0 0 1 192 0v56H164Zm228 320H128V232h264Z"></path><path fill="currentColor" d="M240 328h40v40h-40z"></path></svg>