<svg xmlns="http://www.w3.org/2000/svg" xmlns:xlink="http://www.w3.org/1999/xlink" aria-hidden="true" role="img" class="iconify iconify--cil" width="1em" height="1em" preserveAspectRatio="xMidYMid meet" viewBox="0 0 512 512"><path fill="currentColor" d="M200 48H72a24.028 24.028 0 0 0-24 24v368a24.028 24.028 0 0 0 24 24h128a24.028 24.028 0 0 0 24-24V72a24.028 24.028 0 0 0-24-24Zm-8 384H80V80h112ZM440 48H312a24.028 24.028 0 0 0-24 24v368a24.028 24.028 0 0 0 24 24h128a24.028 24.028 0 0 0 24-24V72a24.028 24.028 0 0 0-24-24Zm-8 384H320V80h112Z"></path></svg>