<svg xmlns="http://www.w3.org/2000/svg" xmlns:xlink="http://www.w3.org/1999/xlink" aria-hidden="true" role="img" class="iconify iconify--cil" width="1em" height="1em" preserveAspectRatio="xMidYMid meet" viewBox="0 0 512 512"><path fill="currentColor" d="M256 144a64 64 0 1 0-64-64a64.072 64.072 0 0 0 64 64Zm0-96a32 32 0 1 1-32 32a32.036 32.036 0 0 1 32-32Zm0 320a64 64 0 1 0 64 64a64.072 64.072 0 0 0-64-64Zm0 96a32 32 0 1 1 32-32a32.036 32.036 0 0 1-32 32Zm0-272a64 64 0 1 0 64 64a64.072 64.072 0 0 0-64-64Zm0 96a32 32 0 1 1 32-32a32.036 32.036 0 0 1-32 32Z"></path></svg>