<svg xmlns="http://www.w3.org/2000/svg" xmlns:xlink="http://www.w3.org/1999/xlink" aria-hidden="true" role="img" class="iconify iconify--cil" width="1em" height="1em" preserveAspectRatio="xMidYMid meet" viewBox="0 0 512 512"><path fill="currentColor" d="M16 64v392h480V64Zm448 360H48V96h416Z"></path><path fill="currentColor" d="M88 136h88v32H88zm0 72h88v32H88zm0 72h88v32H88zm0 72h88v32H88zm200-216h136v32H288zm0 72h136v32H288zm0 72h136v32H288zm0 72h136v32H288zm-72-216h32v32h-32zm0 72h32v32h-32zm0 72h32v32h-32zm0 72h32v32h-32z"></path></svg>