<svg xmlns="http://www.w3.org/2000/svg" xmlns:xlink="http://www.w3.org/1999/xlink" aria-hidden="true" role="img" class="iconify iconify--cil" width="1em" height="1em" preserveAspectRatio="xMidYMid meet" viewBox="0 0 512 512"><path fill="currentColor" d="M472 88.5H302.627l72.5-72.5h-45.254l-72.5 72.5h-2.246l-72.5-72.5h-45.254l72.5 72.5H40a24.028 24.028 0 0 0-24 24v296a24.028 24.028 0 0 0 24 24h112V496h224v-63.5h96a24.028 24.028 0 0 0 24-24v-296a24.028 24.028 0 0 0-24-24ZM344 464H184v-31.5h160Zm120-63.5H48v-280h416Z"></path></svg>