<svg xmlns="http://www.w3.org/2000/svg" xmlns:xlink="http://www.w3.org/1999/xlink" aria-hidden="true" role="img" class="iconify iconify--ion" width="1em" height="1em" preserveAspectRatio="xMidYMid meet" viewBox="0 0 512 512" data-icon="ion:android-more-horizontal"><path d="M136 216c-22.002 0-40 17.998-40 40s17.998 40 40 40 40-17.998 40-40-17.998-40-40-40zm240 0c-22.002 0-40 17.998-40 40s17.998 40 40 40 40-17.998 40-40-17.998-40-40-40zm-120 0c-22.002 0-40 17.998-40 40s17.998 40 40 40 40-17.998 40-40-17.998-40-40-40z" fill="currentColor"></path></svg>