<svg xmlns="http://www.w3.org/2000/svg" xmlns:xlink="http://www.w3.org/1999/xlink" aria-hidden="true" role="img" class="iconify iconify--ion" width="1em" height="1em" preserveAspectRatio="xMidYMid meet" viewBox="0 0 512 512" data-icon="ion:bed-sharp"><path fill="currentColor" d="M432 224V96a16 16 0 0 0-16-16H96a16 16 0 0 0-16 16v128a48 48 0 0 0-48 48v160h36v-32h376v32h36V272a48 48 0 0 0-48-48Zm-192 0H120v-32a16 16 0 0 1 16-16h88a16 16 0 0 1 16 16Zm32-32a16 16 0 0 1 16-16h88a16 16 0 0 1 16 16v32H272Z"></path></svg>