<svg xmlns="http://www.w3.org/2000/svg" xmlns:xlink="http://www.w3.org/1999/xlink" aria-hidden="true" role="img" class="iconify iconify--ion" width="1em" height="1em" preserveAspectRatio="xMidYMid meet" viewBox="0 0 512 512" data-icon="ion:bicycle-outline"><path fill="none" stroke="currentColor" stroke-miterlimit="10" stroke-width="32" d="M388 288a76 76 0 1 0 76 76a76.24 76.24 0 0 0-76-76Zm-264 0a76 76 0 1 0 76 76a76.24 76.24 0 0 0-76-76Z"></path><path fill="none" stroke="currentColor" stroke-linecap="round" stroke-linejoin="round" stroke-width="32" d="M256 360v-86l-64-42l80-88l40 72h56"></path><path fill="currentColor" d="M320 136a31.89 31.89 0 0 0 32-32.1A31.55 31.55 0 0 0 320.2 72a32 32 0 1 0-.2 64Z"></path></svg>