<svg xmlns="http://www.w3.org/2000/svg" xmlns:xlink="http://www.w3.org/1999/xlink" aria-hidden="true" role="img" class="iconify iconify--ion" width="1em" height="1em" preserveAspectRatio="xMidYMid meet" viewBox="0 0 512 512"><path fill="currentColor" d="M472 432h-48a24 24 0 0 1-24-24V104a24 24 0 0 1 24-24h48a24 24 0 0 1 24 24v304a24 24 0 0 1-24 24Zm-128 0h-48a24 24 0 0 1-24-24V184a24 24 0 0 1 24-24h48a24 24 0 0 1 24 24v224a24 24 0 0 1-24 24Zm-128 0h-48a24 24 0 0 1-24-24V248a24 24 0 0 1 24-24h48a24 24 0 0 1 24 24v160a24 24 0 0 1-24 24Zm-128 0H40a24 24 0 0 1-24-24v-96a24 24 0 0 1 24-24h48a24 24 0 0 1 24 24v96a24 24 0 0 1-24 24Z"></path></svg>