<svg xmlns="http://www.w3.org/2000/svg" xmlns:xlink="http://www.w3.org/1999/xlink" aria-hidden="true" role="img" class="iconify iconify--ion" width="1em" height="1em" preserveAspectRatio="xMidYMid meet" viewBox="0 0 512 512"><path d="M255.8 218c-21 0-38 17-38 38s17 38 38 38 38-17 38-38-17-38-38-38z" fill="currentColor"></path><path d="M102 218c-21 0-38 17-38 38s17 38 38 38 38-17 38-38-17-38-38-38z" fill="currentColor"></path><path d="M410 218c-21 0-38 17-38 38s17 38 38 38 38-17 38-38-17-38-38-38z" fill="currentColor"></path></svg>