<svg xmlns="http://www.w3.org/2000/svg" xmlns:xlink="http://www.w3.org/1999/xlink" aria-hidden="true" role="img" class="iconify iconify--ion" width="1em" height="1em" preserveAspectRatio="xMidYMid meet" viewBox="0 0 512 512"><path d="M56 88v336h400V88H56zm72 320H72v-48h56v48zm0-64H72v-48h56v48zm0-64H72v-48h56v48zm0-64H72v-48h56v48zm0-64H72v-48h56v48zm240 256H144V264h224v144zm0-160H144V104h224v144zm72 160h-56v-48h56v48zm0-64h-56v-48h56v48zm0-64h-56v-48h56v48zm0-64h-56v-48h56v48zm0-64h-56v-48h56v48z" fill="currentColor"></path></svg>