<svg xmlns="http://www.w3.org/2000/svg" xmlns:xlink="http://www.w3.org/1999/xlink" aria-hidden="true" role="img" class="iconify iconify--ion" width="1em" height="1em" preserveAspectRatio="xMidYMid meet" viewBox="0 0 512 512"><path fill="none" stroke="currentColor" stroke-miterlimit="10" stroke-width="32" d="M448 256c0-106-86-192-192-192S64 150 64 256s86 192 192 192s192-86 192-192Z"></path><path fill="currentColor" d="M320 176a16 16 0 0 0-16 16v53l-111.68-67.44a10.78 10.78 0 0 0-16.32 9.31v138.26a10.78 10.78 0 0 0 16.32 9.31L304 267v53a16 16 0 0 0 32 0V192a16 16 0 0 0-16-16Z"></path></svg>