<svg xmlns="http://www.w3.org/2000/svg" xmlns:xlink="http://www.w3.org/1999/xlink" aria-hidden="true" role="img" class="iconify iconify--ion" width="1em" height="1em" preserveAspectRatio="xMidYMid meet" viewBox="0 0 512 512"><rect width="240" height="240" x="136" y="136" fill="currentColor" rx="56" ry="56"></rect><path fill="currentColor" d="M336 96V32a16 16 0 0 0-16-16H192a16 16 0 0 0-16 16v64a80.09 80.09 0 0 0-80 80v160a80.09 80.09 0 0 0 80 80v64a16 16 0 0 0 16 16h128a16 16 0 0 0 16-16v-64a80.09 80.09 0 0 0 80-80V176a80.09 80.09 0 0 0-80-80Zm56 224a72.08 72.08 0 0 1-72 72H192a72.08 72.08 0 0 1-72-72V192a72.08 72.08 0 0 1 72-72h128a72.08 72.08 0 0 1 72 72Z"></path></svg>