<svg xmlns="http://www.w3.org/2000/svg" xmlns:xlink="http://www.w3.org/1999/xlink" aria-hidden="true" role="img" class="iconify iconify--line-md" width="1em" height="1em" preserveAspectRatio="xMidYMid meet" viewBox="0 0 24 24" data-icon="line-md:check-list-3-solid"><g fill="none"><rect width="8" height="2" x="12" y="4" fill="currentColor" class="il-md-fill il-md-delay-6" rx="1"></rect><rect width="8" height="2" x="12" y="11" fill="currentColor" class="il-md-fill il-md-delay-9" rx="1"></rect><rect width="8" height="2" x="12" y="18" fill="currentColor" class="il-md-fill il-md-delay-12" rx="1"></rect><path stroke="currentColor" stroke-linecap="round" stroke-linejoin="round" stroke-width="2" d="M3 5L5 7L9 3" class="il-md-length-15 il-md-duration-2 il-md-delay-0"></path><path stroke="currentColor" stroke-linecap="round" d="M13 3.5H19C19.8284 3.5 20.5 4.17157 20.5 5C20.5 5.82843 19.8284 6.5 19 6.5H13C12.1716 6.5 11.5 5.82843 11.5 5C11.5 4.17157 12.1716 3.5 13 3.5Z" class="il-md-length-25 il-md-duration-2 il-md-delay-0"></path><path stroke="currentColor" stroke-linecap="round" stroke-linejoin="round" stroke-width="2" d="M3 12L5 14L9 10" class="il-md-length-15 il-md-duration-2 il-md-delay-2"></path><rect width="9" height="3" x="11.5" y="10.5" stroke="currentColor" stroke-linecap="round" class="il-md-length-25 il-md-duration-2 il-md-delay-2" rx="1.5"></rect><path stroke="currentColor" stroke-linecap="round" stroke-linejoin="round" stroke-width="2" d="M3 19L5 21L9 17" class="il-md-length-15 il-md-duration-2 il-md-delay-4"></path><rect width="9" height="3" x="11.5" y="17.5" stroke="currentColor" stroke-linecap="round" class="il-md-length-25 il-md-duration-2 il-md-delay-4" rx="1.5"></rect></g></svg>