<svg xmlns="http://www.w3.org/2000/svg" xmlns:xlink="http://www.w3.org/1999/xlink" aria-hidden="true" role="img" class="iconify iconify--line-md" width="1em" height="1em" preserveAspectRatio="xMidYMid meet" viewBox="0 0 24 24" data-icon="line-md:cloud"><g fill="none" stroke="currentColor" stroke-linecap="round" stroke-linejoin="round" stroke-width="2"><path d="M12 19C12 19 9.5 19 7 19C4.5 19 3 17 3 15C3 13 4.5 11 7 11C8 11 8.5 11.5 8.5 11.5" class="il-md-length-25 il-md-duration-2 il-md-delay-0"></path><path d="M12 19H17C19.5 19 21 17 21 15C21 13 19.5 11 17 11C16 11 15.5 11.5 15.5 11.5" class="il-md-length-25 il-md-duration-2 il-md-delay-0"></path><path d="M17 11C17 11 17 10.5 17 10C17 7.5 15 5 12 5" class="il-md-length-15 il-md-duration-2 il-md-delay-2"></path><path d="M7 11V10C7 7.5 9 5 12 5" class="il-md-length-15 il-md-duration-2 il-md-delay-2"></path></g></svg>