<svg xmlns="http://www.w3.org/2000/svg" xmlns:xlink="http://www.w3.org/1999/xlink" aria-hidden="true" role="img" class="iconify iconify--line-md" width="1em" height="1em" preserveAspectRatio="xMidYMid meet" viewBox="0 0 24 24" data-icon="line-md:emoji-frown-open-twotone"><g fill="none"><circle cx="12" cy="12" r="9" fill="currentColor" fill-opacity=".3" class="il-md-fill il-md-duration-0 il-md-delay-12"></circle><path stroke="currentColor" stroke-linecap="round" stroke-width="2" d="M12 3C16.9706 3 21 7.02944 21 12C21 16.9706 16.9706 21 12 21C7.02944 21 3 16.9706 3 12C3 7.02944 7.02944 3 12 3Z" class="il-md-length-70 il-md-duration-4 il-md-delay-0"></path><path stroke="currentColor" stroke-linecap="round" stroke-width="2" d="M8.5 16C9 15 10 14 12 14C14 14 15 15 15.5 16" class="il-md-length-15 il-md-duration-2 il-md-delay-10"></path><path stroke="currentColor" stroke-linecap="round" stroke-width="2" d="M8.5 16C9.5 15.5 11 15.5 12 15.5C13 15.5 14.5 15.5 15.5 16" class="il-md-length-15 il-md-duration-2 il-md-delay-10"></path><ellipse cx="9" cy="9.5" fill="currentColor" class="il-md-fill il-md-delay-4" rx="1" ry="1.5"></ellipse><ellipse cx="15" cy="9.5" fill="currentColor" class="il-md-fill il-md-delay-7" rx="1" ry="1.5"></ellipse></g></svg>