<svg xmlns="http://www.w3.org/2000/svg" xmlns:xlink="http://www.w3.org/1999/xlink" aria-hidden="true" role="img" class="iconify iconify--line-md" width="1em" height="1em" preserveAspectRatio="xMidYMid meet" viewBox="0 0 24 24" data-icon="line-md:emoji-smile-wink"><g fill="none"><path stroke="currentColor" stroke-linecap="round" stroke-width="2" d="M12 3C16.9706 3 21 7.02944 21 12C21 16.9706 16.9706 21 12 21C7.02944 21 3 16.9706 3 12C3 7.02944 7.02944 3 12 3Z" class="il-md-length-70 il-md-duration-4 il-md-delay-0"></path><path stroke="currentColor" stroke-linecap="round" stroke-width="2" d="M8 14C8.5 15.5 9.79086 17 12 17C14.2091 17 15.5 15.5 16 14" class="il-md-length-15 il-md-duration-2 il-md-delay-10"></path><ellipse cx="9" cy="9.5" fill="currentColor" class="il-md-fill il-md-delay-4" rx="1" ry="1.5"></ellipse><path fill="currentColor" d="M15 8.5C15.8284 8.5 16.5 8.94772 16.5 9.5C16.5 10.0523 15.8284 10.5 15 10.5C14.1716 10.5 13.5 10.0523 13.5 9.5C13.5 8.94772 14.1716 8.5 15 8.5Z" class="il-md-fill il-md-delay-7"></path></g></svg>