<svg xmlns="http://www.w3.org/2000/svg" xmlns:xlink="http://www.w3.org/1999/xlink" aria-hidden="true" role="img" class="iconify iconify--line-md" width="1em" height="1em" preserveAspectRatio="xMidYMid meet" viewBox="0 0 24 24" data-icon="line-md:paint-drop-half-filled-twotone"><g fill="none"><path fill="currentColor" fill-opacity=".3" d="M12 4C12 4 18 9 18 15C18 19 15 20 12 20C9 20 6 19 6 15C6 9 12 4 12 4Z" class="il-md-fill il-md-duration-0 il-md-delay-4"></path><path fill="currentColor" d="M6 15C6 9 12 4 12 4C12 4 14.9522 6.46019 16.715 10L6.8347 18C6.31173 17.2671 6 16.2894 6 15Z" class="il-md-fill il-md-delay-4"></path><path stroke="currentColor" stroke-linecap="round" stroke-width="2" d="M12 3C12 3 19 9 19 15C19 17 18 21 12 21" class="il-md-length-25 il-md-duration-2 il-md-delay-0"></path><path stroke="currentColor" stroke-linecap="round" stroke-width="2" d="M12 3C12 3 5 9 5 15C5 17 6 21 12 21" class="il-md-length-25 il-md-duration-2 il-md-delay-0"></path></g></svg>