<svg xmlns="http://www.w3.org/2000/svg" xmlns:xlink="http://www.w3.org/1999/xlink" aria-hidden="true" role="img" class="iconify iconify--line-md" width="1em" height="1em" preserveAspectRatio="xMidYMid meet" viewBox="0 0 24 24" data-icon="line-md:plus-circle-twotone"><g fill="none"><path fill="currentColor" fill-opacity=".3" d="M3 12C3 7.02944 7.02944 3 12 3C16.9706 3 21 7.02944 21 12C21 16.9706 16.9706 21 12 21C7.02944 21 3 16.9706 3 12Z" class="il-md-fill il-md-duration-0 il-md-delay-9"></path><path stroke="currentColor" stroke-linecap="round" stroke-width="2" d="M12 7V17" class="il-md-length-15 il-md-duration-2 il-md-delay-7"></path><path stroke="currentColor" stroke-linecap="round" stroke-width="2" d="M7 12H17" class="il-md-length-15 il-md-duration-2 il-md-delay-5"></path><path stroke="currentColor" stroke-linecap="round" stroke-width="2" d="M3 12C3 7.02944 7.02944 3 12 3C16.9706 3 21 7.02944 21 12C21 16.9706 16.9706 21 12 21C7.02944 21 3 16.9706 3 12Z" class="il-md-length-70 il-md-duration-4 il-md-delay-0"></path></g></svg>