<svg xmlns="http://www.w3.org/2000/svg" xmlns:xlink="http://www.w3.org/1999/xlink" aria-hidden="true" role="img" class="iconify iconify--line-md" width="1em" height="1em" preserveAspectRatio="xMidYMid meet" viewBox="0 0 24 24" data-icon="line-md:question-circle-twotone"><g fill="none"><circle cx="12" cy="12" r="9" fill="currentColor" fill-opacity=".3" class="il-md-fill il-md-duration-0 il-md-delay-10"></circle><path stroke="currentColor" stroke-linecap="round" stroke-width="2" d="M12 3C16.9706 3 21 7.02944 21 12C21 16.9706 16.9706 21 12 21C7.02944 21 3 16.9706 3 12C3 7.02944 7.02944 3 12 3Z" class="il-md-length-70 il-md-duration-4 il-md-delay-0"></path><circle cx="12" cy="17" r="1" fill="currentColor" class="il-md-fill il-md-delay-7"></circle><path stroke="currentColor" stroke-linecap="round" stroke-width="2" d="M8.99999 10C8.99999 8.34315 10.3431 7 12 7C13.6569 7 15 8.34315 15 10C15 10.9814 14.5288 11.8527 13.8003 12.4C13.0718 12.9473 12.5 13 12 14" class="il-md-length-15 il-md-duration-2 il-md-delay-5"></path></g></svg>