<svg xmlns="http://www.w3.org/2000/svg" xmlns:xlink="http://www.w3.org/1999/xlink" aria-hidden="true" role="img" class="iconify iconify--noto-v1" width="1em" height="1em" preserveAspectRatio="xMidYMid meet" viewBox="0 0 128 128" data-icon="noto-v1:chains"><defs><path id="IconifyId17f59f9569457f809108" d="M0 0h128v128H0z"></path></defs><clipPath id="IconifyId17f59f9569457f809109"><use href="#IconifyId17f59f9569457f809108"></use></clipPath><g clip-path="url(#IconifyId17f59f9569457f809109)"><path fill="#78a3ad" d="M39.01 93.33c-10.98 0-19.92-8.94-19.92-19.92V54.1c0-10.98 8.94-19.92 19.92-19.92s19.92 8.94 19.92 19.92v19.31c-.01 10.99-8.94 19.92-19.92 19.92zm0-48.28c-4.99 0-9.05 4.06-9.05 9.05v19.31c0 4.99 4.06 9.05 9.05 9.05s9.05-4.06 9.05-9.05V54.1c0-4.99-4.06-9.05-9.05-9.05z"></path></g><g clip-path="url(#IconifyId17f59f9569457f809109)"><path fill="#78a3ad" d="M39.01 26.09c-10.98 0-19.92-8.94-19.92-19.92v-19.31c0-10.98 8.94-19.92 19.92-19.92s19.92 8.94 19.92 19.92V6.17c-.01 10.98-8.94 19.92-19.92 19.92zm0-48.29c-4.99 0-9.05 4.06-9.05 9.05V6.17c0 4.99 4.06 9.05 9.05 9.05s9.05-4.06 9.05-9.05v-19.31c0-5-4.06-9.06-9.05-9.06z"></path></g><g clip-path="url(#IconifyId17f59f9569457f809109)"><path fill="#8bacb2" d="M39.01-24.2c-4.99 0-9.05 4.06-9.05 9.05v2c0-4.99 4.06-9.05 9.05-9.05c4.99 0 9.05 4.06 9.05 9.05v-2c0-4.99-4.06-9.05-9.05-9.05z"></path></g><g clip-path="url(#IconifyId17f59f9569457f809109)"><path fill="#78a3ad" d="M39.01 160.94c-10.98 0-19.92-8.94-19.92-19.92V121.7c0-10.98 8.94-19.92 19.92-19.92s19.92 8.94 19.92 19.92v19.31c-.01 10.99-8.94 19.93-19.92 19.93zm0-48.29c-4.99 0-9.05 4.06-9.05 9.05v19.31c0 4.99 4.06 9.05 9.05 9.05s9.05-4.06 9.05-9.05V121.7c0-4.99-4.06-9.05-9.05-9.05z"></path></g><g clip-path="url(#IconifyId17f59f9569457f809109)"><path fill="#8bacb2" d="M39.01 158.94c-10.98 0-19.92-8.94-19.92-19.92v2c0 10.98 8.94 19.92 19.92 19.92c10.98 0 19.92-8.94 19.92-19.92v-2c-.01 10.98-8.94 19.92-19.92 19.92z"></path></g><g clip-path="url(#IconifyId17f59f9569457f809109)"><path fill="#64878e" d="M39.01 122.31c-3 0-5.43-2.43-5.43-5.43V78.25c0-3 2.43-5.43 5.43-5.43s5.43 2.43 5.43 5.43v38.63c0 2.99-2.43 5.43-5.43 5.43z"></path></g><path fill="#64878e" d="M39.01 54.71c-3 0-5.43-2.43-5.43-5.43V10.64c0-3 2.43-5.43 5.43-5.43s5.43 2.43 5.43 5.43v38.63c0 3-2.43 5.44-5.43 5.44z" clip-path="url(#IconifyId17f59f9569457f809109)"></path><g clip-path="url(#IconifyId17f59f9569457f809109)"><path fill="#78a3ad" d="M90.63 126.33c-10.98 0-19.92-8.94-19.92-19.92V87.1c0-10.98 8.94-19.92 19.92-19.92s19.92 8.94 19.92 19.92v19.31c0 10.99-8.94 19.92-19.92 19.92zm0-48.28c-4.99 0-9.05 4.06-9.05 9.05v19.31c0 4.99 4.06 9.05 9.05 9.05s9.05-4.06 9.05-9.05V87.1c.01-4.99-4.06-9.05-9.05-9.05z"></path></g><g clip-path="url(#IconifyId17f59f9569457f809109)"><path fill="#8bacb2" d="M90.63 76.05c-4.99 0-9.05 4.06-9.05 9.05v2c0-4.99 4.06-9.05 9.05-9.05c4.99 0 9.05 4.06 9.05 9.05v-2c.01-4.99-4.06-9.05-9.05-9.05z"></path></g><g clip-path="url(#IconifyId17f59f9569457f809109)"><path fill="#78a3ad" d="M90.63 59.09c-10.98 0-19.92-8.94-19.92-19.92V19.85c0-10.98 8.94-19.92 19.92-19.92s19.92 8.94 19.92 19.92v19.31c0 10.99-8.94 19.93-19.92 19.93zm0-48.29c-4.99 0-9.05 4.06-9.05 9.05v19.31c0 4.99 4.06 9.05 9.05 9.05s9.05-4.06 9.05-9.05V19.85c.01-4.99-4.06-9.05-9.05-9.05z"></path></g><path d="M83.63 136.08v12.89c1.66-2.02 4.18-3.32 7-3.32s5.34 1.29 7 3.32v-12.89c-2.18-.82-4.53-1.29-7-1.29c-2.46-.01-4.82.47-7 1.29z" clip-path="url(#IconifyId17f59f9569457f809109)" opacity=".1"></path><g clip-path="url(#IconifyId17f59f9569457f809109)"><path fill="#64878e" d="M90.63 155.31c-3 0-5.43-2.43-5.43-5.43v-38.63c0-3 2.43-5.43 5.43-5.43s5.43 2.43 5.43 5.43v38.63c0 2.99-2.43 5.43-5.43 5.43z"></path></g><path fill="#64878e" d="M90.63 87.71c-3 0-5.43-2.43-5.43-5.43V43.64c0-3 2.43-5.43 5.43-5.43s5.43 2.43 5.43 5.43v38.63c0 3-2.43 5.44-5.43 5.44z" clip-path="url(#IconifyId17f59f9569457f809109)"></path><path fill="#55a7d0" d="M90.63 154.4c-3 0-5.43-2.43-5.43-5.43v1c0 3 2.43 5.43 5.43 5.43c3 0 5.43-2.43 5.43-5.43v-1c0 3-2.43 5.43-5.43 5.43z" clip-path="url(#IconifyId17f59f9569457f809109)"></path><path fill="#64878e" d="M90.63 20.59c-3 0-5.43-2.43-5.43-5.43v-38.63c0-3 2.43-5.43 5.43-5.43s5.43 2.43 5.43 5.43v38.63c0 2.99-2.43 5.43-5.43 5.43z" clip-path="url(#IconifyId17f59f9569457f809109)"></path></svg>