<svg xmlns="http://www.w3.org/2000/svg" xmlns:xlink="http://www.w3.org/1999/xlink" aria-hidden="true" role="img" class="iconify iconify--fontisto" width="0.96em" height="1em" preserveAspectRatio="xMidYMid meet" viewBox="0 0 23 24"><path fill="currentColor" d="M12 5.217a2.608 2.608 0 1 1 0-5.216a2.608 2.608 0 0 1 0 5.216zm8.609 0a2.608 2.608 0 1 1 0-5.216a2.608 2.608 0 0 1 0 5.216zm-18 0a2.608 2.608 0 1 1 0-5.216a2.608 2.608 0 0 1 0 5.216zM12 14.608a2.608 2.608 0 1 1 0-5.216a2.608 2.608 0 0 1 0 5.216zm8.609 0a2.608 2.608 0 1 1 0-5.216a2.608 2.608 0 0 1 0 5.216zm-18 0a2.608 2.608 0 1 1 0-5.216a2.608 2.608 0 0 1 0 5.216zM12 23.999a2.608 2.608 0 1 1 0-5.216A2.608 2.608 0 0 1 12 24zm8.609 0a2.608 2.608 0 1 1 0-5.216a2.608 2.608 0 0 1 0 5.216zm-18 0a2.608 2.608 0 1 1 0-5.216a2.608 2.608 0 0 1 0 5.216z"></path></svg>