<svg xmlns="http://www.w3.org/2000/svg" xmlns:xlink="http://www.w3.org/1999/xlink" aria-hidden="true" role="img" class="iconify iconify--system-uicons" width="1em" height="1em" preserveAspectRatio="xMidYMid meet" viewBox="0 0 21 21" data-icon="system-uicons:calculator"><g fill="none" fill-rule="evenodd"><path stroke="currentColor" stroke-linecap="round" stroke-linejoin="round" d="M7.5 4.5h6a2 2 0 0 1 2 2v9a2 2 0 0 1-2 2h-6a2 2 0 0 1-2-2v-9a2 2 0 0 1 2-2zm-2 5h10"></path><g fill="currentColor" transform="translate(5 4)"><circle cx="2.5" cy="7.5" r="1"></circle><circle cx="4.5" cy="7.5" r="1"></circle><circle cx="6.5" cy="7.5" r="1"></circle><circle cx="8.5" cy="7.5" r="1"></circle><circle cx="2.5" cy="9.5" r="1"></circle><circle cx="4.5" cy="9.5" r="1"></circle><circle cx="6.5" cy="9.5" r="1"></circle><circle cx="8.5" cy="9.5" r="1"></circle><circle cx="2.5" cy="11.5" r="1"></circle><circle cx="4.5" cy="11.5" r="1"></circle><circle cx="6.5" cy="11.5" r="1"></circle><circle cx="8.5" cy="11.5" r="1"></circle></g></g></svg>