<svg xmlns="http://www.w3.org/2000/svg" xmlns:xlink="http://www.w3.org/1999/xlink" aria-hidden="true" role="img" class="iconify iconify--system-uicons" width="1em" height="1em" preserveAspectRatio="xMidYMid meet" viewBox="0 0 21 21" data-icon="system-uicons:card-view"><path fill="none" stroke="currentColor" stroke-linecap="round" stroke-linejoin="round" d="M7.5 3.5h6a2 2 0 0 1 2 2v10a2 2 0 0 1-2 2h-6a2 2 0 0 1-2-2v-10a2 2 0 0 1 2-2zm8 2.5h1a2 2 0 0 1 2 2v5a2 2 0 0 1-2 2h-1zm-10 0h-1a2 2 0 0 0-2 2v5a2 2 0 0 0 2 2h1z"></path></svg>