<svg xmlns="http://www.w3.org/2000/svg" xmlns:xlink="http://www.w3.org/1999/xlink" aria-hidden="true" role="img" class="iconify iconify--system-uicons" width="1em" height="1em" preserveAspectRatio="xMidYMid meet" viewBox="0 0 21 21" data-icon="system-uicons:filtering"><path fill="none" stroke="currentColor" stroke-linecap="round" stroke-linejoin="round" d="M6.5 4a1 1 0 0 1 1 1v2a1 1 0 1 1-2 0V5a1 1 0 0 1 1-1zm12 2h-11m-2 0h-3m4 8a1 1 0 0 1 1 1v2a1 1 0 0 1-2 0v-2a1 1 0 0 1 1-1zm12 2h-11m-2 0h-3m12-7a1 1 0 0 1 1 1v2a1 1 0 0 1-2 0v-2a1 1 0 0 1 1-1zm-1 2h-11m16 0h-3"></path></svg>