<svg xmlns="http://www.w3.org/2000/svg" xmlns:xlink="http://www.w3.org/1999/xlink" aria-hidden="true" role="img" class="iconify iconify--system-uicons" width="1em" height="1em" preserveAspectRatio="xMidYMid meet" viewBox="0 0 21 21"><g fill="none" fill-rule="evenodd"><path stroke="currentColor" stroke-linecap="round" stroke-linejoin="round" d="M19.5 13.5v-6a2 2 0 0 0-2-2h-14a2 2 0 0 0-2 2v6a2 2 0 0 0 2 2h14a2 2 0 0 0 2-2z"></path><g fill="currentColor" transform="translate(1 5)"><circle cx="3.5" cy="2.5" r="1"></circle><circle cx="6.5" cy="2.5" r="1"></circle><circle cx="9.5" cy="2.5" r="1"></circle><circle cx="12.5" cy="2.5" r="1"></circle><circle cx="15.5" cy="2.5" r="1"></circle><circle cx="3.5" cy="4.5" r="1"></circle><circle cx="6.5" cy="4.5" r="1"></circle><circle cx="9.5" cy="4.5" r="1"></circle><circle cx="12.5" cy="4.5" r="1"></circle><circle cx="15.5" cy="4.5" r="1"></circle><circle cx="3.5" cy="6.5" r="1"></circle><circle cx="6.5" cy="6.5" r="1"></circle><circle cx="9.5" cy="6.5" r="1"></circle><circle cx="12.5" cy="6.5" r="1"></circle><circle cx="15.5" cy="6.5" r="1"></circle><circle cx="3.5" cy="8.5" r="1"></circle><circle cx="15.5" cy="8.5" r="1"></circle></g><path stroke="currentColor" stroke-linecap="round" stroke-linejoin="round" d="M7.5 13.5h6"></path></g></svg>