<svg xmlns="http://www.w3.org/2000/svg" xmlns:xlink="http://www.w3.org/1999/xlink" aria-hidden="true" role="img" class="iconify iconify--system-uicons" width="1em" height="1em" preserveAspectRatio="xMidYMid meet" viewBox="0 0 21 21"><g fill="none" fill-rule="evenodd" stroke="currentColor" stroke-linecap="round" stroke-linejoin="round"><path d="M4.5 7.165h9m-8.019 3.038l1-.018a1 1 0 0 1 1.01.864l.009.135v.984a1 1 0 0 1-.981 1l-1 .018a1 1 0 0 1-1.01-.864l-.009-.136v-.983a1 1 0 0 1 .981-1z"></path><path d="M3.5 4.15h11a2 2 0 0 1 2 2v10.015h-13a2 2 0 0 1-2-2V6.151a2 2 0 0 1 2-2zm6 6.015h4m-4 3h4"></path><path d="M16 16.165a2.5 2.5 0 0 0 2.5-2.5v-6.5h-2"></path></g></svg>