<svg xmlns="http://www.w3.org/2000/svg" xmlns:xlink="http://www.w3.org/1999/xlink" aria-hidden="true" role="img" class="iconify iconify--system-uicons" width="1em" height="1em" preserveAspectRatio="xMidYMid meet" viewBox="0 0 21 21"><g fill="none" fill-rule="evenodd" stroke="currentColor" stroke-linecap="round" stroke-linejoin="round"><path d="M15.5 3.5h-7a2 2 0 0 0-2 2v9a2 2 0 0 0 2 2h7a2 2 0 0 0 2-2v-9a2 2 0 0 0-2-2z"></path><path d="M6.5 5.5a2 2 0 0 0-2 2v8a3 3 0 0 0 3 3h6a2 2 0 0 0 2-2"></path></g></svg>