<svg xmlns="http://www.w3.org/2000/svg" xmlns:xlink="http://www.w3.org/1999/xlink" aria-hidden="true" role="img" class="iconify iconify--system-uicons" width="1em" height="1em" preserveAspectRatio="xMidYMid meet" viewBox="0 0 21 21"><g fill="none" fill-rule="evenodd" stroke="currentColor" stroke-linecap="round" stroke-linejoin="round"><path d="M14.5 12.5v-7a2 2 0 0 0-2-2h-7a2 2 0 0 0-2 2v7a2 2 0 0 0 2 2h7a2 2 0 0 0 2-2z"></path><path d="M6.5 14.5v1a2 2 0 0 0 2 2h7a2 2 0 0 0 2-2v-7a2 2 0 0 0-2-2h-1"></path></g></svg>