<svg xmlns="http://www.w3.org/2000/svg" xmlns:xlink="http://www.w3.org/1999/xlink" aria-hidden="true" role="img" class="iconify iconify--system-uicons" width="1em" height="1em" preserveAspectRatio="xMidYMid meet" viewBox="0 0 21 21"><g fill="none" fill-rule="evenodd" stroke="currentColor" stroke-linecap="round" stroke-linejoin="round"><path d="M3.5 15.5v-10a2 2 0 0 1 2-2h10a2 2 0 0 1 2 2v10a2 2 0 0 1-2 2h-10a2 2 0 0 1-2-2z"></path><path fill="currentColor" d="M5.5 15.5v-10a2 2 0 0 1 2-2h-2c-1 0-2 .895-2 2v10c0 1.105 1 2 2 2h2a2 2 0 0 1-2-2z"></path><path d="m10.5 13.5l-3-3l3-3m5 3h-8"></path></g></svg>