<svg xmlns="http://www.w3.org/2000/svg" xmlns:xlink="http://www.w3.org/1999/xlink" aria-hidden="true" role="img" class="iconify iconify--fa6-solid" width="0.63em" height="1em" preserveAspectRatio="xMidYMid meet" viewBox="0 0 320 512" data-icon="fa6-solid:9"><path fill="currentColor" d="M160 32.01c-88.22 0-160 71.78-160 160c0 85.57 67.71 155.1 152.3 159.2l-64.65 76.06c-11.47 13.45-9.812 33.66 3.656 45.09c6 5.125 13.38 7.62 20.72 7.62c9.062 0 18.06-3.823 24.38-11.28C281.9 297.5 320 266.6 320 192c0-88.2-71.8-159.99-160-159.99zM160 288c-52.94 0-96-43.06-96-95.1s43.06-96 96-96s96 43.06 96 96s-43.1 95.1-96 95.1z"></path></svg>