<svg xmlns="http://www.w3.org/2000/svg" xmlns:xlink="http://www.w3.org/1999/xlink" aria-hidden="true" role="img" class="iconify iconify--fa6-solid" width="0.88em" height="1em" preserveAspectRatio="xMidYMid meet" viewBox="0 0 448 512" data-icon="fa6-solid:align-right"><path fill="currentColor" d="M416 96H192c-17.7 0-32-14.33-32-32s14.3-32 32-32h224c17.7 0 32 14.33 32 32s-14.3 32-32 32zm0 256H192c-17.7 0-32-14.3-32-32s14.3-32 32-32h224c17.7 0 32 14.3 32 32s-14.3 32-32 32zM0 192c0-17.7 14.33-32 32-32h384c17.7 0 32 14.3 32 32s-14.3 32-32 32H32c-17.67 0-32-14.3-32-32zm416 288H32c-17.67 0-32-14.3-32-32s14.33-32 32-32h384c17.7 0 32 14.3 32 32s-14.3 32-32 32z"></path></svg>