<svg xmlns="http://www.w3.org/2000/svg" xmlns:xlink="http://www.w3.org/1999/xlink" aria-hidden="true" role="img" class="iconify iconify--fa6-solid" width="1em" height="1em" preserveAspectRatio="xMidYMid meet" viewBox="0 0 512 512" data-icon="fa6-solid:archway"><path fill="currentColor" d="M480 32c17.7 0 32 14.33 32 32s-14.3 32-32 32H32C14.33 96 0 81.67 0 64s14.33-32 32-32h448zM32 128h448v288c17.7 0 32 14.3 32 32s-14.3 32-32 32H352V352c0-53.9-43-96-96-96c-53.9 0-96 42.1-96 96v128H32c-17.67 0-32-14.3-32-32s14.33-32 32-32V128z"></path></svg>