<svg xmlns="http://www.w3.org/2000/svg" xmlns:xlink="http://www.w3.org/1999/xlink" aria-hidden="true" role="img" class="iconify iconify--fa6-solid" width="1em" height="1em" preserveAspectRatio="xMidYMid meet" viewBox="0 0 512 512" data-icon="fa6-solid:bahai"><path fill="currentColor" d="m496.3 202.5l-110-15.38l41.88-104.4c6.625-16.63-11.63-32.25-26.63-22.63L307.5 120L273.37 12.9C270.6 4.25 263.4 0 255.1 0c-6.5 0-13.7 4.25-16.5 12.88L204.5 120l-94-59.88c-15-9.5-33.22 5.1-26.6 22.63l41.85 104.4L15.71 202.5c-17.499 2.5-21.625 26.3-6 34.7l98.14 52.63l-74.51 83.5c-10.88 12.25-1.78 31 13.35 31c1.25 0 2.657-.25 4.032-.5l108.6-23.63l-4.126 112.5C154.7 504.4 164.1 512 173.6 512c5.125 0 10.38-2.25 14.25-7.25l68.13-88.88l68.23 88.88c2.89 5.05 8.99 7.25 14.19 7.25c9.5 0 18.88-7.625 18.38-19.25l-4.032-112.5l108.5 23.63c17.38 3.75 29.25-17.25 17.38-30.5l-74.51-83.5l98.14-52.72C517.9 228.8 513.8 205 496.3 202.5zM338.5 311.6l-51.9-11.2l2 53.75l-32.63-42.5l-32.63 42.5l2-53.75l-51.84 11.2l35.63-39.87l-47.03-25.13l52.6-7.4l-20-49.8l45 28.63l15.4-51.23l16.25 51.25l45-28.63l-19.15 49.78l52.63 7.375l-47 25.13L338.5 311.6z"></path></svg>