<svg xmlns="http://www.w3.org/2000/svg" xmlns:xlink="http://www.w3.org/1999/xlink" aria-hidden="true" role="img" class="iconify iconify--fa6-solid" width="0.88em" height="1em" preserveAspectRatio="xMidYMid meet" viewBox="0 0 448 512" data-icon="fa6-solid:border-none"><path fill="currentColor" d="M64 448c0 17.7-14.33 32-32 32S0 465.7 0 448s14.33-32 32-32s32 14.3 32 32zm64 32c-17.7 0-32-14.3-32-32s14.3-32 32-32s32 14.3 32 32s-14.3 32-32 32zm0-384c-17.7 0-32-14.33-32-32s14.3-32 32-32s32 14.33 32 32s-14.3 32-32 32zm32 160c0 17.7-14.3 32-32 32s-32-14.3-32-32s14.3-32 32-32s32 14.3 32 32zm160 224c-17.7 0-32-14.3-32-32s14.3-32 32-32s32 14.3 32 32s-14.3 32-32 32zm32-416c0 17.67-14.3 32-32 32s-32-14.33-32-32s14.3-32 32-32s32 14.33 32 32zm-32 224c-17.7 0-32-14.3-32-32s14.3-32 32-32s32 14.3 32 32s-14.3 32-32 32zm-64 160c0 17.7-14.3 32-32 32s-32-14.3-32-32s14.3-32 32-32s32 14.3 32 32zM224 96c-17.7 0-32-14.33-32-32s14.3-32 32-32s32 14.33 32 32s-14.3 32-32 32zm32 160c0 17.7-14.3 32-32 32s-32-14.3-32-32s14.3-32 32-32s32 14.3 32 32zm160 224c-17.7 0-32-14.3-32-32s14.3-32 32-32s32 14.3 32 32s-14.3 32-32 32zm0-384c-17.7 0-32-14.33-32-32s14.3-32 32-32s32 14.33 32 32s-14.3 32-32 32zM64 64c0 17.67-14.33 32-32 32S0 81.67 0 64s14.33-32 32-32s32 14.33 32 32zm352 224c-17.7 0-32-14.3-32-32s14.3-32 32-32s32 14.3 32 32s-14.3 32-32 32zM64 256c0 17.7-14.33 32-32 32S0 273.7 0 256s14.33-32 32-32s32 14.3 32 32zm160 128c-17.7 0-32-14.3-32-32s14.3-32 32-32s32 14.3 32 32s-14.3 32-32 32zm224-32c0 17.7-14.3 32-32 32s-32-14.3-32-32s14.3-32 32-32s32 14.3 32 32zM32 384c-17.67 0-32-14.3-32-32s14.33-32 32-32s32 14.3 32 32s-14.33 32-32 32zm416-224c0 17.7-14.3 32-32 32s-32-14.3-32-32s14.3-32 32-32s32 14.3 32 32zM32 192c-17.67 0-32-14.3-32-32s14.33-32 32-32s32 14.3 32 32s-14.33 32-32 32zm224-32c0 17.7-14.3 32-32 32s-32-14.3-32-32s14.3-32 32-32s32 14.3 32 32z"></path></svg>