<svg xmlns="http://www.w3.org/2000/svg" xmlns:xlink="http://www.w3.org/1999/xlink" aria-hidden="true" role="img" class="iconify iconify--fa6-solid" width="0.88em" height="1em" preserveAspectRatio="xMidYMid meet" viewBox="0 0 448 512" data-icon="fa6-solid:border-top-left"><path fill="currentColor" d="M0 112c0-44.18 35.82-80 80-80h336c17.7 0 32 14.33 32 32s-14.3 32-32 32H80c-8.84 0-16 7.2-16 16v336c0 17.7-14.33 32-32 32S0 465.7 0 448V112zm128 368c-17.7 0-32-14.3-32-32s14.3-32 32-32s32 14.3 32 32s-14.3 32-32 32zm192 0c-17.7 0-32-14.3-32-32s14.3-32 32-32s32 14.3 32 32s-14.3 32-32 32zm-64-32c0 17.7-14.3 32-32 32s-32-14.3-32-32s14.3-32 32-32s32 14.3 32 32zm160 32c-17.7 0-32-14.3-32-32s14.3-32 32-32s32 14.3 32 32s-14.3 32-32 32zm0-192c-17.7 0-32-14.3-32-32s14.3-32 32-32s32 14.3 32 32s-14.3 32-32 32zm32 64c0 17.7-14.3 32-32 32s-32-14.3-32-32s14.3-32 32-32s32 14.3 32 32zm-32-160c-17.7 0-32-14.3-32-32s14.3-32 32-32s32 14.3 32 32s-14.3 32-32 32z"></path></svg>