<svg xmlns="http://www.w3.org/2000/svg" xmlns:xlink="http://www.w3.org/1999/xlink" aria-hidden="true" role="img" class="iconify iconify--fa6-solid" width="1em" height="1em" preserveAspectRatio="xMidYMid meet" viewBox="0 0 512 512" data-icon="fa6-solid:bowling-ball"><path fill="currentColor" d="M256 0C114.6 0 0 114.6 0 256s114.6 256 256 256s256-114.6 256-256S397.4 0 256 0zM144 208c-17.7 0-32-14.25-32-32s14.3-32 32-32s32 14.25 32 32s-14.3 32-32 32zm96-128c17.66 0 31.95 14.25 31.95 32s-14.29 32-31.95 32s-32.05-14.25-32.05-32S222.4 80 240 80zm0 160c-17.7 0-32-14.25-32-32s14.3-32 32-32s32 14.25 32 32s-14.3 32-32 32z"></path></svg>