<svg xmlns="http://www.w3.org/2000/svg" xmlns:xlink="http://www.w3.org/1999/xlink" aria-hidden="true" role="img" class="iconify iconify--fa6-solid" width="1em" height="1em" preserveAspectRatio="xMidYMid meet" viewBox="0 0 512 512" data-icon="fa6-solid:bullseye"><path fill="currentColor" d="M288 256c0 17.7-14.3 32-32 32s-32-14.3-32-32s14.3-32 32-32s32 14.3 32 32zm-176 0c0-79.5 64.5-144 144-144s144 64.5 144 144s-64.5 144-144 144s-144-64.5-144-144zm144 80c44.2 0 80-35.8 80-80s-35.8-80-80-80s-80 35.8-80 80s35.8 80 80 80zm256-80c0 141.4-114.6 256-256 256S0 397.4 0 256S114.6 0 256 0s256 114.6 256 256zM256 64C149.1 64 64 149.1 64 256c0 106 85.1 192 192 192c106 0 192-86 192-192c0-106.9-86-192-192-192z"></path></svg>