<svg xmlns="http://www.w3.org/2000/svg" xmlns:xlink="http://www.w3.org/1999/xlink" aria-hidden="true" role="img" class="iconify iconify--fa6-solid" width="0.88em" height="1em" preserveAspectRatio="xMidYMid meet" viewBox="0 0 448 512" data-icon="fa6-solid:bus-simple"><path fill="currentColor" d="M224 0c124.8 0 224 35.2 224 80v336c0 17.7-14.3 32-32 32v32c0 17.7-14.3 32-32 32h-32c-17.7 0-32-14.3-32-32v-32H128v32c0 17.7-14.3 32-32 32H64c-17.67 0-32-14.3-32-32v-32c-17.67 0-32-14.3-32-32V80C0 35.2 99.19 0 224 0zM64 256c0 17.7 14.33 32 32 32h256c17.7 0 32-14.3 32-32V128c0-17.7-14.3-32-32-32H96c-17.67 0-32 14.3-32 32v128zm16 144c17.67 0 32-14.3 32-32s-14.33-32-32-32s-32 14.3-32 32s14.33 32 32 32zm288 0c17.7 0 32-14.3 32-32s-14.3-32-32-32s-32 14.3-32 32s14.3 32 32 32z"></path></svg>