<svg xmlns="http://www.w3.org/2000/svg" xmlns:xlink="http://www.w3.org/1999/xlink" aria-hidden="true" role="img" class="iconify iconify--fa6-solid" width="0.88em" height="1em" preserveAspectRatio="xMidYMid meet" viewBox="0 0 448 512" data-icon="fa6-solid:calendar-xmark"><path fill="currentColor" d="M160 32v32h128V32c0-17.67 14.3-32 32-32s32 14.33 32 32v32h48c26.5 0 48 21.49 48 48v48H0v-48c0-26.51 21.49-48 48-48h48V32c0-17.67 14.3-32 32-32s32 14.33 32 32zM0 192h448v272c0 26.5-21.5 48-48 48H48c-26.51 0-48-21.5-48-48V192zm304.1 112.1c10.2-8.5 10.2-23.7 0-33.1c-8.5-9.3-23.7-9.3-33.1 0l-47 47.1l-47.9-47.1c-8.5-9.3-23.7-9.3-33.1 0c-9.3 9.4-9.3 24.6 0 33.1l47.1 47.9l-47.1 47c-9.3 9.4-9.3 24.6 0 33.1c9.4 10.2 24.6 10.2 33.1 0l47.9-46.2l47 46.2c9.4 10.2 24.6 10.2 33.1 0c10.2-8.5 10.2-23.7 0-33.1l-46.2-47l46.2-47.9z"></path></svg>