<svg xmlns="http://www.w3.org/2000/svg" xmlns:xlink="http://www.w3.org/1999/xlink" aria-hidden="true" role="img" class="iconify iconify--fa6-solid" width="1em" height="1em" preserveAspectRatio="xMidYMid meet" viewBox="0 0 512 512"><path fill="currentColor" d="M0 256C0 114.6 114.6 0 256 0s256 114.6 256 256s-114.6 256-256 256S0 397.4 0 256zm371.8-44.2c10.9-10.9 10.9-28.7 0-39.6c-10.9-10.9-28.7-10.9-39.6 0L224 280.4l-44.2-44.2c-10.9-10.9-28.7-10.9-39.6 0c-10.9 10.9-10.9 28.7 0 39.6l64 64c10.9 10.9 28.7 10.9 39.6 0l128-128z"></path></svg>