<svg xmlns="http://www.w3.org/2000/svg" xmlns:xlink="http://www.w3.org/1999/xlink" aria-hidden="true" role="img" class="iconify iconify--fa6-solid" width="1em" height="1em" preserveAspectRatio="xMidYMid meet" viewBox="0 0 512 512"><path fill="currentColor" d="M256 0C114.6 0 0 114.6 0 256s114.6 256 256 256s256-114.6 256-256S397.4 0 256 0zm112 360c0 13.25-10.75 24-24 24s-24-10.7-24-24v-80H192v80c0 13.3-10.7 24-24 24s-24-10.7-24-24V152c0-13.2 10.8-24 24-24s24 10.8 24 24v80h128v-80c0-13.2 10.8-24 24-24s24 10.75 24 24v208z"></path></svg>