<svg xmlns="http://www.w3.org/2000/svg" xmlns:xlink="http://www.w3.org/1999/xlink" aria-hidden="true" role="img" class="iconify iconify--fa6-solid" width="1.13em" height="1em" preserveAspectRatio="xMidYMid meet" viewBox="0 0 576 512"><path fill="currentColor" d="M576 384c0 35.3-28.7 64-64 64H205.3c-17 0-33.3-6.7-45.3-18.7L9.372 278.6C3.371 272.6 0 264.5 0 256c0-8.5 3.372-16.6 9.372-22.6L160 82.75C172 70.74 188.3 64 205.3 64H512c35.3 0 64 28.65 64 64v256zM271 208.1l47.1 47.9l-47.1 47c-9.3 9.4-9.3 24.6 0 33.1c9.4 10.2 24.6 10.2 33.1 0l47.9-46.2l47 46.2c9.4 10.2 24.6 10.2 33.1 0c10.2-8.5 10.2-23.7 0-33.1l-46.2-47l46.2-47.9c10.2-8.5 10.2-23.7 0-33.1c-8.5-9.3-23.7-9.3-33.1 0l-47 47.1l-47.9-47.1c-8.5-9.3-23.7-9.3-33.1 0c-9.3 9.4-9.3 24.6 0 33.1z"></path></svg>