<svg xmlns="http://www.w3.org/2000/svg" xmlns:xlink="http://www.w3.org/1999/xlink" aria-hidden="true" role="img" class="iconify iconify--fa6-solid" width="1em" height="1em" preserveAspectRatio="xMidYMid meet" viewBox="0 0 512 512"><path fill="currentColor" d="M0 256C0 114.6 114.6 0 256 0s256 114.6 256 256s-114.6 256-256 256S0 397.4 0 256zm256 160c35.3 0 64-28.7 64-64s-28.7-64-64-64s-64 28.7-64 64s28.7 64 64 64zM100.7 155.3l36.7 36.7l-36.7 36.7c-6.26 6.2-6.26 16.4 0 22.6c6.2 6.3 16.4 6.3 22.6 0l36.7-36.7l36.7 36.7c6.2 6.3 16.4 6.3 22.6 0c6.3-6.2 6.3-16.4 0-22.6L182.6 192l36.7-36.7c6.3-6.2 6.3-16.4 0-22.6c-6.2-6.3-16.4-6.3-22.6 0L160 169.4l-36.7-36.7c-6.2-6.3-16.4-6.3-22.6 0c-6.26 6.2-6.26 16.4 0 22.6zm192 0l36.7 36.7l-36.7 36.7c-6.3 6.2-6.3 16.4 0 22.6c6.2 6.3 16.4 6.3 22.6 0l36.7-36.7l36.7 36.7c6.2 6.3 16.4 6.3 22.6 0c6.3-6.2 6.3-16.4 0-22.6L374.6 192l36.7-36.7c6.3-6.2 6.3-16.4 0-22.6c-6.2-6.3-16.4-6.3-22.6 0L352 169.4l-36.7-36.7c-6.2-6.3-16.4-6.3-22.6 0c-6.3 6.2-6.3 16.4 0 22.6z"></path></svg>