<svg xmlns="http://www.w3.org/2000/svg" xmlns:xlink="http://www.w3.org/1999/xlink" aria-hidden="true" role="img" class="iconify iconify--fa6-solid" width="1em" height="1em" preserveAspectRatio="xMidYMid meet" viewBox="0 0 512 512"><path fill="currentColor" d="M0 256C0 114.6 114.6 0 256 0s256 114.6 256 256s-114.6 256-256 256S0 397.4 0 256zm287.9 44.3c-13.2-7.4-30.5-12.3-47.9-12.3c-3.6 0-6.8 2.5-7.7 5.1c-1 4.4.6 8.1 3.8 9l.2 1l.5.3l.4.3c.8.4 2 1.2 3.4 2.1c2.8 1.8 6.6 4.5 10.2 7.6c3.8 3.1 7.2 5.7 9.7 10c1.6 2.7 3.5 6.4 3.5 8.6c0 2.2-1.9 5-3.5 8.6c-2.5 3.4-5.9 6.9-9.7 10c-3.6 3.1-7.4 5.8-10.2 7.6c-1.4.9-2.6 1.7-3.4 2.1l-.6.4l-.3.2l-.2.1c-2.5 1.4-4.1 4.1-4.1 7c0 2.9 1.6 5.6 4.1 6.1l.2 1c.2.1.5.3.9.6c.8.4 2 1.2 3.4 2.1c2.8 1.8 6.6 4.5 10.2 7.6c3.8 3.1 7.2 6.5 9.7 10c1.6 2.7 3.5 6.4 3.5 7.7c0 3.1-1.9 5.9-3.5 9.5c-2.5 3.4-5.9 6.9-9.7 10c-3.6 3.1-7.4 5.8-10.2 7.6c-1.4.9-2.6 1.7-3.4 2.1c-.4.3-.7.5-.9.6l-.2-.8v.9c-3.2 1.8-4.8 5.5-3.8 9c.9 3.5 4.1 5.1 7.7 5.1c17.4 0 34.7-4 47.9-11.4c6.6-3.7 12.5-8.2 16.8-13.4c4.2-5.1 7.3-11.4 7.3-19.2c0-6-3.1-12.3-7.3-17.4c-4.3-5.2-10.2-10.6-16.8-13.4c-2.7-1.6-5.6-3-8.7-5.2c3.1-.4 6-1.8 8.7-3.4c6.6-3.7 12.5-8.2 16.8-13.4c4.2-5.1 7.3-11.4 7.3-19.2c0-6-3.1-12.3-7.3-17.4c-4.3-5.2-10.2-10.6-16.8-13.4zM176.4 176c-17.7 0-32 14.3-32 32s14.3 32 32 32c17.6 0 32-14.3 32-32s-14.4-32-32-32zm160 64c17.6 0 32-14.3 32-32s-14.4-32-32-32c-17.7 0-32 14.3-32 32s14.3 32 32 32z"></path></svg>