<svg xmlns="http://www.w3.org/2000/svg" xmlns:xlink="http://www.w3.org/1999/xlink" aria-hidden="true" role="img" class="iconify iconify--fa6-solid" width="1em" height="1em" preserveAspectRatio="xMidYMid meet" viewBox="0 0 512 512"><path fill="currentColor" d="M0 256C0 114.6 114.6 0 256 0s256 114.6 256 256s-114.6 256-256 256S0 397.4 0 256zm176.4-16c17.6 0 32-14.3 32-32s-14.4-32-32-32c-17.7 0-32 14.3-32 32s14.3 32 32 32zm160-64c-17.7 0-32 14.3-32 32s14.3 32 32 32c17.6 0 32-14.3 32-32s-14.4-32-32-32zm-76.5 193.4c28.9 0 56.3 5.8 80.7 16.1c12.3 5.2 26.1-4.2 20.8-16.4c-16.6-38.2-55.8-66-101.5-66c-45.6 0-84.8 27.7-101.5 66c-5.3 12.2 7.7 21.5 20.9 16.3c24.4-10.3 51.7-16 80.6-16z"></path></svg>