<svg xmlns="http://www.w3.org/2000/svg" xmlns:xlink="http://www.w3.org/1999/xlink" aria-hidden="true" role="img" class="iconify iconify--fa6-solid" width="1em" height="1em" preserveAspectRatio="xMidYMid meet" viewBox="0 0 512 512"><path fill="currentColor" d="M461.8 334.6c-13.7-33.8-50.3-54.3-87.5-43.9c-40.1 11.2-61.9 53.1-51.9 92.1l22.9 89.3c2 7.6 5.6 14.3 10.4 19.7c-30.6 13-64.3 20.2-99.7 20.2C114.6 512 0 397.4 0 256S114.6 0 256 0s256 114.6 256 256c0 29.3-4.9 57.4-14 83.7c-11.1-5.6-23.5-6.6-36.2-5.1zM296 332c0-6.9-3.1-13.2-7.3-18.3c-4.3-5.2-10.2-10.6-16.8-13.4c-13.2-7.4-30.5-12.3-47.9-12.3c-3.6 0-6.8 2.5-7.7 5.1c-1 4.4.6 8.1 3.8 9l.2 1c.2.1.5.3.9.6c.8.4 2 1.2 3.4 2.1c2.8 1.8 6.6 4.5 10.2 7.6c3.8 3.1 7.2 5.7 9.7 10c1.6 2.7 3.5 6.4 3.5 8.6c0 2.2-1.9 5-3.5 8.6c-2.5 3.4-5.9 6.9-9.7 10c-3.6 3.1-7.4 5.8-10.2 7.6c-1.4.9-2.6 1.7-3.4 2.1c-.4.3-.7.5-.9.6l-.2.1c-2.5 1.4-4.1 4.1-4.1 7c0 2.9 1.6 5.6 4.1 6.1l.2 1l.3.2l.6.4c.8.4 2 1.2 3.4 2.1c2.8 1.8 6.6 4.5 10.2 7.6c3.8 3.1 7.2 6.5 9.7 10c1.6 2.7 3.5 6.4 3.5 8.6c0 2.2-1.9 5-3.5 8.6c-2.5 3.4-5.9 6.9-9.7 10c-3.6 3.1-7.4 5.8-10.2 7.6c-1.4.9-2.6 1.7-3.4 2.1c-.4.3-.7.5-.9.6l-.2.1c-3.2 1.8-4.8 5.5-3.8 9c.9 3.5 4.1 5.1 7.7 5.1c17.4 0 34.7-4 47.9-11.4c6.6-3.7 12.5-8.2 16.8-13.4c4.2-5.1 7.3-11.4 7.3-19.2c0-6-3.1-12.3-7.3-17.4c-4.3-5.2-10.2-10.6-16.8-13.4c-2.7-1.6-5.6-3-8.7-5.2c3.1-.4 6-1.8 8.7-3.4c6.6-3.7 12.5-8.2 16.8-13.4c4.2-5.1 7.3-11.4 7.3-19.2v.9zm-119.6-92c17.6 0 32-14.3 32-32s-14.4-32-32-32c-17.7 0-32 14.3-32 32s14.3 32 32 32zm217.2-3.2c7.1-5.3 8.5-15.3 3.2-22.4c-30.4-40.5-91.2-40.5-121.6 0c-5.3 7.1-3.9 17.1 3.2 22.4c7.1 5.3 17.1 3.9 22.4-3.2c17.6-23.5 52.8-23.5 70.4 0c5.3 7.1 15.3 8.5 22.4 3.2zm45.8 136.5l20.1-5.7c22.2-6.2 45.1 7.6 51.1 30.8c5.9 23.3-7.3 47.2-29.5 53.4l-85 23.8c-8.6 2.4-17.5-2.7-19.8-11.4l-22.9-89.3c-5.9-23.3 7.3-47.2 29.5-53.4c22.3-6.2 45.1 7.6 50.2 30.8l6.3 21z"></path></svg>