<svg xmlns="http://www.w3.org/2000/svg" xmlns:xlink="http://www.w3.org/1999/xlink" aria-hidden="true" role="img" class="iconify iconify--fa6-solid" width="1em" height="1em" preserveAspectRatio="xMidYMid meet" viewBox="0 0 512 512"><path fill="currentColor" d="M0 256C0 114.6 114.6 0 256 0s256 114.6 256 256s-114.6 256-256 256S0 397.4 0 256zm256.3 75.8c-47.4 0-92.2-6.9-131.8-19c-12.3-3.8-24.3 6.9-19.3 18.7C130.1 390.6 188.4 432 256.3 432c67.9 0 126.1-41.4 151.1-100.5c5-11.8-7-22.5-19.3-18.7c-39.7 12.1-84.4 19-131.8 19zm137.3-95c7.1-5.3 8.5-15.3 3.2-22.4c-30.4-40.5-91.2-40.5-121.6 0c-5.3 7.1-3.9 17.1 3.2 22.4c7.1 5.3 17.1 3.9 22.4-3.2c17.6-23.5 52.8-23.5 70.4 0c5.3 7.1 15.3 8.5 22.4 3.2zM176.4 240c17.6 0 32-14.3 32-32s-14.4-32-32-32c-17.7 0-32 14.3-32 32s14.3 32 32 32z"></path></svg>