<svg xmlns="http://www.w3.org/2000/svg" xmlns:xlink="http://www.w3.org/1999/xlink" aria-hidden="true" role="img" class="iconify iconify--fa6-solid" width="1.13em" height="1em" preserveAspectRatio="xMidYMid meet" viewBox="0 0 576 512"><path fill="currentColor" d="M3.853 22.87A39.994 39.994 0 0 1 40 0h432c15.5 0 29.5 8.904 36.1 22.87c6.7 13.97 4.6 30.5-6 42.46L396.4 195.6C316.2 212.1 255.1 283 255.1 368c0 27.4 7.2 53.4 18.4 76.5c-1.7-.8-3.2-1.8-4.7-2.9l-64-48c-8.1-6-12.8-15.5-12.8-25.6v-79.1L9.042 65.33a40 40 0 0 1-5.188-42.46h-.001zM576 368c0 79.5-64.5 144-144 144s-144.9-64.5-144.9-144S352.5 224 432 224s144 64.5 144 144zm-163-36.9c5.1-1.8 12.6-3.2 18.8-3.1c7.3.1 17.1 1.8 26.3 4.1c8.6 2.1 17.3-4 19.4-11.7c2.2-8.6-3.1-17.2-11.6-19.4c-5.6-1.4-11.6-2.7-17.9-3.6V288c0-8.8-7.2-16-16-16s-16 7.2-16 16v9.5c-6.1 1.2-12.3 3.2-18.9 6.3c-11 6.3-22.2 18.4-21 37.2c1 16 11.7 25.4 21.6 30.7c8.9 4.7 19.8 7.8 28.6 9.4l1.8 1.4c10.2 2.9 17 5.2 23.1 8.3c4.6 2.7 3.9 4.3 3.9 5.7c1 2.4.4 3.7-1 4.5c.2.1-.9 2.2-4 3.4c-3.8 2.5-10.9 3.8-17.6 2.7c-10.4.6-18.5-2.3-29.9-5.9c-1.9-.6-3.8-1.2-5.8-1.8c-8.5-2.6-17.5 2.1-20.1 10.5c-2.6 8.4 2.1 17.4 10.5 20c1.7.5 3.3.2 5.1 1.6c7 2.3 15.1 4.9 23.7 6.6v11.4c0 8.9 7.2 16 16 16s16-7.1 16-16v-10.8c6.2-1.1 12.5-3.1 18.3-6.2c12-6.6 22.2-18.7 20.8-37c.4-16.1-9.4-26.2-19.6-32.2c-9.4-5.6-21.3-8.9-30.6-11.6h-.1c-10.5-3-18.3-5.2-23.9-8.2c-4.8-2.6-4.8-4-4.8-4.4v-1c-.2-1.1.3-2 .7-2.7c.6-.9 1.8-2.1 4.2-4.3z"></path></svg>