<svg xmlns="http://www.w3.org/2000/svg" xmlns:xlink="http://www.w3.org/1999/xlink" aria-hidden="true" role="img" class="iconify iconify--fa6-solid" width="1.25em" height="1em" preserveAspectRatio="xMidYMid meet" viewBox="0 0 640 512"><path fill="currentColor" d="M489.1 264.9C480.5 207.5 450.5 32 392.3 32c-14 0-26.58 5.875-37.08 14c-20.75 15.87-49.62 15.87-70.5 0c-10.52-8-23.02-14-37.02-14c-58.25 0-88.27 175.5-97.77 232.9C188.7 277.5 243.7 288 319.1 288s132.1-10.5 170-23.1zm143.8-37.2c-6.125-4.125-14.2-3.51-19.7 1.49c-1 .875-101.3 90.77-293.1 90.77c-190.9 0-292.2-89.99-293.2-90.86c-5.5-4.875-13.71-5.508-19.71-1.383c-6.125 4.125-8.587 11.89-6.087 18.77C1.749 248.5 78.37 448 319.1 448s318.2-199.5 318.1-201.5c4.3-6.9 1.8-14.6-4.3-18.8z"></path></svg>