<svg xmlns="http://www.w3.org/2000/svg" xmlns:xlink="http://www.w3.org/1999/xlink" aria-hidden="true" role="img" class="iconify iconify--fa6-solid" width="0.75em" height="1em" preserveAspectRatio="xMidYMid meet" viewBox="0 0 384 512"><path fill="currentColor" d="m128 195.3l119.2-34.1c17-4.8 34.7 5 39.6 22c4.8 17-5 34.7-22 39.6L128 261.9V416h224c17.7 0 32 14.3 32 32s-14.3 32-32 32H96c-17.67 0-32-14.3-32-32V280.1l-23.21 6.7c-16.99 4.8-34.703-5-39.558-22c-4.855-17 4.984-34.7 21.978-39.6L64 213.6V64c0-17.67 14.33-32 32-32c17.7 0 32 14.33 32 32v131.3z"></path></svg>