<svg xmlns="http://www.w3.org/2000/svg" xmlns:xlink="http://www.w3.org/1999/xlink" aria-hidden="true" role="img" class="iconify iconify--fa6-solid" width="1.25em" height="1em" preserveAspectRatio="xMidYMid meet" viewBox="0 0 640 512"><path fill="currentColor" d="M624 384c8.75 0 16-7.25 16-16v-32c0-8.75-7.25-16-16-16H16c-8.75 0-16 7.3-16 16v32c0 8.8 7.25 16 16 16h48v64H16c-8.75 0-16 7.3-16 16v32c0 8.8 7.25 16 16 16h608c8.75 0 16-7.25 16-16v-32c0-8.75-7.25-16-16-16h-48v-64h48zm-336 64H128v-64h160v64zm224 0H352v-64h160v64z"></path></svg>