<svg xmlns="http://www.w3.org/2000/svg" xmlns:xlink="http://www.w3.org/1999/xlink" aria-hidden="true" role="img" class="iconify iconify--fa6-solid" width="0.63em" height="1em" preserveAspectRatio="xMidYMid meet" viewBox="0 0 320 512"><path fill="currentColor" d="M272 63.1h-32c-26.51 0-48 21.49-48 47.1v288c0 26.51 21.49 48 48 48l32 1.8c26.51 0 48-21.49 48-48V112c0-26.51-21.5-48.9-48-48.9zm-192 0H48c-26.51 0-48 21.49-48 48v288C0 426.5 21.49 448 48 448h32c26.51 0 48-21.49 48-48V112c0-26.51-21.5-48.9-48-48.9z"></path></svg>