<svg xmlns="http://www.w3.org/2000/svg" xmlns:xlink="http://www.w3.org/1999/xlink" aria-hidden="true" role="img" class="iconify iconify--fa6-solid" width="1em" height="1em" preserveAspectRatio="xMidYMid meet" viewBox="0 0 512 512"><path fill="currentColor" d="M256 224c-79.37 0-191.1 122.7-191.1 200.2c-.88 34.9 25.86 55.8 70.9 55.8c48.8 0 81.1-25.1 120.2-25.1c39.5 0 71.9 25.1 120.2 25.1c44.1 0 71.74-20.88 71.74-55.75C447.1 346.8 335.4 224 256 224zm-147.2-12.6c-10.37-34.62-42.5-57.12-71.62-50.12S-7.104 202 3.27 236.6c10.37 34.7 42.5 57.2 71.62 50.2s44.21-40.8 33.91-75.4zm84.7-20.8c30.87-8.125 46.37-49.1 34.5-93.37s-46.5-71.1-77.49-63.87c-30.87 8.125-46.37 49.1-34.5 93.37c11.89 43.37 46.49 72.07 77.49 63.87zm281.4-29.3c-29.12-6.1-61.25 15.5-71.62 50.12c-10.37 34.63 4.75 68.37 33.87 75.37c29.12 6.1 61.12-15.5 71.62-50.12C519.1 202 503.1 168.3 474.9 161.3zm-156.4 29.3c30.1 8.125 65.62-20.5 77.49-63.87c11.87-43.37-3.625-85.25-34.5-93.37c-30.1-8.125-65.62 20.5-77.49 63.87c-11.9 43.37 3.6 85.27 34.5 93.37z"></path></svg>