<svg xmlns="http://www.w3.org/2000/svg" xmlns:xlink="http://www.w3.org/1999/xlink" aria-hidden="true" role="img" class="iconify iconify--fa6-solid" width="1em" height="1em" preserveAspectRatio="xMidYMid meet" viewBox="0 0 512 512"><path fill="currentColor" d="M177.9 494.1c-18.7 18.7-49.1 18.7-67.8 0l-92.16-92.2c-18.745-18.7-18.745-49.1 0-67.8l50.75-50.8l48.01 48c6.2 6.3 16.4 6.3 22.6 0c6.3-6.2 6.3-16.4 0-22.6l-47.99-48l41.39-41.4l48 48c6.2 6.3 16.4 6.3 22.6 0c6.3-6.2 6.3-16.4 0-22.6l-48-48l41.4-41.4l48 48c6.2 6.3 16.4 6.3 22.6 0c6.3-6.2 6.3-16.4 0-22.6l-48-48l41.4-41.39l48 47.99c6.2 6.3 16.4 6.3 22.6 0c6.3-6.2 6.3-16.4 0-22.6l-48-48.01l50.8-50.75c18.7-18.745 49.1-18.745 67.8 0l92.2 92.16c18.7 18.7 18.7 49.1 0 67.8L177.9 494.1z"></path></svg>