<svg xmlns="http://www.w3.org/2000/svg" xmlns:xlink="http://www.w3.org/1999/xlink" aria-hidden="true" role="img" class="iconify iconify--fa6-solid" width="1em" height="1em" preserveAspectRatio="xMidYMid meet" viewBox="0 0 512 512"><path fill="currentColor" d="M396.8 51.2c28.3-28.28 74.1-28.28 102.4 0c7.1 7.07 7.1 18.53 0 25.6L216.5 359.5c4.8 12.6 7.5 26.2 7.5 40.5c0 61.9-50.1 112-112 112C50.14 512 0 461.9 0 400s50.14-112.9 112-112.9c14.3 0 27.9 3.6 40.5 8.4l38.6-40.4l-38.6-38.6c-12.6 4.8-26.2 7.5-40.5 7.5C50.14 224 0 173.9 0 112C0 50.14 50.14 0 112 0c61.9 0 112 50.14 112 112c0 14.3-2.7 27.9-7.5 40.5l38.6 38.6L396.8 51.2zM160 111.1c0-25.61-21.5-48-48-48c-26.51 0-48 22.39-48 48c0 27.4 21.49 48 48 48c26.5 0 48-20.6 48-48zM112 448c26.5 0 48-21.5 48-48s-21.5-48-48-48c-26.51 0-48 21.5-48 48s21.49 48 48 48zm166.6-105.4l64-64l156.6 156.6c7.1 7.1 7.1 18.5 0 25.6c-28.3 28.3-74.1 28.3-102.4 0L278.6 342.6z"></path></svg>