<svg xmlns="http://www.w3.org/2000/svg" xmlns:xlink="http://www.w3.org/1999/xlink" aria-hidden="true" role="img" class="iconify iconify--fa6-solid" width="1em" height="1em" preserveAspectRatio="xMidYMid meet" viewBox="0 0 512 512"><path fill="currentColor" d="M475.6 384.1c-5.9 10.2-16.7 15.9-27.7 15.9a31.9 31.9 0 0 1-16.13-4.375l-25.09-14.64l5.379 20.29c3.393 12.81-4.256 25.97-17.08 29.34a23.363 23.363 0 0 1-6.164.813c-10.63 0-20.36-7.094-23.21-17.84l-17.74-66.92L288 311.7v70.5l48.38 48.88c9.338 9.438 9.244 24.62-.187 33.94C331.5 469.7 325.4 472 319.3 472c-6.193 0-12.39-2.375-17.08-7.125L288 450.505V480c0 17.69-14.34 32-32.03 32s-32.03-14.31-32.03-32v-29.5l-14.22 14.37c-9.322 9.438-24.53 9.5-33.97.188c-9.432-9.312-9.525-24.5-.188-33.94l48.38-48.88l-.842-70.538l-59.87 34.93l-17.74 66.92c-2.848 10.75-12.58 17.84-23.21 17.84c-2.035 0-4.1-.25-6.164-.813c-12.82-3.375-20.47-16.53-17.08-29.34l5.379-20.29l-25.09 14.64C75.11 398.6 69.56 400 64.07 400c-11.01 0-21.74-5.688-27.69-15.88c-8.932-15.25-3.785-34.84 11.5-43.75l25.96-15.15l-20.33-5.508C40.7 316.3 33.15 303.1 36.62 290.3s16.61-20.3 29.47-16.9L132 291.3l60.5-35.3l-60.5-35.3l-65.91 17.9a24.473 24.473 0 0 1-6.305.844c-10.57 0-20.27-7.031-23.16-17.72C33.15 208.9 40.7 195.8 53.51 192.3l20.33-5.508L47.88 171.6c-15.28-8.906-20.43-28.5-11.5-43.75c8.885-15.28 28.5-20.44 43.81-11.5l25.09 14.64l-5.38-20.29c-3.39-12.79 4.3-25.95 16.2-29.32c13.8-3.47 26 4.25 30.3 17.03l17.74 66.92l58.96 34.97v-70.5l-47.5-48.92c-9.3-9.44-9.3-24.63.2-33.94c9.4-9.35 24.6-9.22 34 .19l14.22 14.37l-.92-29.5c0-17.69 14.34-32 32.03-32s32.03 14.31 32.03 32v29.5l14.22-14.37c9.307-9.406 24.51-9.531 33.97-.188c9.432 9.313 9.525 24.5.188 33.94l-48.38 48.88L288 200.3l59.87-34.93l17.74-66.92c3.395-12.78 16.56-20.5 29.38-17.03c12.82 3.375 20.47 16.53 17.08 29.34l-5.379 20.29l25.09-14.64c15.28-8.906 34.91-3.75 43.81 11.5c8.932 15.25 3.785 34.84-11.5 43.75l-25.96 15.15l20.33 5.508c12.81 3.469 20.37 16.66 16.89 29.44c-2.895 10.69-12.59 17.72-23.16 17.72c-2.08 0-4.193-.281-6.305-.844L379.1 220.7L319.5 256l60.46 35.28l65.95-17.87c12.89-3.41 25.99 4.09 29.49 16.89c3.473 12.78-4.082 25.97-16.89 29.44l-20.33 5.508l25.96 15.15C479.4 349.3 484.5 368.9 475.6 384.1z"></path></svg>