<svg xmlns="http://www.w3.org/2000/svg" xmlns:xlink="http://www.w3.org/1999/xlink" aria-hidden="true" role="img" class="iconify iconify--fa6-solid" width="1.13em" height="1em" preserveAspectRatio="xMidYMid meet" viewBox="0 0 576 512"><path fill="currentColor" d="M576 64c0 17.67-14.31 32-32 32h-96v96c0 17.67-14.31 32-32 32h-96v96c0 17.67-14.31 32-32 32h-96v96c0 17.67-14.31 32-32 32H32c-17.69 0-32-14.33-32-32s14.31-32 32-32h96v-96c0-17.67 14.31-32 32-32h96v-96c0-17.67 14.31-32 32-32h96V64c0-17.67 14.31-32 32-32h128c17.7 0 32 14.33 32 32z"></path></svg>