<svg xmlns="http://www.w3.org/2000/svg" xmlns:xlink="http://www.w3.org/1999/xlink" aria-hidden="true" role="img" class="iconify iconify--fa6-solid" width="1em" height="1em" preserveAspectRatio="xMidYMid meet" viewBox="0 0 512 512"><path fill="currentColor" d="m188.1 210.8l-45.25 45.25l45.25 45.25l45.25-45.25l-45.25-45.25zm113.1-22.7l-45.25-45.25l-45.25 45.25l45.25 45.25l45.25-45.25zm-90.5 135.8l45.25 45.25l45.25-45.25l-46.1-45.3l-44.4 45.3zM256 16C123.5 16 16 123.5 16 256s107.5 240 240 240s240-107.5 240-240S388.5 16 256 16zm186.6 279.6l-11.25 11.25c-3.125 3.125-8.25 3.125-11.38 0L391.8 278.6l-45.25 45.25l34 33.88l16.88-16.88c3.125-3.125 8.251-3.125 11.38 0l11.25 11.25c3.125 3.125 3.125 8.25 0 11.38l-16.88 16.88l16.88 17c3.125 3.125 3.125 8.25 0 11.38l-11.25 11.25c-3.125 3.125-8.251 3.125-11.38 0l-16.88-17l-17 17c-3.125 3.125-8.25 3.125-11.38 0l-11.25-11.25c-3.125-3.125-3.125-8.25 0-11.38l17-17l-34-33.88l-45.25 45.25l28.25 28.25c3.125 3.125 3.125 8.25 0 11.38l-11.25 11.25c-3.125 3.125-8.25 3.125-11.38 0l-28.25-28.25l-28.34 28.24c-3.125 3.125-8.25 3.125-11.38 0l-11.25-11.25c-3.125-3.125-3.125-8.25 0-11.38l28.25-28.25l-45.25-45.25l-33.88 34l16.88 16.88c3.125 3.125 3.125 8.25 0 11.38l-11.25 11.25c-3.125 3.125-8.25 3.125-11.38 0L131.6 403.1l-16.1 16.88c-3.125 3.125-8.25 3.125-11.38 0l-11.25-11.25c-3.125-3.125-3.125-8.25 0-11.38l17-16.88l-17-17c-3.125-3.125-3.125-8.25 0-11.38l11.25-11.25c3.125-3.125 8.25-3.125 11.38 0l16.1 17l33.88-34l-45.28-45.24l-28.25 28.25c-3.125 3.125-8.25 3.125-11.38 0l-11.2-11.25c-3.125-3.125-3.125-8.25 0-11.38l28.25-28.25l-28.25-28.25c-3.125-3.125-3.125-8.25 0-11.38l11.25-11.25c3.125-3.125 8.25-3.125 11.38 0l28.25 28.25l45.25-45.25l-34-34l-16.88 17c-3.125 3.125-8.25 3.125-11.38 0l-11.25-11.25c-3.125-3.125-3.125-8.25 0-11.38l16.88-17l-16.88-16.88c-3.125-3.125-3.125-8.25 0-11.38l11.25-11.25c3.125-3.125 8.25-3.125 11.38 0l16.88 17l17-17c3.125-3.125 8.25-3.125 11.38 0l11.25 11.25c3.125 3.125 3.125 8.25 0 11.38l-17 16.88l34 34l45.25-45.25L205.1 92c-3.125-3.125-3.125-8.25 0-11.38l11.25-11.25c3.125-3.125 8.25-3.125 11.38 0l28.25 28.25l28.25-28.25c3.125-3.125 8.25-3.125 11.38 0l11.25 11.25c3.125 3.125 3.125 8.25 0 11.38l-28.25 28.25l45.25 45.25l34-34l-17-16.88c-3.125-3.125-3.125-8.25 0-11.38l11.25-11.25c3.125-3.125 8.25-3.125 11.38 0l17 16.88l16.88-16.88c3.125-3.125 8.251-3.125 11.38 0L420 103.24c3.125 3.125 3.125 8.25 0 11.38l-17 16.88l17 17c3.125 3.125 3.125 8.25 0 11.38l-11.25 11.25c-3.125 3.125-8.251 3.125-11.38 0l-16.88-17l-34 34l45.25 45.25l28.25-28.25c3.125-3.125 8.25-3.125 11.38 0l11.25 11.25c3.125 3.125 3.125 8.25 0 11.38l-28.25 28.25l28.25 28.25c3.08 3.14 3.08 8.24-.02 11.34zm-164-39.6l45.25 45.25L369.1 256l-45.25-45.25L278.6 256z"></path></svg>