<svg xmlns="http://www.w3.org/2000/svg" xmlns:xlink="http://www.w3.org/1999/xlink" aria-hidden="true" role="img" class="iconify iconify--fa6-solid" width="1em" height="1em" preserveAspectRatio="xMidYMid meet" viewBox="0 0 512 512"><path fill="currentColor" d="M448 32c35.3 0 64 28.65 64 64v320c0 35.3-28.7 64-64 64H64c-35.35 0-64-28.7-64-64V96c0-35.35 28.65-64 64-64h384zM152 96H64v64h88V96zm56 64h88V96h-88v64zm240-64h-88v64h88V96zM64 288h88v-64H64v64zm232-64h-88v64h88v-64zm64 64h88v-64h-88v64zm-208 64H64v64h88v-64zm56 64h88v-64h-88v64zm240-64h-88v64h88v-64z"></path></svg>