<svg xmlns="http://www.w3.org/2000/svg" xmlns:xlink="http://www.w3.org/1999/xlink" aria-hidden="true" role="img" class="iconify iconify--fa6-solid" width="1.25em" height="1em" preserveAspectRatio="xMidYMid meet" viewBox="0 0 640 512"><path fill="currentColor" d="M224 256c70.7 0 128-57.31 128-128S294.7 0 224 0S96 57.31 96 128s57.3 128 128 128zm50.7 48H173.3C77.61 304 0 381.6 0 477.3C0 496.5 15.52 512 34.66 512h378.7c19.14 0 34.64-15.5 34.64-34.7c0-95.7-77.6-173.3-173.3-173.3zM616 200h-48v-48c0-13.2-10.7-24-24-24s-24 10.75-24 24v48h-48c-13.2 0-24 10.8-24 24s10.75 24 24 24h48v48c0 13.3 10.8 24 24 24s24-10.75 24-24v-48h48c13.3 0 24-10.7 24-24s-10.7-24-24-24z"></path></svg>