<svg xmlns="http://www.w3.org/2000/svg" xmlns:xlink="http://www.w3.org/1999/xlink" aria-hidden="true" role="img" class="iconify iconify--vscode-icons" width="1em" height="1em" preserveAspectRatio="xMidYMid meet" viewBox="0 0 32 32"><defs><linearGradient id="IconifyId17f5a0a413780c4ff505" x1="-547.975" x2="-547" y1="-244.974" y2="-244.974" gradientTransform="matrix(4 0 0 -4 2204 -974)" gradientUnits="userSpaceOnUse"><stop offset="0" stop-color="#eea831"></stop><stop offset="1" stop-color="#ffc929"></stop></linearGradient><linearGradient id="IconifyId17f5a0a413780c4ff506" x1="-547" x2="-544.762" y1="-247.171" y2="-247.171" gradientTransform="matrix(4 0 0 -4 2204 -974)" gradientUnits="userSpaceOnUse"><stop offset="0" stop-color="#b32629"></stop><stop offset=".583" stop-color="#8c1e21"></stop><stop offset="1" stop-color="#7a1a1d"></stop></linearGradient><linearGradient id="IconifyId17f5a0a413780c4ff507" x1="-547" x2="-546.025" y1="-244.974" y2="-244.974" gradientTransform="matrix(4 0 0 -4 2204 -974)" gradientUnits="userSpaceOnUse"><stop offset="0" stop-color="#e8a333"></stop><stop offset=".612" stop-color="#c68931"></stop><stop offset="1" stop-color="#ab762f"></stop></linearGradient><linearGradient id="IconifyId17f5a0a413780c4ff508" x2="-543.5" y1="-249.368" y2="-249.368" href="#IconifyId17f5a0a413780c4ff506"></linearGradient><linearGradient id="IconifyId17f5a0a413780c4ff509" x1="-550.5" x2="-547" y1="-249.368" y2="-249.368" gradientTransform="matrix(4 0 0 -4 2204 -974)" gradientUnits="userSpaceOnUse"><stop offset="0" stop-color="#ae2524"></stop><stop offset=".563" stop-color="#d01d19"></stop><stop offset="1" stop-color="#ed1913"></stop></linearGradient><linearGradient id="IconifyId17f5a0a413780c4ff510" x1="-549.238" y1="-247.171" y2="-247.171" href="#IconifyId17f5a0a413780c4ff509"></linearGradient></defs><path fill="url(#IconifyId17f5a0a413780c4ff505)" d="M16 9.792V2l-3.903 5.77L16 9.792z"></path><path fill="url(#IconifyId17f5a0a413780c4ff506)" d="M16 12.097v7.806l8.952-4.667l-3.904-5.769L16 12.097z"></path><path fill="url(#IconifyId17f5a0a413780c4ff507)" d="m16 9.792l3.903-2.022L16 2v7.792z"></path><path fill="url(#IconifyId17f5a0a413780c4ff508)" d="M26.097 16.947L16 22.208V30l14-7.283l-3.903-5.77z"></path><path fill="url(#IconifyId17f5a0a413780c4ff509)" d="M2 22.717L16 30v-7.792L5.903 16.947L2 22.717z"></path><path fill="url(#IconifyId17f5a0a413780c4ff510)" d="m10.952 9.467l-3.904 5.769L16 19.903v-7.806l-5.048-2.63z"></path></svg>