<svg xmlns="http://www.w3.org/2000/svg" xmlns:xlink="http://www.w3.org/1999/xlink" aria-hidden="true" role="img" class="iconify iconify--vscode-icons" width="1em" height="1em" preserveAspectRatio="xMidYMid meet" viewBox="0 0 32 32"><defs><path id="IconifyId17f5a0a413780c4ff511" fill="none" d="M7.055 16.241c3.415-10.22 14.759-9.473 17.924 0l.1 5.893a15.562 15.562 0 0 0-9.036 7.246a17.641 17.641 0 0 0-9.013-7.034Z"></path></defs><defs><clipPath id="IconifyId17f5a0a413780c4ff512"><use xlink:href="#IconifyId17f5a0a413780c4ff511"></use></clipPath></defs><path fill="#bfbfbf" fill-rule="evenodd" d="m7.03 16.241l2.6-4.559c-2.418-.312-2.606-3.431-.8-9.062c-5.021 6.233-6.41 7.608-1.8 13.621Zm17.94 0l-2.595-4.559c2.418-.312 2.606-3.431.8-9.062c5.016 6.233 6.405 7.608 1.795 13.621Z"></path><use xlink:href="#IconifyId17f5a0a413780c4ff511"></use><g clip-path="url(#IconifyId17f5a0a413780c4ff512)"><path fill="#536367" d="M16.053 7.962h9.549v21.899h-9.549z"></path><path fill="#78929a" d="M5.322 7.962h10.732v21.899H5.322z"></path></g><circle cx="16.04" cy="16.241" r="1.166" fill="#fff"></circle></svg>