<svg xmlns="http://www.w3.org/2000/svg" xmlns:xlink="http://www.w3.org/1999/xlink" aria-hidden="true" role="img" class="iconify iconify--vscode-icons" width="1em" height="1em" preserveAspectRatio="xMidYMid meet" viewBox="0 0 32 32" data-icon="vscode-icons:file-type-aurelia"><defs><linearGradient id="IconifyId17f5a0a413780c4ff43" x1="-73.299" x2="-69.112" y1="-36.757" y2="-40.601" gradientTransform="matrix(7.886 0 0 -8.589 578.084 -327.095)" gradientUnits="userSpaceOnUse"><stop offset="0" stop-color="#c06fbb"></stop><stop offset="1" stop-color="#6e4d9b"></stop></linearGradient><linearGradient id="IconifyId17f5a0a413780c4ff44" x1="-75.72" x2="-76.857" y1="-29.976" y2="-28.423" gradientTransform="matrix(15.701 0 0 -16.956 1213.064 -480.525)" gradientUnits="userSpaceOnUse"><stop offset="0" stop-color="#6e4d9b"></stop><stop offset=".14" stop-color="#77327a"></stop><stop offset=".29" stop-color="#b31777"></stop><stop offset=".84" stop-color="#cd0f7e"></stop><stop offset="1" stop-color="#ed2c89"></stop></linearGradient><linearGradient id="IconifyId17f5a0a413780c4ff45" x1="-74.781" x2="-70.958" y1="-34.695" y2="-40.015" gradientTransform="matrix(8.637 0 0 -7.94 632.817 -284.546)" href="#IconifyId17f5a0a413780c4ff43"></linearGradient><linearGradient id="IconifyId17f5a0a413780c4ff46" x1="-3.96" x2="31.012" y1="41.901" y2="13.213" href="#IconifyId17f5a0a413780c4ff43"></linearGradient><linearGradient id="IconifyId17f5a0a413780c4ff47" x1="-72.241" x2="-69.334" y1="-41.388" y2="-43.773" gradientTransform="matrix(6.504 0 0 -6.517 478.263 -265.393)" href="#IconifyId17f5a0a413780c4ff43"></linearGradient><linearGradient id="IconifyId17f5a0a413780c4ff48" x1="-74.154" x2="-70.411" y1="-34.519" y2="-37.816" gradientTransform="matrix(10.02 0 0 -10.013 732.69 -346.247)" href="#IconifyId17f5a0a413780c4ff43"></linearGradient><linearGradient id="IconifyId17f5a0a413780c4ff49" x1="-74.562" x2="-75.704" y1="-31.575" y2="-30.013" gradientTransform="matrix(15.678 0 0 -16.922 1195.287 -503.63)" href="#IconifyId17f5a0a413780c4ff44"></linearGradient><linearGradient id="IconifyId17f5a0a413780c4ff50" x1="-73.124" x2="-68.938" y1="-36.529" y2="-41.164" gradientTransform="matrix(7.887 0 0 -8.589 578.148 -327.094)" href="#IconifyId17f5a0a413780c4ff43"></linearGradient><linearGradient id="IconifyId17f5a0a413780c4ff51" x1="-78.108" x2="-77.58" y1="-25.063" y2="-24.54" gradientTransform="matrix(37.627 7.508 7.477 -37.474 3130.474 -328.745)" gradientUnits="userSpaceOnUse"><stop offset="0" stop-color="#6e4d9b"></stop><stop offset=".14" stop-color="#77327a"></stop><stop offset=".53" stop-color="#b31777"></stop><stop offset=".79" stop-color="#cd0f7e"></stop><stop offset="1" stop-color="#ed2c89"></stop></linearGradient></defs><path fill="url(#IconifyId17f5a0a413780c4ff43)" d="m20.336 7.408l-2.6 1.734l-2.676-4.011l2.6-1.734l2.677 4.012Z"></path><path fill="url(#IconifyId17f5a0a413780c4ff44)" d="m22.449 19.461l4.44 6.654l-5.289 3.529l-4.44-6.654l-.775-1.161l5.289-3.53l.775 1.161Z"></path><path fill="url(#IconifyId17f5a0a413780c4ff45)" d="m15.787 23.907l.978 1.465l-4.026 2.687l-1.752-2.626l.88-.587l3.147-2.1l.775 1.161Z"></path><path fill="url(#IconifyId17f5a0a413780c4ff46)" d="m24.648 16.316l1.129-.754l1.752 2.626l-2.599 1.734l-.977-1.465l1.47-.981l-.775-1.16z"></path><path fill="url(#IconifyId17f5a0a413780c4ff47)" d="m23.953 18.457l-.775-1.161l1.47-.98l.775 1.16l-1.47.981z"></path><path fill="url(#IconifyId17f5a0a413780c4ff48)" d="m6.424 16.692l-.879.587l-2.677-4.012l4.026-2.687l1.876 2.813l-3.146 2.1l3.146-2.1l.8 1.2l-3.147 2.1Z"></path><path fill="url(#IconifyId17f5a0a413780c4ff49)" d="m15.432 8.947l.8 1.2l-5.289 3.53l-.8-1.2l-4.4-6.591l5.289-3.53l4.4 6.591Z"></path><path fill="url(#IconifyId17f5a0a413780c4ff50)" d="m19.207 8.162l-1.47.981l-.8-1.2l-1.877-2.812l2.6-1.734l2.677 4.012l-1.129.754Z"></path><path fill="#714896" d="m12.64 26.006l-.775-1.161l3.147-2.1l.775 1.161l-3.146 2.1Z"></path><path fill="#6f4795" d="m23.953 18.457l-.775-1.157l1.47-.981l.775 1.161l-1.47.981Z"></path><path fill="#88519f" d="m6.424 16.692l-.8-1.2l3.146-2.1l.8 1.2l-3.147 2.1Z"></path><path fill="#85509e" d="m17.737 9.143l-.8-1.2l1.47-.981l.8 1.2l-1.47.981Z"></path><path fill="#8d166a" d="m22.449 19.461l-5.289 3.53l-.775-1.161l5.289-3.53l.775 1.161Z"></path><path fill="#a70d6f" d="m15.432 8.947l.8 1.2l-5.289 3.53l-.8-1.2l5.289-3.53Z"></path><path fill="#9e61ad" d="m3.428 8.987l1.496-.999l.999 1.497l-1.497.998z"></path><path fill="#8053a3" d="m8.82 26.921l1.497-.998l.998 1.496l-1.496.999z"></path><path fill="url(#IconifyId17f5a0a413780c4ff51)" d="M6.38 27.43L2 20.813L25.407 5.157L30 11.668L6.38 27.43Z"></path></svg>