<svg xmlns="http://www.w3.org/2000/svg" xmlns:xlink="http://www.w3.org/1999/xlink" aria-hidden="true" role="img" class="iconify iconify--vscode-icons" width="1em" height="1em" preserveAspectRatio="xMidYMid meet" viewBox="0 0 32 32" data-icon="vscode-icons:file-type-blitzbasic"><path fill="#00ffae" d="M4 9v3h1v7H4v3h10v-1h1v-1h1v-4h-1v-1h1v-4h-1v-1h-1V9H4Zm6 3h2v2h-2v-2Zm0 5h2v2h-2v-2Z"></path><path fill="#00d8ff" d="M16 9v3h1v7h-1v3h10v-1h1v-1h1v-4h-1v-1h1v-4h-1v-1h-1V9H16Zm5 3h2v2h-2v-2Zm0 5h2v2h-2v-2Z"></path></svg>