<svg xmlns="http://www.w3.org/2000/svg" xmlns:xlink="http://www.w3.org/1999/xlink" aria-hidden="true" role="img" class="iconify iconify--vscode-icons" width="1em" height="1em" preserveAspectRatio="xMidYMid meet" viewBox="0 0 32 32"><defs><radialGradient id="IconifyId17f5a0a413780c4ff670" cx="19.64" cy="19.72" r="15.24" gradientUnits="userSpaceOnUse"><stop offset="0" stop-color="#138fce"></stop><stop offset=".857" stop-color="#385eaa"></stop><stop offset=".929" stop-color="#3265af"></stop></radialGradient></defs><path fill="#557ebf" d="M27.9 6h-9.8l-2 4H5v17h25V6Zm.1 4h-7.8l1-2H28Z"></path><path fill="url(#IconifyId17f5a0a413780c4ff670)" d="M11 11h20v20H11z"></path><g fill="#fff" opacity=".23"><path d="M13.679 11h.357v20h-.357zm2.857 0h.357v20h-.357zm2.857 0h.357v20h-.357zm2.857 0h.357v20h-.357zm2.857 0h.357v20h-.357zm2.857 0h.357v20h-.357z"></path><path d="M11 13.679h20v.357H11zm0 2.857h20v.357H11zm0 2.857h20v.357H11zm0 2.857h20v.357H11zm0 2.857h20v.357H11zm0 2.857h20v.357H11z"></path></g></svg>