<svg xmlns="http://www.w3.org/2000/svg" xmlns:xlink="http://www.w3.org/1999/xlink" aria-hidden="true" role="img" class="iconify iconify--icon-park-outline" width="1em" height="1em" preserveAspectRatio="xMidYMid meet" viewBox="0 0 48 48" data-icon="icon-park-outline:application-effect"><g fill="none" stroke="currentColor" stroke-linecap="round" stroke-linejoin="round" stroke-width="4"><path d="M24 40.833a11.955 11.955 0 0 0 8 3.056c6.627 0 12-5.373 12-12c0-5.301-3.437-9.8-8.204-11.387"></path><path d="M27.171 27.499c.535 1.36.829 2.84.829 4.39c0 6.627-5.373 12-12 12c-6.628 0-12-5.373-12-12c0-5.315 3.455-9.823 8.242-11.4"></path><path d="M24 27.89c6.627 0 12-5.373 12-12c0-6.628-5.373-12-12-12s-12 5.372-12 12c0 6.627 5.373 12 12 12Z"></path></g></svg>