<svg xmlns="http://www.w3.org/2000/svg" xmlns:xlink="http://www.w3.org/1999/xlink" aria-hidden="true" role="img" class="iconify iconify--icon-park-outline" width="1em" height="1em" preserveAspectRatio="xMidYMid meet" viewBox="0 0 48 48" data-icon="icon-park-outline:application-menu"><path fill="currentColor" d="M10 14a4 4 0 1 0 0-8a4 4 0 0 0 0 8Zm14 0a4 4 0 1 0 0-8a4 4 0 0 0 0 8Zm14 0a4 4 0 1 0 0-8a4 4 0 0 0 0 8ZM10 28a4 4 0 1 0 0-8a4 4 0 0 0 0 8Zm14 0a4 4 0 1 0 0-8a4 4 0 0 0 0 8Zm14 0a4 4 0 1 0 0-8a4 4 0 0 0 0 8ZM10 42a4 4 0 1 0 0-8a4 4 0 0 0 0 8Zm14 0a4 4 0 1 0 0-8a4 4 0 0 0 0 8Zm14 0a4 4 0 1 0 0-8a4 4 0 0 0 0 8Z"></path></svg>