<svg xmlns="http://www.w3.org/2000/svg" xmlns:xlink="http://www.w3.org/1999/xlink" aria-hidden="true" role="img" class="iconify iconify--icon-park-outline" width="1em" height="1em" preserveAspectRatio="xMidYMid meet" viewBox="0 0 48 48" data-icon="icon-park-outline:arrow-keys"><g fill="none"><path d="M14 4h20v20H14V4ZM4 24h20v20H4V24Zm20 0h20v20H24V24Z"></path><path stroke="currentColor" stroke-linecap="round" stroke-linejoin="round" stroke-width="4" d="M24 24H4v20h20m0-20v20m0-20h20v20H24M14 4h20v20H14V4Zm10 6v8"></path><path stroke="currentColor" stroke-linecap="round" stroke-linejoin="round" stroke-width="4" d="m20 14l4-4l4 4M10 34h8m-4 4l-4-4l4-4m24 4h-8m4-4l4 4l-4 4"></path></g></svg>