<svg xmlns="http://www.w3.org/2000/svg" xmlns:xlink="http://www.w3.org/1999/xlink" aria-hidden="true" role="img" class="iconify iconify--icon-park-outline" width="1em" height="1em" preserveAspectRatio="xMidYMid meet" viewBox="0 0 48 48" data-icon="icon-park-outline:at-sign"><g fill="none" stroke="currentColor" stroke-linejoin="round" stroke-width="4"><path stroke-linecap="round" d="M44 24c0-11.046-8.954-20-20-20S4 12.954 4 24s8.954 20 20 20v0c4.989 0 9.55-1.827 13.054-4.847"></path><path d="M24 32a8 8 0 1 0 0-16a8 8 0 0 0 0 16Z"></path><path stroke-linecap="round" d="M32 24a6 6 0 0 0 6 6v0a6 6 0 0 0 6-6m-12 1v-9"></path></g></svg>