<svg xmlns="http://www.w3.org/2000/svg" xmlns:xlink="http://www.w3.org/1999/xlink" aria-hidden="true" role="img" class="iconify iconify--icon-park-outline" width="1em" height="1em" preserveAspectRatio="xMidYMid meet" viewBox="0 0 48 48" data-icon="icon-park-outline:baby-pants"><g fill="none" stroke="currentColor" stroke-linejoin="round" stroke-width="4"><path d="M34 4H14c-2 1-5 5-5 15c0 12.5 5 25 8 25c2 0 2-2.5 2-2.5V24c0-5 8-4.5 8 0v11c0 8 7 11 9 9s-2-4-2-7c0-5 4-9 4-22c0-5-2.333-9-4-11Z"></path><path stroke-linecap="round" d="M10 12h27"></path><path d="M10.803 8c-.732 1.696-1.337 3.981-1.624 7M38 15a16.91 16.91 0 0 0-1.124-6"></path></g></svg>