<svg xmlns="http://www.w3.org/2000/svg" xmlns:xlink="http://www.w3.org/1999/xlink" aria-hidden="true" role="img" class="iconify iconify--icon-park-outline" width="1em" height="1em" preserveAspectRatio="xMidYMid meet" viewBox="0 0 48 48" data-icon="icon-park-outline:baby-taste"><g fill="none" stroke="currentColor" stroke-linejoin="round" stroke-width="4"><path d="M24 44c9.941 0 18-8.059 18-18S33.941 8 24 8S6 16.059 6 26s8.059 18 18 18Z"></path><path stroke-linecap="round" d="M24 8c-.25-1-2-4-6-4m6 4c.083-1 .6-3.2 2-4m5 29s-2 4-7 4s-7-4-7-4"></path><path stroke-linecap="round" d="M31 33s1.5-4-1-4s-3 7-3 7m6-15h-4m-12-2v4M4 24v4m40-4v4"></path></g></svg>