<svg xmlns="http://www.w3.org/2000/svg" xmlns:xlink="http://www.w3.org/1999/xlink" aria-hidden="true" role="img" class="iconify iconify--icon-park-outline" width="1em" height="1em" preserveAspectRatio="xMidYMid meet" viewBox="0 0 48 48" data-icon="icon-park-outline:baby-app"><g fill="none"><path stroke="currentColor" stroke-linecap="round" stroke-width="4" d="M43 26v6a2 2 0 0 1-2 2H7a2 2 0 0 1-2-2V12a2 2 0 0 1 2-2h9"></path><path stroke="currentColor" stroke-linecap="round" stroke-linejoin="round" stroke-width="4" d="M4 40h40"></path><circle cx="30" cy="17" r="9" stroke="currentColor" stroke-width="4"></circle><path stroke="currentColor" stroke-linecap="round" stroke-linejoin="round" stroke-width="4" d="M19 18v-2m22 2v-2M30 8c-.167-1-1.2-3.2-4-4m4 4c.083-1 .6-3.2 2-4"></path><circle cx="33" cy="16" r="2" fill="currentColor"></circle><circle cx="27" cy="16" r="2" fill="currentColor"></circle></g></svg>