<svg xmlns="http://www.w3.org/2000/svg" xmlns:xlink="http://www.w3.org/1999/xlink" aria-hidden="true" role="img" class="iconify iconify--icon-park-outline" width="1em" height="1em" preserveAspectRatio="xMidYMid meet" viewBox="0 0 48 48" data-icon="icon-park-outline:baggage-delay"><g fill="none" stroke="currentColor" stroke-width="4"><path stroke-linecap="round" stroke-linejoin="round" d="M36 26V14a2 2 0 0 0-2-2H10a2 2 0 0 0-2 2v24a2 2 0 0 0 2 2h17M16 12v28m12-28v17m0-17V6a2 2 0 0 0-2-2h-8a2 2 0 0 0-2 2v6"></path><path d="M35 44a9 9 0 1 0 0-18a9 9 0 0 0 0 18Z"></path><path stroke-linecap="round" stroke-linejoin="round" d="M34 32v4h4"></path><path stroke-linecap="round" d="M13 40v4"></path></g></svg>