<svg xmlns="http://www.w3.org/2000/svg" xmlns:xlink="http://www.w3.org/1999/xlink" aria-hidden="true" role="img" class="iconify iconify--icon-park-outline" width="1em" height="1em" preserveAspectRatio="xMidYMid meet" viewBox="0 0 48 48" data-icon="icon-park-outline:balance-one"><g fill="none" stroke="currentColor" stroke-linecap="round" stroke-linejoin="round" stroke-miterlimit="2" stroke-width="4"><path d="M35 25a32.234 32.234 0 0 0-22 0l-1-11c7-3 17-3 24 0l-1 11Zm-11-2l-3-5"></path><path d="M42 39a3 3 0 0 1-3 3H9a3 3 0 0 1-3-3V9a3 3 0 0 1 3-3h30a3 3 0 0 1 3 3v30Z"></path><path d="M29 23.455a32.222 32.222 0 0 0-10 0"></path></g></svg>