<svg xmlns="http://www.w3.org/2000/svg" xmlns:xlink="http://www.w3.org/1999/xlink" aria-hidden="true" role="img" class="iconify iconify--icon-park-outline" width="1em" height="1em" preserveAspectRatio="xMidYMid meet" viewBox="0 0 48 48" data-icon="icon-park-outline:balance-two"><g fill="none" stroke="currentColor" stroke-linecap="round" stroke-linejoin="round" stroke-width="4"><path d="m16 22l-6-10l-6 10"></path><path d="M10 28a6 6 0 0 0 6-6H4a6 6 0 0 0 6 6Z" clip-rule="evenodd"></path><path d="m44 22l-6-10l-6 10"></path><path d="M38 28a6 6 0 0 0 6-6H32a6 6 0 0 0 6 6Z" clip-rule="evenodd"></path><path d="M24 6v36M10 12h28m-28 0h28m0 30H10"></path></g></svg>