<svg xmlns="http://www.w3.org/2000/svg" xmlns:xlink="http://www.w3.org/1999/xlink" aria-hidden="true" role="img" class="iconify iconify--icon-park-outline" width="1em" height="1em" preserveAspectRatio="xMidYMid meet" viewBox="0 0 48 48" data-icon="icon-park-outline:banana"><g fill="none"><g stroke="currentColor" stroke-linecap="round" stroke-linejoin="round" stroke-width="4" clip-path="url(#IconifyId17f5a0d8ff03f06003)"><path d="M16 32c-2.8-.933-6.034-3.173-7.476-5.425a1.716 1.716 0 0 1-.244-1.043l.245-3.75c.053-.81 1.01-1.24 1.671-.77C12.33 22.529 16.229 25 19 25c7 0 13-2.5 16-8"></path><path d="M26 43c10-2 19.243-12.485 16.867-23.059L42 16V8l-6-1c0 12.941-3 23-16 25c-5.976.92-11.705-.386-16.13-2.922L5 36c2 5 11 9 21 7Z"></path></g><defs><clipPath id="IconifyId17f5a0d8ff03f06003"><path fill="currentColor" d="M0 0h48v48H0z"></path></clipPath></defs></g></svg>