<svg xmlns="http://www.w3.org/2000/svg" xmlns:xlink="http://www.w3.org/1999/xlink" aria-hidden="true" role="img" class="iconify iconify--icon-park-outline" width="1em" height="1em" preserveAspectRatio="xMidYMid meet" viewBox="0 0 48 48" data-icon="icon-park-outline:basketball-one"><g fill="none"><path d="M18 24c0-6.624 5.376-12 12-12s12 5.376 12 12"></path><path stroke="currentColor" stroke-linecap="round" stroke-linejoin="round" stroke-miterlimit="2" stroke-width="4" d="M18 24c0-6.624 5.376-12 12-12s12 5.376 12 12M12 4H4v32h8V4Zm0 20h32m-26 0l2 4.5c2 5 1.9 10.4 0 15.5m21-20l-2 4.5c-2 5-1.91 10.4 0 15.5M21.22 32h16.56m-16.09 8h15.63m-7.82 0V24"></path></g></svg>