<svg xmlns="http://www.w3.org/2000/svg" xmlns:xlink="http://www.w3.org/1999/xlink" aria-hidden="true" role="img" class="iconify iconify--icon-park-outline" width="1em" height="1em" preserveAspectRatio="xMidYMid meet" viewBox="0 0 48 48"><g fill="none" stroke="currentColor" stroke-linecap="round" stroke-linejoin="round" stroke-width="4"><path d="M14.34 21.412L24 24l9.66 2.588l9.659 2.588c2.338-8.725-1.472-17.65-8.773-22.176a20 20 0 0 0-5.37-2.319a19.97 19.97 0 0 0-6.676-.63c-8.237.62-15.56 6.341-17.818 14.773l9.659 2.588Z"></path><path d="M29.176 4.681s-5.64 3.665-8.866 7.977s-4.037 9.271-4.037 9.271M29.176 4.681s3.053 5.995 3.69 11.342c.639 5.347-1.139 10.047-1.139 10.047M4.682 18.824l9.659 2.588L24 24l9.66 2.588l9.659 2.588M4 44h40M24 24l-5.5 20"></path><path d="M22.5 4.05a19.97 19.97 0 0 1 6.676.631A20 20 0 0 1 34.546 7"></path></g></svg>