<svg xmlns="http://www.w3.org/2000/svg" xmlns:xlink="http://www.w3.org/1999/xlink" aria-hidden="true" role="img" class="iconify iconify--icon-park-outline" width="1em" height="1em" preserveAspectRatio="xMidYMid meet" viewBox="0 0 48 48"><g fill="none" stroke="currentColor" stroke-linecap="round" stroke-linejoin="round" stroke-width="4"><path d="m10.565 30.364l-6.364 6.364l7.071 7.071l6.364-6.364m4.243-18.385l14.85-14.849l7.07 7.071l-14.849 14.85"></path><path d="M9.859 29.657a2 2 0 0 1 0-2.829l8.485-8.485a2 2 0 0 1 2.828 0l8.485 8.485a2 2 0 0 1 0 2.829l-8.485 8.485a2 2 0 0 1-2.828 0l-8.485-8.485Zm15.556-7.071l-7.071 7.07M31.779 9.15l7.07 7.072M26.828 14.1l7.071 7.072m-18.384 0L26.83 32.485"></path></g></svg>