<svg xmlns="http://www.w3.org/2000/svg" xmlns:xlink="http://www.w3.org/1999/xlink" aria-hidden="true" role="img" class="iconify iconify--icon-park-outline" width="1em" height="1em" preserveAspectRatio="xMidYMid meet" viewBox="0 0 48 48"><g fill="none"><path stroke="currentColor" stroke-linecap="round" stroke-linejoin="round" stroke-width="4" d="M10.5 42a8.5 8.5 0 1 0 0-17a8.5 8.5 0 0 0 0 17ZM37 42a9 9 0 1 0 0-18a9 9 0 0 0 0 18Z"></path><path stroke="currentColor" stroke-linecap="round" stroke-linejoin="round" stroke-width="4" d="M18.997 6h9L37 33"></path><path d="m11.058 33l20.624-16.237L11.058 33Z" clip-rule="evenodd"></path><path stroke="currentColor" stroke-linecap="round" stroke-linejoin="round" stroke-width="4" d="m11.058 33l20.624-16.237m0-1.763h8.472L42 10M8 15.974h7M15 16l3.273 10.421"></path></g></svg>