<svg xmlns="http://www.w3.org/2000/svg" xmlns:xlink="http://www.w3.org/1999/xlink" aria-hidden="true" role="img" class="iconify iconify--icon-park-outline" width="1em" height="1em" preserveAspectRatio="xMidYMid meet" viewBox="0 0 48 48"><path fill="none" stroke="currentColor" stroke-linecap="round" stroke-linejoin="round" stroke-width="4" d="M13 20h4s7 7.28 7 14s-6 10-6 10h-6s-6-3.28-6-10c0-6.72 7-14 7-14Zm2-16c2.083 0 5 1.52 5 6s-3.333 10-3.333 10h-3.334S10 14.48 10 10s2.917-6 5-6Zm16 16h4s7 7.28 7 14s-6 10-6 10h-6s-6-3.28-6-10c0-6.72 7-14 7-14Zm2-16c2.083 0 5 1.52 5 6s-3.333 10-3.333 10h-3.334S28 14.48 28 10s2.917-6 5-6Z"></path></svg>