<svg xmlns="http://www.w3.org/2000/svg" xmlns:xlink="http://www.w3.org/1999/xlink" aria-hidden="true" role="img" class="iconify iconify--icon-park-outline" width="1em" height="1em" preserveAspectRatio="xMidYMid meet" viewBox="0 0 48 48"><g fill="none"><path stroke="currentColor" stroke-linejoin="round" stroke-miterlimit="2" stroke-width="4" d="M24 44c11.05 0 20-8.95 20-20S35.05 4 24 4S4 12.95 4 24s8.95 20 20 20Z"></path><path fill="currentColor" d="M24 26c1.66 0 3-1.34 3-3s-1.34-3-3-3s-3 1.34-3 3s1.34 3 3 3Zm7-8c1.66 0 3-1.34 3-3s-1.34-3-3-3s-3 1.34-3 3s1.34 3 3 3Zm-14 0c1.66 0 3-1.34 3-3s-1.34-3-3-3s-3 1.34-3 3s1.34 3 3 3Z"></path></g></svg>