<svg xmlns="http://www.w3.org/2000/svg" xmlns:xlink="http://www.w3.org/1999/xlink" aria-hidden="true" role="img" class="iconify iconify--icon-park-outline" width="1em" height="1em" preserveAspectRatio="xMidYMid meet" viewBox="0 0 48 48"><g fill="none" stroke="currentColor" stroke-linecap="round" stroke-linejoin="round" stroke-width="4"><path d="M36 12a4 4 0 1 0 0-8a4 4 0 0 0 0 8Zm-22 0a4 4 0 1 0 0-8a4 4 0 0 0 0 8Zm0 32a4 4 0 1 0 0-8a4 4 0 0 0 0 8Z" clip-rule="evenodd"></path><path d="M14 12v24v-3c0-8 22-9 22-17v-4"></path></g></svg>