<svg xmlns="http://www.w3.org/2000/svg" xmlns:xlink="http://www.w3.org/1999/xlink" aria-hidden="true" role="img" class="iconify iconify--icon-park-outline" width="1em" height="1em" preserveAspectRatio="xMidYMid meet" viewBox="0 0 48 48"><g fill="none" stroke="currentColor" stroke-width="4"><path stroke-linecap="round" stroke-linejoin="round" d="M7 27a8 8 0 0 1 8-8h18a8 8 0 0 1 8 8v8a4 4 0 0 1-4 4H11a4 4 0 0 1-4-4v-8Zm27-8v-7c5 0 5-7 0-7H14c-5 0-5 7 0 7v7m8-8l-2 2m8-2l-2 2"></path><circle cx="24" cy="29" r="4"></circle><path stroke-linecap="round" stroke-linejoin="round" d="M15 39v4m18-4v4"></path></g></svg>