<svg xmlns="http://www.w3.org/2000/svg" xmlns:xlink="http://www.w3.org/1999/xlink" aria-hidden="true" role="img" class="iconify iconify--icon-park-outline" width="1em" height="1em" preserveAspectRatio="xMidYMid meet" viewBox="0 0 48 48"><g fill="none" stroke="currentColor" stroke-linejoin="round" stroke-width="4"><path d="M24 28.63a4.538 4.538 0 0 0 4.546-4.532A4.538 4.538 0 0 0 24 19.567a4.538 4.538 0 0 0-4.545 4.53a4.538 4.538 0 0 0 4.546 4.532Z"></path><path stroke-linecap="round" d="M16 15c-5.333 4.97-5.333 13.03 0 18m16 0c5.333-4.97 5.333-13.03 0-18m-22-5c-8 7.732-8 20.268 0 28m28.143.196c7.81-7.786 7.81-20.41 0-28.196"></path></g></svg>