<svg xmlns="http://www.w3.org/2000/svg" xmlns:xlink="http://www.w3.org/1999/xlink" aria-hidden="true" role="img" class="iconify iconify--icon-park-outline" width="1em" height="1em" preserveAspectRatio="xMidYMid meet" viewBox="0 0 48 48"><g fill="none"><path stroke="currentColor" stroke-linecap="round" stroke-linejoin="round" stroke-width="4" d="M42 18v22a2 2 0 0 1-2 2H8a2 2 0 0 1-2-2V18"></path><path stroke="currentColor" stroke-linejoin="round" stroke-width="4" d="M6 8a2 2 0 0 1 2-2h32a2 2 0 0 1 2 2v10H6V8Z"></path><path fill="currentColor" fill-rule="evenodd" d="M12 14a2 2 0 1 0 0-4a2 2 0 0 0 0 4Zm6 0a2 2 0 1 0 0-4a2 2 0 0 0 0 4Zm6 0a2 2 0 1 0 0-4a2 2 0 0 0 0 4Z" clip-rule="evenodd"></path></g></svg>