<svg xmlns="http://www.w3.org/2000/svg" xmlns:xlink="http://www.w3.org/1999/xlink" aria-hidden="true" role="img" class="iconify iconify--icon-park-outline" width="1em" height="1em" preserveAspectRatio="xMidYMid meet" viewBox="0 0 48 48"><g fill="none" stroke="currentColor" stroke-linecap="round" stroke-linejoin="round" stroke-width="4"><path d="M4 6a2 2 0 0 1 2-2h36a2 2 0 0 1 2 2v32a2 2 0 0 1-2 2H6a2 2 0 0 1-2-2V6Z" clip-rule="evenodd"></path><path d="M8 40h8v4H8zm24 0h8v4h-8zM21 16h6M10 34h2m7 0h10M4 25h40M4 10h40m-8 24h2M4 6v8m40-8v8M4 21v8m40-8v8"></path></g></svg>