<svg xmlns="http://www.w3.org/2000/svg" xmlns:xlink="http://www.w3.org/1999/xlink" aria-hidden="true" role="img" class="iconify iconify--icon-park-outline" width="1em" height="1em" preserveAspectRatio="xMidYMid meet" viewBox="0 0 48 48"><g fill="none"><path stroke="currentColor" stroke-linecap="round" stroke-linejoin="round" stroke-width="4" d="M6 6v36h36"></path><path fill="currentColor" fill-rule="evenodd" d="M20 24a4 4 0 1 0 0-8a4 4 0 0 0 0 8Zm17-8a5 5 0 1 0 0-10a5 5 0 0 0 0 10ZM15 36a3 3 0 1 0 0-6a3 3 0 0 0 0 6Zm18-4a3 3 0 1 0 0-6a3 3 0 0 0 0 6Z" clip-rule="evenodd"></path></g></svg>