<svg xmlns="http://www.w3.org/2000/svg" xmlns:xlink="http://www.w3.org/1999/xlink" aria-hidden="true" role="img" class="iconify iconify--icon-park-outline" width="1em" height="1em" preserveAspectRatio="xMidYMid meet" viewBox="0 0 48 48"><g fill="none"><path stroke="currentColor" stroke-linecap="round" stroke-linejoin="round" stroke-width="4" d="M43 20c0-2.172-18.108-11.888-22.866-14.404a1.974 1.974 0 0 0-2.149.201L5 16"></path><path stroke="currentColor" stroke-linecap="round" stroke-linejoin="round" stroke-width="4" d="M5 17.652c0-1.329 1.269-2.298 2.555-1.964c6.407 1.662 23.305 5.645 32.606 4.07c1.395-.235 2.839.779 2.839 2.193v16.151a2 2 0 0 1-1.895 1.998l-34 1.79A2 2 0 0 1 5 39.891v-22.24Z"></path><circle cx="12" cy="25" r="2" fill="currentColor"></circle><circle cx="25" cy="27" r="2" fill="currentColor"></circle><circle cx="34" cy="32" r="2" fill="currentColor"></circle><circle cx="18" cy="32" r="2" fill="currentColor" stroke="currentColor" stroke-width="2"></circle></g></svg>