<svg xmlns="http://www.w3.org/2000/svg" xmlns:xlink="http://www.w3.org/1999/xlink" aria-hidden="true" role="img" class="iconify iconify--icon-park-outline" width="1em" height="1em" preserveAspectRatio="xMidYMid meet" viewBox="0 0 48 48"><g fill="none"><g stroke="currentColor" stroke-width="4" clip-path="url(#IconifyId17f5a0d8ff03f06006)"><path d="M21.168 16.594c1.647-5.607 8.323-7.928 13.093-4.552c4.125 2.918 4.818 8.766 1.488 12.567l-3.13 3.574a48.817 48.817 0 0 1-19.204 13.4l-3.558 1.369a2.338 2.338 0 0 1-2.294-4.014l2.78-2.207a25.8 25.8 0 0 0 8.706-12.928l2.119-7.21Z"></path><path d="M29.842 10.684a4.931 4.931 0 1 1 7.768 5.39"></path><path stroke-linecap="round" d="m42 4l-4 4"></path></g><defs><clipPath id="IconifyId17f5a0d8ff03f06006"><path fill="currentColor" d="M0 0h48v48H0z"></path></clipPath></defs></g></svg>