<svg xmlns="http://www.w3.org/2000/svg" xmlns:xlink="http://www.w3.org/1999/xlink" aria-hidden="true" role="img" class="iconify iconify--icon-park-outline" width="1em" height="1em" preserveAspectRatio="xMidYMid meet" viewBox="0 0 48 48"><g fill="none"><path stroke="currentColor" stroke-linejoin="round" stroke-width="4" d="M40 12a4 4 0 1 0 0-8a4 4 0 0 0 0 8Zm0 32a4 4 0 1 0 0-8a4 4 0 0 0 0 8ZM8 12a4 4 0 1 0 0-8a4 4 0 0 0 0 8Zm0 32a4 4 0 1 0 0-8a4 4 0 0 0 0 8Z"></path><path d="M20 8h8h-8Z" clip-rule="evenodd"></path><path stroke="currentColor" stroke-linecap="round" stroke-linejoin="round" stroke-width="4" d="M20 8h8"></path><path d="M32 16L16 32l16-16Z" clip-rule="evenodd"></path><path stroke="currentColor" stroke-linecap="round" stroke-linejoin="round" stroke-width="4" d="M32 16L16 32"></path><path d="M40 20v8v-8Z" clip-rule="evenodd"></path><path stroke="currentColor" stroke-linecap="round" stroke-linejoin="round" stroke-width="4" d="M40 20v8"></path></g></svg>