<svg xmlns="http://www.w3.org/2000/svg" xmlns:xlink="http://www.w3.org/1999/xlink" aria-hidden="true" role="img" class="iconify iconify--icon-park-outline" width="1em" height="1em" preserveAspectRatio="xMidYMid meet" viewBox="0 0 48 48"><g fill="none" stroke="currentColor" stroke-linecap="round" stroke-linejoin="round" stroke-width="4"><path d="M24 10a3 3 0 1 0 0-6a3 3 0 0 0 0 6Zm0 34a3 3 0 1 0 0-6a3 3 0 0 0 0 6ZM7 27a3 3 0 1 0 0-6a3 3 0 0 0 0 6Zm34 0a3 3 0 1 0 0-6a3 3 0 0 0 0 6Z" clip-rule="evenodd"></path><path d="M24.197 15.744a8.99 8.99 0 0 0 7.438-3.931a14.528 14.528 0 0 1 4.686 4.498A8.995 8.995 0 0 0 32 24a8.997 8.997 0 0 0 4.527 7.812a14.53 14.53 0 0 1-4.426 4.532a8.998 8.998 0 0 0-7.905-4.694c-3.4 0-6.36 1.885-7.89 4.667a14.528 14.528 0 0 1-4.494-4.683a8.99 8.99 0 0 0 3.93-7.437a8.99 8.99 0 0 0-3.907-7.422a14.526 14.526 0 0 1 4.94-4.939a8.99 8.99 0 0 0 7.42 3.908Z"></path></g></svg>