<svg xmlns="http://www.w3.org/2000/svg" xmlns:xlink="http://www.w3.org/1999/xlink" aria-hidden="true" role="img" class="iconify iconify--icon-park-outline" width="1em" height="1em" preserveAspectRatio="xMidYMid meet" viewBox="0 0 48 48"><g fill="none"><g stroke="currentColor" stroke-linecap="round" stroke-linejoin="round" stroke-width="4" clip-path="url(#IconifyId17f5a0d8ff03f06007)"><path d="M17.118 26.013L9.253 12.39a1.605 1.605 0 0 0-2.896 1.36l5.52 14.918c.082.22.123.452.125.686l.057 12.672a2 2 0 0 0 2 1.991h4.957a2 2 0 0 0 1.954-2.426L18 28l-.882-1.987ZM12 29l6-1m12.563-2.271l7.691-13.322a1.625 1.625 0 0 1 2.946 1.337l-5.105 14.977a2.002 2.002 0 0 0-.106.573l-.466 12.798a2 2 0 0 1-1.998 1.928H28.56a2 2 0 0 1-1.94-2.485L30 28l.334-1.665a2 2 0 0 1 .23-.606ZM30 28l6 1M15 7l3.5 4M23 4l1 6m9-4l-3 4"></path></g><defs><clipPath id="IconifyId17f5a0d8ff03f06007"><path fill="currentColor" d="M0 0h48v48H0z"></path></clipPath></defs></g></svg>