<svg xmlns="http://www.w3.org/2000/svg" xmlns:xlink="http://www.w3.org/1999/xlink" aria-hidden="true" role="img" class="iconify iconify--icon-park-outline" width="1em" height="1em" preserveAspectRatio="xMidYMid meet" viewBox="0 0 48 48"><g fill="none"><path stroke="currentColor" stroke-linecap="round" stroke-linejoin="round" stroke-width="4" d="M11 37H4V18l6.125-5L17 18l7-8l7 8l6.875-5L44 18v19h-7"></path><path stroke="currentColor" stroke-linecap="round" stroke-linejoin="round" stroke-width="4" d="M37 25v19H11V25"></path><path d="m17 18l7-8l7 8l11-8l-2.5-6H9l-3 6l11 8Z"></path><path stroke="currentColor" stroke-linecap="round" stroke-linejoin="round" stroke-width="4" d="M19 10h5m5 0h-5m0 0l-7 8l-11-8l3-6h30.5l2.5 6l-11 8l-7-8Z"></path></g></svg>