<svg xmlns="http://www.w3.org/2000/svg" xmlns:xlink="http://www.w3.org/1999/xlink" aria-hidden="true" role="img" class="iconify iconify--icon-park-outline" width="1em" height="1em" preserveAspectRatio="xMidYMid meet" viewBox="0 0 48 48"><g fill="none"><path stroke="currentColor" stroke-width="4" d="M10 6a2 2 0 0 1 2-2h24a2 2 0 0 1 2 2v36a2 2 0 0 1-2 2H12a2 2 0 0 1-2-2V6Z"></path><path stroke="currentColor" stroke-linecap="round" stroke-linejoin="round" stroke-width="4" d="M17 12h14"></path><circle cx="17" cy="21" r="2" fill="currentColor"></circle><circle cx="17" cy="27" r="2" fill="currentColor"></circle><circle cx="17" cy="33" r="2" fill="currentColor"></circle><circle cx="24" cy="21" r="2" fill="currentColor"></circle><circle cx="24" cy="27" r="2" fill="currentColor"></circle><circle cx="24" cy="33" r="2" fill="currentColor"></circle><circle cx="31" cy="21" r="2" fill="currentColor"></circle><circle cx="31" cy="27" r="2" fill="currentColor"></circle><circle cx="31" cy="33" r="2" fill="currentColor"></circle></g></svg>