<svg xmlns="http://www.w3.org/2000/svg" xmlns:xlink="http://www.w3.org/1999/xlink" aria-hidden="true" role="img" class="iconify iconify--icon-park-outline" width="1em" height="1em" preserveAspectRatio="xMidYMid meet" viewBox="0 0 48 48"><g fill="none"><g stroke="currentColor" stroke-linejoin="round" stroke-width="4" clip-path="url(#IconifyId17f5a0d8ff03f060010)"><path d="M16.1 25.828L38.728 6.03s2.121-2.12 4.243 0c2.12 2.122 0 4.243 0 4.243L23.17 32.9l-7.07-7.072Z"></path><path stroke-linecap="round" d="m22.465 20.879l5.657 5.657"></path><path d="m5.494 30.778l10.607-4.95l7.07 7.072l-4.949 10.606s-4.95.707-9.192-3.535c-4.243-4.243-3.536-9.193-3.536-9.193Z"></path><path stroke-linecap="round" d="m6.908 36.435l4.95-2.121m.707 7.778l1.414-2.828"></path><path d="m18.93 23.354l2.828-2.475l2.828-2.475m6.01 6.01l-2.475 2.829l-2.475 2.828"></path></g><defs><clipPath id="IconifyId17f5a0d8ff03f060010"><path fill="currentColor" d="M0 0h48v48H0z"></path></clipPath></defs></g></svg>