<svg xmlns="http://www.w3.org/2000/svg" xmlns:xlink="http://www.w3.org/1999/xlink" aria-hidden="true" role="img" class="iconify iconify--icon-park-outline" width="1em" height="1em" preserveAspectRatio="xMidYMid meet" viewBox="0 0 48 48"><g fill="none" stroke="currentColor" stroke-linecap="round" stroke-linejoin="round" stroke-width="4"><path d="M39 28v4h-8v-4a4 4 0 0 1 8 0Zm-13 4h18v12H26V32Zm6-26h6a4 4 0 0 1 4 4v6M16 42h-6a4 4 0 0 1-4-4v-6M22 8v12c0 2.21-4.03 4-9 4s-9-1.79-9-4V8"></path><path d="M22 14c0 2.21-4.03 4-9 4s-9-1.79-9-4m18-6c0 2.21-4.03 4-9 4s-9-1.79-9-4s4.03-4 9-4s9 1.79 9 4Z"></path></g></svg>