<svg xmlns="http://www.w3.org/2000/svg" xmlns:xlink="http://www.w3.org/1999/xlink" aria-hidden="true" role="img" class="iconify iconify--icon-park-outline" width="1em" height="1em" preserveAspectRatio="xMidYMid meet" viewBox="0 0 48 48"><g fill="none"><g stroke="currentColor" stroke-linecap="round" stroke-linejoin="round" stroke-width="4" clip-path="url(#IconifyId17f5a0d8ff03f060012)"><ellipse cx="24" cy="11" rx="20" ry="6"></ellipse><path d="M10.77 15.5C6.62 16.6 4 18.208 4 20c0 3.314 8.954 6 20 6s20-2.686 20-6c0-1.792-2.619-3.4-6.77-4.5"></path><path d="M10.77 24.5C6.62 25.6 4 27.208 4 29c0 3.314 8.954 6 20 6s20-2.686 20-6c0-1.792-2.619-3.4-6.77-4.5"></path><path d="M10.77 33.5C6.62 34.6 4 36.208 4 38c0 3.314 8.954 6 20 6s20-2.686 20-6c0-1.792-2.619-3.4-6.77-4.5c-3.526.934-8.158 1.5-13.23 1.5c-5.072 0-9.704-.566-13.23-1.5Z"></path></g><defs><clipPath id="IconifyId17f5a0d8ff03f060012"><path fill="currentColor" d="M0 0h48v48H0z"></path></clipPath></defs></g></svg>