<svg xmlns="http://www.w3.org/2000/svg" xmlns:xlink="http://www.w3.org/1999/xlink" aria-hidden="true" role="img" class="iconify iconify--icon-park-outline" width="1em" height="1em" preserveAspectRatio="xMidYMid meet" viewBox="0 0 48 48"><defs><path id="IconifyId17f5a0d8ff03f060013" d="M39 9c0 2.761-6.716 5-15 5c-8.284 0-15-2.239-15-5s6.716-5 15-5c8.284 0 15 2.239 15 5Z"></path><path id="IconifyId17f5a0d8ff03f060014" stroke="currentColor" stroke-linecap="round" stroke-linejoin="round" stroke-width="4" d="M39 9c0 2.761-6.716 5-15 5c-8.284 0-15-2.239-15-5s6.716-5 15-5c8.284 0 15 2.239 15 5Z"></path></defs><g fill="none"><path stroke="currentColor" stroke-linecap="round" stroke-linejoin="round" stroke-width="4" d="M24 36v-6m-4 10H6m22 0h14m-14 0a4 4 0 1 1-8 0a4 4 0 0 1 8 0ZM39 9v16c0 2.761-6.716 5-15 5c-8.284 0-15-2.239-15-5V9"></path><path stroke="currentColor" stroke-linecap="round" stroke-linejoin="round" stroke-width="4" d="M39 17c0 2.761-6.716 5-15 5c-8.284 0-15-2.239-15-5"></path><use xlink:href="#IconifyId17f5a0d8ff03f060013"></use><use xlink:href="#IconifyId17f5a0d8ff03f060013"></use><use xlink:href="#IconifyId17f5a0d8ff03f060014" stroke-linecap="round" stroke-linejoin="round" stroke-width="4"></use><use xlink:href="#IconifyId17f5a0d8ff03f060014" stroke-linecap="round" stroke-linejoin="round" stroke-width="4"></use></g></svg>