<svg xmlns="http://www.w3.org/2000/svg" xmlns:xlink="http://www.w3.org/1999/xlink" aria-hidden="true" role="img" class="iconify iconify--icon-park-outline" width="1em" height="1em" preserveAspectRatio="xMidYMid meet" viewBox="0 0 48 48"><g fill="none"><g clip-path="url(#IconifyId17f5a0d8ff03f060016)"><rect width="36" height="36" x="6" y="6" stroke="currentColor" stroke-width="4" rx="3"></rect><path fill="currentColor" d="m23.293 10.565l-3.243 3.243c-.63.63-.184 1.707.707 1.707h6.485c.891 0 1.337-1.077.707-1.707l-3.242-3.243a1 1 0 0 0-1.415 0ZM10.565 24.707l3.242 3.243c.63.63 1.708.184 1.708-.707v-6.486c0-.89-1.078-1.337-1.708-.707l-3.242 3.243a1 1 0 0 0 0 1.414Zm14.141 12.728l3.243-3.243c.63-.63.184-1.707-.707-1.707h-6.485c-.891 0-1.337 1.077-.707 1.707l3.242 3.243a1 1 0 0 0 1.414 0Zm12.728-14.142l-3.242-3.243c-.63-.63-1.708-.184-1.708.707v6.486c0 .89 1.078 1.337 1.707.707l3.243-3.243a1 1 0 0 0 0-1.414Z"></path></g><defs><clipPath id="IconifyId17f5a0d8ff03f060016"><path fill="currentColor" d="M0 0h48v48H0z"></path></clipPath></defs></g></svg>