<svg xmlns="http://www.w3.org/2000/svg" xmlns:xlink="http://www.w3.org/1999/xlink" aria-hidden="true" role="img" class="iconify iconify--icon-park-outline" width="1em" height="1em" preserveAspectRatio="xMidYMid meet" viewBox="0 0 48 48"><g fill="none" stroke="currentColor" stroke-linecap="round" stroke-linejoin="round" stroke-width="4"><path d="M8 12a3 3 0 0 1 3-3h26a3 3 0 0 1 3 3v11H8V12ZM6 35v4m36-4v4"></path><path d="M20 18h-6a3 3 0 0 0-3 3v2h12v-2a3 3 0 0 0-3-3Zm14 0h-6a3 3 0 0 0-3 3v2h12v-2a3 3 0 0 0-3-3ZM4 26a3 3 0 0 1 3-3h34a3 3 0 0 1 3 3v9H4v-9Z"></path></g></svg>