<svg xmlns="http://www.w3.org/2000/svg" xmlns:xlink="http://www.w3.org/1999/xlink" aria-hidden="true" role="img" class="iconify iconify--icon-park-outline" width="1em" height="1em" preserveAspectRatio="xMidYMid meet" viewBox="0 0 48 48"><path fill="currentColor" fill-rule="evenodd" d="M19 10a4 4 0 1 1-8 0a4 4 0 0 1 8 0Zm-4 18a4 4 0 1 0 0-8a4 4 0 0 0 0 8Zm0 14a4 4 0 1 0 0-8a4 4 0 0 0 0 8Zm22-32a4 4 0 1 1-8 0a4 4 0 0 1 8 0Zm-4 18a4 4 0 1 0 0-8a4 4 0 0 0 0 8Zm0 14a4 4 0 1 0 0-8a4 4 0 0 0 0 8Z" clip-rule="evenodd"></path></svg>