<svg xmlns="http://www.w3.org/2000/svg" xmlns:xlink="http://www.w3.org/1999/xlink" aria-hidden="true" role="img" class="iconify iconify--icon-park-outline" width="1em" height="1em" preserveAspectRatio="xMidYMid meet" viewBox="0 0 48 48"><g fill="none"><g stroke="currentColor" stroke-linejoin="round" stroke-width="4" clip-path="url(#IconifyId17f5a0d8ff03f060018)"><path d="m24 10l-12 8l12 8l12-8l-12-8Z"></path><path d="m24 10l12 8l5-7l-11-7l-6 6Zm0 0l-12 8l-5-7l11-7l6 6Zm19 12l-7-4l-12 8l7 5l12-9ZM5 22l7-4l12 8l-7 5l-12-9Z"></path><path stroke-linecap="round" d="M36 28v9l-12 7l-12-7v-9"></path></g><defs><clipPath id="IconifyId17f5a0d8ff03f060018"><path fill="currentColor" d="M0 0h48v48H0z"></path></clipPath></defs></g></svg>