<svg xmlns="http://www.w3.org/2000/svg" xmlns:xlink="http://www.w3.org/1999/xlink" aria-hidden="true" role="img" class="iconify iconify--icon-park-outline" width="1em" height="1em" preserveAspectRatio="xMidYMid meet" viewBox="0 0 48 48"><g fill="none" stroke="currentColor" stroke-linecap="round" stroke-width="4"><path d="M24 37a15.95 15.95 0 0 0 11.314-4.686A15.95 15.95 0 0 0 40 21a15.95 15.95 0 0 0-4.686-11.314A15.95 15.95 0 0 0 24 5a15.95 15.95 0 0 0-11.314 4.686A15.95 15.95 0 0 0 8 21a15.95 15.95 0 0 0 4.686 11.314A15.95 15.95 0 0 0 24 37Z" clip-rule="evenodd"></path><path d="M39.556 36.556A21.932 21.932 0 0 1 24 43a21.932 21.932 0 0 1-15.556-6.444"></path></g></svg>