<svg xmlns="http://www.w3.org/2000/svg" xmlns:xlink="http://www.w3.org/1999/xlink" aria-hidden="true" role="img" class="iconify iconify--icon-park-outline" width="1em" height="1em" preserveAspectRatio="xMidYMid meet" viewBox="0 0 48 48"><g fill="none" stroke="currentColor" stroke-linecap="round" stroke-width="4"><path stroke-linejoin="round" d="M5 17h13m12 0h13M30 31h13M5 31h13M30 9h13v30H30M18 9H5v30h13"></path><path stroke-linejoin="round" d="M43 39v-8h-9v8h9Zm-29 0v-8H5v8h9Zm29-22V9h-9v8h9ZM5 9v8h9V9H5Z"></path><path d="M24 7v4m0 6v4m0 6v4m0 6v4"></path></g></svg>