<svg xmlns="http://www.w3.org/2000/svg" xmlns:xlink="http://www.w3.org/1999/xlink" aria-hidden="true" role="img" class="iconify iconify--icon-park-outline" width="1em" height="1em" preserveAspectRatio="xMidYMid meet" viewBox="0 0 48 48"><g fill="none" stroke="currentColor" stroke-width="4"><path d="m35 18l-3.88 12.612c-.08.259-.155.514-.248.768c-.548 1.498-2.99 7.04-9.871 9.62C13 44 4.999 40 5 32.077C5 24.154 13 25 17 22s8-9 8-9"></path><path stroke-linecap="round" stroke-linejoin="round" d="M39.255 24.488S40.371 19.175 40 16c-.505-4.328-2.5-7.5-5-9c-2.502-1.5-7.748-2.5-12 0c-4.253 2.5-6.033 5.845-6.033 5.845l8.206-.768a1 1 0 0 1 1.055.721l1.497 5.24a1 1 0 0 0 1.236.687l5.282-1.509a1 1 0 0 1 1.145.467l3.865 6.805ZM36 8l6-2"></path></g></svg>