<svg xmlns="http://www.w3.org/2000/svg" xmlns:xlink="http://www.w3.org/1999/xlink" aria-hidden="true" role="img" class="iconify iconify--icon-park-outline" width="1em" height="1em" preserveAspectRatio="xMidYMid meet" viewBox="0 0 48 48"><g fill="none"><g stroke="currentColor" stroke-linecap="round" stroke-linejoin="round" stroke-width="4" clip-path="url(#IconifyId17f5a0d8ff03f060020)"><path d="M9.439 42h3.185a2 2 0 0 0 1.868-1.286l2.2-5.753l.024-5.526a2.04 2.04 0 0 1 .033-.348L20.153 10.3a2 2 0 0 0-1.968-2.357h-7.322A2 2 0 0 0 8.864 10l.522 18.871l-1.77 3.33a2 2 0 0 0 .269 2.266l.562.633l-.963 4.48A2 2 0 0 0 9.439 42Zm7.278-12.74l-7.331-.39M38.578 42h-3.18a2 2 0 0 1-1.878-1.313l-2.093-5.726l-.025-5.526c0-.116-.011-.233-.032-.348L27.965 10.3a2 2 0 0 1 1.968-2.357h7.322a2 2 0 0 1 2 2.056l-.523 18.871l1.771 3.33a2 2 0 0 1-.27 2.266l-.561.633l.87 4.523A2 2 0 0 1 38.578 42ZM31.4 29.26l7.331-.39"></path></g><defs><clipPath id="IconifyId17f5a0d8ff03f060020"><path fill="currentColor" d="M0 0h48v48H0z"></path></clipPath></defs></g></svg>