<svg xmlns="http://www.w3.org/2000/svg" xmlns:xlink="http://www.w3.org/1999/xlink" aria-hidden="true" role="img" class="iconify iconify--icon-park-outline" width="1em" height="1em" preserveAspectRatio="xMidYMid meet" viewBox="0 0 48 48"><g fill="none" stroke="currentColor" stroke-linejoin="round" stroke-width="4"><path stroke-linecap="round" d="M11 16v26m13-13v13m0-23V6m13 0v26"></path><path d="M11 16a5 5 0 1 0 0-10a5 5 0 0 0 0 10Zm13 13a5 5 0 1 0 0-10a5 5 0 0 0 0 10Zm13 13a5 5 0 1 0 0-10a5 5 0 0 0 0 10Z"></path></g></svg>