<svg xmlns="http://www.w3.org/2000/svg" xmlns:xlink="http://www.w3.org/1999/xlink" aria-hidden="true" role="img" class="iconify iconify--icon-park-outline" width="1em" height="1em" preserveAspectRatio="xMidYMid meet" viewBox="0 0 48 48"><g fill="none" stroke="currentColor" stroke-linejoin="round" stroke-width="4"><path stroke-linecap="round" d="M8 31v11a2 2 0 0 0 2 2h28a2 2 0 0 0 2-2V31"></path><path d="M38 14H10a2 2 0 0 0-2 2v6a2 2 0 0 0 2 2h28a2 2 0 0 0 2-2v-6a2 2 0 0 0-2-2Z"></path><path stroke-linecap="round" d="M16 4v4m8-4v4m8-4v4M16 34h16"></path></g></svg>