<svg xmlns="http://www.w3.org/2000/svg" xmlns:xlink="http://www.w3.org/1999/xlink" aria-hidden="true" role="img" class="iconify iconify--icon-park-outline" width="1em" height="1em" preserveAspectRatio="xMidYMid meet" viewBox="0 0 48 48"><g fill="none"><path stroke="currentColor" stroke-width="4" d="M39 6H9a3 3 0 0 0-3 3v30a3 3 0 0 0 3 3h30a3 3 0 0 0 3-3V9a3 3 0 0 0-3-3Z"></path><path stroke="currentColor" stroke-linecap="round" stroke-linejoin="round" stroke-width="4" d="M27 12v4c2.667.833 9 3 9 10s-6 10-12 10s-12-3-12-10c0-8 9.667-12.833 15-14Z"></path><ellipse cx="29" cy="26" fill="currentColor" rx="3" ry="4"></ellipse><ellipse cx="19" cy="26" fill="currentColor" rx="3" ry="4"></ellipse></g></svg>