<svg xmlns="http://www.w3.org/2000/svg" xmlns:xlink="http://www.w3.org/1999/xlink" aria-hidden="true" role="img" class="iconify iconify--icon-park-outline" width="1em" height="1em" preserveAspectRatio="xMidYMid meet" viewBox="0 0 48 48"><g fill="none" clip-rule="evenodd"><path stroke="currentColor" stroke-linecap="round" stroke-linejoin="round" stroke-width="4" d="M4.111 46A2.117 2.117 0 0 1 2 43.877V4.123C2 2.95 2.945 2 4.111 2H43.89C45.055 2 46 2.95 46 4.123v39.754A2.117 2.117 0 0 1 43.889 46H4.11Z"></path><path fill="currentColor" fill-rule="evenodd" d="M38.661 17.887h-4.868a2.444 2.444 0 0 0-2.444 2.444v4.89h7.312l-1.07 7.332h-6.242V46h-8.043V32.553h-6.64v-7.331h6.555l.085-6.959l-.024-2.494a6.377 6.377 0 0 1 6.377-6.438h9.002v8.556Z"></path></g></svg>