<svg xmlns="http://www.w3.org/2000/svg" xmlns:xlink="http://www.w3.org/1999/xlink" aria-hidden="true" role="img" class="iconify iconify--icon-park-outline" width="1em" height="1em" preserveAspectRatio="xMidYMid meet" viewBox="0 0 48 48"><path fill="none" stroke="currentColor" stroke-linecap="round" stroke-linejoin="round" stroke-width="4" d="m14.014 27.755l-9.986-3.244a21 21 0 0 1 39.944 0l-9.986 3.244m-19.972 0a10.5 10.5 0 0 1 3.814-5.25m-3.814 5.25L24 31m-6.172-8.495A10.5 10.5 0 0 1 24 20.5m-6.172 2.005L24 31m0-10.5a10.5 10.5 0 0 1 6.172 2.005M24 20.5V31m6.172-8.495a10.5 10.5 0 0 1 3.814 5.25m-3.814-5.25L24 31m9.986-3.245L24 31m0 0v5"></path></svg>