<svg xmlns="http://www.w3.org/2000/svg" xmlns:xlink="http://www.w3.org/1999/xlink" aria-hidden="true" role="img" class="iconify iconify--icon-park-outline" width="1em" height="1em" preserveAspectRatio="xMidYMid meet" viewBox="0 0 48 48"><g fill="none" stroke="currentColor" stroke-linecap="round" stroke-linejoin="round" stroke-width="4"><path d="M22.142 15.858L10.828 27.172a4 4 0 0 0 0 5.656l9.9 9.9a4 4 0 0 0 5.657 0l9.9-9.9a4 4 0 0 0 0-5.656L24.97 15.858a2 2 0 0 0-2.829 0Z"></path><path d="M23 14.91s6.058-6.76 7.41-8.17c1.353-1.409 5.158-2.84 7.411-.491c2.254 2.348.82 6.07-.532 7.478C35.937 15.137 30.62 21 30.62 21M23 14.91s-6.058-6.76-7.41-8.17c-1.353-1.409-5.158-2.84-7.411-.491c-2.254 2.348-.82 6.07.532 7.478C10.063 15.137 15.38 21 15.38 21"></path></g></svg>