<svg xmlns="http://www.w3.org/2000/svg" xmlns:xlink="http://www.w3.org/1999/xlink" aria-hidden="true" role="img" class="iconify iconify--icon-park-outline" width="1em" height="1em" preserveAspectRatio="xMidYMid meet" viewBox="0 0 48 48"><g fill="none" stroke="currentColor" stroke-linejoin="round" stroke-width="4"><rect width="36" height="36" x="6" y="6" rx="3"></rect><path d="M18 18a3 3 0 0 1 3-3h3v6h-3a3 3 0 0 1-3-3Zm0 6a3 3 0 0 1 3-3h3v6h-3a3 3 0 0 1-3-3Zm0 6a3 3 0 0 1 3-3h3v3a3 3 0 1 1-6 0Zm6-15h3a3 3 0 1 1 0 6h-3v-6Z"></path><path d="M24 24a3 3 0 1 1 6 0a3 3 0 1 1-6 0Z"></path></g></svg>