<svg xmlns="http://www.w3.org/2000/svg" xmlns:xlink="http://www.w3.org/1999/xlink" aria-hidden="true" role="img" class="iconify iconify--icon-park-outline" width="1em" height="1em" preserveAspectRatio="xMidYMid meet" viewBox="0 0 48 48"><g fill="none" stroke="currentColor" stroke-linecap="round" stroke-linejoin="round" stroke-width="4"><path d="M10 44h28a2 2 0 0 0 2-2V14L31 4H10a2 2 0 0 0-2 2v36a2 2 0 0 0 2 2Z"></path><path d="M16 23a8.64 8.64 0 0 0 1.255 2.517C18.783 27.63 21.235 29 24 29s5.217-1.37 6.745-3.483A8.64 8.64 0 0 0 32 23m-10.479 6.068l-1.035 3.864m6-3.864l1.036 3.864m2.832-5.578l2.828 2.828M15 30.01l2.828-2.828M30 4v10h10"></path></g></svg>