<svg xmlns="http://www.w3.org/2000/svg" xmlns:xlink="http://www.w3.org/1999/xlink" aria-hidden="true" role="img" class="iconify iconify--icon-park-outline" width="1em" height="1em" preserveAspectRatio="xMidYMid meet" viewBox="0 0 48 48"><g fill="none" stroke="currentColor" stroke-width="4"><path stroke-linecap="round" stroke-linejoin="round" d="M10 44h28a2 2 0 0 0 2-2V14L31 4H10a2 2 0 0 0-2 2v36a2 2 0 0 0 2 2Z"></path><circle cx="24" cy="27" r="5"></circle><path stroke-linecap="round" stroke-linejoin="round" d="M24 19v3m0 10v3m5.828-14l-2.121 2.121M19.828 31l-2.121 2.121M18 21l2.121 2.121M28 31l2.121 2.121M16 27h3m10 0h3M30 4v10h10"></path></g></svg>