<svg xmlns="http://www.w3.org/2000/svg" xmlns:xlink="http://www.w3.org/1999/xlink" aria-hidden="true" role="img" class="iconify iconify--icon-park-outline" width="1em" height="1em" preserveAspectRatio="xMidYMid meet" viewBox="0 0 48 48"><g fill="none" stroke="currentColor" stroke-width="4"><path stroke-linecap="round" stroke-linejoin="round" d="M10 38v6h28v-6m0-18v-6L30 4H10v16"></path><path stroke-linecap="round" stroke-linejoin="round" d="M28 4v10h10"></path><path stroke-linecap="round" d="M16 12h4"></path><rect width="40" height="18" x="4" y="20" stroke-linejoin="round" rx="2"></rect><path stroke-linecap="round" d="M10 25v8"></path><path stroke-linecap="round" stroke-linejoin="round" d="M10 25h2a4 4 0 0 1 4 4v0a4 4 0 0 1-4 4h-2"></path><ellipse cx="24" cy="29" stroke-linecap="round" stroke-linejoin="round" rx="3" ry="4"></ellipse><path stroke-linecap="round" stroke-linejoin="round" d="M38 25h-2a4 4 0 0 0-4 4v0a4 4 0 0 0 4 4h2"></path></g></svg>