<svg xmlns="http://www.w3.org/2000/svg" xmlns:xlink="http://www.w3.org/1999/xlink" aria-hidden="true" role="img" class="iconify iconify--icon-park-outline" width="1em" height="1em" preserveAspectRatio="xMidYMid meet" viewBox="0 0 48 48"><g fill="none" stroke="currentColor" stroke-linejoin="round" stroke-width="4"><path d="M15 14.384C19.125 16 24.008 16 24.008 16S28.88 16 33 14.384c4.502 5.254 7.656 12.18 9.73 18.013C44.829 38.303 40.2 44 33.933 44H14.02c-6.252 0-10.874-5.671-8.786-11.564c2.064-5.822 5.22-12.75 9.766-18.052Z"></path><path stroke-linecap="round" d="M18 28h12m-12 6h12m-5.992-6v10M30 22l-6 6l-6-6"></path><path stroke-linecap="round" d="M24 16c7.18 0 13-2.686 13-6s-5.82-6-13-6s-13 2.686-13 6s5.82 6 13 6Z" clip-rule="evenodd"></path></g></svg>