<svg xmlns="http://www.w3.org/2000/svg" xmlns:xlink="http://www.w3.org/1999/xlink" aria-hidden="true" role="img" class="iconify iconify--icon-park-outline" width="1em" height="1em" preserveAspectRatio="xMidYMid meet" viewBox="0 0 48 48"><g fill="none" stroke="currentColor" stroke-linecap="round" stroke-linejoin="round" stroke-width="4"><path d="M42.43 12.04C37.703 7.382 31.155 4.5 23.92 4.5c-7.193 0-13.707 2.849-18.429 7.457m1.176 17.517v-.057c0-9.573 7.76-17.334 17.333-17.334m7.17 1.547c5.995 2.728 10.163 8.77 10.163 15.787v.013M14.25 37v-7.583c0-5.385 4.365-9.75 9.75-9.75s9.75 4.365 9.75 9.75V37"></path><path d="M17.526 43.5c1.963-.485 3.224-2.554 3.224-4.304V30.5a3.25 3.25 0 0 1 6.5 0v8.696"></path></g></svg>