<svg xmlns="http://www.w3.org/2000/svg" xmlns:xlink="http://www.w3.org/1999/xlink" aria-hidden="true" role="img" class="iconify iconify--icon-park-outline" width="1em" height="1em" preserveAspectRatio="xMidYMid meet" viewBox="0 0 48 48"><g fill="none" stroke="currentColor" stroke-linecap="round" stroke-linejoin="round" stroke-width="4"><path d="M24.68 20.037c-1.115-.299-4.415-1.357-9.51 2.055c-3.031 2.03-4.306 5.148-4.736 7.438c-.204 1.089.72 1.967 1.82 1.836c.796-.094 1.68-.24 2.348-.467c1.97-.667 1.712-1.93 2.717-3.453c1.005-1.522 3.533-2.04 5.612-.885c2.08 1.154 2.747 3.125 2.299 4.797c-.448 1.671-1.453 3.194-3.981 3.711c-2.528.517-3.343-.896-5.98-2.2c-1.374-.68-3.167.202-4.25.899a1.514 1.514 0 0 0-.609 1.822c.175.463.415 1.005.729 1.548c.816 1.413 4.378 5.951 8.985 6.588c4.607.638 9.404-1.66 12.12-5.114c2.717-3.452 2.797-8.209.907-12.299"></path><path d="M33.045 26.42L28.276 4.156c-.107-.5-.575-.845-1.07-.715c-1.16.307-2.635 1.077-2.705 2.87c-.09 2.305.365 20.038.971 23.256"></path></g></svg>