<svg xmlns="http://www.w3.org/2000/svg" xmlns:xlink="http://www.w3.org/1999/xlink" aria-hidden="true" role="img" class="iconify iconify--icon-park-outline" width="1em" height="1em" preserveAspectRatio="xMidYMid meet" viewBox="0 0 48 48"><g fill="none"><g clip-path="url(#IconifyId17f5a0d8ff03f060021)"><path stroke="currentColor" stroke-linecap="round" stroke-linejoin="round" stroke-width="4" d="M15.38 32.844C9.725 31.43.532 34.965 9.725 38.501c3.535 9.193 7.07 0 5.657-5.657Zm7.102-22.597c-4.903-.013-11.232 1.537-12.029 3.728c-.577 1.589 2.425 3.702 6.25 4.818m21.275 6.949c.013 4.904-1.537 11.232-3.728 12.03c-1.589.577-3.702-2.425-4.818-6.251"></path><path stroke="currentColor" stroke-linecap="round" stroke-linejoin="round" stroke-width="4" d="M38 25.765C44.662 19.7 40.124 8.09 40.124 8.09S28.108 4.56 22.45 10.217c-5.657 5.656-7.071 22.627-7.071 22.627S31.336 31.83 38 25.764Z"></path><path stroke="currentColor" stroke-linecap="round" stroke-linejoin="round" stroke-width="4" d="M38.008 25.773s-6.718-1.06-10.607-4.95c-3.89-3.889-4.95-10.606-4.95-10.606"></path><circle cx="33.766" cy="14.459" r="2" fill="currentColor" transform="rotate(45 33.766 14.46)"></circle><path stroke="currentColor" stroke-linecap="round" stroke-linejoin="round" stroke-width="4" d="M41 20.945c-.54 1.76-1.478 3.434-3 4.82c-1.648 1.5-3.864 2.69-6.266 3.633M27 7.656c-1.697.489-3.282 1.294-4.549 2.56c-1.184 1.186-2.183 2.867-3.022 4.784"></path></g><defs><clipPath id="IconifyId17f5a0d8ff03f060021"><path fill="currentColor" d="M0 0h48v48H0z"></path></clipPath></defs></g></svg>