<svg xmlns="http://www.w3.org/2000/svg" xmlns:xlink="http://www.w3.org/1999/xlink" aria-hidden="true" role="img" class="iconify iconify--icon-park-outline" width="1em" height="1em" preserveAspectRatio="xMidYMid meet" viewBox="0 0 48 48"><g fill="none" stroke="currentColor" stroke-linejoin="round" stroke-width="4"><path d="M5 8a2 2 0 0 1 2-2h12l5 6h17a2 2 0 0 1 2 2v26a2 2 0 0 1-2 2H7a2 2 0 0 1-2-2V8Z"></path><path stroke-linecap="round" d="m24 20l2.243 4.913l5.366.615l-3.98 3.651l1.073 5.293L24 31.816l-4.702 2.656l1.073-5.293l-3.98-3.651l5.366-.615L24 20Z"></path></g></svg>