<svg xmlns="http://www.w3.org/2000/svg" xmlns:xlink="http://www.w3.org/1999/xlink" aria-hidden="true" role="img" class="iconify iconify--icon-park-outline" width="1em" height="1em" preserveAspectRatio="xMidYMid meet" viewBox="0 0 48 48"><g fill="none" stroke="currentColor" stroke-width="4"><path stroke-linejoin="round" d="M5 8a2 2 0 0 1 2-2h12l5 6h17a2 2 0 0 1 2 2v26a2 2 0 0 1-2 2H7a2 2 0 0 1-2-2V8Z"></path><circle cx="24" cy="28" r="4"></circle><path stroke-linecap="round" stroke-linejoin="round" d="M24 21v3m0 8v3m4.828-12l-2.121 2.121M20.828 31l-2.121 2.121M19 23l2.121 2.121M27 31l2.121 2.121M17 28h3m8 0h3"></path></g></svg>