<svg xmlns="http://www.w3.org/2000/svg" xmlns:xlink="http://www.w3.org/1999/xlink" aria-hidden="true" role="img" class="iconify iconify--icon-park-outline" width="1em" height="1em" preserveAspectRatio="xMidYMid meet" viewBox="0 0 48 48"><g fill="none" stroke="currentColor" stroke-linecap="round" stroke-linejoin="round" stroke-width="4"><path d="M7 6a2 2 0 0 1 2-2h30a2 2 0 0 1 2 2v36a2 2 0 0 1-2 2H9a2 2 0 0 1-2-2V6Zm9 23h4m-4 6h10"></path><path d="M8 5s3.765 13 16 13S40 5 40 5"></path><circle cx="24" cy="18" r="4"></circle><path d="M15 4H9a2 2 0 0 0-2 2v6m26-8h6a2 2 0 0 1 2 2v6"></path></g></svg>