<svg xmlns="http://www.w3.org/2000/svg" xmlns:xlink="http://www.w3.org/1999/xlink" aria-hidden="true" role="img" class="iconify iconify--icon-park-outline" width="1em" height="1em" preserveAspectRatio="xMidYMid meet" viewBox="0 0 48 48"><g fill="none" fill-rule="evenodd" stroke="currentColor" stroke-linecap="round" stroke-linejoin="round" stroke-width="4" transform="translate(4 4)"><circle cx="20" cy="20" r="20"></circle><path d="M26.093 2.5L20.07 6.859v4.359l7.744 6.103l4.302-1.744l2.582-6.974M14.047 2.5l6.023 4.359v4.359l-7.744 6.103l-4.303-1.744l-2.581-6.974M2 18.192l6.023-2.615l4.303 1.744l2.581 9.589l-2.581 3.487H4.581"></path><path d="M12.326 36.5v-6.103l2.581-3.487h10.326l2.581 3.487V36.5"></path><path d="M35.558 30.397h-7.744l-2.581-3.487l2.581-9.589l4.302-1.744L39 19.064"></path></g></svg>