<svg xmlns="http://www.w3.org/2000/svg" xmlns:xlink="http://www.w3.org/1999/xlink" aria-hidden="true" role="img" class="iconify iconify--icon-park-outline" width="1em" height="1em" preserveAspectRatio="xMidYMid meet" viewBox="0 0 48 48"><g fill="none" stroke="currentColor" stroke-linecap="round" stroke-linejoin="round" stroke-width="4"><circle cx="10" cy="10" r="6"></circle><path d="M6.283 14.71A19.859 19.859 0 0 0 4.4 20M14.71 6.284A19.86 19.86 0 0 1 20 4.4"></path><circle cx="38" cy="10" r="6"></circle><path d="M33.29 6.284A19.86 19.86 0 0 0 28 4.4m13.716 10.31A19.857 19.857 0 0 1 43.6 20"></path><circle cx="38" cy="38" r="6"></circle><path d="M41.716 33.29A19.859 19.859 0 0 0 43.6 28M33.29 41.716A19.859 19.859 0 0 1 28 43.6"></path><circle cx="10" cy="38" r="6"></circle><path d="M14.71 41.716A19.859 19.859 0 0 0 20 43.6M6.283 33.29A19.86 19.86 0 0 1 4.4 28M18 24h12m-6 6V18"></path></g></svg>