<svg xmlns="http://www.w3.org/2000/svg" xmlns:xlink="http://www.w3.org/1999/xlink" aria-hidden="true" role="img" class="iconify iconify--icon-park-outline" width="1em" height="1em" preserveAspectRatio="xMidYMid meet" viewBox="0 0 48 48"><path fill="none" stroke="currentColor" stroke-linecap="round" stroke-linejoin="round" stroke-width="4" d="M44 4S33.59 2.201 30 8c-2.672 4.317 1 9 1 9M44 4s1.799 10.41-4 14c-4.317 2.672-9-1-9-1M44 4L31 17m0 0l-3 3m16 24s-10.41 1.799-14-4c-2.672-4.317 1-9 1-9m13 13s1.799-10.41-4-14c-4.317-2.672-9 1-9 1m13 13L31 31m0 0l-3-3M4.264 4s10.41-1.799 14 4c2.672 4.317-1 9-1 9m-13-13s-1.8 10.41 4 14c4.316 2.672 9-1 9-1m-13-13l13 13m0 0l3 3m-16 24s10.41 1.799 14-4c2.672-4.317-1-9-1-9m-13 13s-1.8-10.41 4-14c4.316-2.672 9 1 9 1m-13 13l13-13m0 0l3-3"></path></svg>