<svg xmlns="http://www.w3.org/2000/svg" xmlns:xlink="http://www.w3.org/1999/xlink" aria-hidden="true" role="img" class="iconify iconify--icon-park-outline" width="1em" height="1em" preserveAspectRatio="xMidYMid meet" viewBox="0 0 48 48"><g fill="none" stroke="currentColor" stroke-width="4"><path stroke-linecap="round" stroke-linejoin="round" d="M21 22V12a2 2 0 0 0-2-2h-3a2 2 0 0 0-2 2v9m21 0v-7a2 2 0 0 0-2-2h-3a2 2 0 0 0-2 2v8m0 0V6a2 2 0 0 0-2-2h-3a2 2 0 0 0-2 2v16"></path><path stroke-linecap="round" stroke-linejoin="round" d="M7 18s7 5 17 5s17-5 17-5l-4.818 26H11.818L7 18Z"></path><ellipse cx="24" cy="33" rx="6" ry="3"></ellipse></g></svg>