<svg xmlns="http://www.w3.org/2000/svg" xmlns:xlink="http://www.w3.org/1999/xlink" aria-hidden="true" role="img" class="iconify iconify--icon-park-outline" width="1em" height="1em" preserveAspectRatio="xMidYMid meet" viewBox="0 0 48 48"><g fill="none" stroke="currentColor" stroke-linecap="round" stroke-width="4"><path stroke-linejoin="round" d="M23 5c-1.146 4.46-1.146 7.773 0 9.937c1.719 3.248 5.7 5.043.574 9.374c-5.126 4.332-10.323.697-13.532.697c-3.208 0-6.02 3.613-6.02 8.992c0 3.586.66 6.586 1.978 9"></path><path stroke-linejoin="round" d="M29.984 5c-1.441 5.329-1.113 8.709.985 10.14c3.148 2.145 3.389-2.337 9.172.33c5.783 2.666 4.28 11.961.953 16.745C37.768 37 30.667 41.835 24.008 41c-6.659-.835-9.135-8.98-9.992-8.98c-.857 0-2.668.025-3.022 3.397c-.236 2.248.435 4.775 2.01 7.583"></path><path d="M35.645 28.29c-.578 1.726-1.555 3.048-2.93 4.01c-1.375.961-3.12 1.528-5.237 1.7"></path></g></svg>