<svg xmlns="http://www.w3.org/2000/svg" xmlns:xlink="http://www.w3.org/1999/xlink" aria-hidden="true" role="img" class="iconify iconify--icon-park-outline" width="1em" height="1em" preserveAspectRatio="xMidYMid meet" viewBox="0 0 48 48"><path fill="none" stroke="currentColor" stroke-linecap="round" stroke-linejoin="round" stroke-width="4" d="M8.007 19.197C12.443 10.325 22 7 28.507 4.197c2.957-1.274 3.689 3.526 2.5 6.5c-1 2.5-3 5.303-3 5.303h8.5a3.5 3.5 0 1 1 0 7h2a3.5 3.5 0 1 1 0 7h-4a3.5 3.5 0 1 1 0 7h-3a3.5 3.5 0 0 1 .001 7H19.007c-3.5 0-8-1.803-11-6.803c-2.876-4.794-3-12 0-18Z"></path></svg>