<svg xmlns="http://www.w3.org/2000/svg" xmlns:xlink="http://www.w3.org/1999/xlink" aria-hidden="true" role="img" class="iconify iconify--icon-park-outline" width="1em" height="1em" preserveAspectRatio="xMidYMid meet" viewBox="0 0 48 48"><g fill="none" stroke="currentColor" stroke-linecap="round" stroke-linejoin="round" stroke-width="4" clip-rule="evenodd"><path d="m24 24l10-10c0-5.523-4.477-10-10-10S14 8.477 14 14l10 10Z"></path><path d="m14 34l10-10l-10-10C8.477 14 4 18.477 4 24s4.477 10 10 10Zm20 0c5.523 0 10-4.477 10-10s-4.477-10-10-10L24 24l10 10Z"></path><path d="M24 44c5.523 0 10-4.477 10-10L24 24L14 34c0 5.523 4.477 10 10 10Z"></path></g></svg>