<svg xmlns="http://www.w3.org/2000/svg" xmlns:xlink="http://www.w3.org/1999/xlink" aria-hidden="true" role="img" class="iconify iconify--icon-park-outline" width="1em" height="1em" preserveAspectRatio="xMidYMid meet" viewBox="0 0 48 48"><g fill="none"><g stroke="currentColor" stroke-linecap="round" stroke-linejoin="round" stroke-width="4" clip-path="url(#IconifyId17f5a0d8ff03f060024)"><path d="M38.847 5.339c-6.963 1.228-14.583 6.88-17.533 14.58c-3.225 8.417-4.098 9.339-8.03 11.468c-3.783 2.048-8.685 3.685-8.685 3.685"></path><path d="M9.638 33.107c4.22-2.54 9.708.083 12.165 1.804c2.458 1.72 4.956 1.639 6.39-.409c1.434-2.048.656-4.424-1.801-6.144c-1.638-1.148-7.127-3.77-5.078-8.44"></path><path d="M43.189 9.6c-10.323 2.538-14.42 5.773-18.436 17.61m-3.769 7.127c-.778 1.693-2.295 5.718-2.131 8.274"></path></g><defs><clipPath id="IconifyId17f5a0d8ff03f060024"><path fill="currentColor" d="M0 0h48v48H0z"></path></clipPath></defs></g></svg>