<svg xmlns="http://www.w3.org/2000/svg" xmlns:xlink="http://www.w3.org/1999/xlink" aria-hidden="true" role="img" class="iconify iconify--icon-park-outline" width="1em" height="1em" preserveAspectRatio="xMidYMid meet" viewBox="0 0 48 48"><g fill="none" stroke="currentColor" stroke-width="4"><path stroke-linecap="round" stroke-linejoin="round" d="M24 4v7m5 6v-6H19v6M31 4H19.8C17.142 4 15 5.2 15 8m23 18.977V26a9 9 0 0 0-9-9H19a9 9 0 0 0-9 9v9a9 9 0 0 0 9 9h5"></path><path d="M40 39.77c0 2.336-2.015 4.23-4.5 4.23S31 42.106 31 39.77c0-2.337 2.94-6.77 4.5-6.77s4.5 4.433 4.5 6.77Z"></path></g></svg>