<svg xmlns="http://www.w3.org/2000/svg" xmlns:xlink="http://www.w3.org/1999/xlink" aria-hidden="true" role="img" class="iconify iconify--icon-park-outline" width="1em" height="1em" preserveAspectRatio="xMidYMid meet" viewBox="0 0 48 48"><g fill="none" stroke="currentColor" stroke-linejoin="round" stroke-width="4"><path d="M44 41V19h-6v22h6Z"></path><path d="M38 19C30.895 12.43 26.776 8.663 25.643 7.7c-1.7-1.446-3.62-.839-3.62 2.779s5.263 5.765 5.263 8.521c.004.016-6.757.017-20.282.003A3 3 0 0 0 4 22.001v.003a3.004 3.004 0 0 0 3.004 3.004h7.013c1.206 7.969 1.872 12.302 1.997 13C16.202 39.052 17.2 41 20.068 41H38V19Z" clip-rule="evenodd"></path></g></svg>