<svg xmlns="http://www.w3.org/2000/svg" xmlns:xlink="http://www.w3.org/1999/xlink" aria-hidden="true" role="img" class="iconify iconify--icon-park-outline" width="1em" height="1em" preserveAspectRatio="xMidYMid meet" viewBox="0 0 48 48"><g fill="none" stroke="currentColor" stroke-linejoin="round" stroke-width="4"><path d="M7.053 10h22V4h-22v6Z"></path><path d="M29.053 10c6.52 7.123 10.26 11.251 11.222 12.384c1.443 1.7.837 3.62-2.775 3.62s-5.695-5.285-8.447-5.285c-.016-.004-.017 6.756-.003 20.277A3 3 0 0 1 26.052 44h-.003a3.004 3.004 0 0 1-3.004-3.004v-8.01c-7.973-1.208-12.308-1.875-13.004-2c-1.044-.188-2.988-1.185-2.988-4.054V10h22Z" clip-rule="evenodd"></path></g></svg>