<svg xmlns="http://www.w3.org/2000/svg" xmlns:xlink="http://www.w3.org/1999/xlink" aria-hidden="true" role="img" class="iconify iconify--icon-park-outline" width="1em" height="1em" preserveAspectRatio="xMidYMid meet" viewBox="0 0 48 48"><g fill="none" stroke="currentColor" stroke-linejoin="round" stroke-width="4"><path d="M10.027 40.974v-22h-6v22h6Z"></path><path d="M10.027 18.974c7.123-6.52 11.25-10.26 12.383-11.222c1.7-1.444 3.62-.838 3.62 2.775c0 3.612-5.285 5.695-5.285 8.447c-.003.016 6.756.017 20.278.003a3 3 0 0 1 3.004 2.998v.003a3.004 3.004 0 0 1-3.005 3.004h-8.009c-1.209 7.973-1.876 12.307-2 13.004c-.188 1.044-1.185 2.988-4.054 2.988H10.027v-22Z" clip-rule="evenodd"></path></g></svg>