<svg xmlns="http://www.w3.org/2000/svg" xmlns:xlink="http://www.w3.org/1999/xlink" aria-hidden="true" role="img" class="iconify iconify--icon-park-outline" width="1em" height="1em" preserveAspectRatio="xMidYMid meet" viewBox="0 0 48 48"><g fill="none" stroke="currentColor" stroke-linejoin="round" stroke-width="4"><path d="M41 38H19v6h22v-6Z"></path><path d="M19 38C12.481 30.877 8.74 26.75 7.778 25.616c-1.443-1.7-.837-3.62 2.775-3.62s5.695 5.286 8.447 5.286c.017.003.018-6.756.003-20.278A3 3 0 0 1 22.001 4h.003a3.004 3.004 0 0 1 3.005 3.004v8.01c7.972 1.209 12.307 1.876 13.003 2C39.057 17.203 41 18.2 41 21.069V38H19Z" clip-rule="evenodd"></path></g></svg>