<svg xmlns="http://www.w3.org/2000/svg" xmlns:xlink="http://www.w3.org/1999/xlink" aria-hidden="true" role="img" class="iconify iconify--icon-park-outline" width="1em" height="1em" preserveAspectRatio="xMidYMid meet" viewBox="0 0 48 48"><g fill="none" stroke="currentColor" stroke-linecap="round" stroke-linejoin="round" stroke-width="4"><path d="M21 16h-6v9a3 3 0 0 0 3 3v0a3 3 0 0 0 3-3v-9Zm-3 12v10h-6m9-22V4H10.5C8 4 5 6 5 10s3.5 6 6 6h10Zm6 6V10h10.5c2.5 0 5.5 2 5.5 6s-3.5 6-6 6H27Zm6 0h-6v9a3 3 0 1 0 6 0v-9Z"></path><path d="M30 34v10h6"></path></g></svg>