<svg xmlns="http://www.w3.org/2000/svg" xmlns:xlink="http://www.w3.org/1999/xlink" aria-hidden="true" role="img" class="iconify iconify--icon-park-outline" width="1em" height="1em" preserveAspectRatio="xMidYMid meet" viewBox="0 0 48 48"><g fill="none"><path d="M4 28a2 2 0 0 1 2-2h4v12H6a2 2 0 0 1-2-2v-8Z"></path><path stroke="currentColor" stroke-linecap="round" stroke-linejoin="round" stroke-width="4" d="M10 36V24m0 2H6a2 2 0 0 0-2 2v8a2 2 0 0 0 2 2h4V26Z"></path><path d="M38 26h4a2 2 0 0 1 2 2v8a2 2 0 0 1-2 2h-4V26Z"></path><path stroke="currentColor" stroke-linecap="round" stroke-linejoin="round" stroke-width="4" d="M38 24v12m0-10h4a2 2 0 0 1 2 2v8a2 2 0 0 1-2 2h-4V26ZM10 36V24c0-7.732 6.268-14 14-14s14 6.268 14 14v12M10 26v12m28-12v12"></path><path stroke="currentColor" stroke-linecap="round" stroke-linejoin="round" stroke-width="4" d="M16 32h4l2-6l4 12l2-6h4"></path></g></svg>