<svg xmlns="http://www.w3.org/2000/svg" xmlns:xlink="http://www.w3.org/1999/xlink" aria-hidden="true" role="img" class="iconify iconify--icon-park-outline" width="1em" height="1em" preserveAspectRatio="xMidYMid meet" viewBox="0 0 48 48"><path fill="none" stroke="currentColor" stroke-linecap="round" stroke-width="4" d="m4.46 12.84l17.775-3.778a2 2 0 0 1 1.506.28l8.098 5.259a2 2 0 0 0 1.505.279l4.08-.868a2 2 0 0 1 2.373 1.541l.624 2.934a2 2 0 0 1-1.54 2.373l-7.016 1.49a2 2 0 0 1-1.505-.278l-8.099-5.26a2 2 0 0 0-1.505-.279l-3.102.66M43.54 33.16l-17.775 3.778a2 2 0 0 1-1.505-.28l-8.1-5.259a2 2 0 0 0-1.504-.279l-4.08.868a2 2 0 0 1-2.373-1.54l-.624-2.935a2 2 0 0 1 1.54-2.372l7.016-1.491a2 2 0 0 1 1.505.279l8.099 5.259a2 2 0 0 0 1.505.279l3.102-.66"></path></svg>