<svg xmlns="http://www.w3.org/2000/svg" xmlns:xlink="http://www.w3.org/1999/xlink" aria-hidden="true" role="img" class="iconify iconify--icon-park-outline" width="1em" height="1em" preserveAspectRatio="xMidYMid meet" viewBox="0 0 48 48"><g fill="none" stroke="currentColor" stroke-linecap="round" stroke-width="4"><path d="M12.566 26.183C10.856 27.354 10 29.293 10 32c0 4.06 4.975 11 9.462 11h11.48C35.331 43 38 39.15 38 36.06V23.01a3 3 0 0 0-3-3h-.01A2.99 2.99 0 0 0 32 23"></path><path d="M13.981 28.445V8.006a2.998 2.998 0 0 1 2.998-2.998h.008a3.014 3.014 0 0 1 3.006 3.015v15.57"></path><path stroke-linejoin="round" d="M19.993 23.009v-3.993a3.016 3.016 0 0 1 6.03 0v3.993"></path><path stroke-linejoin="round" d="M26 22.716v-2.712a3 3 0 1 1 6 0v3"></path></g></svg>