<svg xmlns="http://www.w3.org/2000/svg" xmlns:xlink="http://www.w3.org/1999/xlink" aria-hidden="true" role="img" class="iconify iconify--icon-park-outline" width="1em" height="1em" preserveAspectRatio="xMidYMid meet" viewBox="0 0 48 48"><g fill="none"><path stroke="currentColor" stroke-linejoin="round" stroke-width="4" d="M34 6H14a8 8 0 0 0-8 8v20a8 8 0 0 0 8 8h20a8 8 0 0 0 8-8V14a8 8 0 0 0-8-8Z"></path><path stroke="currentColor" stroke-linejoin="round" stroke-width="4" d="M24 32a8 8 0 1 0 0-16a8 8 0 0 0 0 16Z"></path><path fill="currentColor" d="M35 15a2 2 0 1 0 0-4a2 2 0 0 0 0 4Z"></path></g></svg>