<svg xmlns="http://www.w3.org/2000/svg" xmlns:xlink="http://www.w3.org/1999/xlink" aria-hidden="true" role="img" class="iconify iconify--icon-park-outline" width="1em" height="1em" preserveAspectRatio="xMidYMid meet" viewBox="0 0 48 48"><g fill="none" stroke="currentColor" stroke-linecap="round" stroke-linejoin="round" stroke-width="4"><path d="M31 31h9a2 2 0 0 0 2-2V8a2 2 0 0 0-2-2H19a2 2 0 0 0-2 2v9"></path><path d="M17 17H8a2 2 0 0 0-2 2v21a2 2 0 0 0 2 2h21a2 2 0 0 0 2-2v-9"></path><rect width="14" height="14" x="17" y="17" rx="2"></rect></g></svg>