<svg xmlns="http://www.w3.org/2000/svg" xmlns:xlink="http://www.w3.org/1999/xlink" aria-hidden="true" role="img" class="iconify iconify--icon-park-outline" width="1em" height="1em" preserveAspectRatio="xMidYMid meet" viewBox="0 0 48 48"><g fill="none" stroke="currentColor" stroke-linecap="round" stroke-linejoin="round" stroke-width="4"><path d="M8 44V4h23l9 10.5V44H8Z"></path><path d="M34 25c0 5.523-4.477 10-10 10s-10-4.477-10-10s4.477-10 10-10a9.965 9.965 0 0 1 6.865 2.729A9.972 9.972 0 0 1 34 25Zm-17-7l14 14"></path><path d="M34 25c0 5.523-4.477 10-10 10M14 25c0-5.523 4.477-10 10-10"></path></g></svg>