<svg xmlns="http://www.w3.org/2000/svg" xmlns:xlink="http://www.w3.org/1999/xlink" aria-hidden="true" role="img" class="iconify iconify--icon-park-outline" width="1em" height="1em" preserveAspectRatio="xMidYMid meet" viewBox="0 0 48 48"><g fill="none" stroke="currentColor" stroke-width="4"><path d="M14 9.5a3.5 3.5 0 1 1 7 0V21h-7V9.5Zm13 0a3.5 3.5 0 1 1 7 0V21h-7V9.5Z"></path><path stroke-linecap="round" stroke-linejoin="round" d="M18 34h12v8H18z"></path><path d="M10 22a1 1 0 0 1 1-1h26a1 1 0 0 1 1 1v4a8 8 0 0 1-8 8H18a8 8 0 0 1-8-8v-4Z"></path></g></svg>