<svg xmlns="http://www.w3.org/2000/svg" xmlns:xlink="http://www.w3.org/1999/xlink" aria-hidden="true" role="img" class="iconify iconify--icon-park-outline" width="1em" height="1em" preserveAspectRatio="xMidYMid meet" viewBox="0 0 48 48"><g fill="none"><path d="M14 10a4 4 0 1 1-8 0a4 4 0 0 1 8 0Z"></path><path stroke="currentColor" stroke-linecap="round" stroke-linejoin="round" stroke-width="4" d="M14 10a4 4 0 0 1-4 4m4-4a4 4 0 1 0-4 4m4-4h6m-10 4v6"></path><path d="M14 38a4 4 0 1 0-8 0a4 4 0 0 0 8 0Z"></path><path stroke="currentColor" stroke-linecap="round" stroke-linejoin="round" stroke-width="4" d="M14 38a4 4 0 0 0-4-4m4 4a4 4 0 1 1-4-4m4 4h6m-10-4v-6"></path><path d="M34 38a4 4 0 1 1 8 0a4 4 0 0 1-8 0Z"></path><path stroke="currentColor" stroke-linecap="round" stroke-linejoin="round" stroke-width="4" d="M34 38a4 4 0 0 1 4-4m-4 4a4 4 0 1 0 4-4m-4 4h-6m10-4v-6"></path><path d="M34 10a4 4 0 1 0 8 0a4 4 0 0 0-8 0Z"></path><path stroke="currentColor" stroke-linecap="round" stroke-linejoin="round" stroke-width="4" d="M34 10a4 4 0 0 0 4 4m-4-4a4 4 0 1 1 4 4m-4-4h-6m10 4v6m-21 4h14m-7 7V17"></path></g></svg>