<svg xmlns="http://www.w3.org/2000/svg" xmlns:xlink="http://www.w3.org/1999/xlink" aria-hidden="true" role="img" class="iconify iconify--icon-park-outline" width="1em" height="1em" preserveAspectRatio="xMidYMid meet" viewBox="0 0 48 48"><g fill="none" stroke="currentColor" stroke-linejoin="round" stroke-width="4"><path stroke-linecap="round" d="M6 44h36M17 20h14"></path><path d="M19 20h10l3 24H16l3-24Z"></path><path stroke-linecap="round" d="m19 9l2 11h6l2-11"></path><path stroke-linecap="round" d="m32 12l-3-3l-5-5l-5 5l-3 3m21-5l3-3M11 7L8 4m29 15l3 3m-29-3l-3 3m30-9h4m-32 0H6m12 15h12m-13 8h14"></path><path d="m29 20l3 24M19 20l-3 24"></path></g></svg>