<svg xmlns="http://www.w3.org/2000/svg" xmlns:xlink="http://www.w3.org/1999/xlink" aria-hidden="true" role="img" class="iconify iconify--icon-park-outline" width="1em" height="1em" preserveAspectRatio="xMidYMid meet" viewBox="0 0 48 48"><g fill="none" stroke="currentColor" stroke-linecap="round" stroke-linejoin="round" stroke-width="4"><path d="M40 12v12H8m16-12v24M8 12v24"></path><path d="M44 8a4 4 0 1 1-8 0a4 4 0 0 1 8 0ZM28 8a4 4 0 1 1-8 0a4 4 0 0 1 8 0ZM12 8a4 4 0 1 1-8 0a4 4 0 0 1 8 0Zm16 32a4 4 0 1 1-8 0a4 4 0 0 1 8 0Zm-16 0a4 4 0 1 1-8 0a4 4 0 0 1 8 0Z"></path><circle cx="40" cy="40" r="4"></circle></g></svg>