<svg xmlns="http://www.w3.org/2000/svg" xmlns:xlink="http://www.w3.org/1999/xlink" aria-hidden="true" role="img" class="iconify iconify--icon-park-outline" width="1em" height="1em" preserveAspectRatio="xMidYMid meet" viewBox="0 0 48 48"><g fill="none" stroke="currentColor" stroke-width="4"><path d="M39 6H9a3 3 0 0 0-3 3v30a3 3 0 0 0 3 3h30a3 3 0 0 0 3-3V9a3 3 0 0 0-3-3Z"></path><path stroke-linecap="round" stroke-linejoin="round" d="M35 23c0 5.523-4.477 10-10 10H15V23c0-5.523 4.477-10 10-10s10 4.477 10 10Zm-13-2h6m-6 6h2"></path></g></svg>