<svg xmlns="http://www.w3.org/2000/svg" xmlns:xlink="http://www.w3.org/1999/xlink" aria-hidden="true" role="img" class="iconify iconify--icon-park-outline" width="1em" height="1em" preserveAspectRatio="xMidYMid meet" viewBox="0 0 48 48"><g fill="none" stroke="currentColor" stroke-width="4"><path stroke-linecap="round" d="m29.003 18.373l1.105-1.104l.53-.53a5.5 5.5 0 0 0 0-7.779v0a5.5 5.5 0 0 0-7.778 0L9.172 22.648a.143.143 0 0 0 0 .202l6.97 6.97a1 1 0 0 0 1.414 0l3.713-3.712l1.105-1.105"></path><path stroke-linecap="round" stroke-linejoin="round" d="m28.163 6.485l1.768-1.768a3.5 3.5 0 1 1 4.95 4.95l-1.768 1.768l-4.95-4.95ZM10.485 24.163l-4.242 4.243l4.95 4.95l4.242-4.243l-4.95-4.95Z"></path><circle cx="26.042" cy="22.042" r="4.5" transform="rotate(45 26.042 22.042)"></circle><path stroke-linecap="round" stroke-linejoin="round" d="m6 20l12.728 12.728M10 44h32M31 22c4 0 8 4 8 10c0 6.4-5.167 9.833-8 12"></path></g></svg>