<svg xmlns="http://www.w3.org/2000/svg" xmlns:xlink="http://www.w3.org/1999/xlink" aria-hidden="true" role="img" class="iconify iconify--icon-park-outline" width="1em" height="1em" preserveAspectRatio="xMidYMid meet" viewBox="0 0 48 48"><g fill="none" stroke="currentColor" stroke-linejoin="round" stroke-width="4"><path d="M8 28a4 4 0 1 0 0-8a4 4 0 0 0 0 8ZM42 8a2 2 0 1 0 0-4a2 2 0 0 0 0 4Zm0 18a2 2 0 1 0 0-4a2 2 0 0 0 0 4Zm0 18a2 2 0 1 0 0-4a2 2 0 0 0 0 4Z"></path><path stroke-linecap="round" d="M32 6H20v36h12M12 24h20"></path></g></svg>