<svg xmlns="http://www.w3.org/2000/svg" xmlns:xlink="http://www.w3.org/1999/xlink" aria-hidden="true" role="img" class="iconify iconify--icon-park-outline" width="1em" height="1em" preserveAspectRatio="xMidYMid meet" viewBox="0 0 48 48"><g fill="none"><path stroke="currentColor" stroke-linecap="round" stroke-linejoin="round" stroke-width="4" d="m20.07 9.586l-4.242-4.243a2 2 0 0 0-2.828 0L7.343 11a2 2 0 0 0 0 2.828l4.243 4.243m17.343 19.343l4.242 4.243a2 2 0 0 0 2.829 0L41.657 36a2 2 0 0 0 0-2.828l-4.243-4.243"></path><rect width="12" height="42" x="34.606" y="4.908" stroke="currentColor" stroke-linecap="round" stroke-linejoin="round" stroke-width="4" rx="2" transform="rotate(45 34.606 4.908)"></rect><circle cx="24" cy="24" r="2" fill="currentColor"></circle><circle cx="20" cy="28" r="2" fill="currentColor"></circle><circle cx="28" cy="20" r="2" fill="currentColor"></circle></g></svg>