<svg xmlns="http://www.w3.org/2000/svg" xmlns:xlink="http://www.w3.org/1999/xlink" aria-hidden="true" role="img" class="iconify iconify--icon-park-outline" width="1em" height="1em" preserveAspectRatio="xMidYMid meet" viewBox="0 0 48 48"><g fill="none"><path stroke="currentColor" stroke-linecap="round" stroke-linejoin="round" stroke-width="4" d="M5 8a2 2 0 0 1 2-2h34a2 2 0 0 1 2 2v24a2 2 0 0 1-2 2H7a2 2 0 0 1-2-2V8Z"></path><path stroke="currentColor" stroke-linecap="round" stroke-linejoin="round" stroke-width="4" d="M5 26a2 2 0 0 1 2-2h34a2 2 0 0 1 2 2v6a2 2 0 0 1-2 2H7a2 2 0 0 1-2-2v-6Zm17-14l-4 5m10-3l-3 4"></path><circle cx="24" cy="29" r="2" fill="currentColor"></circle><path stroke="currentColor" stroke-linecap="round" stroke-linejoin="round" stroke-width="4" d="m17 34l-3 8h20l-3-8"></path></g></svg>