<svg xmlns="http://www.w3.org/2000/svg" xmlns:xlink="http://www.w3.org/1999/xlink" aria-hidden="true" role="img" class="iconify iconify--icon-park-outline" width="1em" height="1em" preserveAspectRatio="xMidYMid meet" viewBox="0 0 48 48"><g fill="none" stroke="currentColor" stroke-width="4"><path stroke-linejoin="round" d="M24 44c11.046 0 20-8.954 20-20S35.046 4 24 4S4 12.954 4 24s8.954 20 20 20Z"></path><path stroke-linejoin="round" d="M24 18a3 3 0 1 0 0-6a3 3 0 0 0 0 6Zm0 18a3 3 0 1 0 0-6a3 3 0 0 0 0 6Zm-9-9a3 3 0 1 0 0-6a3 3 0 0 0 0 6Zm18 0a3 3 0 1 0 0-6a3 3 0 0 0 0 6Z"></path><path stroke-linecap="round" d="M24 44h20"></path></g></svg>