<svg xmlns="http://www.w3.org/2000/svg" xmlns:xlink="http://www.w3.org/1999/xlink" aria-hidden="true" role="img" class="iconify iconify--icon-park-outline" width="1em" height="1em" preserveAspectRatio="xMidYMid meet" viewBox="0 0 48 48"><g fill="none" stroke="currentColor" stroke-linecap="round" stroke-width="4"><path d="M16.988 4c.12 6.25-.203 10.587-.97 13.01c-1.152 3.633-9.936 13.753-9.936 19.092c0 5.34 6.304 8.287 9.709 6.277M32.002 4c-.225 6.25.047 10.587.814 13.01c1.15 3.633 10.143 12.44 10.143 18.283c0 5.842-6.512 9.096-9.917 7.086"></path><path d="M13.006 34.834c1.71-.972 3.196-.972 4.46 0C19.36 36.292 19.956 40 24.008 40c4.053 0 6.04-4.157 7.992-5.166c1.302-.673 2.635-.673 4 0M20.285 22.146c-.794.854-1.634 1.807-2.247 3.468c-.465 1.259-.558 1.989-.622 2.81"></path></g></svg>