<svg xmlns="http://www.w3.org/2000/svg" xmlns:xlink="http://www.w3.org/1999/xlink" aria-hidden="true" role="img" class="iconify iconify--icon-park-outline" width="1em" height="1em" preserveAspectRatio="xMidYMid meet" viewBox="0 0 48 48"><g fill="none" stroke="currentColor" stroke-width="4"><path stroke-linejoin="round" d="M24 42h5.955c.083-2.737.484-4.242 1.204-4.515C38.669 34.635 44 27.434 44 19H4c0 8.251 5.103 15.323 12.357 18.294c.758.31 1.325 1.88 1.699 4.706H24Z" clip-rule="evenodd"></path><path stroke-linecap="round" d="M14.443 26.022c.36 1.188.836 2.169 1.427 2.943a11.253 11.253 0 0 0 2.14 2.104M32.2 8.017a16.767 16.767 0 0 0-4.047-1.612M22.05 6c-7.123.822-12.906 6.098-14.55 13m33-.004a17.144 17.144 0 0 0-3.883-7.434"></path></g></svg>