<svg xmlns="http://www.w3.org/2000/svg" xmlns:xlink="http://www.w3.org/1999/xlink" aria-hidden="true" role="img" class="iconify iconify--icon-park-outline" width="1em" height="1em" preserveAspectRatio="xMidYMid meet" viewBox="0 0 48 48"><g fill="none" stroke="currentColor" stroke-linejoin="round" stroke-width="4"><path d="M4 13h40v24H4V13Z"></path><path stroke-linecap="round" d="M4 21a8 8 0 0 0 8-8H4v8Zm0 8a8 8 0 0 1 8 8H4v-8Zm40 0v8h-8a8 8 0 0 1 8-8Zm0-8a8 8 0 0 1-8-8h8v8Z" clip-rule="evenodd"></path><path d="M24 31c2.761 0 5-2.686 5-6s-2.239-6-5-6s-5 2.686-5 6s2.239 6 5 6Z"></path></g></svg>