<svg xmlns="http://www.w3.org/2000/svg" xmlns:xlink="http://www.w3.org/1999/xlink" aria-hidden="true" role="img" class="iconify iconify--icon-park-outline" width="1em" height="1em" preserveAspectRatio="xMidYMid meet" viewBox="0 0 48 48"><g fill="none" fill-rule="evenodd" stroke="currentColor" stroke-linejoin="round" stroke-width="4"><path d="M16.727 24c2.425-2.424 4.849-3.636 7.273-3.636c2.424 0 4.848 1.212 7.273 3.636c2.828-2.424 4.95-3.636 6.363-3.636c1.415 0 3.536 1.212 6.364 3.636c0-11.046-8.954-20-20-20S4 12.954 4 24c2.828-2.424 4.95-3.636 6.364-3.636c1.414 0 3.535 1.212 6.363 3.636Z"></path><path stroke-linecap="round" d="m4 24l20 20l-7.273-20m14.546 0L24 44l20-20"></path></g></svg>