<svg xmlns="http://www.w3.org/2000/svg" xmlns:xlink="http://www.w3.org/1999/xlink" aria-hidden="true" role="img" class="iconify iconify--icon-park-outline" width="1em" height="1em" preserveAspectRatio="xMidYMid meet" viewBox="0 0 48 48"><g fill="none" stroke="currentColor" stroke-width="4"><path stroke-linecap="round" d="M13 40H9a2 2 0 0 1-2-2V6a2 2 0 0 1 2-2h20a2 2 0 0 1 2 2v4"></path><rect width="34" height="28" x="13" y="44" rx="2" transform="rotate(-90 13 44)"></rect><circle cx="27" cy="27" r="8"></circle><path stroke-linecap="round" d="M35 28s-3-.5-5 1c-2.001 1.5-2.599 5.103-2 6m-4-8c0 2-2 4-4 4m11-11s0 4-3 4"></path></g></svg>