<svg xmlns="http://www.w3.org/2000/svg" xmlns:xlink="http://www.w3.org/1999/xlink" aria-hidden="true" role="img" class="iconify iconify--icon-park-outline" width="1em" height="1em" preserveAspectRatio="xMidYMid meet" viewBox="0 0 48 48"><g fill="none" fill-rule="evenodd" stroke="currentColor" stroke-linejoin="round" transform="translate(5 8)"><path stroke-linecap="round" stroke-width="4" d="M2 0h34a2 2 0 0 1 2 2v28a2 2 0 0 1-2 2H2a2 2 0 0 1-2-2V2a2 2 0 0 1 2-2Z"></path><circle cx="9.5" cy="8.5" r="1.5" stroke-linecap="round" stroke-width="3"></circle><path stroke-width="4" d="m10 16l5 4l6-7l17 13v4a2 2 0 0 1-2 2H2a2 2 0 0 1-2-2v-4l10-10Z"></path></g></svg>