<svg xmlns="http://www.w3.org/2000/svg" xmlns:xlink="http://www.w3.org/1999/xlink" aria-hidden="true" role="img" class="iconify iconify--icon-park-outline" width="1em" height="1em" preserveAspectRatio="xMidYMid meet" viewBox="0 0 48 48"><g fill="none" stroke="currentColor" stroke-linecap="round" stroke-width="4"><path stroke-linejoin="round" d="M33 4v7.519c7.312 4.194 10.614 9.775 9.906 16.742c-.708 6.967-4.01 12.214-9.906 15.74M13.772 4c-2.138.37-3.677 1.622-4.616 3.758C7.746 10.96 5 21.964 5 23.726c0 1.762 3.568 6.509 12.052 13.71c3.931 3.336 6.255 3.166 7.513.928s-.407-3.674-2.515-5.327c-3.863-3.029-8.948-7.822-8.948-9.926c0-1.403 1.317-5.677 3.95-12.824"></path><path d="M8.201 28.941a95.275 95.275 0 0 0 2.8 15M33 19.945c1.547 1.027 2.547 2.364 3 4.012c.453 1.647.585 3.149.396 4.506"></path></g></svg>