<svg xmlns="http://www.w3.org/2000/svg" xmlns:xlink="http://www.w3.org/1999/xlink" aria-hidden="true" role="img" class="iconify iconify--icon-park-outline" width="1em" height="1em" preserveAspectRatio="xMidYMid meet" viewBox="0 0 48 48"><g fill="none"><path d="M6 38v-6h36v6h-6v-6H12v6H6Z"></path><path stroke="currentColor" stroke-linecap="round" stroke-linejoin="round" stroke-width="4" d="M42 38v-6h-6v6h6ZM6 38v-6h6v6H6Zm18-22H4v16h40V16h-6m-28 8h8"></path><path stroke="currentColor" stroke-linecap="round" stroke-linejoin="round" stroke-width="4" d="M31 23a7 7 0 1 0 0-14a7 7 0 0 0 0 14Z"></path><path fill="currentColor" d="M31 19a3 3 0 1 0 0-6a3 3 0 0 0 0 6Z"></path></g></svg>