<svg xmlns="http://www.w3.org/2000/svg" xmlns:xlink="http://www.w3.org/1999/xlink" aria-hidden="true" role="img" class="iconify iconify--icon-park-outline" width="1em" height="1em" preserveAspectRatio="xMidYMid meet" viewBox="0 0 48 48"><g fill="none" fill-rule="evenodd" transform="translate(4 6)"><circle cx="20.004" cy="18" r="3" fill="currentColor"></circle><path stroke="currentColor" stroke-linejoin="round" stroke-width="4" d="M15.04 25.476A8.94 8.94 0 0 0 20 26.969a8.94 8.94 0 0 0 4.96-1.493l6.061 9.207A19.867 19.867 0 0 1 20 38c-4.073 0-7.861-1.22-11.021-3.317l6.062-9.207Zm-4.024-6.992l-10.98.661A20.062 20.062 0 0 1 11.053 0l4.92 9.869a9.028 9.028 0 0 0-4.958 8.615Zm13.01-8.615L28.946 0a20.062 20.062 0 0 1 11.019 19.145l-10.98-.661a9.028 9.028 0 0 0-4.958-8.615Z"></path></g></svg>