<svg xmlns="http://www.w3.org/2000/svg" xmlns:xlink="http://www.w3.org/1999/xlink" aria-hidden="true" role="img" class="iconify iconify--icon-park-outline" width="1em" height="1em" preserveAspectRatio="xMidYMid meet" viewBox="0 0 48 48"><g fill="none"><g stroke="currentColor" stroke-linecap="round" stroke-linejoin="round" stroke-width="4" clip-path="url(#IconifyId17f5a0d8ff03f060036)"><circle cx="30.075" cy="15.562" r="11" transform="rotate(40 30.075 15.562)"></circle><path d="M21.648 8.492c-4.61.048-6.326-3.35-8.576-.67c-2.033 2.423.493 5.636-1.435 7.934m13.665 10.161l-5.785 6.895c-1.607 1.915-1.682 5.115-3.61 7.413c-1.928 2.299-4.746 2.545-7.044.617c-2.298-1.929-2.545-4.746-.617-7.044c1.929-2.299 5.068-2.928 6.675-4.843c1.607-1.915 5.163-5.894 5.785-6.895"></path><circle cx="11.24" cy="19.34" r="3" transform="rotate(40 11.24 19.34)"></circle><circle cx="28.463" cy="37.707" r="3" transform="rotate(40 28.463 37.707)"></circle><path d="M37.216 24.165c.63 3.14 2.852 8.268.862 9.862c-1.99 1.594-6.524-1.559-7.687 1.382"></path></g><defs><clipPath id="IconifyId17f5a0d8ff03f060036"><path fill="currentColor" d="M0 0h48v48H0z"></path></clipPath></defs></g></svg>