<svg xmlns="http://www.w3.org/2000/svg" xmlns:xlink="http://www.w3.org/1999/xlink" aria-hidden="true" role="img" class="iconify iconify--icon-park-outline" width="1em" height="1em" preserveAspectRatio="xMidYMid meet" viewBox="0 0 48 48"><g fill="none"><g stroke="currentColor" stroke-linecap="round" stroke-linejoin="round" stroke-width="4" clip-path="url(#IconifyId17f5a0d8ff03f060037)"><circle cx="29.464" cy="16.989" r="11" transform="rotate(40 29.464 16.989)"></circle><path d="M38.533 23.293s-5.635.493-10.998-4.006c-5.362-4.5-5.855-10.135-5.855-10.135m5.186 18.711c-3.46 1.013-5.067 2.928-6.674 4.843c-1.607 1.915-1.682 5.116-3.61 7.414c-1.929 2.298-4.747 2.544-7.045.616s-2.544-4.746-.616-7.044c1.928-2.298 5.067-2.928 6.674-4.843c1.607-1.915 3.214-3.83 3.61-7.414M38.833 10.49a3 3 0 0 0-4.597-3.856"></path></g><defs><clipPath id="IconifyId17f5a0d8ff03f060037"><path fill="currentColor" d="M0 0h48v48H0z"></path></clipPath></defs></g></svg>