<svg xmlns="http://www.w3.org/2000/svg" xmlns:xlink="http://www.w3.org/1999/xlink" aria-hidden="true" role="img" class="iconify iconify--icon-park-outline" width="1em" height="1em" preserveAspectRatio="xMidYMid meet" viewBox="0 0 48 48"><g fill="none" stroke="currentColor" stroke-width="4"><path stroke-linejoin="round" d="m15 12l3-6h12l3 6H15Zm26 0H7c-1.657 0-3 1.254-3 2.8v24.4C4 40.746 5.343 42 7 42h34c1.657 0 3-1.254 3-2.8V14.8c0-1.546-1.343-2.8-3-2.8Z"></path><path stroke-linecap="round" stroke-linejoin="round" d="M32 19v8m-16 0v8"></path><path stroke-linecap="round" d="M16 27a8 8 0 0 0 11 7.419M32 27a8 8 0 0 0-11-7.419"></path></g></svg>