<svg xmlns="http://www.w3.org/2000/svg" xmlns:xlink="http://www.w3.org/1999/xlink" aria-hidden="true" role="img" class="iconify iconify--icon-park-outline" width="1em" height="1em" preserveAspectRatio="xMidYMid meet" viewBox="0 0 48 48"><g fill="none" stroke="currentColor" stroke-linejoin="round" stroke-width="4"><path d="M24 11.273A3.636 3.636 0 1 0 24 4a3.636 3.636 0 0 0 0 7.273ZM24 44a3.636 3.636 0 1 0 0-7.273A3.636 3.636 0 0 0 24 44ZM7.636 27.636a3.636 3.636 0 1 0 0-7.272a3.636 3.636 0 0 0 0 7.272Zm32.728 0a3.636 3.636 0 1 0 0-7.272a3.636 3.636 0 0 0 0 7.272Z"></path><path stroke-linecap="round" d="M32.734 10.16a16.45 16.45 0 0 1 5.106 5.106m0 17.468a16.451 16.451 0 0 1-5.106 5.106m-17.468 0a16.45 16.45 0 0 1-5.106-5.106m0-17.468a16.45 16.45 0 0 1 5.106-5.106"></path></g></svg>