<svg xmlns="http://www.w3.org/2000/svg" xmlns:xlink="http://www.w3.org/1999/xlink" aria-hidden="true" role="img" class="iconify iconify--icon-park-outline" width="1em" height="1em" preserveAspectRatio="xMidYMid meet" viewBox="0 0 48 48"><g fill="none"><path d="M27 6h-6l-1.25 4.5L18.5 15L16 24l-2.5 9l-1.25 4.5L11 42h26l-1.5-5.4L32 24l-2.5-9l-1.25-4.5L27 6Z"></path><path stroke="currentColor" stroke-linecap="round" stroke-linejoin="round" stroke-width="4" d="M37 42H11m26 0H6h5m26 0h5m-5 0l-1.5-5.4L32 24l-2.5-9l-1.25-4.5L27 6h-6l-1.25 4.5L18.5 15L16 24l-2.5 9l-1.25 4.5L11 42m2.5-9h21M32 24H16m13.5-9h-11m9.75-4.5l7.25 26.1m-23.25.9l7.5-27"></path></g></svg>