<svg xmlns="http://www.w3.org/2000/svg" xmlns:xlink="http://www.w3.org/1999/xlink" aria-hidden="true" role="img" class="iconify iconify--icon-park-outline" width="1em" height="1em" preserveAspectRatio="xMidYMid meet" viewBox="0 0 48 48"><g fill="none"><path stroke="currentColor" stroke-linecap="round" stroke-linejoin="round" stroke-width="4" d="M10 32V11a7 7 0 1 1 14 0v26a7 7 0 1 0 14 0V16"></path><path d="M41 4v12h-6V4h6Z"></path><path stroke="currentColor" stroke-linecap="round" stroke-linejoin="round" stroke-width="4" d="M32 16h3m9 0h-3m0 0V4h-6v12m6 0h-6"></path><path d="M7 44V32h6v12H7Z"></path><path stroke="currentColor" stroke-linecap="round" stroke-linejoin="round" stroke-width="4" d="M16 32h-3m-9 0h3m0 0v12h6V32m-6 0h6"></path></g></svg>