<svg xmlns="http://www.w3.org/2000/svg" xmlns:xlink="http://www.w3.org/1999/xlink" aria-hidden="true" role="img" class="iconify iconify--icon-park-outline" width="1em" height="1em" preserveAspectRatio="xMidYMid meet" viewBox="0 0 48 48"><g fill="none" stroke="currentColor" stroke-linecap="round" stroke-linejoin="round" stroke-width="4"><circle cx="24" cy="24" r="20"></circle><circle cx="24" cy="24" r="4"></circle><path d="M44 24a20 20 0 0 1-9.283 16.887l-4.287-6.755A12 12 0 0 0 36 24h8ZM13.423 40.974a20 20 0 0 1-9.422-16.809l8-.066a12 12 0 0 0 5.653 10.086l-4.23 6.79Zm1.019-34.542a20 20 0 0 1 19.27.084l-3.885 6.994a12 12 0 0 0-11.562-.051l-3.823-7.027Z"></path></g></svg>