<svg xmlns="http://www.w3.org/2000/svg" xmlns:xlink="http://www.w3.org/1999/xlink" aria-hidden="true" role="img" class="iconify iconify--icon-park-outline" width="1em" height="1em" preserveAspectRatio="xMidYMid meet" viewBox="0 0 48 48"><g fill="none"><g stroke="currentColor" stroke-linecap="round" stroke-linejoin="round" stroke-width="4" clip-path="url(#IconifyId17f5a0d8ff03f060038)"><path d="M17.799 40.142s4.16 4.16 8.652 2.995c4.492-1.165 15.805-12.478 16.97-16.97c1.165-4.493-2.995-8.652-2.995-8.652M7.9 30.243s-4.16-4.16-2.995-8.652c1.164-4.492 12.478-15.806 16.97-16.97c4.492-1.165 8.652 2.994 8.652 2.994"></path><rect width="40" height="14" x="5.071" y="33.071" rx="7" transform="rotate(-45 5.071 33.071)"></rect><path d="m15.678 33.778l.563-1.688a5.996 5.996 0 0 1 3.326-3.615l.42-.18a4.98 4.98 0 0 0 2.762-3.002v0a4.98 4.98 0 0 1 2.762-3.002l.95-.407a4.712 4.712 0 0 0 2.614-2.841v0a4.712 4.712 0 0 1 2.98-2.98l2.008-.67"></path></g><defs><clipPath id="IconifyId17f5a0d8ff03f060038"><path fill="currentColor" d="M0 0h48v48H0z"></path></clipPath></defs></g></svg>