<svg xmlns="http://www.w3.org/2000/svg" xmlns:xlink="http://www.w3.org/1999/xlink" aria-hidden="true" role="img" class="iconify iconify--icon-park-outline" width="1em" height="1em" preserveAspectRatio="xMidYMid meet" viewBox="0 0 48 48"><g fill="none"><path d="M27 8c-4.686 4.686-3.965 13.035-3.965 13.035S31.314 21.686 36 17s4.006-12.965 4.006-12.965S31.686 3.314 27 8Z"></path><path stroke="currentColor" stroke-linecap="round" stroke-linejoin="round" stroke-width="4" d="M23.035 21.035S22.314 12.686 27 8s13.006-3.965 13.006-3.965S40.686 12.314 36 17s-12.965 4.035-12.965 4.035Zm0 0L31 13.07"></path><path d="M20 21c3.85 3.843 2.971 10.971 2.971 10.971S15.85 32.843 12 29c-3.85-3.843-2.968-10.971-2.968-10.971S16.151 17.157 20 21Z"></path><path stroke="currentColor" stroke-linecap="round" stroke-linejoin="round" stroke-width="4" d="M22.971 31.971S23.85 24.843 20 21S9.032 18.029 9.032 18.029S8.151 25.157 12 29c3.85 3.843 10.971 2.971 10.971 2.971Zm0 0L16 25m7-21v40"></path></g></svg>