<svg xmlns="http://www.w3.org/2000/svg" xmlns:xlink="http://www.w3.org/1999/xlink" aria-hidden="true" role="img" class="iconify iconify--icon-park-outline" width="1em" height="1em" preserveAspectRatio="xMidYMid meet" viewBox="0 0 48 48"><g fill="none"><g stroke="currentColor" stroke-linecap="round" stroke-linejoin="round" stroke-width="4" clip-path="url(#IconifyId17f5a0d8ff03f060039)"><path d="M20 24s2.5-4.5 3-9s-1-8-1-8l5-3s1 6 1 9"></path><path d="M6 43c-2-1.5-2-6.91 2-10s4.186-2.283 9-6S34 4 34 4l4.5 3.5l-12.19 16.24c-2.984 3.977-3.758 9.313-6.26 13.61C18.102 40.7 16 42 14 43s-6 1.5-8 0Z"></path><path d="M23 30s3-2 7-4s13-2 13-2l-3-7s-8 0-11 3"></path></g><defs><clipPath id="IconifyId17f5a0d8ff03f060039"><path fill="currentColor" d="M0 0h48v48H0z"></path></clipPath></defs></g></svg>