<svg xmlns="http://www.w3.org/2000/svg" xmlns:xlink="http://www.w3.org/1999/xlink" aria-hidden="true" role="img" class="iconify iconify--icon-park-outline" width="1em" height="1em" preserveAspectRatio="xMidYMid meet" viewBox="0 0 48 48"><g fill="none"><path stroke="currentColor" stroke-linecap="round" stroke-linejoin="round" stroke-width="4" d="M7 24h34M24 7v34"></path><path fill="currentColor" d="M5 5h4v4H5zm9 0h4v4h-4zm16 0h4v4h-4zm9 0h4v4h-4zm0 9h4v4h-4zM5 14h4v4H5zm0 25h4v4H5zm9 0h4v4h-4zm16 0h4v4h-4zm9 0h4v4h-4zm0-9h4v4h-4zM5 30h4v4H5z"></path></g></svg>