<svg xmlns="http://www.w3.org/2000/svg" xmlns:xlink="http://www.w3.org/1999/xlink" aria-hidden="true" role="img" class="iconify iconify--icon-park-outline" width="1em" height="1em" preserveAspectRatio="xMidYMid meet" viewBox="0 0 48 48"><g fill="none"><g stroke="currentColor" stroke-linejoin="round" stroke-width="4" clip-path="url(#IconifyId17f5a0d8ff03f060040)"><path stroke-linecap="round" d="M29.234 6.98c3.714-1.568 11.276-2.47 13.794 5.891c2.518 8.362-8.307 14.612-8.026 8.099c.28-6.514 7.995-1.152 7.83 3.562c-.165 4.714-5.063 5.232-5.063 5.232"></path><rect width="26" height="12" x="4.241" y="15.778" rx="2" transform="rotate(-30 4.241 15.778)"></rect><path stroke-linecap="round" d="M21.5 19.67L29 32.66"></path><rect width="6" height="10" x="26.401" y="34.16" rx="3" transform="rotate(-30 26.401 34.16)"></rect><path stroke-linecap="round" d="m11.401 8.18l5.197-3m5.303 21.186l5.197-3"></path></g><defs><clipPath id="IconifyId17f5a0d8ff03f060040"><path fill="currentColor" d="M0 0h48v48H0z"></path></clipPath></defs></g></svg>