<svg xmlns="http://www.w3.org/2000/svg" xmlns:xlink="http://www.w3.org/1999/xlink" aria-hidden="true" role="img" class="iconify iconify--icon-park-outline" width="1em" height="1em" preserveAspectRatio="xMidYMid meet" viewBox="0 0 48 48"><g fill="none" stroke="currentColor" stroke-width="4"><path d="M20.785 18.73a.719.719 0 0 1 1.016 0l7.469 7.469a.72.72 0 0 1 0 1.016L17.757 38.728a6 6 0 0 1-8.485-8.485L20.785 18.73Z"></path><path d="M42.581 22.39a.894.894 0 0 0 0-1.265L26.874 5.42a.894.894 0 0 0-1.263 0l-.783.782c-4.686 4.686-4.686 12.284 0 16.97c4.687 4.687 12.285 4.687 16.971 0l.782-.782Z"></path><path stroke-linecap="round" stroke-linejoin="round" d="m19.879 28.121l-1.415 1.414m9.193-12.02l2.828 2.828"></path></g></svg>