<svg xmlns="http://www.w3.org/2000/svg" xmlns:xlink="http://www.w3.org/1999/xlink" aria-hidden="true" role="img" class="iconify iconify--icon-park-outline" width="1em" height="1em" preserveAspectRatio="xMidYMid meet" viewBox="0 0 48 48"><g fill="none" stroke="currentColor" stroke-linecap="round" stroke-linejoin="round" stroke-width="4"><path d="M4 12h40v8l-1.398.84a7 7 0 0 1-7.203 0L34 20l-1.398.84a7 7 0 0 1-7.203 0L24 20l-1.398.84a7 7 0 0 1-7.204 0L14 20l-1.399.84a7 7 0 0 1-7.202 0L4 20v-8Z"></path><path d="M8 22.489V44h32V22M8 11.822V4h32v8"></path><path d="M19 32h10v12H19z"></path></g></svg>