<svg xmlns="http://www.w3.org/2000/svg" xmlns:xlink="http://www.w3.org/1999/xlink" aria-hidden="true" role="img" class="iconify iconify--icon-park-outline" width="1em" height="1em" preserveAspectRatio="xMidYMid meet" viewBox="0 0 48 48"><path fill="none" stroke="currentColor" stroke-linecap="round" stroke-linejoin="round" stroke-width="4" d="m24 24l-10.5 6.062M24 24l10.5 6.062M24 24V12m-10 4a4 4 0 1 1-8 0a4 4 0 0 1 8 0Zm0 16a4 4 0 1 1-8 0a4 4 0 0 1 8 0Zm14 8a4 4 0 1 1-8 0a4 4 0 0 1 8 0Zm14-8a4 4 0 1 1-8 0a4 4 0 0 1 8 0Zm0-16a4 4 0 1 1-8 0a4 4 0 0 1 8 0ZM28 8a4 4 0 1 1-8 0a4 4 0 0 1 8 0Z"></path></svg>