<svg xmlns="http://www.w3.org/2000/svg" xmlns:xlink="http://www.w3.org/1999/xlink" aria-hidden="true" role="img" class="iconify iconify--icon-park-outline" width="1em" height="1em" preserveAspectRatio="xMidYMid meet" viewBox="0 0 48 48"><g fill="none" stroke="currentColor" stroke-linecap="round" stroke-linejoin="round" stroke-width="4"><path d="M37.856 20v8M27.464 38l3.464-2l3.464-2m-13.856 4l-3.465-2l-3.464-2m-3.463-14v8m3.463-14l3.465-2l3.464-2m6.928 0l3.464 2l3.464 2"></path><path d="M24 44a4 4 0 1 0 0-8a4 4 0 0 0 0 8Zm0-32a4 4 0 1 0 0-8a4 4 0 0 0 0 8Zm0 16a4 4 0 1 0 0-8a4 4 0 0 0 0 8Zm14-8a4 4 0 1 0 0-8a4 4 0 0 0 0 8Zm0 16a4 4 0 1 0 0-8a4 4 0 0 0 0 8ZM10 20a4 4 0 1 0 0-8a4 4 0 0 0 0 8Zm0 16a4 4 0 1 0 0-8a4 4 0 0 0 0 8Z"></path></g></svg>