<svg xmlns="http://www.w3.org/2000/svg" xmlns:xlink="http://www.w3.org/1999/xlink" aria-hidden="true" role="img" class="iconify iconify--icon-park-outline" width="1em" height="1em" preserveAspectRatio="xMidYMid meet" viewBox="0 0 48 48"><g fill="none"><path stroke="currentColor" stroke-linecap="round" stroke-linejoin="round" stroke-width="4" d="M44 38V18h-8v13H12V18H4v20h40Z"></path><path stroke="currentColor" stroke-linecap="round" stroke-linejoin="round" stroke-width="4" d="M36 6H12v25h24V6Z"></path><path fill="currentColor" fill-rule="evenodd" d="M10 44a4 4 0 0 0 4-4c-1.097.004-7.3 0-8 0a4 4 0 0 0 4 4Zm28 0a4 4 0 0 0 4-4c-1.905-.007-7.137 0-8 0a4 4 0 0 0 4 4Z" clip-rule="evenodd"></path></g></svg>