<svg xmlns="http://www.w3.org/2000/svg" xmlns:xlink="http://www.w3.org/1999/xlink" aria-hidden="true" role="img" class="iconify iconify--icon-park-outline" width="1em" height="1em" preserveAspectRatio="xMidYMid meet" viewBox="0 0 48 48"><g fill="none" stroke="currentColor" stroke-linejoin="round" stroke-width="4"><path d="M38 2H10a2 2 0 0 0-2 2v40a2 2 0 0 0 2 2h28a2 2 0 0 0 2-2V4a2 2 0 0 0-2-2Z"></path><path d="M24 38a6 6 0 1 0 0-12a6 6 0 0 0 0 12Zm0-20a4 4 0 1 0 0-8a4 4 0 0 0 0 8Z"></path></g></svg>