<svg xmlns="http://www.w3.org/2000/svg" xmlns:xlink="http://www.w3.org/1999/xlink" aria-hidden="true" role="img" class="iconify iconify--icon-park-outline" width="1em" height="1em" preserveAspectRatio="xMidYMid meet" viewBox="0 0 48 48"><g fill="none" stroke="currentColor" stroke-linejoin="round" stroke-width="4"><path d="M30.297 18.779s-3.23 9.102-4.764 10.69a4 4 0 1 1-5.754-5.556c1.534-1.59 10.518-5.134 10.518-5.134Z"></path><path stroke-linecap="round" d="M38.85 38.85A20.941 20.941 0 0 0 45 24c0-11.598-9.402-21-21-21S3 12.402 3 24c0 5.799 2.35 11.049 6.15 14.85M24 4v4m14.845 3.142l-3.108 2.517m6.786 13.574l-3.898-.9m-33.148.9l3.898-.9m-.22-15.191l3.108 2.517"></path></g></svg>