<svg xmlns="http://www.w3.org/2000/svg" xmlns:xlink="http://www.w3.org/1999/xlink" aria-hidden="true" role="img" class="iconify iconify--icon-park-outline" width="1em" height="1em" preserveAspectRatio="xMidYMid meet" viewBox="0 0 48 48"><g fill="none" stroke="currentColor" stroke-linecap="round" stroke-linejoin="round" stroke-width="4"><path d="M33 24c3.5 3 4.613 8.446 2.882 12.484c-1.73 4.039-5.769 7.5-10.384 8.077s-9.23-2.885-10.384-4.038a10.634 10.634 0 0 1-1.105-1.307a1.514 1.514 0 0 1 .118-1.918c.865-.953 2.368-2.268 3.871-1.967c2.885.576 3.968 1.577 6.346.576C26.5 35 27.23 33.023 27.23 31.292c0-1.73-1.154-3.461-3.462-4.038c-2.307-.577-4.615.577-5.192 2.308c-.577 1.73 0 2.884-1.73 4.038c-.588.391-1.403.762-2.147 1.06c-1.03.41-2.15-.2-2.234-1.304c-.177-2.323.247-5.664 2.65-8.41c1.246-1.423 2.411-2.392 3.461-3.05"></path><path d="M33 24L23.128 4.24c-.23-.46-.776-.677-1.222-.42c-1.04.598-2.26 1.722-1.863 3.467c.51 2.25 3.537 12.762 4.956 15.713m-2.5-6l-6.87-6.52c-.36-.343-.925-.372-1.264-.008c-.822.88-1.674 2.332-.764 3.895C14.763 16.36 17.761 20.61 20 23"></path></g></svg>