<svg xmlns="http://www.w3.org/2000/svg" xmlns:xlink="http://www.w3.org/1999/xlink" aria-hidden="true" role="img" class="iconify iconify--icon-park-outline" width="1em" height="1em" preserveAspectRatio="xMidYMid meet" viewBox="0 0 48 48"><g fill="none"><path stroke="currentColor" stroke-linejoin="round" stroke-width="4" d="M24 37c7.18 0 13-5.82 13-13s-5.82-13-13-13s-13 5.82-13 13s5.82 13 13 13Z"></path><path fill="currentColor" d="M24 6a2.5 2.5 0 1 0 0-5a2.5 2.5 0 0 0 0 5Zm14.5 6a2.5 2.5 0 1 0 0-5a2.5 2.5 0 0 0 0 5Zm6 14.5a2.5 2.5 0 1 0 0-5a2.5 2.5 0 0 0 0 5Zm-6 14.5a2.5 2.5 0 1 0 0-5a2.5 2.5 0 0 0 0 5ZM24 47a2.5 2.5 0 1 0 0-5a2.5 2.5 0 0 0 0 5ZM9.5 41a2.5 2.5 0 1 0 0-5a2.5 2.5 0 0 0 0 5Zm-6-14.5a2.5 2.5 0 1 0 0-5a2.5 2.5 0 0 0 0 5Zm6-14.5a2.5 2.5 0 1 0 0-5a2.5 2.5 0 0 0 0 5Z"></path></g></svg>