<svg xmlns="http://www.w3.org/2000/svg" xmlns:xlink="http://www.w3.org/1999/xlink" aria-hidden="true" role="img" class="iconify iconify--icon-park-outline" width="1em" height="1em" preserveAspectRatio="xMidYMid meet" viewBox="0 0 48 48"><g fill="none"><path fill="currentColor" fill-rule="evenodd" d="M24 3v3.15V3Z" clip-rule="evenodd"></path><path stroke="currentColor" stroke-linecap="round" stroke-linejoin="round" stroke-width="4" d="M24 3v3.15"></path><path fill="currentColor" fill-rule="evenodd" d="m38.85 9.15l-2.228 2.228l2.227-2.227Z" clip-rule="evenodd"></path><path stroke="currentColor" stroke-linecap="round" stroke-linejoin="round" stroke-width="4" d="m38.85 9.15l-2.228 2.228"></path><path fill="currentColor" fill-rule="evenodd" d="M45 24h-3.15H45Z" clip-rule="evenodd"></path><path stroke="currentColor" stroke-linecap="round" stroke-linejoin="round" stroke-width="4" d="M45 24h-3.15"></path><path fill="currentColor" fill-rule="evenodd" d="m38.85 38.85l-2.228-2.228l2.227 2.227Z" clip-rule="evenodd"></path><path stroke="currentColor" stroke-linecap="round" stroke-linejoin="round" stroke-width="4" d="m38.85 38.85l-2.228-2.228"></path><path fill="currentColor" fill-rule="evenodd" d="M24 45v-3.15V45Z" clip-rule="evenodd"></path><path stroke="currentColor" stroke-linecap="round" stroke-linejoin="round" stroke-width="4" d="M24 45v-3.15"></path><path fill="currentColor" fill-rule="evenodd" d="m9.15 38.85l2.228-2.228l-2.227 2.227Z" clip-rule="evenodd"></path><path stroke="currentColor" stroke-linecap="round" stroke-linejoin="round" stroke-width="4" d="m9.15 38.85l2.228-2.228"></path><path fill="currentColor" fill-rule="evenodd" d="M3 24h3.15H3Z" clip-rule="evenodd"></path><path stroke="currentColor" stroke-linecap="round" stroke-linejoin="round" stroke-width="4" d="M3 24h3.15"></path><path fill="currentColor" fill-rule="evenodd" d="m9.15 9.15l2.228 2.228l-2.227-2.227Z" clip-rule="evenodd"></path><path stroke="currentColor" stroke-linecap="round" stroke-linejoin="round" stroke-width="4" d="m9.15 9.15l2.228 2.228"></path><path stroke="currentColor" stroke-linejoin="round" stroke-width="4" d="M24 36c6.627 0 12-5.373 12-12s-5.373-12-12-12s-12 5.373-12 12s5.373 12 12 12Z"></path></g></svg>