<svg xmlns="http://www.w3.org/2000/svg" xmlns:xlink="http://www.w3.org/1999/xlink" aria-hidden="true" role="img" class="iconify iconify--icon-park-outline" width="0.98em" height="1em" preserveAspectRatio="xMidYMid meet" viewBox="0 0 48 49"><g fill="none" stroke="currentColor" stroke-width="4"><path stroke-linecap="round" stroke-linejoin="round" d="M6 27v16m0-9h7l4-6M7 21l26.474 17.649a1 1 0 0 0 1.069.025L44 33"></path><path d="M7.078 13.719a1 1 0 0 1-.11-1.58l7.46-6.63a1 1 0 0 1 1.212-.09l27.065 17.732a1 1 0 0 1-.011 1.68l-9.144 5.82a1 1 0 0 1-1.092-.012l-25.38-16.92Z"></path></g></svg>