<svg xmlns="http://www.w3.org/2000/svg" xmlns:xlink="http://www.w3.org/1999/xlink" aria-hidden="true" role="img" class="iconify iconify--icon-park-outline" width="1em" height="1em" preserveAspectRatio="xMidYMid meet" viewBox="0 0 48 48"><g fill="none"><g stroke="currentColor" stroke-linecap="round" stroke-linejoin="round" stroke-width="4" clip-path="url(#IconifyId17f5a0d8ff03f060044)"><path d="M10 36c-1.999-3.5-2-10-2-19c0-3 4-4 6-1c1.108 1.662 1.816 6.264 1.816 6.264l6.495-11.25a2.52 2.52 0 0 1 4.366 2.521l.388-.671a2.52 2.52 0 1 1 4.365 2.52l-.388.672a2.52 2.52 0 1 1 4.366 2.52l-1.553 2.689a2.523 2.523 0 0 1 4.373 2.518L29.06 39.745c-.097.17-.197.337-.32.489C28.167 40.94 26.144 43 22 43c-4.659 0-9.521-2.66-12-7ZM37 5c1.379.733 3.505 1.758 5 4c1 1.5 1.5 3.5 1.79 6"></path></g><defs><clipPath id="IconifyId17f5a0d8ff03f060044"><path fill="currentColor" d="M0 0h48v48H0z"></path></clipPath></defs></g></svg>