<svg xmlns="http://www.w3.org/2000/svg" xmlns:xlink="http://www.w3.org/1999/xlink" aria-hidden="true" role="img" class="iconify iconify--icon-park-outline" width="1em" height="1em" preserveAspectRatio="xMidYMid meet" viewBox="0 0 48 48"><g fill="none" stroke="currentColor" stroke-linejoin="round" stroke-width="4"><path d="M5 7a3 3 0 0 1 3-3h24a3 3 0 0 1 3 3v37H8a3 3 0 0 1-3-3V7Zm30 17a2 2 0 0 1 2-2h4a2 2 0 0 1 2 2v17a3 3 0 0 1-3 3h-5V24Z"></path><path stroke-linecap="round" d="M11 12h8m-8 7h12"></path></g></svg>