<svg xmlns="http://www.w3.org/2000/svg" xmlns:xlink="http://www.w3.org/1999/xlink" aria-hidden="true" role="img" class="iconify iconify--icon-park-outline" width="1em" height="1em" preserveAspectRatio="xMidYMid meet" viewBox="0 0 48 48"><g fill="none" stroke="currentColor" stroke-linejoin="round" stroke-width="4"><path d="M4 12a2 2 0 0 1 2-2h36a2 2 0 0 1 2 2v24a2 2 0 0 1-2 2H6a2 2 0 0 1-2-2V12Z"></path><path stroke-linecap="round" d="M14.27 10c-1.696 0-2.622 1.978-1.536 3.28l1.666 2a2 2 0 0 0 1.537.72h16.126a2 2 0 0 0 1.537-.72l1.666-2c1.086-1.302.16-3.28-1.536-3.28H14.27Z" clip-rule="evenodd"></path><path stroke-linecap="round" d="M6 10v0h36"></path><path d="M33 31a4 4 0 1 0 0-8a4 4 0 0 0 0 8Zm-18 0a4 4 0 1 0 0-8a4 4 0 0 0 0 8Z"></path></g></svg>