<svg xmlns="http://www.w3.org/2000/svg" xmlns:xlink="http://www.w3.org/1999/xlink" aria-hidden="true" role="img" class="iconify iconify--icon-park-outline" width="1em" height="1em" preserveAspectRatio="xMidYMid meet" viewBox="0 0 48 48"><g fill="none" fill-rule="evenodd"><g transform="translate(4 11)"><path stroke="currentColor" stroke-linejoin="round" stroke-width="4" d="M0 24v-7.29a6 6 0 0 1 3.319-5.368l.682-.34l2.31-7.91A4 4 0 0 1 10.205 0h19.688a4 4 0 0 1 3.904 3.128l2.205 7.873l.68.34A6 6 0 0 1 40 16.709V24a3 3 0 0 1-3 3h-1.997v1a4 4 0 0 1-4 4A4 4 0 0 1 27 28v-1H13v1a4 4 0 1 1-8 0v-1H3a3 3 0 0 1-3-3Z"></path><circle cx="9.5" cy="19.5" r="2.5" fill="currentColor"></circle><circle cx="30.5" cy="19.5" r="2.5" fill="currentColor"></circle></g><path stroke="currentColor" stroke-linecap="round" stroke-linejoin="round" stroke-width="4" d="M18 11h12l-.991-4.956C28.887 5.434 28.399 5 27.837 5h-7.674c-.563 0-1.05.434-1.172 1.044L18 11Zm-3 12h18"></path></g></svg>