<svg xmlns="http://www.w3.org/2000/svg" xmlns:xlink="http://www.w3.org/1999/xlink" aria-hidden="true" role="img" class="iconify iconify--icon-park-outline" width="1em" height="1em" preserveAspectRatio="xMidYMid meet" viewBox="0 0 48 48"><g fill="none" stroke="currentColor" stroke-linejoin="round" stroke-width="4"><rect width="12" height="38" x="6" y="5" rx="6"></rect><rect width="12" height="38" x="30" y="5" rx="6"></rect><path d="M12 43a6 6 0 1 0 0-12a6 6 0 0 0 0 12Zm24 0a6 6 0 1 0 0-12a6 6 0 0 0 0 12Z"></path><path stroke-linecap="round" d="M30 21a6 6 0 0 0-12 0m12 10a6 6 0 0 0-12 0"></path></g></svg>