<svg xmlns="http://www.w3.org/2000/svg" xmlns:xlink="http://www.w3.org/1999/xlink" aria-hidden="true" role="img" class="iconify iconify--icon-park-outline" width="1em" height="1em" preserveAspectRatio="xMidYMid meet" viewBox="0 0 48 48"><g fill="none"><path d="m17 7l7 12.124L29.99 29.5H4.01L17 7Z"></path><path d="m31 7l12.99 22.5H18.01L24 19.124L31 7ZM11.01 41.5h25.98l-7-12H18.01l-7 12Z"></path><path stroke="currentColor" stroke-linecap="round" stroke-linejoin="round" stroke-width="4" d="m18.01 29.5l-7 12h25.98l-7-12m-11.98 0h25.98L31 7l-7 12.124M18.01 29.5L24 19.124M18.01 29.5h11.98m0 0H4.01L17 7l7 12.124M29.99 29.5L24 19.124"></path></g></svg>