<svg xmlns="http://www.w3.org/2000/svg" xmlns:xlink="http://www.w3.org/1999/xlink" aria-hidden="true" role="img" class="iconify iconify--icon-park-outline" width="1em" height="1em" preserveAspectRatio="xMidYMid meet" viewBox="0 0 48 48"><g fill="none"><g stroke="currentColor" stroke-width="4" clip-path="url(#IconifyId17f5a0d8ff03f060045)"><path stroke-linejoin="round" d="M13 12a4 4 0 1 0 8 0a4 4 0 0 0-8 0Zm18 12a4 4 0 1 0 8 0a4 4 0 0 0-8 0ZM13 36a4 4 0 1 0 8 0a4 4 0 0 0-8 0Z"></path><path stroke-linecap="round" d="M4 36h9m8 0h23M4 12h9m8 0h23"></path><path stroke-linecap="round" stroke-linejoin="round" d="M4 4v40"></path><path stroke-linecap="round" d="M4 24h27m8 0h5"></path></g><defs><clipPath id="IconifyId17f5a0d8ff03f060045"><path fill="currentColor" d="M0 0h48v48H0z"></path></clipPath></defs></g></svg>