<svg xmlns="http://www.w3.org/2000/svg" xmlns:xlink="http://www.w3.org/1999/xlink" aria-hidden="true" role="img" class="iconify iconify--icon-park-outline" width="1em" height="1em" preserveAspectRatio="xMidYMid meet" viewBox="0 0 48 48"><path fill="none" stroke="currentColor" stroke-linejoin="round" stroke-width="4" d="m18.905 18.168l-8.58-1.824a1.032 1.032 0 0 1-.795-1.224l1.931-9.087a1.032 1.032 0 0 1 1.225-.795l29.281 6.224c.558.118.914.666.795 1.224l-1.931 9.087a1.032 1.032 0 0 1-1.225.795L31.1 20.76c-.387-.082-.617.046-.69.385L26.442 39.82a1.032 1.032 0 0 1-1.224.795l-9.087-1.931a1.032 1.032 0 0 1-.795-1.225l3.97-18.681c.072-.335-.062-.539-.4-.61Z"></path></svg>