<svg xmlns="http://www.w3.org/2000/svg" xmlns:xlink="http://www.w3.org/1999/xlink" aria-hidden="true" role="img" class="iconify iconify--icon-park-outline" width="1em" height="1em" preserveAspectRatio="xMidYMid meet" viewBox="0 0 48 48"><g fill="none" stroke="currentColor" stroke-linejoin="round" stroke-width="4"><path d="M42 8H20a2 2 0 0 0-2 2v22a2 2 0 0 0 2 2h22a2 2 0 0 0 2-2V10a2 2 0 0 0-2-2ZM4 34h14V20h-7l-7 6.462V34Z"></path><path stroke-linecap="square" d="M18 36a4 4 0 0 1-8 0m30 0a4 4 0 0 1-8 0"></path></g></svg>