<svg xmlns="http://www.w3.org/2000/svg" xmlns:xlink="http://www.w3.org/1999/xlink" aria-hidden="true" role="img" class="iconify iconify--icon-park-outline" width="1em" height="1em" preserveAspectRatio="xMidYMid meet" viewBox="0 0 48 48"><g fill="none"><path stroke="currentColor" stroke-width="4" d="M39 6H9a3 3 0 0 0-3 3v30a3 3 0 0 0 3 3h30a3 3 0 0 0 3-3V9a3 3 0 0 0-3-3Z"></path><path fill="currentColor" d="M15 22v-5h5v-3l6-2v5h5v5h-5v7s0 1.5 2 2s5-1 5-1l-2 6h-5c-3.5 0-6-3.5-6-6v-8h-5Z"></path></g></svg>