<svg xmlns="http://www.w3.org/2000/svg" xmlns:xlink="http://www.w3.org/1999/xlink" aria-hidden="true" role="img" class="iconify iconify--icon-park-outline" width="1em" height="1em" preserveAspectRatio="xMidYMid meet" viewBox="0 0 48 48"><g fill="none" stroke="currentColor" stroke-linejoin="round" stroke-width="4"><path d="M11.273 4H4v7.273h7.273V4ZM44 36.727h-7.273V44H44v-7.273ZM11.273 24H4v7.273h7.273V24ZM24 36.727h-7.273V44H24v-7.273ZM31.273 4H24v7.273h7.273V4ZM44 16.727h-7.273V24H44v-7.273Z"></path><path stroke-linecap="round" d="M11.273 7.636H24m0 32.728h12.727M11.273 27.636h16.364V11.273m1.191 9.091h7.9M20.363 36.727V27.63v9.098ZM7.636 11.273V24m32.728 0v12.727"></path></g></svg>