<svg xmlns="http://www.w3.org/2000/svg" xmlns:xlink="http://www.w3.org/1999/xlink" aria-hidden="true" role="img" class="iconify iconify--icon-park-outline" width="1em" height="1em" preserveAspectRatio="xMidYMid meet" viewBox="0 0 48 48"><g fill="none"><rect width="32" height="40" x="8" y="4" stroke="currentColor" stroke-linejoin="round" stroke-width="4" rx="2"></rect><path stroke="currentColor" stroke-linecap="round" stroke-linejoin="round" stroke-width="4" d="M21 14h12M21 24h12M21 34h12"></path><path fill="currentColor" fill-rule="evenodd" d="M15 16a2 2 0 1 0 0-4a2 2 0 0 0 0 4Zm0 10a2 2 0 1 0 0-4a2 2 0 0 0 0 4Zm0 10a2 2 0 1 0 0-4a2 2 0 0 0 0 4Z" clip-rule="evenodd"></path></g></svg>