<svg xmlns="http://www.w3.org/2000/svg" xmlns:xlink="http://www.w3.org/1999/xlink" aria-hidden="true" role="img" class="iconify iconify--icon-park-outline" width="1em" height="1em" preserveAspectRatio="xMidYMid meet" viewBox="0 0 48 48"><g fill="none"><path stroke="currentColor" stroke-linejoin="round" stroke-width="4" d="M5 16h38a1 1 0 0 1 1 1v22a1 1 0 0 1-1 1H30l-5.992-5.999L18 40H5a1 1 0 0 1-1-1V17a1 1 0 0 1 1-1Z"></path><path stroke="currentColor" stroke-linecap="round" stroke-linejoin="round" stroke-width="4" d="M14 32a4 4 0 1 0 0-8a4 4 0 0 0 0 8Zm20 0a4 4 0 1 0 0-8a4 4 0 0 0 0 8Z"></path><path d="M6 10h36H6Z" clip-rule="evenodd"></path><path stroke="currentColor" stroke-linecap="round" stroke-linejoin="round" stroke-width="4" d="M6 10h36"></path></g></svg>