<svg xmlns="http://www.w3.org/2000/svg" xmlns:xlink="http://www.w3.org/1999/xlink" aria-hidden="true" role="img" class="iconify iconify--icon-park-outline" width="1em" height="1em" preserveAspectRatio="xMidYMid meet" viewBox="0 0 48 48"><path fill="none" stroke="currentColor" stroke-linecap="round" stroke-linejoin="round" stroke-width="4" d="M9 29a5 5 0 0 0 5-5a5 5 0 0 0 10 0a5 5 0 0 0 10 0a5 5 0 0 0 10 0c0 11.046-8.954 20-20 20S4 35.046 4 24a5 5 0 0 0 5 5Zm19-16a4 4 0 0 1-8 0c0-2.21 4-9 4-9s4 6.79 4 9Z"></path></svg>