<svg xmlns="http://www.w3.org/2000/svg" xmlns:xlink="http://www.w3.org/1999/xlink" aria-hidden="true" role="img" class="iconify iconify--icon-park-outline" width="1em" height="1em" preserveAspectRatio="xMidYMid meet" viewBox="0 0 48 48"><g fill="none" stroke="currentColor" stroke-linejoin="round" stroke-width="4"><path d="M7.825 29.765C11.462 34.757 17.352 38 24 38c6.648 0 12.538-3.244 16.175-8.235C43.79 33.508 46 38.508 46 44H2c0-5.492 2.209-10.492 5.825-14.235Z"></path><path d="M24 30c7.18 0 13-5.82 13-13S31.18 4 24 4S11 9.82 11 17s5.82 13 13 13Z"></path><path d="M24 22a5 5 0 1 0 0-10a5 5 0 0 0 0 10Z"></path></g></svg>