<svg xmlns="http://www.w3.org/2000/svg" xmlns:xlink="http://www.w3.org/1999/xlink" aria-hidden="true" role="img" class="iconify iconify--icon-park-outline" width="1em" height="1em" preserveAspectRatio="xMidYMid meet" viewBox="0 0 48 48"><g fill="none" stroke="currentColor" stroke-linejoin="round"><path stroke-width="4" d="M11.063 10.414c5.544-.276 9.855-.414 12.935-.414s7.393.138 12.939.415a6 6 0 0 1 5.68 5.492c.254 3.034.38 5.706.38 8.017c0 2.339-.13 5.048-.389 8.128a6 6 0 0 1-5.587 5.483c-4.742.31-9.083.465-13.023.465c-3.94 0-8.28-.155-13.018-.465a6 6 0 0 1-5.587-5.48c-.264-3.103-.395-5.814-.395-8.131c0-2.29.128-4.963.385-8.02a6 6 0 0 1 5.68-5.49Z"></path><path stroke-width="3.429" d="M21 19.61v8.796a.857.857 0 0 0 1.33.715l6.597-4.36a.857.857 0 0 0 .006-1.427l-6.598-4.436a.857.857 0 0 0-1.335.711Z"></path></g></svg>