<svg xmlns="http://www.w3.org/2000/svg" xmlns:xlink="http://www.w3.org/1999/xlink" aria-hidden="true" role="img" class="iconify iconify--ri" width="1em" height="1em" preserveAspectRatio="xMidYMid meet" viewBox="0 0 24 24" data-icon="ri:bit-coin-line"><path fill="currentColor" d="M12 22C6.477 22 2 17.523 2 12S6.477 2 12 2s10 4.477 10 10s-4.477 10-10 10zm0-2a8 8 0 1 0 0-16a8 8 0 0 0 0 16zm-1-4H8V8h3V6h2v2h1a2.5 2.5 0 0 1 2 4a2.5 2.5 0 0 1-2 4h-1v2h-2v-2zm-1-3v1h4a.5.5 0 1 0 0-1h-4zm0-3v1h4a.5.5 0 1 0 0-1h-4z"></path></svg>