<svg xmlns="http://www.w3.org/2000/svg" xmlns:xlink="http://www.w3.org/1999/xlink" aria-hidden="true" role="img" class="iconify iconify--ri" width="1em" height="1em" preserveAspectRatio="xMidYMid meet" viewBox="0 0 24 24"><path fill="currentColor" d="M12 2c5.52 0 10 4.48 10 10s-4.48 10-10 10S2 17.52 2 12S6.48 2 12 2zm0 4c-2.761 0-5 2.686-5 6s2.239 6 5 6s5-2.686 5-6s-2.239-6-5-6zm2.325 3.472c.422.69.675 1.57.675 2.528c0 2.21-1.343 4-3 4c-.378 0-.74-.093-1.073-.263l-.164-.092l3.562-6.173zM12 8c.378 0 .74.093 1.073.263l.164.092l-3.562 6.173C9.253 13.838 9 12.958 9 12c0-2.21 1.343-4 3-4z"></path></svg>