<svg xmlns="http://www.w3.org/2000/svg" xmlns:xlink="http://www.w3.org/1999/xlink" aria-hidden="true" role="img" class="iconify iconify--ri" width="1em" height="1em" preserveAspectRatio="xMidYMid meet" viewBox="0 0 24 24"><path fill="currentColor" d="M21 9.5v3c0 2.485-4.03 4.5-9 4.5s-9-2.015-9-4.5v-3c0 2.485 4.03 4.5 9 4.5s9-2.015 9-4.5zm-18 5c0 2.485 4.03 4.5 9 4.5s9-2.015 9-4.5v3c0 2.485-4.03 4.5-9 4.5s-9-2.015-9-4.5v-3zm9-2.5c-4.97 0-9-2.015-9-4.5S7.03 3 12 3s9 2.015 9 4.5s-4.03 4.5-9 4.5z"></path></svg>