<svg xmlns="http://www.w3.org/2000/svg" xmlns:xlink="http://www.w3.org/1999/xlink" aria-hidden="true" role="img" class="iconify iconify--ri" width="1em" height="1em" preserveAspectRatio="xMidYMid meet" viewBox="0 0 24 24"><path fill="currentColor" d="M6.535 3H21a1 1 0 0 1 1 1v16a1 1 0 0 1-1 1H6.535a1 1 0 0 1-.832-.445l-5.333-8a1 1 0 0 1 0-1.11l5.333-8A1 1 0 0 1 6.535 3zM13 10.586l-2.828-2.829l-1.415 1.415L11.586 12l-2.829 2.828l1.415 1.415L13 13.414l2.828 2.829l1.415-1.415L14.414 12l2.829-2.828l-1.415-1.415L13 10.586z"></path></svg>