<svg xmlns="http://www.w3.org/2000/svg" xmlns:xlink="http://www.w3.org/1999/xlink" aria-hidden="true" role="img" class="iconify iconify--ri" width="1em" height="1em" preserveAspectRatio="xMidYMid meet" viewBox="0 0 24 24"><path fill="currentColor" d="M12 22C6.477 22 2 17.523 2 12S6.477 2 12 2s10 4.477 10 10s-4.477 10-10 10zm0-2a8 8 0 1 0 0-16a8 8 0 0 0 0 16zm1-6a3.5 3.5 0 1 1-4.977-3.174a1 1 0 1 1 .845 1.813A1.5 1.5 0 1 0 11 14v-4a3.5 3.5 0 1 1 4.977 3.174a1 1 0 0 1-.845-1.813A1.5 1.5 0 1 0 13 10v4z"></path></svg>