<svg xmlns="http://www.w3.org/2000/svg" xmlns:xlink="http://www.w3.org/1999/xlink" aria-hidden="true" role="img" class="iconify iconify--ri" width="1em" height="1em" preserveAspectRatio="xMidYMid meet" viewBox="0 0 24 24"><path fill="currentColor" d="m12 10.667l9.223-6.149a.5.5 0 0 1 .777.416v14.132a.5.5 0 0 1-.777.416L12 13.333v5.733a.5.5 0 0 1-.777.416L.624 12.416a.5.5 0 0 1 0-.832l10.599-7.066a.5.5 0 0 1 .777.416v5.733zm-2 5.596V7.737L3.606 12L10 16.263zm10 0V7.737L13.606 12L20 16.263z"></path></svg>