<svg xmlns="http://www.w3.org/2000/svg" xmlns:xlink="http://www.w3.org/1999/xlink" aria-hidden="true" role="img" class="iconify iconify--ri" width="1em" height="1em" preserveAspectRatio="xMidYMid meet" viewBox="0 0 24 24"><path fill="currentColor" d="M4 3h16a1 1 0 0 1 1 1v16a1 1 0 0 1-1 1H4a1 1 0 0 1-1-1V4a1 1 0 0 1 1-1zm8 13a4 4 0 1 1 0-8a4 4 0 0 1 0 8zm0 2a6 6 0 1 0 0-12a6 6 0 0 0 0 12zM6 7a1 1 0 1 0 0-2a1 1 0 0 0 0 2zm12 0a1 1 0 1 0 0-2a1 1 0 0 0 0 2zm0 12a1 1 0 1 0 0-2a1 1 0 0 0 0 2zM6 19a1 1 0 1 0 0-2a1 1 0 0 0 0 2zm6-5.5a1.5 1.5 0 1 0 0-3a1.5 1.5 0 0 0 0 3z"></path></svg>