<svg xmlns="http://www.w3.org/2000/svg" xmlns:xlink="http://www.w3.org/1999/xlink" aria-hidden="true" role="img" class="iconify iconify--ri" width="1em" height="1em" preserveAspectRatio="xMidYMid meet" viewBox="0 0 24 24"><path fill="currentColor" d="M9.032 12L6 9.86v4.28L9.032 12zm-4.244 5.444A.5.5 0 0 1 4 17.035V6.965a.5.5 0 0 1 .788-.409l7.133 5.036a.5.5 0 0 1 0 .816l-7.133 5.036zM15 14.14L18.032 12L15 9.86v4.28zm-2-7.175a.5.5 0 0 1 .788-.409l7.133 5.036a.5.5 0 0 1 0 .816l-7.133 5.036a.5.5 0 0 1-.788-.409V6.965z"></path></svg>