<svg xmlns="http://www.w3.org/2000/svg" xmlns:xlink="http://www.w3.org/1999/xlink" aria-hidden="true" role="img" class="iconify iconify--ps" width="1em" height="1em" preserveAspectRatio="xMidYMid meet" viewBox="0 0 512 512" data-icon="ps:any-solvent"><path fill="currentColor" d="m309 365l-15-51h-76l-15 51h-49l74-214h56l74 214h-49zm-25-88q-14-43-24-79l-4-12q-2 5-28 91h56zM256 0Q150 0 75 75T0 256t75 181t181 75t181-75t75-181t-75-181T256 0zm0 469q-88 0-150.5-62.5T43 256t62.5-150.5T256 43t150.5 62.5T469 256t-62.5 150.5T256 469z"></path></svg>