<svg xmlns="http://www.w3.org/2000/svg" xmlns:xlink="http://www.w3.org/1999/xlink" aria-hidden="true" role="img" class="iconify iconify--noto" width="1em" height="1em" preserveAspectRatio="xMidYMid meet" viewBox="0 0 128 128"><path fill="#EDB20F" d="M63.6 117.34c-27.17 0-56.48-17.04-56.48-54.44S36.43 8.46 63.6 8.46c15.09 0 29.02 4.97 39.34 14.02c11.2 9.93 17.14 23.96 17.14 40.42s-5.94 30.38-17.14 40.32c-10.32 9.05-24.34 14.12-39.34 14.12z" opacity=".3"></path><path fill="none" stroke="#EB8F00" stroke-dasharray="11.727 11.727" stroke-linejoin="round" stroke-width="3" d="M63.6 117.34c-27.17 0-56.48-17.04-56.48-54.44S36.43 8.46 63.6 8.46c15.09 0 29.02 4.97 39.34 14.02c11.2 9.93 17.14 23.96 17.14 40.42s-5.94 30.38-17.14 40.32c-10.32 9.05-24.34 14.12-39.34 14.12z"></path><path d="M79 88H49c-2.21 0-4-1.79-4-4s1.79-4 4-4h30c2.21 0 4 1.79 4 4s-1.79 4-4 4zM44.67 45.94c-4.19 0-8 3.54-8 9.42s3.81 9.42 8 9.42c4.19 0 8-3.54 8-9.42s-3.81-9.42-8-9.42z"></path><path fill="#896024" d="M44.28 49.87c-1.03-.72-2.58-.49-3.58.95c-1 1.45-.67 2.97.36 3.69c1.03.72 2.58.49 3.58-.95c1-1.45.67-2.97-.36-3.69z"></path><path d="M83.02 45.94c-4.19 0-8 3.54-8 9.42s3.81 9.42 8 9.42c4.19 0 8-3.54 8-9.42s-3.81-9.42-8-9.42z"></path><path fill="#896024" d="M82.63 49.87c-1.03-.72-2.58-.49-3.58.95c-1 1.45-.67 2.97.36 3.69c1.03.72 2.58.49 3.58-.95c1.01-1.45.68-2.97-.36-3.69z"></path></svg>