<svg xmlns="http://www.w3.org/2000/svg" xmlns:xlink="http://www.w3.org/1999/xlink" aria-hidden="true" role="img" class="iconify iconify--noto" width="1em" height="1em" preserveAspectRatio="xMidYMid meet" viewBox="0 0 128 128"><linearGradient id="IconifyId17f59fb531fec6e673620" x1="52.622" x2="20.25" y1="88.233" y2="152.419" gradientUnits="userSpaceOnUse"><stop offset=".5" stop-color="#FFCA28"></stop><stop offset="1" stop-color="#FFB300"></stop></linearGradient><path fill="url(#IconifyId17f59fb531fec6e673620)" d="M104.26 74.27c-2.03-1.42-7.65-1.48-7.65-1.48s.4-9.4-6.43-13.16c-6.35-3.21-11.91 1.04-11.91 1.04s.81-9.54-5.95-13.23c-3.67-2.01-12.1.76-12.1.76s4.73-10.2 8.69-15.64c4.99-6.86 8.72-12.53 8.99-18.02c.28-5.86-2.84-7.93-7.09-7.93c-2.28 0-4.68.72-7.41 3.13c-2.11 1.86-5.13 4.46-10.56 11.12c-.15-.4-.33-.81-.58-1.22c-2.7-5.81-9.21-13.12-15.46-12.62c-1.48.12-8.77 1.16-4.94 12.35c1.55 4.53 4.2 13.59 5.27 23.29c-5.88 9.46-11.98 21.46-15.55 31.33C18.37 82.85 20.3 89 22.81 92.8c6.39 9.68 24.95 25.9 58.64 29.01c7.55.7 14.35-2.76 16.8-5.58c3.44-3.95 5.45-9.64 8-18.93c2.54-9.3 3.95-18.88-1.99-23.03z"></path><g fill="#EDA600"><path d="M54.05 20.33c-3.39-6.8-9.64-15.36-16.56-14.85l-1.01 4.21c6.44-.98 11.06 6.24 11.84 10.14c.28 1.38.65 2.65-2.47 7.41c-.76 1.17-2.15 2.86-3.5 3.41c-2.31.94-4.02 0-4.73-2.39c-1.76-5.95-2.79-9.01-3.59-11.22c-.93-2.57-1.06-4.59-.34-5.7c.82-1.28 2.95-1.77 4.07-1.86l-.27-4h-.04c-1.65.13-11.39 1.36-7.18 12.92c1.78 4.88 4.85 14.83 5.89 25.33l17.89-23.4zm34.92 76.93c-3.96-1.06-2.13-4.37-1.27-7.03c2.43-6.75 5.56-12.69 6.45-19.89l3.99.33c-.64 8.73-6.64 17.86-6.3 22.46c.34 4.42-1.33 4.54-2.87 4.13zM71.53 86.69c-1.29-.04-2.97-.42-3.89-1.31c-1.51-2.24 1.33-4.1 2.2-5.96c2.48-6.9 5.04-13.81 7.97-20.55l3.63 1.69c-3.07 6.83-5.57 14.58-8.48 21.53c-.06 1.62.15 4.65-1.43 4.6z"></path><path d="M106.81 73.54c-3.7-4.3-8.77-2.81-8.77-2.81s.07-8.98-7.06-12.91c-2.17-1.1-4.15-1.47-5.82-1.47c-3.45 0-5.63 1.57-5.63 1.57s1.2-7.97-5.78-12.01c-4.83-2.8-8.76-.85-8.76-.85s3.06-6.56 6.51-12.7c4.4-7.81 8.62-12.74 9.05-18.48C81.06 6.94 76.67 4 71.1 4h-.01c-2.38 0-4.89.75-7.75 3.28c-3.45 3.05-9.24 7.95-23.35 28.12c-7.24 10.34-16.86 25.64-20.81 38.53c-1.38 4.51-2.09 10.88-.38 15.32c2.98 7.7 11.79 15.78 18.45 20.18c2.71 1.79 9.14 5.11 13.05 7.01l2.75-3.29c-3.81-1.82-10.91-5.37-13.71-7.2c-6.81-4.45-14.85-13.52-16.83-18.34c-1.49-3.61-.42-9.32.55-12.47c3.77-12.31 13.26-27.39 20.25-37.39C56.78 18.5 66.02 10.34 66.02 10.34c4.78-3.71 8.63-1.75 9.48-.84c.79.85 1.12 2.23.98 4.09c-.34 4.55-4.16 9.38-8.64 16.77c-13.1 21.62-18.11 35.28-19.16 37.6c-1.48 2.09-3.46 3.19-3.98 4.69c-.87 2.52 2.75 3.69 4.07 3.16c1.32-.53 2.78-4.67 3.96-7.15c2.65-5.57 6.74-13.06 8.55-16.4c1.81-3.34 7.23-4.18 10.51-2.76c4.33 2.37 4.59 6.18 4.52 8.78c-.08 2.6-1.03 6.7-1.03 6.7l4.7-.98c.23-.14 3.77-5.44 10.11-1.82c5.36 3.47 3.7 13.41 3.7 13.41l3.5.77s3.83-2.06 6.43-.15c3.62 2.66 3.12 12.09.51 21.61c-2.49 9.07-4.42 14.66-7.51 18.21c-1.14 1.31-8.19 7.46-31.7 1.49c-3.46-.88-8.05-2.6-12.63-4.64l-2.08 3.59c4.87 2.21 9.87 4.1 13.72 5c26.96 6.26 33.87-.58 35.76-2.76c3.6-4.13 5.7-10.08 8.37-19.81s3.2-20.08-1.35-25.36z"></path></g></svg>