<svg xmlns="http://www.w3.org/2000/svg" xmlns:xlink="http://www.w3.org/1999/xlink" aria-hidden="true" role="img" class="iconify iconify--noto" width="1em" height="1em" preserveAspectRatio="xMidYMid meet" viewBox="0 0 128 128"><radialGradient id="IconifyId17f59fb531fec6e673812" cx="67.854" cy="71.329" r="93.06" gradientUnits="userSpaceOnUse"><stop offset=".595" stop-color="#70534A"></stop><stop offset=".872" stop-color="#5C4037"></stop></radialGradient><path fill="url(#IconifyId17f59fb531fec6e673812)" d="M121.87 76.6c-6.84-22.97-27.99-25.96-33.35-42.78c-2.99-5.33-4.34-9.77-6.93-15.31c-5.87-17.11-27.03-14.77-31.58-.46c-7.04 12.7-22.57 2.62-23.58 27.77c-.12.31-1.99 3.22-3.4 3.75c-12.92 5.22-9.04 13.34-9.91 20.67c-2.02 3.07-5.49 4.99-7.05 9.41c-3.99 23.58 28.02 42.18 46.89 41.97c6.51.05 10.53-9.79 10.53-9.79c7.03-1.97 10.95-4.1 13.39-8.85c1.02-1.76 2.76-1.61 3.53.29c2.81 6.99 9.93 11.9 15.38 3.86c8.52-12.59 31.03-13.88 26.08-30.53z"></path><linearGradient id="IconifyId17f59fb531fec6e673813" x1="105.119" x2="78.042" y1="75.92" y2="38.775" gradientUnits="userSpaceOnUse"><stop offset="0" stop-color="#5C4037" stop-opacity="0"></stop><stop offset="1" stop-color="#5C4037"></stop></linearGradient><path fill="url(#IconifyId17f59fb531fec6e673813)" d="M65.29 45.12c-1.89-1.52 13.67-4.19 16.2-19.49c.06-.38 1.52-.53 1.78-.18c4.53 6.16 6.7 13.86 11.58 19.75c2.33 2.82 5.24 4.04 7.97 6.48s6.18 4.97 7.86 8.21s6.58 14.11-5.07 15.09c-3.12.26-5.51-1.81-14.16 2.39c0 .01-7.34-17.07-26.16-32.25z"></path><linearGradient id="IconifyId17f59fb531fec6e673814" x1="79.956" x2="66.003" y1="113.98" y2="99.841" gradientUnits="userSpaceOnUse"><stop offset=".353" stop-color="#70534A"></stop><stop offset=".872" stop-color="#5C4037"></stop></linearGradient><path fill="url(#IconifyId17f59fb531fec6e673814)" d="M52.94 108.42c.16-.21.32-.42.49-.62c.21-.26.44-.54.75-.67c.36-.15.78-.06 1.15.07c1.09.39 2.01 1.21 3.14 1.47c1.8.42 3.58-.64 5.05-1.76c2.41-1.84 4.63-3.98 6.24-6.55c1.2-1.91 2.05-4.06 2.33-6.3c.1-.76-.24-2 .32-2.64c.65-.74 1.99-.47 2.9-.69c1.9-.44 3.54-1.64 5.02-2.91c3.66-3.15 6.75-6.98 9.05-11.23c.94 2.18 1.56 4.57 2.41 6.81c.44 1.15.88 2.33.87 3.56c-.02 1.55-.77 3-1.67 4.25c-2.19 3.05-5.96 5.44-9.58 4.45c-.86-.24-1.88-.62-2.54-.03c-.35.31-.47.79-.56 1.25c-.44 2.26-.63 4.59-1.34 6.78c-.71 2.19-2.06 4.32-4.16 5.29c-3.02 1.4-7.21.32-9.34 2.87c-.79.95-1.08 2.2-1.53 3.36c-1.53 3.95-4.86 6.9-9.08 7.59c-2 .32-4.23.18-6.13-.55c-2.47-.94-5.13-1.42-7.54-2.62c2.12-.18 4.34-.39 6.08-1.61c.79-.55 1.43-1.29 2.05-2.02c2.03-2.41 3.7-5.05 5.62-7.55z"></path><path fill="#4A2F27" d="M73.19 17.46c1.49 0 1.94-2.36-.07-2.84c-12.25-2.98-17.6 6.91-18.96 10.43c-.74 1.92 1.15 2.98 1.9 1.69c.74-1.29 4.25-5.37 7.85-7.18c4.01-2.01 8.85-2.1 9.28-2.1z"></path><path fill="#4A2F27" d="M123.06 75.38c-2.5-7.95-5.84-13.22-10.36-17.93l-3.11 2.41c2.49 2.57 4.71 5.38 6.43 8.58c2.82 5.25 6.26 12.74 1.95 18.06c-.35.43-.73.84-1.13 1.22c-1.93 1.85-4.36 3.16-6.73 4.43c-3.39 1.82-6.39 4.02-9.26 6.53c-2.79 2.44-5.17 5.31-7.6 8.12c-1.01 1.17-2.15 2.55-3.83 2.55c-1.49-.01-2.91-.85-4.12-1.64c-1.54-1-2.19-3.44-2.22-5.17a8.07 8.07 0 0 1 .82-3.67c.68-1.38 1.25-1.57 2.54-2.2c2.86-1.38 8.78-6.91 9.18-10.31c.26-2.17-.27-4.74-1.66-6.42c1.22-2.2 3.94-3.08 6.45-3.32c2.51-.24 5.11-.06 7.46-.96c.38-.14.81-.43.74-.83c-.04-.23-.24-.39-.43-.52c-2.16-1.52-4.88-2.09-7.52-2.07c-2.64.02-5.25.58-7.83 1.13c2.35-4.34 3-9.57 1.79-14.35c-.18-.73-.66-1.61-1.39-1.48c-.52.09-.81.65-.99 1.15c-1.02 2.86-1.24 6.08-2.99 8.57c-.17.25-.39.5-.68.56c-.87.16-1.59-3.82-6.73-9.91c-2.99-3.55-7.51-6.44-8.47-7.36c-2.29-2.23-1.21-5.67.43-8.14c1.27-1.91 3.3-3.17 4.91-4.81c2.34-2.39 3.66-5.85 4.49-9.02c3.25 5.71 6 11.85 10.03 17.09l.08-.06c1.96 2.39 4.44 4.28 7.05 6.28c1.27.97 2.58 1.97 3.93 3.09c1.27 1.06 4.59 4.25 5.79 5.39l3.11-2.4c-1.36-1.57-4.86-4.67-6.41-5.96c-1.41-1.18-2.76-2.2-4.06-3.2c-2.84-2.17-5.29-4.04-7.01-6.43l-.05.04c-3.19-4.57-9.28-15.7-13.62-24.98C76.67 5.99 68.24 2.36 57.65 6.93c-5.96 2.57-7.78 6.84-9.24 10.28c-.66 1.56-1.26 2.91-2.11 3.86c-2.15 1.49-4.12 2.31-6.2 3.16c-2.34.96-4.77 1.96-7.48 3.94c-6.77 4.95-7.34 10.3-8.13 17.7l-.13 1.18c-.12.32-.84 1.64-2.28 2.18c-10.88 4.13-10.36 11.96-10.02 17.14c.11 1.61.22 3.27-.13 4.02c-.34.74-1.2 1.59-2.18 2.58c-1.7 1.71-3.81 3.83-5.04 7.05c-2.44 6.37 1.99 15.75 4.38 19.05c5.08 7 12.5 13 19.15 16.96l2.3-3.16c-5.68-3.32-13.04-8.8-18.31-16.07c-2.3-3.17-5.57-11.02-3.9-15.38c.94-2.45 2.65-4.18 4.17-5.7c1.19-1.2 2.32-2.33 2.95-3.68c.77-1.65.63-3.72.49-5.92c-.33-4.99-.67-10.14 7.52-13.25c3.07-1.17 4.61-4.03 4.75-5.3l.14-1.28c.76-7.12 1.18-11.05 6.56-14.98c2.33-1.7 4.44-2.57 6.66-3.49c2.27-.93 4.62-1.91 7.25-3.75l.09-.09c.04-.03.08-.06.13-.09l-.02-.03c1.4-1.47 2.2-3.33 2.97-5.14c1.37-3.23 2.67-6.27 7.2-8.23c7.39-3.19 13.11-1.53 17.39 5.07c3.3 6.22 3.84 11.38 1.65 15.76c-1.69 3.38-5.95 6.22-10.35 6.91c-3.79.59-6.78.71-9.23-2.6c-1.05-1.41-1.82-3.01-2.75-4.5c-.33-.53-.81-1.11-1.43-1.04c-.7.08-1.01.92-1.09 1.62c-.46 4.19 2.75 7.95 5.44 10.9c3.51 3.86 7.65 7.13 11.69 10.41c3.47 2.82 6.74 5.49 8.43 7.43c7.77 8.94 13.17 22.8 12.86 25.44c-.19 1.39-4.49 6.05-7.02 7.27c-.95.46-3.7.56-7.07-1.13c-4.17-2.09-8.01-5.45-11.52-8.45c-6.07-5.19-12.02-11.3-16.33-18.01c-.39-.61-.93-1.29-1.65-1.22c-.38.04-.7.28-.99.52c-.49.39-.97.78-1.46 1.17c-.48.39-1.01.84-1.07 1.46c-.08.74.53 1.36 1.09 1.85c2.79 2.4 5.44 4.18 7.68 7.05c2.44 3.13 5.51 5.92 8.46 8.55c2.45 2.19 5 4.27 7.63 6.23c.78.58 5.09 2.78 5.28 3.66c.71 3.18 1.54 9.89-3.46 12.14c-4.13 1.85-12.08 1.55-13.94.63c-4.49-2.23-8.31-6.53-11.83-10c-4.59-4.52-10.1-8.95-13.5-14.41c-.15-.25-.34-.53-.63-.57c-.25-.03-.48.12-.68.27c-.51.37-1.02.74-1.54 1.11c-.49.36-1.02.76-1.16 1.36c-.22.9.54 1.71 1.26 2.29c2.52 2.02 4.67 3.54 6.89 5.91c2.21 2.35 4.46 4.67 6.76 6.94c3.78 3.73 7.86 8.18 12.69 10.58c1.17.58 3.09.95 5.3 1.09c-1.6 5-5.73 6.93-8.27 6.93c-5.15 0-12.09-1.44-16.86-3.5c-.96-.41-4.65-2.42-5.91-3.1l-2.24 3.19c1.44.78 5.31 2.9 6.61 3.46c5.29 2.28 12.68 3.82 18.4 3.82c6.03 0 9.51-4.4 11.87-9.32c.74-1.54 1.36-1.18 3.02-1.45c1.54-.25 3.02-.79 4.41-1.5c2.91-1.5 5.39-3.83 7.27-6.5c1.16 4.49 5.24 8.08 9.84 8.66c1.23.16 2.7.11 3.85-.39c1.17-.51 2.12-1.44 2.97-2.37c4.98-5.48 9.57-11.36 16.4-14.69c2.49-1.22 5.19-2.1 7.33-3.86c4.75-3.9 5.09-10.75 3.38-16.18z"></path></svg>