<svg xmlns="http://www.w3.org/2000/svg" xmlns:xlink="http://www.w3.org/1999/xlink" aria-hidden="true" role="img" class="iconify iconify--noto" width="1em" height="1em" preserveAspectRatio="xMidYMid meet" viewBox="0 0 128 128"><radialGradient id="IconifyId17f59fb531fec6e674558" cx="460.408" cy="-327.418" r="89.767" gradientTransform="scale(1 -1) rotate(88.716 113.837 -415.877)" gradientUnits="userSpaceOnUse"><stop offset=".353" stop-color="#F9DDBD"></stop><stop offset=".872" stop-color="#FFD29C"></stop></radialGradient><path fill="url(#IconifyId17f59fb531fec6e674558)" d="M91.49 106.34c-4.97.43-55.39.01-55.95.01c-2.26-.05-4.13-.55-5.38-1.46c-1.3-.94-1.9-2.27-1.86-4.08c.04-1.69.66-3.15 1.79-4.23c1.38-1.32 3.43-2.02 5.75-1.96l22.73.06c.4 0 .76-.16 1.03-.41c.28-.27.45-.63.46-1.04c.02-.81-.62-1.48-1.42-1.5l-37.58-1.45c-3.71-.08-7.37-2.13-7.27-6.53c.04-1.69.66-3.15 1.79-4.23c1.38-1.32 3.43-2.02 5.75-1.96l37.38.36c.4 0 .77-.15 1.04-.41s.45-.63.46-1.04c.02-.81-.61-1.48-1.43-1.51l-46.01-1.6c-2.1-.05-3.98-.72-5.3-1.86c-1.33-1.17-2.01-2.78-1.97-4.67c.04-1.69.66-3.15 1.79-4.23c1.38-1.32 3.43-2.02 5.74-1.97l45.79.45c.4 0 .77-.15 1.04-.41s.45-.63.46-1.04c.02-.81-.61-1.48-1.43-1.51l-34.12-1.23c-2.12-.05-3.99-.71-5.3-1.86c-1.33-1.17-2.01-2.78-1.97-4.67c.04-1.69.66-3.15 1.79-4.23c1.38-1.32 3.43-2.02 5.75-1.96c12.24.16 44.2.61 45.33.68c3.52-.56 1.82-3.18.56-4.71c-1.47-1.78-8.95-5.78-12.84-12.07c-4.79-8.74 1.68-12.75 1.85-12.81c4.27-1.44 5.34.32 8.43 4.68l2.79 3.35c4.09 6.48 25.07 14.57 26.78 15.24c9.14 3.64 25.08 13.5 24.59 35.55c-.56 24.18-21.92 32.47-31.04 32.26z"></path><path fill="#EDBD82" d="M67.99 45.79C71.71 57.51 82.9 68.2 97.35 71.55c1.82.58 2.39-1.1.62-1.79c-21.59-8.39-24.61-26.42-24.61-26.42l-5.37 2.45z"></path><path fill="#EDBD82" d="m98.46 37.15l-.16-.06C86.64 32.51 75 27 70 20c-3.39-4.74-5.69-8.51-10.54-6.15c-.52.25-2.84 1.74-3.97 4.63c-.83 2.11-1.28 5.61 1.33 10.36c1.62 2.62 5.15 5.57 8.56 8.42c1.7 1.42 3.31 2.76 4.51 3.93c.69.67.8 1.14.77 1.35c-.06.46-.24.8-1.46.75c-.53-.02-2.5-.05-5.52-.1v2.89l10.46.12c-.57-2.14-.03-4.93-2.2-7.14c-1.25-1.27-2.93-2.62-4.67-4.08c-3.08-2.57-6.57-5.49-7.9-7.64c-3.85-7.04.53-10.32 1.17-10.75c2.65-1.42 3.46.39 7.59 5.5c1.67 2.06 4.15 4.72 9.82 8.26c8 5 15.19 7.86 19.26 9.46l.15.06c7.28 2.9 24.15 12.03 23.66 34.15c-.54 24.01-21.82 31-29.51 30.82h-.16c-2.85.25-22.12.25-54.28.01c-.94-.01-1.49-.01-1.51-.01c-1.94-.04-3.56-.46-4.54-1.18c-.89-.65-1.28-1.53-1.25-2.86c.03-1.29.49-2.39 1.33-3.2c1.1-1.05 2.76-1.6 4.72-1.55l22.72.06c1.56.01 2.93-1.33 2.97-2.89a2.946 2.946 0 0 0-2.84-3.01l-37.6-1.41c-2.74-.06-5.91-1.41-5.83-5.02c.07-2.96 2.6-4.84 6.04-4.75l37.39.36c1.57.01 2.95-1.34 2.98-2.89a2.959 2.959 0 0 0-2.86-3.02l-46.03-1.6c-1.75-.04-3.3-.57-4.35-1.49c-1.01-.89-1.5-2.08-1.47-3.52c.07-2.96 2.6-4.83 6.03-4.76l45.8.45c1.57.01 2.95-1.34 2.98-2.89a2.957 2.957 0 0 0-2.85-3.02l-34.14-1.23c-1.76-.04-3.31-.57-4.35-1.49c-1.01-.89-1.5-2.08-1.47-3.52c.07-2.96 2.61-4.84 6.04-4.75l39.27.45l.02-2.89c-6.32-.09-18.47-.25-29.28-.39l-9.95-.13c-2.72-.07-5.13.77-6.8 2.37c-1.42 1.36-2.2 3.18-2.24 5.27c-.05 2.33.8 4.33 2.47 5.81c1.57 1.38 3.78 2.18 6.22 2.23l34.12 1.23l-45.77-.45c-2.71-.06-5.13.78-6.79 2.38c-1.43 1.35-2.2 3.17-2.25 5.26c-.05 2.33.8 4.33 2.47 5.81c1.58 1.38 3.8 2.17 6.22 2.22l46.01 1.6l-37.36-.36c-2.72-.07-5.13.77-6.8 2.37c-1.42 1.36-2.2 3.18-2.24 5.27c-.12 5.39 4.43 7.95 8.69 8.04l37.59 1.44l-22.69-.06c-2.72-.07-5.13.77-6.8 2.37c-1.42 1.36-2.2 3.18-2.25 5.27c-.05 2.3.78 4.09 2.47 5.31c1.49 1.08 3.64 1.68 6.25 1.74c.07 0 .6 0 1.51.01c22.66.17 50.41.3 54.48-.02c4.95.08 14.86-2.46 22.44-9.7c5.5-5.26 9.77-13 10.02-24.01c.52-23.96-17.69-33.82-25.55-36.95z"></path></svg>