<svg xmlns="http://www.w3.org/2000/svg" xmlns:xlink="http://www.w3.org/1999/xlink" aria-hidden="true" role="img" class="iconify iconify--noto" width="1em" height="1em" preserveAspectRatio="xMidYMid meet" viewBox="0 0 128 128"><defs><path id="IconifyId17f59fb531fec6e679010" d="M-138 4h120v120h-120z"></path></defs><clipPath id="IconifyId17f59fb531fec6e679011"><use href="#IconifyId17f59fb531fec6e679010"></use></clipPath><g clip-path="url(#IconifyId17f59fb531fec6e679011)"><defs><path id="IconifyId17f59fb531fec6e679012" d="M-142 0h128v128h-128z"></path></defs><clipPath id="IconifyId17f59fb531fec6e679013"><use href="#IconifyId17f59fb531fec6e679012"></use></clipPath><g clip-path="url(#IconifyId17f59fb531fec6e679013)"><radialGradient id="IconifyId17f59fb531fec6e679014" cx="-629.86" cy="-177.68" r="137.58" gradientTransform="scale(-1 1) rotate(-45 32.498 -934.92)" gradientUnits="userSpaceOnUse"><stop offset=".352" stop-color="#70534A"></stop><stop offset=".877" stop-color="#5C4037"></stop></radialGradient><path fill="url(#IconifyId17f59fb531fec6e679014)" d="M-162.27 186.77c-11.49 0-22.52-5.2-32.79-15.47c-28.1-28.1-34.45-44.27-26.13-66.52c3.4-9.11 17.58-32.15 18.86-34.21c1.07-1.08 8.9-8.95 15.12-15.83c6.47-7.15 11.55-16.06 12.16-17.14a3.91 3.91 0 0 1 3.06-1.5c.67 0 1.31.18 1.87.53c7 4.32 9.36 9.53 7.23 15.93c-1.55 4.66-5.81 9.55-9.24 13.48c-3.98 4.57-6.61 7.59-5.63 10.13c.16.4.3.83.44 1.24c.64 1.88 1.31 3.83 3.11 3.83c.75 0 1.46-.39 2.1-1.17c1.06-1.12 34.54-32.64 52.09-49.14c3.27-3.27 6.56-4.98 9.55-4.98c2.15 0 4.14.91 5.93 2.7c2.2 2.2 3.06 4.71 2.56 7.44c-.47 2.57-2.13 5.34-4.8 8.01l-36.58 39.81c-.54.58-.53 1.49.03 2.06c.29.3.68.46 1.08.46c.35 0 .7-.12.98-.37l54.86-47.41c.03-.02.05-.05.08-.07c3.23-3.23 6.53-4.94 9.52-4.94c2.15 0 4.14.91 5.93 2.7c5.75 5.75 1.06 12.15-2.24 15.45l-8.21 7.79c-.59.56-.62 1.5-.07 2.11a1.502 1.502 0 0 0 2.1.1c2.92-2.63 5.87-4.01 8.54-4.01c2.15 0 4.14.91 5.93 2.7c2.2 2.2 3.06 4.71 2.56 7.44c-.47 2.57-2.13 5.34-4.8 8.01c-.03.03-.05.06-.08.09l-39.28 46.02a1.498 1.498 0 0 0 1.14 2.47c.35 0 .71-.12.99-.37l26.96-23.74c3.3-3.3 6.6-5.01 9.59-5.01c2.15 0 4.14.91 5.93 2.7c3.91 3.91 2.94 8.07-3.35 14.35c-.59.56-61.17 58.51-71.75 65.83c-5.58 3.87-14.53 8.5-25.35 8.5z"></path><path fill="#4A2F27" d="M-110.47 27.45c1.76 0 3.35.74 4.87 2.26c1.86 1.86 2.56 3.86 2.14 6.11c-.42 2.27-1.94 4.77-4.39 7.22l-.09.09l-36.53 39.77a2.995 2.995 0 0 0 .06 4.12c.59.6 1.37.91 2.15.91c.7 0 1.4-.24 1.96-.73l54.86-47.41c.06-.05.11-.1.16-.15c2.9-2.9 5.91-4.5 8.46-4.5c1.76 0 3.35.74 4.87 2.26c2.53 2.53 4.19 6.88-2.22 13.3l-8.18 7.77c-.37.34-.75.69-1.12 1.06a3.012 3.012 0 0 0-.03 4.22c.59.6 1.37.91 2.15.91c.74 0 1.49-.27 2.07-.82l1-.95c2.63-2.36 5.22-3.6 7.51-3.6c1.76 0 3.35.74 4.87 2.26c1.86 1.86 2.56 3.86 2.14 6.11c-.42 2.27-1.94 4.77-4.39 7.22c-.06.06-.11.11-.16.17l-39.28 46.02a3.01 3.01 0 0 0 .18 4.09c.58.57 1.34.86 2.11.86c.71 0 1.41-.25 1.98-.75l26.97-23.74c.05-.04.09-.09.14-.13c2.9-2.9 5.91-4.5 8.46-4.5c1.76 0 3.35.74 4.87 2.26c2.2 2.2 2.08 3.88 1.67 5.24c-.58 1.9-2.21 4.18-4.99 6.97c-1.5 1.43-61.16 58.48-71.57 65.69c-5.43 3.76-14.08 8.23-24.52 8.23c-11.08 0-21.75-5.06-31.73-15.03c-14.27-14.27-22.36-24.88-26.22-34.4c-3.95-9.75-3.82-19.16.43-30.53c3.29-8.79 16.91-31 18.64-33.8c1.46-1.46 9-9.08 15.05-15.76c6.38-7.06 11.43-15.79 12.29-17.3c.45-.54 1.12-.85 1.81-.85a2 2 0 0 1 1.09.31c6.4 3.96 8.5 8.46 6.59 14.18c-1.46 4.37-5.61 9.14-8.94 12.97c-4.18 4.8-7.21 8.28-5.9 11.66c.15.38.29.79.42 1.18c.7 2.04 1.65 4.84 4.53 4.84c.82 0 2.03-.28 3.18-1.62c1.71-1.73 31.96-30.21 52.04-49.09c.02-.02.04-.04.07-.06c2.91-2.94 5.92-4.54 8.47-4.54m0-3c-3.61 0-7.31 2.11-10.58 5.38c0 0-51.53 48.45-52.22 49.27c-.36.44-.67.62-.95.62c-.95 0-1.44-2.26-2.15-4.11c-1.36-3.52 11.71-13.06 14.89-22.6c3.39-10.18-4.46-15.57-7.86-17.68c-.83-.51-1.75-.75-2.66-.75a5.4 5.4 0 0 0-4.31 2.18s-5.3 9.54-12.01 16.96s-15.19 15.9-15.19 15.9s-15.44 24.88-19.08 34.62c-8.92 23.87-.97 40.66 26.48 68.11c11.76 11.76 23.42 15.91 33.85 15.91c10.29 0 19.38-4.03 26.22-8.77c10.81-7.48 71.96-66.01 71.96-66.01c5.47-5.47 8.79-11.03 3.35-16.47c-2.19-2.19-4.57-3.14-6.99-3.14c-3.61 0-7.31 2.11-10.58 5.38L-105.28 123L-66 76.99c5.47-5.47 7.69-12.13 2.24-17.57c-2.19-2.19-4.57-3.14-6.99-3.14c-3.23 0-6.54 1.69-9.55 4.4l-1.03.98c.34-.34.68-.67 1.03-.98l8.24-7.82c5.47-5.47 7.69-12.13 2.24-17.57c-2.19-2.19-4.57-3.14-6.99-3.14c-3.61 0-7.31 2.11-10.58 5.38l-54.86 47.41l36.53-39.77c5.47-5.47 7.69-12.13 2.24-17.57c-2.19-2.19-4.57-3.15-6.99-3.15z"></path><linearGradient id="IconifyId17f59fb531fec6e679015" x1="-85.69" x2="-53.664" y1="50.544" y2="20.375" gradientUnits="userSpaceOnUse"><stop offset=".079" stop-color="#D32F2F"></stop><stop offset=".79" stop-color="#F44336"></stop></linearGradient><path fill="url(#IconifyId17f59fb531fec6e679015)" d="M-68.05 47.31c-8.49 8.49-11.74 5.57-15.54 1.77s-6.72-7.06 1.77-15.54s18.45-12.28 22.26-8.48c3.79 3.8 0 13.76-8.49 22.25z"></path><linearGradient id="IconifyId17f59fb531fec6e679016" x1="-122.94" x2="-93.704" y1="31.662" y2="31.662" gradientUnits="userSpaceOnUse"><stop offset="0" stop-color="#D32F2F"></stop><stop offset=".644" stop-color="#F44336"></stop></linearGradient><path fill="url(#IconifyId17f59fb531fec6e679016)" d="M-103.66 40.78c-8.49 8.49-11.74 5.57-15.54 1.77s-6.72-7.06 1.77-15.54s18.45-12.28 22.26-8.48s0 13.76-8.49 22.25z"></path><linearGradient id="IconifyId17f59fb531fec6e679017" x1="-79.066" x2="-49.686" y1="100.02" y2="100.02" gradientUnits="userSpaceOnUse"><stop offset="0" stop-color="#D32F2F"></stop><stop offset=".644" stop-color="#F44336"></stop></linearGradient><path fill="url(#IconifyId17f59fb531fec6e679017)" d="M-60.41 109.09c-8.77 7.86-11.8 4.83-15.32.9s-6.21-7.27 2.56-15.13s18.73-11.05 22.25-7.12c3.52 3.92-.73 13.48-9.49 21.35z"></path><path fill="#4A2F27" d="M-131.67 108.83a1.5 1.5 0 0 1-1.02-2.6L-83.8 60.4c.61-.56 2.34-.7 2.9-.09s.3 1.94-.3 2.5l-49.44 45.62c-.3.27-.66.4-1.03.4z"></path><linearGradient id="IconifyId17f59fb531fec6e679018" x1="-82.307" x2="-54.735" y1="63.768" y2="63.768" gradientUnits="userSpaceOnUse"><stop offset="0" stop-color="#D32F2F"></stop><stop offset=".644" stop-color="#F44336"></stop></linearGradient><path fill="url(#IconifyId17f59fb531fec6e679018)" d="M-64.12 72.36c-8 8-11.07 5.25-14.66 1.67c-3.59-3.59-6.34-6.66 1.67-14.66s17.4-11.58 20.99-8c3.58 3.59 0 12.99-8 20.99z"></path></g><g clip-path="url(#IconifyId17f59fb531fec6e679013)"><path fill="#C62828" d="m-33.047 28.321l5.546 2.29l-11.45 27.73l-5.546-2.29z"></path><linearGradient id="IconifyId17f59fb531fec6e679019" x1="372.81" x2="372.87" y1="-16.282" y2="-41.618" gradientTransform="matrix(1.142 .4716 -.3817 .9243 -461.88 -132.37)" gradientUnits="userSpaceOnUse"><stop offset=".167" stop-color="#F44336"></stop><stop offset=".696" stop-color="#D32F2F"></stop></linearGradient><path fill="url(#IconifyId17f59fb531fec6e679019)" d="m-21.46 33.99l-18.26-7.54a5.767 5.767 0 0 1-3.13-7.54l16.97-41.09a5.767 5.767 0 0 1 7.54-3.13l18.26 7.54a5.767 5.767 0 0 1 3.13 7.54l-16.97 41.09c-1.21 2.95-4.59 4.35-7.54 3.13z"></path><radialGradient id="IconifyId17f59fb531fec6e679020" cx="432.41" cy="35.782" r="12.201" gradientTransform="rotate(22.437 89.321 -1162.697)" gradientUnits="userSpaceOnUse"><stop offset="0" stop-color="#EF5350"></stop><stop offset="1" stop-color="#E53935"></stop></radialGradient><path fill="url(#IconifyId17f59fb531fec6e679020)" d="M-61.74 80.33s3.93-1.87 6.32-4.34c3.51-3.64-.29-8.52 4.68-15.87c2.76-4.08 6.42-4.53 6.42-4.53l5.9 2.56s5.65 6.78-3.54 17.62c-8.58 10.11-19.78 4.56-19.78 4.56z"></path><linearGradient id="IconifyId17f59fb531fec6e679021" x1="372.81" x2="372.87" y1="-16.282" y2="-41.618" gradientTransform="matrix(1.142 .4716 -.3817 .9243 -461.88 -132.37)" gradientUnits="userSpaceOnUse"><stop offset="0" stop-color="#F44336"></stop><stop offset=".286" stop-color="#E53A33"></stop><stop offset=".66" stop-color="#D83230"></stop><stop offset="1" stop-color="#D32F2F"></stop></linearGradient><path fill="url(#IconifyId17f59fb531fec6e679021)" d="m-21.46 33.99l-18.26-7.54a5.767 5.767 0 0 1-3.13-7.54l16.97-41.09a5.767 5.767 0 0 1 7.54-3.13l18.26 7.54a5.767 5.767 0 0 1 3.13 7.54l-16.97 41.09c-1.21 2.95-4.59 4.35-7.54 3.13z"></path><path fill="#424242" d="M-20.54-22.75c.36 0 .72.07 1.06.21L-1.22-15a2.77 2.77 0 0 1 1.5 3.62l-16.97 41.09a2.774 2.774 0 0 1-3.62 1.51l-18.26-7.54a2.77 2.77 0 0 1-1.5-3.62l16.97-41.09a2.754 2.754 0 0 1 2.56-1.72m0-3c-2.27 0-4.42 1.34-5.34 3.57l-16.97 41.09a5.776 5.776 0 0 0 3.13 7.54l18.26 7.54a5.769 5.769 0 0 0 7.54-3.13L3.05-10.23a5.776 5.776 0 0 0-3.13-7.54l-18.26-7.54c-.72-.29-1.47-.44-2.2-.44zm-24.04 84.5l4.13 1.79c.74 1.44 2.26 6.12-3.81 13.29c-2.72 3.2-6.02 4.89-9.81 5.01c.28-.25.54-.51.8-.77c2.41-2.49 2.51-5.36 2.61-7.88c.09-2.52.19-5.12 2.4-8.39c1.3-1.93 2.83-2.73 3.68-3.05m.25-3.16s-3.67.45-6.42 4.53c-4.97 7.35-1.17 12.23-4.68 15.87c-2.39 2.47-6.32 4.34-6.32 4.34s3.07 1.52 7.22 1.52c3.78 0 8.47-1.26 12.55-6.08c9.19-10.84 3.54-17.62 3.54-17.62l-5.89-2.56z" opacity=".2"></path></g></g><g clip-path="url(#IconifyId17f59fb531fec6e679011)" opacity=".2"><path fill="#424242" d="M-63.72 26.57c.65 0 1.54.1 2.03.6c1.9 1.9-.52 10.05-8.48 18.01c-3.82 3.82-5.96 4.62-7.08 4.62c-1.27 0-2.5-1.13-4.22-2.86c-1.62-1.62-2.78-2.87-2.85-4.08c-.07-1.12.68-3.28 4.62-7.22c6.26-6.26 12.54-9.07 15.98-9.07m-.01-3c-4.8 0-11.85 3.71-18.1 9.96c-8.49 8.49-5.57 11.74-1.77 15.54c1.99 1.99 3.83 3.74 6.34 3.74c2.29 0 5.15-1.45 9.2-5.5c8.49-8.49 12.28-18.45 8.48-22.26c-1-1-2.43-1.48-4.15-1.48z"></path></g><g clip-path="url(#IconifyId17f59fb531fec6e679011)" opacity=".2"><path fill="#424242" d="M-99.33 20.04c.65 0 1.54.1 2.03.6c.9.9.78 3.33-.31 6.18c-1.43 3.76-4.41 8.07-8.17 11.83c-3.82 3.82-5.96 4.62-7.08 4.62c-1.27 0-2.5-1.13-4.22-2.86c-1.62-1.62-2.78-2.87-2.85-4.08c-.07-1.12.68-3.28 4.62-7.22c6.26-6.26 12.54-9.07 15.98-9.07m0-3c-4.8 0-11.85 3.71-18.1 9.96c-8.49 8.49-5.57 11.74-1.77 15.54c1.99 1.99 3.83 3.74 6.34 3.74c2.29 0 5.15-1.45 9.2-5.5c8.49-8.49 12.28-18.45 8.48-22.26c-1-1-2.43-1.48-4.15-1.48z"></path></g><g clip-path="url(#IconifyId17f59fb531fec6e679011)" opacity=".2"><path fill="#424242" d="M-55.44 89.05c.76 0 1.77.12 2.28.69c.82.91.56 3.26-.64 5.98c-1.6 3.6-4.74 7.66-8.62 11.14c-3.82 3.42-5.92 4.14-7.01 4.14c-1.18 0-2.21-.93-4.08-3.01c-1.5-1.67-2.56-2.94-2.56-4.11c-.01-1.09.83-3.15 4.89-6.79c5.45-4.88 11.62-8.04 15.74-8.04m0-3c-4.7 0-11.52 3.23-17.74 8.8c-8.77 7.86-6.08 11.2-2.56 15.13c1.92 2.14 3.68 4.01 6.31 4.01c2.2 0 5.01-1.32 9.01-4.91c8.77-7.86 13.01-17.42 9.49-21.35c-1.02-1.14-2.59-1.68-4.51-1.68z"></path></g><g clip-path="url(#IconifyId17f59fb531fec6e679011)" opacity=".2"><path fill="#424242" d="M-60.04 52.98c.58 0 1.37.09 1.79.51c1.74 1.74-.56 9.31-8 16.75c-3.56 3.56-5.53 4.31-6.56 4.31c-1.13 0-2.26-1.05-3.86-2.64c-1.5-1.5-2.57-2.65-2.64-3.74c-.06-1.02.63-3.01 4.31-6.68c5.88-5.88 11.75-8.51 14.96-8.51m0-3c-4.53 0-11.18 3.5-17.07 9.39c-8 8-5.25 11.07-1.67 14.66c1.88 1.88 3.61 3.52 5.98 3.52c2.16 0 4.86-1.37 8.68-5.19c8-8 11.58-17.4 8-20.99c-.95-.94-2.3-1.39-3.92-1.39z"></path></g><defs><path id="IconifyId17f59fb531fec6e679022" d="M4 4h120v120H4z"></path></defs><clipPath id="IconifyId17f59fb531fec6e679023"><use href="#IconifyId17f59fb531fec6e679022"></use></clipPath><g clip-path="url(#IconifyId17f59fb531fec6e679023)"><defs><path id="IconifyId17f59fb531fec6e679024" d="M0 0h128v128H0z"></path></defs><clipPath id="IconifyId17f59fb531fec6e679025"><use href="#IconifyId17f59fb531fec6e679024"></use></clipPath><g clip-path="url(#IconifyId17f59fb531fec6e679025)"><radialGradient id="IconifyId17f59fb531fec6e679026" cx="-730.27" cy="-278.08" r="137.58" gradientTransform="scale(-1 1) rotate(-45 32.498 -934.92)" gradientUnits="userSpaceOnUse"><stop offset=".353" stop-color="#A56C43"></stop><stop offset=".872" stop-color="#8D5738"></stop></radialGradient><path fill="url(#IconifyId17f59fb531fec6e679026)" d="M-20.27 186.77c-11.49 0-22.52-5.2-32.79-15.47c-28.1-28.1-34.45-44.27-26.13-66.52c3.4-9.11 17.58-32.15 18.86-34.21c1.07-1.08 8.9-8.95 15.12-15.83c6.47-7.15 11.55-16.06 12.16-17.14a3.91 3.91 0 0 1 3.06-1.5c.67 0 1.31.18 1.87.53c7 4.32 9.36 9.53 7.23 15.93c-1.55 4.66-5.81 9.55-9.24 13.48c-3.98 4.57-6.61 7.59-5.63 10.13c.16.4.3.83.44 1.24c.64 1.88 1.31 3.83 3.11 3.83c.75 0 1.46-.39 2.1-1.17c1.06-1.12 34.54-32.64 52.09-49.14c3.27-3.27 6.56-4.98 9.55-4.98c2.15 0 4.14.91 5.93 2.7c2.2 2.2 3.06 4.71 2.56 7.44c-.47 2.57-2.13 5.34-4.8 8.01L-1.36 83.92c-.54.58-.53 1.49.03 2.06c.29.3.68.46 1.08.46c.35 0 .7-.12.98-.37l54.86-47.41c.03-.02.05-.05.08-.07c3.23-3.23 6.53-4.94 9.52-4.94c2.15 0 4.14.91 5.93 2.7c5.75 5.75 1.06 12.15-2.24 15.45l-8.21 7.79c-.59.56-.62 1.5-.07 2.11a1.502 1.502 0 0 0 2.1.1c2.92-2.63 5.87-4.01 8.54-4.01c2.15 0 4.14.91 5.93 2.7c2.2 2.2 3.06 4.71 2.56 7.44c-.47 2.57-2.13 5.34-4.8 8.01c-.03.03-.05.06-.08.09l-39.28 46.02a1.498 1.498 0 0 0 1.14 2.47c.35 0 .71-.12.99-.37l26.96-23.74c3.3-3.3 6.6-5.01 9.59-5.01c2.15 0 4.14.91 5.93 2.7c3.91 3.91 2.94 8.07-3.35 14.35c-.59.56-61.17 58.51-71.75 65.83c-5.58 3.86-14.53 8.49-25.35 8.49z"></path><path fill="#875334" d="M31.53 27.45c1.76 0 3.35.74 4.87 2.26c1.86 1.86 2.56 3.86 2.14 6.11c-.42 2.27-1.94 4.77-4.39 7.22l-.09.09L-2.46 82.9a2.995 2.995 0 0 0 .06 4.12c.59.6 1.37.91 2.15.91c.7 0 1.4-.24 1.96-.73l54.86-47.41c.06-.05.11-.1.16-.15c2.9-2.9 5.91-4.5 8.46-4.5c1.76 0 3.35.74 4.87 2.26c2.53 2.53 4.19 6.88-2.22 13.3l-8.18 7.77c-.37.34-.75.7-1.12 1.06a3.012 3.012 0 0 0-.03 4.22c.59.6 1.37.91 2.15.91c.74 0 1.49-.27 2.07-.82l1-.95c2.63-2.36 5.22-3.6 7.51-3.6c1.76 0 3.35.74 4.87 2.26c1.86 1.86 2.56 3.86 2.14 6.11c-.42 2.27-1.94 4.77-4.39 7.22c-.06.06-.11.11-.16.17l-39.28 46.02a3.01 3.01 0 0 0 .18 4.09c.58.57 1.34.86 2.11.86c.71 0 1.41-.25 1.98-.75l26.97-23.74c.05-.04.09-.09.14-.13c2.9-2.9 5.91-4.5 8.46-4.5c1.76 0 3.35.74 4.87 2.26c2.25 2.25 3.84 5.04-3.32 12.21c-1.5 1.43-61.16 58.48-71.57 65.69c-5.43 3.76-14.08 8.23-24.52 8.23c-11.08 0-21.75-5.06-31.73-15.03c-14.27-14.27-22.36-24.88-26.22-34.4c-3.95-9.75-3.82-19.16.43-30.53c3.29-8.79 16.91-31 18.64-33.8c1.46-1.46 9-9.08 15.05-15.76c6.38-7.06 11.43-15.79 12.29-17.3c.45-.54 1.12-.85 1.81-.85a2 2 0 0 1 1.09.31c6.4 3.96 8.5 8.46 6.59 14.18c-1.46 4.37-5.61 9.14-8.94 12.97c-4.18 4.8-7.21 8.28-5.9 11.66c.15.38.29.79.42 1.18c.7 2.04 1.65 4.84 4.53 4.84c.82 0 2.03-.28 3.18-1.62C-27.33 79.39 2.93 50.9 23 32.02c.02-.02.04-.04.07-.06c2.9-2.91 5.91-4.51 8.46-4.51m0-3c-3.61 0-7.31 2.11-10.58 5.38c0 0-51.53 48.45-52.22 49.27c-.36.44-.67.62-.95.62c-.95 0-1.44-2.26-2.15-4.11c-1.36-3.52 11.71-13.06 14.89-22.6c3.39-10.18-4.46-15.57-7.86-17.68c-.83-.51-1.75-.75-2.66-.75a5.4 5.4 0 0 0-4.31 2.18s-5.3 9.54-12.01 16.96s-15.19 15.9-15.19 15.9s-15.44 24.88-19.08 34.62c-8.92 23.87-.97 40.66 26.48 68.11c11.76 11.76 23.42 15.91 33.85 15.91c10.29 0 19.38-4.03 26.22-8.77c10.81-7.48 71.96-66.01 71.96-66.01c5.47-5.47 8.79-11.03 3.35-16.47c-2.19-2.19-4.57-3.14-6.99-3.14c-3.61 0-7.31 2.11-10.58 5.38L36.72 123L76 76.99c5.47-5.47 7.69-12.13 2.24-17.57c-2.19-2.19-4.57-3.14-6.99-3.14c-3.23 0-6.54 1.69-9.55 4.4l-1.03.98a31 31 0 0 1 1.03-.98l8.24-7.82c5.47-5.47 7.69-12.13 2.24-17.57c-2.19-2.19-4.57-3.14-6.99-3.14c-3.61 0-7.31 2.11-10.58 5.38L-.26 84.93l36.53-39.77c5.47-5.47 7.69-12.13 2.24-17.57c-2.18-2.18-4.56-3.14-6.98-3.14z"></path><linearGradient id="IconifyId17f59fb531fec6e679027" x1="56.31" x2="88.336" y1="50.544" y2="20.375" gradientUnits="userSpaceOnUse"><stop offset=".079" stop-color="#D32F2F"></stop><stop offset=".79" stop-color="#F44336"></stop></linearGradient><path fill="url(#IconifyId17f59fb531fec6e679027)" d="M73.95 47.31c-8.49 8.49-11.74 5.57-15.54 1.77s-6.72-7.06 1.77-15.54s18.45-12.28 22.26-8.48s0 13.76-8.49 22.25z"></path><linearGradient id="IconifyId17f59fb531fec6e679028" x1="19.06" x2="48.296" y1="31.662" y2="31.662" gradientUnits="userSpaceOnUse"><stop offset="0" stop-color="#D32F2F"></stop><stop offset=".644" stop-color="#F44336"></stop></linearGradient><path fill="url(#IconifyId17f59fb531fec6e679028)" d="M38.34 40.78c-8.49 8.49-11.74 5.57-15.54 1.77s-6.72-7.06 1.77-15.54s18.45-12.28 22.26-8.48c3.79 3.8 0 13.76-8.49 22.25z"></path><linearGradient id="IconifyId17f59fb531fec6e679029" x1="62.934" x2="92.314" y1="100.02" y2="100.02" gradientUnits="userSpaceOnUse"><stop offset="0" stop-color="#D32F2F"></stop><stop offset=".644" stop-color="#F44336"></stop></linearGradient><path fill="url(#IconifyId17f59fb531fec6e679029)" d="M81.59 109.09c-8.77 7.86-11.8 4.83-15.32.9s-6.21-7.27 2.56-15.13s18.73-11.05 22.25-7.12c3.52 3.92-.73 13.48-9.49 21.35z"></path><path fill="#875334" d="M10.33 108.83a1.5 1.5 0 0 1-1.02-2.6L58.2 60.4c.61-.56 2.34-.7 2.9-.09s.3 1.94-.3 2.5l-49.44 45.62c-.3.27-.66.4-1.03.4z"></path><linearGradient id="IconifyId17f59fb531fec6e679030" x1="59.693" x2="87.265" y1="63.768" y2="63.768" gradientUnits="userSpaceOnUse"><stop offset="0" stop-color="#D32F2F"></stop><stop offset=".644" stop-color="#F44336"></stop></linearGradient><path fill="url(#IconifyId17f59fb531fec6e679030)" d="M77.88 72.36c-8 8-11.07 5.25-14.66 1.67c-3.59-3.59-6.34-6.66 1.67-14.66c8-8 17.4-11.58 20.99-8c3.58 3.59 0 12.99-8 20.99z"></path></g><g clip-path="url(#IconifyId17f59fb531fec6e679025)"><path fill="#C62828" d="m108.955 28.321l5.546 2.29l-11.45 27.73l-5.546-2.29z"></path><linearGradient id="IconifyId17f59fb531fec6e679031" x1="479.04" x2="479.1" y1="-70.484" y2="-95.819" gradientTransform="matrix(1.142 .4716 -.3817 .9243 -461.88 -132.37)" gradientUnits="userSpaceOnUse"><stop offset=".167" stop-color="#F44336"></stop><stop offset=".696" stop-color="#D32F2F"></stop></linearGradient><path fill="url(#IconifyId17f59fb531fec6e679031)" d="m120.54 33.99l-18.26-7.54a5.767 5.767 0 0 1-3.13-7.54l16.97-41.09a5.767 5.767 0 0 1 7.54-3.13l18.26 7.54a5.767 5.767 0 0 1 3.13 7.54l-16.97 41.09c-1.21 2.95-4.59 4.35-7.54 3.13z"></path><radialGradient id="IconifyId17f59fb531fec6e679032" cx="563.66" cy="-18.419" r="12.201" gradientTransform="rotate(22.437 89.321 -1162.697)" gradientUnits="userSpaceOnUse"><stop offset="0" stop-color="#EF5350"></stop><stop offset="1" stop-color="#E53935"></stop></radialGradient><path fill="url(#IconifyId17f59fb531fec6e679032)" d="M80.26 80.33s3.93-1.87 6.32-4.34c3.51-3.64-.29-8.52 4.68-15.87c2.76-4.08 6.42-4.53 6.42-4.53l5.9 2.56s5.65 6.78-3.54 17.62c-8.58 10.11-19.78 4.56-19.78 4.56z"></path><linearGradient id="IconifyId17f59fb531fec6e679033" x1="479.04" x2="479.1" y1="-70.484" y2="-95.819" gradientTransform="matrix(1.142 .4716 -.3817 .9243 -461.88 -132.37)" gradientUnits="userSpaceOnUse"><stop offset="0" stop-color="#F44336"></stop><stop offset=".286" stop-color="#E53A33"></stop><stop offset=".66" stop-color="#D83230"></stop><stop offset="1" stop-color="#D32F2F"></stop></linearGradient><path fill="url(#IconifyId17f59fb531fec6e679033)" d="m120.54 33.99l-18.26-7.54a5.767 5.767 0 0 1-3.13-7.54l16.97-41.09a5.767 5.767 0 0 1 7.54-3.13l18.26 7.54a5.767 5.767 0 0 1 3.13 7.54l-16.97 41.09c-1.21 2.95-4.59 4.35-7.54 3.13z"></path><path fill="#424242" d="M121.46-22.75c.36 0 .72.07 1.06.21L140.78-15a2.77 2.77 0 0 1 1.5 3.62l-16.97 41.09a2.774 2.774 0 0 1-3.62 1.51l-18.26-7.54a2.77 2.77 0 0 1-1.5-3.62l16.97-41.09a2.754 2.754 0 0 1 2.56-1.72m0-3c-2.27 0-4.42 1.34-5.34 3.57l-16.97 41.1a5.776 5.776 0 0 0 3.13 7.54L120.54 34a5.769 5.769 0 0 0 7.54-3.13l16.97-41.09a5.776 5.776 0 0 0-3.13-7.54l-18.26-7.54c-.72-.3-1.47-.45-2.2-.45zm-24.04 84.5l4.13 1.79c.74 1.44 2.26 6.12-3.81 13.29c-2.72 3.2-6.02 4.89-9.81 5.01c.28-.25.54-.51.8-.77c2.41-2.49 2.51-5.36 2.61-7.88c.09-2.52.19-5.12 2.4-8.39c1.3-1.93 2.83-2.73 3.68-3.05m.25-3.16s-3.67.45-6.42 4.53c-4.97 7.35-1.17 12.23-4.68 15.87c-2.39 2.47-6.32 4.34-6.32 4.34s3.07 1.52 7.22 1.52c3.78 0 8.47-1.26 12.55-6.08c9.19-10.84 3.54-17.62 3.54-17.62l-5.89-2.56z" opacity=".2"></path></g></g><g clip-path="url(#IconifyId17f59fb531fec6e679023)" opacity=".2"><path fill="#424242" d="M78.28 26.57c.65 0 1.54.1 2.03.6c.9.9.78 3.33-.31 6.18c-1.43 3.76-4.41 8.07-8.17 11.83c-3.82 3.82-5.96 4.62-7.08 4.62c-1.27 0-2.5-1.13-4.22-2.86c-1.62-1.62-2.78-2.87-2.85-4.08c-.07-1.12.68-3.28 4.62-7.22c6.26-6.26 12.54-9.07 15.98-9.07m-.01-3c-4.8 0-11.85 3.71-18.1 9.96c-8.49 8.49-5.57 11.74-1.77 15.54c1.99 1.99 3.83 3.74 6.34 3.74c2.29 0 5.15-1.45 9.2-5.5c8.49-8.49 12.28-18.45 8.48-22.26c-1-1-2.43-1.48-4.15-1.48z"></path></g><g clip-path="url(#IconifyId17f59fb531fec6e679023)" opacity=".2"><path fill="#424242" d="M42.67 20.04c.65 0 1.54.1 2.03.6c1.9 1.9-.52 10.05-8.48 18.01c-3.82 3.82-5.96 4.62-7.08 4.62c-1.27 0-2.5-1.13-4.22-2.86c-1.62-1.62-2.78-2.87-2.85-4.08c-.07-1.12.68-3.28 4.62-7.22c6.26-6.26 12.54-9.07 15.98-9.07m0-3c-4.8 0-11.85 3.71-18.1 9.96c-8.49 8.49-5.57 11.74-1.77 15.54c1.99 1.99 3.83 3.74 6.34 3.74c2.29 0 5.15-1.45 9.2-5.5c8.49-8.49 12.28-18.45 8.48-22.26c-1-1-2.43-1.48-4.15-1.48z"></path></g><g clip-path="url(#IconifyId17f59fb531fec6e679023)" opacity=".2"><path fill="#424242" d="M86.56 89.05c.76 0 1.77.12 2.28.69c.82.91.56 3.26-.64 5.98c-1.6 3.6-4.74 7.66-8.62 11.14c-3.82 3.42-5.92 4.14-7.01 4.14c-1.18 0-2.21-.93-4.08-3.01c-1.5-1.67-2.56-2.94-2.56-4.11c-.01-1.09.83-3.15 4.89-6.79c5.45-4.88 11.62-8.04 15.74-8.04m0-3c-4.7 0-11.52 3.23-17.74 8.8c-8.77 7.86-6.08 11.2-2.56 15.13c1.92 2.14 3.68 4.01 6.31 4.01c2.2 0 5.01-1.32 9.01-4.91c8.77-7.86 13.01-17.42 9.49-21.35c-1.02-1.14-2.59-1.68-4.51-1.68z"></path></g><g clip-path="url(#IconifyId17f59fb531fec6e679023)" opacity=".2"><path fill="#424242" d="M81.96 52.98c.58 0 1.37.09 1.79.51c1.74 1.74-.56 9.31-8 16.75c-3.56 3.56-5.53 4.31-6.56 4.31c-1.13 0-2.26-1.05-3.86-2.64c-1.5-1.5-2.57-2.65-2.64-3.74c-.06-1.02.63-3.01 4.31-6.68c5.88-5.88 11.75-8.51 14.96-8.51m0-3c-4.53 0-11.18 3.5-17.07 9.39c-8 8-5.25 11.07-1.67 14.66c1.88 1.88 3.61 3.52 5.98 3.52c2.16 0 4.86-1.37 8.68-5.19c8-8 11.58-17.4 8-20.99c-.95-.94-2.3-1.39-3.92-1.39z"></path></g><defs><path id="IconifyId17f59fb531fec6e679034" d="M145 4h120v120H145z"></path></defs><clipPath id="IconifyId17f59fb531fec6e679035"><use href="#IconifyId17f59fb531fec6e679034"></use></clipPath><g clip-path="url(#IconifyId17f59fb531fec6e679035)"><defs><path id="IconifyId17f59fb531fec6e679036" d="M141 0h128v128H141z"></path></defs><clipPath id="IconifyId17f59fb531fec6e679037"><use href="#IconifyId17f59fb531fec6e679036"></use></clipPath><g clip-path="url(#IconifyId17f59fb531fec6e679037)"><radialGradient id="IconifyId17f59fb531fec6e679038" cx="-829.97" cy="-377.79" r="137.58" gradientTransform="scale(-1 1) rotate(-45 32.498 -934.92)" gradientUnits="userSpaceOnUse"><stop offset=".358" stop-color="#BA8D68"></stop><stop offset=".872" stop-color="#A47B62"></stop></radialGradient><path fill="url(#IconifyId17f59fb531fec6e679038)" d="M120.73 186.77c-11.49 0-22.52-5.2-32.79-15.47c-28.1-28.1-34.45-44.27-26.13-66.52c3.4-9.11 17.58-32.15 18.86-34.21c1.07-1.08 8.9-8.95 15.12-15.83c6.47-7.15 11.55-16.06 12.16-17.14a3.91 3.91 0 0 1 3.06-1.5c.67 0 1.31.18 1.87.53c7 4.32 9.36 9.53 7.23 15.93c-1.55 4.66-5.81 9.55-9.24 13.48c-3.98 4.57-6.61 7.59-5.63 10.13c.16.4.3.83.44 1.24c.64 1.88 1.31 3.83 3.11 3.83c.75 0 1.46-.39 2.1-1.17c1.06-1.12 34.54-32.64 52.09-49.14c3.27-3.27 6.56-4.98 9.55-4.98c2.15 0 4.14.91 5.93 2.7c2.2 2.2 3.06 4.71 2.56 7.44c-.47 2.57-2.13 5.34-4.8 8.01l-36.58 39.81c-.54.58-.53 1.49.03 2.06c.29.3.68.46 1.08.46c.35 0 .7-.12.98-.37l54.86-47.41c.03-.02.05-.05.08-.07c3.23-3.23 6.53-4.94 9.52-4.94c2.15 0 4.14.91 5.93 2.7c5.75 5.75 1.06 12.15-2.24 15.45l-8.21 7.79c-.59.56-.62 1.5-.07 2.11a1.502 1.502 0 0 0 2.1.1c2.92-2.63 5.87-4.01 8.54-4.01c2.15 0 4.14.91 5.93 2.7c2.2 2.2 3.06 4.71 2.56 7.44c-.47 2.57-2.13 5.34-4.8 8.01c-.03.03-.05.06-.08.09l-39.28 46.02a1.498 1.498 0 0 0 1.14 2.47c.35 0 .71-.12.99-.37l26.96-23.74c3.3-3.3 6.6-5.01 9.59-5.01c2.15 0 4.14.91 5.93 2.7c3.91 3.91 2.94 8.07-3.35 14.35c-.59.56-61.17 58.51-71.75 65.83c-5.58 3.87-14.53 8.5-25.35 8.5z"></path><path fill="#91674D" d="M172.53 27.45c1.76 0 3.35.74 4.87 2.26c2.53 2.53 4.19 6.89-2.24 13.33l-.09.09l-36.53 39.77a2.995 2.995 0 0 0 .06 4.12c.59.6 1.37.91 2.15.91c.7 0 1.4-.24 1.96-.73l54.86-47.41c.06-.05.11-.1.16-.15c2.9-2.9 5.91-4.5 8.46-4.5c1.76 0 3.35.74 4.87 2.26c2.53 2.53 4.19 6.88-2.22 13.3l-8.18 7.77c-.37.34-.75.7-1.12 1.06a3.012 3.012 0 0 0-.03 4.22c.59.6 1.37.91 2.15.91c.74 0 1.49-.27 2.07-.82l1-.95c2.63-2.36 5.22-3.6 7.51-3.6c1.76 0 3.35.74 4.87 2.26c1.86 1.86 2.56 3.86 2.14 6.11c-.42 2.27-1.94 4.77-4.39 7.22c-.06.06-.11.11-.16.17l-39.28 46.02a3.01 3.01 0 0 0 .18 4.09c.58.57 1.34.86 2.11.86c.71 0 1.41-.25 1.98-.75l26.97-23.74c.05-.04.09-.09.14-.13c2.9-2.9 5.91-4.5 8.46-4.5c1.76 0 3.35.74 4.87 2.26c2.25 2.25 3.84 5.04-3.32 12.21c-1.5 1.43-61.16 58.48-71.57 65.69c-5.43 3.76-14.08 8.23-24.52 8.23c-11.08 0-21.75-5.06-31.73-15.03c-14.27-14.27-22.36-24.88-26.22-34.4c-3.95-9.75-3.82-19.16.43-30.53c3.29-8.79 16.91-31 18.64-33.8c1.46-1.46 9-9.08 15.05-15.76c6.38-7.06 11.43-15.79 12.29-17.3c.45-.54 1.12-.85 1.81-.85a2 2 0 0 1 1.09.31c6.4 3.96 8.5 8.46 6.59 14.18c-1.46 4.37-5.61 9.14-8.94 12.97c-4.18 4.8-7.21 8.28-5.9 11.66c.15.38.29.79.42 1.18c.7 2.04 1.65 4.84 4.53 4.84c.82 0 2.03-.28 3.18-1.62c1.7-1.72 31.96-30.21 52.04-49.09c.02-.02.04-.04.07-.06c2.9-2.94 5.91-4.54 8.46-4.54m0-3c-3.61 0-7.31 2.11-10.58 5.38c0 0-51.53 48.45-52.22 49.27c-.36.44-.67.62-.95.62c-.95 0-1.44-2.26-2.15-4.11c-1.36-3.52 11.71-13.06 14.89-22.6c3.39-10.18-4.46-15.57-7.86-17.68c-.83-.51-1.75-.75-2.66-.75a5.4 5.4 0 0 0-4.31 2.18s-5.3 9.54-12.01 16.96s-15.19 15.9-15.19 15.9s-15.45 24.89-19.09 34.63c-8.92 23.87-.97 40.66 26.48 68.11c11.76 11.76 23.42 15.91 33.85 15.91c10.29 0 19.38-4.03 26.22-8.77c10.81-7.48 71.96-66.01 71.96-66.01c5.47-5.47 8.79-11.03 3.35-16.47c-2.19-2.19-4.57-3.14-6.99-3.14c-3.61 0-7.31 2.11-10.58 5.38L177.72 123L217 76.99c5.47-5.47 7.69-12.13 2.24-17.57c-2.19-2.19-4.57-3.14-6.99-3.14c-3.23 0-6.54 1.69-9.55 4.4l-1.03.98a31 31 0 0 1 1.03-.98l8.24-7.82c5.47-5.47 7.69-12.13 2.24-17.57c-2.19-2.19-4.57-3.14-6.99-3.14c-3.61 0-7.31 2.11-10.58 5.38l-54.86 47.41l36.53-39.77c5.47-5.47 7.69-12.13 2.24-17.57c-2.19-2.19-4.57-3.15-6.99-3.15z"></path><linearGradient id="IconifyId17f59fb531fec6e679039" x1="197.31" x2="229.34" y1="50.544" y2="20.375" gradientUnits="userSpaceOnUse"><stop offset=".079" stop-color="#D32F2F"></stop><stop offset=".79" stop-color="#F44336"></stop></linearGradient><path fill="url(#IconifyId17f59fb531fec6e679039)" d="M214.95 47.31c-8.49 8.49-11.74 5.57-15.54 1.77s-6.72-7.06 1.77-15.54s18.45-12.28 22.26-8.48c3.79 3.8 0 13.76-8.49 22.25z"></path><linearGradient id="IconifyId17f59fb531fec6e679040" x1="160.06" x2="189.3" y1="31.662" y2="31.662" gradientUnits="userSpaceOnUse"><stop offset="0" stop-color="#D32F2F"></stop><stop offset=".644" stop-color="#F44336"></stop></linearGradient><path fill="url(#IconifyId17f59fb531fec6e679040)" d="M179.34 40.78c-8.49 8.49-11.74 5.57-15.54 1.77s-6.72-7.06 1.77-15.54c8.49-8.49 18.45-12.28 22.26-8.48c3.79 3.8 0 13.76-8.49 22.25z"></path><linearGradient id="IconifyId17f59fb531fec6e679041" x1="203.93" x2="233.31" y1="100.02" y2="100.02" gradientUnits="userSpaceOnUse"><stop offset="0" stop-color="#D32F2F"></stop><stop offset=".644" stop-color="#F44336"></stop></linearGradient><path fill="url(#IconifyId17f59fb531fec6e679041)" d="M222.59 109.09c-8.77 7.86-11.8 4.83-15.32.9s-6.21-7.27 2.56-15.13s18.73-11.05 22.25-7.12c3.52 3.92-.73 13.48-9.49 21.35z"></path><path fill="#91674D" d="M151.33 108.83a1.5 1.5 0 0 1-1.02-2.6L199.2 60.4c.61-.56 2.34-.7 2.9-.09s.3 1.94-.3 2.5l-49.44 45.62c-.3.27-.66.4-1.03.4z"></path><linearGradient id="IconifyId17f59fb531fec6e679042" x1="200.69" x2="228.26" y1="63.768" y2="63.768" gradientUnits="userSpaceOnUse"><stop offset="0" stop-color="#D32F2F"></stop><stop offset=".644" stop-color="#F44336"></stop></linearGradient><path fill="url(#IconifyId17f59fb531fec6e679042)" d="M218.88 72.36c-8 8-11.07 5.25-14.66 1.67c-3.59-3.59-6.34-6.66 1.67-14.66c8-8 17.4-11.58 20.99-8c3.58 3.59 0 12.99-8 20.99z"></path></g><g clip-path="url(#IconifyId17f59fb531fec6e679037)"><path fill="#C62828" d="m249.957 28.321l5.546 2.29l-11.45 27.73l-5.546-2.29z"></path><linearGradient id="IconifyId17f59fb531fec6e679043" x1="584.52" x2="584.58" y1="-124.3" y2="-149.64" gradientTransform="matrix(1.142 .4716 -.3817 .9243 -461.88 -132.37)" gradientUnits="userSpaceOnUse"><stop offset=".167" stop-color="#F44336"></stop><stop offset=".696" stop-color="#D32F2F"></stop></linearGradient><path fill="url(#IconifyId17f59fb531fec6e679043)" d="m261.54 33.99l-18.26-7.54a5.767 5.767 0 0 1-3.13-7.54l16.97-41.09a5.767 5.767 0 0 1 7.54-3.13l18.26 7.54a5.767 5.767 0 0 1 3.13 7.54l-16.97 41.09c-1.21 2.95-4.59 4.35-7.54 3.13z"></path><radialGradient id="IconifyId17f59fb531fec6e679044" cx="693.99" cy="-72.239" r="12.201" gradientTransform="rotate(22.437 89.321 -1162.697)" gradientUnits="userSpaceOnUse"><stop offset="0" stop-color="#EF5350"></stop><stop offset="1" stop-color="#E53935"></stop></radialGradient><path fill="url(#IconifyId17f59fb531fec6e679044)" d="M221.26 80.33s3.93-1.87 6.32-4.34c3.51-3.64-.29-8.52 4.68-15.87c2.76-4.08 6.42-4.53 6.42-4.53l5.9 2.56s5.65 6.78-3.54 17.62c-8.58 10.11-19.78 4.56-19.78 4.56z"></path><linearGradient id="IconifyId17f59fb531fec6e679045" x1="584.52" x2="584.58" y1="-124.3" y2="-149.64" gradientTransform="matrix(1.142 .4716 -.3817 .9243 -461.88 -132.37)" gradientUnits="userSpaceOnUse"><stop offset="0" stop-color="#F44336"></stop><stop offset=".286" stop-color="#E53A33"></stop><stop offset=".66" stop-color="#D83230"></stop><stop offset="1" stop-color="#D32F2F"></stop></linearGradient><path fill="url(#IconifyId17f59fb531fec6e679045)" d="m261.54 33.99l-18.26-7.54a5.767 5.767 0 0 1-3.13-7.54l16.97-41.09a5.767 5.767 0 0 1 7.54-3.13l18.26 7.54a5.767 5.767 0 0 1 3.13 7.54l-16.97 41.09c-1.21 2.95-4.59 4.35-7.54 3.13z"></path><path fill="#424242" d="M262.46-22.75c.36 0 .72.07 1.06.21L281.78-15a2.77 2.77 0 0 1 1.5 3.62l-16.97 41.09a2.774 2.774 0 0 1-3.62 1.51l-18.26-7.54a2.77 2.77 0 0 1-1.5-3.62l16.97-41.09a2.754 2.754 0 0 1 2.56-1.72m0-3c-2.27 0-4.42 1.34-5.34 3.57l-16.97 41.09a5.776 5.776 0 0 0 3.13 7.54l18.26 7.54a5.769 5.769 0 0 0 7.54-3.13l16.97-41.09a5.776 5.776 0 0 0-3.13-7.54l-18.26-7.54c-.72-.29-1.47-.44-2.2-.44zm-24.04 84.5l4.13 1.79c.74 1.44 2.26 6.12-3.81 13.29c-2.72 3.2-6.02 4.89-9.81 5.01c.28-.25.54-.51.8-.77c2.41-2.49 2.51-5.36 2.61-7.88c.09-2.52.19-5.12 2.4-8.39c1.3-1.93 2.83-2.73 3.68-3.05m.25-3.16s-3.67.45-6.42 4.53c-4.97 7.35-1.17 12.23-4.68 15.87c-2.39 2.47-6.32 4.34-6.32 4.34s3.07 1.52 7.22 1.52c3.78 0 8.47-1.26 12.55-6.08c9.19-10.84 3.54-17.62 3.54-17.62l-5.89-2.56z" opacity=".2"></path></g></g><g clip-path="url(#IconifyId17f59fb531fec6e679035)" opacity=".2"><path fill="#424242" d="M219.28 26.57c.65 0 1.54.1 2.03.6c.9.9.78 3.33-.31 6.18c-1.43 3.76-4.41 8.07-8.17 11.83c-3.82 3.82-5.96 4.62-7.08 4.62c-1.27 0-2.5-1.13-4.22-2.86c-1.62-1.62-2.78-2.87-2.85-4.08c-.07-1.12.68-3.28 4.62-7.22c6.26-6.26 12.54-9.07 15.98-9.07m-.01-3c-4.8 0-11.85 3.71-18.1 9.96c-8.49 8.49-5.57 11.74-1.77 15.54c1.99 1.99 3.83 3.74 6.34 3.74c2.29 0 5.15-1.45 9.2-5.5c8.49-8.49 12.28-18.45 8.48-22.26c-1-1-2.43-1.48-4.15-1.48z"></path></g><g clip-path="url(#IconifyId17f59fb531fec6e679035)" opacity=".2"><path fill="#424242" d="M183.67 20.04c.65 0 1.54.1 2.03.6c1.9 1.9-.52 10.05-8.48 18.01c-3.82 3.82-5.96 4.62-7.08 4.62c-1.27 0-2.5-1.13-4.22-2.86c-1.62-1.62-2.78-2.87-2.85-4.08c-.07-1.12.68-3.28 4.62-7.22c6.26-6.26 12.54-9.07 15.98-9.07m0-3c-4.8 0-11.85 3.71-18.1 9.96c-8.49 8.49-5.57 11.74-1.77 15.54c1.99 1.99 3.83 3.74 6.34 3.74c2.29 0 5.15-1.45 9.2-5.5c8.49-8.49 12.28-18.45 8.48-22.26c-1-1-2.43-1.48-4.15-1.48z"></path></g><g clip-path="url(#IconifyId17f59fb531fec6e679035)" opacity=".2"><path fill="#424242" d="M227.56 89.05c.76 0 1.77.12 2.28.69c.82.91.56 3.26-.64 5.98c-1.6 3.6-4.74 7.66-8.62 11.14c-3.82 3.42-5.92 4.14-7.01 4.14c-1.18 0-2.21-.93-4.08-3.01c-1.5-1.67-2.56-2.94-2.56-4.11c-.01-1.09.83-3.15 4.89-6.79c5.45-4.88 11.62-8.04 15.74-8.04m0-3c-4.7 0-11.52 3.23-17.74 8.8c-8.77 7.86-6.08 11.2-2.56 15.13c1.92 2.14 3.68 4.01 6.31 4.01c2.2 0 5.01-1.32 9.01-4.91c8.77-7.86 13.01-17.42 9.49-21.35c-1.02-1.14-2.59-1.68-4.51-1.68z"></path></g><g clip-path="url(#IconifyId17f59fb531fec6e679035)" opacity=".2"><path fill="#424242" d="M222.96 52.98c.58 0 1.37.09 1.79.51c1.74 1.74-.56 9.31-8 16.75c-3.56 3.56-5.53 4.31-6.56 4.31c-1.13 0-2.26-1.05-3.86-2.64c-1.5-1.5-2.57-2.65-2.64-3.74c-.06-1.02.63-3.01 4.31-6.68c5.88-5.88 11.75-8.51 14.96-8.51m0-3c-4.53 0-11.18 3.5-17.07 9.39c-8 8-5.25 11.07-1.67 14.66c1.88 1.88 3.61 3.52 5.98 3.52c2.16 0 4.86-1.37 8.68-5.19c8-8 11.58-17.4 8-20.99c-.95-.94-2.3-1.39-3.92-1.39z"></path></g></svg>