<svg xmlns="http://www.w3.org/2000/svg" xmlns:xlink="http://www.w3.org/1999/xlink" aria-hidden="true" role="img" class="iconify iconify--noto" width="1em" height="1em" preserveAspectRatio="xMidYMid meet" viewBox="0 0 128 128"><path fill="#70534A" d="M121.31 36.89c-.85-.78-3.35-.57-10.44-1.47c-1.91-.24-6.38-1.38-8.33-1.65c2.87-.6 8.19-1.88 10.8-3.35c4.79-2.7 5.5-7.85 4.22-10.11c-1.04-1.82-2.04-1.43-4.12-1.1c-2.51.4-8.16 1.1-10.62 1.46c1.32-2.79 2.2-6.45.87-8.18c-1.46-1.9-3.61-1.79-5.36-1.26c-2.85.86-6.02 1.68-9.31 2.43c.59-1.36.64-2.59.04-4.17c-1.16-3.03-3.73-3.76-7.58-2.59c-7.09 2.3-31.94 8.56-37.64 8.34c-16.92-.64-26.2-1.34-33.65-.07l-2.78 2.7c-1.75 3.4-3.09 7.84-3.33 13.73c-.51 12 1.87 13.07 1.87 13.07s9.54 8.48 15.85 13.06c10.39 7.54 15.04 16.95 17.54 22c1.04 2.11 1.67 3.38 2.46 4.08c.92.82 2.31 1.24 3.81 1.24c1.11 0 2.28-.23 3.37-.7c3.19-1.39 2.58-3.2 2.56-7.08c.01-4.71-6.74-20.59-7.6-23.07c-.7-2.03 3.41-2.36 5.36-2.99c5.97-1.92 20.72-3.63 36.21-3.24c11.4.28 22.33.81 27.98-.34c6.36-1.29 7.93-3.78 8.5-6.06c.46-1.9.57-3.61-.68-4.68z"></path><path fill="#4A2F27" d="M122.51 36.1c.55-.8-11.95-1.91-15.78-2.57c7.69-1.3 15.84-6.23 12.15-13.93c-2.54-4.15-8.78-.59-12.66-.63c1.38-2.98.56-5.98-.82-7.83c-3.23-4.13-10.58.88-15.32 1.26c1.86-4.8-2.14-9.6-7.88-7.24c-7.41 2.46-33.36 9.16-39.31 8.93c-12.64.2-31.71-3.26-35.49 3.79c22.64-3.22 30.27 1.86 44.49-1.62c7.53-1.41 31.57-7.79 31.57-7.79c3.18-.87 3.22 2.57 2.05 4.95c-16.05 3.44-33.17 5.54-33.17 5.54c8.41 3.97 40.64-2.46 47.07-4.88c1.41-.39 3.95-1.2 3.93 2.12c-.01 1.74-.75 2.65-2.04 3.48c-13.76 1.97-26.62 3.13-38.04 1.91c5.94 5.71 36.36 2.91 48.6.15c3.75-.68 4.03.09 4.23.58c.69 1.72.09 3.75-3 5.18c-5.54 2.56-12.91 3.53-19.93 3.96c-14.73-2.36-27.07-4.7-27.07-4.7c8.65 9.71 39.38 10.1 51.66 12.08c1.95.06 1.65 2.27 1.08 3.4c-3.86 5.82-20.79 2.27-32.42 2.88c-15.51.06-31.51.6-40.71 3.82c-7.61 2.22-3.28 7.95-1.16 13.76c2.19 6.56 8.78 17.86 2.12 21.73c-3.74 1.21-3.3-.12-4.88-3.04c-6.85-17.57-23.77-27.85-37.15-39.47c1.13 6.9 6.77 11.55 15.25 17.65C33.34 69.69 35.34 79.22 40.77 87.5c5.51 3.98 13.23-1.39 12.72-8.3c.01-5.04-2.92-12.22-5.28-17.98c-.96-2.35-1.3-3.12-2.19-5.77c-.73-2.17.55-2.18 2.59-2.86c6.23-2.06 21.64-3.89 37.82-3.47c14.45-.47 35.13 4.34 37.39-7.96c.48-2.03-.01-3.91-1.31-5.06z"></path></svg>