<svg xmlns="http://www.w3.org/2000/svg" xmlns:xlink="http://www.w3.org/1999/xlink" aria-hidden="true" role="img" class="iconify iconify--noto" width="1em" height="1em" preserveAspectRatio="xMidYMid meet" viewBox="0 0 128 128"><path fill="#FFCA28" d="M113.33 100.54c2.21-.73 6.09-1.68 6.76-1.9c2.22-.74 2.73-1.76 2.51-3.78c-.29-2.66-3.77-5.09-7.3-6.05a23.1 23.1 0 0 0-4.65-.76c.03-.05.06-.11.07-.16c0-3.27-1.7-4.37-3.83-5.61c-3.7-2.16-7.97-.09-12.4 1.67c-.38-.55-1.32-2.25-2.13-2.77c-1.67-1.08-5.4-3.72-14.65 2.1c-6.62 4.16-12.79 6.65-16.8 6.65c-5.76.07-14.28-2.69-16.17-4.81c1.04-4.34 4.77-9.04 7.24-11.59c5.32-5.51 8.68-9.41 8.28-14.07c-.38-4.37-4.43-7.01-7.83-3.77c-1.93 1.84-7.97 8.71-21.06 14.63c-3.47 1.57-6.65 3.9-10.77 7.7c-7.09 6.53-12.97 6.94-12.97 6.94s-.71.58-1.1 1.61C5.6 89.08 4 94.51 4 102.55c0 7.02 1.22 11.67 2.15 14.2c.58 1.57 1.2 2.36 1.2 2.36s4.57 1.07 13.49.69c9.42-.4 26.6-1.21 40.52-4.8c17.84-4.6 42.85-2.47 53.98-1.43c1.57.15 4.43.53 5.79-.68c1.15-1.02.83-2.56.86-3.6c.1-3.22-4.68-6.69-8.66-8.75z"></path><g fill="#EDA600"><path d="M123.87 94.9c-.3-2.73-2.22-5.93-5.84-6.9c-1.64-.44-3.22-.68-4.77-.77c.03-.05.06-.11.08-.16c0-3.36-1.74-4.48-3.92-5.75c-3.79-2.21-8.57-1.19-13.11.62c-.39-.57-.96-1.21-1.78-1.74c-1.71-1.11-7.02-4.67-16.51 1.3c-9.13 5.74-17.19 8.16-17.26 8.18l3.23 2.48c.32-.1 6.48-1.4 16.06-7.43c5.85-3.69 9.04-3.13 10.57-2.35c.95.49 1.39.99 1.59 1.4c-3.09 1.5-5.86 3.01-7.84 3.62c-4.21 1.3-13.69 3.41-14.66 3.65l1.86 3.48c.95-.24 10.02-2.55 14.36-3.66c4.34-1.11 14.28-7.91 19.77-7.16c2.32.32 3.59 1.79 3.79 3.36c.01.1.01.17 0 .25c-5.53.56-10.57 2.89-15.62 5.15c-3.53 1.58-5.32 3.15-10.57 3.41l.42 3.79c3.06-.34 6.51-1.84 10.49-3.57c7.03-3.06 15.06-6.75 22.84-4.41c3.55 1.07 3.95 4.19 3.02 4.4c-.92.21-6.63 2.15-8.9 2.81l1.07 3.66c6.1-1.78 8.68-2.81 9.8-3.19c2.26-.77 2.05-2.4 1.83-4.47z"></path><path d="M116.68 100.29c-6.72-2.6-16.49-3.81-30.75-3.81c-.63 0-2.38-.74-4.22-1.52c-3.05-1.29-7.24-3.05-12.93-4.54c-2.87-.75-6.05-1.22-9.13-1.67c-5.39-.79-10.94-1.6-12.89-3.78c1.07-4.45 4.25-8.45 6.78-11.07c5.46-5.65 8.78-9.35 8.37-14.12c-.39-4.48-2.68-6.04-4.01-6.56c-2.05-.81-4.59-.32-6.32 1.23c-2.04 1.82-6.17 8.52-19.6 14.6c-3.56 1.61-6.82 4-11.04 7.89c-3.69 3.39-7.2 5.12-9.7 6.14c-.59.24-1.01.37-1.9.6c-1.56.39-2.29 1.28-2.8 2.69c-.28.76-.64 2.13-.64 2.13l1.31-.25c6.29-1.03 12.42-4.7 16.39-8.57c3.76-3.65 6.91-5.82 10.25-7.3c8.81-3.9 18.17-13.2 20.27-15.08c.55-.49 1.57-.84 2.38-.52c.89.35 1.46 1.54 1.62 3.35c.26 2.97-2.03 5.68-7.31 11.14c-2.68 2.78-8.06 7.36-8.17 14.3c-.03 1.6.99 3.03 2.48 3.62c2.6 1.04 7.38 2.6 13.99 3.35c2.99.34 6.05.89 8.72 1.58c5.43 1.42 9.46 3.12 12.41 4.37c2.59 1.09 4.3 1.81 5.7 1.81c13.78 0 23.11 1.13 29.38 3.55c3.54 1.37 5.27 3.9 5.14 6.21c-.07 1.26-1.54 1.21-2.67 1.11c-11.61-1.09-40.66-3.1-59.53 1.77c-19.31 4.98-47.73 4.52-52.18 3.58c0 0 .37 1.09.77 1.9c.83 1.68 1.95 2.38 3.49 2.47c2.78.16 7.32.36 10.71.21c9.66-.41 23.9-.8 38.16-4.48c18.29-4.72 46.81-2.73 58.22-1.66c1.61.15 3.62.34 5.02-.9c1.18-1.05 1.36-2.58 1.39-3.65c.12-3.61-2.31-8.24-7.16-10.12z"></path></g></svg>