<svg xmlns="http://www.w3.org/2000/svg" xmlns:xlink="http://www.w3.org/1999/xlink" aria-hidden="true" role="img" class="iconify iconify--noto" width="1em" height="1em" preserveAspectRatio="xMidYMid meet" viewBox="0 0 128 128"><radialGradient id="IconifyId17f59fb531fec6e6716391" cx="83.965" cy="20.935" r="104.531" gradientUnits="userSpaceOnUse"><stop offset=".244" stop-color="#E1F5FE"></stop><stop offset=".402" stop-color="#CFEEFC"></stop><stop offset=".716" stop-color="#A0DDF8"></stop><stop offset=".957" stop-color="#78CEF5"></stop></radialGradient><path fill="url(#IconifyId17f59fb531fec6e6716391)" d="M11.57 11.44h104.9v104.9H11.57z"></path><linearGradient id="IconifyId17f59fb531fec6e6716392" x1="54.325" x2="48.872" y1="46.243" y2="25.222" gradientUnits="userSpaceOnUse"><stop offset=".113" stop-color="#FFF" stop-opacity="0"></stop><stop offset=".868" stop-color="#FFF"></stop></linearGradient><path fill="url(#IconifyId17f59fb531fec6e6716392)" d="M90.95 11.44L11.53 50.19l.09 45.86l89.3-84.61z"></path><linearGradient id="IconifyId17f59fb531fec6e6716393" x1="83.469" x2="58.667" y1="77.035" y2="51.154" gradientUnits="userSpaceOnUse"><stop offset=".113" stop-color="#FFF" stop-opacity="0"></stop><stop offset=".868" stop-color="#FFF"></stop></linearGradient><path fill="url(#IconifyId17f59fb531fec6e6716393)" d="m105.56 11.44l-80.1 105.1l48.94-.2l42.07-96.42v-8.48z"></path><linearGradient id="IconifyId17f59fb531fec6e6716394" x1="63.902" x2="44.204" y1="68.618" y2="42.012" gradientUnits="userSpaceOnUse"><stop offset=".229" stop-color="#FFF" stop-opacity="0"></stop><stop offset=".719" stop-color="#FFF"></stop></linearGradient><path fill="url(#IconifyId17f59fb531fec6e6716394)" d="M11.61 93.25L98 11.44h11.23L22 116.56l-10.43-.22z"></path><path fill="#D68B52" d="M4 7.53v112.93a3.53 3.53 0 0 0 3.53 3.53h112.93a3.53 3.53 0 0 0 3.53-3.53V7.53A3.53 3.53 0 0 0 120.46 4H7.53A3.53 3.53 0 0 0 4 7.53zm54.01 52.66H17.14c-1.15 0-2.08-.93-2.08-2.08V16.56c0-1.15.93-2.08 2.08-2.08h40.87c1.15 0 2.08.93 2.08 2.08v41.56c0 1.14-.93 2.07-2.08 2.07zm52.76 0H69.9c-1.15 0-2.08-.93-2.08-2.08V16.56c0-1.15.93-2.08 2.08-2.08h40.87c1.15 0 2.08.93 2.08 2.08v41.56c0 1.14-.93 2.07-2.08 2.07zm-52.76 53.34H17.14c-1.15 0-2.08-.93-2.08-2.08V69.89c0-1.15.93-2.08 2.08-2.08h40.87c1.15 0 2.08.93 2.08 2.08v41.56c0 1.15-.93 2.08-2.08 2.08zm52.76 0H69.9c-1.15 0-2.08-.93-2.08-2.08V69.89c0-1.15.93-2.08 2.08-2.08h40.87c1.15 0 2.08.93 2.08 2.08v41.56c0 1.15-.93 2.08-2.08 2.08z"></path><path fill="#FFCCBC" d="M69.15 58.63V17.89l-3.18-4.18v48.1h48.1l-4.17-3.17z"></path><path fill="#B25B47" d="M65.97 13.71v10.46l3.18-3.19v-3.09h40.75v40.75l4.17 3.171L.07 13.71z"></path><linearGradient id="IconifyId17f59fb531fec6e6716395" x1="65.793" x2="70.129" y1="27.07" y2="31.406" gradientUnits="userSpaceOnUse"><stop offset="0" stop-color="#B25B47"></stop><stop offset="1" stop-color="#B25B47" stop-opacity="0"></stop></linearGradient><path fill="url(#IconifyId17f59fb531fec6e6716395)" d="M65.97 22.8v15.29l3.18-3.18V19.59z"></path><path fill="#FFCCBC" d="M18.1 17.89h40.75v40.75H18.1V17.89m-4.17-4.18v48.1h48.1v-48.1h-48.1z"></path><path fill="#B25B47" d="M13.93 13.71v17.98l4.17-3.17V17.972L.14 17.89h58.71v40.75l3.18 3.17v-48.1z"></path><linearGradient id="IconifyId17f59fb531fec6e6716396" x1="14.14" x2="18.746" y1="34.577" y2="39.184" gradientUnits="userSpaceOnUse"><stop offset="0" stop-color="#B25B47"></stop><stop offset="1" stop-color="#B25B47" stop-opacity="0"></stop></linearGradient><path fill="url(#IconifyId17f59fb531fec6e6716396)" d="M13.93 30.41V45.7l4.17-3.18V27.2z"></path><path fill="#FFCCBC" d="M109.9 110.11H69.15V69.36h40.75v40.75m4.17 4.18v-48.1h-48.1v48.1h48.1z"></path><path fill="#B25B47" d="M66.04 66.19h-.07v8.1h3.18v-4.93h40.75v40.671L.07 114.2l114-48.01z"></path><linearGradient id="IconifyId17f59fb531fec6e6716397" x1="64.633" x2="69.867" y1="80.088" y2="85.322" gradientUnits="userSpaceOnUse"><stop offset="0" stop-color="#B25B47"></stop><stop offset="1" stop-color="#B25B47" stop-opacity="0"></stop></linearGradient><path fill="url(#IconifyId17f59fb531fec6e6716397)" d="M65.97 73.77v18.5l3.18-3.19V73.77z"></path><path fill="#FFCCBC" d="M58.85 84.37v25.74l-40.75-.08V69.36h40.69l3.17-3.17l-48.03.001l-13 48.009l61.1-.1V81.09z"></path><path fill="#B25B47" d="M61.96 66.19H13.93v16.83l4.17-.03V69.36l40.69.006l-58-.006h58.06v11.57h3.18V66.19z"></path><linearGradient id="IconifyId17f59fb531fec6e6716398" x1="57.511" x2="62.745" y1="86.809" y2="92.043" gradientUnits="userSpaceOnUse"><stop offset="0" stop-color="#B25B47"></stop><stop offset="1" stop-color="#B25B47" stop-opacity="0"></stop></linearGradient><path fill="url(#IconifyId17f59fb531fec6e6716398)" d="M58.85 80.49v18.5l3.18-3.19V80.49z"></path><linearGradient id="IconifyId17f59fb531fec6e6716399" x1="12.968" x2="18.481" y1="88.761" y2="94.274" gradientUnits="userSpaceOnUse"><stop offset="0" stop-color="#B25B47"></stop><stop offset="1" stop-color="#B25B47" stop-opacity="0"></stop></linearGradient><path fill="url(#IconifyId17f59fb531fec6e6716399)" d="M13.93 82.55v18.51l4.17-3.19V82.55z"></path></svg>