<svg xmlns="http://www.w3.org/2000/svg" xmlns:xlink="http://www.w3.org/1999/xlink" aria-hidden="true" role="img" class="iconify iconify--fe" width="1em" height="1em" preserveAspectRatio="xMidYMid meet" viewBox="0 0 24 24" data-icon="fe:beer"><path fill="currentColor" fill-rule="evenodd" d="M17 16v3c0 1.1-.9 2-2 2H5c-1.1 0-2-.9-2-2V5a2 2 0 0 1 2-2h10a2 2 0 0 1 2 2v2h2a2 2 0 0 1 2 2v5a2 2 0 0 1-2 2h-2ZM5 5v3h10V5H5Zm0 5v9h10v-9H5Zm4 6a1 1 0 0 1-2 0v-3a1 1 0 0 1 2 0v3Zm4 0a1 1 0 0 1-2 0v-3a1 1 0 0 1 2 0v3Zm4-7h2v5h-2V9Z"></path></svg>