<svg xmlns="http://www.w3.org/2000/svg" xmlns:xlink="http://www.w3.org/1999/xlink" aria-hidden="true" role="img" class="iconify iconify--fe" width="1em" height="1em" preserveAspectRatio="xMidYMid meet" viewBox="0 0 24 24" data-icon="fe:calendar"><path fill="currentColor" fill-rule="evenodd" d="M8 4h8V2h2v2h1a2 2 0 0 1 2 2v14a2 2 0 0 1-2 2H5a2 2 0 0 1-2-2V6a2 2 0 0 1 2-2h1V2h2v2ZM5 8v12h14V8H5Zm2 3h2v2H7v-2Zm4 0h2v2h-2v-2Zm4 0h2v2h-2v-2Zm0 4h2v2h-2v-2Zm-4 0h2v2h-2v-2Zm-4 0h2v2H7v-2Z"></path></svg>