<svg xmlns="http://www.w3.org/2000/svg" xmlns:xlink="http://www.w3.org/1999/xlink" aria-hidden="true" role="img" class="iconify iconify--fe" width="1em" height="1em" preserveAspectRatio="xMidYMid meet" viewBox="0 0 24 24" data-icon="fe:coffee"><path fill="currentColor" fill-rule="evenodd" d="M4 17h16a1 1 0 0 1 0 2H4a1 1 0 0 1 0-2ZM17 7h1a2 2 0 1 1 0 4h-1c-.033 0-.067 0-.1-.002A5.002 5.002 0 0 1 12 15h-2a5 5 0 0 1-5-5V7a2 2 0 0 1 2-2h8a2 2 0 0 1 2 2ZM7 7v3a3 3 0 0 0 3 3h2a3 3 0 0 0 3-3V7H7Z"></path></svg>