<svg xmlns="http://www.w3.org/2000/svg" xmlns:xlink="http://www.w3.org/1999/xlink" aria-hidden="true" role="img" class="iconify iconify--fe" width="1em" height="1em" preserveAspectRatio="xMidYMid meet" viewBox="0 0 24 24" data-icon="fe:donut"><path fill="currentColor" fill-rule="evenodd" d="M12 16a4 4 0 1 0 0-8a4 4 0 0 0 0 8Zm0 6C6.477 22 2 17.523 2 12S6.477 2 12 2s10 4.477 10 10s-4.477 10-10 10Zm0-18h2v2h-2V4Zm6 5h2v2h-2V9ZM5 14a1 1 0 1 0 0-2a1 1 0 0 0 0 2Zm4-7a1 1 0 1 0 0-2a1 1 0 0 0 0 2Zm8 1a1 1 0 1 0 0-2a1 1 0 0 0 0 2Zm2 7a1 1 0 1 0 0-2a1 1 0 0 0 0 2Zm-4 2h2v2h-2v-2Zm-4 3a1 1 0 1 0 0-2a1 1 0 0 0 0 2Zm-5-4h2v2H6v-2ZM5 8h2v2H5V8Z"></path></svg>