<svg xmlns="http://www.w3.org/2000/svg" xmlns:xlink="http://www.w3.org/1999/xlink" aria-hidden="true" role="img" class="iconify iconify--fe" width="1em" height="1em" preserveAspectRatio="xMidYMid meet" viewBox="0 0 24 24" data-icon="fe:equalizer"><path fill="currentColor" fill-rule="evenodd" d="M13.17 7a3.001 3.001 0 0 1 5.66 0H21a1 1 0 0 1 0 2h-2.17a3.001 3.001 0 0 1-5.66 0H3a1 1 0 1 1 0-2h10.17Zm-8 8a3.001 3.001 0 0 1 5.66 0H21a1 1 0 0 1 0 2H10.83a3.001 3.001 0 0 1-5.66 0H3a1 1 0 0 1 0-2h2.17ZM16 9a1 1 0 1 0 0-2a1 1 0 0 0 0 2Zm-8 8a1 1 0 1 0 0-2a1 1 0 0 0 0 2Z"></path></svg>