<svg xmlns="http://www.w3.org/2000/svg" xmlns:xlink="http://www.w3.org/1999/xlink" aria-hidden="true" role="img" class="iconify iconify--fe" width="1em" height="1em" preserveAspectRatio="xMidYMid meet" viewBox="0 0 24 24" data-icon="fe:feed"><path fill="currentColor" fill-rule="evenodd" d="M6 19a1 1 0 1 0 0-2a1 1 0 0 0 0 2Zm0 2a3 3 0 1 1 0-6a3 3 0 0 1 0 6Zm12.971 0C18.473 12.408 11.592 5.527 3 5.029V3c9.941 0 18 8.059 18 18h-2.029Zm-5.012 0C13.478 15.17 8.829 10.522 3 10.041V8c7.18 0 13 5.82 13 13h-2.041Z"></path></svg>