<svg xmlns="http://www.w3.org/2000/svg" xmlns:xlink="http://www.w3.org/1999/xlink" aria-hidden="true" role="img" class="iconify iconify--fe" width="1em" height="1em" preserveAspectRatio="xMidYMid meet" viewBox="0 0 24 24" data-icon="fe:fork"><path fill="currentColor" fill-rule="evenodd" d="M9 7.83V12h3a3 3 0 0 0 3-3V7.83a3.001 3.001 0 1 1 2 0V9a5 5 0 0 1-5 5H9v2.17a3.001 3.001 0 1 1-2 0V7.83a3.001 3.001 0 1 1 2 0ZM8 20a1 1 0 1 0 0-2a1 1 0 0 0 0 2Zm8-14a1 1 0 1 0 0-2a1 1 0 0 0 0 2ZM8 6a1 1 0 1 0 0-2a1 1 0 0 0 0 2Z"></path></svg>