<svg xmlns="http://www.w3.org/2000/svg" xmlns:xlink="http://www.w3.org/1999/xlink" aria-hidden="true" role="img" class="iconify iconify--fe" width="1em" height="1em" preserveAspectRatio="xMidYMid meet" viewBox="0 0 24 24" data-icon="fe:gamepad"><path fill="currentColor" fill-rule="evenodd" d="M13 15h-2a5 5 0 1 1-4-8h10a5 5 0 1 1-4 8Zm-5-4v-1a1 1 0 1 0-2 0v1H5a1 1 0 0 0 0 2h1v1a1 1 0 0 0 2 0v-1h1a1 1 0 0 0 0-2H8Zm9 0a1 1 0 1 0 0-2a1 1 0 0 0 0 2Zm-1 3a1 1 0 1 0 0-2a1 1 0 0 0 0 2Zm3-1a1 1 0 1 0 0-2a1 1 0 0 0 0 2Z"></path></svg>