<svg xmlns="http://www.w3.org/2000/svg" xmlns:xlink="http://www.w3.org/1999/xlink" aria-hidden="true" role="img" class="iconify iconify--fe" width="1em" height="1em" preserveAspectRatio="xMidYMid meet" viewBox="0 0 24 24" data-icon="fe:gift"><path fill="currentColor" fill-rule="evenodd" d="M19 12v8a2 2 0 0 1-2 2H7a2 2 0 0 1-2-2v-8a2 2 0 0 1-2-2V8a2 2 0 0 1 2-2h1.17A3 3 0 1 1 12 5a3 3 0 1 1 5.83 1H19a2 2 0 0 1 2 2v2a2 2 0 0 1-2 2Zm-8-4H5v2h6V8Zm2 0v2h6V8h-6Zm-6 4v8h10v-8H7Zm2-6h1V5a1 1 0 1 0-1 1Zm6 0a1 1 0 1 0-1-1v1h1Z"></path></svg>