<svg xmlns="http://www.w3.org/2000/svg" xmlns:xlink="http://www.w3.org/1999/xlink" aria-hidden="true" role="img" class="iconify iconify--fe" width="1em" height="1em" preserveAspectRatio="xMidYMid meet" viewBox="0 0 24 24" data-icon="fe:list-task"><path fill="currentColor" fill-rule="evenodd" d="M9 13h10a1 1 0 0 1 0 2H9a1 1 0 0 1 0-2Zm0 4h10a1 1 0 0 1 0 2H9a1 1 0 0 1 0-2Zm6-8h4a1 1 0 0 1 0 2h-4a1 1 0 0 1 0-2Zm-7.257 1.914L4 7.172l1.414-1.415l2.329 2.329L12.828 3l1.415 1.414l-6.5 6.5Z"></path></svg>