<svg xmlns="http://www.w3.org/2000/svg" xmlns:xlink="http://www.w3.org/1999/xlink" aria-hidden="true" role="img" class="iconify iconify--fe" width="1em" height="1em" preserveAspectRatio="xMidYMid meet" viewBox="0 0 24 24" data-icon="fe:list-bullet"><path fill="currentColor" fill-rule="evenodd" d="M10 4h10a1 1 0 0 1 0 2H10a1 1 0 1 1 0-2Zm0 7h10a1 1 0 0 1 0 2H10a1 1 0 0 1 0-2Zm0 7h10a1 1 0 0 1 0 2H10a1 1 0 0 1 0-2ZM5 7a2 2 0 1 1 0-4a2 2 0 0 1 0 4Zm0 7a2 2 0 1 1 0-4a2 2 0 0 1 0 4Zm0 7a2 2 0 1 1 0-4a2 2 0 0 1 0 4Z"></path></svg>