<svg xmlns="http://www.w3.org/2000/svg" xmlns:xlink="http://www.w3.org/1999/xlink" aria-hidden="true" role="img" class="iconify iconify--fe" width="1em" height="1em" preserveAspectRatio="xMidYMid meet" viewBox="0 0 24 24" data-icon="fe:money"><path fill="currentColor" d="M4 5h16a2 2 0 0 1 2 2v10a2 2 0 0 1-2 2H4a2 2 0 0 1-2-2V7a2 2 0 0 1 2-2Zm14 2H6a2 2 0 0 1-2 2v6a2 2 0 0 1 2 2h12a2 2 0 0 1 2-2V9a2 2 0 0 1-2-2ZM8 9h2v6H8V9Zm6 4a1 1 0 1 0 0-2a1 1 0 0 0 0 2Zm0 2a3 3 0 1 1 0-6a3 3 0 0 1 0 6Z"></path></svg>