<svg xmlns="http://www.w3.org/2000/svg" xmlns:xlink="http://www.w3.org/1999/xlink" aria-hidden="true" role="img" class="iconify iconify--fe" width="1em" height="1em" preserveAspectRatio="xMidYMid meet" viewBox="0 0 24 24" data-icon="fe:open-mouth"><path fill="currentColor" d="M12 20a8 8 0 1 0 0-16a8 8 0 0 0 0 16Zm0 2C6.477 22 2 17.523 2 12S6.477 2 12 2s10 4.477 10 10s-4.477 10-10 10Zm0-5a2 2 0 1 0 0-4a2 2 0 0 0 0 4Zm2.5-6a1.5 1.5 0 1 0 0-3a1.5 1.5 0 0 0 0 3Zm-5 0a1.5 1.5 0 1 0 0-3a1.5 1.5 0 0 0 0 3Z"></path></svg>