<svg xmlns="http://www.w3.org/2000/svg" xmlns:xlink="http://www.w3.org/1999/xlink" aria-hidden="true" role="img" class="iconify iconify--fe" width="1em" height="1em" preserveAspectRatio="xMidYMid meet" viewBox="0 0 24 24" data-icon="fe:pizza"><path fill="currentColor" fill-rule="evenodd" d="M12 22C6.477 22 2 17.523 2 12S6.477 2 12 2s10 4.477 10 10s-4.477 10-10 10Zm0-2a8 8 0 1 0 0-16a8 8 0 0 0 0 16Zm-5-5h2v2l-2-2Zm10 0l-2 2v-2h2ZM9 7v2H7l2-2Zm6 0l2 2h-2V7Zm-2.5 2a1.5 1.5 0 1 0 0-3a1.5 1.5 0 0 0 0 3Zm-5 4a1.5 1.5 0 1 0 0-3a1.5 1.5 0 0 0 0 3Zm9 1a1.5 1.5 0 1 0 0-3a1.5 1.5 0 0 0 0 3ZM12 13a1 1 0 1 0 0-2a1 1 0 0 0 0 2Zm-.5 5a1.5 1.5 0 1 0 0-3a1.5 1.5 0 0 0 0 3Z"></path></svg>