<svg xmlns="http://www.w3.org/2000/svg" xmlns:xlink="http://www.w3.org/1999/xlink" aria-hidden="true" role="img" class="iconify iconify--fe" width="1em" height="1em" preserveAspectRatio="xMidYMid meet" viewBox="0 0 24 24" data-icon="fe:share"><path fill="currentColor" fill-rule="evenodd" d="M14.839 14.92a3 3 0 1 1-.8 1.599l-4.873-2.443a3 3 0 1 1 0-4.151l4.873-2.443a3 3 0 1 1 .8 1.599l-4.877 2.438a3.022 3.022 0 0 1 0 .962l4.877 2.438ZM17 8a1 1 0 1 0 0-2a1 1 0 0 0 0 2Zm0 10a1 1 0 1 0 0-2a1 1 0 0 0 0 2ZM7 13a1 1 0 1 0 0-2a1 1 0 0 0 0 2Z"></path></svg>