<svg xmlns="http://www.w3.org/2000/svg" xmlns:xlink="http://www.w3.org/1999/xlink" aria-hidden="true" role="img" class="iconify iconify--fe" width="1em" height="1em" preserveAspectRatio="xMidYMid meet" viewBox="0 0 24 24" data-icon="fe:smile-plus"><path fill="currentColor" fill-rule="evenodd" d="M10 22a8 8 0 1 1 0-16a8 8 0 0 1 0 16Zm0-2a6 6 0 1 0 0-12a6 6 0 0 0 0 12Zm3-5a3 3 0 0 1-6 0h6Zm-5-2a1 1 0 1 0 0-2a1 1 0 0 0 0 2Zm4 0a1 1 0 1 0 0-2a1 1 0 0 0 0 2Zm8-9h1a1 1 0 0 1 0 2h-1v1a1 1 0 0 1-2 0V6h-1a1 1 0 0 1 0-2h1V3a1 1 0 0 1 2 0v1Z"></path></svg>