<svg xmlns="http://www.w3.org/2000/svg" xmlns:xlink="http://www.w3.org/1999/xlink" aria-hidden="true" role="img" class="iconify iconify--fe" width="1em" height="1em" preserveAspectRatio="xMidYMid meet" viewBox="0 0 24 24"><path fill="currentColor" fill-rule="evenodd" d="M9.17 17a3.001 3.001 0 0 1 5.66 0H20l1 1l-1 1h-5.17a3.001 3.001 0 0 1-5.66 0H3l1-1l-1-1h6.17ZM12 19a1 1 0 1 0 0-2a1 1 0 0 0 0 2Zm2-7l-2 2l-2-2H7a2 2 0 0 1-2-2V5a2 2 0 0 1 2-2h10a2 2 0 0 1 2 2v5a2 2 0 0 1-2 2h-3ZM7 5v5h4l1 1l1-1h4V5H7Z"></path></svg>