<svg xmlns="http://www.w3.org/2000/svg" xmlns:xlink="http://www.w3.org/1999/xlink" aria-hidden="true" role="img" class="iconify iconify--fe" width="1em" height="1em" preserveAspectRatio="xMidYMid meet" viewBox="0 0 24 24"><path fill="currentColor" d="M8 20a2 2 0 0 1-2 2H4a2 2 0 0 1-2-2v-2a2 2 0 0 1 2-2V8a2 2 0 0 1-2-2V4a2 2 0 0 1 2-2h2a2 2 0 0 1 2 2h8a2 2 0 0 1 2-2h2a2 2 0 0 1 2 2v2a2 2 0 0 1-2 2v8a2 2 0 0 1 2 2v2a2 2 0 0 1-2 2h-2a2 2 0 0 1-2-2H8ZM8 6a2 2 0 0 1-2 2v8a2 2 0 0 1 2 2h8a2 2 0 0 1 2-2V8a2 2 0 0 1-2-2H8ZM4 4v2h2V4H4Zm14 0v2h2V4h-2Zm0 14v2h2v-2h-2ZM4 18v2h2v-2H4Z"></path></svg>