<svg xmlns="http://www.w3.org/2000/svg" xmlns:xlink="http://www.w3.org/1999/xlink" aria-hidden="true" role="img" class="iconify iconify--fe" width="1em" height="1em" preserveAspectRatio="xMidYMid meet" viewBox="0 0 24 24"><path fill="currentColor" d="M13 17.83V21a1 1 0 0 1-2 0v-3.17a3.001 3.001 0 0 1-.659-5.33A2.997 2.997 0 0 1 9 10c0-1.043.533-1.963 1.341-2.5a3 3 0 1 1 3.318 0A2.997 2.997 0 0 1 15 10a2.997 2.997 0 0 1-1.341 2.5A3.001 3.001 0 0 1 13 17.83ZM12 6a1 1 0 1 0 0-2a1 1 0 0 0 0 2Zm0 5a1 1 0 1 0 0-2a1 1 0 0 0 0 2Zm0 5a1 1 0 1 0 0-2a1 1 0 0 0 0 2Z"></path></svg>