<svg xmlns="http://www.w3.org/2000/svg" xmlns:xlink="http://www.w3.org/1999/xlink" aria-hidden="true" role="img" class="iconify iconify--heroicons-solid" width="1em" height="1em" preserveAspectRatio="xMidYMid meet" viewBox="0 0 20 20" data-icon="heroicons-solid:camera"><path fill="currentColor" fill-rule="evenodd" d="M4 5a2 2 0 0 0-2 2v8a2 2 0 0 0 2 2h12a2 2 0 0 0 2-2V7a2 2 0 0 0-2-2h-1.586a1 1 0 0 1-.707-.293l-1.121-1.121A2 2 0 0 0 11.172 3H8.828a2 2 0 0 0-1.414.586L6.293 4.707A1 1 0 0 1 5.586 5H4Zm6 9a3 3 0 1 0 0-6a3 3 0 0 0 0 6Z" clip-rule="evenodd"></path></svg>