<svg xmlns="http://www.w3.org/2000/svg" xmlns:xlink="http://www.w3.org/1999/xlink" aria-hidden="true" role="img" class="iconify iconify--heroicons-solid" width="1em" height="1em" preserveAspectRatio="xMidYMid meet" viewBox="0 0 20 20" data-icon="heroicons-solid:chart-bar"><path fill="currentColor" d="M2 11a1 1 0 0 1 1-1h2a1 1 0 0 1 1 1v5a1 1 0 0 1-1 1H3a1 1 0 0 1-1-1v-5Zm6-4a1 1 0 0 1 1-1h2a1 1 0 0 1 1 1v9a1 1 0 0 1-1 1H9a1 1 0 0 1-1-1V7Zm6-3a1 1 0 0 1 1-1h2a1 1 0 0 1 1 1v12a1 1 0 0 1-1 1h-2a1 1 0 0 1-1-1V4Z"></path></svg>