<svg xmlns="http://www.w3.org/2000/svg" xmlns:xlink="http://www.w3.org/1999/xlink" aria-hidden="true" role="img" class="iconify iconify--heroicons-solid" width="1em" height="1em" preserveAspectRatio="xMidYMid meet" viewBox="0 0 20 20" data-icon="heroicons-solid:chevron-double-up"><path fill="currentColor" fill-rule="evenodd" d="M4.293 15.707a1 1 0 0 1 0-1.414l5-5a1 1 0 0 1 1.414 0l5 5a1 1 0 0 1-1.414 1.414L10 11.414l-4.293 4.293a1 1 0 0 1-1.414 0Zm0-6a1 1 0 0 1 0-1.414l5-5a1 1 0 0 1 1.414 0l5 5a1 1 0 0 1-1.414 1.414L10 5.414L5.707 9.707a1 1 0 0 1-1.414 0Z" clip-rule="evenodd"></path></svg>