<svg xmlns="http://www.w3.org/2000/svg" xmlns:xlink="http://www.w3.org/1999/xlink" aria-hidden="true" role="img" class="iconify iconify--heroicons-solid" width="1em" height="1em" preserveAspectRatio="xMidYMid meet" viewBox="0 0 20 20" data-icon="heroicons-solid:chevron-double-left"><path fill="currentColor" fill-rule="evenodd" d="M15.707 15.707a1 1 0 0 1-1.414 0l-5-5a1 1 0 0 1 0-1.414l5-5a1 1 0 1 1 1.414 1.414L11.414 10l4.293 4.293a1 1 0 0 1 0 1.414Zm-6 0a1 1 0 0 1-1.414 0l-5-5a1 1 0 0 1 0-1.414l5-5a1 1 0 0 1 1.414 1.414L5.414 10l4.293 4.293a1 1 0 0 1 0 1.414Z" clip-rule="evenodd"></path></svg>