<svg xmlns="http://www.w3.org/2000/svg" xmlns:xlink="http://www.w3.org/1999/xlink" aria-hidden="true" role="img" class="iconify iconify--heroicons-solid" width="1em" height="1em" preserveAspectRatio="xMidYMid meet" viewBox="0 0 20 20" data-icon="heroicons-solid:clipboard-check"><g fill="currentColor"><path d="M9 2a1 1 0 0 0 0 2h2a1 1 0 1 0 0-2H9Z"></path><path fill-rule="evenodd" d="M4 5a2 2 0 0 1 2-2a3 3 0 0 0 3 3h2a3 3 0 0 0 3-3a2 2 0 0 1 2 2v11a2 2 0 0 1-2 2H6a2 2 0 0 1-2-2V5Zm9.707 5.707a1 1 0 0 0-1.414-1.414L9 12.586l-1.293-1.293a1 1 0 0 0-1.414 1.414l2 2a1 1 0 0 0 1.414 0l4-4Z" clip-rule="evenodd"></path></g></svg>