<svg xmlns="http://www.w3.org/2000/svg" xmlns:xlink="http://www.w3.org/1999/xlink" aria-hidden="true" role="img" class="iconify iconify--heroicons-solid" width="1em" height="1em" preserveAspectRatio="xMidYMid meet" viewBox="0 0 20 20" data-icon="heroicons-solid:cube"><path fill="currentColor" d="M11 17a1 1 0 0 0 1.447.894l4-2A1 1 0 0 0 17 15V9.236a1 1 0 0 0-1.447-.894l-4 2a1 1 0 0 0-.553.894V17Zm4.211-10.724a1 1 0 0 0 0-1.788l-4.764-2.382a1 1 0 0 0-.894 0L4.789 4.488a1 1 0 0 0 0 1.788l4.764 2.382a1 1 0 0 0 .894 0l4.764-2.382ZM4.447 8.342A1 1 0 0 0 3 9.236V15a1 1 0 0 0 .553.894l4 2A1 1 0 0 0 9 17v-5.764a1 1 0 0 0-.553-.894l-4-2Z"></path></svg>