<svg xmlns="http://www.w3.org/2000/svg" xmlns:xlink="http://www.w3.org/1999/xlink" aria-hidden="true" role="img" class="iconify iconify--heroicons-solid" width="1em" height="1em" preserveAspectRatio="xMidYMid meet" viewBox="0 0 20 20" data-icon="heroicons-solid:currency-pound"><path fill="currentColor" fill-rule="evenodd" d="M10 18a8 8 0 1 0 0-16a8 8 0 0 0 0 16Zm1-14a3 3 0 0 0-3 3v2H7a1 1 0 0 0 0 2h1v1a1 1 0 0 1-1 1a1 1 0 1 0 0 2h6a1 1 0 1 0 0-2H9.83c.11-.313.17-.65.17-1v-1h1a1 1 0 1 0 0-2h-1V7a1 1 0 1 1 2 0a1 1 0 1 0 2 0a3 3 0 0 0-3-3Z" clip-rule="evenodd"></path></svg>