<svg xmlns="http://www.w3.org/2000/svg" xmlns:xlink="http://www.w3.org/1999/xlink" aria-hidden="true" role="img" class="iconify iconify--heroicons-solid" width="1em" height="1em" preserveAspectRatio="xMidYMid meet" viewBox="0 0 20 20" data-icon="heroicons-solid:database"><g fill="currentColor"><path d="M3 12v3c0 1.657 3.134 3 7 3s7-1.343 7-3v-3c0 1.657-3.134 3-7 3s-7-1.343-7-3Z"></path><path d="M3 7v3c0 1.657 3.134 3 7 3s7-1.343 7-3V7c0 1.657-3.134 3-7 3S3 8.657 3 7Z"></path><path d="M17 5c0 1.657-3.134 3-7 3S3 6.657 3 5s3.134-3 7-3s7 1.343 7 3Z"></path></g></svg>