<svg xmlns="http://www.w3.org/2000/svg" xmlns:xlink="http://www.w3.org/1999/xlink" aria-hidden="true" role="img" class="iconify iconify--heroicons-solid" width="1em" height="1em" preserveAspectRatio="xMidYMid meet" viewBox="0 0 20 20" data-icon="heroicons-solid:desktop-computer"><path fill="currentColor" fill-rule="evenodd" d="M3 5a2 2 0 0 1 2-2h10a2 2 0 0 1 2 2v8a2 2 0 0 1-2 2h-2.22l.123.489l.804.804A1 1 0 0 1 13 18H7a1 1 0 0 1-.707-1.707l.804-.804L7.22 15H5a2 2 0 0 1-2-2V5Zm5.771 7H5V5h10v7H8.771Z" clip-rule="evenodd"></path></svg>