<svg xmlns="http://www.w3.org/2000/svg" xmlns:xlink="http://www.w3.org/1999/xlink" aria-hidden="true" role="img" class="iconify iconify--heroicons-solid" width="1em" height="1em" preserveAspectRatio="xMidYMid meet" viewBox="0 0 20 20" data-icon="heroicons-solid:document-duplicate"><g fill="currentColor"><path d="M9 2a2 2 0 0 0-2 2v8a2 2 0 0 0 2 2h6a2 2 0 0 0 2-2V6.414A2 2 0 0 0 16.414 5L14 2.586A2 2 0 0 0 12.586 2H9Z"></path><path d="M3 8a2 2 0 0 1 2-2v10h8a2 2 0 0 1-2 2H5a2 2 0 0 1-2-2V8Z"></path></g></svg>