<svg xmlns="http://www.w3.org/2000/svg" xmlns:xlink="http://www.w3.org/1999/xlink" aria-hidden="true" role="img" class="iconify iconify--heroicons-solid" width="1em" height="1em" preserveAspectRatio="xMidYMid meet" viewBox="0 0 20 20" data-icon="heroicons-solid:emoji-sad"><path fill="currentColor" fill-rule="evenodd" d="M10 18a8 8 0 1 0 0-16a8 8 0 0 0 0 16ZM7 9a1 1 0 1 0 0-2a1 1 0 0 0 0 2Zm7-1a1 1 0 1 1-2 0a1 1 0 0 1 2 0Zm-7.536 5.879a1 1 0 0 0 1.415 0a3 3 0 0 1 4.242 0a1 1 0 0 0 1.415-1.415a5 5 0 0 0-7.072 0a1 1 0 0 0 0 1.415Z" clip-rule="evenodd"></path></svg>