<svg xmlns="http://www.w3.org/2000/svg" xmlns:xlink="http://www.w3.org/1999/xlink" aria-hidden="true" role="img" class="iconify iconify--heroicons-solid" width="1em" height="1em" preserveAspectRatio="xMidYMid meet" viewBox="0 0 20 20" data-icon="heroicons-solid:hand"><path fill="currentColor" fill-rule="evenodd" d="M9 3a1 1 0 0 1 2 0v5.5a.5.5 0 0 0 1 0V4a1 1 0 1 1 2 0v4.5a.5.5 0 0 0 1 0V6a1 1 0 1 1 2 0v5a7 7 0 1 1-14 0V9a1 1 0 0 1 2 0v2.5a.5.5 0 0 0 1 0V4a1 1 0 0 1 2 0v4.5a.5.5 0 0 0 1 0V3Z" clip-rule="evenodd"></path></svg>