<svg xmlns="http://www.w3.org/2000/svg" xmlns:xlink="http://www.w3.org/1999/xlink" aria-hidden="true" role="img" class="iconify iconify--heroicons-solid" width="1em" height="1em" preserveAspectRatio="xMidYMid meet" viewBox="0 0 20 20" data-icon="heroicons-solid:identification"><path fill="currentColor" fill-rule="evenodd" d="M10 2a1 1 0 0 0-1 1v1a1 1 0 0 0 2 0V3a1 1 0 0 0-1-1ZM4 4h3a3 3 0 0 0 6 0h3a2 2 0 0 1 2 2v9a2 2 0 0 1-2 2H4a2 2 0 0 1-2-2V6a2 2 0 0 1 2-2Zm2.5 7a1.5 1.5 0 1 0 0-3a1.5 1.5 0 0 0 0 3Zm2.45 4a2.5 2.5 0 1 0-4.9 0h4.9ZM12 9a1 1 0 1 0 0 2h3a1 1 0 1 0 0-2h-3Zm-1 4a1 1 0 0 1 1-1h2a1 1 0 1 1 0 2h-2a1 1 0 0 1-1-1Z" clip-rule="evenodd"></path></svg>