<svg xmlns="http://www.w3.org/2000/svg" xmlns:xlink="http://www.w3.org/1999/xlink" aria-hidden="true" role="img" class="iconify iconify--heroicons-solid" width="1em" height="1em" preserveAspectRatio="xMidYMid meet" viewBox="0 0 20 20" data-icon="heroicons-solid:microphone"><path fill="currentColor" fill-rule="evenodd" d="M7 4a3 3 0 0 1 6 0v4a3 3 0 1 1-6 0V4Zm4 10.93A7.001 7.001 0 0 0 17 8a1 1 0 1 0-2 0A5 5 0 0 1 5 8a1 1 0 0 0-2 0a7.001 7.001 0 0 0 6 6.93V17H6a1 1 0 1 0 0 2h8a1 1 0 1 0 0-2h-3v-2.07Z" clip-rule="evenodd"></path></svg>