<svg xmlns="http://www.w3.org/2000/svg" xmlns:xlink="http://www.w3.org/1999/xlink" aria-hidden="true" role="img" class="iconify iconify--heroicons-solid" width="1em" height="1em" preserveAspectRatio="xMidYMid meet" viewBox="0 0 20 20" data-icon="heroicons-solid:music-note"><path fill="currentColor" d="M18 3a1 1 0 0 0-1.196-.98l-10 2A1 1 0 0 0 6 5v9.114A4.369 4.369 0 0 0 5 14c-1.657 0-3 .895-3 2s1.343 2 3 2s3-.895 3-2V7.82l8-1.6v5.894A4.37 4.37 0 0 0 15 12c-1.657 0-3 .895-3 2s1.343 2 3 2s3-.895 3-2V3Z"></path></svg>