<svg xmlns="http://www.w3.org/2000/svg" xmlns:xlink="http://www.w3.org/1999/xlink" aria-hidden="true" role="img" class="iconify iconify--heroicons-solid" width="1em" height="1em" preserveAspectRatio="xMidYMid meet" viewBox="0 0 20 20" data-icon="heroicons-solid:pencil-alt"><g fill="currentColor"><path d="M17.414 2.586a2 2 0 0 0-2.828 0L7 10.172V13h2.828l7.586-7.586a2 2 0 0 0 0-2.828Z"></path><path fill-rule="evenodd" d="M2 6a2 2 0 0 1 2-2h4a1 1 0 0 1 0 2H4v10h10v-4a1 1 0 1 1 2 0v4a2 2 0 0 1-2 2H4a2 2 0 0 1-2-2V6Z" clip-rule="evenodd"></path></g></svg>