<svg xmlns="http://www.w3.org/2000/svg" xmlns:xlink="http://www.w3.org/1999/xlink" aria-hidden="true" role="img" class="iconify iconify--heroicons-solid" width="1em" height="1em" preserveAspectRatio="xMidYMid meet" viewBox="0 0 20 20" data-icon="heroicons-solid:search-circle"><g fill="currentColor"><path d="M9 9a2 2 0 1 1 4 0a2 2 0 0 1-4 0Z"></path><path fill-rule="evenodd" d="M10 18a8 8 0 1 0 0-16a8 8 0 0 0 0 16Zm1-13a4 4 0 0 0-3.446 6.032l-2.261 2.26a1 1 0 1 0 1.414 1.415l2.261-2.261A4 4 0 1 0 11 5Z" clip-rule="evenodd"></path></g></svg>