<svg xmlns="http://www.w3.org/2000/svg" xmlns:xlink="http://www.w3.org/1999/xlink" aria-hidden="true" role="img" class="iconify iconify--heroicons-solid" width="1em" height="1em" preserveAspectRatio="xMidYMid meet" viewBox="0 0 20 20" data-icon="heroicons-solid:server"><path fill="currentColor" fill-rule="evenodd" d="M2 5a2 2 0 0 1 2-2h12a2 2 0 0 1 2 2v2a2 2 0 0 1-2 2H4a2 2 0 0 1-2-2V5Zm14 1a1 1 0 1 1-2 0a1 1 0 0 1 2 0ZM2 13a2 2 0 0 1 2-2h12a2 2 0 0 1 2 2v2a2 2 0 0 1-2 2H4a2 2 0 0 1-2-2v-2Zm14 1a1 1 0 1 1-2 0a1 1 0 0 1 2 0Z" clip-rule="evenodd"></path></svg>