<svg xmlns="http://www.w3.org/2000/svg" xmlns:xlink="http://www.w3.org/1999/xlink" aria-hidden="true" role="img" class="iconify iconify--heroicons-solid" width="1em" height="1em" preserveAspectRatio="xMidYMid meet" viewBox="0 0 20 20" data-icon="heroicons-solid:shield-exclamation"><path fill="currentColor" fill-rule="evenodd" d="M10 1.944A11.954 11.954 0 0 1 2.166 5C2.056 5.649 2 6.319 2 7c0 5.225 3.34 9.67 8 11.317C14.66 16.67 18 12.225 18 7c0-.682-.057-1.35-.166-2.001A11.954 11.954 0 0 1 10 1.944ZM11 14a1 1 0 1 1-2 0a1 1 0 0 1 2 0Zm0-7a1 1 0 1 0-2 0v3a1 1 0 1 0 2 0V7Z" clip-rule="evenodd"></path></svg>