<svg xmlns="http://www.w3.org/2000/svg" xmlns:xlink="http://www.w3.org/1999/xlink" aria-hidden="true" role="img" class="iconify iconify--heroicons-solid" width="1em" height="1em" preserveAspectRatio="xMidYMid meet" viewBox="0 0 20 20" data-icon="heroicons-solid:shopping-bag"><path fill="currentColor" fill-rule="evenodd" d="M10 2a4 4 0 0 0-4 4v1H5a1 1 0 0 0-.994.89l-1 9A1 1 0 0 0 4 18h12a1 1 0 0 0 .994-1.11l-1-9A1 1 0 0 0 15 7h-1V6a4 4 0 0 0-4-4Zm2 5V6a2 2 0 1 0-4 0v1h4Zm-6 3a1 1 0 1 1 2 0a1 1 0 0 1-2 0Zm7-1a1 1 0 1 0 0 2a1 1 0 0 0 0-2Z" clip-rule="evenodd"></path></svg>