<svg xmlns="http://www.w3.org/2000/svg" xmlns:xlink="http://www.w3.org/1999/xlink" aria-hidden="true" role="img" class="iconify iconify--heroicons-solid" width="1em" height="1em" preserveAspectRatio="xMidYMid meet" viewBox="0 0 20 20" data-icon="heroicons-solid:sort-ascending"><path fill="currentColor" d="M3 3a1 1 0 0 0 0 2h11a1 1 0 1 0 0-2H3Zm0 4a1 1 0 0 0 0 2h5a1 1 0 0 0 0-2H3Zm0 4a1 1 0 1 0 0 2h4a1 1 0 1 0 0-2H3Zm10 5a1 1 0 1 0 2 0v-5.586l1.293 1.293a1 1 0 0 0 1.414-1.414l-3-3a1 1 0 0 0-1.414 0l-3 3a1 1 0 1 0 1.414 1.414L13 10.414V16Z"></path></svg>