<svg xmlns="http://www.w3.org/2000/svg" xmlns:xlink="http://www.w3.org/1999/xlink" aria-hidden="true" role="img" class="iconify iconify--heroicons-solid" width="1em" height="1em" preserveAspectRatio="xMidYMid meet" viewBox="0 0 20 20"><path fill="currentColor" fill-rule="evenodd" d="M2 5a2 2 0 0 1 2-2h12a2 2 0 0 1 2 2v10a2 2 0 0 1-2 2H4a2 2 0 0 1-2-2V5Zm3.293 1.293a1 1 0 0 1 1.414 0l3 3a1 1 0 0 1 0 1.414l-3 3a1 1 0 0 1-1.414-1.414L7.586 10L5.293 7.707a1 1 0 0 1 0-1.414ZM11 12a1 1 0 1 0 0 2h3a1 1 0 1 0 0-2h-3Z" clip-rule="evenodd"></path></svg>