<svg xmlns="http://www.w3.org/2000/svg" xmlns:xlink="http://www.w3.org/1999/xlink" aria-hidden="true" role="img" class="iconify iconify--eva" width="1em" height="1em" preserveAspectRatio="xMidYMid meet" viewBox="0 0 24 24" data-icon="eva:arrow-circle-up-fill"><path fill="currentColor" d="M12 22A10 10 0 1 0 2 12a10 10 0 0 0 10 10ZM8.31 10.14l3-2.86a.49.49 0 0 1 .15-.1a.54.54 0 0 1 .16-.1a.94.94 0 0 1 .76 0a1 1 0 0 1 .33.21l3 3a1 1 0 0 1-1.42 1.42L13 10.41V16a1 1 0 0 1-2 0v-5.66l-1.31 1.25a1 1 0 0 1-1.38-1.45Z"></path></svg>