<svg xmlns="http://www.w3.org/2000/svg" xmlns:xlink="http://www.w3.org/1999/xlink" aria-hidden="true" role="img" class="iconify iconify--eva" width="1em" height="1em" preserveAspectRatio="xMidYMid meet" viewBox="0 0 24 24" data-icon="eva:arrow-circle-up-outline"><path fill="currentColor" d="M12.71 7.29a1 1 0 0 0-.32-.21A1 1 0 0 0 12 7h-.1a.82.82 0 0 0-.27.06a.72.72 0 0 0-.19.11a1 1 0 0 0-.13.09l-3 2.86a1 1 0 0 0 1.38 1.45L11 10.34V16a1 1 0 0 0 2 0v-5.59l1.29 1.3a1 1 0 0 0 1.42 0a1 1 0 0 0 0-1.42Z"></path><path fill="currentColor" d="M12 2a10 10 0 1 0 10 10A10 10 0 0 0 12 2Zm0 18a8 8 0 1 1 8-8a8 8 0 0 1-8 8Z"></path></svg>