<svg xmlns="http://www.w3.org/2000/svg" xmlns:xlink="http://www.w3.org/1999/xlink" aria-hidden="true" role="img" class="iconify iconify--eva" width="1em" height="1em" preserveAspectRatio="xMidYMid meet" viewBox="0 0 24 24" data-icon="eva:calendar-outline"><path fill="currentColor" d="M18 4h-1V3a1 1 0 0 0-2 0v1H9V3a1 1 0 0 0-2 0v1H6a3 3 0 0 0-3 3v12a3 3 0 0 0 3 3h12a3 3 0 0 0 3-3V7a3 3 0 0 0-3-3ZM6 6h1v1a1 1 0 0 0 2 0V6h6v1a1 1 0 0 0 2 0V6h1a1 1 0 0 1 1 1v4H5V7a1 1 0 0 1 1-1Zm12 14H6a1 1 0 0 1-1-1v-6h14v6a1 1 0 0 1-1 1Z"></path><circle cx="8" cy="16" r="1" fill="currentColor"></circle><path fill="currentColor" d="M16 15h-4a1 1 0 0 0 0 2h4a1 1 0 0 0 0-2Z"></path></svg>