<svg xmlns="http://www.w3.org/2000/svg" xmlns:xlink="http://www.w3.org/1999/xlink" aria-hidden="true" role="img" class="iconify iconify--eva" width="1em" height="1em" preserveAspectRatio="xMidYMid meet" viewBox="0 0 24 24" data-icon="eva:close-circle-outline"><path fill="currentColor" d="M12 2a10 10 0 1 0 10 10A10 10 0 0 0 12 2Zm0 18a8 8 0 1 1 8-8a8 8 0 0 1-8 8Z"></path><path fill="currentColor" d="M14.71 9.29a1 1 0 0 0-1.42 0L12 10.59l-1.29-1.3a1 1 0 0 0-1.42 1.42l1.3 1.29l-1.3 1.29a1 1 0 0 0 0 1.42a1 1 0 0 0 1.42 0l1.29-1.3l1.29 1.3a1 1 0 0 0 1.42 0a1 1 0 0 0 0-1.42L13.41 12l1.3-1.29a1 1 0 0 0 0-1.42Z"></path></svg>