<svg xmlns="http://www.w3.org/2000/svg" xmlns:xlink="http://www.w3.org/1999/xlink" aria-hidden="true" role="img" class="iconify iconify--eva" width="1em" height="1em" preserveAspectRatio="xMidYMid meet" viewBox="0 0 24 24"><path fill="currentColor" d="M5 2a3 3 0 1 0 3 3a3 3 0 0 0-3-3Zm7 0a3 3 0 1 0 3 3a3 3 0 0 0-3-3Zm7 6a3 3 0 1 0-3-3a3 3 0 0 0 3 3ZM5 9a3 3 0 1 0 3 3a3 3 0 0 0-3-3Zm7 0a3 3 0 1 0 3 3a3 3 0 0 0-3-3Zm7 0a3 3 0 1 0 3 3a3 3 0 0 0-3-3ZM5 16a3 3 0 1 0 3 3a3 3 0 0 0-3-3Zm7 0a3 3 0 1 0 3 3a3 3 0 0 0-3-3Zm7 0a3 3 0 1 0 3 3a3 3 0 0 0-3-3Z"></path></svg>