<svg xmlns="http://www.w3.org/2000/svg" xmlns:xlink="http://www.w3.org/1999/xlink" aria-hidden="true" role="img" class="iconify iconify--eva" width="1em" height="1em" preserveAspectRatio="xMidYMid meet" viewBox="0 0 24 24"><path fill="currentColor" d="M13 2a1 1 0 0 0-1 1v8a1 1 0 0 0 1 1h8a1 1 0 0 0 1-1a9 9 0 0 0-9-9Zm1 8V4.07A7 7 0 0 1 19.93 10Z"></path><path fill="currentColor" d="M20.82 14.06a1 1 0 0 0-1.28.61A8 8 0 1 1 9.33 4.46a1 1 0 0 0-.66-1.89a10 10 0 1 0 12.76 12.76a1 1 0 0 0-.61-1.27Z"></path></svg>