<svg xmlns="http://www.w3.org/2000/svg" xmlns:xlink="http://www.w3.org/1999/xlink" aria-hidden="true" role="img" class="iconify iconify--eva" width="1em" height="1em" preserveAspectRatio="xMidYMid meet" viewBox="0 0 24 24"><circle cx="12" cy="15.5" r="1.5" fill="currentColor"></circle><circle cx="12" cy="8" r="1" fill="currentColor"></circle><path fill="currentColor" d="M17 2H7a3 3 0 0 0-3 3v14a3 3 0 0 0 3 3h10a3 3 0 0 0 3-3V5a3 3 0 0 0-3-3Zm-5 3a3 3 0 1 1-3 3a3 3 0 0 1 3-3Zm0 14a3.5 3.5 0 1 1 3.5-3.5A3.5 3.5 0 0 1 12 19Z"></path></svg>