<svg xmlns="http://www.w3.org/2000/svg" xmlns:xlink="http://www.w3.org/1999/xlink" aria-hidden="true" role="img" class="iconify iconify--jam" width="1em" height="1em" preserveAspectRatio="xMidYMid meet" viewBox="-2 -2 24 24" data-icon="jam:arrow-circle-down-left-f"><path fill="currentColor" d="M6.172 12.828a.997.997 0 0 0 1 1h6a1 1 0 1 0 0-2H9.586l3.95-3.95a1 1 0 1 0-1.415-1.414l-3.95 3.95V6.828a1 1 0 1 0-2 0v6zM10 20C4.477 20 0 15.523 0 10S4.477 0 10 0s10 4.477 10 10s-4.477 10-10 10z"></path></svg>