<svg xmlns="http://www.w3.org/2000/svg" xmlns:xlink="http://www.w3.org/1999/xlink" aria-hidden="true" role="img" class="iconify iconify--jam" width="1em" height="1em" preserveAspectRatio="xMidYMid meet" viewBox="-2 -2 24 24" data-icon="jam:camera-alt-f"><path fill="currentColor" d="M20 12H0V6a6 6 0 0 1 6-6h8a6 6 0 0 1 6 6v6zm0 2a6 6 0 0 1-6 6H6a6 6 0 0 1-6-6h20zM6 15a1 1 0 0 0 0 2h8a1 1 0 0 0 0-2H6zm4-4a4 4 0 1 0 0-8a4 4 0 0 0 0 8zm6 0a1 1 0 1 0 0-2a1 1 0 0 0 0 2zm-6-2a2 2 0 1 1 0-4a2 2 0 0 1 0 4z"></path></svg>