<svg xmlns="http://www.w3.org/2000/svg" xmlns:xlink="http://www.w3.org/1999/xlink" aria-hidden="true" role="img" class="iconify iconify--jam" width="1em" height="1em" preserveAspectRatio="xMidYMid meet" viewBox="-2 -2.5 24 24" data-icon="jam:castle-f"><path fill="currentColor" d="M18 8v11h-3v-4a2 2 0 1 0-4 0v4H0v-8a1 1 0 0 1 1-1h4a1 1 0 0 1 1 1v1h2V8a2 2 0 0 1-2-2V1a1 1 0 0 1 1-1h4a1 1 0 0 1 1 1v1h2V1a1 1 0 0 1 1-1h4a1 1 0 0 1 1 1v5a2 2 0 0 1-2 2zm-6 1a1 1 0 0 0 0 2h2a1 1 0 0 0 0-2h-2z"></path></svg>