<svg xmlns="http://www.w3.org/2000/svg" xmlns:xlink="http://www.w3.org/1999/xlink" aria-hidden="true" role="img" class="iconify iconify--jam" width="1em" height="1em" preserveAspectRatio="xMidYMid meet" viewBox="-2 -2 24 24"><path fill="currentColor" d="M3 10a3 3 0 0 1-3-3V3a3 3 0 0 1 3-3h14a3 3 0 0 1 3 3v4a3 3 0 0 1-3 3a3 3 0 0 1 3 3v4a3 3 0 0 1-3 3H3a3 3 0 0 1-3-3v-4a3 3 0 0 1 3-3zm5 6a1 1 0 1 0 0-2a1 1 0 0 0 0 2zm-3 0a1 1 0 1 0 0-2a1 1 0 0 0 0 2zM5 6a1 1 0 1 0 0-2a1 1 0 0 0 0 2zm3 0a1 1 0 1 0 0-2a1 1 0 0 0 0 2z"></path></svg>