<svg xmlns="http://www.w3.org/2000/svg" xmlns:xlink="http://www.w3.org/1999/xlink" aria-hidden="true" role="img" class="iconify iconify--jam" width="1em" height="1em" preserveAspectRatio="xMidYMid meet" viewBox="-5 -2 24 24"><path fill="currentColor" d="M3 0h8a3 3 0 0 1 3 3v14a3 3 0 0 1-3 3H3a3 3 0 0 1-3-3V3a3 3 0 0 1 3-3zm0 2a1 1 0 0 0-1 1v14a1 1 0 0 0 1 1h8a1 1 0 0 0 1-1V3a1 1 0 0 0-1-1H3zm4 15a4 4 0 1 1 0-8a4 4 0 0 1 0 8zm0-2a2 2 0 1 0 0-4a2 2 0 0 0 0 4zm0-8a1 1 0 1 1 0-2a1 1 0 0 1 0 2z"></path></svg>