<svg xmlns="http://www.w3.org/2000/svg" xmlns:xlink="http://www.w3.org/1999/xlink" aria-hidden="true" role="img" class="iconify iconify--zondicons" width="1em" height="1em" preserveAspectRatio="xMidYMid meet" viewBox="0 0 20 20" data-icon="zondicons:border-vertical"><path fill="currentColor" d="M1 1h2v2H1V1zm0 4h2v2H1V5zm0 4h2v2H1V9zm0 4h2v2H1v-2zm0 4h2v2H1v-2zM5 1h2v2H5V1zm0 8h2v2H5V9zm0 8h2v2H5v-2zM9 1h2v18H9V1zm4 0h2v2h-2V1zm0 8h2v2h-2V9zm0 8h2v2h-2v-2zm4-16h2v2h-2V1zm0 4h2v2h-2V5zm0 4h2v2h-2V9zm0 4h2v2h-2v-2zm0 4h2v2h-2v-2z"></path></svg>