<svg xmlns="http://www.w3.org/2000/svg" xmlns:xlink="http://www.w3.org/1999/xlink" aria-hidden="true" role="img" class="iconify iconify--zondicons" width="1em" height="1em" preserveAspectRatio="xMidYMid meet" viewBox="0 0 20 20" data-icon="zondicons:calculator"><path fill="currentColor" d="M2 2c0-1.1.9-2 2-2h12a2 2 0 0 1 2 2v16a2 2 0 0 1-2 2H4a2 2 0 0 1-2-2V2zm3 1v2h10V3H5zm0 4v2h2V7H5zm4 0v2h2V7H9zm4 0v2h2V7h-2zm-8 4v2h2v-2H5zm4 0v2h2v-2H9zm4 0v6h2v-6h-2zm-8 4v2h2v-2H5zm4 0v2h2v-2H9z"></path></svg>