<svg xmlns="http://www.w3.org/2000/svg" xmlns:xlink="http://www.w3.org/1999/xlink" aria-hidden="true" role="img" class="iconify iconify--zondicons" width="1em" height="1em" preserveAspectRatio="xMidYMid meet" viewBox="0 0 20 20" data-icon="zondicons:dial-pad"><path fill="currentColor" d="M5 4a2 2 0 1 1 0-4a2 2 0 0 1 0 4zm5 0a2 2 0 1 1 0-4a2 2 0 0 1 0 4zm5 0a2 2 0 1 1 0-4a2 2 0 0 1 0 4zM5 9a2 2 0 1 1 0-4a2 2 0 0 1 0 4zm5 0a2 2 0 1 1 0-4a2 2 0 0 1 0 4zm5 0a2 2 0 1 1 0-4a2 2 0 0 1 0 4zM5 14a2 2 0 1 1 0-4a2 2 0 0 1 0 4zm5 0a2 2 0 1 1 0-4a2 2 0 0 1 0 4zm0 6a2 2 0 1 1 0-4a2 2 0 0 1 0 4zm5-6a2 2 0 1 1 0-4a2 2 0 0 1 0 4z"></path></svg>