<svg xmlns="http://www.w3.org/2000/svg" xmlns:xlink="http://www.w3.org/1999/xlink" aria-hidden="true" role="img" class="iconify iconify--zondicons" width="1em" height="1em" preserveAspectRatio="xMidYMid meet" viewBox="0 0 20 20" data-icon="zondicons:mood-happy-outline"><path fill="currentColor" d="M10 20a10 10 0 1 1 0-20a10 10 0 0 1 0 20zm0-2a8 8 0 1 0 0-16a8 8 0 0 0 0 16zM6.5 9a1.5 1.5 0 1 1 0-3a1.5 1.5 0 0 1 0 3zm7 0a1.5 1.5 0 1 1 0-3a1.5 1.5 0 0 1 0 3zm2.16 3a6 6 0 0 1-11.32 0h11.32z"></path></svg>