<svg xmlns="http://www.w3.org/2000/svg" xmlns:xlink="http://www.w3.org/1999/xlink" aria-hidden="true" role="img" class="iconify iconify--pepicons" width="1em" height="1em" preserveAspectRatio="xMidYMid meet" viewBox="0 0 20 20" data-icon="pepicons:arrow-down"><g fill="currentColor" fill-rule="evenodd" clip-rule="evenodd"><path d="M14.768 11.027a1 1 0 0 1-.128 1.408l-4 3.333a1 1 0 0 1-1.28-1.536l4-3.334a1 1 0 0 1 1.408.129Z"></path><path d="M5.232 11.027a1 1 0 0 1 1.408-.129l4 3.334a1 1 0 1 1-1.28 1.536l-4-3.333a1 1 0 0 1-.128-1.409Z"></path><path d="M10 14a1 1 0 0 1-1-1V5a1 1 0 1 1 2 0v8a1 1 0 0 1-1 1Z"></path></g></svg>