<svg xmlns="http://www.w3.org/2000/svg" xmlns:xlink="http://www.w3.org/1999/xlink" aria-hidden="true" role="img" class="iconify iconify--pepicons" width="1em" height="1em" preserveAspectRatio="xMidYMid meet" viewBox="0 0 20 20" data-icon="pepicons:arrow-right"><g fill="currentColor" fill-rule="evenodd" clip-rule="evenodd"><path d="M11.026 5.232a1 1 0 0 1 1.409.128l3.333 4a1 1 0 0 1-1.536 1.28l-3.334-4a1 1 0 0 1 .128-1.408Z"></path><path d="M11.026 14.768a1 1 0 0 1-.128-1.408l3.334-4a1 1 0 0 1 1.536 1.28l-3.333 4a1 1 0 0 1-1.409.128Z"></path><path d="M14 10a1 1 0 0 1-1 1H5a1 1 0 1 1 0-2h8a1 1 0 0 1 1 1Z"></path></g></svg>