<svg xmlns="http://www.w3.org/2000/svg" xmlns:xlink="http://www.w3.org/1999/xlink" aria-hidden="true" role="img" class="iconify iconify--pepicons" width="1em" height="1em" preserveAspectRatio="xMidYMid meet" viewBox="0 0 20 20" data-icon="pepicons:clipboard"><g fill="currentColor"><path fill-rule="evenodd" d="M13 2.5H7a1 1 0 0 0-1 1V7a1 1 0 0 0 1 1h6a1 1 0 0 0 1-1V3.5a1 1 0 0 0-1-1ZM8 6V4.5h4V6H8Z" clip-rule="evenodd"></path><path d="M15.5 17.5h-11a1 1 0 0 1-1-1v-12a1 1 0 0 1 1-1h3v2h-2v10h9v-10h-2v-2h3a1 1 0 0 1 1 1v12a1 1 0 0 1-1 1Z"></path></g></svg>