<svg xmlns="http://www.w3.org/2000/svg" xmlns:xlink="http://www.w3.org/1999/xlink" aria-hidden="true" role="img" class="iconify iconify--pepicons" width="1em" height="1em" preserveAspectRatio="xMidYMid meet" viewBox="0 0 20 20" data-icon="pepicons:clipboard-print"><g fill="currentColor"><path d="M14.75 5.233H17a.5.5 0 0 1 .5.5V17a.5.5 0 0 1-.5.5H6a.5.5 0 0 1-.5-.5V5.733a.5.5 0 0 1 .5-.5h2.25V4a.5.5 0 0 1 .5-.5h5.5a.5.5 0 0 1 .5.5v1.233Z" opacity=".8"></path><path fill-rule="evenodd" d="M13 2.25H6a.5.5 0 0 0-.5.5v3a.5.5 0 0 0 .5.5h7a.5.5 0 0 0 .5-.5v-3a.5.5 0 0 0-.5-.5Zm-6.5 3v-2h6v2h-6Z" clip-rule="evenodd"></path><path d="M14.5 4.5h-1.507v-1H15a.5.5 0 0 1 .5.5v12a.5.5 0 0 1-.5.5H4a.5.5 0 0 1-.5-.5V4a.5.5 0 0 1 .5-.5h2.01v1H4.5v11h10v-11Z"></path></g></svg>