<svg xmlns="http://www.w3.org/2000/svg" xmlns:xlink="http://www.w3.org/1999/xlink" aria-hidden="true" role="img" class="iconify iconify--pepicons" width="1em" height="1em" preserveAspectRatio="xMidYMid meet" viewBox="0 0 20 20" data-icon="pepicons:clock"><g fill="currentColor"><path d="M10.46 12.76a1 1 0 0 1-1.3-1.52l3.5-3a1 1 0 0 1 1.3 1.52l-3.5 3Z"></path><path d="M8.81 6a1 1 0 0 1 2 0v6a1 1 0 1 1-2 0V6Z"></path><path fill-rule="evenodd" d="M2 10a8 8 0 1 0 16 0a8 8 0 0 0-16 0Zm14 0a6 6 0 1 1-12 0a6 6 0 0 1 12 0Z" clip-rule="evenodd"></path></g></svg>