<svg xmlns="http://www.w3.org/2000/svg" xmlns:xlink="http://www.w3.org/1999/xlink" aria-hidden="true" role="img" class="iconify iconify--pepicons" width="1em" height="1em" preserveAspectRatio="xMidYMid meet" viewBox="0 0 20 20" data-icon="pepicons:clock-print"><g fill="currentColor"><circle cx="12" cy="11" r="7" opacity=".8"></circle><path d="M10.135 12.38a.5.5 0 1 1-.65-.76l3.5-3a.5.5 0 1 1 .65.76l-3.5 3Z"></path><path d="M9.31 6a.5.5 0 0 1 1 0v6a.5.5 0 0 1-1 0V6Z"></path><path fill-rule="evenodd" d="M3 10a7 7 0 1 0 14 0a7 7 0 0 0-14 0Zm13 0a6 6 0 1 1-12 0a6 6 0 0 1 12 0Z" clip-rule="evenodd"></path></g></svg>