<svg xmlns="http://www.w3.org/2000/svg" xmlns:xlink="http://www.w3.org/1999/xlink" aria-hidden="true" role="img" class="iconify iconify--pepicons" width="1em" height="1em" preserveAspectRatio="xMidYMid meet" viewBox="0 0 20 20" data-icon="pepicons:controller"><g fill="currentColor"><path d="M12.25 10a1.25 1.25 0 1 1 0-2.5a1.25 1.25 0 0 1 0 2.5Zm2 2.5a1.25 1.25 0 1 1 0-2.5a1.25 1.25 0 0 1 0 2.5Z"></path><path fill-rule="evenodd" d="M14.5 4h-9a5 5 0 0 0-5 5v2a5 5 0 0 0 5 5h9a5 5 0 0 0 5-5V9a5 5 0 0 0-5-5Zm-12 5a3 3 0 0 1 3-3h9a3 3 0 0 1 3 3v2a3 3 0 0 1-3 3h-9a3 3 0 0 1-3-3V9Z" clip-rule="evenodd"></path><path d="M4 11a1 1 0 1 1 0-2h4a1 1 0 0 1 0 2H4Z"></path><path d="M7 12a1 1 0 1 1-2 0V8a1 1 0 0 1 2 0v4Z"></path></g></svg>