<svg xmlns="http://www.w3.org/2000/svg" xmlns:xlink="http://www.w3.org/1999/xlink" aria-hidden="true" role="img" class="iconify iconify--pepicons" width="1em" height="1em" preserveAspectRatio="xMidYMid meet" viewBox="0 0 20 20" data-icon="pepicons:dots-y-print"><g fill="currentColor"><path d="M11 6.5a1.5 1.5 0 0 1 3 0v11a1.5 1.5 0 0 1-3 0v-11Z" opacity=".8"></path><path d="M9 15.25a1.25 1.25 0 1 1 2.5 0a1.25 1.25 0 0 1-2.5 0Zm0-5a1.25 1.25 0 1 1 2.5 0a1.25 1.25 0 0 1-2.5 0Zm0-5a1.249 1.249 0 1 1 2.5 0a1.25 1.25 0 1 1-2.5 0Z"></path></g></svg>