<svg xmlns="http://www.w3.org/2000/svg" xmlns:xlink="http://www.w3.org/1999/xlink" aria-hidden="true" role="img" class="iconify iconify--pepicons" width="1em" height="1em" preserveAspectRatio="xMidYMid meet" viewBox="0 0 20 20" data-icon="pepicons:expand"><g fill="currentColor"><path d="M5.707 15.707a1 1 0 0 1-1.414-1.414l4-4a1 1 0 1 1 1.414 1.414l-4 4Z"></path><path d="M5 16a1 1 0 1 1 0-2h4a1 1 0 1 1 0 2H5Z"></path><path d="M6 15a1 1 0 1 1-2 0v-4a1 1 0 1 1 2 0v4Zm5.707-5.293a1 1 0 0 1-1.414-1.414l4-4a1 1 0 1 1 1.414 1.414l-4 4Z"></path><path d="M16 9a1 1 0 1 1-2 0V5a1 1 0 1 1 2 0v4Z"></path><path d="M11 6a1 1 0 1 1 0-2h4a1 1 0 1 1 0 2h-4Z"></path></g></svg>