<svg xmlns="http://www.w3.org/2000/svg" xmlns:xlink="http://www.w3.org/1999/xlink" aria-hidden="true" role="img" class="iconify iconify--pepicons" width="1em" height="1em" preserveAspectRatio="xMidYMid meet" viewBox="0 0 20 20" data-icon="pepicons:eye-off"><g fill="currentColor"><path fill-rule="evenodd" d="M10 16.5c4.897 0 9-2.308 9-5.5s-4.103-5.5-9-5.5S1 7.808 1 11s4.103 5.5 9 5.5Zm0-9c3.94 0 7 1.722 7 3.5s-3.06 3.5-7 3.5s-7-1.722-7-3.5s3.06-3.5 7-3.5Z" clip-rule="evenodd"></path><path d="M9 3.5a1 1 0 0 1 2 0v3a1 1 0 1 1-2 0v-3Zm4.02.304a1 1 0 0 1 1.96.392l-.5 2.5a1 1 0 1 1-1.96-.392l.5-2.5Zm-6.04 0a1 1 0 0 0-1.96.392l.5 2.5a1 1 0 0 0 1.96-.392l-.5-2.5ZM2.858 4.986a1 1 0 1 0-1.715 1.029l1.5 2.5a1 1 0 1 0 1.715-1.03l-1.5-2.5Zm14.284 0a1 1 0 0 1 1.716 1.029l-1.5 2.5a1 1 0 1 1-1.716-1.03l1.5-2.5Z"></path><path fill-rule="evenodd" d="M10 14a3.5 3.5 0 1 0 0-7a3.5 3.5 0 0 0 0 7Zm0-5a1.5 1.5 0 1 1 0 3a1.5 1.5 0 0 1 0-3Z" clip-rule="evenodd"></path><path d="M17.974 17.31a1 1 0 0 1-1.448 1.38l-15.25-16a1 1 0 0 1 1.448-1.38l15.25 16Z"></path></g></svg>