<svg xmlns="http://www.w3.org/2000/svg" xmlns:xlink="http://www.w3.org/1999/xlink" aria-hidden="true" role="img" class="iconify iconify--pepicons" width="1em" height="1em" preserveAspectRatio="xMidYMid meet" viewBox="0 0 20 20" data-icon="pepicons:file"><g fill="currentColor"><path d="M6.5 11.25a.75.75 0 0 1 0-1.5h7a.75.75 0 0 1 0 1.5h-7Zm0 3a.75.75 0 0 1 0-1.5h7a.75.75 0 0 1 0 1.5h-7Z"></path><path fill-rule="evenodd" d="M11.185.5H4.5a2 2 0 0 0-2 2v15a2 2 0 0 0 2 2h11a2 2 0 0 0 2-2V7.202a2 2 0 0 0-.526-1.352l-4.315-4.702A2 2 0 0 0 11.185.5ZM4.5 17.5v-15h6.685L15.5 7.202V17.5h-11Z" clip-rule="evenodd"></path><path d="M11.5 6.5h5a1 1 0 1 1 0 2h-6a1 1 0 0 1-1-1v-6a1 1 0 0 1 2 0v5Z"></path></g></svg>