<svg xmlns="http://www.w3.org/2000/svg" xmlns:xlink="http://www.w3.org/1999/xlink" aria-hidden="true" role="img" class="iconify iconify--pepicons" width="1em" height="1em" preserveAspectRatio="xMidYMid meet" viewBox="0 0 20 20" data-icon="pepicons:grab-print"><g fill="currentColor"><path d="M4 8a1 1 0 0 1 0-2h14.423a1 1 0 1 1 0 2H4Zm0 3.75a1 1 0 1 1 0-2h14.423a1 1 0 1 1 0 2H4ZM4 15a1 1 0 1 1 0-2h14.423a1 1 0 1 1 0 2H4Z" opacity=".8"></path><path d="M3 7a.5.5 0 0 1 0-1h15a.5.5 0 0 1 0 1H3Zm0 3.25a.5.5 0 0 1 0-1h15a.5.5 0 0 1 0 1H3Zm0 3.25a.5.5 0 0 1 0-1h15a.5.5 0 0 1 0 1H3Z"></path></g></svg>