<svg xmlns="http://www.w3.org/2000/svg" xmlns:xlink="http://www.w3.org/1999/xlink" aria-hidden="true" role="img" class="iconify iconify--pepicons" width="1em" height="1em" preserveAspectRatio="xMidYMid meet" viewBox="0 0 20 20" data-icon="pepicons:heart-print"><g fill="currentColor" fill-rule="evenodd" clip-rule="evenodd"><path d="M12 7.492c1.464-2.62 6.5-1.705 6.5 2.08c0 2.53-2.167 4.838-6.5 6.928c-4.333-2.09-6.5-4.399-6.5-6.928c0-3.785 5.036-4.7 6.5-2.08Z" opacity=".8"></path><path d="M10.217 15.95C14.705 13.786 17 11.34 17 8.572c0-3.815-4.86-5.346-7-2.94c-2.14-2.406-7-.875-7 2.94c0 2.768 2.295 5.214 6.783 7.378l.217.105l.217-.105Zm.22-9.214C11.745 4.394 16 5.5 16 8.572c0 2.25-1.967 4.386-6 6.372c-4.033-1.986-6-4.122-6-6.372C4 5.5 8.255 4.394 9.564 6.736c0 0 .218.298.436.298s.437-.298.437-.298Z"></path></g></svg>