<svg xmlns="http://www.w3.org/2000/svg" xmlns:xlink="http://www.w3.org/1999/xlink" aria-hidden="true" role="img" class="iconify iconify--pepicons" width="1em" height="1em" preserveAspectRatio="xMidYMid meet" viewBox="0 0 22 22" data-icon="pepicons:label"><g fill="none"><path stroke="currentColor" stroke-linecap="round" stroke-width="2" d="M4.979 4.636v-.003h.003a36.006 36.006 0 0 1 1.815-.115c1.46-.058 3.193-.05 4.48.142a.386.386 0 0 1 .21.117l7.754 7.753a.5.5 0 0 1 0 .708l-5.657 5.656a.5.5 0 0 1-.707 0l-7.754-7.753a.386.386 0 0 1-.117-.21c-.192-1.287-.2-3.02-.142-4.48c.028-.722.073-1.359.115-1.815Z"></path><circle cx="9.435" cy="9.173" r="1" fill="currentColor" transform="rotate(-45 9.435 9.173)"></circle></g></svg>