<svg xmlns="http://www.w3.org/2000/svg" xmlns:xlink="http://www.w3.org/1999/xlink" aria-hidden="true" role="img" class="iconify iconify--pepicons" width="1em" height="1em" preserveAspectRatio="xMidYMid meet" viewBox="0 0 20 20"><g fill="currentColor" fill-rule="evenodd" clip-rule="evenodd"><path d="M5.5 8.25a1 1 0 1 0 0-2a1 1 0 0 0 0 2Zm0 2a3 3 0 1 0 0-6a3 3 0 0 0 0 6Z"></path><path d="M5.55 11a1.5 1.5 0 0 0-1.5 1.5V14a1 1 0 1 1-2 0v-1.5a3.5 3.5 0 0 1 7 0v.5a1 1 0 1 1-2 0v-.5a1.5 1.5 0 0 0-1.5-1.5Zm8.95-2.75a1 1 0 1 1 0-2a1 1 0 0 1 0 2Zm0 2a3 3 0 1 1 0-6a3 3 0 0 1 0 6Z"></path><path d="M14.45 11a1.5 1.5 0 0 1 1.5 1.5V14a1 1 0 1 0 2 0v-1.5a3.5 3.5 0 1 0-7 0v.5a1 1 0 1 0 2 0v-.5a1.5 1.5 0 0 1 1.5-1.5Z"></path><path d="M10.05 13.75a1.5 1.5 0 0 0-1.5 1.5v1.5a1 1 0 1 1-2 0v-1.5a3.5 3.5 0 0 1 7 0v1.5a1 1 0 1 1-2 0v-1.5a1.5 1.5 0 0 0-1.5-1.5Z"></path><path d="M10 11a1 1 0 1 0 0-2a1 1 0 0 0 0 2Zm0 2a3 3 0 1 0 0-6a3 3 0 0 0 0 6Z"></path></g></svg>