<svg xmlns="http://www.w3.org/2000/svg" xmlns:xlink="http://www.w3.org/1999/xlink" aria-hidden="true" role="img" class="iconify iconify--pepicons" width="1em" height="1em" preserveAspectRatio="xMidYMid meet" viewBox="0 0 20 20"><g fill="currentColor"><g opacity=".8"><path d="M11.5 9.5a3.5 3.5 0 1 0 0-7a3.5 3.5 0 0 0 0 7Z"></path><path fill-rule="evenodd" d="M18 16.688c0-3.59-2.91-6.188-6.5-6.188S5 13.098 5 16.688l.002 1.812a1 1 0 0 0 1 1H17a1 1 0 0 0 1-1v-1.813v.001Z" clip-rule="evenodd"></path></g><path fill-rule="evenodd" d="M7.5 6a2.5 2.5 0 1 1 5 0a2.5 2.5 0 0 1-5 0ZM10 2.5a3.5 3.5 0 1 0 0 7a3.5 3.5 0 0 0 0-7Zm.016 7c-3.505 0-6.516 2.58-6.516 6l.002 2.5a.5.5 0 1 0 1 0L4.5 15.5c0-2.775 2.464-5 5.516-5c3.049 0 5.484 2.222 5.484 5V18a.5.5 0 0 0 1 0v-2.5c0-3.417-2.975-6-6.484-6Z" clip-rule="evenodd"></path></g></svg>