<svg xmlns="http://www.w3.org/2000/svg" xmlns:xlink="http://www.w3.org/1999/xlink" aria-hidden="true" role="img" class="iconify iconify--pepicons" width="1em" height="1em" preserveAspectRatio="xMidYMid meet" viewBox="0 0 20 20"><g fill="currentColor"><g opacity=".8"><path fill-rule="evenodd" d="M5.736 10.805a4.954 4.954 0 0 0-.832 2.748v.697a1 1 0 0 1-2 0v-.697c0-1.373.406-2.715 1.168-3.858l1.664 1.11Z" clip-rule="evenodd"></path><path fill-rule="evenodd" d="M7.707 9.75c-.792 0-1.532.396-1.971 1.055l-1.664-1.11A4.369 4.369 0 0 1 7.707 7.75h.197a1 1 0 0 1 0 2h-.197Zm2.211 1.055c.543.813.832 1.77.832 2.748v.697a1 1 0 0 0 2 0v-.697a6.954 6.954 0 0 0-1.168-3.858l-1.664 1.11Z" clip-rule="evenodd"></path><path fill-rule="evenodd" d="M7.947 9.75c.792 0 1.532.396 1.97 1.055l1.665-1.11A4.368 4.368 0 0 0 7.947 7.75H7.75a1 1 0 0 0 0 2h.197Zm-4.447 5a.5.5 0 0 1 .5-.5h7a.5.5 0 0 1 0 1H4a.5.5 0 0 1-.5-.5Z" clip-rule="evenodd"></path><path d="M11 5.75a3.25 3.25 0 1 1-6.5 0a3.25 3.25 0 0 1 6.5 0Z"></path><path fill-rule="evenodd" d="M7.75 7a1.25 1.25 0 1 0 0-2.5a1.25 1.25 0 0 0 0 2.5Zm0 2a3.25 3.25 0 1 0 0-6.5a3.25 3.25 0 0 0 0 6.5Z" clip-rule="evenodd"></path><path d="M4.5 9.75H11v5H4.5v-5Z"></path><path fill-rule="evenodd" d="M12.986 14.055a4.954 4.954 0 0 0-.832 2.748v.697a1 1 0 0 1-2 0v-.697c0-1.373.406-2.715 1.168-3.858l1.664 1.11ZM14.957 13c-.792 0-1.532.396-1.971 1.055l-1.664-1.11A4.369 4.369 0 0 1 14.957 11h.197a1 1 0 1 1 0 2h-.197Zm2.211 1.055c.543.813.832 1.77.832 2.748v.697a1 1 0 0 0 2 0v-.697a6.954 6.954 0 0 0-1.168-3.858l-1.664 1.11Z" clip-rule="evenodd"></path><path fill-rule="evenodd" d="M15.197 13c.792 0 1.532.396 1.97 1.055l1.665-1.11A4.369 4.369 0 0 0 15.197 11H15a1 1 0 1 0 0 2h.197ZM10.5 18a.5.5 0 0 1 .5-.5h8a.5.5 0 0 1 0 1h-8a.5.5 0 0 1-.5-.5Z" clip-rule="evenodd"></path><path d="M18.25 9a3.25 3.25 0 1 1-6.5 0a3.25 3.25 0 0 1 6.5 0Z"></path><path fill-rule="evenodd" d="M15 10.25a1.25 1.25 0 1 0 0-2.5a1.25 1.25 0 0 0 0 2.5Zm0 2a3.25 3.25 0 1 0 0-6.5a3.25 3.25 0 0 0 0 6.5Z" clip-rule="evenodd"></path><path d="M11.5 12.75H18v5h-6.5v-5Z"></path></g><path fill-rule="evenodd" d="M3.36 9.977a5.5 5.5 0 0 0-.923 3.05V14a.5.5 0 1 1-1 0v-.972A6.5 6.5 0 0 1 2.53 9.422l.108-.162a.5.5 0 1 1 .832.555l-.108.162Z" clip-rule="evenodd"></path><path fill-rule="evenodd" d="M6.18 8.365c-1.09 0-2.107.544-2.711 1.45l-.832-.554a4.258 4.258 0 0 1 3.542-1.896h.22a.5.5 0 0 1 0 1h-.22Zm3.078 1.6c.47.706.721 1.534.721 2.382h1a5.289 5.289 0 0 0-.889-2.936l-.1-.15a.5.5 0 1 0-.832.554l.1.15Z" clip-rule="evenodd"></path><path fill-rule="evenodd" d="M6.448 8.365c1.089 0 2.106.544 2.71 1.45l.832-.554a4.258 4.258 0 0 0-3.542-1.896h-.22a.5.5 0 1 0 0 1h.22Z" clip-rule="evenodd"></path><path fill-rule="evenodd" d="M6.25 7.25a2.25 2.25 0 1 0 0-4.5a2.25 2.25 0 0 0 0 4.5Zm0 1a3.25 3.25 0 1 0 0-6.5a3.25 3.25 0 0 0 0 6.5Zm4.258 4.936a5.5 5.5 0 0 0-.923 3.051v1.034a.5.5 0 1 1-1 0v-1.034a6.5 6.5 0 0 1 1.091-3.605l.133-.2a.5.5 0 0 1 .832.556l-.133.198Z" clip-rule="evenodd"></path><path fill-rule="evenodd" d="M13.42 11.5a3.34 3.34 0 0 0-2.78 1.488l-.831-.555A4.34 4.34 0 0 1 13.42 10.5h.224a.5.5 0 1 1 0 1h-.224Zm3.187 1.686a5.5 5.5 0 0 1 .924 3.051v1.034a.5.5 0 1 0 1 0v-1.034a6.5 6.5 0 0 0-1.092-3.605l-.133-.2a.5.5 0 1 0-.832.556l.133.198Z" clip-rule="evenodd"></path><path fill-rule="evenodd" d="M13.695 11.5a3.34 3.34 0 0 1 2.78 1.488l.832-.555a4.34 4.34 0 0 0-3.612-1.933h-.225a.5.5 0 1 0 0 1h.225Z" clip-rule="evenodd"></path><path fill-rule="evenodd" d="M13.5 10.5a2.25 2.25 0 1 0 0-4.5a2.25 2.25 0 0 0 0 4.5Zm0 1a3.25 3.25 0 1 0 0-6.5a3.25 3.25 0 0 0 0 6.5Z" clip-rule="evenodd"></path></g></svg>