<svg xmlns="http://www.w3.org/2000/svg" xmlns:xlink="http://www.w3.org/1999/xlink" aria-hidden="true" role="img" class="iconify iconify--pepicons" width="1em" height="1em" preserveAspectRatio="xMidYMid meet" viewBox="0 0 20 20"><g fill="currentColor"><g opacity=".8"><path fill-rule="evenodd" d="M12.45 7.75a1 1 0 0 1 1-1h5.25a1 1 0 1 1 0 2h-5.25a1 1 0 0 1-1-1Z" clip-rule="evenodd"></path><path fill-rule="evenodd" d="M16 11.5a1 1 0 0 1-1-1V5.25a1 1 0 1 1 2 0v5.25a1 1 0 0 1-1 1Z" clip-rule="evenodd"></path><path d="M10.5 6.6c0 1.436-1.12 2.6-2.5 2.6S5.5 8.036 5.5 6.6C5.5 5.164 6.62 4 8 4s2.5 1.164 2.5 2.6Z"></path><path fill-rule="evenodd" d="M8 5c-.792 0-1.5.679-1.5 1.6S7.208 8.2 8 8.2s1.5-.679 1.5-1.6S8.792 5 8 5ZM4.5 6.6C4.5 4.65 6.03 3 8 3s3.5 1.65 3.5 3.6c0 1.95-1.53 3.6-3.5 3.6S4.5 8.55 4.5 6.6Z" clip-rule="evenodd"></path><path fill-rule="evenodd" d="M13 17v-2.167c0-2.684-2.254-4.766-4.987-4.766C5.281 10.067 3 12.149 3 14.833L3.002 17" clip-rule="evenodd"></path><path fill-rule="evenodd" d="M2 14.833c0-3.295 2.79-5.766 6.013-5.766c3.232 0 5.987 2.478 5.987 5.766V17a1 1 0 1 1-2 0v-2.167c0-2.08-1.753-3.766-3.987-3.766c-2.24 0-4.013 1.692-4.013 3.766l.002 2.166a1 1 0 0 1-2 .002L2 14.833Z" clip-rule="evenodd"></path><path fill-rule="evenodd" d="M13 18H3v-1h10v1Z" clip-rule="evenodd"></path></g><path fill-rule="evenodd" d="M11.95 6.75a.5.5 0 0 1 .5-.5h5.25a.5.5 0 1 1 0 1h-5.25a.5.5 0 0 1-.5-.5Z" clip-rule="evenodd"></path><path fill-rule="evenodd" d="M15 10a.5.5 0 0 1-.5-.5V4.25a.5.5 0 0 1 1 0V9.5a.5.5 0 0 1-.5.5ZM6.8 3a2.5 2.5 0 1 0 0 5a2.5 2.5 0 0 0 0-5ZM3.3 5.5a3.5 3.5 0 1 1 7 0a3.5 3.5 0 0 1-7 0Z" clip-rule="evenodd"></path><path fill-rule="evenodd" d="M.8 14.5c0-3.322 2.67-6.5 6-6.5s6 3.178 6 6.5v2a.5.5 0 0 1-1 0v-2c0-2.873-2.32-5.5-5-5.5s-5 2.627-5 5.5v2a.5.5 0 0 1-1 0v-2Z" clip-rule="evenodd"></path></g></svg>