<svg xmlns="http://www.w3.org/2000/svg" xmlns:xlink="http://www.w3.org/1999/xlink" aria-hidden="true" role="img" class="iconify iconify--pepicons" width="1em" height="1em" preserveAspectRatio="xMidYMid meet" viewBox="0 0 20 20"><mask id="IconifyId17f5a0857263fce3a4" fill="#fff"><rect width="5" height="5" x="4.5" y="4.5" rx=".5"></rect></mask><mask id="IconifyId17f5a0857263fce3a5" fill="#fff"><rect width="5" height="5" x="10.5" y="4.5" rx=".5"></rect></mask><mask id="IconifyId17f5a0857263fce3a6" fill="#fff"><rect width="5" height="5" x="4.5" y="10.5" rx=".5"></rect></mask><mask id="IconifyId17f5a0857263fce3a7" fill="#fff"><rect width="5" height="5" x="10.5" y="10.5" rx=".5"></rect></mask><g fill="none"><g opacity=".8"><mask id="IconifyId17f5a0857263fce3a8" fill="#fff"><rect width="13.5" height="13.5" x="5" y="5" rx=".5"></rect></mask><rect width="13.5" height="13.5" x="5" y="5" fill="currentColor" stroke="currentColor" stroke-linecap="square" stroke-linejoin="round" stroke-width="3" mask="url(#IconifyId17f5a0857263fce3a8)" rx=".5"></rect></g><rect width="5" height="5" x="4.5" y="4.5" stroke="currentColor" stroke-linecap="square" stroke-linejoin="round" stroke-width="2" mask="url(#IconifyId17f5a0857263fce3a4)" rx=".5"></rect><rect width="5" height="5" x="10.5" y="4.5" stroke="currentColor" stroke-linecap="square" stroke-linejoin="round" stroke-width="2" mask="url(#IconifyId17f5a0857263fce3a5)" rx=".5"></rect><rect width="5" height="5" x="4.5" y="10.5" stroke="currentColor" stroke-linecap="square" stroke-linejoin="round" stroke-width="2" mask="url(#IconifyId17f5a0857263fce3a6)" rx=".5"></rect><rect width="5" height="5" x="10.5" y="10.5" fill="currentColor" stroke="currentColor" stroke-linecap="square" stroke-linejoin="round" stroke-width="2" mask="url(#IconifyId17f5a0857263fce3a7)" rx=".5"></rect><path stroke="currentColor" stroke-linecap="round" d="M3 3h3.5M3 3v3.5M3 17v-3.5M3 17h3.5M17 17h-3.5m3.5 0v-3.5M17 3v3.5M17 3h-3.5"></path></g></svg>