<svg xmlns="http://www.w3.org/2000/svg" xmlns:xlink="http://www.w3.org/1999/xlink" aria-hidden="true" role="img" class="iconify iconify--pepicons" width="1em" height="1em" preserveAspectRatio="xMidYMid meet" viewBox="0 0 20 20"><g fill="currentColor"><path fill-rule="evenodd" d="M2 8v7a3 3 0 0 0 3 3h10a3 3 0 0 0 3-3V8a3 3 0 0 0-3-3H5a3 3 0 0 0-3 3Zm3 8a1 1 0 0 1-1-1V8a1 1 0 0 1 1-1h10a1 1 0 0 1 1 1v7a1 1 0 0 1-1 1H5Z" clip-rule="evenodd"></path><path d="M11.28 5.625a1 1 0 0 1-1.56-1.25l2-2.5a1 1 0 0 1 1.56 1.25l-2 2.5Z"></path><path d="M8.72 5.625a1 1 0 0 0 1.56-1.25l-2-2.5a1 1 0 0 0-1.56 1.25l2 2.5Z"></path></g></svg>