<svg xmlns="http://www.w3.org/2000/svg" xmlns:xlink="http://www.w3.org/1999/xlink" aria-hidden="true" role="img" class="iconify iconify--pepicons" width="1em" height="1em" preserveAspectRatio="xMidYMid meet" viewBox="0 0 20 20"><g fill="currentColor"><path d="M2.5 9a1 1 0 0 1 1-1H6a1 1 0 0 1 1 1v5.5a1 1 0 0 1-1 1H3.5a1 1 0 0 1-1-1V9Z"></path><path fill-rule="evenodd" d="M6 9H3.5v5.5H6V9ZM3.5 8a1 1 0 0 0-1 1v5.5a1 1 0 0 0 1 1H6a1 1 0 0 0 1-1V9a1 1 0 0 0-1-1H3.5Zm6.895-4.486a1 1 0 0 1 .822 1.15l-.204 1.222a5.161 5.161 0 0 1-2.228 3.446L7.676 7.668a3.161 3.161 0 0 0 1.365-2.11l.203-1.222a1 1 0 0 1 1.151-.822Z" clip-rule="evenodd"></path><path fill-rule="evenodd" d="M11.481 4.665a.167.167 0 0 0-.28.078l-1.94-.486c.408-1.634 2.443-2.198 3.635-1.006l.042.042a1 1 0 0 1-1.414 1.414l-.043-.042Z" clip-rule="evenodd"></path><path fill-rule="evenodd" d="M12.238 7.97a1 1 0 0 1-.727-1.213l.148-.594a1.98 1.98 0 0 0 .058-.547l-.014-.41a.849.849 0 0 0-.216-.538l1.488-1.336c.447.498.704 1.137.727 1.805l.014.41a3.98 3.98 0 0 1-.117 1.102l-.148.594a1 1 0 0 1-1.213.727Z" clip-rule="evenodd"></path><path fill-rule="evenodd" d="M11.73 7a1 1 0 0 1 1-1h1.5a1 1 0 1 1 0 2h-1.5a1 1 0 0 1-1-1Z" clip-rule="evenodd"></path><path fill-rule="evenodd" d="M15.507 8.789A1.427 1.427 0 0 0 14.231 8V6c1.298 0 2.484.733 3.065 1.894l.33.659a1 1 0 1 1-1.79.894l-.329-.658Z" clip-rule="evenodd"></path><path fill-rule="evenodd" d="M15.877 14.935a1 1 0 0 1-.582-1.29l.54-1.426a3.9 3.9 0 0 0-.031-2.844l1.854-.75a5.898 5.898 0 0 1 .048 4.302l-.54 1.427a1 1 0 0 1-1.29.581Z" clip-rule="evenodd"></path><path fill-rule="evenodd" d="M13.503 14.538a1.432 1.432 0 0 0 1.609-.628l.267-.434a1 1 0 0 1 1.703 1.048l-.267.434a3.432 3.432 0 0 1-3.856 1.504l.544-1.924Z" clip-rule="evenodd"></path><path fill-rule="evenodd" d="M7.25 14.304a1 1 0 0 1 1.177-.785l5 1a1 1 0 0 1-.392 1.962l-5-1a1 1 0 0 1-.785-1.177Z" clip-rule="evenodd"></path><path fill-rule="evenodd" d="M8.23 7.5a1 1 0 0 1 1 1v6a1 1 0 1 1-2 0v-6a1 1 0 0 1 1-1Z" clip-rule="evenodd"></path></g></svg>