<svg xmlns="http://www.w3.org/2000/svg" xmlns:xlink="http://www.w3.org/1999/xlink" aria-hidden="true" role="img" class="iconify iconify--pepicons" width="1em" height="1em" preserveAspectRatio="xMidYMid meet" viewBox="0 0 20 20"><g fill="currentColor"><path d="M17.81 11.108a1 1 0 0 1-1 1h-2.5a1 1 0 0 1-1-1v-5.5a1 1 0 0 1 1-1h2.5a1 1 0 0 1 1 1v5.5Z"></path><path fill-rule="evenodd" d="M14.31 11.108h2.5v-5.5h-2.5v5.5Zm2.5 1a1 1 0 0 0 1-1v-5.5a1 1 0 0 0-1-1h-2.5a1 1 0 0 0-1 1v5.5a1 1 0 0 0 1 1h2.5Zm-6.894 4.486a1 1 0 0 1-.822-1.15l.203-1.222a5.161 5.161 0 0 1 2.228-3.446l1.11 1.664a3.162 3.162 0 0 0-1.365 2.11l-.204 1.222a1 1 0 0 1-1.15.822Z" clip-rule="evenodd"></path><path fill-rule="evenodd" d="M8.83 15.443a.167.167 0 0 0 .28-.078l1.94.485c-.408 1.635-2.444 2.198-3.635 1.007l-.042-.042A1 1 0 0 1 8.787 15.4l.042.042Z" clip-rule="evenodd"></path><path fill-rule="evenodd" d="M8.073 12.138A1 1 0 0 1 8.8 13.35l-.148.594a1.979 1.979 0 0 0-.058.548l.014.41c.007.2.083.39.216.538l-1.488 1.336a2.848 2.848 0 0 1-.727-1.805l-.014-.41a3.97 3.97 0 0 1 .116-1.102l.149-.594a1 1 0 0 1 1.213-.727Z" clip-rule="evenodd"></path><path fill-rule="evenodd" d="M8.58 13.108a1 1 0 0 1-1 1h-1.5a1 1 0 1 1 0-2h1.5a1 1 0 0 1 1 1Z" clip-rule="evenodd"></path><path fill-rule="evenodd" d="M4.804 11.319c.241.483.736.789 1.276.789v2a3.427 3.427 0 0 1-3.065-1.895l-.33-.658a1 1 0 0 1 1.79-.894l.329.658Z" clip-rule="evenodd"></path><path fill-rule="evenodd" d="M4.434 5.173a1 1 0 0 1 .581 1.289l-.54 1.427a3.898 3.898 0 0 0 .032 2.843l-1.854.751a5.899 5.899 0 0 1-.049-4.302l.54-1.427a1 1 0 0 1 1.29-.581Z" clip-rule="evenodd"></path><path fill-rule="evenodd" d="M6.808 5.57a1.432 1.432 0 0 0-1.61.628l-.266.434a1 1 0 0 1-1.704-1.048l.268-.434a3.432 3.432 0 0 1 3.856-1.505L6.808 5.57Z" clip-rule="evenodd"></path><path fill-rule="evenodd" d="M13.06 5.804a1 1 0 0 1-1.176.784l-5-1a1 1 0 1 1 .392-1.96l5 1a1 1 0 0 1 .785 1.176Z" clip-rule="evenodd"></path><path fill-rule="evenodd" d="M12.08 12.608a1 1 0 0 1-1-1v-6a1 1 0 1 1 2 0v6a1 1 0 0 1-1 1Z" clip-rule="evenodd"></path></g></svg>