<svg xmlns="http://www.w3.org/2000/svg" xmlns:xlink="http://www.w3.org/1999/xlink" aria-hidden="true" role="img" class="iconify iconify--majesticons" width="1em" height="1em" preserveAspectRatio="xMidYMid meet" viewBox="0 0 24 24" data-icon="majesticons:arrow-circle-down-line"><g fill="currentColor"><path d="M4 12a8 8 0 1 1 16 0a8 8 0 0 1-16 0zm8-10C6.477 2 2 6.477 2 12s4.477 10 10 10s10-4.477 10-10S17.523 2 12 2zm.707 13.707l3-3a1 1 0 0 0-1.414-1.414L13 12.586V9a1 1 0 1 0-2 0v3.586l-1.293-1.293a1 1 0 0 0-1.414 1.414l3 3a1 1 0 0 0 1.414 0z"></path></g></svg>