<svg xmlns="http://www.w3.org/2000/svg" xmlns:xlink="http://www.w3.org/1999/xlink" aria-hidden="true" role="img" class="iconify iconify--majesticons" width="1em" height="1em" preserveAspectRatio="xMidYMid meet" viewBox="0 0 24 24" data-icon="majesticons:barcode-2"><path fill="none" stroke="currentColor" stroke-linecap="round" stroke-linejoin="round" stroke-width="2" d="M7 6v12m7-12v12m7-12v12M10 6.5v11a.5.5 0 0 0 1 0v-11a.5.5 0 0 0-1 0zm7 0v11a.5.5 0 0 0 1 0v-11a.5.5 0 0 0-1 0zM3.5 6v0a.5.5 0 0 0-.5.5v11a.5.5 0 0 0 .5.5v0a.5.5 0 0 0 .5-.5v-11a.5.5 0 0 0-.5-.5z"></path></svg>