<svg xmlns="http://www.w3.org/2000/svg" xmlns:xlink="http://www.w3.org/1999/xlink" aria-hidden="true" role="img" class="iconify iconify--majesticons" width="1em" height="1em" preserveAspectRatio="xMidYMid meet" viewBox="0 0 24 24" data-icon="majesticons:book-minus"><g fill="none"><path stroke="currentColor" stroke-linecap="round" stroke-linejoin="round" stroke-width="2" d="M22 19h-6"></path><path fill="currentColor" fill-rule="evenodd" d="M6 2a3 3 0 0 0-3 3v14a3 3 0 0 0 3 3h7.803A6 6 0 0 1 21 13.341V5a3 3 0 0 0-3-3H6zm2 10V5a1 1 0 0 1 1-1h4a1 1 0 0 1 1 1v7l-2.293-2.293a1 1 0 0 0-1.414 0L8 12z" clip-rule="evenodd"></path></g></svg>