<svg xmlns="http://www.w3.org/2000/svg" xmlns:xlink="http://www.w3.org/1999/xlink" aria-hidden="true" role="img" class="iconify iconify--majesticons" width="1em" height="1em" preserveAspectRatio="xMidYMid meet" viewBox="0 0 24 24" data-icon="majesticons:browser"><g fill="none"><path stroke="currentColor" stroke-linecap="round" stroke-linejoin="round" stroke-width="2" d="M3 8V6a2 2 0 0 1 2-2h14a2 2 0 0 1 2 2v2M3 8v10a2 2 0 0 0 2 2h14a2 2 0 0 0 2-2V8M3 8h18"></path><path fill="currentColor" d="M3 6a2 2 0 0 1 2-2h14a2 2 0 0 1 2 2v2H3V6z"></path></g></svg>