<svg xmlns="http://www.w3.org/2000/svg" xmlns:xlink="http://www.w3.org/1999/xlink" aria-hidden="true" role="img" class="iconify iconify--majesticons" width="1em" height="1em" preserveAspectRatio="xMidYMid meet" viewBox="0 0 24 24" data-icon="majesticons:bus-line"><path fill="none" stroke="currentColor" stroke-linecap="round" stroke-linejoin="round" stroke-width="2" d="M6 19v0a2 2 0 0 1-2-2v-4m2 6v1.5a.5.5 0 0 0 .5.5v0a.5.5 0 0 0 .5-.5V19m-1 0h1m11 0v0a2 2 0 0 0 2-2v-4m-2 6v1.5a.5.5 0 0 1-.5.5v0a.5.5 0 0 1-.5-.5V19m1 0h-1M4 13V7m0 6h8m8 0V7m0 6h-8m-5 6h10M4 7v0a4 4 0 0 1 4-4h8a4 4 0 0 1 4 4v0M4 7h8m8 0h-8m0 0v6m-4 3h.001M16 16h.001"></path></svg>