<svg xmlns="http://www.w3.org/2000/svg" xmlns:xlink="http://www.w3.org/1999/xlink" aria-hidden="true" role="img" class="iconify iconify--majesticons" width="1em" height="1em" preserveAspectRatio="xMidYMid meet" viewBox="0 0 24 24" data-icon="majesticons:calendar"><g fill="none"><path fill="currentColor" d="M4 7v2h16V7a2 2 0 0 0-2-2H6a2 2 0 0 0-2 2z"></path><path stroke="currentColor" stroke-linecap="round" stroke-linejoin="round" stroke-width="2" d="M16 5h2a2 2 0 0 1 2 2v2H4V7a2 2 0 0 1 2-2h2m8 0V3m0 2H8m0-2v2M4 9.5V19a2 2 0 0 0 2 2h12a2 2 0 0 0 2-2V9.5"></path></g></svg>