<svg xmlns="http://www.w3.org/2000/svg" xmlns:xlink="http://www.w3.org/1999/xlink" aria-hidden="true" role="img" class="iconify iconify--majesticons" width="1em" height="1em" preserveAspectRatio="xMidYMid meet" viewBox="0 0 24 24" data-icon="majesticons:cash-line"><g fill="currentColor"><path d="M6 11a3 3 0 0 1 3-3h10a3 3 0 0 1 3 3v6a3 3 0 0 1-3 3H9a3 3 0 0 1-3-3v-6zm3-1a1 1 0 0 0-1 1v6a1 1 0 0 0 1 1h10a1 1 0 0 0 1-1v-6a1 1 0 0 0-1-1H9z"></path><path d="M5 6a1 1 0 0 0-1 1v6a1 1 0 0 0 1 1h2v2H5a3 3 0 0 1-3-3V7a3 3 0 0 1 3-3h10a3 3 0 0 1 3 3v2h-2V7a1 1 0 0 0-1-1H5z"></path><path d="M14 13a1 1 0 1 0 0 2a1 1 0 0 0 0-2zm-3 1a3 3 0 1 1 6 0a3 3 0 0 1-6 0z"></path></g></svg>