<svg xmlns="http://www.w3.org/2000/svg" xmlns:xlink="http://www.w3.org/1999/xlink" aria-hidden="true" role="img" class="iconify iconify--majesticons" width="1em" height="1em" preserveAspectRatio="xMidYMid meet" viewBox="0 0 24 24" data-icon="majesticons:chart-bar-line"><g fill="currentColor"><path d="M19 3a3 3 0 0 0-3 3v12a3 3 0 1 0 6 0V6a3 3 0 0 0-3-3zm-1 3a1 1 0 1 1 2 0v12a1 1 0 1 1-2 0V6zm-9 6a3 3 0 1 1 6 0v6a3 3 0 1 1-6 0v-6zm3-1a1 1 0 0 0-1 1v6a1 1 0 1 0 2 0v-6a1 1 0 0 0-1-1zM2 18a3 3 0 1 1 6 0a3 3 0 0 1-6 0zm3-1a1 1 0 1 0 0 2a1 1 0 0 0 0-2z"></path></g></svg>