<svg xmlns="http://www.w3.org/2000/svg" xmlns:xlink="http://www.w3.org/1999/xlink" aria-hidden="true" role="img" class="iconify iconify--majesticons" width="1em" height="1em" preserveAspectRatio="xMidYMid meet" viewBox="0 0 24 24" data-icon="majesticons:check"><g fill="none"><path fill-rule="evenodd" clip-rule="evenodd" d="M5 1a4 4 0 0 0-4 4v14a4 4 0 0 0 4 4h14a4 4 0 0 0 4-4V5a4 4 0 0 0-4-4H5zm14.707 6.707a1 1 0 0 0-1.414-1.414L9 15.586l-3.293-3.293a1 1 0 0 0-1.414 1.414l4 4a1 1 0 0 0 1.414 0l10-10z" fill="currentColor"></path></g></svg>