<svg xmlns="http://www.w3.org/2000/svg" xmlns:xlink="http://www.w3.org/1999/xlink" aria-hidden="true" role="img" class="iconify iconify--majesticons" width="1em" height="1em" preserveAspectRatio="xMidYMid meet" viewBox="0 0 24 24"><g fill="currentColor"><path d="M12.293 5.293a1 1 0 0 0 0 1.414L17.586 12l-5.293 5.293a1 1 0 0 0 1.414 1.414l6-6a1 1 0 0 0 0-1.414l-6-6a1 1 0 0 0-1.414 0z"></path><path d="M4.293 5.293a1 1 0 0 0 0 1.414L9.586 12l-5.293 5.293a1 1 0 1 0 1.414 1.414l6-6a1 1 0 0 0 0-1.414l-6-6a1 1 0 0 0-1.414 0z"></path></g></svg>