<svg xmlns="http://www.w3.org/2000/svg" xmlns:xlink="http://www.w3.org/1999/xlink" aria-hidden="true" role="img" class="iconify iconify--majesticons" width="1em" height="1em" preserveAspectRatio="xMidYMid meet" viewBox="0 0 24 24"><path fill="none" d="M6.391 4.787C8.272 3.44 10.499 3 11.997 3h1.005a1 1 0 0 1 1 1v3h2.014a1 1 0 0 1 1 1v2h3.019a1 1 0 0 1 1 1v1c0 3.503-1.395 5.808-3.297 7.206c-1.85 1.36-4.087 1.794-5.74 1.794c-1.654 0-3.89-.434-5.742-1.794C4.355 17.808 2.96 15.503 2.96 12c0-3.528 1.5-5.828 3.431-7.213ZM8.983 7a1 1 0 1 0 0 2a1 1 0 0 0 0-2Zm-3.01 5a1 1 0 0 1 1-1h.002a1 1 0 0 1 0 2h-.001a1 1 0 0 1-1.001-1Zm6.024 0a1 1 0 1 0 0 2a1 1 0 0 0 0-2Zm-3.01 4a1 1 0 0 1 1-1h.002a1 1 0 0 1 0 2h-.001a1 1 0 0 1-1.001-1Zm7.029-2a1 1 0 1 0 0 2a1 1 0 0 0 0-2Z" clip-rule="evenodd"></path></svg>