<svg xmlns="http://www.w3.org/2000/svg" xmlns:xlink="http://www.w3.org/1999/xlink" aria-hidden="true" role="img" class="iconify iconify--majesticons" width="1em" height="1em" preserveAspectRatio="xMidYMid meet" viewBox="0 0 24 24"><path fill="none" stroke="currentColor" stroke-linecap="round" stroke-linejoin="round" stroke-width="2" d="M18 19V5a2 2 0 0 0-2-2H8a2 2 0 0 0-2 2v14a2 2 0 0 0 2 2h8a2 2 0 0 0 2-2zM9 6.001V6m3 .001V6m3 .001V6M9 9.001V9m3 .001V9m3 .001V9m-6 3.001V12m3 .001V12m0 6.001V18"></path></svg>