<svg xmlns="http://www.w3.org/2000/svg" xmlns:xlink="http://www.w3.org/1999/xlink" aria-hidden="true" role="img" class="iconify iconify--majesticons" width="1em" height="1em" preserveAspectRatio="xMidYMid meet" viewBox="0 0 24 24"><g fill="none" stroke="currentColor" stroke-linecap="round" stroke-linejoin="round" stroke-width="2"><path fill="currentColor" d="M9 6a3 3 0 0 1 3-3v0a3 3 0 0 1 3 3v5a3 3 0 0 1-3 3v0a3 3 0 0 1-3-3V6z"></path><path d="M12 18v0a7 7 0 0 1-7-7v0v-1m7 8v0a7 7 0 0 0 7-7v0v-1m-7 8v3"></path></g></svg>