<svg xmlns="http://www.w3.org/2000/svg" xmlns:xlink="http://www.w3.org/1999/xlink" aria-hidden="true" role="img" class="iconify iconify--majesticons" width="1em" height="1em" preserveAspectRatio="xMidYMid meet" viewBox="0 0 24 24"><path fill="currentColor" fill-rule="evenodd" d="M3 5a3 3 0 0 1 3-3h12a3 3 0 0 1 3 3v16a1 1 0 0 1-1.625.78l-1.929-1.542l-2.391 1.594a1 1 0 0 1-1.18-.051L12 20.28l-1.875 1.5a1 1 0 0 1-1.18.051l-2.391-1.594l-1.93 1.543A1 1 0 0 1 3 21V5zm5 1a1 1 0 0 0 0 2h8a1 1 0 1 0 0-2H8zm0 4a1 1 0 1 0 0 2h8a1 1 0 1 0 0-2H8zm0 4a1 1 0 1 0 0 2h4a1 1 0 1 0 0-2H8z" clip-rule="evenodd"></path></svg>