<svg xmlns="http://www.w3.org/2000/svg" xmlns:xlink="http://www.w3.org/1999/xlink" aria-hidden="true" role="img" class="iconify iconify--majesticons" width="1em" height="1em" preserveAspectRatio="xMidYMid meet" viewBox="0 0 24 24"><g fill="none" stroke="currentColor" stroke-linecap="round" stroke-linejoin="round" stroke-width="2"><path d="M17 19H4a1 1 0 0 1-1-1V6a1 1 0 0 1 1-1h13m0 14h3a1 1 0 0 0 1-1V6a1 1 0 0 0-1-1h-3m0 14v-1m0-13v1m0 3.001V9m0 3.001V12m0 3.001V15"></path><path d="m7 13l2 2l4-6"></path></g></svg>