<svg xmlns="http://www.w3.org/2000/svg" xmlns:xlink="http://www.w3.org/1999/xlink" aria-hidden="true" role="img" class="iconify iconify--majesticons" width="1em" height="1em" preserveAspectRatio="xMidYMid meet" viewBox="0 0 24 24"><g fill="none"><path fill-rule="evenodd" clip-rule="evenodd" d="M2 7a2 2 0 0 1 2-2h2a2 2 0 0 1 2 2v10a2 2 0 0 1-2 2H4a2 2 0 0 1-2-2V7zm14 0a2 2 0 0 1 2-2h2a2 2 0 0 1 2 2v10a2 2 0 0 1-2 2h-2a2 2 0 0 1-2-2V7zm-5-2a2 2 0 0 0-2 2v10a2 2 0 0 0 2 2h2a2 2 0 0 0 2-2V7a2 2 0 0 0-2-2h-2z" fill="currentColor"></path></g></svg>