<svg xmlns="http://www.w3.org/2000/svg" xmlns:xlink="http://www.w3.org/1999/xlink" aria-hidden="true" role="img" class="iconify iconify--twemoji" width="1em" height="1em" preserveAspectRatio="xMidYMid meet" viewBox="0 0 36 36"><circle cx="18" cy="18" r="18" fill="#99AAB5"></circle><circle cx="18" cy="18" r="14" fill="#E1E8ED"></circle><path fill="#67757F" d="M18 31a1 1 0 0 1-1-1V18a1 1 0 0 1 2 0v12a1 1 0 0 1-1 1z"></path><path fill="#67757F" d="M24.999 24a.987.987 0 0 1-.58-.187l-7-5a1 1 0 1 1 1.162-1.628l7 5A1 1 0 0 1 24.999 24z"></path></svg>