<svg xmlns="http://www.w3.org/2000/svg" xmlns:xlink="http://www.w3.org/1999/xlink" aria-hidden="true" role="img" class="iconify iconify--gg" width="1em" height="1em" preserveAspectRatio="xMidYMid meet" viewBox="0 0 24 24" data-icon="gg:arrows-expand-down-left"><g fill="currentColor"><path fill-rule="evenodd" d="M13 5a2 2 0 0 1 2-2h4a2 2 0 0 1 2 2v4a2 2 0 0 1-2 2h-4a2 2 0 0 1-2-2V5Zm2 0h4v4h-4V5Z" clip-rule="evenodd"></path><path d="M5 13H3v8h8v-2H6.414l5.364-5.364a1 1 0 0 0-1.414-1.414L5 17.586V13Z"></path></g></svg>