<svg xmlns="http://www.w3.org/2000/svg" xmlns:xlink="http://www.w3.org/1999/xlink" aria-hidden="true" role="img" class="iconify iconify--gg" width="1em" height="1em" preserveAspectRatio="xMidYMid meet" viewBox="0 0 24 24" data-icon="gg:arrows-exchange-alt-v"><path fill="currentColor" d="M12.984 4.993a1 1 0 0 1 1.848-.531L17.52 7.15a1 1 0 1 1-1.415 1.414l-1.12-1.121v7.55a1 1 0 0 1-2 0v-10Zm-1.968 14.014a1 1 0 0 1-1.848.531L6.48 16.85a1 1 0 0 1 1.415-1.414l1.12 1.121v-7.55a1 1 0 0 1 2 0v10Z"></path></svg>