<svg xmlns="http://www.w3.org/2000/svg" xmlns:xlink="http://www.w3.org/1999/xlink" aria-hidden="true" role="img" class="iconify iconify--gg" width="1em" height="1em" preserveAspectRatio="xMidYMid meet" viewBox="0 0 24 24" data-icon="gg:arrow-right-r"><g fill="currentColor"><path d="m12.052 14.829l1.414 1.414L17.71 12l-4.243-4.243l-1.414 1.415L13.88 11H6.343v2h7.537l-1.828 1.829Z"></path><path fill-rule="evenodd" d="M1 19a4 4 0 0 0 4 4h14a4 4 0 0 0 4-4V5a4 4 0 0 0-4-4H5a4 4 0 0 0-4 4v14Zm4 2h14a2 2 0 0 0 2-2V5a2 2 0 0 0-2-2H5a2 2 0 0 0-2 2v14a2 2 0 0 0 2 2Z" clip-rule="evenodd"></path></g></svg>