<svg xmlns="http://www.w3.org/2000/svg" xmlns:xlink="http://www.w3.org/1999/xlink" aria-hidden="true" role="img" class="iconify iconify--gg" width="1em" height="1em" preserveAspectRatio="xMidYMid meet" viewBox="0 0 24 24" data-icon="gg:arrow-up-o"><g fill="currentColor"><path d="m14.829 11.948l1.414-1.414L12 6.29l-4.243 4.243l1.415 1.414L11 10.12v7.537h2V10.12l1.829 1.828Z"></path><path fill-rule="evenodd" d="M19.778 4.222c-4.296-4.296-11.26-4.296-15.556 0c-4.296 4.296-4.296 11.26 0 15.556c4.296 4.296 11.26 4.296 15.556 0c4.296-4.296 4.296-11.26 0-15.556Zm-1.414 1.414A9 9 0 1 0 5.636 18.364A9 9 0 0 0 18.364 5.636Z" clip-rule="evenodd"></path></g></svg>