<svg xmlns="http://www.w3.org/2000/svg" xmlns:xlink="http://www.w3.org/1999/xlink" aria-hidden="true" role="img" class="iconify iconify--gg" width="1em" height="1em" preserveAspectRatio="xMidYMid meet" viewBox="0 0 24 24" data-icon="gg:arrows-expand-up-right"><g fill="currentColor"><path d="M13 5V3h8v8h-2V6.414l-5.364 5.364a1 1 0 0 1-1.414-1.414L17.586 5H13Z"></path><path fill-rule="evenodd" d="M5 13a2 2 0 0 0-2 2v4a2 2 0 0 0 2 2h4a2 2 0 0 0 2-2v-4a2 2 0 0 0-2-2H5Zm0 2v4h4v-4H5Z" clip-rule="evenodd"></path></g></svg>