<svg xmlns="http://www.w3.org/2000/svg" xmlns:xlink="http://www.w3.org/1999/xlink" aria-hidden="true" role="img" class="iconify iconify--gg" width="1em" height="1em" preserveAspectRatio="xMidYMid meet" viewBox="0 0 24 24" data-icon="gg:arrows-expand-down-right"><g fill="currentColor"><path fill-rule="evenodd" d="M11 5a2 2 0 0 0-2-2H5a2 2 0 0 0-2 2v4a2 2 0 0 0 2 2h4a2 2 0 0 0 2-2V5ZM9 5H5v4h4V5Z" clip-rule="evenodd"></path><path d="M19 13h2v8h-8v-2h4.586l-5.364-5.364a1 1 0 0 1 1.414-1.414L19 17.586V13Z"></path></g></svg>