<svg xmlns="http://www.w3.org/2000/svg" xmlns:xlink="http://www.w3.org/1999/xlink" aria-hidden="true" role="img" class="iconify iconify--gg" width="1em" height="1em" preserveAspectRatio="xMidYMid meet" viewBox="0 0 24 24" data-icon="gg:battery-empty"><path fill="currentColor" fill-rule="evenodd" d="M18 6H5a3 3 0 0 0-3 3v6a3 3 0 0 0 3 3h13a3 3 0 0 0 3-3a1 1 0 0 0 1-1v-4a1 1 0 0 0-1-1a3 3 0 0 0-3-3Zm0 2H5a1 1 0 0 0-1 1v6a1 1 0 0 0 1 1h13a1 1 0 0 0 1-1V9a1 1 0 0 0-1-1Z" clip-rule="evenodd"></path></svg>