<svg xmlns="http://www.w3.org/2000/svg" xmlns:xlink="http://www.w3.org/1999/xlink" aria-hidden="true" role="img" class="iconify iconify--gg" width="1em" height="1em" preserveAspectRatio="xMidYMid meet" viewBox="0 0 24 24" data-icon="gg:browser"><g fill="currentColor"><path d="M4 8a1 1 0 1 0 0-2a1 1 0 0 0 0 2Zm4-1a1 1 0 1 1-2 0a1 1 0 0 1 2 0Zm2 1a1 1 0 1 0 0-2a1 1 0 0 0 0 2Z"></path><path fill-rule="evenodd" d="M3 3a3 3 0 0 0-3 3v12a3 3 0 0 0 3 3h18a3 3 0 0 0 3-3V6a3 3 0 0 0-3-3H3Zm18 2H3a1 1 0 0 0-1 1v3h20V6a1 1 0 0 0-1-1ZM2 18v-7h20v7a1 1 0 0 1-1 1H3a1 1 0 0 1-1-1Z" clip-rule="evenodd"></path></g></svg>