<svg xmlns="http://www.w3.org/2000/svg" xmlns:xlink="http://www.w3.org/1999/xlink" aria-hidden="true" role="img" class="iconify iconify--gg" width="1em" height="1em" preserveAspectRatio="xMidYMid meet" viewBox="0 0 24 24" data-icon="gg:calendar"><g fill="currentColor"><path d="M8 9a1 1 0 1 0 0 2h8a1 1 0 1 0 0-2H8Z"></path><path fill-rule="evenodd" d="M6 3a3 3 0 0 0-3 3v12a3 3 0 0 0 3 3h12a3 3 0 0 0 3-3V6a3 3 0 0 0-3-3H6ZM5 18V7h14v11a1 1 0 0 1-1 1H6a1 1 0 0 1-1-1Z" clip-rule="evenodd"></path></g></svg>