<svg xmlns="http://www.w3.org/2000/svg" xmlns:xlink="http://www.w3.org/1999/xlink" aria-hidden="true" role="img" class="iconify iconify--gg" width="1em" height="1em" preserveAspectRatio="xMidYMid meet" viewBox="0 0 24 24" data-icon="gg:card-clubs"><g fill="currentColor"><path d="M12 11a2 2 0 1 0 0-4a2 2 0 0 0 0 4Zm-1 2a2 2 0 1 1-4 0a2 2 0 0 1 4 0Zm4 2a2 2 0 1 0 0-4a2 2 0 0 0 0 4Z"></path><path fill-rule="evenodd" d="M3 4a3 3 0 0 1 3-3h12a3 3 0 0 1 3 3v16a3 3 0 0 1-3 3H6a3 3 0 0 1-3-3V4Zm3-1h12a1 1 0 0 1 1 1v16a1 1 0 0 1-1 1H6a1 1 0 0 1-1-1V4a1 1 0 0 1 1-1Z" clip-rule="evenodd"></path></g></svg>