<svg xmlns="http://www.w3.org/2000/svg" xmlns:xlink="http://www.w3.org/1999/xlink" aria-hidden="true" role="img" class="iconify iconify--gg" width="1em" height="1em" preserveAspectRatio="xMidYMid meet" viewBox="0 0 24 24" data-icon="gg:card-spades"><g fill="currentColor"><path d="M9.146 11.707a2 2 0 0 0 2.829 2.829L12 14.51l.025.026a2 2 0 1 0 2.829-2.829l-2.83-2.827l-.024.024l-.025-.025l-2.829 2.828Z"></path><path fill-rule="evenodd" d="M3 20a3 3 0 0 0 3 3h12a3 3 0 0 0 3-3V4a3 3 0 0 0-3-3H6a3 3 0 0 0-3 3v16Zm3 1h12a1 1 0 0 0 1-1V4a1 1 0 0 0-1-1H6a1 1 0 0 0-1 1v16a1 1 0 0 0 1 1Z" clip-rule="evenodd"></path></g></svg>