<svg xmlns="http://www.w3.org/2000/svg" xmlns:xlink="http://www.w3.org/1999/xlink" aria-hidden="true" role="img" class="iconify iconify--gg" width="1em" height="1em" preserveAspectRatio="xMidYMid meet" viewBox="0 0 24 24" data-icon="gg:chevron-left-r"><g fill="currentColor"><path d="m13 7.757l1.414 1.415L11.586 12l2.828 2.828L13 16.243L8.757 12L13 7.757Z"></path><path fill-rule="evenodd" d="M19 1a4 4 0 0 1 4 4v14a4 4 0 0 1-4 4H5a4 4 0 0 1-4-4V5a4 4 0 0 1 4-4h14Zm2 4v14a2 2 0 0 1-2 2H5a2 2 0 0 1-2-2V5a2 2 0 0 1 2-2h14a2 2 0 0 1 2 2Z" clip-rule="evenodd"></path></g></svg>