<svg xmlns="http://www.w3.org/2000/svg" xmlns:xlink="http://www.w3.org/1999/xlink" aria-hidden="true" role="img" class="iconify iconify--gg" width="1em" height="1em" preserveAspectRatio="xMidYMid meet" viewBox="0 0 24 24" data-icon="gg:chevron-double-up-o"><g fill="currentColor"><path d="m14.828 12.707l1.415-1.414L12 7.05l-4.243 4.243l1.415 1.414L12 9.88l2.828 2.828Z"></path><path d="m14.828 16.95l1.415-1.414L12 11.293l-4.243 4.243l1.415 1.414L12 14.12l2.828 2.829Z"></path><path fill-rule="evenodd" d="M1 12c0 6.075 4.925 11 11 11s11-4.925 11-11S18.075 1 12 1S1 5.925 1 12Zm2 0a9 9 0 1 0 18 0a9 9 0 0 0-18 0Z" clip-rule="evenodd"></path></g></svg>