<svg xmlns="http://www.w3.org/2000/svg" xmlns:xlink="http://www.w3.org/1999/xlink" aria-hidden="true" role="img" class="iconify iconify--gg" width="1em" height="1em" preserveAspectRatio="xMidYMid meet" viewBox="0 0 24 24" data-icon="gg:chevron-right-r"><g fill="currentColor"><path d="m16.485 12.045l-4.242-4.243l-1.415 1.415l2.829 2.828l-2.829 2.829l1.415 1.414l4.242-4.243Z"></path><path fill-rule="evenodd" d="M1 4a3 3 0 0 1 3-3h16a3 3 0 0 1 3 3v16a3 3 0 0 1-3 3H4a3 3 0 0 1-3-3V4Zm3-1h16a1 1 0 0 1 1 1v16a1 1 0 0 1-1 1H4a1 1 0 0 1-1-1V4a1 1 0 0 1 1-1Z" clip-rule="evenodd"></path></g></svg>