<svg xmlns="http://www.w3.org/2000/svg" xmlns:xlink="http://www.w3.org/1999/xlink" aria-hidden="true" role="img" class="iconify iconify--gg" width="1em" height="1em" preserveAspectRatio="xMidYMid meet" viewBox="0 0 24 24" data-icon="gg:chevron-up-r"><g fill="currentColor"><path d="m14.829 14.828l1.414-1.414L12 9.172l-4.243 4.242l1.415 1.415L12 12l2.829 2.828Z"></path><path fill-rule="evenodd" d="M1 19a4 4 0 0 0 4 4h14a4 4 0 0 0 4-4V5a4 4 0 0 0-4-4H5a4 4 0 0 0-4 4v14Zm4 2h14a2 2 0 0 0 2-2V5a2 2 0 0 0-2-2H5a2 2 0 0 0-2 2v14a2 2 0 0 0 2 2Z" clip-rule="evenodd"></path></g></svg>