<svg xmlns="http://www.w3.org/2000/svg" xmlns:xlink="http://www.w3.org/1999/xlink" aria-hidden="true" role="img" class="iconify iconify--gg" width="1em" height="1em" preserveAspectRatio="xMidYMid meet" viewBox="0 0 24 24" data-icon="gg:collage"><path fill="currentColor" fill-rule="evenodd" d="M4 5a3 3 0 0 1 3-3h10a3 3 0 0 1 3 3v14a3 3 0 0 1-3 3H7a3 3 0 0 1-3-3V5Zm9-1h4a1 1 0 0 1 1 1v8h-5V4Zm0 11v5h4a1 1 0 0 0 1-1v-4h-5ZM11 4H7a1 1 0 0 0-1 1v3h5V4ZM6 19v-9h5v10H7a1 1 0 0 1-1-1Z" clip-rule="evenodd"></path></svg>