<svg xmlns="http://www.w3.org/2000/svg" xmlns:xlink="http://www.w3.org/1999/xlink" aria-hidden="true" role="img" class="iconify iconify--gg" width="1em" height="1em" preserveAspectRatio="xMidYMid meet" viewBox="0 0 24 24"><g fill="currentColor"><path d="M8 6.983a1 1 0 1 0 0 2h8a1 1 0 1 0 0-2H8ZM7 12a1 1 0 0 1 1-1h8a1 1 0 1 1 0 2H8a1 1 0 0 1-1-1Zm1 3.017a1 1 0 1 0 0 2h8a1 1 0 1 0 0-2H8Z"></path><path fill-rule="evenodd" d="M22 12c0 5.523-4.477 10-10 10S2 17.523 2 12S6.477 2 12 2s10 4.477 10 10Zm-2 0a8 8 0 1 1-16 0a8 8 0 0 1 16 0Z" clip-rule="evenodd"></path></g></svg>