<svg xmlns="http://www.w3.org/2000/svg" xmlns:xlink="http://www.w3.org/1999/xlink" aria-hidden="true" role="img" class="iconify iconify--gg" width="1em" height="1em" preserveAspectRatio="xMidYMid meet" viewBox="0 0 24 24"><g fill="currentColor"><path d="M9 8a1 1 0 1 0 0-2a1 1 0 0 0 0 2Z"></path><path fill-rule="evenodd" d="M17 3a2 2 0 0 1 2 2v14a2 2 0 0 1-2 2H7a2 2 0 0 1-2-2V5a2 2 0 0 1 2-2h10Zm-4.535 2H17v11H7v-5.535A4 4 0 0 0 12.465 5ZM9 5a2 2 0 1 0 0 4a2 2 0 0 0 0-4Z" clip-rule="evenodd"></path></g></svg>