<svg xmlns="http://www.w3.org/2000/svg" xmlns:xlink="http://www.w3.org/1999/xlink" aria-hidden="true" role="img" class="iconify iconify--gg" width="1em" height="1em" preserveAspectRatio="xMidYMid meet" viewBox="0 0 24 24"><g fill="currentColor"><path d="M12 11a2 2 0 1 0 0-4a2 2 0 0 0 0 4Z"></path><path fill-rule="evenodd" d="M18 9a6.002 6.002 0 0 1-5 5.917V20h3a1 1 0 1 1 0 2H8a1 1 0 1 1 0-2h3v-5.083A6.002 6.002 0 0 1 12 3a6 6 0 0 1 6 6Zm-6 4a4 4 0 1 0 0-8a4 4 0 0 0 0 8Z" clip-rule="evenodd"></path></g></svg>