<svg xmlns="http://www.w3.org/2000/svg" xmlns:xlink="http://www.w3.org/1999/xlink" aria-hidden="true" role="img" class="iconify iconify--gg" width="1em" height="1em" preserveAspectRatio="xMidYMid meet" viewBox="0 0 24 24"><g fill="currentColor"><path d="M4 6v6h2V8h4V6H4Zm16 12h-6v-2h4v-4h2v6Z"></path><path fill-rule="evenodd" d="M4 2a4 4 0 0 0-4 4v12a4 4 0 0 0 4 4h16a4 4 0 0 0 4-4V6a4 4 0 0 0-4-4H4Zm16 2H4a2 2 0 0 0-2 2v12a2 2 0 0 0 2 2h16a2 2 0 0 0 2-2V6a2 2 0 0 0-2-2Z" clip-rule="evenodd"></path></g></svg>