<svg xmlns="http://www.w3.org/2000/svg" xmlns:xlink="http://www.w3.org/1999/xlink" aria-hidden="true" role="img" class="iconify iconify--gg" width="1em" height="1em" preserveAspectRatio="xMidYMid meet" viewBox="0 0 24 24"><g fill="currentColor"><path fill-rule="evenodd" d="M10 4H8v2H5a3 3 0 0 0-3 3v6a3 3 0 0 0 3 3h3v2h2V4ZM8 8v8H5a1 1 0 0 1-1-1V9a1 1 0 0 1 1-1h3Z" clip-rule="evenodd"></path><path d="M19 16h-7v2h7a3 3 0 0 0 3-3V9a3 3 0 0 0-3-3h-7v2h7a1 1 0 0 1 1 1v6a1 1 0 0 1-1 1Z"></path></g></svg>