<svg xmlns="http://www.w3.org/2000/svg" xmlns:xlink="http://www.w3.org/1999/xlink" aria-hidden="true" role="img" class="iconify iconify--gg" width="1em" height="1em" preserveAspectRatio="xMidYMid meet" viewBox="0 0 24 24"><g fill="currentColor"><path d="m9.172 11.508l-1.415-1.414L12 5.85l4.243 4.243l-1.415 1.414L12 8.68l-2.828 2.828Zm0 .984l-1.415 1.414L12 18.15l4.243-4.243l-1.415-1.414L12 15.32l-2.828-2.828Z"></path><path fill-rule="evenodd" d="M23 12c0 6.075-4.925 11-11 11S1 18.075 1 12S5.925 1 12 1s11 4.925 11 11Zm-2 0a9 9 0 1 1-18 0a9 9 0 0 1 18 0Z" clip-rule="evenodd"></path></g></svg>