<svg xmlns="http://www.w3.org/2000/svg" xmlns:xlink="http://www.w3.org/1999/xlink" aria-hidden="true" role="img" class="iconify iconify--gg" width="1em" height="1em" preserveAspectRatio="xMidYMid meet" viewBox="0 0 24 24"><g fill="currentColor"><path fill-rule="evenodd" d="M5.792 2H1v2h3.218l2.77 12.678H7V17h13v-.248l2.193-9.661L22.531 6H6.655l-.57-2.611L5.792 2Zm14.195 6H7.092l1.529 7h9.777l1.589-7Z" clip-rule="evenodd"></path><path d="M10 22a2 2 0 1 0 0-4a2 2 0 0 0 0 4Zm9-2a2 2 0 1 1-4 0a2 2 0 0 1 4 0Z"></path></g></svg>