<svg xmlns="http://www.w3.org/2000/svg" xmlns:xlink="http://www.w3.org/1999/xlink" aria-hidden="true" role="img" class="iconify iconify--entypo" width="1em" height="1em" preserveAspectRatio="xMidYMid meet" viewBox="0 0 20 20" data-icon="entypo:grid"><path fill="currentColor" fill-rule="evenodd" d="M8 4H5a1 1 0 0 0-1 1v3a1 1 0 0 0 1 1h3a1 1 0 0 0 1-1V5a1 1 0 0 0-1-1zm7 0h-3a1 1 0 0 0-1 1v3a1 1 0 0 0 1 1h3a1 1 0 0 0 1-1V5a1 1 0 0 0-1-1zm-7 7H5a1 1 0 0 0-1 1v3a1 1 0 0 0 1 1h3a1 1 0 0 0 1-1v-3a1 1 0 0 0-1-1zm7 0h-3a1 1 0 0 0-1 1v3a1 1 0 0 0 1 1h3a1 1 0 0 0 1-1v-3a1 1 0 0 0-1-1z" clip-rule="evenodd"></path></svg>