<svg xmlns="http://www.w3.org/2000/svg" xmlns:xlink="http://www.w3.org/1999/xlink" aria-hidden="true" role="img" class="iconify iconify--entypo" width="1em" height="1em" preserveAspectRatio="xMidYMid meet" viewBox="0 0 20 20"><path fill="currentColor" fill-rule="evenodd" d="M15.5 11h-11c-.275 0-.5.225-.5.5v1a.5.5 0 0 0 .5.5h11a.5.5 0 0 0 .5-.5v-1a.5.5 0 0 0-.5-.5zm0-4h-11c-.275 0-.5.225-.5.5v1a.5.5 0 0 0 .5.5h11a.5.5 0 0 0 .5-.5v-1a.5.5 0 0 0-.5-.5zm-5 8h-6c-.275 0-.5.225-.5.5v1a.5.5 0 0 0 .5.5h6a.5.5 0 0 0 .5-.5v-1a.5.5 0 0 0-.5-.5zm5-12h-11c-.275 0-.5.225-.5.5v1a.5.5 0 0 0 .5.5h11a.5.5 0 0 0 .5-.5v-1a.5.5 0 0 0-.5-.5z" clip-rule="evenodd"></path></svg>