<svg xmlns="http://www.w3.org/2000/svg" xmlns:xlink="http://www.w3.org/1999/xlink" aria-hidden="true" role="img" class="iconify iconify--logos" width="0.99em" height="1em" preserveAspectRatio="xMidYMid meet" viewBox="0 0 256 259" data-icon="logos:apiary"><defs><linearGradient id="IconifyId17f59f225d43510cb35" x1="100.012%" x2="0%" y1="49.991%" y2="49.991%"><stop offset="0%" stop-color="#37BDA6"></stop><stop offset="100%" stop-color="#8AD3B8"></stop></linearGradient><linearGradient id="IconifyId17f59f225d43510cb36" x1="100.012%" x2="0%" y1="49.998%" y2="49.998%"><stop offset="50%" stop-color="#4BB6AD"></stop><stop offset="100%" stop-color="#78BBC1"></stop></linearGradient><linearGradient id="IconifyId17f59f225d43510cb37" x1="-.018%" x2="100.023%" y1="49.998%" y2="49.998%"><stop offset="0%" stop-color="#4379A7"></stop><stop offset="100%" stop-color="#7CC9B8"></stop></linearGradient></defs><path fill="#13A049" d="M127.693 36.867v73.58l63.847-36.866V0l-63.847 36.867Z" opacity=".5"></path><path fill="#A2CC39" d="M127.693 36.867L63.847 0v73.734l63.846 36.867V36.867Z" opacity=".5"></path><path fill="url(#IconifyId17f59f225d43510cb35)" d="m191.54 0l-63.847 36.867L63.847 0L0 36.867l127.693 73.734L255.31 36.867L191.54 0Z" opacity=".9"></path><path fill="url(#IconifyId17f59f225d43510cb36)" d="M127.693 110.601L0 36.867v73.734l63.847 36.867v73.658l63.846 36.867l63.847-36.867v-73.658l63.77-36.867V36.867l-127.617 73.734Z"></path><path fill="url(#IconifyId17f59f225d43510cb37)" d="M127.693 110.601v147.392l63.847-36.867v-73.658l63.77-36.867V36.867l-127.617 73.734Z"></path><path fill="#231F20" d="M127.693 184.259v73.734l63.847-36.867l-63.847-36.867Z" opacity=".05"></path><path fill="#231F20" d="M127.693 258.146v-73.734l-63.846 36.867l63.846 36.867Z" opacity=".1"></path><path fill="#231F20" d="M63.847 73.734L0 110.601l63.847 36.867l63.846-36.867l-63.846-36.867Z" opacity=".05"></path><path fill="#231F20" d="m191.54 73.734l-63.847 36.867l63.847 36.867l63.77-36.867l-63.77-36.867Z" opacity=".05"></path></svg>