<svg xmlns="http://www.w3.org/2000/svg" xmlns:xlink="http://www.w3.org/1999/xlink" aria-hidden="true" role="img" class="iconify iconify--logos" width="0.81em" height="1em" preserveAspectRatio="xMidYMid meet" viewBox="0 0 256 317"><defs><linearGradient id="IconifyId17f59f225d43510cb386" x1="16.107%" x2="72.709%" y1="58.187%" y2="72.89%"><stop offset="0%" stop-color="#FFD441"></stop><stop offset="100%" stop-color="#FFB047"></stop></linearGradient><linearGradient id="IconifyId17f59f225d43510cb387" x1="70.213%" x2="100%" y1="65.797%" y2="0%"><stop offset="0%" stop-color="#FFD754"></stop><stop offset="100%" stop-color="#FFB532"></stop></linearGradient><linearGradient id="IconifyId17f59f225d43510cb388" x1="22.178%" x2="22.178%" y1="66.138%" y2="9.316%"><stop offset="0%" stop-color="#FFD642"></stop><stop offset="0%" stop-color="#FFD441"></stop><stop offset="100%" stop-color="#FFB532"></stop></linearGradient><linearGradient id="IconifyId17f59f225d43510cb389" x1="88.953%" x2="12.579%" y1="24.298%" y2="6.966%"><stop offset="0%" stop-color="#FFD441"></stop><stop offset="100%" stop-color="#FFA829"></stop></linearGradient></defs><path fill="#FFDF51" fill-opacity=".7" d="M211.69 309.979V228.12h-81.201l81.2 81.858"></path><path fill="#FF8900" fill-opacity=".7" d="M220.801 263.566v-88.533H132.98l87.822 88.533"></path><path fill="url(#IconifyId17f59f225d43510cb386)" fill-opacity=".7" d="M167.467 228.118v88.534h87.822l-87.822-88.534"></path><path fill="#FFDF4F" fill-opacity=".7" d="M202.444 180.962v-70.027h-69.467l69.467 70.027"></path><path fill="url(#IconifyId17f59f225d43510cb387)" fill-opacity=".8" d="M235.424 164.267V75.733h-87.822l87.822 88.534"></path><path fill="url(#IconifyId17f59f225d43510cb388)" fill-opacity=".8" d="M85.735 0v88.533h87.822L85.735 0"></path><path fill="url(#IconifyId17f59f225d43510cb389)" fill-opacity=".88" d="M106.334 138.667V50.133H.135l87.443 88.552l18.756-.018"></path><path fill="#FFB700" fill-opacity=".7" d="M106.334 316.175V209.067H.135l106.199 107.108"></path><path fill="#FFB700" fill-opacity=".5" d="M106.357 227.467v-88.534H18.535l87.822 88.534"></path><path fill="#FFCD25" fill-opacity=".7" d="M132.976 110.933v88.534h87.823l-87.823-88.534"></path><path fill="#FF8900" fill-opacity=".7" d="M106.135 120.9V32.365H18.313l87.822 88.533m24.354 107.22v88.534h87.822l-87.822-88.534"></path></svg>