<svg xmlns="http://www.w3.org/2000/svg" xmlns:xlink="http://www.w3.org/1999/xlink" aria-hidden="true" role="img" class="iconify iconify--logos" width="0.61em" height="1em" preserveAspectRatio="xMidYMid meet" viewBox="0 0 256 425"><defs><radialGradient id="IconifyId17f59f225d43510cb898" cx="16.423%" cy="143%" r="295.571%" fx="16.423%" fy="143%"><stop offset="0%" stop-color="#00BC85"></stop><stop offset="100%" stop-color="#149D91"></stop></radialGradient><radialGradient id="IconifyId17f59f225d43510cb899" cx="16.423%" cy="-43%" r="357.004%" fx="16.423%" fy="-43%"><stop offset="0%" stop-color="#00BC85"></stop><stop offset="100%" stop-color="#149D91"></stop></radialGradient><radialGradient id="IconifyId17f59f225d43510cb900" cx="11.467%" cy="-40.458%" r="343.189%" fx="11.467%" fy="-40.458%"><stop offset="0%" stop-color="#004473"></stop><stop offset="100%" stop-color="#00345F"></stop></radialGradient><linearGradient id="IconifyId17f59f225d43510cb901" x1="50%" x2="50%" y1="-352.926%" y2="96.718%"><stop offset="0%" stop-color="#002E3B"></stop><stop offset="100%" stop-color="#002639"></stop></linearGradient><linearGradient id="IconifyId17f59f225d43510cb902" x1="50%" x2="50%" y1="-2.808%" y2="428.759%"><stop offset="0%" stop-color="#002E3B"></stop><stop offset="100%" stop-color="#002639"></stop></linearGradient></defs><path fill="url(#IconifyId17f59f225d43510cb901)" d="M65.7 330.3L.107 362.385l127.292 62l127.64-62.194l-65.76-32.539l-61.928 30.754L65.699 330.3Z"></path><path fill="url(#IconifyId17f59f225d43510cb902)" d="M57.602 98.175v-.02l69.93-34.107l69.934 34.106L255.004 62.2L127.484 0L0 62.18v.055l57.554 35.964l.048-.024Z"></path><path fill="url(#IconifyId17f59f225d43510cb898)" d="m.156 298.428l62.915-30.803l64.714 32.042L.156 362.462v-64.034Z"></path><path fill="url(#IconifyId17f59f225d43510cb899)" d="M196.678 99.41v100.768l-70.342 34.424l64.686 32.339l62.979-30.797V62.19l-57.323 35.976v1.243Z"></path><path fill="url(#IconifyId17f59f225d43510cb900)" d="m255.004 298.216l-197.415-98.25V98.182L0 62.23v173.702l255.004 126.321v-64.037Z"></path></svg>