<svg xmlns="http://www.w3.org/2000/svg" xmlns:xlink="http://www.w3.org/1999/xlink" aria-hidden="true" role="img" class="iconify iconify--logos" width="1em" height="1em" preserveAspectRatio="xMidYMid meet" viewBox="0 0 256 256"><path fill="#D46A59" d="M.06 131.957C2.151 200.818 58.632 256 128 256c70.692 0 128-57.308 128-128C256 57.308 198.692 0 128 0C58.632 0 2.151 55.182.06 124.043v7.914Z"></path><path fill="#D04F41" d="M227.187 128c0 54.779-44.408 99.187-99.187 99.187c-54.78 0-99.187-44.408-99.187-99.187c0-54.779 44.407-99.187 99.187-99.187c54.779 0 99.187 44.408 99.187 99.187Z"></path><path fill="#fff" d="M85.738 206.945L24.35 85.206l41.817-13.259l32.51 72.797l4.462-78.151l36.335-7.013l33.53 71.522l3.013-78.57l37.401-7.358l-10.709 139.092l-39.14 7.777l-33.784-69.992l-4.717 77.641l-39.33 7.253Z"></path></svg>