<svg xmlns="http://www.w3.org/2000/svg" xmlns:xlink="http://www.w3.org/1999/xlink" aria-hidden="true" role="img" class="iconify iconify--ic" width="1em" height="1em" preserveAspectRatio="xMidYMid meet" viewBox="0 0 24 24"><path fill="currentColor" d="M6.4 9.2h.2c.77 0 1.4.63 1.4 1.4v7c0 .77-.63 1.4-1.4 1.4h-.2c-.77 0-1.4-.63-1.4-1.4v-7c0-.77.63-1.4 1.4-1.4zM12 5c.77 0 1.4.63 1.4 1.4v11.2c0 .77-.63 1.4-1.4 1.4c-.77 0-1.4-.63-1.4-1.4V6.4c0-.77.63-1.4 1.4-1.4zm5.6 8c.77 0 1.4.63 1.4 1.4v3.2c0 .77-.63 1.4-1.4 1.4c-.77 0-1.4-.63-1.4-1.4v-3.2c0-.77.63-1.4 1.4-1.4z"></path></svg>