<svg xmlns="http://www.w3.org/2000/svg" xmlns:xlink="http://www.w3.org/1999/xlink" aria-hidden="true" role="img" class="iconify iconify--ic" width="1em" height="1em" preserveAspectRatio="xMidYMid meet" viewBox="0 0 24 24"><path fill="currentColor" d="M12 7c-2.76 0-5 2.24-5 5h10c0-2.76-2.24-5-5-5z" opacity=".3"></path><circle cx="8" cy="20" r="1" fill="currentColor"></circle><circle cx="16" cy="17" r="1" fill="currentColor"></circle><path fill="currentColor" d="M13 5.08V3h-2v2.08C7.61 5.57 5 8.47 5 12v2h14v-2c0-3.53-2.61-6.43-6-6.92zM7 12c0-2.76 2.24-5 5-5s5 2.24 5 5H7z"></path><circle cx="16" cy="20" r="1" fill="currentColor"></circle><circle cx="12" cy="17" r="1" fill="currentColor"></circle><circle cx="8" cy="17" r="1" fill="currentColor"></circle><circle cx="12" cy="20" r="1" fill="currentColor"></circle></svg>