<svg xmlns="http://www.w3.org/2000/svg" xmlns:xlink="http://www.w3.org/1999/xlink" aria-hidden="true" role="img" class="iconify iconify--ic" width="1em" height="1em" preserveAspectRatio="xMidYMid meet" viewBox="0 0 24 24"><path fill="currentColor" d="M17 16.5c.28 0 .5-.22.5-.5s-.22-.5-.5-.5s-.5.22-.5.5s.22.5.5.5z"></path><circle cx="9" cy="12" r="1" fill="currentColor"></circle><circle cx="13" cy="8" r="1" fill="currentColor"></circle><circle cx="13" cy="16" r="1" fill="currentColor"></circle><path fill="currentColor" d="M17 12.5c.28 0 .5-.22.5-.5s-.22-.5-.5-.5s-.5.22-.5.5s.22.5.5.5z"></path><circle cx="13" cy="12" r="1" fill="currentColor"></circle><path fill="currentColor" d="M3 3h18v2H3z"></path><circle cx="5" cy="8" r="1.5" fill="currentColor"></circle><circle cx="5" cy="12" r="1.5" fill="currentColor"></circle><circle cx="5" cy="16" r="1.5" fill="currentColor"></circle><path fill="currentColor" d="M17 8.5c.28 0 .5-.22.5-.5s-.22-.5-.5-.5s-.5.22-.5.5s.22.5.5.5z"></path><circle cx="9" cy="16" r="1" fill="currentColor"></circle><circle cx="9" cy="8" r="1" fill="currentColor"></circle><path fill="currentColor" d="M3 19h18v2H3z"></path></svg>