<svg xmlns="http://www.w3.org/2000/svg" xmlns:xlink="http://www.w3.org/1999/xlink" aria-hidden="true" role="img" class="iconify iconify--ic" width="1em" height="1em" preserveAspectRatio="xMidYMid meet" viewBox="0 0 24 24"><circle cx="6" cy="14" r="1" fill="currentColor"></circle><circle cx="6" cy="18" r="1" fill="currentColor"></circle><circle cx="6" cy="10" r="1" fill="currentColor"></circle><circle cx="3" cy="10" r=".5" fill="currentColor"></circle><circle cx="6" cy="6" r="1" fill="currentColor"></circle><circle cx="3" cy="14" r=".5" fill="currentColor"></circle><circle cx="10" cy="21" r=".5" fill="currentColor"></circle><circle cx="10" cy="3" r=".5" fill="currentColor"></circle><circle cx="10" cy="6" r="1" fill="currentColor"></circle><circle cx="10" cy="14" r="1.5" fill="currentColor"></circle><circle cx="10" cy="10" r="1.5" fill="currentColor"></circle><circle cx="10" cy="18" r="1" fill="currentColor"></circle><path fill="currentColor" d="M12 3v2c3.86 0 7 3.14 7 7s-3.14 7-7 7v2c4.96 0 9-4.04 9-9s-4.04-9-9-9z"></path><path fill="currentColor" d="M12 5v14c3.86 0 7-3.14 7-7s-3.14-7-7-7z" opacity=".3"></path></svg>