<svg xmlns="http://www.w3.org/2000/svg" xmlns:xlink="http://www.w3.org/1999/xlink" aria-hidden="true" role="img" class="iconify iconify--ic" width="1em" height="1em" preserveAspectRatio="xMidYMid meet" viewBox="0 0 24 24"><path fill="currentColor" d="M3 11h18v2H3z"></path><circle cx="12" cy="6" r="1" fill="currentColor" opacity=".3"></circle><circle cx="12" cy="18" r="1" fill="currentColor" opacity=".3"></circle><path fill="currentColor" d="M12.003 3a3 3 0 1 1-.006 6a3 3 0 0 1 .006-6zM12 5a1 1 0 1 0 0 2a1 1 0 0 0 0-2zm.003 10a3 3 0 1 1-.006 6a3 3 0 0 1 .006-6zM12 17a1 1 0 1 0 0 2a1 1 0 0 0 0-2z"></path></svg>